<svg width="300" height="176" xmlns="http://www.w3.org/2000/svg"><path d="M157,90L82,79L54,189Z" fill="#7d6057" stroke="#7d6057" stroke-width="1.51"></path><path d="M54,189L170,210L157,90Z" fill="#765950" stroke="#765950" stroke-width="1.51"></path><path d="M54,189L93,252L170,210Z" fill="#765950" stroke="#765950" stroke-width="1.51"></path><path d="M82,79L3,117L54,189Z" fill="#84675e" stroke="#84675e" stroke-width="1.51"></path><path d="M54,189L-49,241L93,252Z" fill="#81635a" stroke="#81635a" stroke-width="1.51"></path><path d="M170,210L228,146L157,90Z" fill="#72554c" stroke="#72554c" stroke-width="1.51"></path><path d="M3,117L-14,175L54,189Z" fill="#886a61" stroke="#886a61" stroke-width="1.51"></path><path d="M93,252L152,269L170,210Z" fill="#705249" stroke="#705249" stroke-width="1.51"></path><path d="M170,210L244,245L228,146Z" fill="#6e5148" stroke="#6e5148" stroke-width="1.51"></path><path d="M181,-35L45,-3L82,79Z" fill="#8e7168" stroke="#8e7168" stroke-width="1.51"></path><path d="M228,146L233,87L157,90Z" fill="#73564d" stroke="#73564d" stroke-width="1.51"></path><path d="M82,79L45,-3L3,117Z" fill="#8c6f66" stroke="#8c6f66" stroke-width="1.51"></path><path d="M181,-35L82,79L157,90Z" fill="#82645b" stroke="#82645b" stroke-width="1.51"></path><path d="M228,146L306,79L233,87Z" fill="#71544b" stroke="#71544b" stroke-width="1.51"></path><path d="M152,269L244,245L170,210Z" fill="#6c4f46" stroke="#6c4f46" stroke-width="1.51"></path><path d="M233,87L217,10L157,90Z" fill="#7a5d54" stroke="#7a5d54" stroke-width="1.51"></path><path d="M-14,175L-49,241L54,189Z" fill="#886a61" stroke="#886a61" stroke-width="1.51"></path><path d="M93,252L-115,265L152,269Z" fill="#7d6057" stroke="#7d6057" stroke-width="1.51"></path><path d="M-102,147L-49,241L-14,175Z" fill="#91736a" stroke="#91736a" stroke-width="1.51"></path><path d="M-102,147L-14,175L3,117Z" fill="#90736a" stroke="#90736a" stroke-width="1.51"></path><path d="M45,-3L-34,19L3,117Z" fill="#977a70" stroke="#977a70" stroke-width="1.51"></path><path d="M217,10L181,-35L157,90Z" fill="#84665d" stroke="#84665d" stroke-width="1.51"></path><path d="M244,245L308,198L228,146Z" fill="#6c4f46" stroke="#6c4f46" stroke-width="1.51"></path><path d="M233,87L298,7L217,10Z" fill="#7e6158" stroke="#7e6158" stroke-width="1.51"></path><path d="M217,10L321,-60L181,-35Z" fill="#8d6f65" stroke="#8d6f65" stroke-width="1.51"></path><path d="M308,198L306,79L228,146Z" fill="#6e5148" stroke="#6e5148" stroke-width="1.51"></path><path d="M-34,19L-102,147L3,117Z" fill="#95776e" stroke="#95776e" stroke-width="1.51"></path><path d="M181,-35L62,-69L45,-3Z" fill="#9a7d74" stroke="#9a7d74" stroke-width="1.51"></path><path d="M45,-3L-50,-80L-34,19Z" fill="#a88b81" stroke="#a88b81" stroke-width="1.51"></path><path d="M306,79L298,7L233,87Z" fill="#785b52" stroke="#785b52" stroke-width="1.51"></path><path d="M-34,19L-135,117L-102,147Z" fill="#9c7e75" stroke="#9c7e75" stroke-width="1.51"></path><path d="M-102,147L-115,265L-49,241Z" fill="#94776d" stroke="#94776d" stroke-width="1.51"></path><path d="M-135,117L-115,265L-102,147Z" fill="#9b7e75" stroke="#9b7e75" stroke-width="1.51"></path><path d="M-49,241L-115,265L93,252Z" fill="#886a61" stroke="#886a61" stroke-width="1.51"></path><path d="M181,-35L124,-119L62,-69Z" fill="#9e8178" stroke="#9e8178" stroke-width="1.51"></path><path d="M273,-121L124,-119L181,-35Z" fill="#9c7f76" stroke="#9c7f76" stroke-width="1.51"></path><path d="M124,-119L-50,-80L62,-69Z" fill="#ae9188" stroke="#ae9188" stroke-width="1.51"></path><path d="M62,-69L-50,-80L45,-3Z" fill="#aa8c83" stroke="#aa8c83" stroke-width="1.51"></path><path d="M-34,19L-135,-18L-135,117Z" fill="#a98c82" stroke="#a98c82" stroke-width="1.51"></path><path d="M308,198L423,102L306,79Z" fill="#6d4f46" stroke="#6d4f46" stroke-width="1.51"></path><path d="M440,10L321,-60L298,7Z" fill="#84675e" stroke="#84675e" stroke-width="1.51"></path><path d="M244,245L358,269L308,198Z" fill="#684b42" stroke="#684b42" stroke-width="1.51"></path><path d="M152,269L358,269L244,245Z" fill="#694b42" stroke="#694b42" stroke-width="1.51"></path><path d="M298,7L321,-60L217,10Z" fill="#886a61" stroke="#886a61" stroke-width="1.51"></path><path d="M440,10L298,7L306,79Z" fill="#7b5d54" stroke="#7b5d54" stroke-width="1.51"></path><path d="M-103,-71L-135,-18L-34,19Z" fill="#b5988f" stroke="#b5988f" stroke-width="1.51"></path><path d="M-50,-80L-103,-71L-34,19Z" fill="#b5988f" stroke="#b5988f" stroke-width="1.51"></path><path d="M124,-119L-103,-71L-50,-80Z" fill="#b79a91" stroke="#b79a91" stroke-width="1.51"></path><path d="M321,-60L273,-121L181,-35Z" fill="#95786e" stroke="#95786e" stroke-width="1.51"></path><path d="M430,205L423,102L308,198Z" fill="#684b42" stroke="#684b42" stroke-width="1.51"></path><path d="M358,269L430,205L308,198Z" fill="#664940" stroke="#664940" stroke-width="1.51"></path><path d="M358,269L418,288L430,205Z" fill="#63463d" stroke="#63463d" stroke-width="1.51"></path><path d="M152,269L418,288L358,269Z" fill="#65483f" stroke="#65483f" stroke-width="1.51"></path><path d="M-115,265L418,288L152,269Z" fill="#6c4f46" stroke="#6c4f46" stroke-width="1.51"></path><path d="M423,102L440,10L306,79Z" fill="#72554c" stroke="#72554c" stroke-width="1.51"></path><path d="M321,-60L448,-115L273,-121Z" fill="#977a71" stroke="#977a71" stroke-width="1.51"></path><path d="M430,205L440,10L423,102Z" fill="#6a4d44" stroke="#6a4d44" stroke-width="1.51"></path><path d="M440,10L448,-115L321,-60Z" fill="#8b6e64" stroke="#8b6e64" stroke-width="1.51"></path><path d="M430,205L448,-115L440,10Z" fill="#775950" stroke="#775950" stroke-width="1.51"></path></svg>