<svg width="300" height="176" xmlns="http://www.w3.org/2000/svg"><path d="M-101,-72L2,-87L176,-124Z" fill="#b3958c" stroke="#b3958c" stroke-width="1.51"></path><path d="M358,28L411,115L423,10Z" fill="#75574e" stroke="#75574e" stroke-width="1.51"></path><path d="M307,248L242,287L427,243Z" fill="#65483f" stroke="#65483f" stroke-width="1.51"></path><path d="M176,-124L256,-115L436,-98Z" fill="#9c7f76" stroke="#9c7f76" stroke-width="1.51"></path><path d="M256,-115L350,-86L436,-98Z" fill="#987a71" stroke="#987a71" stroke-width="1.51"></path><path d="M350,-86L423,10L436,-98Z" fill="#8c6e65" stroke="#8c6e65" stroke-width="1.51"></path><path d="M354,187L427,243L450,152Z" fill="#664940" stroke="#664940" stroke-width="1.51"></path><path d="M411,115L354,187L450,152Z" fill="#694c43" stroke="#694c43" stroke-width="1.51"></path><path d="M423,10L411,115L450,152Z" fill="#6b4e45" stroke="#6b4e45" stroke-width="1.51"></path><path d="M436,-98L423,10L450,152Z" fill="#795c52" stroke="#795c52" stroke-width="1.51"></path><path d="M350,-86L358,28L423,10Z" fill="#83665d" stroke="#83665d" stroke-width="1.51"></path><path d="M354,187L307,248L427,243Z" fill="#664940" stroke="#664940" stroke-width="1.51"></path><path d="M358,28L322,116L411,115Z" fill="#6e5148" stroke="#6e5148" stroke-width="1.51"></path><path d="M322,116L354,187L411,115Z" fill="#6b4e45" stroke="#6b4e45" stroke-width="1.51"></path><path d="M90,259L1,293L242,287Z" fill="#72554c" stroke="#72554c" stroke-width="1.51"></path><path d="M229,20L240,102L322,116Z" fill="#74574e" stroke="#74574e" stroke-width="1.51"></path><path d="M256,-115L229,20L350,-86Z" fill="#92746b" stroke="#92746b" stroke-width="1.51"></path><path d="M350,-86L229,20L358,28Z" fill="#86685f" stroke="#86685f" stroke-width="1.51"></path><path d="M229,20L322,116L358,28Z" fill="#775a51" stroke="#775a51" stroke-width="1.51"></path><path d="M322,116L225,197L354,187Z" fill="#6d4f46" stroke="#6d4f46" stroke-width="1.51"></path><path d="M225,197L307,248L354,187Z" fill="#6a4d44" stroke="#6a4d44" stroke-width="1.51"></path><path d="M240,102L225,197L322,116Z" fill="#6f5249" stroke="#6f5249" stroke-width="1.51"></path><path d="M225,197L242,287L307,248Z" fill="#694c43" stroke="#694c43" stroke-width="1.51"></path><path d="M2,-87L84,-87L176,-124Z" fill="#aa8c83" stroke="#aa8c83" stroke-width="1.51"></path><path d="M176,-124L118,19L229,20Z" fill="#8f7268" stroke="#8f7268" stroke-width="1.51"></path><path d="M153,147L225,197L240,102Z" fill="#71544b" stroke="#71544b" stroke-width="1.51"></path><path d="M126,244L90,259L242,287Z" fill="#6d5047" stroke="#6d5047" stroke-width="1.51"></path><path d="M176,-124L229,20L256,-115Z" fill="#977970" stroke="#977970" stroke-width="1.51"></path><path d="M229,20L137,103L240,102Z" fill="#785a51" stroke="#785a51" stroke-width="1.51"></path><path d="M225,197L126,244L242,287Z" fill="#6c4f46" stroke="#6c4f46" stroke-width="1.51"></path><path d="M137,103L153,147L240,102Z" fill="#74574e" stroke="#74574e" stroke-width="1.51"></path><path d="M84,-87L118,19L176,-124Z" fill="#9c7e75" stroke="#9c7e75" stroke-width="1.51"></path><path d="M118,19L137,103L229,20Z" fill="#7f6259" stroke="#7f6259" stroke-width="1.51"></path><path d="M153,147L126,244L225,197Z" fill="#6f5249" stroke="#6f5249" stroke-width="1.51"></path><path d="M84,-87L54,-5L118,19Z" fill="#997c73" stroke="#997c73" stroke-width="1.51"></path><path d="M68,204L126,244L153,147Z" fill="#76584f" stroke="#76584f" stroke-width="1.51"></path><path d="M137,103L67,118L153,147Z" fill="#7a5c53" stroke="#7a5c53" stroke-width="1.51"></path><path d="M67,118L68,204L153,147Z" fill="#7b5e55" stroke="#7b5e55" stroke-width="1.51"></path><path d="M118,19L67,118L137,103Z" fill="#7f6259" stroke="#7f6259" stroke-width="1.51"></path><path d="M54,-5L67,118L118,19Z" fill="#8b6e65" stroke="#8b6e65" stroke-width="1.51"></path><path d="M68,204L90,259L126,244Z" fill="#775a51" stroke="#775a51" stroke-width="1.51"></path><path d="M54,-5L-46,106L67,118Z" fill="#8d7067" stroke="#8d7067" stroke-width="1.51"></path><path d="M2,-87L54,-5L84,-87Z" fill="#a78a81" stroke="#a78a81" stroke-width="1.51"></path><path d="M68,204L1,293L90,259Z" fill="#7c5f56" stroke="#7c5f56" stroke-width="1.51"></path><path d="M67,118L-39,149L68,204Z" fill="#85685f" stroke="#85685f" stroke-width="1.51"></path><path d="M-36,-28L-46,106L54,-5Z" fill="#9e8077" stroke="#9e8077" stroke-width="1.51"></path><path d="M-39,149L1,293L68,204Z" fill="#85675e" stroke="#85675e" stroke-width="1.51"></path><path d="M-46,106L-39,149L67,118Z" fill="#8d6f66" stroke="#8d6f66" stroke-width="1.51"></path><path d="M2,-87L-36,-28L54,-5Z" fill="#a98c83" stroke="#a98c83" stroke-width="1.51"></path><path d="M-112,55L-46,106L-36,-28Z" fill="#a2857b" stroke="#a2857b" stroke-width="1.51"></path><path d="M-39,149L-123,246L1,293Z" fill="#8e7167" stroke="#8e7167" stroke-width="1.51"></path><path d="M-101,-72L-36,-28L2,-87Z" fill="#b69990" stroke="#b69990" stroke-width="1.51"></path><path d="M-133,194L-123,246L-39,149Z" fill="#977970" stroke="#977970" stroke-width="1.51"></path><path d="M-101,-72L-154,-2L-36,-28Z" fill="#b99b92" stroke="#b99b92" stroke-width="1.51"></path><path d="M-154,-2L-112,55L-36,-28Z" fill="#b09289" stroke="#b09289" stroke-width="1.51"></path><path d="M-46,106L-133,194L-39,149Z" fill="#96786f" stroke="#96786f" stroke-width="1.51"></path><path d="M-112,55L-133,194L-46,106Z" fill="#9b7e75" stroke="#9b7e75" stroke-width="1.51"></path><path d="M-154,-2L-133,194L-112,55Z" fill="#a4877e" stroke="#a4877e" stroke-width="1.51"></path></svg>