<svg width="300" height="176" xmlns="http://www.w3.org/2000/svg"><path d="M163,86L250,106L178,11Z" fill="#795c53" stroke="#795c53" stroke-width="1.51"></path><path d="M250,106L230,-24L178,11Z" fill="#80635a" stroke="#80635a" stroke-width="1.51"></path><path d="M250,106L310,13L230,-24Z" fill="#7e6158" stroke="#7e6158" stroke-width="1.51"></path><path d="M163,86L227,177L250,106Z" fill="#72554c" stroke="#72554c" stroke-width="1.51"></path><path d="M250,106L361,55L310,13Z" fill="#775a51" stroke="#775a51" stroke-width="1.51"></path><path d="M163,86L164,174L227,177Z" fill="#72554c" stroke="#72554c" stroke-width="1.51"></path><path d="M230,-24L228,-74L178,11Z" fill="#8e7067" stroke="#8e7067" stroke-width="1.51"></path><path d="M310,13L228,-74L230,-24Z" fill="#8c6e65" stroke="#8c6e65" stroke-width="1.51"></path><path d="M310,13L359,-69L228,-74Z" fill="#8d7066" stroke="#8d7066" stroke-width="1.51"></path><path d="M398,88L361,55L352,207Z" fill="#6c4f46" stroke="#6c4f46" stroke-width="1.51"></path><path d="M178,11L51,54L163,86Z" fill="#82655c" stroke="#82655c" stroke-width="1.51"></path><path d="M163,86L84,171L164,174Z" fill="#75584f" stroke="#75584f" stroke-width="1.51"></path><path d="M41,-21L51,54L178,11Z" fill="#907269" stroke="#907269" stroke-width="1.51"></path><path d="M51,54L84,171L163,86Z" fill="#7e6057" stroke="#7e6057" stroke-width="1.51"></path><path d="M164,174L241,240L227,177Z" fill="#6e5148" stroke="#6e5148" stroke-width="1.51"></path><path d="M352,207L361,55L250,106Z" fill="#6e5148" stroke="#6e5148" stroke-width="1.51"></path><path d="M117,244L241,240L164,174Z" fill="#6e5148" stroke="#6e5148" stroke-width="1.51"></path><path d="M352,207L250,106L227,177Z" fill="#6d5047" stroke="#6d5047" stroke-width="1.51"></path><path d="M361,55L393,-6L310,13Z" fill="#7d6056" stroke="#7d6056" stroke-width="1.51"></path><path d="M398,88L393,-6L361,55Z" fill="#765950" stroke="#765950" stroke-width="1.51"></path><path d="M116,-118L41,-21L178,11Z" fill="#9a7c73" stroke="#9a7c73" stroke-width="1.51"></path><path d="M393,-6L359,-69L310,13Z" fill="#86685f" stroke="#86685f" stroke-width="1.51"></path><path d="M391,-92L116,-118L228,-74Z" fill="#9b7d74" stroke="#9b7d74" stroke-width="1.51"></path><path d="M228,-74L116,-118L178,11Z" fill="#967970" stroke="#967970" stroke-width="1.51"></path><path d="M241,240L352,207L227,177Z" fill="#6b4e45" stroke="#6b4e45" stroke-width="1.51"></path><path d="M84,171L117,244L164,174Z" fill="#75584e" stroke="#75584e" stroke-width="1.51"></path><path d="M352,207L412,158L398,88Z" fill="#694c43" stroke="#694c43" stroke-width="1.51"></path><path d="M398,88L412,158L393,-6Z" fill="#6e5148" stroke="#6e5148" stroke-width="1.51"></path><path d="M116,-118L54,-94L41,-21Z" fill="#a88a81" stroke="#a88a81" stroke-width="1.51"></path><path d="M359,-69L391,-92L228,-74Z" fill="#93766c" stroke="#93766c" stroke-width="1.51"></path><path d="M393,-6L391,-92L359,-69Z" fill="#8c6f66" stroke="#8c6f66" stroke-width="1.51"></path><path d="M412,158L391,-92L393,-6Z" fill="#7b5d54" stroke="#7b5d54" stroke-width="1.51"></path><path d="M84,171L32,236L117,244Z" fill="#7a5d54" stroke="#7a5d54" stroke-width="1.51"></path><path d="M51,54L-20,65L84,171Z" fill="#886a61" stroke="#886a61" stroke-width="1.51"></path><path d="M41,-21L-20,65L51,54Z" fill="#967970" stroke="#967970" stroke-width="1.51"></path><path d="M-52,18L-20,65L41,-21Z" fill="#9e8178" stroke="#9e8178" stroke-width="1.51"></path><path d="M-41,177L32,236L84,171Z" fill="#84665d" stroke="#84665d" stroke-width="1.51"></path><path d="M241,240L301,301L352,207Z" fill="#674a41" stroke="#674a41" stroke-width="1.51"></path><path d="M352,207L399,285L412,158Z" fill="#65483f" stroke="#65483f" stroke-width="1.51"></path><path d="M117,244L301,301L241,240Z" fill="#6a4d44" stroke="#6a4d44" stroke-width="1.51"></path><path d="M-35,275L301,301L117,244Z" fill="#705249" stroke="#705249" stroke-width="1.51"></path><path d="M54,-94L-8,-79L41,-21Z" fill="#ac8e85" stroke="#ac8e85" stroke-width="1.51"></path><path d="M116,-118L-8,-79L54,-94Z" fill="#af9188" stroke="#af9188" stroke-width="1.51"></path><path d="M-8,-79L-52,18L41,-21Z" fill="#a98b82" stroke="#a98b82" stroke-width="1.51"></path><path d="M-20,65L-41,177L84,171Z" fill="#8a6d63" stroke="#8a6d63" stroke-width="1.51"></path><path d="M-88,57L-41,177L-20,65Z" fill="#95786f" stroke="#95786f" stroke-width="1.51"></path><path d="M301,301L399,285L352,207Z" fill="#65473e" stroke="#65473e" stroke-width="1.51"></path><path d="M-52,18L-88,57L-20,65Z" fill="#a08379" stroke="#a08379" stroke-width="1.51"></path><path d="M-117,30L-88,57L-52,18Z" fill="#a88a81" stroke="#a88a81" stroke-width="1.51"></path><path d="M-41,177L-35,275L32,236Z" fill="#886b61" stroke="#886b61" stroke-width="1.51"></path><path d="M32,236L-35,275L117,244Z" fill="#7f6158" stroke="#7f6158" stroke-width="1.51"></path><path d="M-99,237L-35,275L-41,177Z" fill="#8f7168" stroke="#8f7168" stroke-width="1.51"></path><path d="M-88,57L-112,166L-41,177Z" fill="#987b71" stroke="#987b71" stroke-width="1.51"></path><path d="M-153,-66L-117,30L-52,18Z" fill="#b4978d" stroke="#b4978d" stroke-width="1.51"></path><path d="M-117,30L-112,166L-88,57Z" fill="#a08279" stroke="#a08279" stroke-width="1.51"></path><path d="M-112,166L-99,237L-41,177Z" fill="#95786f" stroke="#95786f" stroke-width="1.51"></path><path d="M-117,30L-153,-66L-112,166Z" fill="#ac8f86" stroke="#ac8f86" stroke-width="1.51"></path><path d="M-8,-79L-153,-66L-52,18Z" fill="#b69990" stroke="#b69990" stroke-width="1.51"></path><path d="M116,-118L-153,-66L-8,-79Z" fill="#b89a91" stroke="#b89a91" stroke-width="1.51"></path></svg>