<svg width="300" height="176" xmlns="http://www.w3.org/2000/svg"><path d="M303,167L404,240L427,206Z" fill="#664940" stroke="#664940" stroke-width="1.51"></path><path d="M345,31L304,60L427,121Z" fill="#72554c" stroke="#72554c" stroke-width="1.51"></path><path d="M304,60L303,167L427,121Z" fill="#6d5047" stroke="#6d5047" stroke-width="1.51"></path><path d="M397,-25L345,31L427,121Z" fill="#775950" stroke="#775950" stroke-width="1.51"></path><path d="M303,167L427,206L427,121Z" fill="#684b42" stroke="#684b42" stroke-width="1.51"></path><path d="M421,-72L397,-25L427,121Z" fill="#7d5f56" stroke="#7d5f56" stroke-width="1.51"></path><path d="M333,-114L397,-25L421,-72Z" fill="#907269" stroke="#907269" stroke-width="1.51"></path><path d="M303,167L309,265L404,240Z" fill="#674a41" stroke="#674a41" stroke-width="1.51"></path><path d="M266,4L345,31L397,-25Z" fill="#82635a" stroke="#82635a" stroke-width="1.51"></path><path d="M333,-114L266,4L397,-25Z" fill="#8c6e65" stroke="#8c6e65" stroke-width="1.51"></path><path d="M-54,-108L36,-79L247,-122Z" fill="#ad8f86" stroke="#ad8f86" stroke-width="1.51"></path><path d="M303,167L265,176L309,265Z" fill="#6a4d44" stroke="#6a4d44" stroke-width="1.51"></path><path d="M247,-122L266,4L333,-114Z" fill="#95786f" stroke="#95786f" stroke-width="1.51"></path><path d="M266,4L304,60L345,31Z" fill="#7c5f56" stroke="#7c5f56" stroke-width="1.51"></path><path d="M225,114L303,167L304,60Z" fill="#70534a" stroke="#70534a" stroke-width="1.51"></path><path d="M234,235L148,300L309,265Z" fill="#694c43" stroke="#694c43" stroke-width="1.51"></path><path d="M225,114L265,176L303,167Z" fill="#6e5148" stroke="#6e5148" stroke-width="1.51"></path><path d="M265,176L234,235L309,265Z" fill="#6a4d44" stroke="#6a4d44" stroke-width="1.51"></path><path d="M266,4L225,114L304,60Z" fill="#785b52" stroke="#785b52" stroke-width="1.51"></path><path d="M36,-79L146,-64L247,-122Z" fill="#9e8178" stroke="#9e8178" stroke-width="1.51"></path><path d="M170,26L225,114L266,4Z" fill="#7c5f56" stroke="#7c5f56" stroke-width="1.51"></path><path d="M247,-122L146,-64L266,4Z" fill="#94776d" stroke="#94776d" stroke-width="1.51"></path><path d="M146,-64L170,26L266,4Z" fill="#8a6d64" stroke="#8a6d64" stroke-width="1.51"></path><path d="M132,149L234,235L265,176Z" fill="#6f5148" stroke="#6f5148" stroke-width="1.51"></path><path d="M225,114L132,149L265,176Z" fill="#71544b" stroke="#71544b" stroke-width="1.51"></path><path d="M170,26L130,109L225,114Z" fill="#775a51" stroke="#775a51" stroke-width="1.51"></path><path d="M132,149L148,300L234,235Z" fill="#6e5148" stroke="#6e5148" stroke-width="1.51"></path><path d="M130,109L132,149L225,114Z" fill="#74574e" stroke="#74574e" stroke-width="1.51"></path><path d="M26,-34L67,60L146,-64Z" fill="#987a71" stroke="#987a71" stroke-width="1.51"></path><path d="M35,254L-43,289L148,300Z" fill="#7c5e55" stroke="#7c5e55" stroke-width="1.51"></path><path d="M132,149L35,254L148,300Z" fill="#75584f" stroke="#75584f" stroke-width="1.51"></path><path d="M146,-64L67,60L170,26Z" fill="#8c6f66" stroke="#8c6f66" stroke-width="1.51"></path><path d="M67,60L130,109L170,26Z" fill="#80635a" stroke="#80635a" stroke-width="1.51"></path><path d="M42,160L35,254L132,149Z" fill="#7d6057" stroke="#7d6057" stroke-width="1.51"></path><path d="M36,-79L26,-34L146,-64Z" fill="#a4877d" stroke="#a4877d" stroke-width="1.51"></path><path d="M130,109L42,160L132,149Z" fill="#7b5e55" stroke="#7b5e55" stroke-width="1.51"></path><path d="M67,60L42,160L130,109Z" fill="#80635a" stroke="#80635a" stroke-width="1.51"></path><path d="M26,-34L-4,9L67,60Z" fill="#9a7d74" stroke="#9a7d74" stroke-width="1.51"></path><path d="M-27,70L42,160L67,60Z" fill="#896c63" stroke="#896c63" stroke-width="1.51"></path><path d="M-4,9L-27,70L67,60Z" fill="#95786f" stroke="#95786f" stroke-width="1.51"></path><path d="M-57,154L-43,289L35,254Z" fill="#896b62" stroke="#896b62" stroke-width="1.51"></path><path d="M-57,154L35,254L42,160Z" fill="#876960" stroke="#876960" stroke-width="1.51"></path><path d="M-27,70L-57,154L42,160Z" fill="#8e7067" stroke="#8e7067" stroke-width="1.51"></path><path d="M-54,-108L26,-34L36,-79Z" fill="#b2948b" stroke="#b2948b" stroke-width="1.51"></path><path d="M-54,-108L-4,9L26,-34Z" fill="#ad9087" stroke="#ad9087" stroke-width="1.51"></path><path d="M-113,-35L-27,70L-4,9Z" fill="#a6887f" stroke="#a6887f" stroke-width="1.51"></path><path d="M-54,-108L-113,-35L-4,9Z" fill="#b4978e" stroke="#b4978e" stroke-width="1.51"></path><path d="M-146,185L-123,285L-57,154Z" fill="#987a71" stroke="#987a71" stroke-width="1.51"></path><path d="M-57,154L-123,285L-43,289Z" fill="#91736a" stroke="#91736a" stroke-width="1.51"></path><path d="M-129,60L-57,154L-27,70Z" fill="#997c72" stroke="#997c72" stroke-width="1.51"></path><path d="M-113,-35L-129,60L-27,70Z" fill="#a98c83" stroke="#a98c83" stroke-width="1.51"></path><path d="M-120,-105L-113,-35L-54,-108Z" fill="#c4a69d" stroke="#c4a69d" stroke-width="1.51"></path><path d="M-129,60L-146,185L-57,154Z" fill="#9d8077" stroke="#9d8077" stroke-width="1.51"></path><path d="M-120,-105L-129,60L-113,-35Z" fill="#bb9e95" stroke="#bb9e95" stroke-width="1.51"></path><path d="M-146,185L-129,60L-120,-105Z" fill="#ac8f86" stroke="#ac8f86" stroke-width="1.51"></path></svg>