<svg width="300" height="176" xmlns="http://www.w3.org/2000/svg"><path d="M121,97L130,26L80,12Z" fill="#866960" stroke="#866960" stroke-width="1.51"></path><path d="M80,12L27,116L121,97Z" fill="#85685e" stroke="#85685e" stroke-width="1.51"></path><path d="M80,12L-16,2L27,116Z" fill="#93766d" stroke="#93766d" stroke-width="1.51"></path><path d="M27,116L88,194L121,97Z" fill="#7f6259" stroke="#7f6259" stroke-width="1.51"></path><path d="M27,116L-11,161L88,194Z" fill="#85675e" stroke="#85675e" stroke-width="1.51"></path><path d="M-16,2L-33,118L27,116Z" fill="#91746b" stroke="#91746b" stroke-width="1.51"></path><path d="M-33,118L-11,161L27,116Z" fill="#8d6f66" stroke="#8d6f66" stroke-width="1.51"></path><path d="M270,94L246,5L130,26Z" fill="#7e6158" stroke="#7e6158" stroke-width="1.51"></path><path d="M88,194L171,184L121,97Z" fill="#765950" stroke="#765950" stroke-width="1.51"></path><path d="M130,26L170,-79L80,12Z" fill="#90736a" stroke="#90736a" stroke-width="1.51"></path><path d="M80,12L-13,-98L-16,2Z" fill="#a5877e" stroke="#a5877e" stroke-width="1.51"></path><path d="M246,5L170,-79L130,26Z" fill="#8c6f66" stroke="#8c6f66" stroke-width="1.51"></path><path d="M270,94L130,26L121,97Z" fill="#795c53" stroke="#795c53" stroke-width="1.51"></path><path d="M226,180L270,94L121,97Z" fill="#72554c" stroke="#72554c" stroke-width="1.51"></path><path d="M171,184L226,180L121,97Z" fill="#72554c" stroke="#72554c" stroke-width="1.51"></path><path d="M222,275L226,180L171,184Z" fill="#6d5047" stroke="#6d5047" stroke-width="1.51"></path><path d="M246,5L226,-76L170,-79Z" fill="#92756c" stroke="#92756c" stroke-width="1.51"></path><path d="M348,-97L226,-76L246,5Z" fill="#91736a" stroke="#91736a" stroke-width="1.51"></path><path d="M-16,2L-103,91L-33,118Z" fill="#9a7c73" stroke="#9a7c73" stroke-width="1.51"></path><path d="M29,-122L-13,-98L80,12Z" fill="#ac8e85" stroke="#ac8e85" stroke-width="1.51"></path><path d="M29,-122L80,12L170,-79Z" fill="#a1837a" stroke="#a1837a" stroke-width="1.51"></path><path d="M348,-97L29,-122L170,-79Z" fill="#9e8178" stroke="#9e8178" stroke-width="1.51"></path><path d="M-33,118L-119,173L-11,161Z" fill="#93766c" stroke="#93766c" stroke-width="1.51"></path><path d="M-129,-5L-103,91L-16,2Z" fill="#a88b82" stroke="#a88b82" stroke-width="1.51"></path><path d="M88,194L127,279L171,184Z" fill="#73554c" stroke="#73554c" stroke-width="1.51"></path><path d="M-11,161L35,250L88,194Z" fill="#82655b" stroke="#82655b" stroke-width="1.51"></path><path d="M-13,287L35,250L-11,161Z" fill="#85675e" stroke="#85675e" stroke-width="1.51"></path><path d="M321,98L308,25L270,94Z" fill="#74574e" stroke="#74574e" stroke-width="1.51"></path><path d="M270,94L308,25L246,5Z" fill="#7c5f56" stroke="#7c5f56" stroke-width="1.51"></path><path d="M35,250L127,279L88,194Z" fill="#785b52" stroke="#785b52" stroke-width="1.51"></path><path d="M330,159L321,98L270,94Z" fill="#6f5249" stroke="#6f5249" stroke-width="1.51"></path><path d="M330,159L270,94L226,180Z" fill="#6f5148" stroke="#6f5148" stroke-width="1.51"></path><path d="M-13,-98L-129,-5L-16,2Z" fill="#b1948b" stroke="#b1948b" stroke-width="1.51"></path><path d="M-103,91L-119,173L-33,118Z" fill="#997b72" stroke="#997b72" stroke-width="1.51"></path><path d="M-129,-5L-119,173L-103,91Z" fill="#a1847b" stroke="#a1847b" stroke-width="1.51"></path><path d="M127,279L222,275L171,184Z" fill="#6d5047" stroke="#6d5047" stroke-width="1.51"></path><path d="M127,279L-13,287L222,275Z" fill="#72544b" stroke="#72544b" stroke-width="1.51"></path><path d="M35,250L-13,287L127,279Z" fill="#7c5e55" stroke="#7c5e55" stroke-width="1.51"></path><path d="M-119,173L-13,287L-11,161Z" fill="#8e7168" stroke="#8e7168" stroke-width="1.51"></path><path d="M363,249L330,159L226,180Z" fill="#6a4d44" stroke="#6a4d44" stroke-width="1.51"></path><path d="M-129,-5L-150,-83L-119,173Z" fill="#b1938a" stroke="#b1938a" stroke-width="1.51"></path><path d="M-13,-98L-150,-83L-129,-5Z" fill="#bfa299" stroke="#bfa299" stroke-width="1.51"></path><path d="M29,-122L-150,-83L-13,-98Z" fill="#bfa299" stroke="#bfa299" stroke-width="1.51"></path><path d="M308,25L348,-97L246,5Z" fill="#886b62" stroke="#886b62" stroke-width="1.51"></path><path d="M226,-76L348,-97L170,-79Z" fill="#987b72" stroke="#987b72" stroke-width="1.51"></path><path d="M406,-78L348,-97L308,25Z" fill="#8c6e65" stroke="#8c6e65" stroke-width="1.51"></path><path d="M399,92L308,25L321,98Z" fill="#72554c" stroke="#72554c" stroke-width="1.51"></path><path d="M330,159L399,92L321,98Z" fill="#6d5047" stroke="#6d5047" stroke-width="1.51"></path><path d="M436,177L399,92L330,159Z" fill="#6a4d44" stroke="#6a4d44" stroke-width="1.51"></path><path d="M-119,173L-133,264L-13,287Z" fill="#93756c" stroke="#93756c" stroke-width="1.51"></path><path d="M-150,-83L-133,264L-119,173Z" fill="#a1847a" stroke="#a1847a" stroke-width="1.51"></path><path d="M222,275L363,249L226,180Z" fill="#694c43" stroke="#694c43" stroke-width="1.51"></path><path d="M448,-32L406,-78L308,25Z" fill="#86685f" stroke="#86685f" stroke-width="1.51"></path><path d="M399,92L448,-32L308,25Z" fill="#7a5c53" stroke="#7a5c53" stroke-width="1.51"></path><path d="M363,249L396,248L330,159Z" fill="#664940" stroke="#664940" stroke-width="1.51"></path><path d="M222,275L396,248L363,249Z" fill="#65483f" stroke="#65483f" stroke-width="1.51"></path><path d="M396,248L436,177L330,159Z" fill="#674a40" stroke="#674a40" stroke-width="1.51"></path><path d="M436,177L448,-32L399,92Z" fill="#6d5047" stroke="#6d5047" stroke-width="1.51"></path></svg>