<svg width="300" height="176" xmlns="http://www.w3.org/2000/svg"><path d="M208,267L120,265L296,296Z" fill="#694c43" stroke="#694c43" stroke-width="1.51"></path><path d="M120,265L-54,283L296,296Z" fill="#70534a" stroke="#70534a" stroke-width="1.51"></path><path d="M-7,-104L48,-103L306,-126Z" fill="#a88b81" stroke="#a88b81" stroke-width="1.51"></path><path d="M48,-103L173,-94L306,-126Z" fill="#a1837a" stroke="#a1837a" stroke-width="1.51"></path><path d="M418,147L334,156L438,238Z" fill="#674a41" stroke="#674a41" stroke-width="1.51"></path><path d="M426,13L417,80L438,238Z" fill="#6a4d44" stroke="#6a4d44" stroke-width="1.51"></path><path d="M417,80L418,147L438,238Z" fill="#674a41" stroke="#674a41" stroke-width="1.51"></path><path d="M331,-32L426,13L446,-94Z" fill="#876a61" stroke="#876a61" stroke-width="1.51"></path><path d="M306,-126L331,-32L446,-94Z" fill="#93756c" stroke="#93756c" stroke-width="1.51"></path><path d="M426,13L438,238L446,-94Z" fill="#72554c" stroke="#72554c" stroke-width="1.51"></path><path d="M334,156L296,296L438,238Z" fill="#674940" stroke="#674940" stroke-width="1.51"></path><path d="M417,80L344,102L418,147Z" fill="#6b4e45" stroke="#6b4e45" stroke-width="1.51"></path><path d="M344,102L417,80L426,13Z" fill="#72554c" stroke="#72554c" stroke-width="1.51"></path><path d="M331,-32L344,102L426,13Z" fill="#7b5e55" stroke="#7b5e55" stroke-width="1.51"></path><path d="M344,102L334,156L418,147Z" fill="#6b4e45" stroke="#6b4e45" stroke-width="1.51"></path><path d="M239,205L296,296L334,156Z" fill="#694c43" stroke="#694c43" stroke-width="1.51"></path><path d="M331,-32L213,10L344,102Z" fill="#7e6158" stroke="#7e6158" stroke-width="1.51"></path><path d="M213,10L207,91L344,102Z" fill="#775a51" stroke="#775a51" stroke-width="1.51"></path><path d="M207,91L334,156L344,102Z" fill="#6f5249" stroke="#6f5249" stroke-width="1.51"></path><path d="M306,-126L221,-62L331,-32Z" fill="#94776e" stroke="#94776e" stroke-width="1.51"></path><path d="M207,91L239,205L334,156Z" fill="#6f5249" stroke="#6f5249" stroke-width="1.51"></path><path d="M221,-62L213,10L331,-32Z" fill="#8c6e65" stroke="#8c6e65" stroke-width="1.51"></path><path d="M239,205L208,267L296,296Z" fill="#694c43" stroke="#694c43" stroke-width="1.51"></path><path d="M173,-94L221,-62L306,-126Z" fill="#9b7e75" stroke="#9b7e75" stroke-width="1.51"></path><path d="M140,145L208,267L239,205Z" fill="#6e5148" stroke="#6e5148" stroke-width="1.51"></path><path d="M207,91L140,145L239,205Z" fill="#71544b" stroke="#71544b" stroke-width="1.51"></path><path d="M140,145L120,265L208,267Z" fill="#6e5148" stroke="#6e5148" stroke-width="1.51"></path><path d="M138,21L207,91L213,10Z" fill="#7f6259" stroke="#7f6259" stroke-width="1.51"></path><path d="M138,21L213,10L221,-62Z" fill="#8b6e64" stroke="#8b6e64" stroke-width="1.51"></path><path d="M173,-94L138,21L221,-62Z" fill="#93756c" stroke="#93756c" stroke-width="1.51"></path><path d="M138,21L120,95L207,91Z" fill="#7b5e55" stroke="#7b5e55" stroke-width="1.51"></path><path d="M87,253L-54,283L120,265Z" fill="#7c5e55" stroke="#7c5e55" stroke-width="1.51"></path><path d="M120,95L140,145L207,91Z" fill="#75584f" stroke="#75584f" stroke-width="1.51"></path><path d="M80,173L87,253L120,265Z" fill="#775950" stroke="#775950" stroke-width="1.51"></path><path d="M80,173L120,265L140,145Z" fill="#765950" stroke="#765950" stroke-width="1.51"></path><path d="M89,-11L138,21L173,-94Z" fill="#93756c" stroke="#93756c" stroke-width="1.51"></path><path d="M48,-103L89,-11L173,-94Z" fill="#a1837a" stroke="#a1837a" stroke-width="1.51"></path><path d="M75,90L120,95L138,21Z" fill="#81645b" stroke="#81645b" stroke-width="1.51"></path><path d="M89,-11L75,90L138,21Z" fill="#8a6d64" stroke="#8a6d64" stroke-width="1.51"></path><path d="M120,95L80,173L140,145Z" fill="#795c53" stroke="#795c53" stroke-width="1.51"></path><path d="M75,90L80,173L120,95Z" fill="#7e6158" stroke="#7e6158" stroke-width="1.51"></path><path d="M-7,-104L-49,-22L48,-103Z" fill="#b3968c" stroke="#b3968c" stroke-width="1.51"></path><path d="M75,90L-36,172L80,173Z" fill="#84675e" stroke="#84675e" stroke-width="1.51"></path><path d="M80,173L-36,172L87,253Z" fill="#81645a" stroke="#81645a" stroke-width="1.51"></path><path d="M48,-103L-49,-22L89,-11Z" fill="#a78980" stroke="#a78980" stroke-width="1.51"></path><path d="M-49,-22L-30,55L89,-11Z" fill="#9f8279" stroke="#9f8279" stroke-width="1.51"></path><path d="M-30,55L75,90L89,-11Z" fill="#91736a" stroke="#91736a" stroke-width="1.51"></path><path d="M-36,172L-54,283L87,253Z" fill="#85685f" stroke="#85685f" stroke-width="1.51"></path><path d="M-30,55L-36,172L75,90Z" fill="#8d6f66" stroke="#8d6f66" stroke-width="1.51"></path><path d="M-95,273L-54,283L-36,172Z" fill="#8f7167" stroke="#8f7167" stroke-width="1.51"></path><path d="M-114,76L-36,172L-30,55Z" fill="#967970" stroke="#967970" stroke-width="1.51"></path><path d="M-107,-67L-49,-22L-7,-104Z" fill="#b89b92" stroke="#b89b92" stroke-width="1.51"></path><path d="M-149,22L-114,76L-49,-22Z" fill="#ad8f86" stroke="#ad8f86" stroke-width="1.51"></path><path d="M-133,185L-95,273L-36,172Z" fill="#95776e" stroke="#95776e" stroke-width="1.51"></path><path d="M-114,76L-133,185L-36,172Z" fill="#9a7c73" stroke="#9a7c73" stroke-width="1.51"></path><path d="M-49,-22L-114,76L-30,55Z" fill="#a4867d" stroke="#a4867d" stroke-width="1.51"></path><path d="M-107,-67L-149,22L-49,-22Z" fill="#b79a91" stroke="#b79a91" stroke-width="1.51"></path><path d="M-149,22L-133,185L-114,76Z" fill="#a3857c" stroke="#a3857c" stroke-width="1.51"></path></svg>