<svg width="300" height="176" xmlns="http://www.w3.org/2000/svg"><path d="M86,-119L167,-105L327,-124Z" fill="#a1847b" stroke="#a1847b" stroke-width="1.51"></path><path d="M327,-124L300,24L427,9Z" fill="#886a61" stroke="#886a61" stroke-width="1.51"></path><path d="M142,276L48,290L442,278Z" fill="#694c43" stroke="#694c43" stroke-width="1.51"></path><path d="M298,254L142,276L442,278Z" fill="#664940" stroke="#664940" stroke-width="1.51"></path><path d="M393,167L298,254L442,278Z" fill="#65483f" stroke="#65483f" stroke-width="1.51"></path><path d="M427,9L405,82L442,278Z" fill="#694c43" stroke="#694c43" stroke-width="1.51"></path><path d="M405,82L393,167L442,278Z" fill="#674a41" stroke="#674a41" stroke-width="1.51"></path><path d="M327,-124L427,9L443,-61Z" fill="#8c6e65" stroke="#8c6e65" stroke-width="1.51"></path><path d="M427,9L442,278L443,-61Z" fill="#6d5047" stroke="#6d5047" stroke-width="1.51"></path><path d="M327,175L298,254L393,167Z" fill="#684b42" stroke="#684b42" stroke-width="1.51"></path><path d="M320,54L405,82L427,9Z" fill="#765950" stroke="#765950" stroke-width="1.51"></path><path d="M300,24L320,54L427,9Z" fill="#7b5e55" stroke="#7b5e55" stroke-width="1.51"></path><path d="M167,-105L268,-99L327,-124Z" fill="#9d8077" stroke="#9d8077" stroke-width="1.51"></path><path d="M327,175L393,167L405,82Z" fill="#6a4d44" stroke="#6a4d44" stroke-width="1.51"></path><path d="M320,54L327,175L405,82Z" fill="#6d5047" stroke="#6d5047" stroke-width="1.51"></path><path d="M268,-99L300,24L327,-124Z" fill="#92756c" stroke="#92756c" stroke-width="1.51"></path><path d="M210,238L142,276L298,254Z" fill="#6a4d44" stroke="#6a4d44" stroke-width="1.51"></path><path d="M268,-99L215,21L300,24Z" fill="#896c63" stroke="#896c63" stroke-width="1.51"></path><path d="M209,110L259,176L320,54Z" fill="#71544b" stroke="#71544b" stroke-width="1.51"></path><path d="M320,54L259,176L327,175Z" fill="#6e5047" stroke="#6e5047" stroke-width="1.51"></path><path d="M259,176L298,254L327,175Z" fill="#6a4d44" stroke="#6a4d44" stroke-width="1.51"></path><path d="M300,24L209,110L320,54Z" fill="#775a51" stroke="#775a51" stroke-width="1.51"></path><path d="M259,176L210,238L298,254Z" fill="#6a4d44" stroke="#6a4d44" stroke-width="1.51"></path><path d="M215,21L209,110L300,24Z" fill="#7b5d54" stroke="#7b5d54" stroke-width="1.51"></path><path d="M167,-105L215,21L268,-99Z" fill="#94776d" stroke="#94776d" stroke-width="1.51"></path><path d="M167,-105L177,19L215,21Z" fill="#8d7066" stroke="#8d7066" stroke-width="1.51"></path><path d="M166,144L210,238L259,176Z" fill="#6f5248" stroke="#6f5248" stroke-width="1.51"></path><path d="M209,110L166,144L259,176Z" fill="#72544b" stroke="#72544b" stroke-width="1.51"></path><path d="M166,144L142,276L210,238Z" fill="#6e5148" stroke="#6e5148" stroke-width="1.51"></path><path d="M151,76L209,110L215,21Z" fill="#795c53" stroke="#795c53" stroke-width="1.51"></path><path d="M177,19L151,76L215,21Z" fill="#80635a" stroke="#80635a" stroke-width="1.51"></path><path d="M167,-105L86,2L177,19Z" fill="#91746b" stroke="#91746b" stroke-width="1.51"></path><path d="M151,76L166,144L209,110Z" fill="#74574e" stroke="#74574e" stroke-width="1.51"></path><path d="M40,205L142,276L166,144Z" fill="#75584f" stroke="#75584f" stroke-width="1.51"></path><path d="M86,-119L86,2L167,-105Z" fill="#a08279" stroke="#a08279" stroke-width="1.51"></path><path d="M86,2L151,76L177,19Z" fill="#85685f" stroke="#85685f" stroke-width="1.51"></path><path d="M151,76L48,102L166,144Z" fill="#7a5d54" stroke="#7a5d54" stroke-width="1.51"></path><path d="M48,102L40,205L166,144Z" fill="#7d6057" stroke="#7d6057" stroke-width="1.51"></path><path d="M40,205L48,290L142,276Z" fill="#785b52" stroke="#785b52" stroke-width="1.51"></path><path d="M86,2L48,102L151,76Z" fill="#85685f" stroke="#85685f" stroke-width="1.51"></path><path d="M1,84L48,102L86,2Z" fill="#8d6f66" stroke="#8d6f66" stroke-width="1.51"></path><path d="M-44,-3L1,84L86,2Z" fill="#997c73" stroke="#997c73" stroke-width="1.51"></path><path d="M86,-119L-18,-104L86,2Z" fill="#aa8c83" stroke="#aa8c83" stroke-width="1.51"></path><path d="M-18,-104L-44,-3L86,2Z" fill="#a88b81" stroke="#a88b81" stroke-width="1.51"></path><path d="M-35,205L-55,244L40,205Z" fill="#896c63" stroke="#896c63" stroke-width="1.51"></path><path d="M1,84L-35,205L40,205Z" fill="#896c63" stroke="#896c63" stroke-width="1.51"></path><path d="M1,84L40,205L48,102Z" fill="#876a61" stroke="#876a61" stroke-width="1.51"></path><path d="M40,205L-55,244L48,290Z" fill="#83665d" stroke="#83665d" stroke-width="1.51"></path><path d="M-55,244L-119,283L48,290Z" fill="#8a6c63" stroke="#8a6c63" stroke-width="1.51"></path><path d="M-138,99L-142,167L-35,205Z" fill="#9b7d74" stroke="#9b7d74" stroke-width="1.51"></path><path d="M-138,99L-35,205L1,84Z" fill="#94776e" stroke="#94776e" stroke-width="1.51"></path><path d="M-44,-3L-138,99L1,84Z" fill="#9e8177" stroke="#9e8177" stroke-width="1.51"></path><path d="M-136,-77L-130,-21L-44,-3Z" fill="#b99c93" stroke="#b99c93" stroke-width="1.51"></path><path d="M-136,-77L-44,-3L-18,-104Z" fill="#ba9d93" stroke="#ba9d93" stroke-width="1.51"></path><path d="M-130,-21L-138,99L-44,-3Z" fill="#ad8f86" stroke="#ad8f86" stroke-width="1.51"></path><path d="M-142,167L-55,244L-35,205Z" fill="#93766c" stroke="#93766c" stroke-width="1.51"></path><path d="M-142,167L-119,283L-55,244Z" fill="#96786f" stroke="#96786f" stroke-width="1.51"></path><path d="M-136,-77L-138,99L-130,-21Z" fill="#b79a91" stroke="#b79a91" stroke-width="1.51"></path><path d="M-142,167L-138,99L-136,-77Z" fill="#aa8c83" stroke="#aa8c83" stroke-width="1.51"></path></svg>