<svg width="300" height="176" xmlns="http://www.w3.org/2000/svg"><path d="M133,121L39,144L137,162Z" fill="#7e6157" stroke="#7e6157" stroke-width="1.51"></path><path d="M133,121L35,97L39,144Z" fill="#8c6f66" stroke="#8c6f66" stroke-width="1.51"></path><path d="M39,144L81,264L137,162Z" fill="#7e6158" stroke="#7e6158" stroke-width="1.51"></path><path d="M39,144L-27,174L81,264Z" fill="#907269" stroke="#907269" stroke-width="1.51"></path><path d="M35,97L-27,174L39,144Z" fill="#9b7e74" stroke="#9b7e74" stroke-width="1.51"></path><path d="M81,264L123,264L137,162Z" fill="#76584f" stroke="#76584f" stroke-width="1.51"></path><path d="M137,162L225,205L133,121Z" fill="#6a4d44" stroke="#6a4d44" stroke-width="1.51"></path><path d="M123,264L225,205L137,162Z" fill="#694c43" stroke="#694c43" stroke-width="1.51"></path><path d="M35,97L-61,77L-27,174Z" fill="#a4877d" stroke="#a4877d" stroke-width="1.51"></path><path d="M42,-31L-14,-3L35,97Z" fill="#c8aba2" stroke="#c8aba2" stroke-width="1.51"></path><path d="M35,97L-14,-3L-61,77Z" fill="#ba9d94" stroke="#ba9d94" stroke-width="1.51"></path><path d="M225,205L242,60L133,121Z" fill="#6c4f46" stroke="#6c4f46" stroke-width="1.51"></path><path d="M-27,174L1,299L81,264Z" fill="#94776d" stroke="#94776d" stroke-width="1.51"></path><path d="M81,264L1,299L123,264Z" fill="#84665d" stroke="#84665d" stroke-width="1.51"></path><path d="M-99,286L1,299L-27,174Z" fill="#9b7d73" stroke="#9b7d73" stroke-width="1.51"></path><path d="M42,-31L35,97L155,-27Z" fill="#b99c93" stroke="#b99c93" stroke-width="1.51"></path><path d="M155,-27L35,97L133,121Z" fill="#93756b" stroke="#93756b" stroke-width="1.51"></path><path d="M242,60L155,-27L133,121Z" fill="#896b62" stroke="#896b62" stroke-width="1.51"></path><path d="M155,-27L77,-61L42,-31Z" fill="#bc9f96" stroke="#bc9f96" stroke-width="1.51"></path><path d="M42,-31L-16,-92L-14,-3Z" fill="#dabdb4" stroke="#dabdb4" stroke-width="1.51"></path><path d="M-14,-3L-97,28L-61,77Z" fill="#c8aaa1" stroke="#c8aaa1" stroke-width="1.51"></path><path d="M-148,167L-99,286L-27,174Z" fill="#9b7d73" stroke="#9b7d73" stroke-width="1.51"></path><path d="M-129,-63L-97,28L-14,-3Z" fill="#dcbfb6" stroke="#dcbfb6" stroke-width="1.51"></path><path d="M242,60L271,12L155,-27Z" fill="#997b72" stroke="#997b72" stroke-width="1.51"></path><path d="M155,-27L177,-64L77,-61Z" fill="#ad9087" stroke="#ad9087" stroke-width="1.51"></path><path d="M333,70L271,12L242,60Z" fill="#81645b" stroke="#81645b" stroke-width="1.51"></path><path d="M271,12L177,-64L155,-27Z" fill="#a4867d" stroke="#a4867d" stroke-width="1.51"></path><path d="M-148,167L-27,174L-61,77Z" fill="#a08379" stroke="#a08379" stroke-width="1.51"></path><path d="M347,168L333,70L242,60Z" fill="#684b42" stroke="#684b42" stroke-width="1.51"></path><path d="M123,264L272,294L225,205Z" fill="#65483f" stroke="#65483f" stroke-width="1.51"></path><path d="M1,299L272,294L123,264Z" fill="#705249" stroke="#705249" stroke-width="1.51"></path><path d="M-149,68L-148,167L-61,77Z" fill="#a6887f" stroke="#a6887f" stroke-width="1.51"></path><path d="M-97,28L-149,68L-61,77Z" fill="#ba9c93" stroke="#ba9c93" stroke-width="1.51"></path><path d="M347,168L242,60L225,205Z" fill="#64473e" stroke="#64473e" stroke-width="1.51"></path><path d="M350,239L347,168L225,205Z" fill="#5d4037" stroke="#5d4037" stroke-width="1.51"></path><path d="M251,-96L-16,-92L77,-61Z" fill="#b89b91" stroke="#b89b91" stroke-width="1.51"></path><path d="M77,-61L-16,-92L42,-31Z" fill="#d0b3aa" stroke="#d0b3aa" stroke-width="1.51"></path><path d="M-97,28L-129,-63L-149,68Z" fill="#d5b8af" stroke="#d5b8af" stroke-width="1.51"></path><path d="M272,294L350,239L225,205Z" fill="#5e4138" stroke="#5e4138" stroke-width="1.51"></path><path d="M333,70L324,-12L271,12Z" fill="#8d7066" stroke="#8d7066" stroke-width="1.51"></path><path d="M271,12L251,-96L177,-64Z" fill="#a18379" stroke="#a18379" stroke-width="1.51"></path><path d="M414,-24L324,-12L333,70Z" fill="#94766d" stroke="#94766d" stroke-width="1.51"></path><path d="M324,-12L251,-96L271,12Z" fill="#9c7e75" stroke="#9c7e75" stroke-width="1.51"></path><path d="M177,-64L251,-96L77,-61Z" fill="#a78980" stroke="#a78980" stroke-width="1.51"></path><path d="M-16,-92L-129,-63L-14,-3Z" fill="#dcbfb6" stroke="#dcbfb6" stroke-width="1.51"></path><path d="M347,168L446,113L333,70Z" fill="#65483f" stroke="#65483f" stroke-width="1.51"></path><path d="M350,239L423,168L347,168Z" fill="#5d4037" stroke="#5d4037" stroke-width="1.51"></path><path d="M324,-12L322,-99L251,-96Z" fill="#9b7d73" stroke="#9b7d73" stroke-width="1.51"></path><path d="M251,-96L322,-99L-16,-92Z" fill="#a5887e" stroke="#a5887e" stroke-width="1.51"></path><path d="M414,-24L322,-99L324,-12Z" fill="#9b7d73" stroke="#9b7d73" stroke-width="1.51"></path><path d="M423,168L446,113L347,168Z" fill="#61443b" stroke="#61443b" stroke-width="1.51"></path><path d="M423,168L421,291L446,113Z" fill="#5d4037" stroke="#5d4037" stroke-width="1.51"></path><path d="M350,239L421,291L423,168Z" fill="#5d4037" stroke="#5d4037" stroke-width="1.51"></path><path d="M272,294L421,291L350,239Z" fill="#5d4037" stroke="#5d4037" stroke-width="1.51"></path><path d="M446,113L414,-24L333,70Z" fill="#7d6056" stroke="#7d6056" stroke-width="1.51"></path><path d="M446,113L430,-77L414,-24Z" fill="#987a71" stroke="#987a71" stroke-width="1.51"></path><path d="M414,-24L430,-77L322,-99Z" fill="#9b7d73" stroke="#9b7d73" stroke-width="1.51"></path></svg>