<svg width="300" height="176" xmlns="http://www.w3.org/2000/svg"><path d="M178,100L161,157L219,186Z" fill="#6b4e45" stroke="#6b4e45" stroke-width="1.51"></path><path d="M219,186L233,68L178,100Z" fill="#6e5047" stroke="#6e5047" stroke-width="1.51"></path><path d="M219,186L330,84L233,68Z" fill="#6a4d44" stroke="#6a4d44" stroke-width="1.51"></path><path d="M161,157L219,236L219,186Z" fill="#65483f" stroke="#65483f" stroke-width="1.51"></path><path d="M233,68L181,20L178,100Z" fill="#81645b" stroke="#81645b" stroke-width="1.51"></path><path d="M178,100L55,89L161,157Z" fill="#795c53" stroke="#795c53" stroke-width="1.51"></path><path d="M352,194L330,84L219,186Z" fill="#60433a" stroke="#60433a" stroke-width="1.51"></path><path d="M233,68L260,3L181,20Z" fill="#90736a" stroke="#90736a" stroke-width="1.51"></path><path d="M330,84L260,3L233,68Z" fill="#806259" stroke="#806259" stroke-width="1.51"></path><path d="M161,157L120,262L219,236Z" fill="#684b42" stroke="#684b42" stroke-width="1.51"></path><path d="M28,185L120,262L161,157Z" fill="#795b52" stroke="#795b52" stroke-width="1.51"></path><path d="M219,236L352,194L219,186Z" fill="#60433a" stroke="#60433a" stroke-width="1.51"></path><path d="M181,20L55,89L178,100Z" fill="#85685f" stroke="#85685f" stroke-width="1.51"></path><path d="M55,89L28,185L161,157Z" fill="#84675e" stroke="#84675e" stroke-width="1.51"></path><path d="M120,262L318,296L219,236Z" fill="#64473e" stroke="#64473e" stroke-width="1.51"></path><path d="M219,236L318,296L352,194Z" fill="#5d4037" stroke="#5d4037" stroke-width="1.51"></path><path d="M55,89L-17,167L28,185Z" fill="#987a70" stroke="#987a70" stroke-width="1.51"></path><path d="M181,20L55,17L55,89Z" fill="#a2847b" stroke="#a2847b" stroke-width="1.51"></path><path d="M136,-104L55,17L181,20Z" fill="#b1948a" stroke="#b1948a" stroke-width="1.51"></path><path d="M330,84L307,-33L260,3Z" fill="#917269" stroke="#917269" stroke-width="1.51"></path><path d="M260,3L242,-73L181,20Z" fill="#a1837a" stroke="#a1837a" stroke-width="1.51"></path><path d="M450,-17L307,-33L330,84Z" fill="#94766d" stroke="#94766d" stroke-width="1.51"></path><path d="M120,262L75,294L318,296Z" fill="#684b42" stroke="#684b42" stroke-width="1.51"></path><path d="M28,185L75,294L120,262Z" fill="#82645b" stroke="#82645b" stroke-width="1.51"></path><path d="M422,166L414,113L352,194Z" fill="#5f4239" stroke="#5f4239" stroke-width="1.51"></path><path d="M352,194L414,113L330,84Z" fill="#63463d" stroke="#63463d" stroke-width="1.51"></path><path d="M307,-33L242,-73L260,3Z" fill="#9d7f76" stroke="#9d7f76" stroke-width="1.51"></path><path d="M450,238L422,166L352,194Z" fill="#5d4037" stroke="#5d4037" stroke-width="1.51"></path><path d="M28,185L-35,258L75,294Z" fill="#93756c" stroke="#93756c" stroke-width="1.51"></path><path d="M-33,87L-17,167L55,89Z" fill="#a4867d" stroke="#a4867d" stroke-width="1.51"></path><path d="M307,-33L327,-65L242,-73Z" fill="#9b7d74" stroke="#9b7d74" stroke-width="1.51"></path><path d="M450,-17L327,-65L307,-33Z" fill="#9b7d73" stroke="#9b7d73" stroke-width="1.51"></path><path d="M55,17L-33,87L55,89Z" fill="#ad9087" stroke="#ad9087" stroke-width="1.51"></path><path d="M242,-73L136,-104L181,20Z" fill="#a5887e" stroke="#a5887e" stroke-width="1.51"></path><path d="M55,17L-52,11L-33,87Z" fill="#c5a89f" stroke="#c5a89f" stroke-width="1.51"></path><path d="M409,-115L136,-104L242,-73Z" fill="#9e8077" stroke="#9e8077" stroke-width="1.51"></path><path d="M318,296L450,238L352,194Z" fill="#5d4037" stroke="#5d4037" stroke-width="1.51"></path><path d="M422,166L450,-17L414,113Z" fill="#6a4d44" stroke="#6a4d44" stroke-width="1.51"></path><path d="M-17,167L-35,258L28,185Z" fill="#9b7d73" stroke="#9b7d73" stroke-width="1.51"></path><path d="M-104,268L-35,258L-148,210Z" fill="#9b7d73" stroke="#9b7d73" stroke-width="1.51"></path><path d="M136,-104L84,-106L55,17Z" fill="#bc9f96" stroke="#bc9f96" stroke-width="1.51"></path><path d="M-148,210L-35,258L-17,167Z" fill="#9b7d73" stroke="#9b7d73" stroke-width="1.51"></path><path d="M-27,-121L-52,11L55,17Z" fill="#dcbfb6" stroke="#dcbfb6" stroke-width="1.51"></path><path d="M450,238L450,-17L422,166Z" fill="#64473e" stroke="#64473e" stroke-width="1.51"></path><path d="M414,113L450,-17L330,84Z" fill="#795c53" stroke="#795c53" stroke-width="1.51"></path><path d="M450,-17L409,-115L327,-65Z" fill="#9b7d73" stroke="#9b7d73" stroke-width="1.51"></path><path d="M327,-65L409,-115L242,-73Z" fill="#9b7d73" stroke="#9b7d73" stroke-width="1.51"></path><path d="M136,-104L-27,-121L84,-106Z" fill="#c6a89f" stroke="#c6a89f" stroke-width="1.51"></path><path d="M-35,258L-104,268L75,294Z" fill="#9b7d73" stroke="#9b7d73" stroke-width="1.51"></path><path d="M-145,91L-17,167L-33,87Z" fill="#a4877d" stroke="#a4877d" stroke-width="1.51"></path><path d="M-52,11L-145,91L-33,87Z" fill="#b79990" stroke="#b79990" stroke-width="1.51"></path><path d="M84,-106L-27,-121L55,17Z" fill="#cfb2a9" stroke="#cfb2a9" stroke-width="1.51"></path><path d="M409,-115L-27,-121L136,-104Z" fill="#a68980" stroke="#a68980" stroke-width="1.51"></path><path d="M-27,-121L-116,-3L-52,11Z" fill="#dcbfb6" stroke="#dcbfb6" stroke-width="1.51"></path><path d="M-116,-3L-145,91L-52,11Z" fill="#c8aba2" stroke="#c8aba2" stroke-width="1.51"></path><path d="M-145,91L-148,210L-17,167Z" fill="#9e8077" stroke="#9e8077" stroke-width="1.51"></path><path d="M-145,91L-152,-116L-148,210Z" fill="#b79a91" stroke="#b79a91" stroke-width="1.51"></path><path d="M-116,-3L-152,-116L-145,91Z" fill="#dcbfb6" stroke="#dcbfb6" stroke-width="1.51"></path><path d="M-27,-121L-152,-116L-116,-3Z" fill="#dcbfb6" stroke="#dcbfb6" stroke-width="1.51"></path></svg>