<svg width="300" height="176" xmlns="http://www.w3.org/2000/svg"><path d="M144,95L38,164L144,163Z" fill="#7a5d54" stroke="#7a5d54" stroke-width="1.51"></path><path d="M144,95L56,65L38,164Z" fill="#81635a" stroke="#81635a" stroke-width="1.51"></path><path d="M56,65L-23,154L38,164Z" fill="#886b62" stroke="#886b62" stroke-width="1.51"></path><path d="M144,163L252,77L144,95Z" fill="#74574e" stroke="#74574e" stroke-width="1.51"></path><path d="M38,164L155,240L144,163Z" fill="#775950" stroke="#775950" stroke-width="1.51"></path><path d="M78,298L155,240L38,164Z" fill="#775a51" stroke="#775a51" stroke-width="1.51"></path><path d="M145,-17L67,-12L56,65Z" fill="#91736a" stroke="#91736a" stroke-width="1.51"></path><path d="M56,65L-46,66L-23,154Z" fill="#8e7168" stroke="#8e7168" stroke-width="1.51"></path><path d="M2,2L-46,66L56,65Z" fill="#977a70" stroke="#977a70" stroke-width="1.51"></path><path d="M67,-12L2,2L56,65Z" fill="#977970" stroke="#977970" stroke-width="1.51"></path><path d="M252,14L145,-17L144,95Z" fill="#82645b" stroke="#82645b" stroke-width="1.51"></path><path d="M144,95L145,-17L56,65Z" fill="#85685e" stroke="#85685e" stroke-width="1.51"></path><path d="M-23,154L-5,261L38,164Z" fill="#886a61" stroke="#886a61" stroke-width="1.51"></path><path d="M-137,279L-5,261L-23,154Z" fill="#8e7067" stroke="#8e7067" stroke-width="1.51"></path><path d="M-5,261L78,298L38,164Z" fill="#7f6259" stroke="#7f6259" stroke-width="1.51"></path><path d="M254,202L252,77L144,163Z" fill="#70534a" stroke="#70534a" stroke-width="1.51"></path><path d="M155,240L254,202L144,163Z" fill="#6f5249" stroke="#6f5249" stroke-width="1.51"></path><path d="M241,287L254,202L155,240Z" fill="#6b4e45" stroke="#6b4e45" stroke-width="1.51"></path><path d="M252,77L252,14L144,95Z" fill="#795c53" stroke="#795c53" stroke-width="1.51"></path><path d="M312,13L252,14L252,77Z" fill="#7d6057" stroke="#7d6057" stroke-width="1.51"></path><path d="M145,-17L75,-105L67,-12Z" fill="#9c7f76" stroke="#9c7f76" stroke-width="1.51"></path><path d="M67,-12L-35,-95L2,2Z" fill="#a78a81" stroke="#a78a81" stroke-width="1.51"></path><path d="M252,14L170,-63L145,-17Z" fill="#8d7067" stroke="#8d7067" stroke-width="1.51"></path><path d="M254,202L303,106L252,77Z" fill="#6f5249" stroke="#6f5249" stroke-width="1.51"></path><path d="M254,202L306,171L303,106Z" fill="#6e5047" stroke="#6e5047" stroke-width="1.51"></path><path d="M78,298L241,287L155,240Z" fill="#6b4e45" stroke="#6b4e45" stroke-width="1.51"></path><path d="M-46,66L-126,97L-23,154Z" fill="#977a71" stroke="#977a71" stroke-width="1.51"></path><path d="M-136,6L-126,97L-46,66Z" fill="#a6887f" stroke="#a6887f" stroke-width="1.51"></path><path d="M310,259L306,171L254,202Z" fill="#6a4d44" stroke="#6a4d44" stroke-width="1.51"></path><path d="M170,-63L75,-105L145,-17Z" fill="#9b7d74" stroke="#9b7d74" stroke-width="1.51"></path><path d="M2,2L-136,6L-46,66Z" fill="#a5887f" stroke="#a5887f" stroke-width="1.51"></path><path d="M-126,97L-153,152L-23,154Z" fill="#9c7e75" stroke="#9c7e75" stroke-width="1.51"></path><path d="M303,106L312,13L252,77Z" fill="#76594f" stroke="#76594f" stroke-width="1.51"></path><path d="M252,14L266,-105L170,-63Z" fill="#91746b" stroke="#91746b" stroke-width="1.51"></path><path d="M430,68L312,13L303,106Z" fill="#74574e" stroke="#74574e" stroke-width="1.51"></path><path d="M435,29L327,-71L312,13Z" fill="#84665d" stroke="#84665d" stroke-width="1.51"></path><path d="M241,287L310,259L254,202Z" fill="#684b42" stroke="#684b42" stroke-width="1.51"></path><path d="M-126,97L-136,6L-153,152Z" fill="#a5877e" stroke="#a5877e" stroke-width="1.51"></path><path d="M75,-105L-35,-95L67,-12Z" fill="#ac8e85" stroke="#ac8e85" stroke-width="1.51"></path><path d="M-35,-95L-136,6L2,2Z" fill="#b1948b" stroke="#b1948b" stroke-width="1.51"></path><path d="M-153,152L-137,279L-23,154Z" fill="#987a71" stroke="#987a71" stroke-width="1.51"></path><path d="M-5,261L-137,279L78,298Z" fill="#86685f" stroke="#86685f" stroke-width="1.51"></path><path d="M327,-71L266,-105L252,14Z" fill="#907269" stroke="#907269" stroke-width="1.51"></path><path d="M170,-63L266,-105L75,-105Z" fill="#9d7f76" stroke="#9d7f76" stroke-width="1.51"></path><path d="M312,13L327,-71L252,14Z" fill="#876960" stroke="#876960" stroke-width="1.51"></path><path d="M412,211L303,106L306,171Z" fill="#6a4d44" stroke="#6a4d44" stroke-width="1.51"></path><path d="M-35,-95L-101,-124L-136,6Z" fill="#c0a39a" stroke="#c0a39a" stroke-width="1.51"></path><path d="M75,-105L-101,-124L-35,-95Z" fill="#bda097" stroke="#bda097" stroke-width="1.51"></path><path d="M266,-105L-101,-124L75,-105Z" fill="#ae9087" stroke="#ae9087" stroke-width="1.51"></path><path d="M310,259L412,211L306,171Z" fill="#674a41" stroke="#674a41" stroke-width="1.51"></path><path d="M412,211L430,68L303,106Z" fill="#6b4e45" stroke="#6b4e45" stroke-width="1.51"></path><path d="M412,211L422,242L430,68Z" fill="#674a41" stroke="#674a41" stroke-width="1.51"></path><path d="M310,259L422,242L412,211Z" fill="#65483f" stroke="#65483f" stroke-width="1.51"></path><path d="M241,287L422,242L310,259Z" fill="#66483f" stroke="#66483f" stroke-width="1.51"></path><path d="M430,68L435,29L312,13Z" fill="#785b52" stroke="#785b52" stroke-width="1.51"></path><path d="M422,242L435,29L430,68Z" fill="#6a4d44" stroke="#6a4d44" stroke-width="1.51"></path><path d="M435,29L422,-119L327,-71Z" fill="#8b6e65" stroke="#8b6e65" stroke-width="1.51"></path><path d="M327,-71L422,-119L266,-105Z" fill="#977a71" stroke="#977a71" stroke-width="1.51"></path><path d="M266,-105L422,-119L-101,-124Z" fill="#a1847b" stroke="#a1847b" stroke-width="1.51"></path></svg>