<svg width="300" height="176" xmlns="http://www.w3.org/2000/svg"><path d="M165,91L56,63L133,153Z" fill="#7f6259" stroke="#7f6259" stroke-width="1.51"></path><path d="M56,63L40,169L133,153Z" fill="#896b62" stroke="#896b62" stroke-width="1.51"></path><path d="M56,63L2,75L40,169Z" fill="#9b7e75" stroke="#9b7e75" stroke-width="1.51"></path><path d="M152,-29L47,19L56,63Z" fill="#b4978e" stroke="#b4978e" stroke-width="1.51"></path><path d="M47,19L2,75L56,63Z" fill="#b1938a" stroke="#b1938a" stroke-width="1.51"></path><path d="M40,169L82,262L133,153Z" fill="#7f6158" stroke="#7f6158" stroke-width="1.51"></path><path d="M2,75L0,178L40,169Z" fill="#9b7d74" stroke="#9b7d74" stroke-width="1.51"></path><path d="M165,91L152,-29L56,63Z" fill="#997c72" stroke="#997c72" stroke-width="1.51"></path><path d="M165,91L256,17L152,-29Z" fill="#96786f" stroke="#96786f" stroke-width="1.51"></path><path d="M245,204L245,87L165,91Z" fill="#6b4e45" stroke="#6b4e45" stroke-width="1.51"></path><path d="M0,178L82,262L40,169Z" fill="#8d6f66" stroke="#8d6f66" stroke-width="1.51"></path><path d="M133,153L245,204L165,91Z" fill="#6b4e45" stroke="#6b4e45" stroke-width="1.51"></path><path d="M245,87L256,17L165,91Z" fill="#7d6057" stroke="#7d6057" stroke-width="1.51"></path><path d="M118,290L245,204L133,153Z" fill="#684b42" stroke="#684b42" stroke-width="1.51"></path><path d="M245,87L298,61L256,17Z" fill="#7f6158" stroke="#7f6158" stroke-width="1.51"></path><path d="M2,75L-136,102L0,178Z" fill="#a4867d" stroke="#a4867d" stroke-width="1.51"></path><path d="M47,19L-44,-14L2,75Z" fill="#cbaea5" stroke="#cbaea5" stroke-width="1.51"></path><path d="M67,-115L-44,-14L47,19Z" fill="#d4b6ad" stroke="#d4b6ad" stroke-width="1.51"></path><path d="M82,262L118,290L133,153Z" fill="#765950" stroke="#765950" stroke-width="1.51"></path><path d="M333,198L298,61L245,87Z" fill="#664940" stroke="#664940" stroke-width="1.51"></path><path d="M152,-29L67,-115L47,19Z" fill="#bda097" stroke="#bda097" stroke-width="1.51"></path><path d="M209,-95L179,-95L152,-29Z" fill="#a6887f" stroke="#a6887f" stroke-width="1.51"></path><path d="M209,-95L152,-29L256,17Z" fill="#a3857c" stroke="#a3857c" stroke-width="1.51"></path><path d="M0,178L-3,279L82,262Z" fill="#92746b" stroke="#92746b" stroke-width="1.51"></path><path d="M82,262L-3,279L118,290Z" fill="#85675e" stroke="#85675e" stroke-width="1.51"></path><path d="M-106,258L-3,279L0,178Z" fill="#9b7d73" stroke="#9b7d73" stroke-width="1.51"></path><path d="M298,61L307,20L256,17Z" fill="#896c62" stroke="#896c62" stroke-width="1.51"></path><path d="M179,-95L67,-115L152,-29Z" fill="#ae9188" stroke="#ae9188" stroke-width="1.51"></path><path d="M322,-82L209,-95L256,17Z" fill="#9e8077" stroke="#9e8077" stroke-width="1.51"></path><path d="M179,-95L209,-95L67,-115Z" fill="#a88b82" stroke="#a88b82" stroke-width="1.51"></path><path d="M245,204L333,198L245,87Z" fill="#61443b" stroke="#61443b" stroke-width="1.51"></path><path d="M118,290L223,294L245,204Z" fill="#664940" stroke="#664940" stroke-width="1.51"></path><path d="M-44,-14L-136,102L2,75Z" fill="#bc9e95" stroke="#bc9e95" stroke-width="1.51"></path><path d="M305,258L333,198L245,204Z" fill="#5d4037" stroke="#5d4037" stroke-width="1.51"></path><path d="M298,61L399,13L307,20Z" fill="#896b62" stroke="#896b62" stroke-width="1.51"></path><path d="M223,294L305,258L245,204Z" fill="#60433a" stroke="#60433a" stroke-width="1.51"></path><path d="M-44,-14L-146,-24L-136,102Z" fill="#cfb2a9" stroke="#cfb2a9" stroke-width="1.51"></path><path d="M-46,-118L-94,-64L-44,-14Z" fill="#dcbfb6" stroke="#dcbfb6" stroke-width="1.51"></path><path d="M-149,199L-106,258L0,178Z" fill="#9b7d73" stroke="#9b7d73" stroke-width="1.51"></path><path d="M67,-115L-46,-118L-44,-14Z" fill="#dcbfb6" stroke="#dcbfb6" stroke-width="1.51"></path><path d="M-136,102L-149,199L0,178Z" fill="#9d7f76" stroke="#9d7f76" stroke-width="1.51"></path><path d="M-46,-118L-146,-24L-94,-64Z" fill="#dcbfb6" stroke="#dcbfb6" stroke-width="1.51"></path><path d="M-94,-64L-146,-24L-44,-14Z" fill="#dcbfb6" stroke="#dcbfb6" stroke-width="1.51"></path><path d="M-136,102L-146,-24L-149,199Z" fill="#a88a81" stroke="#a88a81" stroke-width="1.51"></path><path d="M307,20L322,-82L256,17Z" fill="#9b7d74" stroke="#9b7d74" stroke-width="1.51"></path><path d="M209,-95L414,-95L67,-115Z" fill="#a1837a" stroke="#a1837a" stroke-width="1.51"></path><path d="M399,13L322,-82L307,20Z" fill="#9b7d73" stroke="#9b7d73" stroke-width="1.51"></path><path d="M411,160L400,95L333,198Z" fill="#60433a" stroke="#60433a" stroke-width="1.51"></path><path d="M333,198L400,95L298,61Z" fill="#65483f" stroke="#65483f" stroke-width="1.51"></path><path d="M400,95L399,13L298,61Z" fill="#7b5e55" stroke="#7b5e55" stroke-width="1.51"></path><path d="M387,243L411,160L333,198Z" fill="#5d4037" stroke="#5d4037" stroke-width="1.51"></path><path d="M400,95L411,160L399,13Z" fill="#6a4d44" stroke="#6a4d44" stroke-width="1.51"></path><path d="M305,258L387,243L333,198Z" fill="#5d4037" stroke="#5d4037" stroke-width="1.51"></path><path d="M223,294L387,243L305,258Z" fill="#5d4037" stroke="#5d4037" stroke-width="1.51"></path><path d="M411,160L414,-95L399,13Z" fill="#8c6e65" stroke="#8c6e65" stroke-width="1.51"></path><path d="M399,13L414,-95L322,-82Z" fill="#9b7d73" stroke="#9b7d73" stroke-width="1.51"></path><path d="M322,-82L414,-95L209,-95Z" fill="#9b7d73" stroke="#9b7d73" stroke-width="1.51"></path></svg>