<svg width="300" height="176" xmlns="http://www.w3.org/2000/svg"><path d="M178,74L214,74L218,-24Z" fill="#7f6258" stroke="#7f6258" stroke-width="1.51"></path><path d="M218,-24L142,-11L178,74Z" fill="#866960" stroke="#866960" stroke-width="1.51"></path><path d="M214,74L316,97L218,-24Z" fill="#7b5e55" stroke="#7b5e55" stroke-width="1.51"></path><path d="M269,145L316,97L214,74Z" fill="#71544b" stroke="#71544b" stroke-width="1.51"></path><path d="M136,181L269,145L214,74Z" fill="#72554c" stroke="#72554c" stroke-width="1.51"></path><path d="M313,-85L266,-99L218,-24Z" fill="#94766d" stroke="#94766d" stroke-width="1.51"></path><path d="M218,-24L144,-119L142,-11Z" fill="#94776e" stroke="#94776e" stroke-width="1.51"></path><path d="M142,-11L48,24L178,74Z" fill="#886a61" stroke="#886a61" stroke-width="1.51"></path><path d="M178,74L136,181L214,74Z" fill="#74574e" stroke="#74574e" stroke-width="1.51"></path><path d="M51,-116L48,24L142,-11Z" fill="#9d7f76" stroke="#9d7f76" stroke-width="1.51"></path><path d="M266,-99L144,-119L218,-24Z" fill="#997c72" stroke="#997c72" stroke-width="1.51"></path><path d="M354,-4L313,-85L218,-24Z" fill="#8c6f66" stroke="#8c6f66" stroke-width="1.51"></path><path d="M316,97L354,-4L218,-24Z" fill="#7f6259" stroke="#7f6259" stroke-width="1.51"></path><path d="M39,85L136,181L178,74Z" fill="#7a5d54" stroke="#7a5d54" stroke-width="1.51"></path><path d="M48,24L39,85L178,74Z" fill="#866960" stroke="#866960" stroke-width="1.51"></path><path d="M451,64L429,-12L354,-4Z" fill="#7b5e55" stroke="#7b5e55" stroke-width="1.51"></path><path d="M269,145L317,154L316,97Z" fill="#6e5148" stroke="#6e5148" stroke-width="1.51"></path><path d="M331,242L317,154L269,145Z" fill="#6b4e45" stroke="#6b4e45" stroke-width="1.51"></path><path d="M48,24L-25,78L39,85Z" fill="#90736a" stroke="#90736a" stroke-width="1.51"></path><path d="M144,-119L51,-116L142,-11Z" fill="#a2847b" stroke="#a2847b" stroke-width="1.51"></path><path d="M136,181L213,239L269,145Z" fill="#6e5148" stroke="#6e5148" stroke-width="1.51"></path><path d="M39,85L36,170L136,181Z" fill="#806259" stroke="#806259" stroke-width="1.51"></path><path d="M136,181L134,236L213,239Z" fill="#6f5249" stroke="#6f5249" stroke-width="1.51"></path><path d="M36,170L134,236L136,181Z" fill="#785b51" stroke="#785b51" stroke-width="1.51"></path><path d="M-45,6L-25,78L48,24Z" fill="#9a7d74" stroke="#9a7d74" stroke-width="1.51"></path><path d="M39,85L-25,78L36,170Z" fill="#8a6d64" stroke="#8a6d64" stroke-width="1.51"></path><path d="M354,-4L429,-92L313,-85Z" fill="#8e7067" stroke="#8e7067" stroke-width="1.51"></path><path d="M451,64L354,-4L316,97Z" fill="#75584f" stroke="#75584f" stroke-width="1.51"></path><path d="M51,-116L-26,-65L48,24Z" fill="#a98c83" stroke="#a98c83" stroke-width="1.51"></path><path d="M-26,-65L-45,6L48,24Z" fill="#a5887f" stroke="#a5887f" stroke-width="1.51"></path><path d="M437,181L451,64L316,97Z" fill="#6b4e45" stroke="#6b4e45" stroke-width="1.51"></path><path d="M213,239L331,242L269,145Z" fill="#6b4e45" stroke="#6b4e45" stroke-width="1.51"></path><path d="M437,181L316,97L317,154Z" fill="#6b4e45" stroke="#6b4e45" stroke-width="1.51"></path><path d="M429,-12L429,-92L354,-4Z" fill="#876960" stroke="#876960" stroke-width="1.51"></path><path d="M313,-85L429,-92L266,-99Z" fill="#96786f" stroke="#96786f" stroke-width="1.51"></path><path d="M266,-99L429,-92L144,-119Z" fill="#9b7d74" stroke="#9b7d74" stroke-width="1.51"></path><path d="M451,64L429,-92L429,-12Z" fill="#80635a" stroke="#80635a" stroke-width="1.51"></path><path d="M-60,273L58,261L36,170Z" fill="#84665d" stroke="#84665d" stroke-width="1.51"></path><path d="M36,170L58,261L134,236Z" fill="#7a5d54" stroke="#7a5d54" stroke-width="1.51"></path><path d="M134,236L58,261L213,239Z" fill="#70534a" stroke="#70534a" stroke-width="1.51"></path><path d="M213,239L414,298L331,242Z" fill="#664940" stroke="#664940" stroke-width="1.51"></path><path d="M331,242L437,181L317,154Z" fill="#684b42" stroke="#684b42" stroke-width="1.51"></path><path d="M-25,78L-61,169L36,170Z" fill="#8e7067" stroke="#8e7067" stroke-width="1.51"></path><path d="M-139,101L-61,169L-25,78Z" fill="#987b72" stroke="#987b72" stroke-width="1.51"></path><path d="M-45,6L-109,18L-25,78Z" fill="#a3867d" stroke="#a3867d" stroke-width="1.51"></path><path d="M-124,-89L-109,18L-45,6Z" fill="#b5988f" stroke="#b5988f" stroke-width="1.51"></path><path d="M-26,-65L-124,-89L-45,6Z" fill="#b79a90" stroke="#b79a90" stroke-width="1.51"></path><path d="M51,-116L-124,-89L-26,-65Z" fill="#bb9e95" stroke="#bb9e95" stroke-width="1.51"></path><path d="M-124,-89L-139,101L-109,18Z" fill="#b3968d" stroke="#b3968d" stroke-width="1.51"></path><path d="M-109,18L-139,101L-25,78Z" fill="#a1847b" stroke="#a1847b" stroke-width="1.51"></path><path d="M-139,101L-122,158L-61,169Z" fill="#9c7f75" stroke="#9c7f75" stroke-width="1.51"></path><path d="M-61,169L-60,273L36,170Z" fill="#8c6e64" stroke="#8c6e64" stroke-width="1.51"></path><path d="M331,242L414,298L437,181Z" fill="#64473e" stroke="#64473e" stroke-width="1.51"></path><path d="M58,261L414,298L213,239Z" fill="#694c43" stroke="#694c43" stroke-width="1.51"></path><path d="M58,261L-146,297L414,298Z" fill="#72544b" stroke="#72544b" stroke-width="1.51"></path><path d="M-122,158L-60,273L-61,169Z" fill="#94776e" stroke="#94776e" stroke-width="1.51"></path><path d="M-122,158L-146,297L-60,273Z" fill="#96786f" stroke="#96786f" stroke-width="1.51"></path><path d="M-60,273L-146,297L58,261Z" fill="#8b6d63" stroke="#8b6d63" stroke-width="1.51"></path><path d="M-139,101L-146,297L-122,158Z" fill="#9e8077" stroke="#9e8077" stroke-width="1.51"></path></svg>