<svg width="300" height="176" xmlns="http://www.w3.org/2000/svg"><path d="M126,80L81,83L153,163Z" fill="#7a5d54" stroke="#7a5d54" stroke-width="1.51"></path><path d="M81,83L34,181L153,163Z" fill="#7d6057" stroke="#7d6057" stroke-width="1.51"></path><path d="M34,181L77,238L153,163Z" fill="#7a5d54" stroke="#7a5d54" stroke-width="1.51"></path><path d="M77,238L155,238L153,163Z" fill="#73564c" stroke="#73564c" stroke-width="1.51"></path><path d="M153,163L233,151L126,80Z" fill="#73564d" stroke="#73564d" stroke-width="1.51"></path><path d="M155,238L233,151L153,163Z" fill="#70534a" stroke="#70534a" stroke-width="1.51"></path><path d="M242,56L181,3L126,80Z" fill="#7e6158" stroke="#7e6158" stroke-width="1.51"></path><path d="M126,80L30,-30L81,83Z" fill="#8b6e64" stroke="#8b6e64" stroke-width="1.51"></path><path d="M233,151L242,56L126,80Z" fill="#74574e" stroke="#74574e" stroke-width="1.51"></path><path d="M81,83L-58,121L34,181Z" fill="#896b62" stroke="#896b62" stroke-width="1.51"></path><path d="M34,181L-26,270L77,238Z" fill="#82635a" stroke="#82635a" stroke-width="1.51"></path><path d="M-55,15L-58,121L81,83Z" fill="#93766d" stroke="#93766d" stroke-width="1.51"></path><path d="M-58,121L-61,190L34,181Z" fill="#8e7167" stroke="#8e7167" stroke-width="1.51"></path><path d="M181,3L30,-30L126,80Z" fill="#8c6e65" stroke="#8c6e65" stroke-width="1.51"></path><path d="M-61,190L-26,270L34,181Z" fill="#896c63" stroke="#896c63" stroke-width="1.51"></path><path d="M77,238L243,279L155,238Z" fill="#6d5047" stroke="#6d5047" stroke-width="1.51"></path><path d="M-58,121L-119,206L-61,190Z" fill="#96786f" stroke="#96786f" stroke-width="1.51"></path><path d="M30,-30L-55,15L81,83Z" fill="#997c73" stroke="#997c73" stroke-width="1.51"></path><path d="M233,151L315,163L242,56Z" fill="#70534a" stroke="#70534a" stroke-width="1.51"></path><path d="M155,238L243,279L233,151Z" fill="#6c4f46" stroke="#6c4f46" stroke-width="1.51"></path><path d="M-26,270L243,279L77,238Z" fill="#75584f" stroke="#75584f" stroke-width="1.51"></path><path d="M181,3L47,-104L30,-30Z" fill="#9e8077" stroke="#9e8077" stroke-width="1.51"></path><path d="M242,56L246,-18L181,3Z" fill="#84675e" stroke="#84675e" stroke-width="1.51"></path><path d="M349,20L246,-18L242,56Z" fill="#80635a" stroke="#80635a" stroke-width="1.51"></path><path d="M243,279L315,163L233,151Z" fill="#6c4e45" stroke="#6c4e45" stroke-width="1.51"></path><path d="M-55,15L-101,91L-58,121Z" fill="#9c7f76" stroke="#9c7f76" stroke-width="1.51"></path><path d="M-55,15L-101,21L-101,91Z" fill="#a6887f" stroke="#a6887f" stroke-width="1.51"></path><path d="M-128,-107L-101,21L-55,15Z" fill="#b6988f" stroke="#b6988f" stroke-width="1.51"></path><path d="M-128,-107L-119,206L-101,91Z" fill="#a6887f" stroke="#a6887f" stroke-width="1.51"></path><path d="M-101,91L-119,206L-58,121Z" fill="#9a7c73" stroke="#9a7c73" stroke-width="1.51"></path><path d="M-61,190L-106,288L-26,270Z" fill="#8f7167" stroke="#8f7167" stroke-width="1.51"></path><path d="M30,-30L-20,-103L-55,15Z" fill="#ad8f86" stroke="#ad8f86" stroke-width="1.51"></path><path d="M169,-120L47,-104L181,3Z" fill="#9d7f76" stroke="#9d7f76" stroke-width="1.51"></path><path d="M389,202L351,108L315,163Z" fill="#6a4d44" stroke="#6a4d44" stroke-width="1.51"></path><path d="M315,163L351,108L242,56Z" fill="#6f5249" stroke="#6f5249" stroke-width="1.51"></path><path d="M252,-90L181,3L246,-18Z" fill="#8f7168" stroke="#8f7168" stroke-width="1.51"></path><path d="M252,-90L169,-120L181,3Z" fill="#977a70" stroke="#977a70" stroke-width="1.51"></path><path d="M-119,206L-106,288L-61,190Z" fill="#95776e" stroke="#95776e" stroke-width="1.51"></path><path d="M-26,270L-106,288L243,279Z" fill="#7d6057" stroke="#7d6057" stroke-width="1.51"></path><path d="M309,-91L252,-90L246,-18Z" fill="#93766d" stroke="#93766d" stroke-width="1.51"></path><path d="M351,108L349,20L242,56Z" fill="#75584f" stroke="#75584f" stroke-width="1.51"></path><path d="M169,-120L-20,-103L47,-104Z" fill="#b09289" stroke="#b09289" stroke-width="1.51"></path><path d="M47,-104L-20,-103L30,-30Z" fill="#b0938a" stroke="#b0938a" stroke-width="1.51"></path><path d="M243,279L341,287L315,163Z" fill="#684a41" stroke="#684a41" stroke-width="1.51"></path><path d="M-106,288L341,287L243,279Z" fill="#6b4e45" stroke="#6b4e45" stroke-width="1.51"></path><path d="M341,287L389,202L315,163Z" fill="#684a41" stroke="#684a41" stroke-width="1.51"></path><path d="M351,108L422,82L349,20Z" fill="#71544b" stroke="#71544b" stroke-width="1.51"></path><path d="M349,20L309,-91L246,-18Z" fill="#8a6c63" stroke="#8a6c63" stroke-width="1.51"></path><path d="M252,-90L309,-91L169,-120Z" fill="#9c7f75" stroke="#9c7f75" stroke-width="1.51"></path><path d="M349,20L417,-23L309,-91Z" fill="#886b61" stroke="#886b61" stroke-width="1.51"></path><path d="M389,202L422,82L351,108Z" fill="#6a4d44" stroke="#6a4d44" stroke-width="1.51"></path><path d="M389,202L395,289L422,82Z" fill="#664940" stroke="#664940" stroke-width="1.51"></path><path d="M341,287L395,289L389,202Z" fill="#63463d" stroke="#63463d" stroke-width="1.51"></path><path d="M-106,288L395,289L341,287Z" fill="#694c43" stroke="#694c43" stroke-width="1.51"></path><path d="M-20,-103L-128,-107L-55,15Z" fill="#bb9d94" stroke="#bb9d94" stroke-width="1.51"></path><path d="M-101,21L-128,-107L-101,91Z" fill="#b3958c" stroke="#b3958c" stroke-width="1.51"></path><path d="M169,-120L-128,-107L-20,-103Z" fill="#b99c93" stroke="#b99c93" stroke-width="1.51"></path><path d="M422,82L417,-23L349,20Z" fill="#7a5d53" stroke="#7a5d53" stroke-width="1.51"></path><path d="M422,82L417,-74L417,-23Z" fill="#806259" stroke="#806259" stroke-width="1.51"></path><path d="M417,-23L417,-74L309,-91Z" fill="#8e7067" stroke="#8e7067" stroke-width="1.51"></path><path d="M309,-91L417,-74L169,-120Z" fill="#987b72" stroke="#987b72" stroke-width="1.51"></path></svg>