<svg width="300" height="176" xmlns="http://www.w3.org/2000/svg"><path d="M60,269L-58,276L330,276Z" fill="#72554c" stroke="#72554c" stroke-width="1.51"></path><path d="M235,249L60,269L330,276Z" fill="#6a4d44" stroke="#6a4d44" stroke-width="1.51"></path><path d="M344,21L344,100L387,120Z" fill="#70534a" stroke="#70534a" stroke-width="1.51"></path><path d="M173,-121L355,-78L404,-93Z" fill="#997b72" stroke="#997b72" stroke-width="1.51"></path><path d="M387,120L359,172L440,195Z" fill="#684b42" stroke="#684b42" stroke-width="1.51"></path><path d="M344,21L387,120L441,10Z" fill="#75584f" stroke="#75584f" stroke-width="1.51"></path><path d="M404,-93L355,-78L441,10Z" fill="#8b6d64" stroke="#8b6d64" stroke-width="1.51"></path><path d="M355,-78L344,21L441,10Z" fill="#83665d" stroke="#83665d" stroke-width="1.51"></path><path d="M387,120L440,195L441,10Z" fill="#6a4d44" stroke="#6a4d44" stroke-width="1.51"></path><path d="M359,172L407,238L440,195Z" fill="#664940" stroke="#664940" stroke-width="1.51"></path><path d="M359,172L330,276L407,238Z" fill="#664940" stroke="#664940" stroke-width="1.51"></path><path d="M173,-121L216,-65L355,-78Z" fill="#997c73" stroke="#997c73" stroke-width="1.51"></path><path d="M344,100L359,172L387,120Z" fill="#6b4e45" stroke="#6b4e45" stroke-width="1.51"></path><path d="M178,237L60,269L235,249Z" fill="#6d5047" stroke="#6d5047" stroke-width="1.51"></path><path d="M216,-65L256,-36L355,-78Z" fill="#92746b" stroke="#92746b" stroke-width="1.51"></path><path d="M256,-36L344,21L355,-78Z" fill="#896c63" stroke="#896c63" stroke-width="1.51"></path><path d="M344,100L243,192L359,172Z" fill="#6c4f46" stroke="#6c4f46" stroke-width="1.51"></path><path d="M243,192L330,276L359,172Z" fill="#694c43" stroke="#694c43" stroke-width="1.51"></path><path d="M243,192L235,249L330,276Z" fill="#694c43" stroke="#694c43" stroke-width="1.51"></path><path d="M256,-36L215,108L344,21Z" fill="#7e6158" stroke="#7e6158" stroke-width="1.51"></path><path d="M344,21L215,108L344,100Z" fill="#73564d" stroke="#73564d" stroke-width="1.51"></path><path d="M215,108L243,192L344,100Z" fill="#6f5249" stroke="#6f5249" stroke-width="1.51"></path><path d="M3,-124L77,-108L173,-121Z" fill="#ae9188" stroke="#ae9188" stroke-width="1.51"></path><path d="M216,-65L168,25L256,-36Z" fill="#8d6f66" stroke="#8d6f66" stroke-width="1.51"></path><path d="M168,25L215,108L256,-36Z" fill="#80635a" stroke="#80635a" stroke-width="1.51"></path><path d="M168,25L157,84L215,108Z" fill="#795c53" stroke="#795c53" stroke-width="1.51"></path><path d="M215,108L122,206L243,192Z" fill="#70534a" stroke="#70534a" stroke-width="1.51"></path><path d="M122,206L178,237L243,192Z" fill="#6e5148" stroke="#6e5148" stroke-width="1.51"></path><path d="M178,237L235,249L243,192Z" fill="#6c4f46" stroke="#6c4f46" stroke-width="1.51"></path><path d="M157,84L122,206L215,108Z" fill="#74574e" stroke="#74574e" stroke-width="1.51"></path><path d="M173,-121L168,25L216,-65Z" fill="#94776e" stroke="#94776e" stroke-width="1.51"></path><path d="M77,-108L168,25L173,-121Z" fill="#9a7d74" stroke="#9a7d74" stroke-width="1.51"></path><path d="M70,93L77,195L122,206Z" fill="#7c5e55" stroke="#7c5e55" stroke-width="1.51"></path><path d="M70,93L122,206L157,84Z" fill="#795c53" stroke="#795c53" stroke-width="1.51"></path><path d="M77,-108L37,30L168,25Z" fill="#967970" stroke="#967970" stroke-width="1.51"></path><path d="M122,206L60,269L178,237Z" fill="#73564d" stroke="#73564d" stroke-width="1.51"></path><path d="M70,93L157,84L168,25Z" fill="#7f6158" stroke="#7f6158" stroke-width="1.51"></path><path d="M37,30L70,93L168,25Z" fill="#896b62" stroke="#896b62" stroke-width="1.51"></path><path d="M77,195L60,269L122,206Z" fill="#795b52" stroke="#795b52" stroke-width="1.51"></path><path d="M-37,-4L37,30L77,-108Z" fill="#a4867d" stroke="#a4867d" stroke-width="1.51"></path><path d="M3,-124L-37,-4L77,-108Z" fill="#b1948a" stroke="#b1948a" stroke-width="1.51"></path><path d="M-32,206L60,269L77,195Z" fill="#81635a" stroke="#81635a" stroke-width="1.51"></path><path d="M70,93L-15,114L77,195Z" fill="#85675e" stroke="#85675e" stroke-width="1.51"></path><path d="M-15,114L-32,206L77,195Z" fill="#886a61" stroke="#886a61" stroke-width="1.51"></path><path d="M37,30L-15,114L70,93Z" fill="#8b6e65" stroke="#8b6e65" stroke-width="1.51"></path><path d="M-32,206L-58,276L60,269Z" fill="#86695f" stroke="#86695f" stroke-width="1.51"></path><path d="M-37,-4L-15,114L37,30Z" fill="#987b71" stroke="#987b71" stroke-width="1.51"></path><path d="M-37,-4L-125,69L-15,114Z" fill="#9e8177" stroke="#9e8177" stroke-width="1.51"></path><path d="M-93,-63L-37,-4L3,-124Z" fill="#b79990" stroke="#b79990" stroke-width="1.51"></path><path d="M-102,-9L-125,69L-37,-4Z" fill="#ab8e85" stroke="#ab8e85" stroke-width="1.51"></path><path d="M-119,154L-32,206L-15,114Z" fill="#93756c" stroke="#93756c" stroke-width="1.51"></path><path d="M-125,69L-119,154L-15,114Z" fill="#9a7d73" stroke="#9a7d73" stroke-width="1.51"></path><path d="M-93,-63L-102,-9L-37,-4Z" fill="#b4968d" stroke="#b4968d" stroke-width="1.51"></path><path d="M-88,259L-58,276L-32,206Z" fill="#8e7067" stroke="#8e7067" stroke-width="1.51"></path><path d="M-119,154L-88,259L-32,206Z" fill="#94766c" stroke="#94766c" stroke-width="1.51"></path><path d="M-125,69L-102,-9L-93,-63Z" fill="#b3958c" stroke="#b3958c" stroke-width="1.51"></path></svg>