<svg width="300" height="176" xmlns="http://www.w3.org/2000/svg"><path d="M118,109L87,117L92,184Z" fill="#7c5e55" stroke="#7c5e55" stroke-width="1.51"></path><path d="M92,184L162,154L118,109Z" fill="#775a51" stroke="#775a51" stroke-width="1.51"></path><path d="M162,154L232,62L118,109Z" fill="#75584f" stroke="#75584f" stroke-width="1.51"></path><path d="M180,267L209,156L162,154Z" fill="#6f5249" stroke="#6f5249" stroke-width="1.51"></path><path d="M87,117L2,107L92,184Z" fill="#82645b" stroke="#82645b" stroke-width="1.51"></path><path d="M31,-2L2,107L87,117Z" fill="#8b6e65" stroke="#8b6e65" stroke-width="1.51"></path><path d="M43,288L180,267L92,184Z" fill="#75584f" stroke="#75584f" stroke-width="1.51"></path><path d="M92,184L180,267L162,154Z" fill="#71544b" stroke="#71544b" stroke-width="1.51"></path><path d="M118,109L31,-2L87,117Z" fill="#85685f" stroke="#85685f" stroke-width="1.51"></path><path d="M232,62L166,11L118,109Z" fill="#7c5f55" stroke="#7c5f55" stroke-width="1.51"></path><path d="M209,156L232,62L162,154Z" fill="#73564d" stroke="#73564d" stroke-width="1.51"></path><path d="M209,156L322,84L232,62Z" fill="#72554b" stroke="#72554b" stroke-width="1.51"></path><path d="M180,267L216,258L209,156Z" fill="#6d5047" stroke="#6d5047" stroke-width="1.51"></path><path d="M-49,179L43,288L92,184Z" fill="#82645b" stroke="#82645b" stroke-width="1.51"></path><path d="M2,107L-49,179L92,184Z" fill="#886b61" stroke="#886b61" stroke-width="1.51"></path><path d="M-130,92L-102,171L-49,179Z" fill="#997c73" stroke="#997c73" stroke-width="1.51"></path><path d="M166,11L31,-2L118,109Z" fill="#886b62" stroke="#886b62" stroke-width="1.51"></path><path d="M-49,179L-60,272L43,288Z" fill="#886b61" stroke="#886b61" stroke-width="1.51"></path><path d="M-49,179L-102,171L-60,272Z" fill="#92746b" stroke="#92746b" stroke-width="1.51"></path><path d="M-130,92L-49,179L2,107Z" fill="#95786e" stroke="#95786e" stroke-width="1.51"></path><path d="M232,62L264,-4L166,11Z" fill="#82655c" stroke="#82655c" stroke-width="1.51"></path><path d="M166,11L174,-64L31,-2Z" fill="#92756c" stroke="#92756c" stroke-width="1.51"></path><path d="M322,84L264,-4L232,62Z" fill="#7b5d54" stroke="#7b5d54" stroke-width="1.51"></path><path d="M216,258L326,177L209,156Z" fill="#6c4f46" stroke="#6c4f46" stroke-width="1.51"></path><path d="M326,177L322,84L209,156Z" fill="#6e5148" stroke="#6e5148" stroke-width="1.51"></path><path d="M264,-4L174,-64L166,11Z" fill="#8c6f65" stroke="#8c6f65" stroke-width="1.51"></path><path d="M31,-2L-52,-14L2,107Z" fill="#9c7e75" stroke="#9c7e75" stroke-width="1.51"></path><path d="M-50,-102L-52,-14L31,-2Z" fill="#af9187" stroke="#af9187" stroke-width="1.51"></path><path d="M-98,4L-130,92L2,107Z" fill="#9f8178" stroke="#9f8178" stroke-width="1.51"></path><path d="M-52,-14L-98,4L2,107Z" fill="#a2857c" stroke="#a2857c" stroke-width="1.51"></path><path d="M326,177L387,100L322,84Z" fill="#6d5047" stroke="#6d5047" stroke-width="1.51"></path><path d="M216,258L341,279L326,177Z" fill="#684b42" stroke="#684b42" stroke-width="1.51"></path><path d="M180,267L341,279L216,258Z" fill="#684b42" stroke="#684b42" stroke-width="1.51"></path><path d="M43,288L341,279L180,267Z" fill="#6a4d44" stroke="#6a4d44" stroke-width="1.51"></path><path d="M174,-64L41,-108L31,-2Z" fill="#a1847b" stroke="#a1847b" stroke-width="1.51"></path><path d="M-52,-14L-50,-102L-98,4Z" fill="#b4978e" stroke="#b4978e" stroke-width="1.51"></path><path d="M174,-64L226,-93L41,-108Z" fill="#9e8077" stroke="#9e8077" stroke-width="1.51"></path><path d="M264,-4L226,-93L174,-64Z" fill="#92756c" stroke="#92756c" stroke-width="1.51"></path><path d="M308,-33L226,-93L264,-4Z" fill="#8e7168" stroke="#8e7168" stroke-width="1.51"></path><path d="M322,84L308,-33L264,-4Z" fill="#80635a" stroke="#80635a" stroke-width="1.51"></path><path d="M-102,171L-145,237L-60,272Z" fill="#96786f" stroke="#96786f" stroke-width="1.51"></path><path d="M-130,92L-145,237L-102,171Z" fill="#9d8077" stroke="#9d8077" stroke-width="1.51"></path><path d="M322,84L387,100L308,-33Z" fill="#775a51" stroke="#775a51" stroke-width="1.51"></path><path d="M389,198L387,100L326,177Z" fill="#6a4d44" stroke="#6a4d44" stroke-width="1.51"></path><path d="M341,279L389,198L326,177Z" fill="#674a41" stroke="#674a41" stroke-width="1.51"></path><path d="M41,-108L-50,-102L31,-2Z" fill="#b0938a" stroke="#b0938a" stroke-width="1.51"></path><path d="M341,279L416,249L389,198Z" fill="#64473e" stroke="#64473e" stroke-width="1.51"></path><path d="M389,198L416,249L387,100Z" fill="#674a41" stroke="#674a41" stroke-width="1.51"></path><path d="M444,-29L336,-93L308,-33Z" fill="#8c6e65" stroke="#8c6e65" stroke-width="1.51"></path><path d="M308,-33L336,-93L226,-93Z" fill="#94766d" stroke="#94766d" stroke-width="1.51"></path><path d="M226,-93L439,-117L41,-108Z" fill="#9e8077" stroke="#9e8077" stroke-width="1.51"></path><path d="M-50,-102L-113,-123L-98,4Z" fill="#c1a39a" stroke="#c1a39a" stroke-width="1.51"></path><path d="M-98,4L-113,-123L-130,92Z" fill="#b69990" stroke="#b69990" stroke-width="1.51"></path><path d="M-130,92L-113,-123L-145,237Z" fill="#a78980" stroke="#a78980" stroke-width="1.51"></path><path d="M41,-108L-113,-123L-50,-102Z" fill="#c1a49b" stroke="#c1a49b" stroke-width="1.51"></path><path d="M439,-117L-113,-123L41,-108Z" fill="#a88a81" stroke="#a88a81" stroke-width="1.51"></path><path d="M416,249L444,-29L387,100Z" fill="#6b4e45" stroke="#6b4e45" stroke-width="1.51"></path><path d="M387,100L444,-29L308,-33Z" fill="#7e6057" stroke="#7e6057" stroke-width="1.51"></path><path d="M444,-29L439,-117L336,-93Z" fill="#90736a" stroke="#90736a" stroke-width="1.51"></path><path d="M336,-93L439,-117L226,-93Z" fill="#987b72" stroke="#987b72" stroke-width="1.51"></path></svg>