<svg width="300" height="176" xmlns="http://www.w3.org/2000/svg"><path d="M134,70L75,-6L80,75Z" fill="#a08279" stroke="#a08279" stroke-width="1.51"></path><path d="M134,70L182,27L75,-6Z" fill="#9e8077" stroke="#9e8077" stroke-width="1.51"></path><path d="M123,187L214,70L134,70Z" fill="#73564d" stroke="#73564d" stroke-width="1.51"></path><path d="M75,-6L0,84L80,75Z" fill="#ac8f86" stroke="#ac8f86" stroke-width="1.51"></path><path d="M182,27L156,-71L75,-6Z" fill="#ad8f86" stroke="#ad8f86" stroke-width="1.51"></path><path d="M134,70L214,70L182,27Z" fill="#866960" stroke="#866960" stroke-width="1.51"></path><path d="M182,27L232,25L156,-71Z" fill="#a5877e" stroke="#a5877e" stroke-width="1.51"></path><path d="M123,187L134,70L80,75Z" fill="#7f6259" stroke="#7f6259" stroke-width="1.51"></path><path d="M214,70L232,25L182,27Z" fill="#8c6f66" stroke="#8c6f66" stroke-width="1.51"></path><path d="M75,-6L-43,-4L0,84Z" fill="#caaca3" stroke="#caaca3" stroke-width="1.51"></path><path d="M27,-125L-43,-4L75,-6Z" fill="#d5b8af" stroke="#d5b8af" stroke-width="1.51"></path><path d="M33,211L123,187L80,75Z" fill="#83665c" stroke="#83665c" stroke-width="1.51"></path><path d="M156,-71L27,-125L75,-6Z" fill="#bea097" stroke="#bea097" stroke-width="1.51"></path><path d="M0,84L33,211L80,75Z" fill="#96786f" stroke="#96786f" stroke-width="1.51"></path><path d="M-95,160L-31,153L0,84Z" fill="#a1847b" stroke="#a1847b" stroke-width="1.51"></path><path d="M156,-71L217,-117L27,-125Z" fill="#ae9187" stroke="#ae9187" stroke-width="1.51"></path><path d="M232,25L217,-117L156,-71Z" fill="#a4867d" stroke="#a4867d" stroke-width="1.51"></path><path d="M-31,153L33,211L0,84Z" fill="#9f8178" stroke="#9f8178" stroke-width="1.51"></path><path d="M214,70L346,71L232,25Z" fill="#7f6158" stroke="#7f6158" stroke-width="1.51"></path><path d="M123,187L229,183L214,70Z" fill="#6b4e44" stroke="#6b4e44" stroke-width="1.51"></path><path d="M130,240L229,183L123,187Z" fill="#694c43" stroke="#694c43" stroke-width="1.51"></path><path d="M-152,110L-95,160L0,84Z" fill="#a4867d" stroke="#a4867d" stroke-width="1.51"></path><path d="M27,-125L-64,-79L-43,-4Z" fill="#dcbfb6" stroke="#dcbfb6" stroke-width="1.51"></path><path d="M33,211L130,240L123,187Z" fill="#7b5e55" stroke="#7b5e55" stroke-width="1.51"></path><path d="M-64,-79L-112,-25L-43,-4Z" fill="#dcbfb6" stroke="#dcbfb6" stroke-width="1.51"></path><path d="M33,211L40,250L130,240Z" fill="#84675e" stroke="#84675e" stroke-width="1.51"></path><path d="M-3,242L40,250L33,211Z" fill="#93756b" stroke="#93756b" stroke-width="1.51"></path><path d="M-31,153L-3,242L33,211Z" fill="#9b7d73" stroke="#9b7d73" stroke-width="1.51"></path><path d="M-95,160L-3,242L-31,153Z" fill="#9b7d73" stroke="#9b7d73" stroke-width="1.51"></path><path d="M-152,110L0,84L-43,-4Z" fill="#b69990" stroke="#b69990" stroke-width="1.51"></path><path d="M27,-125L-101,-95L-64,-79Z" fill="#dcbfb6" stroke="#dcbfb6" stroke-width="1.51"></path><path d="M-64,-79L-101,-95L-112,-25Z" fill="#dcbfb6" stroke="#dcbfb6" stroke-width="1.51"></path><path d="M229,183L346,71L214,70Z" fill="#6a4d44" stroke="#6a4d44" stroke-width="1.51"></path><path d="M232,25L346,-34L217,-117Z" fill="#9e8077" stroke="#9e8077" stroke-width="1.51"></path><path d="M229,183L355,172L346,71Z" fill="#62453c" stroke="#62453c" stroke-width="1.51"></path><path d="M130,240L242,239L229,183Z" fill="#65483f" stroke="#65483f" stroke-width="1.51"></path><path d="M332,258L242,239L130,240Z" fill="#62453c" stroke="#62453c" stroke-width="1.51"></path><path d="M346,71L346,-34L232,25Z" fill="#8f7168" stroke="#8f7168" stroke-width="1.51"></path><path d="M-95,160L-90,279L-3,242Z" fill="#9b7d73" stroke="#9b7d73" stroke-width="1.51"></path><path d="M-112,-25L-152,110L-43,-4Z" fill="#ccafa6" stroke="#ccafa6" stroke-width="1.51"></path><path d="M-101,-95L-152,110L-112,-25Z" fill="#dcbfb6" stroke="#dcbfb6" stroke-width="1.51"></path><path d="M346,71L402,-23L346,-34Z" fill="#987a71" stroke="#987a71" stroke-width="1.51"></path><path d="M242,239L355,172L229,183Z" fill="#5f4239" stroke="#5f4239" stroke-width="1.51"></path><path d="M346,-34L353,-125L217,-117Z" fill="#9b7d73" stroke="#9b7d73" stroke-width="1.51"></path><path d="M217,-117L353,-125L27,-125Z" fill="#a4867d" stroke="#a4867d" stroke-width="1.51"></path><path d="M417,-82L353,-125L346,-34Z" fill="#9b7d73" stroke="#9b7d73" stroke-width="1.51"></path><path d="M430,84L402,-23L346,71Z" fill="#82645b" stroke="#82645b" stroke-width="1.51"></path><path d="M-152,110L-90,279L-95,160Z" fill="#9b7d73" stroke="#9b7d73" stroke-width="1.51"></path><path d="M-3,242L-90,279L40,250Z" fill="#9b7d73" stroke="#9b7d73" stroke-width="1.51"></path><path d="M452,297L332,258L130,240Z" fill="#5d4037" stroke="#5d4037" stroke-width="1.51"></path><path d="M452,297L130,240L40,250Z" fill="#65483f" stroke="#65483f" stroke-width="1.51"></path><path d="M242,239L332,258L355,172Z" fill="#5d4037" stroke="#5d4037" stroke-width="1.51"></path><path d="M447,151L430,84L355,172Z" fill="#63463d" stroke="#63463d" stroke-width="1.51"></path><path d="M355,172L430,84L346,71Z" fill="#674a41" stroke="#674a41" stroke-width="1.51"></path><path d="M402,-23L417,-82L346,-34Z" fill="#9b7d73" stroke="#9b7d73" stroke-width="1.51"></path><path d="M430,84L417,-82L402,-23Z" fill="#9b7d73" stroke="#9b7d73" stroke-width="1.51"></path><path d="M430,84L447,151L417,-82Z" fill="#7e6157" stroke="#7e6157" stroke-width="1.51"></path><path d="M452,297L447,151L355,172Z" fill="#5d4037" stroke="#5d4037" stroke-width="1.51"></path><path d="M332,258L452,297L355,172Z" fill="#5d4037" stroke="#5d4037" stroke-width="1.51"></path><path d="M-90,279L452,297L40,250Z" fill="#6f5249" stroke="#6f5249" stroke-width="1.51"></path></svg>