<svg width="300" height="176" xmlns="http://www.w3.org/2000/svg"><path d="M148,69L240,-17L176,-25Z" fill="#866960" stroke="#866960" stroke-width="1.51"></path><path d="M148,69L268,68L240,-17Z" fill="#7e6158" stroke="#7e6158" stroke-width="1.51"></path><path d="M268,68L313,5L240,-17Z" fill="#81645b" stroke="#81645b" stroke-width="1.51"></path><path d="M338,-124L213,-100L240,-17Z" fill="#977970" stroke="#977970" stroke-width="1.51"></path><path d="M240,-17L213,-100L176,-25Z" fill="#92746b" stroke="#92746b" stroke-width="1.51"></path><path d="M148,69L240,166L268,68Z" fill="#73564d" stroke="#73564d" stroke-width="1.51"></path><path d="M268,68L336,100L313,5Z" fill="#775a51" stroke="#775a51" stroke-width="1.51"></path><path d="M240,166L336,100L268,68Z" fill="#70534a" stroke="#70534a" stroke-width="1.51"></path><path d="M148,69L181,183L240,166Z" fill="#72554c" stroke="#72554c" stroke-width="1.51"></path><path d="M213,-100L158,-118L176,-25Z" fill="#9a7d74" stroke="#9a7d74" stroke-width="1.51"></path><path d="M32,-9L48,111L148,69Z" fill="#896c62" stroke="#896c62" stroke-width="1.51"></path><path d="M148,69L48,111L181,183Z" fill="#785b52" stroke="#785b52" stroke-width="1.51"></path><path d="M32,-9L148,69L176,-25Z" fill="#8c6f66" stroke="#8c6f66" stroke-width="1.51"></path><path d="M84,-108L32,-9L176,-25Z" fill="#9d7f76" stroke="#9d7f76" stroke-width="1.51"></path><path d="M158,-118L84,-108L176,-25Z" fill="#9e8178" stroke="#9e8178" stroke-width="1.51"></path><path d="M313,5L338,-124L240,-17Z" fill="#8e7067" stroke="#8e7067" stroke-width="1.51"></path><path d="M336,100L395,-4L313,5Z" fill="#7b5d54" stroke="#7b5d54" stroke-width="1.51"></path><path d="M336,100L423,68L395,-4Z" fill="#74574e" stroke="#74574e" stroke-width="1.51"></path><path d="M240,166L360,161L336,100Z" fill="#6d5047" stroke="#6d5047" stroke-width="1.51"></path><path d="M303,262L360,161L240,166Z" fill="#6a4d44" stroke="#6a4d44" stroke-width="1.51"></path><path d="M395,-4L338,-124L313,5Z" fill="#8b6c63" stroke="#8b6c63" stroke-width="1.51"></path><path d="M213,-100L338,-124L158,-118Z" fill="#9f8279" stroke="#9f8279" stroke-width="1.51"></path><path d="M360,161L423,68L336,100Z" fill="#6c4f46" stroke="#6c4f46" stroke-width="1.51"></path><path d="M48,111L54,209L181,183Z" fill="#7b5e55" stroke="#7b5e55" stroke-width="1.51"></path><path d="M181,183L225,267L240,166Z" fill="#6d5047" stroke="#6d5047" stroke-width="1.51"></path><path d="M-12,196L54,209L48,111Z" fill="#84675e" stroke="#84675e" stroke-width="1.51"></path><path d="M32,-9L-32,112L48,111Z" fill="#8f7269" stroke="#8f7269" stroke-width="1.51"></path><path d="M-18,-109L-26,-11L32,-9Z" fill="#ac8e85" stroke="#ac8e85" stroke-width="1.51"></path><path d="M141,284L225,267L181,183Z" fill="#6c4f46" stroke="#6c4f46" stroke-width="1.51"></path><path d="M395,-4L397,-109L338,-124Z" fill="#91746b" stroke="#91746b" stroke-width="1.51"></path><path d="M423,68L397,-109L395,-4Z" fill="#82655c" stroke="#82655c" stroke-width="1.51"></path><path d="M-26,-11L-32,112L32,-9Z" fill="#9c7e75" stroke="#9c7e75" stroke-width="1.51"></path><path d="M225,267L303,262L240,166Z" fill="#6a4d44" stroke="#6a4d44" stroke-width="1.51"></path><path d="M360,161L426,194L423,68Z" fill="#694c43" stroke="#694c43" stroke-width="1.51"></path><path d="M225,267L141,284L303,262Z" fill="#694c43" stroke="#694c43" stroke-width="1.51"></path><path d="M54,209L141,284L181,183Z" fill="#73554c" stroke="#73554c" stroke-width="1.51"></path><path d="M158,-118L-18,-109L84,-108Z" fill="#af9188" stroke="#af9188" stroke-width="1.51"></path><path d="M84,-108L-18,-109L32,-9Z" fill="#ad9087" stroke="#ad9087" stroke-width="1.51"></path><path d="M54,209L43,300L141,284Z" fill="#785a51" stroke="#785a51" stroke-width="1.51"></path><path d="M-32,112L-12,196L48,111Z" fill="#8b6d64" stroke="#8b6d64" stroke-width="1.51"></path><path d="M303,262L426,194L360,161Z" fill="#674a41" stroke="#674a41" stroke-width="1.51"></path><path d="M-39,246L43,300L54,209Z" fill="#82645b" stroke="#82645b" stroke-width="1.51"></path><path d="M141,284L438,263L303,262Z" fill="#664940" stroke="#664940" stroke-width="1.51"></path><path d="M-12,196L-39,246L54,209Z" fill="#866960" stroke="#866960" stroke-width="1.51"></path><path d="M-97,207L-39,246L-12,196Z" fill="#8e7067" stroke="#8e7067" stroke-width="1.51"></path><path d="M-26,-11L-117,62L-32,112Z" fill="#9f8178" stroke="#9f8178" stroke-width="1.51"></path><path d="M-113,-31L-117,62L-26,-11Z" fill="#ae9087" stroke="#ae9087" stroke-width="1.51"></path><path d="M-97,207L-12,196L-32,112Z" fill="#90736a" stroke="#90736a" stroke-width="1.51"></path><path d="M-112,-62L-113,-31L-26,-11Z" fill="#b79990" stroke="#b79990" stroke-width="1.51"></path><path d="M-18,-109L-112,-62L-26,-11Z" fill="#b89a91" stroke="#b89a91" stroke-width="1.51"></path><path d="M-113,-31L-112,-62L-117,62Z" fill="#b69990" stroke="#b69990" stroke-width="1.51"></path><path d="M426,194L438,263L423,68Z" fill="#664940" stroke="#664940" stroke-width="1.51"></path><path d="M303,262L438,263L426,194Z" fill="#64473e" stroke="#64473e" stroke-width="1.51"></path><path d="M43,300L438,263L141,284Z" fill="#694c43" stroke="#694c43" stroke-width="1.51"></path><path d="M-117,62L-97,207L-32,112Z" fill="#987b72" stroke="#987b72" stroke-width="1.51"></path><path d="M-117,62L-122,280L-97,207Z" fill="#9a7c73" stroke="#9a7c73" stroke-width="1.51"></path><path d="M-97,207L-122,280L-39,246Z" fill="#92746b" stroke="#92746b" stroke-width="1.51"></path><path d="M-39,246L-122,280L43,300Z" fill="#896b62" stroke="#896b62" stroke-width="1.51"></path></svg>