<svg width="300" height="176" xmlns="http://www.w3.org/2000/svg"><path d="M122,59L210,114L174,23Z" fill="#82655c" stroke="#82655c" stroke-width="1.51"></path><path d="M210,114L220,20L174,23Z" fill="#86695f" stroke="#86695f" stroke-width="1.51"></path><path d="M122,59L153,157L210,114Z" fill="#72554c" stroke="#72554c" stroke-width="1.51"></path><path d="M122,59L63,106L153,157Z" fill="#80635a" stroke="#80635a" stroke-width="1.51"></path><path d="M210,114L352,84L220,20Z" fill="#765950" stroke="#765950" stroke-width="1.51"></path><path d="M153,157L241,192L210,114Z" fill="#684b42" stroke="#684b42" stroke-width="1.51"></path><path d="M122,59L44,12L63,106Z" fill="#9f8279" stroke="#9f8279" stroke-width="1.51"></path><path d="M174,23L44,12L122,59Z" fill="#a3857c" stroke="#a3857c" stroke-width="1.51"></path><path d="M81,-81L44,12L174,23Z" fill="#ba9c93" stroke="#ba9c93" stroke-width="1.51"></path><path d="M241,192L313,163L210,114Z" fill="#64473e" stroke="#64473e" stroke-width="1.51"></path><path d="M220,20L128,-95L174,23Z" fill="#a68980" stroke="#a68980" stroke-width="1.51"></path><path d="M313,163L352,84L210,114Z" fill="#65483f" stroke="#65483f" stroke-width="1.51"></path><path d="M220,20L239,-123L128,-95Z" fill="#a4877d" stroke="#a4877d" stroke-width="1.51"></path><path d="M128,-95L81,-81L174,23Z" fill="#b09289" stroke="#b09289" stroke-width="1.51"></path><path d="M63,106L33,199L153,157Z" fill="#82655c" stroke="#82655c" stroke-width="1.51"></path><path d="M153,157L137,260L241,192Z" fill="#674a41" stroke="#674a41" stroke-width="1.51"></path><path d="M-52,192L33,199L63,106Z" fill="#977a70" stroke="#977a70" stroke-width="1.51"></path><path d="M33,199L137,260L153,157Z" fill="#785a51" stroke="#785a51" stroke-width="1.51"></path><path d="M241,192L343,293L313,163Z" fill="#5d4037" stroke="#5d4037" stroke-width="1.51"></path><path d="M352,84L352,-19L220,20Z" fill="#8a6d64" stroke="#8a6d64" stroke-width="1.51"></path><path d="M137,260L208,282L241,192Z" fill="#664940" stroke="#664940" stroke-width="1.51"></path><path d="M352,-19L239,-123L220,20Z" fill="#9d7f76" stroke="#9d7f76" stroke-width="1.51"></path><path d="M44,12L-52,73L63,106Z" fill="#b09389" stroke="#b09389" stroke-width="1.51"></path><path d="M-59,-32L-52,73L44,12Z" fill="#d1b4ab" stroke="#d1b4ab" stroke-width="1.51"></path><path d="M352,84L431,11L352,-19Z" fill="#8c6f65" stroke="#8c6f65" stroke-width="1.51"></path><path d="M403,187L410,92L352,84Z" fill="#65483f" stroke="#65483f" stroke-width="1.51"></path><path d="M403,187L352,84L313,163Z" fill="#61443b" stroke="#61443b" stroke-width="1.51"></path><path d="M352,-19L345,-94L239,-123Z" fill="#9b7d73" stroke="#9b7d73" stroke-width="1.51"></path><path d="M416,-60L345,-94L352,-19Z" fill="#9b7d73" stroke="#9b7d73" stroke-width="1.51"></path><path d="M33,199L28,297L137,260Z" fill="#85675e" stroke="#85675e" stroke-width="1.51"></path><path d="M-52,73L-52,192L63,106Z" fill="#a3857c" stroke="#a3857c" stroke-width="1.51"></path><path d="M-52,73L-119,116L-52,192Z" fill="#a2847b" stroke="#a2847b" stroke-width="1.51"></path><path d="M-32,-112L-59,-32L44,12Z" fill="#dcbfb6" stroke="#dcbfb6" stroke-width="1.51"></path><path d="M343,293L403,187L313,163Z" fill="#5d4037" stroke="#5d4037" stroke-width="1.51"></path><path d="M-46,284L28,297L33,199Z" fill="#997b71" stroke="#997b71" stroke-width="1.51"></path><path d="M137,260L28,297L208,282Z" fill="#72554c" stroke="#72554c" stroke-width="1.51"></path><path d="M411,245L431,11L410,92Z" fill="#664940" stroke="#664940" stroke-width="1.51"></path><path d="M410,92L431,11L352,84Z" fill="#785a51" stroke="#785a51" stroke-width="1.51"></path><path d="M28,297L343,293L208,282Z" fill="#664940" stroke="#664940" stroke-width="1.51"></path><path d="M208,282L343,293L241,192Z" fill="#60433a" stroke="#60433a" stroke-width="1.51"></path><path d="M81,-81L-32,-112L44,12Z" fill="#d1b4ab" stroke="#d1b4ab" stroke-width="1.51"></path><path d="M128,-95L-32,-112L81,-81Z" fill="#c7aaa1" stroke="#c7aaa1" stroke-width="1.51"></path><path d="M239,-123L-32,-112L128,-95Z" fill="#b5988f" stroke="#b5988f" stroke-width="1.51"></path><path d="M431,11L416,-60L352,-19Z" fill="#9b7d73" stroke="#9b7d73" stroke-width="1.51"></path><path d="M-117,-116L-100,-29L-59,-32Z" fill="#dcbfb6" stroke="#dcbfb6" stroke-width="1.51"></path><path d="M-59,-32L-100,-29L-52,73Z" fill="#d9bcb3" stroke="#d9bcb3" stroke-width="1.51"></path><path d="M343,293L411,245L403,187Z" fill="#5d4037" stroke="#5d4037" stroke-width="1.51"></path><path d="M403,187L411,245L410,92Z" fill="#5d4037" stroke="#5d4037" stroke-width="1.51"></path><path d="M-100,-29L-119,116L-52,73Z" fill="#bd9f96" stroke="#bd9f96" stroke-width="1.51"></path><path d="M-52,192L-46,284L33,199Z" fill="#9b7d73" stroke="#9b7d73" stroke-width="1.51"></path><path d="M-106,294L-46,284L-52,192Z" fill="#9b7d73" stroke="#9b7d73" stroke-width="1.51"></path><path d="M-119,116L-144,208L-52,192Z" fill="#9b7d74" stroke="#9b7d74" stroke-width="1.51"></path><path d="M-117,-116L-144,208L-119,116Z" fill="#b3968c" stroke="#b3968c" stroke-width="1.51"></path><path d="M-100,-29L-117,-116L-119,116Z" fill="#dcbfb6" stroke="#dcbfb6" stroke-width="1.51"></path><path d="M-32,-112L-117,-116L-59,-32Z" fill="#dcbfb6" stroke="#dcbfb6" stroke-width="1.51"></path><path d="M239,-123L-117,-116L-32,-112Z" fill="#d1b4ab" stroke="#d1b4ab" stroke-width="1.51"></path><path d="M-144,208L-106,294L-52,192Z" fill="#9b7d73" stroke="#9b7d73" stroke-width="1.51"></path><path d="M-46,284L-106,294L28,297Z" fill="#9b7d73" stroke="#9b7d73" stroke-width="1.51"></path></svg>