<svg width="300" height="176" xmlns="http://www.w3.org/2000/svg"><path d="M166,76L42,91L137,145Z" fill="#7b5e55" stroke="#7b5e55" stroke-width="1.51"></path><path d="M42,91L54,194L137,145Z" fill="#7f6158" stroke="#7f6158" stroke-width="1.51"></path><path d="M79,-31L-9,63L42,91Z" fill="#92756c" stroke="#92756c" stroke-width="1.51"></path><path d="M42,91L-7,192L54,194Z" fill="#85685f" stroke="#85685f" stroke-width="1.51"></path><path d="M166,76L79,-31L42,91Z" fill="#896b62" stroke="#896b62" stroke-width="1.51"></path><path d="M166,76L176,-24L79,-31Z" fill="#8a6d64" stroke="#8a6d64" stroke-width="1.51"></path><path d="M-9,63L-7,192L42,91Z" fill="#8b6e65" stroke="#8b6e65" stroke-width="1.51"></path><path d="M79,-31L-29,-33L-9,63Z" fill="#a08279" stroke="#a08279" stroke-width="1.51"></path><path d="M176,-24L87,-64L79,-31Z" fill="#987b72" stroke="#987b72" stroke-width="1.51"></path><path d="M264,152L166,76L137,145Z" fill="#73564d" stroke="#73564d" stroke-width="1.51"></path><path d="M264,152L266,87L166,76Z" fill="#72554c" stroke="#72554c" stroke-width="1.51"></path><path d="M166,76L243,-1L176,-24Z" fill="#84675e" stroke="#84675e" stroke-width="1.51"></path><path d="M266,87L243,-1L166,76Z" fill="#7b5e55" stroke="#7b5e55" stroke-width="1.51"></path><path d="M176,-24L159,-92L87,-64Z" fill="#997b72" stroke="#997b72" stroke-width="1.51"></path><path d="M180,269L264,152L137,145Z" fill="#6f5249" stroke="#6f5249" stroke-width="1.51"></path><path d="M54,194L80,260L137,145Z" fill="#795c53" stroke="#795c53" stroke-width="1.51"></path><path d="M-10,263L80,260L54,194Z" fill="#7f6158" stroke="#7f6158" stroke-width="1.51"></path><path d="M-9,63L-108,185L-7,192Z" fill="#91746b" stroke="#91746b" stroke-width="1.51"></path><path d="M87,-64L-29,-33L79,-31Z" fill="#a4867d" stroke="#a4867d" stroke-width="1.51"></path><path d="M87,-64L-45,-106L-29,-33Z" fill="#b09389" stroke="#b09389" stroke-width="1.51"></path><path d="M240,-78L159,-92L176,-24Z" fill="#97796f" stroke="#97796f" stroke-width="1.51"></path><path d="M80,260L180,269L137,145Z" fill="#71544b" stroke="#71544b" stroke-width="1.51"></path><path d="M264,152L302,115L266,87Z" fill="#6f5249" stroke="#6f5249" stroke-width="1.51"></path><path d="M266,87L336,14L243,-1Z" fill="#7d6057" stroke="#7d6057" stroke-width="1.51"></path><path d="M317,208L302,115L264,152Z" fill="#6d5047" stroke="#6d5047" stroke-width="1.51"></path><path d="M-7,192L-10,263L54,194Z" fill="#85675e" stroke="#85675e" stroke-width="1.51"></path><path d="M80,260L220,286L180,269Z" fill="#6c4f46" stroke="#6c4f46" stroke-width="1.51"></path><path d="M-108,185L-10,263L-7,192Z" fill="#8d6f66" stroke="#8d6f66" stroke-width="1.51"></path><path d="M243,-1L240,-78L176,-24Z" fill="#8f7168" stroke="#8f7168" stroke-width="1.51"></path><path d="M336,14L240,-78L243,-1Z" fill="#8a6c63" stroke="#8a6c63" stroke-width="1.51"></path><path d="M-103,294L220,286L80,260Z" fill="#795b52" stroke="#795b52" stroke-width="1.51"></path><path d="M180,269L220,286L264,152Z" fill="#6b4e45" stroke="#6b4e45" stroke-width="1.51"></path><path d="M-29,-33L-112,18L-9,63Z" fill="#a68980" stroke="#a68980" stroke-width="1.51"></path><path d="M-145,55L-108,185L-9,63Z" fill="#9b7d74" stroke="#9b7d74" stroke-width="1.51"></path><path d="M309,245L317,208L264,152Z" fill="#6a4d44" stroke="#6a4d44" stroke-width="1.51"></path><path d="M387,109L336,14L302,115Z" fill="#71544b" stroke="#71544b" stroke-width="1.51"></path><path d="M302,115L336,14L266,87Z" fill="#74574e" stroke="#74574e" stroke-width="1.51"></path><path d="M159,-92L-45,-106L87,-64Z" fill="#ab8d84" stroke="#ab8d84" stroke-width="1.51"></path><path d="M-29,-33L-130,-113L-112,18Z" fill="#ba9c93" stroke="#ba9c93" stroke-width="1.51"></path><path d="M-130,-113L-145,55L-112,18Z" fill="#b99c93" stroke="#b99c93" stroke-width="1.51"></path><path d="M-112,18L-145,55L-9,63Z" fill="#a6887f" stroke="#a6887f" stroke-width="1.51"></path><path d="M220,286L309,245L264,152Z" fill="#6a4d44" stroke="#6a4d44" stroke-width="1.51"></path><path d="M432,207L387,109L317,208Z" fill="#684b42" stroke="#684b42" stroke-width="1.51"></path><path d="M317,208L387,109L302,115Z" fill="#6c4f46" stroke="#6c4f46" stroke-width="1.51"></path><path d="M-108,185L-103,294L-10,263Z" fill="#917269" stroke="#917269" stroke-width="1.51"></path><path d="M-10,263L-103,294L80,260Z" fill="#85675e" stroke="#85675e" stroke-width="1.51"></path><path d="M-145,55L-103,294L-108,185Z" fill="#9c7d74" stroke="#9c7d74" stroke-width="1.51"></path><path d="M363,-126L-130,-113L-45,-106Z" fill="#b2948b" stroke="#b2948b" stroke-width="1.51"></path><path d="M-45,-106L-130,-113L-29,-33Z" fill="#bfa299" stroke="#bfa299" stroke-width="1.51"></path><path d="M336,14L363,-126L240,-78Z" fill="#91736a" stroke="#91736a" stroke-width="1.51"></path><path d="M387,109L423,9L336,14Z" fill="#775a51" stroke="#775a51" stroke-width="1.51"></path><path d="M404,-68L363,-126L336,14Z" fill="#8e7067" stroke="#8e7067" stroke-width="1.51"></path><path d="M240,-78L363,-126L159,-92Z" fill="#9b7e74" stroke="#9b7e74" stroke-width="1.51"></path><path d="M159,-92L363,-126L-45,-106Z" fill="#a1847b" stroke="#a1847b" stroke-width="1.51"></path><path d="M423,9L404,-68L336,14Z" fill="#83665c" stroke="#83665c" stroke-width="1.51"></path><path d="M387,109L432,207L423,9Z" fill="#6b4e45" stroke="#6b4e45" stroke-width="1.51"></path><path d="M309,245L432,207L317,208Z" fill="#674a41" stroke="#674a41" stroke-width="1.51"></path><path d="M431,287L432,207L309,245Z" fill="#64473e" stroke="#64473e" stroke-width="1.51"></path><path d="M220,286L431,287L309,245Z" fill="#65483f" stroke="#65483f" stroke-width="1.51"></path><path d="M-103,294L431,287L220,286Z" fill="#6a4d44" stroke="#6a4d44" stroke-width="1.51"></path></svg>