<svg width="300" height="176" xmlns="http://www.w3.org/2000/svg"><path d="M-131,-116L-54,-103L135,-108Z" fill="#bda097" stroke="#bda097" stroke-width="1.51"></path><path d="M-131,-116L135,-108L231,-115Z" fill="#ae9188" stroke="#ae9188" stroke-width="1.51"></path><path d="M214,280L169,298L329,282Z" fill="#684b42" stroke="#684b42" stroke-width="1.51"></path><path d="M-131,-116L231,-115L352,-117Z" fill="#a4867d" stroke="#a4867d" stroke-width="1.51"></path><path d="M413,170L311,180L413,247Z" fill="#674a41" stroke="#674a41" stroke-width="1.51"></path><path d="M343,8L410,29L419,-106Z" fill="#85675e" stroke="#85675e" stroke-width="1.51"></path><path d="M352,-117L343,8L419,-106Z" fill="#907369" stroke="#907369" stroke-width="1.51"></path><path d="M342,90L413,170L425,89Z" fill="#6b4e45" stroke="#6b4e45" stroke-width="1.51"></path><path d="M410,29L342,90L425,89Z" fill="#71544b" stroke="#71544b" stroke-width="1.51"></path><path d="M413,170L413,247L425,89Z" fill="#674a41" stroke="#674a41" stroke-width="1.51"></path><path d="M419,-106L410,29L425,89Z" fill="#7e6057" stroke="#7e6057" stroke-width="1.51"></path><path d="M-54,-103L74,-96L135,-108Z" fill="#b0938a" stroke="#b0938a" stroke-width="1.51"></path><path d="M343,8L342,90L410,29Z" fill="#785a51" stroke="#785a51" stroke-width="1.51"></path><path d="M342,90L311,180L413,170Z" fill="#6b4e45" stroke="#6b4e45" stroke-width="1.51"></path><path d="M311,180L329,282L413,247Z" fill="#664940" stroke="#664940" stroke-width="1.51"></path><path d="M207,14L342,90L343,8Z" fill="#7c5f55" stroke="#7c5f55" stroke-width="1.51"></path><path d="M231,-115L207,14L343,8Z" fill="#8c6f66" stroke="#8c6f66" stroke-width="1.51"></path><path d="M231,-115L343,8L352,-117Z" fill="#94766d" stroke="#94766d" stroke-width="1.51"></path><path d="M311,180L236,179L329,282Z" fill="#694c43" stroke="#694c43" stroke-width="1.51"></path><path d="M228,119L311,180L342,90Z" fill="#6e5148" stroke="#6e5148" stroke-width="1.51"></path><path d="M207,14L228,119L342,90Z" fill="#75584f" stroke="#75584f" stroke-width="1.51"></path><path d="M236,179L214,280L329,282Z" fill="#694c43" stroke="#694c43" stroke-width="1.51"></path><path d="M228,119L236,179L311,180Z" fill="#6e5148" stroke="#6e5148" stroke-width="1.51"></path><path d="M120,157L169,298L214,280Z" fill="#6d5047" stroke="#6d5047" stroke-width="1.51"></path><path d="M207,14L178,78L228,119Z" fill="#785b52" stroke="#785b52" stroke-width="1.51"></path><path d="M181,-2L207,14L231,-115Z" fill="#8f7168" stroke="#8f7168" stroke-width="1.51"></path><path d="M135,-108L181,-2L231,-115Z" fill="#997c72" stroke="#997c72" stroke-width="1.51"></path><path d="M228,119L120,157L236,179Z" fill="#71544b" stroke="#71544b" stroke-width="1.51"></path><path d="M120,157L214,280L236,179Z" fill="#6e5148" stroke="#6e5148" stroke-width="1.51"></path><path d="M178,78L120,157L228,119Z" fill="#74574e" stroke="#74574e" stroke-width="1.51"></path><path d="M120,157L71,256L169,298Z" fill="#73564d" stroke="#73564d" stroke-width="1.51"></path><path d="M181,-2L178,78L207,14Z" fill="#82655c" stroke="#82655c" stroke-width="1.51"></path><path d="M74,-96L92,16L135,-108Z" fill="#a08279" stroke="#a08279" stroke-width="1.51"></path><path d="M71,256L-26,296L169,298Z" fill="#775a51" stroke="#775a51" stroke-width="1.51"></path><path d="M64,88L120,157L178,78Z" fill="#7a5d54" stroke="#7a5d54" stroke-width="1.51"></path><path d="M92,16L178,78L181,-2Z" fill="#83665d" stroke="#83665d" stroke-width="1.51"></path><path d="M135,-108L92,16L181,-2Z" fill="#93766d" stroke="#93766d" stroke-width="1.51"></path><path d="M92,16L64,88L178,78Z" fill="#83665d" stroke="#83665d" stroke-width="1.51"></path><path d="M64,177L71,256L120,157Z" fill="#7a5d54" stroke="#7a5d54" stroke-width="1.51"></path><path d="M64,88L64,177L120,157Z" fill="#7e6158" stroke="#7e6158" stroke-width="1.51"></path><path d="M74,-96L-44,10L92,16Z" fill="#a08379" stroke="#a08379" stroke-width="1.51"></path><path d="M-44,10L64,88L92,16Z" fill="#93766c" stroke="#93766c" stroke-width="1.51"></path><path d="M-44,10L-39,70L64,88Z" fill="#96796f" stroke="#96796f" stroke-width="1.51"></path><path d="M64,88L-9,171L64,177Z" fill="#84675e" stroke="#84675e" stroke-width="1.51"></path><path d="M64,177L-9,171L71,256Z" fill="#81645a" stroke="#81645a" stroke-width="1.51"></path><path d="M-54,-103L-44,10L74,-96Z" fill="#b1938a" stroke="#b1938a" stroke-width="1.51"></path><path d="M-9,171L-26,296L71,256Z" fill="#83665c" stroke="#83665c" stroke-width="1.51"></path><path d="M-39,70L-9,171L64,88Z" fill="#8c6f66" stroke="#8c6f66" stroke-width="1.51"></path><path d="M-110,201L-103,282L-26,296Z" fill="#907269" stroke="#907269" stroke-width="1.51"></path><path d="M-39,70L-100,118L-9,171Z" fill="#94766d" stroke="#94766d" stroke-width="1.51"></path><path d="M-100,118L-110,201L-9,171Z" fill="#95776e" stroke="#95776e" stroke-width="1.51"></path><path d="M-110,201L-26,296L-9,171Z" fill="#8d7067" stroke="#8d7067" stroke-width="1.51"></path><path d="M-54,-103L-141,9L-44,10Z" fill="#b5978e" stroke="#b5978e" stroke-width="1.51"></path><path d="M-131,-116L-141,9L-54,-103Z" fill="#c3a69c" stroke="#c3a69c" stroke-width="1.51"></path><path d="M-44,10L-141,9L-39,70Z" fill="#a78a81" stroke="#a78a81" stroke-width="1.51"></path><path d="M-141,9L-100,118L-39,70Z" fill="#a2847b" stroke="#a2847b" stroke-width="1.51"></path><path d="M-110,201L-141,9L-103,282Z" fill="#9c7e75" stroke="#9c7e75" stroke-width="1.51"></path><path d="M-141,9L-110,201L-100,118Z" fill="#a08279" stroke="#a08279" stroke-width="1.51"></path></svg>