<svg width="300" height="176" xmlns="http://www.w3.org/2000/svg"><path d="M29,-93L179,-65L256,-80Z" fill="#9b7e75" stroke="#9b7e75" stroke-width="1.51"></path><path d="M29,-93L256,-80L399,-103Z" fill="#9b7d74" stroke="#9b7d74" stroke-width="1.51"></path><path d="M-147,-105L29,-93L399,-103Z" fill="#a98c83" stroke="#a98c83" stroke-width="1.51"></path><path d="M323,260L243,258L405,277Z" fill="#65483f" stroke="#65483f" stroke-width="1.51"></path><path d="M243,258L52,296L405,277Z" fill="#684b42" stroke="#684b42" stroke-width="1.51"></path><path d="M330,-13L354,104L413,-21Z" fill="#7c5f55" stroke="#7c5f55" stroke-width="1.51"></path><path d="M399,-103L413,-21L442,69Z" fill="#83655c" stroke="#83655c" stroke-width="1.51"></path><path d="M354,104L426,192L442,69Z" fill="#6a4d44" stroke="#6a4d44" stroke-width="1.51"></path><path d="M413,-21L354,104L442,69Z" fill="#74574e" stroke="#74574e" stroke-width="1.51"></path><path d="M354,104L309,177L426,192Z" fill="#6a4d44" stroke="#6a4d44" stroke-width="1.51"></path><path d="M323,260L405,277L426,192Z" fill="#65473e" stroke="#65473e" stroke-width="1.51"></path><path d="M309,177L323,260L426,192Z" fill="#674a41" stroke="#674a41" stroke-width="1.51"></path><path d="M256,-80L311,-59L399,-103Z" fill="#95776d" stroke="#95776d" stroke-width="1.51"></path><path d="M311,-59L330,-13L399,-103Z" fill="#8f7168" stroke="#8f7168" stroke-width="1.51"></path><path d="M399,-103L330,-13L413,-21Z" fill="#8a6c63" stroke="#8a6c63" stroke-width="1.51"></path><path d="M130,256L52,296L243,258Z" fill="#6e5047" stroke="#6e5047" stroke-width="1.51"></path><path d="M330,-13L261,67L354,104Z" fill="#775a51" stroke="#775a51" stroke-width="1.51"></path><path d="M261,67L309,177L354,104Z" fill="#6f5249" stroke="#6f5249" stroke-width="1.51"></path><path d="M-147,-105L-15,-88L29,-93Z" fill="#bea198" stroke="#bea198" stroke-width="1.51"></path><path d="M250,176L243,258L309,177Z" fill="#6c4e45" stroke="#6c4e45" stroke-width="1.51"></path><path d="M261,67L250,176L309,177Z" fill="#6f5249" stroke="#6f5249" stroke-width="1.51"></path><path d="M309,177L243,258L323,260Z" fill="#684b42" stroke="#684b42" stroke-width="1.51"></path><path d="M311,-59L208,-5L330,-13Z" fill="#8a6c63" stroke="#8a6c63" stroke-width="1.51"></path><path d="M208,-5L261,67L330,-13Z" fill="#81645b" stroke="#81645b" stroke-width="1.51"></path><path d="M256,-80L208,-5L311,-59Z" fill="#907269" stroke="#907269" stroke-width="1.51"></path><path d="M117,99L118,164L250,176Z" fill="#73564d" stroke="#73564d" stroke-width="1.51"></path><path d="M179,-65L208,-5L256,-80Z" fill="#92756c" stroke="#92756c" stroke-width="1.51"></path><path d="M117,99L250,176L261,67Z" fill="#73564d" stroke="#73564d" stroke-width="1.51"></path><path d="M208,-5L117,99L261,67Z" fill="#7c5f56" stroke="#7c5f56" stroke-width="1.51"></path><path d="M130,256L243,258L250,176Z" fill="#6c4f46" stroke="#6c4f46" stroke-width="1.51"></path><path d="M118,164L130,256L250,176Z" fill="#70534a" stroke="#70534a" stroke-width="1.51"></path><path d="M179,-65L136,-18L208,-5Z" fill="#8f7269" stroke="#8f7269" stroke-width="1.51"></path><path d="M136,-18L117,99L208,-5Z" fill="#84675e" stroke="#84675e" stroke-width="1.51"></path><path d="M77,61L117,99L136,-18Z" fill="#86685f" stroke="#86685f" stroke-width="1.51"></path><path d="M29,-93L136,-18L179,-65Z" fill="#9d7f76" stroke="#9d7f76" stroke-width="1.51"></path><path d="M118,164L63,175L130,256Z" fill="#775a51" stroke="#775a51" stroke-width="1.51"></path><path d="M52,-2L77,61L136,-18Z" fill="#90736a" stroke="#90736a" stroke-width="1.51"></path><path d="M29,-93L52,-2L136,-18Z" fill="#9e8178" stroke="#9e8178" stroke-width="1.51"></path><path d="M117,99L63,175L118,164Z" fill="#7b5e55" stroke="#7b5e55" stroke-width="1.51"></path><path d="M63,175L52,296L130,256Z" fill="#785b52" stroke="#785b52" stroke-width="1.51"></path><path d="M77,61L63,175L117,99Z" fill="#7f6259" stroke="#7f6259" stroke-width="1.51"></path><path d="M-20,285L52,296L63,175Z" fill="#806259" stroke="#806259" stroke-width="1.51"></path><path d="M-60,106L-47,163L63,175Z" fill="#8d6f66" stroke="#8d6f66" stroke-width="1.51"></path><path d="M52,-2L-40,31L77,61Z" fill="#967970" stroke="#967970" stroke-width="1.51"></path><path d="M-60,106L63,175L77,61Z" fill="#886b62" stroke="#886b62" stroke-width="1.51"></path><path d="M-40,31L-60,106L77,61Z" fill="#94776e" stroke="#94776e" stroke-width="1.51"></path><path d="M29,-93L-15,-88L52,-2Z" fill="#ac8e85" stroke="#ac8e85" stroke-width="1.51"></path><path d="M-47,163L-20,285L63,175Z" fill="#876a61" stroke="#876a61" stroke-width="1.51"></path><path d="M-15,-88L-40,31L52,-2Z" fill="#a68980" stroke="#a68980" stroke-width="1.51"></path><path d="M-47,163L-87,260L-20,285Z" fill="#8d7067" stroke="#8d7067" stroke-width="1.51"></path><path d="M-95,-14L-40,31L-15,-88Z" fill="#af9188" stroke="#af9188" stroke-width="1.51"></path><path d="M-147,-105L-95,-14L-15,-88Z" fill="#bfa198" stroke="#bfa198" stroke-width="1.51"></path><path d="M-153,157L-87,260L-47,163Z" fill="#977a70" stroke="#977a70" stroke-width="1.51"></path><path d="M-149,99L-60,106L-40,31Z" fill="#9d8077" stroke="#9d8077" stroke-width="1.51"></path><path d="M-95,-14L-149,99L-40,31Z" fill="#a88a81" stroke="#a88a81" stroke-width="1.51"></path><path d="M-60,106L-153,157L-47,163Z" fill="#997b72" stroke="#997b72" stroke-width="1.51"></path><path d="M-149,99L-153,157L-60,106Z" fill="#9f8278" stroke="#9f8278" stroke-width="1.51"></path><path d="M-147,-105L-149,99L-95,-14Z" fill="#b89b92" stroke="#b89b92" stroke-width="1.51"></path><path d="M-153,157L-149,99L-147,-105Z" fill="#ae9188" stroke="#ae9188" stroke-width="1.51"></path></svg>