<svg width="300" height="176" xmlns="http://www.w3.org/2000/svg"><path d="M76,278L-39,273L149,294Z" fill="#795c53" stroke="#795c53" stroke-width="1.51"></path><path d="M-39,273L-120,272L149,294Z" fill="#83665c" stroke="#83665c" stroke-width="1.51"></path><path d="M0,-106L37,-101L259,-85Z" fill="#a88a81" stroke="#a88a81" stroke-width="1.51"></path><path d="M259,-85L308,-69L408,-70Z" fill="#93756c" stroke="#93756c" stroke-width="1.51"></path><path d="M410,105L406,181L423,249Z" fill="#664940" stroke="#664940" stroke-width="1.51"></path><path d="M354,3L410,105L436,29Z" fill="#75584f" stroke="#75584f" stroke-width="1.51"></path><path d="M408,-70L354,3L436,29Z" fill="#82655b" stroke="#82655b" stroke-width="1.51"></path><path d="M410,105L423,249L436,29Z" fill="#694c43" stroke="#694c43" stroke-width="1.51"></path><path d="M406,181L352,196L423,249Z" fill="#664940" stroke="#664940" stroke-width="1.51"></path><path d="M352,196L349,269L423,249Z" fill="#65483e" stroke="#65483e" stroke-width="1.51"></path><path d="M308,-69L354,3L408,-70Z" fill="#8b6d64" stroke="#8b6d64" stroke-width="1.51"></path><path d="M354,3L297,111L410,105Z" fill="#71544b" stroke="#71544b" stroke-width="1.51"></path><path d="M352,196L406,181L410,105Z" fill="#694b42" stroke="#694b42" stroke-width="1.51"></path><path d="M297,111L352,196L410,105Z" fill="#6b4e45" stroke="#6b4e45" stroke-width="1.51"></path><path d="M37,-101L169,-61L259,-85Z" fill="#9c7f75" stroke="#9c7f75" stroke-width="1.51"></path><path d="M224,235L149,294L349,269Z" fill="#684b42" stroke="#684b42" stroke-width="1.51"></path><path d="M242,204L349,269L352,196Z" fill="#684b42" stroke="#684b42" stroke-width="1.51"></path><path d="M297,111L242,204L352,196Z" fill="#6c4f46" stroke="#6c4f46" stroke-width="1.51"></path><path d="M308,-69L253,28L354,3Z" fill="#86695f" stroke="#86695f" stroke-width="1.51"></path><path d="M253,28L297,111L354,3Z" fill="#795c53" stroke="#795c53" stroke-width="1.51"></path><path d="M242,204L224,235L349,269Z" fill="#694c43" stroke="#694c43" stroke-width="1.51"></path><path d="M253,28L222,54L297,111Z" fill="#775a51" stroke="#775a51" stroke-width="1.51"></path><path d="M259,-85L253,28L308,-69Z" fill="#8e7168" stroke="#8e7168" stroke-width="1.51"></path><path d="M160,95L242,204L297,111Z" fill="#70534a" stroke="#70534a" stroke-width="1.51"></path><path d="M222,54L160,95L297,111Z" fill="#74574e" stroke="#74574e" stroke-width="1.51"></path><path d="M160,95L138,175L242,204Z" fill="#71544b" stroke="#71544b" stroke-width="1.51"></path><path d="M162,-32L222,54L253,28Z" fill="#84675d" stroke="#84675d" stroke-width="1.51"></path><path d="M162,-32L253,28L259,-85Z" fill="#8e7067" stroke="#8e7067" stroke-width="1.51"></path><path d="M169,-61L162,-32L259,-85Z" fill="#95786f" stroke="#95786f" stroke-width="1.51"></path><path d="M138,175L224,235L242,204Z" fill="#6e5148" stroke="#6e5148" stroke-width="1.51"></path><path d="M162,-32L160,95L222,54Z" fill="#80635a" stroke="#80635a" stroke-width="1.51"></path><path d="M138,175L149,294L224,235Z" fill="#6d5047" stroke="#6d5047" stroke-width="1.51"></path><path d="M138,175L76,278L149,294Z" fill="#72554c" stroke="#72554c" stroke-width="1.51"></path><path d="M73,22L160,95L162,-32Z" fill="#876960" stroke="#876960" stroke-width="1.51"></path><path d="M37,-101L162,-32L169,-61Z" fill="#9d7f76" stroke="#9d7f76" stroke-width="1.51"></path><path d="M73,22L40,94L160,95Z" fill="#84665d" stroke="#84665d" stroke-width="1.51"></path><path d="M67,172L138,175L160,95Z" fill="#785b51" stroke="#785b51" stroke-width="1.51"></path><path d="M40,94L67,172L160,95Z" fill="#7e6158" stroke="#7e6158" stroke-width="1.51"></path><path d="M37,-101L73,22L162,-32Z" fill="#9b7e75" stroke="#9b7e75" stroke-width="1.51"></path><path d="M67,172L76,278L138,175Z" fill="#785b52" stroke="#785b52" stroke-width="1.51"></path><path d="M40,94L-6,110L67,172Z" fill="#876a61" stroke="#876a61" stroke-width="1.51"></path><path d="M37,-101L-54,-29L73,22Z" fill="#a68980" stroke="#a68980" stroke-width="1.51"></path><path d="M67,172L-2,188L76,278Z" fill="#806258" stroke="#806258" stroke-width="1.51"></path><path d="M-2,188L-39,273L76,278Z" fill="#83665d" stroke="#83665d" stroke-width="1.51"></path><path d="M0,-106L-54,-29L37,-101Z" fill="#b4978d" stroke="#b4978d" stroke-width="1.51"></path><path d="M-6,110L-2,188L67,172Z" fill="#876a60" stroke="#876a60" stroke-width="1.51"></path><path d="M-54,-29L40,94L73,22Z" fill="#987a71" stroke="#987a71" stroke-width="1.51"></path><path d="M-54,-29L-6,110L40,94Z" fill="#96796f" stroke="#96796f" stroke-width="1.51"></path><path d="M-54,-29L-98,-9L-6,110Z" fill="#a5877e" stroke="#a5877e" stroke-width="1.51"></path><path d="M-98,-9L-124,97L-6,110Z" fill="#9f8178" stroke="#9f8178" stroke-width="1.51"></path><path d="M-124,97L-145,158L-6,110Z" fill="#9b7d74" stroke="#9b7d74" stroke-width="1.51"></path><path d="M-6,110L-145,158L-2,188Z" fill="#92756b" stroke="#92756b" stroke-width="1.51"></path><path d="M-119,-81L-54,-29L0,-106Z" fill="#bb9e94" stroke="#bb9e94" stroke-width="1.51"></path><path d="M-120,272L-39,273L-2,188Z" fill="#8d7067" stroke="#8d7067" stroke-width="1.51"></path><path d="M-145,158L-120,272L-2,188Z" fill="#95776e" stroke="#95776e" stroke-width="1.51"></path><path d="M-119,-81L-98,-9L-54,-29Z" fill="#b99c93" stroke="#b99c93" stroke-width="1.51"></path><path d="M-119,-81L-124,97L-98,-9Z" fill="#b3968d" stroke="#b3968d" stroke-width="1.51"></path><path d="M-145,158L-124,97L-119,-81Z" fill="#a98c83" stroke="#a98c83" stroke-width="1.51"></path></svg>