<svg width="300" height="176" xmlns="http://www.w3.org/2000/svg"><path d="M181,64L224,149L241,107Z" fill="#6e5148" stroke="#6e5148" stroke-width="1.51"></path><path d="M181,64L153,198L224,149Z" fill="#6c4f46" stroke="#6c4f46" stroke-width="1.51"></path><path d="M181,64L88,106L153,198Z" fill="#75584f" stroke="#75584f" stroke-width="1.51"></path><path d="M181,64L139,-3L88,106Z" fill="#8d7067" stroke="#8d7067" stroke-width="1.51"></path><path d="M216,-19L139,-3L181,64Z" fill="#9e8077" stroke="#9e8077" stroke-width="1.51"></path><path d="M241,107L216,-19L181,64Z" fill="#86685f" stroke="#86685f" stroke-width="1.51"></path><path d="M340,182L339,112L241,107Z" fill="#63463d" stroke="#63463d" stroke-width="1.51"></path><path d="M241,107L353,28L216,-19Z" fill="#876a61" stroke="#876a61" stroke-width="1.51"></path><path d="M340,182L241,107L224,149Z" fill="#64473e" stroke="#64473e" stroke-width="1.51"></path><path d="M153,198L225,292L224,149Z" fill="#65483f" stroke="#65483f" stroke-width="1.51"></path><path d="M42,246L137,248L153,198Z" fill="#775950" stroke="#775950" stroke-width="1.51"></path><path d="M88,106L42,151L153,198Z" fill="#7f6259" stroke="#7f6259" stroke-width="1.51"></path><path d="M1,64L42,151L88,106Z" fill="#977970" stroke="#977970" stroke-width="1.51"></path><path d="M318,269L340,182L224,149Z" fill="#5d4037" stroke="#5d4037" stroke-width="1.51"></path><path d="M438,64L353,28L339,112Z" fill="#75574e" stroke="#75574e" stroke-width="1.51"></path><path d="M339,112L353,28L241,107Z" fill="#6d5047" stroke="#6d5047" stroke-width="1.51"></path><path d="M137,248L225,292L153,198Z" fill="#684b42" stroke="#684b42" stroke-width="1.51"></path><path d="M27,-30L1,64L88,106Z" fill="#b3968d" stroke="#b3968d" stroke-width="1.51"></path><path d="M225,292L318,269L224,149Z" fill="#61443b" stroke="#61443b" stroke-width="1.51"></path><path d="M42,151L42,246L153,198Z" fill="#81635a" stroke="#81635a" stroke-width="1.51"></path><path d="M137,248L42,246L225,292Z" fill="#6f5249" stroke="#6f5249" stroke-width="1.51"></path><path d="M-63,207L42,246L42,151Z" fill="#987a71" stroke="#987a71" stroke-width="1.51"></path><path d="M139,-3L27,-30L88,106Z" fill="#b0938a" stroke="#b0938a" stroke-width="1.51"></path><path d="M216,-19L152,-92L139,-3Z" fill="#a78980" stroke="#a78980" stroke-width="1.51"></path><path d="M263,-104L152,-92L216,-19Z" fill="#a3857c" stroke="#a3857c" stroke-width="1.51"></path><path d="M37,-97L27,-30L139,-3Z" fill="#c4a79e" stroke="#c4a79e" stroke-width="1.51"></path><path d="M353,28L263,-104L216,-19Z" fill="#9d7f76" stroke="#9d7f76" stroke-width="1.51"></path><path d="M436,253L416,165L340,182Z" fill="#5d4037" stroke="#5d4037" stroke-width="1.51"></path><path d="M340,182L416,165L339,112Z" fill="#60433a" stroke="#60433a" stroke-width="1.51"></path><path d="M353,28L320,-120L263,-104Z" fill="#9b7d73" stroke="#9b7d73" stroke-width="1.51"></path><path d="M416,165L438,64L339,112Z" fill="#664940" stroke="#664940" stroke-width="1.51"></path><path d="M438,64L406,-19L353,28Z" fill="#8d6f66" stroke="#8d6f66" stroke-width="1.51"></path><path d="M27,-30L-47,-5L1,64Z" fill="#d6b9b0" stroke="#d6b9b0" stroke-width="1.51"></path><path d="M152,-92L37,-97L139,-3Z" fill="#b69990" stroke="#b69990" stroke-width="1.51"></path><path d="M320,-120L37,-97L152,-92Z" fill="#a78980" stroke="#a78980" stroke-width="1.51"></path><path d="M406,-19L320,-120L353,28Z" fill="#9b7d73" stroke="#9b7d73" stroke-width="1.51"></path><path d="M263,-104L320,-120L152,-92Z" fill="#9f8278" stroke="#9f8278" stroke-width="1.51"></path><path d="M-63,-93L-47,-5L27,-30Z" fill="#dcbfb6" stroke="#dcbfb6" stroke-width="1.51"></path><path d="M1,64L-63,207L42,151Z" fill="#a08279" stroke="#a08279" stroke-width="1.51"></path><path d="M-120,210L-63,207L-138,107Z" fill="#9b7d73" stroke="#9b7d73" stroke-width="1.51"></path><path d="M-63,207L-46,262L42,246Z" fill="#9b7d73" stroke="#9b7d73" stroke-width="1.51"></path><path d="M42,246L-114,300L225,292Z" fill="#8a6c63" stroke="#8a6c63" stroke-width="1.51"></path><path d="M416,165L436,253L438,64Z" fill="#5f4239" stroke="#5f4239" stroke-width="1.51"></path><path d="M318,269L436,253L340,182Z" fill="#5d4037" stroke="#5d4037" stroke-width="1.51"></path><path d="M225,292L436,253L318,269Z" fill="#5d4037" stroke="#5d4037" stroke-width="1.51"></path><path d="M-47,-5L-95,-3L1,64Z" fill="#d1b4aa" stroke="#d1b4aa" stroke-width="1.51"></path><path d="M-103,-71L-95,-3L-47,-5Z" fill="#dcbfb6" stroke="#dcbfb6" stroke-width="1.51"></path><path d="M406,-19L427,-109L320,-120Z" fill="#9b7d73" stroke="#9b7d73" stroke-width="1.51"></path><path d="M438,64L427,-109L406,-19Z" fill="#9b7d73" stroke="#9b7d73" stroke-width="1.51"></path><path d="M37,-97L-63,-93L27,-30Z" fill="#dcbfb6" stroke="#dcbfb6" stroke-width="1.51"></path><path d="M320,-120L-63,-93L37,-97Z" fill="#ba9c93" stroke="#ba9c93" stroke-width="1.51"></path><path d="M-63,207L-120,210L-46,262Z" fill="#9b7d73" stroke="#9b7d73" stroke-width="1.51"></path><path d="M-138,107L-63,207L1,64Z" fill="#a3857c" stroke="#a3857c" stroke-width="1.51"></path><path d="M-95,-3L-138,107L1,64Z" fill="#bb9d94" stroke="#bb9d94" stroke-width="1.51"></path><path d="M-103,-71L-138,107L-95,-3Z" fill="#d5b8af" stroke="#d5b8af" stroke-width="1.51"></path><path d="M-63,-93L-103,-71L-47,-5Z" fill="#dcbfb6" stroke="#dcbfb6" stroke-width="1.51"></path><path d="M-120,210L-114,300L-46,262Z" fill="#9b7d73" stroke="#9b7d73" stroke-width="1.51"></path><path d="M-46,262L-114,300L42,246Z" fill="#9b7d73" stroke="#9b7d73" stroke-width="1.51"></path><path d="M-138,107L-114,300L-120,210Z" fill="#9b7d73" stroke="#9b7d73" stroke-width="1.51"></path></svg>