<svg width="300" height="176" xmlns="http://www.w3.org/2000/svg"><path d="M-25,-101L56,-104L359,-116Z" fill="#a5877e" stroke="#a5877e" stroke-width="1.51"></path><path d="M56,-104L181,-81L359,-116Z" fill="#9e8178" stroke="#9e8178" stroke-width="1.51"></path><path d="M318,246L256,299L433,242Z" fill="#65483f" stroke="#65483f" stroke-width="1.51"></path><path d="M359,-116L298,-7L435,13Z" fill="#896b62" stroke="#896b62" stroke-width="1.51"></path><path d="M359,-116L435,13L436,-94Z" fill="#8d6f66" stroke="#8d6f66" stroke-width="1.51"></path><path d="M413,92L335,118L450,154Z" fill="#6a4d44" stroke="#6a4d44" stroke-width="1.51"></path><path d="M309,160L433,242L450,154Z" fill="#674a41" stroke="#674a41" stroke-width="1.51"></path><path d="M335,118L309,160L450,154Z" fill="#6a4d44" stroke="#6a4d44" stroke-width="1.51"></path><path d="M435,13L413,92L450,154Z" fill="#6c4f46" stroke="#6c4f46" stroke-width="1.51"></path><path d="M436,-94L435,13L450,154Z" fill="#795b52" stroke="#795b52" stroke-width="1.51"></path><path d="M309,160L318,246L433,242Z" fill="#674a41" stroke="#674a41" stroke-width="1.51"></path><path d="M298,-7L413,92L435,13Z" fill="#795c53" stroke="#795c53" stroke-width="1.51"></path><path d="M298,-7L335,118L413,92Z" fill="#73564d" stroke="#73564d" stroke-width="1.51"></path><path d="M149,271L55,286L256,299Z" fill="#6b4e45" stroke="#6b4e45" stroke-width="1.51"></path><path d="M181,-81L220,-70L359,-116Z" fill="#997b72" stroke="#997b72" stroke-width="1.51"></path><path d="M220,-70L298,-7L359,-116Z" fill="#92746b" stroke="#92746b" stroke-width="1.51"></path><path d="M221,105L309,160L335,118Z" fill="#6e5148" stroke="#6e5148" stroke-width="1.51"></path><path d="M298,-7L221,105L335,118Z" fill="#75584f" stroke="#75584f" stroke-width="1.51"></path><path d="M309,160L208,166L318,246Z" fill="#6b4e45" stroke="#6b4e45" stroke-width="1.51"></path><path d="M208,166L256,299L318,246Z" fill="#6a4d44" stroke="#6a4d44" stroke-width="1.51"></path><path d="M207,-20L221,105L298,-7Z" fill="#80635a" stroke="#80635a" stroke-width="1.51"></path><path d="M221,105L208,166L309,160Z" fill="#6f5249" stroke="#6f5249" stroke-width="1.51"></path><path d="M220,-70L207,-20L298,-7Z" fill="#8d6f66" stroke="#8d6f66" stroke-width="1.51"></path><path d="M182,172L149,271L208,166Z" fill="#6f5249" stroke="#6f5249" stroke-width="1.51"></path><path d="M207,-20L156,31L221,105Z" fill="#7f6259" stroke="#7f6259" stroke-width="1.51"></path><path d="M208,166L149,271L256,299Z" fill="#6b4e45" stroke="#6b4e45" stroke-width="1.51"></path><path d="M181,-81L207,-20L220,-70Z" fill="#94776e" stroke="#94776e" stroke-width="1.51"></path><path d="M182,172L208,166L221,105Z" fill="#71544b" stroke="#71544b" stroke-width="1.51"></path><path d="M137,72L182,172L221,105Z" fill="#74574e" stroke="#74574e" stroke-width="1.51"></path><path d="M156,31L137,72L221,105Z" fill="#7a5d54" stroke="#7a5d54" stroke-width="1.51"></path><path d="M181,-81L156,31L207,-20Z" fill="#8e7067" stroke="#8e7067" stroke-width="1.51"></path><path d="M80,-5L156,31L181,-81Z" fill="#907269" stroke="#907269" stroke-width="1.51"></path><path d="M56,-104L80,-5L181,-81Z" fill="#9f8278" stroke="#9f8278" stroke-width="1.51"></path><path d="M137,72L52,118L182,172Z" fill="#795c53" stroke="#795c53" stroke-width="1.51"></path><path d="M52,118L38,183L182,172Z" fill="#7c5f56" stroke="#7c5f56" stroke-width="1.51"></path><path d="M38,183L149,271L182,172Z" fill="#74574e" stroke="#74574e" stroke-width="1.51"></path><path d="M38,183L55,286L149,271Z" fill="#785b52" stroke="#785b52" stroke-width="1.51"></path><path d="M80,-5L137,72L156,31Z" fill="#876a60" stroke="#876a60" stroke-width="1.51"></path><path d="M80,-5L52,118L137,72Z" fill="#86685f" stroke="#86685f" stroke-width="1.51"></path><path d="M-18,245L-106,257L55,286Z" fill="#876a61" stroke="#876a61" stroke-width="1.51"></path><path d="M38,183L-18,245L55,286Z" fill="#82645a" stroke="#82645a" stroke-width="1.51"></path><path d="M-18,70L52,118L80,-5Z" fill="#8e7067" stroke="#8e7067" stroke-width="1.51"></path><path d="M-16,-36L-18,70L80,-5Z" fill="#9d8076" stroke="#9d8076" stroke-width="1.51"></path><path d="M56,-104L-16,-36L80,-5Z" fill="#a68980" stroke="#a68980" stroke-width="1.51"></path><path d="M-25,-101L-16,-36L56,-104Z" fill="#b3958c" stroke="#b3958c" stroke-width="1.51"></path><path d="M-60,183L38,183L52,118Z" fill="#886a61" stroke="#886a61" stroke-width="1.51"></path><path d="M-18,70L-60,183L52,118Z" fill="#8e7067" stroke="#8e7067" stroke-width="1.51"></path><path d="M-60,183L-18,245L38,183Z" fill="#8a6c63" stroke="#8a6c63" stroke-width="1.51"></path><path d="M-147,118L-60,183L-18,70Z" fill="#987a71" stroke="#987a71" stroke-width="1.51"></path><path d="M-60,183L-91,199L-18,245Z" fill="#907269" stroke="#907269" stroke-width="1.51"></path><path d="M-25,-101L-96,-95L-16,-36Z" fill="#ba9d94" stroke="#ba9d94" stroke-width="1.51"></path><path d="M-96,-95L-127,27L-16,-36Z" fill="#b6988f" stroke="#b6988f" stroke-width="1.51"></path><path d="M-127,27L-18,70L-16,-36Z" fill="#a5887f" stroke="#a5887f" stroke-width="1.51"></path><path d="M-127,27L-147,118L-18,70Z" fill="#a1847b" stroke="#a1847b" stroke-width="1.51"></path><path d="M-91,199L-106,257L-18,245Z" fill="#91736a" stroke="#91736a" stroke-width="1.51"></path><path d="M-147,118L-91,199L-60,183Z" fill="#997c72" stroke="#997c72" stroke-width="1.51"></path><path d="M-147,118L-106,257L-91,199Z" fill="#9a7c73" stroke="#9a7c73" stroke-width="1.51"></path></svg>