<svg width="300" height="176" xmlns="http://www.w3.org/2000/svg"><path d="M129,82L64,118L126,146Z" fill="#3b7c46" stroke="#3b7c46" stroke-width="1.51"></path><path d="M64,118L26,156L126,146Z" fill="#3e804e" stroke="#3e804e" stroke-width="1.51"></path><path d="M129,82L28,-4L64,118Z" fill="#46875a" stroke="#46875a" stroke-width="1.51"></path><path d="M64,118L-11,146L26,156Z" fill="#45875c" stroke="#45875c" stroke-width="1.51"></path><path d="M241,66L154,20L129,82Z" fill="#3b7d47" stroke="#3b7d47" stroke-width="1.51"></path><path d="M-50,72L-11,146L64,118Z" fill="#4a8c65" stroke="#4a8c65" stroke-width="1.51"></path><path d="M126,146L217,158L129,82Z" fill="#327537" stroke="#327537" stroke-width="1.51"></path><path d="M134,278L217,158L126,146Z" fill="#2f7133" stroke="#2f7133" stroke-width="1.51"></path><path d="M154,20L28,-4L129,82Z" fill="#48895f" stroke="#48895f" stroke-width="1.51"></path><path d="M26,156L39,240L126,146Z" fill="#3d7f4e" stroke="#3d7f4e" stroke-width="1.51"></path><path d="M-20,240L39,240L26,156Z" fill="#43845b" stroke="#43845b" stroke-width="1.51"></path><path d="M217,158L241,66L129,82Z" fill="#327537" stroke="#327537" stroke-width="1.51"></path><path d="M28,-4L-50,72L64,118Z" fill="#4e906e" stroke="#4e906e" stroke-width="1.51"></path><path d="M241,66L212,-7L154,20Z" fill="#408251" stroke="#408251" stroke-width="1.51"></path><path d="M154,20L50,-77L28,-4Z" fill="#55987d" stroke="#55987d" stroke-width="1.51"></path><path d="M39,240L134,278L126,146Z" fill="#367741" stroke="#367741" stroke-width="1.51"></path><path d="M39,240L-104,275L134,278Z" fill="#3f8055" stroke="#3f8055" stroke-width="1.51"></path><path d="M-11,146L-20,240L26,156Z" fill="#478861" stroke="#478861" stroke-width="1.51"></path><path d="M-101,164L-20,240L-11,146Z" fill="#4c8e6e" stroke="#4c8e6e" stroke-width="1.51"></path><path d="M217,158L304,109L241,66Z" fill="#307234" stroke="#307234" stroke-width="1.51"></path><path d="M134,278L219,260L217,158Z" fill="#2c6e30" stroke="#2c6e30" stroke-width="1.51"></path><path d="M50,-77L-30,-22L28,-4Z" fill="#5fa496" stroke="#5fa496" stroke-width="1.51"></path><path d="M28,-4L-30,-22L-50,72Z" fill="#5a9f8b" stroke="#5a9f8b" stroke-width="1.51"></path><path d="M149,-83L50,-77L154,20Z" fill="#55987c" stroke="#55987c" stroke-width="1.51"></path><path d="M354,149L304,109L217,158Z" fill="#2d6f31" stroke="#2d6f31" stroke-width="1.51"></path><path d="M317,-84L228,-71L212,-7Z" fill="#4e9071" stroke="#4e9071" stroke-width="1.51"></path><path d="M212,-7L149,-83L154,20Z" fill="#4b8d67" stroke="#4b8d67" stroke-width="1.51"></path><path d="M-90,-21L-102,83L-50,72Z" fill="#5da291" stroke="#5da291" stroke-width="1.51"></path><path d="M-50,72L-101,164L-11,146Z" fill="#509374" stroke="#509374" stroke-width="1.51"></path><path d="M-102,83L-101,164L-50,72Z" fill="#56997f" stroke="#56997f" stroke-width="1.51"></path><path d="M212,-7L228,-71L149,-83Z" fill="#509273" stroke="#509273" stroke-width="1.51"></path><path d="M355,0L212,-7L241,66Z" fill="#3f8151" stroke="#3f8151" stroke-width="1.51"></path><path d="M-99,-63L-90,-21L-30,-22Z" fill="#69b2b2" stroke="#69b2b2" stroke-width="1.51"></path><path d="M-30,-22L-90,-21L-50,72Z" fill="#60a69a" stroke="#60a69a" stroke-width="1.51"></path><path d="M219,260L354,149L217,158Z" fill="#2b6d2f" stroke="#2b6d2f" stroke-width="1.51"></path><path d="M304,109L355,0L241,66Z" fill="#367740" stroke="#367740" stroke-width="1.51"></path><path d="M317,-84L-17,-113L149,-83Z" fill="#599d86" stroke="#599d86" stroke-width="1.51"></path><path d="M149,-83L-17,-113L50,-77Z" fill="#63aaa0" stroke="#63aaa0" stroke-width="1.51"></path><path d="M50,-77L-17,-113L-30,-22Z" fill="#66aeab" stroke="#66aeab" stroke-width="1.51"></path><path d="M-101,164L-104,275L-20,240Z" fill="#4e9075" stroke="#4e9075" stroke-width="1.51"></path><path d="M-20,240L-104,275L39,240Z" fill="#478865" stroke="#478865" stroke-width="1.51"></path><path d="M-102,83L-104,275L-101,164Z" fill="#549880" stroke="#549880" stroke-width="1.51"></path><path d="M-17,-113L-99,-63L-30,-22Z" fill="#6bb4b8" stroke="#6bb4b8" stroke-width="1.51"></path><path d="M-90,-21L-99,-63L-102,83Z" fill="#66aeaa" stroke="#66aeaa" stroke-width="1.51"></path><path d="M423,79L355,0L304,109Z" fill="#32743c" stroke="#32743c" stroke-width="1.51"></path><path d="M-104,275L326,294L134,278Z" fill="#307138" stroke="#307138" stroke-width="1.51"></path><path d="M134,278L326,294L219,260Z" fill="#276a2c" stroke="#276a2c" stroke-width="1.51"></path><path d="M219,260L326,294L354,149Z" fill="#27692b" stroke="#27692b" stroke-width="1.51"></path><path d="M355,0L317,-84L212,-7Z" fill="#488965" stroke="#488965" stroke-width="1.51"></path><path d="M228,-71L317,-84L149,-83Z" fill="#54967c" stroke="#54967c" stroke-width="1.51"></path><path d="M355,0L409,-22L317,-84Z" fill="#478864" stroke="#478864" stroke-width="1.51"></path><path d="M354,149L423,79L304,109Z" fill="#2b6e30" stroke="#2b6e30" stroke-width="1.51"></path><path d="M441,144L423,79L354,149Z" fill="#296b2d" stroke="#296b2d" stroke-width="1.51"></path><path d="M423,79L409,-22L355,0Z" fill="#3b7c4d" stroke="#3b7c4d" stroke-width="1.51"></path><path d="M405,286L441,144L354,149Z" fill="#256729" stroke="#256729" stroke-width="1.51"></path><path d="M423,79L451,-99L409,-22Z" fill="#408159" stroke="#408159" stroke-width="1.51"></path><path d="M326,294L405,286L354,149Z" fill="#246628" stroke="#246628" stroke-width="1.51"></path><path d="M441,144L451,-99L423,79Z" fill="#347541" stroke="#347541" stroke-width="1.51"></path><path d="M409,-22L451,-99L317,-84Z" fill="#4b8d71" stroke="#4b8d71" stroke-width="1.51"></path><path d="M317,-84L451,-99L-17,-113Z" fill="#569a84" stroke="#569a84" stroke-width="1.51"></path></svg>