<svg width="300" height="176" xmlns="http://www.w3.org/2000/svg"><path d="M66,-105L247,-99L392,-112Z" fill="#5c9e60" stroke="#5c9e60" stroke-width="1.51"></path><path d="M247,-99L320,-81L392,-112Z" fill="#58995a" stroke="#58995a" stroke-width="1.51"></path><path d="M392,-112L320,-81L402,12Z" fill="#4d8f50" stroke="#4d8f50" stroke-width="1.51"></path><path d="M394,78L338,191L420,189Z" fill="#286a2c" stroke="#286a2c" stroke-width="1.51"></path><path d="M338,191L337,240L420,189Z" fill="#26682a" stroke="#26682a" stroke-width="1.51"></path><path d="M402,12L394,78L420,189Z" fill="#2a6d2f" stroke="#2a6d2f" stroke-width="1.51"></path><path d="M158,279L-46,297L423,268Z" fill="#296c2e" stroke="#296c2e" stroke-width="1.51"></path><path d="M337,240L216,254L423,268Z" fill="#256729" stroke="#256729" stroke-width="1.51"></path><path d="M216,254L158,279L423,268Z" fill="#27682a" stroke="#27682a" stroke-width="1.51"></path><path d="M420,189L337,240L423,268Z" fill="#236527" stroke="#236527" stroke-width="1.51"></path><path d="M318,57L338,191L394,78Z" fill="#2c6e30" stroke="#2c6e30" stroke-width="1.51"></path><path d="M320,-81L297,14L402,12Z" fill="#458648" stroke="#458648" stroke-width="1.51"></path><path d="M318,57L394,78L402,12Z" fill="#357739" stroke="#357739" stroke-width="1.51"></path><path d="M297,14L318,57L402,12Z" fill="#3b7d3f" stroke="#3b7d3f" stroke-width="1.51"></path><path d="M246,160L216,254L337,240Z" fill="#296b2d" stroke="#296b2d" stroke-width="1.51"></path><path d="M318,57L244,105L338,191Z" fill="#2e7032" stroke="#2e7032" stroke-width="1.51"></path><path d="M244,105L246,160L338,191Z" fill="#2c6f31" stroke="#2c6f31" stroke-width="1.51"></path><path d="M246,160L337,240L338,191Z" fill="#296b2d" stroke="#296b2d" stroke-width="1.51"></path><path d="M247,-99L230,6L297,14Z" fill="#4a8c4e" stroke="#4a8c4e" stroke-width="1.51"></path><path d="M247,-99L297,14L320,-81Z" fill="#509153" stroke="#509153" stroke-width="1.51"></path><path d="M297,14L244,105L318,57Z" fill="#36793a" stroke="#36793a" stroke-width="1.51"></path><path d="M230,6L244,105L297,14Z" fill="#3b7d3f" stroke="#3b7d3f" stroke-width="1.51"></path><path d="M128,-67L166,18L230,6Z" fill="#4b8d4f" stroke="#4b8d4f" stroke-width="1.51"></path><path d="M230,6L166,18L244,105Z" fill="#3d7f41" stroke="#3d7f41" stroke-width="1.51"></path><path d="M166,18L130,71L244,105Z" fill="#3a7b3e" stroke="#3a7b3e" stroke-width="1.51"></path><path d="M244,105L148,156L246,160Z" fill="#307234" stroke="#307234" stroke-width="1.51"></path><path d="M148,156L216,254L246,160Z" fill="#2e7032" stroke="#2e7032" stroke-width="1.51"></path><path d="M66,-105L128,-67L247,-99Z" fill="#5d9f61" stroke="#5d9f61" stroke-width="1.51"></path><path d="M128,-67L230,6L247,-99Z" fill="#539456" stroke="#539456" stroke-width="1.51"></path><path d="M130,71L148,156L244,105Z" fill="#337537" stroke="#337537" stroke-width="1.51"></path><path d="M93,251L-46,297L158,279Z" fill="#38793b" stroke="#38793b" stroke-width="1.51"></path><path d="M148,156L158,279L216,254Z" fill="#2c6f31" stroke="#2c6f31" stroke-width="1.51"></path><path d="M148,156L93,251L158,279Z" fill="#307234" stroke="#307234" stroke-width="1.51"></path><path d="M91,-27L130,71L166,18Z" fill="#48894b" stroke="#48894b" stroke-width="1.51"></path><path d="M128,-67L91,-27L166,18Z" fill="#529456" stroke="#529456" stroke-width="1.51"></path><path d="M47,186L93,251L148,156Z" fill="#387a3b" stroke="#387a3b" stroke-width="1.51"></path><path d="M130,71L63,88L148,156Z" fill="#3a7c3e" stroke="#3a7c3e" stroke-width="1.51"></path><path d="M63,88L47,186L148,156Z" fill="#3c7f40" stroke="#3c7f40" stroke-width="1.51"></path><path d="M91,-27L63,88L130,71Z" fill="#488a4c" stroke="#488a4c" stroke-width="1.51"></path><path d="M66,-105L91,-27L128,-67Z" fill="#60a264" stroke="#60a264" stroke-width="1.51"></path><path d="M-94,-82L-41,-70L66,-105Z" fill="#77b97b" stroke="#77b97b" stroke-width="1.51"></path><path d="M-45,66L63,88L91,-27Z" fill="#519355" stroke="#519355" stroke-width="1.51"></path><path d="M-53,-35L-45,66L91,-27Z" fill="#60a364" stroke="#60a364" stroke-width="1.51"></path><path d="M66,-105L-41,-70L91,-27Z" fill="#69ac6d" stroke="#69ac6d" stroke-width="1.51"></path><path d="M47,186L-46,297L93,251Z" fill="#3f8143" stroke="#3f8143" stroke-width="1.51"></path><path d="M-41,-70L-53,-35L91,-27Z" fill="#6aac6e" stroke="#6aac6e" stroke-width="1.51"></path><path d="M-45,66L-64,189L47,186Z" fill="#4d8e50" stroke="#4d8e50" stroke-width="1.51"></path><path d="M-45,66L47,186L63,88Z" fill="#488a4c" stroke="#488a4c" stroke-width="1.51"></path><path d="M-64,189L-46,297L47,186Z" fill="#498a4c" stroke="#498a4c" stroke-width="1.51"></path><path d="M-146,55L-131,206L-64,189Z" fill="#5b9d5f" stroke="#5b9d5f" stroke-width="1.51"></path><path d="M-64,189L-110,261L-46,297Z" fill="#509152" stroke="#509152" stroke-width="1.51"></path><path d="M-146,55L-64,189L-45,66Z" fill="#599b5d" stroke="#599b5d" stroke-width="1.51"></path><path d="M-53,-35L-135,-17L-45,66Z" fill="#6cae70" stroke="#6cae70" stroke-width="1.51"></path><path d="M-135,-17L-146,55L-45,66Z" fill="#6aac6e" stroke="#6aac6e" stroke-width="1.51"></path><path d="M-94,-82L-53,-35L-41,-70Z" fill="#78ba7c" stroke="#78ba7c" stroke-width="1.51"></path><path d="M-131,206L-110,261L-64,189Z" fill="#569759" stroke="#569759" stroke-width="1.51"></path><path d="M-94,-82L-135,-17L-53,-35Z" fill="#79bb7d" stroke="#79bb7d" stroke-width="1.51"></path></svg>