<svg width="300" height="176" xmlns="http://www.w3.org/2000/svg"><path d="M164,81L256,70L207,-28Z" fill="#3d7f4b" stroke="#3d7f4b" stroke-width="1.51"></path><path d="M207,-28L170,-24L164,81Z" fill="#458659" stroke="#458659" stroke-width="1.51"></path><path d="M256,70L338,8L207,-28Z" fill="#408153" stroke="#408153" stroke-width="1.51"></path><path d="M209,206L301,76L256,70Z" fill="#307234" stroke="#307234" stroke-width="1.51"></path><path d="M207,-28L234,-80L170,-24Z" fill="#4e916f" stroke="#4e916f" stroke-width="1.51"></path><path d="M338,8L234,-80L207,-28Z" fill="#4a8c68" stroke="#4a8c68" stroke-width="1.51"></path><path d="M170,-24L74,21L164,81Z" fill="#458658" stroke="#458658" stroke-width="1.51"></path><path d="M124,-78L74,21L170,-24Z" fill="#519372" stroke="#519372" stroke-width="1.51"></path><path d="M301,76L338,8L256,70Z" fill="#387943" stroke="#387943" stroke-width="1.51"></path><path d="M234,-80L124,-78L170,-24Z" fill="#529577" stroke="#529577" stroke-width="1.51"></path><path d="M74,21L60,71L164,81Z" fill="#448555" stroke="#448555" stroke-width="1.51"></path><path d="M80,211L168,194L164,81Z" fill="#337539" stroke="#337539" stroke-width="1.51"></path><path d="M164,81L209,206L256,70Z" fill="#317335" stroke="#317335" stroke-width="1.51"></path><path d="M168,194L209,206L164,81Z" fill="#307234" stroke="#307234" stroke-width="1.51"></path><path d="M338,8L352,-60L234,-80Z" fill="#4a8c6a" stroke="#4a8c6a" stroke-width="1.51"></path><path d="M-6,-33L0,111L60,71Z" fill="#509271" stroke="#509271" stroke-width="1.51"></path><path d="M124,-78L-6,-33L74,21Z" fill="#589c85" stroke="#589c85" stroke-width="1.51"></path><path d="M234,-80L87,-125L124,-78Z" fill="#599d87" stroke="#599d87" stroke-width="1.51"></path><path d="M404,-95L87,-125L234,-80Z" fill="#569a85" stroke="#569a85" stroke-width="1.51"></path><path d="M301,76L399,112L338,8Z" fill="#32743b" stroke="#32743b" stroke-width="1.51"></path><path d="M338,8L424,30L352,-60Z" fill="#418258" stroke="#418258" stroke-width="1.51"></path><path d="M342,193L399,112L301,76Z" fill="#2b6d2f" stroke="#2b6d2f" stroke-width="1.51"></path><path d="M209,206L342,193L301,76Z" fill="#2c6e30" stroke="#2c6e30" stroke-width="1.51"></path><path d="M60,71L80,211L164,81Z" fill="#3b7d47" stroke="#3b7d47" stroke-width="1.51"></path><path d="M181,272L257,246L209,206Z" fill="#2a6c2e" stroke="#2a6c2e" stroke-width="1.51"></path><path d="M209,206L257,246L342,193Z" fill="#296b2d" stroke="#296b2d" stroke-width="1.51"></path><path d="M181,272L209,206L168,194Z" fill="#2c6e30" stroke="#2c6e30" stroke-width="1.51"></path><path d="M-6,-33L60,71L74,21Z" fill="#539576" stroke="#539576" stroke-width="1.51"></path><path d="M60,71L0,111L80,211Z" fill="#438456" stroke="#438456" stroke-width="1.51"></path><path d="M399,112L424,30L338,8Z" fill="#347540" stroke="#347540" stroke-width="1.51"></path><path d="M87,-125L-6,-33L124,-78Z" fill="#60a699" stroke="#60a699" stroke-width="1.51"></path><path d="M424,30L404,-95L352,-60Z" fill="#468865" stroke="#468865" stroke-width="1.51"></path><path d="M352,-60L404,-95L234,-80Z" fill="#4f9278" stroke="#4f9278" stroke-width="1.51"></path><path d="M80,211L181,272L168,194Z" fill="#2e7134" stroke="#2e7134" stroke-width="1.51"></path><path d="M399,112L434,181L424,30Z" fill="#296c2e" stroke="#296c2e" stroke-width="1.51"></path><path d="M342,193L434,181L399,112Z" fill="#27692b" stroke="#27692b" stroke-width="1.51"></path><path d="M438,281L434,181L342,193Z" fill="#236628" stroke="#236628" stroke-width="1.51"></path><path d="M87,-125L-36,-101L-6,-33Z" fill="#68afad" stroke="#68afad" stroke-width="1.51"></path><path d="M-89,91L-56,161L0,111Z" fill="#509273" stroke="#509273" stroke-width="1.51"></path><path d="M181,272L339,276L257,246Z" fill="#27692b" stroke="#27692b" stroke-width="1.51"></path><path d="M257,246L339,276L342,193Z" fill="#26682b" stroke="#26682b" stroke-width="1.51"></path><path d="M80,211L41,265L181,272Z" fill="#34753f" stroke="#34753f" stroke-width="1.51"></path><path d="M-56,161L41,265L80,211Z" fill="#428359" stroke="#428359" stroke-width="1.51"></path><path d="M0,111L-56,161L80,211Z" fill="#468860" stroke="#468860" stroke-width="1.51"></path><path d="M-89,91L0,111L-6,-33Z" fill="#56997d" stroke="#56997d" stroke-width="1.51"></path><path d="M-147,5L-89,91L-6,-33Z" fill="#61a79c" stroke="#61a79c" stroke-width="1.51"></path><path d="M339,276L438,281L342,193Z" fill="#236528" stroke="#236528" stroke-width="1.51"></path><path d="M-23,299L438,281L339,276Z" fill="#26682a" stroke="#26682a" stroke-width="1.51"></path><path d="M-102,241L-23,299L-56,161Z" fill="#4c8e70" stroke="#4c8e70" stroke-width="1.51"></path><path d="M-56,161L-23,299L41,265Z" fill="#458661" stroke="#458661" stroke-width="1.51"></path><path d="M41,265L-23,299L181,272Z" fill="#387948" stroke="#387948" stroke-width="1.51"></path><path d="M181,272L-23,299L339,276Z" fill="#2a6c2e" stroke="#2a6c2e" stroke-width="1.51"></path><path d="M-89,91L-103,206L-56,161Z" fill="#53967b" stroke="#53967b" stroke-width="1.51"></path><path d="M-135,-93L-147,5L-6,-33Z" fill="#6cb7bc" stroke="#6cb7bc" stroke-width="1.51"></path><path d="M-89,91L-147,5L-103,206Z" fill="#599e88" stroke="#599e88" stroke-width="1.51"></path><path d="M-36,-101L-135,-93L-6,-33Z" fill="#6eb8bf" stroke="#6eb8bf" stroke-width="1.51"></path><path d="M87,-125L-135,-93L-36,-101Z" fill="#6fbac4" stroke="#6fbac4" stroke-width="1.51"></path><path d="M-147,5L-102,241L-103,206Z" fill="#579b86" stroke="#579b86" stroke-width="1.51"></path><path d="M-103,206L-102,241L-56,161Z" fill="#51947a" stroke="#51947a" stroke-width="1.51"></path></svg>