<svg width="300" height="176" xmlns="http://www.w3.org/2000/svg"><path d="M159,56L124,20L62,114Z" fill="#40824f" stroke="#40824f" stroke-width="1.51"></path><path d="M124,20L86,0L62,114Z" fill="#47895e" stroke="#47895e" stroke-width="1.51"></path><path d="M62,114L183,178L159,56Z" fill="#36783d" stroke="#36783d" stroke-width="1.51"></path><path d="M183,178L212,104L159,56Z" fill="#327537" stroke="#327537" stroke-width="1.51"></path><path d="M159,56L227,-34L124,20Z" fill="#448658" stroke="#448658" stroke-width="1.51"></path><path d="M71,171L183,178L62,114Z" fill="#397a43" stroke="#397a43" stroke-width="1.51"></path><path d="M62,114L-41,111L71,171Z" fill="#45875b" stroke="#45875b" stroke-width="1.51"></path><path d="M86,0L-41,111L62,114Z" fill="#498b61" stroke="#498b61" stroke-width="1.51"></path><path d="M212,104L227,-34L159,56Z" fill="#3e7f4b" stroke="#3e7f4b" stroke-width="1.51"></path><path d="M124,20L138,-106L86,0Z" fill="#529575" stroke="#529575" stroke-width="1.51"></path><path d="M71,171L146,295L183,178Z" fill="#317337" stroke="#317337" stroke-width="1.51"></path><path d="M-61,174L44,235L71,171Z" fill="#43855b" stroke="#43855b" stroke-width="1.51"></path><path d="M86,0L-45,-24L-41,111Z" fill="#569a7f" stroke="#569a7f" stroke-width="1.51"></path><path d="M30,-100L-45,-24L86,0Z" fill="#5fa597" stroke="#5fa597" stroke-width="1.51"></path><path d="M227,-34L138,-106L124,20Z" fill="#4f916f" stroke="#4f916f" stroke-width="1.51"></path><path d="M212,104L307,2L227,-34Z" fill="#3f8150" stroke="#3f8150" stroke-width="1.51"></path><path d="M183,178L233,207L212,104Z" fill="#2f7133" stroke="#2f7133" stroke-width="1.51"></path><path d="M146,295L233,207L183,178Z" fill="#2c6e30" stroke="#2c6e30" stroke-width="1.51"></path><path d="M138,-106L30,-100L86,0Z" fill="#5da290" stroke="#5da290" stroke-width="1.51"></path><path d="M-41,111L-61,174L71,171Z" fill="#4a8c66" stroke="#4a8c66" stroke-width="1.51"></path><path d="M-110,178L-61,174L-41,111Z" fill="#519478" stroke="#519478" stroke-width="1.51"></path><path d="M227,-34L229,-106L138,-106Z" fill="#55987f" stroke="#55987f" stroke-width="1.51"></path><path d="M321,73L307,2L212,104Z" fill="#367840" stroke="#367840" stroke-width="1.51"></path><path d="M353,173L321,73L212,104Z" fill="#2e7032" stroke="#2e7032" stroke-width="1.51"></path><path d="M-45,-24L-121,86L-41,111Z" fill="#5a9e88" stroke="#5a9e88" stroke-width="1.51"></path><path d="M30,-100L-52,-78L-45,-24Z" fill="#68b1b0" stroke="#68b1b0" stroke-width="1.51"></path><path d="M299,-95L229,-106L227,-34Z" fill="#52957b" stroke="#52957b" stroke-width="1.51"></path><path d="M44,235L146,295L71,171Z" fill="#377844" stroke="#377844" stroke-width="1.51"></path><path d="M-34,263L146,295L44,235Z" fill="#3b7c4d" stroke="#3b7c4d" stroke-width="1.51"></path><path d="M-103,-18L-121,86L-45,-24Z" fill="#63aaa1" stroke="#63aaa1" stroke-width="1.51"></path><path d="M-52,-78L-103,-18L-45,-24Z" fill="#69b2b2" stroke="#69b2b2" stroke-width="1.51"></path><path d="M-110,178L-34,263L-61,174Z" fill="#4e9074" stroke="#4e9074" stroke-width="1.51"></path><path d="M-61,174L-34,263L44,235Z" fill="#478863" stroke="#478863" stroke-width="1.51"></path><path d="M-121,86L-110,178L-41,111Z" fill="#559980" stroke="#559980" stroke-width="1.51"></path><path d="M233,207L353,173L212,104Z" fill="#2d6e30" stroke="#2d6e30" stroke-width="1.51"></path><path d="M146,295L222,299L233,207Z" fill="#296b2d" stroke="#296b2d" stroke-width="1.51"></path><path d="M307,2L299,-95L227,-34Z" fill="#4b8c6b" stroke="#4b8c6b" stroke-width="1.51"></path><path d="M394,-70L299,-95L307,2Z" fill="#4b8d6d" stroke="#4b8d6d" stroke-width="1.51"></path><path d="M-52,-78L-116,-69L-103,-18Z" fill="#6eb9c1" stroke="#6eb9c1" stroke-width="1.51"></path><path d="M-103,-18L-116,-69L-121,86Z" fill="#68b1b0" stroke="#68b1b0" stroke-width="1.51"></path><path d="M30,-100L-116,-69L-52,-78Z" fill="#6eb7be" stroke="#6eb7be" stroke-width="1.51"></path><path d="M340,283L353,173L233,207Z" fill="#276a2c" stroke="#276a2c" stroke-width="1.51"></path><path d="M321,73L400,5L307,2Z" fill="#3b7c4b" stroke="#3b7c4b" stroke-width="1.51"></path><path d="M419,91L400,5L321,73Z" fill="#33753d" stroke="#33753d" stroke-width="1.51"></path><path d="M-121,86L-135,267L-110,178Z" fill="#569a86" stroke="#569a86" stroke-width="1.51"></path><path d="M-110,178L-135,267L-34,263Z" fill="#4f9279" stroke="#4f9279" stroke-width="1.51"></path><path d="M-34,263L-135,267L146,295Z" fill="#43835d" stroke="#43835d" stroke-width="1.51"></path><path d="M-116,-69L-135,267L-121,86Z" fill="#5b9f8c" stroke="#5b9f8c" stroke-width="1.51"></path><path d="M353,173L419,91L321,73Z" fill="#2b6d2f" stroke="#2b6d2f" stroke-width="1.51"></path><path d="M222,299L340,283L233,207Z" fill="#27692b" stroke="#27692b" stroke-width="1.51"></path><path d="M447,191L419,91L353,173Z" fill="#276a2c" stroke="#276a2c" stroke-width="1.51"></path><path d="M400,5L394,-70L307,2Z" fill="#43845e" stroke="#43845e" stroke-width="1.51"></path><path d="M419,91L394,-70L400,5Z" fill="#3c7d50" stroke="#3c7d50" stroke-width="1.51"></path><path d="M340,283L402,240L353,173Z" fill="#256628" stroke="#256628" stroke-width="1.51"></path><path d="M402,240L447,191L353,173Z" fill="#256729" stroke="#256729" stroke-width="1.51"></path><path d="M419,91L447,191L394,-70Z" fill="#2f7036" stroke="#2f7036" stroke-width="1.51"></path></svg>