<svg width="300" height="176" xmlns="http://www.w3.org/2000/svg"><path d="M139,85L69,31L69,77Z" fill="#539577" stroke="#539577" stroke-width="1.51"></path><path d="M139,85L161,1L69,31Z" fill="#56997f" stroke="#56997f" stroke-width="1.51"></path><path d="M65,205L168,165L139,85Z" fill="#357640" stroke="#357640" stroke-width="1.51"></path><path d="M-12,18L-1,113L69,77Z" fill="#63aaa2" stroke="#63aaa2" stroke-width="1.51"></path><path d="M69,31L-12,18L69,77Z" fill="#69b1b1" stroke="#69b1b1" stroke-width="1.51"></path><path d="M-25,-74L-12,18L69,31Z" fill="#7ed2f7" stroke="#7ed2f7" stroke-width="1.51"></path><path d="M139,85L240,108L161,1Z" fill="#408150" stroke="#408150" stroke-width="1.51"></path><path d="M65,205L139,85L69,77Z" fill="#43855a" stroke="#43855a" stroke-width="1.51"></path><path d="M168,165L240,108L139,85Z" fill="#2e7032" stroke="#2e7032" stroke-width="1.51"></path><path d="M-1,113L-3,157L69,77Z" fill="#579b87" stroke="#579b87" stroke-width="1.51"></path><path d="M-125,178L-3,157L-1,113Z" fill="#589c8f" stroke="#589c8f" stroke-width="1.51"></path><path d="M-3,157L65,205L69,77Z" fill="#4d9074" stroke="#4d9074" stroke-width="1.51"></path><path d="M168,165L223,163L240,108Z" fill="#286a2c" stroke="#286a2c" stroke-width="1.51"></path><path d="M181,286L223,163L168,165Z" fill="#256729" stroke="#256729" stroke-width="1.51"></path><path d="M161,1L86,-106L69,31Z" fill="#6ab4b7" stroke="#6ab4b7" stroke-width="1.51"></path><path d="M156,-110L86,-106L161,1Z" fill="#63aba3" stroke="#63aba3" stroke-width="1.51"></path><path d="M240,108L267,3L161,1Z" fill="#4a8b69" stroke="#4a8b69" stroke-width="1.51"></path><path d="M265,-112L156,-110L161,1Z" fill="#5da295" stroke="#5da295" stroke-width="1.51"></path><path d="M-12,18L-128,81L-1,113Z" fill="#67afad" stroke="#67afad" stroke-width="1.51"></path><path d="M86,-106L-25,-74L69,31Z" fill="#78c8e1" stroke="#78c8e1" stroke-width="1.51"></path><path d="M65,205L181,286L168,165Z" fill="#2d6e34" stroke="#2d6e34" stroke-width="1.51"></path><path d="M-3,157L35,241L65,205Z" fill="#4c8e76" stroke="#4c8e76" stroke-width="1.51"></path><path d="M267,3L265,-112L161,1Z" fill="#599e91" stroke="#599e91" stroke-width="1.51"></path><path d="M240,108L335,83L267,3Z" fill="#387847" stroke="#387847" stroke-width="1.51"></path><path d="M267,3L296,-113L265,-112Z" fill="#569a8d" stroke="#569a8d" stroke-width="1.51"></path><path d="M362,169L335,83L240,108Z" fill="#246628" stroke="#246628" stroke-width="1.51"></path><path d="M-3,157L-38,244L35,241Z" fill="#54988a" stroke="#54988a" stroke-width="1.51"></path><path d="M-134,-25L-128,81L-12,18Z" fill="#78c8e2" stroke="#78c8e2" stroke-width="1.51"></path><path d="M-125,178L-38,244L-3,157Z" fill="#54988a" stroke="#54988a" stroke-width="1.51"></path><path d="M35,241L181,286L65,205Z" fill="#3b7b50" stroke="#3b7b50" stroke-width="1.51"></path><path d="M223,163L362,169L240,108Z" fill="#226427" stroke="#226427" stroke-width="1.51"></path><path d="M-38,244L181,286L35,241Z" fill="#458665" stroke="#458665" stroke-width="1.51"></path><path d="M335,83L343,-26L267,3Z" fill="#4c8e75" stroke="#4c8e75" stroke-width="1.51"></path><path d="M343,-26L296,-113L267,3Z" fill="#54988a" stroke="#54988a" stroke-width="1.51"></path><path d="M265,-112L296,-113L156,-110Z" fill="#599d91" stroke="#599d91" stroke-width="1.51"></path><path d="M-25,-74L-134,-25L-12,18Z" fill="#80d6ff" stroke="#80d6ff" stroke-width="1.51"></path><path d="M181,286L239,280L223,163Z" fill="#236527" stroke="#236527" stroke-width="1.51"></path><path d="M-125,269L-125,178L-128,81Z" fill="#54988a" stroke="#54988a" stroke-width="1.51"></path><path d="M-128,81L-125,178L-1,113Z" fill="#5ba093" stroke="#5ba093" stroke-width="1.51"></path><path d="M239,280L362,169L223,163Z" fill="#1e6022" stroke="#1e6022" stroke-width="1.51"></path><path d="M335,83L413,25L343,-26Z" fill="#488a6d" stroke="#488a6d" stroke-width="1.51"></path><path d="M156,-110L-131,-100L86,-106Z" fill="#79cae5" stroke="#79cae5" stroke-width="1.51"></path><path d="M86,-106L-131,-100L-25,-74Z" fill="#80d6ff" stroke="#80d6ff" stroke-width="1.51"></path><path d="M-25,-74L-131,-100L-134,-25Z" fill="#80d6ff" stroke="#80d6ff" stroke-width="1.51"></path><path d="M362,169L404,83L335,83Z" fill="#256729" stroke="#256729" stroke-width="1.51"></path><path d="M343,-26L443,-105L296,-113Z" fill="#54988a" stroke="#54988a" stroke-width="1.51"></path><path d="M404,83L413,25L335,83Z" fill="#377747" stroke="#377747" stroke-width="1.51"></path><path d="M421,291L443,-105L413,25Z" fill="#337440" stroke="#337440" stroke-width="1.51"></path><path d="M362,169L389,183L404,83Z" fill="#206225" stroke="#206225" stroke-width="1.51"></path><path d="M342,280L389,183L362,169Z" fill="#1b5e20" stroke="#1b5e20" stroke-width="1.51"></path><path d="M-125,178L-125,269L-38,244Z" fill="#54988a" stroke="#54988a" stroke-width="1.51"></path><path d="M-38,244L-125,269L181,286Z" fill="#539687" stroke="#539687" stroke-width="1.51"></path><path d="M-134,-25L-125,269L-128,81Z" fill="#5da396" stroke="#5da396" stroke-width="1.51"></path><path d="M239,280L342,280L362,169Z" fill="#1b5e20" stroke="#1b5e20" stroke-width="1.51"></path><path d="M421,291L342,280L239,280Z" fill="#1b5e20" stroke="#1b5e20" stroke-width="1.51"></path><path d="M413,25L443,-105L343,-26Z" fill="#54988a" stroke="#54988a" stroke-width="1.51"></path><path d="M421,291L413,25L404,83Z" fill="#226427" stroke="#226427" stroke-width="1.51"></path><path d="M389,183L421,291L404,83Z" fill="#1b5e20" stroke="#1b5e20" stroke-width="1.51"></path><path d="M342,280L421,291L389,183Z" fill="#1b5e20" stroke="#1b5e20" stroke-width="1.51"></path><path d="M181,286L421,291L239,280Z" fill="#1d5f22" stroke="#1d5f22" stroke-width="1.51"></path></svg>