<svg width="300" height="176" xmlns="http://www.w3.org/2000/svg"><path d="M-121,-61L-40,-76L55,-100Z" fill="#6cb5b9" stroke="#6cb5b9" stroke-width="1.51"></path><path d="M-1,270L-103,284L139,280Z" fill="#408058" stroke="#408058" stroke-width="1.51"></path><path d="M139,280L-103,284L350,286Z" fill="#2e6f35" stroke="#2e6f35" stroke-width="1.51"></path><path d="M426,149L351,182L430,267Z" fill="#256729" stroke="#256729" stroke-width="1.51"></path><path d="M352,-107L305,-31L438,25Z" fill="#478865" stroke="#478865" stroke-width="1.51"></path><path d="M387,78L426,149L438,25Z" fill="#2b6e30" stroke="#2b6e30" stroke-width="1.51"></path><path d="M426,149L430,267L438,25Z" fill="#26692b" stroke="#26692b" stroke-width="1.51"></path><path d="M128,-108L352,-107L449,-114Z" fill="#559986" stroke="#559986" stroke-width="1.51"></path><path d="M352,-107L438,25L449,-114Z" fill="#4a8b6e" stroke="#4a8b6e" stroke-width="1.51"></path><path d="M438,25L430,267L449,-114Z" fill="#30713a" stroke="#30713a" stroke-width="1.51"></path><path d="M351,182L350,286L430,267Z" fill="#236528" stroke="#236528" stroke-width="1.51"></path><path d="M305,-31L387,78L438,25Z" fill="#3a7b4b" stroke="#3a7b4b" stroke-width="1.51"></path><path d="M305,-31L307,62L387,78Z" fill="#397b48" stroke="#397b48" stroke-width="1.51"></path><path d="M387,78L351,182L426,149Z" fill="#296b2d" stroke="#296b2d" stroke-width="1.51"></path><path d="M128,-108L212,-60L352,-107Z" fill="#569982" stroke="#569982" stroke-width="1.51"></path><path d="M307,62L351,182L387,78Z" fill="#2c6f31" stroke="#2c6f31" stroke-width="1.51"></path><path d="M261,238L139,280L350,286Z" fill="#27692b" stroke="#27692b" stroke-width="1.51"></path><path d="M307,62L242,163L351,182Z" fill="#2d6e31" stroke="#2d6e31" stroke-width="1.51"></path><path d="M261,238L350,286L351,182Z" fill="#26682a" stroke="#26682a" stroke-width="1.51"></path><path d="M212,-60L305,-31L352,-107Z" fill="#4f9174" stroke="#4f9174" stroke-width="1.51"></path><path d="M242,163L261,238L351,182Z" fill="#2a6c2e" stroke="#2a6c2e" stroke-width="1.51"></path><path d="M212,-60L261,-26L305,-31Z" fill="#4b8d6a" stroke="#4b8d6a" stroke-width="1.51"></path><path d="M305,-31L261,-26L307,62Z" fill="#428358" stroke="#428358" stroke-width="1.51"></path><path d="M261,-26L227,79L307,62Z" fill="#3c7d49" stroke="#3c7d49" stroke-width="1.51"></path><path d="M227,79L242,163L307,62Z" fill="#307234" stroke="#307234" stroke-width="1.51"></path><path d="M158,7L227,79L261,-26Z" fill="#418354" stroke="#418354" stroke-width="1.51"></path><path d="M212,-60L158,7L261,-26Z" fill="#4b8d67" stroke="#4b8d67" stroke-width="1.51"></path><path d="M242,163L169,146L261,238Z" fill="#2d6f31" stroke="#2d6f31" stroke-width="1.51"></path><path d="M169,146L139,280L261,238Z" fill="#2c6e31" stroke="#2c6e31" stroke-width="1.51"></path><path d="M161,96L169,146L227,79Z" fill="#337537" stroke="#337537" stroke-width="1.51"></path><path d="M227,79L169,146L242,163Z" fill="#307335" stroke="#307335" stroke-width="1.51"></path><path d="M158,7L161,96L227,79Z" fill="#3a7c44" stroke="#3a7c44" stroke-width="1.51"></path><path d="M128,-108L158,7L212,-60Z" fill="#519475" stroke="#519475" stroke-width="1.51"></path><path d="M88,260L-1,270L139,280Z" fill="#377845" stroke="#377845" stroke-width="1.51"></path><path d="M128,-108L90,-13L158,7Z" fill="#529576" stroke="#529576" stroke-width="1.51"></path><path d="M158,7L90,-13L161,96Z" fill="#438556" stroke="#438556" stroke-width="1.51"></path><path d="M88,260L139,280L169,146Z" fill="#307237" stroke="#307237" stroke-width="1.51"></path><path d="M161,96L37,165L169,146Z" fill="#37793f" stroke="#37793f" stroke-width="1.51"></path><path d="M37,165L88,260L169,146Z" fill="#387943" stroke="#387943" stroke-width="1.51"></path><path d="M90,-13L28,100L161,96Z" fill="#448556" stroke="#448556" stroke-width="1.51"></path><path d="M28,100L37,165L161,96Z" fill="#3f804e" stroke="#3f804e" stroke-width="1.51"></path><path d="M55,-100L90,-13L128,-108Z" fill="#5da290" stroke="#5da290" stroke-width="1.51"></path><path d="M-3,20L-8,61L28,100Z" fill="#509271" stroke="#509271" stroke-width="1.51"></path><path d="M37,165L-1,270L88,260Z" fill="#3e7f52" stroke="#3e7f52" stroke-width="1.51"></path><path d="M55,-100L-3,20L90,-13Z" fill="#5b9f8b" stroke="#5b9f8b" stroke-width="1.51"></path><path d="M-3,20L28,100L90,-13Z" fill="#509271" stroke="#509271" stroke-width="1.51"></path><path d="M-43,189L-1,270L37,165Z" fill="#468760" stroke="#468760" stroke-width="1.51"></path><path d="M-40,-76L-3,20L55,-100Z" fill="#63a9a1" stroke="#63a9a1" stroke-width="1.51"></path><path d="M28,100L-43,189L37,165Z" fill="#478961" stroke="#478961" stroke-width="1.51"></path><path d="M-8,61L-43,189L28,100Z" fill="#4b8d67" stroke="#4b8d67" stroke-width="1.51"></path><path d="M-114,76L-43,189L-8,61Z" fill="#529476" stroke="#529476" stroke-width="1.51"></path><path d="M-40,-76L-106,-15L-3,20Z" fill="#65aca6" stroke="#65aca6" stroke-width="1.51"></path><path d="M-43,189L-103,284L-1,270Z" fill="#498b6c" stroke="#498b6c" stroke-width="1.51"></path><path d="M-106,-15L-114,76L-8,61Z" fill="#5da392" stroke="#5da392" stroke-width="1.51"></path><path d="M-106,-15L-8,61L-3,20Z" fill="#5ca18f" stroke="#5ca18f" stroke-width="1.51"></path><path d="M-114,76L-110,187L-43,189Z" fill="#54977e" stroke="#54977e" stroke-width="1.51"></path><path d="M-110,187L-103,284L-43,189Z" fill="#509278" stroke="#509278" stroke-width="1.51"></path><path d="M-121,-61L-106,-15L-40,-76Z" fill="#6db8be" stroke="#6db8be" stroke-width="1.51"></path><path d="M-121,-61L-114,76L-106,-15Z" fill="#68b1b0" stroke="#68b1b0" stroke-width="1.51"></path></svg>