<svg width="300" height="176" xmlns="http://www.w3.org/2000/svg"><path d="M148,78L182,148L251,68Z" fill="#337537" stroke="#337537" stroke-width="1.51"></path><path d="M251,68L247,25L148,78Z" fill="#3a7b45" stroke="#3a7b45" stroke-width="1.51"></path><path d="M247,25L170,-12L148,78Z" fill="#408250" stroke="#408250" stroke-width="1.51"></path><path d="M182,148L316,147L251,68Z" fill="#2f7234" stroke="#2f7234" stroke-width="1.51"></path><path d="M241,209L316,147L182,148Z" fill="#2d6f31" stroke="#2d6f31" stroke-width="1.51"></path><path d="M251,68L355,69L247,25Z" fill="#377942" stroke="#377942" stroke-width="1.51"></path><path d="M148,78L60,145L182,148Z" fill="#36793e" stroke="#36793e" stroke-width="1.51"></path><path d="M116,257L244,243L241,209Z" fill="#2b6d2f" stroke="#2b6d2f" stroke-width="1.51"></path><path d="M53,117L60,145L148,78Z" fill="#3d7f4b" stroke="#3d7f4b" stroke-width="1.51"></path><path d="M54,-23L53,117L148,78Z" fill="#46875a" stroke="#46875a" stroke-width="1.51"></path><path d="M241,209L244,243L316,147Z" fill="#2a6c2e" stroke="#2a6c2e" stroke-width="1.51"></path><path d="M116,257L241,209L182,148Z" fill="#2e7032" stroke="#2e7032" stroke-width="1.51"></path><path d="M247,25L255,-125L170,-12Z" fill="#4c8e6b" stroke="#4c8e6b" stroke-width="1.51"></path><path d="M316,147L355,69L251,68Z" fill="#2e7133" stroke="#2e7133" stroke-width="1.51"></path><path d="M355,69L328,-17L247,25Z" fill="#3d7e4d" stroke="#3d7e4d" stroke-width="1.51"></path><path d="M170,-12L54,-23L148,78Z" fill="#488a60" stroke="#488a60" stroke-width="1.51"></path><path d="M255,-125L128,-72L170,-12Z" fill="#53967a" stroke="#53967a" stroke-width="1.51"></path><path d="M60,145L116,257L182,148Z" fill="#35773d" stroke="#35773d" stroke-width="1.51"></path><path d="M128,-72L54,-23L170,-12Z" fill="#539677" stroke="#539677" stroke-width="1.51"></path><path d="M60,145L87,293L116,257Z" fill="#377844" stroke="#377844" stroke-width="1.51"></path><path d="M53,117L-4,149L60,145Z" fill="#448559" stroke="#448559" stroke-width="1.51"></path><path d="M-51,102L-4,149L53,117Z" fill="#498c65" stroke="#498c65" stroke-width="1.51"></path><path d="M316,147L416,147L355,69Z" fill="#2b6d2f" stroke="#2b6d2f" stroke-width="1.51"></path><path d="M355,69L435,-23L328,-17Z" fill="#3d7f52" stroke="#3d7f52" stroke-width="1.51"></path><path d="M354,287L416,147L316,147Z" fill="#27692b" stroke="#27692b" stroke-width="1.51"></path><path d="M255,-125L93,-99L128,-72Z" fill="#599d88" stroke="#599d88" stroke-width="1.51"></path><path d="M128,-72L93,-99L54,-23Z" fill="#5ba08c" stroke="#5ba08c" stroke-width="1.51"></path><path d="M328,-17L255,-125L247,25Z" fill="#4b8c69" stroke="#4b8c69" stroke-width="1.51"></path><path d="M-49,248L87,293L60,145Z" fill="#3f8155" stroke="#3f8155" stroke-width="1.51"></path><path d="M116,257L87,293L244,243Z" fill="#2b6e30" stroke="#2b6e30" stroke-width="1.51"></path><path d="M435,-63L300,-118L328,-17Z" fill="#4d8e71" stroke="#4d8e71" stroke-width="1.51"></path><path d="M328,-17L300,-118L255,-125Z" fill="#52957d" stroke="#52957d" stroke-width="1.51"></path><path d="M416,147L443,87L355,69Z" fill="#2a6c2e" stroke="#2a6c2e" stroke-width="1.51"></path><path d="M416,147L434,299L443,87Z" fill="#256729" stroke="#256729" stroke-width="1.51"></path><path d="M244,243L354,287L316,147Z" fill="#27692b" stroke="#27692b" stroke-width="1.51"></path><path d="M87,293L354,287L244,243Z" fill="#28692b" stroke="#28692b" stroke-width="1.51"></path><path d="M-41,-7L53,117L54,-23Z" fill="#539679" stroke="#539679" stroke-width="1.51"></path><path d="M-41,-7L-51,102L53,117Z" fill="#509371" stroke="#509371" stroke-width="1.51"></path><path d="M-4,149L-49,248L60,145Z" fill="#468860" stroke="#468860" stroke-width="1.51"></path><path d="M443,87L435,-23L355,69Z" fill="#357641" stroke="#357641" stroke-width="1.51"></path><path d="M-4,-125L-41,-7L54,-23Z" fill="#64aaa1" stroke="#64aaa1" stroke-width="1.51"></path><path d="M443,87L435,-63L435,-23Z" fill="#3d7d52" stroke="#3d7d52" stroke-width="1.51"></path><path d="M435,-23L435,-63L328,-17Z" fill="#458662" stroke="#458662" stroke-width="1.51"></path><path d="M-108,210L-49,248L-4,149Z" fill="#4c8f70" stroke="#4c8f70" stroke-width="1.51"></path><path d="M93,-99L-4,-125L54,-23Z" fill="#63aaa1" stroke="#63aaa1" stroke-width="1.51"></path><path d="M255,-125L-4,-125L93,-99Z" fill="#61a79b" stroke="#61a79b" stroke-width="1.51"></path><path d="M354,287L434,299L416,147Z" fill="#226427" stroke="#226427" stroke-width="1.51"></path><path d="M87,293L434,299L354,287Z" fill="#246628" stroke="#246628" stroke-width="1.51"></path><path d="M-120,-27L-120,93L-41,-7Z" fill="#63aaa1" stroke="#63aaa1" stroke-width="1.51"></path><path d="M-41,-7L-120,93L-51,102Z" fill="#599d87" stroke="#599d87" stroke-width="1.51"></path><path d="M-51,102L-108,210L-4,149Z" fill="#4f9173" stroke="#4f9173" stroke-width="1.51"></path><path d="M-120,93L-108,210L-51,102Z" fill="#559880" stroke="#559880" stroke-width="1.51"></path><path d="M-94,-111L-120,-27L-41,-7Z" fill="#6db6bc" stroke="#6db6bc" stroke-width="1.51"></path><path d="M-4,-125L-94,-111L-41,-7Z" fill="#6db8be" stroke="#6db8be" stroke-width="1.51"></path><path d="M-108,210L-141,282L-49,248Z" fill="#50937b" stroke="#50937b" stroke-width="1.51"></path><path d="M-49,248L-141,282L87,293Z" fill="#468765" stroke="#468765" stroke-width="1.51"></path><path d="M-120,93L-141,282L-108,210Z" fill="#559985" stroke="#559985" stroke-width="1.51"></path><path d="M-120,-27L-141,282L-120,93Z" fill="#5a9f8c" stroke="#5a9f8c" stroke-width="1.51"></path></svg>