<svg width="300" height="176" xmlns="http://www.w3.org/2000/svg"><path d="M156,79L92,149L178,160Z" fill="#34763a" stroke="#34763a" stroke-width="1.51"></path><path d="M156,79L39,114L92,149Z" fill="#3c7e49" stroke="#3c7e49" stroke-width="1.51"></path><path d="M178,160L250,119L156,79Z" fill="#327436" stroke="#327436" stroke-width="1.51"></path><path d="M241,161L250,119L178,160Z" fill="#2f7133" stroke="#2f7133" stroke-width="1.51"></path><path d="M156,79L88,-3L39,114Z" fill="#438555" stroke="#438555" stroke-width="1.51"></path><path d="M261,-3L174,-7L156,79Z" fill="#418353" stroke="#418353" stroke-width="1.51"></path><path d="M174,-7L88,-3L156,79Z" fill="#458658" stroke="#458658" stroke-width="1.51"></path><path d="M89,275L163,277L178,160Z" fill="#2e7033" stroke="#2e7033" stroke-width="1.51"></path><path d="M178,160L163,277L241,161Z" fill="#2e6f31" stroke="#2e6f31" stroke-width="1.51"></path><path d="M89,275L178,160L92,149Z" fill="#34763d" stroke="#34763d" stroke-width="1.51"></path><path d="M-12,249L89,275L92,149Z" fill="#3c7d4e" stroke="#3c7d4e" stroke-width="1.51"></path><path d="M250,119L261,-3L156,79Z" fill="#377941" stroke="#377941" stroke-width="1.51"></path><path d="M39,114L-37,188L92,149Z" fill="#44855a" stroke="#44855a" stroke-width="1.51"></path><path d="M-21,6L-41,89L39,114Z" fill="#509270" stroke="#509270" stroke-width="1.51"></path><path d="M89,275L215,296L163,277Z" fill="#2a6c2e" stroke="#2a6c2e" stroke-width="1.51"></path><path d="M163,277L215,296L241,161Z" fill="#2a6c2e" stroke="#2a6c2e" stroke-width="1.51"></path><path d="M339,198L340,60L250,119Z" fill="#2d6f31" stroke="#2d6f31" stroke-width="1.51"></path><path d="M-41,89L-37,188L39,114Z" fill="#4b8d68" stroke="#4b8d68" stroke-width="1.51"></path><path d="M88,-3L-21,6L39,114Z" fill="#509271" stroke="#509271" stroke-width="1.51"></path><path d="M174,-7L154,-60L88,-3Z" fill="#4e906c" stroke="#4e906c" stroke-width="1.51"></path><path d="M253,-69L154,-60L174,-7Z" fill="#4f916f" stroke="#4f916f" stroke-width="1.51"></path><path d="M-37,188L-12,249L92,149Z" fill="#44855c" stroke="#44855c" stroke-width="1.51"></path><path d="M26,-105L-21,6L88,-3Z" fill="#5da291" stroke="#5da291" stroke-width="1.51"></path><path d="M339,198L250,119L241,161Z" fill="#2c6e30" stroke="#2c6e30" stroke-width="1.51"></path><path d="M250,119L340,60L261,-3Z" fill="#367840" stroke="#367840" stroke-width="1.51"></path><path d="M321,256L339,198L241,161Z" fill="#296a2d" stroke="#296a2d" stroke-width="1.51"></path><path d="M340,60L298,-21L261,-3Z" fill="#408154" stroke="#408154" stroke-width="1.51"></path><path d="M261,-3L253,-69L174,-7Z" fill="#4a8c66" stroke="#4a8c66" stroke-width="1.51"></path><path d="M215,296L321,256L241,161Z" fill="#286b2d" stroke="#286b2d" stroke-width="1.51"></path><path d="M298,-21L253,-69L261,-3Z" fill="#498b67" stroke="#498b67" stroke-width="1.51"></path><path d="M-148,-18L-114,117L-41,89Z" fill="#5da190" stroke="#5da190" stroke-width="1.51"></path><path d="M-41,89L-114,117L-37,188Z" fill="#519477" stroke="#519477" stroke-width="1.51"></path><path d="M-37,188L-105,210L-12,249Z" fill="#4c8d6e" stroke="#4c8d6e" stroke-width="1.51"></path><path d="M450,262L393,157L339,198Z" fill="#256729" stroke="#256729" stroke-width="1.51"></path><path d="M339,198L393,157L340,60Z" fill="#2a6c2e" stroke="#2a6c2e" stroke-width="1.51"></path><path d="M419,-19L357,-90L298,-21Z" fill="#488a68" stroke="#488a68" stroke-width="1.51"></path><path d="M-114,117L-105,210L-37,188Z" fill="#52957b" stroke="#52957b" stroke-width="1.51"></path><path d="M154,-60L26,-105L88,-3Z" fill="#5a9e89" stroke="#5a9e89" stroke-width="1.51"></path><path d="M-21,6L-148,-18L-41,89Z" fill="#5fa597" stroke="#5fa597" stroke-width="1.51"></path><path d="M253,-69L26,-105L154,-60Z" fill="#579b81" stroke="#579b81" stroke-width="1.51"></path><path d="M26,-105L-42,-78L-21,6Z" fill="#66ada9" stroke="#66ada9" stroke-width="1.51"></path><path d="M393,157L434,90L340,60Z" fill="#2b6d2f" stroke="#2b6d2f" stroke-width="1.51"></path><path d="M298,-21L357,-90L253,-69Z" fill="#4d8f71" stroke="#4d8f71" stroke-width="1.51"></path><path d="M419,-19L298,-21L340,60Z" fill="#3f8053" stroke="#3f8053" stroke-width="1.51"></path><path d="M253,-69L357,-90L26,-105Z" fill="#559981" stroke="#559981" stroke-width="1.51"></path><path d="M434,90L419,-19L340,60Z" fill="#357642" stroke="#357642" stroke-width="1.51"></path><path d="M-105,210L-131,295L-12,249Z" fill="#4d9075" stroke="#4d9075" stroke-width="1.51"></path><path d="M-12,249L-131,295L89,275Z" fill="#448561" stroke="#448561" stroke-width="1.51"></path><path d="M89,275L-131,295L215,296Z" fill="#397a4a" stroke="#397a4a" stroke-width="1.51"></path><path d="M-114,117L-131,295L-105,210Z" fill="#549782" stroke="#549782" stroke-width="1.51"></path><path d="M-114,117L-148,-18L-131,295Z" fill="#5a9e8c" stroke="#5a9e8c" stroke-width="1.51"></path><path d="M-42,-78L-148,-18L-21,6Z" fill="#68b0af" stroke="#68b0af" stroke-width="1.51"></path><path d="M393,157L450,262L434,90Z" fill="#25672a" stroke="#25672a" stroke-width="1.51"></path><path d="M321,256L450,262L339,198Z" fill="#246629" stroke="#246629" stroke-width="1.51"></path><path d="M215,296L450,262L321,256Z" fill="#246628" stroke="#246628" stroke-width="1.51"></path><path d="M419,-19L395,-97L357,-90Z" fill="#4c8d71" stroke="#4c8d71" stroke-width="1.51"></path><path d="M357,-90L395,-97L26,-105Z" fill="#559983" stroke="#559983" stroke-width="1.51"></path><path d="M-42,-78L-135,-76L-148,-18Z" fill="#70bcc7" stroke="#70bcc7" stroke-width="1.51"></path><path d="M26,-105L-135,-76L-42,-78Z" fill="#6fb9c2" stroke="#6fb9c2" stroke-width="1.51"></path></svg>