<svg width="300" height="176" xmlns="http://www.w3.org/2000/svg"><path d="M-57,-89L78,-81L258,-110Z" fill="#66a96a" stroke="#66a96a" stroke-width="1.51"></path><path d="M217,274L40,296L427,275Z" fill="#27692c" stroke="#27692c" stroke-width="1.51"></path><path d="M348,240L217,274L427,275Z" fill="#246628" stroke="#246628" stroke-width="1.51"></path><path d="M423,189L348,240L427,275Z" fill="#236527" stroke="#236527" stroke-width="1.51"></path><path d="M406,16L328,86L428,72Z" fill="#327436" stroke="#327436" stroke-width="1.51"></path><path d="M328,86L363,163L428,72Z" fill="#2b6d30" stroke="#2b6d30" stroke-width="1.51"></path><path d="M387,-86L406,16L428,72Z" fill="#3f8042" stroke="#3f8042" stroke-width="1.51"></path><path d="M363,163L423,189L428,72Z" fill="#286a2c" stroke="#286a2c" stroke-width="1.51"></path><path d="M423,189L427,275L428,72Z" fill="#256729" stroke="#256729" stroke-width="1.51"></path><path d="M387,-86L310,-6L406,16Z" fill="#458749" stroke="#458749" stroke-width="1.51"></path><path d="M363,163L348,240L423,189Z" fill="#26682a" stroke="#26682a" stroke-width="1.51"></path><path d="M310,-6L328,86L406,16Z" fill="#3a7c3e" stroke="#3a7c3e" stroke-width="1.51"></path><path d="M334,-102L310,-6L387,-86Z" fill="#4f9152" stroke="#4f9152" stroke-width="1.51"></path><path d="M215,147L348,240L363,163Z" fill="#296c2e" stroke="#296c2e" stroke-width="1.51"></path><path d="M246,113L215,147L363,163Z" fill="#2d7032" stroke="#2d7032" stroke-width="1.51"></path><path d="M328,86L246,113L363,163Z" fill="#2d6f31" stroke="#2d6f31" stroke-width="1.51"></path><path d="M310,-6L272,19L328,86Z" fill="#3c7d3f" stroke="#3c7d3f" stroke-width="1.51"></path><path d="M258,-110L310,-6L334,-102Z" fill="#539456" stroke="#539456" stroke-width="1.51"></path><path d="M215,147L217,274L348,240Z" fill="#296c2e" stroke="#296c2e" stroke-width="1.51"></path><path d="M78,-81L144,-72L258,-110Z" fill="#5b9e5f" stroke="#5b9e5f" stroke-width="1.51"></path><path d="M272,19L246,113L328,86Z" fill="#337637" stroke="#337637" stroke-width="1.51"></path><path d="M258,-110L272,19L310,-6Z" fill="#4b8c4e" stroke="#4b8c4e" stroke-width="1.51"></path><path d="M215,147L151,238L217,274Z" fill="#2c6e30" stroke="#2c6e30" stroke-width="1.51"></path><path d="M138,21L246,113L272,19Z" fill="#3b7d3f" stroke="#3b7d3f" stroke-width="1.51"></path><path d="M258,-110L144,-72L272,19Z" fill="#529455" stroke="#529455" stroke-width="1.51"></path><path d="M144,-72L138,21L272,19Z" fill="#4a8c4e" stroke="#4a8c4e" stroke-width="1.51"></path><path d="M138,21L125,82L246,113Z" fill="#387a3c" stroke="#387a3c" stroke-width="1.51"></path><path d="M125,82L215,147L246,113Z" fill="#327436" stroke="#327436" stroke-width="1.51"></path><path d="M133,200L151,238L215,147Z" fill="#2f7133" stroke="#2f7133" stroke-width="1.51"></path><path d="M151,238L40,296L217,274Z" fill="#2d6f31" stroke="#2d6f31" stroke-width="1.51"></path><path d="M125,82L133,200L215,147Z" fill="#327436" stroke="#327436" stroke-width="1.51"></path><path d="M125,82L43,89L133,200Z" fill="#3b7d3f" stroke="#3b7d3f" stroke-width="1.51"></path><path d="M43,89L42,199L133,200Z" fill="#3e7f41" stroke="#3e7f41" stroke-width="1.51"></path><path d="M78,-81L40,1L138,21Z" fill="#57995b" stroke="#57995b" stroke-width="1.51"></path><path d="M78,-81L138,21L144,-72Z" fill="#57995b" stroke="#57995b" stroke-width="1.51"></path><path d="M133,200L42,199L151,238Z" fill="#357739" stroke="#357739" stroke-width="1.51"></path><path d="M42,199L40,296L151,238Z" fill="#387a3c" stroke="#387a3c" stroke-width="1.51"></path><path d="M40,1L43,89L125,82Z" fill="#498b4d" stroke="#498b4d" stroke-width="1.51"></path><path d="M40,1L125,82L138,21Z" fill="#498b4d" stroke="#498b4d" stroke-width="1.51"></path><path d="M-61,240L-105,238L40,296Z" fill="#4a8b4d" stroke="#4a8b4d" stroke-width="1.51"></path><path d="M40,1L-3,64L43,89Z" fill="#519355" stroke="#519355" stroke-width="1.51"></path><path d="M-23,-6L40,1L78,-81Z" fill="#62a465" stroke="#62a465" stroke-width="1.51"></path><path d="M-57,-89L-23,-6L78,-81Z" fill="#6db071" stroke="#6db071" stroke-width="1.51"></path><path d="M-23,-6L-3,64L40,1Z" fill="#5b9d5f" stroke="#5b9d5f" stroke-width="1.51"></path><path d="M-61,240L40,296L42,199Z" fill="#438546" stroke="#438546" stroke-width="1.51"></path><path d="M-57,184L-61,240L42,199Z" fill="#4b8c4e" stroke="#4b8c4e" stroke-width="1.51"></path><path d="M-57,184L42,199L43,89Z" fill="#488a4b" stroke="#488a4b" stroke-width="1.51"></path><path d="M-3,64L-57,184L43,89Z" fill="#4c8f50" stroke="#4c8f50" stroke-width="1.51"></path><path d="M-23,-6L-95,74L-3,64Z" fill="#5d9f61" stroke="#5d9f61" stroke-width="1.51"></path><path d="M-95,74L-57,184L-3,64Z" fill="#549658" stroke="#549658" stroke-width="1.51"></path><path d="M-57,-89L-146,-28L-23,-6Z" fill="#75b879" stroke="#75b879" stroke-width="1.51"></path><path d="M-146,-28L-95,74L-23,-6Z" fill="#6bad6f" stroke="#6bad6f" stroke-width="1.51"></path><path d="M-95,74L-145,190L-57,184Z" fill="#599b5d" stroke="#599b5d" stroke-width="1.51"></path><path d="M-105,238L-61,240L-57,184Z" fill="#519355" stroke="#519355" stroke-width="1.51"></path><path d="M-145,190L-105,238L-57,184Z" fill="#57985a" stroke="#57985a" stroke-width="1.51"></path><path d="M-153,-71L-146,-28L-57,-89Z" fill="#81c485" stroke="#81c485" stroke-width="1.51"></path><path d="M-146,-28L-145,190L-95,74Z" fill="#63a667" stroke="#63a667" stroke-width="1.51"></path><path d="M-146,-28L-153,-71L-145,190Z" fill="#71b375" stroke="#71b375" stroke-width="1.51"></path></svg>