<svg width="300" height="176" xmlns="http://www.w3.org/2000/svg"><path d="M-115,-106L27,-68L242,-96Z" fill="#64aba3" stroke="#64aba3" stroke-width="1.51"></path><path d="M-115,-106L242,-96L299,-111Z" fill="#5ca08e" stroke="#5ca08e" stroke-width="1.51"></path><path d="M439,206L329,300L441,283Z" fill="#216326" stroke="#216326" stroke-width="1.51"></path><path d="M435,-25L362,-25L450,108Z" fill="#3a7b4b" stroke="#3a7b4b" stroke-width="1.51"></path><path d="M362,-25L299,98L450,108Z" fill="#33743c" stroke="#33743c" stroke-width="1.51"></path><path d="M335,179L439,206L450,108Z" fill="#26692b" stroke="#26692b" stroke-width="1.51"></path><path d="M299,98L335,179L450,108Z" fill="#2b6c2f" stroke="#2b6c2f" stroke-width="1.51"></path><path d="M439,206L441,283L450,108Z" fill="#236527" stroke="#236527" stroke-width="1.51"></path><path d="M426,-96L362,-25L435,-25Z" fill="#478968" stroke="#478968" stroke-width="1.51"></path><path d="M335,179L329,300L439,206Z" fill="#246729" stroke="#246729" stroke-width="1.51"></path><path d="M299,-111L362,-25L426,-96Z" fill="#4e9076" stroke="#4e9076" stroke-width="1.51"></path><path d="M27,-68L167,-66L242,-96Z" fill="#579a80" stroke="#579a80" stroke-width="1.51"></path><path d="M181,246L72,298L329,300Z" fill="#296b2d" stroke="#296b2d" stroke-width="1.51"></path><path d="M265,246L329,300L335,179Z" fill="#26682a" stroke="#26682a" stroke-width="1.51"></path><path d="M234,69L299,98L362,-25Z" fill="#387a45" stroke="#387a45" stroke-width="1.51"></path><path d="M214,17L234,69L362,-25Z" fill="#3f8051" stroke="#3f8051" stroke-width="1.51"></path><path d="M299,-111L242,-96L362,-25Z" fill="#509378" stroke="#509378" stroke-width="1.51"></path><path d="M242,-96L214,17L362,-25Z" fill="#498b68" stroke="#498b68" stroke-width="1.51"></path><path d="M265,246L181,246L329,300Z" fill="#27692b" stroke="#27692b" stroke-width="1.51"></path><path d="M299,98L250,165L335,179Z" fill="#2c6e30" stroke="#2c6e30" stroke-width="1.51"></path><path d="M250,165L265,246L335,179Z" fill="#2a6c2e" stroke="#2a6c2e" stroke-width="1.51"></path><path d="M234,69L250,165L299,98Z" fill="#2f7234" stroke="#2f7234" stroke-width="1.51"></path><path d="M179,-5L214,17L242,-96Z" fill="#4b8d68" stroke="#4b8d68" stroke-width="1.51"></path><path d="M167,-66L179,-5L242,-96Z" fill="#509374" stroke="#509374" stroke-width="1.51"></path><path d="M234,69L179,79L250,165Z" fill="#317436" stroke="#317436" stroke-width="1.51"></path><path d="M250,165L180,192L265,246Z" fill="#2c6e30" stroke="#2c6e30" stroke-width="1.51"></path><path d="M180,192L181,246L265,246Z" fill="#2b6d2f" stroke="#2b6d2f" stroke-width="1.51"></path><path d="M179,79L180,192L250,165Z" fill="#307234" stroke="#307234" stroke-width="1.51"></path><path d="M-115,-106L-39,-73L27,-68Z" fill="#6db7bd" stroke="#6db7bd" stroke-width="1.51"></path><path d="M214,17L179,79L234,69Z" fill="#3a7c45" stroke="#3a7c45" stroke-width="1.51"></path><path d="M179,-5L179,79L214,17Z" fill="#408250" stroke="#408250" stroke-width="1.51"></path><path d="M167,-66L36,-9L179,-5Z" fill="#509271" stroke="#509271" stroke-width="1.51"></path><path d="M36,-9L36,64L179,-5Z" fill="#4e906b" stroke="#4e906b" stroke-width="1.51"></path><path d="M179,-5L36,64L179,79Z" fill="#418351" stroke="#418351" stroke-width="1.51"></path><path d="M36,64L84,191L179,79Z" fill="#3c7d48" stroke="#3c7d48" stroke-width="1.51"></path><path d="M179,79L84,191L180,192Z" fill="#327436" stroke="#327436" stroke-width="1.51"></path><path d="M180,192L84,191L181,246Z" fill="#2f7133" stroke="#2f7133" stroke-width="1.51"></path><path d="M84,191L72,298L181,246Z" fill="#33743c" stroke="#33743c" stroke-width="1.51"></path><path d="M27,-68L36,-9L167,-66Z" fill="#5a9e89" stroke="#5a9e89" stroke-width="1.51"></path><path d="M-19,240L-146,285L72,298Z" fill="#468764" stroke="#468764" stroke-width="1.51"></path><path d="M36,64L-24,170L84,191Z" fill="#44865a" stroke="#44865a" stroke-width="1.51"></path><path d="M-19,240L72,298L84,191Z" fill="#3d7e50" stroke="#3d7e50" stroke-width="1.51"></path><path d="M-24,170L-19,240L84,191Z" fill="#43855c" stroke="#43855c" stroke-width="1.51"></path><path d="M27,-68L-12,-9L36,-9Z" fill="#5ea393" stroke="#5ea393" stroke-width="1.51"></path><path d="M36,-9L-12,-9L36,64Z" fill="#56997f" stroke="#56997f" stroke-width="1.51"></path><path d="M-12,-9L-39,62L36,64Z" fill="#55987d" stroke="#55987d" stroke-width="1.51"></path><path d="M-39,62L-24,170L36,64Z" fill="#4c8e69" stroke="#4c8e69" stroke-width="1.51"></path><path d="M-39,-73L-12,-9L27,-68Z" fill="#64aba4" stroke="#64aba4" stroke-width="1.51"></path><path d="M-39,62L-124,73L-24,170Z" fill="#539579" stroke="#539579" stroke-width="1.51"></path><path d="M-124,73L-113,180L-24,170Z" fill="#54977e" stroke="#54977e" stroke-width="1.51"></path><path d="M-24,170L-113,180L-19,240Z" fill="#4d8e6f" stroke="#4d8e6f" stroke-width="1.51"></path><path d="M-112,-13L-39,62L-12,-9Z" fill="#5fa597" stroke="#5fa597" stroke-width="1.51"></path><path d="M-39,-73L-112,-13L-12,-9Z" fill="#66aeab" stroke="#66aeab" stroke-width="1.51"></path><path d="M-113,180L-146,285L-19,240Z" fill="#4f9279" stroke="#4f9279" stroke-width="1.51"></path><path d="M-115,-106L-112,-13L-39,-73Z" fill="#6fbac4" stroke="#6fbac4" stroke-width="1.51"></path><path d="M-112,-13L-124,73L-39,62Z" fill="#5fa597" stroke="#5fa597" stroke-width="1.51"></path><path d="M-124,73L-146,285L-113,180Z" fill="#579a87" stroke="#579a87" stroke-width="1.51"></path><path d="M-115,-106L-124,73L-112,-13Z" fill="#6bb4b7" stroke="#6bb4b7" stroke-width="1.51"></path><path d="M-146,285L-124,73L-115,-106Z" fill="#5ca28f" stroke="#5ca28f" stroke-width="1.51"></path></svg>