<svg width="300" height="176" xmlns="http://www.w3.org/2000/svg"><path d="M-132,-84L51,-101L122,-122Z" fill="#75b779" stroke="#75b779" stroke-width="1.51"></path><path d="M122,-122L258,-99L339,-88Z" fill="#5c9d60" stroke="#5c9d60" stroke-width="1.51"></path><path d="M399,-33L332,19L417,114Z" fill="#387a3c" stroke="#387a3c" stroke-width="1.51"></path><path d="M332,19L328,101L417,114Z" fill="#2f7133" stroke="#2f7133" stroke-width="1.51"></path><path d="M413,-65L399,-33L417,114Z" fill="#3e7e41" stroke="#3e7e41" stroke-width="1.51"></path><path d="M298,254L219,256L441,276Z" fill="#246729" stroke="#246729" stroke-width="1.51"></path><path d="M219,256L-41,291L441,276Z" fill="#296a2c" stroke="#296a2c" stroke-width="1.51"></path><path d="M422,186L337,203L441,276Z" fill="#246528" stroke="#246528" stroke-width="1.51"></path><path d="M337,203L298,254L441,276Z" fill="#246628" stroke="#246628" stroke-width="1.51"></path><path d="M417,114L422,186L441,276Z" fill="#246628" stroke="#246628" stroke-width="1.51"></path><path d="M413,-65L417,114L441,276Z" fill="#296b2d" stroke="#296b2d" stroke-width="1.51"></path><path d="M328,101L337,203L417,114Z" fill="#2a6c2e" stroke="#2a6c2e" stroke-width="1.51"></path><path d="M417,114L337,203L422,186Z" fill="#27692b" stroke="#27692b" stroke-width="1.51"></path><path d="M339,-88L399,-33L413,-65Z" fill="#4d8e50" stroke="#4d8e50" stroke-width="1.51"></path><path d="M74,243L-41,291L219,256Z" fill="#36783a" stroke="#36783a" stroke-width="1.51"></path><path d="M339,-88L332,19L399,-33Z" fill="#488a4b" stroke="#488a4b" stroke-width="1.51"></path><path d="M267,23L328,101L332,19Z" fill="#387a3c" stroke="#387a3c" stroke-width="1.51"></path><path d="M328,101L239,105L337,203Z" fill="#2d6e30" stroke="#2d6e30" stroke-width="1.51"></path><path d="M239,105L230,211L337,203Z" fill="#2c6e30" stroke="#2c6e30" stroke-width="1.51"></path><path d="M267,23L332,19L339,-88Z" fill="#468749" stroke="#468749" stroke-width="1.51"></path><path d="M258,-99L267,23L339,-88Z" fill="#509153" stroke="#509153" stroke-width="1.51"></path><path d="M230,211L298,254L337,203Z" fill="#286a2d" stroke="#286a2d" stroke-width="1.51"></path><path d="M267,23L239,105L328,101Z" fill="#337537" stroke="#337537" stroke-width="1.51"></path><path d="M230,211L219,256L298,254Z" fill="#296b2d" stroke="#296b2d" stroke-width="1.51"></path><path d="M163,85L239,105L267,23Z" fill="#36783a" stroke="#36783a" stroke-width="1.51"></path><path d="M130,-7L163,85L267,23Z" fill="#408244" stroke="#408244" stroke-width="1.51"></path><path d="M258,-99L130,-7L267,23Z" fill="#4c8e4f" stroke="#4c8e4f" stroke-width="1.51"></path><path d="M182,234L74,243L219,256Z" fill="#2c6e30" stroke="#2c6e30" stroke-width="1.51"></path><path d="M125,193L230,211L239,105Z" fill="#2f7133" stroke="#2f7133" stroke-width="1.51"></path><path d="M122,-122L130,-7L258,-99Z" fill="#589b5c" stroke="#589b5c" stroke-width="1.51"></path><path d="M125,193L182,234L230,211Z" fill="#2d6f32" stroke="#2d6f32" stroke-width="1.51"></path><path d="M163,85L125,193L239,105Z" fill="#327436" stroke="#327436" stroke-width="1.51"></path><path d="M182,234L219,256L230,211Z" fill="#2b6d2f" stroke="#2b6d2f" stroke-width="1.51"></path><path d="M89,180L125,193L163,85Z" fill="#367739" stroke="#367739" stroke-width="1.51"></path><path d="M125,193L74,243L182,234Z" fill="#317335" stroke="#317335" stroke-width="1.51"></path><path d="M-132,-84L-39,-74L51,-101Z" fill="#7abc7e" stroke="#7abc7e" stroke-width="1.51"></path><path d="M122,-122L51,-101L130,-7Z" fill="#61a465" stroke="#61a465" stroke-width="1.51"></path><path d="M42,-9L34,119L130,-7Z" fill="#4e9052" stroke="#4e9052" stroke-width="1.51"></path><path d="M130,-7L34,119L163,85Z" fill="#418344" stroke="#418344" stroke-width="1.51"></path><path d="M34,119L89,180L163,85Z" fill="#3c7e40" stroke="#3c7e40" stroke-width="1.51"></path><path d="M89,180L74,243L125,193Z" fill="#37793b" stroke="#37793b" stroke-width="1.51"></path><path d="M51,-101L42,-9L130,-7Z" fill="#5d9f61" stroke="#5d9f61" stroke-width="1.51"></path><path d="M-21,199L74,243L89,180Z" fill="#3f8142" stroke="#3f8142" stroke-width="1.51"></path><path d="M34,119L-21,199L89,180Z" fill="#438547" stroke="#438547" stroke-width="1.51"></path><path d="M-26,1L34,119L42,-9Z" fill="#559859" stroke="#559859" stroke-width="1.51"></path><path d="M-21,199L-41,291L74,243Z" fill="#438547" stroke="#438547" stroke-width="1.51"></path><path d="M-26,1L-57,111L34,119Z" fill="#529456" stroke="#529456" stroke-width="1.51"></path><path d="M-39,-74L-26,1L42,-9Z" fill="#67aa6b" stroke="#67aa6b" stroke-width="1.51"></path><path d="M-39,-74L42,-9L51,-101Z" fill="#6bad6f" stroke="#6bad6f" stroke-width="1.51"></path><path d="M-57,111L-21,199L34,119Z" fill="#4c8f50" stroke="#4c8f50" stroke-width="1.51"></path><path d="M-96,13L-110,70L-57,111Z" fill="#60a264" stroke="#60a264" stroke-width="1.51"></path><path d="M-39,-74L-96,13L-26,1Z" fill="#6daf71" stroke="#6daf71" stroke-width="1.51"></path><path d="M-96,13L-57,111L-26,1Z" fill="#61a365" stroke="#61a365" stroke-width="1.51"></path><path d="M-57,111L-90,146L-21,199Z" fill="#539456" stroke="#539456" stroke-width="1.51"></path><path d="M-118,257L-41,291L-21,199Z" fill="#4e8e50" stroke="#4e8e50" stroke-width="1.51"></path><path d="M-90,146L-118,257L-21,199Z" fill="#539456" stroke="#539456" stroke-width="1.51"></path><path d="M-132,-84L-96,13L-39,-74Z" fill="#79bc7d" stroke="#79bc7d" stroke-width="1.51"></path><path d="M-110,70L-90,146L-57,111Z" fill="#599c5d" stroke="#599c5d" stroke-width="1.51"></path><path d="M-110,70L-118,257L-90,146Z" fill="#5a9b5d" stroke="#5a9b5d" stroke-width="1.51"></path><path d="M-132,-84L-110,70L-96,13Z" fill="#72b576" stroke="#72b576" stroke-width="1.51"></path><path d="M-132,-84L-118,257L-110,70Z" fill="#61a465" stroke="#61a465" stroke-width="1.51"></path></svg>