<svg width="300" height="176" xmlns="http://www.w3.org/2000/svg"><path d="M170,275L-129,298L336,294Z" fill="#2e7032" stroke="#2e7032" stroke-width="1.51"></path><path d="M334,159L399,276L423,161Z" fill="#26672a" stroke="#26672a" stroke-width="1.51"></path><path d="M418,63L354,94L423,161Z" fill="#2a6c2e" stroke="#2a6c2e" stroke-width="1.51"></path><path d="M362,-24L418,63L431,-28Z" fill="#3e7f41" stroke="#3e7f41" stroke-width="1.51"></path><path d="M418,63L423,161L431,-28Z" fill="#2f7133" stroke="#2f7133" stroke-width="1.51"></path><path d="M83,-111L171,-104L444,-86Z" fill="#5b9d5f" stroke="#5b9d5f" stroke-width="1.51"></path><path d="M236,-84L338,-67L444,-86Z" fill="#539456" stroke="#539456" stroke-width="1.51"></path><path d="M171,-104L236,-84L444,-86Z" fill="#58995b" stroke="#58995b" stroke-width="1.51"></path><path d="M362,-24L431,-28L444,-86Z" fill="#498a4b" stroke="#498a4b" stroke-width="1.51"></path><path d="M338,-67L362,-24L444,-86Z" fill="#4d8e50" stroke="#4d8e50" stroke-width="1.51"></path><path d="M431,-28L423,161L444,-86Z" fill="#3a7c3e" stroke="#3a7c3e" stroke-width="1.51"></path><path d="M362,-24L354,94L418,63Z" fill="#36783a" stroke="#36783a" stroke-width="1.51"></path><path d="M354,94L334,159L423,161Z" fill="#296c2e" stroke="#296c2e" stroke-width="1.51"></path><path d="M334,159L336,294L399,276Z" fill="#246628" stroke="#246628" stroke-width="1.51"></path><path d="M251,258L170,275L336,294Z" fill="#27682b" stroke="#27682b" stroke-width="1.51"></path><path d="M334,159L259,185L336,294Z" fill="#276a2c" stroke="#276a2c" stroke-width="1.51"></path><path d="M259,185L251,258L336,294Z" fill="#27692b" stroke="#27692b" stroke-width="1.51"></path><path d="M211,-6L232,119L354,94Z" fill="#357739" stroke="#357739" stroke-width="1.51"></path><path d="M211,-6L354,94L362,-24Z" fill="#3e8042" stroke="#3e8042" stroke-width="1.51"></path><path d="M338,-67L211,-6L362,-24Z" fill="#4a8b4d" stroke="#4a8b4d" stroke-width="1.51"></path><path d="M232,119L334,159L354,94Z" fill="#2d6f31" stroke="#2d6f31" stroke-width="1.51"></path><path d="M232,119L259,185L334,159Z" fill="#2d6f31" stroke="#2d6f31" stroke-width="1.51"></path><path d="M236,-84L211,-6L338,-67Z" fill="#509253" stroke="#509253" stroke-width="1.51"></path><path d="M83,246L-129,298L170,275Z" fill="#3d7e40" stroke="#3d7e40" stroke-width="1.51"></path><path d="M211,-6L169,17L232,119Z" fill="#3d7f41" stroke="#3d7f41" stroke-width="1.51"></path><path d="M169,17L154,93L232,119Z" fill="#36793b" stroke="#36793b" stroke-width="1.51"></path><path d="M232,119L146,155L259,185Z" fill="#2f7133" stroke="#2f7133" stroke-width="1.51"></path><path d="M170,275L251,258L259,185Z" fill="#2a6c2e" stroke="#2a6c2e" stroke-width="1.51"></path><path d="M146,155L170,275L259,185Z" fill="#2d6f31" stroke="#2d6f31" stroke-width="1.51"></path><path d="M-12,240L-129,298L83,246Z" fill="#47884a" stroke="#47884a" stroke-width="1.51"></path><path d="M171,-104L211,-6L236,-84Z" fill="#559658" stroke="#559658" stroke-width="1.51"></path><path d="M154,93L146,155L232,119Z" fill="#327537" stroke="#327537" stroke-width="1.51"></path><path d="M171,-104L169,17L211,-6Z" fill="#4e9052" stroke="#4e9052" stroke-width="1.51"></path><path d="M63,21L154,93L169,17Z" fill="#438546" stroke="#438546" stroke-width="1.51"></path><path d="M83,-111L63,21L169,17Z" fill="#559759" stroke="#559759" stroke-width="1.51"></path><path d="M146,155L83,246L170,275Z" fill="#307234" stroke="#307234" stroke-width="1.51"></path><path d="M83,-111L169,17L171,-104Z" fill="#599b5d" stroke="#599b5d" stroke-width="1.51"></path><path d="M-144,-86L-38,-66L83,-111Z" fill="#79bb7d" stroke="#79bb7d" stroke-width="1.51"></path><path d="M87,148L83,246L146,155Z" fill="#37793b" stroke="#37793b" stroke-width="1.51"></path><path d="M87,148L146,155L154,93Z" fill="#36783a" stroke="#36783a" stroke-width="1.51"></path><path d="M45,70L87,148L154,93Z" fill="#3d7f41" stroke="#3d7f41" stroke-width="1.51"></path><path d="M63,21L45,70L154,93Z" fill="#458749" stroke="#458749" stroke-width="1.51"></path><path d="M-38,-66L63,21L83,-111Z" fill="#66a86a" stroke="#66a86a" stroke-width="1.51"></path><path d="M45,70L-1,67L87,148Z" fill="#46884a" stroke="#46884a" stroke-width="1.51"></path><path d="M-1,67L-61,145L87,148Z" fill="#4a8c4e" stroke="#4a8c4e" stroke-width="1.51"></path><path d="M-61,145L-12,240L87,148Z" fill="#47894b" stroke="#47894b" stroke-width="1.51"></path><path d="M-12,240L83,246L87,148Z" fill="#3e8042" stroke="#3e8042" stroke-width="1.51"></path><path d="M-1,67L45,70L63,21Z" fill="#4f9153" stroke="#4f9153" stroke-width="1.51"></path><path d="M-54,-15L-1,67L63,21Z" fill="#5b9d5e" stroke="#5b9d5e" stroke-width="1.51"></path><path d="M-38,-66L-54,-15L63,21Z" fill="#66a86a" stroke="#66a86a" stroke-width="1.51"></path><path d="M-54,-15L-123,85L-1,67Z" fill="#60a264" stroke="#60a264" stroke-width="1.51"></path><path d="M-123,85L-61,145L-1,67Z" fill="#56985a" stroke="#56985a" stroke-width="1.51"></path><path d="M-61,145L-131,185L-12,240Z" fill="#529455" stroke="#529455" stroke-width="1.51"></path><path d="M-131,185L-129,298L-12,240Z" fill="#539456" stroke="#539456" stroke-width="1.51"></path><path d="M-142,-26L-54,-15L-38,-66Z" fill="#75b779" stroke="#75b779" stroke-width="1.51"></path><path d="M-144,-86L-142,-26L-38,-66Z" fill="#7fc183" stroke="#7fc183" stroke-width="1.51"></path><path d="M-142,-26L-123,85L-54,-15Z" fill="#6eb072" stroke="#6eb072" stroke-width="1.51"></path><path d="M-123,85L-131,185L-61,145Z" fill="#5a9c5e" stroke="#5a9c5e" stroke-width="1.51"></path><path d="M-142,-26L-131,185L-123,85Z" fill="#63a667" stroke="#63a667" stroke-width="1.51"></path><path d="M-131,185L-142,-26L-129,298Z" fill="#5fa062" stroke="#5fa062" stroke-width="1.51"></path></svg>