<svg width="300" height="176" xmlns="http://www.w3.org/2000/svg"><path d="M153,75L237,62L174,-4Z" fill="#3d7f4a" stroke="#3d7f4a" stroke-width="1.51"></path><path d="M237,62L232,-25L174,-4Z" fill="#438557" stroke="#438557" stroke-width="1.51"></path><path d="M237,62L347,24L232,-25Z" fill="#3f8051" stroke="#3f8051" stroke-width="1.51"></path><path d="M153,75L248,147L237,62Z" fill="#327537" stroke="#327537" stroke-width="1.51"></path><path d="M153,75L172,174L248,147Z" fill="#317436" stroke="#317436" stroke-width="1.51"></path><path d="M248,147L321,79L237,62Z" fill="#307234" stroke="#307234" stroke-width="1.51"></path><path d="M347,-59L255,-89L232,-25Z" fill="#4e9071" stroke="#4e9071" stroke-width="1.51"></path><path d="M232,-25L177,-112L174,-4Z" fill="#4f9170" stroke="#4f9170" stroke-width="1.51"></path><path d="M153,75L80,167L172,174Z" fill="#35773c" stroke="#35773c" stroke-width="1.51"></path><path d="M35,-32L61,111L153,75Z" fill="#47895d" stroke="#47895d" stroke-width="1.51"></path><path d="M35,-32L153,75L174,-4Z" fill="#498b62" stroke="#498b62" stroke-width="1.51"></path><path d="M255,-89L177,-112L232,-25Z" fill="#53967b" stroke="#53967b" stroke-width="1.51"></path><path d="M321,79L347,24L237,62Z" fill="#367841" stroke="#367841" stroke-width="1.51"></path><path d="M321,79L437,63L347,24Z" fill="#34753e" stroke="#34753e" stroke-width="1.51"></path><path d="M248,147L311,158L321,79Z" fill="#2e6f31" stroke="#2e6f31" stroke-width="1.51"></path><path d="M323,246L311,158L248,147Z" fill="#2a6c2e" stroke="#2a6c2e" stroke-width="1.51"></path><path d="M61,111L80,167L153,75Z" fill="#3c7e48" stroke="#3c7e48" stroke-width="1.51"></path><path d="M72,-117L35,-32L174,-4Z" fill="#589c85" stroke="#589c85" stroke-width="1.51"></path><path d="M347,24L347,-59L232,-25Z" fill="#468760" stroke="#468760" stroke-width="1.51"></path><path d="M177,-112L72,-117L174,-4Z" fill="#579b82" stroke="#579b82" stroke-width="1.51"></path><path d="M347,24L392,-34L347,-59Z" fill="#44855f" stroke="#44855f" stroke-width="1.51"></path><path d="M437,63L392,-34L347,24Z" fill="#3b7c4d" stroke="#3b7c4d" stroke-width="1.51"></path><path d="M172,174L226,274L248,147Z" fill="#2d6f31" stroke="#2d6f31" stroke-width="1.51"></path><path d="M80,167L131,264L172,174Z" fill="#32743a" stroke="#32743a" stroke-width="1.51"></path><path d="M80,167L47,255L131,264Z" fill="#377945" stroke="#377945" stroke-width="1.51"></path><path d="M61,111L-10,160L80,167Z" fill="#438456" stroke="#438456" stroke-width="1.51"></path><path d="M-59,93L-10,160L61,111Z" fill="#4a8c65" stroke="#4a8c65" stroke-width="1.51"></path><path d="M131,264L226,274L172,174Z" fill="#2c6e30" stroke="#2c6e30" stroke-width="1.51"></path><path d="M35,-32L-59,93L61,111Z" fill="#4f9270" stroke="#4f9270" stroke-width="1.51"></path><path d="M-46,-108L-33,-35L35,-32Z" fill="#67aeaa" stroke="#67aeaa" stroke-width="1.51"></path><path d="M412,190L437,63L321,79Z" fill="#2a6c2e" stroke="#2a6c2e" stroke-width="1.51"></path><path d="M226,274L323,246L248,147Z" fill="#296b2d" stroke="#296b2d" stroke-width="1.51"></path><path d="M412,190L321,79L311,158Z" fill="#2a6d2f" stroke="#2a6d2f" stroke-width="1.51"></path><path d="M-33,-35L-59,93L35,-32Z" fill="#5ca08e" stroke="#5ca08e" stroke-width="1.51"></path><path d="M2,248L80,167L-10,160Z" fill="#438459" stroke="#438459" stroke-width="1.51"></path><path d="M2,248L47,255L80,167Z" fill="#3e7f52" stroke="#3e7f52" stroke-width="1.51"></path><path d="M323,246L412,190L311,158Z" fill="#27692b" stroke="#27692b" stroke-width="1.51"></path><path d="M-135,249L2,248L-10,160Z" fill="#4b8d6d" stroke="#4b8d6d" stroke-width="1.51"></path><path d="M-33,-35L-97,-15L-59,93Z" fill="#60a69a" stroke="#60a69a" stroke-width="1.51"></path><path d="M72,-117L-46,-108L35,-32Z" fill="#66afab" stroke="#66afab" stroke-width="1.51"></path><path d="M392,-34L449,-75L347,-59Z" fill="#498b6c" stroke="#498b6c" stroke-width="1.51"></path><path d="M347,-59L449,-75L255,-89Z" fill="#4e9075" stroke="#4e9075" stroke-width="1.51"></path><path d="M255,-89L449,-75L177,-112Z" fill="#53967f" stroke="#53967f" stroke-width="1.51"></path><path d="M437,63L449,-75L392,-34Z" fill="#408159" stroke="#408159" stroke-width="1.51"></path><path d="M-105,-77L-97,-15L-33,-35Z" fill="#6bb4b7" stroke="#6bb4b7" stroke-width="1.51"></path><path d="M-46,-108L-105,-77L-33,-35Z" fill="#6eb8bf" stroke="#6eb8bf" stroke-width="1.51"></path><path d="M437,63L436,249L449,-75Z" fill="#2b6e32" stroke="#2b6e32" stroke-width="1.51"></path><path d="M412,190L436,249L437,63Z" fill="#25682a" stroke="#25682a" stroke-width="1.51"></path><path d="M323,246L436,249L412,190Z" fill="#246628" stroke="#246628" stroke-width="1.51"></path><path d="M226,274L436,249L323,246Z" fill="#256629" stroke="#256629" stroke-width="1.51"></path><path d="M-59,93L-153,169L-10,160Z" fill="#52957a" stroke="#52957a" stroke-width="1.51"></path><path d="M-97,-15L-132,63L-59,93Z" fill="#5fa495" stroke="#5fa495" stroke-width="1.51"></path><path d="M-105,-77L-132,63L-97,-15Z" fill="#69b2b3" stroke="#69b2b3" stroke-width="1.51"></path><path d="M-132,63L-153,169L-59,93Z" fill="#599d89" stroke="#599d89" stroke-width="1.51"></path><path d="M-105,-77L-153,169L-132,63Z" fill="#62a89e" stroke="#62a89e" stroke-width="1.51"></path><path d="M-153,169L-135,249L-10,160Z" fill="#53967e" stroke="#53967e" stroke-width="1.51"></path><path d="M2,248L-135,249L47,255Z" fill="#478865" stroke="#478865" stroke-width="1.51"></path><path d="M47,255L-135,249L131,264Z" fill="#418158" stroke="#418158" stroke-width="1.51"></path><path d="M131,264L-135,249L226,274Z" fill="#387946" stroke="#387946" stroke-width="1.51"></path></svg>