<svg width="300" height="176" xmlns="http://www.w3.org/2000/svg"><path d="M-36,-120L50,-100L183,-95Z" fill="#65aca5" stroke="#65aca5" stroke-width="1.51"></path><path d="M157,244L54,267L263,263Z" fill="#2b6d2f" stroke="#2b6d2f" stroke-width="1.51"></path><path d="M263,263L54,267L343,289Z" fill="#286a2c" stroke="#286a2c" stroke-width="1.51"></path><path d="M54,267L-31,277L343,289Z" fill="#2f7137" stroke="#2f7137" stroke-width="1.51"></path><path d="M-89,-123L-36,-120L391,-116Z" fill="#65aba4" stroke="#65aba4" stroke-width="1.51"></path><path d="M-36,-120L183,-95L391,-116Z" fill="#5b9f8c" stroke="#5b9f8c" stroke-width="1.51"></path><path d="M183,-95L270,-81L391,-116Z" fill="#559882" stroke="#559882" stroke-width="1.51"></path><path d="M326,91L388,109L418,12Z" fill="#307237" stroke="#307237" stroke-width="1.51"></path><path d="M391,-116L360,-78L418,12Z" fill="#4a8c6d" stroke="#4a8c6d" stroke-width="1.51"></path><path d="M360,-78L361,-26L418,12Z" fill="#458661" stroke="#458661" stroke-width="1.51"></path><path d="M388,109L348,152L419,187Z" fill="#286b2d" stroke="#286b2d" stroke-width="1.51"></path><path d="M418,12L388,109L419,187Z" fill="#2a6c2e" stroke="#2a6c2e" stroke-width="1.51"></path><path d="M418,12L419,187L428,279Z" fill="#26692b" stroke="#26692b" stroke-width="1.51"></path><path d="M419,187L343,289L428,279Z" fill="#226426" stroke="#226426" stroke-width="1.51"></path><path d="M361,-26L326,91L418,12Z" fill="#3a7b4b" stroke="#3a7b4b" stroke-width="1.51"></path><path d="M348,152L343,289L419,187Z" fill="#25682a" stroke="#25682a" stroke-width="1.51"></path><path d="M263,263L343,289L348,152Z" fill="#26682a" stroke="#26682a" stroke-width="1.51"></path><path d="M270,-81L360,-78L391,-116Z" fill="#51947d" stroke="#51947d" stroke-width="1.51"></path><path d="M326,91L348,152L388,109Z" fill="#2c6e30" stroke="#2c6e30" stroke-width="1.51"></path><path d="M251,-11L326,91L361,-26Z" fill="#3e7f50" stroke="#3e7f50" stroke-width="1.51"></path><path d="M360,-78L270,-81L361,-26Z" fill="#4d8f71" stroke="#4d8f71" stroke-width="1.51"></path><path d="M270,-81L251,-11L361,-26Z" fill="#4a8b69" stroke="#4a8b69" stroke-width="1.51"></path><path d="M251,-11L240,79L326,91Z" fill="#387a43" stroke="#387a43" stroke-width="1.51"></path><path d="M326,91L212,155L348,152Z" fill="#2d6f31" stroke="#2d6f31" stroke-width="1.51"></path><path d="M212,155L263,263L348,152Z" fill="#2b6d2f" stroke="#2b6d2f" stroke-width="1.51"></path><path d="M240,79L212,155L326,91Z" fill="#307234" stroke="#307234" stroke-width="1.51"></path><path d="M156,196L157,244L212,155Z" fill="#2e7032" stroke="#2e7032" stroke-width="1.51"></path><path d="M212,155L157,244L263,263Z" fill="#2b6e30" stroke="#2b6e30" stroke-width="1.51"></path><path d="M183,-95L251,-11L270,-81Z" fill="#509375" stroke="#509375" stroke-width="1.51"></path><path d="M175,113L212,155L240,79Z" fill="#317436" stroke="#317436" stroke-width="1.51"></path><path d="M126,-4L240,79L251,-11Z" fill="#418353" stroke="#418353" stroke-width="1.51"></path><path d="M183,-95L126,-4L251,-11Z" fill="#4d906d" stroke="#4d906d" stroke-width="1.51"></path><path d="M126,-4L175,113L240,79Z" fill="#3a7b43" stroke="#3a7b43" stroke-width="1.51"></path><path d="M175,113L156,196L212,155Z" fill="#317234" stroke="#317234" stroke-width="1.51"></path><path d="M126,-4L55,58L175,113Z" fill="#418351" stroke="#418351" stroke-width="1.51"></path><path d="M88,-15L126,-4L183,-95Z" fill="#519474" stroke="#519474" stroke-width="1.51"></path><path d="M50,-100L88,-15L183,-95Z" fill="#5a9e89" stroke="#5a9e89" stroke-width="1.51"></path><path d="M44,190L156,196L175,113Z" fill="#35773d" stroke="#35773d" stroke-width="1.51"></path><path d="M55,58L44,190L175,113Z" fill="#3c7e49" stroke="#3c7e49" stroke-width="1.51"></path><path d="M156,196L44,190L157,244Z" fill="#33753c" stroke="#33753c" stroke-width="1.51"></path><path d="M44,190L54,267L157,244Z" fill="#387945" stroke="#387945" stroke-width="1.51"></path><path d="M88,-15L55,58L126,-4Z" fill="#4d8f6b" stroke="#4d8f6b" stroke-width="1.51"></path><path d="M-1,76L44,190L55,58Z" fill="#46885c" stroke="#46885c" stroke-width="1.51"></path><path d="M-38,29L55,58L88,-15Z" fill="#539577" stroke="#539577" stroke-width="1.51"></path><path d="M50,-100L-38,29L88,-15Z" fill="#5ca18e" stroke="#5ca18e" stroke-width="1.51"></path><path d="M-1,76L-32,153L44,190Z" fill="#488a62" stroke="#488a62" stroke-width="1.51"></path><path d="M-36,-120L-38,29L50,-100Z" fill="#66aeaa" stroke="#66aeaa" stroke-width="1.51"></path><path d="M44,190L-31,277L54,267Z" fill="#408157" stroke="#408157" stroke-width="1.51"></path><path d="M-38,29L-1,76L55,58Z" fill="#519373" stroke="#519373" stroke-width="1.51"></path><path d="M-32,153L-31,277L44,190Z" fill="#468761" stroke="#468761" stroke-width="1.51"></path><path d="M-89,-123L-145,4L-38,29Z" fill="#6ab3b6" stroke="#6ab3b6" stroke-width="1.51"></path><path d="M-89,-123L-38,29L-36,-120Z" fill="#6cb7bd" stroke="#6cb7bd" stroke-width="1.51"></path><path d="M-32,153L-103,169L-31,277Z" fill="#4d8f70" stroke="#4d8f70" stroke-width="1.51"></path><path d="M-38,29L-32,153L-1,76Z" fill="#4f926f" stroke="#4f926f" stroke-width="1.51"></path><path d="M-38,29L-153,84L-32,153Z" fill="#55987d" stroke="#55987d" stroke-width="1.51"></path><path d="M-153,84L-103,169L-32,153Z" fill="#559980" stroke="#559980" stroke-width="1.51"></path><path d="M-103,169L-150,273L-31,277Z" fill="#509279" stroke="#509279" stroke-width="1.51"></path><path d="M-145,4L-153,84L-38,29Z" fill="#62a99e" stroke="#62a99e" stroke-width="1.51"></path><path d="M-153,84L-150,273L-103,169Z" fill="#589c8a" stroke="#589c8a" stroke-width="1.51"></path></svg>