<svg width="300" height="176" xmlns="http://www.w3.org/2000/svg"><path d="M180,54L216,106L224,-1Z" fill="#44855a" stroke="#44855a" stroke-width="1.51"></path><path d="M216,106L311,79L224,-1Z" fill="#3c7d4e" stroke="#3c7d4e" stroke-width="1.51"></path><path d="M216,106L255,152L311,79Z" fill="#286b2d" stroke="#286b2d" stroke-width="1.51"></path><path d="M311,79L346,-5L224,-1Z" fill="#4a8c71" stroke="#4a8c71" stroke-width="1.51"></path><path d="M180,54L161,172L216,106Z" fill="#2f7133" stroke="#2f7133" stroke-width="1.51"></path><path d="M216,106L161,172L255,152Z" fill="#286a2c" stroke="#286a2c" stroke-width="1.51"></path><path d="M224,-1L124,-34L180,54Z" fill="#5ca08f" stroke="#5ca08f" stroke-width="1.51"></path><path d="M180,54L72,76L161,172Z" fill="#377940" stroke="#377940" stroke-width="1.51"></path><path d="M211,-119L124,-34L224,-1Z" fill="#5da396" stroke="#5da396" stroke-width="1.51"></path><path d="M124,-34L72,76L180,54Z" fill="#599d86" stroke="#599d86" stroke-width="1.51"></path><path d="M346,-5L339,-85L224,-1Z" fill="#54988a" stroke="#54988a" stroke-width="1.51"></path><path d="M339,-85L211,-119L224,-1Z" fill="#589c8e" stroke="#589c8e" stroke-width="1.51"></path><path d="M431,69L346,-5L311,79Z" fill="#3f7f57" stroke="#3f7f57" stroke-width="1.51"></path><path d="M431,69L405,-9L346,-5Z" fill="#4d8f77" stroke="#4d8f77" stroke-width="1.51"></path><path d="M346,-5L405,-9L339,-85Z" fill="#54988a" stroke="#54988a" stroke-width="1.51"></path><path d="M255,152L335,211L311,79Z" fill="#206224" stroke="#206224" stroke-width="1.51"></path><path d="M315,241L335,211L255,152Z" fill="#1b5e20" stroke="#1b5e20" stroke-width="1.51"></path><path d="M408,181L431,69L311,79Z" fill="#25682a" stroke="#25682a" stroke-width="1.51"></path><path d="M124,-34L49,-16L72,76Z" fill="#6cb7bc" stroke="#6cb7bc" stroke-width="1.51"></path><path d="M88,-93L49,-16L124,-34Z" fill="#6ebac3" stroke="#6ebac3" stroke-width="1.51"></path><path d="M211,-119L142,-125L124,-34Z" fill="#60a598" stroke="#60a598" stroke-width="1.51"></path><path d="M224,283L315,241L255,152Z" fill="#1e6123" stroke="#1e6123" stroke-width="1.51"></path><path d="M335,211L408,181L311,79Z" fill="#1e6123" stroke="#1e6123" stroke-width="1.51"></path><path d="M142,-125L88,-93L124,-34Z" fill="#67b0ae" stroke="#67b0ae" stroke-width="1.51"></path><path d="M161,172L224,283L255,152Z" fill="#236527" stroke="#236527" stroke-width="1.51"></path><path d="M72,76L46,152L161,172Z" fill="#418257" stroke="#418257" stroke-width="1.51"></path><path d="M-12,113L46,152L72,76Z" fill="#54977e" stroke="#54977e" stroke-width="1.51"></path><path d="M413,299L408,181L335,211Z" fill="#1b5e20" stroke="#1b5e20" stroke-width="1.51"></path><path d="M405,-9L432,-64L339,-85Z" fill="#54988a" stroke="#54988a" stroke-width="1.51"></path><path d="M339,-85L432,-64L211,-119Z" fill="#54988a" stroke="#54988a" stroke-width="1.51"></path><path d="M431,69L432,-64L405,-9Z" fill="#54988a" stroke="#54988a" stroke-width="1.51"></path><path d="M160,275L224,283L161,172Z" fill="#26682a" stroke="#26682a" stroke-width="1.51"></path><path d="M69,280L160,275L161,172Z" fill="#2f7139" stroke="#2f7139" stroke-width="1.51"></path><path d="M46,152L69,280L161,172Z" fill="#3c7c51" stroke="#3c7c51" stroke-width="1.51"></path><path d="M-34,15L-12,113L72,76Z" fill="#66aeaa" stroke="#66aeaa" stroke-width="1.51"></path><path d="M49,-16L-34,15L72,76Z" fill="#72becd" stroke="#72becd" stroke-width="1.51"></path><path d="M-40,-108L-34,15L49,-16Z" fill="#80d6ff" stroke="#80d6ff" stroke-width="1.51"></path><path d="M-30,267L69,280L46,152Z" fill="#4d9079" stroke="#4d9079" stroke-width="1.51"></path><path d="M160,275L69,280L224,283Z" fill="#286b2d" stroke="#286b2d" stroke-width="1.51"></path><path d="M-12,113L-47,154L46,152Z" fill="#599e91" stroke="#599e91" stroke-width="1.51"></path><path d="M-146,120L-47,154L-12,113Z" fill="#5aa092" stroke="#5aa092" stroke-width="1.51"></path><path d="M69,280L413,299L224,283Z" fill="#216326" stroke="#216326" stroke-width="1.51"></path><path d="M224,283L413,299L315,241Z" fill="#1b5e20" stroke="#1b5e20" stroke-width="1.51"></path><path d="M315,241L413,299L335,211Z" fill="#1b5e20" stroke="#1b5e20" stroke-width="1.51"></path><path d="M408,181L413,299L431,69Z" fill="#1b5e20" stroke="#1b5e20" stroke-width="1.51"></path><path d="M-34,15L-116,25L-12,113Z" fill="#6ebac3" stroke="#6ebac3" stroke-width="1.51"></path><path d="M88,-93L-40,-108L49,-16Z" fill="#7acbe8" stroke="#7acbe8" stroke-width="1.51"></path><path d="M142,-125L-40,-108L88,-93Z" fill="#74c1d3" stroke="#74c1d3" stroke-width="1.51"></path><path d="M-47,154L-30,267L46,152Z" fill="#54988a" stroke="#54988a" stroke-width="1.51"></path><path d="M-101,-116L-116,25L-34,15Z" fill="#80d6ff" stroke="#80d6ff" stroke-width="1.51"></path><path d="M-47,154L-110,202L-30,267Z" fill="#54988a" stroke="#54988a" stroke-width="1.51"></path><path d="M-146,120L-110,202L-47,154Z" fill="#569b8d" stroke="#569b8d" stroke-width="1.51"></path><path d="M142,-125L-101,-116L-40,-108Z" fill="#80d6ff" stroke="#80d6ff" stroke-width="1.51"></path><path d="M-40,-108L-101,-116L-34,15Z" fill="#80d6ff" stroke="#80d6ff" stroke-width="1.51"></path><path d="M-101,-116L-146,120L-116,25Z" fill="#7dd0f3" stroke="#7dd0f3" stroke-width="1.51"></path><path d="M-116,25L-146,120L-12,113Z" fill="#61a79b" stroke="#61a79b" stroke-width="1.51"></path><path d="M-146,120L-153,261L-110,202Z" fill="#54988a" stroke="#54988a" stroke-width="1.51"></path><path d="M-110,202L-153,261L-30,267Z" fill="#54988a" stroke="#54988a" stroke-width="1.51"></path><path d="M-30,267L-153,261L69,280Z" fill="#54988a" stroke="#54988a" stroke-width="1.51"></path></svg>