<svg width="300" height="176" xmlns="http://www.w3.org/2000/svg"><path d="M142,90L39,22L63,113Z" fill="#519373" stroke="#519373" stroke-width="1.51"></path><path d="M142,90L160,-8L39,22Z" fill="#5b9f8a" stroke="#5b9f8a" stroke-width="1.51"></path><path d="M39,22L-12,58L63,113Z" fill="#62a99f" stroke="#62a99f" stroke-width="1.51"></path><path d="M39,22L-25,11L-12,58Z" fill="#76c5db" stroke="#76c5db" stroke-width="1.51"></path><path d="M-13,-86L-25,11L39,22Z" fill="#80d6ff" stroke="#80d6ff" stroke-width="1.51"></path><path d="M160,-8L126,-62L39,22Z" fill="#6ab3b4" stroke="#6ab3b4" stroke-width="1.51"></path><path d="M-12,58L-6,145L63,113Z" fill="#5a9e8c" stroke="#5a9e8c" stroke-width="1.51"></path><path d="M63,113L180,185L142,90Z" fill="#367841" stroke="#367841" stroke-width="1.51"></path><path d="M-96,75L-6,145L-12,58Z" fill="#60a598" stroke="#60a598" stroke-width="1.51"></path><path d="M126,-62L89,-83L39,22Z" fill="#6fbbc4" stroke="#6fbbc4" stroke-width="1.51"></path><path d="M160,-8L231,-2L126,-62Z" fill="#5ea497" stroke="#5ea497" stroke-width="1.51"></path><path d="M142,90L231,-2L160,-8Z" fill="#529579" stroke="#529579" stroke-width="1.51"></path><path d="M-6,145L68,210L63,113Z" fill="#4c8e73" stroke="#4c8e73" stroke-width="1.51"></path><path d="M142,90L270,81L231,-2Z" fill="#418356" stroke="#418356" stroke-width="1.51"></path><path d="M68,210L180,185L63,113Z" fill="#397a4b" stroke="#397a4b" stroke-width="1.51"></path><path d="M89,-83L-13,-86L39,22Z" fill="#79c9e4" stroke="#79c9e4" stroke-width="1.51"></path><path d="M180,185L270,81L142,90Z" fill="#2d6f31" stroke="#2d6f31" stroke-width="1.51"></path><path d="M-63,299L80,281L68,210Z" fill="#4d9079" stroke="#4d9079" stroke-width="1.51"></path><path d="M-25,11L-96,75L-12,58Z" fill="#70bcc6" stroke="#70bcc6" stroke-width="1.51"></path><path d="M-100,6L-96,75L-25,11Z" fill="#76c5db" stroke="#76c5db" stroke-width="1.51"></path><path d="M180,185L221,192L270,81Z" fill="#26682a" stroke="#26682a" stroke-width="1.51"></path><path d="M225,235L221,192L180,185Z" fill="#236628" stroke="#236628" stroke-width="1.51"></path><path d="M-13,-86L-100,6L-25,11Z" fill="#80d6ff" stroke="#80d6ff" stroke-width="1.51"></path><path d="M221,192L297,165L270,81Z" fill="#236528" stroke="#236528" stroke-width="1.51"></path><path d="M154,284L225,235L180,185Z" fill="#25682a" stroke="#25682a" stroke-width="1.51"></path><path d="M68,210L154,284L180,185Z" fill="#2e7037" stroke="#2e7037" stroke-width="1.51"></path><path d="M-63,299L68,210L-6,145Z" fill="#54988a" stroke="#54988a" stroke-width="1.51"></path><path d="M225,235L297,165L221,192Z" fill="#206225" stroke="#206225" stroke-width="1.51"></path><path d="M297,165L323,86L270,81Z" fill="#26682a" stroke="#26682a" stroke-width="1.51"></path><path d="M270,81L343,27L231,-2Z" fill="#468766" stroke="#468766" stroke-width="1.51"></path><path d="M80,281L154,284L68,210Z" fill="#397a4c" stroke="#397a4c" stroke-width="1.51"></path><path d="M231,-2L272,-109L126,-62Z" fill="#5ba193" stroke="#5ba193" stroke-width="1.51"></path><path d="M126,-62L272,-109L89,-83Z" fill="#5fa598" stroke="#5fa598" stroke-width="1.51"></path><path d="M89,-83L272,-109L-13,-86Z" fill="#68b1af" stroke="#68b1af" stroke-width="1.51"></path><path d="M355,-80L272,-109L231,-2Z" fill="#55998c" stroke="#55998c" stroke-width="1.51"></path><path d="M-96,75L-123,194L-6,145Z" fill="#599e91" stroke="#599e91" stroke-width="1.51"></path><path d="M-100,6L-123,194L-96,75Z" fill="#60a598" stroke="#60a598" stroke-width="1.51"></path><path d="M391,16L343,27L323,86Z" fill="#41825c" stroke="#41825c" stroke-width="1.51"></path><path d="M323,86L343,27L270,81Z" fill="#367746" stroke="#367746" stroke-width="1.51"></path><path d="M-100,6L-137,-103L-123,194Z" fill="#75c4d8" stroke="#75c4d8" stroke-width="1.51"></path><path d="M-13,-86L-137,-103L-100,6Z" fill="#80d6ff" stroke="#80d6ff" stroke-width="1.51"></path><path d="M272,-109L-137,-103L-13,-86Z" fill="#78c9e3" stroke="#78c9e3" stroke-width="1.51"></path><path d="M-123,194L-63,299L-6,145Z" fill="#54988a" stroke="#54988a" stroke-width="1.51"></path><path d="M80,281L-63,299L154,284Z" fill="#468667" stroke="#468667" stroke-width="1.51"></path><path d="M297,165L399,168L323,86Z" fill="#216326" stroke="#216326" stroke-width="1.51"></path><path d="M225,235L312,255L297,165Z" fill="#1d6022" stroke="#1d6022" stroke-width="1.51"></path><path d="M154,284L312,255L225,235Z" fill="#216426" stroke="#216426" stroke-width="1.51"></path><path d="M343,27L355,-80L231,-2Z" fill="#54988a" stroke="#54988a" stroke-width="1.51"></path><path d="M343,27L391,16L355,-80Z" fill="#54988a" stroke="#54988a" stroke-width="1.51"></path><path d="M441,95L391,16L323,86Z" fill="#367645" stroke="#367645" stroke-width="1.51"></path><path d="M-123,194L-146,251L-63,299Z" fill="#54988a" stroke="#54988a" stroke-width="1.51"></path><path d="M-137,-103L-146,251L-123,194Z" fill="#5da295" stroke="#5da295" stroke-width="1.51"></path><path d="M312,255L399,168L297,165Z" fill="#1b5e20" stroke="#1b5e20" stroke-width="1.51"></path><path d="M399,168L441,95L323,86Z" fill="#246729" stroke="#246729" stroke-width="1.51"></path><path d="M391,16L440,-108L355,-80Z" fill="#54988a" stroke="#54988a" stroke-width="1.51"></path><path d="M399,168L387,289L441,95Z" fill="#1b5e20" stroke="#1b5e20" stroke-width="1.51"></path><path d="M312,255L387,289L399,168Z" fill="#1b5e20" stroke="#1b5e20" stroke-width="1.51"></path><path d="M154,284L387,289L312,255Z" fill="#1d5f22" stroke="#1d5f22" stroke-width="1.51"></path><path d="M-63,299L387,289L154,284Z" fill="#276a2c" stroke="#276a2c" stroke-width="1.51"></path><path d="M441,95L440,-108L391,16Z" fill="#54988a" stroke="#54988a" stroke-width="1.51"></path><path d="M355,-80L440,-108L272,-109Z" fill="#54988a" stroke="#54988a" stroke-width="1.51"></path></svg>