<svg width="300" height="176" xmlns="http://www.w3.org/2000/svg"><path d="M146,54L224,82L159,30Z" fill="#45865a" stroke="#45865a" stroke-width="1.51"></path><path d="M224,82L236,29L159,30Z" fill="#478860" stroke="#478860" stroke-width="1.51"></path><path d="M83,-29L93,111L146,54Z" fill="#579b82" stroke="#579b82" stroke-width="1.51"></path><path d="M146,54L147,189L224,82Z" fill="#307335" stroke="#307335" stroke-width="1.51"></path><path d="M224,82L331,69L236,29Z" fill="#3c7c4e" stroke="#3c7c4e" stroke-width="1.51"></path><path d="M147,189L260,174L224,82Z" fill="#28692b" stroke="#28692b" stroke-width="1.51"></path><path d="M93,111L147,189L146,54Z" fill="#387a43" stroke="#387a43" stroke-width="1.51"></path><path d="M93,111L89,157L147,189Z" fill="#397a49" stroke="#397a49" stroke-width="1.51"></path><path d="M159,30L83,-29L146,54Z" fill="#5ea392" stroke="#5ea392" stroke-width="1.51"></path><path d="M93,111L-21,78L89,157Z" fill="#4f9172" stroke="#4f9172" stroke-width="1.51"></path><path d="M173,-113L83,-29L159,30Z" fill="#63aaa1" stroke="#63aaa1" stroke-width="1.51"></path><path d="M236,29L224,-77L159,30Z" fill="#5ca193" stroke="#5ca193" stroke-width="1.51"></path><path d="M334,19L224,-77L236,29Z" fill="#579b8e" stroke="#579b8e" stroke-width="1.51"></path><path d="M260,174L331,69L224,82Z" fill="#286a2c" stroke="#286a2c" stroke-width="1.51"></path><path d="M331,69L334,19L236,29Z" fill="#438460" stroke="#438460" stroke-width="1.51"></path><path d="M224,-77L173,-113L159,30Z" fill="#5da396" stroke="#5da396" stroke-width="1.51"></path><path d="M83,-29L-21,78L93,111Z" fill="#62a89e" stroke="#62a89e" stroke-width="1.51"></path><path d="M173,-113L74,-75L83,-29Z" fill="#69b2b3" stroke="#69b2b3" stroke-width="1.51"></path><path d="M147,189L182,240L260,174Z" fill="#246729" stroke="#246729" stroke-width="1.51"></path><path d="M56,260L182,240L147,189Z" fill="#30713a" stroke="#30713a" stroke-width="1.51"></path><path d="M182,240L237,241L260,174Z" fill="#226427" stroke="#226427" stroke-width="1.51"></path><path d="M260,174L330,188L331,69Z" fill="#206225" stroke="#206225" stroke-width="1.51"></path><path d="M331,69L419,110L334,19Z" fill="#357644" stroke="#357644" stroke-width="1.51"></path><path d="M316,247L330,188L260,174Z" fill="#1b5e20" stroke="#1b5e20" stroke-width="1.51"></path><path d="M89,157L56,260L147,189Z" fill="#3a7a4d" stroke="#3a7a4d" stroke-width="1.51"></path><path d="M-62,-19L-21,78L83,-29Z" fill="#7dd0f3" stroke="#7dd0f3" stroke-width="1.51"></path><path d="M56,260L316,247L237,241Z" fill="#246628" stroke="#246628" stroke-width="1.51"></path><path d="M237,241L316,247L260,174Z" fill="#1e6023" stroke="#1e6023" stroke-width="1.51"></path><path d="M430,197L419,110L330,188Z" fill="#1d5f22" stroke="#1d5f22" stroke-width="1.51"></path><path d="M330,188L419,110L331,69Z" fill="#236628" stroke="#236628" stroke-width="1.51"></path><path d="M334,19L359,-109L224,-77Z" fill="#54988a" stroke="#54988a" stroke-width="1.51"></path><path d="M224,-77L359,-109L173,-113Z" fill="#589c8f" stroke="#589c8f" stroke-width="1.51"></path><path d="M419,110L410,-24L334,19Z" fill="#458665" stroke="#458665" stroke-width="1.51"></path><path d="M-61,203L56,260L89,157Z" fill="#4d9079" stroke="#4d9079" stroke-width="1.51"></path><path d="M182,240L56,260L237,241Z" fill="#286a2c" stroke="#286a2c" stroke-width="1.51"></path><path d="M74,-75L-14,-72L83,-29Z" fill="#77c6de" stroke="#77c6de" stroke-width="1.51"></path><path d="M173,-113L-14,-72L74,-75Z" fill="#71bdc9" stroke="#71bdc9" stroke-width="1.51"></path><path d="M410,-24L359,-109L334,19Z" fill="#54988a" stroke="#54988a" stroke-width="1.51"></path><path d="M-14,-72L-62,-19L83,-29Z" fill="#80d5fd" stroke="#80d5fd" stroke-width="1.51"></path><path d="M419,110L417,-101L410,-24Z" fill="#54988a" stroke="#54988a" stroke-width="1.51"></path><path d="M316,247L430,197L330,188Z" fill="#1b5e20" stroke="#1b5e20" stroke-width="1.51"></path><path d="M410,-24L417,-101L359,-109Z" fill="#54988a" stroke="#54988a" stroke-width="1.51"></path><path d="M430,197L417,-101L419,110Z" fill="#347541" stroke="#347541" stroke-width="1.51"></path><path d="M-21,78L-61,203L89,157Z" fill="#579c8e" stroke="#579c8e" stroke-width="1.51"></path><path d="M-109,110L-61,203L-21,78Z" fill="#5a9f92" stroke="#5a9f92" stroke-width="1.51"></path><path d="M-62,-19L-98,11L-21,78Z" fill="#78c9e3" stroke="#78c9e3" stroke-width="1.51"></path><path d="M-97,-90L-98,11L-62,-19Z" fill="#80d6ff" stroke="#80d6ff" stroke-width="1.51"></path><path d="M-61,203L-10,278L56,260Z" fill="#54988a" stroke="#54988a" stroke-width="1.51"></path><path d="M56,260L-10,278L316,247Z" fill="#33743f" stroke="#33743f" stroke-width="1.51"></path><path d="M-98,11L-109,110L-21,78Z" fill="#69b1b1" stroke="#69b1b1" stroke-width="1.51"></path><path d="M430,197L433,263L417,-101Z" fill="#246628" stroke="#246628" stroke-width="1.51"></path><path d="M316,247L433,263L430,197Z" fill="#1b5e20" stroke="#1b5e20" stroke-width="1.51"></path><path d="M-10,278L433,263L316,247Z" fill="#206225" stroke="#206225" stroke-width="1.51"></path><path d="M-98,11L-97,-90L-109,110Z" fill="#7dd0f2" stroke="#7dd0f2" stroke-width="1.51"></path><path d="M-14,-72L-97,-90L-62,-19Z" fill="#80d6ff" stroke="#80d6ff" stroke-width="1.51"></path><path d="M173,-113L-97,-90L-14,-72Z" fill="#7ccff0" stroke="#7ccff0" stroke-width="1.51"></path><path d="M-97,-90L-119,172L-109,110Z" fill="#69b3b4" stroke="#69b3b4" stroke-width="1.51"></path><path d="M-109,110L-119,172L-61,203Z" fill="#569a8d" stroke="#569a8d" stroke-width="1.51"></path><path d="M-61,203L-120,290L-10,278Z" fill="#54988a" stroke="#54988a" stroke-width="1.51"></path><path d="M-119,172L-120,290L-61,203Z" fill="#54988a" stroke="#54988a" stroke-width="1.51"></path><path d="M-10,278L-120,290L433,263Z" fill="#397a4b" stroke="#397a4b" stroke-width="1.51"></path></svg>