<svg width="300" height="176" xmlns="http://www.w3.org/2000/svg"><path d="M-113,-103L-39,-93L165,-120Z" fill="#77b97b" stroke="#77b97b" stroke-width="1.51"></path><path d="M165,-120L239,-79L361,-83Z" fill="#599b5d" stroke="#599b5d" stroke-width="1.51"></path><path d="M140,272L-31,289L413,263Z" fill="#2a6c2e" stroke="#2a6c2e" stroke-width="1.51"></path><path d="M306,236L260,239L413,263Z" fill="#256729" stroke="#256729" stroke-width="1.51"></path><path d="M260,239L140,272L413,263Z" fill="#27692b" stroke="#27692b" stroke-width="1.51"></path><path d="M351,-14L417,121L429,-11Z" fill="#38793b" stroke="#38793b" stroke-width="1.51"></path><path d="M165,-120L361,-83L442,-78Z" fill="#57985a" stroke="#57985a" stroke-width="1.51"></path><path d="M417,121L333,211L451,196Z" fill="#26682a" stroke="#26682a" stroke-width="1.51"></path><path d="M333,211L413,263L451,196Z" fill="#246527" stroke="#246527" stroke-width="1.51"></path><path d="M442,-78L429,-11L451,196Z" fill="#357739" stroke="#357739" stroke-width="1.51"></path><path d="M429,-11L417,121L451,196Z" fill="#296b2d" stroke="#296b2d" stroke-width="1.51"></path><path d="M351,-14L298,86L417,121Z" fill="#327436" stroke="#327436" stroke-width="1.51"></path><path d="M361,-83L429,-11L442,-78Z" fill="#4b8c4e" stroke="#4b8c4e" stroke-width="1.51"></path><path d="M361,-83L351,-14L429,-11Z" fill="#48894b" stroke="#48894b" stroke-width="1.51"></path><path d="M298,86L333,211L417,121Z" fill="#2a6c2f" stroke="#2a6c2f" stroke-width="1.51"></path><path d="M333,211L306,236L413,263Z" fill="#256729" stroke="#256729" stroke-width="1.51"></path><path d="M298,86L262,172L333,211Z" fill="#2b6e30" stroke="#2b6e30" stroke-width="1.51"></path><path d="M245,28L298,86L351,-14Z" fill="#3b7e3f" stroke="#3b7e3f" stroke-width="1.51"></path><path d="M239,-79L351,-14L361,-83Z" fill="#4f9152" stroke="#4f9152" stroke-width="1.51"></path><path d="M239,-79L245,28L351,-14Z" fill="#498a4c" stroke="#498a4c" stroke-width="1.51"></path><path d="M269,91L262,172L298,86Z" fill="#2f7133" stroke="#2f7133" stroke-width="1.51"></path><path d="M262,172L306,236L333,211Z" fill="#296a2d" stroke="#296a2d" stroke-width="1.51"></path><path d="M245,28L269,91L298,86Z" fill="#357739" stroke="#357739" stroke-width="1.51"></path><path d="M262,172L260,239L306,236Z" fill="#296b2e" stroke="#296b2e" stroke-width="1.51"></path><path d="M239,-79L155,8L245,28Z" fill="#4a8c4d" stroke="#4a8c4d" stroke-width="1.51"></path><path d="M170,191L260,239L262,172Z" fill="#2c6e30" stroke="#2c6e30" stroke-width="1.51"></path><path d="M245,28L141,72L269,91Z" fill="#387a3c" stroke="#387a3c" stroke-width="1.51"></path><path d="M170,191L262,172L269,91Z" fill="#2e7133" stroke="#2e7133" stroke-width="1.51"></path><path d="M141,72L170,191L269,91Z" fill="#327437" stroke="#327437" stroke-width="1.51"></path><path d="M170,191L140,272L260,239Z" fill="#2c6e30" stroke="#2c6e30" stroke-width="1.51"></path><path d="M155,8L141,72L245,28Z" fill="#408143" stroke="#408143" stroke-width="1.51"></path><path d="M165,-120L155,8L239,-79Z" fill="#569759" stroke="#569759" stroke-width="1.51"></path><path d="M90,68L62,188L141,72Z" fill="#3d7e41" stroke="#3d7e41" stroke-width="1.51"></path><path d="M45,-68L51,-12L155,8Z" fill="#589a5c" stroke="#589a5c" stroke-width="1.51"></path><path d="M-39,-93L45,-68L165,-120Z" fill="#6caf70" stroke="#6caf70" stroke-width="1.51"></path><path d="M45,-68L155,8L165,-120Z" fill="#5a9d5e" stroke="#5a9d5e" stroke-width="1.51"></path><path d="M76,234L140,272L170,191Z" fill="#317334" stroke="#317334" stroke-width="1.51"></path><path d="M62,188L76,234L170,191Z" fill="#36783a" stroke="#36783a" stroke-width="1.51"></path><path d="M141,72L62,188L170,191Z" fill="#36783a" stroke="#36783a" stroke-width="1.51"></path><path d="M76,234L-31,289L140,272Z" fill="#397b3d" stroke="#397b3d" stroke-width="1.51"></path><path d="M90,68L141,72L155,8Z" fill="#418445" stroke="#418445" stroke-width="1.51"></path><path d="M51,-12L90,68L155,8Z" fill="#4c8e50" stroke="#4c8e50" stroke-width="1.51"></path><path d="M-11,72L62,188L90,68Z" fill="#458649" stroke="#458649" stroke-width="1.51"></path><path d="M51,-12L-11,72L90,68Z" fill="#509254" stroke="#509254" stroke-width="1.51"></path><path d="M-11,72L-63,162L62,188Z" fill="#4b8d4e" stroke="#4b8d4e" stroke-width="1.51"></path><path d="M62,188L-31,289L76,234Z" fill="#3f8143" stroke="#3f8143" stroke-width="1.51"></path><path d="M-63,162L-31,289L62,188Z" fill="#48894b" stroke="#48894b" stroke-width="1.51"></path><path d="M-39,-93L-51,9L45,-68Z" fill="#6eb072" stroke="#6eb072" stroke-width="1.51"></path><path d="M45,-68L-51,9L51,-12Z" fill="#63a567" stroke="#63a567" stroke-width="1.51"></path><path d="M-51,9L-11,72L51,-12Z" fill="#5c9e60" stroke="#5c9e60" stroke-width="1.51"></path><path d="M-97,-25L-51,9L-39,-93Z" fill="#72b576" stroke="#72b576" stroke-width="1.51"></path><path d="M-63,162L-102,204L-31,289Z" fill="#509253" stroke="#509253" stroke-width="1.51"></path><path d="M-102,204L-117,242L-31,289Z" fill="#519355" stroke="#519355" stroke-width="1.51"></path><path d="M-51,9L-87,68L-11,72Z" fill="#5d9f61" stroke="#5d9f61" stroke-width="1.51"></path><path d="M-87,68L-63,162L-11,72Z" fill="#559759" stroke="#559759" stroke-width="1.51"></path><path d="M-113,-103L-97,-25L-39,-93Z" fill="#7ec182" stroke="#7ec182" stroke-width="1.51"></path><path d="M-97,-25L-87,68L-51,9Z" fill="#69ab6d" stroke="#69ab6d" stroke-width="1.51"></path><path d="M-87,68L-102,204L-63,162Z" fill="#57995a" stroke="#57995a" stroke-width="1.51"></path><path d="M-97,-25L-117,242L-87,68Z" fill="#5c9e60" stroke="#5c9e60" stroke-width="1.51"></path><path d="M-117,242L-102,204L-87,68Z" fill="#589a5c" stroke="#589a5c" stroke-width="1.51"></path><path d="M-113,-103L-117,242L-97,-25Z" fill="#69ac6d" stroke="#69ac6d" stroke-width="1.51"></path></svg>