<svg width="300" height="176" xmlns="http://www.w3.org/2000/svg"><path d="M156,96L90,112L158,197Z" fill="#35773c" stroke="#35773c" stroke-width="1.51"></path><path d="M158,197L215,165L156,96Z" fill="#317335" stroke="#317335" stroke-width="1.51"></path><path d="M90,112L51,182L158,197Z" fill="#397a44" stroke="#397a44" stroke-width="1.51"></path><path d="M158,197L170,249L215,165Z" fill="#2e7032" stroke="#2e7032" stroke-width="1.51"></path><path d="M49,257L170,249L158,197Z" fill="#317339" stroke="#317339" stroke-width="1.51"></path><path d="M215,165L266,109L156,96Z" fill="#317335" stroke="#317335" stroke-width="1.51"></path><path d="M335,148L266,109L215,165Z" fill="#2d7032" stroke="#2d7032" stroke-width="1.51"></path><path d="M51,182L49,257L158,197Z" fill="#387a46" stroke="#387a46" stroke-width="1.51"></path><path d="M51,182L-11,172L49,257Z" fill="#418357" stroke="#418357" stroke-width="1.51"></path><path d="M-9,110L-11,172L51,182Z" fill="#47885f" stroke="#47885f" stroke-width="1.51"></path><path d="M90,112L-9,110L51,182Z" fill="#438557" stroke="#438557" stroke-width="1.51"></path><path d="M58,-6L-9,110L90,112Z" fill="#488a5f" stroke="#488a5f" stroke-width="1.51"></path><path d="M156,96L58,-6L90,112Z" fill="#418351" stroke="#418351" stroke-width="1.51"></path><path d="M266,109L164,-6L156,96Z" fill="#387a41" stroke="#387a41" stroke-width="1.51"></path><path d="M164,-6L58,-6L156,96Z" fill="#46875a" stroke="#46875a" stroke-width="1.51"></path><path d="M170,249L263,292L215,165Z" fill="#2a6c2f" stroke="#2a6c2f" stroke-width="1.51"></path><path d="M-4,299L263,292L170,249Z" fill="#2b6e31" stroke="#2b6e31" stroke-width="1.51"></path><path d="M263,292L335,148L215,165Z" fill="#2a6c2e" stroke="#2a6c2e" stroke-width="1.51"></path><path d="M266,109L265,-19L164,-6Z" fill="#3f804f" stroke="#3f804f" stroke-width="1.51"></path><path d="M335,148L325,78L266,109Z" fill="#2d7032" stroke="#2d7032" stroke-width="1.51"></path><path d="M49,257L-4,299L170,249Z" fill="#377947" stroke="#377947" stroke-width="1.51"></path><path d="M-11,172L-4,299L49,257Z" fill="#42835a" stroke="#42835a" stroke-width="1.51"></path><path d="M164,-6L155,-61L58,-6Z" fill="#509270" stroke="#509270" stroke-width="1.51"></path><path d="M265,-19L155,-61L164,-6Z" fill="#4b8e69" stroke="#4b8e69" stroke-width="1.51"></path><path d="M325,78L265,-19L266,109Z" fill="#377942" stroke="#377942" stroke-width="1.51"></path><path d="M-9,110L-109,160L-11,172Z" fill="#4e9070" stroke="#4e9070" stroke-width="1.51"></path><path d="M-11,172L-135,245L-4,299Z" fill="#4a8c6d" stroke="#4a8c6d" stroke-width="1.51"></path><path d="M-61,4L-90,75L-9,110Z" fill="#579b81" stroke="#579b81" stroke-width="1.51"></path><path d="M-61,4L-9,110L58,-6Z" fill="#55997e" stroke="#55997e" stroke-width="1.51"></path><path d="M-32,-93L-61,4L58,-6Z" fill="#62a89d" stroke="#62a89d" stroke-width="1.51"></path><path d="M-90,75L-109,160L-9,110Z" fill="#53967a" stroke="#53967a" stroke-width="1.51"></path><path d="M325,78L349,12L265,-19Z" fill="#3d7e4e" stroke="#3d7e4e" stroke-width="1.51"></path><path d="M230,-102L69,-106L155,-61Z" fill="#589c84" stroke="#589c84" stroke-width="1.51"></path><path d="M413,80L349,12L325,78Z" fill="#34753e" stroke="#34753e" stroke-width="1.51"></path><path d="M335,148L413,80L325,78Z" fill="#2c6e30" stroke="#2c6e30" stroke-width="1.51"></path><path d="M263,292L347,293L335,148Z" fill="#26682a" stroke="#26682a" stroke-width="1.51"></path><path d="M-4,299L347,293L263,292Z" fill="#276a2c" stroke="#276a2c" stroke-width="1.51"></path><path d="M155,-61L69,-106L58,-6Z" fill="#599e88" stroke="#599e88" stroke-width="1.51"></path><path d="M230,-102L155,-61L265,-19Z" fill="#519375" stroke="#519375" stroke-width="1.51"></path><path d="M347,293L388,211L335,148Z" fill="#25682a" stroke="#25682a" stroke-width="1.51"></path><path d="M298,-70L230,-102L265,-19Z" fill="#4f9175" stroke="#4f9175" stroke-width="1.51"></path><path d="M349,12L298,-70L265,-19Z" fill="#478863" stroke="#478863" stroke-width="1.51"></path><path d="M347,293L386,276L388,211Z" fill="#226427" stroke="#226427" stroke-width="1.51"></path><path d="M-130,-3L-135,245L-109,160Z" fill="#599d8a" stroke="#599d8a" stroke-width="1.51"></path><path d="M-109,160L-135,245L-11,172Z" fill="#51947a" stroke="#51947a" stroke-width="1.51"></path><path d="M349,12L426,-62L298,-70Z" fill="#478967" stroke="#478967" stroke-width="1.51"></path><path d="M388,211L413,80L335,148Z" fill="#296b2d" stroke="#296b2d" stroke-width="1.51"></path><path d="M386,276L413,80L388,211Z" fill="#26682a" stroke="#26682a" stroke-width="1.51"></path><path d="M69,-106L-32,-93L58,-6Z" fill="#63a9a0" stroke="#63a9a0" stroke-width="1.51"></path><path d="M-61,4L-130,-3L-90,75Z" fill="#62a89e" stroke="#62a89e" stroke-width="1.51"></path><path d="M-95,-116L-130,-3L-61,4Z" fill="#6cb6bb" stroke="#6cb6bb" stroke-width="1.51"></path><path d="M-90,75L-130,-3L-109,160Z" fill="#5ba08c" stroke="#5ba08c" stroke-width="1.51"></path><path d="M413,80L423,-19L349,12Z" fill="#397b4a" stroke="#397b4a" stroke-width="1.51"></path><path d="M298,-70L426,-62L230,-102Z" fill="#509378" stroke="#509378" stroke-width="1.51"></path><path d="M-32,-93L-95,-116L-61,4Z" fill="#6db7be" stroke="#6db7be" stroke-width="1.51"></path><path d="M69,-106L-95,-116L-32,-93Z" fill="#6eb8c0" stroke="#6eb8c0" stroke-width="1.51"></path><path d="M230,-102L-95,-116L69,-106Z" fill="#65aca6" stroke="#65aca6" stroke-width="1.51"></path><path d="M423,-19L426,-62L349,12Z" fill="#43835d" stroke="#43835d" stroke-width="1.51"></path></svg>