<svg width="300" height="176" xmlns="http://www.w3.org/2000/svg"><path d="M128,56L70,26L55,58Z" fill="#5da190" stroke="#5da190" stroke-width="1.51"></path><path d="M128,56L137,-33L70,26Z" fill="#63a9a0" stroke="#63a9a0" stroke-width="1.51"></path><path d="M55,58L85,169L128,56Z" fill="#47895f" stroke="#47895f" stroke-width="1.51"></path><path d="M-48,-28L2,103L55,58Z" fill="#71bdc9" stroke="#71bdc9" stroke-width="1.51"></path><path d="M2,103L85,169L55,58Z" fill="#519377" stroke="#519377" stroke-width="1.51"></path><path d="M85,169L138,174L128,56Z" fill="#3a7b48" stroke="#3a7b48" stroke-width="1.51"></path><path d="M223,-16L151,-73L137,-33Z" fill="#5fa497" stroke="#5fa497" stroke-width="1.51"></path><path d="M137,-33L3,-65L70,26Z" fill="#72bfcf" stroke="#72bfcf" stroke-width="1.51"></path><path d="M70,26L-48,-28L55,58Z" fill="#75c3d7" stroke="#75c3d7" stroke-width="1.51"></path><path d="M223,-16L137,-33L128,56Z" fill="#5ea395" stroke="#5ea395" stroke-width="1.51"></path><path d="M2,103L-22,148L85,169Z" fill="#549783" stroke="#549783" stroke-width="1.51"></path><path d="M58,-115L3,-65L137,-33Z" fill="#73c1d1" stroke="#73c1d1" stroke-width="1.51"></path><path d="M2,103L-110,69L-22,148Z" fill="#5ea396" stroke="#5ea396" stroke-width="1.51"></path><path d="M263,106L223,-16L128,56Z" fill="#46875f" stroke="#46875f" stroke-width="1.51"></path><path d="M3,-65L-48,-28L70,26Z" fill="#7fd3f9" stroke="#7fd3f9" stroke-width="1.51"></path><path d="M151,-73L58,-115L137,-33Z" fill="#68b1b0" stroke="#68b1b0" stroke-width="1.51"></path><path d="M-122,-103L-108,3L-48,-28Z" fill="#80d6ff" stroke="#80d6ff" stroke-width="1.51"></path><path d="M138,174L263,106L128,56Z" fill="#307234" stroke="#307234" stroke-width="1.51"></path><path d="M138,174L254,152L263,106Z" fill="#28692b" stroke="#28692b" stroke-width="1.51"></path><path d="M-48,-28L-110,69L2,103Z" fill="#70bcc6" stroke="#70bcc6" stroke-width="1.51"></path><path d="M-48,-28L-108,3L-110,69Z" fill="#7bceed" stroke="#7bceed" stroke-width="1.51"></path><path d="M-122,-103L-48,-28L3,-65Z" fill="#80d6ff" stroke="#80d6ff" stroke-width="1.51"></path><path d="M138,174L149,270L254,152Z" fill="#26682a" stroke="#26682a" stroke-width="1.51"></path><path d="M85,169L149,270L138,174Z" fill="#32733d" stroke="#32733d" stroke-width="1.51"></path><path d="M44,282L149,270L85,169Z" fill="#3b7c50" stroke="#3b7c50" stroke-width="1.51"></path><path d="M223,-16L230,-120L151,-73Z" fill="#5ca194" stroke="#5ca194" stroke-width="1.51"></path><path d="M151,-73L230,-120L58,-115Z" fill="#61a79c" stroke="#61a79c" stroke-width="1.51"></path><path d="M325,-86L230,-120L223,-16Z" fill="#579c8e" stroke="#579c8e" stroke-width="1.51"></path><path d="M263,106L318,89L223,-16Z" fill="#3b7c4e" stroke="#3b7c4e" stroke-width="1.51"></path><path d="M254,152L318,89L263,106Z" fill="#26692b" stroke="#26692b" stroke-width="1.51"></path><path d="M314,205L318,89L254,152Z" fill="#206225" stroke="#206225" stroke-width="1.51"></path><path d="M-24,261L85,169L-22,148Z" fill="#519482" stroke="#519482" stroke-width="1.51"></path><path d="M-24,261L44,282L85,169Z" fill="#4b8d74" stroke="#4b8d74" stroke-width="1.51"></path><path d="M-129,194L-24,261L-22,148Z" fill="#54988a" stroke="#54988a" stroke-width="1.51"></path><path d="M-110,69L-129,194L-22,148Z" fill="#599e91" stroke="#599e91" stroke-width="1.51"></path><path d="M-122,-103L-129,194L-110,69Z" fill="#6eb9c0" stroke="#6eb9c0" stroke-width="1.51"></path><path d="M318,89L342,-20L223,-16Z" fill="#4d8f78" stroke="#4d8f78" stroke-width="1.51"></path><path d="M-108,3L-122,-103L-110,69Z" fill="#80d6ff" stroke="#80d6ff" stroke-width="1.51"></path><path d="M58,-115L-122,-103L3,-65Z" fill="#80d6ff" stroke="#80d6ff" stroke-width="1.51"></path><path d="M318,89L419,28L342,-20Z" fill="#468767" stroke="#468767" stroke-width="1.51"></path><path d="M216,298L314,205L254,152Z" fill="#1f6124" stroke="#1f6124" stroke-width="1.51"></path><path d="M44,282L216,298L149,270Z" fill="#2d6f35" stroke="#2d6f35" stroke-width="1.51"></path><path d="M149,270L216,298L254,152Z" fill="#246628" stroke="#246628" stroke-width="1.51"></path><path d="M342,-20L325,-86L223,-16Z" fill="#55998b" stroke="#55998b" stroke-width="1.51"></path><path d="M-129,194L-107,280L-24,261Z" fill="#54988a" stroke="#54988a" stroke-width="1.51"></path><path d="M-24,261L-107,280L44,282Z" fill="#54988a" stroke="#54988a" stroke-width="1.51"></path><path d="M44,282L-107,280L216,298Z" fill="#47886a" stroke="#47886a" stroke-width="1.51"></path><path d="M216,298L335,251L314,205Z" fill="#1c5f21" stroke="#1c5f21" stroke-width="1.51"></path><path d="M424,82L419,28L318,89Z" fill="#357644" stroke="#357644" stroke-width="1.51"></path><path d="M342,-20L449,-112L325,-86Z" fill="#54988a" stroke="#54988a" stroke-width="1.51"></path><path d="M424,82L318,89L428,160Z" fill="#256729" stroke="#256729" stroke-width="1.51"></path><path d="M428,160L318,89L314,205Z" fill="#1f6124" stroke="#1f6124" stroke-width="1.51"></path><path d="M394,237L428,160L314,205Z" fill="#1b5e20" stroke="#1b5e20" stroke-width="1.51"></path><path d="M335,251L394,237L314,205Z" fill="#1b5e20" stroke="#1b5e20" stroke-width="1.51"></path><path d="M216,298L394,237L335,251Z" fill="#1b5e20" stroke="#1b5e20" stroke-width="1.51"></path><path d="M419,28L449,-112L342,-20Z" fill="#54988a" stroke="#54988a" stroke-width="1.51"></path><path d="M325,-86L449,-112L230,-120Z" fill="#54988a" stroke="#54988a" stroke-width="1.51"></path><path d="M424,82L449,-112L419,28Z" fill="#54988a" stroke="#54988a" stroke-width="1.51"></path><path d="M428,160L449,-112L424,82Z" fill="#41825c" stroke="#41825c" stroke-width="1.51"></path></svg>