<svg width="300" height="176" xmlns="http://www.w3.org/2000/svg"><path d="M165,96L240,78L229,27Z" fill="#377941" stroke="#377941" stroke-width="1.51"></path><path d="M229,27L117,5L165,96Z" fill="#3e804c" stroke="#3e804c" stroke-width="1.51"></path><path d="M165,96L244,146L240,78Z" fill="#327436" stroke="#327436" stroke-width="1.51"></path><path d="M165,96L153,183L244,146Z" fill="#317335" stroke="#317335" stroke-width="1.51"></path><path d="M36,150L153,183L165,96Z" fill="#377941" stroke="#377941" stroke-width="1.51"></path><path d="M244,146L337,104L240,78Z" fill="#2f7134" stroke="#2f7134" stroke-width="1.51"></path><path d="M240,78L342,6L229,27Z" fill="#3b7d4a" stroke="#3b7d4a" stroke-width="1.51"></path><path d="M229,27L132,-90L117,5Z" fill="#4b8d66" stroke="#4b8d66" stroke-width="1.51"></path><path d="M337,104L342,6L240,78Z" fill="#34763e" stroke="#34763e" stroke-width="1.51"></path><path d="M117,5L38,80L165,96Z" fill="#428353" stroke="#428353" stroke-width="1.51"></path><path d="M225,-122L132,-90L229,27Z" fill="#529477" stroke="#529477" stroke-width="1.51"></path><path d="M117,5L29,28L38,80Z" fill="#4d8f69" stroke="#4d8f69" stroke-width="1.51"></path><path d="M65,-76L29,28L117,5Z" fill="#55987c" stroke="#55987c" stroke-width="1.51"></path><path d="M429,71L396,-26L342,6Z" fill="#3b7c4d" stroke="#3b7c4d" stroke-width="1.51"></path><path d="M244,146L341,161L337,104Z" fill="#2c6e30" stroke="#2c6e30" stroke-width="1.51"></path><path d="M252,237L341,161L244,146Z" fill="#2b6d2f" stroke="#2b6d2f" stroke-width="1.51"></path><path d="M38,80L36,150L165,96Z" fill="#3f814e" stroke="#3f814e" stroke-width="1.51"></path><path d="M-12,121L36,150L38,80Z" fill="#47895f" stroke="#47895f" stroke-width="1.51"></path><path d="M153,183L252,237L244,146Z" fill="#2d6f31" stroke="#2d6f31" stroke-width="1.51"></path><path d="M124,281L252,237L153,183Z" fill="#2c6e30" stroke="#2c6e30" stroke-width="1.51"></path><path d="M342,6L225,-122L229,27Z" fill="#498b66" stroke="#498b66" stroke-width="1.51"></path><path d="M-126,-88L65,-76L132,-90Z" fill="#66aeaa" stroke="#66aeaa" stroke-width="1.51"></path><path d="M132,-90L65,-76L117,5Z" fill="#579b83" stroke="#579b83" stroke-width="1.51"></path><path d="M65,-76L-1,-17L29,28Z" fill="#5b9f8c" stroke="#5b9f8c" stroke-width="1.51"></path><path d="M29,28L-12,121L38,80Z" fill="#4b8d66" stroke="#4b8d66" stroke-width="1.51"></path><path d="M-90,25L-12,121L29,28Z" fill="#54977b" stroke="#54977b" stroke-width="1.51"></path><path d="M342,6L350,-123L225,-122Z" fill="#519379" stroke="#519379" stroke-width="1.51"></path><path d="M429,71L342,6L337,104Z" fill="#33743c" stroke="#33743c" stroke-width="1.51"></path><path d="M341,161L393,172L337,104Z" fill="#2a6c2e" stroke="#2a6c2e" stroke-width="1.51"></path><path d="M252,237L319,250L341,161Z" fill="#286a2c" stroke="#286a2c" stroke-width="1.51"></path><path d="M319,250L393,172L341,161Z" fill="#27692b" stroke="#27692b" stroke-width="1.51"></path><path d="M-36,279L67,250L36,150Z" fill="#418258" stroke="#418258" stroke-width="1.51"></path><path d="M36,150L67,250L153,183Z" fill="#3a7b47" stroke="#3a7b47" stroke-width="1.51"></path><path d="M252,237L124,281L319,250Z" fill="#296a2d" stroke="#296a2d" stroke-width="1.51"></path><path d="M-134,60L-62,168L-12,121Z" fill="#53967a" stroke="#53967a" stroke-width="1.51"></path><path d="M65,-76L0,-59L-1,-17Z" fill="#61a79b" stroke="#61a79b" stroke-width="1.51"></path><path d="M-126,-88L0,-59L65,-76Z" fill="#69b2b3" stroke="#69b2b3" stroke-width="1.51"></path><path d="M396,-26L392,-62L342,6Z" fill="#458560" stroke="#458560" stroke-width="1.51"></path><path d="M67,250L124,281L153,183Z" fill="#32743c" stroke="#32743c" stroke-width="1.51"></path><path d="M393,172L429,71L337,104Z" fill="#2a6c2e" stroke="#2a6c2e" stroke-width="1.51"></path><path d="M396,-26L429,71L392,-62Z" fill="#3f8056" stroke="#3f8056" stroke-width="1.51"></path><path d="M392,-62L350,-123L342,6Z" fill="#4b8d6f" stroke="#4b8d6f" stroke-width="1.51"></path><path d="M-90,25L29,28L-1,-17Z" fill="#5ca08d" stroke="#5ca08d" stroke-width="1.51"></path><path d="M-12,121L-62,168L36,150Z" fill="#4a8c67" stroke="#4a8c67" stroke-width="1.51"></path><path d="M0,-59L-90,25L-1,-17Z" fill="#62a89c" stroke="#62a89c" stroke-width="1.51"></path><path d="M393,172L417,257L429,71Z" fill="#26682a" stroke="#26682a" stroke-width="1.51"></path><path d="M319,250L417,257L393,172Z" fill="#246628" stroke="#246628" stroke-width="1.51"></path><path d="M124,281L417,257L319,250Z" fill="#26682a" stroke="#26682a" stroke-width="1.51"></path><path d="M-62,168L-36,279L36,150Z" fill="#488a66" stroke="#488a66" stroke-width="1.51"></path><path d="M67,250L-36,279L124,281Z" fill="#3b7b4d" stroke="#3b7b4d" stroke-width="1.51"></path><path d="M-62,168L-99,199L-36,279Z" fill="#4e8f73" stroke="#4e8f73" stroke-width="1.51"></path><path d="M-134,60L-99,199L-62,168Z" fill="#559981" stroke="#559981" stroke-width="1.51"></path><path d="M-90,25L-134,60L-12,121Z" fill="#599d87" stroke="#599d87" stroke-width="1.51"></path><path d="M-126,-88L-134,60L-90,25Z" fill="#68b1b1" stroke="#68b1b1" stroke-width="1.51"></path><path d="M0,-59L-126,-88L-90,25Z" fill="#6ab3b4" stroke="#6ab3b4" stroke-width="1.51"></path><path d="M225,-122L-126,-88L132,-90Z" fill="#62a9a0" stroke="#62a9a0" stroke-width="1.51"></path><path d="M-99,199L-152,273L-36,279Z" fill="#4f9279" stroke="#4f9279" stroke-width="1.51"></path><path d="M-134,60L-152,273L-99,199Z" fill="#579b88" stroke="#579b88" stroke-width="1.51"></path><path d="M-126,-88L-152,273L-134,60Z" fill="#5ea393" stroke="#5ea393" stroke-width="1.51"></path></svg>