<svg width="300" height="176" xmlns="http://www.w3.org/2000/svg"><path d="M173,92L238,77L234,15Z" fill="#397b43" stroke="#397b43" stroke-width="1.51"></path><path d="M234,15L159,2L173,92Z" fill="#3f814e" stroke="#3f814e" stroke-width="1.51"></path><path d="M173,92L160,163L238,77Z" fill="#327537" stroke="#327537" stroke-width="1.51"></path><path d="M47,70L160,163L173,92Z" fill="#387a40" stroke="#387a40" stroke-width="1.51"></path><path d="M159,2L51,28L173,92Z" fill="#438454" stroke="#438454" stroke-width="1.51"></path><path d="M51,28L47,70L173,92Z" fill="#448556" stroke="#448556" stroke-width="1.51"></path><path d="M160,163L230,200L238,77Z" fill="#2f7234" stroke="#2f7234" stroke-width="1.51"></path><path d="M209,-119L120,-100L159,2Z" fill="#55987c" stroke="#55987c" stroke-width="1.51"></path><path d="M159,2L68,-100L51,28Z" fill="#54967a" stroke="#54967a" stroke-width="1.51"></path><path d="M234,15L209,-119L159,2Z" fill="#4c8f6b" stroke="#4c8f6b" stroke-width="1.51"></path><path d="M238,77L361,-4L234,15Z" fill="#3d7e4d" stroke="#3d7e4d" stroke-width="1.51"></path><path d="M234,15L327,-99L209,-119Z" fill="#509376" stroke="#509376" stroke-width="1.51"></path><path d="M330,161L359,104L238,77Z" fill="#2d7032" stroke="#2d7032" stroke-width="1.51"></path><path d="M359,104L361,-4L238,77Z" fill="#35773f" stroke="#35773f" stroke-width="1.51"></path><path d="M230,200L330,161L238,77Z" fill="#2e6f31" stroke="#2e6f31" stroke-width="1.51"></path><path d="M47,70L57,174L160,163Z" fill="#3c7e49" stroke="#3c7e49" stroke-width="1.51"></path><path d="M160,163L136,262L230,200Z" fill="#2d7032" stroke="#2d7032" stroke-width="1.51"></path><path d="M361,-4L327,-99L234,15Z" fill="#478964" stroke="#478964" stroke-width="1.51"></path><path d="M120,-100L68,-100L159,2Z" fill="#599c85" stroke="#599c85" stroke-width="1.51"></path><path d="M209,-119L68,-100L120,-100Z" fill="#5da291" stroke="#5da291" stroke-width="1.51"></path><path d="M47,70L-15,177L57,174Z" fill="#44865b" stroke="#44865b" stroke-width="1.51"></path><path d="M51,28L-21,69L47,70Z" fill="#4e906d" stroke="#4e906d" stroke-width="1.51"></path><path d="M-50,-26L-21,69L51,28Z" fill="#589c84" stroke="#589c84" stroke-width="1.51"></path><path d="M230,200L341,236L330,161Z" fill="#296b2e" stroke="#296b2e" stroke-width="1.51"></path><path d="M57,174L136,262L160,163Z" fill="#34763d" stroke="#34763d" stroke-width="1.51"></path><path d="M136,262L238,277L230,200Z" fill="#2a6d2f" stroke="#2a6d2f" stroke-width="1.51"></path><path d="M330,161L408,174L359,104Z" fill="#2a6b2d" stroke="#2a6b2d" stroke-width="1.51"></path><path d="M238,277L341,236L230,200Z" fill="#286a2c" stroke="#286a2c" stroke-width="1.51"></path><path d="M68,-100L-5,-77L51,28Z" fill="#5fa496" stroke="#5fa496" stroke-width="1.51"></path><path d="M341,236L408,174L330,161Z" fill="#27692b" stroke="#27692b" stroke-width="1.51"></path><path d="M443,83L442,15L361,-4Z" fill="#377846" stroke="#377846" stroke-width="1.51"></path><path d="M361,-4L422,-93L327,-99Z" fill="#4c8e70" stroke="#4c8e70" stroke-width="1.51"></path><path d="M443,83L361,-4L359,104Z" fill="#32733b" stroke="#32733b" stroke-width="1.51"></path><path d="M57,174L42,261L136,262Z" fill="#397a47" stroke="#397a47" stroke-width="1.51"></path><path d="M-21,69L-15,177L47,70Z" fill="#4a8c64" stroke="#4a8c64" stroke-width="1.51"></path><path d="M408,174L443,83L359,104Z" fill="#296b2d" stroke="#296b2d" stroke-width="1.51"></path><path d="M-5,-77L-50,-26L51,28Z" fill="#60a597" stroke="#60a597" stroke-width="1.51"></path><path d="M-21,69L-88,81L-15,177Z" fill="#509372" stroke="#509372" stroke-width="1.51"></path><path d="M-15,177L42,261L57,174Z" fill="#428257" stroke="#428257" stroke-width="1.51"></path><path d="M136,262L-58,277L238,277Z" fill="#32743d" stroke="#32743d" stroke-width="1.51"></path><path d="M442,15L422,-93L361,-4Z" fill="#43845f" stroke="#43845f" stroke-width="1.51"></path><path d="M327,-99L422,-93L209,-119Z" fill="#549883" stroke="#549883" stroke-width="1.51"></path><path d="M-15,177L-58,277L42,261Z" fill="#458661" stroke="#458661" stroke-width="1.51"></path><path d="M-50,-26L-88,81L-21,69Z" fill="#5b9f8b" stroke="#5b9f8b" stroke-width="1.51"></path><path d="M408,174L419,261L443,83Z" fill="#266729" stroke="#266729" stroke-width="1.51"></path><path d="M341,236L419,261L408,174Z" fill="#246628" stroke="#246628" stroke-width="1.51"></path><path d="M238,277L419,261L341,236Z" fill="#246628" stroke="#246628" stroke-width="1.51"></path><path d="M-88,81L-110,144L-15,177Z" fill="#529579" stroke="#529579" stroke-width="1.51"></path><path d="M-131,254L-58,277L-15,177Z" fill="#4c8f72" stroke="#4c8f72" stroke-width="1.51"></path><path d="M42,261L-58,277L136,262Z" fill="#3d7d50" stroke="#3d7d50" stroke-width="1.51"></path><path d="M-50,-26L-154,-5L-88,81Z" fill="#64aba3" stroke="#64aba3" stroke-width="1.51"></path><path d="M-88,81L-154,-5L-110,144Z" fill="#5da290" stroke="#5da290" stroke-width="1.51"></path><path d="M-154,-93L-154,-5L-50,-26Z" fill="#6fbac4" stroke="#6fbac4" stroke-width="1.51"></path><path d="M-5,-77L-154,-93L-50,-26Z" fill="#6eb8be" stroke="#6eb8be" stroke-width="1.51"></path><path d="M68,-100L-154,-93L-5,-77Z" fill="#6db7bd" stroke="#6db7bd" stroke-width="1.51"></path><path d="M209,-119L-154,-93L68,-100Z" fill="#67b0ac" stroke="#67b0ac" stroke-width="1.51"></path><path d="M-110,144L-131,254L-15,177Z" fill="#51947a" stroke="#51947a" stroke-width="1.51"></path><path d="M-154,-5L-131,254L-110,144Z" fill="#5a9e8c" stroke="#5a9e8c" stroke-width="1.51"></path></svg>