<svg width="300" height="176" xmlns="http://www.w3.org/2000/svg"><path d="M-2,-118L80,-110L238,-110Z" fill="#69ab6d" stroke="#69ab6d" stroke-width="1.51"></path><path d="M61,288L-54,296L315,300Z" fill="#317234" stroke="#317234" stroke-width="1.51"></path><path d="M137,272L61,288L315,300Z" fill="#296b2d" stroke="#296b2d" stroke-width="1.51"></path><path d="M238,-110L326,-69L409,-80Z" fill="#559658" stroke="#559658" stroke-width="1.51"></path><path d="M409,-80L348,14L421,11Z" fill="#438446" stroke="#438446" stroke-width="1.51"></path><path d="M396,81L357,99L438,209Z" fill="#296b2d" stroke="#296b2d" stroke-width="1.51"></path><path d="M316,159L433,246L438,209Z" fill="#256729" stroke="#256729" stroke-width="1.51"></path><path d="M357,99L316,159L438,209Z" fill="#286b2d" stroke="#286b2d" stroke-width="1.51"></path><path d="M421,11L396,81L438,209Z" fill="#2a6c2e" stroke="#2a6c2e" stroke-width="1.51"></path><path d="M316,159L315,300L433,246Z" fill="#246729" stroke="#246729" stroke-width="1.51"></path><path d="M326,-69L348,14L409,-80Z" fill="#4a8b4e" stroke="#4a8b4e" stroke-width="1.51"></path><path d="M348,14L396,81L421,11Z" fill="#38793b" stroke="#38793b" stroke-width="1.51"></path><path d="M348,14L357,99L396,81Z" fill="#327436" stroke="#327436" stroke-width="1.51"></path><path d="M260,270L137,272L315,300Z" fill="#27692b" stroke="#27692b" stroke-width="1.51"></path><path d="M260,270L315,300L316,159Z" fill="#26692b" stroke="#26692b" stroke-width="1.51"></path><path d="M229,12L217,76L348,14Z" fill="#3d7e40" stroke="#3d7e40" stroke-width="1.51"></path><path d="M348,14L217,76L357,99Z" fill="#347739" stroke="#347739" stroke-width="1.51"></path><path d="M217,76L316,159L357,99Z" fill="#2e7032" stroke="#2e7032" stroke-width="1.51"></path><path d="M326,-69L229,12L348,14Z" fill="#468749" stroke="#468749" stroke-width="1.51"></path><path d="M221,199L260,270L316,159Z" fill="#2a6c2e" stroke="#2a6c2e" stroke-width="1.51"></path><path d="M238,-110L229,12L326,-69Z" fill="#519254" stroke="#519254" stroke-width="1.51"></path><path d="M80,-110L163,-90L238,-110Z" fill="#5fa163" stroke="#5fa163" stroke-width="1.51"></path><path d="M217,76L221,199L316,159Z" fill="#2e7032" stroke="#2e7032" stroke-width="1.51"></path><path d="M217,76L181,170L221,199Z" fill="#307234" stroke="#307234" stroke-width="1.51"></path><path d="M163,-90L229,12L238,-110Z" fill="#549658" stroke="#549658" stroke-width="1.51"></path><path d="M221,199L137,272L260,270Z" fill="#2a6c2e" stroke="#2a6c2e" stroke-width="1.51"></path><path d="M163,-90L147,28L229,12Z" fill="#4c8e4f" stroke="#4c8e4f" stroke-width="1.51"></path><path d="M147,28L217,76L229,12Z" fill="#3e8042" stroke="#3e8042" stroke-width="1.51"></path><path d="M118,63L181,170L217,76Z" fill="#337638" stroke="#337638" stroke-width="1.51"></path><path d="M181,170L137,272L221,199Z" fill="#2d6f31" stroke="#2d6f31" stroke-width="1.51"></path><path d="M147,28L118,63L217,76Z" fill="#3c7e40" stroke="#3c7e40" stroke-width="1.51"></path><path d="M76,-10L147,28L163,-90Z" fill="#529455" stroke="#529455" stroke-width="1.51"></path><path d="M83,148L137,272L181,170Z" fill="#327436" stroke="#327436" stroke-width="1.51"></path><path d="M118,63L83,148L181,170Z" fill="#37793b" stroke="#37793b" stroke-width="1.51"></path><path d="M80,-110L76,-10L163,-90Z" fill="#5fa163" stroke="#5fa163" stroke-width="1.51"></path><path d="M83,148L61,288L137,272Z" fill="#36783a" stroke="#36783a" stroke-width="1.51"></path><path d="M76,-10L118,63L147,28Z" fill="#498a4c" stroke="#498a4c" stroke-width="1.51"></path><path d="M32,99L83,148L118,63Z" fill="#408244" stroke="#408244" stroke-width="1.51"></path><path d="M76,-10L32,99L118,63Z" fill="#4a8b4d" stroke="#4a8b4d" stroke-width="1.51"></path><path d="M-47,146L-54,296L61,288Z" fill="#47884a" stroke="#47884a" stroke-width="1.51"></path><path d="M-12,-26L32,99L76,-10Z" fill="#57995a" stroke="#57995a" stroke-width="1.51"></path><path d="M-12,-26L76,-10L80,-110Z" fill="#63a667" stroke="#63a667" stroke-width="1.51"></path><path d="M-2,-118L-12,-26L80,-110Z" fill="#70b273" stroke="#70b273" stroke-width="1.51"></path><path d="M32,99L-15,106L83,148Z" fill="#46884a" stroke="#46884a" stroke-width="1.51"></path><path d="M-15,106L-47,146L83,148Z" fill="#498c4d" stroke="#498c4d" stroke-width="1.51"></path><path d="M-47,146L61,288L83,148Z" fill="#428446" stroke="#428446" stroke-width="1.51"></path><path d="M-12,-26L-15,106L32,99Z" fill="#539557" stroke="#539557" stroke-width="1.51"></path><path d="M-96,18L-15,106L-12,-26Z" fill="#60a264" stroke="#60a264" stroke-width="1.51"></path><path d="M-147,188L-54,296L-47,146Z" fill="#539556" stroke="#539556" stroke-width="1.51"></path><path d="M-106,-112L-12,-26L-2,-118Z" fill="#79bc7e" stroke="#79bc7e" stroke-width="1.51"></path><path d="M-96,18L-139,79L-15,106Z" fill="#5ea163" stroke="#5ea163" stroke-width="1.51"></path><path d="M-106,-112L-96,18L-12,-26Z" fill="#75b779" stroke="#75b779" stroke-width="1.51"></path><path d="M-139,79L-47,146L-15,106Z" fill="#56985a" stroke="#56985a" stroke-width="1.51"></path><path d="M-147,188L-142,297L-54,296Z" fill="#559758" stroke="#559758" stroke-width="1.51"></path><path d="M-139,79L-147,188L-47,146Z" fill="#5b9d5f" stroke="#5b9d5f" stroke-width="1.51"></path><path d="M-106,-112L-139,79L-96,18Z" fill="#73b678" stroke="#73b678" stroke-width="1.51"></path></svg>