<svg width="300" height="176" xmlns="http://www.w3.org/2000/svg"><path d="M168,79L220,5L178,23Z" fill="#96b95c" stroke="#96b95c" stroke-width="1.51"></path><path d="M168,79L222,120L220,5Z" fill="#7ba94d" stroke="#7ba94d" stroke-width="1.51"></path><path d="M222,120L343,83L220,5Z" fill="#75a447" stroke="#75a447" stroke-width="1.51"></path><path d="M170,193L264,152L222,120Z" fill="#5f9539" stroke="#5f9539" stroke-width="1.51"></path><path d="M264,152L343,83L222,120Z" fill="#5f953a" stroke="#5f953a" stroke-width="1.51"></path><path d="M343,83L309,-34L220,5Z" fill="#9cb85b" stroke="#9cb85b" stroke-width="1.51"></path><path d="M220,5L153,-66L178,23Z" fill="#b4ca6c" stroke="#b4ca6c" stroke-width="1.51"></path><path d="M178,23L60,57L168,79Z" fill="#93b95b" stroke="#93b95b" stroke-width="1.51"></path><path d="M225,-99L153,-66L220,5Z" fill="#b2c96a" stroke="#b2c96a" stroke-width="1.51"></path><path d="M42,162L170,193L168,79Z" fill="#72a246" stroke="#72a246" stroke-width="1.51"></path><path d="M168,79L170,193L222,120Z" fill="#659b40" stroke="#659b40" stroke-width="1.51"></path><path d="M153,-66L91,-29L178,23Z" fill="#bbd071" stroke="#bbd071" stroke-width="1.51"></path><path d="M170,193L298,193L264,152Z" fill="#5a9034" stroke="#5a9034" stroke-width="1.51"></path><path d="M264,152L298,193L343,83Z" fill="#5a9034" stroke="#5a9034" stroke-width="1.51"></path><path d="M309,-34L225,-99L220,5Z" fill="#adc465" stroke="#adc465" stroke-width="1.51"></path><path d="M91,-29L60,57L178,23Z" fill="#bcd072" stroke="#bcd072" stroke-width="1.51"></path><path d="M309,-34L316,-69L225,-99Z" fill="#abc163" stroke="#abc163" stroke-width="1.51"></path><path d="M435,-19L316,-69L309,-34Z" fill="#a9c061" stroke="#a9c061" stroke-width="1.51"></path><path d="M395,183L408,59L343,83Z" fill="#5f9539" stroke="#5f9539" stroke-width="1.51"></path><path d="M343,83L408,59L309,-34Z" fill="#8cb052" stroke="#8cb052" stroke-width="1.51"></path><path d="M60,57L42,162L168,79Z" fill="#8ab356" stroke="#8ab356" stroke-width="1.51"></path><path d="M170,193L222,286L298,193Z" fill="#5b9135" stroke="#5b9135" stroke-width="1.51"></path><path d="M42,162L129,251L170,193Z" fill="#73a145" stroke="#73a145" stroke-width="1.51"></path><path d="M298,193L395,183L343,83Z" fill="#588e33" stroke="#588e33" stroke-width="1.51"></path><path d="M356,277L395,183L298,193Z" fill="#558b2f" stroke="#558b2f" stroke-width="1.51"></path><path d="M129,251L222,286L170,193Z" fill="#60963a" stroke="#60963a" stroke-width="1.51"></path><path d="M408,59L435,-19L309,-34Z" fill="#a8bf60" stroke="#a8bf60" stroke-width="1.51"></path><path d="M395,183L435,-19L408,59Z" fill="#6d9e42" stroke="#6d9e42" stroke-width="1.51"></path><path d="M60,57L-28,56L42,162Z" fill="#aac668" stroke="#aac668" stroke-width="1.51"></path><path d="M91,-29L-9,15L60,57Z" fill="#dce283" stroke="#dce283" stroke-width="1.51"></path><path d="M-39,-108L-9,15L91,-29Z" fill="#f8f292" stroke="#f8f292" stroke-width="1.51"></path><path d="M153,-66L66,-122L91,-29Z" fill="#cdda7b" stroke="#cdda7b" stroke-width="1.51"></path><path d="M225,-99L66,-122L153,-66Z" fill="#b8ce6f" stroke="#b8ce6f" stroke-width="1.51"></path><path d="M-9,15L-28,56L60,57Z" fill="#d8e081" stroke="#d8e081" stroke-width="1.51"></path><path d="M42,162L86,267L129,251Z" fill="#81a94c" stroke="#81a94c" stroke-width="1.51"></path><path d="M129,251L86,267L222,286Z" fill="#64993d" stroke="#64993d" stroke-width="1.51"></path><path d="M-6,177L86,267L42,162Z" fill="#96b557" stroke="#96b557" stroke-width="1.51"></path><path d="M-28,56L-6,177L42,162Z" fill="#aec667" stroke="#aec667" stroke-width="1.51"></path><path d="M222,286L356,277L298,193Z" fill="#558b30" stroke="#558b30" stroke-width="1.51"></path><path d="M356,277L393,261L395,183Z" fill="#558b2f" stroke="#558b2f" stroke-width="1.51"></path><path d="M395,183L393,261L435,-19Z" fill="#5a9034" stroke="#5a9034" stroke-width="1.51"></path><path d="M435,-19L445,-102L316,-69Z" fill="#a9c061" stroke="#a9c061" stroke-width="1.51"></path><path d="M316,-69L445,-102L225,-99Z" fill="#a9c061" stroke="#a9c061" stroke-width="1.51"></path><path d="M225,-99L445,-102L66,-122Z" fill="#aec466" stroke="#aec466" stroke-width="1.51"></path><path d="M66,-122L-39,-108L91,-29Z" fill="#eceb8b" stroke="#eceb8b" stroke-width="1.51"></path><path d="M-9,15L-89,27L-28,56Z" fill="#e4e787" stroke="#e4e787" stroke-width="1.51"></path><path d="M-39,-108L-89,27L-9,15Z" fill="#fff696" stroke="#fff696" stroke-width="1.51"></path><path d="M-28,56L-89,186L-6,177Z" fill="#afc667" stroke="#afc667" stroke-width="1.51"></path><path d="M-6,177L-48,290L86,267Z" fill="#a4bd5e" stroke="#a4bd5e" stroke-width="1.51"></path><path d="M-146,81L-89,186L-28,56Z" fill="#b4ca6c" stroke="#b4ca6c" stroke-width="1.51"></path><path d="M-89,186L-48,290L-6,177Z" fill="#a9c061" stroke="#a9c061" stroke-width="1.51"></path><path d="M86,267L-48,290L222,286Z" fill="#80a94c" stroke="#80a94c" stroke-width="1.51"></path><path d="M-89,186L-147,243L-48,290Z" fill="#a9c061" stroke="#a9c061" stroke-width="1.51"></path><path d="M-89,27L-146,81L-28,56Z" fill="#d2dc7d" stroke="#d2dc7d" stroke-width="1.51"></path><path d="M-146,-87L-146,81L-89,27Z" fill="#f9f293" stroke="#f9f293" stroke-width="1.51"></path><path d="M-39,-108L-146,-87L-89,27Z" fill="#fff696" stroke="#fff696" stroke-width="1.51"></path><path d="M-146,81L-147,243L-89,186Z" fill="#aac162" stroke="#aac162" stroke-width="1.51"></path><path d="M-146,-87L-147,243L-146,81Z" fill="#bed173" stroke="#bed173" stroke-width="1.51"></path></svg>