<svg width="300" height="176" xmlns="http://www.w3.org/2000/svg"><path d="M139,99L85,95L127,182Z" fill="#7aa84b" stroke="#7aa84b" stroke-width="1.51"></path><path d="M85,95L59,167L127,182Z" fill="#82ac4f" stroke="#82ac4f" stroke-width="1.51"></path><path d="M127,182L208,145L139,99Z" fill="#669c41" stroke="#669c41" stroke-width="1.51"></path><path d="M29,266L179,235L127,182Z" fill="#74a245" stroke="#74a245" stroke-width="1.51"></path><path d="M127,182L179,235L208,145Z" fill="#60963a" stroke="#60963a" stroke-width="1.51"></path><path d="M182,-24L30,2L85,95Z" fill="#bbcf71" stroke="#bbcf71" stroke-width="1.51"></path><path d="M208,145L218,68L139,99Z" fill="#699f43" stroke="#699f43" stroke-width="1.51"></path><path d="M59,167L29,266L127,182Z" fill="#87ad4f" stroke="#87ad4f" stroke-width="1.51"></path><path d="M85,95L-51,151L59,167Z" fill="#a0bd5f" stroke="#a0bd5f" stroke-width="1.51"></path><path d="M59,167L-8,268L29,266Z" fill="#9cb85b" stroke="#9cb85b" stroke-width="1.51"></path><path d="M182,-24L85,95L139,99Z" fill="#90b75a" stroke="#90b75a" stroke-width="1.51"></path><path d="M-59,55L-51,151L85,95Z" fill="#b5cb6d" stroke="#b5cb6d" stroke-width="1.51"></path><path d="M-51,151L-8,268L59,167Z" fill="#a9c061" stroke="#a9c061" stroke-width="1.51"></path><path d="M298,21L261,-14L218,68Z" fill="#99b85a" stroke="#99b85a" stroke-width="1.51"></path><path d="M179,235L217,277L208,145Z" fill="#5d9338" stroke="#5d9338" stroke-width="1.51"></path><path d="M29,266L217,277L179,235Z" fill="#669a3e" stroke="#669a3e" stroke-width="1.51"></path><path d="M-126,298L217,277L29,266Z" fill="#96b557" stroke="#96b557" stroke-width="1.51"></path><path d="M218,68L182,-24L139,99Z" fill="#8eb557" stroke="#8eb557" stroke-width="1.51"></path><path d="M30,2L-59,55L85,95Z" fill="#ccd97a" stroke="#ccd97a" stroke-width="1.51"></path><path d="M218,68L261,-14L182,-24Z" fill="#a8c364" stroke="#a8c364" stroke-width="1.51"></path><path d="M327,159L218,68L208,145Z" fill="#60963b" stroke="#60963b" stroke-width="1.51"></path><path d="M217,277L327,159L208,145Z" fill="#5a8f34" stroke="#5a8f34" stroke-width="1.51"></path><path d="M349,65L298,21L218,68Z" fill="#81aa4c" stroke="#81aa4c" stroke-width="1.51"></path><path d="M182,-24L45,-78L30,2Z" fill="#d6df7f" stroke="#d6df7f" stroke-width="1.51"></path><path d="M30,2L-42,-30L-59,55Z" fill="#f7f292" stroke="#f7f292" stroke-width="1.51"></path><path d="M161,-124L45,-78L182,-24Z" fill="#c1d374" stroke="#c1d374" stroke-width="1.51"></path><path d="M-15,-74L-42,-30L30,2Z" fill="#fff696" stroke="#fff696" stroke-width="1.51"></path><path d="M45,-78L-15,-74L30,2Z" fill="#f5f090" stroke="#f5f090" stroke-width="1.51"></path><path d="M327,159L349,65L218,68Z" fill="#60963b" stroke="#60963b" stroke-width="1.51"></path><path d="M324,-94L271,-124L261,-14Z" fill="#abc163" stroke="#abc163" stroke-width="1.51"></path><path d="M-148,105L-51,151L-59,55Z" fill="#b4cb6c" stroke="#b4cb6c" stroke-width="1.51"></path><path d="M-148,105L-136,192L-51,151Z" fill="#adc465" stroke="#adc465" stroke-width="1.51"></path><path d="M-51,151L-136,192L-8,268Z" fill="#a9c061" stroke="#a9c061" stroke-width="1.51"></path><path d="M-42,-30L-119,28L-59,55Z" fill="#f0ee8e" stroke="#f0ee8e" stroke-width="1.51"></path><path d="M-137,-103L-119,28L-42,-30Z" fill="#fff696" stroke="#fff696" stroke-width="1.51"></path><path d="M-119,28L-148,105L-59,55Z" fill="#cbd97a" stroke="#cbd97a" stroke-width="1.51"></path><path d="M45,-78L161,-124L-15,-74Z" fill="#e0e485" stroke="#e0e485" stroke-width="1.51"></path><path d="M271,-124L161,-124L182,-24Z" fill="#b1c86a" stroke="#b1c86a" stroke-width="1.51"></path><path d="M271,-124L182,-24L261,-14Z" fill="#afc667" stroke="#afc667" stroke-width="1.51"></path><path d="M327,159L403,157L349,65Z" fill="#5c9237" stroke="#5c9237" stroke-width="1.51"></path><path d="M217,277L344,290L327,159Z" fill="#558b30" stroke="#558b30" stroke-width="1.51"></path><path d="M-126,298L344,290L217,277Z" fill="#64993d" stroke="#64993d" stroke-width="1.51"></path><path d="M-8,268L-126,298L29,266Z" fill="#a9c061" stroke="#a9c061" stroke-width="1.51"></path><path d="M-136,192L-126,298L-8,268Z" fill="#a9c061" stroke="#a9c061" stroke-width="1.51"></path><path d="M-148,105L-126,298L-136,192Z" fill="#a9c061" stroke="#a9c061" stroke-width="1.51"></path><path d="M344,290L403,157L327,159Z" fill="#558b2f" stroke="#558b2f" stroke-width="1.51"></path><path d="M324,-94L261,-14L298,21Z" fill="#aac062" stroke="#aac062" stroke-width="1.51"></path><path d="M324,-94L298,21L433,-3Z" fill="#a9c061" stroke="#a9c061" stroke-width="1.51"></path><path d="M433,-3L298,21L349,65Z" fill="#93b355" stroke="#93b355" stroke-width="1.51"></path><path d="M403,157L422,72L349,65Z" fill="#60963b" stroke="#60963b" stroke-width="1.51"></path><path d="M403,157L404,291L422,72Z" fill="#558b30" stroke="#558b30" stroke-width="1.51"></path><path d="M344,290L404,291L403,157Z" fill="#558b2f" stroke="#558b2f" stroke-width="1.51"></path><path d="M-126,298L404,291L344,290Z" fill="#5d9337" stroke="#5d9337" stroke-width="1.51"></path><path d="M161,-124L-137,-103L-15,-74Z" fill="#fdf595" stroke="#fdf595" stroke-width="1.51"></path><path d="M-15,-74L-137,-103L-42,-30Z" fill="#fff696" stroke="#fff696" stroke-width="1.51"></path><path d="M-119,28L-137,-103L-148,105Z" fill="#f6f191" stroke="#f6f191" stroke-width="1.51"></path><path d="M422,72L433,-3L349,65Z" fill="#85ac4e" stroke="#85ac4e" stroke-width="1.51"></path><path d="M404,291L433,-3L422,72Z" fill="#5d9338" stroke="#5d9338" stroke-width="1.51"></path><path d="M433,-3L435,-94L324,-94Z" fill="#a9c061" stroke="#a9c061" stroke-width="1.51"></path><path d="M324,-94L435,-94L271,-124Z" fill="#a9c061" stroke="#a9c061" stroke-width="1.51"></path></svg>