<svg width="300" height="176" xmlns="http://www.w3.org/2000/svg"><path d="M149,65L168,-27L81,-22Z" fill="#8eb659" stroke="#8eb659" stroke-width="1.51"></path><path d="M164,-120L54,-59L81,-22Z" fill="#acc769" stroke="#acc769" stroke-width="1.51"></path><path d="M0,86L41,97L81,-22Z" fill="#93b95b" stroke="#93b95b" stroke-width="1.51"></path><path d="M81,-22L41,97L149,65Z" fill="#8ab457" stroke="#8ab457" stroke-width="1.51"></path><path d="M149,65L258,23L168,-27Z" fill="#83af52" stroke="#83af52" stroke-width="1.51"></path><path d="M168,-27L164,-120L81,-22Z" fill="#a0c063" stroke="#a0c063" stroke-width="1.51"></path><path d="M253,-66L164,-120L168,-27Z" fill="#9fbf62" stroke="#9fbf62" stroke-width="1.51"></path><path d="M-55,9L0,86L81,-22Z" fill="#a3c264" stroke="#a3c264" stroke-width="1.51"></path><path d="M258,23L253,-66L168,-27Z" fill="#90b658" stroke="#90b658" stroke-width="1.51"></path><path d="M149,65L254,120L258,23Z" fill="#72a549" stroke="#72a549" stroke-width="1.51"></path><path d="M41,97L74,165L149,65Z" fill="#7cac4f" stroke="#7cac4f" stroke-width="1.51"></path><path d="M-42,187L74,165L41,97Z" fill="#88b154" stroke="#88b154" stroke-width="1.51"></path><path d="M54,-59L-55,9L81,-22Z" fill="#aec96a" stroke="#aec96a" stroke-width="1.51"></path><path d="M164,-120L-6,-87L54,-59Z" fill="#b9ce70" stroke="#b9ce70" stroke-width="1.51"></path><path d="M142,209L254,120L149,65Z" fill="#6ba145" stroke="#6ba145" stroke-width="1.51"></path><path d="M-6,-87L-55,9L54,-59Z" fill="#bcd071" stroke="#bcd071" stroke-width="1.51"></path><path d="M254,120L303,77L258,23Z" fill="#6ea246" stroke="#6ea246" stroke-width="1.51"></path><path d="M258,23L358,26L253,-66Z" fill="#87b052" stroke="#87b052" stroke-width="1.51"></path><path d="M74,165L142,209L149,65Z" fill="#72a549" stroke="#72a549" stroke-width="1.51"></path><path d="M142,209L222,205L254,120Z" fill="#679d41" stroke="#679d41" stroke-width="1.51"></path><path d="M254,120L363,190L303,77Z" fill="#669c40" stroke="#669c40" stroke-width="1.51"></path><path d="M424,104L358,26L303,77Z" fill="#6c9f43" stroke="#6c9f43" stroke-width="1.51"></path><path d="M303,77L358,26L258,23Z" fill="#77a64a" stroke="#77a64a" stroke-width="1.51"></path><path d="M253,-66L333,-104L164,-120Z" fill="#a6c264" stroke="#a6c264" stroke-width="1.51"></path><path d="M358,26L333,-104L253,-66Z" fill="#93b659" stroke="#93b659" stroke-width="1.51"></path><path d="M0,86L-42,187L41,97Z" fill="#8fb659" stroke="#8fb659" stroke-width="1.51"></path><path d="M74,165L81,255L142,209Z" fill="#74a448" stroke="#74a448" stroke-width="1.51"></path><path d="M-126,112L-42,187L0,86Z" fill="#9cbd5f" stroke="#9cbd5f" stroke-width="1.51"></path><path d="M-42,187L81,255L74,165Z" fill="#82ad50" stroke="#82ad50" stroke-width="1.51"></path><path d="M142,209L138,261L222,205Z" fill="#669c41" stroke="#669c41" stroke-width="1.51"></path><path d="M81,255L138,261L142,209Z" fill="#6da043" stroke="#6da043" stroke-width="1.51"></path><path d="M-55,9L-126,112L0,86Z" fill="#a5c365" stroke="#a5c365" stroke-width="1.51"></path><path d="M-6,-87L-101,-92L-55,9Z" fill="#ccd97a" stroke="#ccd97a" stroke-width="1.51"></path><path d="M164,-120L-101,-92L-6,-87Z" fill="#c9d778" stroke="#c9d778" stroke-width="1.51"></path><path d="M-101,-92L-134,23L-55,9Z" fill="#c9d879" stroke="#c9d879" stroke-width="1.51"></path><path d="M-134,23L-126,112L-55,9Z" fill="#b6cc6e" stroke="#b6cc6e" stroke-width="1.51"></path><path d="M333,256L363,190L222,205Z" fill="#61973b" stroke="#61973b" stroke-width="1.51"></path><path d="M222,205L363,190L254,120Z" fill="#649a3f" stroke="#649a3f" stroke-width="1.51"></path><path d="M138,261L256,283L222,205Z" fill="#63993d" stroke="#63993d" stroke-width="1.51"></path><path d="M-47,261L256,283L138,261Z" fill="#6c9f42" stroke="#6c9f42" stroke-width="1.51"></path><path d="M-152,198L-47,261L-42,187Z" fill="#9cbb5d" stroke="#9cbb5d" stroke-width="1.51"></path><path d="M-42,187L-47,261L81,255Z" fill="#89b052" stroke="#89b052" stroke-width="1.51"></path><path d="M81,255L-47,261L138,261Z" fill="#7aa74a" stroke="#7aa74a" stroke-width="1.51"></path><path d="M363,190L424,104L303,77Z" fill="#649a3e" stroke="#649a3e" stroke-width="1.51"></path><path d="M358,26L445,9L333,-104Z" fill="#89af52" stroke="#89af52" stroke-width="1.51"></path><path d="M424,104L445,9L358,26Z" fill="#72a245" stroke="#72a245" stroke-width="1.51"></path><path d="M256,283L333,256L222,205Z" fill="#60963b" stroke="#60963b" stroke-width="1.51"></path><path d="M363,190L441,156L424,104Z" fill="#61973b" stroke="#61973b" stroke-width="1.51"></path><path d="M-126,112L-152,198L-42,187Z" fill="#a5c163" stroke="#a5c163" stroke-width="1.51"></path><path d="M-134,23L-152,198L-126,112Z" fill="#afc86a" stroke="#afc86a" stroke-width="1.51"></path><path d="M445,9L446,-115L333,-104Z" fill="#97b758" stroke="#97b758" stroke-width="1.51"></path><path d="M333,-104L446,-115L164,-120Z" fill="#a8c263" stroke="#a8c263" stroke-width="1.51"></path><path d="M395,278L441,156L363,190Z" fill="#5d9338" stroke="#5d9338" stroke-width="1.51"></path><path d="M424,104L441,156L445,9Z" fill="#63993d" stroke="#63993d" stroke-width="1.51"></path><path d="M-152,198L-145,266L-47,261Z" fill="#a2be5f" stroke="#a2be5f" stroke-width="1.51"></path><path d="M-47,261L-145,266L256,283Z" fill="#82ab4e" stroke="#82ab4e" stroke-width="1.51"></path><path d="M333,256L395,278L363,190Z" fill="#5d9337" stroke="#5d9337" stroke-width="1.51"></path><path d="M256,283L395,278L333,256Z" fill="#5d9337" stroke="#5d9337" stroke-width="1.51"></path></svg>