<svg width="300" height="176" xmlns="http://www.w3.org/2000/svg"><path d="M171,90L180,149L232,60Z" fill="#699f43" stroke="#699f43" stroke-width="1.51"></path><path d="M180,149L298,75L232,60Z" fill="#669c41" stroke="#669c41" stroke-width="1.51"></path><path d="M180,149L218,201L298,75Z" fill="#60963a" stroke="#60963a" stroke-width="1.51"></path><path d="M232,60L159,-32L171,90Z" fill="#93b85b" stroke="#93b85b" stroke-width="1.51"></path><path d="M298,75L246,-11L232,60Z" fill="#8bb153" stroke="#8bb153" stroke-width="1.51"></path><path d="M171,90L82,100L180,149Z" fill="#6ea347" stroke="#6ea347" stroke-width="1.51"></path><path d="M180,149L126,254L218,201Z" fill="#60963a" stroke="#60963a" stroke-width="1.51"></path><path d="M75,10L82,100L171,90Z" fill="#94b95c" stroke="#94b95c" stroke-width="1.51"></path><path d="M218,201L359,184L298,75Z" fill="#598f33" stroke="#598f33" stroke-width="1.51"></path><path d="M82,100L78,178L180,149Z" fill="#79a74a" stroke="#79a74a" stroke-width="1.51"></path><path d="M246,-11L159,-32L232,60Z" fill="#adc567" stroke="#adc567" stroke-width="1.51"></path><path d="M78,178L126,254L180,149Z" fill="#6c9e41" stroke="#6c9e41" stroke-width="1.51"></path><path d="M218,201L312,270L359,184Z" fill="#558b30" stroke="#558b30" stroke-width="1.51"></path><path d="M246,-11L257,-61L159,-32Z" fill="#b0c768" stroke="#b0c768" stroke-width="1.51"></path><path d="M322,-33L257,-61L246,-11Z" fill="#abc263" stroke="#abc263" stroke-width="1.51"></path><path d="M322,-33L246,-11L298,75Z" fill="#a2bc5e" stroke="#a2bc5e" stroke-width="1.51"></path><path d="M82,100L-32,183L78,178Z" fill="#99b85a" stroke="#99b85a" stroke-width="1.51"></path><path d="M159,-32L75,10L171,90Z" fill="#abc769" stroke="#abc769" stroke-width="1.51"></path><path d="M399,-11L322,-33L298,75Z" fill="#a1bb5d" stroke="#a1bb5d" stroke-width="1.51"></path><path d="M126,254L220,291L218,201Z" fill="#5e9439" stroke="#5e9439" stroke-width="1.51"></path><path d="M220,291L312,270L218,201Z" fill="#598f34" stroke="#598f34" stroke-width="1.51"></path><path d="M411,209L432,114L359,184Z" fill="#568c30" stroke="#568c30" stroke-width="1.51"></path><path d="M359,184L432,114L298,75Z" fill="#5c9237" stroke="#5c9237" stroke-width="1.51"></path><path d="M312,270L411,209L359,184Z" fill="#558b2f" stroke="#558b2f" stroke-width="1.51"></path><path d="M322,-33L316,-92L257,-61Z" fill="#a9c061" stroke="#a9c061" stroke-width="1.51"></path><path d="M432,114L399,-11L298,75Z" fill="#79a548" stroke="#79a548" stroke-width="1.51"></path><path d="M399,-11L316,-92L322,-33Z" fill="#a9c061" stroke="#a9c061" stroke-width="1.51"></path><path d="M257,-61L164,-121L159,-32Z" fill="#b2c96b" stroke="#b2c96b" stroke-width="1.51"></path><path d="M75,10L-8,68L82,100Z" fill="#b6cd6e" stroke="#b6cd6e" stroke-width="1.51"></path><path d="M78,178L44,290L126,254Z" fill="#82aa4d" stroke="#82aa4d" stroke-width="1.51"></path><path d="M316,-92L164,-121L257,-61Z" fill="#aec466" stroke="#aec466" stroke-width="1.51"></path><path d="M159,-32L54,-106L75,10Z" fill="#d1dc7d" stroke="#d1dc7d" stroke-width="1.51"></path><path d="M75,10L-20,7L-8,68Z" fill="#e0e485" stroke="#e0e485" stroke-width="1.51"></path><path d="M126,254L44,290L220,291Z" fill="#6b9d41" stroke="#6b9d41" stroke-width="1.51"></path><path d="M-4,249L44,290L78,178Z" fill="#97b557" stroke="#97b557" stroke-width="1.51"></path><path d="M220,291L409,284L312,270Z" fill="#558b2f" stroke="#558b2f" stroke-width="1.51"></path><path d="M312,270L409,284L411,209Z" fill="#558b2f" stroke="#558b2f" stroke-width="1.51"></path><path d="M411,209L409,284L432,114Z" fill="#558b2f" stroke="#558b2f" stroke-width="1.51"></path><path d="M-8,68L-32,183L82,100Z" fill="#abc567" stroke="#abc567" stroke-width="1.51"></path><path d="M-32,183L-4,249L78,178Z" fill="#a2bc5e" stroke="#a2bc5e" stroke-width="1.51"></path><path d="M-8,68L-109,59L-32,183Z" fill="#b4cb6c" stroke="#b4cb6c" stroke-width="1.51"></path><path d="M54,-106L-20,7L75,10Z" fill="#edec8c" stroke="#edec8c" stroke-width="1.51"></path><path d="M164,-121L54,-106L159,-32Z" fill="#c2d475" stroke="#c2d475" stroke-width="1.51"></path><path d="M399,-11L443,-82L316,-92Z" fill="#a9c061" stroke="#a9c061" stroke-width="1.51"></path><path d="M316,-92L443,-82L164,-121Z" fill="#a9c061" stroke="#a9c061" stroke-width="1.51"></path><path d="M432,114L443,-82L399,-11Z" fill="#a3bc5e" stroke="#a3bc5e" stroke-width="1.51"></path><path d="M54,-106L-15,-97L-20,7Z" fill="#fcf594" stroke="#fcf594" stroke-width="1.51"></path><path d="M-20,7L-109,59L-8,68Z" fill="#dae182" stroke="#dae182" stroke-width="1.51"></path><path d="M164,-121L-15,-97L54,-106Z" fill="#dee384" stroke="#dee384" stroke-width="1.51"></path><path d="M-90,-22L-109,59L-20,7Z" fill="#f3ef8f" stroke="#f3ef8f" stroke-width="1.51"></path><path d="M-32,183L-125,242L-4,249Z" fill="#a9c061" stroke="#a9c061" stroke-width="1.51"></path><path d="M-15,-97L-90,-22L-20,7Z" fill="#fff696" stroke="#fff696" stroke-width="1.51"></path><path d="M-109,59L-124,174L-32,183Z" fill="#afc667" stroke="#afc667" stroke-width="1.51"></path><path d="M-4,249L-125,242L44,290Z" fill="#a9c061" stroke="#a9c061" stroke-width="1.51"></path><path d="M-109,59L-94,-69L-124,174Z" fill="#d2dc7d" stroke="#d2dc7d" stroke-width="1.51"></path><path d="M-90,-22L-94,-69L-109,59Z" fill="#fff696" stroke="#fff696" stroke-width="1.51"></path><path d="M-15,-97L-94,-69L-90,-22Z" fill="#fff696" stroke="#fff696" stroke-width="1.51"></path><path d="M-124,174L-125,242L-32,183Z" fill="#a9c061" stroke="#a9c061" stroke-width="1.51"></path></svg>