<svg width="300" height="176" xmlns="http://www.w3.org/2000/svg"><path d="M135,74L152,21L89,10Z" fill="#86b155" stroke="#86b155" stroke-width="1.51"></path><path d="M89,10L69,74L135,74Z" fill="#87b255" stroke="#87b255" stroke-width="1.51"></path><path d="M152,21L161,-78L89,10Z" fill="#94b95c" stroke="#94b95c" stroke-width="1.51"></path><path d="M135,74L241,87L152,21Z" fill="#77a94c" stroke="#77a94c" stroke-width="1.51"></path><path d="M152,21L260,27L161,-78Z" fill="#8db558" stroke="#8db558" stroke-width="1.51"></path><path d="M206,180L241,87L135,74Z" fill="#6ba145" stroke="#6ba145" stroke-width="1.51"></path><path d="M89,10L-24,22L69,74Z" fill="#98bc5e" stroke="#98bc5e" stroke-width="1.51"></path><path d="M161,-78L29,-66L89,10Z" fill="#a6c466" stroke="#a6c466" stroke-width="1.51"></path><path d="M29,-66L-24,22L89,10Z" fill="#a9c667" stroke="#a9c667" stroke-width="1.51"></path><path d="M241,87L260,27L152,21Z" fill="#7aa94d" stroke="#7aa94d" stroke-width="1.51"></path><path d="M69,74L61,191L135,74Z" fill="#7cab4f" stroke="#7cab4f" stroke-width="1.51"></path><path d="M-24,22L-6,117L69,74Z" fill="#94b95c" stroke="#94b95c" stroke-width="1.51"></path><path d="M-6,117L61,191L69,74Z" fill="#86b053" stroke="#86b053" stroke-width="1.51"></path><path d="M173,201L206,180L135,74Z" fill="#6aa044" stroke="#6aa044" stroke-width="1.51"></path><path d="M61,191L173,201L135,74Z" fill="#71a448" stroke="#71a448" stroke-width="1.51"></path><path d="M-109,-93L-39,-71L29,-66Z" fill="#cedb7c" stroke="#cedb7c" stroke-width="1.51"></path><path d="M29,-66L-39,-71L-24,22Z" fill="#bbd071" stroke="#bbd071" stroke-width="1.51"></path><path d="M260,27L228,-125L161,-78Z" fill="#9abc5f" stroke="#9abc5f" stroke-width="1.51"></path><path d="M161,-78L228,-125L29,-66Z" fill="#aac668" stroke="#aac668" stroke-width="1.51"></path><path d="M260,27L344,-68L228,-125Z" fill="#97b95c" stroke="#97b95c" stroke-width="1.51"></path><path d="M332,91L318,24L260,27Z" fill="#76a649" stroke="#76a649" stroke-width="1.51"></path><path d="M332,91L260,27L241,87Z" fill="#70a346" stroke="#70a346" stroke-width="1.51"></path><path d="M-6,117L-39,170L61,191Z" fill="#8cb356" stroke="#8cb356" stroke-width="1.51"></path><path d="M-148,114L-39,170L-6,117Z" fill="#9ebe60" stroke="#9ebe60" stroke-width="1.51"></path><path d="M-148,114L-6,117L-24,22Z" fill="#a0c062" stroke="#a0c062" stroke-width="1.51"></path><path d="M357,169L332,91L241,87Z" fill="#679d41" stroke="#679d41" stroke-width="1.51"></path><path d="M61,191L175,259L173,201Z" fill="#6a9f43" stroke="#6a9f43" stroke-width="1.51"></path><path d="M173,201L175,259L206,180Z" fill="#669c40" stroke="#669c40" stroke-width="1.51"></path><path d="M206,180L357,169L241,87Z" fill="#669c41" stroke="#669c41" stroke-width="1.51"></path><path d="M69,292L175,259L61,191Z" fill="#71a245" stroke="#71a245" stroke-width="1.51"></path><path d="M-39,170L1,243L61,191Z" fill="#89b053" stroke="#89b053" stroke-width="1.51"></path><path d="M-39,-71L-123,-5L-24,22Z" fill="#c1d374" stroke="#c1d374" stroke-width="1.51"></path><path d="M318,24L344,-68L260,27Z" fill="#87af52" stroke="#87af52" stroke-width="1.51"></path><path d="M398,-19L344,-68L318,24Z" fill="#89b052" stroke="#89b052" stroke-width="1.51"></path><path d="M1,243L69,292L61,191Z" fill="#7ea94c" stroke="#7ea94c" stroke-width="1.51"></path><path d="M-39,-71L-109,-93L-123,-5Z" fill="#d3de7e" stroke="#d3de7e" stroke-width="1.51"></path><path d="M228,-125L-109,-93L29,-66Z" fill="#c0d374" stroke="#c0d374" stroke-width="1.51"></path><path d="M332,91L396,72L318,24Z" fill="#6fa145" stroke="#6fa145" stroke-width="1.51"></path><path d="M323,244L357,169L206,180Z" fill="#62983d" stroke="#62983d" stroke-width="1.51"></path><path d="M-109,-93L-148,114L-123,-5Z" fill="#c8d778" stroke="#c8d778" stroke-width="1.51"></path><path d="M-123,-5L-148,114L-24,22Z" fill="#b5cd6e" stroke="#b5cd6e" stroke-width="1.51"></path><path d="M-39,170L-138,208L1,243Z" fill="#97b85a" stroke="#97b85a" stroke-width="1.51"></path><path d="M69,292L256,279L175,259Z" fill="#63993e" stroke="#63993e" stroke-width="1.51"></path><path d="M175,259L256,279L206,180Z" fill="#63993e" stroke="#63993e" stroke-width="1.51"></path><path d="M357,169L396,72L332,91Z" fill="#649a3f" stroke="#649a3f" stroke-width="1.51"></path><path d="M396,72L398,-19L318,24Z" fill="#7aa74a" stroke="#7aa74a" stroke-width="1.51"></path><path d="M256,279L323,244L206,180Z" fill="#62983c" stroke="#62983c" stroke-width="1.51"></path><path d="M-148,114L-138,208L-39,170Z" fill="#a5c163" stroke="#a5c163" stroke-width="1.51"></path><path d="M1,243L-152,239L69,292Z" fill="#8db154" stroke="#8db154" stroke-width="1.51"></path><path d="M398,-19L414,-83L344,-68Z" fill="#93b557" stroke="#93b557" stroke-width="1.51"></path><path d="M344,-68L414,-83L228,-125Z" fill="#a1be5f" stroke="#a1be5f" stroke-width="1.51"></path><path d="M396,72L414,-83L398,-19Z" fill="#83ac4f" stroke="#83ac4f" stroke-width="1.51"></path><path d="M396,72L414,172L414,-83Z" fill="#6fa044" stroke="#6fa044" stroke-width="1.51"></path><path d="M357,169L414,172L396,72Z" fill="#62983c" stroke="#62983c" stroke-width="1.51"></path><path d="M323,244L414,172L357,169Z" fill="#60963a" stroke="#60963a" stroke-width="1.51"></path><path d="M-148,114L-152,239L-138,208Z" fill="#acc567" stroke="#acc567" stroke-width="1.51"></path><path d="M-138,208L-152,239L1,243Z" fill="#9fbc5e" stroke="#9fbc5e" stroke-width="1.51"></path><path d="M323,244L450,291L414,172Z" fill="#5c9237" stroke="#5c9237" stroke-width="1.51"></path><path d="M414,172L450,291L414,-83Z" fill="#61973c" stroke="#61973c" stroke-width="1.51"></path><path d="M256,279L450,291L323,244Z" fill="#5c9237" stroke="#5c9237" stroke-width="1.51"></path><path d="M69,292L450,291L256,279Z" fill="#5f9539" stroke="#5f9539" stroke-width="1.51"></path></svg>