<svg width="300" height="176" xmlns="http://www.w3.org/2000/svg"><path d="M155,89L136,25L77,75Z" fill="#7ead50" stroke="#7ead50" stroke-width="1.51"></path><path d="M136,25L64,-17L77,75Z" fill="#90b75a" stroke="#90b75a" stroke-width="1.51"></path><path d="M77,75L80,162L155,89Z" fill="#79aa4d" stroke="#79aa4d" stroke-width="1.51"></path><path d="M-37,83L80,162L77,75Z" fill="#87b255" stroke="#87b255" stroke-width="1.51"></path><path d="M155,89L236,28L136,25Z" fill="#7bab4e" stroke="#7bab4e" stroke-width="1.51"></path><path d="M136,25L121,-97L64,-17Z" fill="#9fbf61" stroke="#9fbf61" stroke-width="1.51"></path><path d="M256,82L236,28L155,89Z" fill="#74a64a" stroke="#74a64a" stroke-width="1.51"></path><path d="M80,162L141,196L155,89Z" fill="#71a448" stroke="#71a448" stroke-width="1.51"></path><path d="M267,195L256,82L155,89Z" fill="#6aa044" stroke="#6aa044" stroke-width="1.51"></path><path d="M64,-17L-37,83L77,75Z" fill="#97bb5d" stroke="#97bb5d" stroke-width="1.51"></path><path d="M238,-104L121,-97L136,25Z" fill="#9dbf61" stroke="#9dbf61" stroke-width="1.51"></path><path d="M64,-17L-14,-29L-37,83Z" fill="#a8c567" stroke="#a8c567" stroke-width="1.51"></path><path d="M60,-108L-14,-29L64,-17Z" fill="#b5cc6e" stroke="#b5cc6e" stroke-width="1.51"></path><path d="M121,-97L60,-108L64,-17Z" fill="#b2ca6c" stroke="#b2ca6c" stroke-width="1.51"></path><path d="M141,196L267,195L155,89Z" fill="#699f43" stroke="#699f43" stroke-width="1.51"></path><path d="M141,196L138,265L267,195Z" fill="#669c40" stroke="#669c40" stroke-width="1.51"></path><path d="M80,162L138,265L141,196Z" fill="#6fa245" stroke="#6fa245" stroke-width="1.51"></path><path d="M40,293L138,265L80,162Z" fill="#75a447" stroke="#75a447" stroke-width="1.51"></path><path d="M357,172L321,66L256,82Z" fill="#679d41" stroke="#679d41" stroke-width="1.51"></path><path d="M256,82L321,66L236,28Z" fill="#74a549" stroke="#74a549" stroke-width="1.51"></path><path d="M236,28L238,-104L136,25Z" fill="#8fb658" stroke="#8fb658" stroke-width="1.51"></path><path d="M303,-76L238,-104L236,28Z" fill="#96b95c" stroke="#96b95c" stroke-width="1.51"></path><path d="M121,-97L238,-104L60,-108Z" fill="#aec96a" stroke="#aec96a" stroke-width="1.51"></path><path d="M321,66L319,1L236,28Z" fill="#7ba94c" stroke="#7ba94c" stroke-width="1.51"></path><path d="M-37,83L-47,199L80,162Z" fill="#8eb557" stroke="#8eb557" stroke-width="1.51"></path><path d="M-14,-29L-97,61L-37,83Z" fill="#acc769" stroke="#acc769" stroke-width="1.51"></path><path d="M-37,83L-94,183L-47,199Z" fill="#9abc5e" stroke="#9abc5e" stroke-width="1.51"></path><path d="M-14,-29L-144,-16L-97,61Z" fill="#bfd273" stroke="#bfd273" stroke-width="1.51"></path><path d="M60,-108L-45,-88L-14,-29Z" fill="#c5d576" stroke="#c5d576" stroke-width="1.51"></path><path d="M319,1L303,-76L236,28Z" fill="#8bb255" stroke="#8bb255" stroke-width="1.51"></path><path d="M-47,199L40,293L80,162Z" fill="#84ad50" stroke="#84ad50" stroke-width="1.51"></path><path d="M-47,199L-35,300L40,293Z" fill="#8ab052" stroke="#8ab052" stroke-width="1.51"></path><path d="M-97,61L-94,183L-37,83Z" fill="#a2c163" stroke="#a2c163" stroke-width="1.51"></path><path d="M321,66L398,13L319,1Z" fill="#7ba84b" stroke="#7ba84b" stroke-width="1.51"></path><path d="M319,1L398,13L303,-76Z" fill="#89b053" stroke="#89b053" stroke-width="1.51"></path><path d="M267,195L357,172L256,82Z" fill="#659b40" stroke="#659b40" stroke-width="1.51"></path><path d="M310,298L357,172L267,195Z" fill="#61963b" stroke="#61963b" stroke-width="1.51"></path><path d="M40,293L269,286L138,265Z" fill="#649a3e" stroke="#649a3e" stroke-width="1.51"></path><path d="M138,265L269,286L267,195Z" fill="#62983d" stroke="#62983d" stroke-width="1.51"></path><path d="M-97,61L-144,-16L-94,183Z" fill="#aec86a" stroke="#aec86a" stroke-width="1.51"></path><path d="M-45,-88L-144,-16L-14,-29Z" fill="#cad879" stroke="#cad879" stroke-width="1.51"></path><path d="M357,172L389,120L321,66Z" fill="#649a3f" stroke="#649a3f" stroke-width="1.51"></path><path d="M-94,183L-98,235L-47,199Z" fill="#9cbb5d" stroke="#9cbb5d" stroke-width="1.51"></path><path d="M-144,-16L-98,235L-94,183Z" fill="#a8c466" stroke="#a8c466" stroke-width="1.51"></path><path d="M-98,235L-35,300L-47,199Z" fill="#96b759" stroke="#96b759" stroke-width="1.51"></path><path d="M40,293L310,298L269,286Z" fill="#60963b" stroke="#60963b" stroke-width="1.51"></path><path d="M389,120L398,13L321,66Z" fill="#6da043" stroke="#6da043" stroke-width="1.51"></path><path d="M-35,300L310,298L40,293Z" fill="#6d9e42" stroke="#6d9e42" stroke-width="1.51"></path><path d="M269,286L310,298L267,195Z" fill="#5f953a" stroke="#5f953a" stroke-width="1.51"></path><path d="M357,172L442,167L389,120Z" fill="#61973c" stroke="#61973c" stroke-width="1.51"></path><path d="M408,-118L-145,-124L60,-108Z" fill="#bacf70" stroke="#bacf70" stroke-width="1.51"></path><path d="M60,-108L-145,-124L-45,-88Z" fill="#d9e181" stroke="#d9e181" stroke-width="1.51"></path><path d="M-45,-88L-145,-124L-144,-16Z" fill="#dfe484" stroke="#dfe484" stroke-width="1.51"></path><path d="M434,245L442,167L357,172Z" fill="#5e9438" stroke="#5e9438" stroke-width="1.51"></path><path d="M389,120L442,167L398,13Z" fill="#649a3e" stroke="#649a3e" stroke-width="1.51"></path><path d="M238,-104L408,-118L60,-108Z" fill="#aac566" stroke="#aac566" stroke-width="1.51"></path><path d="M303,-76L408,-118L238,-104Z" fill="#a4bf61" stroke="#a4bf61" stroke-width="1.51"></path><path d="M398,13L408,-118L303,-76Z" fill="#95b658" stroke="#95b658" stroke-width="1.51"></path><path d="M442,167L408,-118L398,13Z" fill="#79a649" stroke="#79a649" stroke-width="1.51"></path><path d="M310,298L434,245L357,172Z" fill="#5d9338" stroke="#5d9338" stroke-width="1.51"></path></svg>