<svg width="300" height="176" xmlns="http://www.w3.org/2000/svg"><path d="M182,80L177,181L223,88Z" fill="#6ba145" stroke="#6ba145" stroke-width="1.51"></path><path d="M177,181L253,170L223,88Z" fill="#689e42" stroke="#689e42" stroke-width="1.51"></path><path d="M44,194L126,236L177,181Z" fill="#70a346" stroke="#70a346" stroke-width="1.51"></path><path d="M177,181L223,257L253,170Z" fill="#659b40" stroke="#659b40" stroke-width="1.51"></path><path d="M126,236L223,257L177,181Z" fill="#669c40" stroke="#669c40" stroke-width="1.51"></path><path d="M223,88L248,-11L182,80Z" fill="#78a84c" stroke="#78a84c" stroke-width="1.51"></path><path d="M253,170L313,62L223,88Z" fill="#699f43" stroke="#699f43" stroke-width="1.51"></path><path d="M329,168L313,62L253,170Z" fill="#669c41" stroke="#669c41" stroke-width="1.51"></path><path d="M329,288L329,168L253,170Z" fill="#61973c" stroke="#61973c" stroke-width="1.51"></path><path d="M182,80L57,82L177,181Z" fill="#70a549" stroke="#70a549" stroke-width="1.51"></path><path d="M158,-35L57,82L182,80Z" fill="#82b052" stroke="#82b052" stroke-width="1.51"></path><path d="M313,62L248,-11L223,88Z" fill="#78a84b" stroke="#78a84b" stroke-width="1.51"></path><path d="M57,82L44,194L177,181Z" fill="#79a84c" stroke="#79a84c" stroke-width="1.51"></path><path d="M248,-11L158,-35L182,80Z" fill="#86b053" stroke="#86b053" stroke-width="1.51"></path><path d="M44,194L63,274L126,236Z" fill="#77a549" stroke="#77a549" stroke-width="1.51"></path><path d="M126,236L63,274L223,257Z" fill="#689d41" stroke="#689d41" stroke-width="1.51"></path><path d="M313,62L343,-2L248,-11Z" fill="#80ab4f" stroke="#80ab4f" stroke-width="1.51"></path><path d="M217,-97L133,-63L158,-35Z" fill="#9fbf62" stroke="#9fbf62" stroke-width="1.51"></path><path d="M391,-12L343,-2L313,62Z" fill="#7ea94d" stroke="#7ea94d" stroke-width="1.51"></path><path d="M57,82L-6,173L44,194Z" fill="#87b053" stroke="#87b053" stroke-width="1.51"></path><path d="M44,194L-52,300L63,274Z" fill="#83ac4f" stroke="#83ac4f" stroke-width="1.51"></path><path d="M37,-9L-4,88L57,82Z" fill="#96ba5d" stroke="#96ba5d" stroke-width="1.51"></path><path d="M158,-35L37,-9L57,82Z" fill="#96bb5d" stroke="#96bb5d" stroke-width="1.51"></path><path d="M217,-97L158,-35L248,-11Z" fill="#98bb5d" stroke="#98bb5d" stroke-width="1.51"></path><path d="M-4,88L-6,173L57,82Z" fill="#8cb457" stroke="#8cb457" stroke-width="1.51"></path><path d="M329,168L414,158L313,62Z" fill="#649a3e" stroke="#649a3e" stroke-width="1.51"></path><path d="M223,257L329,288L253,170Z" fill="#61973c" stroke="#61973c" stroke-width="1.51"></path><path d="M63,274L329,288L223,257Z" fill="#62983c" stroke="#62983c" stroke-width="1.51"></path><path d="M133,-63L37,-9L158,-35Z" fill="#a0c062" stroke="#a0c062" stroke-width="1.51"></path><path d="M329,288L414,158L329,168Z" fill="#60953a" stroke="#60953a" stroke-width="1.51"></path><path d="M359,-109L217,-97L248,-11Z" fill="#9dbd5e" stroke="#9dbd5e" stroke-width="1.51"></path><path d="M343,-2L359,-109L248,-11Z" fill="#91b557" stroke="#91b557" stroke-width="1.51"></path><path d="M452,116L391,-12L313,62Z" fill="#70a145" stroke="#70a145" stroke-width="1.51"></path><path d="M453,299L452,116L414,158Z" fill="#5d9337" stroke="#5d9337" stroke-width="1.51"></path><path d="M414,158L452,116L313,62Z" fill="#63993e" stroke="#63993e" stroke-width="1.51"></path><path d="M37,-9L-28,-31L-4,88Z" fill="#a8c566" stroke="#a8c566" stroke-width="1.51"></path><path d="M-4,88L-93,69L-6,173Z" fill="#98bb5d" stroke="#98bb5d" stroke-width="1.51"></path><path d="M30,-94L-28,-31L37,-9Z" fill="#b8ce70" stroke="#b8ce70" stroke-width="1.51"></path><path d="M30,-94L37,-9L133,-63Z" fill="#afc96b" stroke="#afc96b" stroke-width="1.51"></path><path d="M217,-97L30,-94L133,-63Z" fill="#abc768" stroke="#abc768" stroke-width="1.51"></path><path d="M452,116L409,-61L391,-12Z" fill="#7ba74a" stroke="#7ba74a" stroke-width="1.51"></path><path d="M391,-12L409,-61L343,-2Z" fill="#89af52" stroke="#89af52" stroke-width="1.51"></path><path d="M409,-61L359,-109L343,-2Z" fill="#94b658" stroke="#94b658" stroke-width="1.51"></path><path d="M217,-97L-2,-96L30,-94Z" fill="#b9ce70" stroke="#b9ce70" stroke-width="1.51"></path><path d="M-28,-31L-93,69L-4,88Z" fill="#a9c567" stroke="#a9c567" stroke-width="1.51"></path><path d="M-6,173L-52,300L44,194Z" fill="#8ab154" stroke="#8ab154" stroke-width="1.51"></path><path d="M63,274L-52,300L329,288Z" fill="#6c9e42" stroke="#6c9e42" stroke-width="1.51"></path><path d="M-114,292L-52,300L-153,209Z" fill="#9fbb5d" stroke="#9fbb5d" stroke-width="1.51"></path><path d="M359,-109L-2,-96L217,-97Z" fill="#a9c567" stroke="#a9c567" stroke-width="1.51"></path><path d="M30,-94L-2,-96L-28,-31Z" fill="#c4d576" stroke="#c4d576" stroke-width="1.51"></path><path d="M-28,-31L-144,25L-93,69Z" fill="#bbcf71" stroke="#bbcf71" stroke-width="1.51"></path><path d="M329,288L453,299L414,158Z" fill="#5b9136" stroke="#5b9136" stroke-width="1.51"></path><path d="M-52,300L453,299L329,288Z" fill="#5f9539" stroke="#5f9539" stroke-width="1.51"></path><path d="M-153,209L-52,300L-6,173Z" fill="#99b95b" stroke="#99b95b" stroke-width="1.51"></path><path d="M-93,69L-153,209L-6,173Z" fill="#a1bf61" stroke="#a1bf61" stroke-width="1.51"></path><path d="M-154,-71L-144,25L-28,-31Z" fill="#ceda7b" stroke="#ceda7b" stroke-width="1.51"></path><path d="M-144,25L-153,209L-93,69Z" fill="#aec869" stroke="#aec869" stroke-width="1.51"></path><path d="M-144,25L-154,-71L-153,209Z" fill="#bed172" stroke="#bed172" stroke-width="1.51"></path><path d="M-2,-96L-154,-71L-28,-31Z" fill="#d0dc7c" stroke="#d0dc7c" stroke-width="1.51"></path></svg>