<svg width="300" height="176" xmlns="http://www.w3.org/2000/svg"><path d="M162,251L42,277L213,255Z" fill="#669c41" stroke="#669c41" stroke-width="1.51"></path><path d="M42,277L-50,281L395,290Z" fill="#679c41" stroke="#679c41" stroke-width="1.51"></path><path d="M324,266L213,255L395,290Z" fill="#5e9438" stroke="#5e9438" stroke-width="1.51"></path><path d="M213,255L42,277L395,290Z" fill="#61973c" stroke="#61973c" stroke-width="1.51"></path><path d="M-48,-126L33,-113L412,-121Z" fill="#a0d07a" stroke="#a0d07a" stroke-width="1.51"></path><path d="M156,-87L236,-76L412,-121Z" fill="#92c46c" stroke="#92c46c" stroke-width="1.51"></path><path d="M33,-113L156,-87L412,-121Z" fill="#98c972" stroke="#98c972" stroke-width="1.51"></path><path d="M359,184L395,290L415,172Z" fill="#5d9338" stroke="#5d9338" stroke-width="1.51"></path><path d="M335,69L396,88L446,23Z" fill="#6ba045" stroke="#6ba045" stroke-width="1.51"></path><path d="M355,-59L335,69L446,23Z" fill="#76aa50" stroke="#76aa50" stroke-width="1.51"></path><path d="M412,-121L355,-59L446,23Z" fill="#83b55d" stroke="#83b55d" stroke-width="1.51"></path><path d="M396,88L415,172L446,23Z" fill="#63993e" stroke="#63993e" stroke-width="1.51"></path><path d="M415,172L395,290L446,23Z" fill="#5f953a" stroke="#5f953a" stroke-width="1.51"></path><path d="M299,-15L335,69L355,-59Z" fill="#7baf55" stroke="#7baf55" stroke-width="1.51"></path><path d="M359,184L324,266L395,290Z" fill="#5d9338" stroke="#5d9338" stroke-width="1.51"></path><path d="M236,-76L355,-59L412,-121Z" fill="#8dbf67" stroke="#8dbf67" stroke-width="1.51"></path><path d="M396,88L359,184L415,172Z" fill="#61973c" stroke="#61973c" stroke-width="1.51"></path><path d="M335,69L359,184L396,88Z" fill="#649a3f" stroke="#649a3f" stroke-width="1.51"></path><path d="M335,69L237,148L359,184Z" fill="#669c40" stroke="#669c40" stroke-width="1.51"></path><path d="M237,148L324,266L359,184Z" fill="#62983c" stroke="#62983c" stroke-width="1.51"></path><path d="M236,-76L299,-15L355,-59Z" fill="#87ba61" stroke="#87ba61" stroke-width="1.51"></path><path d="M236,-76L273,-18L299,-15Z" fill="#85b85f" stroke="#85b85f" stroke-width="1.51"></path><path d="M237,148L213,255L324,266Z" fill="#62983d" stroke="#62983d" stroke-width="1.51"></path><path d="M299,-15L273,-18L335,69Z" fill="#79ad53" stroke="#79ad53" stroke-width="1.51"></path><path d="M273,-18L209,94L335,69Z" fill="#72a74c" stroke="#72a74c" stroke-width="1.51"></path><path d="M209,94L237,148L335,69Z" fill="#699f43" stroke="#699f43" stroke-width="1.51"></path><path d="M236,-76L128,-27L273,-18Z" fill="#89bc63" stroke="#89bc63" stroke-width="1.51"></path><path d="M128,-27L209,94L273,-18Z" fill="#7db156" stroke="#7db156" stroke-width="1.51"></path><path d="M128,-27L168,95L209,94Z" fill="#75aa4f" stroke="#75aa4f" stroke-width="1.51"></path><path d="M169,144L162,251L213,255Z" fill="#669c40" stroke="#669c40" stroke-width="1.51"></path><path d="M156,-87L128,-27L236,-76Z" fill="#8fc269" stroke="#8fc269" stroke-width="1.51"></path><path d="M169,144L213,255L237,148Z" fill="#679d41" stroke="#679d41" stroke-width="1.51"></path><path d="M209,94L169,144L237,148Z" fill="#6aa044" stroke="#6aa044" stroke-width="1.51"></path><path d="M168,95L169,144L209,94Z" fill="#6ca246" stroke="#6ca246" stroke-width="1.51"></path><path d="M128,-27L75,75L168,95Z" fill="#7cb056" stroke="#7cb056" stroke-width="1.51"></path><path d="M75,75L79,150L168,95Z" fill="#74aa4e" stroke="#74aa4e" stroke-width="1.51"></path><path d="M168,95L79,150L169,144Z" fill="#6ea449" stroke="#6ea449" stroke-width="1.51"></path><path d="M79,150L162,251L169,144Z" fill="#6ba145" stroke="#6ba145" stroke-width="1.51"></path><path d="M79,150L42,277L162,251Z" fill="#70a449" stroke="#70a449" stroke-width="1.51"></path><path d="M70,-34L128,-27L156,-87Z" fill="#92c46c" stroke="#92c46c" stroke-width="1.51"></path><path d="M33,-113L70,-34L156,-87Z" fill="#9ecf78" stroke="#9ecf78" stroke-width="1.51"></path><path d="M70,-34L75,75L128,-27Z" fill="#8bbd64" stroke="#8bbd64" stroke-width="1.51"></path><path d="M70,-34L-23,26L75,75Z" fill="#8fc168" stroke="#8fc168" stroke-width="1.51"></path><path d="M-36,202L42,277L79,150Z" fill="#7baf55" stroke="#7baf55" stroke-width="1.51"></path><path d="M75,75L-33,101L79,150Z" fill="#7fb359" stroke="#7fb359" stroke-width="1.51"></path><path d="M-33,101L-36,202L79,150Z" fill="#82b65c" stroke="#82b65c" stroke-width="1.51"></path><path d="M-23,26L-33,101L75,75Z" fill="#8abd64" stroke="#8abd64" stroke-width="1.51"></path><path d="M33,-113L-23,26L70,-34Z" fill="#9fcf79" stroke="#9fcf79" stroke-width="1.51"></path><path d="M-48,-126L-23,26L33,-113Z" fill="#acdb86" stroke="#acdb86" stroke-width="1.51"></path><path d="M-36,202L-50,281L42,277Z" fill="#7fb259" stroke="#7fb259" stroke-width="1.51"></path><path d="M-125,-100L-128,-22L-48,-126Z" fill="#bdea97" stroke="#bdea97" stroke-width="1.51"></path><path d="M-101,200L-50,281L-36,202Z" fill="#89ba62" stroke="#89ba62" stroke-width="1.51"></path><path d="M-101,200L-36,202L-33,101Z" fill="#8bbd65" stroke="#8bbd65" stroke-width="1.51"></path><path d="M-148,99L-33,101L-23,26Z" fill="#94c66e" stroke="#94c66e" stroke-width="1.51"></path><path d="M-128,-22L-148,99L-23,26Z" fill="#a3d37c" stroke="#a3d37c" stroke-width="1.51"></path><path d="M-48,-126L-128,-22L-23,26Z" fill="#aedd88" stroke="#aedd88" stroke-width="1.51"></path><path d="M-101,200L-119,263L-50,281Z" fill="#8bbd65" stroke="#8bbd65" stroke-width="1.51"></path><path d="M-148,99L-101,200L-33,101Z" fill="#93c46d" stroke="#93c46d" stroke-width="1.51"></path><path d="M-148,99L-119,263L-101,200Z" fill="#94c56e" stroke="#94c56e" stroke-width="1.51"></path><path d="M-148,99L-128,-22L-125,-100Z" fill="#b1e08b" stroke="#b1e08b" stroke-width="1.51"></path></svg>