<svg width="300" height="176" xmlns="http://www.w3.org/2000/svg"><path d="M-34,270L-95,281L179,277Z" fill="#82ab4e" stroke="#82ab4e" stroke-width="1.51"></path><path d="M179,277L-95,281L253,285Z" fill="#6c9f42" stroke="#6c9f42" stroke-width="1.51"></path><path d="M211,-122L350,-78L436,-87Z" fill="#a2be60" stroke="#a2be60" stroke-width="1.51"></path><path d="M350,-78L399,-2L436,-87Z" fill="#93b556" stroke="#93b556" stroke-width="1.51"></path><path d="M399,-2L431,93L436,-87Z" fill="#7fa94c" stroke="#7fa94c" stroke-width="1.51"></path><path d="M431,93L362,110L437,199Z" fill="#62973c" stroke="#62973c" stroke-width="1.51"></path><path d="M362,110L335,184L437,199Z" fill="#61973b" stroke="#61973b" stroke-width="1.51"></path><path d="M437,199L357,287L445,241Z" fill="#5b9135" stroke="#5b9135" stroke-width="1.51"></path><path d="M431,93L437,199L445,241Z" fill="#5e9438" stroke="#5e9438" stroke-width="1.51"></path><path d="M436,-87L431,93L445,241Z" fill="#659a3e" stroke="#659a3e" stroke-width="1.51"></path><path d="M399,-2L362,110L431,93Z" fill="#6c9e42" stroke="#6c9e42" stroke-width="1.51"></path><path d="M335,184L357,287L437,199Z" fill="#5d9338" stroke="#5d9338" stroke-width="1.51"></path><path d="M316,8L362,110L399,-2Z" fill="#77a548" stroke="#77a548" stroke-width="1.51"></path><path d="M350,-78L316,8L399,-2Z" fill="#8ab053" stroke="#8ab053" stroke-width="1.51"></path><path d="M-151,-109L-10,-68L211,-122Z" fill="#c9d779" stroke="#c9d779" stroke-width="1.51"></path><path d="M335,184L253,285L357,287Z" fill="#5e9439" stroke="#5e9439" stroke-width="1.51"></path><path d="M269,97L335,184L362,110Z" fill="#659b40" stroke="#659b40" stroke-width="1.51"></path><path d="M316,8L269,97L362,110Z" fill="#6da144" stroke="#6da144" stroke-width="1.51"></path><path d="M231,10L316,8L350,-78Z" fill="#8cb255" stroke="#8cb255" stroke-width="1.51"></path><path d="M211,-122L231,10L350,-78Z" fill="#9abb5e" stroke="#9abb5e" stroke-width="1.51"></path><path d="M211,-122L182,-62L231,10Z" fill="#9bbc5f" stroke="#9bbc5f" stroke-width="1.51"></path><path d="M269,97L215,192L335,184Z" fill="#669c40" stroke="#669c40" stroke-width="1.51"></path><path d="M215,192L253,285L335,184Z" fill="#62983d" stroke="#62983d" stroke-width="1.51"></path><path d="M231,10L269,97L316,8Z" fill="#7aa94c" stroke="#7aa94c" stroke-width="1.51"></path><path d="M-10,-68L76,-59L211,-122Z" fill="#b2cb6d" stroke="#b2cb6d" stroke-width="1.51"></path><path d="M215,192L179,277L253,285Z" fill="#63993d" stroke="#63993d" stroke-width="1.51"></path><path d="M157,172L215,192L269,97Z" fill="#689e42" stroke="#689e42" stroke-width="1.51"></path><path d="M231,10L118,65L269,97Z" fill="#77a84b" stroke="#77a84b" stroke-width="1.51"></path><path d="M118,65L157,172L269,97Z" fill="#6ca246" stroke="#6ca246" stroke-width="1.51"></path><path d="M70,238L-34,270L179,277Z" fill="#77a548" stroke="#77a548" stroke-width="1.51"></path><path d="M182,-62L125,-5L231,10Z" fill="#90b75a" stroke="#90b75a" stroke-width="1.51"></path><path d="M125,-5L118,65L231,10Z" fill="#83b053" stroke="#83b053" stroke-width="1.51"></path><path d="M157,172L179,277L215,192Z" fill="#669c40" stroke="#669c40" stroke-width="1.51"></path><path d="M76,-59L182,-62L211,-122Z" fill="#a4c365" stroke="#a4c365" stroke-width="1.51"></path><path d="M157,172L87,201L179,277Z" fill="#699e42" stroke="#699e42" stroke-width="1.51"></path><path d="M87,201L70,238L179,277Z" fill="#6fa145" stroke="#6fa145" stroke-width="1.51"></path><path d="M76,-59L125,-5L182,-62Z" fill="#9ebf61" stroke="#9ebf61" stroke-width="1.51"></path><path d="M118,65L86,72L157,172Z" fill="#75a84b" stroke="#75a84b" stroke-width="1.51"></path><path d="M86,72L87,201L157,172Z" fill="#75a64a" stroke="#75a64a" stroke-width="1.51"></path><path d="M86,72L118,65L125,-5Z" fill="#86b255" stroke="#86b255" stroke-width="1.51"></path><path d="M43,-4L86,72L125,-5Z" fill="#94b95b" stroke="#94b95b" stroke-width="1.51"></path><path d="M76,-59L43,-4L125,-5Z" fill="#a2c263" stroke="#a2c263" stroke-width="1.51"></path><path d="M86,72L-21,104L87,201Z" fill="#84af53" stroke="#84af53" stroke-width="1.51"></path><path d="M43,-4L-21,104L86,72Z" fill="#93b95b" stroke="#93b95b" stroke-width="1.51"></path><path d="M-26,176L70,238L87,201Z" fill="#80ab4f" stroke="#80ab4f" stroke-width="1.51"></path><path d="M-21,104L-26,176L87,201Z" fill="#8ab255" stroke="#8ab255" stroke-width="1.51"></path><path d="M-10,-68L43,-4L76,-59Z" fill="#b3cb6c" stroke="#b3cb6c" stroke-width="1.51"></path><path d="M-26,176L-34,270L70,238Z" fill="#88b052" stroke="#88b052" stroke-width="1.51"></path><path d="M-10,-68L-22,-28L43,-4Z" fill="#b7cd6f" stroke="#b7cd6f" stroke-width="1.51"></path><path d="M-22,-28L-21,104L43,-4Z" fill="#a5c365" stroke="#a5c365" stroke-width="1.51"></path><path d="M-95,281L-34,270L-26,176Z" fill="#94b658" stroke="#94b658" stroke-width="1.51"></path><path d="M-110,-31L-99,57L-22,-28Z" fill="#bfd273" stroke="#bfd273" stroke-width="1.51"></path><path d="M-22,-28L-99,57L-21,104Z" fill="#aac667" stroke="#aac667" stroke-width="1.51"></path><path d="M-110,-31L-22,-28L-10,-68Z" fill="#c5d676" stroke="#c5d676" stroke-width="1.51"></path><path d="M-151,-109L-110,-31L-10,-68Z" fill="#d7e080" stroke="#d7e080" stroke-width="1.51"></path><path d="M-134,169L-95,281L-26,176Z" fill="#9dbc5e" stroke="#9dbc5e" stroke-width="1.51"></path><path d="M-134,169L-26,176L-21,104Z" fill="#9bbc5f" stroke="#9bbc5f" stroke-width="1.51"></path><path d="M-99,57L-134,169L-21,104Z" fill="#a3c163" stroke="#a3c163" stroke-width="1.51"></path><path d="M-151,-109L-134,169L-110,-31Z" fill="#c8d778" stroke="#c8d778" stroke-width="1.51"></path><path d="M-110,-31L-134,169L-99,57Z" fill="#b3cb6d" stroke="#b3cb6d" stroke-width="1.51"></path></svg>