<svg width="300" height="176" xmlns="http://www.w3.org/2000/svg"><path d="M217,267L178,280L325,247Z" fill="#61973c" stroke="#61973c" stroke-width="1.51"></path><path d="M48,-125L227,-99L334,-107Z" fill="#99ca73" stroke="#99ca73" stroke-width="1.51"></path><path d="M325,247L178,280L419,242Z" fill="#5f9439" stroke="#5f9439" stroke-width="1.51"></path><path d="M48,-125L334,-107L432,-110Z" fill="#96c870" stroke="#96c870" stroke-width="1.51"></path><path d="M323,-18L403,26L432,-110Z" fill="#80b25a" stroke="#80b25a" stroke-width="1.51"></path><path d="M334,-107L323,-18L432,-110Z" fill="#8bbc64" stroke="#8bbc64" stroke-width="1.51"></path><path d="M324,92L408,198L446,121Z" fill="#62983c" stroke="#62983c" stroke-width="1.51"></path><path d="M403,26L324,92L446,121Z" fill="#679c41" stroke="#679c41" stroke-width="1.51"></path><path d="M408,198L419,242L446,121Z" fill="#5e9338" stroke="#5e9338" stroke-width="1.51"></path><path d="M432,-110L403,26L446,121Z" fill="#74a84e" stroke="#74a84e" stroke-width="1.51"></path><path d="M324,92L305,188L408,198Z" fill="#63993d" stroke="#63993d" stroke-width="1.51"></path><path d="M408,198L325,247L419,242Z" fill="#5d9338" stroke="#5d9338" stroke-width="1.51"></path><path d="M305,188L325,247L408,198Z" fill="#60963a" stroke="#60963a" stroke-width="1.51"></path><path d="M323,-18L324,92L403,26Z" fill="#72a74d" stroke="#72a74d" stroke-width="1.51"></path><path d="M48,-125L142,-89L227,-99Z" fill="#9bcc75" stroke="#9bcc75" stroke-width="1.51"></path><path d="M210,2L254,88L323,-18Z" fill="#78ad52" stroke="#78ad52" stroke-width="1.51"></path><path d="M323,-18L254,88L324,92Z" fill="#70a54a" stroke="#70a54a" stroke-width="1.51"></path><path d="M254,88L305,188L324,92Z" fill="#679d41" stroke="#679d41" stroke-width="1.51"></path><path d="M227,-99L323,-18L334,-107Z" fill="#8dbe66" stroke="#8dbe66" stroke-width="1.51"></path><path d="M254,88L265,199L305,188Z" fill="#669c40" stroke="#669c40" stroke-width="1.51"></path><path d="M227,-99L210,2L323,-18Z" fill="#86b960" stroke="#86b960" stroke-width="1.51"></path><path d="M305,188L265,199L325,247Z" fill="#62983c" stroke="#62983c" stroke-width="1.51"></path><path d="M265,199L217,267L325,247Z" fill="#61973c" stroke="#61973c" stroke-width="1.51"></path><path d="M132,86L135,176L254,88Z" fill="#6ca246" stroke="#6ca246" stroke-width="1.51"></path><path d="M254,88L135,176L265,199Z" fill="#689e42" stroke="#689e42" stroke-width="1.51"></path><path d="M135,176L217,267L265,199Z" fill="#659b3f" stroke="#659b3f" stroke-width="1.51"></path><path d="M210,2L163,20L254,88Z" fill="#78ac51" stroke="#78ac51" stroke-width="1.51"></path><path d="M163,20L132,86L254,88Z" fill="#72a84c" stroke="#72a84c" stroke-width="1.51"></path><path d="M135,176L178,280L217,267Z" fill="#659b3f" stroke="#659b3f" stroke-width="1.51"></path><path d="M142,-89L210,2L227,-99Z" fill="#8ec068" stroke="#8ec068" stroke-width="1.51"></path><path d="M142,-89L163,20L210,2Z" fill="#86b960" stroke="#86b960" stroke-width="1.51"></path><path d="M142,-89L60,-2L163,20Z" fill="#8cbf66" stroke="#8cbf66" stroke-width="1.51"></path><path d="M135,176L30,298L178,280Z" fill="#6ba045" stroke="#6ba045" stroke-width="1.51"></path><path d="M39,179L30,298L135,176Z" fill="#74a94e" stroke="#74a94e" stroke-width="1.51"></path><path d="M60,-2L132,86L163,20Z" fill="#80b459" stroke="#80b459" stroke-width="1.51"></path><path d="M60,-2L43,61L132,86Z" fill="#83b65c" stroke="#83b65c" stroke-width="1.51"></path><path d="M132,86L39,179L135,176Z" fill="#73a84d" stroke="#73a84d" stroke-width="1.51"></path><path d="M48,-125L60,-2L142,-89Z" fill="#9dce77" stroke="#9dce77" stroke-width="1.51"></path><path d="M43,61L39,179L132,86Z" fill="#7aaf54" stroke="#7aaf54" stroke-width="1.51"></path><path d="M-49,261L30,298L39,179Z" fill="#7cb056" stroke="#7cb056" stroke-width="1.51"></path><path d="M-2,98L39,179L43,61Z" fill="#81b45b" stroke="#81b45b" stroke-width="1.51"></path><path d="M-111,-117L-19,-92L48,-125Z" fill="#b7e591" stroke="#b7e591" stroke-width="1.51"></path><path d="M-58,3L43,61L60,-2Z" fill="#93c56c" stroke="#93c56c" stroke-width="1.51"></path><path d="M-19,-92L-58,3L60,-2Z" fill="#a1d27b" stroke="#a1d27b" stroke-width="1.51"></path><path d="M48,-125L-19,-92L60,-2Z" fill="#a6d67f" stroke="#a6d67f" stroke-width="1.51"></path><path d="M-49,261L-106,276L30,298Z" fill="#82b45c" stroke="#82b45c" stroke-width="1.51"></path><path d="M-2,98L-57,160L39,179Z" fill="#84b75e" stroke="#84b75e" stroke-width="1.51"></path><path d="M-57,160L-49,261L39,179Z" fill="#84b65d" stroke="#84b65d" stroke-width="1.51"></path><path d="M-58,3L-2,98L43,61Z" fill="#8fc169" stroke="#8fc169" stroke-width="1.51"></path><path d="M-97,-15L-58,3L-19,-92Z" fill="#abda85" stroke="#abda85" stroke-width="1.51"></path><path d="M-111,78L-57,160L-2,98Z" fill="#8ec068" stroke="#8ec068" stroke-width="1.51"></path><path d="M-58,3L-111,78L-2,98Z" fill="#96c76f" stroke="#96c76f" stroke-width="1.51"></path><path d="M-111,-117L-97,-15L-19,-92Z" fill="#b7e591" stroke="#b7e591" stroke-width="1.51"></path><path d="M-97,-15L-111,78L-58,3Z" fill="#a3d47d" stroke="#a3d47d" stroke-width="1.51"></path><path d="M-146,158L-106,276L-57,160Z" fill="#90c26a" stroke="#90c26a" stroke-width="1.51"></path><path d="M-111,78L-146,158L-57,160Z" fill="#95c66e" stroke="#95c66e" stroke-width="1.51"></path><path d="M-57,160L-106,276L-49,261Z" fill="#89bb63" stroke="#89bb63" stroke-width="1.51"></path><path d="M-146,158L-111,78L-97,-15Z" fill="#9dce76" stroke="#9dce76" stroke-width="1.51"></path><path d="M-111,-117L-146,158L-97,-15Z" fill="#abda85" stroke="#abda85" stroke-width="1.51"></path></svg>