<svg width="300" height="176" xmlns="http://www.w3.org/2000/svg"><path d="M149,259L-35,281L361,294Z" fill="#63993e" stroke="#63993e" stroke-width="1.51"></path><path d="M74,-109L220,-86L404,-93Z" fill="#a6c264" stroke="#a6c264" stroke-width="1.51"></path><path d="M220,-86L310,-72L404,-93Z" fill="#9fbd5f" stroke="#9fbd5f" stroke-width="1.51"></path><path d="M298,24L421,97L446,-23Z" fill="#76a548" stroke="#76a548" stroke-width="1.51"></path><path d="M361,294L409,292L452,206Z" fill="#5a9035" stroke="#5a9035" stroke-width="1.51"></path><path d="M300,194L361,294L452,206Z" fill="#5d9338" stroke="#5d9338" stroke-width="1.51"></path><path d="M421,97L300,194L452,206Z" fill="#60963b" stroke="#60963b" stroke-width="1.51"></path><path d="M446,-23L421,97L452,206Z" fill="#62983d" stroke="#62983d" stroke-width="1.51"></path><path d="M404,-93L310,-72L446,-23Z" fill="#95b658" stroke="#95b658" stroke-width="1.51"></path><path d="M310,-72L298,24L446,-23Z" fill="#8ab053" stroke="#8ab053" stroke-width="1.51"></path><path d="M298,24L305,103L421,97Z" fill="#6b9f43" stroke="#6b9f43" stroke-width="1.51"></path><path d="M305,103L300,194L421,97Z" fill="#649a3f" stroke="#649a3f" stroke-width="1.51"></path><path d="M-108,-106L-8,-98L74,-109Z" fill="#d2dc7d" stroke="#d2dc7d" stroke-width="1.51"></path><path d="M245,238L149,259L361,294Z" fill="#61973b" stroke="#61973b" stroke-width="1.51"></path><path d="M84,253L-35,281L149,259Z" fill="#78a549" stroke="#78a549" stroke-width="1.51"></path><path d="M300,194L245,238L361,294Z" fill="#5f953a" stroke="#5f953a" stroke-width="1.51"></path><path d="M247,7L210,88L298,24Z" fill="#7ba94d" stroke="#7ba94d" stroke-width="1.51"></path><path d="M298,24L210,88L305,103Z" fill="#70a346" stroke="#70a346" stroke-width="1.51"></path><path d="M260,154L300,194L305,103Z" fill="#669b40" stroke="#669b40" stroke-width="1.51"></path><path d="M247,7L298,24L310,-72Z" fill="#8ab154" stroke="#8ab154" stroke-width="1.51"></path><path d="M220,-86L247,7L310,-72Z" fill="#96b95c" stroke="#96b95c" stroke-width="1.51"></path><path d="M210,88L260,154L305,103Z" fill="#699f43" stroke="#699f43" stroke-width="1.51"></path><path d="M260,154L245,238L300,194Z" fill="#649a3e" stroke="#649a3e" stroke-width="1.51"></path><path d="M220,-86L160,-61L247,7Z" fill="#98ba5d" stroke="#98ba5d" stroke-width="1.51"></path><path d="M210,88L181,95L260,154Z" fill="#6aa044" stroke="#6aa044" stroke-width="1.51"></path><path d="M126,209L245,238L260,154Z" fill="#669c40" stroke="#669c40" stroke-width="1.51"></path><path d="M181,95L126,209L260,154Z" fill="#699f44" stroke="#699f44" stroke-width="1.51"></path><path d="M74,-109L160,-61L220,-86Z" fill="#a7c466" stroke="#a7c466" stroke-width="1.51"></path><path d="M126,209L149,259L245,238Z" fill="#659b40" stroke="#659b40" stroke-width="1.51"></path><path d="M145,1L210,88L247,7Z" fill="#7fad50" stroke="#7fad50" stroke-width="1.51"></path><path d="M160,-61L145,1L247,7Z" fill="#8fb659" stroke="#8fb659" stroke-width="1.51"></path><path d="M145,1L181,95L210,88Z" fill="#77a94c" stroke="#77a94c" stroke-width="1.51"></path><path d="M90,189L126,209L181,95Z" fill="#6ea346" stroke="#6ea346" stroke-width="1.51"></path><path d="M74,99L90,189L181,95Z" fill="#75a74a" stroke="#75a74a" stroke-width="1.51"></path><path d="M145,1L74,99L181,95Z" fill="#7bab4f" stroke="#7bab4f" stroke-width="1.51"></path><path d="M36,-20L145,1L160,-61Z" fill="#9cbe60" stroke="#9cbe60" stroke-width="1.51"></path><path d="M74,-109L36,-20L160,-61Z" fill="#acc769" stroke="#acc769" stroke-width="1.51"></path><path d="M36,-20L74,99L145,1Z" fill="#92b85a" stroke="#92b85a" stroke-width="1.51"></path><path d="M126,209L84,253L149,259Z" fill="#6da043" stroke="#6da043" stroke-width="1.51"></path><path d="M90,189L84,253L126,209Z" fill="#73a447" stroke="#73a447" stroke-width="1.51"></path><path d="M-45,157L-35,281L84,253Z" fill="#89af52" stroke="#89af52" stroke-width="1.51"></path><path d="M-45,157L84,253L90,189Z" fill="#81ac4f" stroke="#81ac4f" stroke-width="1.51"></path><path d="M74,99L-45,157L90,189Z" fill="#85af52" stroke="#85af52" stroke-width="1.51"></path><path d="M36,-20L-54,91L74,99Z" fill="#97bb5d" stroke="#97bb5d" stroke-width="1.51"></path><path d="M-8,-98L36,-20L74,-109Z" fill="#bdd172" stroke="#bdd172" stroke-width="1.51"></path><path d="M-54,91L-45,157L74,99Z" fill="#92b85a" stroke="#92b85a" stroke-width="1.51"></path><path d="M-6,-29L-54,91L36,-20Z" fill="#aac668" stroke="#aac668" stroke-width="1.51"></path><path d="M-8,-98L-6,-29L36,-20Z" fill="#bbcf71" stroke="#bbcf71" stroke-width="1.51"></path><path d="M-45,157L-106,235L-35,281Z" fill="#97b85a" stroke="#97b85a" stroke-width="1.51"></path><path d="M-126,-9L-54,91L-6,-29Z" fill="#b6cc6e" stroke="#b6cc6e" stroke-width="1.51"></path><path d="M-8,-98L-108,-106L-6,-29Z" fill="#cfdb7c" stroke="#cfdb7c" stroke-width="1.51"></path><path d="M-108,-106L-126,-9L-6,-29Z" fill="#cfdb7c" stroke="#cfdb7c" stroke-width="1.51"></path><path d="M-145,150L-106,235L-45,157Z" fill="#a2bf61" stroke="#a2bf61" stroke-width="1.51"></path><path d="M-54,91L-140,121L-45,157Z" fill="#a1c062" stroke="#a1c062" stroke-width="1.51"></path><path d="M-140,121L-145,150L-45,157Z" fill="#a7c365" stroke="#a7c365" stroke-width="1.51"></path><path d="M-126,-9L-140,121L-54,91Z" fill="#b0c96b" stroke="#b0c96b" stroke-width="1.51"></path><path d="M-145,150L-140,121L-126,-9Z" fill="#b0ca6b" stroke="#b0ca6b" stroke-width="1.51"></path></svg>