<svg width="300" height="176" xmlns="http://www.w3.org/2000/svg"><path d="M-107,-108L74,-88L163,-101Z" fill="#aad983" stroke="#aad983" stroke-width="1.51"></path><path d="M157,276L63,291L314,284Z" fill="#62983d" stroke="#62983d" stroke-width="1.51"></path><path d="M-107,-108L163,-101L331,-116Z" fill="#9ece78" stroke="#9ece78" stroke-width="1.51"></path><path d="M314,284L63,291L388,286Z" fill="#5f9539" stroke="#5f9539" stroke-width="1.51"></path><path d="M344,100L403,119L423,-1Z" fill="#689e43" stroke="#689e43" stroke-width="1.51"></path><path d="M403,119L397,186L423,-1Z" fill="#63993e" stroke="#63993e" stroke-width="1.51"></path><path d="M-107,-108L331,-116L448,-122Z" fill="#99ca73" stroke="#99ca73" stroke-width="1.51"></path><path d="M423,-1L397,186L448,-122Z" fill="#72a64c" stroke="#72a64c" stroke-width="1.51"></path><path d="M397,186L388,286L448,-122Z" fill="#62983d" stroke="#62983d" stroke-width="1.51"></path><path d="M331,-116L423,-1L448,-122Z" fill="#89bb63" stroke="#89bb63" stroke-width="1.51"></path><path d="M308,22L344,100L423,-1Z" fill="#71a64b" stroke="#71a64b" stroke-width="1.51"></path><path d="M331,-116L308,22L423,-1Z" fill="#81b45b" stroke="#81b45b" stroke-width="1.51"></path><path d="M-2,271L-129,256L63,291Z" fill="#80b259" stroke="#80b259" stroke-width="1.51"></path><path d="M314,284L388,286L397,186Z" fill="#5c9237" stroke="#5c9237" stroke-width="1.51"></path><path d="M328,167L314,284L397,186Z" fill="#60963a" stroke="#60963a" stroke-width="1.51"></path><path d="M328,167L397,186L403,119Z" fill="#61973c" stroke="#61973c" stroke-width="1.51"></path><path d="M344,100L328,167L403,119Z" fill="#649a3e" stroke="#649a3e" stroke-width="1.51"></path><path d="M261,246L314,284L328,167Z" fill="#61963b" stroke="#61963b" stroke-width="1.51"></path><path d="M216,-63L308,22L331,-116Z" fill="#88bb62" stroke="#88bb62" stroke-width="1.51"></path><path d="M308,22L225,63L344,100Z" fill="#6fa448" stroke="#6fa448" stroke-width="1.51"></path><path d="M222,146L328,167L344,100Z" fill="#669c40" stroke="#669c40" stroke-width="1.51"></path><path d="M225,63L222,146L344,100Z" fill="#699f43" stroke="#699f43" stroke-width="1.51"></path><path d="M261,246L157,276L314,284Z" fill="#60963b" stroke="#60963b" stroke-width="1.51"></path><path d="M163,-101L216,-63L331,-116Z" fill="#94c56d" stroke="#94c56d" stroke-width="1.51"></path><path d="M222,146L261,246L328,167Z" fill="#649a3f" stroke="#649a3f" stroke-width="1.51"></path><path d="M216,-63L211,10L308,22Z" fill="#81b45a" stroke="#81b45a" stroke-width="1.51"></path><path d="M211,10L225,63L308,22Z" fill="#77ac51" stroke="#77ac51" stroke-width="1.51"></path><path d="M222,146L179,185L261,246Z" fill="#669c40" stroke="#669c40" stroke-width="1.51"></path><path d="M179,185L157,276L261,246Z" fill="#649a3f" stroke="#649a3f" stroke-width="1.51"></path><path d="M180,55L179,185L222,146Z" fill="#6aa044" stroke="#6aa044" stroke-width="1.51"></path><path d="M180,55L222,146L225,63Z" fill="#6ca246" stroke="#6ca246" stroke-width="1.51"></path><path d="M211,10L180,55L225,63Z" fill="#76ab50" stroke="#76ab50" stroke-width="1.51"></path><path d="M139,31L211,10L216,-63Z" fill="#82b65c" stroke="#82b65c" stroke-width="1.51"></path><path d="M163,-101L139,31L216,-63Z" fill="#8bbe65" stroke="#8bbe65" stroke-width="1.51"></path><path d="M139,31L180,55L211,10Z" fill="#7aaf54" stroke="#7aaf54" stroke-width="1.51"></path><path d="M74,-88L139,31L163,-101Z" fill="#92c46c" stroke="#92c46c" stroke-width="1.51"></path><path d="M32,105L74,210L179,185Z" fill="#73a84d" stroke="#73a84d" stroke-width="1.51"></path><path d="M74,210L157,276L179,185Z" fill="#699f43" stroke="#699f43" stroke-width="1.51"></path><path d="M32,105L179,185L180,55Z" fill="#70a64a" stroke="#70a64a" stroke-width="1.51"></path><path d="M139,31L32,105L180,55Z" fill="#7aae54" stroke="#7aae54" stroke-width="1.51"></path><path d="M74,-88L31,26L139,31Z" fill="#90c269" stroke="#90c269" stroke-width="1.51"></path><path d="M74,210L63,291L157,276Z" fill="#6da247" stroke="#6da247" stroke-width="1.51"></path><path d="M31,26L32,105L139,31Z" fill="#83b75d" stroke="#83b75d" stroke-width="1.51"></path><path d="M32,105L-31,170L74,210Z" fill="#7eb258" stroke="#7eb258" stroke-width="1.51"></path><path d="M-2,271L63,291L74,210Z" fill="#75a94f" stroke="#75a94f" stroke-width="1.51"></path><path d="M-31,170L-2,271L74,210Z" fill="#7db057" stroke="#7db057" stroke-width="1.51"></path><path d="M-107,-108L-19,-62L74,-88Z" fill="#b0df8a" stroke="#b0df8a" stroke-width="1.51"></path><path d="M-19,-62L31,26L74,-88Z" fill="#9ecf78" stroke="#9ecf78" stroke-width="1.51"></path><path d="M-19,-62L-47,11L31,26Z" fill="#9ece77" stroke="#9ece77" stroke-width="1.51"></path><path d="M-47,11L-29,93L31,26Z" fill="#93c46d" stroke="#93c46d" stroke-width="1.51"></path><path d="M31,26L-29,93L32,105Z" fill="#88bb62" stroke="#88bb62" stroke-width="1.51"></path><path d="M-29,93L-31,170L32,105Z" fill="#86b960" stroke="#86b960" stroke-width="1.51"></path><path d="M-31,170L-129,256L-2,271Z" fill="#87b961" stroke="#87b961" stroke-width="1.51"></path><path d="M-112,161L-129,256L-31,170Z" fill="#8fc068" stroke="#8fc068" stroke-width="1.51"></path><path d="M-112,161L-31,170L-29,93Z" fill="#8dbf67" stroke="#8dbf67" stroke-width="1.51"></path><path d="M-107,-108L-47,11L-19,-62Z" fill="#afde89" stroke="#afde89" stroke-width="1.51"></path><path d="M-47,11L-135,93L-29,93Z" fill="#97c871" stroke="#97c871" stroke-width="1.51"></path><path d="M-135,93L-112,161L-29,93Z" fill="#94c56d" stroke="#94c56d" stroke-width="1.51"></path><path d="M-107,-108L-149,27L-47,11Z" fill="#afde89" stroke="#afde89" stroke-width="1.51"></path><path d="M-149,27L-135,93L-47,11Z" fill="#a2d27c" stroke="#a2d27c" stroke-width="1.51"></path><path d="M-135,93L-129,256L-112,161Z" fill="#95c670" stroke="#95c670" stroke-width="1.51"></path><path d="M-135,93L-149,27L-129,256Z" fill="#9acb74" stroke="#9acb74" stroke-width="1.51"></path></svg>