<svg width="300" height="176" xmlns="http://www.w3.org/2000/svg"><path d="M128,75L89,75L82,154Z" fill="#7aaa4e" stroke="#7aaa4e" stroke-width="1.51"></path><path d="M82,154L148,188L128,75Z" fill="#73a649" stroke="#73a649" stroke-width="1.51"></path><path d="M89,75L-6,166L82,154Z" fill="#82ae52" stroke="#82ae52" stroke-width="1.51"></path><path d="M128,75L63,24L89,75Z" fill="#86b254" stroke="#86b254" stroke-width="1.51"></path><path d="M82,154L118,269L148,188Z" fill="#70a346" stroke="#70a346" stroke-width="1.51"></path><path d="M-28,63L-6,166L89,75Z" fill="#8cb557" stroke="#8cb557" stroke-width="1.51"></path><path d="M236,-34L122,-21L128,75Z" fill="#89b356" stroke="#89b356" stroke-width="1.51"></path><path d="M128,75L122,-21L63,24Z" fill="#8eb659" stroke="#8eb659" stroke-width="1.51"></path><path d="M-37,17L-28,63L63,24Z" fill="#a2c264" stroke="#a2c264" stroke-width="1.51"></path><path d="M63,24L-28,63L89,75Z" fill="#93b95b" stroke="#93b95b" stroke-width="1.51"></path><path d="M78,273L118,269L82,154Z" fill="#73a447" stroke="#73a447" stroke-width="1.51"></path><path d="M-6,166L78,273L82,154Z" fill="#7fab4e" stroke="#7fab4e" stroke-width="1.51"></path><path d="M272,151L266,76L128,75Z" fill="#6ba145" stroke="#6ba145" stroke-width="1.51"></path><path d="M272,151L128,75L148,188Z" fill="#6aa044" stroke="#6aa044" stroke-width="1.51"></path><path d="M221,254L272,151L148,188Z" fill="#669c40" stroke="#669c40" stroke-width="1.51"></path><path d="M50,-72L-37,17L63,24Z" fill="#abc768" stroke="#abc768" stroke-width="1.51"></path><path d="M118,269L221,254L148,188Z" fill="#669c40" stroke="#669c40" stroke-width="1.51"></path><path d="M266,76L236,-34L128,75Z" fill="#7cab4e" stroke="#7cab4e" stroke-width="1.51"></path><path d="M122,-21L50,-72L63,24Z" fill="#a3c264" stroke="#a3c264" stroke-width="1.51"></path><path d="M138,-79L50,-72L122,-21Z" fill="#a8c567" stroke="#a8c567" stroke-width="1.51"></path><path d="M236,-34L138,-79L122,-21Z" fill="#99bc5f" stroke="#99bc5f" stroke-width="1.51"></path><path d="M-6,166L-3,287L78,273Z" fill="#83ac4f" stroke="#83ac4f" stroke-width="1.51"></path><path d="M78,273L-3,287L118,269Z" fill="#77a548" stroke="#77a548" stroke-width="1.51"></path><path d="M118,269L351,275L221,254Z" fill="#61973b" stroke="#61973b" stroke-width="1.51"></path><path d="M-97,198L-3,287L-6,166Z" fill="#91b557" stroke="#91b557" stroke-width="1.51"></path><path d="M-97,198L-6,166L-28,63Z" fill="#98bb5d" stroke="#98bb5d" stroke-width="1.51"></path><path d="M-153,62L-97,198L-28,63Z" fill="#a5c365" stroke="#a5c365" stroke-width="1.51"></path><path d="M138,-79L-26,-88L50,-72Z" fill="#bacf71" stroke="#bacf71" stroke-width="1.51"></path><path d="M236,-34L208,-90L138,-79Z" fill="#9ebf61" stroke="#9ebf61" stroke-width="1.51"></path><path d="M236,-34L316,-105L208,-90Z" fill="#9fbe60" stroke="#9fbe60" stroke-width="1.51"></path><path d="M266,76L296,-30L236,-34Z" fill="#85af52" stroke="#85af52" stroke-width="1.51"></path><path d="M355,54L296,-30L266,76Z" fill="#7aa84b" stroke="#7aa84b" stroke-width="1.51"></path><path d="M272,151L355,54L266,76Z" fill="#689e42" stroke="#689e42" stroke-width="1.51"></path><path d="M221,254L339,184L272,151Z" fill="#63993e" stroke="#63993e" stroke-width="1.51"></path><path d="M-37,17L-153,62L-28,63Z" fill="#aec96a" stroke="#aec96a" stroke-width="1.51"></path><path d="M-26,-88L-91,-21L-37,17Z" fill="#c3d475" stroke="#c3d475" stroke-width="1.51"></path><path d="M208,-90L-26,-88L138,-79Z" fill="#b0c96b" stroke="#b0c96b" stroke-width="1.51"></path><path d="M50,-72L-26,-88L-37,17Z" fill="#bdd172" stroke="#bdd172" stroke-width="1.51"></path><path d="M339,184L355,54L272,151Z" fill="#659b40" stroke="#659b40" stroke-width="1.51"></path><path d="M-97,198L-91,275L-3,287Z" fill="#96b758" stroke="#96b758" stroke-width="1.51"></path><path d="M-91,-21L-153,62L-37,17Z" fill="#bcd172" stroke="#bcd172" stroke-width="1.51"></path><path d="M-97,198L-153,62L-91,275Z" fill="#a6c163" stroke="#a6c163" stroke-width="1.51"></path><path d="M-91,-21L-114,-67L-153,62Z" fill="#cbd979" stroke="#cbd979" stroke-width="1.51"></path><path d="M-26,-88L-114,-67L-91,-21Z" fill="#d1dd7d" stroke="#d1dd7d" stroke-width="1.51"></path><path d="M339,184L413,168L355,54Z" fill="#63993e" stroke="#63993e" stroke-width="1.51"></path><path d="M221,254L351,275L339,184Z" fill="#60963a" stroke="#60963a" stroke-width="1.51"></path><path d="M-3,287L351,275L118,269Z" fill="#649a3e" stroke="#649a3e" stroke-width="1.51"></path><path d="M420,-100L316,-105L296,-30Z" fill="#9cbb5c" stroke="#9cbb5c" stroke-width="1.51"></path><path d="M296,-30L316,-105L236,-34Z" fill="#97b95c" stroke="#97b95c" stroke-width="1.51"></path><path d="M208,-90L316,-105L-26,-88Z" fill="#a8c567" stroke="#a8c567" stroke-width="1.51"></path><path d="M398,265L413,168L339,184Z" fill="#5e9439" stroke="#5e9439" stroke-width="1.51"></path><path d="M355,54L434,-22L296,-30Z" fill="#82ab4f" stroke="#82ab4f" stroke-width="1.51"></path><path d="M351,275L398,265L339,184Z" fill="#5d9337" stroke="#5d9337" stroke-width="1.51"></path><path d="M398,265L440,79L413,168Z" fill="#5f9539" stroke="#5f9539" stroke-width="1.51"></path><path d="M413,168L440,79L355,54Z" fill="#649a3e" stroke="#649a3e" stroke-width="1.51"></path><path d="M440,79L434,-22L355,54Z" fill="#75a347" stroke="#75a347" stroke-width="1.51"></path><path d="M434,-22L420,-100L296,-30Z" fill="#91b457" stroke="#91b457" stroke-width="1.51"></path></svg>