<svg width="300" height="176" xmlns="http://www.w3.org/2000/svg"><path d="M-48,242L-127,246L49,250Z" fill="#91b457" stroke="#91b457" stroke-width="1.51"></path><path d="M49,250L-127,246L141,259Z" fill="#83ac4f" stroke="#83ac4f" stroke-width="1.51"></path><path d="M-120,-91L40,-83L182,-120Z" fill="#c5d576" stroke="#c5d576" stroke-width="1.51"></path><path d="M182,-120L318,-84L402,-125Z" fill="#a8c264" stroke="#a8c264" stroke-width="1.51"></path><path d="M318,-84L396,-17L402,-125Z" fill="#9ab95b" stroke="#9ab95b" stroke-width="1.51"></path><path d="M391,70L331,156L412,188Z" fill="#62983d" stroke="#62983d" stroke-width="1.51"></path><path d="M396,-17L391,70L412,188Z" fill="#679c40" stroke="#679c40" stroke-width="1.51"></path><path d="M402,-125L396,-17L412,188Z" fill="#7ba74a" stroke="#7ba74a" stroke-width="1.51"></path><path d="M253,253L141,259L428,277Z" fill="#60963a" stroke="#60963a" stroke-width="1.51"></path><path d="M315,247L253,253L428,277Z" fill="#5d9338" stroke="#5d9338" stroke-width="1.51"></path><path d="M412,188L315,247L428,277Z" fill="#5d9337" stroke="#5d9337" stroke-width="1.51"></path><path d="M402,-125L412,188L428,277Z" fill="#62983d" stroke="#62983d" stroke-width="1.51"></path><path d="M333,-6L391,70L396,-17Z" fill="#7da84c" stroke="#7da84c" stroke-width="1.51"></path><path d="M331,156L315,247L412,188Z" fill="#60963a" stroke="#60963a" stroke-width="1.51"></path><path d="M297,84L331,156L391,70Z" fill="#669c40" stroke="#669c40" stroke-width="1.51"></path><path d="M318,-84L333,-6L396,-17Z" fill="#8eb255" stroke="#8eb255" stroke-width="1.51"></path><path d="M333,-6L297,84L391,70Z" fill="#74a447" stroke="#74a447" stroke-width="1.51"></path><path d="M260,144L253,253L315,247Z" fill="#62983d" stroke="#62983d" stroke-width="1.51"></path><path d="M260,144L315,247L331,156Z" fill="#63993d" stroke="#63993d" stroke-width="1.51"></path><path d="M297,84L260,144L331,156Z" fill="#669c41" stroke="#669c41" stroke-width="1.51"></path><path d="M318,-84L265,-35L333,-6Z" fill="#92b558" stroke="#92b558" stroke-width="1.51"></path><path d="M265,-35L297,84L333,-6Z" fill="#81ac4f" stroke="#81ac4f" stroke-width="1.51"></path><path d="M265,-35L256,99L297,84Z" fill="#77a74a" stroke="#77a74a" stroke-width="1.51"></path><path d="M256,99L260,144L297,84Z" fill="#699f43" stroke="#699f43" stroke-width="1.51"></path><path d="M207,-67L265,-35L318,-84Z" fill="#9abb5e" stroke="#9abb5e" stroke-width="1.51"></path><path d="M182,-120L207,-67L318,-84Z" fill="#a4c163" stroke="#a4c163" stroke-width="1.51"></path><path d="M128,13L130,104L256,99Z" fill="#73a74a" stroke="#73a74a" stroke-width="1.51"></path><path d="M152,194L253,253L260,144Z" fill="#659b40" stroke="#659b40" stroke-width="1.51"></path><path d="M128,13L256,99L265,-35Z" fill="#80ad51" stroke="#80ad51" stroke-width="1.51"></path><path d="M207,-67L128,13L265,-35Z" fill="#93b85a" stroke="#93b85a" stroke-width="1.51"></path><path d="M256,99L130,104L260,144Z" fill="#6ba145" stroke="#6ba145" stroke-width="1.51"></path><path d="M130,104L152,194L260,144Z" fill="#6aa044" stroke="#6aa044" stroke-width="1.51"></path><path d="M152,194L141,259L253,253Z" fill="#659b3f" stroke="#659b3f" stroke-width="1.51"></path><path d="M182,-120L87,-29L207,-67Z" fill="#a2c163" stroke="#a2c163" stroke-width="1.51"></path><path d="M87,-29L128,13L207,-67Z" fill="#96ba5d" stroke="#96ba5d" stroke-width="1.51"></path><path d="M40,-83L87,-29L182,-120Z" fill="#aec86a" stroke="#aec86a" stroke-width="1.51"></path><path d="M68,121L93,196L130,104Z" fill="#78a94c" stroke="#78a94c" stroke-width="1.51"></path><path d="M93,196L141,259L152,194Z" fill="#6ca044" stroke="#6ca044" stroke-width="1.51"></path><path d="M130,104L93,196L152,194Z" fill="#71a347" stroke="#71a347" stroke-width="1.51"></path><path d="M128,13L68,121L130,104Z" fill="#7cac4f" stroke="#7cac4f" stroke-width="1.51"></path><path d="M93,196L49,250L141,259Z" fill="#74a347" stroke="#74a347" stroke-width="1.51"></path><path d="M-120,-91L-18,-67L40,-83Z" fill="#ceda7b" stroke="#ceda7b" stroke-width="1.51"></path><path d="M-6,-11L68,121L87,-29Z" fill="#9abd5f" stroke="#9abd5f" stroke-width="1.51"></path><path d="M87,-29L68,121L128,13Z" fill="#8db558" stroke="#8db558" stroke-width="1.51"></path><path d="M-6,-11L-48,104L68,121Z" fill="#96ba5d" stroke="#96ba5d" stroke-width="1.51"></path><path d="M68,121L-41,148L93,196Z" fill="#84af52" stroke="#84af52" stroke-width="1.51"></path><path d="M-41,148L49,250L93,196Z" fill="#83ad50" stroke="#83ad50" stroke-width="1.51"></path><path d="M40,-83L-6,-11L87,-29Z" fill="#b1ca6b" stroke="#b1ca6b" stroke-width="1.51"></path><path d="M-41,148L-48,242L49,250Z" fill="#8cb255" stroke="#8cb255" stroke-width="1.51"></path><path d="M-48,104L-41,148L68,121Z" fill="#91b75a" stroke="#91b75a" stroke-width="1.51"></path><path d="M-18,-67L-6,-11L40,-83Z" fill="#bdd172" stroke="#bdd172" stroke-width="1.51"></path><path d="M-108,83L-48,104L-6,-11Z" fill="#a7c466" stroke="#a7c466" stroke-width="1.51"></path><path d="M-114,-24L-108,83L-6,-11Z" fill="#b9cf70" stroke="#b9cf70" stroke-width="1.51"></path><path d="M-18,-67L-114,-24L-6,-11Z" fill="#c2d475" stroke="#c2d475" stroke-width="1.51"></path><path d="M-113,198L-48,242L-41,148Z" fill="#9aba5c" stroke="#9aba5c" stroke-width="1.51"></path><path d="M-120,-91L-114,-24L-18,-67Z" fill="#d4dd7e" stroke="#d4dd7e" stroke-width="1.51"></path><path d="M-48,104L-108,83L-41,148Z" fill="#9fbf61" stroke="#9fbf61" stroke-width="1.51"></path><path d="M-108,83L-113,198L-41,148Z" fill="#a2c062" stroke="#a2c062" stroke-width="1.51"></path><path d="M-113,198L-127,246L-48,242Z" fill="#9fbc5e" stroke="#9fbc5e" stroke-width="1.51"></path><path d="M-127,246L-113,198L-108,83Z" fill="#a6c264" stroke="#a6c264" stroke-width="1.51"></path><path d="M-114,-24L-127,246L-108,83Z" fill="#aac668" stroke="#aac668" stroke-width="1.51"></path><path d="M-120,-91L-127,246L-114,-24Z" fill="#bacf71" stroke="#bacf71" stroke-width="1.51"></path></svg>