<svg width="300" height="176" xmlns="http://www.w3.org/2000/svg"><path d="M-38,279L-152,283L35,287Z" fill="#83b55d" stroke="#83b55d" stroke-width="1.51"></path><path d="M35,287L-152,283L131,297Z" fill="#7aae54" stroke="#7aae54" stroke-width="1.51"></path><path d="M66,-119L215,-70L353,-93Z" fill="#95c66e" stroke="#95c66e" stroke-width="1.51"></path><path d="M212,268L131,297L358,300Z" fill="#60963a" stroke="#60963a" stroke-width="1.51"></path><path d="M309,187L358,300L419,290Z" fill="#5c9237" stroke="#5c9237" stroke-width="1.51"></path><path d="M341,91L410,120L439,-19Z" fill="#6a9f44" stroke="#6a9f44" stroke-width="1.51"></path><path d="M323,-32L341,91L439,-19Z" fill="#76aa50" stroke="#76aa50" stroke-width="1.51"></path><path d="M309,187L419,290L449,150Z" fill="#5e9438" stroke="#5e9438" stroke-width="1.51"></path><path d="M410,120L309,187L449,150Z" fill="#61973c" stroke="#61973c" stroke-width="1.51"></path><path d="M439,-19L410,120L449,150Z" fill="#649a3f" stroke="#649a3f" stroke-width="1.51"></path><path d="M422,-76L323,-32L439,-19Z" fill="#82b45c" stroke="#82b45c" stroke-width="1.51"></path><path d="M353,-93L323,-32L422,-76Z" fill="#88ba62" stroke="#88ba62" stroke-width="1.51"></path><path d="M341,91L309,187L410,120Z" fill="#649a3e" stroke="#649a3e" stroke-width="1.51"></path><path d="M323,-32L242,-18L341,91Z" fill="#79ad53" stroke="#79ad53" stroke-width="1.51"></path><path d="M309,187L240,204L358,300Z" fill="#60963a" stroke="#60963a" stroke-width="1.51"></path><path d="M240,204L212,268L358,300Z" fill="#60963a" stroke="#60963a" stroke-width="1.51"></path><path d="M242,116L309,187L341,91Z" fill="#669c41" stroke="#669c41" stroke-width="1.51"></path><path d="M242,-18L242,116L341,91Z" fill="#6fa549" stroke="#6fa549" stroke-width="1.51"></path><path d="M215,-70L323,-32L353,-93Z" fill="#8bbd64" stroke="#8bbd64" stroke-width="1.51"></path><path d="M215,-70L242,-18L323,-32Z" fill="#87b961" stroke="#87b961" stroke-width="1.51"></path><path d="M-145,-101L-39,-95L66,-119Z" fill="#b8e692" stroke="#b8e692" stroke-width="1.51"></path><path d="M242,116L240,204L309,187Z" fill="#669c40" stroke="#669c40" stroke-width="1.51"></path><path d="M66,-119L153,-64L215,-70Z" fill="#96c770" stroke="#96c770" stroke-width="1.51"></path><path d="M141,180L240,204L242,116Z" fill="#689e42" stroke="#689e42" stroke-width="1.51"></path><path d="M140,73L141,180L242,116Z" fill="#6ca246" stroke="#6ca246" stroke-width="1.51"></path><path d="M215,-70L163,-30L242,-18Z" fill="#89bb62" stroke="#89bb62" stroke-width="1.51"></path><path d="M140,73L242,116L242,-18Z" fill="#73a84d" stroke="#73a84d" stroke-width="1.51"></path><path d="M163,-30L140,73L242,-18Z" fill="#7fb359" stroke="#7fb359" stroke-width="1.51"></path><path d="M141,180L212,268L240,204Z" fill="#659b40" stroke="#659b40" stroke-width="1.51"></path><path d="M141,180L131,297L212,268Z" fill="#659b3f" stroke="#659b3f" stroke-width="1.51"></path><path d="M153,-64L163,-30L215,-70Z" fill="#8dc067" stroke="#8dc067" stroke-width="1.51"></path><path d="M84,69L83,183L140,73Z" fill="#75aa4f" stroke="#75aa4f" stroke-width="1.51"></path><path d="M140,73L83,183L141,180Z" fill="#70a54a" stroke="#70a54a" stroke-width="1.51"></path><path d="M83,183L131,297L141,180Z" fill="#6ca246" stroke="#6ca246" stroke-width="1.51"></path><path d="M84,69L140,73L163,-30Z" fill="#7db257" stroke="#7db257" stroke-width="1.51"></path><path d="M153,-64L46,-26L163,-30Z" fill="#90c26a" stroke="#90c26a" stroke-width="1.51"></path><path d="M46,-26L84,69L163,-30Z" fill="#89bc63" stroke="#89bc63" stroke-width="1.51"></path><path d="M66,-119L46,-26L153,-64Z" fill="#9bcc75" stroke="#9bcc75" stroke-width="1.51"></path><path d="M83,183L35,287L131,297Z" fill="#70a54a" stroke="#70a54a" stroke-width="1.51"></path><path d="M-44,192L35,287L83,183Z" fill="#7baf55" stroke="#7baf55" stroke-width="1.51"></path><path d="M46,-26L-42,9L84,69Z" fill="#91c46b" stroke="#91c46b" stroke-width="1.51"></path><path d="M-42,9L-1,115L84,69Z" fill="#89bc63" stroke="#89bc63" stroke-width="1.51"></path><path d="M-1,115L83,183L84,69Z" fill="#7cb056" stroke="#7cb056" stroke-width="1.51"></path><path d="M-1,115L-44,192L83,183Z" fill="#80b35a" stroke="#80b35a" stroke-width="1.51"></path><path d="M-44,192L-38,279L35,287Z" fill="#7fb259" stroke="#7fb259" stroke-width="1.51"></path><path d="M-39,-95L46,-26L66,-119Z" fill="#a8d882" stroke="#a8d882" stroke-width="1.51"></path><path d="M-39,-95L-42,9L46,-26Z" fill="#a4d47e" stroke="#a4d47e" stroke-width="1.51"></path><path d="M-95,-22L-42,9L-39,-95Z" fill="#abdb85" stroke="#abdb85" stroke-width="1.51"></path><path d="M-101,157L-44,192L-1,115Z" fill="#8abd64" stroke="#8abd64" stroke-width="1.51"></path><path d="M-94,66L-101,157L-1,115Z" fill="#8fc269" stroke="#8fc269" stroke-width="1.51"></path><path d="M-42,9L-94,66L-1,115Z" fill="#93c56d" stroke="#93c56d" stroke-width="1.51"></path><path d="M-101,157L-152,283L-44,192Z" fill="#8fc169" stroke="#8fc169" stroke-width="1.51"></path><path d="M-145,-101L-95,-22L-39,-95Z" fill="#b9e793" stroke="#b9e793" stroke-width="1.51"></path><path d="M-44,192L-152,283L-38,279Z" fill="#89bb63" stroke="#89bb63" stroke-width="1.51"></path><path d="M-95,-22L-94,66L-42,9Z" fill="#a2d27c" stroke="#a2d27c" stroke-width="1.51"></path><path d="M-145,-101L-152,283L-101,157Z" fill="#9acb74" stroke="#9acb74" stroke-width="1.51"></path><path d="M-95,-22L-145,-101L-94,66Z" fill="#b0df8a" stroke="#b0df8a" stroke-width="1.51"></path><path d="M-145,-101L-101,157L-94,66Z" fill="#a3d37d" stroke="#a3d37d" stroke-width="1.51"></path></svg>