<svg width="300" height="176" xmlns="http://www.w3.org/2000/svg"><path d="M149,71L162,177L218,115Z" fill="#6ca246" stroke="#6ca246" stroke-width="1.51"></path><path d="M149,71L88,147L162,177Z" fill="#71a448" stroke="#71a448" stroke-width="1.51"></path><path d="M162,177L239,163L218,115Z" fill="#699f43" stroke="#699f43" stroke-width="1.51"></path><path d="M149,71L56,95L88,147Z" fill="#7aaa4e" stroke="#7aaa4e" stroke-width="1.51"></path><path d="M149,71L81,-22L56,95Z" fill="#89b356" stroke="#89b356" stroke-width="1.51"></path><path d="M218,115L168,-9L149,71Z" fill="#78a94d" stroke="#78a94d" stroke-width="1.51"></path><path d="M302,68L168,-9L218,115Z" fill="#75a74a" stroke="#75a74a" stroke-width="1.51"></path><path d="M239,163L302,68L218,115Z" fill="#699f43" stroke="#699f43" stroke-width="1.51"></path><path d="M239,163L312,184L302,68Z" fill="#669c41" stroke="#669c41" stroke-width="1.51"></path><path d="M241,295L312,184L239,163Z" fill="#63993d" stroke="#63993d" stroke-width="1.51"></path><path d="M162,177L241,295L239,163Z" fill="#659b40" stroke="#659b40" stroke-width="1.51"></path><path d="M39,291L162,285L162,177Z" fill="#6c9f43" stroke="#6c9f43" stroke-width="1.51"></path><path d="M39,291L162,177L88,147Z" fill="#75a549" stroke="#75a549" stroke-width="1.51"></path><path d="M168,-9L81,-22L149,71Z" fill="#8bb457" stroke="#8bb457" stroke-width="1.51"></path><path d="M302,68L272,-29L168,-9Z" fill="#84af52" stroke="#84af52" stroke-width="1.51"></path><path d="M168,-9L182,-63L81,-22Z" fill="#97bb5d" stroke="#97bb5d" stroke-width="1.51"></path><path d="M272,-29L182,-63L168,-9Z" fill="#94b85b" stroke="#94b85b" stroke-width="1.51"></path><path d="M162,285L241,295L162,177Z" fill="#649a3e" stroke="#649a3e" stroke-width="1.51"></path><path d="M81,-22L-24,75L56,95Z" fill="#95ba5d" stroke="#95ba5d" stroke-width="1.51"></path><path d="M56,95L-48,146L88,147Z" fill="#88b154" stroke="#88b154" stroke-width="1.51"></path><path d="M-48,146L39,291L88,147Z" fill="#85af51" stroke="#85af51" stroke-width="1.51"></path><path d="M162,285L39,291L241,295Z" fill="#649a3e" stroke="#649a3e" stroke-width="1.51"></path><path d="M-24,75L-48,146L56,95Z" fill="#92b85a" stroke="#92b85a" stroke-width="1.51"></path><path d="M39,291L311,298L241,295Z" fill="#61973b" stroke="#61973b" stroke-width="1.51"></path><path d="M241,295L311,298L312,184Z" fill="#5f953a" stroke="#5f953a" stroke-width="1.51"></path><path d="M29,-90L-30,-26L81,-22Z" fill="#b5cd6e" stroke="#b5cd6e" stroke-width="1.51"></path><path d="M272,-29L244,-97L182,-63Z" fill="#9bbc5f" stroke="#9bbc5f" stroke-width="1.51"></path><path d="M272,-29L345,-85L244,-97Z" fill="#9cbc5d" stroke="#9cbc5d" stroke-width="1.51"></path><path d="M302,68L358,-23L272,-29Z" fill="#83ad50" stroke="#83ad50" stroke-width="1.51"></path><path d="M448,102L358,-23L302,68Z" fill="#72a346" stroke="#72a346" stroke-width="1.51"></path><path d="M420,163L302,68L312,184Z" fill="#649a3e" stroke="#649a3e" stroke-width="1.51"></path><path d="M-24,75L-98,96L-48,146Z" fill="#9dbe61" stroke="#9dbe61" stroke-width="1.51"></path><path d="M81,-22L-30,-26L-24,75Z" fill="#a8c567" stroke="#a8c567" stroke-width="1.51"></path><path d="M29,-90L81,-22L182,-63Z" fill="#a9c567" stroke="#a9c567" stroke-width="1.51"></path><path d="M244,-97L29,-90L182,-63Z" fill="#a5c466" stroke="#a5c466" stroke-width="1.51"></path><path d="M452,259L420,163L312,184Z" fill="#5e9439" stroke="#5e9439" stroke-width="1.51"></path><path d="M-146,18L-98,96L-24,75Z" fill="#adc86a" stroke="#adc86a" stroke-width="1.51"></path><path d="M-48,146L-63,257L39,291Z" fill="#8eb355" stroke="#8eb355" stroke-width="1.51"></path><path d="M-144,192L-63,257L-48,146Z" fill="#9ebc5e" stroke="#9ebc5e" stroke-width="1.51"></path><path d="M358,-23L345,-85L272,-29Z" fill="#92b558" stroke="#92b558" stroke-width="1.51"></path><path d="M432,-28L345,-85L358,-23Z" fill="#90b356" stroke="#90b356" stroke-width="1.51"></path><path d="M420,163L448,102L302,68Z" fill="#63993e" stroke="#63993e" stroke-width="1.51"></path><path d="M29,-90L-29,-86L-30,-26Z" fill="#c5d576" stroke="#c5d576" stroke-width="1.51"></path><path d="M-30,-26L-146,18L-24,75Z" fill="#b5cc6e" stroke="#b5cc6e" stroke-width="1.51"></path><path d="M448,102L432,-28L358,-23Z" fill="#7aa64a" stroke="#7aa64a" stroke-width="1.51"></path><path d="M-146,18L-144,192L-98,96Z" fill="#adc869" stroke="#adc869" stroke-width="1.51"></path><path d="M-98,96L-144,192L-48,146Z" fill="#a3c163" stroke="#a3c163" stroke-width="1.51"></path><path d="M420,163L452,259L448,102Z" fill="#5e9438" stroke="#5e9438" stroke-width="1.51"></path><path d="M311,298L452,259L312,184Z" fill="#5d9338" stroke="#5d9338" stroke-width="1.51"></path><path d="M-112,-83L-146,18L-30,-26Z" fill="#ccd97b" stroke="#ccd97b" stroke-width="1.51"></path><path d="M-144,192L-151,256L-63,257Z" fill="#a4bf60" stroke="#a4bf60" stroke-width="1.51"></path><path d="M-63,257L-151,256L39,291Z" fill="#94b557" stroke="#94b557" stroke-width="1.51"></path><path d="M-146,18L-151,256L-144,192Z" fill="#afc768" stroke="#afc768" stroke-width="1.51"></path><path d="M29,-90L-112,-83L-29,-86Z" fill="#d1dc7d" stroke="#d1dc7d" stroke-width="1.51"></path><path d="M-29,-86L-112,-83L-30,-26Z" fill="#cfdb7c" stroke="#cfdb7c" stroke-width="1.51"></path><path d="M448,102L426,-122L432,-28Z" fill="#84ab4e" stroke="#84ab4e" stroke-width="1.51"></path><path d="M432,-28L426,-122L345,-85Z" fill="#99b85a" stroke="#99b85a" stroke-width="1.51"></path><path d="M345,-85L426,-122L244,-97Z" fill="#a3bf60" stroke="#a3bf60" stroke-width="1.51"></path><path d="M244,-97L426,-122L29,-90Z" fill="#a8c465" stroke="#a8c465" stroke-width="1.51"></path><path d="M29,-90L426,-122L-112,-83Z" fill="#b2cb6c" stroke="#b2cb6c" stroke-width="1.51"></path></svg>