<svg width="300" height="176" xmlns="http://www.w3.org/2000/svg"><path d="M164,76L126,7L89,94Z" fill="#7ead51" stroke="#7ead51" stroke-width="1.51"></path><path d="M126,7L79,-4L89,94Z" fill="#8db558" stroke="#8db558" stroke-width="1.51"></path><path d="M164,76L262,-2L126,7Z" fill="#81ae51" stroke="#81ae51" stroke-width="1.51"></path><path d="M165,180L246,63L164,76Z" fill="#6ca246" stroke="#6ca246" stroke-width="1.51"></path><path d="M89,94L165,180L164,76Z" fill="#70a548" stroke="#70a548" stroke-width="1.51"></path><path d="M89,94L54,175L165,180Z" fill="#77a74b" stroke="#77a74b" stroke-width="1.51"></path><path d="M-5,155L54,175L89,94Z" fill="#84af52" stroke="#84af52" stroke-width="1.51"></path><path d="M126,7L62,-68L79,-4Z" fill="#a0c062" stroke="#a0c062" stroke-width="1.51"></path><path d="M-38,100L-5,155L89,94Z" fill="#8cb457" stroke="#8cb457" stroke-width="1.51"></path><path d="M179,-119L62,-68L126,7Z" fill="#a4c365" stroke="#a4c365" stroke-width="1.51"></path><path d="M246,63L262,-2L164,76Z" fill="#7aa94d" stroke="#7aa94d" stroke-width="1.51"></path><path d="M-38,100L89,94L79,-4Z" fill="#90b759" stroke="#90b759" stroke-width="1.51"></path><path d="M-28,-29L-38,100L79,-4Z" fill="#a5c365" stroke="#a5c365" stroke-width="1.51"></path><path d="M62,-68L-28,-29L79,-4Z" fill="#afc96b" stroke="#afc96b" stroke-width="1.51"></path><path d="M62,-68L-39,-75L-28,-29Z" fill="#c0d273" stroke="#c0d273" stroke-width="1.51"></path><path d="M262,-2L179,-119L126,7Z" fill="#96ba5c" stroke="#96ba5c" stroke-width="1.51"></path><path d="M-5,155L55,247L54,175Z" fill="#84ad50" stroke="#84ad50" stroke-width="1.51"></path><path d="M54,175L55,247L165,180Z" fill="#76a649" stroke="#76a649" stroke-width="1.51"></path><path d="M246,63L345,30L262,-2Z" fill="#7caa4d" stroke="#7caa4d" stroke-width="1.51"></path><path d="M165,180L265,199L246,63Z" fill="#689e42" stroke="#689e42" stroke-width="1.51"></path><path d="M221,272L265,199L165,180Z" fill="#649a3f" stroke="#649a3f" stroke-width="1.51"></path><path d="M-28,-29L-100,21L-38,100Z" fill="#b0c96b" stroke="#b0c96b" stroke-width="1.51"></path><path d="M179,-119L-39,-75L62,-68Z" fill="#bacf70" stroke="#bacf70" stroke-width="1.51"></path><path d="M265,199L325,103L246,63Z" fill="#679d41" stroke="#679d41" stroke-width="1.51"></path><path d="M-128,-85L-100,21L-28,-29Z" fill="#cad879" stroke="#cad879" stroke-width="1.51"></path><path d="M-38,100L-89,210L-5,155Z" fill="#97ba5c" stroke="#97ba5c" stroke-width="1.51"></path><path d="M-5,155L-11,268L55,247Z" fill="#86ae51" stroke="#86ae51" stroke-width="1.51"></path><path d="M262,-2L269,-122L179,-119Z" fill="#a1c061" stroke="#a1c061" stroke-width="1.51"></path><path d="M325,103L345,30L246,63Z" fill="#70a246" stroke="#70a246" stroke-width="1.51"></path><path d="M358,-106L269,-122L262,-2Z" fill="#9dbc5e" stroke="#9dbc5e" stroke-width="1.51"></path><path d="M55,247L125,291L165,180Z" fill="#6ea044" stroke="#6ea044" stroke-width="1.51"></path><path d="M125,291L221,272L165,180Z" fill="#659a3f" stroke="#659a3f" stroke-width="1.51"></path><path d="M265,199L307,207L325,103Z" fill="#659a3f" stroke="#659a3f" stroke-width="1.51"></path><path d="M325,103L411,76L345,30Z" fill="#6ca043" stroke="#6ca043" stroke-width="1.51"></path><path d="M298,266L307,207L265,199Z" fill="#61973b" stroke="#61973b" stroke-width="1.51"></path><path d="M-100,21L-123,92L-38,100Z" fill="#aac668" stroke="#aac668" stroke-width="1.51"></path><path d="M-89,210L-11,268L-5,155Z" fill="#92b558" stroke="#92b558" stroke-width="1.51"></path><path d="M55,247L-11,268L125,291Z" fill="#7aa649" stroke="#7aa649" stroke-width="1.51"></path><path d="M-123,92L-89,210L-38,100Z" fill="#a1c062" stroke="#a1c062" stroke-width="1.51"></path><path d="M423,210L411,76L325,103Z" fill="#62983d" stroke="#62983d" stroke-width="1.51"></path><path d="M221,272L298,266L265,199Z" fill="#61973c" stroke="#61973c" stroke-width="1.51"></path><path d="M125,291L298,266L221,272Z" fill="#61973c" stroke="#61973c" stroke-width="1.51"></path><path d="M-100,21L-128,-85L-123,92Z" fill="#c5d576" stroke="#c5d576" stroke-width="1.51"></path><path d="M-39,-75L-128,-85L-28,-29Z" fill="#d0dc7c" stroke="#d0dc7c" stroke-width="1.51"></path><path d="M179,-119L-128,-85L-39,-75Z" fill="#cad879" stroke="#cad879" stroke-width="1.51"></path><path d="M345,30L358,-106L262,-2Z" fill="#8cb255" stroke="#8cb255" stroke-width="1.51"></path><path d="M423,210L325,103L307,207Z" fill="#61973c" stroke="#61973c" stroke-width="1.51"></path><path d="M438,-21L402,-102L358,-106Z" fill="#99b85a" stroke="#99b85a" stroke-width="1.51"></path><path d="M-123,92L-87,280L-89,210Z" fill="#a2bf60" stroke="#a2bf60" stroke-width="1.51"></path><path d="M-89,210L-87,280L-11,268Z" fill="#96b658" stroke="#96b658" stroke-width="1.51"></path><path d="M-11,268L-87,280L125,291Z" fill="#84ac4f" stroke="#84ac4f" stroke-width="1.51"></path><path d="M438,-21L358,-106L345,30Z" fill="#8cb153" stroke="#8cb153" stroke-width="1.51"></path><path d="M358,-106L402,-102L269,-122Z" fill="#a6c062" stroke="#a6c062" stroke-width="1.51"></path><path d="M411,76L438,-21L345,30Z" fill="#78a549" stroke="#78a549" stroke-width="1.51"></path><path d="M411,76L444,254L438,-21Z" fill="#62983d" stroke="#62983d" stroke-width="1.51"></path><path d="M298,266L423,210L307,207Z" fill="#5f9539" stroke="#5f9539" stroke-width="1.51"></path><path d="M298,266L444,254L423,210Z" fill="#5c9236" stroke="#5c9236" stroke-width="1.51"></path><path d="M423,210L444,254L411,76Z" fill="#5e9438" stroke="#5e9438" stroke-width="1.51"></path><path d="M125,291L444,254L298,266Z" fill="#5e9439" stroke="#5e9439" stroke-width="1.51"></path></svg>