<svg width="300" height="176" xmlns="http://www.w3.org/2000/svg"><path d="M172,110L169,158L217,74Z" fill="#689e42" stroke="#689e42" stroke-width="1.51"></path><path d="M169,158L258,201L217,74Z" fill="#61973b" stroke="#61973b" stroke-width="1.51"></path><path d="M258,201L329,119L217,74Z" fill="#5e9438" stroke="#5e9438" stroke-width="1.51"></path><path d="M301,198L329,119L258,201Z" fill="#568c30" stroke="#568c30" stroke-width="1.51"></path><path d="M258,201L320,237L301,198Z" fill="#558b30" stroke="#558b30" stroke-width="1.51"></path><path d="M164,244L223,256L258,201Z" fill="#5c9237" stroke="#5c9237" stroke-width="1.51"></path><path d="M169,158L164,244L258,201Z" fill="#5e9438" stroke="#5e9438" stroke-width="1.51"></path><path d="M301,198L442,158L329,119Z" fill="#578d32" stroke="#578d32" stroke-width="1.51"></path><path d="M223,256L320,237L258,201Z" fill="#588e32" stroke="#588e32" stroke-width="1.51"></path><path d="M217,74L169,-9L172,110Z" fill="#84af52" stroke="#84af52" stroke-width="1.51"></path><path d="M329,119L232,-6L217,74Z" fill="#7ba74a" stroke="#7ba74a" stroke-width="1.51"></path><path d="M232,-6L169,-9L217,74Z" fill="#a1bf61" stroke="#a1bf61" stroke-width="1.51"></path><path d="M172,110L74,68L169,158Z" fill="#71a448" stroke="#71a448" stroke-width="1.51"></path><path d="M169,158L41,183L164,244Z" fill="#6e9f42" stroke="#6e9f42" stroke-width="1.51"></path><path d="M169,-9L74,68L172,110Z" fill="#8fb659" stroke="#8fb659" stroke-width="1.51"></path><path d="M74,68L41,183L169,158Z" fill="#83ad50" stroke="#83ad50" stroke-width="1.51"></path><path d="M329,119L342,-25L232,-6Z" fill="#92b355" stroke="#92b355" stroke-width="1.51"></path><path d="M267,-101L124,-70L169,-9Z" fill="#b4ca6c" stroke="#b4ca6c" stroke-width="1.51"></path><path d="M423,73L342,-25L329,119Z" fill="#7ca74a" stroke="#7ca74a" stroke-width="1.51"></path><path d="M442,158L423,73L329,119Z" fill="#5d9338" stroke="#5d9338" stroke-width="1.51"></path><path d="M320,237L442,158L301,198Z" fill="#558b2f" stroke="#558b2f" stroke-width="1.51"></path><path d="M41,183L67,280L164,244Z" fill="#7ea84b" stroke="#7ea84b" stroke-width="1.51"></path><path d="M164,244L67,280L223,256Z" fill="#62983c" stroke="#62983c" stroke-width="1.51"></path><path d="M74,68L-21,150L41,183Z" fill="#a1be60" stroke="#a1be60" stroke-width="1.51"></path><path d="M169,-9L84,-22L74,68Z" fill="#c0d374" stroke="#c0d374" stroke-width="1.51"></path><path d="M124,-70L84,-22L169,-9Z" fill="#c2d475" stroke="#c2d475" stroke-width="1.51"></path><path d="M267,-101L169,-9L232,-6Z" fill="#b0c768" stroke="#b0c768" stroke-width="1.51"></path><path d="M442,158L436,25L423,73Z" fill="#64993d" stroke="#64993d" stroke-width="1.51"></path><path d="M423,73L436,25L342,-25Z" fill="#96b557" stroke="#96b557" stroke-width="1.51"></path><path d="M310,-92L232,-6L342,-25Z" fill="#aac062" stroke="#aac062" stroke-width="1.51"></path><path d="M310,-92L267,-101L232,-6Z" fill="#acc264" stroke="#acc264" stroke-width="1.51"></path><path d="M388,-80L310,-92L342,-25Z" fill="#a9c061" stroke="#a9c061" stroke-width="1.51"></path><path d="M67,280L431,285L223,256Z" fill="#5a9034" stroke="#5a9034" stroke-width="1.51"></path><path d="M223,256L431,285L320,237Z" fill="#558b2f" stroke="#558b2f" stroke-width="1.51"></path><path d="M320,237L431,285L442,158Z" fill="#558b2f" stroke="#558b2f" stroke-width="1.51"></path><path d="M-61,83L-21,150L74,68Z" fill="#b5cb6d" stroke="#b5cb6d" stroke-width="1.51"></path><path d="M41,183L-30,245L67,280Z" fill="#9db95b" stroke="#9db95b" stroke-width="1.51"></path><path d="M436,25L388,-80L342,-25Z" fill="#a9c061" stroke="#a9c061" stroke-width="1.51"></path><path d="M310,-92L388,-80L267,-101Z" fill="#a9c061" stroke="#a9c061" stroke-width="1.51"></path><path d="M-21,150L-30,245L41,183Z" fill="#a9c061" stroke="#a9c061" stroke-width="1.51"></path><path d="M-46,-17L-61,83L74,68Z" fill="#dae182" stroke="#dae182" stroke-width="1.51"></path><path d="M124,-70L34,-82L84,-22Z" fill="#d8e081" stroke="#d8e081" stroke-width="1.51"></path><path d="M267,-101L34,-82L124,-70Z" fill="#bbcf71" stroke="#bbcf71" stroke-width="1.51"></path><path d="M-46,-17L74,68L84,-22Z" fill="#e5e787" stroke="#e5e787" stroke-width="1.51"></path><path d="M-21,150L-116,185L-30,245Z" fill="#a9c061" stroke="#a9c061" stroke-width="1.51"></path><path d="M34,-82L-46,-17L84,-22Z" fill="#f3ef8f" stroke="#f3ef8f" stroke-width="1.51"></path><path d="M-143,76L-116,185L-61,83Z" fill="#b2c96b" stroke="#b2c96b" stroke-width="1.51"></path><path d="M-61,83L-116,185L-21,150Z" fill="#afc667" stroke="#afc667" stroke-width="1.51"></path><path d="M-116,185L-108,274L-30,245Z" fill="#a9c061" stroke="#a9c061" stroke-width="1.51"></path><path d="M-30,245L-108,274L67,280Z" fill="#a9c061" stroke="#a9c061" stroke-width="1.51"></path><path d="M-140,14L-143,76L-61,83Z" fill="#d0db7c" stroke="#d0db7c" stroke-width="1.51"></path><path d="M34,-82L-46,-108L-46,-17Z" fill="#fff696" stroke="#fff696" stroke-width="1.51"></path><path d="M267,-101L-46,-108L34,-82Z" fill="#d6df80" stroke="#d6df80" stroke-width="1.51"></path><path d="M-140,14L-61,83L-46,-17Z" fill="#e9e98a" stroke="#e9e98a" stroke-width="1.51"></path><path d="M-116,185L-143,76L-108,274Z" fill="#a9c061" stroke="#a9c061" stroke-width="1.51"></path><path d="M-105,-98L-140,14L-46,-17Z" fill="#fff696" stroke="#fff696" stroke-width="1.51"></path><path d="M-46,-108L-105,-98L-46,-17Z" fill="#fff696" stroke="#fff696" stroke-width="1.51"></path></svg>