<svg width="300" height="176" xmlns="http://www.w3.org/2000/svg"><path d="M182,81L259,191L233,68Z" fill="#659a3f" stroke="#659a3f" stroke-width="1.51"></path><path d="M182,81L147,152L259,191Z" fill="#63993d" stroke="#63993d" stroke-width="1.51"></path><path d="M259,191L301,157L233,68Z" fill="#5d9338" stroke="#5d9338" stroke-width="1.51"></path><path d="M147,152L181,243L259,191Z" fill="#5e9438" stroke="#5e9438" stroke-width="1.51"></path><path d="M181,243L236,255L259,191Z" fill="#5b9136" stroke="#5b9136" stroke-width="1.51"></path><path d="M414,254L423,179L301,157Z" fill="#558b2f" stroke="#558b2f" stroke-width="1.51"></path><path d="M301,157L342,82L233,68Z" fill="#60963b" stroke="#60963b" stroke-width="1.51"></path><path d="M233,68L257,-8L182,81Z" fill="#8ab154" stroke="#8ab154" stroke-width="1.51"></path><path d="M300,-17L257,-8L233,68Z" fill="#a0bd5e" stroke="#a0bd5e" stroke-width="1.51"></path><path d="M182,81L80,82L147,152Z" fill="#73a64a" stroke="#73a64a" stroke-width="1.51"></path><path d="M147,152L77,243L181,243Z" fill="#699c3f" stroke="#699c3f" stroke-width="1.51"></path><path d="M129,-20L80,82L182,81Z" fill="#9abd5f" stroke="#9abd5f" stroke-width="1.51"></path><path d="M80,82L69,161L147,152Z" fill="#81ac4f" stroke="#81ac4f" stroke-width="1.51"></path><path d="M342,82L300,-17L233,68Z" fill="#86ac4f" stroke="#86ac4f" stroke-width="1.51"></path><path d="M146,-89L129,-20L209,-104Z" fill="#b6cc6e" stroke="#b6cc6e" stroke-width="1.51"></path><path d="M257,-8L129,-20L182,81Z" fill="#a5c263" stroke="#a5c263" stroke-width="1.51"></path><path d="M69,161L77,243L147,152Z" fill="#7ba649" stroke="#7ba649" stroke-width="1.51"></path><path d="M181,243L77,243L236,255Z" fill="#60963b" stroke="#60963b" stroke-width="1.51"></path><path d="M301,157L423,179L342,82Z" fill="#5a9035" stroke="#5a9035" stroke-width="1.51"></path><path d="M426,-60L296,-72L300,-17Z" fill="#a9c061" stroke="#a9c061" stroke-width="1.51"></path><path d="M350,297L301,157L259,191Z" fill="#558b2f" stroke="#558b2f" stroke-width="1.51"></path><path d="M-31,275L350,297L236,255Z" fill="#5f9539" stroke="#5f9539" stroke-width="1.51"></path><path d="M236,255L350,297L259,191Z" fill="#568c31" stroke="#568c31" stroke-width="1.51"></path><path d="M300,-17L296,-72L257,-8Z" fill="#abc163" stroke="#abc163" stroke-width="1.51"></path><path d="M424,-25L300,-17L342,82Z" fill="#9eba5c" stroke="#9eba5c" stroke-width="1.51"></path><path d="M423,179L441,110L342,82Z" fill="#5c9237" stroke="#5c9237" stroke-width="1.51"></path><path d="M423,179L414,254L441,110Z" fill="#558b2f" stroke="#558b2f" stroke-width="1.51"></path><path d="M350,297L414,254L301,157Z" fill="#558b2f" stroke="#558b2f" stroke-width="1.51"></path><path d="M129,-20L56,-22L80,82Z" fill="#c9d879" stroke="#c9d879" stroke-width="1.51"></path><path d="M80,82L-24,95L69,161Z" fill="#9fbe60" stroke="#9fbe60" stroke-width="1.51"></path><path d="M146,-89L56,-22L129,-20Z" fill="#cad879" stroke="#cad879" stroke-width="1.51"></path><path d="M209,-104L129,-20L257,-8Z" fill="#b2c96b" stroke="#b2c96b" stroke-width="1.51"></path><path d="M296,-72L209,-104L257,-8Z" fill="#adc465" stroke="#adc465" stroke-width="1.51"></path><path d="M-18,8L-24,95L80,82Z" fill="#c6d677" stroke="#c6d677" stroke-width="1.51"></path><path d="M-62,191L-31,275L77,243Z" fill="#a9c061" stroke="#a9c061" stroke-width="1.51"></path><path d="M441,110L424,-25L342,82Z" fill="#7ca74a" stroke="#7ca74a" stroke-width="1.51"></path><path d="M296,-72L426,-60L209,-104Z" fill="#a9c061" stroke="#a9c061" stroke-width="1.51"></path><path d="M56,-22L-18,8L80,82Z" fill="#dae182" stroke="#dae182" stroke-width="1.51"></path><path d="M33,-83L-18,8L56,-22Z" fill="#f3ef8f" stroke="#f3ef8f" stroke-width="1.51"></path><path d="M441,110L426,-60L424,-25Z" fill="#a2bc5d" stroke="#a2bc5d" stroke-width="1.51"></path><path d="M424,-25L426,-60L300,-17Z" fill="#a9c061" stroke="#a9c061" stroke-width="1.51"></path><path d="M-41,-119L33,-83L146,-89Z" fill="#e8e98a" stroke="#e8e98a" stroke-width="1.51"></path><path d="M146,-89L33,-83L56,-22Z" fill="#d9e081" stroke="#d9e081" stroke-width="1.51"></path><path d="M77,243L-31,275L236,255Z" fill="#7da74a" stroke="#7da74a" stroke-width="1.51"></path><path d="M-62,191L77,243L69,161Z" fill="#9cb85a" stroke="#9cb85a" stroke-width="1.51"></path><path d="M-134,182L-62,191L-24,95Z" fill="#acc364" stroke="#acc364" stroke-width="1.51"></path><path d="M-24,95L-62,191L69,161Z" fill="#adc465" stroke="#adc465" stroke-width="1.51"></path><path d="M-18,8L-128,54L-24,95Z" fill="#d4de7e" stroke="#d4de7e" stroke-width="1.51"></path><path d="M-62,191L-104,287L-31,275Z" fill="#a9c061" stroke="#a9c061" stroke-width="1.51"></path><path d="M-138,-17L-128,54L-18,8Z" fill="#f2ef8f" stroke="#f2ef8f" stroke-width="1.51"></path><path d="M-128,54L-134,182L-24,95Z" fill="#b3ca6b" stroke="#b3ca6b" stroke-width="1.51"></path><path d="M-134,182L-104,287L-62,191Z" fill="#a9c061" stroke="#a9c061" stroke-width="1.51"></path><path d="M-31,275L-104,287L350,297Z" fill="#87ad4f" stroke="#87ad4f" stroke-width="1.51"></path><path d="M209,-104L-41,-119L146,-89Z" fill="#ccd97b" stroke="#ccd97b" stroke-width="1.51"></path><path d="M33,-83L-41,-119L-18,8Z" fill="#fff696" stroke="#fff696" stroke-width="1.51"></path><path d="M-102,-91L-138,-17L-18,8Z" fill="#fff696" stroke="#fff696" stroke-width="1.51"></path><path d="M-128,54L-138,-17L-134,182Z" fill="#c3d475" stroke="#c3d475" stroke-width="1.51"></path><path d="M-41,-119L-102,-91L-18,8Z" fill="#fff696" stroke="#fff696" stroke-width="1.51"></path></svg>