<svg width="300" height="176" xmlns="http://www.w3.org/2000/svg"><path d="M155,109L162,-19L83,67Z" fill="#94ba5c" stroke="#94ba5c" stroke-width="1.51"></path><path d="M155,109L237,76L162,-19Z" fill="#87b154" stroke="#87b154" stroke-width="1.51"></path><path d="M162,-19L45,-24L83,67Z" fill="#cad879" stroke="#cad879" stroke-width="1.51"></path><path d="M118,-60L45,-24L162,-19Z" fill="#cbd87a" stroke="#cbd87a" stroke-width="1.51"></path><path d="M237,76L260,-24L162,-19Z" fill="#a8c264" stroke="#a8c264" stroke-width="1.51"></path><path d="M162,-19L268,-124L118,-60Z" fill="#b4ca6c" stroke="#b4ca6c" stroke-width="1.51"></path><path d="M155,109L233,186L237,76Z" fill="#649a3f" stroke="#649a3f" stroke-width="1.51"></path><path d="M46,205L178,202L155,109Z" fill="#6e9f42" stroke="#6e9f42" stroke-width="1.51"></path><path d="M237,76L345,31L260,-24Z" fill="#94b557" stroke="#94b557" stroke-width="1.51"></path><path d="M178,202L233,186L155,109Z" fill="#60963a" stroke="#60963a" stroke-width="1.51"></path><path d="M118,-60L75,-110L45,-24Z" fill="#d9e081" stroke="#d9e081" stroke-width="1.51"></path><path d="M268,-124L75,-110L118,-60Z" fill="#b6cd6e" stroke="#b6cd6e" stroke-width="1.51"></path><path d="M233,186L319,106L237,76Z" fill="#60963a" stroke="#60963a" stroke-width="1.51"></path><path d="M83,67L46,205L155,109Z" fill="#84ae51" stroke="#84ae51" stroke-width="1.51"></path><path d="M-34,112L-10,152L83,67Z" fill="#adc668" stroke="#adc668" stroke-width="1.51"></path><path d="M-10,152L46,205L83,67Z" fill="#9cba5c" stroke="#9cba5c" stroke-width="1.51"></path><path d="M-44,-36L-34,112L45,-24Z" fill="#f0ee8e" stroke="#f0ee8e" stroke-width="1.51"></path><path d="M45,-24L-34,112L83,67Z" fill="#c5d576" stroke="#c5d576" stroke-width="1.51"></path><path d="M319,106L345,31L237,76Z" fill="#70a043" stroke="#70a043" stroke-width="1.51"></path><path d="M-33,-66L-44,-36L45,-24Z" fill="#fff696" stroke="#fff696" stroke-width="1.51"></path><path d="M310,-110L268,-124L260,-24Z" fill="#abc263" stroke="#abc263" stroke-width="1.51"></path><path d="M260,-24L268,-124L162,-19Z" fill="#afc667" stroke="#afc667" stroke-width="1.51"></path><path d="M75,-110L-33,-66L45,-24Z" fill="#f1ee8e" stroke="#f1ee8e" stroke-width="1.51"></path><path d="M178,202L229,297L233,186Z" fill="#5c9237" stroke="#5c9237" stroke-width="1.51"></path><path d="M83,251L158,254L178,202Z" fill="#679b3f" stroke="#679b3f" stroke-width="1.51"></path><path d="M-33,240L83,251L46,205Z" fill="#9ab759" stroke="#9ab759" stroke-width="1.51"></path><path d="M46,205L83,251L178,202Z" fill="#79a548" stroke="#79a548" stroke-width="1.51"></path><path d="M345,31L310,-110L260,-24Z" fill="#a9c061" stroke="#a9c061" stroke-width="1.51"></path><path d="M447,76L409,-1L345,31Z" fill="#8db052" stroke="#8db052" stroke-width="1.51"></path><path d="M233,186L348,194L319,106Z" fill="#578d31" stroke="#578d31" stroke-width="1.51"></path><path d="M333,239L348,194L233,186Z" fill="#558b2f" stroke="#558b2f" stroke-width="1.51"></path><path d="M-10,152L-33,240L46,205Z" fill="#a9bf61" stroke="#a9bf61" stroke-width="1.51"></path><path d="M-138,194L-33,240L-10,152Z" fill="#a9c061" stroke="#a9c061" stroke-width="1.51"></path><path d="M-138,194L-10,152L-34,112Z" fill="#adc365" stroke="#adc365" stroke-width="1.51"></path><path d="M158,254L229,297L178,202Z" fill="#5e9439" stroke="#5e9439" stroke-width="1.51"></path><path d="M83,251L229,297L158,254Z" fill="#61973c" stroke="#61973c" stroke-width="1.51"></path><path d="M-141,266L229,297L83,251Z" fill="#8eb153" stroke="#8eb153" stroke-width="1.51"></path><path d="M345,31L409,-1L310,-110Z" fill="#a9c061" stroke="#a9c061" stroke-width="1.51"></path><path d="M447,76L345,31L319,106Z" fill="#70a043" stroke="#70a043" stroke-width="1.51"></path><path d="M229,297L333,239L233,186Z" fill="#588e32" stroke="#588e32" stroke-width="1.51"></path><path d="M-134,2L-128,60L-44,-36Z" fill="#f8f292" stroke="#f8f292" stroke-width="1.51"></path><path d="M-44,-36L-128,60L-34,112Z" fill="#dae181" stroke="#dae181" stroke-width="1.51"></path><path d="M-125,-62L-134,2L-44,-36Z" fill="#fff696" stroke="#fff696" stroke-width="1.51"></path><path d="M-33,-66L-125,-62L-44,-36Z" fill="#fff696" stroke="#fff696" stroke-width="1.51"></path><path d="M75,-110L-125,-62L-33,-66Z" fill="#fff696" stroke="#fff696" stroke-width="1.51"></path><path d="M452,195L447,76L348,194Z" fill="#588e32" stroke="#588e32" stroke-width="1.51"></path><path d="M348,194L447,76L319,106Z" fill="#5c9237" stroke="#5c9237" stroke-width="1.51"></path><path d="M-128,60L-138,194L-34,112Z" fill="#b1c869" stroke="#b1c869" stroke-width="1.51"></path><path d="M-134,2L-138,194L-128,60Z" fill="#b9ce70" stroke="#b9ce70" stroke-width="1.51"></path><path d="M409,-1L426,-118L310,-110Z" fill="#a9c061" stroke="#a9c061" stroke-width="1.51"></path><path d="M310,-110L426,-118L268,-124Z" fill="#a9c061" stroke="#a9c061" stroke-width="1.51"></path><path d="M447,76L426,-118L409,-1Z" fill="#a9c061" stroke="#a9c061" stroke-width="1.51"></path><path d="M440,241L348,194L333,239Z" fill="#558b2f" stroke="#558b2f" stroke-width="1.51"></path><path d="M440,241L452,195L348,194Z" fill="#558b2f" stroke="#558b2f" stroke-width="1.51"></path><path d="M229,297L440,241L333,239Z" fill="#558b2f" stroke="#558b2f" stroke-width="1.51"></path><path d="M-138,194L-141,266L-33,240Z" fill="#a9c061" stroke="#a9c061" stroke-width="1.51"></path><path d="M-33,240L-141,266L83,251Z" fill="#a9c061" stroke="#a9c061" stroke-width="1.51"></path><path d="M-134,2L-141,266L-138,194Z" fill="#acc365" stroke="#acc365" stroke-width="1.51"></path></svg>