<svg width="300" height="176" xmlns="http://www.w3.org/2000/svg"><path d="M157,69L223,31L124,7Z" fill="#80ad51" stroke="#80ad51" stroke-width="1.51"></path><path d="M223,31L178,-70L124,7Z" fill="#8eb558" stroke="#8eb558" stroke-width="1.51"></path><path d="M223,31L272,-98L178,-70Z" fill="#97ba5c" stroke="#97ba5c" stroke-width="1.51"></path><path d="M157,69L264,78L223,31Z" fill="#76a74b" stroke="#76a74b" stroke-width="1.51"></path><path d="M124,7L28,97L157,69Z" fill="#84b153" stroke="#84b153" stroke-width="1.51"></path><path d="M81,-102L32,7L124,7Z" fill="#a4c365" stroke="#a4c365" stroke-width="1.51"></path><path d="M264,78L322,-6L223,31Z" fill="#7ba94d" stroke="#7ba94d" stroke-width="1.51"></path><path d="M178,-70L81,-102L124,7Z" fill="#a2c163" stroke="#a2c163" stroke-width="1.51"></path><path d="M322,-6L272,-98L223,31Z" fill="#8eb457" stroke="#8eb457" stroke-width="1.51"></path><path d="M178,-70L272,-98L81,-102Z" fill="#a7c465" stroke="#a7c465" stroke-width="1.51"></path><path d="M32,7L28,97L124,7Z" fill="#93b95c" stroke="#93b95c" stroke-width="1.51"></path><path d="M253,174L320,106L264,78Z" fill="#679d41" stroke="#679d41" stroke-width="1.51"></path><path d="M264,78L320,106L322,-6Z" fill="#72a347" stroke="#72a347" stroke-width="1.51"></path><path d="M253,174L264,78L157,69Z" fill="#6ba145" stroke="#6ba145" stroke-width="1.51"></path><path d="M120,199L253,174L157,69Z" fill="#6aa044" stroke="#6aa044" stroke-width="1.51"></path><path d="M44,163L120,199L157,69Z" fill="#76a74b" stroke="#76a74b" stroke-width="1.51"></path><path d="M28,97L44,163L157,69Z" fill="#7fad50" stroke="#7fad50" stroke-width="1.51"></path><path d="M28,97L-14,165L44,163Z" fill="#8ab255" stroke="#8ab255" stroke-width="1.51"></path><path d="M32,7L-19,27L28,97Z" fill="#9cbe60" stroke="#9cbe60" stroke-width="1.51"></path><path d="M-43,-111L-19,27L32,7Z" fill="#b8ce6f" stroke="#b8ce6f" stroke-width="1.51"></path><path d="M120,199L137,234L253,174Z" fill="#679d41" stroke="#679d41" stroke-width="1.51"></path><path d="M50,242L137,234L120,199Z" fill="#72a346" stroke="#72a346" stroke-width="1.51"></path><path d="M44,163L50,242L120,199Z" fill="#7ba84c" stroke="#7ba84c" stroke-width="1.51"></path><path d="M-19,27L-23,115L28,97Z" fill="#95ba5d" stroke="#95ba5d" stroke-width="1.51"></path><path d="M322,-6L348,-115L272,-98Z" fill="#9bbb5c" stroke="#9bbb5c" stroke-width="1.51"></path><path d="M272,-98L348,-115L81,-102Z" fill="#a9c466" stroke="#a9c466" stroke-width="1.51"></path><path d="M426,7L348,-115L322,-6Z" fill="#8eb255" stroke="#8eb255" stroke-width="1.51"></path><path d="M-23,115L-14,165L28,97Z" fill="#90b659" stroke="#90b659" stroke-width="1.51"></path><path d="M137,234L268,252L253,174Z" fill="#649a3f" stroke="#649a3f" stroke-width="1.51"></path><path d="M253,174L352,207L320,106Z" fill="#649a3e" stroke="#649a3e" stroke-width="1.51"></path><path d="M81,-102L-43,-111L32,7Z" fill="#bed172" stroke="#bed172" stroke-width="1.51"></path><path d="M-19,27L-100,81L-23,115Z" fill="#a1c162" stroke="#a1c162" stroke-width="1.51"></path><path d="M348,-115L-43,-111L81,-102Z" fill="#b3cb6c" stroke="#b3cb6c" stroke-width="1.51"></path><path d="M443,71L426,7L320,106Z" fill="#6da043" stroke="#6da043" stroke-width="1.51"></path><path d="M320,106L426,7L322,-6Z" fill="#78a649" stroke="#78a649" stroke-width="1.51"></path><path d="M-14,165L50,242L44,163Z" fill="#85af51" stroke="#85af51" stroke-width="1.51"></path><path d="M137,234L50,242L268,252Z" fill="#669c40" stroke="#669c40" stroke-width="1.51"></path><path d="M318,244L352,207L253,174Z" fill="#61973c" stroke="#61973c" stroke-width="1.51"></path><path d="M268,252L318,244L253,174Z" fill="#61973c" stroke="#61973c" stroke-width="1.51"></path><path d="M424,190L443,71L320,106Z" fill="#63993d" stroke="#63993d" stroke-width="1.51"></path><path d="M-14,165L-37,255L50,242Z" fill="#8ab053" stroke="#8ab053" stroke-width="1.51"></path><path d="M-23,115L-137,186L-14,165Z" fill="#9abb5e" stroke="#9abb5e" stroke-width="1.51"></path><path d="M-140,0L-100,81L-19,27Z" fill="#b5cd6e" stroke="#b5cd6e" stroke-width="1.51"></path><path d="M352,207L424,190L320,106Z" fill="#61973c" stroke="#61973c" stroke-width="1.51"></path><path d="M414,252L424,190L352,207Z" fill="#5d9338" stroke="#5d9338" stroke-width="1.51"></path><path d="M426,7L450,-120L348,-115Z" fill="#99b859" stroke="#99b859" stroke-width="1.51"></path><path d="M348,-115L-113,-117L-43,-111Z" fill="#c3d475" stroke="#c3d475" stroke-width="1.51"></path><path d="M443,71L450,-120L426,7Z" fill="#83ab4e" stroke="#83ab4e" stroke-width="1.51"></path><path d="M-43,-111L-140,0L-19,27Z" fill="#c5d676" stroke="#c5d676" stroke-width="1.51"></path><path d="M-95,259L-37,255L-14,165Z" fill="#94b659" stroke="#94b659" stroke-width="1.51"></path><path d="M50,242L-37,255L268,252Z" fill="#73a246" stroke="#73a246" stroke-width="1.51"></path><path d="M-137,186L-23,115L-100,81Z" fill="#a2c162" stroke="#a2c162" stroke-width="1.51"></path><path d="M450,-120L-113,-117L348,-115Z" fill="#adc668" stroke="#adc668" stroke-width="1.51"></path><path d="M-43,-111L-113,-117L-140,0Z" fill="#dce282" stroke="#dce282" stroke-width="1.51"></path><path d="M-95,259L414,252L268,252Z" fill="#63993e" stroke="#63993e" stroke-width="1.51"></path><path d="M268,252L414,252L318,244Z" fill="#5e9438" stroke="#5e9438" stroke-width="1.51"></path><path d="M318,244L414,252L352,207Z" fill="#5e9338" stroke="#5e9338" stroke-width="1.51"></path><path d="M-140,0L-137,186L-100,81Z" fill="#aec86a" stroke="#aec86a" stroke-width="1.51"></path><path d="M-137,186L-95,259L-14,165Z" fill="#9dbc5e" stroke="#9dbc5e" stroke-width="1.51"></path><path d="M-37,255L-95,259L268,252Z" fill="#7da94c" stroke="#7da94c" stroke-width="1.51"></path></svg>