<svg width="300" height="176" xmlns="http://www.w3.org/2000/svg"><path d="M-14,270L-129,288L118,280Z" fill="#7daf57" stroke="#7daf57" stroke-width="1.51"></path><path d="M252,-81L318,-78L403,-88Z" fill="#8ebf67" stroke="#8ebf67" stroke-width="1.51"></path><path d="M67,-118L252,-81L403,-88Z" fill="#94c56e" stroke="#94c56e" stroke-width="1.51"></path><path d="M322,237L268,262L426,237Z" fill="#5e9438" stroke="#5e9438" stroke-width="1.51"></path><path d="M359,91L415,105L433,-24Z" fill="#6ba045" stroke="#6ba045" stroke-width="1.51"></path><path d="M337,1L359,91L433,-24Z" fill="#74a84e" stroke="#74a84e" stroke-width="1.51"></path><path d="M320,174L426,237L453,184Z" fill="#5e9438" stroke="#5e9438" stroke-width="1.51"></path><path d="M415,105L320,174L453,184Z" fill="#61973b" stroke="#61973b" stroke-width="1.51"></path><path d="M433,-24L415,105L453,184Z" fill="#63993e" stroke="#63993e" stroke-width="1.51"></path><path d="M359,91L320,174L415,105Z" fill="#649a3e" stroke="#649a3e" stroke-width="1.51"></path><path d="M320,174L322,237L426,237Z" fill="#5f9539" stroke="#5f9539" stroke-width="1.51"></path><path d="M403,-88L337,1L433,-24Z" fill="#80b35a" stroke="#80b35a" stroke-width="1.51"></path><path d="M318,-78L337,1L403,-88Z" fill="#86b860" stroke="#86b860" stroke-width="1.51"></path><path d="M337,1L247,81L359,91Z" fill="#6ea448" stroke="#6ea448" stroke-width="1.51"></path><path d="M247,81L320,174L359,91Z" fill="#679d41" stroke="#679d41" stroke-width="1.51"></path><path d="M252,-81L232,-6L318,-78Z" fill="#8abc63" stroke="#8abc63" stroke-width="1.51"></path><path d="M247,81L266,187L320,174Z" fill="#669c40" stroke="#669c40" stroke-width="1.51"></path><path d="M320,174L266,187L322,237Z" fill="#62983c" stroke="#62983c" stroke-width="1.51"></path><path d="M318,-78L232,-6L337,1Z" fill="#82b55c" stroke="#82b55c" stroke-width="1.51"></path><path d="M232,-6L247,81L337,1Z" fill="#78ac51" stroke="#78ac51" stroke-width="1.51"></path><path d="M266,187L268,262L322,237Z" fill="#61973c" stroke="#61973c" stroke-width="1.51"></path><path d="M67,-118L126,-60L252,-81Z" fill="#96c770" stroke="#96c770" stroke-width="1.51"></path><path d="M247,81L147,157L266,187Z" fill="#699f43" stroke="#699f43" stroke-width="1.51"></path><path d="M266,187L147,157L268,262Z" fill="#659b40" stroke="#659b40" stroke-width="1.51"></path><path d="M147,157L118,280L268,262Z" fill="#659b40" stroke="#659b40" stroke-width="1.51"></path><path d="M232,-6L147,21L247,81Z" fill="#79ad52" stroke="#79ad52" stroke-width="1.51"></path><path d="M147,21L140,66L247,81Z" fill="#75aa4f" stroke="#75aa4f" stroke-width="1.51"></path><path d="M140,66L147,157L247,81Z" fill="#6da347" stroke="#6da347" stroke-width="1.51"></path><path d="M126,-60L232,-6L252,-81Z" fill="#8bbe65" stroke="#8bbe65" stroke-width="1.51"></path><path d="M126,-60L147,21L232,-6Z" fill="#85b85e" stroke="#85b85e" stroke-width="1.51"></path><path d="M-99,-125L-54,-106L67,-118Z" fill="#b9e692" stroke="#b9e692" stroke-width="1.51"></path><path d="M51,257L-14,270L118,280Z" fill="#74a84e" stroke="#74a84e" stroke-width="1.51"></path><path d="M75,165L51,257L118,280Z" fill="#71a64b" stroke="#71a64b" stroke-width="1.51"></path><path d="M48,68L75,165L140,66Z" fill="#78ad52" stroke="#78ad52" stroke-width="1.51"></path><path d="M140,66L75,165L147,157Z" fill="#71a64b" stroke="#71a64b" stroke-width="1.51"></path><path d="M75,165L118,280L147,157Z" fill="#6ea348" stroke="#6ea348" stroke-width="1.51"></path><path d="M126,-60L79,-25L147,21Z" fill="#8cbf66" stroke="#8cbf66" stroke-width="1.51"></path><path d="M48,68L140,66L147,21Z" fill="#7db157" stroke="#7db157" stroke-width="1.51"></path><path d="M79,-25L48,68L147,21Z" fill="#86ba60" stroke="#86ba60" stroke-width="1.51"></path><path d="M67,-118L79,-25L126,-60Z" fill="#9bcc75" stroke="#9bcc75" stroke-width="1.51"></path><path d="M-54,-106L-26,-15L67,-118Z" fill="#addb87" stroke="#addb87" stroke-width="1.51"></path><path d="M-31,154L51,257L75,165Z" fill="#7baf55" stroke="#7baf55" stroke-width="1.51"></path><path d="M48,68L-31,154L75,165Z" fill="#7fb359" stroke="#7fb359" stroke-width="1.51"></path><path d="M67,-118L-26,-15L79,-25Z" fill="#a0d079" stroke="#a0d079" stroke-width="1.51"></path><path d="M-26,-15L48,68L79,-25Z" fill="#93c56c" stroke="#93c56c" stroke-width="1.51"></path><path d="M-46,91L-31,154L48,68Z" fill="#87ba61" stroke="#87ba61" stroke-width="1.51"></path><path d="M-31,154L-14,270L51,257Z" fill="#7eb158" stroke="#7eb158" stroke-width="1.51"></path><path d="M-26,-15L-46,91L48,68Z" fill="#91c36a" stroke="#91c36a" stroke-width="1.51"></path><path d="M-121,23L-46,91L-26,-15Z" fill="#9dce77" stroke="#9dce77" stroke-width="1.51"></path><path d="M-31,154L-92,199L-14,270Z" fill="#87b961" stroke="#87b961" stroke-width="1.51"></path><path d="M-92,199L-129,288L-14,270Z" fill="#89bb63" stroke="#89bb63" stroke-width="1.51"></path><path d="M-121,23L-96,90L-46,91Z" fill="#99ca73" stroke="#99ca73" stroke-width="1.51"></path><path d="M-46,91L-96,90L-31,154Z" fill="#8ec168" stroke="#8ec168" stroke-width="1.51"></path><path d="M-54,-106L-121,23L-26,-15Z" fill="#acdb86" stroke="#acdb86" stroke-width="1.51"></path><path d="M-99,-125L-121,23L-54,-106Z" fill="#b8e692" stroke="#b8e692" stroke-width="1.51"></path><path d="M-96,90L-92,199L-31,154Z" fill="#8fc069" stroke="#8fc069" stroke-width="1.51"></path><path d="M-121,23L-129,288L-96,90Z" fill="#97c770" stroke="#97c770" stroke-width="1.51"></path><path d="M-96,90L-129,288L-92,199Z" fill="#91c36b" stroke="#91c36b" stroke-width="1.51"></path></svg>