<svg width="300" height="176" xmlns="http://www.w3.org/2000/svg"><path d="M-47,-104L29,-94L179,-118Z" fill="#a9d983" stroke="#a9d983" stroke-width="1.51"></path><path d="M260,256L176,252L358,272Z" fill="#60963b" stroke="#60963b" stroke-width="1.51"></path><path d="M179,-118L317,-97L391,-112Z" fill="#94c56e" stroke="#94c56e" stroke-width="1.51"></path><path d="M317,-97L302,-33L391,-112Z" fill="#8dbe66" stroke="#8dbe66" stroke-width="1.51"></path><path d="M391,-112L302,-33L406,7Z" fill="#84b65d" stroke="#84b65d" stroke-width="1.51"></path><path d="M358,272L176,252L416,286Z" fill="#5d9338" stroke="#5d9338" stroke-width="1.51"></path><path d="M176,252L45,259L416,286Z" fill="#62983c" stroke="#62983c" stroke-width="1.51"></path><path d="M416,179L358,272L416,286Z" fill="#5c9236" stroke="#5c9236" stroke-width="1.51"></path><path d="M391,-112L406,7L429,86Z" fill="#79ad53" stroke="#79ad53" stroke-width="1.51"></path><path d="M406,7L300,112L429,86Z" fill="#6a9f44" stroke="#6a9f44" stroke-width="1.51"></path><path d="M312,166L416,179L429,86Z" fill="#62973d" stroke="#62973d" stroke-width="1.51"></path><path d="M300,112L312,166L429,86Z" fill="#659b3f" stroke="#659b3f" stroke-width="1.51"></path><path d="M416,179L416,286L429,86Z" fill="#5e9439" stroke="#5e9439" stroke-width="1.51"></path><path d="M312,166L358,272L416,179Z" fill="#5f9539" stroke="#5f9539" stroke-width="1.51"></path><path d="M302,-33L300,112L406,7Z" fill="#74a94e" stroke="#74a94e" stroke-width="1.51"></path><path d="M179,-118L249,-87L317,-97Z" fill="#94c66e" stroke="#94c66e" stroke-width="1.51"></path><path d="M243,96L300,112L302,-33Z" fill="#70a54a" stroke="#70a54a" stroke-width="1.51"></path><path d="M312,166L260,256L358,272Z" fill="#60963a" stroke="#60963a" stroke-width="1.51"></path><path d="M242,-24L243,96L302,-33Z" fill="#7baf55" stroke="#7baf55" stroke-width="1.51"></path><path d="M239,177L260,256L312,166Z" fill="#63993e" stroke="#63993e" stroke-width="1.51"></path><path d="M249,-87L302,-33L317,-97Z" fill="#8cbe66" stroke="#8cbe66" stroke-width="1.51"></path><path d="M300,112L239,177L312,166Z" fill="#669c40" stroke="#669c40" stroke-width="1.51"></path><path d="M243,96L239,177L300,112Z" fill="#689e42" stroke="#689e42" stroke-width="1.51"></path><path d="M249,-87L242,-24L302,-33Z" fill="#88bb62" stroke="#88bb62" stroke-width="1.51"></path><path d="M242,-24L155,31L243,96Z" fill="#78ad52" stroke="#78ad52" stroke-width="1.51"></path><path d="M155,31L156,64L243,96Z" fill="#73a84d" stroke="#73a84d" stroke-width="1.51"></path><path d="M239,177L176,252L260,256Z" fill="#649a3e" stroke="#649a3e" stroke-width="1.51"></path><path d="M128,185L239,177L243,96Z" fill="#699f43" stroke="#699f43" stroke-width="1.51"></path><path d="M156,64L128,185L243,96Z" fill="#6ca246" stroke="#6ca246" stroke-width="1.51"></path><path d="M179,-118L242,-24L249,-87Z" fill="#90c26a" stroke="#90c26a" stroke-width="1.51"></path><path d="M179,-118L155,31L242,-24Z" fill="#89bb63" stroke="#89bb63" stroke-width="1.51"></path><path d="M128,185L176,252L239,177Z" fill="#669c41" stroke="#669c41" stroke-width="1.51"></path><path d="M68,149L128,185L156,64Z" fill="#71a74b" stroke="#71a74b" stroke-width="1.51"></path><path d="M73,8L155,31L179,-118Z" fill="#8bbd64" stroke="#8bbd64" stroke-width="1.51"></path><path d="M29,-94L73,8L179,-118Z" fill="#9acc74" stroke="#9acc74" stroke-width="1.51"></path><path d="M69,72L68,149L156,64Z" fill="#76ab50" stroke="#76ab50" stroke-width="1.51"></path><path d="M128,185L45,259L176,252Z" fill="#6ca145" stroke="#6ca145" stroke-width="1.51"></path><path d="M73,8L69,72L155,31Z" fill="#82b65c" stroke="#82b65c" stroke-width="1.51"></path><path d="M155,31L69,72L156,64Z" fill="#79ae53" stroke="#79ae53" stroke-width="1.51"></path><path d="M68,149L45,259L128,185Z" fill="#73a84d" stroke="#73a84d" stroke-width="1.51"></path><path d="M2,236L-101,235L45,259Z" fill="#80b35a" stroke="#80b35a" stroke-width="1.51"></path><path d="M2,236L45,259L68,149Z" fill="#79ad53" stroke="#79ad53" stroke-width="1.51"></path><path d="M-33,165L2,236L68,149Z" fill="#7fb359" stroke="#7fb359" stroke-width="1.51"></path><path d="M-33,165L68,149L69,72Z" fill="#7eb258" stroke="#7eb258" stroke-width="1.51"></path><path d="M-57,65L-33,165L69,72Z" fill="#87ba61" stroke="#87ba61" stroke-width="1.51"></path><path d="M-57,65L69,72L73,8Z" fill="#8abd64" stroke="#8abd64" stroke-width="1.51"></path><path d="M-15,-33L-57,65L73,8Z" fill="#97c871" stroke="#97c871" stroke-width="1.51"></path><path d="M29,-94L-15,-33L73,8Z" fill="#9ecf78" stroke="#9ecf78" stroke-width="1.51"></path><path d="M-47,-104L-15,-33L29,-94Z" fill="#addc87" stroke="#addc87" stroke-width="1.51"></path><path d="M-97,-12L-57,65L-15,-33Z" fill="#a2d27b" stroke="#a2d27b" stroke-width="1.51"></path><path d="M-33,165L-101,235L2,236Z" fill="#87b960" stroke="#87b960" stroke-width="1.51"></path><path d="M-57,65L-105,167L-33,165Z" fill="#8ec168" stroke="#8ec168" stroke-width="1.51"></path><path d="M-47,-104L-97,-12L-15,-33Z" fill="#addc87" stroke="#addc87" stroke-width="1.51"></path><path d="M-105,167L-101,235L-33,165Z" fill="#8dbf67" stroke="#8dbf67" stroke-width="1.51"></path><path d="M-149,56L-105,167L-57,65Z" fill="#97c870" stroke="#97c870" stroke-width="1.51"></path><path d="M-153,-68L-97,-12L-47,-104Z" fill="#b7e691" stroke="#b7e691" stroke-width="1.51"></path><path d="M-97,-12L-149,56L-57,65Z" fill="#a2d27c" stroke="#a2d27c" stroke-width="1.51"></path><path d="M-153,-68L-149,56L-97,-12Z" fill="#b1e08b" stroke="#b1e08b" stroke-width="1.51"></path><path d="M-105,167L-149,56L-101,235Z" fill="#95c670" stroke="#95c670" stroke-width="1.51"></path></svg>