<svg width="300" height="176" xmlns="http://www.w3.org/2000/svg"><path d="M263,264L129,272L340,280Z" fill="#0e62a6" stroke="#0e62a6" stroke-width="1.51"></path><path d="M129,272L-63,301L340,280Z" fill="#1767ab" stroke="#1767ab" stroke-width="1.51"></path><path d="M120,-97L224,-88L432,-123Z" fill="#4b96d0" stroke="#4b96d0" stroke-width="1.51"></path><path d="M224,-88L359,-73L432,-123Z" fill="#4790cb" stroke="#4790cb" stroke-width="1.51"></path><path d="M359,-73L401,9L432,-123Z" fill="#3f86c3" stroke="#3f86c3" stroke-width="1.51"></path><path d="M401,9L417,109L432,-123Z" fill="#3079b8" stroke="#3079b8" stroke-width="1.51"></path><path d="M313,163L340,280L448,239Z" fill="#0c60a4" stroke="#0c60a4" stroke-width="1.51"></path><path d="M313,163L448,239L452,183Z" fill="#0c60a4" stroke="#0c60a4" stroke-width="1.51"></path><path d="M417,109L313,163L452,183Z" fill="#0f63a7" stroke="#0f63a7" stroke-width="1.51"></path><path d="M432,-123L417,109L452,183Z" fill="#1e6cae" stroke="#1e6cae" stroke-width="1.51"></path><path d="M355,100L313,163L417,109Z" fill="#1266aa" stroke="#1266aa" stroke-width="1.51"></path><path d="M401,9L355,100L417,109Z" fill="#1a6aad" stroke="#1a6aad" stroke-width="1.51"></path><path d="M69,269L-63,301L129,272Z" fill="#2c75b6" stroke="#2c75b6" stroke-width="1.51"></path><path d="M359,-73L337,-5L401,9Z" fill="#377fbe" stroke="#377fbe" stroke-width="1.51"></path><path d="M337,-5L355,100L401,9Z" fill="#2773b4" stroke="#2773b4" stroke-width="1.51"></path><path d="M313,163L263,264L340,280Z" fill="#0e62a6" stroke="#0e62a6" stroke-width="1.51"></path><path d="M337,-5L255,58L355,100Z" fill="#2372b4" stroke="#2372b4" stroke-width="1.51"></path><path d="M224,-88L337,-5L359,-73Z" fill="#3f89c6" stroke="#3f89c6" stroke-width="1.51"></path><path d="M255,58L313,163L355,100Z" fill="#1569ad" stroke="#1569ad" stroke-width="1.51"></path><path d="M238,189L263,264L313,163Z" fill="#1165a9" stroke="#1165a9" stroke-width="1.51"></path><path d="M224,-88L232,26L337,-5Z" fill="#3883c2" stroke="#3883c2" stroke-width="1.51"></path><path d="M232,26L255,58L337,-5Z" fill="#2b79ba" stroke="#2b79ba" stroke-width="1.51"></path><path d="M-104,-74L-28,-65L120,-97Z" fill="#5faee2" stroke="#5faee2" stroke-width="1.51"></path><path d="M255,58L238,189L313,163Z" fill="#1569ad" stroke="#1569ad" stroke-width="1.51"></path><path d="M117,98L141,156L255,58Z" fill="#1a6fb3" stroke="#1a6fb3" stroke-width="1.51"></path><path d="M141,156L238,189L255,58Z" fill="#176cb0" stroke="#176cb0" stroke-width="1.51"></path><path d="M238,189L129,272L263,264Z" fill="#1265a9" stroke="#1265a9" stroke-width="1.51"></path><path d="M-28,-65L90,-83L120,-97Z" fill="#56a4db" stroke="#56a4db" stroke-width="1.51"></path><path d="M224,-88L132,11L232,26Z" fill="#3986c4" stroke="#3986c4" stroke-width="1.51"></path><path d="M232,26L117,98L255,58Z" fill="#2475b7" stroke="#2475b7" stroke-width="1.51"></path><path d="M132,11L117,98L232,26Z" fill="#2979bb" stroke="#2979bb" stroke-width="1.51"></path><path d="M141,156L129,272L238,189Z" fill="#1569ad" stroke="#1569ad" stroke-width="1.51"></path><path d="M120,-97L132,11L224,-88Z" fill="#4390cc" stroke="#4390cc" stroke-width="1.51"></path><path d="M75,-4L70,102L117,98Z" fill="#307fbf" stroke="#307fbf" stroke-width="1.51"></path><path d="M75,-4L117,98L132,11Z" fill="#3483c2" stroke="#3483c2" stroke-width="1.51"></path><path d="M120,-97L90,-83L132,11Z" fill="#4996d0" stroke="#4996d0" stroke-width="1.51"></path><path d="M90,-83L75,-4L132,11Z" fill="#4591cd" stroke="#4591cd" stroke-width="1.51"></path><path d="M117,98L70,102L141,156Z" fill="#2475b7" stroke="#2475b7" stroke-width="1.51"></path><path d="M70,102L33,205L141,156Z" fill="#2977b9" stroke="#2977b9" stroke-width="1.51"></path><path d="M69,269L129,272L141,156Z" fill="#1f6eb1" stroke="#1f6eb1" stroke-width="1.51"></path><path d="M33,205L69,269L141,156Z" fill="#2774b6" stroke="#2774b6" stroke-width="1.51"></path><path d="M-2,112L33,205L70,102Z" fill="#3380bf" stroke="#3380bf" stroke-width="1.51"></path><path d="M-4,7L70,102L75,-4Z" fill="#3f8cc9" stroke="#3f8cc9" stroke-width="1.51"></path><path d="M-28,-65L-4,7L75,-4Z" fill="#519dd6" stroke="#519dd6" stroke-width="1.51"></path><path d="M-28,-65L75,-4L90,-83Z" fill="#529fd7" stroke="#529fd7" stroke-width="1.51"></path><path d="M-2,112L-19,161L33,205Z" fill="#3783c2" stroke="#3783c2" stroke-width="1.51"></path><path d="M-4,7L-2,112L70,102Z" fill="#3a88c6" stroke="#3a88c6" stroke-width="1.51"></path><path d="M33,205L-63,301L69,269Z" fill="#327bbb" stroke="#327bbb" stroke-width="1.51"></path><path d="M-19,161L-89,186L33,205Z" fill="#3b86c4" stroke="#3b86c4" stroke-width="1.51"></path><path d="M-89,186L-63,301L33,205Z" fill="#3c85c2" stroke="#3c85c2" stroke-width="1.51"></path><path d="M-89,186L-104,278L-63,301Z" fill="#438bc7" stroke="#438bc7" stroke-width="1.51"></path><path d="M-28,-65L-130,-24L-4,7Z" fill="#5caae0" stroke="#5caae0" stroke-width="1.51"></path><path d="M-130,-24L-139,75L-4,7Z" fill="#57a5dc" stroke="#57a5dc" stroke-width="1.51"></path><path d="M-89,186L-19,161L-2,112Z" fill="#3f89c6" stroke="#3f89c6" stroke-width="1.51"></path><path d="M-139,75L-89,186L-2,112Z" fill="#4692cd" stroke="#4692cd" stroke-width="1.51"></path><path d="M-4,7L-139,75L-2,112Z" fill="#4795d0" stroke="#4795d0" stroke-width="1.51"></path><path d="M-104,-74L-130,-24L-28,-65Z" fill="#66b5e7" stroke="#66b5e7" stroke-width="1.51"></path><path d="M-139,75L-104,278L-89,186Z" fill="#4994ce" stroke="#4994ce" stroke-width="1.51"></path></svg>