<svg width="300" height="176" xmlns="http://www.w3.org/2000/svg"><path d="M132,90L86,75L137,153Z" fill="#2376b7" stroke="#2376b7" stroke-width="1.51"></path><path d="M86,75L68,191L137,153Z" fill="#2779b8" stroke="#2779b8" stroke-width="1.51"></path><path d="M86,75L-33,150L68,191Z" fill="#3385bf" stroke="#3385bf" stroke-width="1.51"></path><path d="M162,-36L37,21L86,75Z" fill="#3c91c7" stroke="#3c91c7" stroke-width="1.51"></path><path d="M37,21L-33,150L86,75Z" fill="#388cc4" stroke="#388cc4" stroke-width="1.51"></path><path d="M137,153L223,161L132,90Z" fill="#196eb2" stroke="#196eb2" stroke-width="1.51"></path><path d="M208,245L223,161L137,153Z" fill="#1569ae" stroke="#1569ae" stroke-width="1.51"></path><path d="M68,191L146,260L137,153Z" fill="#2071b2" stroke="#2071b2" stroke-width="1.51"></path><path d="M27,255L146,260L68,191Z" fill="#2877b4" stroke="#2877b4" stroke-width="1.51"></path><path d="M-11,242L27,255L68,191Z" fill="#3282bb" stroke="#3282bb" stroke-width="1.51"></path><path d="M37,21L-60,119L-33,150Z" fill="#3f94c8" stroke="#3f94c8" stroke-width="1.51"></path><path d="M-33,150L-11,242L68,191Z" fill="#3789bf" stroke="#3789bf" stroke-width="1.51"></path><path d="M132,90L162,-36L86,75Z" fill="#3083bf" stroke="#3083bf" stroke-width="1.51"></path><path d="M223,161L250,91L132,90Z" fill="#196db1" stroke="#196db1" stroke-width="1.51"></path><path d="M-147,161L-11,242L-33,150Z" fill="#4499c8" stroke="#4499c8" stroke-width="1.51"></path><path d="M223,161L308,171L250,91Z" fill="#1569ad" stroke="#1569ad" stroke-width="1.51"></path><path d="M146,260L208,245L137,153Z" fill="#1469ad" stroke="#1469ad" stroke-width="1.51"></path><path d="M37,21L-38,19L-60,119Z" fill="#47a0cf" stroke="#47a0cf" stroke-width="1.51"></path><path d="M247,25L162,-36L132,90Z" fill="#2f82bd" stroke="#2f82bd" stroke-width="1.51"></path><path d="M37,21L-55,-70L-38,19Z" fill="#55b3d9" stroke="#55b3d9" stroke-width="1.51"></path><path d="M250,91L247,25L132,90Z" fill="#2174b5" stroke="#2174b5" stroke-width="1.51"></path><path d="M-38,19L-114,80L-60,119Z" fill="#4ba5d1" stroke="#4ba5d1" stroke-width="1.51"></path><path d="M-60,119L-147,161L-33,150Z" fill="#479fcd" stroke="#479fcd" stroke-width="1.51"></path><path d="M208,245L308,171L223,161Z" fill="#1367ab" stroke="#1367ab" stroke-width="1.51"></path><path d="M250,91L356,72L247,25Z" fill="#2173b3" stroke="#2173b3" stroke-width="1.51"></path><path d="M338,-26L237,-62L247,25Z" fill="#3a8cc2" stroke="#3a8cc2" stroke-width="1.51"></path><path d="M247,25L237,-62L162,-36Z" fill="#3c90c5" stroke="#3c90c5" stroke-width="1.51"></path><path d="M26,-118L-55,-70L37,21Z" fill="#5bbdde" stroke="#5bbdde" stroke-width="1.51"></path><path d="M-114,80L-147,161L-60,119Z" fill="#4ca6d1" stroke="#4ca6d1" stroke-width="1.51"></path><path d="M-114,80L-119,-3L-147,161Z" fill="#52b0d7" stroke="#52b0d7" stroke-width="1.51"></path><path d="M-38,19L-119,-3L-114,80Z" fill="#56b6da" stroke="#56b6da" stroke-width="1.51"></path><path d="M26,-118L37,21L162,-36Z" fill="#4da9d4" stroke="#4da9d4" stroke-width="1.51"></path><path d="M-55,-70L-119,-3L-38,19Z" fill="#5dc1e0" stroke="#5dc1e0" stroke-width="1.51"></path><path d="M237,-62L123,-125L162,-36Z" fill="#48a1ce" stroke="#48a1ce" stroke-width="1.51"></path><path d="M123,-125L26,-118L162,-36Z" fill="#54b2d8" stroke="#54b2d8" stroke-width="1.51"></path><path d="M308,171L356,72L250,91Z" fill="#1569ad" stroke="#1569ad" stroke-width="1.51"></path><path d="M356,72L338,-26L247,25Z" fill="#2d7db8" stroke="#2d7db8" stroke-width="1.51"></path><path d="M237,-62L335,-68L123,-125Z" fill="#49a1ce" stroke="#49a1ce" stroke-width="1.51"></path><path d="M-147,161L-133,298L-11,242Z" fill="#479dc9" stroke="#479dc9" stroke-width="1.51"></path><path d="M-11,242L-133,298L27,255Z" fill="#3d8ec0" stroke="#3d8ec0" stroke-width="1.51"></path><path d="M27,255L-133,298L146,260Z" fill="#3483ba" stroke="#3483ba" stroke-width="1.51"></path><path d="M308,171L402,107L356,72Z" fill="#1367ab" stroke="#1367ab" stroke-width="1.51"></path><path d="M208,245L334,289L308,171Z" fill="#0f63a7" stroke="#0f63a7" stroke-width="1.51"></path><path d="M146,260L334,289L208,245Z" fill="#0f63a7" stroke="#0f63a7" stroke-width="1.51"></path><path d="M-133,298L334,289L146,260Z" fill="#1d6cae" stroke="#1d6cae" stroke-width="1.51"></path><path d="M-55,-70L-116,-75L-119,-3Z" fill="#67d2e9" stroke="#67d2e9" stroke-width="1.51"></path><path d="M-119,-3L-116,-75L-147,161Z" fill="#5cc0e0" stroke="#5cc0e0" stroke-width="1.51"></path><path d="M26,-118L-116,-75L-55,-70Z" fill="#68d3ea" stroke="#68d3ea" stroke-width="1.51"></path><path d="M356,72L429,7L338,-26Z" fill="#2d7cb7" stroke="#2d7cb7" stroke-width="1.51"></path><path d="M413,192L402,107L308,171Z" fill="#1063a7" stroke="#1063a7" stroke-width="1.51"></path><path d="M429,7L335,-68L338,-26Z" fill="#398abf" stroke="#398abf" stroke-width="1.51"></path><path d="M338,-26L335,-68L237,-62Z" fill="#4094c5" stroke="#4094c5" stroke-width="1.51"></path><path d="M334,289L413,192L308,171Z" fill="#0d61a5" stroke="#0d61a5" stroke-width="1.51"></path><path d="M334,289L405,293L413,192Z" fill="#085da1" stroke="#085da1" stroke-width="1.51"></path><path d="M-133,298L405,293L334,289Z" fill="#0f63a7" stroke="#0f63a7" stroke-width="1.51"></path><path d="M402,107L429,7L356,72Z" fill="#1e6eaf" stroke="#1e6eaf" stroke-width="1.51"></path><path d="M413,192L429,7L402,107Z" fill="#1165a9" stroke="#1165a9" stroke-width="1.51"></path><path d="M405,293L429,7L413,192Z" fill="#0e61a5" stroke="#0e61a5" stroke-width="1.51"></path><path d="M429,7L428,-120L335,-68Z" fill="#4192c3" stroke="#4192c3" stroke-width="1.51"></path><path d="M335,-68L428,-120L123,-125Z" fill="#4ca5ce" stroke="#4ca5ce" stroke-width="1.51"></path></svg>