<svg width="300" height="176" xmlns="http://www.w3.org/2000/svg"><path d="M170,100L256,170L256,79Z" fill="#1266aa" stroke="#1266aa" stroke-width="1.51"></path><path d="M170,100L169,197L256,170Z" fill="#0f62a7" stroke="#0f62a7" stroke-width="1.51"></path><path d="M256,170L343,156L256,79Z" fill="#0a5ea2" stroke="#0a5ea2" stroke-width="1.51"></path><path d="M321,240L343,156L256,170Z" fill="#01579b" stroke="#01579b" stroke-width="1.51"></path><path d="M343,156L342,89L256,79Z" fill="#0d61a5" stroke="#0d61a5" stroke-width="1.51"></path><path d="M350,18L236,-11L256,79Z" fill="#4192c2" stroke="#4192c2" stroke-width="1.51"></path><path d="M256,79L176,-5L170,100Z" fill="#3283bd" stroke="#3283bd" stroke-width="1.51"></path><path d="M236,-11L176,-5L256,79Z" fill="#479dca" stroke="#479dca" stroke-width="1.51"></path><path d="M264,295L321,240L256,170Z" fill="#03589c" stroke="#03589c" stroke-width="1.51"></path><path d="M169,197L264,295L256,170Z" fill="#085da1" stroke="#085da1" stroke-width="1.51"></path><path d="M73,286L162,270L169,197Z" fill="#1b6aac" stroke="#1b6aac" stroke-width="1.51"></path><path d="M342,89L350,18L256,79Z" fill="#2a77b3" stroke="#2a77b3" stroke-width="1.51"></path><path d="M412,57L350,18L342,89Z" fill="#2f7cb6" stroke="#2f7cb6" stroke-width="1.51"></path><path d="M162,270L264,295L169,197Z" fill="#0b5fa4" stroke="#0b5fa4" stroke-width="1.51"></path><path d="M170,100L26,170L169,197Z" fill="#2473b2" stroke="#2473b2" stroke-width="1.51"></path><path d="M176,-5L81,3L170,100Z" fill="#479fce" stroke="#479fce" stroke-width="1.51"></path><path d="M118,-106L81,3L176,-5Z" fill="#5dc1e0" stroke="#5dc1e0" stroke-width="1.51"></path><path d="M343,156L413,163L342,89Z" fill="#085da1" stroke="#085da1" stroke-width="1.51"></path><path d="M321,240L413,163L343,156Z" fill="#01579b" stroke="#01579b" stroke-width="1.51"></path><path d="M420,264L413,163L321,240Z" fill="#01579b" stroke="#01579b" stroke-width="1.51"></path><path d="M81,3L26,114L170,100Z" fill="#4197ca" stroke="#4197ca" stroke-width="1.51"></path><path d="M26,114L26,170L170,100Z" fill="#3a8cc1" stroke="#3a8cc1" stroke-width="1.51"></path><path d="M413,163L412,57L342,89Z" fill="#0e61a6" stroke="#0e61a6" stroke-width="1.51"></path><path d="M26,170L73,286L169,197Z" fill="#317eb7" stroke="#317eb7" stroke-width="1.51"></path><path d="M162,270L73,286L264,295Z" fill="#0f62a6" stroke="#0f62a6" stroke-width="1.51"></path><path d="M236,-11L256,-102L176,-5Z" fill="#52aed3" stroke="#52aed3" stroke-width="1.51"></path><path d="M313,-114L256,-102L236,-11Z" fill="#50aacf" stroke="#50aacf" stroke-width="1.51"></path><path d="M313,-114L236,-11L350,18Z" fill="#4fa7cd" stroke="#4fa7cd" stroke-width="1.51"></path><path d="M413,163L448,12L412,57Z" fill="#1d6cac" stroke="#1d6cac" stroke-width="1.51"></path><path d="M264,295L420,264L321,240Z" fill="#01579b" stroke="#01579b" stroke-width="1.51"></path><path d="M256,-102L118,-106L176,-5Z" fill="#54b2d7" stroke="#54b2d7" stroke-width="1.51"></path><path d="M-2,-10L-33,100L26,114Z" fill="#60c6e3" stroke="#60c6e3" stroke-width="1.51"></path><path d="M412,57L448,12L350,18Z" fill="#3f90c1" stroke="#3f90c1" stroke-width="1.51"></path><path d="M420,264L448,12L413,163Z" fill="#065b9f" stroke="#065b9f" stroke-width="1.51"></path><path d="M256,-102L313,-114L118,-106Z" fill="#52aed3" stroke="#52aed3" stroke-width="1.51"></path><path d="M424,-67L313,-114L350,18Z" fill="#4fa7cd" stroke="#4fa7cd" stroke-width="1.51"></path><path d="M26,114L-33,100L26,170Z" fill="#51acd2" stroke="#51acd2" stroke-width="1.51"></path><path d="M26,170L-26,210L73,286Z" fill="#489cc7" stroke="#489cc7" stroke-width="1.51"></path><path d="M-2,-10L26,114L81,3Z" fill="#65cfe7" stroke="#65cfe7" stroke-width="1.51"></path><path d="M44,-73L-2,-10L81,3Z" fill="#74eaf5" stroke="#74eaf5" stroke-width="1.51"></path><path d="M-33,100L-26,210L26,170Z" fill="#50aacf" stroke="#50aacf" stroke-width="1.51"></path><path d="M118,-106L44,-73L81,3Z" fill="#69d7eb" stroke="#69d7eb" stroke-width="1.51"></path><path d="M448,12L424,-67L350,18Z" fill="#4fa7cd" stroke="#4fa7cd" stroke-width="1.51"></path><path d="M-26,210L-29,284L73,286Z" fill="#4da4cb" stroke="#4da4cb" stroke-width="1.51"></path><path d="M73,286L-29,284L264,295Z" fill="#2b78b3" stroke="#2b78b3" stroke-width="1.51"></path><path d="M-114,191L-29,284L-26,210Z" fill="#4fa7cd" stroke="#4fa7cd" stroke-width="1.51"></path><path d="M-139,81L-114,191L-33,100Z" fill="#53afd4" stroke="#53afd4" stroke-width="1.51"></path><path d="M-33,100L-114,191L-26,210Z" fill="#50a9ce" stroke="#50a9ce" stroke-width="1.51"></path><path d="M-2,-10L-111,4L-33,100Z" fill="#71e4f2" stroke="#71e4f2" stroke-width="1.51"></path><path d="M44,-73L-35,-116L-2,-10Z" fill="#7ffefe" stroke="#7ffefe" stroke-width="1.51"></path><path d="M118,-106L-35,-116L44,-73Z" fill="#74eaf4" stroke="#74eaf4" stroke-width="1.51"></path><path d="M313,-114L-35,-116L118,-106Z" fill="#5bbede" stroke="#5bbede" stroke-width="1.51"></path><path d="M-35,-116L-111,4L-2,-10Z" fill="#7fffff" stroke="#7fffff" stroke-width="1.51"></path><path d="M-111,4L-139,81L-33,100Z" fill="#63cbe5" stroke="#63cbe5" stroke-width="1.51"></path><path d="M-114,191L-142,263L-29,284Z" fill="#4fa7cd" stroke="#4fa7cd" stroke-width="1.51"></path><path d="M-139,81L-142,263L-114,191Z" fill="#4fa7cd" stroke="#4fa7cd" stroke-width="1.51"></path><path d="M-139,81L-145,-122L-142,263Z" fill="#5dc1e0" stroke="#5dc1e0" stroke-width="1.51"></path><path d="M-111,4L-145,-122L-139,81Z" fill="#7fffff" stroke="#7fffff" stroke-width="1.51"></path><path d="M-35,-116L-145,-122L-111,4Z" fill="#7fffff" stroke="#7fffff" stroke-width="1.51"></path><path d="M313,-114L-145,-122L-35,-116Z" fill="#73e9f4" stroke="#73e9f4" stroke-width="1.51"></path></svg>