<svg width="300" height="176" xmlns="http://www.w3.org/2000/svg"><path d="M170,86L228,75L172,18Z" fill="#2578b8" stroke="#2578b8" stroke-width="1.51"></path><path d="M228,75L248,-21L172,18Z" fill="#2f81bc" stroke="#2f81bc" stroke-width="1.51"></path><path d="M228,75L303,7L248,-21Z" fill="#3080bb" stroke="#3080bb" stroke-width="1.51"></path><path d="M71,3L69,56L172,18Z" fill="#398dc5" stroke="#398dc5" stroke-width="1.51"></path><path d="M172,18L69,56L170,86Z" fill="#2b7dbc" stroke="#2b7dbc" stroke-width="1.51"></path><path d="M69,56L141,171L170,86Z" fill="#2175b6" stroke="#2175b6" stroke-width="1.51"></path><path d="M170,86L141,171L228,75Z" fill="#196eb2" stroke="#196eb2" stroke-width="1.51"></path><path d="M228,75L345,57L303,7Z" fill="#2777b6" stroke="#2777b6" stroke-width="1.51"></path><path d="M171,-96L71,3L172,18Z" fill="#4095c9" stroke="#4095c9" stroke-width="1.51"></path><path d="M248,-21L171,-96L172,18Z" fill="#3e93c7" stroke="#3e93c7" stroke-width="1.51"></path><path d="M212,-116L171,-96L248,-21Z" fill="#48a0cd" stroke="#48a0cd" stroke-width="1.51"></path><path d="M319,182L345,57L228,75Z" fill="#166aae" stroke="#166aae" stroke-width="1.51"></path><path d="M141,171L272,198L228,75Z" fill="#166baf" stroke="#166baf" stroke-width="1.51"></path><path d="M305,-118L248,-21L303,7Z" fill="#3f93c5" stroke="#3f93c5" stroke-width="1.51"></path><path d="M305,-118L212,-116L248,-21Z" fill="#49a0cd" stroke="#49a0cd" stroke-width="1.51"></path><path d="M272,198L319,182L228,75Z" fill="#1468ac" stroke="#1468ac" stroke-width="1.51"></path><path d="M71,3L-18,23L69,56Z" fill="#439acc" stroke="#439acc" stroke-width="1.51"></path><path d="M171,-96L51,-74L71,3Z" fill="#4da7d2" stroke="#4da7d2" stroke-width="1.51"></path><path d="M-53,-102L51,-74L171,-96Z" fill="#5abcdd" stroke="#5abcdd" stroke-width="1.51"></path><path d="M69,56L41,186L141,171Z" fill="#2a7cba" stroke="#2a7cba" stroke-width="1.51"></path><path d="M141,171L236,257L272,198Z" fill="#1367ab" stroke="#1367ab" stroke-width="1.51"></path><path d="M-47,119L41,186L69,56Z" fill="#378ac2" stroke="#378ac2" stroke-width="1.51"></path><path d="M392,-118L305,-118L303,7Z" fill="#459ac8" stroke="#459ac8" stroke-width="1.51"></path><path d="M41,186L148,252L141,171Z" fill="#2273b3" stroke="#2273b3" stroke-width="1.51"></path><path d="M272,198L335,249L319,182Z" fill="#1063a7" stroke="#1063a7" stroke-width="1.51"></path><path d="M148,252L236,257L141,171Z" fill="#1368ac" stroke="#1368ac" stroke-width="1.51"></path><path d="M51,-74L-18,23L71,3Z" fill="#4ea9d3" stroke="#4ea9d3" stroke-width="1.51"></path><path d="M451,-15L392,-118L303,7Z" fill="#3d8ec1" stroke="#3d8ec1" stroke-width="1.51"></path><path d="M319,182L419,82L345,57Z" fill="#1367ab" stroke="#1367ab" stroke-width="1.51"></path><path d="M319,182L416,195L419,82Z" fill="#1063a7" stroke="#1063a7" stroke-width="1.51"></path><path d="M236,257L335,249L272,198Z" fill="#0f63a7" stroke="#0f63a7" stroke-width="1.51"></path><path d="M-18,23L-47,119L69,56Z" fill="#4197ca" stroke="#4197ca" stroke-width="1.51"></path><path d="M451,-15L303,7L345,57Z" fill="#2e7db8" stroke="#2e7db8" stroke-width="1.51"></path><path d="M335,249L416,195L319,182Z" fill="#0e61a5" stroke="#0e61a5" stroke-width="1.51"></path><path d="M-64,264L66,284L41,186Z" fill="#3484bc" stroke="#3484bc" stroke-width="1.51"></path><path d="M41,186L66,284L148,252Z" fill="#2676b3" stroke="#2676b3" stroke-width="1.51"></path><path d="M148,252L66,284L236,257Z" fill="#1367ab" stroke="#1367ab" stroke-width="1.51"></path><path d="M236,257L412,268L335,249Z" fill="#0b5fa3" stroke="#0b5fa3" stroke-width="1.51"></path><path d="M416,195L451,-15L419,82Z" fill="#1265a9" stroke="#1265a9" stroke-width="1.51"></path><path d="M419,82L451,-15L345,57Z" fill="#2574b2" stroke="#2574b2" stroke-width="1.51"></path><path d="M-47,119L-46,196L41,186Z" fill="#3c90c4" stroke="#3c90c4" stroke-width="1.51"></path><path d="M-18,23L-125,25L-47,119Z" fill="#4da9d4" stroke="#4da9d4" stroke-width="1.51"></path><path d="M-47,119L-91,192L-46,196Z" fill="#4499c9" stroke="#4499c9" stroke-width="1.51"></path><path d="M51,-74L-53,-102L-18,23Z" fill="#5bbdde" stroke="#5bbdde" stroke-width="1.51"></path><path d="M212,-116L-53,-102L171,-96Z" fill="#55b4d9" stroke="#55b4d9" stroke-width="1.51"></path><path d="M416,195L412,268L451,-15Z" fill="#0e62a6" stroke="#0e62a6" stroke-width="1.51"></path><path d="M335,249L412,268L416,195Z" fill="#095ea2" stroke="#095ea2" stroke-width="1.51"></path><path d="M66,284L412,268L236,257Z" fill="#0f63a7" stroke="#0f63a7" stroke-width="1.51"></path><path d="M-151,88L-91,192L-47,119Z" fill="#4aa3cf" stroke="#4aa3cf" stroke-width="1.51"></path><path d="M-46,196L-64,264L41,186Z" fill="#3c8ec2" stroke="#3c8ec2" stroke-width="1.51"></path><path d="M-53,-102L-125,25L-18,23Z" fill="#5dc0e0" stroke="#5dc0e0" stroke-width="1.51"></path><path d="M-91,192L-64,264L-46,196Z" fill="#4398c7" stroke="#4398c7" stroke-width="1.51"></path><path d="M-91,192L-105,266L-64,264Z" fill="#459ac8" stroke="#459ac8" stroke-width="1.51"></path><path d="M-125,25L-151,88L-47,119Z" fill="#50acd6" stroke="#50acd6" stroke-width="1.51"></path><path d="M-125,25L-151,-62L-151,88Z" fill="#60c7e3" stroke="#60c7e3" stroke-width="1.51"></path><path d="M-53,-102L-151,-62L-125,25Z" fill="#68d4ea" stroke="#68d4ea" stroke-width="1.51"></path><path d="M-151,88L-105,266L-91,192Z" fill="#4ca4ce" stroke="#4ca4ce" stroke-width="1.51"></path><path d="M-64,264L-105,266L66,284Z" fill="#3c8dc0" stroke="#3c8dc0" stroke-width="1.51"></path></svg>