<svg width="300" height="176" xmlns="http://www.w3.org/2000/svg"><path d="M178,101L234,149L222,70Z" fill="#1568ac" stroke="#1568ac" stroke-width="1.51"></path><path d="M234,149L320,120L222,70Z" fill="#1063a8" stroke="#1063a8" stroke-width="1.51"></path><path d="M234,149L319,174L320,120Z" fill="#075ca0" stroke="#075ca0" stroke-width="1.51"></path><path d="M178,101L122,195L234,149Z" fill="#1265a9" stroke="#1265a9" stroke-width="1.51"></path><path d="M234,149L224,241L319,174Z" fill="#055a9e" stroke="#055a9e" stroke-width="1.51"></path><path d="M122,195L224,241L234,149Z" fill="#0c60a4" stroke="#0c60a4" stroke-width="1.51"></path><path d="M151,-20L87,115L178,101Z" fill="#3487c2" stroke="#3487c2" stroke-width="1.51"></path><path d="M178,101L87,115L122,195Z" fill="#2273b2" stroke="#2273b2" stroke-width="1.51"></path><path d="M222,70L151,-20L178,101Z" fill="#378ac2" stroke="#378ac2" stroke-width="1.51"></path><path d="M361,-32L224,-33L222,70Z" fill="#50a8cf" stroke="#50a8cf" stroke-width="1.51"></path><path d="M224,-33L151,-20L222,70Z" fill="#51acd3" stroke="#51acd3" stroke-width="1.51"></path><path d="M87,115L67,176L122,195Z" fill="#317fb8" stroke="#317fb8" stroke-width="1.51"></path><path d="M122,195L127,292L224,241Z" fill="#0f63a7" stroke="#0f63a7" stroke-width="1.51"></path><path d="M224,241L352,238L319,174Z" fill="#01579b" stroke="#01579b" stroke-width="1.51"></path><path d="M319,174L436,121L320,120Z" fill="#075ca0" stroke="#075ca0" stroke-width="1.51"></path><path d="M224,-33L165,-73L151,-20Z" fill="#54b3d7" stroke="#54b3d7" stroke-width="1.51"></path><path d="M316,-100L213,-78L224,-33Z" fill="#51acd1" stroke="#51acd1" stroke-width="1.51"></path><path d="M213,-78L165,-73L224,-33Z" fill="#53b0d5" stroke="#53b0d5" stroke-width="1.51"></path><path d="M151,-20L49,-20L87,115Z" fill="#59bbdd" stroke="#59bbdd" stroke-width="1.51"></path><path d="M320,120L361,-32L222,70Z" fill="#317eb7" stroke="#317eb7" stroke-width="1.51"></path><path d="M408,-13L361,-32L320,120Z" fill="#4294c2" stroke="#4294c2" stroke-width="1.51"></path><path d="M89,270L127,292L122,195Z" fill="#2774b1" stroke="#2774b1" stroke-width="1.51"></path><path d="M224,241L420,268L352,238Z" fill="#01579b" stroke="#01579b" stroke-width="1.51"></path><path d="M67,176L89,270L122,195Z" fill="#307db6" stroke="#307db6" stroke-width="1.51"></path><path d="M165,-73L49,-20L151,-20Z" fill="#5ec3e1" stroke="#5ec3e1" stroke-width="1.51"></path><path d="M87,115L-17,164L67,176Z" fill="#4396c5" stroke="#4396c5" stroke-width="1.51"></path><path d="M443,153L436,121L319,174Z" fill="#055b9f" stroke="#055b9f" stroke-width="1.51"></path><path d="M436,121L408,-13L320,120Z" fill="#1e6dad" stroke="#1e6dad" stroke-width="1.51"></path><path d="M436,121L392,-103L408,-13Z" fill="#4ea6cc" stroke="#4ea6cc" stroke-width="1.51"></path><path d="M352,238L443,153L319,174Z" fill="#01579b" stroke="#01579b" stroke-width="1.51"></path><path d="M392,-103L316,-100L361,-32Z" fill="#4fa7cd" stroke="#4fa7cd" stroke-width="1.51"></path><path d="M361,-32L316,-100L224,-33Z" fill="#4fa7cd" stroke="#4fa7cd" stroke-width="1.51"></path><path d="M213,-78L55,-117L165,-73Z" fill="#57b8db" stroke="#57b8db" stroke-width="1.51"></path><path d="M67,176L-31,291L89,270Z" fill="#4294c2" stroke="#4294c2" stroke-width="1.51"></path><path d="M-60,85L-17,164L87,115Z" fill="#52afd4" stroke="#52afd4" stroke-width="1.51"></path><path d="M352,238L420,268L443,153Z" fill="#01579b" stroke="#01579b" stroke-width="1.51"></path><path d="M127,292L420,268L224,241Z" fill="#055a9e" stroke="#055a9e" stroke-width="1.51"></path><path d="M408,-13L392,-103L361,-32Z" fill="#4fa7cd" stroke="#4fa7cd" stroke-width="1.51"></path><path d="M443,153L392,-103L436,121Z" fill="#2e7bb5" stroke="#2e7bb5" stroke-width="1.51"></path><path d="M49,-20L-60,85L87,115Z" fill="#5cc0e0" stroke="#5cc0e0" stroke-width="1.51"></path><path d="M49,-20L-40,-17L-60,85Z" fill="#78f1f9" stroke="#78f1f9" stroke-width="1.51"></path><path d="M165,-73L55,-117L49,-20Z" fill="#67d3e9" stroke="#67d3e9" stroke-width="1.51"></path><path d="M316,-100L55,-117L213,-78Z" fill="#54b1d6" stroke="#54b1d6" stroke-width="1.51"></path><path d="M392,-103L55,-117L316,-100Z" fill="#51acd1" stroke="#51acd1" stroke-width="1.51"></path><path d="M-17,-62L-40,-17L49,-20Z" fill="#7fffff" stroke="#7fffff" stroke-width="1.51"></path><path d="M55,-117L-17,-62L49,-20Z" fill="#78f0f8" stroke="#78f0f8" stroke-width="1.51"></path><path d="M-89,286L-31,291L-17,164Z" fill="#4fa7cd" stroke="#4fa7cd" stroke-width="1.51"></path><path d="M-17,164L-31,291L67,176Z" fill="#4da4cb" stroke="#4da4cb" stroke-width="1.51"></path><path d="M89,270L-31,291L127,292Z" fill="#3b8bbe" stroke="#3b8bbe" stroke-width="1.51"></path><path d="M-141,112L-94,155L-60,85Z" fill="#53b0d5" stroke="#53b0d5" stroke-width="1.51"></path><path d="M-60,85L-94,155L-17,164Z" fill="#52aed3" stroke="#52aed3" stroke-width="1.51"></path><path d="M-40,-17L-95,11L-60,85Z" fill="#73e8f4" stroke="#73e8f4" stroke-width="1.51"></path><path d="M-151,-120L-95,11L-40,-17Z" fill="#7fffff" stroke="#7fffff" stroke-width="1.51"></path><path d="M-94,155L-89,286L-17,164Z" fill="#4fa7cd" stroke="#4fa7cd" stroke-width="1.51"></path><path d="M-94,155L-141,112L-89,286Z" fill="#4fa7cd" stroke="#4fa7cd" stroke-width="1.51"></path><path d="M-95,11L-141,112L-60,85Z" fill="#5fc4e2" stroke="#5fc4e2" stroke-width="1.51"></path><path d="M-95,11L-151,-120L-141,112Z" fill="#7ffefe" stroke="#7ffefe" stroke-width="1.51"></path><path d="M-17,-62L-151,-120L-40,-17Z" fill="#7fffff" stroke="#7fffff" stroke-width="1.51"></path><path d="M55,-117L-151,-120L-17,-62Z" fill="#7fffff" stroke="#7fffff" stroke-width="1.51"></path></svg>