<svg width="300" height="176" xmlns="http://www.w3.org/2000/svg"><path d="M174,101L238,165L211,83Z" fill="#1468ac" stroke="#1468ac" stroke-width="1.51"></path><path d="M174,101L161,149L238,165Z" fill="#1266aa" stroke="#1266aa" stroke-width="1.51"></path><path d="M211,83L134,-21L174,101Z" fill="#3688c1" stroke="#3688c1" stroke-width="1.51"></path><path d="M317,28L240,14L211,83Z" fill="#3a8bbf" stroke="#3a8bbf" stroke-width="1.51"></path><path d="M238,165L325,173L211,83Z" fill="#0c5fa3" stroke="#0c5fa3" stroke-width="1.51"></path><path d="M352,57L317,28L211,83Z" fill="#2f7cb6" stroke="#2f7cb6" stroke-width="1.51"></path><path d="M174,101L52,118L161,149Z" fill="#2475b5" stroke="#2475b5" stroke-width="1.51"></path><path d="M56,-6L52,118L174,101Z" fill="#4197ca" stroke="#4197ca" stroke-width="1.51"></path><path d="M325,173L352,57L211,83Z" fill="#0e62a6" stroke="#0e62a6" stroke-width="1.51"></path><path d="M152,-90L134,-21L240,14Z" fill="#55b3d8" stroke="#55b3d8" stroke-width="1.51"></path><path d="M240,14L134,-21L211,83Z" fill="#469dcb" stroke="#469dcb" stroke-width="1.51"></path><path d="M147,300L233,298L238,165Z" fill="#0b5fa3" stroke="#0b5fa3" stroke-width="1.51"></path><path d="M238,165L312,291L325,173Z" fill="#02579b" stroke="#02579b" stroke-width="1.51"></path><path d="M147,300L238,165L161,149Z" fill="#0d61a5" stroke="#0d61a5" stroke-width="1.51"></path><path d="M52,118L49,206L161,149Z" fill="#3382ba" stroke="#3382ba" stroke-width="1.51"></path><path d="M49,206L147,300L161,149Z" fill="#2371af" stroke="#2371af" stroke-width="1.51"></path><path d="M325,173L407,156L352,57Z" fill="#095ea2" stroke="#095ea2" stroke-width="1.51"></path><path d="M233,298L312,291L238,165Z" fill="#055a9e" stroke="#055a9e" stroke-width="1.51"></path><path d="M388,271L407,156L325,173Z" fill="#01579b" stroke="#01579b" stroke-width="1.51"></path><path d="M52,118L-54,160L49,206Z" fill="#4ca2cb" stroke="#4ca2cb" stroke-width="1.51"></path><path d="M134,-21L56,-6L174,101Z" fill="#52afd7" stroke="#52afd7" stroke-width="1.51"></path><path d="M407,156L403,57L352,57Z" fill="#1063a7" stroke="#1063a7" stroke-width="1.51"></path><path d="M352,57L402,30L317,28Z" fill="#3a89bd" stroke="#3a89bd" stroke-width="1.51"></path><path d="M49,206L57,271L147,300Z" fill="#3381b8" stroke="#3381b8" stroke-width="1.51"></path><path d="M403,57L402,30L352,57Z" fill="#3482b9" stroke="#3482b9" stroke-width="1.51"></path><path d="M269,-125L152,-90L240,14Z" fill="#53afd4" stroke="#53afd4" stroke-width="1.51"></path><path d="M407,156L402,30L403,57Z" fill="#1969ab" stroke="#1969ab" stroke-width="1.51"></path><path d="M269,-125L240,14L317,28Z" fill="#50a9cf" stroke="#50a9cf" stroke-width="1.51"></path><path d="M134,-21L75,-64L56,-6Z" fill="#67d3e9" stroke="#67d3e9" stroke-width="1.51"></path><path d="M312,291L388,271L325,173Z" fill="#01579b" stroke="#01579b" stroke-width="1.51"></path><path d="M152,-90L75,-64L134,-21Z" fill="#5ec3e2" stroke="#5ec3e2" stroke-width="1.51"></path><path d="M-52,-15L-42,85L56,-6Z" fill="#76edf6" stroke="#76edf6" stroke-width="1.51"></path><path d="M56,-6L-42,85L52,118Z" fill="#5abdde" stroke="#5abdde" stroke-width="1.51"></path><path d="M49,206L-46,240L57,271Z" fill="#499ec8" stroke="#499ec8" stroke-width="1.51"></path><path d="M359,-102L269,-125L317,28Z" fill="#4fa7cd" stroke="#4fa7cd" stroke-width="1.51"></path><path d="M-42,85L-54,160L52,118Z" fill="#53b0d5" stroke="#53b0d5" stroke-width="1.51"></path><path d="M402,30L359,-102L317,28Z" fill="#4fa7cd" stroke="#4fa7cd" stroke-width="1.51"></path><path d="M-54,160L-46,240L49,206Z" fill="#4fa7cd" stroke="#4fa7cd" stroke-width="1.51"></path><path d="M57,271L-99,297L147,300Z" fill="#4497c4" stroke="#4497c4" stroke-width="1.51"></path><path d="M-105,-122L1,-70L152,-90Z" fill="#7bf7fb" stroke="#7bf7fb" stroke-width="1.51"></path><path d="M152,-90L1,-70L75,-64Z" fill="#6bd9ed" stroke="#6bd9ed" stroke-width="1.51"></path><path d="M75,-64L1,-70L56,-6Z" fill="#73e9f4" stroke="#73e9f4" stroke-width="1.51"></path><path d="M1,-70L-52,-15L56,-6Z" fill="#7ffefe" stroke="#7ffefe" stroke-width="1.51"></path><path d="M-42,85L-128,59L-54,160Z" fill="#55b3d8" stroke="#55b3d8" stroke-width="1.51"></path><path d="M402,30L395,-117L359,-102Z" fill="#4fa7cd" stroke="#4fa7cd" stroke-width="1.51"></path><path d="M359,-102L395,-117L269,-125Z" fill="#4fa7cd" stroke="#4fa7cd" stroke-width="1.51"></path><path d="M-103,-21L-128,59L-52,-15Z" fill="#7cf8fc" stroke="#7cf8fc" stroke-width="1.51"></path><path d="M-52,-15L-128,59L-42,85Z" fill="#6cdaed" stroke="#6cdaed" stroke-width="1.51"></path><path d="M-145,177L-99,297L-46,240Z" fill="#4fa7cd" stroke="#4fa7cd" stroke-width="1.51"></path><path d="M-105,-122L-103,-21L-52,-15Z" fill="#7fffff" stroke="#7fffff" stroke-width="1.51"></path><path d="M-145,177L-46,240L-54,160Z" fill="#4fa7cd" stroke="#4fa7cd" stroke-width="1.51"></path><path d="M-46,240L-99,297L57,271Z" fill="#4fa7cd" stroke="#4fa7cd" stroke-width="1.51"></path><path d="M-128,59L-145,177L-54,160Z" fill="#52aed3" stroke="#52aed3" stroke-width="1.51"></path><path d="M-128,59L-105,-122L-145,177Z" fill="#6edfef" stroke="#6edfef" stroke-width="1.51"></path><path d="M-103,-21L-105,-122L-128,59Z" fill="#7fffff" stroke="#7fffff" stroke-width="1.51"></path><path d="M1,-70L-105,-122L-52,-15Z" fill="#7fffff" stroke="#7fffff" stroke-width="1.51"></path><path d="M269,-125L-105,-122L152,-90Z" fill="#63cbe5" stroke="#63cbe5" stroke-width="1.51"></path></svg>