<svg width="300" height="176" xmlns="http://www.w3.org/2000/svg"><path d="M129,92L55,62L91,150Z" fill="#2a7cbb" stroke="#2a7cbb" stroke-width="1.51"></path><path d="M129,-31L49,-1L55,62Z" fill="#4198ca" stroke="#4198ca" stroke-width="1.51"></path><path d="M91,150L116,206L129,92Z" fill="#2375b6" stroke="#2375b6" stroke-width="1.51"></path><path d="M55,62L-35,169L91,150Z" fill="#3486c0" stroke="#3486c0" stroke-width="1.51"></path><path d="M91,150L60,244L116,206Z" fill="#2777b5" stroke="#2777b5" stroke-width="1.51"></path><path d="M-64,95L-35,169L55,62Z" fill="#3e93c7" stroke="#3e93c7" stroke-width="1.51"></path><path d="M129,92L129,-31L55,62Z" fill="#3588c2" stroke="#3588c2" stroke-width="1.51"></path><path d="M-35,169L60,244L91,150Z" fill="#3282bc" stroke="#3282bc" stroke-width="1.51"></path><path d="M116,206L225,113L129,92Z" fill="#196db1" stroke="#196db1" stroke-width="1.51"></path><path d="M129,92L248,-21L129,-31Z" fill="#3386c0" stroke="#3386c0" stroke-width="1.51"></path><path d="M-29,-121L-14,-7L49,-1Z" fill="#58b9dc" stroke="#58b9dc" stroke-width="1.51"></path><path d="M49,-1L-14,-7L55,62Z" fill="#48a0cf" stroke="#48a0cf" stroke-width="1.51"></path><path d="M-14,-7L-64,95L55,62Z" fill="#469ecd" stroke="#469ecd" stroke-width="1.51"></path><path d="M116,206L271,197L225,113Z" fill="#1669ad" stroke="#1669ad" stroke-width="1.51"></path><path d="M60,244L145,260L116,206Z" fill="#2171b1" stroke="#2171b1" stroke-width="1.51"></path><path d="M-35,169L-53,250L60,244Z" fill="#398ac0" stroke="#398ac0" stroke-width="1.51"></path><path d="M-64,95L-102,121L-35,169Z" fill="#469dcc" stroke="#469dcc" stroke-width="1.51"></path><path d="M-105,-3L-102,121L-64,95Z" fill="#4eaad4" stroke="#4eaad4" stroke-width="1.51"></path><path d="M-141,175L-53,250L-35,169Z" fill="#459bc9" stroke="#459bc9" stroke-width="1.51"></path><path d="M60,244L-53,250L145,260Z" fill="#2d7cb7" stroke="#2d7cb7" stroke-width="1.51"></path><path d="M225,113L248,-21L129,92Z" fill="#2477b7" stroke="#2477b7" stroke-width="1.51"></path><path d="M225,113L357,96L248,-21Z" fill="#2173b3" stroke="#2173b3" stroke-width="1.51"></path><path d="M145,260L271,197L116,206Z" fill="#1468ac" stroke="#1468ac" stroke-width="1.51"></path><path d="M-14,-7L-105,-3L-64,95Z" fill="#53b1d8" stroke="#53b1d8" stroke-width="1.51"></path><path d="M-111,-70L-105,-3L-14,-7Z" fill="#60c6e3" stroke="#60c6e3" stroke-width="1.51"></path><path d="M129,-31L88,-118L49,-1Z" fill="#4da8d3" stroke="#4da8d3" stroke-width="1.51"></path><path d="M248,-21L146,-106L129,-31Z" fill="#439acb" stroke="#439acb" stroke-width="1.51"></path><path d="M146,-106L88,-118L129,-31Z" fill="#4fabd5" stroke="#4fabd5" stroke-width="1.51"></path><path d="M-102,121L-141,175L-35,169Z" fill="#49a1cd" stroke="#49a1cd" stroke-width="1.51"></path><path d="M-105,-3L-141,175L-102,121Z" fill="#4eaad4" stroke="#4eaad4" stroke-width="1.51"></path><path d="M88,-118L-29,-121L49,-1Z" fill="#5bbdde" stroke="#5bbdde" stroke-width="1.51"></path><path d="M271,197L321,183L225,113Z" fill="#1467ab" stroke="#1467ab" stroke-width="1.51"></path><path d="M272,291L321,183L271,197Z" fill="#0f63a7" stroke="#0f63a7" stroke-width="1.51"></path><path d="M-105,-3L-111,-70L-141,175Z" fill="#5abcde" stroke="#5abcde" stroke-width="1.51"></path><path d="M-29,-121L-111,-70L-14,-7Z" fill="#64cce6" stroke="#64cce6" stroke-width="1.51"></path><path d="M-141,175L-134,249L-53,250Z" fill="#49a0cb" stroke="#49a0cb" stroke-width="1.51"></path><path d="M-53,250L272,291L145,260Z" fill="#1c6cae" stroke="#1c6cae" stroke-width="1.51"></path><path d="M-134,249L272,291L-53,250Z" fill="#3180b9" stroke="#3180b9" stroke-width="1.51"></path><path d="M145,260L272,291L271,197Z" fill="#1164a8" stroke="#1164a8" stroke-width="1.51"></path><path d="M321,183L357,96L225,113Z" fill="#1468ac" stroke="#1468ac" stroke-width="1.51"></path><path d="M357,96L336,-29L248,-21Z" fill="#2f7fba" stroke="#2f7fba" stroke-width="1.51"></path><path d="M248,-21L271,-120L146,-106Z" fill="#49a1ce" stroke="#49a1ce" stroke-width="1.51"></path><path d="M333,-97L271,-120L248,-21Z" fill="#479ecb" stroke="#479ecb" stroke-width="1.51"></path><path d="M146,-106L271,-120L88,-118Z" fill="#51add5" stroke="#51add5" stroke-width="1.51"></path><path d="M88,-118L271,-120L-29,-121Z" fill="#58b9db" stroke="#58b9db" stroke-width="1.51"></path><path d="M336,-29L333,-97L248,-21Z" fill="#3f93c5" stroke="#3f93c5" stroke-width="1.51"></path><path d="M412,-89L333,-97L336,-29Z" fill="#4498c7" stroke="#4498c7" stroke-width="1.51"></path><path d="M321,183L410,197L357,96Z" fill="#1064a8" stroke="#1064a8" stroke-width="1.51"></path><path d="M272,291L354,299L321,183Z" fill="#0c60a4" stroke="#0c60a4" stroke-width="1.51"></path><path d="M420,237L410,197L321,183Z" fill="#0c60a4" stroke="#0c60a4" stroke-width="1.51"></path><path d="M357,96L434,18L336,-29Z" fill="#2a79b5" stroke="#2a79b5" stroke-width="1.51"></path><path d="M410,197L442,121L357,96Z" fill="#0f63a7" stroke="#0f63a7" stroke-width="1.51"></path><path d="M442,121L434,18L357,96Z" fill="#1769ab" stroke="#1769ab" stroke-width="1.51"></path><path d="M354,299L420,237L321,183Z" fill="#0b5fa3" stroke="#0b5fa3" stroke-width="1.51"></path><path d="M410,197L420,237L442,121Z" fill="#0c60a4" stroke="#0c60a4" stroke-width="1.51"></path><path d="M434,18L412,-89L336,-29Z" fill="#3a8bbf" stroke="#3a8bbf" stroke-width="1.51"></path><path d="M333,-97L412,-89L271,-120Z" fill="#4ba2cc" stroke="#4ba2cc" stroke-width="1.51"></path></svg>