<svg width="300" height="176" xmlns="http://www.w3.org/2000/svg"><path d="M-35,-104L86,-100L158,-107Z" fill="#59a7de" stroke="#59a7de" stroke-width="1.51"></path><path d="M-35,-104L158,-107L236,-117Z" fill="#53a1d9" stroke="#53a1d9" stroke-width="1.51"></path><path d="M351,282L159,301L408,301Z" fill="#0a5ea2" stroke="#0a5ea2" stroke-width="1.51"></path><path d="M347,202L351,282L408,301Z" fill="#095ea2" stroke="#095ea2" stroke-width="1.51"></path><path d="M347,202L408,301L425,163Z" fill="#0b5fa3" stroke="#0b5fa3" stroke-width="1.51"></path><path d="M396,22L394,65L425,163Z" fill="#1567ab" stroke="#1567ab" stroke-width="1.51"></path><path d="M236,-117L342,-117L453,-125Z" fill="#4c96ce" stroke="#4c96ce" stroke-width="1.51"></path><path d="M342,-117L396,22L453,-125Z" fill="#4189c5" stroke="#4189c5" stroke-width="1.51"></path><path d="M396,22L425,163L453,-125Z" fill="#2a73b4" stroke="#2a73b4" stroke-width="1.51"></path><path d="M297,90L347,202L394,65Z" fill="#1367ab" stroke="#1367ab" stroke-width="1.51"></path><path d="M342,-117L298,-13L396,22Z" fill="#3a83c1" stroke="#3a83c1" stroke-width="1.51"></path><path d="M394,65L347,202L425,163Z" fill="#1064a8" stroke="#1064a8" stroke-width="1.51"></path><path d="M297,90L394,65L396,22Z" fill="#206eb0" stroke="#206eb0" stroke-width="1.51"></path><path d="M298,-13L297,90L396,22Z" fill="#2875b6" stroke="#2875b6" stroke-width="1.51"></path><path d="M259,18L297,90L298,-13Z" fill="#2a77b8" stroke="#2a77b8" stroke-width="1.51"></path><path d="M236,-117L298,-13L342,-117Z" fill="#458fcb" stroke="#458fcb" stroke-width="1.51"></path><path d="M297,90L212,191L347,202Z" fill="#1367ab" stroke="#1367ab" stroke-width="1.51"></path><path d="M347,202L226,251L351,282Z" fill="#0d61a5" stroke="#0d61a5" stroke-width="1.51"></path><path d="M226,251L159,301L351,282Z" fill="#0e62a6" stroke="#0e62a6" stroke-width="1.51"></path><path d="M212,191L226,251L347,202Z" fill="#1165a9" stroke="#1165a9" stroke-width="1.51"></path><path d="M236,-117L168,-11L259,18Z" fill="#3d88c6" stroke="#3d88c6" stroke-width="1.51"></path><path d="M259,18L209,86L297,90Z" fill="#2071b4" stroke="#2071b4" stroke-width="1.51"></path><path d="M209,86L212,191L297,90Z" fill="#176baf" stroke="#176baf" stroke-width="1.51"></path><path d="M236,-117L259,18L298,-13Z" fill="#3c87c4" stroke="#3c87c4" stroke-width="1.51"></path><path d="M158,-107L168,-11L236,-117Z" fill="#4794ce" stroke="#4794ce" stroke-width="1.51"></path><path d="M168,-11L209,86L259,18Z" fill="#2c7abb" stroke="#2c7abb" stroke-width="1.51"></path><path d="M209,86L143,183L212,191Z" fill="#176baf" stroke="#176baf" stroke-width="1.51"></path><path d="M168,-11L124,78L209,86Z" fill="#2778ba" stroke="#2778ba" stroke-width="1.51"></path><path d="M212,191L143,183L226,251Z" fill="#1468ac" stroke="#1468ac" stroke-width="1.51"></path><path d="M143,183L159,301L226,251Z" fill="#1267ab" stroke="#1267ab" stroke-width="1.51"></path><path d="M124,78L143,183L209,86Z" fill="#1a6fb3" stroke="#1a6fb3" stroke-width="1.51"></path><path d="M124,78L76,100L143,183Z" fill="#2374b7" stroke="#2374b7" stroke-width="1.51"></path><path d="M143,183L58,201L159,301Z" fill="#1d6db0" stroke="#1d6db0" stroke-width="1.51"></path><path d="M58,201L40,286L159,301Z" fill="#2471b2" stroke="#2471b2" stroke-width="1.51"></path><path d="M75,21L124,78L168,-11Z" fill="#3381c1" stroke="#3381c1" stroke-width="1.51"></path><path d="M158,-107L86,-100L168,-11Z" fill="#4896d1" stroke="#4896d1" stroke-width="1.51"></path><path d="M86,-100L75,21L168,-11Z" fill="#4390cc" stroke="#4390cc" stroke-width="1.51"></path><path d="M76,100L58,201L143,183Z" fill="#2675b7" stroke="#2675b7" stroke-width="1.51"></path><path d="M75,21L76,100L124,78Z" fill="#2f7ebf" stroke="#2f7ebf" stroke-width="1.51"></path><path d="M-34,247L-99,246L40,286Z" fill="#3a82c0" stroke="#3a82c0" stroke-width="1.51"></path><path d="M-35,-104L-47,21L75,21Z" fill="#53a0d8" stroke="#53a0d8" stroke-width="1.51"></path><path d="M-47,21L-40,107L75,21Z" fill="#4491cd" stroke="#4491cd" stroke-width="1.51"></path><path d="M-14,166L58,201L76,100Z" fill="#317ebd" stroke="#317ebd" stroke-width="1.51"></path><path d="M75,21L-40,107L76,100Z" fill="#3785c4" stroke="#3785c4" stroke-width="1.51"></path><path d="M-35,-104L75,21L86,-100Z" fill="#54a2da" stroke="#54a2da" stroke-width="1.51"></path><path d="M-40,107L-14,166L76,100Z" fill="#3885c3" stroke="#3885c3" stroke-width="1.51"></path><path d="M-34,247L40,286L58,201Z" fill="#327bbb" stroke="#327bbb" stroke-width="1.51"></path><path d="M-14,166L-34,247L58,201Z" fill="#3680bf" stroke="#3680bf" stroke-width="1.51"></path><path d="M-90,-26L-47,21L-35,-104Z" fill="#5eace1" stroke="#5eace1" stroke-width="1.51"></path><path d="M-91,-94L-90,-26L-35,-104Z" fill="#68b8ea" stroke="#68b8ea" stroke-width="1.51"></path><path d="M-40,107L-106,151L-14,166Z" fill="#418dc9" stroke="#418dc9" stroke-width="1.51"></path><path d="M-99,246L-34,247L-14,166Z" fill="#3e87c4" stroke="#3e87c4" stroke-width="1.51"></path><path d="M-106,151L-99,246L-14,166Z" fill="#438dc9" stroke="#438dc9" stroke-width="1.51"></path><path d="M-47,21L-113,120L-40,107Z" fill="#4693cf" stroke="#4693cf" stroke-width="1.51"></path><path d="M-113,120L-106,151L-40,107Z" fill="#4893ce" stroke="#4893ce" stroke-width="1.51"></path><path d="M-90,-26L-113,120L-47,21Z" fill="#52a0d8" stroke="#52a0d8" stroke-width="1.51"></path><path d="M-91,-94L-113,120L-90,-26Z" fill="#5dabe0" stroke="#5dabe0" stroke-width="1.51"></path><path d="M-106,151L-113,120L-99,246Z" fill="#4993ce" stroke="#4993ce" stroke-width="1.51"></path></svg>