<svg width="300" height="176" xmlns="http://www.w3.org/2000/svg"><path d="M159,105L70,113L138,200Z" fill="#2676b4" stroke="#2676b4" stroke-width="1.51"></path><path d="M70,113L48,154L138,200Z" fill="#3483bb" stroke="#3483bb" stroke-width="1.51"></path><path d="M138,200L239,168L159,105Z" fill="#1064a8" stroke="#1064a8" stroke-width="1.51"></path><path d="M90,297L161,240L138,200Z" fill="#1e6dad" stroke="#1e6dad" stroke-width="1.51"></path><path d="M161,240L239,168L138,200Z" fill="#0d61a5" stroke="#0d61a5" stroke-width="1.51"></path><path d="M48,154L90,297L138,200Z" fill="#307db6" stroke="#307db6" stroke-width="1.51"></path><path d="M-30,92L-25,153L48,154Z" fill="#52aed3" stroke="#52aed3" stroke-width="1.51"></path><path d="M239,168L261,106L159,105Z" fill="#1265a9" stroke="#1265a9" stroke-width="1.51"></path><path d="M-49,249L90,297L48,154Z" fill="#4699c5" stroke="#4699c5" stroke-width="1.51"></path><path d="M70,113L-30,92L48,154Z" fill="#4aa3ce" stroke="#4aa3ce" stroke-width="1.51"></path><path d="M32,9L-30,92L70,113Z" fill="#57b7db" stroke="#57b7db" stroke-width="1.51"></path><path d="M32,9L70,113L149,-20Z" fill="#58b9dc" stroke="#58b9dc" stroke-width="1.51"></path><path d="M149,-20L70,113L159,105Z" fill="#388cc4" stroke="#388cc4" stroke-width="1.51"></path><path d="M234,-30L149,-20L159,105Z" fill="#4aa4d0" stroke="#4aa4d0" stroke-width="1.51"></path><path d="M239,168L309,103L261,106Z" fill="#0d61a5" stroke="#0d61a5" stroke-width="1.51"></path><path d="M161,240L269,258L239,168Z" fill="#095da1" stroke="#095da1" stroke-width="1.51"></path><path d="M90,297L269,258L161,240Z" fill="#0e62a6" stroke="#0e62a6" stroke-width="1.51"></path><path d="M261,106L234,-30L159,105Z" fill="#2f7fba" stroke="#2f7fba" stroke-width="1.51"></path><path d="M359,183L309,103L239,168Z" fill="#055a9e" stroke="#055a9e" stroke-width="1.51"></path><path d="M-25,153L-49,249L48,154Z" fill="#4fa7cd" stroke="#4fa7cd" stroke-width="1.51"></path><path d="M-93,173L-49,249L-25,153Z" fill="#4fa7cd" stroke="#4fa7cd" stroke-width="1.51"></path><path d="M352,17L234,-30L261,106Z" fill="#3f90c1" stroke="#3f90c1" stroke-width="1.51"></path><path d="M-147,83L-93,173L-30,92Z" fill="#54b1d6" stroke="#54b1d6" stroke-width="1.51"></path><path d="M-30,92L-93,173L-25,153Z" fill="#52add2" stroke="#52add2" stroke-width="1.51"></path><path d="M32,9L-46,-12L-30,92Z" fill="#72e6f2" stroke="#72e6f2" stroke-width="1.51"></path><path d="M-2,-74L-46,-12L32,9Z" fill="#7fffff" stroke="#7fffff" stroke-width="1.51"></path><path d="M-2,-74L32,9L80,-111Z" fill="#76ecf6" stroke="#76ecf6" stroke-width="1.51"></path><path d="M269,258L359,183L239,168Z" fill="#02589c" stroke="#02589c" stroke-width="1.51"></path><path d="M320,-64L271,-67L234,-30Z" fill="#50a9cf" stroke="#50a9cf" stroke-width="1.51"></path><path d="M80,-111L32,9L149,-20Z" fill="#68d4e9" stroke="#68d4e9" stroke-width="1.51"></path><path d="M123,-119L80,-111L149,-20Z" fill="#5fc5e2" stroke="#5fc5e2" stroke-width="1.51"></path><path d="M234,-30L123,-119L149,-20Z" fill="#55b4d8" stroke="#55b4d8" stroke-width="1.51"></path><path d="M352,17L261,106L309,103Z" fill="#1f6dad" stroke="#1f6dad" stroke-width="1.51"></path><path d="M271,-67L123,-119L234,-30Z" fill="#53b0d5" stroke="#53b0d5" stroke-width="1.51"></path><path d="M424,117L352,17L309,103Z" fill="#1b6bac" stroke="#1b6bac" stroke-width="1.51"></path><path d="M-109,-26L-147,83L-46,-12Z" fill="#79f2f8" stroke="#79f2f8" stroke-width="1.51"></path><path d="M-46,-12L-147,83L-30,92Z" fill="#66d1e8" stroke="#66d1e8" stroke-width="1.51"></path><path d="M-93,173L-150,274L-49,249Z" fill="#4fa7cd" stroke="#4fa7cd" stroke-width="1.51"></path><path d="M90,297L358,293L269,258Z" fill="#075ca0" stroke="#075ca0" stroke-width="1.51"></path><path d="M269,258L358,293L359,183Z" fill="#01579b" stroke="#01579b" stroke-width="1.51"></path><path d="M-110,-101L-109,-26L-46,-12Z" fill="#7fffff" stroke="#7fffff" stroke-width="1.51"></path><path d="M-110,-101L-46,-12L-2,-74Z" fill="#7fffff" stroke="#7fffff" stroke-width="1.51"></path><path d="M352,17L320,-64L234,-30Z" fill="#4fa7cd" stroke="#4fa7cd" stroke-width="1.51"></path><path d="M271,-67L435,-120L123,-119Z" fill="#50a9cf" stroke="#50a9cf" stroke-width="1.51"></path><path d="M358,293L401,234L359,183Z" fill="#01579b" stroke="#01579b" stroke-width="1.51"></path><path d="M359,183L424,117L309,103Z" fill="#085da1" stroke="#085da1" stroke-width="1.51"></path><path d="M-147,83L-150,274L-93,173Z" fill="#4fa7cd" stroke="#4fa7cd" stroke-width="1.51"></path><path d="M-49,249L-150,274L90,297Z" fill="#4fa7cd" stroke="#4fa7cd" stroke-width="1.51"></path><path d="M352,17L391,-15L320,-64Z" fill="#4fa7cd" stroke="#4fa7cd" stroke-width="1.51"></path><path d="M452,178L424,117L359,183Z" fill="#04599d" stroke="#04599d" stroke-width="1.51"></path><path d="M424,117L391,-15L352,17Z" fill="#3988bc" stroke="#3988bc" stroke-width="1.51"></path><path d="M401,234L452,178L359,183Z" fill="#01579b" stroke="#01579b" stroke-width="1.51"></path><path d="M424,117L435,-120L391,-15Z" fill="#4fa7cd" stroke="#4fa7cd" stroke-width="1.51"></path><path d="M358,293L452,178L401,234Z" fill="#01579b" stroke="#01579b" stroke-width="1.51"></path><path d="M123,-119L-110,-101L80,-111Z" fill="#77eff8" stroke="#77eff8" stroke-width="1.51"></path><path d="M80,-111L-110,-101L-2,-74Z" fill="#7fffff" stroke="#7fffff" stroke-width="1.51"></path><path d="M-109,-26L-110,-101L-147,83Z" fill="#7fffff" stroke="#7fffff" stroke-width="1.51"></path><path d="M452,178L435,-120L424,117Z" fill="#2c7ab4" stroke="#2c7ab4" stroke-width="1.51"></path><path d="M391,-15L435,-120L320,-64Z" fill="#4fa7cd" stroke="#4fa7cd" stroke-width="1.51"></path><path d="M320,-64L435,-120L271,-67Z" fill="#4fa7cd" stroke="#4fa7cd" stroke-width="1.51"></path></svg>