<svg width="300" height="176" xmlns="http://www.w3.org/2000/svg"><path d="M134,104L217,61L132,8Z" fill="#2679b9" stroke="#2679b9" stroke-width="1.51"></path><path d="M132,8L68,3L134,104Z" fill="#3487c2" stroke="#3487c2" stroke-width="1.51"></path><path d="M217,61L244,-19L132,8Z" fill="#3284be" stroke="#3284be" stroke-width="1.51"></path><path d="M132,8L91,-89L68,3Z" fill="#469ece" stroke="#469ece" stroke-width="1.51"></path><path d="M68,3L38,89L134,104Z" fill="#3386c1" stroke="#3386c1" stroke-width="1.51"></path><path d="M244,-19L181,-89L132,8Z" fill="#3f94c7" stroke="#3f94c7" stroke-width="1.51"></path><path d="M43,166L178,207L134,104Z" fill="#2173b4" stroke="#2173b4" stroke-width="1.51"></path><path d="M134,104L178,207L217,61Z" fill="#196eb2" stroke="#196eb2" stroke-width="1.51"></path><path d="M217,61L313,14L244,-19Z" fill="#2f81bc" stroke="#2f81bc" stroke-width="1.51"></path><path d="M244,-19L238,-86L181,-89Z" fill="#459ccb" stroke="#459ccb" stroke-width="1.51"></path><path d="M340,100L313,14L217,61Z" fill="#2273b4" stroke="#2273b4" stroke-width="1.51"></path><path d="M181,-89L91,-89L132,8Z" fill="#47a0cf" stroke="#47a0cf" stroke-width="1.51"></path><path d="M68,3L-1,16L38,89Z" fill="#4299cb" stroke="#4299cb" stroke-width="1.51"></path><path d="M358,-89L238,-86L244,-19Z" fill="#4499c8" stroke="#4499c8" stroke-width="1.51"></path><path d="M38,89L43,166L134,104Z" fill="#2d7fbc" stroke="#2d7fbc" stroke-width="1.51"></path><path d="M178,207L236,204L217,61Z" fill="#166aae" stroke="#166aae" stroke-width="1.51"></path><path d="M91,-89L-1,16L68,3Z" fill="#4ca8d3" stroke="#4ca8d3" stroke-width="1.51"></path><path d="M38,89L-12,74L43,166Z" fill="#378ac2" stroke="#378ac2" stroke-width="1.51"></path><path d="M-1,16L-12,74L38,89Z" fill="#4198ca" stroke="#4198ca" stroke-width="1.51"></path><path d="M236,204L340,100L217,61Z" fill="#166aae" stroke="#166aae" stroke-width="1.51"></path><path d="M178,207L245,237L236,204Z" fill="#1266aa" stroke="#1266aa" stroke-width="1.51"></path><path d="M236,204L341,156L340,100Z" fill="#1366aa" stroke="#1366aa" stroke-width="1.51"></path><path d="M127,259L245,237L178,207Z" fill="#1367ab" stroke="#1367ab" stroke-width="1.51"></path><path d="M313,234L341,156L236,204Z" fill="#1164a8" stroke="#1164a8" stroke-width="1.51"></path><path d="M43,166L127,259L178,207Z" fill="#2071b2" stroke="#2071b2" stroke-width="1.51"></path><path d="M451,254L313,234L245,237Z" fill="#0c60a4" stroke="#0c60a4" stroke-width="1.51"></path><path d="M245,237L313,234L236,204Z" fill="#1064a8" stroke="#1064a8" stroke-width="1.51"></path><path d="M313,14L358,-89L244,-19Z" fill="#3b8ec2" stroke="#3b8ec2" stroke-width="1.51"></path><path d="M238,-86L358,-89L181,-89Z" fill="#49a1cd" stroke="#49a1cd" stroke-width="1.51"></path><path d="M406,-72L358,-89L313,14Z" fill="#3e91c3" stroke="#3e91c3" stroke-width="1.51"></path><path d="M412,16L313,14L340,100Z" fill="#2675b4" stroke="#2675b4" stroke-width="1.51"></path><path d="M43,166L40,297L127,259Z" fill="#2a79b5" stroke="#2a79b5" stroke-width="1.51"></path><path d="M-12,74L-59,173L43,166Z" fill="#3c90c4" stroke="#3c90c4" stroke-width="1.51"></path><path d="M-136,104L-59,173L-12,74Z" fill="#479fcd" stroke="#479fcd" stroke-width="1.51"></path><path d="M431,79L340,100L341,156Z" fill="#1266aa" stroke="#1266aa" stroke-width="1.51"></path><path d="M431,79L412,16L340,100Z" fill="#1d6daf" stroke="#1d6daf" stroke-width="1.51"></path><path d="M-1,16L-97,-18L-12,74Z" fill="#50add6" stroke="#50add6" stroke-width="1.51"></path><path d="M91,-89L-44,-101L-1,16Z" fill="#59bbdd" stroke="#59bbdd" stroke-width="1.51"></path><path d="M181,-89L-44,-101L91,-89Z" fill="#58b8db" stroke="#58b8db" stroke-width="1.51"></path><path d="M358,-89L-44,-101L181,-89Z" fill="#4da7d2" stroke="#4da7d2" stroke-width="1.51"></path><path d="M-44,-101L-97,-18L-1,16Z" fill="#5ec2e0" stroke="#5ec2e0" stroke-width="1.51"></path><path d="M-59,173L-31,245L43,166Z" fill="#3b8ec2" stroke="#3b8ec2" stroke-width="1.51"></path><path d="M-31,245L40,297L43,166Z" fill="#3484bc" stroke="#3484bc" stroke-width="1.51"></path><path d="M127,259L40,297L245,237Z" fill="#1769ac" stroke="#1769ac" stroke-width="1.51"></path><path d="M450,167L431,79L341,156Z" fill="#1064a8" stroke="#1064a8" stroke-width="1.51"></path><path d="M431,79L406,-72L412,16Z" fill="#2f7db7" stroke="#2f7db7" stroke-width="1.51"></path><path d="M412,16L406,-72L313,14Z" fill="#3585bc" stroke="#3585bc" stroke-width="1.51"></path><path d="M-97,-18L-136,104L-12,74Z" fill="#51add5" stroke="#51add5" stroke-width="1.51"></path><path d="M-59,173L-120,178L-31,245Z" fill="#4499c8" stroke="#4499c8" stroke-width="1.51"></path><path d="M-136,104L-120,178L-59,173Z" fill="#4ba4cf" stroke="#4ba4cf" stroke-width="1.51"></path><path d="M431,79L450,167L406,-72Z" fill="#1f6eae" stroke="#1f6eae" stroke-width="1.51"></path><path d="M451,254L450,167L341,156Z" fill="#0c60a4" stroke="#0c60a4" stroke-width="1.51"></path><path d="M-97,-18L-129,-65L-136,104Z" fill="#60c5e2" stroke="#60c5e2" stroke-width="1.51"></path><path d="M-44,-101L-129,-65L-97,-18Z" fill="#68d4ea" stroke="#68d4ea" stroke-width="1.51"></path><path d="M-120,178L-89,296L-31,245Z" fill="#4499c7" stroke="#4499c7" stroke-width="1.51"></path><path d="M-31,245L-89,296L40,297Z" fill="#3b8bbe" stroke="#3b8bbe" stroke-width="1.51"></path><path d="M313,234L451,254L341,156Z" fill="#0c60a4" stroke="#0c60a4" stroke-width="1.51"></path><path d="M40,297L451,254L245,237Z" fill="#0f63a7" stroke="#0f63a7" stroke-width="1.51"></path></svg>