<svg width="300" height="176" xmlns="http://www.w3.org/2000/svg"><path d="M26,-116L128,-106L396,-104Z" fill="#4d9ad4" stroke="#4d9ad4" stroke-width="1.51"></path><path d="M128,-106L228,-60L396,-104Z" fill="#4893ce" stroke="#4893ce" stroke-width="1.51"></path><path d="M396,-104L354,-60L397,12Z" fill="#3d85c2" stroke="#3d85c2" stroke-width="1.51"></path><path d="M135,276L-27,298L435,251Z" fill="#1164a8" stroke="#1164a8" stroke-width="1.51"></path><path d="M346,238L245,251L435,251Z" fill="#0c60a4" stroke="#0c60a4" stroke-width="1.51"></path><path d="M245,251L135,276L435,251Z" fill="#0e62a6" stroke="#0e62a6" stroke-width="1.51"></path><path d="M397,12L345,79L445,102Z" fill="#1d6caf" stroke="#1d6caf" stroke-width="1.51"></path><path d="M345,79L392,198L445,102Z" fill="#1164a9" stroke="#1164a9" stroke-width="1.51"></path><path d="M396,-104L397,12L445,102Z" fill="#2e78b7" stroke="#2e78b7" stroke-width="1.51"></path><path d="M392,198L435,251L445,102Z" fill="#0c60a4" stroke="#0c60a4" stroke-width="1.51"></path><path d="M392,198L346,238L435,251Z" fill="#0a5fa3" stroke="#0a5fa3" stroke-width="1.51"></path><path d="M342,201L346,238L392,198Z" fill="#0d61a5" stroke="#0d61a5" stroke-width="1.51"></path><path d="M345,79L342,201L392,198Z" fill="#1064a8" stroke="#1064a8" stroke-width="1.51"></path><path d="M228,-60L354,-60L396,-104Z" fill="#438cc8" stroke="#438cc8" stroke-width="1.51"></path><path d="M356,18L345,79L397,12Z" fill="#2673b4" stroke="#2673b4" stroke-width="1.51"></path><path d="M354,-60L356,18L397,12Z" fill="#337cbc" stroke="#337cbc" stroke-width="1.51"></path><path d="M91,272L-27,298L135,276Z" fill="#2773b3" stroke="#2773b3" stroke-width="1.51"></path><path d="M261,147L342,201L345,79Z" fill="#1367ab" stroke="#1367ab" stroke-width="1.51"></path><path d="M354,-60L250,-6L356,18Z" fill="#3680bf" stroke="#3680bf" stroke-width="1.51"></path><path d="M250,-6L345,79L356,18Z" fill="#2976b7" stroke="#2976b7" stroke-width="1.51"></path><path d="M228,-60L250,-6L354,-60Z" fill="#3d87c4" stroke="#3d87c4" stroke-width="1.51"></path><path d="M250,-6L222,61L345,79Z" fill="#2675b7" stroke="#2675b7" stroke-width="1.51"></path><path d="M342,201L245,251L346,238Z" fill="#0e62a6" stroke="#0e62a6" stroke-width="1.51"></path><path d="M222,61L261,147L345,79Z" fill="#166baf" stroke="#166baf" stroke-width="1.51"></path><path d="M261,147L245,251L342,201Z" fill="#1165a9" stroke="#1165a9" stroke-width="1.51"></path><path d="M168,160L245,251L261,147Z" fill="#1468ac" stroke="#1468ac" stroke-width="1.51"></path><path d="M222,61L168,160L261,147Z" fill="#186cb0" stroke="#186cb0" stroke-width="1.51"></path><path d="M155,59L222,61L250,-6Z" fill="#2a79ba" stroke="#2a79ba" stroke-width="1.51"></path><path d="M228,-60L121,-14L250,-6Z" fill="#3b87c5" stroke="#3b87c5" stroke-width="1.51"></path><path d="M121,-14L155,59L250,-6Z" fill="#3180c0" stroke="#3180c0" stroke-width="1.51"></path><path d="M168,160L135,276L245,251Z" fill="#1367ab" stroke="#1367ab" stroke-width="1.51"></path><path d="M155,59L168,160L222,61Z" fill="#1a6fb3" stroke="#1a6fb3" stroke-width="1.51"></path><path d="M128,-106L121,-14L228,-60Z" fill="#4390cc" stroke="#4390cc" stroke-width="1.51"></path><path d="M91,158L91,272L135,276Z" fill="#206fb1" stroke="#206fb1" stroke-width="1.51"></path><path d="M70,117L91,158L155,59Z" fill="#2576b8" stroke="#2576b8" stroke-width="1.51"></path><path d="M155,59L91,158L168,160Z" fill="#1d71b4" stroke="#1d71b4" stroke-width="1.51"></path><path d="M91,158L135,276L168,160Z" fill="#1b6db0" stroke="#1b6db0" stroke-width="1.51"></path><path d="M121,-14L65,16L155,59Z" fill="#3785c4" stroke="#3785c4" stroke-width="1.51"></path><path d="M65,16L70,117L155,59Z" fill="#2f7ebf" stroke="#2f7ebf" stroke-width="1.51"></path><path d="M26,-116L121,-14L128,-106Z" fill="#519fd7" stroke="#519fd7" stroke-width="1.51"></path><path d="M26,-116L65,16L121,-14Z" fill="#4c98d2" stroke="#4c98d2" stroke-width="1.51"></path><path d="M26,-116L-29,-3L65,16Z" fill="#529fd8" stroke="#529fd8" stroke-width="1.51"></path><path d="M70,117L-23,206L91,158Z" fill="#307dbd" stroke="#307dbd" stroke-width="1.51"></path><path d="M91,158L-23,206L91,272Z" fill="#2d79b9" stroke="#2d79b9" stroke-width="1.51"></path><path d="M-23,206L-27,298L91,272Z" fill="#327bbb" stroke="#327bbb" stroke-width="1.51"></path><path d="M-42,-75L-29,-3L26,-116Z" fill="#5dace1" stroke="#5dace1" stroke-width="1.51"></path><path d="M-29,-3L-36,104L65,16Z" fill="#4693ce" stroke="#4693ce" stroke-width="1.51"></path><path d="M65,16L-36,104L70,117Z" fill="#3785c4" stroke="#3785c4" stroke-width="1.51"></path><path d="M-36,104L-23,206L70,117Z" fill="#3884c3" stroke="#3884c3" stroke-width="1.51"></path><path d="M-131,-85L-42,-75L26,-116Z" fill="#68b8e9" stroke="#68b8e9" stroke-width="1.51"></path><path d="M-137,87L-36,104L-29,-3Z" fill="#4b98d2" stroke="#4b98d2" stroke-width="1.51"></path><path d="M-149,22L-137,87L-29,-3Z" fill="#56a4db" stroke="#56a4db" stroke-width="1.51"></path><path d="M-36,104L-112,198L-23,206Z" fill="#418cc8" stroke="#418cc8" stroke-width="1.51"></path><path d="M-131,259L-27,298L-23,206Z" fill="#3f87c4" stroke="#3f87c4" stroke-width="1.51"></path><path d="M-112,198L-131,259L-23,206Z" fill="#448dc9" stroke="#448dc9" stroke-width="1.51"></path><path d="M-42,-75L-131,-85L-29,-3Z" fill="#63b2e5" stroke="#63b2e5" stroke-width="1.51"></path><path d="M-131,-85L-149,22L-29,-3Z" fill="#61b1e4" stroke="#61b1e4" stroke-width="1.51"></path><path d="M-137,87L-112,198L-36,104Z" fill="#4894cf" stroke="#4894cf" stroke-width="1.51"></path><path d="M-137,87L-131,259L-112,198Z" fill="#4c96d0" stroke="#4c96d0" stroke-width="1.51"></path><path d="M-137,87L-149,22L-131,259Z" fill="#4f9cd5" stroke="#4f9cd5" stroke-width="1.51"></path></svg>