<svg width="300" height="176" xmlns="http://www.w3.org/2000/svg"><path d="M165,87L262,68L218,29Z" fill="#2476b7" stroke="#2476b7" stroke-width="1.51"></path><path d="M165,87L173,171L262,68Z" fill="#196eb2" stroke="#196eb2" stroke-width="1.51"></path><path d="M173,171L210,203L262,68Z" fill="#176baf" stroke="#176baf" stroke-width="1.51"></path><path d="M218,29L132,-21L165,87Z" fill="#2e81bd" stroke="#2e81bd" stroke-width="1.51"></path><path d="M165,87L64,169L173,171Z" fill="#1e71b4" stroke="#1e71b4" stroke-width="1.51"></path><path d="M262,68L315,-25L218,29Z" fill="#2e7fba" stroke="#2e7fba" stroke-width="1.51"></path><path d="M218,29L155,-62L132,-21Z" fill="#3b8fc5" stroke="#3b8fc5" stroke-width="1.51"></path><path d="M309,185L356,75L262,68Z" fill="#1569ad" stroke="#1569ad" stroke-width="1.51"></path><path d="M210,203L309,185L262,68Z" fill="#1568ad" stroke="#1568ad" stroke-width="1.51"></path><path d="M356,75L315,-25L262,68Z" fill="#2879b6" stroke="#2879b6" stroke-width="1.51"></path><path d="M259,-106L155,-62L218,29Z" fill="#4196c8" stroke="#4196c8" stroke-width="1.51"></path><path d="M132,-21L85,-3L165,87Z" fill="#3689c2" stroke="#3689c2" stroke-width="1.51"></path><path d="M58,-87L85,-3L132,-21Z" fill="#4aa3d1" stroke="#4aa3d1" stroke-width="1.51"></path><path d="M315,-25L259,-106L218,29Z" fill="#3d90c4" stroke="#3d90c4" stroke-width="1.51"></path><path d="M439,-81L310,-65L315,-25Z" fill="#4093c4" stroke="#4093c4" stroke-width="1.51"></path><path d="M85,-3L41,72L165,87Z" fill="#3486c1" stroke="#3486c1" stroke-width="1.51"></path><path d="M173,171L124,239L210,203Z" fill="#1569ad" stroke="#1569ad" stroke-width="1.51"></path><path d="M41,72L64,169L165,87Z" fill="#2a7cbb" stroke="#2a7cbb" stroke-width="1.51"></path><path d="M64,169L124,239L173,171Z" fill="#1f71b2" stroke="#1f71b2" stroke-width="1.51"></path><path d="M210,203L222,280L309,185Z" fill="#1165a9" stroke="#1165a9" stroke-width="1.51"></path><path d="M310,-65L259,-106L315,-25Z" fill="#4399c8" stroke="#4399c8" stroke-width="1.51"></path><path d="M124,239L222,280L210,203Z" fill="#1366aa" stroke="#1366aa" stroke-width="1.51"></path><path d="M430,165L356,75L309,185Z" fill="#1165a9" stroke="#1165a9" stroke-width="1.51"></path><path d="M430,165L429,70L356,75Z" fill="#1265a9" stroke="#1265a9" stroke-width="1.51"></path><path d="M356,75L423,19L315,-25Z" fill="#2c7bb6" stroke="#2c7bb6" stroke-width="1.51"></path><path d="M429,70L423,19L356,75Z" fill="#2170b0" stroke="#2170b0" stroke-width="1.51"></path><path d="M310,-65L439,-81L259,-106Z" fill="#479dca" stroke="#479dca" stroke-width="1.51"></path><path d="M259,-106L58,-87L155,-62Z" fill="#4ba4d1" stroke="#4ba4d1" stroke-width="1.51"></path><path d="M155,-62L58,-87L132,-21Z" fill="#4aa4d1" stroke="#4aa4d1" stroke-width="1.51"></path><path d="M-53,-9L-48,75L41,72Z" fill="#49a2d0" stroke="#49a2d0" stroke-width="1.51"></path><path d="M124,239L78,264L222,280Z" fill="#1669ac" stroke="#1669ac" stroke-width="1.51"></path><path d="M64,169L78,264L124,239Z" fill="#2676b4" stroke="#2676b4" stroke-width="1.51"></path><path d="M-33,198L78,264L64,169Z" fill="#3282bb" stroke="#3282bb" stroke-width="1.51"></path><path d="M222,280L311,290L309,185Z" fill="#0e62a6" stroke="#0e62a6" stroke-width="1.51"></path><path d="M-142,300L311,290L222,280Z" fill="#1869ac" stroke="#1869ac" stroke-width="1.51"></path><path d="M421,242L430,165L309,185Z" fill="#0d60a4" stroke="#0d60a4" stroke-width="1.51"></path><path d="M41,72L-33,198L64,169Z" fill="#3688c0" stroke="#3688c0" stroke-width="1.51"></path><path d="M-53,-9L41,72L85,-3Z" fill="#48a0cf" stroke="#48a0cf" stroke-width="1.51"></path><path d="M311,290L421,242L309,185Z" fill="#0c60a4" stroke="#0c60a4" stroke-width="1.51"></path><path d="M-48,75L-33,198L41,72Z" fill="#3d92c6" stroke="#3d92c6" stroke-width="1.51"></path><path d="M429,70L439,-81L423,19Z" fill="#307eb7" stroke="#307eb7" stroke-width="1.51"></path><path d="M423,19L439,-81L315,-25Z" fill="#3989be" stroke="#3989be" stroke-width="1.51"></path><path d="M430,165L439,-81L429,70Z" fill="#2170af" stroke="#2170af" stroke-width="1.51"></path><path d="M-113,-107L-11,-88L58,-87Z" fill="#65cfe7" stroke="#65cfe7" stroke-width="1.51"></path><path d="M58,-87L-11,-88L85,-3Z" fill="#55b5da" stroke="#55b5da" stroke-width="1.51"></path><path d="M-11,-88L-53,-9L85,-3Z" fill="#55b5da" stroke="#55b5da" stroke-width="1.51"></path><path d="M-33,198L-28,269L78,264Z" fill="#3686bd" stroke="#3686bd" stroke-width="1.51"></path><path d="M78,264L-142,300L222,280Z" fill="#2c7ab5" stroke="#2c7ab5" stroke-width="1.51"></path><path d="M-136,191L-28,269L-33,198Z" fill="#4397c7" stroke="#4397c7" stroke-width="1.51"></path><path d="M-48,75L-136,191L-33,198Z" fill="#469ccb" stroke="#469ccb" stroke-width="1.51"></path><path d="M-53,-9L-116,9L-48,75Z" fill="#55b5da" stroke="#55b5da" stroke-width="1.51"></path><path d="M-113,-107L-116,9L-53,-9Z" fill="#64cce6" stroke="#64cce6" stroke-width="1.51"></path><path d="M-116,9L-144,73L-48,75Z" fill="#54b2d9" stroke="#54b2d9" stroke-width="1.51"></path><path d="M-144,73L-136,191L-48,75Z" fill="#4da7d2" stroke="#4da7d2" stroke-width="1.51"></path><path d="M259,-106L-113,-107L58,-87Z" fill="#5abcdd" stroke="#5abcdd" stroke-width="1.51"></path><path d="M-11,-88L-113,-107L-53,-9Z" fill="#65cfe7" stroke="#65cfe7" stroke-width="1.51"></path><path d="M-116,9L-113,-107L-144,73Z" fill="#63cbe5" stroke="#63cbe5" stroke-width="1.51"></path><path d="M-136,191L-142,300L-28,269Z" fill="#479dc9" stroke="#479dc9" stroke-width="1.51"></path><path d="M-28,269L-142,300L78,264Z" fill="#3b8cbf" stroke="#3b8cbf" stroke-width="1.51"></path><path d="M-144,73L-142,300L-136,191Z" fill="#4fa9d1" stroke="#4fa9d1" stroke-width="1.51"></path></svg>