<svg width="300" height="176" xmlns="http://www.w3.org/2000/svg"><path d="M122,104L165,13L86,56Z" fill="#3e94c8" stroke="#3e94c8" stroke-width="1.51"></path><path d="M122,104L218,84L165,13Z" fill="#2d7fbc" stroke="#2d7fbc" stroke-width="1.51"></path><path d="M122,104L175,163L218,84Z" fill="#166aae" stroke="#166aae" stroke-width="1.51"></path><path d="M64,-71L28,7L86,56Z" fill="#6fe1f1" stroke="#6fe1f1" stroke-width="1.51"></path><path d="M86,56L27,174L122,104Z" fill="#3a8dc3" stroke="#3a8dc3" stroke-width="1.51"></path><path d="M122,104L27,174L175,163Z" fill="#2b7ab6" stroke="#2b7ab6" stroke-width="1.51"></path><path d="M165,13L64,-71L86,56Z" fill="#63cbe5" stroke="#63cbe5" stroke-width="1.51"></path><path d="M238,-90L169,-73L165,13Z" fill="#54b2d6" stroke="#54b2d6" stroke-width="1.51"></path><path d="M218,84L268,14L165,13Z" fill="#3f92c4" stroke="#3f92c4" stroke-width="1.51"></path><path d="M342,21L268,14L360,85Z" fill="#3988bc" stroke="#3988bc" stroke-width="1.51"></path><path d="M169,-73L64,-71L165,13Z" fill="#5bbedf" stroke="#5bbedf" stroke-width="1.51"></path><path d="M175,163L235,178L218,84Z" fill="#1064a8" stroke="#1064a8" stroke-width="1.51"></path><path d="M-32,101L27,174L86,56Z" fill="#4ca5d0" stroke="#4ca5d0" stroke-width="1.51"></path><path d="M175,163L234,242L235,178Z" fill="#0a5ea2" stroke="#0a5ea2" stroke-width="1.51"></path><path d="M-64,-23L-32,101L28,7Z" fill="#72e7f3" stroke="#72e7f3" stroke-width="1.51"></path><path d="M28,7L-32,101L86,56Z" fill="#5ec4e1" stroke="#5ec4e1" stroke-width="1.51"></path><path d="M268,14L238,-90L165,13Z" fill="#52aed3" stroke="#52aed3" stroke-width="1.51"></path><path d="M169,-73L238,-90L64,-71Z" fill="#55b5d9" stroke="#55b5d9" stroke-width="1.51"></path><path d="M64,-71L-3,-82L28,7Z" fill="#77f0f7" stroke="#77f0f7" stroke-width="1.51"></path><path d="M238,-90L-3,-82L64,-71Z" fill="#64cde7" stroke="#64cde7" stroke-width="1.51"></path><path d="M360,85L268,14L218,84Z" fill="#2c79b5" stroke="#2c79b5" stroke-width="1.51"></path><path d="M268,14L353,-94L238,-90Z" fill="#50a8ce" stroke="#50a8ce" stroke-width="1.51"></path><path d="M235,178L360,85L218,84Z" fill="#0e62a6" stroke="#0e62a6" stroke-width="1.51"></path><path d="M174,299L234,242L175,163Z" fill="#0c60a4" stroke="#0c60a4" stroke-width="1.51"></path><path d="M-3,-82L-64,-23L28,7Z" fill="#7fffff" stroke="#7fffff" stroke-width="1.51"></path><path d="M27,174L59,276L175,163Z" fill="#327fb7" stroke="#327fb7" stroke-width="1.51"></path><path d="M-32,101L-55,167L27,174Z" fill="#51acd1" stroke="#51acd1" stroke-width="1.51"></path><path d="M-89,113L-55,167L-32,101Z" fill="#53afd4" stroke="#53afd4" stroke-width="1.51"></path><path d="M321,194L360,85L235,178Z" fill="#055a9e" stroke="#055a9e" stroke-width="1.51"></path><path d="M234,242L321,194L235,178Z" fill="#045a9e" stroke="#045a9e" stroke-width="1.51"></path><path d="M-64,-23L-89,113L-32,101Z" fill="#62c9e4" stroke="#62c9e4" stroke-width="1.51"></path><path d="M-5,279L59,276L27,174Z" fill="#479bc6" stroke="#479bc6" stroke-width="1.51"></path><path d="M59,276L174,299L175,163Z" fill="#1a6aab" stroke="#1a6aab" stroke-width="1.51"></path><path d="M358,250L392,194L321,194Z" fill="#01579b" stroke="#01579b" stroke-width="1.51"></path><path d="M-64,-23L-96,-31L-89,113Z" fill="#76eef6" stroke="#76eef6" stroke-width="1.51"></path><path d="M-3,-82L-96,-31L-64,-23Z" fill="#7fffff" stroke="#7fffff" stroke-width="1.51"></path><path d="M392,194L387,67L360,85Z" fill="#0b60a4" stroke="#0b60a4" stroke-width="1.51"></path><path d="M360,85L387,67L342,21Z" fill="#2d7bb5" stroke="#2d7bb5" stroke-width="1.51"></path><path d="M342,21L353,-94L268,14Z" fill="#4fa7cd" stroke="#4fa7cd" stroke-width="1.51"></path><path d="M404,-14L353,-94L342,21Z" fill="#4fa7cd" stroke="#4fa7cd" stroke-width="1.51"></path><path d="M238,-90L353,-94L-3,-82Z" fill="#54b1d6" stroke="#54b1d6" stroke-width="1.51"></path><path d="M-55,167L-5,279L27,174Z" fill="#4fa7cd" stroke="#4fa7cd" stroke-width="1.51"></path><path d="M59,276L-5,279L174,299Z" fill="#3684ba" stroke="#3684ba" stroke-width="1.51"></path><path d="M-89,248L-5,279L-55,167Z" fill="#4fa7cd" stroke="#4fa7cd" stroke-width="1.51"></path><path d="M-89,113L-106,170L-55,167Z" fill="#51acd1" stroke="#51acd1" stroke-width="1.51"></path><path d="M-145,-73L-106,170L-89,113Z" fill="#5fc4e1" stroke="#5fc4e1" stroke-width="1.51"></path><path d="M387,67L404,-14L342,21Z" fill="#4294c2" stroke="#4294c2" stroke-width="1.51"></path><path d="M387,67L441,-92L404,-14Z" fill="#4fa7cd" stroke="#4fa7cd" stroke-width="1.51"></path><path d="M321,194L392,194L360,85Z" fill="#04599d" stroke="#04599d" stroke-width="1.51"></path><path d="M358,250L321,194L234,242Z" fill="#01579b" stroke="#01579b" stroke-width="1.51"></path><path d="M174,299L358,250L234,242Z" fill="#055b9f" stroke="#055b9f" stroke-width="1.51"></path><path d="M-106,170L-89,248L-55,167Z" fill="#4fa7cd" stroke="#4fa7cd" stroke-width="1.51"></path><path d="M-96,-31L-145,-73L-89,113Z" fill="#7efcfd" stroke="#7efcfd" stroke-width="1.51"></path><path d="M-3,-82L-145,-73L-96,-31Z" fill="#7fffff" stroke="#7fffff" stroke-width="1.51"></path><path d="M404,-14L441,-92L353,-94Z" fill="#4fa7cd" stroke="#4fa7cd" stroke-width="1.51"></path><path d="M415,251L441,-92L387,67Z" fill="#1f6dad" stroke="#1f6dad" stroke-width="1.51"></path><path d="M392,194L415,251L387,67Z" fill="#02589c" stroke="#02589c" stroke-width="1.51"></path><path d="M358,250L415,251L392,194Z" fill="#01579b" stroke="#01579b" stroke-width="1.51"></path><path d="M174,299L415,251L358,250Z" fill="#01579b" stroke="#01579b" stroke-width="1.51"></path></svg>