<svg width="300" height="176" xmlns="http://www.w3.org/2000/svg"><path d="M148,92L210,21L126,4Z" fill="#2c7fbc" stroke="#2c7fbc" stroke-width="1.51"></path><path d="M148,92L242,105L210,21Z" fill="#2073b5" stroke="#2073b5" stroke-width="1.51"></path><path d="M210,21L147,-63L126,4Z" fill="#3a8ec5" stroke="#3a8ec5" stroke-width="1.51"></path><path d="M126,4L27,69L148,92Z" fill="#3285c1" stroke="#3285c1" stroke-width="1.51"></path><path d="M147,-63L59,-29L126,4Z" fill="#459dcd" stroke="#459dcd" stroke-width="1.51"></path><path d="M59,-29L27,69L126,4Z" fill="#4198cb" stroke="#4198cb" stroke-width="1.51"></path><path d="M210,21L249,-88L147,-63Z" fill="#4196c8" stroke="#4196c8" stroke-width="1.51"></path><path d="M324,65L308,4L210,21Z" fill="#2c7db9" stroke="#2c7db9" stroke-width="1.51"></path><path d="M27,69L90,175L148,92Z" fill="#2a7cba" stroke="#2a7cba" stroke-width="1.51"></path><path d="M148,92L166,199L242,105Z" fill="#186db1" stroke="#186db1" stroke-width="1.51"></path><path d="M308,4L249,-88L210,21Z" fill="#3a8dc2" stroke="#3a8dc2" stroke-width="1.51"></path><path d="M90,175L166,199L148,92Z" fill="#1d70b3" stroke="#1d70b3" stroke-width="1.51"></path><path d="M242,105L324,65L210,21Z" fill="#2173b4" stroke="#2173b4" stroke-width="1.51"></path><path d="M333,194L324,65L242,105Z" fill="#1569ad" stroke="#1569ad" stroke-width="1.51"></path><path d="M166,199L208,202L242,105Z" fill="#156aae" stroke="#156aae" stroke-width="1.51"></path><path d="M59,-29L-6,-60L27,69Z" fill="#4da8d3" stroke="#4da8d3" stroke-width="1.51"></path><path d="M147,-63L33,-97L59,-29Z" fill="#51aed7" stroke="#51aed7" stroke-width="1.51"></path><path d="M249,-88L33,-97L147,-63Z" fill="#4ca6d2" stroke="#4ca6d2" stroke-width="1.51"></path><path d="M33,-97L-6,-60L59,-29Z" fill="#58b9db" stroke="#58b9db" stroke-width="1.51"></path><path d="M166,199L166,242L208,202Z" fill="#1468ac" stroke="#1468ac" stroke-width="1.51"></path><path d="M90,175L166,242L166,199Z" fill="#186caf" stroke="#186caf" stroke-width="1.51"></path><path d="M249,-88L306,-120L33,-97Z" fill="#4ea8d2" stroke="#4ea8d2" stroke-width="1.51"></path><path d="M308,4L306,-120L249,-88Z" fill="#4499c9" stroke="#4499c9" stroke-width="1.51"></path><path d="M451,-35L306,-120L308,4Z" fill="#3f91c3" stroke="#3f91c3" stroke-width="1.51"></path><path d="M264,297L333,194L208,202Z" fill="#1063a7" stroke="#1063a7" stroke-width="1.51"></path><path d="M208,202L333,194L242,105Z" fill="#1468ac" stroke="#1468ac" stroke-width="1.51"></path><path d="M90,175L32,255L166,242Z" fill="#2474b3" stroke="#2474b3" stroke-width="1.51"></path><path d="M27,69L-13,196L90,175Z" fill="#3486bf" stroke="#3486bf" stroke-width="1.51"></path><path d="M-59,-34L-63,89L27,69Z" fill="#4ba6d2" stroke="#4ba6d2" stroke-width="1.51"></path><path d="M-63,89L-13,196L27,69Z" fill="#3e92c6" stroke="#3e92c6" stroke-width="1.51"></path><path d="M-6,-60L-59,-34L27,69Z" fill="#53b1d8" stroke="#53b1d8" stroke-width="1.51"></path><path d="M-94,-113L-59,-34L-6,-60Z" fill="#65cee7" stroke="#65cee7" stroke-width="1.51"></path><path d="M-13,196L32,255L90,175Z" fill="#3282bb" stroke="#3282bb" stroke-width="1.51"></path><path d="M333,194L410,78L324,65Z" fill="#1367ab" stroke="#1367ab" stroke-width="1.51"></path><path d="M324,65L410,78L308,4Z" fill="#2474b3" stroke="#2474b3" stroke-width="1.51"></path><path d="M166,242L264,297L208,202Z" fill="#1165a9" stroke="#1165a9" stroke-width="1.51"></path><path d="M32,255L264,297L166,242Z" fill="#1266ab" stroke="#1266ab" stroke-width="1.51"></path><path d="M32,255L-9,269L264,297Z" fill="#2271b0" stroke="#2271b0" stroke-width="1.51"></path><path d="M-13,196L-9,269L32,255Z" fill="#3787bd" stroke="#3787bd" stroke-width="1.51"></path><path d="M-87,240L-9,269L-13,196Z" fill="#3e90c2" stroke="#3e90c2" stroke-width="1.51"></path><path d="M333,194L430,178L410,78Z" fill="#0f63a7" stroke="#0f63a7" stroke-width="1.51"></path><path d="M264,297L357,250L333,194Z" fill="#0d61a5" stroke="#0d61a5" stroke-width="1.51"></path><path d="M-63,89L-107,150L-13,196Z" fill="#449bca" stroke="#449bca" stroke-width="1.51"></path><path d="M-136,90L-107,150L-63,89Z" fill="#4ca6d1" stroke="#4ca6d1" stroke-width="1.51"></path><path d="M-59,-34L-130,9L-63,89Z" fill="#57b8dc" stroke="#57b8dc" stroke-width="1.51"></path><path d="M-94,-113L-130,9L-59,-34Z" fill="#66d0e8" stroke="#66d0e8" stroke-width="1.51"></path><path d="M430,178L451,-35L410,78Z" fill="#1869ac" stroke="#1869ac" stroke-width="1.51"></path><path d="M410,78L451,-35L308,4Z" fill="#2e7cb7" stroke="#2e7cb7" stroke-width="1.51"></path><path d="M33,-97L-94,-113L-6,-60Z" fill="#64cee6" stroke="#64cee6" stroke-width="1.51"></path><path d="M306,-120L-94,-113L33,-97Z" fill="#5abcdd" stroke="#5abcdd" stroke-width="1.51"></path><path d="M357,250L430,178L333,194Z" fill="#0d60a4" stroke="#0d60a4" stroke-width="1.51"></path><path d="M-130,9L-136,90L-63,89Z" fill="#53b1d7" stroke="#53b1d7" stroke-width="1.51"></path><path d="M306,-120L430,-123L-94,-113Z" fill="#51add4" stroke="#51add4" stroke-width="1.51"></path><path d="M451,-35L430,-123L306,-120Z" fill="#479cc8" stroke="#479cc8" stroke-width="1.51"></path><path d="M-136,90L-87,240L-107,150Z" fill="#4ba5cf" stroke="#4ba5cf" stroke-width="1.51"></path><path d="M-107,150L-87,240L-13,196Z" fill="#4599c8" stroke="#4599c8" stroke-width="1.51"></path><path d="M357,250L387,284L430,178Z" fill="#095ea2" stroke="#095ea2" stroke-width="1.51"></path><path d="M264,297L387,284L357,250Z" fill="#0a5ea2" stroke="#0a5ea2" stroke-width="1.51"></path></svg>