<svg width="300" height="176" xmlns="http://www.w3.org/2000/svg"><path d="M139,56L80,84L138,169Z" fill="#2a7cba" stroke="#2a7cba" stroke-width="1.51"></path><path d="M80,84L41,195L138,169Z" fill="#3484bb" stroke="#3484bb" stroke-width="1.51"></path><path d="M138,169L252,77L139,56Z" fill="#186cb0" stroke="#186cb0" stroke-width="1.51"></path><path d="M179,275L239,172L138,169Z" fill="#0d61a5" stroke="#0d61a5" stroke-width="1.51"></path><path d="M239,172L252,77L138,169Z" fill="#1064a8" stroke="#1064a8" stroke-width="1.51"></path><path d="M139,56L36,-9L80,84Z" fill="#53b1d8" stroke="#53b1d8" stroke-width="1.51"></path><path d="M230,-29L153,-15L139,56Z" fill="#52b0d6" stroke="#52b0d6" stroke-width="1.51"></path><path d="M80,84L-29,109L41,195Z" fill="#49a0cc" stroke="#49a0cc" stroke-width="1.51"></path><path d="M153,-15L36,-9L139,56Z" fill="#5cc0e0" stroke="#5cc0e0" stroke-width="1.51"></path><path d="M36,-9L-29,109L80,84Z" fill="#5bbdde" stroke="#5bbdde" stroke-width="1.51"></path><path d="M252,77L230,-29L139,56Z" fill="#4095c6" stroke="#4095c6" stroke-width="1.51"></path><path d="M239,172L297,98L252,77Z" fill="#0f63a7" stroke="#0f63a7" stroke-width="1.51"></path><path d="M77,278L179,275L138,169Z" fill="#1d6cac" stroke="#1d6cac" stroke-width="1.51"></path><path d="M239,172L306,182L297,98Z" fill="#075ca0" stroke="#075ca0" stroke-width="1.51"></path><path d="M308,29L230,-29L252,77Z" fill="#4396c5" stroke="#4396c5" stroke-width="1.51"></path><path d="M153,-15L47,-88L36,-9Z" fill="#6ad8eb" stroke="#6ad8eb" stroke-width="1.51"></path><path d="M230,-29L157,-59L153,-15Z" fill="#54b3d7" stroke="#54b3d7" stroke-width="1.51"></path><path d="M-64,257L77,278L41,195Z" fill="#4a9fc8" stroke="#4a9fc8" stroke-width="1.51"></path><path d="M41,195L77,278L138,169Z" fill="#3280b8" stroke="#3280b8" stroke-width="1.51"></path><path d="M304,273L306,182L239,172Z" fill="#02589c" stroke="#02589c" stroke-width="1.51"></path><path d="M-29,109L-53,166L41,195Z" fill="#51aad0" stroke="#51aad0" stroke-width="1.51"></path><path d="M425,115L308,29L297,98Z" fill="#1969ab" stroke="#1969ab" stroke-width="1.51"></path><path d="M297,98L308,29L252,77Z" fill="#2673b1" stroke="#2673b1" stroke-width="1.51"></path><path d="M-29,109L-134,158L-53,166Z" fill="#51acd1" stroke="#51acd1" stroke-width="1.51"></path><path d="M36,-9L-52,25L-29,109Z" fill="#6cdbed" stroke="#6cdbed" stroke-width="1.51"></path><path d="M-15,-89L-52,25L36,-9Z" fill="#7fffff" stroke="#7fffff" stroke-width="1.51"></path><path d="M77,278L232,299L179,275Z" fill="#0f63a7" stroke="#0f63a7" stroke-width="1.51"></path><path d="M179,275L232,299L239,172Z" fill="#095ea2" stroke="#095ea2" stroke-width="1.51"></path><path d="M157,-59L47,-88L153,-15Z" fill="#5fc4e1" stroke="#5fc4e1" stroke-width="1.51"></path><path d="M232,299L304,273L239,172Z" fill="#055a9e" stroke="#055a9e" stroke-width="1.51"></path><path d="M307,-109L242,-97L230,-29Z" fill="#51abd0" stroke="#51abd0" stroke-width="1.51"></path><path d="M230,-29L242,-97L157,-59Z" fill="#53b0d5" stroke="#53b0d5" stroke-width="1.51"></path><path d="M157,-59L242,-97L47,-88Z" fill="#56b6db" stroke="#56b6db" stroke-width="1.51"></path><path d="M-53,166L-64,257L41,195Z" fill="#4fa7cd" stroke="#4fa7cd" stroke-width="1.51"></path><path d="M-134,158L-64,257L-53,166Z" fill="#4fa7cd" stroke="#4fa7cd" stroke-width="1.51"></path><path d="M-124,-114L-15,-89L47,-88Z" fill="#7fffff" stroke="#7fffff" stroke-width="1.51"></path><path d="M47,-88L-15,-89L36,-9Z" fill="#79f3fa" stroke="#79f3fa" stroke-width="1.51"></path><path d="M-15,-89L-94,-13L-52,25Z" fill="#7fffff" stroke="#7fffff" stroke-width="1.51"></path><path d="M-140,60L-134,158L-29,109Z" fill="#54b2d7" stroke="#54b2d7" stroke-width="1.51"></path><path d="M-140,60L-29,109L-52,25Z" fill="#61c9e4" stroke="#61c9e4" stroke-width="1.51"></path><path d="M-94,-13L-140,60L-52,25Z" fill="#74eaf5" stroke="#74eaf5" stroke-width="1.51"></path><path d="M242,-97L-124,-114L47,-88Z" fill="#70e4f1" stroke="#70e4f1" stroke-width="1.51"></path><path d="M308,29L307,-109L230,-29Z" fill="#50a9ce" stroke="#50a9ce" stroke-width="1.51"></path><path d="M435,182L425,115L306,182Z" fill="#04599d" stroke="#04599d" stroke-width="1.51"></path><path d="M306,182L425,115L297,98Z" fill="#095da1" stroke="#095da1" stroke-width="1.51"></path><path d="M308,29L408,-72L307,-109Z" fill="#4fa7cd" stroke="#4fa7cd" stroke-width="1.51"></path><path d="M406,270L435,182L306,182Z" fill="#01579b" stroke="#01579b" stroke-width="1.51"></path><path d="M304,273L406,270L306,182Z" fill="#01579b" stroke="#01579b" stroke-width="1.51"></path><path d="M232,299L406,270L304,273Z" fill="#01579b" stroke="#01579b" stroke-width="1.51"></path><path d="M-134,158L-142,279L-64,257Z" fill="#4fa7cd" stroke="#4fa7cd" stroke-width="1.51"></path><path d="M-64,257L-142,279L77,278Z" fill="#4fa7cd" stroke="#4fa7cd" stroke-width="1.51"></path><path d="M77,278L-142,279L232,299Z" fill="#3d8dbf" stroke="#3d8dbf" stroke-width="1.51"></path><path d="M-140,60L-142,279L-134,158Z" fill="#50a9ce" stroke="#50a9ce" stroke-width="1.51"></path><path d="M435,182L427,-26L425,115Z" fill="#0f63a7" stroke="#0f63a7" stroke-width="1.51"></path><path d="M425,115L427,-26L308,29Z" fill="#3988bc" stroke="#3988bc" stroke-width="1.51"></path><path d="M427,-26L408,-72L308,29Z" fill="#4fa7cd" stroke="#4fa7cd" stroke-width="1.51"></path><path d="M307,-109L-124,-114L242,-97Z" fill="#58b9dc" stroke="#58b9dc" stroke-width="1.51"></path><path d="M-15,-89L-124,-114L-94,-13Z" fill="#7fffff" stroke="#7fffff" stroke-width="1.51"></path><path d="M-94,-13L-124,-114L-140,60Z" fill="#7fffff" stroke="#7fffff" stroke-width="1.51"></path></svg>