<svg width="300" height="176" xmlns="http://www.w3.org/2000/svg"><path d="M171,64L254,75L229,13Z" fill="#2779b8" stroke="#2779b8" stroke-width="1.51"></path><path d="M254,75L298,-1L229,13Z" fill="#2d7eba" stroke="#2d7eba" stroke-width="1.51"></path><path d="M271,157L300,91L254,75Z" fill="#166baf" stroke="#166baf" stroke-width="1.51"></path><path d="M300,91L298,-1L254,75Z" fill="#2475b5" stroke="#2475b5" stroke-width="1.51"></path><path d="M171,64L156,144L254,75Z" fill="#196eb2" stroke="#196eb2" stroke-width="1.51"></path><path d="M156,144L271,157L254,75Z" fill="#176cb0" stroke="#176cb0" stroke-width="1.51"></path><path d="M229,13L117,-22L171,64Z" fill="#3285bf" stroke="#3285bf" stroke-width="1.51"></path><path d="M171,64L88,69L156,144Z" fill="#1f73b6" stroke="#1f73b6" stroke-width="1.51"></path><path d="M223,-99L117,-22L229,13Z" fill="#3f95c8" stroke="#3f95c8" stroke-width="1.51"></path><path d="M117,-22L88,69L171,64Z" fill="#3285c1" stroke="#3285c1" stroke-width="1.51"></path><path d="M298,-1L223,-99L229,13Z" fill="#3c90c4" stroke="#3c90c4" stroke-width="1.51"></path><path d="M298,-1L310,-86L223,-99Z" fill="#4398c8" stroke="#4398c8" stroke-width="1.51"></path><path d="M400,-63L310,-86L298,-1Z" fill="#3f92c4" stroke="#3f92c4" stroke-width="1.51"></path><path d="M223,-99L157,-123L117,-22Z" fill="#4aa3d0" stroke="#4aa3d0" stroke-width="1.51"></path><path d="M310,-86L157,-123L223,-99Z" fill="#4da7d1" stroke="#4da7d1" stroke-width="1.51"></path><path d="M117,-22L35,2L88,69Z" fill="#3f95c9" stroke="#3f95c9" stroke-width="1.51"></path><path d="M89,-97L35,2L117,-22Z" fill="#4ba7d2" stroke="#4ba7d2" stroke-width="1.51"></path><path d="M178,299L247,245L156,144Z" fill="#1367ab" stroke="#1367ab" stroke-width="1.51"></path><path d="M156,144L247,245L271,157Z" fill="#1468ac" stroke="#1468ac" stroke-width="1.51"></path><path d="M271,157L339,203L300,91Z" fill="#1367ab" stroke="#1367ab" stroke-width="1.51"></path><path d="M429,-31L400,-63L298,-1Z" fill="#3a8bbf" stroke="#3a8bbf" stroke-width="1.51"></path><path d="M247,245L339,203L271,157Z" fill="#1165a9" stroke="#1165a9" stroke-width="1.51"></path><path d="M157,-123L89,-97L117,-22Z" fill="#4eaad4" stroke="#4eaad4" stroke-width="1.51"></path><path d="M88,69L65,198L156,144Z" fill="#2678b7" stroke="#2678b7" stroke-width="1.51"></path><path d="M-44,174L65,198L88,69Z" fill="#3485bf" stroke="#3485bf" stroke-width="1.51"></path><path d="M429,-31L298,-1L300,91Z" fill="#2e7db8" stroke="#2e7db8" stroke-width="1.51"></path><path d="M450,116L429,-31L300,91Z" fill="#1f6fb0" stroke="#1f6fb0" stroke-width="1.51"></path><path d="M247,245L336,244L339,203Z" fill="#0e62a6" stroke="#0e62a6" stroke-width="1.51"></path><path d="M450,116L300,91L339,203Z" fill="#1265a9" stroke="#1265a9" stroke-width="1.51"></path><path d="M422,195L450,116L339,203Z" fill="#0e61a5" stroke="#0e61a5" stroke-width="1.51"></path><path d="M247,245L178,299L336,244Z" fill="#0f62a6" stroke="#0f62a6" stroke-width="1.51"></path><path d="M65,198L178,299L156,144Z" fill="#1a6daf" stroke="#1a6daf" stroke-width="1.51"></path><path d="M409,244L422,195L339,203Z" fill="#0b5fa3" stroke="#0b5fa3" stroke-width="1.51"></path><path d="M336,244L409,244L339,203Z" fill="#0c5fa3" stroke="#0c5fa3" stroke-width="1.51"></path><path d="M422,195L409,244L450,116Z" fill="#0c60a4" stroke="#0c60a4" stroke-width="1.51"></path><path d="M178,299L409,244L336,244Z" fill="#0c60a4" stroke="#0c60a4" stroke-width="1.51"></path><path d="M35,2L-60,60L88,69Z" fill="#439acc" stroke="#439acc" stroke-width="1.51"></path><path d="M-12,-121L-56,25L35,2Z" fill="#58b8dc" stroke="#58b8dc" stroke-width="1.51"></path><path d="M-56,25L-60,60L35,2Z" fill="#4ea9d3" stroke="#4ea9d3" stroke-width="1.51"></path><path d="M-60,60L-44,174L88,69Z" fill="#3c91c6" stroke="#3c91c6" stroke-width="1.51"></path><path d="M65,198L29,279L178,299Z" fill="#2473b2" stroke="#2473b2" stroke-width="1.51"></path><path d="M157,-123L-12,-121L89,-97Z" fill="#5bbede" stroke="#5bbede" stroke-width="1.51"></path><path d="M89,-97L-12,-121L35,2Z" fill="#59badc" stroke="#59badc" stroke-width="1.51"></path><path d="M-44,174L29,279L65,198Z" fill="#3586bd" stroke="#3586bd" stroke-width="1.51"></path><path d="M-44,174L-60,245L29,279Z" fill="#3c8dc1" stroke="#3c8dc1" stroke-width="1.51"></path><path d="M-100,239L-60,245L-44,174Z" fill="#4398c7" stroke="#4398c7" stroke-width="1.51"></path><path d="M-60,60L-136,110L-44,174Z" fill="#48a1ce" stroke="#48a1ce" stroke-width="1.51"></path><path d="M-148,-24L-136,110L-60,60Z" fill="#56b6db" stroke="#56b6db" stroke-width="1.51"></path><path d="M-148,-24L-60,60L-56,25Z" fill="#59b9dc" stroke="#59b9dc" stroke-width="1.51"></path><path d="M-136,110L-132,147L-44,174Z" fill="#4ba4d0" stroke="#4ba4d0" stroke-width="1.51"></path><path d="M-132,147L-100,239L-44,174Z" fill="#489ecc" stroke="#489ecc" stroke-width="1.51"></path><path d="M-60,245L-100,239L29,279Z" fill="#3f90c2" stroke="#3f90c2" stroke-width="1.51"></path><path d="M-12,-121L-109,-114L-56,25Z" fill="#66d0e8" stroke="#66d0e8" stroke-width="1.51"></path><path d="M-109,-114L-148,-24L-56,25Z" fill="#66d0e7" stroke="#66d0e7" stroke-width="1.51"></path></svg>