<svg width="300" height="176" xmlns="http://www.w3.org/2000/svg"><path d="M223,280L136,281L323,300Z" fill="#0e62a6" stroke="#0e62a6" stroke-width="1.51"></path><path d="M136,281L52,298L323,300Z" fill="#1164a8" stroke="#1164a8" stroke-width="1.51"></path><path d="M148,-125L211,-98L360,-74Z" fill="#4ca5d0" stroke="#4ca5d0" stroke-width="1.51"></path><path d="M423,160L342,197L440,250Z" fill="#0c60a4" stroke="#0c60a4" stroke-width="1.51"></path><path d="M148,-125L360,-74L441,-69Z" fill="#489fcb" stroke="#489fcb" stroke-width="1.51"></path><path d="M358,90L423,160L452,66Z" fill="#1165a9" stroke="#1165a9" stroke-width="1.51"></path><path d="M407,-16L358,90L452,66Z" fill="#2472b1" stroke="#2472b1" stroke-width="1.51"></path><path d="M423,160L440,250L452,66Z" fill="#0c61a5" stroke="#0c61a5" stroke-width="1.51"></path><path d="M441,-69L407,-16L452,66Z" fill="#3281b9" stroke="#3281b9" stroke-width="1.51"></path><path d="M360,-74L407,-16L441,-69Z" fill="#3f90c1" stroke="#3f90c1" stroke-width="1.51"></path><path d="M342,197L323,300L440,250Z" fill="#0a5ea2" stroke="#0a5ea2" stroke-width="1.51"></path><path d="M358,90L342,197L423,160Z" fill="#1064a8" stroke="#1064a8" stroke-width="1.51"></path><path d="M360,-74L300,-32L407,-16Z" fill="#3d8fc1" stroke="#3d8fc1" stroke-width="1.51"></path><path d="M300,-32L358,90L407,-16Z" fill="#2e7eb8" stroke="#2e7eb8" stroke-width="1.51"></path><path d="M300,-32L217,91L358,90Z" fill="#2576b5" stroke="#2576b5" stroke-width="1.51"></path><path d="M265,144L342,197L358,90Z" fill="#1366ab" stroke="#1366ab" stroke-width="1.51"></path><path d="M211,-98L300,-32L360,-74Z" fill="#4499c8" stroke="#4499c8" stroke-width="1.51"></path><path d="M217,91L265,144L358,90Z" fill="#166aae" stroke="#166aae" stroke-width="1.51"></path><path d="M215,-5L217,91L300,-32Z" fill="#3082bc" stroke="#3082bc" stroke-width="1.51"></path><path d="M223,280L323,300L342,197Z" fill="#0d61a5" stroke="#0d61a5" stroke-width="1.51"></path><path d="M265,144L223,280L342,197Z" fill="#1164a8" stroke="#1164a8" stroke-width="1.51"></path><path d="M181,172L223,280L265,144Z" fill="#1367ab" stroke="#1367ab" stroke-width="1.51"></path><path d="M211,-98L215,-5L300,-32Z" fill="#4094c7" stroke="#4094c7" stroke-width="1.51"></path><path d="M217,91L181,172L265,144Z" fill="#176baf" stroke="#176baf" stroke-width="1.51"></path><path d="M-118,-105L84,-91L148,-125Z" fill="#60c5e2" stroke="#60c5e2" stroke-width="1.51"></path><path d="M148,-125L130,13L211,-98Z" fill="#47a0ce" stroke="#47a0ce" stroke-width="1.51"></path><path d="M211,-98L130,13L215,-5Z" fill="#3e93c7" stroke="#3e93c7" stroke-width="1.51"></path><path d="M130,13L172,70L215,-5Z" fill="#3082be" stroke="#3082be" stroke-width="1.51"></path><path d="M215,-5L172,70L217,91Z" fill="#2779b9" stroke="#2779b9" stroke-width="1.51"></path><path d="M172,70L181,172L217,91Z" fill="#196eb2" stroke="#196eb2" stroke-width="1.51"></path><path d="M181,172L136,281L223,280Z" fill="#1266aa" stroke="#1266aa" stroke-width="1.51"></path><path d="M84,-91L130,13L148,-125Z" fill="#4ca6d2" stroke="#4ca6d2" stroke-width="1.51"></path><path d="M172,70L86,65L181,172Z" fill="#1c71b4" stroke="#1c71b4" stroke-width="1.51"></path><path d="M86,65L79,209L181,172Z" fill="#2275b5" stroke="#2275b5" stroke-width="1.51"></path><path d="M79,209L136,281L181,172Z" fill="#1b6daf" stroke="#1b6daf" stroke-width="1.51"></path><path d="M130,13L86,65L172,70Z" fill="#2d81be" stroke="#2d81be" stroke-width="1.51"></path><path d="M-118,-105L-2,-61L84,-91Z" fill="#62cae5" stroke="#62cae5" stroke-width="1.51"></path><path d="M84,-91L58,-31L130,13Z" fill="#49a3d1" stroke="#49a3d1" stroke-width="1.51"></path><path d="M79,209L52,298L136,281Z" fill="#2574b2" stroke="#2574b2" stroke-width="1.51"></path><path d="M-21,145L79,209L86,65Z" fill="#3184be" stroke="#3184be" stroke-width="1.51"></path><path d="M58,-31L86,65L130,13Z" fill="#3e93c8" stroke="#3e93c8" stroke-width="1.51"></path><path d="M-59,-1L-57,69L58,-31Z" fill="#50acd6" stroke="#50acd6" stroke-width="1.51"></path><path d="M-12,299L52,298L79,209Z" fill="#2f7db7" stroke="#2f7db7" stroke-width="1.51"></path><path d="M-2,-61L58,-31L84,-91Z" fill="#55b5d9" stroke="#55b5d9" stroke-width="1.51"></path><path d="M58,-31L-57,69L86,65Z" fill="#449bcc" stroke="#449bcc" stroke-width="1.51"></path><path d="M-57,69L-21,145L86,65Z" fill="#3c90c6" stroke="#3c90c6" stroke-width="1.51"></path><path d="M-21,145L-12,299L79,209Z" fill="#3586bd" stroke="#3586bd" stroke-width="1.51"></path><path d="M-2,-61L-59,-1L58,-31Z" fill="#56b6da" stroke="#56b6da" stroke-width="1.51"></path><path d="M-21,145L-103,185L-12,299Z" fill="#4093c5" stroke="#4093c5" stroke-width="1.51"></path><path d="M-103,185L-126,299L-12,299Z" fill="#4498c6" stroke="#4498c6" stroke-width="1.51"></path><path d="M-118,-105L-59,-1L-2,-61Z" fill="#63cbe5" stroke="#63cbe5" stroke-width="1.51"></path><path d="M-118,-105L-122,-17L-59,-1Z" fill="#66d0e7" stroke="#66d0e7" stroke-width="1.51"></path><path d="M-57,69L-103,185L-21,145Z" fill="#459ccb" stroke="#459ccb" stroke-width="1.51"></path><path d="M-153,75L-103,185L-57,69Z" fill="#4ca6d1" stroke="#4ca6d1" stroke-width="1.51"></path><path d="M-59,-1L-122,-17L-57,69Z" fill="#57b8db" stroke="#57b8db" stroke-width="1.51"></path><path d="M-122,-17L-153,75L-57,69Z" fill="#57b8db" stroke="#57b8db" stroke-width="1.51"></path><path d="M-153,75L-126,299L-103,185Z" fill="#4ea6d0" stroke="#4ea6d0" stroke-width="1.51"></path><path d="M-153,75L-122,-17L-118,-105Z" fill="#65cfe7" stroke="#65cfe7" stroke-width="1.51"></path></svg>