<svg width="300" height="176" xmlns="http://www.w3.org/2000/svg"><path d="M66,249L-131,259L233,295Z" fill="#2a75b5" stroke="#2a75b5" stroke-width="1.51"></path><path d="M-9,-123L156,-83L254,-84Z" fill="#4e9cd5" stroke="#4e9cd5" stroke-width="1.51"></path><path d="M-9,-123L254,-84L301,-80Z" fill="#4b97d1" stroke="#4b97d1" stroke-width="1.51"></path><path d="M321,241L233,295L412,275Z" fill="#0b5fa3" stroke="#0b5fa3" stroke-width="1.51"></path><path d="M-9,-123L301,-80L427,-68Z" fill="#4893ce" stroke="#4893ce" stroke-width="1.51"></path><path d="M416,79L329,75L438,163Z" fill="#1266aa" stroke="#1266aa" stroke-width="1.51"></path><path d="M329,75L297,169L438,163Z" fill="#1265a9" stroke="#1265a9" stroke-width="1.51"></path><path d="M321,241L412,275L438,163Z" fill="#0b5fa3" stroke="#0b5fa3" stroke-width="1.51"></path><path d="M297,169L321,241L438,163Z" fill="#0f62a6" stroke="#0f62a6" stroke-width="1.51"></path><path d="M329,75L416,79L441,-34Z" fill="#2571b3" stroke="#2571b3" stroke-width="1.51"></path><path d="M297,-12L329,75L441,-34Z" fill="#2f79b9" stroke="#2f79b9" stroke-width="1.51"></path><path d="M427,-68L297,-12L441,-34Z" fill="#3981bf" stroke="#3981bf" stroke-width="1.51"></path><path d="M416,79L438,163L441,-34Z" fill="#1a69ac" stroke="#1a69ac" stroke-width="1.51"></path><path d="M301,-80L297,-12L427,-68Z" fill="#3e87c4" stroke="#3e87c4" stroke-width="1.51"></path><path d="M-57,242L-131,259L66,249Z" fill="#3c84c1" stroke="#3c84c1" stroke-width="1.51"></path><path d="M235,84L297,169L329,75Z" fill="#166aae" stroke="#166aae" stroke-width="1.51"></path><path d="M297,-12L234,16L329,75Z" fill="#2b78b9" stroke="#2b78b9" stroke-width="1.51"></path><path d="M234,16L235,84L329,75Z" fill="#2272b5" stroke="#2272b5" stroke-width="1.51"></path><path d="M297,169L229,190L321,241Z" fill="#1165a9" stroke="#1165a9" stroke-width="1.51"></path><path d="M229,190L233,295L321,241Z" fill="#1063a7" stroke="#1063a7" stroke-width="1.51"></path><path d="M235,84L229,190L297,169Z" fill="#1569ad" stroke="#1569ad" stroke-width="1.51"></path><path d="M254,-84L234,16L297,-12Z" fill="#3985c3" stroke="#3985c3" stroke-width="1.51"></path><path d="M254,-84L297,-12L301,-80Z" fill="#408bc7" stroke="#408bc7" stroke-width="1.51"></path><path d="M159,245L66,249L233,295Z" fill="#1367ab" stroke="#1367ab" stroke-width="1.51"></path><path d="M229,190L159,245L233,295Z" fill="#1165a9" stroke="#1165a9" stroke-width="1.51"></path><path d="M145,161L229,190L235,84Z" fill="#176baf" stroke="#176baf" stroke-width="1.51"></path><path d="M160,-35L234,16L254,-84Z" fill="#3c88c6" stroke="#3c88c6" stroke-width="1.51"></path><path d="M156,-83L160,-35L254,-84Z" fill="#4491cd" stroke="#4491cd" stroke-width="1.51"></path><path d="M160,-35L135,106L234,16Z" fill="#2d7cbd" stroke="#2d7cbd" stroke-width="1.51"></path><path d="M135,106L145,161L235,84Z" fill="#196eb2" stroke="#196eb2" stroke-width="1.51"></path><path d="M234,16L135,106L235,84Z" fill="#2173b6" stroke="#2173b6" stroke-width="1.51"></path><path d="M89,60L135,106L160,-35Z" fill="#2e7ebe" stroke="#2e7ebe" stroke-width="1.51"></path><path d="M145,161L159,245L229,190Z" fill="#1569ad" stroke="#1569ad" stroke-width="1.51"></path><path d="M-9,-123L40,-71L156,-83Z" fill="#58a6dc" stroke="#58a6dc" stroke-width="1.51"></path><path d="M145,161L66,249L159,245Z" fill="#1d6db0" stroke="#1d6db0" stroke-width="1.51"></path><path d="M26,-15L89,60L160,-35Z" fill="#3e8cc9" stroke="#3e8cc9" stroke-width="1.51"></path><path d="M156,-83L40,-71L160,-35Z" fill="#4a96d1" stroke="#4a96d1" stroke-width="1.51"></path><path d="M40,-71L26,-15L160,-35Z" fill="#4b98d2" stroke="#4b98d2" stroke-width="1.51"></path><path d="M135,106L52,149L145,161Z" fill="#2374b6" stroke="#2374b6" stroke-width="1.51"></path><path d="M52,149L66,249L145,161Z" fill="#2674b6" stroke="#2674b6" stroke-width="1.51"></path><path d="M89,60L52,149L135,106Z" fill="#2879ba" stroke="#2879ba" stroke-width="1.51"></path><path d="M-2,106L52,149L89,60Z" fill="#3180c0" stroke="#3180c0" stroke-width="1.51"></path><path d="M26,-15L-2,106L89,60Z" fill="#3c8ac8" stroke="#3c8ac8" stroke-width="1.51"></path><path d="M52,149L-50,163L66,249Z" fill="#337ebe" stroke="#337ebe" stroke-width="1.51"></path><path d="M-50,163L-57,242L66,249Z" fill="#3882c0" stroke="#3882c0" stroke-width="1.51"></path><path d="M-60,14L-2,106L26,-15Z" fill="#4895d0" stroke="#4895d0" stroke-width="1.51"></path><path d="M-2,106L-50,163L52,149Z" fill="#3985c3" stroke="#3985c3" stroke-width="1.51"></path><path d="M-9,-123L-88,-85L26,-15Z" fill="#61b0e3" stroke="#61b0e3" stroke-width="1.51"></path><path d="M-9,-123L26,-15L40,-71Z" fill="#59a8de" stroke="#59a8de" stroke-width="1.51"></path><path d="M-88,-85L-60,14L26,-15Z" fill="#5aa8de" stroke="#5aa8de" stroke-width="1.51"></path><path d="M-87,64L-50,163L-2,106Z" fill="#418eca" stroke="#418eca" stroke-width="1.51"></path><path d="M-60,14L-87,64L-2,106Z" fill="#4896d1" stroke="#4896d1" stroke-width="1.51"></path><path d="M-88,-85L-101,3L-60,14Z" fill="#5faee2" stroke="#5faee2" stroke-width="1.51"></path><path d="M-140,164L-131,259L-57,242Z" fill="#4890cb" stroke="#4890cb" stroke-width="1.51"></path><path d="M-140,164L-57,242L-50,163Z" fill="#448eca" stroke="#448eca" stroke-width="1.51"></path><path d="M-87,64L-140,164L-50,163Z" fill="#4894cf" stroke="#4894cf" stroke-width="1.51"></path><path d="M-101,3L-87,64L-60,14Z" fill="#55a2da" stroke="#55a2da" stroke-width="1.51"></path><path d="M-140,164L-101,3L-88,-85Z" fill="#59a7dd" stroke="#59a7dd" stroke-width="1.51"></path><path d="M-101,3L-140,164L-87,64Z" fill="#4e9cd5" stroke="#4e9cd5" stroke-width="1.51"></path></svg>