<svg width="300" height="176" xmlns="http://www.w3.org/2000/svg"><path d="M93,262L-56,290L268,277Z" fill="#206daf" stroke="#206daf" stroke-width="1.51"></path><path d="M316,248L268,277L406,252Z" fill="#0b5fa3" stroke="#0b5fa3" stroke-width="1.51"></path><path d="M431,-35L347,67L443,96Z" fill="#2370b2" stroke="#2370b2" stroke-width="1.51"></path><path d="M347,67L428,183L443,96Z" fill="#1165a9" stroke="#1165a9" stroke-width="1.51"></path><path d="M431,-70L431,-35L443,96Z" fill="#2f78b8" stroke="#2f78b8" stroke-width="1.51"></path><path d="M347,67L300,192L428,183Z" fill="#1165a9" stroke="#1165a9" stroke-width="1.51"></path><path d="M431,-70L357,-111L431,-35Z" fill="#4189c4" stroke="#4189c4" stroke-width="1.51"></path><path d="M357,-111L299,28L431,-35Z" fill="#3a83c0" stroke="#3a83c0" stroke-width="1.51"></path><path d="M299,28L347,67L431,-35Z" fill="#2b77b7" stroke="#2b77b7" stroke-width="1.51"></path><path d="M300,192L406,252L428,183Z" fill="#0c60a4" stroke="#0c60a4" stroke-width="1.51"></path><path d="M262,-35L299,28L357,-111Z" fill="#3b86c3" stroke="#3b86c3" stroke-width="1.51"></path><path d="M300,192L316,248L406,252Z" fill="#0d60a4" stroke="#0d60a4" stroke-width="1.51"></path><path d="M268,77L300,192L347,67Z" fill="#1569ad" stroke="#1569ad" stroke-width="1.51"></path><path d="M206,-126L262,-35L357,-111Z" fill="#4792cd" stroke="#4792cd" stroke-width="1.51"></path><path d="M299,28L268,77L347,67Z" fill="#2271b3" stroke="#2271b3" stroke-width="1.51"></path><path d="M125,249L93,262L268,277Z" fill="#1266aa" stroke="#1266aa" stroke-width="1.51"></path><path d="M268,77L262,190L300,192Z" fill="#1467ab" stroke="#1467ab" stroke-width="1.51"></path><path d="M300,192L262,190L316,248Z" fill="#1064a8" stroke="#1064a8" stroke-width="1.51"></path><path d="M262,190L268,277L316,248Z" fill="#0f62a7" stroke="#0f62a7" stroke-width="1.51"></path><path d="M262,-35L268,77L299,28Z" fill="#2c79ba" stroke="#2c79ba" stroke-width="1.51"></path><path d="M169,198L262,190L268,77Z" fill="#1669ad" stroke="#1669ad" stroke-width="1.51"></path><path d="M128,103L169,198L268,77Z" fill="#196db1" stroke="#196db1" stroke-width="1.51"></path><path d="M262,-35L148,11L268,77Z" fill="#2f7dbd" stroke="#2f7dbd" stroke-width="1.51"></path><path d="M148,11L128,103L268,77Z" fill="#2374b7" stroke="#2374b7" stroke-width="1.51"></path><path d="M262,190L169,198L268,277Z" fill="#1265a9" stroke="#1265a9" stroke-width="1.51"></path><path d="M169,198L125,249L268,277Z" fill="#1366aa" stroke="#1366aa" stroke-width="1.51"></path><path d="M206,-126L145,-93L262,-35Z" fill="#4893cf" stroke="#4893cf" stroke-width="1.51"></path><path d="M145,-93L148,11L262,-35Z" fill="#3e8bc8" stroke="#3e8bc8" stroke-width="1.51"></path><path d="M81,-114L145,-93L206,-126Z" fill="#4f9dd6" stroke="#4f9dd6" stroke-width="1.51"></path><path d="M128,103L87,193L169,198Z" fill="#1e70b3" stroke="#1e70b3" stroke-width="1.51"></path><path d="M87,193L125,249L169,198Z" fill="#1c6db0" stroke="#1c6db0" stroke-width="1.51"></path><path d="M-132,-68L-10,-64L81,-114Z" fill="#62b1e5" stroke="#62b1e5" stroke-width="1.51"></path><path d="M81,-114L41,5L145,-93Z" fill="#4e9cd5" stroke="#4e9cd5" stroke-width="1.51"></path><path d="M145,-93L41,5L148,11Z" fill="#428fcc" stroke="#428fcc" stroke-width="1.51"></path><path d="M41,5L128,103L148,11Z" fill="#3482c2" stroke="#3482c2" stroke-width="1.51"></path><path d="M41,5L48,113L128,103Z" fill="#3180c0" stroke="#3180c0" stroke-width="1.51"></path><path d="M87,193L93,262L125,249Z" fill="#2270b2" stroke="#2270b2" stroke-width="1.51"></path><path d="M48,113L87,193L128,103Z" fill="#2877b9" stroke="#2877b9" stroke-width="1.51"></path><path d="M41,5L0,94L48,113Z" fill="#3987c6" stroke="#3987c6" stroke-width="1.51"></path><path d="M-10,-64L41,5L81,-114Z" fill="#55a2da" stroke="#55a2da" stroke-width="1.51"></path><path d="M-63,179L-56,290L87,193Z" fill="#3882c0" stroke="#3882c0" stroke-width="1.51"></path><path d="M87,193L-56,290L93,262Z" fill="#2d77b8" stroke="#2d77b8" stroke-width="1.51"></path><path d="M48,113L-63,179L87,193Z" fill="#3480bf" stroke="#3480bf" stroke-width="1.51"></path><path d="M-20,23L0,94L41,5Z" fill="#4491cd" stroke="#4491cd" stroke-width="1.51"></path><path d="M0,94L-63,179L48,113Z" fill="#3986c4" stroke="#3986c4" stroke-width="1.51"></path><path d="M-10,-64L-20,23L41,5Z" fill="#509dd6" stroke="#509dd6" stroke-width="1.51"></path><path d="M-131,4L-20,23L-10,-64Z" fill="#58a7dd" stroke="#58a7dd" stroke-width="1.51"></path><path d="M-105,161L-63,179L0,94Z" fill="#428dc9" stroke="#428dc9" stroke-width="1.51"></path><path d="M-130,114L-105,161L0,94Z" fill="#4692cd" stroke="#4692cd" stroke-width="1.51"></path><path d="M-20,23L-130,114L0,94Z" fill="#4592ce" stroke="#4592ce" stroke-width="1.51"></path><path d="M-63,179L-93,279L-56,290Z" fill="#4189c5" stroke="#4189c5" stroke-width="1.51"></path><path d="M-132,-68L-131,4L-10,-64Z" fill="#64b3e6" stroke="#64b3e6" stroke-width="1.51"></path><path d="M-131,4L-130,114L-20,23Z" fill="#529fd8" stroke="#529fd8" stroke-width="1.51"></path><path d="M-105,161L-93,279L-63,179Z" fill="#458ec9" stroke="#458ec9" stroke-width="1.51"></path><path d="M-105,161L-130,114L-93,279Z" fill="#4993ce" stroke="#4993ce" stroke-width="1.51"></path></svg>