<svg width="300" height="176" xmlns="http://www.w3.org/2000/svg"><path d="M170,263L46,293L296,273Z" fill="#1165a9" stroke="#1165a9" stroke-width="1.51"></path><path d="M83,-103L183,-96L306,-98Z" fill="#4da8d2" stroke="#4da8d2" stroke-width="1.51"></path><path d="M345,0L434,72L441,0Z" fill="#2b79b5" stroke="#2b79b5" stroke-width="1.51"></path><path d="M434,72L358,114L450,178Z" fill="#1064a8" stroke="#1064a8" stroke-width="1.51"></path><path d="M352,204L437,248L450,178Z" fill="#0b5fa3" stroke="#0b5fa3" stroke-width="1.51"></path><path d="M358,114L352,204L450,178Z" fill="#0f62a6" stroke="#0f62a6" stroke-width="1.51"></path><path d="M441,0L434,72L450,178Z" fill="#1366aa" stroke="#1366aa" stroke-width="1.51"></path><path d="M352,204L296,273L437,248Z" fill="#0b5fa3" stroke="#0b5fa3" stroke-width="1.51"></path><path d="M397,-83L345,0L441,0Z" fill="#3989be" stroke="#3989be" stroke-width="1.51"></path><path d="M345,0L358,114L434,72Z" fill="#1e6fb0" stroke="#1e6fb0" stroke-width="1.51"></path><path d="M306,-98L345,0L397,-83Z" fill="#4194c5" stroke="#4194c5" stroke-width="1.51"></path><path d="M252,255L170,263L296,273Z" fill="#0f63a7" stroke="#0f63a7" stroke-width="1.51"></path><path d="M261,-25L227,95L345,0Z" fill="#2e7fba" stroke="#2e7fba" stroke-width="1.51"></path><path d="M306,-98L261,-25L345,0Z" fill="#3e91c3" stroke="#3e91c3" stroke-width="1.51"></path><path d="M345,0L227,95L358,114Z" fill="#1e70b1" stroke="#1e70b1" stroke-width="1.51"></path><path d="M267,198L352,204L358,114Z" fill="#1164a8" stroke="#1164a8" stroke-width="1.51"></path><path d="M227,95L267,198L358,114Z" fill="#1568ac" stroke="#1568ac" stroke-width="1.51"></path><path d="M267,198L296,273L352,204Z" fill="#0f62a6" stroke="#0f62a6" stroke-width="1.51"></path><path d="M267,198L252,255L296,273Z" fill="#0f63a7" stroke="#0f63a7" stroke-width="1.51"></path><path d="M210,-69L261,-25L306,-98Z" fill="#449ac9" stroke="#449ac9" stroke-width="1.51"></path><path d="M183,-96L210,-69L306,-98Z" fill="#4aa2ce" stroke="#4aa2ce" stroke-width="1.51"></path><path d="M176,67L227,95L261,-25Z" fill="#287ab9" stroke="#287ab9" stroke-width="1.51"></path><path d="M163,208L252,255L267,198Z" fill="#1266aa" stroke="#1266aa" stroke-width="1.51"></path><path d="M227,95L163,208L267,198Z" fill="#1569ad" stroke="#1569ad" stroke-width="1.51"></path><path d="M210,-69L133,29L261,-25Z" fill="#3c90c5" stroke="#3c90c5" stroke-width="1.51"></path><path d="M133,29L176,67L261,-25Z" fill="#3082be" stroke="#3082be" stroke-width="1.51"></path><path d="M163,208L170,263L252,255Z" fill="#1266aa" stroke="#1266aa" stroke-width="1.51"></path><path d="M176,67L163,208L227,95Z" fill="#196db1" stroke="#196db1" stroke-width="1.51"></path><path d="M72,101L163,208L176,67Z" fill="#1d71b4" stroke="#1d71b4" stroke-width="1.51"></path><path d="M183,-96L133,29L210,-69Z" fill="#4298ca" stroke="#4298ca" stroke-width="1.51"></path><path d="M72,101L53,167L163,208Z" fill="#2678b7" stroke="#2678b7" stroke-width="1.51"></path><path d="M72,2L133,29L183,-96Z" fill="#4096ca" stroke="#4096ca" stroke-width="1.51"></path><path d="M83,-103L72,2L183,-96Z" fill="#4da8d3" stroke="#4da8d3" stroke-width="1.51"></path><path d="M133,29L72,101L176,67Z" fill="#297cbb" stroke="#297cbb" stroke-width="1.51"></path><path d="M163,208L46,293L170,263Z" fill="#1b6cae" stroke="#1b6cae" stroke-width="1.51"></path><path d="M53,167L46,293L163,208Z" fill="#2676b4" stroke="#2676b4" stroke-width="1.51"></path><path d="M72,2L72,101L133,29Z" fill="#378ac3" stroke="#378ac3" stroke-width="1.51"></path><path d="M0,201L46,293L53,167Z" fill="#3282bb" stroke="#3282bb" stroke-width="1.51"></path><path d="M72,2L-17,81L72,101Z" fill="#3b90c6" stroke="#3b90c6" stroke-width="1.51"></path><path d="M-8,-15L72,2L83,-103Z" fill="#50add6" stroke="#50add6" stroke-width="1.51"></path><path d="M-57,-95L-8,-15L83,-103Z" fill="#5dc1e0" stroke="#5dc1e0" stroke-width="1.51"></path><path d="M-8,-15L-17,81L72,2Z" fill="#48a1cf" stroke="#48a1cf" stroke-width="1.51"></path><path d="M-17,81L53,167L72,101Z" fill="#3588c1" stroke="#3588c1" stroke-width="1.51"></path><path d="M0,201L-56,290L46,293Z" fill="#3787bd" stroke="#3787bd" stroke-width="1.51"></path><path d="M-17,81L0,201L53,167Z" fill="#388bc1" stroke="#388bc1" stroke-width="1.51"></path><path d="M-132,58L-17,81L-8,-15Z" fill="#4eabd4" stroke="#4eabd4" stroke-width="1.51"></path><path d="M-17,81L-114,156L0,201Z" fill="#4297c8" stroke="#4297c8" stroke-width="1.51"></path><path d="M-114,156L-56,290L0,201Z" fill="#4195c6" stroke="#4195c6" stroke-width="1.51"></path><path d="M-114,156L-143,252L-56,290Z" fill="#499fca" stroke="#499fca" stroke-width="1.51"></path><path d="M-57,-95L-103,-87L-8,-15Z" fill="#65cee6" stroke="#65cee6" stroke-width="1.51"></path><path d="M-103,-87L-144,0L-8,-15Z" fill="#62cae5" stroke="#62cae5" stroke-width="1.51"></path><path d="M-144,0L-132,58L-8,-15Z" fill="#5abdde" stroke="#5abdde" stroke-width="1.51"></path><path d="M-132,58L-114,156L-17,81Z" fill="#4aa3d0" stroke="#4aa3d0" stroke-width="1.51"></path><path d="M-132,58L-143,252L-114,156Z" fill="#4ea9d2" stroke="#4ea9d2" stroke-width="1.51"></path><path d="M-144,0L-143,252L-132,58Z" fill="#52afd6" stroke="#52afd6" stroke-width="1.51"></path></svg>