<svg width="300" height="176" xmlns="http://www.w3.org/2000/svg"><path d="M85,-109L144,-86L269,-78Z" fill="#4ca6d2" stroke="#4ca6d2" stroke-width="1.51"></path><path d="M250,264L63,288L298,272Z" fill="#1063a8" stroke="#1063a8" stroke-width="1.51"></path><path d="M85,-109L269,-78L352,-87Z" fill="#4aa3cf" stroke="#4aa3cf" stroke-width="1.51"></path><path d="M298,272L63,288L437,278Z" fill="#0d61a5" stroke="#0d61a5" stroke-width="1.51"></path><path d="M386,155L347,174L437,278Z" fill="#0c60a4" stroke="#0c60a4" stroke-width="1.51"></path><path d="M347,174L298,272L437,278Z" fill="#0b5fa3" stroke="#0b5fa3" stroke-width="1.51"></path><path d="M406,92L386,155L437,278Z" fill="#0d61a5" stroke="#0d61a5" stroke-width="1.51"></path><path d="M412,-60L301,8L442,-33Z" fill="#3989be" stroke="#3989be" stroke-width="1.51"></path><path d="M301,8L406,92L442,-33Z" fill="#2c7ab6" stroke="#2c7ab6" stroke-width="1.51"></path><path d="M406,92L437,278L442,-33Z" fill="#1064a8" stroke="#1064a8" stroke-width="1.51"></path><path d="M301,8L308,85L406,92Z" fill="#2070b1" stroke="#2070b1" stroke-width="1.51"></path><path d="M352,-87L301,8L412,-60Z" fill="#3e90c2" stroke="#3e90c2" stroke-width="1.51"></path><path d="M308,85L386,155L406,92Z" fill="#1366aa" stroke="#1366aa" stroke-width="1.51"></path><path d="M308,85L347,174L386,155Z" fill="#1166aa" stroke="#1166aa" stroke-width="1.51"></path><path d="M144,253L63,288L250,264Z" fill="#1266aa" stroke="#1266aa" stroke-width="1.51"></path><path d="M308,85L265,191L347,174Z" fill="#1367ab" stroke="#1367ab" stroke-width="1.51"></path><path d="M265,191L298,272L347,174Z" fill="#1063a8" stroke="#1063a8" stroke-width="1.51"></path><path d="M269,-78L301,8L352,-87Z" fill="#4194c5" stroke="#4194c5" stroke-width="1.51"></path><path d="M265,191L250,264L298,272Z" fill="#0f63a7" stroke="#0f63a7" stroke-width="1.51"></path><path d="M269,-78L233,-17L301,8Z" fill="#3b8ec3" stroke="#3b8ec3" stroke-width="1.51"></path><path d="M301,8L229,55L308,85Z" fill="#2677b6" stroke="#2677b6" stroke-width="1.51"></path><path d="M229,55L265,191L308,85Z" fill="#166aae" stroke="#166aae" stroke-width="1.51"></path><path d="M233,-17L229,55L301,8Z" fill="#3182bc" stroke="#3182bc" stroke-width="1.51"></path><path d="M229,55L170,76L265,191Z" fill="#186db1" stroke="#186db1" stroke-width="1.51"></path><path d="M170,76L127,145L265,191Z" fill="#186cb0" stroke="#186cb0" stroke-width="1.51"></path><path d="M144,253L250,264L265,191Z" fill="#1165a9" stroke="#1165a9" stroke-width="1.51"></path><path d="M144,-86L233,-17L269,-78Z" fill="#449bcb" stroke="#449bcb" stroke-width="1.51"></path><path d="M127,145L144,253L265,191Z" fill="#1569ad" stroke="#1569ad" stroke-width="1.51"></path><path d="M170,76L229,55L233,-17Z" fill="#2b7dba" stroke="#2b7dba" stroke-width="1.51"></path><path d="M132,-19L170,76L233,-17Z" fill="#3386c0" stroke="#3386c0" stroke-width="1.51"></path><path d="M144,-86L132,-19L233,-17Z" fill="#4197c9" stroke="#4197c9" stroke-width="1.51"></path><path d="M-134,-85L-46,-70L85,-109Z" fill="#65cfe8" stroke="#65cfe8" stroke-width="1.51"></path><path d="M127,145L76,193L144,253Z" fill="#2071b2" stroke="#2071b2" stroke-width="1.51"></path><path d="M132,-19L27,98L170,76Z" fill="#3184bf" stroke="#3184bf" stroke-width="1.51"></path><path d="M27,98L127,145L170,76Z" fill="#2679b9" stroke="#2679b9" stroke-width="1.51"></path><path d="M52,-29L27,98L132,-19Z" fill="#4197ca" stroke="#4197ca" stroke-width="1.51"></path><path d="M85,-109L52,-29L132,-19Z" fill="#4da9d3" stroke="#4da9d3" stroke-width="1.51"></path><path d="M85,-109L132,-19L144,-86Z" fill="#4da7d3" stroke="#4da7d3" stroke-width="1.51"></path><path d="M76,193L63,288L144,253Z" fill="#2474b2" stroke="#2474b2" stroke-width="1.51"></path><path d="M27,98L76,193L127,145Z" fill="#2b7dba" stroke="#2b7dba" stroke-width="1.51"></path><path d="M-12,-24L27,98L52,-29Z" fill="#49a2d0" stroke="#49a2d0" stroke-width="1.51"></path><path d="M27,98L1,156L76,193Z" fill="#3486bf" stroke="#3486bf" stroke-width="1.51"></path><path d="M-48,272L63,288L76,193Z" fill="#3180b9" stroke="#3180b9" stroke-width="1.51"></path><path d="M1,156L-48,272L76,193Z" fill="#3788be" stroke="#3788be" stroke-width="1.51"></path><path d="M-46,-70L52,-29L85,-109Z" fill="#59bbdd" stroke="#59bbdd" stroke-width="1.51"></path><path d="M-46,-70L-12,-24L52,-29Z" fill="#58b9dc" stroke="#58b9dc" stroke-width="1.51"></path><path d="M-12,-24L-38,110L27,98Z" fill="#449bcc" stroke="#449bcc" stroke-width="1.51"></path><path d="M-38,110L1,156L27,98Z" fill="#3b90c5" stroke="#3b90c5" stroke-width="1.51"></path><path d="M-153,161L-100,252L-38,110Z" fill="#49a1cd" stroke="#49a1cd" stroke-width="1.51"></path><path d="M-105,-26L-38,110L-12,-24Z" fill="#53b2d7" stroke="#53b2d7" stroke-width="1.51"></path><path d="M-38,110L-100,252L1,156Z" fill="#4196c7" stroke="#4196c7" stroke-width="1.51"></path><path d="M-100,252L-48,272L1,156Z" fill="#4093c4" stroke="#4093c4" stroke-width="1.51"></path><path d="M-105,-26L-151,56L-38,110Z" fill="#54b3d9" stroke="#54b3d9" stroke-width="1.51"></path><path d="M-46,-70L-105,-26L-12,-24Z" fill="#60c5e2" stroke="#60c5e2" stroke-width="1.51"></path><path d="M-151,56L-153,161L-38,110Z" fill="#4da9d3" stroke="#4da9d3" stroke-width="1.51"></path><path d="M-134,-85L-105,-26L-46,-70Z" fill="#69d5ea" stroke="#69d5ea" stroke-width="1.51"></path><path d="M-134,-85L-151,56L-105,-26Z" fill="#65d0e7" stroke="#65d0e7" stroke-width="1.51"></path></svg>