<svg width="300" height="176" xmlns="http://www.w3.org/2000/svg"><path d="M155,94L146,192L212,102Z" fill="#196db1" stroke="#196db1" stroke-width="1.51"></path><path d="M146,192L255,209L212,102Z" fill="#156aae" stroke="#156aae" stroke-width="1.51"></path><path d="M150,238L255,209L146,192Z" fill="#1468ac" stroke="#1468ac" stroke-width="1.51"></path><path d="M146,192L64,258L150,238Z" fill="#1e6fb0" stroke="#1e6fb0" stroke-width="1.51"></path><path d="M155,94L63,178L146,192Z" fill="#2173b4" stroke="#2173b4" stroke-width="1.51"></path><path d="M155,94L66,84L63,178Z" fill="#287ab9" stroke="#287ab9" stroke-width="1.51"></path><path d="M150,238L240,275L255,209Z" fill="#1265a9" stroke="#1265a9" stroke-width="1.51"></path><path d="M255,209L321,165L212,102Z" fill="#1468ac" stroke="#1468ac" stroke-width="1.51"></path><path d="M337,263L321,165L255,209Z" fill="#1063a8" stroke="#1063a8" stroke-width="1.51"></path><path d="M63,178L64,258L146,192Z" fill="#2676b5" stroke="#2676b5" stroke-width="1.51"></path><path d="M150,238L64,258L240,275Z" fill="#1367ab" stroke="#1367ab" stroke-width="1.51"></path><path d="M212,102L232,-8L155,94Z" fill="#2476b7" stroke="#2476b7" stroke-width="1.51"></path><path d="M321,165L336,119L212,102Z" fill="#1468ac" stroke="#1468ac" stroke-width="1.51"></path><path d="M155,94L143,-16L66,84Z" fill="#2e81be" stroke="#2e81be" stroke-width="1.51"></path><path d="M304,-14L232,-8L212,102Z" fill="#2e7fbb" stroke="#2e7fbb" stroke-width="1.51"></path><path d="M232,-8L143,-16L155,94Z" fill="#3083be" stroke="#3083be" stroke-width="1.51"></path><path d="M452,172L407,79L336,119Z" fill="#1164a8" stroke="#1164a8" stroke-width="1.51"></path><path d="M240,275L337,263L255,209Z" fill="#0e62a6" stroke="#0e62a6" stroke-width="1.51"></path><path d="M336,119L304,-14L212,102Z" fill="#1f71b2" stroke="#1f71b2" stroke-width="1.51"></path><path d="M232,-8L254,-90L143,-16Z" fill="#3f94c7" stroke="#3f94c7" stroke-width="1.51"></path><path d="M66,84L-44,186L63,178Z" fill="#3587c0" stroke="#3587c0" stroke-width="1.51"></path><path d="M63,178L-44,186L64,258Z" fill="#3384bc" stroke="#3384bc" stroke-width="1.51"></path><path d="M143,-16L43,-16L66,84Z" fill="#3f94c9" stroke="#3f94c9" stroke-width="1.51"></path><path d="M-46,65L-44,186L66,84Z" fill="#3d91c6" stroke="#3d91c6" stroke-width="1.51"></path><path d="M-13,-10L-46,65L66,84Z" fill="#459dcd" stroke="#459dcd" stroke-width="1.51"></path><path d="M336,119L407,79L304,-14Z" fill="#2070b1" stroke="#2070b1" stroke-width="1.51"></path><path d="M452,172L336,119L321,165Z" fill="#1064a8" stroke="#1064a8" stroke-width="1.51"></path><path d="M-44,186L-18,287L64,258Z" fill="#3787bd" stroke="#3787bd" stroke-width="1.51"></path><path d="M64,258L-18,287L240,275Z" fill="#2371b1" stroke="#2371b1" stroke-width="1.51"></path><path d="M43,-16L-13,-10L66,84Z" fill="#479fcf" stroke="#479fcf" stroke-width="1.51"></path><path d="M143,-16L27,-64L43,-16Z" fill="#4ca6d2" stroke="#4ca6d2" stroke-width="1.51"></path><path d="M43,-16L27,-64L-13,-10Z" fill="#53b1d8" stroke="#53b1d8" stroke-width="1.51"></path><path d="M304,-14L254,-90L232,-8Z" fill="#3e92c5" stroke="#3e92c5" stroke-width="1.51"></path><path d="M319,-98L254,-90L304,-14Z" fill="#4499c8" stroke="#4499c8" stroke-width="1.51"></path><path d="M138,-120L27,-64L143,-16Z" fill="#4eaad4" stroke="#4eaad4" stroke-width="1.51"></path><path d="M254,-90L138,-120L143,-16Z" fill="#48a1cf" stroke="#48a1cf" stroke-width="1.51"></path><path d="M337,263L452,172L321,165Z" fill="#0d61a5" stroke="#0d61a5" stroke-width="1.51"></path><path d="M423,-25L319,-98L304,-14Z" fill="#3e90c3" stroke="#3e90c3" stroke-width="1.51"></path><path d="M254,-90L319,-98L138,-120Z" fill="#4da7d1" stroke="#4da7d1" stroke-width="1.51"></path><path d="M27,-64L-16,-66L-13,-10Z" fill="#59bbdd" stroke="#59bbdd" stroke-width="1.51"></path><path d="M-135,-33L-131,65L-46,65Z" fill="#58b9dc" stroke="#58b9dc" stroke-width="1.51"></path><path d="M138,-120L-16,-66L27,-64Z" fill="#59bbdd" stroke="#59bbdd" stroke-width="1.51"></path><path d="M407,79L423,-25L304,-14Z" fill="#2e7db8" stroke="#2e7db8" stroke-width="1.51"></path><path d="M452,172L423,-25L407,79Z" fill="#1869ab" stroke="#1869ab" stroke-width="1.51"></path><path d="M-18,287L446,294L240,275Z" fill="#0e62a6" stroke="#0e62a6" stroke-width="1.51"></path><path d="M240,275L446,294L337,263Z" fill="#0a5ea2" stroke="#0a5ea2" stroke-width="1.51"></path><path d="M337,263L446,294L452,172Z" fill="#085da1" stroke="#085da1" stroke-width="1.51"></path><path d="M-131,65L-44,186L-46,65Z" fill="#47a0ce" stroke="#47a0ce" stroke-width="1.51"></path><path d="M-131,65L-136,199L-44,186Z" fill="#4ba4cf" stroke="#4ba4cf" stroke-width="1.51"></path><path d="M-44,186L-134,249L-18,287Z" fill="#4296c5" stroke="#4296c5" stroke-width="1.51"></path><path d="M-135,-33L-46,65L-13,-10Z" fill="#57b8dc" stroke="#57b8dc" stroke-width="1.51"></path><path d="M-136,199L-134,249L-44,186Z" fill="#49a0cc" stroke="#49a0cc" stroke-width="1.51"></path><path d="M423,-25L436,-94L319,-98Z" fill="#4396c5" stroke="#4396c5" stroke-width="1.51"></path><path d="M319,-98L436,-94L138,-120Z" fill="#4ca5ce" stroke="#4ca5ce" stroke-width="1.51"></path><path d="M452,172L436,-94L423,-25Z" fill="#2c79b4" stroke="#2c79b4" stroke-width="1.51"></path><path d="M-16,-66L-135,-33L-13,-10Z" fill="#5fc4e2" stroke="#5fc4e2" stroke-width="1.51"></path><path d="M-131,65L-135,-33L-136,199Z" fill="#53b2d9" stroke="#53b2d9" stroke-width="1.51"></path><path d="M-128,-119L-135,-33L-16,-66Z" fill="#6bd8ec" stroke="#6bd8ec" stroke-width="1.51"></path><path d="M138,-120L-128,-119L-16,-66Z" fill="#64cde6" stroke="#64cde6" stroke-width="1.51"></path></svg>