<svg width="300" height="176" xmlns="http://www.w3.org/2000/svg"><path d="M-154,-76L-6,-72L90,-83Z" fill="#61b0e4" stroke="#61b0e4" stroke-width="1.51"></path><path d="M90,-83L241,-90L340,-107Z" fill="#4995cf" stroke="#4995cf" stroke-width="1.51"></path><path d="M-154,-76L90,-83L340,-107Z" fill="#53a0d8" stroke="#53a0d8" stroke-width="1.51"></path><path d="M156,283L-51,299L343,287Z" fill="#1165a9" stroke="#1165a9" stroke-width="1.51"></path><path d="M219,275L156,283L343,287Z" fill="#0e62a6" stroke="#0e62a6" stroke-width="1.51"></path><path d="M353,148L412,193L415,85Z" fill="#1064a8" stroke="#1064a8" stroke-width="1.51"></path><path d="M418,-97L345,-23L427,-3Z" fill="#3a82c0" stroke="#3a82c0" stroke-width="1.51"></path><path d="M412,193L343,287L447,286Z" fill="#085da1" stroke="#085da1" stroke-width="1.51"></path><path d="M427,-3L415,85L447,286Z" fill="#0f63a7" stroke="#0f63a7" stroke-width="1.51"></path><path d="M415,85L412,193L447,286Z" fill="#0b5fa3" stroke="#0b5fa3" stroke-width="1.51"></path><path d="M345,-23L301,54L415,85Z" fill="#2673b4" stroke="#2673b4" stroke-width="1.51"></path><path d="M340,-107L345,-23L418,-97Z" fill="#428bc7" stroke="#428bc7" stroke-width="1.51"></path><path d="M345,-23L415,85L427,-3Z" fill="#2a75b6" stroke="#2a75b6" stroke-width="1.51"></path><path d="M353,148L343,287L412,193Z" fill="#0d61a5" stroke="#0d61a5" stroke-width="1.51"></path><path d="M301,54L353,148L415,85Z" fill="#1468ac" stroke="#1468ac" stroke-width="1.51"></path><path d="M234,172L219,275L343,287Z" fill="#0f63a7" stroke="#0f63a7" stroke-width="1.51"></path><path d="M340,-107L241,-90L345,-23Z" fill="#438dc9" stroke="#438dc9" stroke-width="1.51"></path><path d="M301,54L236,86L353,148Z" fill="#166aae" stroke="#166aae" stroke-width="1.51"></path><path d="M236,86L234,172L353,148Z" fill="#1569ad" stroke="#1569ad" stroke-width="1.51"></path><path d="M234,172L343,287L353,148Z" fill="#1064a8" stroke="#1064a8" stroke-width="1.51"></path><path d="M228,11L301,54L345,-23Z" fill="#2f7bbb" stroke="#2f7bbb" stroke-width="1.51"></path><path d="M241,-90L228,11L345,-23Z" fill="#3b86c4" stroke="#3b86c4" stroke-width="1.51"></path><path d="M228,11L236,86L301,54Z" fill="#2574b6" stroke="#2574b6" stroke-width="1.51"></path><path d="M179,158L156,283L219,275Z" fill="#1366ab" stroke="#1366ab" stroke-width="1.51"></path><path d="M179,158L219,275L234,172Z" fill="#1468ac" stroke="#1468ac" stroke-width="1.51"></path><path d="M228,11L178,31L236,86Z" fill="#2878ba" stroke="#2878ba" stroke-width="1.51"></path><path d="M179,158L234,172L236,86Z" fill="#176baf" stroke="#176baf" stroke-width="1.51"></path><path d="M90,-83L152,-61L241,-90Z" fill="#4794cf" stroke="#4794cf" stroke-width="1.51"></path><path d="M152,-61L228,11L241,-90Z" fill="#3f8bc8" stroke="#3f8bc8" stroke-width="1.51"></path><path d="M152,-61L178,31L228,11Z" fill="#3784c3" stroke="#3784c3" stroke-width="1.51"></path><path d="M178,31L156,66L236,86Z" fill="#2475b8" stroke="#2475b8" stroke-width="1.51"></path><path d="M156,66L179,158L236,86Z" fill="#196eb2" stroke="#196eb2" stroke-width="1.51"></path><path d="M62,100L70,146L156,66Z" fill="#2878ba" stroke="#2878ba" stroke-width="1.51"></path><path d="M32,250L-51,299L156,283Z" fill="#2c75b6" stroke="#2c75b6" stroke-width="1.51"></path><path d="M70,146L32,250L156,283Z" fill="#2572b4" stroke="#2572b4" stroke-width="1.51"></path><path d="M30,19L156,66L178,31Z" fill="#3180c0" stroke="#3180c0" stroke-width="1.51"></path><path d="M152,-61L30,19L178,31Z" fill="#3b89c7" stroke="#3b89c7" stroke-width="1.51"></path><path d="M70,146L156,283L179,158Z" fill="#1b6db0" stroke="#1b6db0" stroke-width="1.51"></path><path d="M156,66L70,146L179,158Z" fill="#1e71b4" stroke="#1e71b4" stroke-width="1.51"></path><path d="M90,-83L30,19L152,-61Z" fill="#4996d1" stroke="#4996d1" stroke-width="1.51"></path><path d="M30,19L62,100L156,66Z" fill="#3281c1" stroke="#3281c1" stroke-width="1.51"></path><path d="M-6,-72L30,19L90,-83Z" fill="#529fd7" stroke="#529fd7" stroke-width="1.51"></path><path d="M30,19L-7,71L62,100Z" fill="#3b89c7" stroke="#3b89c7" stroke-width="1.51"></path><path d="M-48,172L32,250L70,146Z" fill="#347fbe" stroke="#347fbe" stroke-width="1.51"></path><path d="M62,100L-7,71L70,146Z" fill="#3280c0" stroke="#3280c0" stroke-width="1.51"></path><path d="M-7,71L-48,172L70,146Z" fill="#3885c3" stroke="#3885c3" stroke-width="1.51"></path><path d="M-6,-72L-46,13L30,19Z" fill="#529fd8" stroke="#529fd8" stroke-width="1.51"></path><path d="M-48,172L-51,299L32,250Z" fill="#3982c0" stroke="#3982c0" stroke-width="1.51"></path><path d="M-46,13L-7,71L30,19Z" fill="#4795d0" stroke="#4795d0" stroke-width="1.51"></path><path d="M-110,198L-51,299L-48,172Z" fill="#418ac6" stroke="#418ac6" stroke-width="1.51"></path><path d="M-148,109L-48,172L-7,71Z" fill="#4491cd" stroke="#4491cd" stroke-width="1.51"></path><path d="M-154,-76L-96,-33L-6,-72Z" fill="#67b6e8" stroke="#67b6e8" stroke-width="1.51"></path><path d="M-96,-33L-46,13L-6,-72Z" fill="#5caadf" stroke="#5caadf" stroke-width="1.51"></path><path d="M-46,13L-148,109L-7,71Z" fill="#4a97d2" stroke="#4a97d2" stroke-width="1.51"></path><path d="M-110,198L-151,295L-51,299Z" fill="#458ec8" stroke="#458ec8" stroke-width="1.51"></path><path d="M-148,109L-110,198L-48,172Z" fill="#4994ce" stroke="#4994ce" stroke-width="1.51"></path><path d="M-96,-33L-148,109L-46,13Z" fill="#56a4db" stroke="#56a4db" stroke-width="1.51"></path><path d="M-154,-76L-148,109L-96,-33Z" fill="#61b1e4" stroke="#61b1e4" stroke-width="1.51"></path><path d="M-148,109L-151,295L-110,198Z" fill="#4c96cf" stroke="#4c96cf" stroke-width="1.51"></path><path d="M-154,-76L-151,295L-148,109Z" fill="#519ed7" stroke="#519ed7" stroke-width="1.51"></path></svg>