<svg width="300" height="176" xmlns="http://www.w3.org/2000/svg"><path d="M176,60L251,14L162,20Z" fill="#2d80bc" stroke="#2d80bc" stroke-width="1.51"></path><path d="M176,60L256,86L251,14Z" fill="#2677b7" stroke="#2677b7" stroke-width="1.51"></path><path d="M251,14L159,-95L162,20Z" fill="#3b90c5" stroke="#3b90c5" stroke-width="1.51"></path><path d="M256,86L308,119L251,14Z" fill="#1d70b2" stroke="#1d70b2" stroke-width="1.51"></path><path d="M261,167L308,119L256,86Z" fill="#156aae" stroke="#156aae" stroke-width="1.51"></path><path d="M176,60L141,153L256,86Z" fill="#196fb3" stroke="#196fb3" stroke-width="1.51"></path><path d="M162,20L80,91L176,60Z" fill="#297cbc" stroke="#297cbc" stroke-width="1.51"></path><path d="M56,-5L80,91L162,20Z" fill="#378bc4" stroke="#378bc4" stroke-width="1.51"></path><path d="M80,91L141,153L176,60Z" fill="#2073b6" stroke="#2073b6" stroke-width="1.51"></path><path d="M300,-117L228,-115L251,14Z" fill="#469ccb" stroke="#469ccb" stroke-width="1.51"></path><path d="M251,14L228,-115L159,-95Z" fill="#459dcb" stroke="#459dcb" stroke-width="1.51"></path><path d="M141,153L261,167L256,86Z" fill="#176baf" stroke="#176baf" stroke-width="1.51"></path><path d="M308,119L351,-23L251,14Z" fill="#2979b7" stroke="#2979b7" stroke-width="1.51"></path><path d="M159,-95L56,-5L162,20Z" fill="#4298cb" stroke="#4298cb" stroke-width="1.51"></path><path d="M308,119L406,-8L351,-23Z" fill="#2a7ab6" stroke="#2a7ab6" stroke-width="1.51"></path><path d="M261,167L315,147L308,119Z" fill="#1467ab" stroke="#1467ab" stroke-width="1.51"></path><path d="M351,-23L300,-117L251,14Z" fill="#3e91c4" stroke="#3e91c4" stroke-width="1.51"></path><path d="M300,-117L90,-123L228,-115Z" fill="#51add4" stroke="#51add4" stroke-width="1.51"></path><path d="M228,-115L90,-123L159,-95Z" fill="#50add5" stroke="#50add5" stroke-width="1.51"></path><path d="M159,-95L90,-123L56,-5Z" fill="#50acd5" stroke="#50acd5" stroke-width="1.51"></path><path d="M436,114L406,-8L308,119Z" fill="#196bad" stroke="#196bad" stroke-width="1.51"></path><path d="M351,-23L429,-120L300,-117Z" fill="#479dc9" stroke="#479dc9" stroke-width="1.51"></path><path d="M90,-123L2,-16L56,-5Z" fill="#52b0d7" stroke="#52b0d7" stroke-width="1.51"></path><path d="M56,-5L-18,94L80,91Z" fill="#3c90c6" stroke="#3c90c6" stroke-width="1.51"></path><path d="M261,167L301,235L315,147Z" fill="#1265a9" stroke="#1265a9" stroke-width="1.51"></path><path d="M141,153L156,235L261,167Z" fill="#166aae" stroke="#166aae" stroke-width="1.51"></path><path d="M67,190L156,235L141,153Z" fill="#1f71b2" stroke="#1f71b2" stroke-width="1.51"></path><path d="M67,190L141,153L80,91Z" fill="#2779b8" stroke="#2779b8" stroke-width="1.51"></path><path d="M-18,94L67,190L80,91Z" fill="#3386bf" stroke="#3386bf" stroke-width="1.51"></path><path d="M220,291L301,235L261,167Z" fill="#1064a8" stroke="#1064a8" stroke-width="1.51"></path><path d="M416,155L436,114L308,119Z" fill="#1164a8" stroke="#1164a8" stroke-width="1.51"></path><path d="M2,-16L-18,94L56,-5Z" fill="#49a1d0" stroke="#49a1d0" stroke-width="1.51"></path><path d="M416,155L308,119L315,147Z" fill="#1266aa" stroke="#1266aa" stroke-width="1.51"></path><path d="M396,252L416,155L315,147Z" fill="#0e62a6" stroke="#0e62a6" stroke-width="1.51"></path><path d="M51,250L220,291L156,235Z" fill="#1568ac" stroke="#1568ac" stroke-width="1.51"></path><path d="M156,235L220,291L261,167Z" fill="#1266aa" stroke="#1266aa" stroke-width="1.51"></path><path d="M406,-8L429,-120L351,-23Z" fill="#3e90c1" stroke="#3e90c1" stroke-width="1.51"></path><path d="M300,-117L429,-120L90,-123Z" fill="#50abd2" stroke="#50abd2" stroke-width="1.51"></path><path d="M436,114L429,-120L406,-8Z" fill="#3380b8" stroke="#3380b8" stroke-width="1.51"></path><path d="M67,190L51,250L156,235Z" fill="#2575b4" stroke="#2575b4" stroke-width="1.51"></path><path d="M-45,153L51,250L67,190Z" fill="#3485bd" stroke="#3485bd" stroke-width="1.51"></path><path d="M2,-16L-93,7L-18,94Z" fill="#4facd5" stroke="#4facd5" stroke-width="1.51"></path><path d="M90,-123L-42,-99L2,-16Z" fill="#5dc2e0" stroke="#5dc2e0" stroke-width="1.51"></path><path d="M-18,94L-45,153L67,190Z" fill="#3a8dc3" stroke="#3a8dc3" stroke-width="1.51"></path><path d="M-97,69L-45,153L-18,94Z" fill="#449bcc" stroke="#449bcc" stroke-width="1.51"></path><path d="M220,291L396,252L301,235Z" fill="#0c60a4" stroke="#0c60a4" stroke-width="1.51"></path><path d="M301,235L396,252L315,147Z" fill="#0e62a6" stroke="#0e62a6" stroke-width="1.51"></path><path d="M416,155L396,252L436,114Z" fill="#0d61a5" stroke="#0d61a5" stroke-width="1.51"></path><path d="M-42,-99L-93,7L2,-16Z" fill="#5dc1e0" stroke="#5dc1e0" stroke-width="1.51"></path><path d="M-93,7L-97,69L-18,94Z" fill="#4eaad4" stroke="#4eaad4" stroke-width="1.51"></path><path d="M-97,69L-127,145L-45,153Z" fill="#4aa2cf" stroke="#4aa2cf" stroke-width="1.51"></path><path d="M-45,153L-64,258L51,250Z" fill="#3b8dc1" stroke="#3b8dc1" stroke-width="1.51"></path><path d="M-93,7L-127,145L-97,69Z" fill="#50acd6" stroke="#50acd6" stroke-width="1.51"></path><path d="M-127,145L-64,258L-45,153Z" fill="#469cca" stroke="#469cca" stroke-width="1.51"></path><path d="M51,250L-103,286L220,291Z" fill="#2b79b5" stroke="#2b79b5" stroke-width="1.51"></path><path d="M-93,7L-132,-123L-127,145Z" fill="#5ec3e1" stroke="#5ec3e1" stroke-width="1.51"></path><path d="M-42,-99L-132,-123L-93,7Z" fill="#6ad7ec" stroke="#6ad7ec" stroke-width="1.51"></path><path d="M90,-123L-132,-123L-42,-99Z" fill="#69d7eb" stroke="#69d7eb" stroke-width="1.51"></path><path d="M-127,145L-103,286L-64,258Z" fill="#489dca" stroke="#489dca" stroke-width="1.51"></path><path d="M-64,258L-103,286L51,250Z" fill="#3d8ec1" stroke="#3d8ec1" stroke-width="1.51"></path></svg>