<svg width="300" height="176" xmlns="http://www.w3.org/2000/svg"><path d="M123,88L64,6L74,110Z" fill="#ffb585" stroke="#ffb585" stroke-width="1.51"></path><path d="M123,88L135,-14L64,6Z" fill="#fdaea4" stroke="#fdaea4" stroke-width="1.51"></path><path d="M64,6L-18,117L74,110Z" fill="#fdb098" stroke="#fdb098" stroke-width="1.51"></path><path d="M64,6L-38,12L-18,117Z" fill="#f6a4d0" stroke="#f6a4d0" stroke-width="1.51"></path><path d="M-61,-65L-38,12L64,6Z" fill="#e99aff" stroke="#e99aff" stroke-width="1.51"></path><path d="M74,110L171,175L123,88Z" fill="#feb951" stroke="#feb951" stroke-width="1.51"></path><path d="M-18,117L63,183L74,110Z" fill="#feac88" stroke="#feac88" stroke-width="1.51"></path><path d="M135,-14L91,-70L64,6Z" fill="#f8a6c5" stroke="#f8a6c5" stroke-width="1.51"></path><path d="M123,88L229,94L135,-14Z" fill="#ffb969" stroke="#ffb969" stroke-width="1.51"></path><path d="M63,183L171,175L74,110Z" fill="#fdb15c" stroke="#fdb15c" stroke-width="1.51"></path><path d="M171,175L229,94L123,88Z" fill="#febc39" stroke="#febc39" stroke-width="1.51"></path><path d="M135,-14L177,-112L91,-70Z" fill="#fbacaf" stroke="#fbacaf" stroke-width="1.51"></path><path d="M-18,117L-32,202L63,183Z" fill="#fca299" stroke="#fca299" stroke-width="1.51"></path><path d="M225,297L246,203L171,175Z" fill="#fbb02d" stroke="#fbb02d" stroke-width="1.51"></path><path d="M-119,118L-32,202L-18,117Z" fill="#fba59e" stroke="#fba59e" stroke-width="1.51"></path><path d="M-38,12L-119,118L-18,117Z" fill="#fcacab" stroke="#fcacab" stroke-width="1.51"></path><path d="M91,-70L-61,-65L64,6Z" fill="#ef9eec" stroke="#ef9eec" stroke-width="1.51"></path><path d="M229,94L252,-19L135,-14Z" fill="#fead8d" stroke="#fead8d" stroke-width="1.51"></path><path d="M252,-19L177,-112L135,-14Z" fill="#fcaaa3" stroke="#fcaaa3" stroke-width="1.51"></path><path d="M91,-70L-134,-99L-61,-65Z" fill="#e99aff" stroke="#e99aff" stroke-width="1.51"></path><path d="M-61,-65L-120,7L-38,12Z" fill="#e99aff" stroke="#e99aff" stroke-width="1.51"></path><path d="M-120,7L-119,118L-38,12Z" fill="#f6a4d1" stroke="#f6a4d1" stroke-width="1.51"></path><path d="M252,-19L259,-61L177,-112Z" fill="#fca6a0" stroke="#fca6a0" stroke-width="1.51"></path><path d="M229,94L323,9L252,-19Z" fill="#fdaa80" stroke="#fdaa80" stroke-width="1.51"></path><path d="M252,-19L323,9L259,-61Z" fill="#fba29c" stroke="#fba29c" stroke-width="1.51"></path><path d="M171,175L246,203L229,94Z" fill="#fcb330" stroke="#fcb330" stroke-width="1.51"></path><path d="M141,293L171,175L63,183Z" fill="#fcb149" stroke="#fcb149" stroke-width="1.51"></path><path d="M-32,202L0,270L63,183Z" fill="#fba295" stroke="#fba295" stroke-width="1.51"></path><path d="M-98,207L0,270L-32,202Z" fill="#fba09b" stroke="#fba09b" stroke-width="1.51"></path><path d="M-119,118L-98,207L-32,202Z" fill="#fba09b" stroke="#fba09b" stroke-width="1.51"></path><path d="M0,270L31,292L63,183Z" fill="#fca488" stroke="#fca488" stroke-width="1.51"></path><path d="M-126,289L31,292L0,270Z" fill="#fba09b" stroke="#fba09b" stroke-width="1.51"></path><path d="M31,292L141,293L63,183Z" fill="#fdab6a" stroke="#fdab6a" stroke-width="1.51"></path><path d="M334,77L323,9L229,94Z" fill="#fdaf5a" stroke="#fdaf5a" stroke-width="1.51"></path><path d="M348,171L334,77L229,94Z" fill="#fbb12f" stroke="#fbb12f" stroke-width="1.51"></path><path d="M-120,7L-134,-99L-119,118Z" fill="#ec9cf6" stroke="#ec9cf6" stroke-width="1.51"></path><path d="M-61,-65L-134,-99L-120,7Z" fill="#e99aff" stroke="#e99aff" stroke-width="1.51"></path><path d="M177,-112L-134,-99L91,-70Z" fill="#f19fe4" stroke="#f19fe4" stroke-width="1.51"></path><path d="M246,203L348,171L229,94Z" fill="#faad2b" stroke="#faad2b" stroke-width="1.51"></path><path d="M141,293L225,297L171,175Z" fill="#fcb330" stroke="#fcb330" stroke-width="1.51"></path><path d="M31,292L225,297L141,293Z" fill="#fcb243" stroke="#fcb243" stroke-width="1.51"></path><path d="M359,240L348,171L246,203Z" fill="#f9a825" stroke="#f9a825" stroke-width="1.51"></path><path d="M404,22L323,9L334,77Z" fill="#fda975" stroke="#fda975" stroke-width="1.51"></path><path d="M404,22L343,-72L323,9Z" fill="#fba09b" stroke="#fba09b" stroke-width="1.51"></path><path d="M323,9L343,-72L259,-61Z" fill="#fba09b" stroke="#fba09b" stroke-width="1.51"></path><path d="M259,-61L343,-72L177,-112Z" fill="#fba49e" stroke="#fba49e" stroke-width="1.51"></path><path d="M-98,207L-126,289L0,270Z" fill="#fba09b" stroke="#fba09b" stroke-width="1.51"></path><path d="M31,292L-126,289L225,297Z" fill="#fda680" stroke="#fda680" stroke-width="1.51"></path><path d="M-119,118L-126,289L-98,207Z" fill="#fba09b" stroke="#fba09b" stroke-width="1.51"></path><path d="M-134,-99L-126,289L-119,118Z" fill="#fcaca4" stroke="#fcaca4" stroke-width="1.51"></path><path d="M450,99L404,22L334,77Z" fill="#fdb052" stroke="#fdb052" stroke-width="1.51"></path><path d="M348,171L450,99L334,77Z" fill="#fbb12e" stroke="#fbb12e" stroke-width="1.51"></path><path d="M225,297L359,240L246,203Z" fill="#faaa27" stroke="#faaa27" stroke-width="1.51"></path><path d="M359,240L413,205L348,171Z" fill="#f9a825" stroke="#f9a825" stroke-width="1.51"></path><path d="M413,205L450,99L348,171Z" fill="#faab28" stroke="#faab28" stroke-width="1.51"></path><path d="M404,22L424,-116L343,-72Z" fill="#fba09b" stroke="#fba09b" stroke-width="1.51"></path><path d="M343,-72L424,-116L177,-112Z" fill="#fba09b" stroke="#fba09b" stroke-width="1.51"></path><path d="M450,99L424,-116L404,22Z" fill="#fba199" stroke="#fba199" stroke-width="1.51"></path><path d="M225,297L429,292L359,240Z" fill="#f9a825" stroke="#f9a825" stroke-width="1.51"></path><path d="M359,240L429,292L413,205Z" fill="#f9a825" stroke="#f9a825" stroke-width="1.51"></path><path d="M413,205L429,292L450,99Z" fill="#f9a825" stroke="#f9a825" stroke-width="1.51"></path></svg>