<svg width="300" height="176" xmlns="http://www.w3.org/2000/svg"><path d="M174,61L218,64L233,-8Z" fill="#ffbb58" stroke="#ffbb58" stroke-width="1.51"></path><path d="M233,-8L152,-31L174,61Z" fill="#ffb968" stroke="#ffb968" stroke-width="1.51"></path><path d="M218,64L298,23L233,-8Z" fill="#ffb85d" stroke="#ffb85d" stroke-width="1.51"></path><path d="M218,64L303,55L298,23Z" fill="#feb951" stroke="#feb951" stroke-width="1.51"></path><path d="M152,-31L88,-9L174,61Z" fill="#ffb96d" stroke="#ffb96d" stroke-width="1.51"></path><path d="M152,-31L126,-81L88,-9Z" fill="#ffb486" stroke="#ffb486" stroke-width="1.51"></path><path d="M242,-97L126,-81L152,-31Z" fill="#ffb389" stroke="#ffb389" stroke-width="1.51"></path><path d="M242,-97L152,-31L233,-8Z" fill="#ffb37e" stroke="#ffb37e" stroke-width="1.51"></path><path d="M298,23L242,-97L233,-8Z" fill="#feb375" stroke="#feb375" stroke-width="1.51"></path><path d="M174,61L133,183L218,64Z" fill="#ffc03d" stroke="#ffc03d" stroke-width="1.51"></path><path d="M88,-9L72,63L174,61Z" fill="#ffbb67" stroke="#ffbb67" stroke-width="1.51"></path><path d="M218,64L242,194L303,55Z" fill="#febd3a" stroke="#febd3a" stroke-width="1.51"></path><path d="M72,63L133,183L174,61Z" fill="#ffbf48" stroke="#ffbf48" stroke-width="1.51"></path><path d="M133,183L242,194L218,64Z" fill="#febd3a" stroke="#febd3a" stroke-width="1.51"></path><path d="M88,-9L-16,29L72,63Z" fill="#ffb680" stroke="#ffb680" stroke-width="1.51"></path><path d="M126,-81L51,-79L88,-9Z" fill="#feb197" stroke="#feb197" stroke-width="1.51"></path><path d="M-30,-125L51,-79L126,-81Z" fill="#fbabb2" stroke="#fbabb2" stroke-width="1.51"></path><path d="M298,23L354,-104L242,-97Z" fill="#feae80" stroke="#feae80" stroke-width="1.51"></path><path d="M417,28L354,-104L298,23Z" fill="#feb06d" stroke="#feb06d" stroke-width="1.51"></path><path d="M72,63L-5,154L133,183Z" fill="#ffba5d" stroke="#ffba5d" stroke-width="1.51"></path><path d="M51,-79L-16,29L88,-9Z" fill="#feb196" stroke="#feb196" stroke-width="1.51"></path><path d="M303,55L417,28L298,23Z" fill="#feb555" stroke="#feb555" stroke-width="1.51"></path><path d="M431,56L417,28L303,55Z" fill="#fdb44e" stroke="#fdb44e" stroke-width="1.51"></path><path d="M242,194L338,202L303,55Z" fill="#fdb936" stroke="#fdb936" stroke-width="1.51"></path><path d="M338,202L431,56L303,55Z" fill="#fdb936" stroke="#fdb936" stroke-width="1.51"></path><path d="M417,28L399,-122L354,-104Z" fill="#feaa81" stroke="#feaa81" stroke-width="1.51"></path><path d="M-16,29L-40,61L72,63Z" fill="#ffb583" stroke="#ffb583" stroke-width="1.51"></path><path d="M-130,4L-40,61L-16,29Z" fill="#fdaf9f" stroke="#fdaf9f" stroke-width="1.51"></path><path d="M-40,61L-5,154L72,63Z" fill="#ffb871" stroke="#ffb871" stroke-width="1.51"></path><path d="M354,-104L399,-122L242,-97Z" fill="#fda894" stroke="#fda894" stroke-width="1.51"></path><path d="M242,-97L-30,-125L126,-81Z" fill="#fdaea2" stroke="#fdaea2" stroke-width="1.51"></path><path d="M431,56L399,-122L417,28Z" fill="#feae69" stroke="#feae69" stroke-width="1.51"></path><path d="M-5,154L33,211L133,183Z" fill="#ffb65f" stroke="#ffb65f" stroke-width="1.51"></path><path d="M131,284L251,270L242,194Z" fill="#fdb634" stroke="#fdb634" stroke-width="1.51"></path><path d="M242,194L251,270L338,202Z" fill="#fdb633" stroke="#fdb633" stroke-width="1.51"></path><path d="M131,284L242,194L133,183Z" fill="#feba37" stroke="#feba37" stroke-width="1.51"></path><path d="M47,273L131,284L133,183Z" fill="#fdb64a" stroke="#fdb64a" stroke-width="1.51"></path><path d="M51,-79L-30,-125L-16,29Z" fill="#fbabb1" stroke="#fbabb1" stroke-width="1.51"></path><path d="M399,-122L-30,-125L242,-97Z" fill="#fdae9b" stroke="#fdae9b" stroke-width="1.51"></path><path d="M131,284L299,285L251,270Z" fill="#fcb431" stroke="#fcb431" stroke-width="1.51"></path><path d="M251,270L299,285L338,202Z" fill="#fcb330" stroke="#fcb330" stroke-width="1.51"></path><path d="M338,202L412,210L431,56Z" fill="#fcb432" stroke="#fcb432" stroke-width="1.51"></path><path d="M299,285L412,210L338,202Z" fill="#fbb22f" stroke="#fbb22f" stroke-width="1.51"></path><path d="M33,211L47,273L133,183Z" fill="#feb557" stroke="#feb557" stroke-width="1.51"></path><path d="M3,248L47,273L33,211Z" fill="#feb164" stroke="#feb164" stroke-width="1.51"></path><path d="M-5,154L3,248L33,211Z" fill="#ffb26c" stroke="#ffb26c" stroke-width="1.51"></path><path d="M-88,181L3,248L-5,154Z" fill="#feb079" stroke="#feb079" stroke-width="1.51"></path><path d="M-40,61L-88,181L-5,154Z" fill="#ffb380" stroke="#ffb380" stroke-width="1.51"></path><path d="M-152,97L-88,181L-40,61Z" fill="#feb18f" stroke="#feb18f" stroke-width="1.51"></path><path d="M-119,-76L-130,4L-16,29Z" fill="#faa9b9" stroke="#faa9b9" stroke-width="1.51"></path><path d="M-30,-125L-119,-76L-16,29Z" fill="#f9a8c0" stroke="#f9a8c0" stroke-width="1.51"></path><path d="M412,210L452,251L431,56Z" fill="#fcb22f" stroke="#fcb22f" stroke-width="1.51"></path><path d="M299,285L452,251L412,210Z" fill="#fbaf2d" stroke="#fbaf2d" stroke-width="1.51"></path><path d="M-119,-76L-152,97L-130,4Z" fill="#faa9bd" stroke="#faa9bd" stroke-width="1.51"></path><path d="M-130,4L-152,97L-40,61Z" fill="#fdaea3" stroke="#fdaea3" stroke-width="1.51"></path><path d="M-152,97L-87,290L-88,181Z" fill="#fdab90" stroke="#fdab90" stroke-width="1.51"></path><path d="M-88,181L-87,290L3,248Z" fill="#feac7f" stroke="#feac7f" stroke-width="1.51"></path><path d="M3,248L-87,290L47,273Z" fill="#fdad70" stroke="#fdad70" stroke-width="1.51"></path><path d="M47,273L-87,290L131,284Z" fill="#feaf62" stroke="#feaf62" stroke-width="1.51"></path><path d="M131,284L-87,290L299,285Z" fill="#fdb444" stroke="#fdb444" stroke-width="1.51"></path></svg>