<svg width="300" height="176" xmlns="http://www.w3.org/2000/svg"><path d="M145,59L142,1L48,12Z" fill="#ffb96e" stroke="#ffb96e" stroke-width="1.51"></path><path d="M48,12L70,106L145,59Z" fill="#ffbb66" stroke="#ffbb66" stroke-width="1.51"></path><path d="M48,12L-16,104L70,106Z" fill="#ffb970" stroke="#ffb970" stroke-width="1.51"></path><path d="M-16,104L31,152L70,106Z" fill="#ffb86a" stroke="#ffb86a" stroke-width="1.51"></path><path d="M137,208L245,112L145,59Z" fill="#ffbf3c" stroke="#ffbf3c" stroke-width="1.51"></path><path d="M48,12L-32,-12L-16,104Z" fill="#feb38b" stroke="#feb38b" stroke-width="1.51"></path><path d="M-10,-98L-32,-12L48,12Z" fill="#fdada6" stroke="#fdada6" stroke-width="1.51"></path><path d="M-16,104L-10,144L31,152Z" fill="#ffb672" stroke="#ffb672" stroke-width="1.51"></path><path d="M142,1L135,-121L48,12Z" fill="#ffb489" stroke="#ffb489" stroke-width="1.51"></path><path d="M145,59L270,8L142,1Z" fill="#ffba60" stroke="#ffba60" stroke-width="1.51"></path><path d="M142,1L267,-107L135,-121Z" fill="#feb28b" stroke="#feb28b" stroke-width="1.51"></path><path d="M137,208L145,59L70,106Z" fill="#ffbe4b" stroke="#ffbe4b" stroke-width="1.51"></path><path d="M35,-125L-10,-98L48,12Z" fill="#fbabaf" stroke="#fbabaf" stroke-width="1.51"></path><path d="M135,-121L35,-125L48,12Z" fill="#fdaea4" stroke="#fdaea4" stroke-width="1.51"></path><path d="M245,112L270,8L145,59Z" fill="#ffbc4d" stroke="#ffbc4d" stroke-width="1.51"></path><path d="M31,152L137,208L70,106Z" fill="#feb957" stroke="#feb957" stroke-width="1.51"></path><path d="M126,241L137,208L31,152Z" fill="#feb84f" stroke="#feb84f" stroke-width="1.51"></path><path d="M137,208L263,203L245,112Z" fill="#febb38" stroke="#febb38" stroke-width="1.51"></path><path d="M77,285L126,241L31,152Z" fill="#fdb555" stroke="#fdb555" stroke-width="1.51"></path><path d="M270,8L267,-107L142,1Z" fill="#ffb478" stroke="#ffb478" stroke-width="1.51"></path><path d="M-47,287L77,285L31,152Z" fill="#feb067" stroke="#feb067" stroke-width="1.51"></path><path d="M-16,104L-122,172L-10,144Z" fill="#ffb281" stroke="#ffb281" stroke-width="1.51"></path><path d="M-32,-12L-131,62L-16,104Z" fill="#feb196" stroke="#feb196" stroke-width="1.51"></path><path d="M-139,-6L-131,62L-32,-12Z" fill="#fbabb1" stroke="#fbabb1" stroke-width="1.51"></path><path d="M347,99L341,19L270,8Z" fill="#feb753" stroke="#feb753" stroke-width="1.51"></path><path d="M273,269L263,203L137,208Z" fill="#fdb735" stroke="#fdb735" stroke-width="1.51"></path><path d="M-130,-59L-139,-6L-32,-12Z" fill="#f9a7c1" stroke="#f9a7c1" stroke-width="1.51"></path><path d="M270,8L341,19L267,-107Z" fill="#feb173" stroke="#feb173" stroke-width="1.51"></path><path d="M347,99L270,8L245,112Z" fill="#febb43" stroke="#febb43" stroke-width="1.51"></path><path d="M-10,-98L-130,-59L-32,-12Z" fill="#f9a8c1" stroke="#f9a8c1" stroke-width="1.51"></path><path d="M35,-125L-130,-59L-10,-98Z" fill="#f8a5c9" stroke="#f8a5c9" stroke-width="1.51"></path><path d="M126,241L273,269L137,208Z" fill="#fdb936" stroke="#fdb936" stroke-width="1.51"></path><path d="M-47,287L31,152L-10,144Z" fill="#feb172" stroke="#feb172" stroke-width="1.51"></path><path d="M263,203L347,99L245,112Z" fill="#feba37" stroke="#feba37" stroke-width="1.51"></path><path d="M-131,62L-122,172L-16,104Z" fill="#feb18e" stroke="#feb18e" stroke-width="1.51"></path><path d="M-137,290L-122,172L-131,62Z" fill="#fdab97" stroke="#fdab97" stroke-width="1.51"></path><path d="M-122,172L-47,287L-10,144Z" fill="#feae81" stroke="#feae81" stroke-width="1.51"></path><path d="M263,203L355,194L347,99Z" fill="#fdb734" stroke="#fdb734" stroke-width="1.51"></path><path d="M77,285L273,269L126,241Z" fill="#fdb835" stroke="#fdb835" stroke-width="1.51"></path><path d="M341,19L355,-116L267,-107Z" fill="#fead83" stroke="#fead83" stroke-width="1.51"></path><path d="M267,-107L355,-116L135,-121Z" fill="#fdac99" stroke="#fdac99" stroke-width="1.51"></path><path d="M135,-121L355,-116L35,-125Z" fill="#fdae9e" stroke="#fdae9e" stroke-width="1.51"></path><path d="M391,-72L355,-116L341,19Z" fill="#fdac7d" stroke="#fdac7d" stroke-width="1.51"></path><path d="M347,99L403,11L341,19Z" fill="#fdb550" stroke="#fdb550" stroke-width="1.51"></path><path d="M328,279L355,194L263,203Z" fill="#fcb331" stroke="#fcb331" stroke-width="1.51"></path><path d="M451,60L403,11L347,99Z" fill="#fdb448" stroke="#fdb448" stroke-width="1.51"></path><path d="M403,11L391,-72L341,19Z" fill="#feaf6b" stroke="#feaf6b" stroke-width="1.51"></path><path d="M355,194L404,170L347,99Z" fill="#fcb533" stroke="#fcb533" stroke-width="1.51"></path><path d="M424,247L404,170L355,194Z" fill="#fbb22f" stroke="#fbb22f" stroke-width="1.51"></path><path d="M273,269L328,279L263,203Z" fill="#fcb331" stroke="#fcb331" stroke-width="1.51"></path><path d="M77,285L328,279L273,269Z" fill="#fcb431" stroke="#fcb431" stroke-width="1.51"></path><path d="M-122,172L-137,290L-47,287Z" fill="#fda88b" stroke="#fda88b" stroke-width="1.51"></path><path d="M-47,287L-137,290L77,285Z" fill="#feaa76" stroke="#feaa76" stroke-width="1.51"></path><path d="M-139,-6L-137,290L-131,62Z" fill="#fdae9c" stroke="#fdae9c" stroke-width="1.51"></path><path d="M404,170L451,60L347,99Z" fill="#fcb734" stroke="#fcb734" stroke-width="1.51"></path><path d="M403,11L451,60L391,-72Z" fill="#fdaf63" stroke="#fdaf63" stroke-width="1.51"></path><path d="M404,170L424,247L451,60Z" fill="#fcb330" stroke="#fcb330" stroke-width="1.51"></path><path d="M328,279L424,247L355,194Z" fill="#fbb02e" stroke="#fbb02e" stroke-width="1.51"></path></svg>