<svg width="300" height="176" xmlns="http://www.w3.org/2000/svg"><path d="M124,-124L214,-111L303,-123Z" fill="#ffdb6d" stroke="#ffdb6d" stroke-width="1.51"></path><path d="M252,252L142,278L329,261Z" fill="#fcb532" stroke="#fcb532" stroke-width="1.51"></path><path d="M336,24L362,67L411,-36Z" fill="#fec348" stroke="#fec348" stroke-width="1.51"></path><path d="M362,67L416,148L446,87Z" fill="#fdb734" stroke="#fdb734" stroke-width="1.51"></path><path d="M411,-36L362,67L446,87Z" fill="#fdbe42" stroke="#fdbe42" stroke-width="1.51"></path><path d="M416,148L398,244L446,87Z" fill="#fcb330" stroke="#fcb330" stroke-width="1.51"></path><path d="M314,208L398,244L416,148Z" fill="#fcb230" stroke="#fcb230" stroke-width="1.51"></path><path d="M362,67L314,208L416,148Z" fill="#fdb634" stroke="#fdb634" stroke-width="1.51"></path><path d="M303,-123L336,24L389,-109Z" fill="#ffcf5e" stroke="#ffcf5e" stroke-width="1.51"></path><path d="M389,-109L336,24L411,-36Z" fill="#feca56" stroke="#feca56" stroke-width="1.51"></path><path d="M314,208L329,261L398,244Z" fill="#fbb22f" stroke="#fbb22f" stroke-width="1.51"></path><path d="M49,267L-39,281L142,278Z" fill="#fdc147" stroke="#fdc147" stroke-width="1.51"></path><path d="M303,-123L208,-24L336,24Z" fill="#ffce59" stroke="#ffce59" stroke-width="1.51"></path><path d="M336,24L225,59L362,67Z" fill="#fec143" stroke="#fec143" stroke-width="1.51"></path><path d="M225,59L314,208L362,67Z" fill="#fdbb38" stroke="#fdbb38" stroke-width="1.51"></path><path d="M225,59L216,196L314,208Z" fill="#fdba38" stroke="#fdba38" stroke-width="1.51"></path><path d="M208,-24L225,59L336,24Z" fill="#fec74c" stroke="#fec74c" stroke-width="1.51"></path><path d="M214,-111L208,-24L303,-123Z" fill="#ffd565" stroke="#ffd565" stroke-width="1.51"></path><path d="M314,208L252,252L329,261Z" fill="#fcb331" stroke="#fcb331" stroke-width="1.51"></path><path d="M216,196L252,252L314,208Z" fill="#fdb633" stroke="#fdb633" stroke-width="1.51"></path><path d="M121,86L168,181L225,59Z" fill="#ffc03d" stroke="#ffc03d" stroke-width="1.51"></path><path d="M208,-24L167,27L225,59Z" fill="#ffc94e" stroke="#ffc94e" stroke-width="1.51"></path><path d="M168,181L216,196L225,59Z" fill="#febd3a" stroke="#febd3a" stroke-width="1.51"></path><path d="M216,196L142,278L252,252Z" fill="#fdb735" stroke="#fdb735" stroke-width="1.51"></path><path d="M124,-124L208,-24L214,-111Z" fill="#ffd867" stroke="#ffd867" stroke-width="1.51"></path><path d="M168,181L142,278L216,196Z" fill="#feba37" stroke="#feba37" stroke-width="1.51"></path><path d="M167,27L121,86L225,59Z" fill="#ffc546" stroke="#ffc546" stroke-width="1.51"></path><path d="M124,-124L82,-14L208,-24Z" fill="#ffd663" stroke="#ffd663" stroke-width="1.51"></path><path d="M82,-14L167,27L208,-24Z" fill="#ffcf55" stroke="#ffcf55" stroke-width="1.51"></path><path d="M89,69L121,86L167,27Z" fill="#ffc84b" stroke="#ffc84b" stroke-width="1.51"></path><path d="M121,86L48,150L168,181Z" fill="#ffc343" stroke="#ffc343" stroke-width="1.51"></path><path d="M49,267L142,278L168,181Z" fill="#fdbc3c" stroke="#fdbc3c" stroke-width="1.51"></path><path d="M48,150L49,267L168,181Z" fill="#fec244" stroke="#fec244" stroke-width="1.51"></path><path d="M82,-14L89,69L167,27Z" fill="#ffce54" stroke="#ffce54" stroke-width="1.51"></path><path d="M39,-72L82,-14L124,-124Z" fill="#ffde6f" stroke="#ffde6f" stroke-width="1.51"></path><path d="M89,69L48,150L121,86Z" fill="#ffc74a" stroke="#ffc74a" stroke-width="1.51"></path><path d="M-34,-115L39,-72L124,-124Z" fill="#ffe67d" stroke="#ffe67d" stroke-width="1.51"></path><path d="M48,150L-13,182L49,267Z" fill="#fec84f" stroke="#fec84f" stroke-width="1.51"></path><path d="M-38,-11L1,101L82,-14Z" fill="#ffd765" stroke="#ffd765" stroke-width="1.51"></path><path d="M82,-14L1,101L89,69Z" fill="#ffd058" stroke="#ffd058" stroke-width="1.51"></path><path d="M1,101L48,150L89,69Z" fill="#ffcb50" stroke="#ffcb50" stroke-width="1.51"></path><path d="M39,-72L-38,-11L82,-14Z" fill="#ffde70" stroke="#ffde70" stroke-width="1.51"></path><path d="M-13,182L-39,281L49,267Z" fill="#fec851" stroke="#fec851" stroke-width="1.51"></path><path d="M1,101L-13,182L48,150Z" fill="#ffcd54" stroke="#ffcd54" stroke-width="1.51"></path><path d="M-34,-115L-38,-11L39,-72Z" fill="#ffe67d" stroke="#ffe67d" stroke-width="1.51"></path><path d="M-92,-103L-38,-11L-34,-115Z" fill="#ffec86" stroke="#ffec86" stroke-width="1.51"></path><path d="M-38,-11L-123,83L1,101Z" fill="#ffd969" stroke="#ffd969" stroke-width="1.51"></path><path d="M-125,144L-13,182L1,101Z" fill="#ffd25e" stroke="#ffd25e" stroke-width="1.51"></path><path d="M-123,83L-125,144L1,101Z" fill="#ffd766" stroke="#ffd766" stroke-width="1.51"></path><path d="M-89,-20L-123,83L-38,-11Z" fill="#ffe276" stroke="#ffe276" stroke-width="1.51"></path><path d="M-92,-103L-89,-20L-38,-11Z" fill="#ffe982" stroke="#ffe982" stroke-width="1.51"></path><path d="M-116,263L-39,281L-13,182Z" fill="#ffcd5a" stroke="#ffcd5a" stroke-width="1.51"></path><path d="M-125,144L-116,263L-13,182Z" fill="#ffd261" stroke="#ffd261" stroke-width="1.51"></path><path d="M-92,-103L-123,83L-89,-20Z" fill="#ffe87f" stroke="#ffe87f" stroke-width="1.51"></path></svg>