<svg width="300" height="176" xmlns="http://www.w3.org/2000/svg"><path d="M-102,-105L-38,-89L164,-94Z" fill="#faa8be" stroke="#faa8be" stroke-width="1.51"></path><path d="M-102,-105L164,-94L225,-110Z" fill="#fcada7" stroke="#fcada7" stroke-width="1.51"></path><path d="M219,255L167,283L344,259Z" fill="#fcb432" stroke="#fcb432" stroke-width="1.51"></path><path d="M407,19L361,85L421,105Z" fill="#fdb641" stroke="#fdb641" stroke-width="1.51"></path><path d="M225,-110L337,-85L442,-80Z" fill="#fdaa8d" stroke="#fdaa8d" stroke-width="1.51"></path><path d="M337,-85L407,19L442,-80Z" fill="#fdab79" stroke="#fdab79" stroke-width="1.51"></path><path d="M407,19L421,105L442,-80Z" fill="#feb05c" stroke="#feb05c" stroke-width="1.51"></path><path d="M331,198L423,237L446,179Z" fill="#fbb12f" stroke="#fbb12f" stroke-width="1.51"></path><path d="M421,105L331,198L446,179Z" fill="#fcb431" stroke="#fcb431" stroke-width="1.51"></path><path d="M442,-80L421,105L446,179Z" fill="#fdb440" stroke="#fdb440" stroke-width="1.51"></path><path d="M337,-85L309,-13L407,19Z" fill="#feaf71" stroke="#feaf71" stroke-width="1.51"></path><path d="M361,85L331,198L421,105Z" fill="#fdb734" stroke="#fdb734" stroke-width="1.51"></path><path d="M331,198L344,259L423,237Z" fill="#fbb12f" stroke="#fbb12f" stroke-width="1.51"></path><path d="M309,-13L361,85L407,19Z" fill="#feb457" stroke="#feb457" stroke-width="1.51"></path><path d="M309,-13L235,61L361,85Z" fill="#feb852" stroke="#feb852" stroke-width="1.51"></path><path d="M228,148L331,198L361,85Z" fill="#fdb936" stroke="#fdb936" stroke-width="1.51"></path><path d="M235,61L228,148L361,85Z" fill="#febd3a" stroke="#febd3a" stroke-width="1.51"></path><path d="M331,198L219,255L344,259Z" fill="#fcb431" stroke="#fcb431" stroke-width="1.51"></path><path d="M225,-110L309,-13L337,-85Z" fill="#fdae85" stroke="#fdae85" stroke-width="1.51"></path><path d="M-38,-89L26,-74L164,-94Z" fill="#fcacae" stroke="#fcacae" stroke-width="1.51"></path><path d="M228,148L219,255L331,198Z" fill="#fdb735" stroke="#fdb735" stroke-width="1.51"></path><path d="M218,30L235,61L309,-13Z" fill="#ffb85d" stroke="#ffb85d" stroke-width="1.51"></path><path d="M225,-110L218,30L309,-13Z" fill="#ffb376" stroke="#ffb376" stroke-width="1.51"></path><path d="M164,-94L120,13L218,30Z" fill="#ffb873" stroke="#ffb873" stroke-width="1.51"></path><path d="M164,-94L218,30L225,-110Z" fill="#ffb383" stroke="#ffb383" stroke-width="1.51"></path><path d="M127,77L138,158L228,148Z" fill="#ffbf3d" stroke="#ffbf3d" stroke-width="1.51"></path><path d="M138,158L219,255L228,148Z" fill="#febb38" stroke="#febb38" stroke-width="1.51"></path><path d="M127,77L228,148L235,61Z" fill="#ffbf3d" stroke="#ffbf3d" stroke-width="1.51"></path><path d="M218,30L127,77L235,61Z" fill="#ffbd50" stroke="#ffbd50" stroke-width="1.51"></path><path d="M138,158L167,283L219,255Z" fill="#fdb936" stroke="#fdb936" stroke-width="1.51"></path><path d="M120,13L127,77L218,30Z" fill="#ffbd59" stroke="#ffbd59" stroke-width="1.51"></path><path d="M-51,258L-108,246L42,301Z" fill="#fdab78" stroke="#fdab78" stroke-width="1.51"></path><path d="M87,144L42,301L138,158Z" fill="#feb752" stroke="#feb752" stroke-width="1.51"></path><path d="M92,-29L120,13L164,-94Z" fill="#ffb584" stroke="#ffb584" stroke-width="1.51"></path><path d="M138,158L42,301L167,283Z" fill="#fdb745" stroke="#fdb745" stroke-width="1.51"></path><path d="M26,-74L92,-29L164,-94Z" fill="#feb099" stroke="#feb099" stroke-width="1.51"></path><path d="M120,13L55,64L127,77Z" fill="#ffbc65" stroke="#ffbc65" stroke-width="1.51"></path><path d="M127,77L87,144L138,158Z" fill="#ffbe4b" stroke="#ffbe4b" stroke-width="1.51"></path><path d="M55,64L87,144L127,77Z" fill="#ffbd56" stroke="#ffbd56" stroke-width="1.51"></path><path d="M92,-29L55,64L120,13Z" fill="#ffb778" stroke="#ffb778" stroke-width="1.51"></path><path d="M-51,258L42,301L87,144Z" fill="#feb165" stroke="#feb165" stroke-width="1.51"></path><path d="M-62,158L-51,258L87,144Z" fill="#ffb272" stroke="#ffb272" stroke-width="1.51"></path><path d="M-17,4L55,64L92,-29Z" fill="#ffb488" stroke="#ffb488" stroke-width="1.51"></path><path d="M26,-74L-17,4L92,-29Z" fill="#feaf9d" stroke="#feaf9d" stroke-width="1.51"></path><path d="M55,64L-41,74L87,144Z" fill="#ffba6a" stroke="#ffba6a" stroke-width="1.51"></path><path d="M-41,74L-62,158L87,144Z" fill="#ffb674" stroke="#ffb674" stroke-width="1.51"></path><path d="M-17,4L-41,74L55,64Z" fill="#ffb486" stroke="#ffb486" stroke-width="1.51"></path><path d="M-38,-89L-17,4L26,-74Z" fill="#fcaab2" stroke="#fcaab2" stroke-width="1.51"></path><path d="M-102,-105L-91,27L-38,-89Z" fill="#f8a6c6" stroke="#f8a6c6" stroke-width="1.51"></path><path d="M-38,-89L-91,27L-17,4Z" fill="#fcabaf" stroke="#fcabaf" stroke-width="1.51"></path><path d="M-91,27L-41,74L-17,4Z" fill="#feb09a" stroke="#feb09a" stroke-width="1.51"></path><path d="M-124,202L-108,246L-62,158Z" fill="#fdab8d" stroke="#fdab8d" stroke-width="1.51"></path><path d="M-62,158L-108,246L-51,258Z" fill="#feac85" stroke="#feac85" stroke-width="1.51"></path><path d="M-136,102L-62,158L-41,74Z" fill="#feb18c" stroke="#feb18c" stroke-width="1.51"></path><path d="M-91,27L-136,102L-41,74Z" fill="#feb098" stroke="#feb098" stroke-width="1.51"></path><path d="M-136,102L-124,202L-62,158Z" fill="#fdad92" stroke="#fdad92" stroke-width="1.51"></path><path d="M-102,-105L-136,102L-91,27Z" fill="#fbaab6" stroke="#fbaab6" stroke-width="1.51"></path></svg>