<svg width="300" height="176" xmlns="http://www.w3.org/2000/svg"><path d="M126,111L34,159L151,150Z" fill="#ffbc4f" stroke="#ffbc4f" stroke-width="1.51"></path><path d="M126,111L52,102L34,159Z" fill="#ffbb5c" stroke="#ffbb5c" stroke-width="1.51"></path><path d="M52,102L-5,165L34,159Z" fill="#ffb76a" stroke="#ffb76a" stroke-width="1.51"></path><path d="M34,159L139,256L151,150Z" fill="#feb94b" stroke="#feb94b" stroke-width="1.51"></path><path d="M87,297L139,256L34,159Z" fill="#fdb550" stroke="#fdb550" stroke-width="1.51"></path><path d="M139,256L219,187L151,150Z" fill="#febb38" stroke="#febb38" stroke-width="1.51"></path><path d="M261,78L140,8L126,111Z" fill="#ffbf4b" stroke="#ffbf4b" stroke-width="1.51"></path><path d="M-43,237L87,297L34,159Z" fill="#feb265" stroke="#feb265" stroke-width="1.51"></path><path d="M-5,165L-43,237L34,159Z" fill="#ffb271" stroke="#ffb271" stroke-width="1.51"></path><path d="M126,111L73,1L52,102Z" fill="#ffbc61" stroke="#ffbc61" stroke-width="1.51"></path><path d="M261,78L126,111L151,150Z" fill="#fec03d" stroke="#fec03d" stroke-width="1.51"></path><path d="M140,8L73,1L126,111Z" fill="#ffbb66" stroke="#ffbb66" stroke-width="1.51"></path><path d="M52,102L-50,79L-5,165Z" fill="#ffb674" stroke="#ffb674" stroke-width="1.51"></path><path d="M-5,165L-132,198L-43,237Z" fill="#feae82" stroke="#feae82" stroke-width="1.51"></path><path d="M-29,-2L-50,79L52,102Z" fill="#ffb583" stroke="#ffb583" stroke-width="1.51"></path><path d="M219,187L261,78L151,150Z" fill="#febd3a" stroke="#febd3a" stroke-width="1.51"></path><path d="M73,1L-29,-2L52,102Z" fill="#ffb582" stroke="#ffb582" stroke-width="1.51"></path><path d="M219,187L324,96L261,78Z" fill="#febb39" stroke="#febb39" stroke-width="1.51"></path><path d="M139,256L264,275L219,187Z" fill="#fdb735" stroke="#fdb735" stroke-width="1.51"></path><path d="M87,297L264,275L139,256Z" fill="#fdb734" stroke="#fdb734" stroke-width="1.51"></path><path d="M264,275L299,257L219,187Z" fill="#fcb532" stroke="#fcb532" stroke-width="1.51"></path><path d="M-154,83L-132,198L-50,79Z" fill="#feaf95" stroke="#feaf95" stroke-width="1.51"></path><path d="M-50,79L-132,198L-5,165Z" fill="#ffb185" stroke="#ffb185" stroke-width="1.51"></path><path d="M-43,237L-127,287L87,297Z" fill="#fdac74" stroke="#fdac74" stroke-width="1.51"></path><path d="M261,78L261,-1L140,8Z" fill="#ffb95c" stroke="#ffb95c" stroke-width="1.51"></path><path d="M68,-124L-9,-68L73,1Z" fill="#fcada7" stroke="#fcada7" stroke-width="1.51"></path><path d="M73,1L-9,-68L-29,-2Z" fill="#feafa0" stroke="#feafa0" stroke-width="1.51"></path><path d="M324,96L261,-1L261,78Z" fill="#feb94b" stroke="#feb94b" stroke-width="1.51"></path><path d="M299,257L328,194L219,187Z" fill="#fdb633" stroke="#fdb633" stroke-width="1.51"></path><path d="M328,194L324,96L219,187Z" fill="#fdb836" stroke="#fdb836" stroke-width="1.51"></path><path d="M127,-100L73,1L140,8Z" fill="#ffb584" stroke="#ffb584" stroke-width="1.51"></path><path d="M-143,21L-154,83L-50,79Z" fill="#fdaea2" stroke="#fdaea2" stroke-width="1.51"></path><path d="M-132,198L-127,287L-43,237Z" fill="#fda98c" stroke="#fda98c" stroke-width="1.51"></path><path d="M-143,21L-50,79L-29,-2Z" fill="#fdaea1" stroke="#fdaea1" stroke-width="1.51"></path><path d="M-132,198L-154,83L-127,287Z" fill="#fca999" stroke="#fca999" stroke-width="1.51"></path><path d="M250,-90L127,-100L140,8Z" fill="#ffb386" stroke="#ffb386" stroke-width="1.51"></path><path d="M-114,-88L-143,21L-29,-2Z" fill="#f9a8be" stroke="#f9a8be" stroke-width="1.51"></path><path d="M-9,-68L-114,-88L-29,-2Z" fill="#faa8bd" stroke="#faa8bd" stroke-width="1.51"></path><path d="M127,-100L68,-124L73,1Z" fill="#fdaf9d" stroke="#fdaf9d" stroke-width="1.51"></path><path d="M261,-1L250,-90L140,8Z" fill="#ffb476" stroke="#ffb476" stroke-width="1.51"></path><path d="M127,-100L250,-90L68,-124Z" fill="#feb099" stroke="#feb099" stroke-width="1.51"></path><path d="M305,-70L250,-90L261,-1Z" fill="#ffb07f" stroke="#ffb07f" stroke-width="1.51"></path><path d="M328,194L391,189L324,96Z" fill="#fcb633" stroke="#fcb633" stroke-width="1.51"></path><path d="M324,96L353,-9L261,-1Z" fill="#feb659" stroke="#feb659" stroke-width="1.51"></path><path d="M299,257L391,189L328,194Z" fill="#fcb330" stroke="#fcb330" stroke-width="1.51"></path><path d="M391,189L392,98L324,96Z" fill="#fdb734" stroke="#fdb734" stroke-width="1.51"></path><path d="M392,98L353,-9L324,96Z" fill="#fdb747" stroke="#fdb747" stroke-width="1.51"></path><path d="M353,-9L305,-70L261,-1Z" fill="#feb172" stroke="#feb172" stroke-width="1.51"></path><path d="M68,-124L-114,-88L-9,-68Z" fill="#f8a6c4" stroke="#f8a6c4" stroke-width="1.51"></path><path d="M391,189L450,279L392,98Z" fill="#fbb12f" stroke="#fbb12f" stroke-width="1.51"></path><path d="M299,257L450,279L391,189Z" fill="#fbb02d" stroke="#fbb02d" stroke-width="1.51"></path><path d="M264,275L450,279L299,257Z" fill="#fbb02d" stroke="#fbb02d" stroke-width="1.51"></path><path d="M87,297L450,279L264,275Z" fill="#fcb230" stroke="#fcb230" stroke-width="1.51"></path><path d="M353,-9L423,-31L305,-70Z" fill="#feae75" stroke="#feae75" stroke-width="1.51"></path><path d="M305,-70L449,-89L250,-90Z" fill="#fdab89" stroke="#fdab89" stroke-width="1.51"></path><path d="M392,98L423,-31L353,-9Z" fill="#feb25b" stroke="#feb25b" stroke-width="1.51"></path><path d="M450,279L423,-31L392,98Z" fill="#fcb633" stroke="#fcb633" stroke-width="1.51"></path><path d="M423,-31L449,-89L305,-70Z" fill="#fdaa7f" stroke="#fdaa7f" stroke-width="1.51"></path><path d="M250,-90L449,-89L68,-124Z" fill="#fdac93" stroke="#fdac93" stroke-width="1.51"></path><path d="M450,279L449,-89L423,-31Z" fill="#fdb348" stroke="#fdb348" stroke-width="1.51"></path></svg>