<svg width="300" height="176" xmlns="http://www.w3.org/2000/svg"><path d="M78,-114L260,-113L411,-115Z" fill="#ffd96b" stroke="#ffd96b" stroke-width="1.51"></path><path d="M-112,-117L78,-114L411,-115Z" fill="#ffe073" stroke="#ffe073" stroke-width="1.51"></path><path d="M260,-113L356,-88L411,-115Z" fill="#ffd465" stroke="#ffd465" stroke-width="1.51"></path><path d="M404,68L357,175L420,166Z" fill="#fcb533" stroke="#fcb533" stroke-width="1.51"></path><path d="M420,166L357,175L429,236Z" fill="#fbb22f" stroke="#fbb22f" stroke-width="1.51"></path><path d="M358,-24L404,68L439,-18Z" fill="#fdc24a" stroke="#fdc24a" stroke-width="1.51"></path><path d="M411,-115L356,-88L439,-18Z" fill="#ffce5d" stroke="#ffce5d" stroke-width="1.51"></path><path d="M356,-88L358,-24L439,-18Z" fill="#fecb56" stroke="#fecb56" stroke-width="1.51"></path><path d="M404,68L420,166L439,-18Z" fill="#fdb939" stroke="#fdb939" stroke-width="1.51"></path><path d="M420,166L429,236L439,-18Z" fill="#fcb432" stroke="#fcb432" stroke-width="1.51"></path><path d="M357,175L311,290L429,236Z" fill="#fbb12f" stroke="#fbb12f" stroke-width="1.51"></path><path d="M298,106L357,175L404,68Z" fill="#fdb836" stroke="#fdb836" stroke-width="1.51"></path><path d="M358,-24L298,106L404,68Z" fill="#fdbf41" stroke="#fdbf41" stroke-width="1.51"></path><path d="M78,-114L153,-95L260,-113Z" fill="#ffdc6c" stroke="#ffdc6c" stroke-width="1.51"></path><path d="M267,267L124,297L311,290Z" fill="#fcb331" stroke="#fcb331" stroke-width="1.51"></path><path d="M233,147L267,267L357,175Z" fill="#fcb634" stroke="#fcb634" stroke-width="1.51"></path><path d="M267,267L311,290L357,175Z" fill="#fcb330" stroke="#fcb330" stroke-width="1.51"></path><path d="M356,-88L260,-113L358,-24Z" fill="#ffd15f" stroke="#ffd15f" stroke-width="1.51"></path><path d="M260,-113L220,-25L358,-24Z" fill="#ffd05c" stroke="#ffd05c" stroke-width="1.51"></path><path d="M220,-25L259,69L358,-24Z" fill="#ffc84e" stroke="#ffc84e" stroke-width="1.51"></path><path d="M259,69L298,106L358,-24Z" fill="#fec143" stroke="#fec143" stroke-width="1.51"></path><path d="M298,106L233,147L357,175Z" fill="#fdb936" stroke="#fdb936" stroke-width="1.51"></path><path d="M259,69L233,147L298,106Z" fill="#febd3a" stroke="#febd3a" stroke-width="1.51"></path><path d="M153,-95L220,-25L260,-113Z" fill="#ffd664" stroke="#ffd664" stroke-width="1.51"></path><path d="M233,147L144,194L267,267Z" fill="#fdb936" stroke="#fdb936" stroke-width="1.51"></path><path d="M144,194L124,297L267,267Z" fill="#fdb835" stroke="#fdb835" stroke-width="1.51"></path><path d="M220,-25L134,-13L259,69Z" fill="#ffcb50" stroke="#ffcb50" stroke-width="1.51"></path><path d="M119,120L233,147L259,69Z" fill="#febf3c" stroke="#febf3c" stroke-width="1.51"></path><path d="M134,-13L119,120L259,69Z" fill="#ffc546" stroke="#ffc546" stroke-width="1.51"></path><path d="M119,120L144,194L233,147Z" fill="#febe3b" stroke="#febe3b" stroke-width="1.51"></path><path d="M-112,-117L-64,-101L78,-114Z" fill="#ffee8a" stroke="#ffee8a" stroke-width="1.51"></path><path d="M153,-95L134,-13L220,-25Z" fill="#ffd35e" stroke="#ffd35e" stroke-width="1.51"></path><path d="M57,102L119,120L134,-13Z" fill="#ffc94c" stroke="#ffc94c" stroke-width="1.51"></path><path d="M119,120L61,182L144,194Z" fill="#fec243" stroke="#fec243" stroke-width="1.51"></path><path d="M66,253L124,297L144,194Z" fill="#fdbd3e" stroke="#fdbd3e" stroke-width="1.51"></path><path d="M78,-114L134,-13L153,-95Z" fill="#ffda6a" stroke="#ffda6a" stroke-width="1.51"></path><path d="M78,-114L28,-33L134,-13Z" fill="#ffdb6c" stroke="#ffdb6c" stroke-width="1.51"></path><path d="M28,-33L57,102L134,-13Z" fill="#ffd35d" stroke="#ffd35d" stroke-width="1.51"></path><path d="M61,182L66,253L144,194Z" fill="#fec143" stroke="#fec143" stroke-width="1.51"></path><path d="M28,-33L-8,28L57,102Z" fill="#ffd562" stroke="#ffd562" stroke-width="1.51"></path><path d="M57,102L61,182L119,120Z" fill="#ffc749" stroke="#ffc749" stroke-width="1.51"></path><path d="M66,253L-8,276L124,297Z" fill="#fdc045" stroke="#fdc045" stroke-width="1.51"></path><path d="M57,102L-1,148L61,182Z" fill="#ffca50" stroke="#ffca50" stroke-width="1.51"></path><path d="M-64,-101L28,-33L78,-114Z" fill="#ffe67d" stroke="#ffe67d" stroke-width="1.51"></path><path d="M-1,148L-8,276L61,182Z" fill="#fec950" stroke="#fec950" stroke-width="1.51"></path><path d="M61,182L-8,276L66,253Z" fill="#fec44a" stroke="#fec44a" stroke-width="1.51"></path><path d="M-8,28L-36,60L57,102Z" fill="#ffd35e" stroke="#ffd35e" stroke-width="1.51"></path><path d="M-36,60L-1,148L57,102Z" fill="#ffcf57" stroke="#ffcf57" stroke-width="1.51"></path><path d="M-92,195L-8,276L-1,148Z" fill="#ffcd58" stroke="#ffcd58" stroke-width="1.51"></path><path d="M-64,-101L-8,28L28,-33Z" fill="#ffe277" stroke="#ffe277" stroke-width="1.51"></path><path d="M-64,-101L-133,-14L-8,28Z" fill="#ffe77e" stroke="#ffe77e" stroke-width="1.51"></path><path d="M-92,195L-107,240L-8,276Z" fill="#ffcf5c" stroke="#ffcf5c" stroke-width="1.51"></path><path d="M-36,60L-106,101L-1,148Z" fill="#ffd460" stroke="#ffd460" stroke-width="1.51"></path><path d="M-106,101L-92,195L-1,148Z" fill="#ffd361" stroke="#ffd361" stroke-width="1.51"></path><path d="M-133,-14L-36,60L-8,28Z" fill="#ffde70" stroke="#ffde70" stroke-width="1.51"></path><path d="M-133,-14L-106,101L-36,60Z" fill="#ffdf70" stroke="#ffdf70" stroke-width="1.51"></path><path d="M-112,-117L-133,-14L-64,-101Z" fill="#fff18e" stroke="#fff18e" stroke-width="1.51"></path><path d="M-106,101L-107,240L-92,195Z" fill="#ffd565" stroke="#ffd565" stroke-width="1.51"></path><path d="M-133,-14L-107,240L-106,101Z" fill="#ffda6b" stroke="#ffda6b" stroke-width="1.51"></path></svg>