<svg width="300" height="176" xmlns="http://www.w3.org/2000/svg"><path d="M-12,-125L41,-109L176,-94Z" fill="#ffe47a" stroke="#ffe47a" stroke-width="1.51"></path><path d="M50,240L-54,238L247,280Z" fill="#fdbf43" stroke="#fdbf43" stroke-width="1.51"></path><path d="M-54,238L-147,240L247,280Z" fill="#fec64e" stroke="#fec64e" stroke-width="1.51"></path><path d="M-12,-125L176,-94L351,-110Z" fill="#ffdc6c" stroke="#ffdc6c" stroke-width="1.51"></path><path d="M328,28L421,118L433,-5Z" fill="#fdbe40" stroke="#fdbe40" stroke-width="1.51"></path><path d="M362,257L247,280L450,296Z" fill="#fbaf2c" stroke="#fbaf2c" stroke-width="1.51"></path><path d="M421,118L323,152L452,160Z" fill="#fcb532" stroke="#fcb532" stroke-width="1.51"></path><path d="M323,152L362,257L452,160Z" fill="#fcb331" stroke="#fcb331" stroke-width="1.51"></path><path d="M362,257L450,296L452,160Z" fill="#fbaf2c" stroke="#fbaf2c" stroke-width="1.51"></path><path d="M433,-5L421,118L452,160Z" fill="#fdb634" stroke="#fdb634" stroke-width="1.51"></path><path d="M441,-77L433,-5L452,160Z" fill="#fdbf44" stroke="#fdbf44" stroke-width="1.51"></path><path d="M351,-110L433,-5L441,-77Z" fill="#fecc5a" stroke="#fecc5a" stroke-width="1.51"></path><path d="M328,28L318,111L421,118Z" fill="#fdba38" stroke="#fdba38" stroke-width="1.51"></path><path d="M351,-110L328,28L433,-5Z" fill="#fec953" stroke="#fec953" stroke-width="1.51"></path><path d="M318,111L323,152L421,118Z" fill="#fdb835" stroke="#fdb835" stroke-width="1.51"></path><path d="M251,-69L264,7L328,28Z" fill="#ffca52" stroke="#ffca52" stroke-width="1.51"></path><path d="M176,-94L251,-69L351,-110Z" fill="#ffd565" stroke="#ffd565" stroke-width="1.51"></path><path d="M251,-69L328,28L351,-110Z" fill="#ffce5a" stroke="#ffce5a" stroke-width="1.51"></path><path d="M323,152L236,203L362,257Z" fill="#fcb533" stroke="#fcb533" stroke-width="1.51"></path><path d="M236,203L247,280L362,257Z" fill="#fcb431" stroke="#fcb431" stroke-width="1.51"></path><path d="M165,240L50,240L247,280Z" fill="#fdb936" stroke="#fdb936" stroke-width="1.51"></path><path d="M228,75L318,111L328,28Z" fill="#febe3e" stroke="#febe3e" stroke-width="1.51"></path><path d="M264,7L228,75L328,28Z" fill="#fec447" stroke="#fec447" stroke-width="1.51"></path><path d="M228,75L236,203L318,111Z" fill="#febb38" stroke="#febb38" stroke-width="1.51"></path><path d="M318,111L236,203L323,152Z" fill="#fdb836" stroke="#fdb836" stroke-width="1.51"></path><path d="M228,75L165,110L236,203Z" fill="#febd3b" stroke="#febd3b" stroke-width="1.51"></path><path d="M251,-69L156,-29L264,7Z" fill="#ffcf59" stroke="#ffcf59" stroke-width="1.51"></path><path d="M156,-29L228,75L264,7Z" fill="#ffc94e" stroke="#ffc94e" stroke-width="1.51"></path><path d="M165,110L149,191L236,203Z" fill="#febc39" stroke="#febc39" stroke-width="1.51"></path><path d="M236,203L165,240L247,280Z" fill="#fdb734" stroke="#fdb734" stroke-width="1.51"></path><path d="M176,-94L156,-29L251,-69Z" fill="#ffd461" stroke="#ffd461" stroke-width="1.51"></path><path d="M156,-29L165,110L228,75Z" fill="#ffc647" stroke="#ffc647" stroke-width="1.51"></path><path d="M149,191L165,240L236,203Z" fill="#fdba37" stroke="#fdba37" stroke-width="1.51"></path><path d="M156,-29L83,15L165,110Z" fill="#ffcb50" stroke="#ffcb50" stroke-width="1.51"></path><path d="M83,15L73,101L165,110Z" fill="#ffc84a" stroke="#ffc84a" stroke-width="1.51"></path><path d="M41,-109L156,-29L176,-94Z" fill="#ffdb6a" stroke="#ffdb6a" stroke-width="1.51"></path><path d="M58,201L50,240L149,191Z" fill="#fec144" stroke="#fec144" stroke-width="1.51"></path><path d="M149,191L50,240L165,240Z" fill="#febd3d" stroke="#febd3d" stroke-width="1.51"></path><path d="M73,101L149,191L165,110Z" fill="#ffc241" stroke="#ffc241" stroke-width="1.51"></path><path d="M73,101L58,201L149,191Z" fill="#fec345" stroke="#fec345" stroke-width="1.51"></path><path d="M41,-109L83,15L156,-29Z" fill="#ffd967" stroke="#ffd967" stroke-width="1.51"></path><path d="M-14,159L58,201L73,101Z" fill="#fec94f" stroke="#fec94f" stroke-width="1.51"></path><path d="M41,-109L-55,28L83,15Z" fill="#ffdd6e" stroke="#ffdd6e" stroke-width="1.51"></path><path d="M-55,28L-10,78L83,15Z" fill="#ffd663" stroke="#ffd663" stroke-width="1.51"></path><path d="M-10,78L73,101L83,15Z" fill="#ffcf56" stroke="#ffcf56" stroke-width="1.51"></path><path d="M-12,-125L-55,28L41,-109Z" fill="#ffe67d" stroke="#ffe67d" stroke-width="1.51"></path><path d="M-10,78L-14,159L73,101Z" fill="#ffce55" stroke="#ffce55" stroke-width="1.51"></path><path d="M-14,159L50,240L58,201Z" fill="#fec74e" stroke="#fec74e" stroke-width="1.51"></path><path d="M-14,159L-54,238L50,240Z" fill="#feca54" stroke="#feca54" stroke-width="1.51"></path><path d="M-110,155L-54,238L-14,159Z" fill="#ffd15d" stroke="#ffd15d" stroke-width="1.51"></path><path d="M-136,-63L-55,28L-12,-125Z" fill="#ffea83" stroke="#ffea83" stroke-width="1.51"></path><path d="M-110,155L-14,159L-10,78Z" fill="#ffd25e" stroke="#ffd25e" stroke-width="1.51"></path><path d="M-55,28L-110,155L-10,78Z" fill="#ffd663" stroke="#ffd663" stroke-width="1.51"></path><path d="M-136,-63L-146,-28L-55,28Z" fill="#ffea83" stroke="#ffea83" stroke-width="1.51"></path><path d="M-154,59L-110,155L-55,28Z" fill="#ffdc6c" stroke="#ffdc6c" stroke-width="1.51"></path><path d="M-110,155L-147,240L-54,238Z" fill="#ffd363" stroke="#ffd363" stroke-width="1.51"></path><path d="M-146,-28L-154,59L-55,28Z" fill="#ffe57b" stroke="#ffe57b" stroke-width="1.51"></path><path d="M-154,59L-147,240L-110,155Z" fill="#ffda6b" stroke="#ffda6b" stroke-width="1.51"></path></svg>