<svg width="300" height="176" xmlns="http://www.w3.org/2000/svg"><path d="M146,64L171,31L59,6Z" fill="#ffbb65" stroke="#ffbb65" stroke-width="1.51"></path><path d="M59,6L58,74L146,64Z" fill="#ffba6b" stroke="#ffba6b" stroke-width="1.51"></path><path d="M59,6L1,7L58,74Z" fill="#ffb582" stroke="#ffb582" stroke-width="1.51"></path><path d="M171,31L143,-122L59,6Z" fill="#ffb681" stroke="#ffb681" stroke-width="1.51"></path><path d="M59,6L53,-125L1,7Z" fill="#feaf9e" stroke="#feaf9e" stroke-width="1.51"></path><path d="M263,62L228,-16L171,31Z" fill="#ffb95d" stroke="#ffb95d" stroke-width="1.51"></path><path d="M215,-92L143,-122L171,31Z" fill="#ffb386" stroke="#ffb386" stroke-width="1.51"></path><path d="M228,-16L215,-92L171,31Z" fill="#ffb576" stroke="#ffb576" stroke-width="1.51"></path><path d="M143,-122L53,-125L59,6Z" fill="#fdafa1" stroke="#fdafa1" stroke-width="1.51"></path><path d="M146,64L263,62L171,31Z" fill="#ffbd51" stroke="#ffbd51" stroke-width="1.51"></path><path d="M228,-16L316,-122L215,-92Z" fill="#feaf89" stroke="#feaf89" stroke-width="1.51"></path><path d="M269,179L263,62L146,64Z" fill="#ffbe3c" stroke="#ffbe3c" stroke-width="1.51"></path><path d="M58,74L136,181L146,64Z" fill="#ffbe4d" stroke="#ffbe4d" stroke-width="1.51"></path><path d="M53,178L136,181L58,74Z" fill="#ffba57" stroke="#ffba57" stroke-width="1.51"></path><path d="M-39,121L53,178L58,74Z" fill="#ffb86b" stroke="#ffb86b" stroke-width="1.51"></path><path d="M1,7L-39,121L58,74Z" fill="#ffb67b" stroke="#ffb67b" stroke-width="1.51"></path><path d="M1,7L-122,-21L-39,121Z" fill="#fdb09a" stroke="#fdb09a" stroke-width="1.51"></path><path d="M53,-125L-44,-120L1,7Z" fill="#faa9b8" stroke="#faa9b8" stroke-width="1.51"></path><path d="M64,271L154,235L136,181Z" fill="#fdb845" stroke="#fdb845" stroke-width="1.51"></path><path d="M136,181L269,179L146,64Z" fill="#febe3b" stroke="#febe3b" stroke-width="1.51"></path><path d="M154,235L269,179L136,181Z" fill="#fdba38" stroke="#fdba38" stroke-width="1.51"></path><path d="M-44,-120L-122,-21L1,7Z" fill="#faa9bc" stroke="#faa9bc" stroke-width="1.51"></path><path d="M361,18L228,-16L263,62Z" fill="#ffb65e" stroke="#ffb65e" stroke-width="1.51"></path><path d="M361,18L316,-122L228,-16Z" fill="#feb078" stroke="#feb078" stroke-width="1.51"></path><path d="M215,-92L316,-122L143,-122Z" fill="#fdad99" stroke="#fdad99" stroke-width="1.51"></path><path d="M143,-122L316,-122L53,-125Z" fill="#feae9f" stroke="#feae9f" stroke-width="1.51"></path><path d="M358,94L361,18L263,62Z" fill="#feb84a" stroke="#feb84a" stroke-width="1.51"></path><path d="M-39,121L-55,196L53,178Z" fill="#ffb375" stroke="#ffb375" stroke-width="1.51"></path><path d="M53,178L64,271L136,181Z" fill="#feb653" stroke="#feb653" stroke-width="1.51"></path><path d="M-113,121L-55,196L-39,121Z" fill="#ffb087" stroke="#ffb087" stroke-width="1.51"></path><path d="M-122,-21L-113,121L-39,121Z" fill="#feb196" stroke="#feb196" stroke-width="1.51"></path><path d="M269,179L358,94L263,62Z" fill="#fdbb38" stroke="#fdbb38" stroke-width="1.51"></path><path d="M-44,-120L-125,-74L-122,-21Z" fill="#f6a3d2" stroke="#f6a3d2" stroke-width="1.51"></path><path d="M-29,258L64,271L53,178Z" fill="#feb164" stroke="#feb164" stroke-width="1.51"></path><path d="M-55,196L-29,258L53,178Z" fill="#ffb072" stroke="#ffb072" stroke-width="1.51"></path><path d="M-119,301L-29,258L-55,196Z" fill="#feaa82" stroke="#feaa82" stroke-width="1.51"></path><path d="M-113,121L-133,169L-55,196Z" fill="#fead8f" stroke="#fead8f" stroke-width="1.51"></path><path d="M-122,-21L-133,169L-113,121Z" fill="#feb099" stroke="#feb099" stroke-width="1.51"></path><path d="M-125,-74L-133,169L-122,-21Z" fill="#fbaab4" stroke="#fbaab4" stroke-width="1.51"></path><path d="M269,179L358,182L358,94Z" fill="#fdb735" stroke="#fdb735" stroke-width="1.51"></path><path d="M358,94L425,60L361,18Z" fill="#fdb548" stroke="#fdb548" stroke-width="1.51"></path><path d="M350,268L358,182L269,179Z" fill="#fcb431" stroke="#fcb431" stroke-width="1.51"></path><path d="M270,269L269,179L154,235Z" fill="#fdb734" stroke="#fdb734" stroke-width="1.51"></path><path d="M64,271L270,269L154,235Z" fill="#fdb835" stroke="#fdb835" stroke-width="1.51"></path><path d="M442,195L425,60L358,94Z" fill="#fcb633" stroke="#fcb633" stroke-width="1.51"></path><path d="M361,18L441,-105L316,-122Z" fill="#fdab83" stroke="#fdab83" stroke-width="1.51"></path><path d="M425,60L447,-15L361,18Z" fill="#fdb159" stroke="#fdb159" stroke-width="1.51"></path><path d="M270,269L350,268L269,179Z" fill="#fcb431" stroke="#fcb431" stroke-width="1.51"></path><path d="M358,182L442,195L358,94Z" fill="#fcb532" stroke="#fcb532" stroke-width="1.51"></path><path d="M447,-15L441,-105L361,18Z" fill="#feac72" stroke="#feac72" stroke-width="1.51"></path><path d="M-133,169L-119,301L-55,196Z" fill="#feaa8d" stroke="#feaa8d" stroke-width="1.51"></path><path d="M-29,258L-119,301L64,271Z" fill="#fdab74" stroke="#fdab74" stroke-width="1.51"></path><path d="M64,271L388,283L270,269Z" fill="#fcb431" stroke="#fcb431" stroke-width="1.51"></path><path d="M270,269L388,283L350,268Z" fill="#fbb02d" stroke="#fbb02d" stroke-width="1.51"></path><path d="M388,283L442,195L358,182Z" fill="#fbb12e" stroke="#fbb12e" stroke-width="1.51"></path><path d="M425,60L442,195L447,-15Z" fill="#fdb638" stroke="#fdb638" stroke-width="1.51"></path><path d="M350,268L388,283L358,182Z" fill="#fbb02e" stroke="#fbb02e" stroke-width="1.51"></path><path d="M-119,301L388,283L64,271Z" fill="#fdb445" stroke="#fdb445" stroke-width="1.51"></path></svg>