<svg width="300" height="176" xmlns="http://www.w3.org/2000/svg"><path d="M124,111L75,111L71,155Z" fill="#ffbc55" stroke="#ffbc55" stroke-width="1.51"></path><path d="M71,155L131,189L124,111Z" fill="#febc4d" stroke="#febc4d" stroke-width="1.51"></path><path d="M71,155L122,255L131,189Z" fill="#feb94b" stroke="#feb94b" stroke-width="1.51"></path><path d="M131,189L229,145L124,111Z" fill="#ffbe3b" stroke="#ffbe3b" stroke-width="1.51"></path><path d="M244,301L229,145L131,189Z" fill="#fdb936" stroke="#fdb936" stroke-width="1.51"></path><path d="M141,1L49,7L75,111Z" fill="#ffba6e" stroke="#ffba6e" stroke-width="1.51"></path><path d="M75,111L-51,119L71,155Z" fill="#ffb869" stroke="#ffb869" stroke-width="1.51"></path><path d="M141,1L75,111L124,111Z" fill="#ffbf55" stroke="#ffbf55" stroke-width="1.51"></path><path d="M240,87L141,1L124,111Z" fill="#ffbf4b" stroke="#ffbf4b" stroke-width="1.51"></path><path d="M229,145L240,87L124,111Z" fill="#febf3c" stroke="#febf3c" stroke-width="1.51"></path><path d="M49,7L-51,119L75,111Z" fill="#ffb971" stroke="#ffb971" stroke-width="1.51"></path><path d="M71,155L90,295L122,255Z" fill="#fdb64e" stroke="#fdb64e" stroke-width="1.51"></path><path d="M-51,119L-54,150L71,155Z" fill="#ffb476" stroke="#ffb476" stroke-width="1.51"></path><path d="M301,197L303,98L229,145Z" fill="#feb937" stroke="#feb937" stroke-width="1.51"></path><path d="M-32,250L90,295L71,155Z" fill="#feb260" stroke="#feb260" stroke-width="1.51"></path><path d="M-54,150L-32,250L71,155Z" fill="#ffb271" stroke="#ffb271" stroke-width="1.51"></path><path d="M263,-18L174,-68L141,1Z" fill="#ffb577" stroke="#ffb577" stroke-width="1.51"></path><path d="M229,145L303,98L240,87Z" fill="#febc3a" stroke="#febc3a" stroke-width="1.51"></path><path d="M301,197L229,145L244,301Z" fill="#fdb634" stroke="#fdb634" stroke-width="1.51"></path><path d="M244,301L131,189L122,255Z" fill="#fdb836" stroke="#fdb836" stroke-width="1.51"></path><path d="M-51,119L-115,113L-54,150Z" fill="#feb189" stroke="#feb189" stroke-width="1.51"></path><path d="M-54,150L-142,159L-32,250Z" fill="#feae87" stroke="#feae87" stroke-width="1.51"></path><path d="M-121,27L-115,113L-51,119Z" fill="#feb292" stroke="#feb292" stroke-width="1.51"></path><path d="M263,-18L141,1L240,87Z" fill="#ffb95f" stroke="#ffb95f" stroke-width="1.51"></path><path d="M141,1L33,-91L49,7Z" fill="#feb28f" stroke="#feb28f" stroke-width="1.51"></path><path d="M90,295L244,301L122,255Z" fill="#fdb734" stroke="#fdb734" stroke-width="1.51"></path><path d="M303,98L263,-18L240,87Z" fill="#feba4d" stroke="#feba4d" stroke-width="1.51"></path><path d="M-39,-63L-49,-33L49,7Z" fill="#fcadaa" stroke="#fcadaa" stroke-width="1.51"></path><path d="M49,7L-49,-33L-51,119Z" fill="#feb292" stroke="#feb292" stroke-width="1.51"></path><path d="M174,-68L33,-91L141,1Z" fill="#feb38d" stroke="#feb38d" stroke-width="1.51"></path><path d="M-49,-33L-121,27L-51,119Z" fill="#fdafa0" stroke="#fdafa0" stroke-width="1.51"></path><path d="M33,-91L-39,-63L49,7Z" fill="#fcaca9" stroke="#fcaca9" stroke-width="1.51"></path><path d="M-121,27L-142,159L-115,113Z" fill="#feb09a" stroke="#feb09a" stroke-width="1.51"></path><path d="M-115,113L-142,159L-54,150Z" fill="#feae91" stroke="#feae91" stroke-width="1.51"></path><path d="M244,301L297,280L301,197Z" fill="#fcb331" stroke="#fcb331" stroke-width="1.51"></path><path d="M-116,-95L-121,27L-49,-33Z" fill="#f9a7c3" stroke="#f9a7c3" stroke-width="1.51"></path><path d="M303,98L323,-7L263,-18Z" fill="#feb65b" stroke="#feb65b" stroke-width="1.51"></path><path d="M263,-18L267,-72L174,-68Z" fill="#ffb280" stroke="#ffb280" stroke-width="1.51"></path><path d="M396,96L323,-7L303,98Z" fill="#feb747" stroke="#feb747" stroke-width="1.51"></path><path d="M396,96L303,98L301,197Z" fill="#fdb835" stroke="#fdb835" stroke-width="1.51"></path><path d="M323,-7L267,-72L263,-18Z" fill="#ffb176" stroke="#ffb176" stroke-width="1.51"></path><path d="M174,-68L319,-102L33,-91Z" fill="#ffb190" stroke="#ffb190" stroke-width="1.51"></path><path d="M-142,159L-139,294L-32,250Z" fill="#fda98d" stroke="#fda98d" stroke-width="1.51"></path><path d="M-32,250L-139,294L90,295Z" fill="#fdab74" stroke="#fdab74" stroke-width="1.51"></path><path d="M90,295L-139,294L244,301Z" fill="#fdb056" stroke="#fdb056" stroke-width="1.51"></path><path d="M406,201L396,96L301,197Z" fill="#fcb533" stroke="#fcb533" stroke-width="1.51"></path><path d="M297,280L406,201L301,197Z" fill="#fbb230" stroke="#fbb230" stroke-width="1.51"></path><path d="M-39,-63L-116,-95L-49,-33Z" fill="#f8a7c7" stroke="#f8a7c7" stroke-width="1.51"></path><path d="M-121,27L-116,-95L-142,159Z" fill="#fbabb2" stroke="#fbabb2" stroke-width="1.51"></path><path d="M33,-91L-116,-95L-39,-63Z" fill="#f8a6c7" stroke="#f8a6c7" stroke-width="1.51"></path><path d="M397,6L319,-102L323,-7Z" fill="#feaf75" stroke="#feaf75" stroke-width="1.51"></path><path d="M323,-7L319,-102L267,-72Z" fill="#feae81" stroke="#feae81" stroke-width="1.51"></path><path d="M267,-72L319,-102L174,-68Z" fill="#feae8b" stroke="#feae8b" stroke-width="1.51"></path><path d="M33,-91L420,-118L-116,-95Z" fill="#fdaea2" stroke="#fdaea2" stroke-width="1.51"></path><path d="M396,96L397,6L323,-7Z" fill="#feb456" stroke="#feb456" stroke-width="1.51"></path><path d="M420,-118L397,6L396,96Z" fill="#fdaf66" stroke="#fdaf66" stroke-width="1.51"></path><path d="M406,201L421,242L396,96Z" fill="#fcb230" stroke="#fcb230" stroke-width="1.51"></path><path d="M297,280L421,242L406,201Z" fill="#fbb02e" stroke="#fbb02e" stroke-width="1.51"></path><path d="M244,301L421,242L297,280Z" fill="#fbb02e" stroke="#fbb02e" stroke-width="1.51"></path><path d="M397,6L420,-118L319,-102Z" fill="#fdaa83" stroke="#fdaa83" stroke-width="1.51"></path><path d="M319,-102L420,-118L33,-91Z" fill="#fdac95" stroke="#fdac95" stroke-width="1.51"></path><path d="M421,242L420,-118L396,96Z" fill="#fdb53e" stroke="#fdb53e" stroke-width="1.51"></path></svg>