<svg width="300" height="176" xmlns="http://www.w3.org/2000/svg"><path d="M128,72L78,108L154,202Z" fill="#ffbd4a" stroke="#ffbd4a" stroke-width="1.51"></path><path d="M78,108L65,205L154,202Z" fill="#feb94f" stroke="#feb94f" stroke-width="1.51"></path><path d="M65,205L135,251L154,202Z" fill="#feb845" stroke="#feb845" stroke-width="1.51"></path><path d="M260,155L244,95L154,202Z" fill="#febb39" stroke="#febb39" stroke-width="1.51"></path><path d="M154,202L244,95L128,72Z" fill="#ffbf3c" stroke="#ffbf3c" stroke-width="1.51"></path><path d="M215,236L260,155L154,202Z" fill="#fdb937" stroke="#fdb937" stroke-width="1.51"></path><path d="M135,251L215,236L154,202Z" fill="#fdba37" stroke="#fdba37" stroke-width="1.51"></path><path d="M128,72L86,-22L78,108Z" fill="#ffbc65" stroke="#ffbc65" stroke-width="1.51"></path><path d="M244,95L145,12L128,72Z" fill="#ffbe4e" stroke="#ffbe4e" stroke-width="1.51"></path><path d="M65,205L77,252L135,251Z" fill="#fdb54f" stroke="#fdb54f" stroke-width="1.51"></path><path d="M65,205L-20,240L77,252Z" fill="#feb260" stroke="#feb260" stroke-width="1.51"></path><path d="M78,108L-2,151L65,205Z" fill="#ffb763" stroke="#ffb763" stroke-width="1.51"></path><path d="M-63,94L-2,151L78,108Z" fill="#ffb772" stroke="#ffb772" stroke-width="1.51"></path><path d="M145,12L86,-22L128,72Z" fill="#ffba6c" stroke="#ffba6c" stroke-width="1.51"></path><path d="M244,95L262,15L145,12Z" fill="#ffba57" stroke="#ffba57" stroke-width="1.51"></path><path d="M137,-104L77,-81L86,-22Z" fill="#fdb098" stroke="#fdb098" stroke-width="1.51"></path><path d="M347,73L262,15L244,95Z" fill="#feba49" stroke="#feba49" stroke-width="1.51"></path><path d="M-2,151L-20,240L65,205Z" fill="#feb26b" stroke="#feb26b" stroke-width="1.51"></path><path d="M260,155L347,73L244,95Z" fill="#febc39" stroke="#febc39" stroke-width="1.51"></path><path d="M215,236L318,196L260,155Z" fill="#fdb835" stroke="#fdb835" stroke-width="1.51"></path><path d="M-35,7L-63,94L78,108Z" fill="#ffb67f" stroke="#ffb67f" stroke-width="1.51"></path><path d="M-2,151L-87,169L-20,240Z" fill="#ffb07b" stroke="#ffb07b" stroke-width="1.51"></path><path d="M86,-22L-35,7L78,108Z" fill="#ffb680" stroke="#ffb680" stroke-width="1.51"></path><path d="M318,196L347,73L260,155Z" fill="#fdb936" stroke="#fdb936" stroke-width="1.51"></path><path d="M-63,94L-87,169L-2,151Z" fill="#ffb282" stroke="#ffb282" stroke-width="1.51"></path><path d="M86,-22L-3,-86L-35,7Z" fill="#fdaea3" stroke="#fdaea3" stroke-width="1.51"></path><path d="M137,-104L86,-22L145,12Z" fill="#ffb485" stroke="#ffb485" stroke-width="1.51"></path><path d="M318,196L394,146L347,73Z" fill="#fdb735" stroke="#fdb735" stroke-width="1.51"></path><path d="M215,236L345,249L318,196Z" fill="#fcb432" stroke="#fcb432" stroke-width="1.51"></path><path d="M420,283L345,249L215,236Z" fill="#fcb12f" stroke="#fcb12f" stroke-width="1.51"></path><path d="M420,283L215,236L135,251Z" fill="#fcb432" stroke="#fcb432" stroke-width="1.51"></path><path d="M268,-98L145,12L262,15Z" fill="#ffb574" stroke="#ffb574" stroke-width="1.51"></path><path d="M268,-98L137,-104L145,12Z" fill="#feb386" stroke="#feb386" stroke-width="1.51"></path><path d="M347,73L349,7L262,15Z" fill="#feb658" stroke="#feb658" stroke-width="1.51"></path><path d="M387,12L349,7L347,73Z" fill="#feb457" stroke="#feb457" stroke-width="1.51"></path><path d="M345,249L394,146L318,196Z" fill="#fcb331" stroke="#fcb331" stroke-width="1.51"></path><path d="M-63,94L-111,61L-87,169Z" fill="#ffb28e" stroke="#ffb28e" stroke-width="1.51"></path><path d="M-92,15L-111,61L-63,94Z" fill="#fdaf9c" stroke="#fdaf9c" stroke-width="1.51"></path><path d="M-92,15L-63,94L-35,7Z" fill="#fdaf9c" stroke="#fdaf9c" stroke-width="1.51"></path><path d="M-100,-95L-92,15L-35,7Z" fill="#faa9b9" stroke="#faa9b9" stroke-width="1.51"></path><path d="M137,-104L-3,-86L77,-81Z" fill="#fcadaa" stroke="#fcadaa" stroke-width="1.51"></path><path d="M77,-81L-3,-86L86,-22Z" fill="#fdaea3" stroke="#fdaea3" stroke-width="1.51"></path><path d="M-111,61L-106,252L-87,169Z" fill="#feae90" stroke="#feae90" stroke-width="1.51"></path><path d="M-87,169L-106,252L-20,240Z" fill="#feac84" stroke="#feac84" stroke-width="1.51"></path><path d="M-20,240L-106,252L77,252Z" fill="#feae72" stroke="#feae72" stroke-width="1.51"></path><path d="M317,-67L268,-98L262,15Z" fill="#feb07e" stroke="#feb07e" stroke-width="1.51"></path><path d="M349,7L317,-67L262,15Z" fill="#feb26d" stroke="#feb26d" stroke-width="1.51"></path><path d="M349,7L415,-65L317,-67Z" fill="#feae77" stroke="#feae77" stroke-width="1.51"></path><path d="M447,74L387,12L347,73Z" fill="#fdb54a" stroke="#fdb54a" stroke-width="1.51"></path><path d="M387,12L415,-65L349,7Z" fill="#feaf6b" stroke="#feaf6b" stroke-width="1.51"></path><path d="M394,146L447,74L347,73Z" fill="#fdb835" stroke="#fdb835" stroke-width="1.51"></path><path d="M420,283L447,74L394,146Z" fill="#fcb330" stroke="#fcb330" stroke-width="1.51"></path><path d="M345,249L420,283L394,146Z" fill="#fbb12e" stroke="#fbb12e" stroke-width="1.51"></path><path d="M77,252L420,283L135,251Z" fill="#fcb633" stroke="#fcb633" stroke-width="1.51"></path><path d="M-106,252L420,283L77,252Z" fill="#fdb63e" stroke="#fdb63e" stroke-width="1.51"></path><path d="M137,-104L-100,-95L-3,-86Z" fill="#faa8bd" stroke="#faa8bd" stroke-width="1.51"></path><path d="M-3,-86L-100,-95L-35,7Z" fill="#faa8be" stroke="#faa8be" stroke-width="1.51"></path><path d="M-92,15L-100,-95L-111,61Z" fill="#faa9b9" stroke="#faa9b9" stroke-width="1.51"></path><path d="M447,74L415,-65L387,12Z" fill="#feaf60" stroke="#feaf60" stroke-width="1.51"></path><path d="M317,-67L415,-65L268,-98Z" fill="#feab87" stroke="#feab87" stroke-width="1.51"></path></svg>