<svg width="300" height="176" xmlns="http://www.w3.org/2000/svg"><path d="M133,68L208,3L149,-9Z" fill="#ffb18f" stroke="#ffb18f" stroke-width="1.51"></path><path d="M133,68L212,100L208,3Z" fill="#ffb865" stroke="#ffb865" stroke-width="1.51"></path><path d="M149,-9L87,-34L133,68Z" fill="#fcacad" stroke="#fcacad" stroke-width="1.51"></path><path d="M173,-121L87,-34L149,-9Z" fill="#fbacae" stroke="#fbacae" stroke-width="1.51"></path><path d="M208,3L173,-121L149,-9Z" fill="#fcaba4" stroke="#fcaba4" stroke-width="1.51"></path><path d="M212,100L297,8L208,3Z" fill="#feae78" stroke="#feae78" stroke-width="1.51"></path><path d="M133,68L90,153L212,100Z" fill="#ffbe41" stroke="#ffbe41" stroke-width="1.51"></path><path d="M-1,-3L56,117L133,68Z" fill="#feaf9c" stroke="#feaf9c" stroke-width="1.51"></path><path d="M56,117L90,153L133,68Z" fill="#ffb668" stroke="#ffb668" stroke-width="1.51"></path><path d="M123,199L233,166L212,100Z" fill="#fdb533" stroke="#fdb533" stroke-width="1.51"></path><path d="M212,100L303,112L297,8Z" fill="#fdb44b" stroke="#fdb44b" stroke-width="1.51"></path><path d="M233,166L303,112L212,100Z" fill="#fcb431" stroke="#fcb431" stroke-width="1.51"></path><path d="M237,-108L173,-121L208,3Z" fill="#fca8a2" stroke="#fca8a2" stroke-width="1.51"></path><path d="M296,-65L237,-108L208,3Z" fill="#fba59f" stroke="#fba59f" stroke-width="1.51"></path><path d="M297,8L296,-65L208,3Z" fill="#fba39d" stroke="#fba39d" stroke-width="1.51"></path><path d="M432,5L296,-65L297,8Z" fill="#fba09b" stroke="#fba09b" stroke-width="1.51"></path><path d="M87,-34L-1,-3L133,68Z" fill="#f7a5c9" stroke="#f7a5c9" stroke-width="1.51"></path><path d="M173,-121L44,-72L87,-34Z" fill="#f9a7c3" stroke="#f9a7c3" stroke-width="1.51"></path><path d="M126,243L123,199L56,268Z" fill="#fdae5a" stroke="#fdae5a" stroke-width="1.51"></path><path d="M90,153L123,199L212,100Z" fill="#fdb83e" stroke="#fdb83e" stroke-width="1.51"></path><path d="M44,-72L-1,-3L87,-34Z" fill="#f19fe5" stroke="#f19fe5" stroke-width="1.51"></path><path d="M123,199L126,243L233,166Z" fill="#fcb431" stroke="#fcb431" stroke-width="1.51"></path><path d="M56,268L123,199L90,153Z" fill="#fdad63" stroke="#fdad63" stroke-width="1.51"></path><path d="M303,112L432,5L297,8Z" fill="#fdaa6f" stroke="#fdaa6f" stroke-width="1.51"></path><path d="M233,166L346,169L303,112Z" fill="#faad2a" stroke="#faad2a" stroke-width="1.51"></path><path d="M262,242L346,169L233,166Z" fill="#faaa27" stroke="#faaa27" stroke-width="1.51"></path><path d="M126,243L262,242L233,166Z" fill="#fbb02e" stroke="#fbb02e" stroke-width="1.51"></path><path d="M56,117L-47,144L90,153Z" fill="#fdaa8c" stroke="#fdaa8c" stroke-width="1.51"></path><path d="M-1,-3L-53,108L56,117Z" fill="#faaab4" stroke="#faaab4" stroke-width="1.51"></path><path d="M-53,108L-47,144L56,117Z" fill="#fca8a1" stroke="#fca8a1" stroke-width="1.51"></path><path d="M126,243L56,268L262,242Z" fill="#fcb535" stroke="#fcb535" stroke-width="1.51"></path><path d="M-47,144L56,268L90,153Z" fill="#fca487" stroke="#fca487" stroke-width="1.51"></path><path d="M296,-65L449,-85L237,-108Z" fill="#fba09b" stroke="#fba09b" stroke-width="1.51"></path><path d="M448,92L432,5L303,112Z" fill="#fdb04e" stroke="#fdb04e" stroke-width="1.51"></path><path d="M-1,-3L-112,80L-53,108Z" fill="#f9a8c0" stroke="#f9a8c0" stroke-width="1.51"></path><path d="M44,-72L-47,-113L-1,-3Z" fill="#e99aff" stroke="#e99aff" stroke-width="1.51"></path><path d="M173,-121L-47,-113L44,-72Z" fill="#f3a1de" stroke="#f3a1de" stroke-width="1.51"></path><path d="M346,169L448,92L303,112Z" fill="#fbb02d" stroke="#fbb02d" stroke-width="1.51"></path><path d="M262,242L339,252L346,169Z" fill="#f9a825" stroke="#f9a825" stroke-width="1.51"></path><path d="M56,268L339,252L262,242Z" fill="#fbaf2d" stroke="#fbaf2d" stroke-width="1.51"></path><path d="M439,186L448,92L346,169Z" fill="#faac29" stroke="#faac29" stroke-width="1.51"></path><path d="M-47,144L-38,293L56,268Z" fill="#fba09b" stroke="#fba09b" stroke-width="1.51"></path><path d="M-53,108L-112,80L-47,144Z" fill="#fcaaa3" stroke="#fcaaa3" stroke-width="1.51"></path><path d="M-151,21L-112,80L-1,-3Z" fill="#f3a1de" stroke="#f3a1de" stroke-width="1.51"></path><path d="M432,5L449,-85L296,-65Z" fill="#fba09b" stroke="#fba09b" stroke-width="1.51"></path><path d="M237,-108L449,-85L173,-121Z" fill="#fba19c" stroke="#fba19c" stroke-width="1.51"></path><path d="M448,92L449,-85L432,5Z" fill="#fba197" stroke="#fba197" stroke-width="1.51"></path><path d="M430,237L439,186L346,169Z" fill="#f9a825" stroke="#f9a825" stroke-width="1.51"></path><path d="M-139,-85L-151,21L-1,-3Z" fill="#e99aff" stroke="#e99aff" stroke-width="1.51"></path><path d="M339,252L430,237L346,169Z" fill="#f9a825" stroke="#f9a825" stroke-width="1.51"></path><path d="M-122,267L-38,293L-47,144Z" fill="#fba09b" stroke="#fba09b" stroke-width="1.51"></path><path d="M56,268L-38,293L339,252Z" fill="#fdb14d" stroke="#fdb14d" stroke-width="1.51"></path><path d="M-146,183L-47,144L-112,80Z" fill="#fca6a0" stroke="#fca6a0" stroke-width="1.51"></path><path d="M-47,-113L-139,-85L-1,-3Z" fill="#e99aff" stroke="#e99aff" stroke-width="1.51"></path><path d="M-151,21L-146,183L-112,80Z" fill="#fdada5" stroke="#fdada5" stroke-width="1.51"></path><path d="M-146,183L-122,267L-47,144Z" fill="#fba09b" stroke="#fba09b" stroke-width="1.51"></path></svg>