<svg width="300" height="176" xmlns="http://www.w3.org/2000/svg"><path d="M-8,253L-147,254L74,267Z" fill="#feac75" stroke="#feac75" stroke-width="1.51"></path><path d="M74,267L-147,254L206,293Z" fill="#feb05d" stroke="#feb05d" stroke-width="1.51"></path><path d="M401,89L329,148L415,188Z" fill="#fdb633" stroke="#fdb633" stroke-width="1.51"></path><path d="M363,243L393,299L415,188Z" fill="#fbaf2d" stroke="#fbaf2d" stroke-width="1.51"></path><path d="M168,-117L261,-102L428,-113Z" fill="#fdaa96" stroke="#fdaa96" stroke-width="1.51"></path><path d="M261,-102L348,-77L428,-113Z" fill="#fda98f" stroke="#fda98f" stroke-width="1.51"></path><path d="M355,13L401,89L437,-9Z" fill="#fdb355" stroke="#fdb355" stroke-width="1.51"></path><path d="M428,-113L348,-77L437,-9Z" fill="#fda980" stroke="#fda980" stroke-width="1.51"></path><path d="M348,-77L355,13L437,-9Z" fill="#feae6f" stroke="#feae6f" stroke-width="1.51"></path><path d="M401,89L415,188L437,-9Z" fill="#fdb734" stroke="#fdb734" stroke-width="1.51"></path><path d="M329,148L363,243L415,188Z" fill="#fcb330" stroke="#fcb330" stroke-width="1.51"></path><path d="M355,13L306,86L401,89Z" fill="#fdb747" stroke="#fdb747" stroke-width="1.51"></path><path d="M306,86L329,148L401,89Z" fill="#fdb936" stroke="#fdb936" stroke-width="1.51"></path><path d="M363,243L206,293L393,299Z" fill="#fbb02d" stroke="#fbb02d" stroke-width="1.51"></path><path d="M261,-102L214,3L348,-77Z" fill="#feaf81" stroke="#feaf81" stroke-width="1.51"></path><path d="M348,-77L214,3L355,13Z" fill="#feb170" stroke="#feb170" stroke-width="1.51"></path><path d="M329,148L221,204L363,243Z" fill="#fcb533" stroke="#fcb533" stroke-width="1.51"></path><path d="M221,204L206,293L363,243Z" fill="#fcb532" stroke="#fcb532" stroke-width="1.51"></path><path d="M214,3L306,86L355,13Z" fill="#feb757" stroke="#feb757" stroke-width="1.51"></path><path d="M214,3L216,61L306,86Z" fill="#feba51" stroke="#feba51" stroke-width="1.51"></path><path d="M306,86L221,204L329,148Z" fill="#feb937" stroke="#feb937" stroke-width="1.51"></path><path d="M216,61L221,204L306,86Z" fill="#febd3a" stroke="#febd3a" stroke-width="1.51"></path><path d="M216,61L124,166L221,204Z" fill="#febe3b" stroke="#febe3b" stroke-width="1.51"></path><path d="M182,264L206,293L221,204Z" fill="#fdb734" stroke="#fdb734" stroke-width="1.51"></path><path d="M168,-117L214,3L261,-102Z" fill="#feb189" stroke="#feb189" stroke-width="1.51"></path><path d="M168,-117L149,-7L214,3Z" fill="#ffb57d" stroke="#ffb57d" stroke-width="1.51"></path><path d="M133,68L124,166L216,61Z" fill="#ffc13e" stroke="#ffc13e" stroke-width="1.51"></path><path d="M214,3L149,-7L216,61Z" fill="#ffb962" stroke="#ffb962" stroke-width="1.51"></path><path d="M149,-7L133,68L216,61Z" fill="#ffbd58" stroke="#ffbd58" stroke-width="1.51"></path><path d="M124,166L182,264L221,204Z" fill="#feba37" stroke="#feba37" stroke-width="1.51"></path><path d="M182,264L74,267L206,293Z" fill="#fdb735" stroke="#fdb735" stroke-width="1.51"></path><path d="M124,166L74,267L182,264Z" fill="#fdb842" stroke="#fdb842" stroke-width="1.51"></path><path d="M32,-115L65,10L149,-7Z" fill="#feb291" stroke="#feb291" stroke-width="1.51"></path><path d="M32,-115L149,-7L168,-117Z" fill="#feb198" stroke="#feb198" stroke-width="1.51"></path><path d="M61,169L74,267L124,166Z" fill="#feb752" stroke="#feb752" stroke-width="1.51"></path><path d="M80,74L124,166L133,68Z" fill="#ffbe4d" stroke="#ffbe4d" stroke-width="1.51"></path><path d="M65,10L133,68L149,-7Z" fill="#ffba6d" stroke="#ffba6d" stroke-width="1.51"></path><path d="M80,74L61,169L124,166Z" fill="#ffbb55" stroke="#ffbb55" stroke-width="1.51"></path><path d="M65,10L80,74L133,68Z" fill="#ffbb68" stroke="#ffbb68" stroke-width="1.51"></path><path d="M32,-115L-27,-71L65,10Z" fill="#fcacab" stroke="#fcacab" stroke-width="1.51"></path><path d="M61,169L-8,253L74,267Z" fill="#feb361" stroke="#feb361" stroke-width="1.51"></path><path d="M65,10L-4,69L80,74Z" fill="#ffb876" stroke="#ffb876" stroke-width="1.51"></path><path d="M-4,69L61,169L80,74Z" fill="#ffba65" stroke="#ffba65" stroke-width="1.51"></path><path d="M-27,-71L-45,-29L65,10Z" fill="#fdada7" stroke="#fdada7" stroke-width="1.51"></path><path d="M-4,69L-47,165L61,169Z" fill="#ffb671" stroke="#ffb671" stroke-width="1.51"></path><path d="M-47,165L-8,253L61,169Z" fill="#feb26f" stroke="#feb26f" stroke-width="1.51"></path><path d="M-45,-29L-4,69L65,10Z" fill="#feb291" stroke="#feb291" stroke-width="1.51"></path><path d="M-110,-83L-27,-71L32,-115Z" fill="#f8a6c7" stroke="#f8a6c7" stroke-width="1.51"></path><path d="M-149,28L-108,103L-45,-29Z" fill="#fcada9" stroke="#fcada9" stroke-width="1.51"></path><path d="M-45,-29L-108,103L-4,69Z" fill="#feb195" stroke="#feb195" stroke-width="1.51"></path><path d="M-108,103L-47,165L-4,69Z" fill="#ffb384" stroke="#ffb384" stroke-width="1.51"></path><path d="M-47,165L-128,180L-8,253Z" fill="#feae82" stroke="#feae82" stroke-width="1.51"></path><path d="M-128,180L-147,254L-8,253Z" fill="#fdaa8a" stroke="#fdaa8a" stroke-width="1.51"></path><path d="M-110,-83L-45,-29L-27,-71Z" fill="#f9a7c4" stroke="#f9a7c4" stroke-width="1.51"></path><path d="M-108,103L-128,180L-47,165Z" fill="#feaf8e" stroke="#feaf8e" stroke-width="1.51"></path><path d="M-110,-83L-149,28L-45,-29Z" fill="#f9a7c2" stroke="#f9a7c2" stroke-width="1.51"></path><path d="M-149,28L-128,180L-108,103Z" fill="#feaf9a" stroke="#feaf9a" stroke-width="1.51"></path><path d="M-149,28L-147,254L-128,180Z" fill="#fcab9c" stroke="#fcab9c" stroke-width="1.51"></path></svg>