<svg width="300" height="176" xmlns="http://www.w3.org/2000/svg"><path d="M119,97L139,-14L84,64Z" fill="#ffbc62" stroke="#ffbc62" stroke-width="1.51"></path><path d="M139,-14L69,-26L84,64Z" fill="#ffb779" stroke="#ffb779" stroke-width="1.51"></path><path d="M119,97L227,106L139,-14Z" fill="#ffbf4d" stroke="#ffbf4d" stroke-width="1.51"></path><path d="M227,106L238,-23L139,-14Z" fill="#ffba5f" stroke="#ffba5f" stroke-width="1.51"></path><path d="M139,-14L169,-78L69,-26Z" fill="#ffb585" stroke="#ffb585" stroke-width="1.51"></path><path d="M238,-23L169,-78L139,-14Z" fill="#ffb57c" stroke="#ffb57c" stroke-width="1.51"></path><path d="M119,97L161,179L227,106Z" fill="#ffbe3d" stroke="#ffbe3d" stroke-width="1.51"></path><path d="M83,183L161,179L119,97Z" fill="#febc48" stroke="#febc48" stroke-width="1.51"></path><path d="M-46,146L83,183L84,64Z" fill="#ffb866" stroke="#ffb866" stroke-width="1.51"></path><path d="M84,64L83,183L119,97Z" fill="#ffbd54" stroke="#ffbd54" stroke-width="1.51"></path><path d="M69,-26L-41,72L84,64Z" fill="#ffb67f" stroke="#ffb67f" stroke-width="1.51"></path><path d="M169,-78L43,-85L69,-26Z" fill="#fdb198" stroke="#fdb198" stroke-width="1.51"></path><path d="M227,106L326,58L238,-23Z" fill="#feba52" stroke="#feba52" stroke-width="1.51"></path><path d="M161,179L230,185L227,106Z" fill="#febb39" stroke="#febb39" stroke-width="1.51"></path><path d="M181,238L230,185L161,179Z" fill="#fdba38" stroke="#fdba38" stroke-width="1.51"></path><path d="M-59,5L-41,72L69,-26Z" fill="#feb196" stroke="#feb196" stroke-width="1.51"></path><path d="M296,188L326,58L227,106Z" fill="#febb39" stroke="#febb39" stroke-width="1.51"></path><path d="M238,-23L255,-115L169,-78Z" fill="#feb088" stroke="#feb088" stroke-width="1.51"></path><path d="M169,-78L255,-115L43,-85Z" fill="#feb294" stroke="#feb294" stroke-width="1.51"></path><path d="M306,-113L255,-115L238,-23Z" fill="#fead8c" stroke="#fead8c" stroke-width="1.51"></path><path d="M43,-85L-59,5L69,-26Z" fill="#fdaea3" stroke="#fdaea3" stroke-width="1.51"></path><path d="M91,270L181,238L161,179Z" fill="#fdba3a" stroke="#fdba3a" stroke-width="1.51"></path><path d="M43,-85L-13,-103L-59,5Z" fill="#fbaab5" stroke="#fbaab5" stroke-width="1.51"></path><path d="M255,-115L-13,-103L43,-85Z" fill="#fcada7" stroke="#fcada7" stroke-width="1.51"></path><path d="M-41,72L-46,146L84,64Z" fill="#ffb775" stroke="#ffb775" stroke-width="1.51"></path><path d="M83,183L91,270L161,179Z" fill="#feb849" stroke="#feb849" stroke-width="1.51"></path><path d="M-97,91L-46,146L-41,72Z" fill="#ffb386" stroke="#ffb386" stroke-width="1.51"></path><path d="M249,298L296,188L230,185Z" fill="#fdb634" stroke="#fdb634" stroke-width="1.51"></path><path d="M230,185L296,188L227,106Z" fill="#fdba37" stroke="#fdba37" stroke-width="1.51"></path><path d="M397,112L357,1L326,58Z" fill="#fdb649" stroke="#fdb649" stroke-width="1.51"></path><path d="M326,58L357,1L238,-23Z" fill="#feb462" stroke="#feb462" stroke-width="1.51"></path><path d="M357,1L306,-113L238,-23Z" fill="#feb07b" stroke="#feb07b" stroke-width="1.51"></path><path d="M-14,283L91,270L83,183Z" fill="#feb25c" stroke="#feb25c" stroke-width="1.51"></path><path d="M-139,-36L-97,91L-59,5Z" fill="#fcacae" stroke="#fcacae" stroke-width="1.51"></path><path d="M-59,5L-97,91L-41,72Z" fill="#feb196" stroke="#feb196" stroke-width="1.51"></path><path d="M296,188L397,112L326,58Z" fill="#fdb836" stroke="#fdb836" stroke-width="1.51"></path><path d="M91,270L249,298L181,238Z" fill="#fdb734" stroke="#fdb734" stroke-width="1.51"></path><path d="M181,238L249,298L230,185Z" fill="#fdb634" stroke="#fdb634" stroke-width="1.51"></path><path d="M296,188L412,178L397,112Z" fill="#fcb532" stroke="#fcb532" stroke-width="1.51"></path><path d="M-13,-103L-104,-105L-59,5Z" fill="#f9a6c6" stroke="#f9a6c6" stroke-width="1.51"></path><path d="M255,-115L-104,-105L-13,-103Z" fill="#faa9b8" stroke="#faa9b8" stroke-width="1.51"></path><path d="M-116,255L-14,283L-46,146Z" fill="#feac80" stroke="#feac80" stroke-width="1.51"></path><path d="M-46,146L-14,283L83,183Z" fill="#ffb26d" stroke="#ffb26d" stroke-width="1.51"></path><path d="M91,270L-14,283L249,298Z" fill="#fdb446" stroke="#fdb446" stroke-width="1.51"></path><path d="M-104,-105L-139,-36L-59,5Z" fill="#f8a6c9" stroke="#f8a6c9" stroke-width="1.51"></path><path d="M249,298L332,268L296,188Z" fill="#fcb331" stroke="#fcb331" stroke-width="1.51"></path><path d="M397,112L434,-1L357,1Z" fill="#fdb352" stroke="#fdb352" stroke-width="1.51"></path><path d="M357,1L437,-81L306,-113Z" fill="#fdab80" stroke="#fdab80" stroke-width="1.51"></path><path d="M397,112L412,178L434,-1Z" fill="#fdb734" stroke="#fdb734" stroke-width="1.51"></path><path d="M332,268L412,178L296,188Z" fill="#fcb330" stroke="#fcb330" stroke-width="1.51"></path><path d="M-97,91L-147,180L-46,146Z" fill="#feaf8f" stroke="#feaf8f" stroke-width="1.51"></path><path d="M-139,-36L-147,180L-97,91Z" fill="#fdaf9f" stroke="#fdaf9f" stroke-width="1.51"></path><path d="M434,-1L437,-81L357,1Z" fill="#fead70" stroke="#fead70" stroke-width="1.51"></path><path d="M-147,180L-116,255L-46,146Z" fill="#fdac8f" stroke="#fdac8f" stroke-width="1.51"></path><path d="M332,268L444,261L412,178Z" fill="#fbb02d" stroke="#fbb02d" stroke-width="1.51"></path><path d="M412,178L444,261L434,-1Z" fill="#fcb331" stroke="#fcb331" stroke-width="1.51"></path><path d="M434,-1L444,261L437,-81Z" fill="#fdb344" stroke="#fdb344" stroke-width="1.51"></path><path d="M249,298L444,261L332,268Z" fill="#fbaf2d" stroke="#fbaf2d" stroke-width="1.51"></path></svg>