<svg width="300" height="176" xmlns="http://www.w3.org/2000/svg"><path d="M-153,-71L-37,-72L253,-115Z" fill="#ffe67c" stroke="#ffe67c" stroke-width="1.51"></path><path d="M-37,-72L42,-72L253,-115Z" fill="#ffdf72" stroke="#ffdf72" stroke-width="1.51"></path><path d="M240,244L181,301L359,243Z" fill="#fcb431" stroke="#fcb431" stroke-width="1.51"></path><path d="M253,-115L309,-85L400,-78Z" fill="#ffd363" stroke="#ffd363" stroke-width="1.51"></path><path d="M359,243L181,301L433,290Z" fill="#fbb02d" stroke="#fbb02d" stroke-width="1.51"></path><path d="M397,157L359,243L433,290Z" fill="#fbb02d" stroke="#fbb02d" stroke-width="1.51"></path><path d="M397,111L397,157L433,290Z" fill="#fcb22f" stroke="#fcb22f" stroke-width="1.51"></path><path d="M400,-78L396,-3L433,290Z" fill="#fdba3a" stroke="#fdba3a" stroke-width="1.51"></path><path d="M396,-3L397,111L433,290Z" fill="#fcb532" stroke="#fcb532" stroke-width="1.51"></path><path d="M302,19L340,117L396,-3Z" fill="#fdc042" stroke="#fdc042" stroke-width="1.51"></path><path d="M309,-85L302,19L396,-3Z" fill="#feca53" stroke="#feca53" stroke-width="1.51"></path><path d="M307,185L359,243L397,157Z" fill="#fcb431" stroke="#fcb431" stroke-width="1.51"></path><path d="M340,117L397,157L397,111Z" fill="#fdb634" stroke="#fdb634" stroke-width="1.51"></path><path d="M396,-3L340,117L397,111Z" fill="#fdbb3a" stroke="#fdbb3a" stroke-width="1.51"></path><path d="M309,-85L396,-3L400,-78Z" fill="#ffcd59" stroke="#ffcd59" stroke-width="1.51"></path><path d="M340,117L307,185L397,157Z" fill="#fcb734" stroke="#fcb734" stroke-width="1.51"></path><path d="M42,-72L129,-70L253,-115Z" fill="#ffda69" stroke="#ffda69" stroke-width="1.51"></path><path d="M307,185L240,244L359,243Z" fill="#fcb432" stroke="#fcb432" stroke-width="1.51"></path><path d="M257,-13L302,19L309,-85Z" fill="#ffcc56" stroke="#ffcc56" stroke-width="1.51"></path><path d="M302,19L212,96L340,117Z" fill="#febe3c" stroke="#febe3c" stroke-width="1.51"></path><path d="M260,179L307,185L340,117Z" fill="#fdb835" stroke="#fdb835" stroke-width="1.51"></path><path d="M212,96L260,179L340,117Z" fill="#febb38" stroke="#febb38" stroke-width="1.51"></path><path d="M59,271L-57,293L181,301Z" fill="#fdbf44" stroke="#fdbf44" stroke-width="1.51"></path><path d="M260,179L240,244L307,185Z" fill="#fdb734" stroke="#fdb734" stroke-width="1.51"></path><path d="M253,-115L257,-13L309,-85Z" fill="#ffd260" stroke="#ffd260" stroke-width="1.51"></path><path d="M257,-13L212,96L302,19Z" fill="#fec549" stroke="#fec549" stroke-width="1.51"></path><path d="M129,-70L152,-10L253,-115Z" fill="#ffd562" stroke="#ffd562" stroke-width="1.51"></path><path d="M253,-115L152,-10L257,-13Z" fill="#ffd15c" stroke="#ffd15c" stroke-width="1.51"></path><path d="M152,-10L212,96L257,-13Z" fill="#ffc84d" stroke="#ffc84d" stroke-width="1.51"></path><path d="M141,208L240,244L260,179Z" fill="#fdb936" stroke="#fdb936" stroke-width="1.51"></path><path d="M212,96L141,208L260,179Z" fill="#febc39" stroke="#febc39" stroke-width="1.51"></path><path d="M139,105L141,208L212,96Z" fill="#ffbf3c" stroke="#ffbf3c" stroke-width="1.51"></path><path d="M141,208L181,301L240,244Z" fill="#fdb735" stroke="#fdb735" stroke-width="1.51"></path><path d="M152,-10L139,105L212,96Z" fill="#ffc545" stroke="#ffc545" stroke-width="1.51"></path><path d="M81,8L139,105L152,-10Z" fill="#ffcc51" stroke="#ffcc51" stroke-width="1.51"></path><path d="M141,208L59,271L181,301Z" fill="#fdba3a" stroke="#fdba3a" stroke-width="1.51"></path><path d="M81,8L72,97L139,105Z" fill="#ffca4d" stroke="#ffca4d" stroke-width="1.51"></path><path d="M139,105L72,97L141,208Z" fill="#ffc243" stroke="#ffc243" stroke-width="1.51"></path><path d="M72,97L26,145L141,208Z" fill="#fec648" stroke="#fec648" stroke-width="1.51"></path><path d="M129,-70L81,8L152,-10Z" fill="#ffd45f" stroke="#ffd45f" stroke-width="1.51"></path><path d="M26,145L59,271L141,208Z" fill="#fec246" stroke="#fec246" stroke-width="1.51"></path><path d="M42,-72L81,8L129,-70Z" fill="#ffda69" stroke="#ffda69" stroke-width="1.51"></path><path d="M26,145L-20,177L59,271Z" fill="#fec850" stroke="#fec850" stroke-width="1.51"></path><path d="M42,-72L-56,-7L81,8Z" fill="#ffdd6f" stroke="#ffdd6f" stroke-width="1.51"></path><path d="M-56,-7L-37,66L81,8Z" fill="#ffda68" stroke="#ffda68" stroke-width="1.51"></path><path d="M-37,66L72,97L81,8Z" fill="#ffd05a" stroke="#ffd05a" stroke-width="1.51"></path><path d="M-37,66L26,145L72,97Z" fill="#ffce54" stroke="#ffce54" stroke-width="1.51"></path><path d="M-37,-72L-56,-7L42,-72Z" fill="#ffe47b" stroke="#ffe47b" stroke-width="1.51"></path><path d="M-20,177L-57,293L59,271Z" fill="#fec852" stroke="#fec852" stroke-width="1.51"></path><path d="M-37,66L-20,177L26,145Z" fill="#ffcf59" stroke="#ffcf59" stroke-width="1.51"></path><path d="M-141,160L-127,290L-57,293Z" fill="#ffd263" stroke="#ffd263" stroke-width="1.51"></path><path d="M-141,160L-57,293L-20,177Z" fill="#ffd05f" stroke="#ffd05f" stroke-width="1.51"></path><path d="M-89,109L-141,160L-20,177Z" fill="#ffd563" stroke="#ffd563" stroke-width="1.51"></path><path d="M-37,66L-89,109L-20,177Z" fill="#ffd35f" stroke="#ffd35f" stroke-width="1.51"></path><path d="M-153,-71L-56,-7L-37,-72Z" fill="#ffeb84" stroke="#ffeb84" stroke-width="1.51"></path><path d="M-56,-7L-126,27L-37,66Z" fill="#ffdf72" stroke="#ffdf72" stroke-width="1.51"></path><path d="M-126,27L-89,109L-37,66Z" fill="#ffdb6b" stroke="#ffdb6b" stroke-width="1.51"></path><path d="M-153,-71L-126,27L-56,-7Z" fill="#ffe982" stroke="#ffe982" stroke-width="1.51"></path><path d="M-126,27L-141,160L-89,109Z" fill="#ffdb6c" stroke="#ffdb6c" stroke-width="1.51"></path><path d="M-153,-71L-141,160L-126,27Z" fill="#ffe47a" stroke="#ffe47a" stroke-width="1.51"></path></svg>