<svg width="300" height="176" xmlns="http://www.w3.org/2000/svg"><path d="M143,101L167,22L83,96Z" fill="#ffc050" stroke="#ffc050" stroke-width="1.51"></path><path d="M167,22L59,-21L83,96Z" fill="#ffba6c" stroke="#ffba6c" stroke-width="1.51"></path><path d="M143,101L225,61L167,22Z" fill="#ffbe4d" stroke="#ffbe4d" stroke-width="1.51"></path><path d="M59,-21L0,55L83,96Z" fill="#ffb77a" stroke="#ffb77a" stroke-width="1.51"></path><path d="M167,22L69,-61L59,-21Z" fill="#ffb485" stroke="#ffb485" stroke-width="1.51"></path><path d="M59,-21L-51,-17L0,55Z" fill="#feb197" stroke="#feb197" stroke-width="1.51"></path><path d="M177,-94L69,-61L167,22Z" fill="#ffb583" stroke="#ffb583" stroke-width="1.51"></path><path d="M77,202L143,101L83,96Z" fill="#ffbc51" stroke="#ffbc51" stroke-width="1.51"></path><path d="M77,202L176,165L143,101Z" fill="#febd43" stroke="#febd43" stroke-width="1.51"></path><path d="M143,101L226,155L225,61Z" fill="#ffbf3c" stroke="#ffbf3c" stroke-width="1.51"></path><path d="M225,61L246,8L167,22Z" fill="#ffba5c" stroke="#ffba5c" stroke-width="1.51"></path><path d="M225,61L321,18L246,8Z" fill="#ffb85b" stroke="#ffb85b" stroke-width="1.51"></path><path d="M176,165L226,155L143,101Z" fill="#febe3b" stroke="#febe3b" stroke-width="1.51"></path><path d="M246,8L177,-94L167,22Z" fill="#ffb674" stroke="#ffb674" stroke-width="1.51"></path><path d="M1,168L77,202L83,96Z" fill="#ffb760" stroke="#ffb760" stroke-width="1.51"></path><path d="M176,165L179,279L226,155Z" fill="#fdba38" stroke="#fdba38" stroke-width="1.51"></path><path d="M0,55L1,168L83,96Z" fill="#ffb96b" stroke="#ffb96b" stroke-width="1.51"></path><path d="M177,-94L-6,-80L69,-61Z" fill="#fdaea2" stroke="#fdaea2" stroke-width="1.51"></path><path d="M69,-61L-6,-80L59,-21Z" fill="#fdaea3" stroke="#fdaea3" stroke-width="1.51"></path><path d="M0,55L-138,70L1,168Z" fill="#ffb582" stroke="#ffb582" stroke-width="1.51"></path><path d="M-6,-80L-51,-17L59,-21Z" fill="#fcadaa" stroke="#fcadaa" stroke-width="1.51"></path><path d="M226,155L314,98L225,61Z" fill="#febd3a" stroke="#febd3a" stroke-width="1.51"></path><path d="M246,8L249,-107L177,-94Z" fill="#ffb185" stroke="#ffb185" stroke-width="1.51"></path><path d="M318,-85L249,-107L246,8Z" fill="#feaf82" stroke="#feaf82" stroke-width="1.51"></path><path d="M177,-94L-127,-102L-6,-80Z" fill="#faa9ba" stroke="#faa9ba" stroke-width="1.51"></path><path d="M314,98L321,18L225,61Z" fill="#feba4b" stroke="#feba4b" stroke-width="1.51"></path><path d="M-127,-102L-95,24L-51,-17Z" fill="#f9a7c0" stroke="#f9a7c0" stroke-width="1.51"></path><path d="M-51,-17L-95,24L0,55Z" fill="#fdaf9f" stroke="#fdaf9f" stroke-width="1.51"></path><path d="M-137,203L-29,236L1,168Z" fill="#feae80" stroke="#feae80" stroke-width="1.51"></path><path d="M1,168L-29,236L77,202Z" fill="#feb36a" stroke="#feb36a" stroke-width="1.51"></path><path d="M77,202L179,279L176,165Z" fill="#feba3b" stroke="#feba3b" stroke-width="1.51"></path><path d="M73,288L179,279L77,202Z" fill="#fdb647" stroke="#fdb647" stroke-width="1.51"></path><path d="M226,155L346,192L314,98Z" fill="#fdb836" stroke="#fdb836" stroke-width="1.51"></path><path d="M-29,236L73,288L77,202Z" fill="#feb261" stroke="#feb261" stroke-width="1.51"></path><path d="M321,18L318,-85L246,8Z" fill="#feb270" stroke="#feb270" stroke-width="1.51"></path><path d="M-127,-102L-138,70L-95,24Z" fill="#faa8bd" stroke="#faa8bd" stroke-width="1.51"></path><path d="M-95,24L-138,70L0,55Z" fill="#fdb09c" stroke="#fdb09c" stroke-width="1.51"></path><path d="M314,98L387,105L321,18Z" fill="#feb840" stroke="#feb840" stroke-width="1.51"></path><path d="M321,18L430,11L318,-85Z" fill="#feb06e" stroke="#feb06e" stroke-width="1.51"></path><path d="M318,278L346,192L226,155Z" fill="#fcb532" stroke="#fcb532" stroke-width="1.51"></path><path d="M346,192L387,105L314,98Z" fill="#fdb835" stroke="#fdb835" stroke-width="1.51"></path><path d="M73,288L254,293L179,279Z" fill="#fdb633" stroke="#fdb633" stroke-width="1.51"></path><path d="M179,279L254,293L226,155Z" fill="#fdb634" stroke="#fdb634" stroke-width="1.51"></path><path d="M-6,-80L-127,-102L-51,-17Z" fill="#f8a7c6" stroke="#f8a7c6" stroke-width="1.51"></path><path d="M249,-107L-127,-102L177,-94Z" fill="#fcada5" stroke="#fcada5" stroke-width="1.51"></path><path d="M-138,70L-137,203L1,168Z" fill="#feaf8d" stroke="#feaf8d" stroke-width="1.51"></path><path d="M-29,236L-121,301L73,288Z" fill="#fdab74" stroke="#fdab74" stroke-width="1.51"></path><path d="M254,293L318,278L226,155Z" fill="#fcb432" stroke="#fcb432" stroke-width="1.51"></path><path d="M346,192L423,151L387,105Z" fill="#fcb532" stroke="#fcb532" stroke-width="1.51"></path><path d="M423,151L430,11L387,105Z" fill="#fdb735" stroke="#fdb735" stroke-width="1.51"></path><path d="M387,105L430,11L321,18Z" fill="#fdb44f" stroke="#fdb44f" stroke-width="1.51"></path><path d="M427,268L423,151L346,192Z" fill="#fbb12f" stroke="#fbb12f" stroke-width="1.51"></path><path d="M430,11L396,-118L318,-85Z" fill="#fdab80" stroke="#fdab80" stroke-width="1.51"></path><path d="M318,-85L396,-118L249,-107Z" fill="#fda992" stroke="#fda992" stroke-width="1.51"></path><path d="M249,-107L396,-118L-127,-102Z" fill="#feaf9a" stroke="#feaf9a" stroke-width="1.51"></path><path d="M-137,203L-121,301L-29,236Z" fill="#fda98a" stroke="#fda98a" stroke-width="1.51"></path><path d="M73,288L-121,301L254,293Z" fill="#fdb054" stroke="#fdb054" stroke-width="1.51"></path><path d="M318,278L427,268L346,192Z" fill="#fbb02e" stroke="#fbb02e" stroke-width="1.51"></path><path d="M423,151L427,268L430,11Z" fill="#fcb431" stroke="#fcb431" stroke-width="1.51"></path><path d="M254,293L427,268L318,278Z" fill="#fbb02d" stroke="#fbb02d" stroke-width="1.51"></path></svg>