<svg width="300" height="176" xmlns="http://www.w3.org/2000/svg"><path d="M62,284L-127,274L160,298Z" fill="#feaf61" stroke="#feaf61" stroke-width="1.51"></path><path d="M-100,-115L164,-97L306,-92Z" fill="#fdaf9f" stroke="#fdaf9f" stroke-width="1.51"></path><path d="M312,85L334,180L423,60Z" fill="#fdb936" stroke="#fdb936" stroke-width="1.51"></path><path d="M423,60L334,180L446,181Z" fill="#fcb532" stroke="#fcb532" stroke-width="1.51"></path><path d="M-100,-115L306,-92L446,-89Z" fill="#feae94" stroke="#feae94" stroke-width="1.51"></path><path d="M446,181L334,180L448,256Z" fill="#fbb12e" stroke="#fbb12e" stroke-width="1.51"></path><path d="M446,-89L325,-12L451,-2Z" fill="#feac73" stroke="#feac73" stroke-width="1.51"></path><path d="M325,-12L423,60L451,-2Z" fill="#fdb15d" stroke="#fdb15d" stroke-width="1.51"></path><path d="M423,60L446,181L451,-2Z" fill="#fdb539" stroke="#fdb539" stroke-width="1.51"></path><path d="M446,181L448,256L451,-2Z" fill="#fcb230" stroke="#fcb230" stroke-width="1.51"></path><path d="M306,-92L325,-12L446,-89Z" fill="#fdab81" stroke="#fdab81" stroke-width="1.51"></path><path d="M334,180L307,295L448,256Z" fill="#fbb02e" stroke="#fbb02e" stroke-width="1.51"></path><path d="M325,-12L312,85L423,60Z" fill="#fdb550" stroke="#fdb550" stroke-width="1.51"></path><path d="M229,15L312,85L325,-12Z" fill="#ffb75a" stroke="#ffb75a" stroke-width="1.51"></path><path d="M271,110L213,159L334,180Z" fill="#fdba37" stroke="#fdba37" stroke-width="1.51"></path><path d="M213,159L213,236L334,180Z" fill="#fdb836" stroke="#fdb836" stroke-width="1.51"></path><path d="M213,236L307,295L334,180Z" fill="#fcb431" stroke="#fcb431" stroke-width="1.51"></path><path d="M312,85L271,110L334,180Z" fill="#fdba37" stroke="#fdba37" stroke-width="1.51"></path><path d="M164,-97L219,-65L306,-92Z" fill="#feaf8e" stroke="#feaf8e" stroke-width="1.51"></path><path d="M306,-92L219,-65L325,-12Z" fill="#feaf80" stroke="#feaf80" stroke-width="1.51"></path><path d="M219,-65L229,15L325,-12Z" fill="#ffb372" stroke="#ffb372" stroke-width="1.51"></path><path d="M229,15L271,110L312,85Z" fill="#febb45" stroke="#febb45" stroke-width="1.51"></path><path d="M213,236L160,298L307,295Z" fill="#fcb432" stroke="#fcb432" stroke-width="1.51"></path><path d="M-100,-115L66,-67L164,-97Z" fill="#fbaab3" stroke="#fbaab3" stroke-width="1.51"></path><path d="M229,15L148,73L271,110Z" fill="#ffbd49" stroke="#ffbd49" stroke-width="1.51"></path><path d="M148,73L213,159L271,110Z" fill="#febe3b" stroke="#febe3b" stroke-width="1.51"></path><path d="M213,159L179,208L213,236Z" fill="#fdba37" stroke="#fdba37" stroke-width="1.51"></path><path d="M219,-65L133,0L229,15Z" fill="#ffb672" stroke="#ffb672" stroke-width="1.51"></path><path d="M133,0L148,73L229,15Z" fill="#ffbb5e" stroke="#ffbb5e" stroke-width="1.51"></path><path d="M164,-97L133,0L219,-65Z" fill="#ffb483" stroke="#ffb483" stroke-width="1.51"></path><path d="M76,150L179,208L213,159Z" fill="#febd3b" stroke="#febd3b" stroke-width="1.51"></path><path d="M148,73L76,150L213,159Z" fill="#ffbf3f" stroke="#ffbf3f" stroke-width="1.51"></path><path d="M179,208L160,298L213,236Z" fill="#fdb835" stroke="#fdb835" stroke-width="1.51"></path><path d="M-100,-115L-48,-77L66,-67Z" fill="#f8a7c4" stroke="#f8a7c4" stroke-width="1.51"></path><path d="M80,99L76,150L148,73Z" fill="#ffbe52" stroke="#ffbe52" stroke-width="1.51"></path><path d="M90,-36L133,0L164,-97Z" fill="#ffb486" stroke="#ffb486" stroke-width="1.51"></path><path d="M62,284L160,298L179,208Z" fill="#fdb73c" stroke="#fdb73c" stroke-width="1.51"></path><path d="M76,150L62,284L179,208Z" fill="#feb74b" stroke="#feb74b" stroke-width="1.51"></path><path d="M-8,259L-127,274L62,284Z" fill="#feac73" stroke="#feac73" stroke-width="1.51"></path><path d="M66,-67L90,-36L164,-97Z" fill="#feb196" stroke="#feb196" stroke-width="1.51"></path><path d="M133,0L80,99L148,73Z" fill="#ffbd5b" stroke="#ffbd5b" stroke-width="1.51"></path><path d="M90,-36L80,99L133,0Z" fill="#ffb972" stroke="#ffb972" stroke-width="1.51"></path><path d="M-8,259L62,284L76,150Z" fill="#feb360" stroke="#feb360" stroke-width="1.51"></path><path d="M-23,-24L-42,105L80,99Z" fill="#ffb67f" stroke="#ffb67f" stroke-width="1.51"></path><path d="M-23,-24L80,99L90,-36Z" fill="#ffb586" stroke="#ffb586" stroke-width="1.51"></path><path d="M66,-67L-23,-24L90,-36Z" fill="#fdaf9e" stroke="#fdaf9e" stroke-width="1.51"></path><path d="M-56,147L-8,259L76,150Z" fill="#ffb36f" stroke="#ffb36f" stroke-width="1.51"></path><path d="M-42,105L76,150L80,99Z" fill="#ffb967" stroke="#ffb967" stroke-width="1.51"></path><path d="M-42,105L-56,147L76,150Z" fill="#ffb575" stroke="#ffb575" stroke-width="1.51"></path><path d="M-48,-77L-23,-24L66,-67Z" fill="#fbabb1" stroke="#fbabb1" stroke-width="1.51"></path><path d="M-121,4L-93,67L-23,-24Z" fill="#fcadaa" stroke="#fcadaa" stroke-width="1.51"></path><path d="M-93,67L-42,105L-23,-24Z" fill="#feb194" stroke="#feb194" stroke-width="1.51"></path><path d="M-56,147L-127,274L-8,259Z" fill="#fdac82" stroke="#fdac82" stroke-width="1.51"></path><path d="M-146,173L-127,274L-56,147Z" fill="#fdab90" stroke="#fdab90" stroke-width="1.51"></path><path d="M-48,-77L-121,4L-23,-24Z" fill="#faa9b9" stroke="#faa9b9" stroke-width="1.51"></path><path d="M-93,67L-56,147L-42,105Z" fill="#ffb387" stroke="#ffb387" stroke-width="1.51"></path><path d="M-100,-115L-121,4L-48,-77Z" fill="#f7a5cc" stroke="#f7a5cc" stroke-width="1.51"></path><path d="M-93,67L-146,173L-56,147Z" fill="#feaf90" stroke="#feaf90" stroke-width="1.51"></path><path d="M-121,4L-146,173L-93,67Z" fill="#feb09c" stroke="#feb09c" stroke-width="1.51"></path></svg>