<svg width="300" height="176" xmlns="http://www.w3.org/2000/svg"><path d="M125,113L58,152L170,152Z" fill="#feb653" stroke="#feb653" stroke-width="1.51"></path><path d="M125,113L62,103L58,152Z" fill="#ffb36f" stroke="#ffb36f" stroke-width="1.51"></path><path d="M58,152L131,296L170,152Z" fill="#fdb14d" stroke="#fdb14d" stroke-width="1.51"></path><path d="M58,152L54,290L131,296Z" fill="#fdab68" stroke="#fdab68" stroke-width="1.51"></path><path d="M58,152L-24,183L54,290Z" fill="#fca489" stroke="#fca489" stroke-width="1.51"></path><path d="M62,103L2,94L58,152Z" fill="#feaf89" stroke="#feaf89" stroke-width="1.51"></path><path d="M2,94L-24,183L58,152Z" fill="#fca798" stroke="#fca798" stroke-width="1.51"></path><path d="M131,296L219,262L170,152Z" fill="#fcb330" stroke="#fcb330" stroke-width="1.51"></path><path d="M170,152L237,74L125,113Z" fill="#febc3a" stroke="#febc3a" stroke-width="1.51"></path><path d="M219,262L258,166L170,152Z" fill="#fbb02d" stroke="#fbb02d" stroke-width="1.51"></path><path d="M258,166L237,74L170,152Z" fill="#fcb633" stroke="#fcb633" stroke-width="1.51"></path><path d="M125,113L90,-10L62,103Z" fill="#ffb681" stroke="#ffb681" stroke-width="1.51"></path><path d="M62,103L90,-10L2,94Z" fill="#fdaea1" stroke="#fdaea1" stroke-width="1.51"></path><path d="M237,74L182,11L125,113Z" fill="#ffba5b" stroke="#ffba5b" stroke-width="1.51"></path><path d="M-24,183L-31,282L54,290Z" fill="#fba09b" stroke="#fba09b" stroke-width="1.51"></path><path d="M182,11L90,-10L125,113Z" fill="#feb489" stroke="#feb489" stroke-width="1.51"></path><path d="M237,74L260,17L182,11Z" fill="#feaf7c" stroke="#feaf7c" stroke-width="1.51"></path><path d="M171,-122L46,-103L90,-10Z" fill="#f9a7c2" stroke="#f9a7c2" stroke-width="1.51"></path><path d="M332,92L260,17L237,74Z" fill="#fdb05a" stroke="#fdb05a" stroke-width="1.51"></path><path d="M2,94L-114,75L-24,183Z" fill="#fca9a2" stroke="#fca9a2" stroke-width="1.51"></path><path d="M-24,183L-131,239L-31,282Z" fill="#fba09b" stroke="#fba09b" stroke-width="1.51"></path><path d="M90,-10L-26,8L2,94Z" fill="#f5a4d3" stroke="#f5a4d3" stroke-width="1.51"></path><path d="M219,262L328,259L258,166Z" fill="#faab28" stroke="#faab28" stroke-width="1.51"></path><path d="M258,166L332,92L237,74Z" fill="#fcb432" stroke="#fcb432" stroke-width="1.51"></path><path d="M389,283L328,259L219,262Z" fill="#f9a825" stroke="#f9a825" stroke-width="1.51"></path><path d="M363,185L332,92L258,166Z" fill="#faac2a" stroke="#faac2a" stroke-width="1.51"></path><path d="M-26,8L-114,75L2,94Z" fill="#f9a7c3" stroke="#f9a7c3" stroke-width="1.51"></path><path d="M328,259L363,185L258,166Z" fill="#f9a825" stroke="#f9a825" stroke-width="1.51"></path><path d="M-152,179L-131,239L-24,183Z" fill="#fba09b" stroke="#fba09b" stroke-width="1.51"></path><path d="M-114,75L-152,179L-24,183Z" fill="#fba59e" stroke="#fba59e" stroke-width="1.51"></path><path d="M-114,75L-129,-101L-152,179Z" fill="#f7a5cb" stroke="#f7a5cb" stroke-width="1.51"></path><path d="M-26,8L-97,8L-114,75Z" fill="#f2a0e0" stroke="#f2a0e0" stroke-width="1.51"></path><path d="M-42,-71L-97,8L-26,8Z" fill="#e99aff" stroke="#e99aff" stroke-width="1.51"></path><path d="M90,-10L46,-103L-26,8Z" fill="#f09ee9" stroke="#f09ee9" stroke-width="1.51"></path><path d="M171,-122L90,-10L182,11Z" fill="#fdada7" stroke="#fdada7" stroke-width="1.51"></path><path d="M389,283L399,176L363,185Z" fill="#f9a825" stroke="#f9a825" stroke-width="1.51"></path><path d="M363,185L397,88L332,92Z" fill="#fbb02e" stroke="#fbb02e" stroke-width="1.51"></path><path d="M46,-103L-42,-71L-26,8Z" fill="#e99aff" stroke="#e99aff" stroke-width="1.51"></path><path d="M265,-102L171,-122L182,11Z" fill="#fca8a2" stroke="#fca8a2" stroke-width="1.51"></path><path d="M332,92L353,-18L260,17Z" fill="#fda77b" stroke="#fda77b" stroke-width="1.51"></path><path d="M399,176L397,88L363,185Z" fill="#faac29" stroke="#faac29" stroke-width="1.51"></path><path d="M131,296L389,283L219,262Z" fill="#faad2a" stroke="#faad2a" stroke-width="1.51"></path><path d="M328,259L389,283L363,185Z" fill="#f9a825" stroke="#f9a825" stroke-width="1.51"></path><path d="M265,-102L182,11L260,17Z" fill="#fca69f" stroke="#fca69f" stroke-width="1.51"></path><path d="M397,88L353,-18L332,92Z" fill="#fdad61" stroke="#fdad61" stroke-width="1.51"></path><path d="M353,-18L265,-102L260,17Z" fill="#fba19b" stroke="#fba19b" stroke-width="1.51"></path><path d="M353,-18L363,-80L265,-102Z" fill="#fba09b" stroke="#fba09b" stroke-width="1.51"></path><path d="M388,-77L363,-80L353,-18Z" fill="#fba09b" stroke="#fba09b" stroke-width="1.51"></path><path d="M397,88L413,-22L353,-18Z" fill="#fca48b" stroke="#fca48b" stroke-width="1.51"></path><path d="M399,176L413,-22L397,88Z" fill="#fcb33e" stroke="#fcb33e" stroke-width="1.51"></path><path d="M-42,-71L-129,-101L-97,8Z" fill="#e99aff" stroke="#e99aff" stroke-width="1.51"></path><path d="M-97,8L-129,-101L-114,75Z" fill="#e99aff" stroke="#e99aff" stroke-width="1.51"></path><path d="M46,-103L-129,-101L-42,-71Z" fill="#e99aff" stroke="#e99aff" stroke-width="1.51"></path><path d="M171,-122L-129,-101L46,-103Z" fill="#ee9ded" stroke="#ee9ded" stroke-width="1.51"></path><path d="M413,-22L388,-77L353,-18Z" fill="#fba09b" stroke="#fba09b" stroke-width="1.51"></path><path d="M363,-80L388,-77L265,-102Z" fill="#fba09b" stroke="#fba09b" stroke-width="1.51"></path><path d="M265,-102L388,-77L171,-122Z" fill="#fba29d" stroke="#fba29d" stroke-width="1.51"></path></svg>