<svg width="300" height="176" xmlns="http://www.w3.org/2000/svg"><path d="M87,285L-2,282L138,294Z" fill="#fdbe42" stroke="#fdbe42" stroke-width="1.51"></path><path d="M236,278L138,294L412,297Z" fill="#fcb22f" stroke="#fcb22f" stroke-width="1.51"></path><path d="M393,158L361,248L412,297Z" fill="#fbb02e" stroke="#fbb02e" stroke-width="1.51"></path><path d="M401,89L393,158L412,297Z" fill="#fcb230" stroke="#fcb230" stroke-width="1.51"></path><path d="M343,-7L401,89L417,-18Z" fill="#fec147" stroke="#fec147" stroke-width="1.51"></path><path d="M401,89L412,297L417,-18Z" fill="#fcb633" stroke="#fcb633" stroke-width="1.51"></path><path d="M343,-7L417,-18L424,-70Z" fill="#fec853" stroke="#fec853" stroke-width="1.51"></path><path d="M327,-100L343,-7L424,-70Z" fill="#ffcd5a" stroke="#ffcd5a" stroke-width="1.51"></path><path d="M417,-18L412,297L424,-70Z" fill="#fdba39" stroke="#fdba39" stroke-width="1.51"></path><path d="M361,248L236,278L412,297Z" fill="#fbb02d" stroke="#fbb02d" stroke-width="1.51"></path><path d="M343,-7L308,84L401,89Z" fill="#fdbe40" stroke="#fdbe40" stroke-width="1.51"></path><path d="M315,177L361,248L393,158Z" fill="#fcb431" stroke="#fcb431" stroke-width="1.51"></path><path d="M308,84L315,177L393,158Z" fill="#fdb735" stroke="#fdb735" stroke-width="1.51"></path><path d="M308,84L393,158L401,89Z" fill="#fdb836" stroke="#fdb836" stroke-width="1.51"></path><path d="M315,177L255,209L361,248Z" fill="#fcb532" stroke="#fcb532" stroke-width="1.51"></path><path d="M255,209L236,278L361,248Z" fill="#fcb431" stroke="#fcb431" stroke-width="1.51"></path><path d="M327,-100L222,1L343,-7Z" fill="#ffcd57" stroke="#ffcd57" stroke-width="1.51"></path><path d="M222,1L308,84L343,-7Z" fill="#fec549" stroke="#fec549" stroke-width="1.51"></path><path d="M308,84L236,112L315,177Z" fill="#febb38" stroke="#febb38" stroke-width="1.51"></path><path d="M209,-117L222,1L327,-100Z" fill="#ffd361" stroke="#ffd361" stroke-width="1.51"></path><path d="M222,1L236,112L308,84Z" fill="#fec141" stroke="#fec141" stroke-width="1.51"></path><path d="M236,112L255,209L315,177Z" fill="#fdb936" stroke="#fdb936" stroke-width="1.51"></path><path d="M209,-117L163,-34L222,1Z" fill="#ffd25e" stroke="#ffd25e" stroke-width="1.51"></path><path d="M222,1L134,107L236,112Z" fill="#ffc241" stroke="#ffc241" stroke-width="1.51"></path><path d="M148,172L236,278L255,209Z" fill="#fdb835" stroke="#fdb835" stroke-width="1.51"></path><path d="M236,112L148,172L255,209Z" fill="#febb39" stroke="#febb39" stroke-width="1.51"></path><path d="M134,107L148,172L236,112Z" fill="#ffbe3c" stroke="#ffbe3c" stroke-width="1.51"></path><path d="M148,172L138,294L236,278Z" fill="#fdb835" stroke="#fdb835" stroke-width="1.51"></path><path d="M137,-117L163,-34L209,-117Z" fill="#ffd968" stroke="#ffd968" stroke-width="1.51"></path><path d="M163,-34L134,107L222,1Z" fill="#ffca4e" stroke="#ffca4e" stroke-width="1.51"></path><path d="M64,-29L60,99L134,107Z" fill="#ffcc51" stroke="#ffcc51" stroke-width="1.51"></path><path d="M92,185L87,285L138,294Z" fill="#fdbd3e" stroke="#fdbd3e" stroke-width="1.51"></path><path d="M92,185L138,294L148,172Z" fill="#febd3d" stroke="#febd3d" stroke-width="1.51"></path><path d="M137,-117L64,-29L163,-34Z" fill="#ffd967" stroke="#ffd967" stroke-width="1.51"></path><path d="M64,-29L134,107L163,-34Z" fill="#ffcf56" stroke="#ffcf56" stroke-width="1.51"></path><path d="M-10,-117L35,-85L137,-117Z" fill="#ffe67c" stroke="#ffe67c" stroke-width="1.51"></path><path d="M35,-85L64,-29L137,-117Z" fill="#ffdf71" stroke="#ffdf71" stroke-width="1.51"></path><path d="M134,107L92,185L148,172Z" fill="#fec140" stroke="#fec140" stroke-width="1.51"></path><path d="M60,99L92,185L134,107Z" fill="#ffc546" stroke="#ffc546" stroke-width="1.51"></path><path d="M-3,-34L-47,73L60,99Z" fill="#ffd562" stroke="#ffd562" stroke-width="1.51"></path><path d="M-3,-34L60,99L64,-29Z" fill="#ffd764" stroke="#ffd764" stroke-width="1.51"></path><path d="M60,99L-41,156L92,185Z" fill="#ffca50" stroke="#ffca50" stroke-width="1.51"></path><path d="M-2,282L87,285L92,185Z" fill="#fec247" stroke="#fec247" stroke-width="1.51"></path><path d="M-41,156L-2,282L92,185Z" fill="#fec850" stroke="#fec850" stroke-width="1.51"></path><path d="M35,-85L-3,-34L64,-29Z" fill="#ffe073" stroke="#ffe073" stroke-width="1.51"></path><path d="M-47,73L-41,156L60,99Z" fill="#ffd05a" stroke="#ffd05a" stroke-width="1.51"></path><path d="M-10,-117L-3,-34L35,-85Z" fill="#ffe67d" stroke="#ffe67d" stroke-width="1.51"></path><path d="M-91,25L-47,73L-3,-34Z" fill="#ffde70" stroke="#ffde70" stroke-width="1.51"></path><path d="M-10,-117L-87,-73L-3,-34Z" fill="#ffe982" stroke="#ffe982" stroke-width="1.51"></path><path d="M-87,-73L-91,25L-3,-34Z" fill="#ffe67c" stroke="#ffe67c" stroke-width="1.51"></path><path d="M-41,156L-115,240L-2,282Z" fill="#fece5b" stroke="#fece5b" stroke-width="1.51"></path><path d="M-47,73L-108,76L-41,156Z" fill="#ffd663" stroke="#ffd663" stroke-width="1.51"></path><path d="M-108,76L-143,171L-41,156Z" fill="#ffd766" stroke="#ffd766" stroke-width="1.51"></path><path d="M-143,171L-115,240L-41,156Z" fill="#ffd464" stroke="#ffd464" stroke-width="1.51"></path><path d="M-91,25L-108,76L-47,73Z" fill="#ffdc6d" stroke="#ffdc6d" stroke-width="1.51"></path><path d="M-108,76L-91,25L-87,-73Z" fill="#ffe47a" stroke="#ffe47a" stroke-width="1.51"></path><path d="M-143,171L-108,76L-87,-73Z" fill="#ffdf72" stroke="#ffdf72" stroke-width="1.51"></path></svg>