<svg width="300" height="176" xmlns="http://www.w3.org/2000/svg"><path d="M150,103L162,149L266,100Z" fill="#febf3c" stroke="#febf3c" stroke-width="1.51"></path><path d="M162,149L272,181L266,100Z" fill="#febc39" stroke="#febc39" stroke-width="1.51"></path><path d="M272,181L297,192L266,100Z" fill="#fdb936" stroke="#fdb936" stroke-width="1.51"></path><path d="M262,251L297,192L272,181Z" fill="#fdb634" stroke="#fdb634" stroke-width="1.51"></path><path d="M266,100L238,-6L150,103Z" fill="#ffbd4a" stroke="#ffbd4a" stroke-width="1.51"></path><path d="M344,62L238,-6L266,100Z" fill="#feb94f" stroke="#feb94f" stroke-width="1.51"></path><path d="M238,-6L178,-12L150,103Z" fill="#ffbb5e" stroke="#ffbb5e" stroke-width="1.51"></path><path d="M150,103L71,87L162,149Z" fill="#ffbf47" stroke="#ffbf47" stroke-width="1.51"></path><path d="M178,-12L71,87L150,103Z" fill="#ffbe56" stroke="#ffbe56" stroke-width="1.51"></path><path d="M297,192L344,62L266,100Z" fill="#fdba38" stroke="#fdba38" stroke-width="1.51"></path><path d="M162,149L262,251L272,181Z" fill="#fdb836" stroke="#fdb836" stroke-width="1.51"></path><path d="M153,269L262,251L162,149Z" fill="#fdb936" stroke="#fdb936" stroke-width="1.51"></path><path d="M71,87L79,207L162,149Z" fill="#ffbb4f" stroke="#ffbb4f" stroke-width="1.51"></path><path d="M79,207L153,269L162,149Z" fill="#feba41" stroke="#feba41" stroke-width="1.51"></path><path d="M178,-12L29,2L71,87Z" fill="#ffb973" stroke="#ffb973" stroke-width="1.51"></path><path d="M238,-6L178,-62L178,-12Z" fill="#ffb576" stroke="#ffb576" stroke-width="1.51"></path><path d="M258,-124L178,-62L238,-6Z" fill="#ffb185" stroke="#ffb185" stroke-width="1.51"></path><path d="M344,62L324,-27L238,-6Z" fill="#feb463" stroke="#feb463" stroke-width="1.51"></path><path d="M71,87L-47,185L79,207Z" fill="#ffb666" stroke="#ffb666" stroke-width="1.51"></path><path d="M55,-88L29,2L178,-12Z" fill="#feb38d" stroke="#feb38d" stroke-width="1.51"></path><path d="M344,62L428,16L324,-27Z" fill="#feb25d" stroke="#feb25d" stroke-width="1.51"></path><path d="M445,154L416,74L344,62Z" fill="#fdb735" stroke="#fdb735" stroke-width="1.51"></path><path d="M445,154L344,62L297,192Z" fill="#fdb734" stroke="#fdb734" stroke-width="1.51"></path><path d="M79,207L89,289L153,269Z" fill="#fdb548" stroke="#fdb548" stroke-width="1.51"></path><path d="M153,269L361,297L262,251Z" fill="#fcb330" stroke="#fcb330" stroke-width="1.51"></path><path d="M-63,277L89,289L79,207Z" fill="#feb061" stroke="#feb061" stroke-width="1.51"></path><path d="M262,251L361,297L297,192Z" fill="#fcb330" stroke="#fcb330" stroke-width="1.51"></path><path d="M89,289L361,297L153,269Z" fill="#fcb532" stroke="#fcb532" stroke-width="1.51"></path><path d="M416,74L428,16L344,62Z" fill="#fdb44b" stroke="#fdb44b" stroke-width="1.51"></path><path d="M405,288L445,154L297,192Z" fill="#fcb22f" stroke="#fcb22f" stroke-width="1.51"></path><path d="M416,74L445,154L428,16Z" fill="#fdb638" stroke="#fdb638" stroke-width="1.51"></path><path d="M178,-62L55,-88L178,-12Z" fill="#ffb487" stroke="#ffb487" stroke-width="1.51"></path><path d="M324,-27L258,-124L238,-6Z" fill="#ffb07f" stroke="#ffb07f" stroke-width="1.51"></path><path d="M360,-111L258,-124L324,-27Z" fill="#fdab8c" stroke="#fdab8c" stroke-width="1.51"></path><path d="M258,-124L55,-88L178,-62Z" fill="#ffb193" stroke="#ffb193" stroke-width="1.51"></path><path d="M361,297L405,288L297,192Z" fill="#fbb02e" stroke="#fbb02e" stroke-width="1.51"></path><path d="M-59,79L71,87L29,2Z" fill="#ffb67e" stroke="#ffb67e" stroke-width="1.51"></path><path d="M-59,79L-47,185L71,87Z" fill="#ffb677" stroke="#ffb677" stroke-width="1.51"></path><path d="M-39,-8L-59,79L29,2Z" fill="#feb196" stroke="#feb196" stroke-width="1.51"></path><path d="M424,-61L360,-111L324,-27Z" fill="#fdab81" stroke="#fdab81" stroke-width="1.51"></path><path d="M-51,-71L-39,-8L29,2Z" fill="#fdacaa" stroke="#fdacaa" stroke-width="1.51"></path><path d="M428,16L424,-61L324,-27Z" fill="#feae6e" stroke="#feae6e" stroke-width="1.51"></path><path d="M445,154L424,-61L428,16Z" fill="#fdb251" stroke="#fdb251" stroke-width="1.51"></path><path d="M-47,185L-63,277L79,207Z" fill="#ffaf71" stroke="#ffaf71" stroke-width="1.51"></path><path d="M-59,79L-99,178L-47,185Z" fill="#ffb087" stroke="#ffb087" stroke-width="1.51"></path><path d="M-122,120L-99,178L-59,79Z" fill="#feb08f" stroke="#feb08f" stroke-width="1.51"></path><path d="M-99,178L-63,277L-47,185Z" fill="#fead84" stroke="#fead84" stroke-width="1.51"></path><path d="M-122,-4L-122,120L-59,79Z" fill="#fdb09c" stroke="#fdb09c" stroke-width="1.51"></path><path d="M55,-88L-51,-71L29,2Z" fill="#fcacac" stroke="#fcacac" stroke-width="1.51"></path><path d="M-119,-106L-51,-71L55,-88Z" fill="#f8a6c8" stroke="#f8a6c8" stroke-width="1.51"></path><path d="M-99,178L-104,276L-63,277Z" fill="#fda988" stroke="#fda988" stroke-width="1.51"></path><path d="M-122,-4L-59,79L-39,-8Z" fill="#fcada6" stroke="#fcada6" stroke-width="1.51"></path><path d="M-51,-71L-122,-4L-39,-8Z" fill="#faa9b9" stroke="#faa9b9" stroke-width="1.51"></path><path d="M-122,120L-104,276L-99,178Z" fill="#fdab90" stroke="#fdab90" stroke-width="1.51"></path><path d="M-63,277L-104,276L89,289Z" fill="#fdab73" stroke="#fdab73" stroke-width="1.51"></path><path d="M-51,-71L-119,-106L-122,-4Z" fill="#f7a4ce" stroke="#f7a4ce" stroke-width="1.51"></path><path d="M258,-124L-119,-106L55,-88Z" fill="#fbabb1" stroke="#fbabb1" stroke-width="1.51"></path></svg>