<svg width="300" height="176" xmlns="http://www.w3.org/2000/svg"><path d="M247,244L177,298L352,242Z" fill="#fcb431" stroke="#fcb431" stroke-width="1.51"></path><path d="M34,-95L158,-97L361,-121Z" fill="#ffda6b" stroke="#ffda6b" stroke-width="1.51"></path><path d="M158,-97L212,-89L361,-121Z" fill="#ffd868" stroke="#ffd868" stroke-width="1.51"></path><path d="M394,-121L309,-31L427,10Z" fill="#fecb57" stroke="#fecb57" stroke-width="1.51"></path><path d="M427,10L406,110L430,181Z" fill="#fdb734" stroke="#fdb734" stroke-width="1.51"></path><path d="M352,242L177,298L449,235Z" fill="#fcb12f" stroke="#fcb12f" stroke-width="1.51"></path><path d="M430,181L357,202L449,235Z" fill="#fbb02e" stroke="#fbb02e" stroke-width="1.51"></path><path d="M357,202L352,242L449,235Z" fill="#fbb12e" stroke="#fbb12e" stroke-width="1.51"></path><path d="M427,10L430,181L449,235Z" fill="#fcb331" stroke="#fcb331" stroke-width="1.51"></path><path d="M361,-121L309,-31L394,-121Z" fill="#ffd162" stroke="#ffd162" stroke-width="1.51"></path><path d="M313,66L406,110L427,10Z" fill="#fdbc3d" stroke="#fdbc3d" stroke-width="1.51"></path><path d="M406,110L357,202L430,181Z" fill="#fcb431" stroke="#fcb431" stroke-width="1.51"></path><path d="M309,-31L313,66L427,10Z" fill="#fec44a" stroke="#fec44a" stroke-width="1.51"></path><path d="M313,66L357,202L406,110Z" fill="#fdb835" stroke="#fdb835" stroke-width="1.51"></path><path d="M313,66L233,149L357,202Z" fill="#fdb936" stroke="#fdb936" stroke-width="1.51"></path><path d="M212,-89L309,-31L361,-121Z" fill="#ffd362" stroke="#ffd362" stroke-width="1.51"></path><path d="M247,244L352,242L357,202Z" fill="#fcb331" stroke="#fcb331" stroke-width="1.51"></path><path d="M233,149L247,244L357,202Z" fill="#fdb634" stroke="#fdb634" stroke-width="1.51"></path><path d="M237,-8L270,63L309,-31Z" fill="#fec84e" stroke="#fec84e" stroke-width="1.51"></path><path d="M212,-89L237,-8L309,-31Z" fill="#ffcf5b" stroke="#ffcf5b" stroke-width="1.51"></path><path d="M270,63L233,149L313,66Z" fill="#febd3a" stroke="#febd3a" stroke-width="1.51"></path><path d="M309,-31L270,63L313,66Z" fill="#fec447" stroke="#fec447" stroke-width="1.51"></path><path d="M147,86L233,149L270,63Z" fill="#ffbf3c" stroke="#ffbf3c" stroke-width="1.51"></path><path d="M179,24L147,86L270,63Z" fill="#ffc445" stroke="#ffc445" stroke-width="1.51"></path><path d="M237,-8L179,24L270,63Z" fill="#ffc84c" stroke="#ffc84c" stroke-width="1.51"></path><path d="M233,149L169,165L247,244Z" fill="#feba37" stroke="#feba37" stroke-width="1.51"></path><path d="M169,165L177,298L247,244Z" fill="#fdb835" stroke="#fdb835" stroke-width="1.51"></path><path d="M158,-97L179,24L212,-89Z" fill="#ffd35f" stroke="#ffd35f" stroke-width="1.51"></path><path d="M147,86L169,165L233,149Z" fill="#febe3b" stroke="#febe3b" stroke-width="1.51"></path><path d="M212,-89L179,24L237,-8Z" fill="#ffcf58" stroke="#ffcf58" stroke-width="1.51"></path><path d="M35,183L62,295L169,165Z" fill="#fec143" stroke="#fec143" stroke-width="1.51"></path><path d="M169,165L62,295L177,298Z" fill="#fdba38" stroke="#fdba38" stroke-width="1.51"></path><path d="M59,63L147,86L179,24Z" fill="#ffc84b" stroke="#ffc84b" stroke-width="1.51"></path><path d="M47,-18L59,63L179,24Z" fill="#ffd158" stroke="#ffd158" stroke-width="1.51"></path><path d="M158,-97L47,-18L179,24Z" fill="#ffd45f" stroke="#ffd45f" stroke-width="1.51"></path><path d="M147,86L35,183L169,165Z" fill="#ffc242" stroke="#ffc242" stroke-width="1.51"></path><path d="M59,63L35,183L147,86Z" fill="#ffc74a" stroke="#ffc74a" stroke-width="1.51"></path><path d="M34,-95L47,-18L158,-97Z" fill="#ffde6f" stroke="#ffde6f" stroke-width="1.51"></path><path d="M-8,116L-5,158L35,183Z" fill="#ffcd55" stroke="#ffcd55" stroke-width="1.51"></path><path d="M34,-95L-5,-62L47,-18Z" fill="#ffe276" stroke="#ffe276" stroke-width="1.51"></path><path d="M-8,116L35,183L59,63Z" fill="#ffcc52" stroke="#ffcc52" stroke-width="1.51"></path><path d="M47,-18L2,25L59,63Z" fill="#ffd662" stroke="#ffd662" stroke-width="1.51"></path><path d="M-24,234L-97,271L62,295Z" fill="#fec853" stroke="#fec853" stroke-width="1.51"></path><path d="M35,183L-24,234L62,295Z" fill="#fec64d" stroke="#fec64d" stroke-width="1.51"></path><path d="M2,25L-8,116L59,63Z" fill="#ffd25a" stroke="#ffd25a" stroke-width="1.51"></path><path d="M-112,-77L-5,-62L34,-95Z" fill="#ffe983" stroke="#ffe983" stroke-width="1.51"></path><path d="M-5,-62L2,25L47,-18Z" fill="#ffdd6f" stroke="#ffdd6f" stroke-width="1.51"></path><path d="M-5,158L-24,234L35,183Z" fill="#fecb53" stroke="#fecb53" stroke-width="1.51"></path><path d="M-109,187L-24,234L-5,158Z" fill="#ffcf5b" stroke="#ffcf5b" stroke-width="1.51"></path><path d="M-128,68L-8,116L2,25Z" fill="#ffd764" stroke="#ffd764" stroke-width="1.51"></path><path d="M-99,-15L-128,68L2,25Z" fill="#ffe073" stroke="#ffe073" stroke-width="1.51"></path><path d="M-5,-62L-99,-15L2,25Z" fill="#ffe276" stroke="#ffe276" stroke-width="1.51"></path><path d="M-112,-77L-99,-15L-5,-62Z" fill="#ffea83" stroke="#ffea83" stroke-width="1.51"></path><path d="M-8,116L-109,187L-5,158Z" fill="#ffd05c" stroke="#ffd05c" stroke-width="1.51"></path><path d="M-128,68L-109,187L-8,116Z" fill="#ffd664" stroke="#ffd664" stroke-width="1.51"></path><path d="M-109,187L-97,271L-24,234Z" fill="#ffd05e" stroke="#ffd05e" stroke-width="1.51"></path><path d="M-112,-77L-128,68L-99,-15Z" fill="#ffe880" stroke="#ffe880" stroke-width="1.51"></path></svg>