<svg width="300" height="176" xmlns="http://www.w3.org/2000/svg"><path d="M152,87L221,79L136,-5Z" fill="#ffb86b" stroke="#ffb86b" stroke-width="1.51"></path><path d="M221,79L234,-12L136,-5Z" fill="#feae8d" stroke="#feae8d" stroke-width="1.51"></path><path d="M152,87L147,191L221,79Z" fill="#febc39" stroke="#febc39" stroke-width="1.51"></path><path d="M136,-5L60,101L152,87Z" fill="#ffb77a" stroke="#ffb77a" stroke-width="1.51"></path><path d="M234,-12L227,-101L136,-5Z" fill="#fca9a2" stroke="#fca9a2" stroke-width="1.51"></path><path d="M136,-5L38,-6L60,101Z" fill="#fbaab2" stroke="#fbaab2" stroke-width="1.51"></path><path d="M60,-114L38,-6L136,-5Z" fill="#f6a4d1" stroke="#f6a4d1" stroke-width="1.51"></path><path d="M60,101L147,191L152,87Z" fill="#feb853" stroke="#feb853" stroke-width="1.51"></path><path d="M227,-101L116,-114L136,-5Z" fill="#fdada5" stroke="#fdada5" stroke-width="1.51"></path><path d="M234,-12L355,-80L227,-101Z" fill="#fba39d" stroke="#fba39d" stroke-width="1.51"></path><path d="M221,79L348,-13L234,-12Z" fill="#fda78b" stroke="#fda78b" stroke-width="1.51"></path><path d="M360,118L348,-13L221,79Z" fill="#fdaf58" stroke="#fdaf58" stroke-width="1.51"></path><path d="M147,191L248,209L221,79Z" fill="#fcb330" stroke="#fcb330" stroke-width="1.51"></path><path d="M60,101L55,175L147,191Z" fill="#feaf67" stroke="#feaf67" stroke-width="1.51"></path><path d="M147,191L166,236L248,209Z" fill="#fcb22f" stroke="#fcb22f" stroke-width="1.51"></path><path d="M-13,177L55,175L60,101Z" fill="#fda989" stroke="#fda989" stroke-width="1.51"></path><path d="M116,-114L60,-114L136,-5Z" fill="#f9a7c1" stroke="#f9a7c1" stroke-width="1.51"></path><path d="M248,209L360,118L221,79Z" fill="#fbb02e" stroke="#fbb02e" stroke-width="1.51"></path><path d="M68,254L166,236L147,191Z" fill="#fcb247" stroke="#fcb247" stroke-width="1.51"></path><path d="M348,-13L355,-80L234,-12Z" fill="#fba09b" stroke="#fba09b" stroke-width="1.51"></path><path d="M400,19L355,-80L348,-13Z" fill="#fba09b" stroke="#fba09b" stroke-width="1.51"></path><path d="M-34,-73L-34,26L38,-6Z" fill="#e99aff" stroke="#e99aff" stroke-width="1.51"></path><path d="M38,-6L-34,26L60,101Z" fill="#f8a5ca" stroke="#f8a5ca" stroke-width="1.51"></path><path d="M360,118L400,19L348,-13Z" fill="#fdaa6f" stroke="#fdaa6f" stroke-width="1.51"></path><path d="M254,255L315,210L248,209Z" fill="#faab28" stroke="#faab28" stroke-width="1.51"></path><path d="M248,209L315,210L360,118Z" fill="#f9a825" stroke="#f9a825" stroke-width="1.51"></path><path d="M166,236L254,255L248,209Z" fill="#fbaf2c" stroke="#fbaf2c" stroke-width="1.51"></path><path d="M60,-114L-34,-73L38,-6Z" fill="#ed9cf2" stroke="#ed9cf2" stroke-width="1.51"></path><path d="M55,175L68,254L147,191Z" fill="#fdad62" stroke="#fdad62" stroke-width="1.51"></path><path d="M-57,83L-13,177L60,101Z" fill="#fca8a2" stroke="#fca8a2" stroke-width="1.51"></path><path d="M-124,22L-57,83L-34,26Z" fill="#f6a3d3" stroke="#f6a3d3" stroke-width="1.51"></path><path d="M-34,26L-57,83L60,101Z" fill="#faaab8" stroke="#faaab8" stroke-width="1.51"></path><path d="M-16,260L68,254L55,175Z" fill="#fca585" stroke="#fca585" stroke-width="1.51"></path><path d="M166,236L68,254L254,255Z" fill="#fcb431" stroke="#fcb431" stroke-width="1.51"></path><path d="M450,171L429,85L360,118Z" fill="#fbb02d" stroke="#fbb02d" stroke-width="1.51"></path><path d="M360,118L429,85L400,19Z" fill="#fcb148" stroke="#fcb148" stroke-width="1.51"></path><path d="M400,19L416,-101L355,-80Z" fill="#fba09b" stroke="#fba09b" stroke-width="1.51"></path><path d="M355,-80L416,-101L227,-101Z" fill="#fba09b" stroke="#fba09b" stroke-width="1.51"></path><path d="M227,-101L416,-101L116,-114Z" fill="#fba49e" stroke="#fba49e" stroke-width="1.51"></path><path d="M429,85L416,-101L400,19Z" fill="#fba09a" stroke="#fba09a" stroke-width="1.51"></path><path d="M68,254L352,277L254,255Z" fill="#fbaf2c" stroke="#fbaf2c" stroke-width="1.51"></path><path d="M254,255L352,277L315,210Z" fill="#f9a825" stroke="#f9a825" stroke-width="1.51"></path><path d="M315,210L450,171L360,118Z" fill="#faaa27" stroke="#faaa27" stroke-width="1.51"></path><path d="M68,254L-132,296L352,277Z" fill="#fdad5e" stroke="#fdad5e" stroke-width="1.51"></path><path d="M-13,177L-16,260L55,175Z" fill="#fba196" stroke="#fba196" stroke-width="1.51"></path><path d="M-95,152L-16,260L-13,177Z" fill="#fba09b" stroke="#fba09b" stroke-width="1.51"></path><path d="M-57,83L-95,152L-13,177Z" fill="#fca69f" stroke="#fca69f" stroke-width="1.51"></path><path d="M-119,97L-95,152L-57,83Z" fill="#fcaaa3" stroke="#fcaaa3" stroke-width="1.51"></path><path d="M352,277L450,171L315,210Z" fill="#f9a825" stroke="#f9a825" stroke-width="1.51"></path><path d="M429,85L450,171L416,-101Z" fill="#fdac64" stroke="#fdac64" stroke-width="1.51"></path><path d="M-34,-73L-124,22L-34,26Z" fill="#e99aff" stroke="#e99aff" stroke-width="1.51"></path><path d="M-124,22L-119,97L-57,83Z" fill="#faa9bb" stroke="#faa9bb" stroke-width="1.51"></path><path d="M116,-114L-104,-117L60,-114Z" fill="#ee9df0" stroke="#ee9df0" stroke-width="1.51"></path><path d="M60,-114L-104,-117L-34,-73Z" fill="#e99aff" stroke="#e99aff" stroke-width="1.51"></path><path d="M-34,-73L-104,-117L-124,22Z" fill="#e99aff" stroke="#e99aff" stroke-width="1.51"></path><path d="M352,277L447,267L450,171Z" fill="#f9a825" stroke="#f9a825" stroke-width="1.51"></path><path d="M-119,97L-132,296L-95,152Z" fill="#fba09b" stroke="#fba09b" stroke-width="1.51"></path><path d="M-95,152L-132,296L-16,260Z" fill="#fba09b" stroke="#fba09b" stroke-width="1.51"></path><path d="M-16,260L-132,296L68,254Z" fill="#fba09b" stroke="#fba09b" stroke-width="1.51"></path><path d="M-124,22L-132,296L-119,97Z" fill="#fca69f" stroke="#fca69f" stroke-width="1.51"></path></svg>