<svg width="300" height="176" xmlns="http://www.w3.org/2000/svg"><path d="M172,113L233,193L246,119Z" fill="#fcb432" stroke="#fcb432" stroke-width="1.51"></path><path d="M172,113L154,193L233,193Z" fill="#fcb431" stroke="#fcb431" stroke-width="1.51"></path><path d="M233,193L320,177L246,119Z" fill="#faad2a" stroke="#faad2a" stroke-width="1.51"></path><path d="M246,119L271,12L172,113Z" fill="#feb943" stroke="#feb943" stroke-width="1.51"></path><path d="M320,177L307,79L246,119Z" fill="#fbb12e" stroke="#fbb12e" stroke-width="1.51"></path><path d="M172,113L76,121L154,193Z" fill="#fdb846" stroke="#fdb846" stroke-width="1.51"></path><path d="M149,-9L76,121L172,113Z" fill="#ffbc5f" stroke="#ffbc5f" stroke-width="1.51"></path><path d="M154,193L221,291L233,193Z" fill="#fbb12e" stroke="#fbb12e" stroke-width="1.51"></path><path d="M233,193L351,248L320,177Z" fill="#f9a825" stroke="#f9a825" stroke-width="1.51"></path><path d="M70,252L128,262L154,193Z" fill="#fdb04f" stroke="#fdb04f" stroke-width="1.51"></path><path d="M128,262L221,291L154,193Z" fill="#fcb431" stroke="#fcb431" stroke-width="1.51"></path><path d="M307,79L271,12L246,119Z" fill="#fdb34f" stroke="#fdb34f" stroke-width="1.51"></path><path d="M76,121L48,160L154,193Z" fill="#feaf63" stroke="#feaf63" stroke-width="1.51"></path><path d="M271,12L149,-9L172,113Z" fill="#feb27a" stroke="#feb27a" stroke-width="1.51"></path><path d="M-56,73L-6,189L48,160Z" fill="#fca59f" stroke="#fca59f" stroke-width="1.51"></path><path d="M48,160L70,252L154,193Z" fill="#fdad62" stroke="#fdad62" stroke-width="1.51"></path><path d="M128,262L-34,279L221,291Z" fill="#fdaf58" stroke="#fdaf58" stroke-width="1.51"></path><path d="M307,79L296,4L271,12Z" fill="#fda97b" stroke="#fda97b" stroke-width="1.51"></path><path d="M271,12L263,-91L149,-9Z" fill="#fca7a0" stroke="#fca7a0" stroke-width="1.51"></path><path d="M320,177L437,69L307,79Z" fill="#fcb22f" stroke="#fcb22f" stroke-width="1.51"></path><path d="M307,79L437,69L296,4Z" fill="#fdac65" stroke="#fdac65" stroke-width="1.51"></path><path d="M221,291L351,248L233,193Z" fill="#faab28" stroke="#faab28" stroke-width="1.51"></path><path d="M48,160L-6,189L70,252Z" fill="#fda584" stroke="#fda584" stroke-width="1.51"></path><path d="M-56,73L48,160L76,121Z" fill="#fdac94" stroke="#fdac94" stroke-width="1.51"></path><path d="M351,248L431,205L320,177Z" fill="#f9a825" stroke="#f9a825" stroke-width="1.51"></path><path d="M351,248L398,283L431,205Z" fill="#f9a825" stroke="#f9a825" stroke-width="1.51"></path><path d="M221,291L398,283L351,248Z" fill="#f9a825" stroke="#f9a825" stroke-width="1.51"></path><path d="M149,-9L55,-30L76,121Z" fill="#fcacac" stroke="#fcacac" stroke-width="1.51"></path><path d="M44,-71L55,-30L130,-121Z" fill="#f6a4d2" stroke="#f6a4d2" stroke-width="1.51"></path><path d="M431,205L437,69L320,177Z" fill="#faac29" stroke="#faac29" stroke-width="1.51"></path><path d="M310,-85L263,-91L296,4Z" fill="#fba19c" stroke="#fba19c" stroke-width="1.51"></path><path d="M296,4L263,-91L271,12Z" fill="#fba29c" stroke="#fba29c" stroke-width="1.51"></path><path d="M435,-33L310,-85L296,4Z" fill="#fba09b" stroke="#fba09b" stroke-width="1.51"></path><path d="M55,-30L-17,9L76,121Z" fill="#f8a6c7" stroke="#f8a6c7" stroke-width="1.51"></path><path d="M-6,189L-34,279L70,252Z" fill="#fba295" stroke="#fba295" stroke-width="1.51"></path><path d="M70,252L-34,279L128,262Z" fill="#fda879" stroke="#fda879" stroke-width="1.51"></path><path d="M-102,195L-34,279L-6,189Z" fill="#fba09b" stroke="#fba09b" stroke-width="1.51"></path><path d="M-17,9L-56,73L76,121Z" fill="#faa9ba" stroke="#faa9ba" stroke-width="1.51"></path><path d="M130,-121L55,-30L149,-9Z" fill="#f9a8bd" stroke="#f9a8bd" stroke-width="1.51"></path><path d="M55,-30L44,-71L-17,9Z" fill="#ee9dee" stroke="#ee9dee" stroke-width="1.51"></path><path d="M263,-91L130,-121L149,-9Z" fill="#fcaba3" stroke="#fcaba3" stroke-width="1.51"></path><path d="M410,-94L130,-121L263,-91Z" fill="#fba39d" stroke="#fba39d" stroke-width="1.51"></path><path d="M437,69L435,-33L296,4Z" fill="#fca38d" stroke="#fca38d" stroke-width="1.51"></path><path d="M-56,73L-102,195L-6,189Z" fill="#fba49e" stroke="#fba49e" stroke-width="1.51"></path><path d="M-56,73L-100,76L-102,195Z" fill="#fca9a2" stroke="#fca9a2" stroke-width="1.51"></path><path d="M-112,-9L-100,76L-56,73Z" fill="#f6a4d0" stroke="#f6a4d0" stroke-width="1.51"></path><path d="M-112,-9L-56,73L-17,9Z" fill="#f19fe6" stroke="#f19fe6" stroke-width="1.51"></path><path d="M435,-33L410,-94L310,-85Z" fill="#fba09b" stroke="#fba09b" stroke-width="1.51"></path><path d="M310,-85L410,-94L263,-91Z" fill="#fba09b" stroke="#fba09b" stroke-width="1.51"></path><path d="M44,-71L-29,-88L-17,9Z" fill="#e99aff" stroke="#e99aff" stroke-width="1.51"></path><path d="M130,-121L-29,-88L44,-71Z" fill="#f2a0e2" stroke="#f2a0e2" stroke-width="1.51"></path><path d="M-29,-88L-112,-9L-17,9Z" fill="#e99aff" stroke="#e99aff" stroke-width="1.51"></path><path d="M-100,76L-153,294L-102,195Z" fill="#fba09b" stroke="#fba09b" stroke-width="1.51"></path><path d="M-102,195L-153,294L-34,279Z" fill="#fba09b" stroke="#fba09b" stroke-width="1.51"></path><path d="M-34,279L-153,294L221,291Z" fill="#fba294" stroke="#fba294" stroke-width="1.51"></path><path d="M-112,-9L-153,294L-100,76Z" fill="#fca8a2" stroke="#fca8a2" stroke-width="1.51"></path><path d="M-112,-9L-107,-86L-153,294Z" fill="#faa9bc" stroke="#faa9bc" stroke-width="1.51"></path><path d="M-29,-88L-107,-86L-112,-9Z" fill="#e99aff" stroke="#e99aff" stroke-width="1.51"></path><path d="M130,-121L-107,-86L-29,-88Z" fill="#e99aff" stroke="#e99aff" stroke-width="1.51"></path></svg>