<svg width="300" height="176" xmlns="http://www.w3.org/2000/svg"><path d="M182,72L138,189L206,112Z" fill="#4e5e66" stroke="#4e5e66" stroke-width="1.51"></path><path d="M53,120L81,183L138,189Z" fill="#526571" stroke="#526571" stroke-width="1.51"></path><path d="M182,72L53,120L138,189Z" fill="#51626c" stroke="#51626c" stroke-width="1.51"></path><path d="M182,72L172,12L53,120Z" fill="#556772" stroke="#556772" stroke-width="1.51"></path><path d="M233,-6L172,12L182,72Z" fill="#586c7a" stroke="#586c7a" stroke-width="1.51"></path><path d="M138,189L256,209L206,112Z" fill="#4a5a62" stroke="#4a5a62" stroke-width="1.51"></path><path d="M150,272L213,240L138,189Z" fill="#485860" stroke="#485860" stroke-width="1.51"></path><path d="M213,240L256,209L138,189Z" fill="#47575f" stroke="#47575f" stroke-width="1.51"></path><path d="M206,112L233,-6L182,72Z" fill="#52646f" stroke="#52646f" stroke-width="1.51"></path><path d="M47,240L150,272L138,189Z" fill="#4c5e69" stroke="#4c5e69" stroke-width="1.51"></path><path d="M81,183L47,240L138,189Z" fill="#50636f" stroke="#50636f" stroke-width="1.51"></path><path d="M-28,184L47,240L81,183Z" fill="#566c7c" stroke="#566c7c" stroke-width="1.51"></path><path d="M338,56L233,-6L206,112Z" fill="#51636f" stroke="#51636f" stroke-width="1.51"></path><path d="M53,120L-28,184L81,183Z" fill="#576e7e" stroke="#576e7e" stroke-width="1.51"></path><path d="M81,-32L-22,97L53,120Z" fill="#60788a" stroke="#60788a" stroke-width="1.51"></path><path d="M172,12L81,-32L53,120Z" fill="#5d7384" stroke="#5d7384" stroke-width="1.51"></path><path d="M63,-87L81,-32L117,-103Z" fill="#6d8eab" stroke="#6d8eab" stroke-width="1.51"></path><path d="M256,209L313,172L206,112Z" fill="#485860" stroke="#485860" stroke-width="1.51"></path><path d="M395,165L313,172L339,289Z" fill="#415159" stroke="#415159" stroke-width="1.51"></path><path d="M-22,97L-28,184L53,120Z" fill="#5d7588" stroke="#5d7588" stroke-width="1.51"></path><path d="M313,172L338,56L206,112Z" fill="#4a5a62" stroke="#4a5a62" stroke-width="1.51"></path><path d="M81,-32L-43,-9L-22,97Z" fill="#6986a0" stroke="#6986a0" stroke-width="1.51"></path><path d="M117,-103L81,-32L172,12Z" fill="#658198" stroke="#658198" stroke-width="1.51"></path><path d="M-22,97L-122,202L-28,184Z" fill="#607c93" stroke="#607c93" stroke-width="1.51"></path><path d="M63,-87L-43,-9L81,-32Z" fill="#6e8fad" stroke="#6e8fad" stroke-width="1.51"></path><path d="M230,-104L172,12L233,-6Z" fill="#5f788c" stroke="#5f788c" stroke-width="1.51"></path><path d="M230,-104L117,-103L172,12Z" fill="#658198" stroke="#658198" stroke-width="1.51"></path><path d="M338,56L330,-31L233,-6Z" fill="#556c7c" stroke="#556c7c" stroke-width="1.51"></path><path d="M330,-31L230,-104L233,-6Z" fill="#5e798e" stroke="#5e798e" stroke-width="1.51"></path><path d="M-43,-9L-104,62L-22,97Z" fill="#6a89a4" stroke="#6a89a4" stroke-width="1.51"></path><path d="M-28,184L-60,278L47,240Z" fill="#587185" stroke="#587185" stroke-width="1.51"></path><path d="M47,240L-60,278L150,272Z" fill="#516676" stroke="#516676" stroke-width="1.51"></path><path d="M-95,248L-60,278L-28,184Z" fill="#5c788f" stroke="#5c788f" stroke-width="1.51"></path><path d="M313,172L395,165L338,56Z" fill="#46565e" stroke="#46565e" stroke-width="1.51"></path><path d="M338,56L401,2L330,-31Z" fill="#536979" stroke="#536979" stroke-width="1.51"></path><path d="M339,289L313,172L256,209Z" fill="#42525a" stroke="#42525a" stroke-width="1.51"></path><path d="M339,289L256,209L213,240Z" fill="#43535b" stroke="#43535b" stroke-width="1.51"></path><path d="M-60,278L339,289L150,272Z" fill="#46575f" stroke="#46575f" stroke-width="1.51"></path><path d="M150,272L339,289L213,240Z" fill="#43535b" stroke="#43535b" stroke-width="1.51"></path><path d="M-122,202L-95,248L-28,184Z" fill="#607d96" stroke="#607d96" stroke-width="1.51"></path><path d="M-104,62L-122,202L-22,97Z" fill="#65829c" stroke="#65829c" stroke-width="1.51"></path><path d="M-31,-122L-91,-26L-43,-9Z" fill="#779fc6" stroke="#779fc6" stroke-width="1.51"></path><path d="M-43,-9L-91,-26L-104,62Z" fill="#7196b7" stroke="#7196b7" stroke-width="1.51"></path><path d="M431,243L427,103L395,165Z" fill="#415159" stroke="#415159" stroke-width="1.51"></path><path d="M395,165L427,103L338,56Z" fill="#46565e" stroke="#46565e" stroke-width="1.51"></path><path d="M427,103L401,2L338,56Z" fill="#4b5e69" stroke="#4b5e69" stroke-width="1.51"></path><path d="M330,-31L360,-109L230,-104Z" fill="#617f98" stroke="#617f98" stroke-width="1.51"></path><path d="M230,-104L-31,-122L117,-103Z" fill="#7093b3" stroke="#7093b3" stroke-width="1.51"></path><path d="M117,-103L-31,-122L63,-87Z" fill="#749bbe" stroke="#749bbe" stroke-width="1.51"></path><path d="M63,-87L-31,-122L-43,-9Z" fill="#759cc0" stroke="#759cc0" stroke-width="1.51"></path><path d="M339,289L431,243L395,165Z" fill="#3e4e56" stroke="#3e4e56" stroke-width="1.51"></path><path d="M417,-80L360,-109L330,-31Z" fill="#5d7a92" stroke="#5d7a92" stroke-width="1.51"></path><path d="M230,-104L360,-109L-31,-122Z" fill="#6a8ba7" stroke="#6a8ba7" stroke-width="1.51"></path><path d="M401,2L417,-80L330,-31Z" fill="#587186" stroke="#587186" stroke-width="1.51"></path><path d="M427,103L417,-80L401,2Z" fill="#516676" stroke="#516676" stroke-width="1.51"></path><path d="M-31,-122L-136,-103L-91,-26Z" fill="#7eacd8" stroke="#7eacd8" stroke-width="1.51"></path><path d="M-91,-26L-136,-103L-104,62Z" fill="#79a2c9" stroke="#79a2c9" stroke-width="1.51"></path><path d="M-104,62L-136,-103L-122,202Z" fill="#6f93b2" stroke="#6f93b2" stroke-width="1.51"></path></svg>