<svg width="300" height="176" xmlns="http://www.w3.org/2000/svg"><path d="M-37,242L-123,235L30,256Z" fill="#65757d" stroke="#65757d" stroke-width="1.51"></path><path d="M30,256L-123,235L162,288Z" fill="#5a6a72" stroke="#5a6a72" stroke-width="1.51"></path><path d="M346,253L234,283L418,268Z" fill="#3f4f57" stroke="#3f4f57" stroke-width="1.51"></path><path d="M346,103L393,185L429,88Z" fill="#45555d" stroke="#45555d" stroke-width="1.51"></path><path d="M329,-21L346,103L429,88Z" fill="#4e5e66" stroke="#4e5e66" stroke-width="1.51"></path><path d="M393,185L418,268L429,88Z" fill="#405058" stroke="#405058" stroke-width="1.51"></path><path d="M238,-124L299,-60L435,-83Z" fill="#6f7f87" stroke="#6f7f87" stroke-width="1.51"></path><path d="M429,88L418,268L439,-13Z" fill="#44545c" stroke="#44545c" stroke-width="1.51"></path><path d="M435,-83L329,-21L439,-13Z" fill="#617179" stroke="#617179" stroke-width="1.51"></path><path d="M329,-21L429,88L439,-13Z" fill="#55656d" stroke="#55656d" stroke-width="1.51"></path><path d="M393,185L346,253L418,268Z" fill="#3e4e56" stroke="#3e4e56" stroke-width="1.51"></path><path d="M299,-60L329,-21L435,-83Z" fill="#67777f" stroke="#67777f" stroke-width="1.51"></path><path d="M336,177L346,253L393,185Z" fill="#415159" stroke="#415159" stroke-width="1.51"></path><path d="M346,103L336,177L393,185Z" fill="#44545c" stroke="#44545c" stroke-width="1.51"></path><path d="M231,-16L262,111L329,-21Z" fill="#596971" stroke="#596971" stroke-width="1.51"></path><path d="M262,111L336,177L346,103Z" fill="#47575f" stroke="#47575f" stroke-width="1.51"></path><path d="M329,-21L262,111L346,103Z" fill="#4f5f67" stroke="#4f5f67" stroke-width="1.51"></path><path d="M336,177L241,188L346,253Z" fill="#43535b" stroke="#43535b" stroke-width="1.51"></path><path d="M241,188L234,283L346,253Z" fill="#43535b" stroke="#43535b" stroke-width="1.51"></path><path d="M262,111L241,188L336,177Z" fill="#47575f" stroke="#47575f" stroke-width="1.51"></path><path d="M299,-60L231,-16L329,-21Z" fill="#65757d" stroke="#65757d" stroke-width="1.51"></path><path d="M231,-16L179,64L262,111Z" fill="#55656d" stroke="#55656d" stroke-width="1.51"></path><path d="M238,-124L231,-16L299,-60Z" fill="#6d7d85" stroke="#6d7d85" stroke-width="1.51"></path><path d="M173,-61L231,-16L238,-124Z" fill="#708088" stroke="#708088" stroke-width="1.51"></path><path d="M135,156L241,188L262,111Z" fill="#4b5b63" stroke="#4b5b63" stroke-width="1.51"></path><path d="M179,64L135,156L262,111Z" fill="#4d5d65" stroke="#4d5d65" stroke-width="1.51"></path><path d="M27,-122L173,-61L238,-124Z" fill="#7b8b93" stroke="#7b8b93" stroke-width="1.51"></path><path d="M162,288L234,283L241,188Z" fill="#45555d" stroke="#45555d" stroke-width="1.51"></path><path d="M135,156L162,288L241,188Z" fill="#495961" stroke="#495961" stroke-width="1.51"></path><path d="M136,-10L179,64L231,-16Z" fill="#5f6f77" stroke="#5f6f77" stroke-width="1.51"></path><path d="M173,-61L136,-10L231,-16Z" fill="#687880" stroke="#687880" stroke-width="1.51"></path><path d="M135,156L62,183L162,288Z" fill="#4e5e66" stroke="#4e5e66" stroke-width="1.51"></path><path d="M136,-10L62,102L179,64Z" fill="#5c6c74" stroke="#5c6c74" stroke-width="1.51"></path><path d="M62,102L135,156L179,64Z" fill="#53636b" stroke="#53636b" stroke-width="1.51"></path><path d="M62,183L30,256L162,288Z" fill="#52626a" stroke="#52626a" stroke-width="1.51"></path><path d="M67,-8L136,-10L173,-61Z" fill="#6d7d85" stroke="#6d7d85" stroke-width="1.51"></path><path d="M27,-122L67,-8L173,-61Z" fill="#7b8c94" stroke="#7b8c94" stroke-width="1.51"></path><path d="M67,-8L62,102L136,-10Z" fill="#67777f" stroke="#67777f" stroke-width="1.51"></path><path d="M62,102L62,183L135,156Z" fill="#57676f" stroke="#57676f" stroke-width="1.51"></path><path d="M62,102L-53,79L62,183Z" fill="#62727a" stroke="#62727a" stroke-width="1.51"></path><path d="M-53,79L-62,209L62,183Z" fill="#66767e" stroke="#66767e" stroke-width="1.51"></path><path d="M27,-122L-33,-88L67,-8Z" fill="#8898a0" stroke="#8898a0" stroke-width="1.51"></path><path d="M-33,-88L-43,-16L67,-8Z" fill="#84949c" stroke="#84949c" stroke-width="1.51"></path><path d="M-53,79L62,102L67,-8Z" fill="#6a7a82" stroke="#6a7a82" stroke-width="1.51"></path><path d="M-43,-16L-53,79L67,-8Z" fill="#798991" stroke="#798991" stroke-width="1.51"></path><path d="M-37,242L30,256L62,183Z" fill="#5d6d75" stroke="#5d6d75" stroke-width="1.51"></path><path d="M-62,209L-37,242L62,183Z" fill="#62727b" stroke="#62727b" stroke-width="1.51"></path><path d="M-88,-104L-33,-88L27,-122Z" fill="#98a8b0" stroke="#98a8b0" stroke-width="1.51"></path><path d="M-144,197L-62,209L-53,79Z" fill="#718189" stroke="#718189" stroke-width="1.51"></path><path d="M-118,16L-53,79L-43,-16Z" fill="#819199" stroke="#819199" stroke-width="1.51"></path><path d="M-88,-104L-43,-16L-33,-88Z" fill="#93a3ab" stroke="#93a3ab" stroke-width="1.51"></path><path d="M-134,58L-144,197L-53,79Z" fill="#788890" stroke="#788890" stroke-width="1.51"></path><path d="M-88,-104L-118,16L-43,-16Z" fill="#90a0a9" stroke="#90a0a9" stroke-width="1.51"></path><path d="M-62,209L-123,235L-37,242Z" fill="#6b7b83" stroke="#6b7b83" stroke-width="1.51"></path><path d="M-118,16L-134,58L-53,79Z" fill="#809098" stroke="#809098" stroke-width="1.51"></path><path d="M-144,197L-123,235L-62,209Z" fill="#718189" stroke="#718189" stroke-width="1.51"></path><path d="M-134,58L-118,16L-88,-104Z" fill="#90a0a8" stroke="#90a0a8" stroke-width="1.51"></path></svg>