<svg width="300" height="176" xmlns="http://www.w3.org/2000/svg"><path d="M182,55L215,-14L180,-11Z" fill="#6888a5" stroke="#6888a5" stroke-width="1.51"></path><path d="M182,55L251,64L215,-14Z" fill="#5d788d" stroke="#5d788d" stroke-width="1.51"></path><path d="M215,-14L159,-79L180,-11Z" fill="#6c8fae" stroke="#6c8fae" stroke-width="1.51"></path><path d="M180,-11L55,101L182,55Z" fill="#617a8e" stroke="#617a8e" stroke-width="1.51"></path><path d="M182,55L215,161L251,64Z" fill="#4a5a62" stroke="#4a5a62" stroke-width="1.51"></path><path d="M251,64L345,3L215,-14Z" fill="#5e7d97" stroke="#5e7d97" stroke-width="1.51"></path><path d="M215,-14L273,-110L159,-79Z" fill="#698baa" stroke="#698baa" stroke-width="1.51"></path><path d="M341,97L345,3L251,64Z" fill="#4f6676" stroke="#4f6676" stroke-width="1.51"></path><path d="M345,3L273,-110L215,-14Z" fill="#6386a5" stroke="#6386a5" stroke-width="1.51"></path><path d="M215,161L341,97L251,64Z" fill="#43535b" stroke="#43535b" stroke-width="1.51"></path><path d="M182,55L121,183L215,161Z" fill="#485860" stroke="#485860" stroke-width="1.51"></path><path d="M27,-28L55,101L180,-11Z" fill="#759bbf" stroke="#759bbf" stroke-width="1.51"></path><path d="M159,-79L57,-77L180,-11Z" fill="#7298ba" stroke="#7298ba" stroke-width="1.51"></path><path d="M273,-110L57,-77L159,-79Z" fill="#6e91b0" stroke="#6e91b0" stroke-width="1.51"></path><path d="M55,101L87,158L182,55Z" fill="#576c7a" stroke="#576c7a" stroke-width="1.51"></path><path d="M87,158L121,183L182,55Z" fill="#4e616c" stroke="#4e616c" stroke-width="1.51"></path><path d="M57,-77L27,-28L180,-11Z" fill="#7ba7d1" stroke="#7ba7d1" stroke-width="1.51"></path><path d="M414,-86L360,-100L345,3Z" fill="#6184a3" stroke="#6184a3" stroke-width="1.51"></path><path d="M345,3L360,-100L273,-110Z" fill="#6184a3" stroke="#6184a3" stroke-width="1.51"></path><path d="M-87,-18L-9,25L27,-28Z" fill="#8cc6ff" stroke="#8cc6ff" stroke-width="1.51"></path><path d="M27,-28L-9,25L55,101Z" fill="#7daad5" stroke="#7daad5" stroke-width="1.51"></path><path d="M55,101L-53,205L87,158Z" fill="#5e7d98" stroke="#5e7d98" stroke-width="1.51"></path><path d="M433,75L433,-13L345,3Z" fill="#5a7891" stroke="#5a7891" stroke-width="1.51"></path><path d="M215,161L363,165L341,97Z" fill="#3c4c54" stroke="#3c4c54" stroke-width="1.51"></path><path d="M263,270L363,165L215,161Z" fill="#384850" stroke="#384850" stroke-width="1.51"></path><path d="M433,75L345,3L341,97Z" fill="#4e6473" stroke="#4e6473" stroke-width="1.51"></path><path d="M363,165L433,75L341,97Z" fill="#405058" stroke="#405058" stroke-width="1.51"></path><path d="M433,-13L414,-86L345,3Z" fill="#6184a3" stroke="#6184a3" stroke-width="1.51"></path><path d="M57,-77L-29,-89L27,-28Z" fill="#89bff5" stroke="#89bff5" stroke-width="1.51"></path><path d="M273,-110L-29,-89L57,-77Z" fill="#79a3ca" stroke="#79a3ca" stroke-width="1.51"></path><path d="M121,183L179,276L215,161Z" fill="#42525a" stroke="#42525a" stroke-width="1.51"></path><path d="M51,288L179,276L121,183Z" fill="#4a5e6b" stroke="#4a5e6b" stroke-width="1.51"></path><path d="M179,276L263,270L215,161Z" fill="#3e4e56" stroke="#3e4e56" stroke-width="1.51"></path><path d="M87,158L51,288L121,183Z" fill="#506879" stroke="#506879" stroke-width="1.51"></path><path d="M-9,25L-59,68L55,101Z" fill="#779fc5" stroke="#779fc5" stroke-width="1.51"></path><path d="M-87,-18L-59,68L-9,25Z" fill="#84b7e8" stroke="#84b7e8" stroke-width="1.51"></path><path d="M363,165L434,165L433,75Z" fill="#3d4d55" stroke="#3d4d55" stroke-width="1.51"></path><path d="M433,75L447,284L433,-13Z" fill="#405058" stroke="#405058" stroke-width="1.51"></path><path d="M447,284L434,165L363,165Z" fill="#37474f" stroke="#37474f" stroke-width="1.51"></path><path d="M-29,-89L-87,-18L27,-28Z" fill="#8cc6ff" stroke="#8cc6ff" stroke-width="1.51"></path><path d="M263,270L332,287L363,165Z" fill="#37474f" stroke="#37474f" stroke-width="1.51"></path><path d="M179,276L332,287L263,270Z" fill="#3a4a52" stroke="#3a4a52" stroke-width="1.51"></path><path d="M-22,244L51,288L87,158Z" fill="#597790" stroke="#597790" stroke-width="1.51"></path><path d="M179,276L51,288L332,287Z" fill="#405058" stroke="#405058" stroke-width="1.51"></path><path d="M-59,68L-53,205L55,101Z" fill="#698cab" stroke="#698cab" stroke-width="1.51"></path><path d="M-87,-18L-100,98L-59,68Z" fill="#7ca9d3" stroke="#7ca9d3" stroke-width="1.51"></path><path d="M-100,98L-53,205L-59,68Z" fill="#698cab" stroke="#698cab" stroke-width="1.51"></path><path d="M-87,-18L-137,152L-100,98Z" fill="#7298ba" stroke="#7298ba" stroke-width="1.51"></path><path d="M-29,-89L-89,-100L-87,-18Z" fill="#8cc6ff" stroke="#8cc6ff" stroke-width="1.51"></path><path d="M273,-110L-89,-100L-29,-89Z" fill="#82b4e4" stroke="#82b4e4" stroke-width="1.51"></path><path d="M-53,205L-22,244L87,158Z" fill="#6082a1" stroke="#6082a1" stroke-width="1.51"></path><path d="M434,165L447,284L433,75Z" fill="#37474f" stroke="#37474f" stroke-width="1.51"></path><path d="M332,287L447,284L363,165Z" fill="#37474f" stroke="#37474f" stroke-width="1.51"></path><path d="M-53,205L-138,249L-22,244Z" fill="#6184a3" stroke="#6184a3" stroke-width="1.51"></path><path d="M-100,98L-137,152L-53,205Z" fill="#6588a7" stroke="#6588a7" stroke-width="1.51"></path><path d="M-89,-100L-137,152L-87,-18Z" fill="#89bff4" stroke="#89bff4" stroke-width="1.51"></path><path d="M-137,152L-138,249L-53,205Z" fill="#6184a3" stroke="#6184a3" stroke-width="1.51"></path><path d="M-22,244L-138,249L51,288Z" fill="#6184a3" stroke="#6184a3" stroke-width="1.51"></path></svg>