<svg width="300" height="176" xmlns="http://www.w3.org/2000/svg"><path d="M137,120L207,91L135,23Z" fill="#52626b" stroke="#52626b" stroke-width="1.51"></path><path d="M207,91L241,-21L135,23Z" fill="#576b79" stroke="#576b79" stroke-width="1.51"></path><path d="M135,23L26,104L137,120Z" fill="#576975" stroke="#576975" stroke-width="1.51"></path><path d="M130,-105L47,-1L135,23Z" fill="#658198" stroke="#658198" stroke-width="1.51"></path><path d="M47,-1L26,104L135,23Z" fill="#607789" stroke="#607789" stroke-width="1.51"></path><path d="M137,120L151,210L207,91Z" fill="#4d5d65" stroke="#4d5d65" stroke-width="1.51"></path><path d="M34,208L151,210L137,120Z" fill="#4f626d" stroke="#4f626d" stroke-width="1.51"></path><path d="M207,91L345,24L241,-21Z" fill="#536876" stroke="#536876" stroke-width="1.51"></path><path d="M151,210L245,209L207,91Z" fill="#4a5a62" stroke="#4a5a62" stroke-width="1.51"></path><path d="M317,166L322,121L207,91Z" fill="#495961" stroke="#495961" stroke-width="1.51"></path><path d="M151,210L147,245L245,209Z" fill="#47575f" stroke="#47575f" stroke-width="1.51"></path><path d="M52,255L147,245L151,210Z" fill="#4c5d68" stroke="#4c5d68" stroke-width="1.51"></path><path d="M241,-21L130,-105L135,23Z" fill="#617a8e" stroke="#617a8e" stroke-width="1.51"></path><path d="M310,-89L231,-98L241,-21Z" fill="#627e96" stroke="#627e96" stroke-width="1.51"></path><path d="M241,-21L231,-98L130,-105Z" fill="#65829a" stroke="#65829a" stroke-width="1.51"></path><path d="M26,104L34,208L137,120Z" fill="#556a78" stroke="#556a78" stroke-width="1.51"></path><path d="M245,209L317,166L207,91Z" fill="#485860" stroke="#485860" stroke-width="1.51"></path><path d="M395,28L345,24L322,121Z" fill="#4c5f6a" stroke="#4c5f6a" stroke-width="1.51"></path><path d="M322,121L345,24L207,91Z" fill="#4c5d66" stroke="#4c5d66" stroke-width="1.51"></path><path d="M396,-110L73,-111L130,-105Z" fill="#698aa6" stroke="#698aa6" stroke-width="1.51"></path><path d="M130,-105L73,-111L47,-1Z" fill="#6d8eac" stroke="#6d8eac" stroke-width="1.51"></path><path d="M47,-1L-50,65L26,104Z" fill="#637e93" stroke="#637e93" stroke-width="1.51"></path><path d="M26,104L-49,177L34,208Z" fill="#5a7285" stroke="#5a7285" stroke-width="1.51"></path><path d="M-46,-4L-50,65L47,-1Z" fill="#6a89a4" stroke="#6a89a4" stroke-width="1.51"></path><path d="M-44,260L52,255L34,208Z" fill="#556c7e" stroke="#556c7e" stroke-width="1.51"></path><path d="M34,208L52,255L151,210Z" fill="#506471" stroke="#506471" stroke-width="1.51"></path><path d="M-22,-67L-46,-4L47,-1Z" fill="#6f92b1" stroke="#6f92b1" stroke-width="1.51"></path><path d="M345,24L310,-89L241,-21Z" fill="#5a7487" stroke="#5a7487" stroke-width="1.51"></path><path d="M73,-111L-22,-67L47,-1Z" fill="#7093b3" stroke="#7093b3" stroke-width="1.51"></path><path d="M-50,65L-49,177L26,104Z" fill="#607a8e" stroke="#607a8e" stroke-width="1.51"></path><path d="M147,245L260,286L245,209Z" fill="#45555d" stroke="#45555d" stroke-width="1.51"></path><path d="M245,209L338,264L317,166Z" fill="#43535b" stroke="#43535b" stroke-width="1.51"></path><path d="M52,255L260,286L147,245Z" fill="#47575f" stroke="#47575f" stroke-width="1.51"></path><path d="M345,24L396,-110L310,-89Z" fill="#5c778e" stroke="#5c778e" stroke-width="1.51"></path><path d="M434,106L395,28L322,121Z" fill="#485860" stroke="#485860" stroke-width="1.51"></path><path d="M393,155L322,121L317,166Z" fill="#45555d" stroke="#45555d" stroke-width="1.51"></path><path d="M338,264L393,155L317,166Z" fill="#42525a" stroke="#42525a" stroke-width="1.51"></path><path d="M260,286L338,264L245,209Z" fill="#42525a" stroke="#42525a" stroke-width="1.51"></path><path d="M52,255L-121,277L260,286Z" fill="#4f6371" stroke="#4f6371" stroke-width="1.51"></path><path d="M-49,177L-44,260L34,208Z" fill="#597387" stroke="#597387" stroke-width="1.51"></path><path d="M448,242L434,106L393,155Z" fill="#415159" stroke="#415159" stroke-width="1.51"></path><path d="M393,155L434,106L322,121Z" fill="#45555d" stroke="#45555d" stroke-width="1.51"></path><path d="M-49,177L-105,182L-44,260Z" fill="#5e7b92" stroke="#5e7b92" stroke-width="1.51"></path><path d="M-124,117L-105,182L-49,177Z" fill="#64829c" stroke="#64829c" stroke-width="1.51"></path><path d="M-124,117L-49,177L-50,65Z" fill="#65819a" stroke="#65819a" stroke-width="1.51"></path><path d="M-127,-13L-50,65L-46,-4Z" fill="#7094b4" stroke="#7094b4" stroke-width="1.51"></path><path d="M-127,-13L-124,117L-50,65Z" fill="#6d8eac" stroke="#6d8eac" stroke-width="1.51"></path><path d="M-22,-67L-99,-67L-46,-4Z" fill="#779ec4" stroke="#779ec4" stroke-width="1.51"></path><path d="M73,-111L-99,-67L-22,-67Z" fill="#78a0c6" stroke="#78a0c6" stroke-width="1.51"></path><path d="M-99,-67L-127,-13L-46,-4Z" fill="#78a0c6" stroke="#78a0c6" stroke-width="1.51"></path><path d="M395,28L396,-110L345,24Z" fill="#566e81" stroke="#566e81" stroke-width="1.51"></path><path d="M310,-89L396,-110L231,-98Z" fill="#62829d" stroke="#62829d" stroke-width="1.51"></path><path d="M231,-98L396,-110L130,-105Z" fill="#6686a1" stroke="#6686a1" stroke-width="1.51"></path><path d="M434,106L396,-110L395,28Z" fill="#516777" stroke="#516777" stroke-width="1.51"></path><path d="M260,286L448,242L338,264Z" fill="#3e4e56" stroke="#3e4e56" stroke-width="1.51"></path><path d="M338,264L448,242L393,155Z" fill="#3f4f57" stroke="#3f4f57" stroke-width="1.51"></path><path d="M-124,117L-121,277L-105,182Z" fill="#64849f" stroke="#64849f" stroke-width="1.51"></path><path d="M-105,182L-121,277L-44,260Z" fill="#5e7c95" stroke="#5e7c95" stroke-width="1.51"></path><path d="M-44,260L-121,277L52,255Z" fill="#597389" stroke="#597389" stroke-width="1.51"></path><path d="M-127,-13L-121,277L-124,117Z" fill="#6989a5" stroke="#6989a5" stroke-width="1.51"></path></svg>