<svg width="300" height="176" xmlns="http://www.w3.org/2000/svg"><path d="M83,-120L238,-101L325,-102Z" fill="#6888a5" stroke="#6888a5" stroke-width="1.51"></path><path d="M83,-120L325,-102L415,-108Z" fill="#6686a3" stroke="#6686a3" stroke-width="1.51"></path><path d="M325,-102L317,23L415,-108Z" fill="#5c788f" stroke="#5c788f" stroke-width="1.51"></path><path d="M415,-108L317,23L449,23Z" fill="#556e81" stroke="#556e81" stroke-width="1.51"></path><path d="M353,200L443,235L450,204Z" fill="#3e4e56" stroke="#3e4e56" stroke-width="1.51"></path><path d="M406,76L353,200L450,204Z" fill="#42525a" stroke="#42525a" stroke-width="1.51"></path><path d="M449,23L406,76L450,204Z" fill="#44545c" stroke="#44545c" stroke-width="1.51"></path><path d="M317,23L406,76L449,23Z" fill="#4d616d" stroke="#4d616d" stroke-width="1.51"></path><path d="M353,200L338,273L443,235Z" fill="#3f4f57" stroke="#3f4f57" stroke-width="1.51"></path><path d="M301,87L353,200L406,76Z" fill="#46565e" stroke="#46565e" stroke-width="1.51"></path><path d="M317,23L301,87L406,76Z" fill="#4c5e69" stroke="#4c5e69" stroke-width="1.51"></path><path d="M238,-101L317,23L325,-102Z" fill="#5e7a91" stroke="#5e7a91" stroke-width="1.51"></path><path d="M236,210L338,273L353,200Z" fill="#42525a" stroke="#42525a" stroke-width="1.51"></path><path d="M301,87L236,210L353,200Z" fill="#46565e" stroke="#46565e" stroke-width="1.51"></path><path d="M215,119L236,210L301,87Z" fill="#4a5a62" stroke="#4a5a62" stroke-width="1.51"></path><path d="M238,-101L214,6L317,23Z" fill="#5b7487" stroke="#5b7487" stroke-width="1.51"></path><path d="M236,210L256,297L338,273Z" fill="#415159" stroke="#415159" stroke-width="1.51"></path><path d="M214,6L301,87L317,23Z" fill="#526673" stroke="#526673" stroke-width="1.51"></path><path d="M214,6L215,119L301,87Z" fill="#4f606a" stroke="#4f606a" stroke-width="1.51"></path><path d="M-31,236L-151,263L133,285Z" fill="#577083" stroke="#577083" stroke-width="1.51"></path><path d="M164,203L133,285L236,210Z" fill="#47575f" stroke="#47575f" stroke-width="1.51"></path><path d="M83,-120L183,-76L238,-101Z" fill="#6988a3" stroke="#6988a3" stroke-width="1.51"></path><path d="M183,-76L214,6L238,-101Z" fill="#627e94" stroke="#627e94" stroke-width="1.51"></path><path d="M236,210L133,285L256,297Z" fill="#44545c" stroke="#44545c" stroke-width="1.51"></path><path d="M214,6L135,13L215,119Z" fill="#556874" stroke="#556874" stroke-width="1.51"></path><path d="M135,13L134,114L215,119Z" fill="#51626a" stroke="#51626a" stroke-width="1.51"></path><path d="M215,119L164,203L236,210Z" fill="#495961" stroke="#495961" stroke-width="1.51"></path><path d="M183,-76L135,13L214,6Z" fill="#5f7789" stroke="#5f7789" stroke-width="1.51"></path><path d="M134,114L164,203L215,119Z" fill="#4c5c64" stroke="#4c5c64" stroke-width="1.51"></path><path d="M89,254L-31,236L133,285Z" fill="#4f6472" stroke="#4f6472" stroke-width="1.51"></path><path d="M92,62L134,114L135,13Z" fill="#586b77" stroke="#586b77" stroke-width="1.51"></path><path d="M134,114L89,170L164,203Z" fill="#4e5f69" stroke="#4e5f69" stroke-width="1.51"></path><path d="M86,-26L135,13L183,-76Z" fill="#637d92" stroke="#637d92" stroke-width="1.51"></path><path d="M83,-120L86,-26L183,-76Z" fill="#6a89a4" stroke="#6a89a4" stroke-width="1.51"></path><path d="M89,254L133,285L164,203Z" fill="#495a64" stroke="#495a64" stroke-width="1.51"></path><path d="M89,170L89,254L164,203Z" fill="#4d5f6a" stroke="#4d5f6a" stroke-width="1.51"></path><path d="M-154,-112L-13,-77L83,-120Z" fill="#7ba7d1" stroke="#7ba7d1" stroke-width="1.51"></path><path d="M86,-26L92,62L135,13Z" fill="#5f7789" stroke="#5f7789" stroke-width="1.51"></path><path d="M92,62L89,170L134,114Z" fill="#546671" stroke="#546671" stroke-width="1.51"></path><path d="M83,-120L-13,-77L86,-26Z" fill="#7094b4" stroke="#7094b4" stroke-width="1.51"></path><path d="M-31,61L-28,207L89,170Z" fill="#5b7385" stroke="#5b7385" stroke-width="1.51"></path><path d="M89,170L-28,207L89,254Z" fill="#536978" stroke="#536978" stroke-width="1.51"></path><path d="M-28,207L-31,236L89,254Z" fill="#566d7f" stroke="#566d7f" stroke-width="1.51"></path><path d="M86,-26L-40,30L92,62Z" fill="#647f95" stroke="#647f95" stroke-width="1.51"></path><path d="M-40,30L-31,61L92,62Z" fill="#647f95" stroke="#647f95" stroke-width="1.51"></path><path d="M-31,61L89,170L92,62Z" fill="#5a707f" stroke="#5a707f" stroke-width="1.51"></path><path d="M-13,-77L-40,30L86,-26Z" fill="#6e8fac" stroke="#6e8fac" stroke-width="1.51"></path><path d="M-90,102L-121,161L-28,207Z" fill="#638099" stroke="#638099" stroke-width="1.51"></path><path d="M-31,61L-90,102L-28,207Z" fill="#627e94" stroke="#627e94" stroke-width="1.51"></path><path d="M-103,-12L-40,30L-13,-77Z" fill="#7398ba" stroke="#7398ba" stroke-width="1.51"></path><path d="M-154,-112L-103,-12L-13,-77Z" fill="#7ca9d3" stroke="#7ca9d3" stroke-width="1.51"></path><path d="M-121,161L-31,236L-28,207Z" fill="#5e7a91" stroke="#5e7a91" stroke-width="1.51"></path><path d="M-121,161L-151,263L-31,236Z" fill="#617f9a" stroke="#617f9a" stroke-width="1.51"></path><path d="M-40,30L-90,102L-31,61Z" fill="#68859f" stroke="#68859f" stroke-width="1.51"></path><path d="M-103,-12L-90,102L-40,30Z" fill="#6d8fac" stroke="#6d8fac" stroke-width="1.51"></path><path d="M-103,-12L-121,161L-90,102Z" fill="#6a89a5" stroke="#6a89a5" stroke-width="1.51"></path><path d="M-154,-112L-121,161L-103,-12Z" fill="#759dc1" stroke="#759dc1" stroke-width="1.51"></path><path d="M-154,-112L-151,263L-121,161Z" fill="#6c8daa" stroke="#6c8daa" stroke-width="1.51"></path></svg>