<svg width="300" height="176" xmlns="http://www.w3.org/2000/svg"><path d="M-31,-80L160,-95L264,-119Z" fill="#7d8d95" stroke="#7d8d95" stroke-width="1.51"></path><path d="M-117,-74L-31,-80L264,-119Z" fill="#8999a1" stroke="#8999a1" stroke-width="1.51"></path><path d="M387,-20L360,-5L391,114Z" fill="#54646c" stroke="#54646c" stroke-width="1.51"></path><path d="M360,-5L325,54L391,114Z" fill="#4f5f67" stroke="#4f5f67" stroke-width="1.51"></path><path d="M219,270L-14,295L396,260Z" fill="#44545c" stroke="#44545c" stroke-width="1.51"></path><path d="M350,255L219,270L396,260Z" fill="#405058" stroke="#405058" stroke-width="1.51"></path><path d="M264,-119L328,-80L447,-70Z" fill="#6f7f87" stroke="#6f7f87" stroke-width="1.51"></path><path d="M328,-80L387,-20L447,-70Z" fill="#65757e" stroke="#65757e" stroke-width="1.51"></path><path d="M391,114L431,181L447,-70Z" fill="#485860" stroke="#485860" stroke-width="1.51"></path><path d="M387,-20L391,114L447,-70Z" fill="#57676f" stroke="#57676f" stroke-width="1.51"></path><path d="M159,259L-14,295L219,270Z" fill="#4a5a62" stroke="#4a5a62" stroke-width="1.51"></path><path d="M327,201L396,260L431,181Z" fill="#404f58" stroke="#404f58" stroke-width="1.51"></path><path d="M391,114L327,201L431,181Z" fill="#43535b" stroke="#43535b" stroke-width="1.51"></path><path d="M328,-80L360,-5L387,-20Z" fill="#63737b" stroke="#63737b" stroke-width="1.51"></path><path d="M327,201L350,255L396,260Z" fill="#3f4f57" stroke="#3f4f57" stroke-width="1.51"></path><path d="M325,54L327,201L391,114Z" fill="#47575f" stroke="#47575f" stroke-width="1.51"></path><path d="M325,54L217,121L327,201Z" fill="#495961" stroke="#495961" stroke-width="1.51"></path><path d="M328,-80L267,24L360,-5Z" fill="#617179" stroke="#617179" stroke-width="1.51"></path><path d="M267,24L325,54L360,-5Z" fill="#57676f" stroke="#57676f" stroke-width="1.51"></path><path d="M327,201L219,270L350,255Z" fill="#42525a" stroke="#42525a" stroke-width="1.51"></path><path d="M267,24L217,121L325,54Z" fill="#506068" stroke="#506068" stroke-width="1.51"></path><path d="M221,203L219,270L327,201Z" fill="#44545c" stroke="#44545c" stroke-width="1.51"></path><path d="M217,121L221,203L327,201Z" fill="#47575f" stroke="#47575f" stroke-width="1.51"></path><path d="M264,-119L267,24L328,-80Z" fill="#6a7a83" stroke="#6a7a83" stroke-width="1.51"></path><path d="M65,257L-14,295L159,259Z" fill="#52626a" stroke="#52626a" stroke-width="1.51"></path><path d="M-31,-80L43,-65L160,-95Z" fill="#84949c" stroke="#84949c" stroke-width="1.51"></path><path d="M137,-30L166,67L267,24Z" fill="#5e6e76" stroke="#5e6e76" stroke-width="1.51"></path><path d="M264,-119L160,-95L267,24Z" fill="#6e7e86" stroke="#6e7e86" stroke-width="1.51"></path><path d="M160,-95L137,-30L267,24Z" fill="#697981" stroke="#697981" stroke-width="1.51"></path><path d="M166,67L217,121L267,24Z" fill="#516169" stroke="#516169" stroke-width="1.51"></path><path d="M175,210L159,259L219,270Z" fill="#46565e" stroke="#46565e" stroke-width="1.51"></path><path d="M175,210L219,270L221,203Z" fill="#46565e" stroke="#46565e" stroke-width="1.51"></path><path d="M217,121L175,210L221,203Z" fill="#495961" stroke="#495961" stroke-width="1.51"></path><path d="M166,67L175,210L217,121Z" fill="#4d5d65" stroke="#4d5d65" stroke-width="1.51"></path><path d="M166,67L78,96L175,210Z" fill="#506068" stroke="#506068" stroke-width="1.51"></path><path d="M137,-30L78,96L166,67Z" fill="#5e6e76" stroke="#5e6e76" stroke-width="1.51"></path><path d="M78,96L32,178L175,210Z" fill="#55656d" stroke="#55656d" stroke-width="1.51"></path><path d="M65,257L159,259L175,210Z" fill="#4a5a62" stroke="#4a5a62" stroke-width="1.51"></path><path d="M32,178L65,257L175,210Z" fill="#52626a" stroke="#52626a" stroke-width="1.51"></path><path d="M43,-10L78,96L137,-30Z" fill="#697981" stroke="#697981" stroke-width="1.51"></path><path d="M43,-65L137,-30L160,-95Z" fill="#778790" stroke="#778790" stroke-width="1.51"></path><path d="M43,-65L43,-10L137,-30Z" fill="#77878f" stroke="#77878f" stroke-width="1.51"></path><path d="M-14,161L32,178L78,96Z" fill="#5f6f77" stroke="#5f6f77" stroke-width="1.51"></path><path d="M43,-10L-53,59L78,96Z" fill="#6d7d85" stroke="#6d7d85" stroke-width="1.51"></path><path d="M-53,59L-14,161L78,96Z" fill="#66767e" stroke="#66767e" stroke-width="1.51"></path><path d="M32,178L-14,295L65,257Z" fill="#5a6a72" stroke="#5a6a72" stroke-width="1.51"></path><path d="M-14,161L-14,295L32,178Z" fill="#607078" stroke="#607078" stroke-width="1.51"></path><path d="M-31,-80L-60,12L43,-10Z" fill="#84949c" stroke="#84949c" stroke-width="1.51"></path><path d="M-60,12L-53,59L43,-10Z" fill="#7a8a92" stroke="#7a8a92" stroke-width="1.51"></path><path d="M-31,-80L43,-10L43,-65Z" fill="#84949c" stroke="#84949c" stroke-width="1.51"></path><path d="M-117,-32L-60,12L-31,-80Z" fill="#8e9ea6" stroke="#8e9ea6" stroke-width="1.51"></path><path d="M-53,59L-104,77L-14,161Z" fill="#708088" stroke="#708088" stroke-width="1.51"></path><path d="M-104,77L-122,155L-14,161Z" fill="#71828a" stroke="#71828a" stroke-width="1.51"></path><path d="M-122,155L-108,264L-14,161Z" fill="#6e7e86" stroke="#6e7e86" stroke-width="1.51"></path><path d="M-14,161L-108,264L-14,295Z" fill="#65757d" stroke="#65757d" stroke-width="1.51"></path><path d="M-117,-74L-117,-32L-31,-80Z" fill="#97a7af" stroke="#97a7af" stroke-width="1.51"></path><path d="M-60,12L-104,77L-53,59Z" fill="#7c8c94" stroke="#7c8c94" stroke-width="1.51"></path><path d="M-117,-32L-104,77L-60,12Z" fill="#86969e" stroke="#86969e" stroke-width="1.51"></path><path d="M-117,-32L-122,155L-104,77Z" fill="#7f8f97" stroke="#7f8f97" stroke-width="1.51"></path><path d="M-117,-74L-122,155L-117,-32Z" fill="#8b9ba3" stroke="#8b9ba3" stroke-width="1.51"></path></svg>