<svg width="300" height="176" xmlns="http://www.w3.org/2000/svg"><path d="M133,120L76,64L121,149Z" fill="#536570" stroke="#536570" stroke-width="1.51"></path><path d="M160,-34L67,19L76,64Z" fill="#60788a" stroke="#60788a" stroke-width="1.51"></path><path d="M-58,105L28,205L76,64Z" fill="#5c7485" stroke="#5c7485" stroke-width="1.51"></path><path d="M76,64L28,205L121,149Z" fill="#556977" stroke="#556977" stroke-width="1.51"></path><path d="M28,205L138,235L121,149Z" fill="#50626e" stroke="#50626e" stroke-width="1.51"></path><path d="M121,149L257,186L133,120Z" fill="#4c5c64" stroke="#4c5c64" stroke-width="1.51"></path><path d="M67,19L-58,105L76,64Z" fill="#60798c" stroke="#60798c" stroke-width="1.51"></path><path d="M0,242L58,260L28,205Z" fill="#546a7b" stroke="#546a7b" stroke-width="1.51"></path><path d="M28,205L58,260L138,235Z" fill="#506471" stroke="#506471" stroke-width="1.51"></path><path d="M133,120L217,55L76,64Z" fill="#53636d" stroke="#53636d" stroke-width="1.51"></path><path d="M257,186L217,55L133,120Z" fill="#4d5d65" stroke="#4d5d65" stroke-width="1.51"></path><path d="M-57,180L0,242L28,205Z" fill="#597285" stroke="#597285" stroke-width="1.51"></path><path d="M-58,105L-57,180L28,205Z" fill="#5d788c" stroke="#5d788c" stroke-width="1.51"></path><path d="M217,55L160,-34L76,64Z" fill="#596d7b" stroke="#596d7b" stroke-width="1.51"></path><path d="M86,-83L-37,-20L67,19Z" fill="#6b8ba7" stroke="#6b8ba7" stroke-width="1.51"></path><path d="M67,19L-37,-20L-58,105Z" fill="#68859e" stroke="#68859e" stroke-width="1.51"></path><path d="M138,235L257,186L121,149Z" fill="#4a5a62" stroke="#4a5a62" stroke-width="1.51"></path><path d="M160,-34L86,-83L67,19Z" fill="#66829a" stroke="#66829a" stroke-width="1.51"></path><path d="M246,-87L134,-76L160,-34Z" fill="#648198" stroke="#648198" stroke-width="1.51"></path><path d="M160,-34L134,-76L86,-83Z" fill="#68859e" stroke="#68859e" stroke-width="1.51"></path><path d="M217,55L245,-7L160,-34Z" fill="#5a7080" stroke="#5a7080" stroke-width="1.51"></path><path d="M298,27L245,-7L217,55Z" fill="#556a78" stroke="#556a78" stroke-width="1.51"></path><path d="M58,260L223,264L138,235Z" fill="#485962" stroke="#485962" stroke-width="1.51"></path><path d="M138,235L223,264L257,186Z" fill="#46565e" stroke="#46565e" stroke-width="1.51"></path><path d="M-57,180L-113,262L0,242Z" fill="#5c788f" stroke="#5c788f" stroke-width="1.51"></path><path d="M-58,105L-121,187L-57,180Z" fill="#638099" stroke="#638099" stroke-width="1.51"></path><path d="M-146,103L-121,187L-58,105Z" fill="#6786a1" stroke="#6786a1" stroke-width="1.51"></path><path d="M-107,-17L-146,103L-58,105Z" fill="#6d8dab" stroke="#6d8dab" stroke-width="1.51"></path><path d="M-37,-20L-107,-17L-58,105Z" fill="#6f91b0" stroke="#6f91b0" stroke-width="1.51"></path><path d="M-153,-102L-107,-17L-37,-20Z" fill="#7ba6cf" stroke="#7ba6cf" stroke-width="1.51"></path><path d="M332,57L298,27L217,55Z" fill="#516470" stroke="#516470" stroke-width="1.51"></path><path d="M-121,187L-113,262L-57,180Z" fill="#617f99" stroke="#617f99" stroke-width="1.51"></path><path d="M0,242L-113,262L58,260Z" fill="#577084" stroke="#577084" stroke-width="1.51"></path><path d="M436,298L325,275L223,264Z" fill="#3e4e56" stroke="#3e4e56" stroke-width="1.51"></path><path d="M-146,103L-113,262L-121,187Z" fill="#6686a2" stroke="#6686a2" stroke-width="1.51"></path><path d="M86,-83L1,-117L-37,-20Z" fill="#7499bc" stroke="#7499bc" stroke-width="1.51"></path><path d="M134,-76L1,-117L86,-83Z" fill="#7194b4" stroke="#7194b4" stroke-width="1.51"></path><path d="M353,208L332,57L257,186Z" fill="#46565e" stroke="#46565e" stroke-width="1.51"></path><path d="M257,186L332,57L217,55Z" fill="#4b5b63" stroke="#4b5b63" stroke-width="1.51"></path><path d="M362,-59L245,-7L298,27Z" fill="#587081" stroke="#587081" stroke-width="1.51"></path><path d="M362,-59L246,-87L245,-7Z" fill="#5e798f" stroke="#5e798f" stroke-width="1.51"></path><path d="M245,-7L246,-87L160,-34Z" fill="#607a8f" stroke="#607a8f" stroke-width="1.51"></path><path d="M134,-76L246,-87L1,-117Z" fill="#6c8ca8" stroke="#6c8ca8" stroke-width="1.51"></path><path d="M325,275L353,208L257,186Z" fill="#42525a" stroke="#42525a" stroke-width="1.51"></path><path d="M223,264L325,275L257,186Z" fill="#43535b" stroke="#43535b" stroke-width="1.51"></path><path d="M436,298L223,264L58,260Z" fill="#42525a" stroke="#42525a" stroke-width="1.51"></path><path d="M1,-117L-153,-102L-37,-20Z" fill="#7ba7d1" stroke="#7ba7d1" stroke-width="1.51"></path><path d="M-107,-17L-153,-102L-146,103Z" fill="#79a2c9" stroke="#79a2c9" stroke-width="1.51"></path><path d="M393,4L362,-59L298,27Z" fill="#556d7e" stroke="#556d7e" stroke-width="1.51"></path><path d="M393,4L298,27L332,57Z" fill="#516573" stroke="#516573" stroke-width="1.51"></path><path d="M441,97L393,4L332,57Z" fill="#4c5e6a" stroke="#4c5e6a" stroke-width="1.51"></path><path d="M353,208L424,178L332,57Z" fill="#44545c" stroke="#44545c" stroke-width="1.51"></path><path d="M436,298L424,178L353,208Z" fill="#3e4e56" stroke="#3e4e56" stroke-width="1.51"></path><path d="M393,4L406,-105L362,-59Z" fill="#5a758b" stroke="#5a758b" stroke-width="1.51"></path><path d="M424,178L441,97L332,57Z" fill="#45555d" stroke="#45555d" stroke-width="1.51"></path><path d="M441,97L406,-105L393,4Z" fill="#526879" stroke="#526879" stroke-width="1.51"></path><path d="M362,-59L406,-105L246,-87Z" fill="#5f7d97" stroke="#5f7d97" stroke-width="1.51"></path><path d="M246,-87L406,-105L1,-117Z" fill="#6787a3" stroke="#6787a3" stroke-width="1.51"></path><path d="M424,178L436,298L441,97Z" fill="#3f4f57" stroke="#3f4f57" stroke-width="1.51"></path><path d="M325,275L436,298L353,208Z" fill="#3e4e56" stroke="#3e4e56" stroke-width="1.51"></path><path d="M-113,262L436,298L58,260Z" fill="#485963" stroke="#485963" stroke-width="1.51"></path></svg>