<svg width="300" height="176" xmlns="http://www.w3.org/2000/svg"><path d="M148,247L3,278L309,274Z" fill="#46565e" stroke="#46565e" stroke-width="1.51"></path><path d="M126,-111L260,-99L345,-98Z" fill="#76868e" stroke="#76868e" stroke-width="1.51"></path><path d="M345,-98L298,10L402,-85Z" fill="#67777f" stroke="#67777f" stroke-width="1.51"></path><path d="M393,152L346,170L408,247Z" fill="#415159" stroke="#415159" stroke-width="1.51"></path><path d="M393,152L408,247L426,88Z" fill="#42525a" stroke="#42525a" stroke-width="1.51"></path><path d="M402,-85L298,10L429,-3Z" fill="#607078" stroke="#607078" stroke-width="1.51"></path><path d="M318,91L426,88L429,-3Z" fill="#4d5d65" stroke="#4d5d65" stroke-width="1.51"></path><path d="M298,10L318,91L429,-3Z" fill="#54646c" stroke="#54646c" stroke-width="1.51"></path><path d="M318,91L393,152L426,88Z" fill="#46565e" stroke="#46565e" stroke-width="1.51"></path><path d="M346,170L309,274L408,247Z" fill="#405058" stroke="#405058" stroke-width="1.51"></path><path d="M318,91L346,170L393,152Z" fill="#45555d" stroke="#45555d" stroke-width="1.51"></path><path d="M245,245L148,247L309,274Z" fill="#44545c" stroke="#44545c" stroke-width="1.51"></path><path d="M260,-99L298,10L345,-98Z" fill="#6a7a82" stroke="#6a7a82" stroke-width="1.51"></path><path d="M245,245L309,274L346,170Z" fill="#42525a" stroke="#42525a" stroke-width="1.51"></path><path d="M227,188L245,245L346,170Z" fill="#45555d" stroke="#45555d" stroke-width="1.51"></path><path d="M318,91L227,188L346,170Z" fill="#47575f" stroke="#47575f" stroke-width="1.51"></path><path d="M298,10L246,29L318,91Z" fill="#55646d" stroke="#55646d" stroke-width="1.51"></path><path d="M246,29L226,87L318,91Z" fill="#506068" stroke="#506068" stroke-width="1.51"></path><path d="M226,87L227,188L318,91Z" fill="#4a5a62" stroke="#4a5a62" stroke-width="1.51"></path><path d="M-143,-83L-22,-69L126,-111Z" fill="#91a1a9" stroke="#91a1a9" stroke-width="1.51"></path><path d="M260,-99L246,29L298,10Z" fill="#63737b" stroke="#63737b" stroke-width="1.51"></path><path d="M82,245L3,278L148,247Z" fill="#52626a" stroke="#52626a" stroke-width="1.51"></path><path d="M142,4L246,29L260,-99Z" fill="#65757d" stroke="#65757d" stroke-width="1.51"></path><path d="M126,-111L142,4L260,-99Z" fill="#72828a" stroke="#72828a" stroke-width="1.51"></path><path d="M226,87L162,86L227,188Z" fill="#4c5c64" stroke="#4c5c64" stroke-width="1.51"></path><path d="M227,188L148,247L245,245Z" fill="#46565e" stroke="#46565e" stroke-width="1.51"></path><path d="M162,86L226,87L246,29Z" fill="#53636b" stroke="#53636b" stroke-width="1.51"></path><path d="M142,4L162,86L246,29Z" fill="#5a6a72" stroke="#5a6a72" stroke-width="1.51"></path><path d="M162,86L150,195L227,188Z" fill="#4b5b63" stroke="#4b5b63" stroke-width="1.51"></path><path d="M150,195L148,247L227,188Z" fill="#495961" stroke="#495961" stroke-width="1.51"></path><path d="M126,-111L92,-82L142,4Z" fill="#76868e" stroke="#76868e" stroke-width="1.51"></path><path d="M78,72L74,209L150,195Z" fill="#54646c" stroke="#54646c" stroke-width="1.51"></path><path d="M78,72L150,195L162,86Z" fill="#52626a" stroke="#52626a" stroke-width="1.51"></path><path d="M142,4L78,72L162,86Z" fill="#5b6b73" stroke="#5b6b73" stroke-width="1.51"></path><path d="M-22,-69L92,-82L126,-111Z" fill="#85959d" stroke="#85959d" stroke-width="1.51"></path><path d="M92,-82L82,5L142,4Z" fill="#708088" stroke="#708088" stroke-width="1.51"></path><path d="M82,5L78,72L142,4Z" fill="#65757d" stroke="#65757d" stroke-width="1.51"></path><path d="M82,245L148,247L150,195Z" fill="#4c5c64" stroke="#4c5c64" stroke-width="1.51"></path><path d="M74,209L82,245L150,195Z" fill="#506169" stroke="#506169" stroke-width="1.51"></path><path d="M-23,202L74,209L78,72Z" fill="#5d6d75" stroke="#5d6d75" stroke-width="1.51"></path><path d="M-44,61L-23,202L78,72Z" fill="#66767e" stroke="#66767e" stroke-width="1.51"></path><path d="M-22,-69L82,5L92,-82Z" fill="#7e8e96" stroke="#7e8e96" stroke-width="1.51"></path><path d="M-22,-69L-62,29L82,5Z" fill="#7e8e96" stroke="#7e8e96" stroke-width="1.51"></path><path d="M-62,29L-44,61L82,5Z" fill="#75858d" stroke="#75858d" stroke-width="1.51"></path><path d="M-44,61L78,72L82,5Z" fill="#6b7b83" stroke="#6b7b83" stroke-width="1.51"></path><path d="M74,209L3,278L82,245Z" fill="#57676f" stroke="#57676f" stroke-width="1.51"></path><path d="M-23,202L3,278L74,209Z" fill="#5c6c74" stroke="#5c6c74" stroke-width="1.51"></path><path d="M-44,61L-108,153L-23,202Z" fill="#6e7e86" stroke="#6e7e86" stroke-width="1.51"></path><path d="M-23,202L-101,260L3,278Z" fill="#64757d" stroke="#64757d" stroke-width="1.51"></path><path d="M-143,-83L-135,20L-62,29Z" fill="#90a0a8" stroke="#90a0a8" stroke-width="1.51"></path><path d="M-143,-83L-62,29L-22,-69Z" fill="#90a0a8" stroke="#90a0a8" stroke-width="1.51"></path><path d="M-107,57L-108,153L-44,61Z" fill="#76868e" stroke="#76868e" stroke-width="1.51"></path><path d="M-108,153L-101,260L-23,202Z" fill="#6d7d85" stroke="#6d7d85" stroke-width="1.51"></path><path d="M-62,29L-107,57L-44,61Z" fill="#7c8c94" stroke="#7c8c94" stroke-width="1.51"></path><path d="M-135,20L-107,57L-62,29Z" fill="#83939c" stroke="#83939c" stroke-width="1.51"></path><path d="M-135,20L-108,153L-107,57Z" fill="#7d8d95" stroke="#7d8d95" stroke-width="1.51"></path><path d="M-108,153L-135,20L-101,260Z" fill="#76868e" stroke="#76868e" stroke-width="1.51"></path></svg>