<svg width="300" height="176" xmlns="http://www.w3.org/2000/svg"><path d="M-149,-104L-63,-95L30,-94Z" fill="#9babb3" stroke="#9babb3" stroke-width="1.51"></path><path d="M69,286L0,291L169,290Z" fill="#506068" stroke="#506068" stroke-width="1.51"></path><path d="M30,-94L159,-71L223,-78Z" fill="#788890" stroke="#788890" stroke-width="1.51"></path><path d="M-149,-104L30,-94L305,-90Z" fill="#87979f" stroke="#87979f" stroke-width="1.51"></path><path d="M30,-94L223,-78L305,-90Z" fill="#75858d" stroke="#75858d" stroke-width="1.51"></path><path d="M396,-76L400,-1L408,54Z" fill="#5a6a72" stroke="#5a6a72" stroke-width="1.51"></path><path d="M351,159L341,247L424,147Z" fill="#42525a" stroke="#42525a" stroke-width="1.51"></path><path d="M396,-76L408,54L424,147Z" fill="#506068" stroke="#506068" stroke-width="1.51"></path><path d="M341,247L236,258L442,278Z" fill="#3f4f57" stroke="#3f4f57" stroke-width="1.51"></path><path d="M236,258L169,290L442,278Z" fill="#405058" stroke="#405058" stroke-width="1.51"></path><path d="M424,147L341,247L442,278Z" fill="#3e4e56" stroke="#3e4e56" stroke-width="1.51"></path><path d="M311,88L351,159L408,54Z" fill="#485860" stroke="#485860" stroke-width="1.51"></path><path d="M408,54L351,159L424,147Z" fill="#45555d" stroke="#45555d" stroke-width="1.51"></path><path d="M396,-76L339,2L400,-1Z" fill="#5f6f77" stroke="#5f6f77" stroke-width="1.51"></path><path d="M400,-1L339,2L408,54Z" fill="#56666e" stroke="#56666e" stroke-width="1.51"></path><path d="M339,2L311,88L408,54Z" fill="#516169" stroke="#516169" stroke-width="1.51"></path><path d="M305,-90L339,2L396,-76Z" fill="#67777f" stroke="#67777f" stroke-width="1.51"></path><path d="M233,183L341,247L351,159Z" fill="#44545c" stroke="#44545c" stroke-width="1.51"></path><path d="M311,88L233,183L351,159Z" fill="#47575f" stroke="#47575f" stroke-width="1.51"></path><path d="M237,-14L311,88L339,2Z" fill="#586870" stroke="#586870" stroke-width="1.51"></path><path d="M305,-90L237,-14L339,2Z" fill="#65757d" stroke="#65757d" stroke-width="1.51"></path><path d="M233,183L236,258L341,247Z" fill="#44545c" stroke="#44545c" stroke-width="1.51"></path><path d="M223,-78L237,-14L305,-90Z" fill="#6c7c84" stroke="#6c7c84" stroke-width="1.51"></path><path d="M237,-14L209,85L311,88Z" fill="#54646c" stroke="#54646c" stroke-width="1.51"></path><path d="M209,85L233,183L311,88Z" fill="#4b5b63" stroke="#4b5b63" stroke-width="1.51"></path><path d="M209,85L167,172L233,183Z" fill="#4b5b63" stroke="#4b5b63" stroke-width="1.51"></path><path d="M233,183L167,172L236,258Z" fill="#47575f" stroke="#47575f" stroke-width="1.51"></path><path d="M167,172L169,290L236,258Z" fill="#46565e" stroke="#46565e" stroke-width="1.51"></path><path d="M182,76L209,85L237,-14Z" fill="#57676f" stroke="#57676f" stroke-width="1.51"></path><path d="M163,-29L182,76L237,-14Z" fill="#5f6f77" stroke="#5f6f77" stroke-width="1.51"></path><path d="M223,-78L163,-29L237,-14Z" fill="#6a7a82" stroke="#6a7a82" stroke-width="1.51"></path><path d="M182,76L167,172L209,85Z" fill="#4e5e66" stroke="#4e5e66" stroke-width="1.51"></path><path d="M159,-71L163,-29L223,-78Z" fill="#6f7f87" stroke="#6f7f87" stroke-width="1.51"></path><path d="M59,80L45,144L167,172Z" fill="#57676f" stroke="#57676f" stroke-width="1.51"></path><path d="M167,172L69,286L169,290Z" fill="#495962" stroke="#495962" stroke-width="1.51"></path><path d="M163,-29L93,8L182,76Z" fill="#607078" stroke="#607078" stroke-width="1.51"></path><path d="M59,80L167,172L182,76Z" fill="#516169" stroke="#516169" stroke-width="1.51"></path><path d="M93,8L59,80L182,76Z" fill="#5e6e76" stroke="#5e6e76" stroke-width="1.51"></path><path d="M45,144L69,286L167,172Z" fill="#53636b" stroke="#53636b" stroke-width="1.51"></path><path d="M159,-71L93,8L163,-29Z" fill="#6c7c85" stroke="#6c7c85" stroke-width="1.51"></path><path d="M30,-94L93,8L159,-71Z" fill="#788890" stroke="#788890" stroke-width="1.51"></path><path d="M45,144L0,291L69,286Z" fill="#586870" stroke="#586870" stroke-width="1.51"></path><path d="M30,-94L-44,-9L93,8Z" fill="#7e8e96" stroke="#7e8e96" stroke-width="1.51"></path><path d="M-6,72L59,80L93,8Z" fill="#687880" stroke="#687880" stroke-width="1.51"></path><path d="M-44,-9L-6,72L93,8Z" fill="#73848c" stroke="#73848c" stroke-width="1.51"></path><path d="M-22,148L0,291L45,144Z" fill="#607078" stroke="#607078" stroke-width="1.51"></path><path d="M-6,72L45,144L59,80Z" fill="#62727a" stroke="#62727a" stroke-width="1.51"></path><path d="M-6,72L-22,148L45,144Z" fill="#65757d" stroke="#65757d" stroke-width="1.51"></path><path d="M-22,148L-105,178L0,291Z" fill="#67777f" stroke="#67777f" stroke-width="1.51"></path><path d="M-63,-95L-44,-9L30,-94Z" fill="#8e9ea6" stroke="#8e9ea6" stroke-width="1.51"></path><path d="M-92,93L-22,148L-6,72Z" fill="#6d7d85" stroke="#6d7d85" stroke-width="1.51"></path><path d="M-105,178L-139,273L0,291Z" fill="#6a7a83" stroke="#6a7a83" stroke-width="1.51"></path><path d="M-44,-9L-92,93L-6,72Z" fill="#77878f" stroke="#77878f" stroke-width="1.51"></path><path d="M-103,-1L-92,93L-44,-9Z" fill="#82929a" stroke="#82929a" stroke-width="1.51"></path><path d="M-92,93L-105,178L-22,148Z" fill="#708088" stroke="#708088" stroke-width="1.51"></path><path d="M-63,-95L-103,-1L-44,-9Z" fill="#8e9ea6" stroke="#8e9ea6" stroke-width="1.51"></path><path d="M-149,-104L-103,-1L-63,-95Z" fill="#9babb3" stroke="#9babb3" stroke-width="1.51"></path><path d="M-103,-1L-105,178L-92,93Z" fill="#778790" stroke="#778790" stroke-width="1.51"></path><path d="M-149,-104L-139,273L-105,178Z" fill="#7b8b93" stroke="#7b8b93" stroke-width="1.51"></path><path d="M-149,-104L-105,178L-103,-1Z" fill="#8898a1" stroke="#8898a1" stroke-width="1.51"></path></svg>