<svg width="300" height="176" xmlns="http://www.w3.org/2000/svg"><path d="M179,59L260,18L156,15Z" fill="#607c92" stroke="#607c92" stroke-width="1.51"></path><path d="M179,59L222,91L260,18Z" fill="#566c7c" stroke="#566c7c" stroke-width="1.51"></path><path d="M222,91L296,59L260,18Z" fill="#526879" stroke="#526879" stroke-width="1.51"></path><path d="M218,-120L136,-95L156,15Z" fill="#6d90af" stroke="#6d90af" stroke-width="1.51"></path><path d="M260,18L218,-120L156,15Z" fill="#698cab" stroke="#698cab" stroke-width="1.51"></path><path d="M307,-98L218,-120L260,18Z" fill="#6588a7" stroke="#6588a7" stroke-width="1.51"></path><path d="M136,-95L76,-34L156,15Z" fill="#749bbf" stroke="#749bbf" stroke-width="1.51"></path><path d="M156,15L62,63L179,59Z" fill="#637e93" stroke="#637e93" stroke-width="1.51"></path><path d="M222,91L218,161L296,59Z" fill="#46565e" stroke="#46565e" stroke-width="1.51"></path><path d="M118,168L218,161L222,91Z" fill="#46565e" stroke="#46565e" stroke-width="1.51"></path><path d="M118,168L222,91L179,59Z" fill="#4c5c64" stroke="#4c5c64" stroke-width="1.51"></path><path d="M363,12L307,-98L260,18Z" fill="#6184a3" stroke="#6184a3" stroke-width="1.51"></path><path d="M76,-34L62,63L156,15Z" fill="#759bbe" stroke="#759bbe" stroke-width="1.51"></path><path d="M408,-4L363,12L415,99Z" fill="#557085" stroke="#557085" stroke-width="1.51"></path><path d="M296,59L363,12L260,18Z" fill="#57738a" stroke="#57738a" stroke-width="1.51"></path><path d="M62,63L118,168L179,59Z" fill="#566975" stroke="#566975" stroke-width="1.51"></path><path d="M76,-34L-58,-2L62,63Z" fill="#84b7e9" stroke="#84b7e9" stroke-width="1.51"></path><path d="M136,-95L64,-109L76,-34Z" fill="#7aa5ce" stroke="#7aa5ce" stroke-width="1.51"></path><path d="M218,-120L64,-109L136,-95Z" fill="#7196b7" stroke="#7196b7" stroke-width="1.51"></path><path d="M363,12L408,-4L307,-98Z" fill="#6184a3" stroke="#6184a3" stroke-width="1.51"></path><path d="M415,99L363,12L296,59Z" fill="#4e6474" stroke="#4e6474" stroke-width="1.51"></path><path d="M389,175L415,99L296,59Z" fill="#405058" stroke="#405058" stroke-width="1.51"></path><path d="M270,291L350,193L218,161Z" fill="#394851" stroke="#394851" stroke-width="1.51"></path><path d="M218,161L350,193L296,59Z" fill="#3d4d55" stroke="#3d4d55" stroke-width="1.51"></path><path d="M118,168L173,242L218,161Z" fill="#42525a" stroke="#42525a" stroke-width="1.51"></path><path d="M118,168L73,285L173,242Z" fill="#4a5d69" stroke="#4a5d69" stroke-width="1.51"></path><path d="M62,63L28,163L118,168Z" fill="#5a7488" stroke="#5a7488" stroke-width="1.51"></path><path d="M-27,118L28,163L62,63Z" fill="#6786a2" stroke="#6786a2" stroke-width="1.51"></path><path d="M350,193L389,175L296,59Z" fill="#3c4c54" stroke="#3c4c54" stroke-width="1.51"></path><path d="M64,-109L-27,-61L76,-34Z" fill="#85b8eb" stroke="#85b8eb" stroke-width="1.51"></path><path d="M-58,-2L-27,118L62,63Z" fill="#79a2ca" stroke="#79a2ca" stroke-width="1.51"></path><path d="M408,-4L441,-113L307,-98Z" fill="#6184a3" stroke="#6184a3" stroke-width="1.51"></path><path d="M307,-98L441,-113L218,-120Z" fill="#6184a3" stroke="#6184a3" stroke-width="1.51"></path><path d="M415,99L441,-113L408,-4Z" fill="#6184a3" stroke="#6184a3" stroke-width="1.51"></path><path d="M-27,-61L-58,-2L76,-34Z" fill="#8cc6ff" stroke="#8cc6ff" stroke-width="1.51"></path><path d="M173,242L270,291L218,161Z" fill="#3e4e56" stroke="#3e4e56" stroke-width="1.51"></path><path d="M350,193L398,244L389,175Z" fill="#37474f" stroke="#37474f" stroke-width="1.51"></path><path d="M-27,118L-35,168L28,163Z" fill="#6588a7" stroke="#6588a7" stroke-width="1.51"></path><path d="M28,163L73,285L118,168Z" fill="#536c7f" stroke="#536c7f" stroke-width="1.51"></path><path d="M173,242L73,285L270,291Z" fill="#42525a" stroke="#42525a" stroke-width="1.51"></path><path d="M-90,55L-35,168L-27,118Z" fill="#6b8ead" stroke="#6b8ead" stroke-width="1.51"></path><path d="M270,291L307,289L350,193Z" fill="#37474f" stroke="#37474f" stroke-width="1.51"></path><path d="M415,99L398,244L441,-113Z" fill="#485a65" stroke="#485a65" stroke-width="1.51"></path><path d="M389,175L398,244L415,99Z" fill="#37474f" stroke="#37474f" stroke-width="1.51"></path><path d="M307,289L398,244L350,193Z" fill="#37474f" stroke="#37474f" stroke-width="1.51"></path><path d="M-145,-36L-90,55L-58,-2Z" fill="#8ac2fa" stroke="#8ac2fa" stroke-width="1.51"></path><path d="M-58,-2L-90,55L-27,118Z" fill="#79a4cc" stroke="#79a4cc" stroke-width="1.51"></path><path d="M3,282L73,285L28,163Z" fill="#5a7891" stroke="#5a7891" stroke-width="1.51"></path><path d="M-35,168L3,282L28,163Z" fill="#6184a3" stroke="#6184a3" stroke-width="1.51"></path><path d="M-94,297L3,282L-35,168Z" fill="#6184a3" stroke="#6184a3" stroke-width="1.51"></path><path d="M-27,-61L-136,-70L-58,-2Z" fill="#8cc6ff" stroke="#8cc6ff" stroke-width="1.51"></path><path d="M64,-109L-136,-70L-27,-61Z" fill="#8cc6ff" stroke="#8cc6ff" stroke-width="1.51"></path><path d="M-136,-70L-145,-36L-58,-2Z" fill="#8cc6ff" stroke="#8cc6ff" stroke-width="1.51"></path><path d="M-90,55L-140,204L-35,168Z" fill="#6689a8" stroke="#6689a8" stroke-width="1.51"></path><path d="M-145,-36L-140,204L-90,55Z" fill="#749abd" stroke="#749abd" stroke-width="1.51"></path><path d="M-140,204L-94,297L-35,168Z" fill="#6184a3" stroke="#6184a3" stroke-width="1.51"></path><path d="M3,282L-94,297L73,285Z" fill="#6184a3" stroke="#6184a3" stroke-width="1.51"></path><path d="M73,285L-94,297L270,291Z" fill="#51687b" stroke="#51687b" stroke-width="1.51"></path></svg>