<svg width="300" height="176" xmlns="http://www.w3.org/2000/svg"><path d="M122,101L142,145L219,87Z" fill="#4f5f67" stroke="#4f5f67" stroke-width="1.51"></path><path d="M142,145L220,203L219,87Z" fill="#4b5b63" stroke="#4b5b63" stroke-width="1.51"></path><path d="M122,101L37,171L142,145Z" fill="#536571" stroke="#536571" stroke-width="1.51"></path><path d="M158,-18L56,74L122,101Z" fill="#596e7c" stroke="#596e7c" stroke-width="1.51"></path><path d="M219,87L158,-18L122,101Z" fill="#556772" stroke="#556772" stroke-width="1.51"></path><path d="M325,23L256,-17L219,87Z" fill="#536876" stroke="#536876" stroke-width="1.51"></path><path d="M151,292L222,238L220,203Z" fill="#46565e" stroke="#46565e" stroke-width="1.51"></path><path d="M151,292L220,203L142,145Z" fill="#485860" stroke="#485860" stroke-width="1.51"></path><path d="M219,87L256,-17L158,-18Z" fill="#586d7d" stroke="#586d7d" stroke-width="1.51"></path><path d="M322,168L219,87L220,203Z" fill="#485860" stroke="#485860" stroke-width="1.51"></path><path d="M56,74L37,171L122,101Z" fill="#576b79" stroke="#576b79" stroke-width="1.51"></path><path d="M222,238L322,168L220,203Z" fill="#46565e" stroke="#46565e" stroke-width="1.51"></path><path d="M322,168L336,93L219,87Z" fill="#495961" stroke="#495961" stroke-width="1.51"></path><path d="M56,74L2,81L37,171Z" fill="#5c7282" stroke="#5c7282" stroke-width="1.51"></path><path d="M158,-18L73,-35L56,74Z" fill="#627a8e" stroke="#627a8e" stroke-width="1.51"></path><path d="M71,-70L73,-35L158,-18Z" fill="#67849d" stroke="#67849d" stroke-width="1.51"></path><path d="M-31,20L2,81L56,74Z" fill="#637d92" stroke="#637d92" stroke-width="1.51"></path><path d="M336,93L325,23L219,87Z" fill="#4e5f69" stroke="#4e5f69" stroke-width="1.51"></path><path d="M37,171L60,256L142,145Z" fill="#526572" stroke="#526572" stroke-width="1.51"></path><path d="M-63,204L60,256L37,171Z" fill="#576f80" stroke="#576f80" stroke-width="1.51"></path><path d="M222,238L342,273L322,168Z" fill="#43535b" stroke="#43535b" stroke-width="1.51"></path><path d="M60,256L151,292L142,145Z" fill="#4b5d67" stroke="#4b5d67" stroke-width="1.51"></path><path d="M333,-59L260,-66L256,-17Z" fill="#5d788d" stroke="#5d788d" stroke-width="1.51"></path><path d="M256,-17L260,-66L158,-18Z" fill="#5f788c" stroke="#5f788c" stroke-width="1.51"></path><path d="M260,-66L171,-97L158,-18Z" fill="#637f96" stroke="#637f96" stroke-width="1.51"></path><path d="M171,-97L71,-70L158,-18Z" fill="#67849c" stroke="#67849c" stroke-width="1.51"></path><path d="M73,-35L-31,20L56,74Z" fill="#668199" stroke="#668199" stroke-width="1.51"></path><path d="M-40,-80L-31,20L73,-35Z" fill="#7092b1" stroke="#7092b1" stroke-width="1.51"></path><path d="M2,81L-63,204L37,171Z" fill="#5c7588" stroke="#5c7588" stroke-width="1.51"></path><path d="M260,-66L452,-92L171,-97Z" fill="#628099" stroke="#628099" stroke-width="1.51"></path><path d="M325,23L333,-59L256,-17Z" fill="#587183" stroke="#587183" stroke-width="1.51"></path><path d="M402,2L333,-59L325,23Z" fill="#566d7f" stroke="#566d7f" stroke-width="1.51"></path><path d="M336,93L402,2L325,23Z" fill="#4f636f" stroke="#4f636f" stroke-width="1.51"></path><path d="M406,155L403,100L336,93Z" fill="#46565e" stroke="#46565e" stroke-width="1.51"></path><path d="M322,168L406,155L336,93Z" fill="#45555d" stroke="#45555d" stroke-width="1.51"></path><path d="M151,292L342,273L222,238Z" fill="#43535b" stroke="#43535b" stroke-width="1.51"></path><path d="M408,242L406,155L322,168Z" fill="#415159" stroke="#415159" stroke-width="1.51"></path><path d="M403,100L402,2L336,93Z" fill="#4a5c66" stroke="#4a5c66" stroke-width="1.51"></path><path d="M452,-92L402,2L403,100Z" fill="#516778" stroke="#516778" stroke-width="1.51"></path><path d="M-139,156L-63,204L2,81Z" fill="#627e96" stroke="#627e96" stroke-width="1.51"></path><path d="M342,273L408,242L322,168Z" fill="#405058" stroke="#405058" stroke-width="1.51"></path><path d="M-63,204L-24,299L60,256Z" fill="#566f83" stroke="#566f83" stroke-width="1.51"></path><path d="M60,256L-24,299L151,292Z" fill="#4e6270" stroke="#4e6270" stroke-width="1.51"></path><path d="M-145,92L-139,156L2,81Z" fill="#67859f" stroke="#67859f" stroke-width="1.51"></path><path d="M71,-70L-40,-80L73,-35Z" fill="#7093b3" stroke="#7093b3" stroke-width="1.51"></path><path d="M171,-97L-40,-80L71,-70Z" fill="#7093b2" stroke="#7093b2" stroke-width="1.51"></path><path d="M-63,204L-112,282L-24,299Z" fill="#5b788f" stroke="#5b788f" stroke-width="1.51"></path><path d="M-145,92L2,81L-31,20Z" fill="#6886a0" stroke="#6886a0" stroke-width="1.51"></path><path d="M-40,-80L-116,-25L-31,20Z" fill="#759cc0" stroke="#759cc0" stroke-width="1.51"></path><path d="M-116,-25L-145,92L-31,20Z" fill="#7194b5" stroke="#7194b5" stroke-width="1.51"></path><path d="M-139,156L-112,282L-63,204Z" fill="#61809b" stroke="#61809b" stroke-width="1.51"></path><path d="M402,2L452,-92L333,-59Z" fill="#59748a" stroke="#59748a" stroke-width="1.51"></path><path d="M333,-59L452,-92L260,-66Z" fill="#5e7b93" stroke="#5e7b93" stroke-width="1.51"></path><path d="M406,155L452,-92L403,100Z" fill="#4a5d68" stroke="#4a5d68" stroke-width="1.51"></path><path d="M408,242L452,-92L406,155Z" fill="#44545c" stroke="#44545c" stroke-width="1.51"></path><path d="M-116,-25L-144,-81L-145,92Z" fill="#79a2c9" stroke="#79a2c9" stroke-width="1.51"></path><path d="M-40,-80L-144,-81L-116,-25Z" fill="#7da9d4" stroke="#7da9d4" stroke-width="1.51"></path><path d="M171,-97L-144,-81L-40,-80Z" fill="#779fc5" stroke="#779fc5" stroke-width="1.51"></path></svg>