<svg width="300" height="176" xmlns="http://www.w3.org/2000/svg"><path d="M173,62L253,-3L157,16Z" fill="#637f98" stroke="#637f98" stroke-width="1.51"></path><path d="M173,62L241,97L253,-3Z" fill="#576e7f" stroke="#576e7f" stroke-width="1.51"></path><path d="M253,-3L166,-119L157,16Z" fill="#6b8ead" stroke="#6b8ead" stroke-width="1.51"></path><path d="M253,-3L348,8L262,-94Z" fill="#6285a4" stroke="#6285a4" stroke-width="1.51"></path><path d="M335,109L348,8L253,-3Z" fill="#546f83" stroke="#546f83" stroke-width="1.51"></path><path d="M241,97L335,109L253,-3Z" fill="#4d616e" stroke="#4d616e" stroke-width="1.51"></path><path d="M173,62L216,166L241,97Z" fill="#485860" stroke="#485860" stroke-width="1.51"></path><path d="M262,-94L166,-119L253,-3Z" fill="#678aa9" stroke="#678aa9" stroke-width="1.51"></path><path d="M216,166L335,109L241,97Z" fill="#415159" stroke="#415159" stroke-width="1.51"></path><path d="M80,167L157,183L173,62Z" fill="#4c5d67" stroke="#4c5d67" stroke-width="1.51"></path><path d="M173,62L157,183L216,166Z" fill="#46565e" stroke="#46565e" stroke-width="1.51"></path><path d="M157,16L47,107L173,62Z" fill="#5f7789" stroke="#5f7789" stroke-width="1.51"></path><path d="M166,-119L41,-33L157,16Z" fill="#759bc0" stroke="#759bc0" stroke-width="1.51"></path><path d="M41,-33L47,107L157,16Z" fill="#7397b9" stroke="#7397b9" stroke-width="1.51"></path><path d="M348,8L337,-121L262,-94Z" fill="#6184a3" stroke="#6184a3" stroke-width="1.51"></path><path d="M406,58L393,-30L348,8Z" fill="#5d7d98" stroke="#5d7d98" stroke-width="1.51"></path><path d="M47,107L80,167L173,62Z" fill="#576d7c" stroke="#576d7c" stroke-width="1.51"></path><path d="M393,-30L337,-121L348,8Z" fill="#6184a3" stroke="#6184a3" stroke-width="1.51"></path><path d="M262,-94L337,-121L166,-119Z" fill="#6588a7" stroke="#6588a7" stroke-width="1.51"></path><path d="M335,109L406,58L348,8Z" fill="#4e6473" stroke="#4e6473" stroke-width="1.51"></path><path d="M166,-119L42,-107L41,-33Z" fill="#7ca9d3" stroke="#7ca9d3" stroke-width="1.51"></path><path d="M335,109L407,198L406,58Z" fill="#3f4f57" stroke="#3f4f57" stroke-width="1.51"></path><path d="M216,166L318,211L335,109Z" fill="#3a4a52" stroke="#3a4a52" stroke-width="1.51"></path><path d="M228,251L318,211L216,166Z" fill="#3b4b53" stroke="#3b4b53" stroke-width="1.51"></path><path d="M157,183L161,239L216,166Z" fill="#415159" stroke="#415159" stroke-width="1.51"></path><path d="M80,167L161,239L157,183Z" fill="#475964" stroke="#475964" stroke-width="1.51"></path><path d="M161,239L228,251L216,166Z" fill="#3f4f57" stroke="#3f4f57" stroke-width="1.51"></path><path d="M-59,-9L-28,54L41,-33Z" fill="#8ac3fb" stroke="#8ac3fb" stroke-width="1.51"></path><path d="M41,-33L-28,54L47,107Z" fill="#7aa5ce" stroke="#7aa5ce" stroke-width="1.51"></path><path d="M47,107L-17,170L80,167Z" fill="#5e7c95" stroke="#5e7c95" stroke-width="1.51"></path><path d="M318,211L407,198L335,109Z" fill="#37474f" stroke="#37474f" stroke-width="1.51"></path><path d="M228,251L328,238L318,211Z" fill="#37474f" stroke="#37474f" stroke-width="1.51"></path><path d="M42,-107L-7,-96L41,-33Z" fill="#87bdf1" stroke="#87bdf1" stroke-width="1.51"></path><path d="M393,-30L411,-126L337,-121Z" fill="#6184a3" stroke="#6184a3" stroke-width="1.51"></path><path d="M337,-121L411,-126L166,-119Z" fill="#6184a3" stroke="#6184a3" stroke-width="1.51"></path><path d="M406,58L411,-126L393,-30Z" fill="#6184a3" stroke="#6184a3" stroke-width="1.51"></path><path d="M406,58L432,245L411,-126Z" fill="#4d6372" stroke="#4d6372" stroke-width="1.51"></path><path d="M328,238L407,198L318,211Z" fill="#37474f" stroke="#37474f" stroke-width="1.51"></path><path d="M-28,54L-17,170L47,107Z" fill="#6b8ead" stroke="#6b8ead" stroke-width="1.51"></path><path d="M80,167L39,286L161,239Z" fill="#4f6676" stroke="#4f6676" stroke-width="1.51"></path><path d="M-7,-96L-59,-9L41,-33Z" fill="#8cc6ff" stroke="#8cc6ff" stroke-width="1.51"></path><path d="M-28,54L-120,106L-17,170Z" fill="#6b8ead" stroke="#6b8ead" stroke-width="1.51"></path><path d="M-126,-90L-95,21L-59,-9Z" fill="#8cc6ff" stroke="#8cc6ff" stroke-width="1.51"></path><path d="M-59,-9L-95,21L-28,54Z" fill="#85b9eb" stroke="#85b9eb" stroke-width="1.51"></path><path d="M-40,282L39,286L-17,170Z" fill="#6184a3" stroke="#6184a3" stroke-width="1.51"></path><path d="M-17,170L39,286L80,167Z" fill="#5a7892" stroke="#5a7892" stroke-width="1.51"></path><path d="M161,239L39,286L228,251Z" fill="#45565f" stroke="#45565f" stroke-width="1.51"></path><path d="M228,251L432,245L328,238Z" fill="#37474f" stroke="#37474f" stroke-width="1.51"></path><path d="M328,238L432,245L407,198Z" fill="#37474f" stroke="#37474f" stroke-width="1.51"></path><path d="M407,198L432,245L406,58Z" fill="#384850" stroke="#384850" stroke-width="1.51"></path><path d="M39,286L432,245L228,251Z" fill="#3c4c54" stroke="#3c4c54" stroke-width="1.51"></path><path d="M-95,21L-120,106L-28,54Z" fill="#78a2c9" stroke="#78a2c9" stroke-width="1.51"></path><path d="M-95,21L-126,-90L-120,106Z" fill="#88bef4" stroke="#88bef4" stroke-width="1.51"></path><path d="M-7,-96L-126,-90L-59,-9Z" fill="#8cc6ff" stroke="#8cc6ff" stroke-width="1.51"></path><path d="M42,-107L-126,-90L-7,-96Z" fill="#8cc6ff" stroke="#8cc6ff" stroke-width="1.51"></path><path d="M-120,106L-107,191L-17,170Z" fill="#6487a6" stroke="#6487a6" stroke-width="1.51"></path><path d="M-107,191L-40,282L-17,170Z" fill="#6184a3" stroke="#6184a3" stroke-width="1.51"></path><path d="M-107,191L-105,274L-40,282Z" fill="#6184a3" stroke="#6184a3" stroke-width="1.51"></path><path d="M-120,106L-105,274L-107,191Z" fill="#6184a3" stroke="#6184a3" stroke-width="1.51"></path></svg>