<svg width="300" height="176" xmlns="http://www.w3.org/2000/svg"><path d="M-46,-87L51,-89L216,-122Z" fill="#85959d" stroke="#85959d" stroke-width="1.51"></path><path d="M394,-115L331,-71L434,-7Z" fill="#67777f" stroke="#67777f" stroke-width="1.51"></path><path d="M331,-71L329,0L434,-7Z" fill="#607078" stroke="#607078" stroke-width="1.51"></path><path d="M329,0L422,82L434,-7Z" fill="#54646c" stroke="#54646c" stroke-width="1.51"></path><path d="M422,82L413,162L434,-7Z" fill="#47575f" stroke="#47575f" stroke-width="1.51"></path><path d="M300,174L394,271L413,162Z" fill="#415159" stroke="#415159" stroke-width="1.51"></path><path d="M311,64L300,174L413,162Z" fill="#46565e" stroke="#46565e" stroke-width="1.51"></path><path d="M311,64L413,162L422,82Z" fill="#46565e" stroke="#46565e" stroke-width="1.51"></path><path d="M329,0L311,64L422,82Z" fill="#516169" stroke="#516169" stroke-width="1.51"></path><path d="M216,-122L331,-71L394,-115Z" fill="#73838b" stroke="#73838b" stroke-width="1.51"></path><path d="M300,174L297,287L394,271Z" fill="#405058" stroke="#405058" stroke-width="1.51"></path><path d="M158,237L48,301L297,287Z" fill="#45555d" stroke="#45555d" stroke-width="1.51"></path><path d="M259,250L297,287L300,174Z" fill="#43535b" stroke="#43535b" stroke-width="1.51"></path><path d="M259,186L259,250L300,174Z" fill="#45555d" stroke="#45555d" stroke-width="1.51"></path><path d="M220,60L300,174L311,64Z" fill="#4b5b63" stroke="#4b5b63" stroke-width="1.51"></path><path d="M234,9L311,64L329,0Z" fill="#586870" stroke="#586870" stroke-width="1.51"></path><path d="M234,9L329,0L331,-71Z" fill="#62727a" stroke="#62727a" stroke-width="1.51"></path><path d="M216,-122L234,9L331,-71Z" fill="#6c7c85" stroke="#6c7c85" stroke-width="1.51"></path><path d="M220,60L259,186L300,174Z" fill="#495961" stroke="#495961" stroke-width="1.51"></path><path d="M259,250L158,237L297,287Z" fill="#43535b" stroke="#43535b" stroke-width="1.51"></path><path d="M234,9L220,60L311,64Z" fill="#56666e" stroke="#56666e" stroke-width="1.51"></path><path d="M51,-89L141,-88L216,-122Z" fill="#7b8b94" stroke="#7b8b94" stroke-width="1.51"></path><path d="M216,-122L141,-88L234,9Z" fill="#708088" stroke="#708088" stroke-width="1.51"></path><path d="M220,60L174,58L259,186Z" fill="#4d5d65" stroke="#4d5d65" stroke-width="1.51"></path><path d="M174,58L120,182L259,186Z" fill="#4c5c64" stroke="#4c5c64" stroke-width="1.51"></path><path d="M120,182L158,237L259,186Z" fill="#495961" stroke="#495961" stroke-width="1.51"></path><path d="M259,186L158,237L259,250Z" fill="#46565e" stroke="#46565e" stroke-width="1.51"></path><path d="M174,58L220,60L234,9Z" fill="#586870" stroke="#586870" stroke-width="1.51"></path><path d="M121,-12L174,58L234,9Z" fill="#5f6f77" stroke="#5f6f77" stroke-width="1.51"></path><path d="M141,-88L121,-12L234,9Z" fill="#697a82" stroke="#697a82" stroke-width="1.51"></path><path d="M121,-12L37,116L174,58Z" fill="#5e6e76" stroke="#5e6e76" stroke-width="1.51"></path><path d="M37,116L120,182L174,58Z" fill="#55656d" stroke="#55656d" stroke-width="1.51"></path><path d="M27,8L37,116L121,-12Z" fill="#697981" stroke="#697981" stroke-width="1.51"></path><path d="M120,182L56,204L158,237Z" fill="#506068" stroke="#506068" stroke-width="1.51"></path><path d="M56,204L48,301L158,237Z" fill="#516169" stroke="#516169" stroke-width="1.51"></path><path d="M51,-89L121,-12L141,-88Z" fill="#798991" stroke="#798991" stroke-width="1.51"></path><path d="M-53,283L-103,299L48,301Z" fill="#617179" stroke="#617179" stroke-width="1.51"></path><path d="M37,116L56,204L120,182Z" fill="#586870" stroke="#586870" stroke-width="1.51"></path><path d="M51,-89L27,8L121,-12Z" fill="#778890" stroke="#778890" stroke-width="1.51"></path><path d="M27,8L-54,107L37,116Z" fill="#6a7a82" stroke="#6a7a82" stroke-width="1.51"></path><path d="M-33,-4L27,8L51,-89Z" fill="#7f8f97" stroke="#7f8f97" stroke-width="1.51"></path><path d="M-46,-87L-33,-4L51,-89Z" fill="#8a9aa2" stroke="#8a9aa2" stroke-width="1.51"></path><path d="M37,116L-17,144L56,204Z" fill="#607078" stroke="#607078" stroke-width="1.51"></path><path d="M-53,283L48,301L56,204Z" fill="#5b6b73" stroke="#5b6b73" stroke-width="1.51"></path><path d="M-17,144L-53,283L56,204Z" fill="#617179" stroke="#617179" stroke-width="1.51"></path><path d="M-33,-4L-54,107L27,8Z" fill="#76868e" stroke="#76868e" stroke-width="1.51"></path><path d="M-54,107L-17,144L37,116Z" fill="#67777f" stroke="#67777f" stroke-width="1.51"></path><path d="M-135,-18L-54,107L-33,-4Z" fill="#809199" stroke="#809199" stroke-width="1.51"></path><path d="M-110,151L-53,283L-17,144Z" fill="#6b7b83" stroke="#6b7b83" stroke-width="1.51"></path><path d="M-54,107L-110,151L-17,144Z" fill="#6f7f87" stroke="#6f7f87" stroke-width="1.51"></path><path d="M-135,-18L-129,121L-54,107Z" fill="#7d8d95" stroke="#7d8d95" stroke-width="1.51"></path><path d="M-110,151L-103,299L-53,283Z" fill="#6c7c84" stroke="#6c7c84" stroke-width="1.51"></path><path d="M-138,-63L-135,-18L-46,-87Z" fill="#99a9b1" stroke="#99a9b1" stroke-width="1.51"></path><path d="M-46,-87L-135,-18L-33,-4Z" fill="#8f9fa7" stroke="#8f9fa7" stroke-width="1.51"></path><path d="M-129,121L-110,151L-54,107Z" fill="#74848c" stroke="#74848c" stroke-width="1.51"></path><path d="M-110,151L-129,121L-103,299Z" fill="#73838b" stroke="#73838b" stroke-width="1.51"></path><path d="M-135,-18L-138,-63L-129,121Z" fill="#8d9ea6" stroke="#8d9ea6" stroke-width="1.51"></path></svg>