<svg width="300" height="176" xmlns="http://www.w3.org/2000/svg"><path d="M122,64L61,88L73,156Z" fill="#5c7485" stroke="#5c7485" stroke-width="1.51"></path><path d="M73,156L171,150L122,64Z" fill="#516470" stroke="#516470" stroke-width="1.51"></path><path d="M61,88L1,81L73,156Z" fill="#637f98" stroke="#637f98" stroke-width="1.51"></path><path d="M47,-17L1,81L61,88Z" fill="#759bbf" stroke="#759bbf" stroke-width="1.51"></path><path d="M241,21L131,-26L122,64Z" fill="#67859f" stroke="#67859f" stroke-width="1.51"></path><path d="M142,273L221,196L171,150Z" fill="#415159" stroke="#415159" stroke-width="1.51"></path><path d="M122,64L47,-17L61,88Z" fill="#6f91af" stroke="#6f91af" stroke-width="1.51"></path><path d="M255,57L122,64L171,150Z" fill="#4d5d65" stroke="#4d5d65" stroke-width="1.51"></path><path d="M73,156L81,257L171,150Z" fill="#4c616f" stroke="#4c616f" stroke-width="1.51"></path><path d="M-58,187L81,257L73,156Z" fill="#5b7993" stroke="#5b7993" stroke-width="1.51"></path><path d="M131,-26L47,-17L122,64Z" fill="#769fc4" stroke="#769fc4" stroke-width="1.51"></path><path d="M221,196L255,57L171,150Z" fill="#44545c" stroke="#44545c" stroke-width="1.51"></path><path d="M81,257L142,273L171,150Z" fill="#485a64" stroke="#485a64" stroke-width="1.51"></path><path d="M255,57L241,21L122,64Z" fill="#5a7284" stroke="#5a7284" stroke-width="1.51"></path><path d="M47,-17L-9,-2L1,81Z" fill="#83b5e5" stroke="#83b5e5" stroke-width="1.51"></path><path d="M-123,174L-58,187L-136,55Z" fill="#678aa9" stroke="#678aa9" stroke-width="1.51"></path><path d="M1,81L-58,187L73,156Z" fill="#6587a5" stroke="#6587a5" stroke-width="1.51"></path><path d="M47,-17L34,-87L-9,-2Z" fill="#88bdf2" stroke="#88bdf2" stroke-width="1.51"></path><path d="M131,-26L132,-68L47,-17Z" fill="#78a2c9" stroke="#78a2c9" stroke-width="1.51"></path><path d="M256,-84L132,-68L131,-26Z" fill="#6d90af" stroke="#6d90af" stroke-width="1.51"></path><path d="M132,-68L34,-87L47,-17Z" fill="#7fadd9" stroke="#7fadd9" stroke-width="1.51"></path><path d="M338,105L304,9L255,57Z" fill="#4e6474" stroke="#4e6474" stroke-width="1.51"></path><path d="M142,273L217,300L221,196Z" fill="#405058" stroke="#405058" stroke-width="1.51"></path><path d="M-130,258L217,300L142,273Z" fill="#526b7e" stroke="#526b7e" stroke-width="1.51"></path><path d="M-58,187L-61,250L81,257Z" fill="#6184a3" stroke="#6184a3" stroke-width="1.51"></path><path d="M81,257L-61,250L142,273Z" fill="#567288" stroke="#567288" stroke-width="1.51"></path><path d="M241,21L256,-84L131,-26Z" fill="#6a8cac" stroke="#6a8cac" stroke-width="1.51"></path><path d="M255,57L304,9L241,21Z" fill="#5b778e" stroke="#5b778e" stroke-width="1.51"></path><path d="M338,105L255,57L221,196Z" fill="#42525a" stroke="#42525a" stroke-width="1.51"></path><path d="M348,160L338,105L221,196Z" fill="#3a4a52" stroke="#3a4a52" stroke-width="1.51"></path><path d="M-58,187L-123,174L-61,250Z" fill="#6184a3" stroke="#6184a3" stroke-width="1.51"></path><path d="M-136,55L-58,187L1,81Z" fill="#6c8fae" stroke="#6c8fae" stroke-width="1.51"></path><path d="M-136,55L1,81L-9,-2Z" fill="#7eabd7" stroke="#7eabd7" stroke-width="1.51"></path><path d="M217,300L311,245L221,196Z" fill="#3b4b53" stroke="#3b4b53" stroke-width="1.51"></path><path d="M311,245L348,160L221,196Z" fill="#37474f" stroke="#37474f" stroke-width="1.51"></path><path d="M34,-87L-57,-71L-9,-2Z" fill="#8cc6ff" stroke="#8cc6ff" stroke-width="1.51"></path><path d="M304,9L256,-84L241,21Z" fill="#6487a6" stroke="#6487a6" stroke-width="1.51"></path><path d="M132,-68L256,-84L34,-87Z" fill="#7195b6" stroke="#7195b6" stroke-width="1.51"></path><path d="M-149,27L-136,55L-9,-2Z" fill="#84b6e7" stroke="#84b6e7" stroke-width="1.51"></path><path d="M-57,-71L-93,-67L-9,-2Z" fill="#8cc6ff" stroke="#8cc6ff" stroke-width="1.51"></path><path d="M34,-87L-93,-67L-57,-71Z" fill="#8cc6ff" stroke="#8cc6ff" stroke-width="1.51"></path><path d="M-93,-67L-149,27L-9,-2Z" fill="#8cc6ff" stroke="#8cc6ff" stroke-width="1.51"></path><path d="M-136,55L-149,27L-123,174Z" fill="#7093b3" stroke="#7093b3" stroke-width="1.51"></path><path d="M-123,174L-130,258L-61,250Z" fill="#6184a3" stroke="#6184a3" stroke-width="1.51"></path><path d="M-61,250L-130,258L142,273Z" fill="#6184a3" stroke="#6184a3" stroke-width="1.51"></path><path d="M-149,27L-130,258L-123,174Z" fill="#6588a7" stroke="#6588a7" stroke-width="1.51"></path><path d="M304,9L344,-85L256,-84Z" fill="#6184a3" stroke="#6184a3" stroke-width="1.51"></path><path d="M256,-84L445,-125L34,-87Z" fill="#6689a8" stroke="#6689a8" stroke-width="1.51"></path><path d="M404,21L344,-85L304,9Z" fill="#6184a3" stroke="#6184a3" stroke-width="1.51"></path><path d="M404,21L304,9L338,105Z" fill="#526b7d" stroke="#526b7d" stroke-width="1.51"></path><path d="M416,59L404,21L338,105Z" fill="#4c6270" stroke="#4c6270" stroke-width="1.51"></path><path d="M430,198L416,59L348,160Z" fill="#3c4c54" stroke="#3c4c54" stroke-width="1.51"></path><path d="M348,160L416,59L338,105Z" fill="#415159" stroke="#415159" stroke-width="1.51"></path><path d="M311,245L430,198L348,160Z" fill="#37474f" stroke="#37474f" stroke-width="1.51"></path><path d="M414,271L430,198L311,245Z" fill="#37474f" stroke="#37474f" stroke-width="1.51"></path><path d="M217,300L414,271L311,245Z" fill="#37474f" stroke="#37474f" stroke-width="1.51"></path><path d="M416,59L445,-125L404,21Z" fill="#6184a3" stroke="#6184a3" stroke-width="1.51"></path><path d="M404,21L445,-125L344,-85Z" fill="#6184a3" stroke="#6184a3" stroke-width="1.51"></path><path d="M344,-85L445,-125L256,-84Z" fill="#6184a3" stroke="#6184a3" stroke-width="1.51"></path><path d="M430,198L445,-125L416,59Z" fill="#526b7e" stroke="#526b7e" stroke-width="1.51"></path></svg>