<svg width="300" height="176" xmlns="http://www.w3.org/2000/svg"><path d="M149,112L214,72L150,-11Z" fill="#546671" stroke="#546671" stroke-width="1.51"></path><path d="M150,-11L74,26L149,112Z" fill="#5a6e7c" stroke="#5a6e7c" stroke-width="1.51"></path><path d="M214,72L238,-2L150,-11Z" fill="#586d7c" stroke="#586d7c" stroke-width="1.51"></path><path d="M74,26L53,72L149,112Z" fill="#596e7b" stroke="#596e7b" stroke-width="1.51"></path><path d="M53,72L67,146L149,112Z" fill="#556875" stroke="#556875" stroke-width="1.51"></path><path d="M150,-11L80,-113L74,26Z" fill="#66839b" stroke="#66839b" stroke-width="1.51"></path><path d="M214,-81L183,-86L150,-11Z" fill="#637f96" stroke="#637f96" stroke-width="1.51"></path><path d="M149,112L211,210L214,72Z" fill="#4d5d65" stroke="#4d5d65" stroke-width="1.51"></path><path d="M67,146L157,190L149,112Z" fill="#50616b" stroke="#50616b" stroke-width="1.51"></path><path d="M238,-2L214,-81L150,-11Z" fill="#5f788c" stroke="#5f788c" stroke-width="1.51"></path><path d="M157,190L211,210L149,112Z" fill="#4b5b63" stroke="#4b5b63" stroke-width="1.51"></path><path d="M214,72L348,64L238,-2Z" fill="#526571" stroke="#526571" stroke-width="1.51"></path><path d="M347,-109L80,-113L183,-86Z" fill="#6888a4" stroke="#6888a4" stroke-width="1.51"></path><path d="M183,-86L80,-113L150,-11Z" fill="#67859e" stroke="#67859e" stroke-width="1.51"></path><path d="M74,26L-28,31L53,72Z" fill="#637c91" stroke="#637c91" stroke-width="1.51"></path><path d="M-26,-83L-28,31L74,26Z" fill="#6c8ca8" stroke="#6c8ca8" stroke-width="1.51"></path><path d="M53,72L-36,96L67,146Z" fill="#5c7383" stroke="#5c7383" stroke-width="1.51"></path><path d="M211,210L311,154L214,72Z" fill="#495961" stroke="#495961" stroke-width="1.51"></path><path d="M238,-2L347,-109L214,-81Z" fill="#607c94" stroke="#607c94" stroke-width="1.51"></path><path d="M311,154L348,64L214,72Z" fill="#4a5a62" stroke="#4a5a62" stroke-width="1.51"></path><path d="M348,64L348,29L238,-2Z" fill="#526774" stroke="#526774" stroke-width="1.51"></path><path d="M67,146L91,255L157,190Z" fill="#4f616c" stroke="#4f616c" stroke-width="1.51"></path><path d="M-28,31L-36,96L53,72Z" fill="#637d92" stroke="#637d92" stroke-width="1.51"></path><path d="M-36,96L-30,151L67,146Z" fill="#5d7588" stroke="#5d7588" stroke-width="1.51"></path><path d="M157,190L214,260L211,210Z" fill="#47575f" stroke="#47575f" stroke-width="1.51"></path><path d="M-30,151L91,255L67,146Z" fill="#566c7b" stroke="#566c7b" stroke-width="1.51"></path><path d="M91,255L125,264L157,190Z" fill="#4b5c66" stroke="#4b5c66" stroke-width="1.51"></path><path d="M211,210L214,260L311,154Z" fill="#46565e" stroke="#46565e" stroke-width="1.51"></path><path d="M125,264L214,260L157,190Z" fill="#485860" stroke="#485860" stroke-width="1.51"></path><path d="M-28,31L-91,86L-36,96Z" fill="#67839c" stroke="#67839c" stroke-width="1.51"></path><path d="M80,-113L-26,-83L74,26Z" fill="#6f91b0" stroke="#6f91b0" stroke-width="1.51"></path><path d="M348,64L387,60L348,29Z" fill="#4d606b" stroke="#4d606b" stroke-width="1.51"></path><path d="M348,29L347,-109L238,-2Z" fill="#5a7386" stroke="#5a7386" stroke-width="1.51"></path><path d="M393,176L387,60L348,64Z" fill="#47575f" stroke="#47575f" stroke-width="1.51"></path><path d="M401,-12L347,-109L348,29Z" fill="#587184" stroke="#587184" stroke-width="1.51"></path><path d="M214,-81L347,-109L183,-86Z" fill="#65849e" stroke="#65849e" stroke-width="1.51"></path><path d="M-116,-9L-91,86L-28,31Z" fill="#6e90ae" stroke="#6e90ae" stroke-width="1.51"></path><path d="M-36,96L-91,86L-30,151Z" fill="#637e95" stroke="#637e95" stroke-width="1.51"></path><path d="M387,60L401,-12L348,29Z" fill="#506572" stroke="#506572" stroke-width="1.51"></path><path d="M387,60L393,176L401,-12Z" fill="#495a63" stroke="#495a63" stroke-width="1.51"></path><path d="M311,154L393,176L348,64Z" fill="#46565e" stroke="#46565e" stroke-width="1.51"></path><path d="M357,275L393,176L311,154Z" fill="#42525a" stroke="#42525a" stroke-width="1.51"></path><path d="M-26,-83L-116,-9L-28,31Z" fill="#7399bb" stroke="#7399bb" stroke-width="1.51"></path><path d="M-135,186L-50,258L-30,151Z" fill="#5f7c94" stroke="#5f7c94" stroke-width="1.51"></path><path d="M-30,151L-50,258L91,255Z" fill="#576f81" stroke="#576f81" stroke-width="1.51"></path><path d="M91,255L-50,258L125,264Z" fill="#506574" stroke="#506574" stroke-width="1.51"></path><path d="M-135,186L-30,151L-91,86Z" fill="#65829b" stroke="#65829b" stroke-width="1.51"></path><path d="M80,-113L-117,-72L-26,-83Z" fill="#79a3ca" stroke="#79a3ca" stroke-width="1.51"></path><path d="M-26,-83L-117,-72L-116,-9Z" fill="#7ba6ce" stroke="#7ba6ce" stroke-width="1.51"></path><path d="M-139,279L357,275L125,264Z" fill="#4a5c66" stroke="#4a5c66" stroke-width="1.51"></path><path d="M125,264L357,275L214,260Z" fill="#43535b" stroke="#43535b" stroke-width="1.51"></path><path d="M214,260L357,275L311,154Z" fill="#42525a" stroke="#42525a" stroke-width="1.51"></path><path d="M-117,-72L-135,186L-116,-9Z" fill="#7297b9" stroke="#7297b9" stroke-width="1.51"></path><path d="M-116,-9L-135,186L-91,86Z" fill="#6a8aa5" stroke="#6a8aa5" stroke-width="1.51"></path><path d="M357,275L412,275L393,176Z" fill="#3e4e56" stroke="#3e4e56" stroke-width="1.51"></path><path d="M393,176L449,-125L401,-12Z" fill="#506575" stroke="#506575" stroke-width="1.51"></path><path d="M401,-12L449,-125L347,-109Z" fill="#5c7a93" stroke="#5c7a93" stroke-width="1.51"></path><path d="M347,-109L449,-125L80,-113Z" fill="#6687a3" stroke="#6687a3" stroke-width="1.51"></path><path d="M412,275L449,-125L393,176Z" fill="#45555d" stroke="#45555d" stroke-width="1.51"></path><path d="M-135,186L-139,279L-50,258Z" fill="#607f9a" stroke="#607f9a" stroke-width="1.51"></path><path d="M-50,258L-139,279L125,264Z" fill="#577084" stroke="#577084" stroke-width="1.51"></path><path d="M357,275L-139,279L412,275Z" fill="#43535b" stroke="#43535b" stroke-width="1.51"></path></svg>