<svg width="300" height="176" xmlns="http://www.w3.org/2000/svg"><path d="M126,265L-40,273L233,267Z" fill="#4d5d65" stroke="#4d5d65" stroke-width="1.51"></path><path d="M83,-125L221,-96L309,-114Z" fill="#798a92" stroke="#798a92" stroke-width="1.51"></path><path d="M233,267L-40,273L386,277Z" fill="#44545c" stroke="#44545c" stroke-width="1.51"></path><path d="M312,249L233,267L386,277Z" fill="#405058" stroke="#405058" stroke-width="1.51"></path><path d="M324,121L347,152L387,54Z" fill="#47575f" stroke="#47575f" stroke-width="1.51"></path><path d="M312,249L386,277L402,172Z" fill="#3f4f57" stroke="#3f4f57" stroke-width="1.51"></path><path d="M387,54L347,152L402,172Z" fill="#45555d" stroke="#45555d" stroke-width="1.51"></path><path d="M419,-62L299,-9L425,16Z" fill="#5e6e76" stroke="#5e6e76" stroke-width="1.51"></path><path d="M299,-9L387,54L425,16Z" fill="#56666e" stroke="#56666e" stroke-width="1.51"></path><path d="M387,54L402,172L425,16Z" fill="#485860" stroke="#485860" stroke-width="1.51"></path><path d="M32,260L-40,273L126,265Z" fill="#57676f" stroke="#57676f" stroke-width="1.51"></path><path d="M309,-114L299,-9L419,-62Z" fill="#697981" stroke="#697981" stroke-width="1.51"></path><path d="M347,152L312,249L402,172Z" fill="#42525a" stroke="#42525a" stroke-width="1.51"></path><path d="M299,-9L324,121L387,54Z" fill="#506068" stroke="#506068" stroke-width="1.51"></path><path d="M299,-9L250,66L324,121Z" fill="#516169" stroke="#516169" stroke-width="1.51"></path><path d="M324,121L269,181L347,152Z" fill="#46565e" stroke="#46565e" stroke-width="1.51"></path><path d="M269,181L312,249L347,152Z" fill="#44545c" stroke="#44545c" stroke-width="1.51"></path><path d="M245,-32L299,-9L309,-114Z" fill="#697981" stroke="#697981" stroke-width="1.51"></path><path d="M250,66L269,181L324,121Z" fill="#495961" stroke="#495961" stroke-width="1.51"></path><path d="M221,-96L245,-32L309,-114Z" fill="#718189" stroke="#718189" stroke-width="1.51"></path><path d="M269,181L233,267L312,249Z" fill="#43535b" stroke="#43535b" stroke-width="1.51"></path><path d="M245,-32L250,66L299,-9Z" fill="#5d6d75" stroke="#5d6d75" stroke-width="1.51"></path><path d="M181,54L152,155L250,66Z" fill="#4f5f67" stroke="#4f5f67" stroke-width="1.51"></path><path d="M245,-32L181,54L250,66Z" fill="#5a6a72" stroke="#5a6a72" stroke-width="1.51"></path><path d="M250,66L152,155L269,181Z" fill="#4b5b63" stroke="#4b5b63" stroke-width="1.51"></path><path d="M152,155L233,267L269,181Z" fill="#47575f" stroke="#47575f" stroke-width="1.51"></path><path d="M83,-125L119,-87L221,-96Z" fill="#7c8c94" stroke="#7c8c94" stroke-width="1.51"></path><path d="M152,155L126,265L233,267Z" fill="#485860" stroke="#485860" stroke-width="1.51"></path><path d="M164,-9L181,54L245,-32Z" fill="#617179" stroke="#617179" stroke-width="1.51"></path><path d="M221,-96L164,-9L245,-32Z" fill="#6b7b83" stroke="#6b7b83" stroke-width="1.51"></path><path d="M119,-87L164,-9L221,-96Z" fill="#718189" stroke="#718189" stroke-width="1.51"></path><path d="M-91,-98L-29,-91L83,-125Z" fill="#95a5ad" stroke="#95a5ad" stroke-width="1.51"></path><path d="M74,102L152,155L181,54Z" fill="#52626a" stroke="#52626a" stroke-width="1.51"></path><path d="M164,-9L84,2L181,54Z" fill="#617179" stroke="#617179" stroke-width="1.51"></path><path d="M84,2L74,102L181,54Z" fill="#5e6e76" stroke="#5e6e76" stroke-width="1.51"></path><path d="M45,183L126,265L152,155Z" fill="#516169" stroke="#516169" stroke-width="1.51"></path><path d="M119,-87L84,2L164,-9Z" fill="#6f7f87" stroke="#6f7f87" stroke-width="1.51"></path><path d="M74,102L45,183L152,155Z" fill="#56666e" stroke="#56666e" stroke-width="1.51"></path><path d="M45,183L32,260L126,265Z" fill="#55656d" stroke="#55656d" stroke-width="1.51"></path><path d="M83,-125L84,2L119,-87Z" fill="#7c8c94" stroke="#7c8c94" stroke-width="1.51"></path><path d="M-20,61L74,102L84,2Z" fill="#687880" stroke="#687880" stroke-width="1.51"></path><path d="M-16,10L-20,61L84,2Z" fill="#73838b" stroke="#73838b" stroke-width="1.51"></path><path d="M83,-125L-29,-91L84,2Z" fill="#84949c" stroke="#84949c" stroke-width="1.51"></path><path d="M-29,-91L-16,10L84,2Z" fill="#7f8f97" stroke="#7f8f97" stroke-width="1.51"></path><path d="M-20,61L45,183L74,102Z" fill="#617179" stroke="#617179" stroke-width="1.51"></path><path d="M-63,205L32,260L45,183Z" fill="#5f6f77" stroke="#5f6f77" stroke-width="1.51"></path><path d="M-20,61L-63,205L45,183Z" fill="#66767e" stroke="#66767e" stroke-width="1.51"></path><path d="M-63,205L-40,273L32,260Z" fill="#62727a" stroke="#62727a" stroke-width="1.51"></path><path d="M-141,111L-92,204L-63,205Z" fill="#72828a" stroke="#72828a" stroke-width="1.51"></path><path d="M-91,-98L-118,-23L-29,-91Z" fill="#98a8b0" stroke="#98a8b0" stroke-width="1.51"></path><path d="M-141,111L-63,205L-20,61Z" fill="#71828a" stroke="#71828a" stroke-width="1.51"></path><path d="M-118,-23L-20,61L-16,10Z" fill="#809098" stroke="#809098" stroke-width="1.51"></path><path d="M-29,-91L-118,-23L-16,10Z" fill="#8b9ba4" stroke="#8b9ba4" stroke-width="1.51"></path><path d="M-118,-23L-141,111L-20,61Z" fill="#7f8f97" stroke="#7f8f97" stroke-width="1.51"></path><path d="M-63,205L-109,262L-40,273Z" fill="#697982" stroke="#697982" stroke-width="1.51"></path><path d="M-92,204L-109,262L-63,205Z" fill="#6d7d85" stroke="#6d7d85" stroke-width="1.51"></path><path d="M-141,111L-109,262L-92,204Z" fill="#73838b" stroke="#73838b" stroke-width="1.51"></path></svg>