<svg width="300" height="176" xmlns="http://www.w3.org/2000/svg"><path d="M117,99L45,184L121,156Z" fill="#536672" stroke="#536672" stroke-width="1.51"></path><path d="M117,99L45,66L45,184Z" fill="#586c79" stroke="#586c79" stroke-width="1.51"></path><path d="M45,66L-1,154L45,184Z" fill="#597081" stroke="#597081" stroke-width="1.51"></path><path d="M45,184L45,239L121,156Z" fill="#526775" stroke="#526775" stroke-width="1.51"></path><path d="M-56,234L45,239L45,184Z" fill="#576e80" stroke="#576e80" stroke-width="1.51"></path><path d="M239,70L173,8L117,99Z" fill="#546671" stroke="#546671" stroke-width="1.51"></path><path d="M45,239L139,260L121,156Z" fill="#4e616c" stroke="#4e616c" stroke-width="1.51"></path><path d="M45,66L-61,54L-1,154Z" fill="#60798c" stroke="#60798c" stroke-width="1.51"></path><path d="M-1,154L-56,234L45,184Z" fill="#5a7285" stroke="#5a7285" stroke-width="1.51"></path><path d="M45,66L3,-13L-61,54Z" fill="#67849d" stroke="#67849d" stroke-width="1.51"></path><path d="M74,-34L3,-13L45,66Z" fill="#67839b" stroke="#67839b" stroke-width="1.51"></path><path d="M117,99L74,-34L45,66Z" fill="#5e7587" stroke="#5e7587" stroke-width="1.51"></path><path d="M239,70L117,99L121,156Z" fill="#4f5f67" stroke="#4f5f67" stroke-width="1.51"></path><path d="M-103,200L-56,234L-1,154Z" fill="#5e7990" stroke="#5e7990" stroke-width="1.51"></path><path d="M45,239L-100,241L139,260Z" fill="#546a7b" stroke="#546a7b" stroke-width="1.51"></path><path d="M173,8L74,-34L117,99Z" fill="#5d7383" stroke="#5d7383" stroke-width="1.51"></path><path d="M-61,54L-96,64L-1,154Z" fill="#658097" stroke="#658097" stroke-width="1.51"></path><path d="M-151,3L-96,64L-61,54Z" fill="#7092b2" stroke="#7092b2" stroke-width="1.51"></path><path d="M257,184L239,70L121,156Z" fill="#4b5b63" stroke="#4b5b63" stroke-width="1.51"></path><path d="M-96,64L-103,200L-1,154Z" fill="#637f97" stroke="#637f97" stroke-width="1.51"></path><path d="M139,260L257,184L121,156Z" fill="#495961" stroke="#495961" stroke-width="1.51"></path><path d="M-103,200L-100,241L-56,234Z" fill="#5f7d96" stroke="#5f7d96" stroke-width="1.51"></path><path d="M-56,234L-100,241L45,239Z" fill="#5a748a" stroke="#5a748a" stroke-width="1.51"></path><path d="M3,-13L-21,-68L-61,54Z" fill="#6f91b0" stroke="#6f91b0" stroke-width="1.51"></path><path d="M74,-34L72,-75L3,-13Z" fill="#6c8ca9" stroke="#6c8ca9" stroke-width="1.51"></path><path d="M171,-95L72,-75L74,-34Z" fill="#6a89a5" stroke="#6a89a5" stroke-width="1.51"></path><path d="M139,260L245,246L257,184Z" fill="#46565e" stroke="#46565e" stroke-width="1.51"></path><path d="M72,-75L-21,-68L3,-13Z" fill="#7094b4" stroke="#7094b4" stroke-width="1.51"></path><path d="M173,8L171,-95L74,-34Z" fill="#637e94" stroke="#637e94" stroke-width="1.51"></path><path d="M239,70L237,-17L173,8Z" fill="#576c7b" stroke="#576c7b" stroke-width="1.51"></path><path d="M307,18L237,-17L239,70Z" fill="#556a78" stroke="#556a78" stroke-width="1.51"></path><path d="M257,184L319,121L239,70Z" fill="#4a5a62" stroke="#4a5a62" stroke-width="1.51"></path><path d="M245,246L301,176L257,184Z" fill="#45555d" stroke="#45555d" stroke-width="1.51"></path><path d="M72,-75L-93,-90L-21,-68Z" fill="#779fc4" stroke="#779fc4" stroke-width="1.51"></path><path d="M237,-17L171,-95L173,8Z" fill="#60798d" stroke="#60798d" stroke-width="1.51"></path><path d="M301,176L319,121L257,184Z" fill="#46565f" stroke="#46565f" stroke-width="1.51"></path><path d="M-96,64L-151,3L-103,200Z" fill="#6b8aa6" stroke="#6b8aa6" stroke-width="1.51"></path><path d="M-103,200L-151,3L-100,241Z" fill="#6787a2" stroke="#6787a2" stroke-width="1.51"></path><path d="M-93,-90L-151,3L-61,54Z" fill="#779ec3" stroke="#779ec3" stroke-width="1.51"></path><path d="M319,121L307,18L239,70Z" fill="#4d5f68" stroke="#4d5f68" stroke-width="1.51"></path><path d="M237,-17L267,-63L171,-95Z" fill="#627d94" stroke="#627d94" stroke-width="1.51"></path><path d="M301,176L406,150L319,121Z" fill="#45555d" stroke="#45555d" stroke-width="1.51"></path><path d="M245,246L301,272L301,176Z" fill="#43535b" stroke="#43535b" stroke-width="1.51"></path><path d="M139,260L301,272L245,246Z" fill="#43535b" stroke="#43535b" stroke-width="1.51"></path><path d="M171,-95L-93,-90L72,-75Z" fill="#7297b8" stroke="#7297b8" stroke-width="1.51"></path><path d="M-21,-68L-93,-90L-61,54Z" fill="#769cc1" stroke="#769cc1" stroke-width="1.51"></path><path d="M307,18L267,-63L237,-17Z" fill="#5a7386" stroke="#5a7386" stroke-width="1.51"></path><path d="M307,18L296,-67L267,-63Z" fill="#5c768a" stroke="#5c768a" stroke-width="1.51"></path><path d="M267,-63L296,-67L171,-95Z" fill="#638098" stroke="#638098" stroke-width="1.51"></path><path d="M424,248L406,150L301,176Z" fill="#415159" stroke="#415159" stroke-width="1.51"></path><path d="M319,121L415,28L307,18Z" fill="#4d606b" stroke="#4d606b" stroke-width="1.51"></path><path d="M307,18L415,28L296,-67Z" fill="#566d7e" stroke="#566d7e" stroke-width="1.51"></path><path d="M439,80L415,28L319,121Z" fill="#485962" stroke="#485962" stroke-width="1.51"></path><path d="M406,150L439,80L319,121Z" fill="#45555d" stroke="#45555d" stroke-width="1.51"></path><path d="M406,150L424,248L439,80Z" fill="#415159" stroke="#415159" stroke-width="1.51"></path><path d="M301,272L424,248L301,176Z" fill="#405058" stroke="#405058" stroke-width="1.51"></path><path d="M439,80L450,-116L415,28Z" fill="#506879" stroke="#506879" stroke-width="1.51"></path><path d="M415,28L450,-116L296,-67Z" fill="#59748a" stroke="#59748a" stroke-width="1.51"></path><path d="M296,-67L450,-116L171,-95Z" fill="#62819b" stroke="#62819b" stroke-width="1.51"></path><path d="M171,-95L450,-116L-93,-90Z" fill="#6989a4" stroke="#6989a4" stroke-width="1.51"></path></svg>