<svg width="300" height="176" xmlns="http://www.w3.org/2000/svg"><path d="M154,113L87,190L129,193Z" fill="#4f606a" stroke="#4f606a" stroke-width="1.51"></path><path d="M154,113L53,90L87,190Z" fill="#536672" stroke="#536672" stroke-width="1.51"></path><path d="M129,193L210,210L154,113Z" fill="#4b5b63" stroke="#4b5b63" stroke-width="1.51"></path><path d="M145,288L210,210L129,193Z" fill="#485860" stroke="#485860" stroke-width="1.51"></path><path d="M87,190L52,249L129,193Z" fill="#50636f" stroke="#50636f" stroke-width="1.51"></path><path d="M-14,268L52,249L-57,205Z" fill="#576f83" stroke="#576f83" stroke-width="1.51"></path><path d="M154,113L129,0L53,90Z" fill="#586b78" stroke="#586b78" stroke-width="1.51"></path><path d="M219,-13L129,0L154,113Z" fill="#586c79" stroke="#586c79" stroke-width="1.51"></path><path d="M52,249L145,288L129,193Z" fill="#4c5e69" stroke="#4c5e69" stroke-width="1.51"></path><path d="M210,210L261,109L154,113Z" fill="#4b5b63" stroke="#4b5b63" stroke-width="1.51"></path><path d="M129,0L87,-28L53,90Z" fill="#60788b" stroke="#60788b" stroke-width="1.51"></path><path d="M346,162L318,98L261,109Z" fill="#485860" stroke="#485860" stroke-width="1.51"></path><path d="M145,288L238,266L210,210Z" fill="#45555d" stroke="#45555d" stroke-width="1.51"></path><path d="M52,249L-14,268L145,288Z" fill="#4f6372" stroke="#4f6372" stroke-width="1.51"></path><path d="M-57,205L52,249L87,190Z" fill="#556c7d" stroke="#556c7d" stroke-width="1.51"></path><path d="M-57,205L87,190L53,90Z" fill="#586f7f" stroke="#586f7f" stroke-width="1.51"></path><path d="M-64,85L-57,205L53,90Z" fill="#5f798d" stroke="#5f798d" stroke-width="1.51"></path><path d="M-33,10L-64,85L53,90Z" fill="#658096" stroke="#658096" stroke-width="1.51"></path><path d="M261,109L219,-13L154,113Z" fill="#51626c" stroke="#51626c" stroke-width="1.51"></path><path d="M129,0L174,-89L87,-28Z" fill="#647f96" stroke="#647f96" stroke-width="1.51"></path><path d="M87,-28L-33,10L53,90Z" fill="#658097" stroke="#658097" stroke-width="1.51"></path><path d="M261,109L296,-26L219,-13Z" fill="#556a79" stroke="#556a79" stroke-width="1.51"></path><path d="M346,162L261,109L210,210Z" fill="#485760" stroke="#485760" stroke-width="1.51"></path><path d="M87,-28L51,-68L-33,10Z" fill="#6c8ca8" stroke="#6c8ca8" stroke-width="1.51"></path><path d="M174,-89L51,-68L87,-28Z" fill="#6a89a3" stroke="#6a89a3" stroke-width="1.51"></path><path d="M238,266L300,265L210,210Z" fill="#43535b" stroke="#43535b" stroke-width="1.51"></path><path d="M145,288L300,265L238,266Z" fill="#43535b" stroke="#43535b" stroke-width="1.51"></path><path d="M-57,205L-92,249L-14,268Z" fill="#5b778d" stroke="#5b778d" stroke-width="1.51"></path><path d="M-143,146L-92,249L-57,205Z" fill="#62809a" stroke="#62809a" stroke-width="1.51"></path><path d="M300,265L346,162L210,210Z" fill="#44545c" stroke="#44545c" stroke-width="1.51"></path><path d="M221,-110L174,-89L219,-13Z" fill="#648098" stroke="#648098" stroke-width="1.51"></path><path d="M219,-13L174,-89L129,0Z" fill="#617a8e" stroke="#617a8e" stroke-width="1.51"></path><path d="M-100,-120L-12,-72L51,-68Z" fill="#79a2c9" stroke="#79a2c9" stroke-width="1.51"></path><path d="M51,-68L-12,-72L-33,10Z" fill="#7194b5" stroke="#7194b5" stroke-width="1.51"></path><path d="M-144,80L-143,146L-64,85Z" fill="#6989a5" stroke="#6989a5" stroke-width="1.51"></path><path d="M318,98L296,-26L261,109Z" fill="#4f616b" stroke="#4f616b" stroke-width="1.51"></path><path d="M414,29L296,-26L318,98Z" fill="#506472" stroke="#506472" stroke-width="1.51"></path><path d="M-144,80L-64,85L-144,-9Z" fill="#6f92b2" stroke="#6f92b2" stroke-width="1.51"></path><path d="M-64,85L-143,146L-57,205Z" fill="#64829b" stroke="#64829b" stroke-width="1.51"></path><path d="M-144,-9L-64,85L-33,10Z" fill="#6f92b0" stroke="#6f92b0" stroke-width="1.51"></path><path d="M431,151L386,118L346,162Z" fill="#43535b" stroke="#43535b" stroke-width="1.51"></path><path d="M346,162L386,118L318,98Z" fill="#46565e" stroke="#46565e" stroke-width="1.51"></path><path d="M174,-89L-100,-120L51,-68Z" fill="#7499bc" stroke="#7499bc" stroke-width="1.51"></path><path d="M296,-26L221,-110L219,-13Z" fill="#607a90" stroke="#607a90" stroke-width="1.51"></path><path d="M296,-26L324,-61L221,-110Z" fill="#607c94" stroke="#607c94" stroke-width="1.51"></path><path d="M414,29L324,-61L296,-26Z" fill="#577082" stroke="#577082" stroke-width="1.51"></path><path d="M-12,-72L-144,-9L-33,10Z" fill="#749abe" stroke="#749abe" stroke-width="1.51"></path><path d="M300,265L405,268L346,162Z" fill="#405058" stroke="#405058" stroke-width="1.51"></path><path d="M145,288L405,268L300,265Z" fill="#405058" stroke="#405058" stroke-width="1.51"></path><path d="M405,268L431,151L346,162Z" fill="#415159" stroke="#415159" stroke-width="1.51"></path><path d="M386,118L414,29L318,98Z" fill="#485961" stroke="#485961" stroke-width="1.51"></path><path d="M431,151L414,29L386,118Z" fill="#45555d" stroke="#45555d" stroke-width="1.51"></path><path d="M-12,-72L-100,-120L-144,-9Z" fill="#7ca8d2" stroke="#7ca8d2" stroke-width="1.51"></path><path d="M221,-110L-100,-120L174,-89Z" fill="#7093b3" stroke="#7093b3" stroke-width="1.51"></path><path d="M414,29L406,-110L324,-61Z" fill="#597489" stroke="#597489" stroke-width="1.51"></path><path d="M324,-61L406,-110L221,-110Z" fill="#62819b" stroke="#62819b" stroke-width="1.51"></path><path d="M221,-110L406,-110L-100,-120Z" fill="#6b8ca8" stroke="#6b8ca8" stroke-width="1.51"></path><path d="M431,151L406,-110L414,29Z" fill="#4f6372" stroke="#4f6372" stroke-width="1.51"></path></svg>