<svg width="300" height="176" xmlns="http://www.w3.org/2000/svg"><path d="M117,55L71,-12L88,61Z" fill="#5e7586" stroke="#5e7586" stroke-width="1.51"></path><path d="M117,55L175,-26L71,-12Z" fill="#5f7789" stroke="#5f7789" stroke-width="1.51"></path><path d="M71,-12L3,113L88,61Z" fill="#5f7689" stroke="#5f7689" stroke-width="1.51"></path><path d="M73,-119L-4,-34L71,-12Z" fill="#6e90af" stroke="#6e90af" stroke-width="1.51"></path><path d="M117,55L212,-10L175,-26Z" fill="#5b7182" stroke="#5b7182" stroke-width="1.51"></path><path d="M-4,-34L3,113L71,-12Z" fill="#66829a" stroke="#66829a" stroke-width="1.51"></path><path d="M88,61L140,190L117,55Z" fill="#53656f" stroke="#53656f" stroke-width="1.51"></path><path d="M160,-125L73,-119L175,-26Z" fill="#6a8aa5" stroke="#6a8aa5" stroke-width="1.51"></path><path d="M175,-26L73,-119L71,-12Z" fill="#68869f" stroke="#68869f" stroke-width="1.51"></path><path d="M212,-10L208,-81L175,-26Z" fill="#607a8f" stroke="#607a8f" stroke-width="1.51"></path><path d="M3,113L58,169L88,61Z" fill="#596f7e" stroke="#596f7e" stroke-width="1.51"></path><path d="M117,55L252,111L212,-10Z" fill="#546672" stroke="#546672" stroke-width="1.51"></path><path d="M208,-81L160,-125L175,-26Z" fill="#66839c" stroke="#66839c" stroke-width="1.51"></path><path d="M58,169L140,190L88,61Z" fill="#536672" stroke="#536672" stroke-width="1.51"></path><path d="M-4,-34L-89,20L3,113Z" fill="#6a88a3" stroke="#6a88a3" stroke-width="1.51"></path><path d="M73,-119L-63,-62L-4,-34Z" fill="#749bbf" stroke="#749bbf" stroke-width="1.51"></path><path d="M140,190L252,111L117,55Z" fill="#4e5e66" stroke="#4e5e66" stroke-width="1.51"></path><path d="M212,-10L299,-1L208,-81Z" fill="#5d768a" stroke="#5d768a" stroke-width="1.51"></path><path d="M-63,-62L-89,20L-4,-34Z" fill="#7399bc" stroke="#7399bc" stroke-width="1.51"></path><path d="M3,113L-43,196L58,169Z" fill="#5b7385" stroke="#5b7385" stroke-width="1.51"></path><path d="M208,-81L323,-91L160,-125Z" fill="#6686a1" stroke="#6686a1" stroke-width="1.51"></path><path d="M252,111L299,-1L212,-10Z" fill="#546875" stroke="#546875" stroke-width="1.51"></path><path d="M252,111L315,102L299,-1Z" fill="#4d5e68" stroke="#4d5e68" stroke-width="1.51"></path><path d="M140,190L215,206L252,111Z" fill="#4a5a62" stroke="#4a5a62" stroke-width="1.51"></path><path d="M-90,152L-43,196L3,113Z" fill="#607a90" stroke="#607a90" stroke-width="1.51"></path><path d="M58,169L89,274L140,190Z" fill="#4f626e" stroke="#4f626e" stroke-width="1.51"></path><path d="M140,190L166,271L215,206Z" fill="#485860" stroke="#485860" stroke-width="1.51"></path><path d="M-89,20L-90,152L3,113Z" fill="#658098" stroke="#658098" stroke-width="1.51"></path><path d="M307,154L315,102L252,111Z" fill="#495961" stroke="#495961" stroke-width="1.51"></path><path d="M-140,-108L-137,71L-89,20Z" fill="#77a0c6" stroke="#77a0c6" stroke-width="1.51"></path><path d="M-89,20L-137,71L-90,152Z" fill="#6a8aa5" stroke="#6a8aa5" stroke-width="1.51"></path><path d="M215,206L307,154L252,111Z" fill="#485860" stroke="#485860" stroke-width="1.51"></path><path d="M-121,290L-8,252L-43,196Z" fill="#5b778e" stroke="#5b778e" stroke-width="1.51"></path><path d="M-43,196L-8,252L58,169Z" fill="#587082" stroke="#587082" stroke-width="1.51"></path><path d="M-8,252L89,274L58,169Z" fill="#526877" stroke="#526877" stroke-width="1.51"></path><path d="M299,-1L323,-91L208,-81Z" fill="#5f7a91" stroke="#5f7a91" stroke-width="1.51"></path><path d="M392,-71L323,-91L299,-1Z" fill="#5c778d" stroke="#5c778d" stroke-width="1.51"></path><path d="M89,274L166,271L140,190Z" fill="#4a5a64" stroke="#4a5a64" stroke-width="1.51"></path><path d="M215,206L253,249L307,154Z" fill="#46565e" stroke="#46565e" stroke-width="1.51"></path><path d="M-63,-62L-140,-108L-89,20Z" fill="#7ba6cf" stroke="#7ba6cf" stroke-width="1.51"></path><path d="M73,-119L-140,-108L-63,-62Z" fill="#7ca8d2" stroke="#7ca8d2" stroke-width="1.51"></path><path d="M160,-125L-140,-108L73,-119Z" fill="#78a1c7" stroke="#78a1c7" stroke-width="1.51"></path><path d="M166,271L253,249L215,206Z" fill="#45555d" stroke="#45555d" stroke-width="1.51"></path><path d="M396,118L299,-1L315,102Z" fill="#4b5c65" stroke="#4b5c65" stroke-width="1.51"></path><path d="M423,-22L392,-71L299,-1Z" fill="#587185" stroke="#587185" stroke-width="1.51"></path><path d="M307,154L396,118L315,102Z" fill="#47575f" stroke="#47575f" stroke-width="1.51"></path><path d="M405,148L396,118L307,154Z" fill="#45555d" stroke="#45555d" stroke-width="1.51"></path><path d="M253,249L312,255L307,154Z" fill="#43535b" stroke="#43535b" stroke-width="1.51"></path><path d="M166,271L312,255L253,249Z" fill="#43535b" stroke="#43535b" stroke-width="1.51"></path><path d="M396,118L423,-22L299,-1Z" fill="#4f6370" stroke="#4f6370" stroke-width="1.51"></path><path d="M396,118L405,148L423,-22Z" fill="#475860" stroke="#475860" stroke-width="1.51"></path><path d="M312,255L405,148L307,154Z" fill="#43535b" stroke="#43535b" stroke-width="1.51"></path><path d="M-90,152L-121,290L-43,196Z" fill="#5f7d96" stroke="#5f7d96" stroke-width="1.51"></path><path d="M-8,252L-121,290L89,274Z" fill="#566f82" stroke="#566f82" stroke-width="1.51"></path><path d="M89,274L-121,290L166,271Z" fill="#506575" stroke="#506575" stroke-width="1.51"></path><path d="M-137,71L-121,290L-90,152Z" fill="#6584a0" stroke="#6584a0" stroke-width="1.51"></path><path d="M312,255L414,256L405,148Z" fill="#405058" stroke="#405058" stroke-width="1.51"></path><path d="M405,148L414,256L423,-22Z" fill="#43535b" stroke="#43535b" stroke-width="1.51"></path><path d="M166,271L414,256L312,255Z" fill="#415159" stroke="#415159" stroke-width="1.51"></path><path d="M-121,290L414,256L166,271Z" fill="#46565e" stroke="#46565e" stroke-width="1.51"></path></svg>