<svg width="300" height="176" xmlns="http://www.w3.org/2000/svg"><path d="M174,109L156,171L222,172Z" fill="#4c5c64" stroke="#4c5c64" stroke-width="1.51"></path><path d="M222,172L227,55L174,109Z" fill="#4d5d65" stroke="#4d5d65" stroke-width="1.51"></path><path d="M222,172L304,97L227,55Z" fill="#4c5c64" stroke="#4c5c64" stroke-width="1.51"></path><path d="M156,171L146,248L222,172Z" fill="#495961" stroke="#495961" stroke-width="1.51"></path><path d="M222,172L310,267L296,156Z" fill="#45555d" stroke="#45555d" stroke-width="1.51"></path><path d="M296,156L304,97L222,172Z" fill="#495961" stroke="#495961" stroke-width="1.51"></path><path d="M146,248L246,277L222,172Z" fill="#46565e" stroke="#46565e" stroke-width="1.51"></path><path d="M156,171L42,158L146,248Z" fill="#4e606b" stroke="#4e606b" stroke-width="1.51"></path><path d="M42,92L42,158L156,171Z" fill="#556875" stroke="#556875" stroke-width="1.51"></path><path d="M42,92L156,171L174,109Z" fill="#51636c" stroke="#51636c" stroke-width="1.51"></path><path d="M43,19L42,92L174,109Z" fill="#596d7b" stroke="#596d7b" stroke-width="1.51"></path><path d="M227,55L143,-31L174,109Z" fill="#556975" stroke="#556975" stroke-width="1.51"></path><path d="M339,17L229,-7L227,55Z" fill="#556a79" stroke="#556a79" stroke-width="1.51"></path><path d="M42,158L93,279L146,248Z" fill="#4e616d" stroke="#4e616d" stroke-width="1.51"></path><path d="M146,248L93,279L246,277Z" fill="#46565e" stroke="#46565e" stroke-width="1.51"></path><path d="M432,83L339,17L304,97Z" fill="#4b5d67" stroke="#4b5d67" stroke-width="1.51"></path><path d="M246,277L310,267L222,172Z" fill="#43535b" stroke="#43535b" stroke-width="1.51"></path><path d="M229,-7L143,-31L227,55Z" fill="#5a7080" stroke="#5a7080" stroke-width="1.51"></path><path d="M143,-31L43,19L174,109Z" fill="#5c7181" stroke="#5c7181" stroke-width="1.51"></path><path d="M304,97L339,17L227,55Z" fill="#4f616d" stroke="#4f616d" stroke-width="1.51"></path><path d="M229,-7L179,-112L143,-31Z" fill="#627d93" stroke="#627d93" stroke-width="1.51"></path><path d="M432,83L304,97L439,176Z" fill="#45555d" stroke="#45555d" stroke-width="1.51"></path><path d="M42,158L-13,193L93,279Z" fill="#546b7a" stroke="#546b7a" stroke-width="1.51"></path><path d="M-54,105L-13,193L42,158Z" fill="#5c7588" stroke="#5c7588" stroke-width="1.51"></path><path d="M-54,105L42,158L42,92Z" fill="#5d7486" stroke="#5d7486" stroke-width="1.51"></path><path d="M43,19L-54,105L42,92Z" fill="#617a8e" stroke="#617a8e" stroke-width="1.51"></path><path d="M339,17L269,-89L229,-7Z" fill="#5b7487" stroke="#5b7487" stroke-width="1.51"></path><path d="M339,17L349,-112L269,-89Z" fill="#5e7a91" stroke="#5e7a91" stroke-width="1.51"></path><path d="M439,176L304,97L296,156Z" fill="#46565e" stroke="#46565e" stroke-width="1.51"></path><path d="M310,267L439,176L296,156Z" fill="#42525a" stroke="#42525a" stroke-width="1.51"></path><path d="M-13,193L-17,299L93,279Z" fill="#536a7b" stroke="#536a7b" stroke-width="1.51"></path><path d="M93,279L-17,299L246,277Z" fill="#495c67" stroke="#495c67" stroke-width="1.51"></path><path d="M-91,242L-17,299L-13,193Z" fill="#5a748a" stroke="#5a748a" stroke-width="1.51"></path><path d="M269,-89L179,-112L229,-7Z" fill="#637f98" stroke="#637f98" stroke-width="1.51"></path><path d="M44,-126L-16,-13L43,19Z" fill="#6e90af" stroke="#6e90af" stroke-width="1.51"></path><path d="M43,19L-16,-13L-54,105Z" fill="#67849d" stroke="#67849d" stroke-width="1.51"></path><path d="M44,-126L43,19L143,-31Z" fill="#6a89a5" stroke="#6a89a5" stroke-width="1.51"></path><path d="M310,267L418,272L439,176Z" fill="#3e4e56" stroke="#3e4e56" stroke-width="1.51"></path><path d="M246,277L418,272L310,267Z" fill="#3f4f57" stroke="#3f4f57" stroke-width="1.51"></path><path d="M-17,299L418,272L246,277Z" fill="#42525a" stroke="#42525a" stroke-width="1.51"></path><path d="M432,83L413,-31L339,17Z" fill="#506473" stroke="#506473" stroke-width="1.51"></path><path d="M-104,194L-91,242L-13,193Z" fill="#5f7b93" stroke="#5f7b93" stroke-width="1.51"></path><path d="M-132,75L-104,194L-54,105Z" fill="#67859f" stroke="#67859f" stroke-width="1.51"></path><path d="M-54,105L-104,194L-13,193Z" fill="#607c93" stroke="#607c93" stroke-width="1.51"></path><path d="M397,-87L349,-112L339,17Z" fill="#5c778e" stroke="#5c778e" stroke-width="1.51"></path><path d="M269,-89L349,-112L179,-112Z" fill="#6685a1" stroke="#6685a1" stroke-width="1.51"></path><path d="M349,-112L44,-126L179,-112Z" fill="#6b8ca9" stroke="#6b8ca9" stroke-width="1.51"></path><path d="M179,-112L44,-126L143,-31Z" fill="#6b8ca8" stroke="#6b8ca8" stroke-width="1.51"></path><path d="M413,-31L397,-87L339,17Z" fill="#587185" stroke="#587185" stroke-width="1.51"></path><path d="M-116,8L-54,105L-16,-13Z" fill="#6d8eaa" stroke="#6d8eaa" stroke-width="1.51"></path><path d="M-116,8L-132,75L-54,105Z" fill="#6c8dab" stroke="#6c8dab" stroke-width="1.51"></path><path d="M-90,-86L-116,8L-16,-13Z" fill="#769dc3" stroke="#769dc3" stroke-width="1.51"></path><path d="M44,-126L-38,-124L-16,-13Z" fill="#77a0c5" stroke="#77a0c5" stroke-width="1.51"></path><path d="M-38,-124L-90,-86L-16,-13Z" fill="#7aa4cc" stroke="#7aa4cc" stroke-width="1.51"></path></svg>