<svg width="300" height="176" xmlns="http://www.w3.org/2000/svg"><path d="M45,253L-103,272L255,294Z" fill="#4e6371" stroke="#4e6371" stroke-width="1.51"></path><path d="M33,-109L213,-103L336,-112Z" fill="#6989a5" stroke="#6989a5" stroke-width="1.51"></path><path d="M-119,-125L33,-109L336,-112Z" fill="#7398ba" stroke="#7398ba" stroke-width="1.51"></path><path d="M317,112L354,192L409,84Z" fill="#46565e" stroke="#46565e" stroke-width="1.51"></path><path d="M354,192L302,251L416,300Z" fill="#3f4f57" stroke="#3f4f57" stroke-width="1.51"></path><path d="M354,192L416,300L420,190Z" fill="#3f4f57" stroke="#3f4f57" stroke-width="1.51"></path><path d="M409,84L354,192L420,190Z" fill="#43535b" stroke="#43535b" stroke-width="1.51"></path><path d="M414,-65L329,7L431,-32Z" fill="#576f83" stroke="#576f83" stroke-width="1.51"></path><path d="M329,7L409,84L431,-32Z" fill="#506574" stroke="#506574" stroke-width="1.51"></path><path d="M409,84L420,190L431,-32Z" fill="#475760" stroke="#475760" stroke-width="1.51"></path><path d="M302,251L255,294L416,300Z" fill="#3e4e56" stroke="#3e4e56" stroke-width="1.51"></path><path d="M336,-112L329,7L414,-65Z" fill="#5c778e" stroke="#5c778e" stroke-width="1.51"></path><path d="M329,7L317,112L409,84Z" fill="#4b5d67" stroke="#4b5d67" stroke-width="1.51"></path><path d="M267,24L267,98L317,112Z" fill="#4d5d66" stroke="#4d5d66" stroke-width="1.51"></path><path d="M267,24L317,112L329,7Z" fill="#50636f" stroke="#50636f" stroke-width="1.51"></path><path d="M267,24L329,7L336,-112Z" fill="#5a7386" stroke="#5a7386" stroke-width="1.51"></path><path d="M213,-103L267,24L336,-112Z" fill="#607c94" stroke="#607c94" stroke-width="1.51"></path><path d="M317,112L256,147L354,192Z" fill="#47575f" stroke="#47575f" stroke-width="1.51"></path><path d="M256,147L302,251L354,192Z" fill="#44545c" stroke="#44545c" stroke-width="1.51"></path><path d="M267,98L256,147L317,112Z" fill="#495961" stroke="#495961" stroke-width="1.51"></path><path d="M256,147L175,239L302,251Z" fill="#45555d" stroke="#45555d" stroke-width="1.51"></path><path d="M175,239L255,294L302,251Z" fill="#43535b" stroke="#43535b" stroke-width="1.51"></path><path d="M135,-72L136,16L213,-103Z" fill="#647f95" stroke="#647f95" stroke-width="1.51"></path><path d="M175,239L45,253L255,294Z" fill="#46565e" stroke="#46565e" stroke-width="1.51"></path><path d="M145,166L175,239L256,147Z" fill="#495961" stroke="#495961" stroke-width="1.51"></path><path d="M129,111L256,147L267,98Z" fill="#4c5c64" stroke="#4c5c64" stroke-width="1.51"></path><path d="M136,16L129,111L267,98Z" fill="#52626c" stroke="#52626c" stroke-width="1.51"></path><path d="M136,16L267,98L267,24Z" fill="#536773" stroke="#536773" stroke-width="1.51"></path><path d="M213,-103L136,16L267,24Z" fill="#5d7589" stroke="#5d7589" stroke-width="1.51"></path><path d="M33,-109L135,-72L213,-103Z" fill="#6c8ca8" stroke="#6c8ca8" stroke-width="1.51"></path><path d="M129,111L145,166L256,147Z" fill="#4d5d65" stroke="#4d5d65" stroke-width="1.51"></path><path d="M145,166L45,253L175,239Z" fill="#4c5e67" stroke="#4c5e67" stroke-width="1.51"></path><path d="M50,64L129,111L136,16Z" fill="#596d7a" stroke="#596d7a" stroke-width="1.51"></path><path d="M135,-72L45,-4L136,16Z" fill="#647f95" stroke="#647f95" stroke-width="1.51"></path><path d="M129,111L40,162L145,166Z" fill="#52646f" stroke="#52646f" stroke-width="1.51"></path><path d="M40,162L45,253L145,166Z" fill="#526673" stroke="#526673" stroke-width="1.51"></path><path d="M33,-109L45,-4L135,-72Z" fill="#6d8eaa" stroke="#6d8eaa" stroke-width="1.51"></path><path d="M45,-4L50,64L136,16Z" fill="#60798d" stroke="#60798d" stroke-width="1.51"></path><path d="M-28,242L-103,272L45,253Z" fill="#587287" stroke="#587287" stroke-width="1.51"></path><path d="M50,64L40,162L129,111Z" fill="#576b78" stroke="#576b78" stroke-width="1.51"></path><path d="M-119,-125L-56,-77L33,-109Z" fill="#7eaad5" stroke="#7eaad5" stroke-width="1.51"></path><path d="M-8,68L-43,155L40,162Z" fill="#5d7689" stroke="#5d7689" stroke-width="1.51"></path><path d="M40,162L-28,242L45,253Z" fill="#566d7f" stroke="#566d7f" stroke-width="1.51"></path><path d="M33,-109L-56,-77L45,-4Z" fill="#7398ba" stroke="#7398ba" stroke-width="1.51"></path><path d="M-56,-77L-9,25L45,-4Z" fill="#6f90af" stroke="#6f90af" stroke-width="1.51"></path><path d="M-8,68L40,162L50,64Z" fill="#5d7384" stroke="#5d7384" stroke-width="1.51"></path><path d="M45,-4L-9,25L50,64Z" fill="#658097" stroke="#658097" stroke-width="1.51"></path><path d="M-9,25L-8,68L50,64Z" fill="#647e93" stroke="#647e93" stroke-width="1.51"></path><path d="M-43,155L-28,242L40,162Z" fill="#5a7386" stroke="#5a7386" stroke-width="1.51"></path><path d="M-56,-77L-97,-13L-9,25Z" fill="#7399bb" stroke="#7399bb" stroke-width="1.51"></path><path d="M-153,86L-43,155L-8,68Z" fill="#658299" stroke="#658299" stroke-width="1.51"></path><path d="M-9,25L-97,-13L-8,68Z" fill="#6c8ba8" stroke="#6c8ba8" stroke-width="1.51"></path><path d="M-97,-13L-153,86L-8,68Z" fill="#6d8eac" stroke="#6d8eac" stroke-width="1.51"></path><path d="M-43,155L-137,197L-28,242Z" fill="#5f7c93" stroke="#5f7c93" stroke-width="1.51"></path><path d="M-137,197L-103,272L-28,242Z" fill="#5f7d96" stroke="#5f7d96" stroke-width="1.51"></path><path d="M-153,86L-137,197L-43,155Z" fill="#6686a1" stroke="#6686a1" stroke-width="1.51"></path><path d="M-119,-125L-97,-13L-56,-77Z" fill="#7daad5" stroke="#7daad5" stroke-width="1.51"></path><path d="M-119,-125L-153,86L-97,-13Z" fill="#79a3cb" stroke="#79a3cb" stroke-width="1.51"></path></svg>