<svg width="300" height="176" xmlns="http://www.w3.org/2000/svg"><path d="M134,118L90,207L138,155Z" fill="#4c606c" stroke="#4c606c" stroke-width="1.51"></path><path d="M134,118L37,58L90,207Z" fill="#576f80" stroke="#576f80" stroke-width="1.51"></path><path d="M37,58L-7,198L90,207Z" fill="#5d7a92" stroke="#5d7a92" stroke-width="1.51"></path><path d="M90,207L136,263L138,155Z" fill="#4a5d69" stroke="#4a5d69" stroke-width="1.51"></path><path d="M-7,198L72,254L90,207Z" fill="#57738a" stroke="#57738a" stroke-width="1.51"></path><path d="M37,58L-44,80L-7,198Z" fill="#6b8ead" stroke="#6b8ead" stroke-width="1.51"></path><path d="M37,58L-28,-28L-44,80Z" fill="#80b0de" stroke="#80b0de" stroke-width="1.51"></path><path d="M134,118L121,19L37,58Z" fill="#647e94" stroke="#647e94" stroke-width="1.51"></path><path d="M72,254L136,263L90,207Z" fill="#4e6473" stroke="#4e6473" stroke-width="1.51"></path><path d="M-7,198L-4,268L72,254Z" fill="#5d7d98" stroke="#5d7d98" stroke-width="1.51"></path><path d="M72,254L-4,268L136,263Z" fill="#546e82" stroke="#546e82" stroke-width="1.51"></path><path d="M-91,257L-4,268L-7,198Z" fill="#6184a3" stroke="#6184a3" stroke-width="1.51"></path><path d="M121,19L63,-9L37,58Z" fill="#779fc4" stroke="#779fc4" stroke-width="1.51"></path><path d="M211,262L240,191L138,155Z" fill="#405058" stroke="#405058" stroke-width="1.51"></path><path d="M138,155L240,191L134,118Z" fill="#45555d" stroke="#45555d" stroke-width="1.51"></path><path d="M134,118L269,62L121,19Z" fill="#576b78" stroke="#576b78" stroke-width="1.51"></path><path d="M136,263L211,262L138,155Z" fill="#43535b" stroke="#43535b" stroke-width="1.51"></path><path d="M402,294L211,262L136,263Z" fill="#3b4b53" stroke="#3b4b53" stroke-width="1.51"></path><path d="M63,-9L-28,-28L37,58Z" fill="#85b9ec" stroke="#85b9ec" stroke-width="1.51"></path><path d="M-125,207L-7,198L-44,80Z" fill="#6386a5" stroke="#6386a5" stroke-width="1.51"></path><path d="M-125,207L-91,257L-7,198Z" fill="#6184a3" stroke="#6184a3" stroke-width="1.51"></path><path d="M-28,-28L-117,65L-44,80Z" fill="#80afdc" stroke="#80afdc" stroke-width="1.51"></path><path d="M63,-9L76,-64L-28,-28Z" fill="#85b9eb" stroke="#85b9eb" stroke-width="1.51"></path><path d="M121,19L76,-64L63,-9Z" fill="#7ca7d1" stroke="#7ca7d1" stroke-width="1.51"></path><path d="M156,-104L76,-64L121,19Z" fill="#759dc1" stroke="#759dc1" stroke-width="1.51"></path><path d="M-117,65L-125,207L-44,80Z" fill="#6a8dac" stroke="#6a8dac" stroke-width="1.51"></path><path d="M240,191L269,62L134,118Z" fill="#46565e" stroke="#46565e" stroke-width="1.51"></path><path d="M269,62L259,1L121,19Z" fill="#5f7c94" stroke="#5f7c94" stroke-width="1.51"></path><path d="M240,191L317,162L269,62Z" fill="#3e4e56" stroke="#3e4e56" stroke-width="1.51"></path><path d="M269,62L323,82L259,1Z" fill="#526b7d" stroke="#526b7d" stroke-width="1.51"></path><path d="M337,236L317,162L240,191Z" fill="#37474f" stroke="#37474f" stroke-width="1.51"></path><path d="M317,162L323,82L269,62Z" fill="#42525a" stroke="#42525a" stroke-width="1.51"></path><path d="M76,-64L-21,-101L-28,-28Z" fill="#8bc3fa" stroke="#8bc3fa" stroke-width="1.51"></path><path d="M259,1L156,-104L121,19Z" fill="#6c8fae" stroke="#6c8fae" stroke-width="1.51"></path><path d="M156,-104L-21,-101L76,-64Z" fill="#7fadda" stroke="#7fadda" stroke-width="1.51"></path><path d="M-28,-28L-146,-34L-117,65Z" fill="#8bc5fe" stroke="#8bc5fe" stroke-width="1.51"></path><path d="M-21,-101L-87,-84L-28,-28Z" fill="#8cc6ff" stroke="#8cc6ff" stroke-width="1.51"></path><path d="M317,162L412,115L323,82Z" fill="#3f4f57" stroke="#3f4f57" stroke-width="1.51"></path><path d="M211,262L337,236L240,191Z" fill="#3a4a52" stroke="#3a4a52" stroke-width="1.51"></path><path d="M-87,-84L-146,-34L-28,-28Z" fill="#8cc6ff" stroke="#8cc6ff" stroke-width="1.51"></path><path d="M-117,65L-146,-34L-125,207Z" fill="#7297b9" stroke="#7297b9" stroke-width="1.51"></path><path d="M259,1L265,-88L156,-104Z" fill="#688baa" stroke="#688baa" stroke-width="1.51"></path><path d="M349,-70L265,-88L259,1Z" fill="#6285a4" stroke="#6285a4" stroke-width="1.51"></path><path d="M323,82L354,-23L259,1Z" fill="#5a7892" stroke="#5a7892" stroke-width="1.51"></path><path d="M407,22L354,-23L323,82Z" fill="#58758c" stroke="#58758c" stroke-width="1.51"></path><path d="M337,236L409,180L317,162Z" fill="#37474f" stroke="#37474f" stroke-width="1.51"></path><path d="M409,180L412,115L317,162Z" fill="#3a4a52" stroke="#3a4a52" stroke-width="1.51"></path><path d="M413,-77L349,-70L354,-23Z" fill="#6184a3" stroke="#6184a3" stroke-width="1.51"></path><path d="M354,-23L349,-70L259,1Z" fill="#6184a3" stroke="#6184a3" stroke-width="1.51"></path><path d="M412,115L407,22L323,82Z" fill="#495c67" stroke="#495c67" stroke-width="1.51"></path><path d="M-4,268L402,294L136,263Z" fill="#415159" stroke="#415159" stroke-width="1.51"></path><path d="M211,262L402,294L337,236Z" fill="#37474f" stroke="#37474f" stroke-width="1.51"></path><path d="M337,236L402,294L409,180Z" fill="#37474f" stroke="#37474f" stroke-width="1.51"></path><path d="M412,115L413,-77L407,22Z" fill="#5a7892" stroke="#5a7892" stroke-width="1.51"></path><path d="M407,22L413,-77L354,-23Z" fill="#6184a3" stroke="#6184a3" stroke-width="1.51"></path><path d="M349,-70L413,-77L265,-88Z" fill="#6184a3" stroke="#6184a3" stroke-width="1.51"></path><path d="M265,-88L413,-77L156,-104Z" fill="#6386a5" stroke="#6386a5" stroke-width="1.51"></path></svg>