<svg width="300" height="176" xmlns="http://www.w3.org/2000/svg"><path d="M-152,-88L-58,-87L41,-99Z" fill="#7ca9d4" stroke="#7ca9d4" stroke-width="1.51"></path><path d="M41,-99L138,-73L230,-67Z" fill="#6987a1" stroke="#6987a1" stroke-width="1.51"></path><path d="M41,-99L230,-67L356,-87Z" fill="#66839d" stroke="#66839d" stroke-width="1.51"></path><path d="M311,290L228,299L405,297Z" fill="#3e4e56" stroke="#3e4e56" stroke-width="1.51"></path><path d="M362,169L311,290L405,297Z" fill="#3f4f57" stroke="#3f4f57" stroke-width="1.51"></path><path d="M362,169L405,297L427,165Z" fill="#3f4f57" stroke="#3f4f57" stroke-width="1.51"></path><path d="M400,63L362,169L427,165Z" fill="#44545c" stroke="#44545c" stroke-width="1.51"></path><path d="M422,-14L400,63L427,165Z" fill="#485963" stroke="#485963" stroke-width="1.51"></path><path d="M41,-99L356,-87L432,-89Z" fill="#63829c" stroke="#63829c" stroke-width="1.51"></path><path d="M356,-87L422,-14L432,-89Z" fill="#5a778d" stroke="#5a778d" stroke-width="1.51"></path><path d="M422,-14L427,165L432,-89Z" fill="#4e6372" stroke="#4e6372" stroke-width="1.51"></path><path d="M299,-17L322,68L400,63Z" fill="#506370" stroke="#506370" stroke-width="1.51"></path><path d="M322,68L362,169L400,63Z" fill="#47575f" stroke="#47575f" stroke-width="1.51"></path><path d="M299,-17L400,63L422,-14Z" fill="#526777" stroke="#526777" stroke-width="1.51"></path><path d="M356,-87L299,-17L422,-14Z" fill="#597388" stroke="#597388" stroke-width="1.51"></path><path d="M210,209L311,290L362,169Z" fill="#43535b" stroke="#43535b" stroke-width="1.51"></path><path d="M322,68L258,70L362,169Z" fill="#495961" stroke="#495961" stroke-width="1.51"></path><path d="M258,70L210,209L362,169Z" fill="#485860" stroke="#485860" stroke-width="1.51"></path><path d="M230,-67L299,-17L356,-87Z" fill="#5e7a90" stroke="#5e7a90" stroke-width="1.51"></path><path d="M-53,251L-137,245L79,292Z" fill="#597388" stroke="#597388" stroke-width="1.51"></path><path d="M248,-3L258,70L299,-17Z" fill="#556b7a" stroke="#556b7a" stroke-width="1.51"></path><path d="M210,209L228,299L311,290Z" fill="#42525a" stroke="#42525a" stroke-width="1.51"></path><path d="M299,-17L258,70L322,68Z" fill="#516572" stroke="#516572" stroke-width="1.51"></path><path d="M177,175L210,209L258,70Z" fill="#4b5b63" stroke="#4b5b63" stroke-width="1.51"></path><path d="M230,-67L248,-3L299,-17Z" fill="#5c7589" stroke="#5c7589" stroke-width="1.51"></path><path d="M248,-3L147,96L258,70Z" fill="#526570" stroke="#526570" stroke-width="1.51"></path><path d="M147,96L177,175L258,70Z" fill="#4d5d65" stroke="#4d5d65" stroke-width="1.51"></path><path d="M230,-67L119,-33L248,-3Z" fill="#60798d" stroke="#60798d" stroke-width="1.51"></path><path d="M119,-33L147,96L248,-3Z" fill="#596e7d" stroke="#596e7d" stroke-width="1.51"></path><path d="M210,209L135,299L228,299Z" fill="#45555d" stroke="#45555d" stroke-width="1.51"></path><path d="M138,-73L119,-33L230,-67Z" fill="#648097" stroke="#648097" stroke-width="1.51"></path><path d="M119,-33L88,14L147,96Z" fill="#5d7383" stroke="#5d7383" stroke-width="1.51"></path><path d="M177,175L135,299L210,209Z" fill="#485860" stroke="#485860" stroke-width="1.51"></path><path d="M79,292L135,299L177,175Z" fill="#495a64" stroke="#495a64" stroke-width="1.51"></path><path d="M36,164L79,292L177,175Z" fill="#4f626d" stroke="#4f626d" stroke-width="1.51"></path><path d="M147,96L59,113L177,175Z" fill="#50626b" stroke="#50626b" stroke-width="1.51"></path><path d="M59,113L36,164L177,175Z" fill="#536672" stroke="#536672" stroke-width="1.51"></path><path d="M88,14L59,113L147,96Z" fill="#586c78" stroke="#586c78" stroke-width="1.51"></path><path d="M41,-99L119,-33L138,-73Z" fill="#6b8ba6" stroke="#6b8ba6" stroke-width="1.51"></path><path d="M41,-99L88,14L119,-33Z" fill="#6987a1" stroke="#6987a1" stroke-width="1.51"></path><path d="M36,164L-53,251L79,292Z" fill="#556c7d" stroke="#556c7d" stroke-width="1.51"></path><path d="M41,-99L-21,-4L88,14Z" fill="#6c8ca9" stroke="#6c8ca9" stroke-width="1.51"></path><path d="M-1,103L59,113L88,14Z" fill="#5d7383" stroke="#5d7383" stroke-width="1.51"></path><path d="M-21,-4L-1,103L88,14Z" fill="#657f95" stroke="#657f95" stroke-width="1.51"></path><path d="M-1,103L36,164L59,113Z" fill="#5a7081" stroke="#5a7081" stroke-width="1.51"></path><path d="M-53,158L-53,251L36,164Z" fill="#5b758a" stroke="#5b758a" stroke-width="1.51"></path><path d="M-58,-87L-21,-4L41,-99Z" fill="#759cbf" stroke="#759cbf" stroke-width="1.51"></path><path d="M-1,103L-53,158L36,164Z" fill="#5d7589" stroke="#5d7589" stroke-width="1.51"></path><path d="M-21,-4L-102,64L-1,103Z" fill="#68869f" stroke="#68869f" stroke-width="1.51"></path><path d="M-102,64L-53,158L-1,103Z" fill="#637f96" stroke="#637f96" stroke-width="1.51"></path><path d="M-58,-87L-113,22L-21,-4Z" fill="#759abe" stroke="#759abe" stroke-width="1.51"></path><path d="M-113,22L-102,64L-21,-4Z" fill="#6f92b1" stroke="#6f92b1" stroke-width="1.51"></path><path d="M-152,-88L-113,22L-58,-87Z" fill="#7ca8d2" stroke="#7ca8d2" stroke-width="1.51"></path><path d="M-102,64L-125,167L-53,158Z" fill="#66849d" stroke="#66849d" stroke-width="1.51"></path><path d="M-53,158L-125,167L-53,251Z" fill="#607d96" stroke="#607d96" stroke-width="1.51"></path><path d="M-125,167L-137,245L-53,251Z" fill="#61809a" stroke="#61809a" stroke-width="1.51"></path><path d="M-113,22L-125,167L-102,64Z" fill="#6b8ba6" stroke="#6b8ba6" stroke-width="1.51"></path><path d="M-152,-88L-125,167L-113,22Z" fill="#7398bb" stroke="#7398bb" stroke-width="1.51"></path><path d="M-152,-88L-137,245L-125,167Z" fill="#6b8da9" stroke="#6b8da9" stroke-width="1.51"></path></svg>