<svg width="300" height="176" xmlns="http://www.w3.org/2000/svg"><path d="M63,-84L151,-65L229,-69Z" fill="#41a5a4" stroke="#41a5a4" stroke-width="1.51"></path><path d="M58,277L-53,291L312,296Z" fill="#197779" stroke="#197779" stroke-width="1.51"></path><path d="M-112,-94L63,-84L418,-99Z" fill="#49b0ad" stroke="#49b0ad" stroke-width="1.51"></path><path d="M229,-69L305,-71L418,-99Z" fill="#3d9f9d" stroke="#3d9f9d" stroke-width="1.51"></path><path d="M63,-84L229,-69L418,-99Z" fill="#40a5a2" stroke="#40a5a2" stroke-width="1.51"></path><path d="M361,94L402,167L439,88Z" fill="#0f6e72" stroke="#0f6e72" stroke-width="1.51"></path><path d="M357,-12L361,94L439,88Z" fill="#1b787b" stroke="#1b787b" stroke-width="1.51"></path><path d="M357,-12L439,88L442,-10Z" fill="#238082" stroke="#238082" stroke-width="1.51"></path><path d="M418,-99L357,-12L442,-10Z" fill="#329190" stroke="#329190" stroke-width="1.51"></path><path d="M402,167L312,296L442,295Z" fill="#07666a" stroke="#07666a" stroke-width="1.51"></path><path d="M439,88L402,167L442,295Z" fill="#0a696d" stroke="#0a696d" stroke-width="1.51"></path><path d="M442,-10L439,88L442,295Z" fill="#0d6c70" stroke="#0d6c70" stroke-width="1.51"></path><path d="M358,154L312,296L402,167Z" fill="#0b6a6e" stroke="#0b6a6e" stroke-width="1.51"></path><path d="M361,94L358,154L402,167Z" fill="#0f6d71" stroke="#0f6d71" stroke-width="1.51"></path><path d="M305,-71L357,-12L418,-99Z" fill="#389997" stroke="#389997" stroke-width="1.51"></path><path d="M222,246L148,246L312,296Z" fill="#0d6d71" stroke="#0d6d71" stroke-width="1.51"></path><path d="M148,246L58,277L312,296Z" fill="#0f6e72" stroke="#0f6e72" stroke-width="1.51"></path><path d="M222,246L312,296L358,154Z" fill="#0d6b6f" stroke="#0d6b6f" stroke-width="1.51"></path><path d="M222,152L222,246L358,154Z" fill="#116f73" stroke="#116f73" stroke-width="1.51"></path><path d="M220,116L222,152L358,154Z" fill="#137276" stroke="#137276" stroke-width="1.51"></path><path d="M357,-12L243,24L361,94Z" fill="#228183" stroke="#228183" stroke-width="1.51"></path><path d="M220,116L358,154L361,94Z" fill="#127175" stroke="#127175" stroke-width="1.51"></path><path d="M243,24L220,116L361,94Z" fill="#18777b" stroke="#18777b" stroke-width="1.51"></path><path d="M305,-71L243,24L357,-12Z" fill="#309090" stroke="#309090" stroke-width="1.51"></path><path d="M229,-69L243,24L305,-71Z" fill="#359796" stroke="#359796" stroke-width="1.51"></path><path d="M222,152L182,200L222,246Z" fill="#127175" stroke="#127175" stroke-width="1.51"></path><path d="M151,-65L156,21L229,-69Z" fill="#389a9a" stroke="#389a9a" stroke-width="1.51"></path><path d="M166,65L220,116L243,24Z" fill="#1d7c80" stroke="#1d7c80" stroke-width="1.51"></path><path d="M229,-69L156,21L243,24Z" fill="#309192" stroke="#309192" stroke-width="1.51"></path><path d="M156,21L166,65L243,24Z" fill="#268688" stroke="#268688" stroke-width="1.51"></path><path d="M166,65L182,200L220,116Z" fill="#17767a" stroke="#17767a" stroke-width="1.51"></path><path d="M220,116L182,200L222,152Z" fill="#157377" stroke="#157377" stroke-width="1.51"></path><path d="M182,200L148,246L222,246Z" fill="#127074" stroke="#127074" stroke-width="1.51"></path><path d="M166,65L71,155L182,200Z" fill="#1a797c" stroke="#1a797c" stroke-width="1.51"></path><path d="M71,155L148,246L182,200Z" fill="#18767a" stroke="#18767a" stroke-width="1.51"></path><path d="M151,-65L64,-8L156,21Z" fill="#389b9b" stroke="#389b9b" stroke-width="1.51"></path><path d="M156,21L50,87L166,65Z" fill="#278789" stroke="#278789" stroke-width="1.51"></path><path d="M50,87L71,155L166,65Z" fill="#248386" stroke="#248386" stroke-width="1.51"></path><path d="M64,-8L50,87L156,21Z" fill="#339494" stroke="#339494" stroke-width="1.51"></path><path d="M71,155L58,277L148,246Z" fill="#1f7d7f" stroke="#1f7d7f" stroke-width="1.51"></path><path d="M63,-84L64,-8L151,-65Z" fill="#45aba8" stroke="#45aba8" stroke-width="1.51"></path><path d="M-12,145L-53,291L58,277Z" fill="#2f8e8e" stroke="#2f8e8e" stroke-width="1.51"></path><path d="M-112,-94L-4,-61L63,-84Z" fill="#5cc8c1" stroke="#5cc8c1" stroke-width="1.51"></path><path d="M-47,79L50,87L64,-8Z" fill="#399c9b" stroke="#399c9b" stroke-width="1.51"></path><path d="M-49,-13L-47,79L64,-8Z" fill="#45aba9" stroke="#45aba9" stroke-width="1.51"></path><path d="M63,-84L-4,-61L64,-8Z" fill="#4db5b0" stroke="#4db5b0" stroke-width="1.51"></path><path d="M-12,145L58,277L71,155Z" fill="#2a898a" stroke="#2a898a" stroke-width="1.51"></path><path d="M50,87L-12,145L71,155Z" fill="#2d8d8e" stroke="#2d8d8e" stroke-width="1.51"></path><path d="M-4,-61L-49,-13L64,-8Z" fill="#4eb5b1" stroke="#4eb5b1" stroke-width="1.51"></path><path d="M-47,79L-12,145L50,87Z" fill="#349696" stroke="#349696" stroke-width="1.51"></path><path d="M-122,172L-53,291L-12,145Z" fill="#3a9c9a" stroke="#3a9c9a" stroke-width="1.51"></path><path d="M-112,-94L-49,-13L-4,-61Z" fill="#5dc9c2" stroke="#5dc9c2" stroke-width="1.51"></path><path d="M-112,-94L-98,-25L-49,-13Z" fill="#5fccc5" stroke="#5fccc5" stroke-width="1.51"></path><path d="M-47,79L-122,172L-12,145Z" fill="#3d9f9e" stroke="#3d9f9e" stroke-width="1.51"></path><path d="M-122,172L-145,293L-53,291Z" fill="#3fa19e" stroke="#3fa19e" stroke-width="1.51"></path><path d="M-98,-25L-110,60L-49,-13Z" fill="#54beb8" stroke="#54beb8" stroke-width="1.51"></path><path d="M-49,-13L-110,60L-47,79Z" fill="#49b0ad" stroke="#49b0ad" stroke-width="1.51"></path><path d="M-110,60L-122,172L-47,79Z" fill="#43a8a5" stroke="#43a8a5" stroke-width="1.51"></path><path d="M-112,-94L-110,60L-98,-25Z" fill="#5dc9c2" stroke="#5dc9c2" stroke-width="1.51"></path><path d="M-145,293L-122,172L-112,-94Z" fill="#47adaa" stroke="#47adaa" stroke-width="1.51"></path><path d="M-112,-94L-122,172L-110,60Z" fill="#4fb9b4" stroke="#4fb9b4" stroke-width="1.51"></path></svg>