<svg width="300" height="176" xmlns="http://www.w3.org/2000/svg"><path d="M-2,259L-140,261L87,271Z" fill="#308f8f" stroke="#308f8f" stroke-width="1.51"></path><path d="M87,271L-140,261L154,286Z" fill="#278586" stroke="#278586" stroke-width="1.51"></path><path d="M-116,-84L78,-80L230,-97Z" fill="#51bab5" stroke="#51bab5" stroke-width="1.51"></path><path d="M273,268L154,286L406,274Z" fill="#0a696d" stroke="#0a696d" stroke-width="1.51"></path><path d="M307,254L273,268L406,274Z" fill="#08686c" stroke="#08686c" stroke-width="1.51"></path><path d="M-116,-84L230,-97L439,-121Z" fill="#45aba8" stroke="#45aba8" stroke-width="1.51"></path><path d="M230,-97L345,-79L439,-121Z" fill="#41a4a1" stroke="#41a4a1" stroke-width="1.51"></path><path d="M439,-121L345,-79L440,11Z" fill="#379796" stroke="#379796" stroke-width="1.51"></path><path d="M345,-79L324,9L440,11Z" fill="#2e8d8d" stroke="#2e8d8d" stroke-width="1.51"></path><path d="M346,182L427,209L441,88Z" fill="#0c6b6f" stroke="#0c6b6f" stroke-width="1.51"></path><path d="M339,60L346,182L441,88Z" fill="#116f73" stroke="#116f73" stroke-width="1.51"></path><path d="M440,11L339,60L441,88Z" fill="#1b787b" stroke="#1b787b" stroke-width="1.51"></path><path d="M324,9L339,60L440,11Z" fill="#238183" stroke="#238183" stroke-width="1.51"></path><path d="M346,182L406,274L427,209Z" fill="#08686c" stroke="#08686c" stroke-width="1.51"></path><path d="M346,182L307,254L406,274Z" fill="#09696d" stroke="#09696d" stroke-width="1.51"></path><path d="M230,-97L324,9L345,-79Z" fill="#389a99" stroke="#389a99" stroke-width="1.51"></path><path d="M212,191L307,254L346,182Z" fill="#0f6d71" stroke="#0f6d71" stroke-width="1.51"></path><path d="M269,68L212,191L346,182Z" fill="#137175" stroke="#137175" stroke-width="1.51"></path><path d="M339,60L269,68L346,182Z" fill="#137276" stroke="#137276" stroke-width="1.51"></path><path d="M230,-97L208,3L324,9Z" fill="#339494" stroke="#339494" stroke-width="1.51"></path><path d="M324,9L269,68L339,60Z" fill="#207e81" stroke="#207e81" stroke-width="1.51"></path><path d="M212,191L273,268L307,254Z" fill="#0e6c70" stroke="#0e6c70" stroke-width="1.51"></path><path d="M208,3L269,68L324,9Z" fill="#268587" stroke="#268587" stroke-width="1.51"></path><path d="M78,-80L151,-70L230,-97Z" fill="#42a8a6" stroke="#42a8a6" stroke-width="1.51"></path><path d="M155,169L212,191L269,68Z" fill="#157478" stroke="#157478" stroke-width="1.51"></path><path d="M125,99L155,169L269,68Z" fill="#18777b" stroke="#18777b" stroke-width="1.51"></path><path d="M212,191L154,286L273,268Z" fill="#0f6e72" stroke="#0f6e72" stroke-width="1.51"></path><path d="M208,3L125,99L269,68Z" fill="#218083" stroke="#218083" stroke-width="1.51"></path><path d="M151,-70L208,3L230,-97Z" fill="#3b9e9d" stroke="#3b9e9d" stroke-width="1.51"></path><path d="M-116,-84L-30,-62L78,-80Z" fill="#5cc8c1" stroke="#5cc8c1" stroke-width="1.51"></path><path d="M151,-70L121,-18L208,3Z" fill="#369898" stroke="#369898" stroke-width="1.51"></path><path d="M121,-18L125,99L208,3Z" fill="#298a8c" stroke="#298a8c" stroke-width="1.51"></path><path d="M155,169L154,286L212,191Z" fill="#127175" stroke="#127175" stroke-width="1.51"></path><path d="M121,-18L76,-6L125,99Z" fill="#329393" stroke="#329393" stroke-width="1.51"></path><path d="M125,99L62,186L155,169Z" fill="#1e7d80" stroke="#1e7d80" stroke-width="1.51"></path><path d="M87,271L154,286L155,169Z" fill="#167478" stroke="#167478" stroke-width="1.51"></path><path d="M62,186L87,271L155,169Z" fill="#1e7c7f" stroke="#1e7c7f" stroke-width="1.51"></path><path d="M78,-80L121,-18L151,-70Z" fill="#42a7a5" stroke="#42a7a5" stroke-width="1.51"></path><path d="M78,-80L76,-6L121,-18Z" fill="#41a6a4" stroke="#41a6a4" stroke-width="1.51"></path><path d="M76,-6L51,106L125,99Z" fill="#2c8c8e" stroke="#2c8c8e" stroke-width="1.51"></path><path d="M51,106L62,186L125,99Z" fill="#258587" stroke="#258587" stroke-width="1.51"></path><path d="M-11,93L51,106L76,-6Z" fill="#339596" stroke="#339596" stroke-width="1.51"></path><path d="M-16,-23L-11,93L76,-6Z" fill="#41a5a3" stroke="#41a5a3" stroke-width="1.51"></path><path d="M-16,-23L76,-6L78,-80Z" fill="#49b0ac" stroke="#49b0ac" stroke-width="1.51"></path><path d="M62,186L-2,259L87,271Z" fill="#268485" stroke="#268485" stroke-width="1.51"></path><path d="M-30,-62L-16,-23L78,-80Z" fill="#53bcb6" stroke="#53bcb6" stroke-width="1.51"></path><path d="M-23,208L-2,259L62,186Z" fill="#2d8c8d" stroke="#2d8c8d" stroke-width="1.51"></path><path d="M51,106L-11,93L62,186Z" fill="#2d8d8e" stroke="#2d8d8e" stroke-width="1.51"></path><path d="M-11,93L-23,208L62,186Z" fill="#309091" stroke="#309091" stroke-width="1.51"></path><path d="M-96,-36L-125,78L-16,-23Z" fill="#53bdb7" stroke="#53bdb7" stroke-width="1.51"></path><path d="M-104,149L-23,208L-11,93Z" fill="#399c9b" stroke="#399c9b" stroke-width="1.51"></path><path d="M-16,-23L-125,78L-11,93Z" fill="#45aba8" stroke="#45aba8" stroke-width="1.51"></path><path d="M-23,208L-140,261L-2,259Z" fill="#379896" stroke="#379896" stroke-width="1.51"></path><path d="M-125,78L-104,149L-11,93Z" fill="#41a5a3" stroke="#41a5a3" stroke-width="1.51"></path><path d="M-30,-62L-96,-36L-16,-23Z" fill="#58c3bd" stroke="#58c3bd" stroke-width="1.51"></path><path d="M-104,149L-140,261L-23,208Z" fill="#3da09e" stroke="#3da09e" stroke-width="1.51"></path><path d="M-116,-84L-96,-36L-30,-62Z" fill="#61d0c8" stroke="#61d0c8" stroke-width="1.51"></path><path d="M-116,-84L-125,78L-96,-36Z" fill="#5dc9c2" stroke="#5dc9c2" stroke-width="1.51"></path><path d="M-125,78L-140,261L-104,149Z" fill="#45aaa7" stroke="#45aaa7" stroke-width="1.51"></path></svg>