<svg width="300" height="176" xmlns="http://www.w3.org/2000/svg"><path d="M157,71L159,24L88,90Z" fill="#248486" stroke="#248486" stroke-width="1.51"></path><path d="M159,24L65,-16L88,90Z" fill="#309192" stroke="#309192" stroke-width="1.51"></path><path d="M159,24L156,-70L65,-16Z" fill="#399c9b" stroke="#399c9b" stroke-width="1.51"></path><path d="M170,182L234,111L157,71Z" fill="#17767a" stroke="#17767a" stroke-width="1.51"></path><path d="M-56,110L42,151L88,90Z" fill="#2f9091" stroke="#2f9091" stroke-width="1.51"></path><path d="M156,-70L73,-79L65,-16Z" fill="#45aba8" stroke="#45aba8" stroke-width="1.51"></path><path d="M65,-16L-56,110L88,90Z" fill="#359797" stroke="#359797" stroke-width="1.51"></path><path d="M157,71L244,-5L159,24Z" fill="#27888a" stroke="#27888a" stroke-width="1.51"></path><path d="M159,24L244,-5L156,-70Z" fill="#339495" stroke="#339495" stroke-width="1.51"></path><path d="M170,182L157,71L88,90Z" fill="#1b7a7e" stroke="#1b7a7e" stroke-width="1.51"></path><path d="M234,111L244,-5L157,71Z" fill="#207f82" stroke="#207f82" stroke-width="1.51"></path><path d="M42,151L170,182L88,90Z" fill="#218083" stroke="#218083" stroke-width="1.51"></path><path d="M-57,-25L-56,110L65,-16Z" fill="#46aba8" stroke="#46aba8" stroke-width="1.51"></path><path d="M170,182L224,192L234,111Z" fill="#147377" stroke="#147377" stroke-width="1.51"></path><path d="M73,-79L-57,-25L65,-16Z" fill="#4db4b0" stroke="#4db4b0" stroke-width="1.51"></path><path d="M-56,110L-35,176L42,151Z" fill="#359696" stroke="#359696" stroke-width="1.51"></path><path d="M42,151L46,260L170,182Z" fill="#217f82" stroke="#217f82" stroke-width="1.51"></path><path d="M170,182L217,254L224,192Z" fill="#127074" stroke="#127074" stroke-width="1.51"></path><path d="M244,-5L259,-88L156,-70Z" fill="#3a9d9c" stroke="#3a9d9c" stroke-width="1.51"></path><path d="M156,-70L259,-88L73,-79Z" fill="#41a6a4" stroke="#41a6a4" stroke-width="1.51"></path><path d="M315,-93L259,-88L244,-5Z" fill="#3b9d9c" stroke="#3b9d9c" stroke-width="1.51"></path><path d="M324,66L244,-5L234,111Z" fill="#1e7d80" stroke="#1e7d80" stroke-width="1.51"></path><path d="M305,170L324,66L234,111Z" fill="#147377" stroke="#147377" stroke-width="1.51"></path><path d="M259,-88L-36,-120L73,-79Z" fill="#4db6b1" stroke="#4db6b1" stroke-width="1.51"></path><path d="M73,-79L-36,-120L-57,-25Z" fill="#59c5be" stroke="#59c5be" stroke-width="1.51"></path><path d="M3,261L46,260L42,151Z" fill="#2a8889" stroke="#2a8889" stroke-width="1.51"></path><path d="M224,192L305,170L234,111Z" fill="#137175" stroke="#137175" stroke-width="1.51"></path><path d="M217,254L305,170L224,192Z" fill="#106f73" stroke="#106f73" stroke-width="1.51"></path><path d="M149,294L217,254L170,182Z" fill="#117074" stroke="#117074" stroke-width="1.51"></path><path d="M-35,176L3,261L42,151Z" fill="#2f8f8f" stroke="#2f8f8f" stroke-width="1.51"></path><path d="M259,-88L315,-93L-36,-120Z" fill="#46aba9" stroke="#46aba9" stroke-width="1.51"></path><path d="M354,-17L315,-93L244,-5Z" fill="#349594" stroke="#349594" stroke-width="1.51"></path><path d="M446,66L354,-17L324,66Z" fill="#207d80" stroke="#207d80" stroke-width="1.51"></path><path d="M324,66L354,-17L244,-5Z" fill="#288788" stroke="#288788" stroke-width="1.51"></path><path d="M46,260L149,294L170,182Z" fill="#187679" stroke="#187679" stroke-width="1.51"></path><path d="M3,261L149,294L46,260Z" fill="#217f81" stroke="#217f81" stroke-width="1.51"></path><path d="M-146,11L-56,110L-57,-25Z" fill="#4fb7b3" stroke="#4fb7b3" stroke-width="1.51"></path><path d="M-146,11L-131,114L-56,110Z" fill="#48afac" stroke="#48afac" stroke-width="1.51"></path><path d="M-56,110L-131,114L-35,176Z" fill="#3ea2a1" stroke="#3ea2a1" stroke-width="1.51"></path><path d="M-35,176L-118,285L3,261Z" fill="#369795" stroke="#369795" stroke-width="1.51"></path><path d="M-148,-78L-146,11L-57,-25Z" fill="#60cfc7" stroke="#60cfc7" stroke-width="1.51"></path><path d="M-36,-120L-148,-78L-57,-25Z" fill="#65d4cb" stroke="#65d4cb" stroke-width="1.51"></path><path d="M-131,114L-153,178L-35,176Z" fill="#43a7a4" stroke="#43a7a4" stroke-width="1.51"></path><path d="M-146,11L-153,178L-131,114Z" fill="#4ab2ae" stroke="#4ab2ae" stroke-width="1.51"></path><path d="M-148,-78L-153,178L-146,11Z" fill="#57c2bc" stroke="#57c2bc" stroke-width="1.51"></path><path d="M305,170L399,185L324,66Z" fill="#106f73" stroke="#106f73" stroke-width="1.51"></path><path d="M328,301L399,185L305,170Z" fill="#0c6a6e" stroke="#0c6a6e" stroke-width="1.51"></path><path d="M328,301L305,170L217,254Z" fill="#0d6b6f" stroke="#0d6b6f" stroke-width="1.51"></path><path d="M-153,178L-118,285L-35,176Z" fill="#3fa3a0" stroke="#3fa3a0" stroke-width="1.51"></path><path d="M3,261L-118,285L149,294Z" fill="#2b8989" stroke="#2b8989" stroke-width="1.51"></path><path d="M399,185L446,66L324,66Z" fill="#106f73" stroke="#106f73" stroke-width="1.51"></path><path d="M354,-17L446,-72L315,-93Z" fill="#379897" stroke="#379897" stroke-width="1.51"></path><path d="M-118,285L328,301L149,294Z" fill="#167377" stroke="#167377" stroke-width="1.51"></path><path d="M149,294L328,301L217,254Z" fill="#0c6b6f" stroke="#0c6b6f" stroke-width="1.51"></path><path d="M446,66L447,-26L354,-17Z" fill="#268485" stroke="#268485" stroke-width="1.51"></path><path d="M447,-26L446,-72L354,-17Z" fill="#31908f" stroke="#31908f" stroke-width="1.51"></path><path d="M446,66L453,239L447,-26Z" fill="#0f6d71" stroke="#0f6d71" stroke-width="1.51"></path><path d="M447,-26L453,239L446,-72Z" fill="#1b787b" stroke="#1b787b" stroke-width="1.51"></path><path d="M399,185L453,239L446,66Z" fill="#0b6a6e" stroke="#0b6a6e" stroke-width="1.51"></path><path d="M328,301L453,239L399,185Z" fill="#07676b" stroke="#07676b" stroke-width="1.51"></path></svg>