<svg width="300" height="176" xmlns="http://www.w3.org/2000/svg"><path d="M-28,266L-147,296L146,270Z" fill="#2e8d8d" stroke="#2e8d8d" stroke-width="1.51"></path><path d="M143,-80L234,-85L335,-104Z" fill="#41a6a3" stroke="#41a6a3" stroke-width="1.51"></path><path d="M-141,-118L143,-80L335,-104Z" fill="#4cb4b0" stroke="#4cb4b0" stroke-width="1.51"></path><path d="M146,270L-147,296L398,296Z" fill="#147275" stroke="#147275" stroke-width="1.51"></path><path d="M270,261L146,270L398,296Z" fill="#0b6a6e" stroke="#0b6a6e" stroke-width="1.51"></path><path d="M-141,-118L335,-104L402,-116Z" fill="#48aeab" stroke="#48aeab" stroke-width="1.51"></path><path d="M335,-104L362,-14L402,-116Z" fill="#3b9d9b" stroke="#3b9d9b" stroke-width="1.51"></path><path d="M297,247L398,296L404,183Z" fill="#08686c" stroke="#08686c" stroke-width="1.51"></path><path d="M402,-116L362,-14L409,17Z" fill="#319191" stroke="#319191" stroke-width="1.51"></path><path d="M404,183L398,296L431,88Z" fill="#09696d" stroke="#09696d" stroke-width="1.51"></path><path d="M409,17L362,86L431,88Z" fill="#187679" stroke="#187679" stroke-width="1.51"></path><path d="M362,86L404,183L431,88Z" fill="#0f6d71" stroke="#0f6d71" stroke-width="1.51"></path><path d="M402,-116L409,17L431,88Z" fill="#298788" stroke="#298788" stroke-width="1.51"></path><path d="M362,86L302,164L404,183Z" fill="#0f6e72" stroke="#0f6e72" stroke-width="1.51"></path><path d="M302,164L297,247L404,183Z" fill="#0d6c70" stroke="#0d6c70" stroke-width="1.51"></path><path d="M362,-14L362,86L409,17Z" fill="#228082" stroke="#228082" stroke-width="1.51"></path><path d="M297,247L270,261L398,296Z" fill="#09686c" stroke="#09686c" stroke-width="1.51"></path><path d="M219,72L302,164L362,86Z" fill="#147377" stroke="#147377" stroke-width="1.51"></path><path d="M213,23L219,72L362,86Z" fill="#1d7c7f" stroke="#1d7c7f" stroke-width="1.51"></path><path d="M335,-104L234,-85L362,-14Z" fill="#3b9d9b" stroke="#3b9d9b" stroke-width="1.51"></path><path d="M234,-85L213,23L362,-14Z" fill="#329393" stroke="#329393" stroke-width="1.51"></path><path d="M213,23L362,86L362,-14Z" fill="#248284" stroke="#248284" stroke-width="1.51"></path><path d="M-141,-118L69,-63L143,-80Z" fill="#57c3bc" stroke="#57c3bc" stroke-width="1.51"></path><path d="M-141,-118L-41,-70L69,-63Z" fill="#60cec6" stroke="#60cec6" stroke-width="1.51"></path><path d="M219,185L270,261L297,247Z" fill="#0e6d71" stroke="#0e6d71" stroke-width="1.51"></path><path d="M219,185L297,247L302,164Z" fill="#106e72" stroke="#106e72" stroke-width="1.51"></path><path d="M219,72L219,185L302,164Z" fill="#147377" stroke="#147377" stroke-width="1.51"></path><path d="M219,185L173,208L270,261Z" fill="#116f73" stroke="#116f73" stroke-width="1.51"></path><path d="M173,208L146,270L270,261Z" fill="#106f73" stroke="#106f73" stroke-width="1.51"></path><path d="M219,72L142,79L219,185Z" fill="#18767a" stroke="#18767a" stroke-width="1.51"></path><path d="M142,79L173,208L219,185Z" fill="#167579" stroke="#167579" stroke-width="1.51"></path><path d="M151,-10L213,23L234,-85Z" fill="#349696" stroke="#349696" stroke-width="1.51"></path><path d="M143,-80L151,-10L234,-85Z" fill="#3ca09f" stroke="#3ca09f" stroke-width="1.51"></path><path d="M213,23L142,79L219,72Z" fill="#208083" stroke="#208083" stroke-width="1.51"></path><path d="M151,-10L142,79L213,23Z" fill="#28888a" stroke="#28888a" stroke-width="1.51"></path><path d="M81,241L-28,266L146,270Z" fill="#228081" stroke="#228081" stroke-width="1.51"></path><path d="M142,79L35,194L173,208Z" fill="#1d7c7f" stroke="#1d7c7f" stroke-width="1.51"></path><path d="M35,194L81,241L173,208Z" fill="#1e7c7f" stroke="#1e7c7f" stroke-width="1.51"></path><path d="M81,241L146,270L173,208Z" fill="#167477" stroke="#167477" stroke-width="1.51"></path><path d="M32,77L35,194L142,79Z" fill="#278889" stroke="#278889" stroke-width="1.51"></path><path d="M52,2L142,79L151,-10Z" fill="#309192" stroke="#309192" stroke-width="1.51"></path><path d="M143,-80L69,-63L151,-10Z" fill="#40a5a3" stroke="#40a5a3" stroke-width="1.51"></path><path d="M69,-63L52,2L151,-10Z" fill="#3fa3a1" stroke="#3fa3a1" stroke-width="1.51"></path><path d="M52,2L32,77L142,79Z" fill="#309192" stroke="#309192" stroke-width="1.51"></path><path d="M32,77L-7,90L35,194Z" fill="#309191" stroke="#309191" stroke-width="1.51"></path><path d="M35,194L-28,266L81,241Z" fill="#2a8889" stroke="#2a8889" stroke-width="1.51"></path><path d="M-4,24L32,77L52,2Z" fill="#3ca09f" stroke="#3ca09f" stroke-width="1.51"></path><path d="M-41,-70L52,2L69,-63Z" fill="#4eb5b1" stroke="#4eb5b1" stroke-width="1.51"></path><path d="M-41,-70L-4,24L52,2Z" fill="#4bb2ae" stroke="#4bb2ae" stroke-width="1.51"></path><path d="M-4,24L-7,90L32,77Z" fill="#399c9b" stroke="#399c9b" stroke-width="1.51"></path><path d="M-7,90L-62,196L35,194Z" fill="#349494" stroke="#349494" stroke-width="1.51"></path><path d="M-62,196L-28,266L35,194Z" fill="#329292" stroke="#329292" stroke-width="1.51"></path><path d="M-131,82L-62,196L-7,90Z" fill="#3ea1a0" stroke="#3ea1a0" stroke-width="1.51"></path><path d="M-41,-70L-127,-16L-4,24Z" fill="#56c0ba" stroke="#56c0ba" stroke-width="1.51"></path><path d="M-131,82L-7,90L-4,24Z" fill="#41a6a4" stroke="#41a6a4" stroke-width="1.51"></path><path d="M-127,-16L-131,82L-4,24Z" fill="#4fb8b3" stroke="#4fb8b3" stroke-width="1.51"></path><path d="M-62,196L-147,296L-28,266Z" fill="#3a9c9a" stroke="#3a9c9a" stroke-width="1.51"></path><path d="M-131,82L-142,206L-62,196Z" fill="#43a8a5" stroke="#43a8a5" stroke-width="1.51"></path><path d="M-142,206L-147,296L-62,196Z" fill="#41a4a1" stroke="#41a4a1" stroke-width="1.51"></path><path d="M-141,-118L-127,-16L-41,-70Z" fill="#67d7ce" stroke="#67d7ce" stroke-width="1.51"></path><path d="M-141,-118L-131,82L-127,-16Z" fill="#60cec7" stroke="#60cec7" stroke-width="1.51"></path><path d="M-141,-118L-142,206L-131,82Z" fill="#51bbb5" stroke="#51bbb5" stroke-width="1.51"></path><path d="M-147,296L-142,206L-141,-118Z" fill="#49b0ac" stroke="#49b0ac" stroke-width="1.51"></path></svg>