<svg width="300" height="176" xmlns="http://www.w3.org/2000/svg"><path d="M150,277L-90,301L345,284Z" fill="#137175" stroke="#137175" stroke-width="1.51"></path><path d="M235,259L150,277L345,284Z" fill="#0c6b6f" stroke="#0c6b6f" stroke-width="1.51"></path><path d="M272,-101L311,-89L398,-82Z" fill="#40999d" stroke="#40999d" stroke-width="1.51"></path><path d="M396,4L355,64L433,100Z" fill="#1b777b" stroke="#1b777b" stroke-width="1.51"></path><path d="M340,151L410,189L433,100Z" fill="#0e6c70" stroke="#0e6c70" stroke-width="1.51"></path><path d="M398,-82L396,4L433,100Z" fill="#278084" stroke="#278084" stroke-width="1.51"></path><path d="M410,189L345,284L435,270Z" fill="#07666a" stroke="#07666a" stroke-width="1.51"></path><path d="M433,100L410,189L435,270Z" fill="#0a696d" stroke="#0a696d" stroke-width="1.51"></path><path d="M355,64L340,151L433,100Z" fill="#116f73" stroke="#116f73" stroke-width="1.51"></path><path d="M-11,274L-90,301L150,277Z" fill="#2a8387" stroke="#2a8387" stroke-width="1.51"></path><path d="M324,-25L396,4L398,-82Z" fill="#328b8f" stroke="#328b8f" stroke-width="1.51"></path><path d="M340,151L345,284L410,189Z" fill="#0b6a6e" stroke="#0b6a6e" stroke-width="1.51"></path><path d="M340,151L268,205L345,284Z" fill="#0d6b6f" stroke="#0d6b6f" stroke-width="1.51"></path><path d="M311,-89L324,-25L398,-82Z" fill="#3a9397" stroke="#3a9397" stroke-width="1.51"></path><path d="M324,-25L355,64L396,4Z" fill="#278185" stroke="#278185" stroke-width="1.51"></path><path d="M270,74L340,151L355,64Z" fill="#137276" stroke="#137276" stroke-width="1.51"></path><path d="M324,-25L270,74L355,64Z" fill="#237e82" stroke="#237e82" stroke-width="1.51"></path><path d="M255,-14L270,74L324,-25Z" fill="#2a8589" stroke="#2a8589" stroke-width="1.51"></path><path d="M268,205L235,259L345,284Z" fill="#0c6b6f" stroke="#0c6b6f" stroke-width="1.51"></path><path d="M270,74L268,205L340,151Z" fill="#127175" stroke="#127175" stroke-width="1.51"></path><path d="M272,-101L255,-14L311,-89Z" fill="#3d969a" stroke="#3d969a" stroke-width="1.51"></path><path d="M311,-89L255,-14L324,-25Z" fill="#369094" stroke="#369094" stroke-width="1.51"></path><path d="M148,114L125,167L268,205Z" fill="#157478" stroke="#157478" stroke-width="1.51"></path><path d="M148,114L268,205L270,74Z" fill="#157478" stroke="#157478" stroke-width="1.51"></path><path d="M255,-14L148,114L270,74Z" fill="#207d81" stroke="#207d81" stroke-width="1.51"></path><path d="M155,-116L255,-14L272,-101Z" fill="#409b9f" stroke="#409b9f" stroke-width="1.51"></path><path d="M125,167L235,259L268,205Z" fill="#127074" stroke="#127074" stroke-width="1.51"></path><path d="M155,-116L116,-32L255,-14Z" fill="#3c989b" stroke="#3c989b" stroke-width="1.51"></path><path d="M116,-32L148,114L255,-14Z" fill="#2b878b" stroke="#2b878b" stroke-width="1.51"></path><path d="M125,167L150,277L235,259Z" fill="#127074" stroke="#127074" stroke-width="1.51"></path><path d="M116,-32L89,82L148,114Z" fill="#2a868a" stroke="#2a868a" stroke-width="1.51"></path><path d="M52,249L-11,274L150,277Z" fill="#237d81" stroke="#237d81" stroke-width="1.51"></path><path d="M125,167L67,193L150,277Z" fill="#1b787c" stroke="#1b787c" stroke-width="1.51"></path><path d="M67,193L52,249L150,277Z" fill="#1f7a7e" stroke="#1f7a7e" stroke-width="1.51"></path><path d="M42,-113L116,-32L155,-116Z" fill="#4ba7ab" stroke="#4ba7ab" stroke-width="1.51"></path><path d="M42,-1L89,82L116,-32Z" fill="#389498" stroke="#389498" stroke-width="1.51"></path><path d="M89,82L125,167L148,114Z" fill="#1f7c80" stroke="#1f7c80" stroke-width="1.51"></path><path d="M89,82L67,193L125,167Z" fill="#237f83" stroke="#237f83" stroke-width="1.51"></path><path d="M42,-113L42,-1L116,-32Z" fill="#49a5a9" stroke="#49a5a9" stroke-width="1.51"></path><path d="M42,-1L-11,24L89,82Z" fill="#3b969a" stroke="#3b969a" stroke-width="1.51"></path><path d="M-55,119L67,193L89,82Z" fill="#2e898d" stroke="#2e898d" stroke-width="1.51"></path><path d="M-11,24L-55,119L89,82Z" fill="#379397" stroke="#379397" stroke-width="1.51"></path><path d="M42,-113L-55,-109L42,-1Z" fill="#57b4b8" stroke="#57b4b8" stroke-width="1.51"></path><path d="M-11,274L52,249L67,193Z" fill="#298286" stroke="#298286" stroke-width="1.51"></path><path d="M-64,146L-11,274L67,193Z" fill="#318a8e" stroke="#318a8e" stroke-width="1.51"></path><path d="M-55,119L-64,146L67,193Z" fill="#358f93" stroke="#358f93" stroke-width="1.51"></path><path d="M-55,-109L-11,24L42,-1Z" fill="#50acb0" stroke="#50acb0" stroke-width="1.51"></path><path d="M-89,-91L-131,-4L-11,24Z" fill="#5ab6ba" stroke="#5ab6ba" stroke-width="1.51"></path><path d="M-131,-4L-99,57L-11,24Z" fill="#4facb0" stroke="#4facb0" stroke-width="1.51"></path><path d="M-55,-109L-89,-91L-11,24Z" fill="#5dbabe" stroke="#5dbabe" stroke-width="1.51"></path><path d="M-99,57L-55,119L-11,24Z" fill="#439fa3" stroke="#439fa3" stroke-width="1.51"></path><path d="M-64,146L-90,301L-11,274Z" fill="#389094" stroke="#389094" stroke-width="1.51"></path><path d="M-152,158L-90,301L-64,146Z" fill="#419a9e" stroke="#419a9e" stroke-width="1.51"></path><path d="M-152,158L-64,146L-55,119Z" fill="#419ca0" stroke="#419ca0" stroke-width="1.51"></path><path d="M-99,57L-152,158L-55,119Z" fill="#45a0a4" stroke="#45a0a4" stroke-width="1.51"></path><path d="M-131,-4L-152,158L-99,57Z" fill="#4ea9ad" stroke="#4ea9ad" stroke-width="1.51"></path></svg>