<svg width="300" height="176" xmlns="http://www.w3.org/2000/svg"><path d="M121,86L33,117L68,150Z" fill="#278789" stroke="#278789" stroke-width="1.51"></path><path d="M121,86L40,15L33,117Z" fill="#2d8e8f" stroke="#2d8e8f" stroke-width="1.51"></path><path d="M40,15L-14,71L33,117Z" fill="#369898" stroke="#369898" stroke-width="1.51"></path><path d="M68,150L169,182L121,86Z" fill="#1e7d80" stroke="#1e7d80" stroke-width="1.51"></path><path d="M121,86L156,1L40,15Z" fill="#309191" stroke="#309191" stroke-width="1.51"></path><path d="M241,90L156,1L121,86Z" fill="#218083" stroke="#218083" stroke-width="1.51"></path><path d="M33,117L-49,150L68,150Z" fill="#309091" stroke="#309091" stroke-width="1.51"></path><path d="M68,150L132,236L169,182Z" fill="#1a797c" stroke="#1a797c" stroke-width="1.51"></path><path d="M-14,71L-49,150L33,117Z" fill="#359797" stroke="#359797" stroke-width="1.51"></path><path d="M62,251L132,236L68,150Z" fill="#207e81" stroke="#207e81" stroke-width="1.51"></path><path d="M-4,259L62,251L68,150Z" fill="#288688" stroke="#288688" stroke-width="1.51"></path><path d="M-145,102L-97,165L-49,150Z" fill="#42a6a4" stroke="#42a6a4" stroke-width="1.51"></path><path d="M40,15L-11,-16L-14,71Z" fill="#42a7a5" stroke="#42a7a5" stroke-width="1.51"></path><path d="M44,-108L-11,-16L40,15Z" fill="#4cb4b0" stroke="#4cb4b0" stroke-width="1.51"></path><path d="M218,207L241,90L169,182Z" fill="#157377" stroke="#157377" stroke-width="1.51"></path><path d="M169,182L241,90L121,86Z" fill="#18777b" stroke="#18777b" stroke-width="1.51"></path><path d="M132,236L218,207L169,182Z" fill="#137276" stroke="#137276" stroke-width="1.51"></path><path d="M-49,150L-4,259L68,150Z" fill="#309090" stroke="#309090" stroke-width="1.51"></path><path d="M-49,150L-97,165L-4,259Z" fill="#389a99" stroke="#389a99" stroke-width="1.51"></path><path d="M-145,102L-49,150L-14,71Z" fill="#3ea3a1" stroke="#3ea3a1" stroke-width="1.51"></path><path d="M230,-30L181,-70L156,1Z" fill="#369998" stroke="#369998" stroke-width="1.51"></path><path d="M156,1L44,-108L40,15Z" fill="#42a7a5" stroke="#42a7a5" stroke-width="1.51"></path><path d="M241,90L230,-30L156,1Z" fill="#2a898b" stroke="#2a898b" stroke-width="1.51"></path><path d="M181,-70L44,-108L156,1Z" fill="#41a6a3" stroke="#41a6a3" stroke-width="1.51"></path><path d="M-154,23L-145,102L-14,71Z" fill="#4ab1ad" stroke="#4ab1ad" stroke-width="1.51"></path><path d="M-154,23L-14,71L-11,-16Z" fill="#4bb3b0" stroke="#4bb3b0" stroke-width="1.51"></path><path d="M44,-108L-55,-81L-11,-16Z" fill="#58c3bd" stroke="#58c3bd" stroke-width="1.51"></path><path d="M218,207L315,144L241,90Z" fill="#137276" stroke="#137276" stroke-width="1.51"></path><path d="M132,236L255,255L218,207Z" fill="#106f73" stroke="#106f73" stroke-width="1.51"></path><path d="M297,289L255,255L132,236Z" fill="#0e6c70" stroke="#0e6c70" stroke-width="1.51"></path><path d="M297,289L132,236L62,251Z" fill="#106f73" stroke="#106f73" stroke-width="1.51"></path><path d="M255,255L315,144L218,207Z" fill="#106f73" stroke="#106f73" stroke-width="1.51"></path><path d="M241,90L351,21L230,-30Z" fill="#268587" stroke="#268587" stroke-width="1.51"></path><path d="M-55,-81L-154,23L-11,-16Z" fill="#59c4be" stroke="#59c4be" stroke-width="1.51"></path><path d="M315,144L332,82L241,90Z" fill="#147377" stroke="#147377" stroke-width="1.51"></path><path d="M320,-78L234,-117L230,-30Z" fill="#3ea19f" stroke="#3ea19f" stroke-width="1.51"></path><path d="M230,-30L234,-117L181,-70Z" fill="#3ea2a1" stroke="#3ea2a1" stroke-width="1.51"></path><path d="M181,-70L234,-117L44,-108Z" fill="#46aca9" stroke="#46aca9" stroke-width="1.51"></path><path d="M-55,-81L-118,-85L-154,23Z" fill="#63d2ca" stroke="#63d2ca" stroke-width="1.51"></path><path d="M44,-108L-118,-85L-55,-81Z" fill="#62d1c9" stroke="#62d1c9" stroke-width="1.51"></path><path d="M-4,259L-123,298L62,251Z" fill="#31908f" stroke="#31908f" stroke-width="1.51"></path><path d="M-97,165L-123,298L-4,259Z" fill="#3a9b9a" stroke="#3a9b9a" stroke-width="1.51"></path><path d="M-145,102L-123,298L-97,165Z" fill="#44a8a5" stroke="#44a8a5" stroke-width="1.51"></path><path d="M-154,23L-123,298L-145,102Z" fill="#48afab" stroke="#48afab" stroke-width="1.51"></path><path d="M332,82L351,21L241,90Z" fill="#1b797d" stroke="#1b797d" stroke-width="1.51"></path><path d="M389,-11L351,21L432,73Z" fill="#228082" stroke="#228082" stroke-width="1.51"></path><path d="M432,73L351,21L332,82Z" fill="#1b787b" stroke="#1b787b" stroke-width="1.51"></path><path d="M255,255L297,289L315,144Z" fill="#0d6c70" stroke="#0d6c70" stroke-width="1.51"></path><path d="M-123,298L297,289L62,251Z" fill="#1f7c7e" stroke="#1f7c7e" stroke-width="1.51"></path><path d="M351,21L320,-78L230,-30Z" fill="#329292" stroke="#329292" stroke-width="1.51"></path><path d="M351,21L389,-11L320,-78Z" fill="#2f8f8f" stroke="#2f8f8f" stroke-width="1.51"></path><path d="M432,73L332,82L450,158Z" fill="#0f6e72" stroke="#0f6e72" stroke-width="1.51"></path><path d="M450,158L332,82L315,144Z" fill="#106e72" stroke="#106e72" stroke-width="1.51"></path><path d="M438,235L450,158L315,144Z" fill="#0b6a6e" stroke="#0b6a6e" stroke-width="1.51"></path><path d="M297,289L438,235L315,144Z" fill="#0b696d" stroke="#0b696d" stroke-width="1.51"></path><path d="M432,73L438,-114L389,-11Z" fill="#2c8a8b" stroke="#2c8a8b" stroke-width="1.51"></path><path d="M389,-11L438,-114L320,-78Z" fill="#399998" stroke="#399998" stroke-width="1.51"></path><path d="M320,-78L438,-114L234,-117Z" fill="#42a5a2" stroke="#42a5a2" stroke-width="1.51"></path><path d="M450,158L438,-114L432,73Z" fill="#1d7b7d" stroke="#1d7b7d" stroke-width="1.51"></path></svg>