<svg width="300" height="176" xmlns="http://www.w3.org/2000/svg"><path d="M181,113L159,153L270,169Z" fill="#157478" stroke="#157478" stroke-width="1.51"></path><path d="M270,169L255,89L181,113Z" fill="#157478" stroke="#157478" stroke-width="1.51"></path><path d="M270,169L300,93L255,89Z" fill="#147377" stroke="#147377" stroke-width="1.51"></path><path d="M212,274L307,195L270,169Z" fill="#0f6e72" stroke="#0f6e72" stroke-width="1.51"></path><path d="M307,195L300,93L270,169Z" fill="#117074" stroke="#117074" stroke-width="1.51"></path><path d="M159,153L212,274L270,169Z" fill="#127175" stroke="#127175" stroke-width="1.51"></path><path d="M159,153L136,294L212,274Z" fill="#127074" stroke="#127074" stroke-width="1.51"></path><path d="M38,71L68,204L159,153Z" fill="#238285" stroke="#238285" stroke-width="1.51"></path><path d="M300,93L266,12L255,89Z" fill="#1c7b7e" stroke="#1c7b7e" stroke-width="1.51"></path><path d="M255,89L266,12L181,113Z" fill="#1c7b7e" stroke="#1c7b7e" stroke-width="1.51"></path><path d="M181,113L38,71L159,153Z" fill="#1e7d80" stroke="#1e7d80" stroke-width="1.51"></path><path d="M68,204L136,294L159,153Z" fill="#1a787b" stroke="#1a787b" stroke-width="1.51"></path><path d="M444,77L322,23L300,93Z" fill="#19777b" stroke="#19777b" stroke-width="1.51"></path><path d="M212,274L326,275L307,195Z" fill="#0c6b6f" stroke="#0c6b6f" stroke-width="1.51"></path><path d="M136,294L326,275L212,274Z" fill="#0d6c70" stroke="#0d6c70" stroke-width="1.51"></path><path d="M300,93L322,23L266,12Z" fill="#228082" stroke="#228082" stroke-width="1.51"></path><path d="M390,196L300,93L307,195Z" fill="#0f6e72" stroke="#0f6e72" stroke-width="1.51"></path><path d="M68,204L70,253L136,294Z" fill="#1e7b7e" stroke="#1e7b7e" stroke-width="1.51"></path><path d="M326,275L390,196L307,195Z" fill="#0b6a6e" stroke="#0b6a6e" stroke-width="1.51"></path><path d="M266,12L127,1L181,113Z" fill="#258487" stroke="#258487" stroke-width="1.51"></path><path d="M127,1L38,71L181,113Z" fill="#288789" stroke="#288789" stroke-width="1.51"></path><path d="M68,204L-8,196L70,253Z" fill="#288688" stroke="#288688" stroke-width="1.51"></path><path d="M38,71L-3,106L68,204Z" fill="#2d8d8e" stroke="#2d8d8e" stroke-width="1.51"></path><path d="M38,71L-19,13L-3,106Z" fill="#399c9b" stroke="#399c9b" stroke-width="1.51"></path><path d="M127,1L52,2L38,71Z" fill="#379999" stroke="#379999" stroke-width="1.51"></path><path d="M-3,106L-8,196L68,204Z" fill="#2e8e8f" stroke="#2e8e8f" stroke-width="1.51"></path><path d="M266,12L166,-67L127,1Z" fill="#339495" stroke="#339495" stroke-width="1.51"></path><path d="M127,1L75,-95L52,2Z" fill="#41a6a4" stroke="#41a6a4" stroke-width="1.51"></path><path d="M223,-90L166,-67L266,12Z" fill="#399b9a" stroke="#399b9a" stroke-width="1.51"></path><path d="M349,-123L223,-90L266,12Z" fill="#3b9e9c" stroke="#3b9e9c" stroke-width="1.51"></path><path d="M390,196L444,77L300,93Z" fill="#106e72" stroke="#106e72" stroke-width="1.51"></path><path d="M390,196L437,263L444,77Z" fill="#0a696d" stroke="#0a696d" stroke-width="1.51"></path><path d="M326,275L437,263L390,196Z" fill="#07676b" stroke="#07676b" stroke-width="1.51"></path><path d="M349,-123L266,12L322,23Z" fill="#329292" stroke="#329292" stroke-width="1.51"></path><path d="M444,77L403,-23L322,23Z" fill="#228082" stroke="#228082" stroke-width="1.51"></path><path d="M-3,106L-145,195L-8,196Z" fill="#3a9c9b" stroke="#3a9c9b" stroke-width="1.51"></path><path d="M52,2L-19,13L38,71Z" fill="#3ea2a0" stroke="#3ea2a0" stroke-width="1.51"></path><path d="M-56,-104L-19,13L52,2Z" fill="#50b8b4" stroke="#50b8b4" stroke-width="1.51"></path><path d="M-8,196L-21,301L70,253Z" fill="#2b8a8a" stroke="#2b8a8a" stroke-width="1.51"></path><path d="M70,253L-21,301L136,294Z" fill="#227f81" stroke="#227f81" stroke-width="1.51"></path><path d="M-147,258L-21,301L-8,196Z" fill="#379896" stroke="#379896" stroke-width="1.51"></path><path d="M444,77L402,-60L403,-23Z" fill="#298687" stroke="#298687" stroke-width="1.51"></path><path d="M403,-23L402,-60L322,23Z" fill="#2e8d8d" stroke="#2e8d8d" stroke-width="1.51"></path><path d="M223,-90L75,-95L166,-67Z" fill="#43a8a6" stroke="#43a8a6" stroke-width="1.51"></path><path d="M166,-67L75,-95L127,1Z" fill="#40a5a4" stroke="#40a5a4" stroke-width="1.51"></path><path d="M223,-90L349,-123L75,-95Z" fill="#45aaa7" stroke="#45aaa7" stroke-width="1.51"></path><path d="M402,-60L349,-123L322,23Z" fill="#369795" stroke="#369795" stroke-width="1.51"></path><path d="M-133,-27L-129,71L-19,13Z" fill="#52bcb7" stroke="#52bcb7" stroke-width="1.51"></path><path d="M-19,13L-129,71L-3,106Z" fill="#42a7a5" stroke="#42a7a5" stroke-width="1.51"></path><path d="M-129,71L-145,195L-3,106Z" fill="#41a7a4" stroke="#41a7a4" stroke-width="1.51"></path><path d="M-56,-104L-90,-60L-19,13Z" fill="#5bc8c1" stroke="#5bc8c1" stroke-width="1.51"></path><path d="M-145,195L-147,258L-8,196Z" fill="#3fa2a0" stroke="#3fa2a0" stroke-width="1.51"></path><path d="M75,-95L-56,-104L52,2Z" fill="#53bcb7" stroke="#53bcb7" stroke-width="1.51"></path><path d="M349,-123L-56,-104L75,-95Z" fill="#4cb4b0" stroke="#4cb4b0" stroke-width="1.51"></path><path d="M-56,-104L-133,-27L-90,-60Z" fill="#64d3cb" stroke="#64d3cb" stroke-width="1.51"></path><path d="M-90,-60L-133,-27L-19,13Z" fill="#5ac6bf" stroke="#5ac6bf" stroke-width="1.51"></path><path d="M-129,71L-133,-27L-145,195Z" fill="#4cb3af" stroke="#4cb3af" stroke-width="1.51"></path></svg>