<svg width="300" height="176" xmlns="http://www.w3.org/2000/svg"><path d="M162,63L244,3L151,-18Z" fill="#2b8c8d" stroke="#2b8c8d" stroke-width="1.51"></path><path d="M244,3L183,-63L151,-18Z" fill="#359696" stroke="#359696" stroke-width="1.51"></path><path d="M162,63L263,100L244,3Z" fill="#217f82" stroke="#217f82" stroke-width="1.51"></path><path d="M162,63L231,193L263,100Z" fill="#167579" stroke="#167579" stroke-width="1.51"></path><path d="M151,-18L63,58L162,63Z" fill="#2c8d8e" stroke="#2c8d8e" stroke-width="1.51"></path><path d="M27,-33L63,58L151,-18Z" fill="#3b9e9d" stroke="#3b9e9d" stroke-width="1.51"></path><path d="M263,100L313,79L244,3Z" fill="#1d7c7f" stroke="#1d7c7f" stroke-width="1.51"></path><path d="M344,-91L240,-112L244,3Z" fill="#3c9e9c" stroke="#3c9e9c" stroke-width="1.51"></path><path d="M244,3L240,-112L183,-63Z" fill="#3b9e9c" stroke="#3b9e9c" stroke-width="1.51"></path><path d="M313,79L356,-29L244,3Z" fill="#278687" stroke="#278687" stroke-width="1.51"></path><path d="M45,-73L151,-18L183,-63Z" fill="#3fa4a2" stroke="#3fa4a2" stroke-width="1.51"></path><path d="M45,-73L27,-33L151,-18Z" fill="#46aba9" stroke="#46aba9" stroke-width="1.51"></path><path d="M240,-112L45,-73L183,-63Z" fill="#42a7a5" stroke="#42a7a5" stroke-width="1.51"></path><path d="M144,192L231,193L162,63Z" fill="#167579" stroke="#167579" stroke-width="1.51"></path><path d="M263,100L332,168L313,79Z" fill="#137276" stroke="#137276" stroke-width="1.51"></path><path d="M63,58L144,192L162,63Z" fill="#1e7e81" stroke="#1e7e81" stroke-width="1.51"></path><path d="M356,-29L344,-91L244,3Z" fill="#349494" stroke="#349494" stroke-width="1.51"></path><path d="M313,79L435,29L356,-29Z" fill="#238183" stroke="#238183" stroke-width="1.51"></path><path d="M231,193L332,168L263,100Z" fill="#127175" stroke="#127175" stroke-width="1.51"></path><path d="M63,58L35,178L144,192Z" fill="#258486" stroke="#258486" stroke-width="1.51"></path><path d="M-32,108L35,178L63,58Z" fill="#309191" stroke="#309191" stroke-width="1.51"></path><path d="M27,-33L-32,108L63,58Z" fill="#3b9e9d" stroke="#3b9e9d" stroke-width="1.51"></path><path d="M440,66L435,29L313,79Z" fill="#1a787b" stroke="#1a787b" stroke-width="1.51"></path><path d="M356,-29L429,-112L344,-91Z" fill="#3b9c9a" stroke="#3b9c9a" stroke-width="1.51"></path><path d="M27,-33L-49,-34L-32,108Z" fill="#48aeab" stroke="#48aeab" stroke-width="1.51"></path><path d="M-18,-121L-49,-34L27,-33Z" fill="#58c3bd" stroke="#58c3bd" stroke-width="1.51"></path><path d="M231,193L261,256L332,168Z" fill="#0f6e72" stroke="#0f6e72" stroke-width="1.51"></path><path d="M152,273L261,256L231,193Z" fill="#0f6e72" stroke="#0f6e72" stroke-width="1.51"></path><path d="M152,273L231,193L144,192Z" fill="#127175" stroke="#127175" stroke-width="1.51"></path><path d="M45,-73L-18,-121L27,-33Z" fill="#55c0ba" stroke="#55c0ba" stroke-width="1.51"></path><path d="M240,-112L-18,-121L45,-73Z" fill="#50b9b4" stroke="#50b9b4" stroke-width="1.51"></path><path d="M416,149L440,66L313,79Z" fill="#106f73" stroke="#106f73" stroke-width="1.51"></path><path d="M416,149L313,79L332,168Z" fill="#106f73" stroke="#106f73" stroke-width="1.51"></path><path d="M35,251L152,273L144,192Z" fill="#1b787b" stroke="#1b787b" stroke-width="1.51"></path><path d="M396,295L416,149L332,168Z" fill="#0b696d" stroke="#0b696d" stroke-width="1.51"></path><path d="M440,66L429,-112L435,29Z" fill="#298687" stroke="#298687" stroke-width="1.51"></path><path d="M435,29L429,-112L356,-29Z" fill="#319090" stroke="#319090" stroke-width="1.51"></path><path d="M344,-91L429,-112L240,-112Z" fill="#42a5a2" stroke="#42a5a2" stroke-width="1.51"></path><path d="M240,-112L429,-112L-18,-121Z" fill="#47aeaa" stroke="#47aeaa" stroke-width="1.51"></path><path d="M35,178L35,251L144,192Z" fill="#248284" stroke="#248284" stroke-width="1.51"></path><path d="M-33,187L35,251L35,178Z" fill="#2d8d8d" stroke="#2d8d8d" stroke-width="1.51"></path><path d="M-32,108L-33,187L35,178Z" fill="#339494" stroke="#339494" stroke-width="1.51"></path><path d="M-137,93L-33,187L-32,108Z" fill="#3ea19f" stroke="#3ea19f" stroke-width="1.51"></path><path d="M152,273L346,293L261,256Z" fill="#0b6a6e" stroke="#0b6a6e" stroke-width="1.51"></path><path d="M261,256L346,293L332,168Z" fill="#0b6a6e" stroke="#0b6a6e" stroke-width="1.51"></path><path d="M-33,187L0,271L35,251Z" fill="#2e8e8e" stroke="#2e8e8e" stroke-width="1.51"></path><path d="M35,251L0,271L152,273Z" fill="#237f82" stroke="#237f82" stroke-width="1.51"></path><path d="M152,273L-123,295L346,293Z" fill="#167376" stroke="#167376" stroke-width="1.51"></path><path d="M-49,-34L-137,93L-32,108Z" fill="#47adab" stroke="#47adab" stroke-width="1.51"></path><path d="M-33,187L-123,295L0,271Z" fill="#369795" stroke="#369795" stroke-width="1.51"></path><path d="M-137,-93L-131,-21L-49,-34Z" fill="#63d2ca" stroke="#63d2ca" stroke-width="1.51"></path><path d="M-131,-21L-137,93L-49,-34Z" fill="#56c0bb" stroke="#56c0bb" stroke-width="1.51"></path><path d="M346,293L396,295L332,168Z" fill="#08686c" stroke="#08686c" stroke-width="1.51"></path><path d="M416,149L396,295L440,66Z" fill="#0b6a6e" stroke="#0b6a6e" stroke-width="1.51"></path><path d="M-131,-21L-137,-93L-137,93Z" fill="#5fccc4" stroke="#5fccc4" stroke-width="1.51"></path><path d="M-18,-121L-137,-93L-49,-34Z" fill="#64d4cb" stroke="#64d4cb" stroke-width="1.51"></path><path d="M-137,93L-147,197L-33,187Z" fill="#43a7a4" stroke="#43a7a4" stroke-width="1.51"></path><path d="M-137,-93L-147,197L-137,93Z" fill="#4fb9b3" stroke="#4fb9b3" stroke-width="1.51"></path><path d="M-147,197L-123,295L-33,187Z" fill="#3fa29f" stroke="#3fa29f" stroke-width="1.51"></path><path d="M0,271L-123,295L152,273Z" fill="#2b898a" stroke="#2b898a" stroke-width="1.51"></path><path d="M346,293L-123,295L396,295Z" fill="#0d6b6f" stroke="#0d6b6f" stroke-width="1.51"></path></svg>