<svg width="300" height="176" xmlns="http://www.w3.org/2000/svg"><path d="M134,76L48,84L123,176Z" fill="#2a8a8b" stroke="#2a8a8b" stroke-width="1.51"></path><path d="M48,84L49,175L123,176Z" fill="#309090" stroke="#309090" stroke-width="1.51"></path><path d="M78,282L129,272L123,176Z" fill="#1f7c7e" stroke="#1f7c7e" stroke-width="1.51"></path><path d="M48,84L-6,201L49,175Z" fill="#3ea09d" stroke="#3ea09d" stroke-width="1.51"></path><path d="M134,76L71,-26L48,84Z" fill="#4bb2af" stroke="#4bb2af" stroke-width="1.51"></path><path d="M48,84L-56,58L-6,201Z" fill="#4cb3ae" stroke="#4cb3ae" stroke-width="1.51"></path><path d="M134,76L138,-27L71,-26Z" fill="#55c0bb" stroke="#55c0bb" stroke-width="1.51"></path><path d="M123,176L238,74L134,76Z" fill="#177579" stroke="#177579" stroke-width="1.51"></path><path d="M78,282L123,176L49,175Z" fill="#298788" stroke="#298788" stroke-width="1.51"></path><path d="M123,176L235,201L238,74Z" fill="#0d6c70" stroke="#0d6c70" stroke-width="1.51"></path><path d="M238,74L138,-27L134,76Z" fill="#369897" stroke="#369897" stroke-width="1.51"></path><path d="M-6,201L78,282L49,175Z" fill="#389896" stroke="#389896" stroke-width="1.51"></path><path d="M129,272L235,201L123,176Z" fill="#0d6c70" stroke="#0d6c70" stroke-width="1.51"></path><path d="M-8,-33L-56,58L48,84Z" fill="#6bddd3" stroke="#6bddd3" stroke-width="1.51"></path><path d="M71,-26L-8,-33L48,84Z" fill="#6ee1d6" stroke="#6ee1d6" stroke-width="1.51"></path><path d="M138,-27L77,-62L71,-26Z" fill="#60cec6" stroke="#60cec6" stroke-width="1.51"></path><path d="M77,-62L-8,-33L71,-26Z" fill="#70e3d8" stroke="#70e3d8" stroke-width="1.51"></path><path d="M-6,201L-42,261L78,282Z" fill="#42a5a1" stroke="#42a5a1" stroke-width="1.51"></path><path d="M-135,211L-42,261L-6,201Z" fill="#45a9a4" stroke="#45a9a4" stroke-width="1.51"></path><path d="M77,-62L-16,-80L-8,-33Z" fill="#79f0e3" stroke="#79f0e3" stroke-width="1.51"></path><path d="M138,-27L120,-89L77,-62Z" fill="#5bc7c0" stroke="#5bc7c0" stroke-width="1.51"></path><path d="M214,-122L120,-89L138,-27Z" fill="#4eb6b2" stroke="#4eb6b2" stroke-width="1.51"></path><path d="M238,74L267,-6L138,-27Z" fill="#43a7a4" stroke="#43a7a4" stroke-width="1.51"></path><path d="M340,62L267,-6L238,74Z" fill="#2e8c8c" stroke="#2e8c8c" stroke-width="1.51"></path><path d="M-56,58L-119,87L-6,201Z" fill="#4cb3ae" stroke="#4cb3ae" stroke-width="1.51"></path><path d="M-136,13L-119,87L-56,58Z" fill="#62d1c9" stroke="#62d1c9" stroke-width="1.51"></path><path d="M-8,-33L-136,13L-56,58Z" fill="#78eee2" stroke="#78eee2" stroke-width="1.51"></path><path d="M120,-89L-16,-80L77,-62Z" fill="#6bddd3" stroke="#6bddd3" stroke-width="1.51"></path><path d="M357,186L340,62L238,74Z" fill="#0b6a6e" stroke="#0b6a6e" stroke-width="1.51"></path><path d="M129,272L261,289L235,201Z" fill="#08686c" stroke="#08686c" stroke-width="1.51"></path><path d="M78,282L261,289L129,272Z" fill="#0d6c70" stroke="#0d6c70" stroke-width="1.51"></path><path d="M-119,87L-135,211L-6,201Z" fill="#46aaa6" stroke="#46aaa6" stroke-width="1.51"></path><path d="M357,186L238,74L235,201Z" fill="#056569" stroke="#056569" stroke-width="1.51"></path><path d="M-119,87L-136,13L-135,211Z" fill="#4db4b0" stroke="#4db4b0" stroke-width="1.51"></path><path d="M-113,-87L-136,13L-8,-33Z" fill="#7ff8ea" stroke="#7ff8ea" stroke-width="1.51"></path><path d="M340,62L342,15L267,-6Z" fill="#389896" stroke="#389896" stroke-width="1.51"></path><path d="M267,-6L214,-122L138,-27Z" fill="#4bb2ad" stroke="#4bb2ad" stroke-width="1.51"></path><path d="M358,239L357,186L235,201Z" fill="#006064" stroke="#006064" stroke-width="1.51"></path><path d="M340,62L432,64L342,15Z" fill="#2a8889" stroke="#2a8889" stroke-width="1.51"></path><path d="M-135,211L-121,285L-42,261Z" fill="#45a9a4" stroke="#45a9a4" stroke-width="1.51"></path><path d="M-42,261L-121,285L78,282Z" fill="#45a9a4" stroke="#45a9a4" stroke-width="1.51"></path><path d="M78,282L-121,285L261,289Z" fill="#2d8b8b" stroke="#2d8b8b" stroke-width="1.51"></path><path d="M120,-89L214,-122L-16,-80Z" fill="#5dcac2" stroke="#5dcac2" stroke-width="1.51"></path><path d="M328,-107L214,-122L267,-6Z" fill="#47aca7" stroke="#47aca7" stroke-width="1.51"></path><path d="M261,289L358,239L235,201Z" fill="#016165" stroke="#016165" stroke-width="1.51"></path><path d="M-16,-80L-113,-87L-8,-33Z" fill="#7ff8ea" stroke="#7ff8ea" stroke-width="1.51"></path><path d="M214,-122L-113,-87L-16,-80Z" fill="#76ebdf" stroke="#76ebdf" stroke-width="1.51"></path><path d="M358,239L388,183L357,186Z" fill="#006064" stroke="#006064" stroke-width="1.51"></path><path d="M357,186L388,183L340,62Z" fill="#056468" stroke="#056468" stroke-width="1.51"></path><path d="M342,15L328,-107L267,-6Z" fill="#45a9a4" stroke="#45a9a4" stroke-width="1.51"></path><path d="M434,-97L328,-107L342,15Z" fill="#45a9a4" stroke="#45a9a4" stroke-width="1.51"></path><path d="M388,183L432,64L340,62Z" fill="#0b6a6e" stroke="#0b6a6e" stroke-width="1.51"></path><path d="M432,64L443,26L342,15Z" fill="#319090" stroke="#319090" stroke-width="1.51"></path><path d="M388,183L448,246L432,64Z" fill="#016165" stroke="#016165" stroke-width="1.51"></path><path d="M432,64L448,246L443,26Z" fill="#0a696d" stroke="#0a696d" stroke-width="1.51"></path><path d="M358,239L448,246L388,183Z" fill="#006064" stroke="#006064" stroke-width="1.51"></path><path d="M261,289L448,246L358,239Z" fill="#006064" stroke="#006064" stroke-width="1.51"></path><path d="M443,26L434,-97L342,15Z" fill="#45a9a4" stroke="#45a9a4" stroke-width="1.51"></path><path d="M328,-107L434,-97L214,-122Z" fill="#45a9a4" stroke="#45a9a4" stroke-width="1.51"></path></svg>