<svg width="300" height="176" xmlns="http://www.w3.org/2000/svg"><path d="M38,-115L128,-72L265,-69Z" fill="#45a1a5" stroke="#45a1a5" stroke-width="1.51"></path><path d="M270,269L138,259L310,286Z" fill="#0c6c70" stroke="#0c6c70" stroke-width="1.51"></path><path d="M138,259L-37,294L310,286Z" fill="#137175" stroke="#137175" stroke-width="1.51"></path><path d="M265,-69L342,-67L447,-85Z" fill="#3c9498" stroke="#3c9498" stroke-width="1.51"></path><path d="M38,-115L265,-69L447,-85Z" fill="#429ca0" stroke="#429ca0" stroke-width="1.51"></path><path d="M342,-67L425,-11L447,-85Z" fill="#368e92" stroke="#368e92" stroke-width="1.51"></path><path d="M313,99L400,198L453,62Z" fill="#0f6e72" stroke="#0f6e72" stroke-width="1.51"></path><path d="M425,-11L357,1L453,62Z" fill="#257e82" stroke="#257e82" stroke-width="1.51"></path><path d="M357,1L313,99L453,62Z" fill="#1c787c" stroke="#1c787c" stroke-width="1.51"></path><path d="M447,-85L425,-11L453,62Z" fill="#2b8387" stroke="#2b8387" stroke-width="1.51"></path><path d="M400,198L310,286L453,257Z" fill="#07676b" stroke="#07676b" stroke-width="1.51"></path><path d="M453,62L400,198L453,257Z" fill="#0a696d" stroke="#0a696d" stroke-width="1.51"></path><path d="M313,99L331,187L400,198Z" fill="#0e6d71" stroke="#0e6d71" stroke-width="1.51"></path><path d="M342,-67L357,1L425,-11Z" fill="#30898d" stroke="#30898d" stroke-width="1.51"></path><path d="M331,187L310,286L400,198Z" fill="#0b6a6e" stroke="#0b6a6e" stroke-width="1.51"></path><path d="M249,8L264,86L313,99Z" fill="#1d7a7e" stroke="#1d7a7e" stroke-width="1.51"></path><path d="M270,269L310,286L331,187Z" fill="#0b6a6e" stroke="#0b6a6e" stroke-width="1.51"></path><path d="M249,8L313,99L357,1Z" fill="#247e82" stroke="#247e82" stroke-width="1.51"></path><path d="M342,-67L265,-69L357,1Z" fill="#368f93" stroke="#368f93" stroke-width="1.51"></path><path d="M265,-69L249,8L357,1Z" fill="#318b8f" stroke="#318b8f" stroke-width="1.51"></path><path d="M264,86L231,203L313,99Z" fill="#147276" stroke="#147276" stroke-width="1.51"></path><path d="M313,99L231,203L331,187Z" fill="#116f73" stroke="#116f73" stroke-width="1.51"></path><path d="M231,203L270,269L331,187Z" fill="#0e6d71" stroke="#0e6d71" stroke-width="1.51"></path><path d="M50,258L-37,294L138,259Z" fill="#257f83" stroke="#257f83" stroke-width="1.51"></path><path d="M249,8L171,116L264,86Z" fill="#1c7a7e" stroke="#1c7a7e" stroke-width="1.51"></path><path d="M171,116L231,203L264,86Z" fill="#157478" stroke="#157478" stroke-width="1.51"></path><path d="M157,-32L249,8L265,-69Z" fill="#369094" stroke="#369094" stroke-width="1.51"></path><path d="M231,203L138,259L270,269Z" fill="#0f6e72" stroke="#0f6e72" stroke-width="1.51"></path><path d="M128,-72L157,-32L265,-69Z" fill="#3d989c" stroke="#3d989c" stroke-width="1.51"></path><path d="M157,-32L171,116L249,8Z" fill="#288488" stroke="#288488" stroke-width="1.51"></path><path d="M171,116L127,169L231,203Z" fill="#157478" stroke="#157478" stroke-width="1.51"></path><path d="M127,169L138,259L231,203Z" fill="#137276" stroke="#137276" stroke-width="1.51"></path><path d="M44,-20L69,114L157,-32Z" fill="#369195" stroke="#369195" stroke-width="1.51"></path><path d="M157,-32L69,114L171,116Z" fill="#248185" stroke="#248185" stroke-width="1.51"></path><path d="M69,114L127,169L171,116Z" fill="#1d7b7f" stroke="#1d7b7f" stroke-width="1.51"></path><path d="M128,-72L44,-20L157,-32Z" fill="#419ca0" stroke="#419ca0" stroke-width="1.51"></path><path d="M32,175L50,258L127,169Z" fill="#258084" stroke="#258084" stroke-width="1.51"></path><path d="M127,169L50,258L138,259Z" fill="#1d797d" stroke="#1d797d" stroke-width="1.51"></path><path d="M38,-115L44,-20L128,-72Z" fill="#4da9ad" stroke="#4da9ad" stroke-width="1.51"></path><path d="M69,114L32,175L127,169Z" fill="#258185" stroke="#258185" stroke-width="1.51"></path><path d="M-58,110L-16,150L69,114Z" fill="#348f93" stroke="#348f93" stroke-width="1.51"></path><path d="M-20,16L-58,110L69,114Z" fill="#389397" stroke="#389397" stroke-width="1.51"></path><path d="M-16,150L32,175L69,114Z" fill="#2e898d" stroke="#2e898d" stroke-width="1.51"></path><path d="M44,-20L-20,16L69,114Z" fill="#3c979b" stroke="#3c979b" stroke-width="1.51"></path><path d="M-96,-117L-38,-84L38,-115Z" fill="#65c1c5" stroke="#65c1c5" stroke-width="1.51"></path><path d="M38,-115L-38,-84L44,-20Z" fill="#56b2b6" stroke="#56b2b6" stroke-width="1.51"></path><path d="M32,175L-37,294L50,258Z" fill="#2c8589" stroke="#2c8589" stroke-width="1.51"></path><path d="M-97,238L-37,294L-16,150Z" fill="#389195" stroke="#389195" stroke-width="1.51"></path><path d="M-16,150L-37,294L32,175Z" fill="#318b8f" stroke="#318b8f" stroke-width="1.51"></path><path d="M-38,-84L-20,16L44,-20Z" fill="#50abaf" stroke="#50abaf" stroke-width="1.51"></path><path d="M-38,-84L-110,9L-20,16Z" fill="#56b2b6" stroke="#56b2b6" stroke-width="1.51"></path><path d="M-110,9L-58,110L-20,16Z" fill="#49a4a8" stroke="#49a4a8" stroke-width="1.51"></path><path d="M-58,110L-122,145L-16,150Z" fill="#3e989c" stroke="#3e989c" stroke-width="1.51"></path><path d="M-122,145L-97,238L-16,150Z" fill="#3f989c" stroke="#3f989c" stroke-width="1.51"></path><path d="M-110,9L-126,107L-58,110Z" fill="#48a3a7" stroke="#48a3a7" stroke-width="1.51"></path><path d="M-96,-117L-110,9L-38,-84Z" fill="#63c0c4" stroke="#63c0c4" stroke-width="1.51"></path><path d="M-126,107L-122,145L-58,110Z" fill="#449fa3" stroke="#449fa3" stroke-width="1.51"></path><path d="M-126,107L-110,9L-96,-117Z" fill="#5ab6ba" stroke="#5ab6ba" stroke-width="1.51"></path></svg>