<svg width="300" height="176" xmlns="http://www.w3.org/2000/svg"><path d="M130,116L164,149L209,71Z" fill="#19787c" stroke="#19787c" stroke-width="1.51"></path><path d="M209,71L120,0L130,116Z" fill="#218184" stroke="#218184" stroke-width="1.51"></path><path d="M130,116L45,168L164,149Z" fill="#1f7d80" stroke="#1f7d80" stroke-width="1.51"></path><path d="M61,23L77,111L130,116Z" fill="#278689" stroke="#278689" stroke-width="1.51"></path><path d="M209,24L120,0L209,71Z" fill="#28888a" stroke="#28888a" stroke-width="1.51"></path><path d="M164,149L252,199L209,71Z" fill="#167478" stroke="#167478" stroke-width="1.51"></path><path d="M209,71L313,-1L209,24Z" fill="#268587" stroke="#268587" stroke-width="1.51"></path><path d="M174,246L252,199L164,149Z" fill="#137175" stroke="#137175" stroke-width="1.51"></path><path d="M120,0L61,23L130,116Z" fill="#2d8d8f" stroke="#2d8d8f" stroke-width="1.51"></path><path d="M45,168L174,246L164,149Z" fill="#1a787b" stroke="#1a787b" stroke-width="1.51"></path><path d="M77,111L45,168L130,116Z" fill="#258486" stroke="#258486" stroke-width="1.51"></path><path d="M1,105L45,168L77,111Z" fill="#2c8c8d" stroke="#2c8c8d" stroke-width="1.51"></path><path d="M174,246L228,259L252,199Z" fill="#0f6e72" stroke="#0f6e72" stroke-width="1.51"></path><path d="M359,72L313,-1L209,71Z" fill="#207f81" stroke="#207f81" stroke-width="1.51"></path><path d="M209,24L171,-100L120,0Z" fill="#369798" stroke="#369798" stroke-width="1.51"></path><path d="M61,23L1,105L77,111Z" fill="#2f9091" stroke="#2f9091" stroke-width="1.51"></path><path d="M344,184L359,72L252,199Z" fill="#106f73" stroke="#106f73" stroke-width="1.51"></path><path d="M252,199L359,72L209,71Z" fill="#147377" stroke="#147377" stroke-width="1.51"></path><path d="M311,267L344,184L252,199Z" fill="#0d6c70" stroke="#0d6c70" stroke-width="1.51"></path><path d="M313,-1L251,-81L209,24Z" fill="#319292" stroke="#319292" stroke-width="1.51"></path><path d="M120,0L46,-71L61,23Z" fill="#40a4a2" stroke="#40a4a2" stroke-width="1.51"></path><path d="M251,-81L171,-100L209,24Z" fill="#3a9d9c" stroke="#3a9d9c" stroke-width="1.51"></path><path d="M-39,166L40,261L45,168Z" fill="#2d8d8d" stroke="#2d8d8d" stroke-width="1.51"></path><path d="M45,168L40,261L174,246Z" fill="#207e80" stroke="#207e80" stroke-width="1.51"></path><path d="M174,246L40,261L228,259Z" fill="#127175" stroke="#127175" stroke-width="1.51"></path><path d="M-55,288L311,267L228,259Z" fill="#106f73" stroke="#106f73" stroke-width="1.51"></path><path d="M228,259L311,267L252,199Z" fill="#0e6c70" stroke="#0e6c70" stroke-width="1.51"></path><path d="M61,23L-48,-13L1,105Z" fill="#3fa3a1" stroke="#3fa3a1" stroke-width="1.51"></path><path d="M171,-100L46,-71L120,0Z" fill="#43a8a6" stroke="#43a8a6" stroke-width="1.51"></path><path d="M-127,84L-39,166L1,105Z" fill="#3c9f9e" stroke="#3c9f9e" stroke-width="1.51"></path><path d="M1,105L-39,166L45,168Z" fill="#319293" stroke="#319293" stroke-width="1.51"></path><path d="M422,240L395,163L344,184Z" fill="#0b696d" stroke="#0b696d" stroke-width="1.51"></path><path d="M344,184L395,163L359,72Z" fill="#0f6e72" stroke="#0f6e72" stroke-width="1.51"></path><path d="M313,-1L340,-67L251,-81Z" fill="#379897" stroke="#379897" stroke-width="1.51"></path><path d="M251,-81L439,-105L171,-100Z" fill="#41a5a3" stroke="#41a5a3" stroke-width="1.51"></path><path d="M411,-12L340,-67L313,-1Z" fill="#309090" stroke="#309090" stroke-width="1.51"></path><path d="M411,-12L313,-1L359,72Z" fill="#258285" stroke="#258285" stroke-width="1.51"></path><path d="M46,-71L-48,-13L61,23Z" fill="#4ab0ad" stroke="#4ab0ad" stroke-width="1.51"></path><path d="M395,163L435,92L359,72Z" fill="#106f73" stroke="#106f73" stroke-width="1.51"></path><path d="M435,92L411,-12L359,72Z" fill="#1c797c" stroke="#1c797c" stroke-width="1.51"></path><path d="M395,163L422,240L435,92Z" fill="#0b6a6e" stroke="#0b6a6e" stroke-width="1.51"></path><path d="M311,267L422,240L344,184Z" fill="#09696d" stroke="#09696d" stroke-width="1.51"></path><path d="M46,-71L0,-121L-48,-13Z" fill="#57c2bc" stroke="#57c2bc" stroke-width="1.51"></path><path d="M171,-100L0,-121L46,-71Z" fill="#52bbb6" stroke="#52bbb6" stroke-width="1.51"></path><path d="M-39,166L-55,288L40,261Z" fill="#319191" stroke="#319191" stroke-width="1.51"></path><path d="M40,261L-55,288L228,259Z" fill="#217e80" stroke="#217e80" stroke-width="1.51"></path><path d="M-139,209L-55,288L-39,166Z" fill="#3b9d9c" stroke="#3b9d9c" stroke-width="1.51"></path><path d="M-48,-13L-127,84L1,105Z" fill="#44a9a7" stroke="#44a9a7" stroke-width="1.51"></path><path d="M-101,-28L-127,84L-48,-13Z" fill="#53bdb8" stroke="#53bdb8" stroke-width="1.51"></path><path d="M0,-121L-101,-28L-48,-13Z" fill="#5bc8c1" stroke="#5bc8c1" stroke-width="1.51"></path><path d="M-127,84L-139,209L-39,166Z" fill="#42a6a3" stroke="#42a6a3" stroke-width="1.51"></path><path d="M-139,209L-96,297L-55,288Z" fill="#3d9e9c" stroke="#3d9e9c" stroke-width="1.51"></path><path d="M-55,288L-96,297L311,267Z" fill="#238082" stroke="#238082" stroke-width="1.51"></path><path d="M435,92L439,-105L411,-12Z" fill="#298888" stroke="#298888" stroke-width="1.51"></path><path d="M411,-12L439,-105L340,-67Z" fill="#379796" stroke="#379796" stroke-width="1.51"></path><path d="M340,-67L439,-105L251,-81Z" fill="#3da09e" stroke="#3da09e" stroke-width="1.51"></path><path d="M171,-100L439,-105L0,-121Z" fill="#47adaa" stroke="#47adaa" stroke-width="1.51"></path><path d="M-127,84L-134,-102L-139,209Z" fill="#4fb8b3" stroke="#4fb8b3" stroke-width="1.51"></path><path d="M-101,-28L-134,-102L-127,84Z" fill="#5ecbc4" stroke="#5ecbc4" stroke-width="1.51"></path><path d="M0,-121L-134,-102L-101,-28Z" fill="#66d6cd" stroke="#66d6cd" stroke-width="1.51"></path></svg>