<svg width="300" height="176" xmlns="http://www.w3.org/2000/svg"><path d="M164,96L213,4L130,30Z" fill="#258587" stroke="#258587" stroke-width="1.51"></path><path d="M164,96L261,89L213,4Z" fill="#1f7e81" stroke="#1f7e81" stroke-width="1.51"></path><path d="M164,96L236,144L261,89Z" fill="#177579" stroke="#177579" stroke-width="1.51"></path><path d="M213,4L216,-66L130,30Z" fill="#319393" stroke="#319393" stroke-width="1.51"></path><path d="M360,-25L216,-66L213,4Z" fill="#339494" stroke="#339494" stroke-width="1.51"></path><path d="M164,96L145,171L236,144Z" fill="#177579" stroke="#177579" stroke-width="1.51"></path><path d="M48,93L145,171L164,96Z" fill="#1f7e81" stroke="#1f7e81" stroke-width="1.51"></path><path d="M130,30L48,93L164,96Z" fill="#258587" stroke="#258587" stroke-width="1.51"></path><path d="M45,-31L48,93L130,30Z" fill="#369897" stroke="#369897" stroke-width="1.51"></path><path d="M261,89L323,88L213,4Z" fill="#1d7c7f" stroke="#1d7c7f" stroke-width="1.51"></path><path d="M344,156L323,88L261,89Z" fill="#137276" stroke="#137276" stroke-width="1.51"></path><path d="M85,-81L45,-31L130,30Z" fill="#41a5a3" stroke="#41a5a3" stroke-width="1.51"></path><path d="M216,-66L85,-81L130,30Z" fill="#3a9d9d" stroke="#3a9d9d" stroke-width="1.51"></path><path d="M216,-66L168,-114L85,-81Z" fill="#43a9a6" stroke="#43a9a6" stroke-width="1.51"></path><path d="M48,93L77,184L145,171Z" fill="#238284" stroke="#238284" stroke-width="1.51"></path><path d="M45,-31L-1,31L48,93Z" fill="#3da09e" stroke="#3da09e" stroke-width="1.51"></path><path d="M48,93L-35,145L77,184Z" fill="#2e8e8f" stroke="#2e8e8f" stroke-width="1.51"></path><path d="M323,88L360,-25L213,4Z" fill="#268587" stroke="#268587" stroke-width="1.51"></path><path d="M216,-66L357,-65L168,-114Z" fill="#40a4a1" stroke="#40a4a1" stroke-width="1.51"></path><path d="M435,11L411,-60L360,-25Z" fill="#2e8d8d" stroke="#2e8d8d" stroke-width="1.51"></path><path d="M236,144L344,156L261,89Z" fill="#137276" stroke="#137276" stroke-width="1.51"></path><path d="M259,242L344,156L236,144Z" fill="#106f73" stroke="#106f73" stroke-width="1.51"></path><path d="M259,242L236,144L145,171Z" fill="#137276" stroke="#137276" stroke-width="1.51"></path><path d="M360,-25L357,-65L216,-66Z" fill="#379998" stroke="#379998" stroke-width="1.51"></path><path d="M167,296L259,242L145,171Z" fill="#117074" stroke="#117074" stroke-width="1.51"></path><path d="M-52,118L-35,145L48,93Z" fill="#359797" stroke="#359797" stroke-width="1.51"></path><path d="M-1,31L-52,118L48,93Z" fill="#379999" stroke="#379999" stroke-width="1.51"></path><path d="M-35,145L26,234L77,184Z" fill="#2c8c8d" stroke="#2c8c8d" stroke-width="1.51"></path><path d="M77,184L167,296L145,171Z" fill="#18767a" stroke="#18767a" stroke-width="1.51"></path><path d="M26,234L167,296L77,184Z" fill="#1f7d7f" stroke="#1f7d7f" stroke-width="1.51"></path><path d="M-1,31L-108,104L-52,118Z" fill="#3ea2a0" stroke="#3ea2a0" stroke-width="1.51"></path><path d="M45,-31L-39,-79L-1,31Z" fill="#4db5b1" stroke="#4db5b1" stroke-width="1.51"></path><path d="M85,-81L-39,-79L45,-31Z" fill="#51bab6" stroke="#51bab6" stroke-width="1.51"></path><path d="M-110,-111L-39,-79L85,-81Z" fill="#5fcdc5" stroke="#5fcdc5" stroke-width="1.51"></path><path d="M360,-25L411,-60L357,-65Z" fill="#359594" stroke="#359594" stroke-width="1.51"></path><path d="M357,-65L411,-60L168,-114Z" fill="#3d9f9d" stroke="#3d9f9d" stroke-width="1.51"></path><path d="M435,11L360,-25L323,88Z" fill="#248283" stroke="#248283" stroke-width="1.51"></path><path d="M447,54L435,11L323,88Z" fill="#1c797c" stroke="#1c797c" stroke-width="1.51"></path><path d="M435,152L447,54L323,88Z" fill="#106f73" stroke="#106f73" stroke-width="1.51"></path><path d="M435,152L323,88L344,156Z" fill="#106e72" stroke="#106e72" stroke-width="1.51"></path><path d="M167,296L339,268L259,242Z" fill="#0c6b6f" stroke="#0c6b6f" stroke-width="1.51"></path><path d="M259,242L339,268L344,156Z" fill="#0c6b6f" stroke="#0c6b6f" stroke-width="1.51"></path><path d="M440,244L435,152L344,156Z" fill="#0b6a6e" stroke="#0b6a6e" stroke-width="1.51"></path><path d="M26,234L-21,258L167,296Z" fill="#238183" stroke="#238183" stroke-width="1.51"></path><path d="M-35,145L-21,258L26,234Z" fill="#319191" stroke="#319191" stroke-width="1.51"></path><path d="M-132,207L-21,258L-35,145Z" fill="#3a9c9a" stroke="#3a9c9a" stroke-width="1.51"></path><path d="M-52,118L-132,207L-35,145Z" fill="#3ea19f" stroke="#3ea19f" stroke-width="1.51"></path><path d="M-130,-2L-108,104L-1,31Z" fill="#4bb2af" stroke="#4bb2af" stroke-width="1.51"></path><path d="M-39,-79L-130,-2L-1,31Z" fill="#55bfb9" stroke="#55bfb9" stroke-width="1.51"></path><path d="M339,268L440,244L344,156Z" fill="#09686c" stroke="#09686c" stroke-width="1.51"></path><path d="M435,152L440,244L447,54Z" fill="#0b6a6e" stroke="#0b6a6e" stroke-width="1.51"></path><path d="M-39,-79L-110,-111L-130,-2Z" fill="#64d3cb" stroke="#64d3cb" stroke-width="1.51"></path><path d="M168,-114L-110,-111L85,-81Z" fill="#57c1bc" stroke="#57c1bc" stroke-width="1.51"></path><path d="M-108,104L-132,207L-52,118Z" fill="#42a6a4" stroke="#42a6a4" stroke-width="1.51"></path><path d="M-130,-2L-132,207L-108,104Z" fill="#47adaa" stroke="#47adaa" stroke-width="1.51"></path><path d="M-132,207L-129,297L-21,258Z" fill="#3d9f9c" stroke="#3d9f9c" stroke-width="1.51"></path><path d="M-21,258L-129,297L167,296Z" fill="#2b898a" stroke="#2b898a" stroke-width="1.51"></path></svg>