<svg width="300" height="176" xmlns="http://www.w3.org/2000/svg"><path d="M166,91L119,179L232,191Z" fill="#106e72" stroke="#106e72" stroke-width="1.51"></path><path d="M232,191L270,79L166,91Z" fill="#106e72" stroke="#106e72" stroke-width="1.51"></path><path d="M119,179L141,275L232,191Z" fill="#0d6c70" stroke="#0d6c70" stroke-width="1.51"></path><path d="M30,97L66,208L119,179Z" fill="#2f8e8e" stroke="#2f8e8e" stroke-width="1.51"></path><path d="M85,252L141,275L119,179Z" fill="#1e7a7d" stroke="#1e7a7d" stroke-width="1.51"></path><path d="M66,208L85,252L119,179Z" fill="#278485" stroke="#278485" stroke-width="1.51"></path><path d="M363,164L320,118L232,191Z" fill="#026266" stroke="#026266" stroke-width="1.51"></path><path d="M232,191L320,118L270,79Z" fill="#09696d" stroke="#09696d" stroke-width="1.51"></path><path d="M141,275L256,289L232,191Z" fill="#08686c" stroke="#08686c" stroke-width="1.51"></path><path d="M166,91L30,97L119,179Z" fill="#288788" stroke="#288788" stroke-width="1.51"></path><path d="M73,-22L30,97L166,91Z" fill="#44a9a6" stroke="#44a9a6" stroke-width="1.51"></path><path d="M270,79L207,-5L166,91Z" fill="#2b8a8c" stroke="#2b8a8c" stroke-width="1.51"></path><path d="M313,-22L207,-5L270,79Z" fill="#3ea09d" stroke="#3ea09d" stroke-width="1.51"></path><path d="M207,-5L172,-19L166,91Z" fill="#40a4a1" stroke="#40a4a1" stroke-width="1.51"></path><path d="M256,289L300,291L232,191Z" fill="#036367" stroke="#036367" stroke-width="1.51"></path><path d="M300,291L363,164L232,191Z" fill="#006064" stroke="#006064" stroke-width="1.51"></path><path d="M401,74L313,-22L270,79Z" fill="#2d8a8a" stroke="#2d8a8a" stroke-width="1.51"></path><path d="M66,208L-23,253L85,252Z" fill="#379795" stroke="#379795" stroke-width="1.51"></path><path d="M30,97L-21,157L66,208Z" fill="#40a29f" stroke="#40a29f" stroke-width="1.51"></path><path d="M30,97L-42,117L-21,157Z" fill="#4ab1ad" stroke="#4ab1ad" stroke-width="1.51"></path><path d="M172,-19L73,-22L166,91Z" fill="#4ab0ad" stroke="#4ab0ad" stroke-width="1.51"></path><path d="M401,74L270,79L320,118Z" fill="#0d6c70" stroke="#0d6c70" stroke-width="1.51"></path><path d="M222,-122L123,-72L172,-19Z" fill="#4db5b0" stroke="#4db5b0" stroke-width="1.51"></path><path d="M172,-19L123,-72L73,-22Z" fill="#57c3bd" stroke="#57c3bd" stroke-width="1.51"></path><path d="M-48,-13L-42,117L30,97Z" fill="#5ac6c0" stroke="#5ac6c0" stroke-width="1.51"></path><path d="M-21,157L-23,253L66,208Z" fill="#43a6a2" stroke="#43a6a2" stroke-width="1.51"></path><path d="M85,252L-23,253L141,275Z" fill="#2f8d8d" stroke="#2f8d8d" stroke-width="1.51"></path><path d="M-118,291L-23,253L-151,198Z" fill="#45a9a4" stroke="#45a9a4" stroke-width="1.51"></path><path d="M222,-122L172,-19L207,-5Z" fill="#4bb2ae" stroke="#4bb2ae" stroke-width="1.51"></path><path d="M363,164L401,74L320,118Z" fill="#09686c" stroke="#09686c" stroke-width="1.51"></path><path d="M123,-72L30,-61L73,-22Z" fill="#66d7ce" stroke="#66d7ce" stroke-width="1.51"></path><path d="M73,-22L-48,-13L30,97Z" fill="#6de0d6" stroke="#6de0d6" stroke-width="1.51"></path><path d="M363,164L443,189L401,74Z" fill="#056569" stroke="#056569" stroke-width="1.51"></path><path d="M428,295L443,189L363,164Z" fill="#006064" stroke="#006064" stroke-width="1.51"></path><path d="M401,74L407,13L313,-22Z" fill="#399a97" stroke="#399a97" stroke-width="1.51"></path><path d="M443,189L407,13L401,74Z" fill="#0d6c70" stroke="#0d6c70" stroke-width="1.51"></path><path d="M123,-72L-48,-97L30,-61Z" fill="#73e8dd" stroke="#73e8dd" stroke-width="1.51"></path><path d="M313,-22L222,-122L207,-5Z" fill="#48aea9" stroke="#48aea9" stroke-width="1.51"></path><path d="M338,-82L222,-122L313,-22Z" fill="#46aaa6" stroke="#46aaa6" stroke-width="1.51"></path><path d="M30,-61L-48,-13L73,-22Z" fill="#79f0e3" stroke="#79f0e3" stroke-width="1.51"></path><path d="M391,-76L338,-82L313,-22Z" fill="#45a9a4" stroke="#45a9a4" stroke-width="1.51"></path><path d="M300,291L428,295L363,164Z" fill="#006064" stroke="#006064" stroke-width="1.51"></path><path d="M407,13L391,-76L313,-22Z" fill="#45a9a4" stroke="#45a9a4" stroke-width="1.51"></path><path d="M338,-82L391,-76L222,-122Z" fill="#45a9a4" stroke="#45a9a4" stroke-width="1.51"></path><path d="M443,189L391,-76L407,13Z" fill="#2e8c8b" stroke="#2e8c8b" stroke-width="1.51"></path><path d="M-48,-13L-134,76L-42,117Z" fill="#5ecbc4" stroke="#5ecbc4" stroke-width="1.51"></path><path d="M-151,198L-23,253L-21,157Z" fill="#45a9a4" stroke="#45a9a4" stroke-width="1.51"></path><path d="M-23,253L-118,291L141,275Z" fill="#45a9a4" stroke="#45a9a4" stroke-width="1.51"></path><path d="M141,275L-118,291L256,289Z" fill="#268384" stroke="#268384" stroke-width="1.51"></path><path d="M256,289L-118,291L300,291Z" fill="#106e72" stroke="#106e72" stroke-width="1.51"></path><path d="M300,291L-118,291L428,295Z" fill="#09686c" stroke="#09686c" stroke-width="1.51"></path><path d="M-151,198L-21,157L-42,117Z" fill="#47aca7" stroke="#47aca7" stroke-width="1.51"></path><path d="M-134,76L-151,198L-42,117Z" fill="#4ab0ac" stroke="#4ab0ac" stroke-width="1.51"></path><path d="M222,-122L-48,-97L123,-72Z" fill="#5fcdc5" stroke="#5fcdc5" stroke-width="1.51"></path><path d="M30,-61L-48,-97L-48,-13Z" fill="#7ff8ea" stroke="#7ff8ea" stroke-width="1.51"></path><path d="M-48,-13L-140,-18L-134,76Z" fill="#76ece0" stroke="#76ece0" stroke-width="1.51"></path><path d="M-109,-103L-140,-18L-48,-13Z" fill="#7ff8ea" stroke="#7ff8ea" stroke-width="1.51"></path><path d="M-134,76L-140,-18L-151,198Z" fill="#50b9b4" stroke="#50b9b4" stroke-width="1.51"></path><path d="M-48,-97L-109,-103L-48,-13Z" fill="#7ff8ea" stroke="#7ff8ea" stroke-width="1.51"></path><path d="M222,-122L-109,-103L-48,-97Z" fill="#78eee2" stroke="#78eee2" stroke-width="1.51"></path></svg>