<svg width="300" height="176" xmlns="http://www.w3.org/2000/svg"><path d="M135,108L53,103L118,165Z" fill="#228184" stroke="#228184" stroke-width="1.51"></path><path d="M53,103L28,201L118,165Z" fill="#268687" stroke="#268687" stroke-width="1.51"></path><path d="M90,1L3,86L53,103Z" fill="#329494" stroke="#329494" stroke-width="1.51"></path><path d="M-30,173L28,201L53,103Z" fill="#2f8f90" stroke="#2f8f90" stroke-width="1.51"></path><path d="M135,108L90,1L53,103Z" fill="#29898b" stroke="#29898b" stroke-width="1.51"></path><path d="M138,15L90,1L135,108Z" fill="#2b8c8d" stroke="#2b8c8d" stroke-width="1.51"></path><path d="M118,165L215,164L135,108Z" fill="#17767a" stroke="#17767a" stroke-width="1.51"></path><path d="M135,108L211,73L138,15Z" fill="#207f82" stroke="#207f82" stroke-width="1.51"></path><path d="M152,262L215,164L118,165Z" fill="#147377" stroke="#147377" stroke-width="1.51"></path><path d="M215,164L211,73L135,108Z" fill="#17777b" stroke="#17777b" stroke-width="1.51"></path><path d="M3,86L-30,173L53,103Z" fill="#329393" stroke="#329393" stroke-width="1.51"></path><path d="M66,287L118,165L28,201Z" fill="#238183" stroke="#238183" stroke-width="1.51"></path><path d="M66,287L152,262L118,165Z" fill="#1a787b" stroke="#1a787b" stroke-width="1.51"></path><path d="M-60,280L66,287L28,201Z" fill="#2c8a8a" stroke="#2c8a8a" stroke-width="1.51"></path><path d="M66,287L208,274L152,262Z" fill="#127074" stroke="#127074" stroke-width="1.51"></path><path d="M152,262L208,274L215,164Z" fill="#116f74" stroke="#116f74" stroke-width="1.51"></path><path d="M140,-121L46,-59L90,1Z" fill="#47adaa" stroke="#47adaa" stroke-width="1.51"></path><path d="M90,1L-46,-6L3,86Z" fill="#40a4a2" stroke="#40a4a2" stroke-width="1.51"></path><path d="M-119,73L-112,195L-30,173Z" fill="#40a4a1" stroke="#40a4a1" stroke-width="1.51"></path><path d="M140,-121L90,1L138,15Z" fill="#3ca09f" stroke="#3ca09f" stroke-width="1.51"></path><path d="M46,-59L-46,-6L90,1Z" fill="#48aeab" stroke="#48aeab" stroke-width="1.51"></path><path d="M-30,173L-60,280L28,201Z" fill="#329292" stroke="#329292" stroke-width="1.51"></path><path d="M-119,73L-30,173L3,86Z" fill="#3b9f9d" stroke="#3b9f9d" stroke-width="1.51"></path><path d="M-112,195L-60,280L-30,173Z" fill="#3a9c9a" stroke="#3a9c9a" stroke-width="1.51"></path><path d="M-46,-6L-119,73L3,86Z" fill="#45aca9" stroke="#45aca9" stroke-width="1.51"></path><path d="M-46,-6L-107,18L-119,73Z" fill="#50b9b4" stroke="#50b9b4" stroke-width="1.51"></path><path d="M-45,-78L-107,18L-46,-6Z" fill="#57c2bc" stroke="#57c2bc" stroke-width="1.51"></path><path d="M211,73L263,-28L138,15Z" fill="#2a898b" stroke="#2a898b" stroke-width="1.51"></path><path d="M358,63L263,-28L211,73Z" fill="#248284" stroke="#248284" stroke-width="1.51"></path><path d="M342,183L211,73L215,164Z" fill="#147276" stroke="#147276" stroke-width="1.51"></path><path d="M140,-121L-45,-78L46,-59Z" fill="#53bdb8" stroke="#53bdb8" stroke-width="1.51"></path><path d="M46,-59L-45,-78L-46,-6Z" fill="#54bfb9" stroke="#54bfb9" stroke-width="1.51"></path><path d="M208,274L312,240L215,164Z" fill="#0f6e72" stroke="#0f6e72" stroke-width="1.51"></path><path d="M263,-28L221,-87L138,15Z" fill="#369897" stroke="#369897" stroke-width="1.51"></path><path d="M221,-87L140,-121L138,15Z" fill="#3ea2a1" stroke="#3ea2a1" stroke-width="1.51"></path><path d="M312,240L342,183L215,164Z" fill="#0f6d71" stroke="#0f6d71" stroke-width="1.51"></path><path d="M342,183L358,63L211,73Z" fill="#137276" stroke="#137276" stroke-width="1.51"></path><path d="M263,-28L296,-86L221,-87Z" fill="#3c9f9d" stroke="#3c9f9d" stroke-width="1.51"></path><path d="M-112,195L-147,259L-60,280Z" fill="#3fa19f" stroke="#3fa19f" stroke-width="1.51"></path><path d="M-119,73L-147,259L-112,195Z" fill="#45aaa7" stroke="#45aaa7" stroke-width="1.51"></path><path d="M358,63L351,8L263,-28Z" fill="#278688" stroke="#278688" stroke-width="1.51"></path><path d="M351,8L296,-86L263,-28Z" fill="#339494" stroke="#339494" stroke-width="1.51"></path><path d="M221,-87L296,-86L140,-121Z" fill="#44a9a6" stroke="#44a9a6" stroke-width="1.51"></path><path d="M140,-121L-90,-113L-45,-78Z" fill="#5eccc4" stroke="#5eccc4" stroke-width="1.51"></path><path d="M-45,-78L-90,-113L-107,18Z" fill="#61cfc7" stroke="#61cfc7" stroke-width="1.51"></path><path d="M-107,18L-90,-113L-119,73Z" fill="#5ac6bf" stroke="#5ac6bf" stroke-width="1.51"></path><path d="M351,8L387,-35L296,-86Z" fill="#339393" stroke="#339393" stroke-width="1.51"></path><path d="M453,66L387,-35L351,8Z" fill="#268385" stroke="#268385" stroke-width="1.51"></path><path d="M453,66L351,8L358,63Z" fill="#1d7b7d" stroke="#1d7b7d" stroke-width="1.51"></path><path d="M342,183L421,204L358,63Z" fill="#0e6d71" stroke="#0e6d71" stroke-width="1.51"></path><path d="M409,267L421,204L342,183Z" fill="#09686c" stroke="#09686c" stroke-width="1.51"></path><path d="M312,240L409,267L342,183Z" fill="#0a696d" stroke="#0a696d" stroke-width="1.51"></path><path d="M208,274L409,267L312,240Z" fill="#0a696d" stroke="#0a696d" stroke-width="1.51"></path><path d="M66,287L409,267L208,274Z" fill="#0c6b6f" stroke="#0c6b6f" stroke-width="1.51"></path><path d="M409,267L453,66L421,204Z" fill="#0a696d" stroke="#0a696d" stroke-width="1.51"></path><path d="M421,204L453,66L358,63Z" fill="#0f6d71" stroke="#0f6d71" stroke-width="1.51"></path><path d="M453,66L399,-104L387,-35Z" fill="#2e8c8c" stroke="#2e8c8c" stroke-width="1.51"></path><path d="M387,-35L399,-104L296,-86Z" fill="#3b9c9a" stroke="#3b9c9a" stroke-width="1.51"></path><path d="M296,-86L399,-104L140,-121Z" fill="#44a8a5" stroke="#44a8a5" stroke-width="1.51"></path></svg>