<svg width="300" height="176" xmlns="http://www.w3.org/2000/svg"><path d="M124,270L-21,267L225,290Z" fill="#1a7579" stroke="#1a7579" stroke-width="1.51"></path><path d="M-21,267L-103,272L225,290Z" fill="#288084" stroke="#288084" stroke-width="1.51"></path><path d="M271,-115L355,-97L419,-88Z" fill="#419b9f" stroke="#419b9f" stroke-width="1.51"></path><path d="M400,76L388,197L448,23Z" fill="#0f6e72" stroke="#0f6e72" stroke-width="1.51"></path><path d="M419,-88L356,8L448,23Z" fill="#2e868a" stroke="#2e868a" stroke-width="1.51"></path><path d="M353,286L225,290L452,299Z" fill="#06666a" stroke="#06666a" stroke-width="1.51"></path><path d="M388,197L353,286L452,299Z" fill="#066569" stroke="#066569" stroke-width="1.51"></path><path d="M448,23L388,197L452,299Z" fill="#0a696d" stroke="#0a696d" stroke-width="1.51"></path><path d="M356,8L400,76L448,23Z" fill="#217b7e" stroke="#217b7e" stroke-width="1.51"></path><path d="M316,61L388,197L400,76Z" fill="#116f73" stroke="#116f73" stroke-width="1.51"></path><path d="M355,-97L356,8L419,-88Z" fill="#389094" stroke="#389094" stroke-width="1.51"></path><path d="M268,169L303,205L316,61Z" fill="#127074" stroke="#127074" stroke-width="1.51"></path><path d="M303,205L353,286L388,197Z" fill="#0a6a6e" stroke="#0a6a6e" stroke-width="1.51"></path><path d="M316,61L303,205L388,197Z" fill="#0f6e72" stroke="#0f6e72" stroke-width="1.51"></path><path d="M356,8L316,61L400,76Z" fill="#1e7a7e" stroke="#1e7a7e" stroke-width="1.51"></path><path d="M271,-115L271,-20L355,-97Z" fill="#3e979b" stroke="#3e979b" stroke-width="1.51"></path><path d="M355,-97L271,-20L356,8Z" fill="#348d91" stroke="#348d91" stroke-width="1.51"></path><path d="M271,-20L316,61L356,8Z" fill="#288286" stroke="#288286" stroke-width="1.51"></path><path d="M266,64L268,169L316,61Z" fill="#157478" stroke="#157478" stroke-width="1.51"></path><path d="M303,205L225,290L353,286Z" fill="#0b6a6e" stroke="#0b6a6e" stroke-width="1.51"></path><path d="M271,-20L266,64L316,61Z" fill="#248084" stroke="#248084" stroke-width="1.51"></path><path d="M268,169L225,290L303,205Z" fill="#0e6d71" stroke="#0e6d71" stroke-width="1.51"></path><path d="M144,26L157,78L266,64Z" fill="#227f83" stroke="#227f83" stroke-width="1.51"></path><path d="M157,78L180,169L266,64Z" fill="#17777b" stroke="#17777b" stroke-width="1.51"></path><path d="M266,64L180,169L268,169Z" fill="#157478" stroke="#157478" stroke-width="1.51"></path><path d="M180,169L225,290L268,169Z" fill="#117074" stroke="#117074" stroke-width="1.51"></path><path d="M144,26L266,64L271,-20Z" fill="#298589" stroke="#298589" stroke-width="1.51"></path><path d="M271,-115L130,-120L271,-20Z" fill="#429da1" stroke="#429da1" stroke-width="1.51"></path><path d="M130,-120L144,26L271,-20Z" fill="#399397" stroke="#399397" stroke-width="1.51"></path><path d="M180,169L124,270L225,290Z" fill="#117074" stroke="#117074" stroke-width="1.51"></path><path d="M130,-120L72,-73L144,26Z" fill="#439fa3" stroke="#439fa3" stroke-width="1.51"></path><path d="M54,73L66,202L157,78Z" fill="#248185" stroke="#248185" stroke-width="1.51"></path><path d="M157,78L66,202L180,169Z" fill="#1a797d" stroke="#1a797d" stroke-width="1.51"></path><path d="M66,202L124,270L180,169Z" fill="#1a767a" stroke="#1a767a" stroke-width="1.51"></path><path d="M60,246L-21,267L124,270Z" fill="#257f83" stroke="#257f83" stroke-width="1.51"></path><path d="M-46,-60L72,-73L130,-120Z" fill="#53afb3" stroke="#53afb3" stroke-width="1.51"></path><path d="M-89,-75L-46,-60L130,-120Z" fill="#5bb8bc" stroke="#5bb8bc" stroke-width="1.51"></path><path d="M144,26L54,73L157,78Z" fill="#288589" stroke="#288589" stroke-width="1.51"></path><path d="M66,202L60,246L124,270Z" fill="#217b7f" stroke="#217b7f" stroke-width="1.51"></path><path d="M72,-73L27,22L144,26Z" fill="#3e999d" stroke="#3e999d" stroke-width="1.51"></path><path d="M27,22L54,73L144,26Z" fill="#348f93" stroke="#348f93" stroke-width="1.51"></path><path d="M-19,78L-31,163L54,73Z" fill="#359094" stroke="#359094" stroke-width="1.51"></path><path d="M54,73L-31,163L66,202Z" fill="#2e898d" stroke="#2e898d" stroke-width="1.51"></path><path d="M-46,-60L2,-13L72,-73Z" fill="#52aeb2" stroke="#52aeb2" stroke-width="1.51"></path><path d="M2,-13L27,22L72,-73Z" fill="#49a4a8" stroke="#49a4a8" stroke-width="1.51"></path><path d="M-21,267L60,246L66,202Z" fill="#298387" stroke="#298387" stroke-width="1.51"></path><path d="M-31,163L-21,267L66,202Z" fill="#2f898d" stroke="#2f898d" stroke-width="1.51"></path><path d="M27,22L-19,78L54,73Z" fill="#399498" stroke="#399498" stroke-width="1.51"></path><path d="M2,-13L-19,78L27,22Z" fill="#429da1" stroke="#429da1" stroke-width="1.51"></path><path d="M-31,163L-123,208L-21,267Z" fill="#3a9396" stroke="#3a9396" stroke-width="1.51"></path><path d="M-128,-32L-19,78L2,-13Z" fill="#4ea9ad" stroke="#4ea9ad" stroke-width="1.51"></path><path d="M-46,-60L-128,-32L2,-13Z" fill="#59b5b9" stroke="#59b5b9" stroke-width="1.51"></path><path d="M-123,208L-103,272L-21,267Z" fill="#3c9498" stroke="#3c9498" stroke-width="1.51"></path><path d="M-128,-32L-137,117L-19,78Z" fill="#4ca7ab" stroke="#4ca7ab" stroke-width="1.51"></path><path d="M-137,117L-31,163L-19,78Z" fill="#3e999d" stroke="#3e999d" stroke-width="1.51"></path><path d="M-137,117L-123,208L-31,163Z" fill="#419b9f" stroke="#419b9f" stroke-width="1.51"></path><path d="M-89,-75L-128,-32L-46,-60Z" fill="#63bfc3" stroke="#63bfc3" stroke-width="1.51"></path></svg>