<svg width="300" height="176" xmlns="http://www.w3.org/2000/svg"><path d="M148,81L137,203L229,111Z" fill="#17767a" stroke="#17767a" stroke-width="1.51"></path><path d="M137,203L237,185L229,111Z" fill="#147377" stroke="#147377" stroke-width="1.51"></path><path d="M137,203L171,240L237,185Z" fill="#137175" stroke="#137175" stroke-width="1.51"></path><path d="M148,81L52,120L137,203Z" fill="#1f7e81" stroke="#1f7e81" stroke-width="1.51"></path><path d="M137,203L54,248L171,240Z" fill="#19777a" stroke="#19777a" stroke-width="1.51"></path><path d="M52,120L47,148L137,203Z" fill="#248385" stroke="#248385" stroke-width="1.51"></path><path d="M345,164L330,79L229,111Z" fill="#137175" stroke="#137175" stroke-width="1.51"></path><path d="M171,240L261,269L237,185Z" fill="#106e72" stroke="#106e72" stroke-width="1.51"></path><path d="M47,148L54,248L137,203Z" fill="#228183" stroke="#228183" stroke-width="1.51"></path><path d="M171,240L54,248L261,269Z" fill="#117074" stroke="#117074" stroke-width="1.51"></path><path d="M148,81L36,-33L52,120Z" fill="#2f9091" stroke="#2f9091" stroke-width="1.51"></path><path d="M244,-33L147,-15L148,81Z" fill="#2d8d8f" stroke="#2d8d8f" stroke-width="1.51"></path><path d="M229,111L244,-33L148,81Z" fill="#228083" stroke="#228083" stroke-width="1.51"></path><path d="M345,164L229,111L237,185Z" fill="#127175" stroke="#127175" stroke-width="1.51"></path><path d="M334,247L345,164L237,185Z" fill="#0e6d71" stroke="#0e6d71" stroke-width="1.51"></path><path d="M330,79L244,-33L229,111Z" fill="#207e81" stroke="#207e81" stroke-width="1.51"></path><path d="M261,269L334,247L237,185Z" fill="#0d6c70" stroke="#0d6c70" stroke-width="1.51"></path><path d="M47,148L-37,239L54,248Z" fill="#2c8b8c" stroke="#2c8b8c" stroke-width="1.51"></path><path d="M52,120L-26,149L47,148Z" fill="#2e8f90" stroke="#2e8f90" stroke-width="1.51"></path><path d="M-54,54L-26,149L52,120Z" fill="#359797" stroke="#359797" stroke-width="1.51"></path><path d="M330,79L346,19L244,-33Z" fill="#268587" stroke="#268587" stroke-width="1.51"></path><path d="M417,75L346,19L330,79Z" fill="#1b797c" stroke="#1b797c" stroke-width="1.51"></path><path d="M147,-15L36,-33L148,81Z" fill="#349696" stroke="#349696" stroke-width="1.51"></path><path d="M56,-126L36,-33L147,-15Z" fill="#48afac" stroke="#48afac" stroke-width="1.51"></path><path d="M-26,149L-37,239L47,148Z" fill="#329292" stroke="#329292" stroke-width="1.51"></path><path d="M54,248L-107,273L261,269Z" fill="#217f81" stroke="#217f81" stroke-width="1.51"></path><path d="M244,-33L178,-96L147,-15Z" fill="#3a9d9c" stroke="#3a9d9c" stroke-width="1.51"></path><path d="M264,-118L178,-96L244,-33Z" fill="#40a4a2" stroke="#40a4a2" stroke-width="1.51"></path><path d="M36,-33L-54,54L52,120Z" fill="#3c9f9e" stroke="#3c9f9e" stroke-width="1.51"></path><path d="M-26,149L-91,197L-37,239Z" fill="#389a99" stroke="#389a99" stroke-width="1.51"></path><path d="M345,164L417,146L330,79Z" fill="#106e72" stroke="#106e72" stroke-width="1.51"></path><path d="M334,247L417,146L345,164Z" fill="#0d6b6f" stroke="#0d6b6f" stroke-width="1.51"></path><path d="M346,19L314,-59L244,-33Z" fill="#319191" stroke="#319191" stroke-width="1.51"></path><path d="M401,5L314,-59L346,19Z" fill="#2d8c8c" stroke="#2d8c8c" stroke-width="1.51"></path><path d="M417,146L417,75L330,79Z" fill="#106f73" stroke="#106f73" stroke-width="1.51"></path><path d="M36,-33L-32,-23L-54,54Z" fill="#4bb2ae" stroke="#4bb2ae" stroke-width="1.51"></path><path d="M-15,-74L-32,-23L36,-33Z" fill="#51bbb6" stroke="#51bbb6" stroke-width="1.51"></path><path d="M-123,105L-91,197L-26,149Z" fill="#3fa2a0" stroke="#3fa2a0" stroke-width="1.51"></path><path d="M417,75L401,5L346,19Z" fill="#217e80" stroke="#217e80" stroke-width="1.51"></path><path d="M428,-123L264,-118L314,-59Z" fill="#41a4a1" stroke="#41a4a1" stroke-width="1.51"></path><path d="M314,-59L264,-118L244,-33Z" fill="#3c9f9d" stroke="#3c9f9d" stroke-width="1.51"></path><path d="M56,-126L147,-15L178,-96Z" fill="#45aca8" stroke="#45aca8" stroke-width="1.51"></path><path d="M56,-126L-15,-74L36,-33Z" fill="#55bfb9" stroke="#55bfb9" stroke-width="1.51"></path><path d="M264,-118L56,-126L178,-96Z" fill="#49b0ac" stroke="#49b0ac" stroke-width="1.51"></path><path d="M-113,-4L-54,54L-32,-23Z" fill="#50b9b5" stroke="#50b9b5" stroke-width="1.51"></path><path d="M-113,-4L-123,105L-54,54Z" fill="#4cb3b0" stroke="#4cb3b0" stroke-width="1.51"></path><path d="M-54,54L-123,105L-26,149Z" fill="#3fa2a1" stroke="#3fa2a1" stroke-width="1.51"></path><path d="M-91,197L-107,273L-37,239Z" fill="#3b9d9b" stroke="#3b9d9b" stroke-width="1.51"></path><path d="M-37,239L-107,273L54,248Z" fill="#329292" stroke="#329292" stroke-width="1.51"></path><path d="M-123,105L-107,273L-91,197Z" fill="#41a5a2" stroke="#41a5a2" stroke-width="1.51"></path><path d="M417,146L450,294L417,75Z" fill="#0a696d" stroke="#0a696d" stroke-width="1.51"></path><path d="M334,247L450,294L417,146Z" fill="#07676b" stroke="#07676b" stroke-width="1.51"></path><path d="M261,269L450,294L334,247Z" fill="#07676b" stroke="#07676b" stroke-width="1.51"></path><path d="M-107,273L450,294L261,269Z" fill="#0e6d71" stroke="#0e6d71" stroke-width="1.51"></path><path d="M-95,-112L-32,-23L-15,-74Z" fill="#5eccc4" stroke="#5eccc4" stroke-width="1.51"></path><path d="M-95,-112L-113,-4L-32,-23Z" fill="#5ecbc4" stroke="#5ecbc4" stroke-width="1.51"></path><path d="M56,-126L-95,-112L-15,-74Z" fill="#61d0c7" stroke="#61d0c7" stroke-width="1.51"></path><path d="M401,5L428,-123L314,-59Z" fill="#369796" stroke="#369796" stroke-width="1.51"></path><path d="M264,-118L428,-123L56,-126Z" fill="#49aeab" stroke="#49aeab" stroke-width="1.51"></path><path d="M417,75L428,-123L401,5Z" fill="#2b8a8a" stroke="#2b8a8a" stroke-width="1.51"></path><path d="M450,294L428,-123L417,75Z" fill="#117074" stroke="#117074" stroke-width="1.51"></path></svg>