<svg width="300" height="176" xmlns="http://www.w3.org/2000/svg"><path d="M143,88L83,84L68,152Z" fill="#2b8c8d" stroke="#2b8c8d" stroke-width="1.51"></path><path d="M68,152L141,167L143,88Z" fill="#218082" stroke="#218082" stroke-width="1.51"></path><path d="M143,88L137,1L83,84Z" fill="#389a9a" stroke="#389a9a" stroke-width="1.51"></path><path d="M141,167L226,76L143,88Z" fill="#167478" stroke="#167478" stroke-width="1.51"></path><path d="M70,250L118,252L141,167Z" fill="#207c7e" stroke="#207c7e" stroke-width="1.51"></path><path d="M141,167L224,183L226,76Z" fill="#0f6e72" stroke="#0f6e72" stroke-width="1.51"></path><path d="M212,240L224,183L141,167Z" fill="#0a696d" stroke="#0a696d" stroke-width="1.51"></path><path d="M226,76L137,1L143,88Z" fill="#2e8f90" stroke="#2e8f90" stroke-width="1.51"></path><path d="M68,152L70,250L141,167Z" fill="#268384" stroke="#268384" stroke-width="1.51"></path><path d="M118,252L212,240L141,167Z" fill="#0d6c70" stroke="#0d6c70" stroke-width="1.51"></path><path d="M68,152L-24,209L70,250Z" fill="#399997" stroke="#399997" stroke-width="1.51"></path><path d="M-52,115L-24,209L68,152Z" fill="#47aca7" stroke="#47aca7" stroke-width="1.51"></path><path d="M-52,115L68,152L83,84Z" fill="#41a4a2" stroke="#41a4a2" stroke-width="1.51"></path><path d="M-24,9L-52,115L83,84Z" fill="#58c3bd" stroke="#58c3bd" stroke-width="1.51"></path><path d="M137,1L36,-31L83,84Z" fill="#5ac5bf" stroke="#5ac5bf" stroke-width="1.51"></path><path d="M36,-31L-24,9L83,84Z" fill="#69dad1" stroke="#69dad1" stroke-width="1.51"></path><path d="M226,76L231,-10L137,1Z" fill="#3fa3a0" stroke="#3fa3a0" stroke-width="1.51"></path><path d="M137,1L50,-73L36,-31Z" fill="#67d8ce" stroke="#67d8ce" stroke-width="1.51"></path><path d="M296,7L231,-10L226,76Z" fill="#3b9c9a" stroke="#3b9c9a" stroke-width="1.51"></path><path d="M224,183L300,150L226,76Z" fill="#0b6a6e" stroke="#0b6a6e" stroke-width="1.51"></path><path d="M352,240L300,150L224,183Z" fill="#006064" stroke="#006064" stroke-width="1.51"></path><path d="M-24,9L-92,90L-52,115Z" fill="#57c3bd" stroke="#57c3bd" stroke-width="1.51"></path><path d="M-52,115L-123,189L-24,209Z" fill="#46a9a5" stroke="#46a9a5" stroke-width="1.51"></path><path d="M36,-31L-33,-81L-24,9Z" fill="#7ff8ea" stroke="#7ff8ea" stroke-width="1.51"></path><path d="M146,-110L50,-73L137,1Z" fill="#5bc7c1" stroke="#5bc7c1" stroke-width="1.51"></path><path d="M233,-82L146,-110L137,1Z" fill="#4db5b0" stroke="#4db5b0" stroke-width="1.51"></path><path d="M332,99L296,7L226,76Z" fill="#238082" stroke="#238082" stroke-width="1.51"></path><path d="M300,150L332,99L226,76Z" fill="#0c6b6f" stroke="#0c6b6f" stroke-width="1.51"></path><path d="M-24,9L-88,3L-92,90Z" fill="#6cded4" stroke="#6cded4" stroke-width="1.51"></path><path d="M-33,-81L-88,3L-24,9Z" fill="#7ff8ea" stroke="#7ff8ea" stroke-width="1.51"></path><path d="M233,-82L137,1L231,-10Z" fill="#4bb2ae" stroke="#4bb2ae" stroke-width="1.51"></path><path d="M-24,209L-60,295L70,250Z" fill="#45a9a4" stroke="#45a9a4" stroke-width="1.51"></path><path d="M70,250L-60,295L118,252Z" fill="#379795" stroke="#379795" stroke-width="1.51"></path><path d="M453,260L352,240L212,240Z" fill="#006064" stroke="#006064" stroke-width="1.51"></path><path d="M-123,189L-60,295L-24,209Z" fill="#45a9a4" stroke="#45a9a4" stroke-width="1.51"></path><path d="M296,7L233,-82L231,-10Z" fill="#48ada9" stroke="#48ada9" stroke-width="1.51"></path><path d="M-121,-74L-123,189L-92,90Z" fill="#59c5bf" stroke="#59c5bf" stroke-width="1.51"></path><path d="M-92,90L-123,189L-52,115Z" fill="#4ab0ac" stroke="#4ab0ac" stroke-width="1.51"></path><path d="M146,-110L-33,-81L50,-73Z" fill="#6de0d6" stroke="#6de0d6" stroke-width="1.51"></path><path d="M50,-73L-33,-81L36,-31Z" fill="#79f0e3" stroke="#79f0e3" stroke-width="1.51"></path><path d="M424,168L416,119L332,99Z" fill="#07676b" stroke="#07676b" stroke-width="1.51"></path><path d="M212,240L352,240L224,183Z" fill="#036367" stroke="#036367" stroke-width="1.51"></path><path d="M453,260L212,240L118,252Z" fill="#036367" stroke="#036367" stroke-width="1.51"></path><path d="M-123,189L-135,283L-60,295Z" fill="#45a9a4" stroke="#45a9a4" stroke-width="1.51"></path><path d="M-33,-81L-121,-74L-88,3Z" fill="#7ff8ea" stroke="#7ff8ea" stroke-width="1.51"></path><path d="M-88,3L-121,-74L-92,90Z" fill="#7bf3e6" stroke="#7bf3e6" stroke-width="1.51"></path><path d="M-123,189L-121,-74L-135,283Z" fill="#4ab0ac" stroke="#4ab0ac" stroke-width="1.51"></path><path d="M146,-110L-121,-74L-33,-81Z" fill="#7ff8ea" stroke="#7ff8ea" stroke-width="1.51"></path><path d="M296,7L317,-116L233,-82Z" fill="#46aaa6" stroke="#46aaa6" stroke-width="1.51"></path><path d="M332,99L426,14L296,7Z" fill="#2f8d8c" stroke="#2f8d8c" stroke-width="1.51"></path><path d="M424,168L332,99L300,150Z" fill="#066569" stroke="#066569" stroke-width="1.51"></path><path d="M352,240L424,168L300,150Z" fill="#006064" stroke="#006064" stroke-width="1.51"></path><path d="M426,14L317,-116L296,7Z" fill="#45a9a4" stroke="#45a9a4" stroke-width="1.51"></path><path d="M233,-82L317,-116L146,-110Z" fill="#49afab" stroke="#49afab" stroke-width="1.51"></path><path d="M416,119L426,14L332,99Z" fill="#177477" stroke="#177477" stroke-width="1.51"></path><path d="M424,168L426,14L416,119Z" fill="#0c6b6f" stroke="#0c6b6f" stroke-width="1.51"></path><path d="M424,168L453,260L426,14Z" fill="#046468" stroke="#046468" stroke-width="1.51"></path><path d="M352,240L453,260L424,168Z" fill="#006064" stroke="#006064" stroke-width="1.51"></path><path d="M-60,295L453,260L118,252Z" fill="#0c6b6f" stroke="#0c6b6f" stroke-width="1.51"></path><path d="M426,14L452,-94L317,-116Z" fill="#45a9a4" stroke="#45a9a4" stroke-width="1.51"></path><path d="M453,260L452,-94L426,14Z" fill="#237f81" stroke="#237f81" stroke-width="1.51"></path></svg>