<svg width="300" height="176" xmlns="http://www.w3.org/2000/svg"><path d="M398,-30L358,82L420,101Z" fill="#1d787c" stroke="#1d787c" stroke-width="1.51"></path><path d="M254,-113L355,-87L429,-74Z" fill="#40999d" stroke="#40999d" stroke-width="1.51"></path><path d="M398,-30L420,101L429,-74Z" fill="#298286" stroke="#298286" stroke-width="1.51"></path><path d="M405,151L360,149L442,243Z" fill="#0b6a6e" stroke="#0b6a6e" stroke-width="1.51"></path><path d="M360,149L359,286L442,243Z" fill="#09686c" stroke="#09686c" stroke-width="1.51"></path><path d="M420,101L405,151L442,243Z" fill="#0b6a6e" stroke="#0b6a6e" stroke-width="1.51"></path><path d="M429,-74L420,101L442,243Z" fill="#106e72" stroke="#106e72" stroke-width="1.51"></path><path d="M355,-87L398,-30L429,-74Z" fill="#389094" stroke="#389094" stroke-width="1.51"></path><path d="M360,149L405,151L420,101Z" fill="#0e6d71" stroke="#0e6d71" stroke-width="1.51"></path><path d="M358,82L360,149L420,101Z" fill="#106f73" stroke="#106f73" stroke-width="1.51"></path><path d="M302,-22L358,82L398,-30Z" fill="#288286" stroke="#288286" stroke-width="1.51"></path><path d="M355,-87L302,-22L398,-30Z" fill="#368e92" stroke="#368e92" stroke-width="1.51"></path><path d="M267,28L212,114L358,82Z" fill="#1a777b" stroke="#1a777b" stroke-width="1.51"></path><path d="M302,-22L267,28L358,82Z" fill="#258084" stroke="#258084" stroke-width="1.51"></path><path d="M207,154L224,299L359,286Z" fill="#0d6c70" stroke="#0d6c70" stroke-width="1.51"></path><path d="M358,82L212,114L360,149Z" fill="#137276" stroke="#137276" stroke-width="1.51"></path><path d="M212,114L207,154L360,149Z" fill="#147276" stroke="#147276" stroke-width="1.51"></path><path d="M207,154L359,286L360,149Z" fill="#0e6d71" stroke="#0e6d71" stroke-width="1.51"></path><path d="M254,-113L302,-22L355,-87Z" fill="#3d969a" stroke="#3d969a" stroke-width="1.51"></path><path d="M125,258L-34,291L224,299Z" fill="#1a7579" stroke="#1a7579" stroke-width="1.51"></path><path d="M207,154L172,208L224,299Z" fill="#117074" stroke="#117074" stroke-width="1.51"></path><path d="M173,-3L267,28L302,-22Z" fill="#2e898d" stroke="#2e898d" stroke-width="1.51"></path><path d="M254,-113L173,-3L302,-22Z" fill="#389397" stroke="#389397" stroke-width="1.51"></path><path d="M173,-3L212,114L267,28Z" fill="#238084" stroke="#238084" stroke-width="1.51"></path><path d="M121,-123L173,-3L254,-113Z" fill="#429da1" stroke="#429da1" stroke-width="1.51"></path><path d="M173,-3L143,113L212,114Z" fill="#1d7c80" stroke="#1d7c80" stroke-width="1.51"></path><path d="M172,208L125,258L224,299Z" fill="#106f73" stroke="#106f73" stroke-width="1.51"></path><path d="M143,113L207,154L212,114Z" fill="#17767a" stroke="#17767a" stroke-width="1.51"></path><path d="M143,113L172,208L207,154Z" fill="#167579" stroke="#167579" stroke-width="1.51"></path><path d="M64,-77L84,-22L121,-123Z" fill="#4ba7ab" stroke="#4ba7ab" stroke-width="1.51"></path><path d="M84,-22L52,105L143,113Z" fill="#2b878b" stroke="#2b878b" stroke-width="1.51"></path><path d="M143,113L40,206L172,208Z" fill="#1c7a7e" stroke="#1c7a7e" stroke-width="1.51"></path><path d="M40,206L125,258L172,208Z" fill="#1c777b" stroke="#1c777b" stroke-width="1.51"></path><path d="M84,-22L143,113L173,-3Z" fill="#2d898d" stroke="#2d898d" stroke-width="1.51"></path><path d="M121,-123L84,-22L173,-3Z" fill="#409b9f" stroke="#409b9f" stroke-width="1.51"></path><path d="M47,235L-34,291L125,258Z" fill="#278084" stroke="#278084" stroke-width="1.51"></path><path d="M40,206L47,235L125,258Z" fill="#237d81" stroke="#237d81" stroke-width="1.51"></path><path d="M52,105L40,206L143,113Z" fill="#268286" stroke="#268286" stroke-width="1.51"></path><path d="M-9,56L52,105L84,-22Z" fill="#389397" stroke="#389397" stroke-width="1.51"></path><path d="M3,-105L64,-77L121,-123Z" fill="#55b1b5" stroke="#55b1b5" stroke-width="1.51"></path><path d="M64,-77L-34,-10L84,-22Z" fill="#4ba6aa" stroke="#4ba6aa" stroke-width="1.51"></path><path d="M-34,-10L-9,56L84,-22Z" fill="#45a0a4" stroke="#45a0a4" stroke-width="1.51"></path><path d="M-1,199L40,206L52,105Z" fill="#2d878b" stroke="#2d878b" stroke-width="1.51"></path><path d="M3,-105L-34,-10L64,-77Z" fill="#55b1b5" stroke="#55b1b5" stroke-width="1.51"></path><path d="M-9,56L-1,199L52,105Z" fill="#328d91" stroke="#328d91" stroke-width="1.51"></path><path d="M40,206L-1,199L47,235Z" fill="#2b8589" stroke="#2b8589" stroke-width="1.51"></path><path d="M-1,199L-34,291L47,235Z" fill="#2f878b" stroke="#2f878b" stroke-width="1.51"></path><path d="M-92,265L-34,291L-1,199Z" fill="#368e92" stroke="#368e92" stroke-width="1.51"></path><path d="M-92,199L-92,265L-1,199Z" fill="#3a9297" stroke="#3a9297" stroke-width="1.51"></path><path d="M-9,56L-122,120L-1,199Z" fill="#3b969a" stroke="#3b969a" stroke-width="1.51"></path><path d="M-122,120L-92,199L-1,199Z" fill="#3d979b" stroke="#3d979b" stroke-width="1.51"></path><path d="M-88,-16L-34,-10L3,-105Z" fill="#58b5b9" stroke="#58b5b9" stroke-width="1.51"></path><path d="M-149,-61L-88,-16L3,-105Z" fill="#62bfc3" stroke="#62bfc3" stroke-width="1.51"></path><path d="M-34,-10L-88,-16L-9,56Z" fill="#4da9ad" stroke="#4da9ad" stroke-width="1.51"></path><path d="M-88,-16L-122,120L-9,56Z" fill="#48a4a8" stroke="#48a4a8" stroke-width="1.51"></path><path d="M-149,-61L-122,120L-88,-16Z" fill="#58b5b9" stroke="#58b5b9" stroke-width="1.51"></path><path d="M-92,199L-122,120L-92,265Z" fill="#419b9f" stroke="#419b9f" stroke-width="1.51"></path></svg>