<svg width="300" height="176" xmlns="http://www.w3.org/2000/svg"><path d="M179,92L263,153L245,57Z" fill="#127175" stroke="#127175" stroke-width="1.51"></path><path d="M263,153L302,83L245,57Z" fill="#0f6e72" stroke="#0f6e72" stroke-width="1.51"></path><path d="M263,153L305,154L302,83Z" fill="#08676b" stroke="#08676b" stroke-width="1.51"></path><path d="M245,57L139,-25L179,92Z" fill="#359696" stroke="#359696" stroke-width="1.51"></path><path d="M302,83L261,25L245,57Z" fill="#278586" stroke="#278586" stroke-width="1.51"></path><path d="M179,92L116,166L263,153Z" fill="#116f73" stroke="#116f73" stroke-width="1.51"></path><path d="M263,153L297,269L305,154Z" fill="#016165" stroke="#016165" stroke-width="1.51"></path><path d="M302,83L343,6L261,25Z" fill="#308f8e" stroke="#308f8e" stroke-width="1.51"></path><path d="M424,62L343,6L302,83Z" fill="#288687" stroke="#288687" stroke-width="1.51"></path><path d="M116,166L181,260L263,153Z" fill="#0a6a6e" stroke="#0a6a6e" stroke-width="1.51"></path><path d="M72,29L76,161L116,166Z" fill="#2e8e8f" stroke="#2e8e8f" stroke-width="1.51"></path><path d="M261,25L139,-25L245,57Z" fill="#40a3a1" stroke="#40a3a1" stroke-width="1.51"></path><path d="M211,-83L139,-25L261,25Z" fill="#4bb2ae" stroke="#4bb2ae" stroke-width="1.51"></path><path d="M116,166L70,296L181,260Z" fill="#1b787a" stroke="#1b787a" stroke-width="1.51"></path><path d="M72,29L116,166L179,92Z" fill="#248486" stroke="#248486" stroke-width="1.51"></path><path d="M223,289L297,269L263,153Z" fill="#036367" stroke="#036367" stroke-width="1.51"></path><path d="M305,154L424,62L302,83Z" fill="#0c6b6f" stroke="#0c6b6f" stroke-width="1.51"></path><path d="M139,-25L72,29L179,92Z" fill="#43a8a6" stroke="#43a8a6" stroke-width="1.51"></path><path d="M181,260L223,289L263,153Z" fill="#07666a" stroke="#07666a" stroke-width="1.51"></path><path d="M327,-81L211,-83L261,25Z" fill="#47aca8" stroke="#47aca8" stroke-width="1.51"></path><path d="M405,208L424,62L305,154Z" fill="#056569" stroke="#056569" stroke-width="1.51"></path><path d="M297,269L405,208L305,154Z" fill="#006064" stroke="#006064" stroke-width="1.51"></path><path d="M424,62L391,-13L343,6Z" fill="#3b9c9a" stroke="#3b9c9a" stroke-width="1.51"></path><path d="M343,6L327,-81L261,25Z" fill="#45a9a4" stroke="#45a9a4" stroke-width="1.51"></path><path d="M72,29L27,76L76,161Z" fill="#3b9f9e" stroke="#3b9f9e" stroke-width="1.51"></path><path d="M391,-13L327,-81L343,6Z" fill="#45a9a4" stroke="#45a9a4" stroke-width="1.51"></path><path d="M211,-83L139,-95L139,-25Z" fill="#4eb6b1" stroke="#4eb6b1" stroke-width="1.51"></path><path d="M139,-25L59,-94L72,29Z" fill="#62d0c9" stroke="#62d0c9" stroke-width="1.51"></path><path d="M-53,-8L-57,56L27,76Z" fill="#68d9d0" stroke="#68d9d0" stroke-width="1.51"></path><path d="M387,-112L139,-95L211,-83Z" fill="#48aea9" stroke="#48aea9" stroke-width="1.51"></path><path d="M405,208L427,240L424,62Z" fill="#016165" stroke="#016165" stroke-width="1.51"></path><path d="M297,269L427,240L405,208Z" fill="#006064" stroke="#006064" stroke-width="1.51"></path><path d="M223,289L427,240L297,269Z" fill="#006064" stroke="#006064" stroke-width="1.51"></path><path d="M76,161L70,296L116,166Z" fill="#288586" stroke="#288586" stroke-width="1.51"></path><path d="M181,260L70,296L223,289Z" fill="#0d6c70" stroke="#0d6c70" stroke-width="1.51"></path><path d="M-44,260L70,296L76,161Z" fill="#3a9b99" stroke="#3a9b99" stroke-width="1.51"></path><path d="M139,-95L59,-94L139,-25Z" fill="#5bc7c0" stroke="#5bc7c0" stroke-width="1.51"></path><path d="M327,-81L387,-112L211,-83Z" fill="#45a9a4" stroke="#45a9a4" stroke-width="1.51"></path><path d="M139,-95L-123,-113L59,-94Z" fill="#77ede0" stroke="#77ede0" stroke-width="1.51"></path><path d="M391,-13L387,-112L327,-81Z" fill="#45a9a4" stroke="#45a9a4" stroke-width="1.51"></path><path d="M424,62L387,-112L391,-13Z" fill="#45a9a4" stroke="#45a9a4" stroke-width="1.51"></path><path d="M-57,56L-47,180L27,76Z" fill="#4db4b0" stroke="#4db4b0" stroke-width="1.51"></path><path d="M27,76L-47,180L76,161Z" fill="#43a7a4" stroke="#43a7a4" stroke-width="1.51"></path><path d="M-53,-8L27,76L72,29Z" fill="#68d9cf" stroke="#68d9cf" stroke-width="1.51"></path><path d="M59,-94L-53,-8L72,29Z" fill="#76ece0" stroke="#76ece0" stroke-width="1.51"></path><path d="M-47,180L-44,260L76,161Z" fill="#45a9a4" stroke="#45a9a4" stroke-width="1.51"></path><path d="M-98,165L-44,260L-47,180Z" fill="#45a9a4" stroke="#45a9a4" stroke-width="1.51"></path><path d="M59,-94L-47,-65L-53,-8Z" fill="#7ff8ea" stroke="#7ff8ea" stroke-width="1.51"></path><path d="M-94,15L-57,56L-53,-8Z" fill="#73e8dc" stroke="#73e8dc" stroke-width="1.51"></path><path d="M-124,108L-98,165L-57,56Z" fill="#4cb3af" stroke="#4cb3af" stroke-width="1.51"></path><path d="M-57,56L-98,165L-47,180Z" fill="#49afab" stroke="#49afab" stroke-width="1.51"></path><path d="M-47,-65L-94,15L-53,-8Z" fill="#7ff8ea" stroke="#7ff8ea" stroke-width="1.51"></path><path d="M-94,15L-124,108L-57,56Z" fill="#5eccc4" stroke="#5eccc4" stroke-width="1.51"></path><path d="M-98,165L-139,288L-44,260Z" fill="#45a9a4" stroke="#45a9a4" stroke-width="1.51"></path><path d="M-44,260L-139,288L70,296Z" fill="#45a9a4" stroke="#45a9a4" stroke-width="1.51"></path><path d="M-124,108L-139,288L-98,165Z" fill="#45a9a4" stroke="#45a9a4" stroke-width="1.51"></path><path d="M-124,108L-123,-113L-139,288Z" fill="#4eb6b1" stroke="#4eb6b1" stroke-width="1.51"></path><path d="M-94,15L-123,-113L-124,108Z" fill="#7df5e8" stroke="#7df5e8" stroke-width="1.51"></path><path d="M-47,-65L-123,-113L-94,15Z" fill="#7ff8ea" stroke="#7ff8ea" stroke-width="1.51"></path><path d="M59,-94L-123,-113L-47,-65Z" fill="#7ff8ea" stroke="#7ff8ea" stroke-width="1.51"></path><path d="M387,-112L-123,-113L139,-95Z" fill="#53bdb8" stroke="#53bdb8" stroke-width="1.51"></path></svg>