<svg width="300" height="176" xmlns="http://www.w3.org/2000/svg"><path d="M172,63L150,151L231,83Z" fill="#19787c" stroke="#19787c" stroke-width="1.51"></path><path d="M150,151L227,184L231,83Z" fill="#167579" stroke="#167579" stroke-width="1.51"></path><path d="M172,63L45,80L150,151Z" fill="#1f7e82" stroke="#1f7e82" stroke-width="1.51"></path><path d="M249,-17L128,6L172,63Z" fill="#2b8b8d" stroke="#2b8b8d" stroke-width="1.51"></path><path d="M231,83L249,-17L172,63Z" fill="#248385" stroke="#248385" stroke-width="1.51"></path><path d="M227,184L308,68L231,83Z" fill="#157478" stroke="#157478" stroke-width="1.51"></path><path d="M308,68L249,-17L231,83Z" fill="#228183" stroke="#228183" stroke-width="1.51"></path><path d="M128,6L45,80L172,63Z" fill="#2a8a8c" stroke="#2a8a8c" stroke-width="1.51"></path><path d="M150,151L211,265L227,184Z" fill="#137175" stroke="#137175" stroke-width="1.51"></path><path d="M227,184L343,181L308,68Z" fill="#127074" stroke="#127074" stroke-width="1.51"></path><path d="M148,300L211,265L150,151Z" fill="#127074" stroke="#127074" stroke-width="1.51"></path><path d="M45,80L43,171L150,151Z" fill="#258587" stroke="#258587" stroke-width="1.51"></path><path d="M60,-117L59,18L128,6Z" fill="#42a7a5" stroke="#42a7a5" stroke-width="1.51"></path><path d="M128,6L59,18L45,80Z" fill="#349696" stroke="#349696" stroke-width="1.51"></path><path d="M326,236L343,181L227,184Z" fill="#0f6d71" stroke="#0f6d71" stroke-width="1.51"></path><path d="M211,265L326,236L227,184Z" fill="#0e6d71" stroke="#0e6d71" stroke-width="1.51"></path><path d="M211,265L393,241L326,236Z" fill="#0b6a6e" stroke="#0b6a6e" stroke-width="1.51"></path><path d="M44,274L148,300L150,151Z" fill="#1a787b" stroke="#1a787b" stroke-width="1.51"></path><path d="M308,68L361,-2L249,-17Z" fill="#288688" stroke="#288688" stroke-width="1.51"></path><path d="M399,-1L361,-2L436,64Z" fill="#248183" stroke="#248183" stroke-width="1.51"></path><path d="M43,171L44,274L150,151Z" fill="#228183" stroke="#228183" stroke-width="1.51"></path><path d="M361,-2L296,-83L249,-17Z" fill="#339493" stroke="#339493" stroke-width="1.51"></path><path d="M249,-17L228,-113L128,6Z" fill="#389a9a" stroke="#389a9a" stroke-width="1.51"></path><path d="M343,181L436,64L308,68Z" fill="#117074" stroke="#117074" stroke-width="1.51"></path><path d="M393,241L403,188L343,181Z" fill="#0b6a6e" stroke="#0b6a6e" stroke-width="1.51"></path><path d="M43,171L-31,181L44,274Z" fill="#2c8c8c" stroke="#2c8c8c" stroke-width="1.51"></path><path d="M-43,92L-31,181L43,171Z" fill="#349594" stroke="#349594" stroke-width="1.51"></path><path d="M-43,92L43,171L45,80Z" fill="#319293" stroke="#319293" stroke-width="1.51"></path><path d="M296,-83L228,-113L249,-17Z" fill="#3da09e" stroke="#3da09e" stroke-width="1.51"></path><path d="M-22,11L-43,92L45,80Z" fill="#3b9f9e" stroke="#3b9f9e" stroke-width="1.51"></path><path d="M-22,11L45,80L59,18Z" fill="#3c9f9e" stroke="#3c9f9e" stroke-width="1.51"></path><path d="M60,-117L-22,11L59,18Z" fill="#49b0ad" stroke="#49b0ad" stroke-width="1.51"></path><path d="M436,64L361,-2L308,68Z" fill="#1f7d7f" stroke="#1f7d7f" stroke-width="1.51"></path><path d="M361,-2L404,-80L296,-83Z" fill="#379796" stroke="#379796" stroke-width="1.51"></path><path d="M148,300L393,241L211,265Z" fill="#0c6b6f" stroke="#0c6b6f" stroke-width="1.51"></path><path d="M326,236L393,241L343,181Z" fill="#0b6a6e" stroke="#0b6a6e" stroke-width="1.51"></path><path d="M228,-113L130,-124L128,6Z" fill="#41a6a4" stroke="#41a6a4" stroke-width="1.51"></path><path d="M393,241L436,64L403,188Z" fill="#0b6a6e" stroke="#0b6a6e" stroke-width="1.51"></path><path d="M403,188L436,64L343,181Z" fill="#0e6c70" stroke="#0e6c70" stroke-width="1.51"></path><path d="M130,-124L60,-117L128,6Z" fill="#49b0ac" stroke="#49b0ac" stroke-width="1.51"></path><path d="M-31,181L-49,249L44,274Z" fill="#309090" stroke="#309090" stroke-width="1.51"></path><path d="M-94,154L-49,249L-31,181Z" fill="#399b9a" stroke="#399b9a" stroke-width="1.51"></path><path d="M-102,84L-94,154L-43,92Z" fill="#40a4a3" stroke="#40a4a3" stroke-width="1.51"></path><path d="M-43,92L-94,154L-31,181Z" fill="#3b9e9d" stroke="#3b9e9d" stroke-width="1.51"></path><path d="M436,64L404,-80L399,-1Z" fill="#298788" stroke="#298788" stroke-width="1.51"></path><path d="M399,-1L404,-80L361,-2Z" fill="#2f8e8e" stroke="#2f8e8e" stroke-width="1.51"></path><path d="M296,-83L404,-80L228,-113Z" fill="#40a4a1" stroke="#40a4a1" stroke-width="1.51"></path><path d="M-22,11L-102,84L-43,92Z" fill="#43a8a6" stroke="#43a8a6" stroke-width="1.51"></path><path d="M-124,-30L-102,84L-22,11Z" fill="#50b9b5" stroke="#50b9b5" stroke-width="1.51"></path><path d="M60,-117L-61,-83L-22,11Z" fill="#57c2bc" stroke="#57c2bc" stroke-width="1.51"></path><path d="M-94,154L-128,245L-49,249Z" fill="#3ea09e" stroke="#3ea09e" stroke-width="1.51"></path><path d="M-49,249L-128,245L44,274Z" fill="#359593" stroke="#359593" stroke-width="1.51"></path><path d="M44,274L-128,245L148,300Z" fill="#298788" stroke="#298788" stroke-width="1.51"></path><path d="M-102,84L-128,245L-94,154Z" fill="#42a7a4" stroke="#42a7a4" stroke-width="1.51"></path><path d="M-102,84L-124,-30L-128,245Z" fill="#46adaa" stroke="#46adaa" stroke-width="1.51"></path><path d="M-61,-83L-124,-30L-22,11Z" fill="#5ac6bf" stroke="#5ac6bf" stroke-width="1.51"></path><path d="M-61,-83L-115,-85L-124,-30Z" fill="#66d6cd" stroke="#66d6cd" stroke-width="1.51"></path><path d="M60,-117L-115,-85L-61,-83Z" fill="#62d1c9" stroke="#62d1c9" stroke-width="1.51"></path></svg>