<svg width="300" height="176" xmlns="http://www.w3.org/2000/svg"><path d="M68,-122L263,-81L410,-94Z" fill="#449ea2" stroke="#449ea2" stroke-width="1.51"></path><path d="M263,-81L315,-64L410,-94Z" fill="#3e969a" stroke="#3e969a" stroke-width="1.51"></path><path d="M315,-64L392,14L410,-94Z" fill="#358e92" stroke="#358e92" stroke-width="1.51"></path><path d="M410,-94L392,14L415,115Z" fill="#277f83" stroke="#277f83" stroke-width="1.51"></path><path d="M415,115L308,182L432,190Z" fill="#0d6b70" stroke="#0d6b70" stroke-width="1.51"></path><path d="M308,182L412,269L432,190Z" fill="#09696d" stroke="#09696d" stroke-width="1.51"></path><path d="M410,-94L415,115L432,190Z" fill="#167377" stroke="#167377" stroke-width="1.51"></path><path d="M308,182L331,283L412,269Z" fill="#09686c" stroke="#09686c" stroke-width="1.51"></path><path d="M392,14L300,64L415,115Z" fill="#19767a" stroke="#19767a" stroke-width="1.51"></path><path d="M300,64L308,182L415,115Z" fill="#117074" stroke="#117074" stroke-width="1.51"></path><path d="M315,-64L321,12L392,14Z" fill="#2e878b" stroke="#2e878b" stroke-width="1.51"></path><path d="M321,12L300,64L392,14Z" fill="#247e82" stroke="#247e82" stroke-width="1.51"></path><path d="M300,64L252,155L308,182Z" fill="#137276" stroke="#137276" stroke-width="1.51"></path><path d="M315,-64L273,19L321,12Z" fill="#2f888c" stroke="#2f888c" stroke-width="1.51"></path><path d="M233,242L140,286L331,283Z" fill="#0d6c70" stroke="#0d6c70" stroke-width="1.51"></path><path d="M308,182L233,242L331,283Z" fill="#0c6b6f" stroke="#0c6b6f" stroke-width="1.51"></path><path d="M263,-81L273,19L315,-64Z" fill="#379094" stroke="#379094" stroke-width="1.51"></path><path d="M273,19L300,64L321,12Z" fill="#258084" stroke="#258084" stroke-width="1.51"></path><path d="M68,-122L145,-60L263,-81Z" fill="#44a0a4" stroke="#44a0a4" stroke-width="1.51"></path><path d="M220,70L252,155L300,64Z" fill="#167579" stroke="#167579" stroke-width="1.51"></path><path d="M252,155L233,242L308,182Z" fill="#116f73" stroke="#116f73" stroke-width="1.51"></path><path d="M273,19L220,70L300,64Z" fill="#217d81" stroke="#217d81" stroke-width="1.51"></path><path d="M263,-81L183,10L273,19Z" fill="#328d91" stroke="#328d91" stroke-width="1.51"></path><path d="M183,10L220,70L273,19Z" fill="#278387" stroke="#278387" stroke-width="1.51"></path><path d="M220,70L161,112L252,155Z" fill="#17767a" stroke="#17767a" stroke-width="1.51"></path><path d="M164,157L233,242L252,155Z" fill="#137175" stroke="#137175" stroke-width="1.51"></path><path d="M145,-60L183,10L263,-81Z" fill="#399498" stroke="#399498" stroke-width="1.51"></path><path d="M161,112L164,157L252,155Z" fill="#167579" stroke="#167579" stroke-width="1.51"></path><path d="M164,157L140,286L233,242Z" fill="#127175" stroke="#127175" stroke-width="1.51"></path><path d="M183,10L161,112L220,70Z" fill="#1f7d81" stroke="#1f7d81" stroke-width="1.51"></path><path d="M32,263L-34,292L140,286Z" fill="#267e82" stroke="#267e82" stroke-width="1.51"></path><path d="M75,192L140,286L164,157Z" fill="#19767a" stroke="#19767a" stroke-width="1.51"></path><path d="M145,-60L78,-36L183,10Z" fill="#3a9599" stroke="#3a9599" stroke-width="1.51"></path><path d="M78,-36L68,78L183,10Z" fill="#348f93" stroke="#348f93" stroke-width="1.51"></path><path d="M68,78L161,112L183,10Z" fill="#238084" stroke="#238084" stroke-width="1.51"></path><path d="M68,78L75,192L161,112Z" fill="#227f83" stroke="#227f83" stroke-width="1.51"></path><path d="M161,112L75,192L164,157Z" fill="#1a787c" stroke="#1a787c" stroke-width="1.51"></path><path d="M75,192L32,263L140,286Z" fill="#207b7f" stroke="#207b7f" stroke-width="1.51"></path><path d="M68,-122L78,-36L145,-60Z" fill="#4aa5a9" stroke="#4aa5a9" stroke-width="1.51"></path><path d="M-148,-102L-33,-78L68,-122Z" fill="#64c1c5" stroke="#64c1c5" stroke-width="1.51"></path><path d="M-13,-14L-28,85L68,78Z" fill="#3c989c" stroke="#3c989c" stroke-width="1.51"></path><path d="M68,78L-28,85L75,192Z" fill="#2e898d" stroke="#2e898d" stroke-width="1.51"></path><path d="M-28,85L-62,204L75,192Z" fill="#338e92" stroke="#338e92" stroke-width="1.51"></path><path d="M68,-122L-33,-78L78,-36Z" fill="#54b0b4" stroke="#54b0b4" stroke-width="1.51"></path><path d="M-33,-78L-13,-14L78,-36Z" fill="#51acb0" stroke="#51acb0" stroke-width="1.51"></path><path d="M-13,-14L68,78L78,-36Z" fill="#409b9f" stroke="#409b9f" stroke-width="1.51"></path><path d="M-62,204L32,263L75,192Z" fill="#2d878b" stroke="#2d878b" stroke-width="1.51"></path><path d="M-62,204L-34,292L32,263Z" fill="#328b8f" stroke="#328b8f" stroke-width="1.51"></path><path d="M-106,163L-62,204L-28,85Z" fill="#3d989c" stroke="#3d989c" stroke-width="1.51"></path><path d="M-33,-78L-153,2L-13,-14Z" fill="#5ab6ba" stroke="#5ab6ba" stroke-width="1.51"></path><path d="M-153,2L-90,69L-13,-14Z" fill="#52aeb2" stroke="#52aeb2" stroke-width="1.51"></path><path d="M-90,69L-28,85L-13,-14Z" fill="#45a1a5" stroke="#45a1a5" stroke-width="1.51"></path><path d="M-62,204L-130,258L-34,292Z" fill="#3b9397" stroke="#3b9397" stroke-width="1.51"></path><path d="M-148,-102L-153,2L-33,-78Z" fill="#67c4c8" stroke="#67c4c8" stroke-width="1.51"></path><path d="M-90,69L-106,163L-28,85Z" fill="#419ca0" stroke="#419ca0" stroke-width="1.51"></path><path d="M-106,163L-130,258L-62,204Z" fill="#40999d" stroke="#40999d" stroke-width="1.51"></path><path d="M-153,2L-106,163L-90,69Z" fill="#4aa6aa" stroke="#4aa6aa" stroke-width="1.51"></path><path d="M-153,2L-130,258L-106,163Z" fill="#48a2a6" stroke="#48a2a6" stroke-width="1.51"></path></svg>