<svg width="300" height="176" xmlns="http://www.w3.org/2000/svg"><path d="M121,265L90,275L224,259Z" fill="#127074" stroke="#127074" stroke-width="1.51"></path><path d="M224,259L90,275L302,267Z" fill="#0e6d71" stroke="#0e6d71" stroke-width="1.51"></path><path d="M-94,-119L169,-107L324,-112Z" fill="#4da9ad" stroke="#4da9ad" stroke-width="1.51"></path><path d="M302,267L90,275L395,266Z" fill="#0c6b6f" stroke="#0c6b6f" stroke-width="1.51"></path><path d="M330,183L395,266L448,159Z" fill="#0a696d" stroke="#0a696d" stroke-width="1.51"></path><path d="M388,-61L322,-24L449,25Z" fill="#2e878b" stroke="#2e878b" stroke-width="1.51"></path><path d="M344,109L424,118L449,25Z" fill="#127074" stroke="#127074" stroke-width="1.51"></path><path d="M322,-24L344,109L449,25Z" fill="#217c80" stroke="#217c80" stroke-width="1.51"></path><path d="M424,118L448,159L449,25Z" fill="#0e6d71" stroke="#0e6d71" stroke-width="1.51"></path><path d="M424,118L330,183L448,159Z" fill="#0c6b6f" stroke="#0c6b6f" stroke-width="1.51"></path><path d="M344,109L330,183L424,118Z" fill="#0f6e72" stroke="#0f6e72" stroke-width="1.51"></path><path d="M330,183L302,267L395,266Z" fill="#0a696d" stroke="#0a696d" stroke-width="1.51"></path><path d="M322,-24L266,85L344,109Z" fill="#1e7a7e" stroke="#1e7a7e" stroke-width="1.51"></path><path d="M324,-112L322,-24L388,-61Z" fill="#3a9397" stroke="#3a9397" stroke-width="1.51"></path><path d="M-94,-119L52,-83L169,-107Z" fill="#59b5b9" stroke="#59b5b9" stroke-width="1.51"></path><path d="M272,-22L266,85L322,-24Z" fill="#2a8488" stroke="#2a8488" stroke-width="1.51"></path><path d="M169,-107L261,-77L324,-112Z" fill="#449ea2" stroke="#449ea2" stroke-width="1.51"></path><path d="M261,-77L322,-24L324,-112Z" fill="#3c9599" stroke="#3c9599" stroke-width="1.51"></path><path d="M266,85L330,183L344,109Z" fill="#127175" stroke="#127175" stroke-width="1.51"></path><path d="M261,-77L272,-22L322,-24Z" fill="#369094" stroke="#369094" stroke-width="1.51"></path><path d="M266,85L207,181L330,183Z" fill="#137175" stroke="#137175" stroke-width="1.51"></path><path d="M224,259L302,267L330,183Z" fill="#0d6c70" stroke="#0d6c70" stroke-width="1.51"></path><path d="M207,181L224,259L330,183Z" fill="#106e72" stroke="#106e72" stroke-width="1.51"></path><path d="M169,-107L141,16L261,-77Z" fill="#3d979b" stroke="#3d979b" stroke-width="1.51"></path><path d="M152,109L207,181L266,85Z" fill="#167579" stroke="#167579" stroke-width="1.51"></path><path d="M141,16L152,109L266,85Z" fill="#1e7c80" stroke="#1e7c80" stroke-width="1.51"></path><path d="M141,16L266,85L272,-22Z" fill="#288488" stroke="#288488" stroke-width="1.51"></path><path d="M261,-77L141,16L272,-22Z" fill="#359094" stroke="#359094" stroke-width="1.51"></path><path d="M152,109L137,145L207,181Z" fill="#17767a" stroke="#17767a" stroke-width="1.51"></path><path d="M207,181L121,265L224,259Z" fill="#117074" stroke="#117074" stroke-width="1.51"></path><path d="M137,145L121,265L207,181Z" fill="#147377" stroke="#147377" stroke-width="1.51"></path><path d="M-33,242L-102,256L90,275Z" fill="#31898d" stroke="#31898d" stroke-width="1.51"></path><path d="M141,16L63,74L152,109Z" fill="#268387" stroke="#268387" stroke-width="1.51"></path><path d="M53,-23L141,16L169,-107Z" fill="#3e9a9e" stroke="#3e9a9e" stroke-width="1.51"></path><path d="M52,-83L53,-23L169,-107Z" fill="#4aa6aa" stroke="#4aa6aa" stroke-width="1.51"></path><path d="M31,206L121,265L137,145Z" fill="#1f7b7f" stroke="#1f7b7f" stroke-width="1.51"></path><path d="M63,74L137,145L152,109Z" fill="#207d81" stroke="#207d81" stroke-width="1.51"></path><path d="M31,206L90,275L121,265Z" fill="#207b7f" stroke="#207b7f" stroke-width="1.51"></path><path d="M53,-23L63,74L141,16Z" fill="#379296" stroke="#379296" stroke-width="1.51"></path><path d="M63,74L31,206L137,145Z" fill="#268286" stroke="#268286" stroke-width="1.51"></path><path d="M-41,170L31,206L63,74Z" fill="#308b8f" stroke="#308b8f" stroke-width="1.51"></path><path d="M-29,80L-41,170L63,74Z" fill="#359194" stroke="#359194" stroke-width="1.51"></path><path d="M31,206L-33,242L90,275Z" fill="#2a8387" stroke="#2a8387" stroke-width="1.51"></path><path d="M-94,-119L-6,-63L52,-83Z" fill="#5ebbbf" stroke="#5ebbbf" stroke-width="1.51"></path><path d="M52,-83L-6,-63L53,-23Z" fill="#50acb0" stroke="#50acb0" stroke-width="1.51"></path><path d="M53,-23L-15,-16L63,74Z" fill="#429ca0" stroke="#429ca0" stroke-width="1.51"></path><path d="M-15,-16L-29,80L63,74Z" fill="#3e999d" stroke="#3e999d" stroke-width="1.51"></path><path d="M-6,-63L-15,-16L53,-23Z" fill="#4faaae" stroke="#4faaae" stroke-width="1.51"></path><path d="M-41,170L-33,242L31,206Z" fill="#338c90" stroke="#338c90" stroke-width="1.51"></path><path d="M-120,77L-29,80L-15,-16Z" fill="#47a3a7" stroke="#47a3a7" stroke-width="1.51"></path><path d="M-94,-119L-15,-16L-6,-63Z" fill="#5db9bd" stroke="#5db9bd" stroke-width="1.51"></path><path d="M-120,77L-41,170L-29,80Z" fill="#3f9a9e" stroke="#3f9a9e" stroke-width="1.51"></path><path d="M-94,-119L-152,-18L-15,-16Z" fill="#61bec2" stroke="#61bec2" stroke-width="1.51"></path><path d="M-152,-18L-120,77L-15,-16Z" fill="#54b1b5" stroke="#54b1b5" stroke-width="1.51"></path><path d="M-120,77L-149,152L-41,170Z" fill="#449ea2" stroke="#449ea2" stroke-width="1.51"></path><path d="M-41,170L-102,256L-33,242Z" fill="#399296" stroke="#399296" stroke-width="1.51"></path><path d="M-149,152L-102,256L-41,170Z" fill="#419a9e" stroke="#419a9e" stroke-width="1.51"></path><path d="M-152,-18L-149,152L-120,77Z" fill="#50acb0" stroke="#50acb0" stroke-width="1.51"></path></svg>