<svg width="300" height="176" xmlns="http://www.w3.org/2000/svg"><path d="M141,55L173,29L60,10Z" fill="#45aba8" stroke="#45aba8" stroke-width="1.51"></path><path d="M173,29L132,-97L60,10Z" fill="#57c3bd" stroke="#57c3bd" stroke-width="1.51"></path><path d="M60,10L45,77L141,55Z" fill="#4bb1ad" stroke="#4bb1ad" stroke-width="1.51"></path><path d="M132,-97L68,-112L60,10Z" fill="#63d2ca" stroke="#63d2ca" stroke-width="1.51"></path><path d="M60,10L-59,-21L45,77Z" fill="#6ee0d6" stroke="#6ee0d6" stroke-width="1.51"></path><path d="M173,29L242,-35L132,-97Z" fill="#4cb4af" stroke="#4cb4af" stroke-width="1.51"></path><path d="M68,-112L1,-77L60,10Z" fill="#71e5da" stroke="#71e5da" stroke-width="1.51"></path><path d="M173,29L253,56L242,-35Z" fill="#41a4a2" stroke="#41a4a2" stroke-width="1.51"></path><path d="M141,55L253,56L173,29Z" fill="#319293" stroke="#319293" stroke-width="1.51"></path><path d="M260,158L253,56L141,55Z" fill="#157377" stroke="#157377" stroke-width="1.51"></path><path d="M242,-35L263,-100L132,-97Z" fill="#4ab1ad" stroke="#4ab1ad" stroke-width="1.51"></path><path d="M132,-97L263,-100L68,-112Z" fill="#4eb6b2" stroke="#4eb6b2" stroke-width="1.51"></path><path d="M327,-110L263,-100L242,-35Z" fill="#47aba7" stroke="#47aba7" stroke-width="1.51"></path><path d="M45,77L119,170L141,55Z" fill="#2b8b8c" stroke="#2b8b8c" stroke-width="1.51"></path><path d="M1,-77L-59,-21L60,10Z" fill="#7ff7e9" stroke="#7ff7e9" stroke-width="1.51"></path><path d="M45,77L41,197L119,170Z" fill="#329191" stroke="#329191" stroke-width="1.51"></path><path d="M253,56L342,21L242,-35Z" fill="#3fa19e" stroke="#3fa19e" stroke-width="1.51"></path><path d="M119,170L260,158L141,55Z" fill="#137276" stroke="#137276" stroke-width="1.51"></path><path d="M119,170L162,281L260,158Z" fill="#0b6a6e" stroke="#0b6a6e" stroke-width="1.51"></path><path d="M-60,116L41,197L45,77Z" fill="#47aca8" stroke="#47aca8" stroke-width="1.51"></path><path d="M-59,-21L-60,116L45,77Z" fill="#5fcdc5" stroke="#5fcdc5" stroke-width="1.51"></path><path d="M260,158L325,81L253,56Z" fill="#0e6d71" stroke="#0e6d71" stroke-width="1.51"></path><path d="M325,81L342,21L253,56Z" fill="#278585" stroke="#278585" stroke-width="1.51"></path><path d="M263,-100L327,-110L68,-112Z" fill="#4ab0ac" stroke="#4ab0ac" stroke-width="1.51"></path><path d="M342,21L327,-110L242,-35Z" fill="#45a9a4" stroke="#45a9a4" stroke-width="1.51"></path><path d="M-59,-21L-130,55L-60,116Z" fill="#63d2ca" stroke="#63d2ca" stroke-width="1.51"></path><path d="M-150,-94L-129,-12L-59,-21Z" fill="#7ff8ea" stroke="#7ff8ea" stroke-width="1.51"></path><path d="M-150,-94L-59,-21L1,-77Z" fill="#7ff8ea" stroke="#7ff8ea" stroke-width="1.51"></path><path d="M-129,-12L-130,55L-59,-21Z" fill="#7bf2e5" stroke="#7bf2e5" stroke-width="1.51"></path><path d="M-127,201L-55,197L-60,116Z" fill="#46a9a5" stroke="#46a9a5" stroke-width="1.51"></path><path d="M-60,116L-55,197L41,197Z" fill="#46aaa6" stroke="#46aaa6" stroke-width="1.51"></path><path d="M342,21L386,-77L327,-110Z" fill="#45a9a4" stroke="#45a9a4" stroke-width="1.51"></path><path d="M325,81L387,57L342,21Z" fill="#278485" stroke="#278485" stroke-width="1.51"></path><path d="M340,166L387,57L325,81Z" fill="#0c6b6f" stroke="#0c6b6f" stroke-width="1.51"></path><path d="M419,30L386,-77L342,21Z" fill="#45a9a4" stroke="#45a9a4" stroke-width="1.51"></path><path d="M342,263L340,166L260,158Z" fill="#006064" stroke="#006064" stroke-width="1.51"></path><path d="M260,158L340,166L325,81Z" fill="#06666a" stroke="#06666a" stroke-width="1.51"></path><path d="M-129,-12L-150,-94L-130,55Z" fill="#7ff8ea" stroke="#7ff8ea" stroke-width="1.51"></path><path d="M68,-112L-150,-94L1,-77Z" fill="#7ff8ea" stroke="#7ff8ea" stroke-width="1.51"></path><path d="M58,299L162,281L119,170Z" fill="#1e7b7d" stroke="#1e7b7d" stroke-width="1.51"></path><path d="M58,299L119,170L41,197Z" fill="#2d8b8b" stroke="#2d8b8b" stroke-width="1.51"></path><path d="M403,177L419,30L387,57Z" fill="#0e6d71" stroke="#0e6d71" stroke-width="1.51"></path><path d="M387,57L419,30L342,21Z" fill="#31908f" stroke="#31908f" stroke-width="1.51"></path><path d="M-47,267L58,299L41,197Z" fill="#40a29e" stroke="#40a29e" stroke-width="1.51"></path><path d="M58,299L212,297L162,281Z" fill="#116f73" stroke="#116f73" stroke-width="1.51"></path><path d="M162,281L212,297L260,158Z" fill="#08676b" stroke="#08676b" stroke-width="1.51"></path><path d="M-55,197L-47,267L41,197Z" fill="#45a9a4" stroke="#45a9a4" stroke-width="1.51"></path><path d="M-127,201L-47,267L-55,197Z" fill="#45a9a4" stroke="#45a9a4" stroke-width="1.51"></path><path d="M-130,55L-127,201L-60,116Z" fill="#4ab1ad" stroke="#4ab1ad" stroke-width="1.51"></path><path d="M-150,-94L-127,201L-130,55Z" fill="#61d0c7" stroke="#61d0c7" stroke-width="1.51"></path><path d="M340,166L403,177L387,57Z" fill="#07666a" stroke="#07666a" stroke-width="1.51"></path><path d="M342,263L403,177L340,166Z" fill="#006064" stroke="#006064" stroke-width="1.51"></path><path d="M212,297L342,263L260,158Z" fill="#026266" stroke="#026266" stroke-width="1.51"></path><path d="M-127,201L-101,288L-47,267Z" fill="#45a9a4" stroke="#45a9a4" stroke-width="1.51"></path><path d="M-47,267L-101,288L58,299Z" fill="#45a9a4" stroke="#45a9a4" stroke-width="1.51"></path><path d="M342,263L432,250L403,177Z" fill="#006064" stroke="#006064" stroke-width="1.51"></path><path d="M403,177L432,250L419,30Z" fill="#036367" stroke="#036367" stroke-width="1.51"></path><path d="M212,297L432,250L342,263Z" fill="#006064" stroke="#006064" stroke-width="1.51"></path></svg>