<svg width="300" height="176" xmlns="http://www.w3.org/2000/svg"><path d="M-136,-82L-56,-85L75,-111Z" fill="#d6b7b3" stroke="#d6b7b3" stroke-width="1.51"></path><path d="M326,284L153,292L386,289Z" fill="#237edb" stroke="#237edb" stroke-width="1.51"></path><path d="M331,-80L306,-31L395,29Z" fill="#8395d0" stroke="#8395d0" stroke-width="1.51"></path><path d="M395,29L322,70L417,117Z" fill="#3f88e0" stroke="#3f88e0" stroke-width="1.51"></path><path d="M326,284L386,289L422,197Z" fill="#217cd8" stroke="#217cd8" stroke-width="1.51"></path><path d="M417,117L353,152L422,197Z" fill="#2682de" stroke="#2682de" stroke-width="1.51"></path><path d="M257,-98L331,-80L428,-75Z" fill="#9c9cc6" stroke="#9c9cc6" stroke-width="1.51"></path><path d="M331,-80L395,29L428,-75Z" fill="#8996cc" stroke="#8996cc" stroke-width="1.51"></path><path d="M395,29L417,117L428,-75Z" fill="#658cd6" stroke="#658cd6" stroke-width="1.51"></path><path d="M417,117L422,197L428,-75Z" fill="#3585df" stroke="#3585df" stroke-width="1.51"></path><path d="M353,152L326,284L422,197Z" fill="#2480dc" stroke="#2480dc" stroke-width="1.51"></path><path d="M322,70L353,152L417,117Z" fill="#2a85e1" stroke="#2a85e1" stroke-width="1.51"></path><path d="M306,-31L322,70L395,29Z" fill="#688fd9" stroke="#688fd9" stroke-width="1.51"></path><path d="M306,-31L260,55L322,70Z" fill="#6390dc" stroke="#6390dc" stroke-width="1.51"></path><path d="M252,158L213,249L326,284Z" fill="#2883df" stroke="#2883df" stroke-width="1.51"></path><path d="M252,158L326,284L353,152Z" fill="#2883df" stroke="#2883df" stroke-width="1.51"></path><path d="M322,70L252,158L353,152Z" fill="#2b87e3" stroke="#2b87e3" stroke-width="1.51"></path><path d="M236,23L260,55L306,-31Z" fill="#6e93da" stroke="#6e93da" stroke-width="1.51"></path><path d="M260,55L252,158L322,70Z" fill="#2e8ae6" stroke="#2e8ae6" stroke-width="1.51"></path><path d="M213,249L153,292L326,284Z" fill="#2681dd" stroke="#2681dd" stroke-width="1.51"></path><path d="M257,-98L306,-31L331,-80Z" fill="#989dca" stroke="#989dca" stroke-width="1.51"></path><path d="M75,-111L138,-78L257,-98Z" fill="#a6a6cb" stroke="#a6a6cb" stroke-width="1.51"></path><path d="M257,-98L236,23L306,-31Z" fill="#8999d1" stroke="#8999d1" stroke-width="1.51"></path><path d="M-16,248L-138,244L75,279Z" fill="#8795cc" stroke="#8795cc" stroke-width="1.51"></path><path d="M146,199L213,249L252,158Z" fill="#2b87e3" stroke="#2b87e3" stroke-width="1.51"></path><path d="M180,-11L236,23L257,-98Z" fill="#879ad4" stroke="#879ad4" stroke-width="1.51"></path><path d="M138,-78L180,-11L257,-98Z" fill="#97a0d0" stroke="#97a0d0" stroke-width="1.51"></path><path d="M123,66L252,158L260,55Z" fill="#318de9" stroke="#318de9" stroke-width="1.51"></path><path d="M236,23L123,66L260,55Z" fill="#5a92e3" stroke="#5a92e3" stroke-width="1.51"></path><path d="M123,66L146,199L252,158Z" fill="#308ce8" stroke="#308ce8" stroke-width="1.51"></path><path d="M180,-11L123,66L236,23Z" fill="#6a96e0" stroke="#6a96e0" stroke-width="1.51"></path><path d="M146,199L153,292L213,249Z" fill="#2a86e2" stroke="#2a86e2" stroke-width="1.51"></path><path d="M123,66L68,195L146,199Z" fill="#4e8fe4" stroke="#4e8fe4" stroke-width="1.51"></path><path d="M138,-78L85,10L180,-11Z" fill="#8d9fd6" stroke="#8d9fd6" stroke-width="1.51"></path><path d="M85,10L123,66L180,-11Z" fill="#7699de" stroke="#7699de" stroke-width="1.51"></path><path d="M36,69L68,195L123,66Z" fill="#6494e1" stroke="#6494e1" stroke-width="1.51"></path><path d="M68,195L75,279L146,199Z" fill="#558cde" stroke="#558cde" stroke-width="1.51"></path><path d="M146,199L75,279L153,292Z" fill="#4188df" stroke="#4188df" stroke-width="1.51"></path><path d="M75,-111L85,10L138,-78Z" fill="#a6a6cb" stroke="#a6a6cb" stroke-width="1.51"></path><path d="M36,69L-4,150L68,195Z" fill="#7697da" stroke="#7697da" stroke-width="1.51"></path><path d="M85,10L36,69L123,66Z" fill="#7b9add" stroke="#7b9add" stroke-width="1.51"></path><path d="M68,195L-16,248L75,279Z" fill="#6e90d6" stroke="#6e90d6" stroke-width="1.51"></path><path d="M-56,-85L-9,17L75,-111Z" fill="#c1aebf" stroke="#c1aebf" stroke-width="1.51"></path><path d="M75,-111L-9,17L85,10Z" fill="#a8a6cb" stroke="#a8a6cb" stroke-width="1.51"></path><path d="M-9,17L36,69L85,10Z" fill="#92a0d4" stroke="#92a0d4" stroke-width="1.51"></path><path d="M-4,150L-16,248L68,195Z" fill="#7a95d5" stroke="#7a95d5" stroke-width="1.51"></path><path d="M-53,112L-4,150L36,69Z" fill="#869cd7" stroke="#869cd7" stroke-width="1.51"></path><path d="M-9,17L-53,112L36,69Z" fill="#92a0d4" stroke="#92a0d4" stroke-width="1.51"></path><path d="M-56,-85L-95,-36L-9,17Z" fill="#c6b1bc" stroke="#c6b1bc" stroke-width="1.51"></path><path d="M-88,86L-53,112L-9,17Z" fill="#9ca3d0" stroke="#9ca3d0" stroke-width="1.51"></path><path d="M-112,173L-16,248L-4,150Z" fill="#8f9ace" stroke="#8f9ace" stroke-width="1.51"></path><path d="M-53,112L-112,173L-4,150Z" fill="#959ecf" stroke="#959ecf" stroke-width="1.51"></path><path d="M-95,-36L-88,86L-9,17Z" fill="#b4aac5" stroke="#b4aac5" stroke-width="1.51"></path><path d="M-112,173L-138,244L-16,248Z" fill="#9c9cc6" stroke="#9c9cc6" stroke-width="1.51"></path><path d="M-88,86L-112,173L-53,112Z" fill="#9ea2cc" stroke="#9ea2cc" stroke-width="1.51"></path><path d="M-136,-82L-95,-36L-56,-85Z" fill="#dbb9b0" stroke="#dbb9b0" stroke-width="1.51"></path><path d="M-95,-36L-136,-82L-88,86Z" fill="#cbb3b9" stroke="#cbb3b9" stroke-width="1.51"></path><path d="M-136,-82L-112,173L-88,86Z" fill="#b3aac5" stroke="#b3aac5" stroke-width="1.51"></path><path d="M-136,-82L-138,244L-112,173Z" fill="#aca6c7" stroke="#aca6c7" stroke-width="1.51"></path></svg>