<svg width="300" height="176" xmlns="http://www.w3.org/2000/svg"><path d="M152,82L156,163L226,83Z" fill="#318eea" stroke="#318eea" stroke-width="1.51"></path><path d="M156,163L264,165L226,83Z" fill="#2e8ae6" stroke="#2e8ae6" stroke-width="1.51"></path><path d="M226,83L241,29L152,82Z" fill="#4c90e6" stroke="#4c90e6" stroke-width="1.51"></path><path d="M313,109L241,29L226,83Z" fill="#418de5" stroke="#418de5" stroke-width="1.51"></path><path d="M264,165L313,109L226,83Z" fill="#2d89e5" stroke="#2d89e5" stroke-width="1.51"></path><path d="M152,82L64,106L156,163Z" fill="#4890e7" stroke="#4890e7" stroke-width="1.51"></path><path d="M118,13L64,106L152,82Z" fill="#6295e4" stroke="#6295e4" stroke-width="1.51"></path><path d="M241,29L118,13L152,82Z" fill="#6094e3" stroke="#6094e3" stroke-width="1.51"></path><path d="M156,163L235,295L264,165Z" fill="#2a86e2" stroke="#2a86e2" stroke-width="1.51"></path><path d="M64,106L62,194L156,163Z" fill="#5990e1" stroke="#5990e1" stroke-width="1.51"></path><path d="M121,-81L91,-14L118,13Z" fill="#96a1d3" stroke="#96a1d3" stroke-width="1.51"></path><path d="M118,13L91,-14L64,106Z" fill="#7e9bdb" stroke="#7e9bdb" stroke-width="1.51"></path><path d="M264,165L352,160L313,109Z" fill="#2a86e2" stroke="#2a86e2" stroke-width="1.51"></path><path d="M338,270L352,160L264,165Z" fill="#2782de" stroke="#2782de" stroke-width="1.51"></path><path d="M140,301L235,295L156,163Z" fill="#2985e1" stroke="#2985e1" stroke-width="1.51"></path><path d="M62,194L140,301L156,163Z" fill="#478be1" stroke="#478be1" stroke-width="1.51"></path><path d="M241,29L212,-65L118,13Z" fill="#7d9ada" stroke="#7d9ada" stroke-width="1.51"></path><path d="M351,-21L212,-65L241,29Z" fill="#8197d4" stroke="#8197d4" stroke-width="1.51"></path><path d="M351,-21L241,29L313,109Z" fill="#5e8fdd" stroke="#5e8fdd" stroke-width="1.51"></path><path d="M91,-14L-14,88L64,106Z" fill="#819bda" stroke="#819bda" stroke-width="1.51"></path><path d="M64,106L-11,206L62,194Z" fill="#7395da" stroke="#7395da" stroke-width="1.51"></path><path d="M235,295L338,270L264,165Z" fill="#2681dd" stroke="#2681dd" stroke-width="1.51"></path><path d="M212,-65L121,-81L118,13Z" fill="#919fd4" stroke="#919fd4" stroke-width="1.51"></path><path d="M91,-14L-33,18L-14,88Z" fill="#9aa2d1" stroke="#9aa2d1" stroke-width="1.51"></path><path d="M425,12L351,-21L313,109Z" fill="#608dda" stroke="#608dda" stroke-width="1.51"></path><path d="M62,194L27,288L140,301Z" fill="#5e8cd9" stroke="#5e8cd9" stroke-width="1.51"></path><path d="M-14,88L-11,206L64,106Z" fill="#7d99d8" stroke="#7d99d8" stroke-width="1.51"></path><path d="M-11,206L27,288L62,194Z" fill="#7592d5" stroke="#7592d5" stroke-width="1.51"></path><path d="M352,160L445,82L313,109Z" fill="#2985e1" stroke="#2985e1" stroke-width="1.51"></path><path d="M338,270L413,207L352,160Z" fill="#2480dc" stroke="#2480dc" stroke-width="1.51"></path><path d="M-14,88L-94,153L-11,206Z" fill="#909cd1" stroke="#909cd1" stroke-width="1.51"></path><path d="M-6,-76L-33,18L91,-14Z" fill="#b0a9c7" stroke="#b0a9c7" stroke-width="1.51"></path><path d="M-11,206L-18,261L27,288Z" fill="#7e93d0" stroke="#7e93d0" stroke-width="1.51"></path><path d="M-94,153L-18,261L-11,206Z" fill="#8e99cd" stroke="#8e99cd" stroke-width="1.51"></path><path d="M350,-88L54,-95L121,-81Z" fill="#a3a4cc" stroke="#a3a4cc" stroke-width="1.51"></path><path d="M121,-81L54,-95L91,-14Z" fill="#aba7c9" stroke="#aba7c9" stroke-width="1.51"></path><path d="M413,207L445,82L352,160Z" fill="#2682de" stroke="#2682de" stroke-width="1.51"></path><path d="M445,82L425,12L313,109Z" fill="#4488df" stroke="#4488df" stroke-width="1.51"></path><path d="M416,-65L350,-88L351,-21Z" fill="#9198c9" stroke="#9198c9" stroke-width="1.51"></path><path d="M351,-21L350,-88L212,-65Z" fill="#929bcc" stroke="#929bcc" stroke-width="1.51"></path><path d="M212,-65L350,-88L121,-81Z" fill="#9da1cc" stroke="#9da1cc" stroke-width="1.51"></path><path d="M54,-95L-6,-76L91,-14Z" fill="#b6abc4" stroke="#b6abc4" stroke-width="1.51"></path><path d="M413,207L410,298L445,82Z" fill="#237eda" stroke="#237eda" stroke-width="1.51"></path><path d="M338,270L410,298L413,207Z" fill="#217cd8" stroke="#217cd8" stroke-width="1.51"></path><path d="M235,295L410,298L338,270Z" fill="#227dd9" stroke="#227dd9" stroke-width="1.51"></path><path d="M140,301L410,298L235,295Z" fill="#247fdb" stroke="#247fdb" stroke-width="1.51"></path><path d="M-144,95L-14,88L-33,18Z" fill="#a2a5cd" stroke="#a2a5cd" stroke-width="1.51"></path><path d="M-144,95L-94,153L-14,88Z" fill="#9fa2cd" stroke="#9fa2cd" stroke-width="1.51"></path><path d="M425,12L416,-65L351,-21Z" fill="#8193ce" stroke="#8193ce" stroke-width="1.51"></path><path d="M445,82L416,-65L425,12Z" fill="#6d8dd3" stroke="#6d8dd3" stroke-width="1.51"></path><path d="M-133,22L-144,95L-33,18Z" fill="#b6abc4" stroke="#b6abc4" stroke-width="1.51"></path><path d="M-94,153L-114,291L-18,261Z" fill="#979ac7" stroke="#979ac7" stroke-width="1.51"></path><path d="M-115,-83L-133,22L-33,18Z" fill="#c9b2bb" stroke="#c9b2bb" stroke-width="1.51"></path><path d="M-144,95L-114,291L-94,153Z" fill="#a6a1c5" stroke="#a6a1c5" stroke-width="1.51"></path><path d="M-18,261L-114,291L27,288Z" fill="#8994ca" stroke="#8994ca" stroke-width="1.51"></path><path d="M27,288L-114,291L140,301Z" fill="#768fcf" stroke="#768fcf" stroke-width="1.51"></path><path d="M54,-95L-115,-83L-6,-76Z" fill="#cfb4b7" stroke="#cfb4b7" stroke-width="1.51"></path><path d="M-6,-76L-115,-83L-33,18Z" fill="#cab2ba" stroke="#cab2ba" stroke-width="1.51"></path></svg>