<svg width="300" height="176" xmlns="http://www.w3.org/2000/svg"><path d="M228,263L34,288L394,286Z" fill="#2682de" stroke="#2682de" stroke-width="1.51"></path><path d="M388,191L394,286L423,119Z" fill="#237fdb" stroke="#237fdb" stroke-width="1.51"></path><path d="M353,-91L410,26L448,-60Z" fill="#54a1e8" stroke="#54a1e8" stroke-width="1.51"></path><path d="M410,26L423,119L448,-60Z" fill="#4091e3" stroke="#4091e3" stroke-width="1.51"></path><path d="M321,250L228,263L394,286Z" fill="#237eda" stroke="#237eda" stroke-width="1.51"></path><path d="M388,191L340,204L394,286Z" fill="#237eda" stroke="#237eda" stroke-width="1.51"></path><path d="M353,-91L320,28L410,26Z" fill="#4e9ce8" stroke="#4e9ce8" stroke-width="1.51"></path><path d="M298,115L388,191L423,119Z" fill="#2884e0" stroke="#2884e0" stroke-width="1.51"></path><path d="M410,26L320,28L423,119Z" fill="#378de4" stroke="#378de4" stroke-width="1.51"></path><path d="M320,28L298,115L423,119Z" fill="#2c88e4" stroke="#2c88e4" stroke-width="1.51"></path><path d="M340,204L321,250L394,286Z" fill="#237eda" stroke="#237eda" stroke-width="1.51"></path><path d="M298,115L340,204L388,191Z" fill="#2883df" stroke="#2883df" stroke-width="1.51"></path><path d="M252,-27L320,28L353,-91Z" fill="#53a3eb" stroke="#53a3eb" stroke-width="1.51"></path><path d="M235,-114L252,-27L353,-91Z" fill="#60aeee" stroke="#60aeee" stroke-width="1.51"></path><path d="M243,191L321,250L340,204Z" fill="#2782de" stroke="#2782de" stroke-width="1.51"></path><path d="M298,115L243,191L340,204Z" fill="#2a85e1" stroke="#2a85e1" stroke-width="1.51"></path><path d="M173,248L34,288L228,263Z" fill="#2b86e1" stroke="#2b86e1" stroke-width="1.51"></path><path d="M-4,-104L122,-74L235,-114Z" fill="#6cbdf5" stroke="#6cbdf5" stroke-width="1.51"></path><path d="M231,64L298,115L320,28Z" fill="#368ee7" stroke="#368ee7" stroke-width="1.51"></path><path d="M243,191L228,263L321,250Z" fill="#2782df" stroke="#2782df" stroke-width="1.51"></path><path d="M252,-27L231,64L320,28Z" fill="#4699ea" stroke="#4699ea" stroke-width="1.51"></path><path d="M231,64L243,191L298,115Z" fill="#2d89e5" stroke="#2d89e5" stroke-width="1.51"></path><path d="M148,63L157,178L231,64Z" fill="#328eea" stroke="#328eea" stroke-width="1.51"></path><path d="M173,248L228,263L243,191Z" fill="#2985e1" stroke="#2985e1" stroke-width="1.51"></path><path d="M231,64L157,178L243,191Z" fill="#2e8ae6" stroke="#2e8ae6" stroke-width="1.51"></path><path d="M146,19L231,64L252,-27Z" fill="#499ced" stroke="#499ced" stroke-width="1.51"></path><path d="M235,-114L122,-74L252,-27Z" fill="#60b1f1" stroke="#60b1f1" stroke-width="1.51"></path><path d="M122,-74L146,19L252,-27Z" fill="#56a8f0" stroke="#56a8f0" stroke-width="1.51"></path><path d="M157,178L173,248L243,191Z" fill="#2c87e3" stroke="#2c87e3" stroke-width="1.51"></path><path d="M146,19L148,63L231,64Z" fill="#4097ed" stroke="#4097ed" stroke-width="1.51"></path><path d="M148,63L77,73L157,178Z" fill="#3892ec" stroke="#3892ec" stroke-width="1.51"></path><path d="M77,73L77,195L157,178Z" fill="#3d93ea" stroke="#3d93ea" stroke-width="1.51"></path><path d="M157,178L77,195L173,248Z" fill="#328be5" stroke="#328be5" stroke-width="1.51"></path><path d="M77,195L34,288L173,248Z" fill="#3a8fe5" stroke="#3a8fe5" stroke-width="1.51"></path><path d="M122,-74L71,24L146,19Z" fill="#5aabf2" stroke="#5aabf2" stroke-width="1.51"></path><path d="M-4,-104L36,-63L122,-74Z" fill="#72c4f7" stroke="#72c4f7" stroke-width="1.51"></path><path d="M146,19L71,24L148,63Z" fill="#4ca0f0" stroke="#4ca0f0" stroke-width="1.51"></path><path d="M71,24L77,73L148,63Z" fill="#4c9fef" stroke="#4c9fef" stroke-width="1.51"></path><path d="M-32,269L-114,281L34,288Z" fill="#55a2e7" stroke="#55a2e7" stroke-width="1.51"></path><path d="M36,-63L71,24L122,-74Z" fill="#66b7f4" stroke="#66b7f4" stroke-width="1.51"></path><path d="M36,-63L-12,56L71,24Z" fill="#64b4f3" stroke="#64b4f3" stroke-width="1.51"></path><path d="M71,24L-12,56L77,73Z" fill="#56a8f1" stroke="#56a8f1" stroke-width="1.51"></path><path d="M-12,56L-24,182L77,73Z" fill="#51a4f0" stroke="#51a4f0" stroke-width="1.51"></path><path d="M77,73L-24,182L77,195Z" fill="#4a9dec" stroke="#4a9dec" stroke-width="1.51"></path><path d="M-24,182L34,288L77,195Z" fill="#4b9be8" stroke="#4b9be8" stroke-width="1.51"></path><path d="M-24,182L-32,269L34,288Z" fill="#519fe8" stroke="#519fe8" stroke-width="1.51"></path><path d="M-50,-19L-12,56L36,-63Z" fill="#6dbef6" stroke="#6dbef6" stroke-width="1.51"></path><path d="M-4,-104L-50,-19L36,-63Z" fill="#77c9f8" stroke="#77c9f8" stroke-width="1.51"></path><path d="M-140,92L-24,182L-12,56Z" fill="#5faff1" stroke="#5faff1" stroke-width="1.51"></path><path d="M-143,-66L-50,-19L-4,-104Z" fill="#7fd3f9" stroke="#7fd3f9" stroke-width="1.51"></path><path d="M-140,92L-114,208L-24,182Z" fill="#62b1f0" stroke="#62b1f0" stroke-width="1.51"></path><path d="M-114,208L-32,269L-24,182Z" fill="#5aa8eb" stroke="#5aa8eb" stroke-width="1.51"></path><path d="M-100,19L-140,92L-12,56Z" fill="#6abcf5" stroke="#6abcf5" stroke-width="1.51"></path><path d="M-50,-19L-100,19L-12,56Z" fill="#6dbff6" stroke="#6dbff6" stroke-width="1.51"></path><path d="M-114,208L-114,281L-32,269Z" fill="#5eabea" stroke="#5eabea" stroke-width="1.51"></path><path d="M-143,-66L-100,19L-50,-19Z" fill="#7ccff9" stroke="#7ccff9" stroke-width="1.51"></path><path d="M-143,-66L-140,92L-100,19Z" fill="#78ccf8" stroke="#78ccf8" stroke-width="1.51"></path><path d="M-114,208L-140,92L-114,281Z" fill="#66b4ef" stroke="#66b4ef" stroke-width="1.51"></path></svg>