<svg width="300" height="176" xmlns="http://www.w3.org/2000/svg"><path d="M-25,248L-108,239L153,295Z" fill="#4d9ce7" stroke="#4d9ce7" stroke-width="1.51"></path><path d="M-20,-83L90,-79L221,-94Z" fill="#6dbef6" stroke="#6dbef6" stroke-width="1.51"></path><path d="M-119,-97L-20,-83L221,-94Z" fill="#78cbf8" stroke="#78cbf8" stroke-width="1.51"></path><path d="M267,261L153,295L333,264Z" fill="#2581dd" stroke="#2581dd" stroke-width="1.51"></path><path d="M-119,-97L221,-94L363,-114Z" fill="#68b9f4" stroke="#68b9f4" stroke-width="1.51"></path><path d="M363,-114L346,28L428,2Z" fill="#519fe8" stroke="#519fe8" stroke-width="1.51"></path><path d="M363,-114L428,2L430,-104Z" fill="#5ba8e9" stroke="#5ba8e9" stroke-width="1.51"></path><path d="M333,264L153,295L433,281Z" fill="#237eda" stroke="#237eda" stroke-width="1.51"></path><path d="M350,119L320,162L442,184Z" fill="#2783df" stroke="#2783df" stroke-width="1.51"></path><path d="M333,264L433,281L442,184Z" fill="#217cd8" stroke="#217cd8" stroke-width="1.51"></path><path d="M320,162L333,264L442,184Z" fill="#2580dc" stroke="#2580dc" stroke-width="1.51"></path><path d="M392,55L350,119L442,184Z" fill="#2884e0" stroke="#2884e0" stroke-width="1.51"></path><path d="M428,2L392,55L442,184Z" fill="#2c86e1" stroke="#2c86e1" stroke-width="1.51"></path><path d="M430,-104L428,2L442,184Z" fill="#3f91e3" stroke="#3f91e3" stroke-width="1.51"></path><path d="M346,28L392,55L428,2Z" fill="#4193e5" stroke="#4193e5" stroke-width="1.51"></path><path d="M90,-79L169,-80L221,-94Z" fill="#64b5f3" stroke="#64b5f3" stroke-width="1.51"></path><path d="M271,12L346,28L363,-114Z" fill="#52a0ea" stroke="#52a0ea" stroke-width="1.51"></path><path d="M346,28L350,119L392,55Z" fill="#348be4" stroke="#348be4" stroke-width="1.51"></path><path d="M346,28L242,80L350,119Z" fill="#328be6" stroke="#328be6" stroke-width="1.51"></path><path d="M221,-94L271,12L363,-114Z" fill="#5caced" stroke="#5caced" stroke-width="1.51"></path><path d="M320,162L267,261L333,264Z" fill="#2681dd" stroke="#2681dd" stroke-width="1.51"></path><path d="M271,12L242,80L346,28Z" fill="#4095e9" stroke="#4095e9" stroke-width="1.51"></path><path d="M242,80L320,162L350,119Z" fill="#2c87e3" stroke="#2c87e3" stroke-width="1.51"></path><path d="M238,203L267,261L320,162Z" fill="#2884e0" stroke="#2884e0" stroke-width="1.51"></path><path d="M242,80L238,203L320,162Z" fill="#2c87e3" stroke="#2c87e3" stroke-width="1.51"></path><path d="M169,-80L164,9L221,-94Z" fill="#5dadf1" stroke="#5dadf1" stroke-width="1.51"></path><path d="M164,105L238,203L242,80Z" fill="#2f8be7" stroke="#2f8be7" stroke-width="1.51"></path><path d="M164,9L242,80L271,12Z" fill="#4498ec" stroke="#4498ec" stroke-width="1.51"></path><path d="M221,-94L164,9L271,12Z" fill="#54a5ee" stroke="#54a5ee" stroke-width="1.51"></path><path d="M238,203L153,295L267,261Z" fill="#2883df" stroke="#2883df" stroke-width="1.51"></path><path d="M164,105L152,195L238,203Z" fill="#2e8ae6" stroke="#2e8ae6" stroke-width="1.51"></path><path d="M152,195L153,295L238,203Z" fill="#2b86e2" stroke="#2b86e2" stroke-width="1.51"></path><path d="M164,9L164,105L242,80Z" fill="#3b93ec" stroke="#3b93ec" stroke-width="1.51"></path><path d="M77,236L-25,248L153,295Z" fill="#4092e5" stroke="#4092e5" stroke-width="1.51"></path><path d="M152,195L77,236L153,295Z" fill="#328ae4" stroke="#328ae4" stroke-width="1.51"></path><path d="M32,161L152,195L164,105Z" fill="#3991e9" stroke="#3991e9" stroke-width="1.51"></path><path d="M37,73L164,105L164,9Z" fill="#449aee" stroke="#449aee" stroke-width="1.51"></path><path d="M90,-79L164,9L169,-80Z" fill="#5eb0f3" stroke="#5eb0f3" stroke-width="1.51"></path><path d="M37,73L32,161L164,105Z" fill="#4599ed" stroke="#4599ed" stroke-width="1.51"></path><path d="M90,-79L28,1L164,9Z" fill="#60b1f3" stroke="#60b1f3" stroke-width="1.51"></path><path d="M28,1L37,73L164,9Z" fill="#56a8f2" stroke="#56a8f2" stroke-width="1.51"></path><path d="M32,161L77,236L152,195Z" fill="#3f93e8" stroke="#3f93e8" stroke-width="1.51"></path><path d="M-20,-83L28,1L90,-79Z" fill="#70c1f7" stroke="#70c1f7" stroke-width="1.51"></path><path d="M32,161L-32,210L77,236Z" fill="#4c9dea" stroke="#4c9dea" stroke-width="1.51"></path><path d="M-32,210L-25,248L77,236Z" fill="#4e9de8" stroke="#4e9de8" stroke-width="1.51"></path><path d="M-28,78L32,161L37,73Z" fill="#51a4f0" stroke="#51a4f0" stroke-width="1.51"></path><path d="M28,1L-28,78L37,73Z" fill="#5cadf2" stroke="#5cadf2" stroke-width="1.51"></path><path d="M-20,-83L-59,6L28,1Z" fill="#71c3f7" stroke="#71c3f7" stroke-width="1.51"></path><path d="M-59,6L-28,78L28,1Z" fill="#66b7f4" stroke="#66b7f4" stroke-width="1.51"></path><path d="M-28,78L-94,155L32,161Z" fill="#59a9ef" stroke="#59a9ef" stroke-width="1.51"></path><path d="M-94,155L-32,210L32,161Z" fill="#57a7ed" stroke="#57a7ed" stroke-width="1.51"></path><path d="M-92,119L-94,155L-28,78Z" fill="#60b1f2" stroke="#60b1f2" stroke-width="1.51"></path><path d="M-119,-97L-116,-2L-59,6Z" fill="#7dd1f9" stroke="#7dd1f9" stroke-width="1.51"></path><path d="M-119,-97L-59,6L-20,-83Z" fill="#7fd2fa" stroke="#7fd2fa" stroke-width="1.51"></path><path d="M-32,210L-108,239L-25,248Z" fill="#59a7ea" stroke="#59a7ea" stroke-width="1.51"></path><path d="M-59,6L-92,119L-28,78Z" fill="#64b5f4" stroke="#64b5f4" stroke-width="1.51"></path><path d="M-94,155L-108,239L-32,210Z" fill="#5eaced" stroke="#5eaced" stroke-width="1.51"></path><path d="M-116,-2L-92,119L-59,6Z" fill="#6ec0f6" stroke="#6ec0f6" stroke-width="1.51"></path><path d="M-116,-2L-94,155L-92,119Z" fill="#66b7f4" stroke="#66b7f4" stroke-width="1.51"></path><path d="M-116,-2L-108,239L-94,155Z" fill="#65b5f2" stroke="#65b5f2" stroke-width="1.51"></path></svg>