<svg width="300" height="176" xmlns="http://www.w3.org/2000/svg"><path d="M-50,-104L27,-91L182,-105Z" fill="#c2afbe" stroke="#c2afbe" stroke-width="1.51"></path><path d="M-50,-104L182,-105L304,-107Z" fill="#aca8c9" stroke="#aca8c9" stroke-width="1.51"></path><path d="M208,240L163,236L338,286Z" fill="#2783df" stroke="#2783df" stroke-width="1.51"></path><path d="M163,236L77,238L338,286Z" fill="#2984e0" stroke="#2984e0" stroke-width="1.51"></path><path d="M77,238L-30,255L338,286Z" fill="#3e88df" stroke="#3e88df" stroke-width="1.51"></path><path d="M-30,255L-123,272L338,286Z" fill="#658dd7" stroke="#658dd7" stroke-width="1.51"></path><path d="M335,98L401,164L452,83Z" fill="#2884e0" stroke="#2884e0" stroke-width="1.51"></path><path d="M432,0L361,9L452,83Z" fill="#618bd7" stroke="#618bd7" stroke-width="1.51"></path><path d="M361,9L335,98L452,83Z" fill="#4889de" stroke="#4889de" stroke-width="1.51"></path><path d="M401,164L437,238L452,83Z" fill="#2480dc" stroke="#2480dc" stroke-width="1.51"></path><path d="M449,-64L432,0L452,83Z" fill="#6f8dd2" stroke="#6f8dd2" stroke-width="1.51"></path><path d="M361,9L432,0L449,-64Z" fill="#7d91ce" stroke="#7d91ce" stroke-width="1.51"></path><path d="M304,-107L361,9L449,-64Z" fill="#8f98ca" stroke="#8f98ca" stroke-width="1.51"></path><path d="M401,164L338,286L437,238Z" fill="#227eda" stroke="#227eda" stroke-width="1.51"></path><path d="M303,200L338,286L401,164Z" fill="#2580dc" stroke="#2580dc" stroke-width="1.51"></path><path d="M335,98L303,200L401,164Z" fill="#2884e0" stroke="#2884e0" stroke-width="1.51"></path><path d="M267,181L303,200L335,98Z" fill="#2a85e1" stroke="#2a85e1" stroke-width="1.51"></path><path d="M215,23L335,98L361,9Z" fill="#5b8ede" stroke="#5b8ede" stroke-width="1.51"></path><path d="M273,-75L215,23L361,9Z" fill="#7e96d5" stroke="#7e96d5" stroke-width="1.51"></path><path d="M304,-107L273,-75L361,9Z" fill="#929acc" stroke="#929acc" stroke-width="1.51"></path><path d="M215,23L234,118L335,98Z" fill="#3a8ce6" stroke="#3a8ce6" stroke-width="1.51"></path><path d="M234,118L267,181L335,98Z" fill="#2d88e4" stroke="#2d88e4" stroke-width="1.51"></path><path d="M303,200L208,240L338,286Z" fill="#2681dd" stroke="#2681dd" stroke-width="1.51"></path><path d="M267,181L208,240L303,200Z" fill="#2984e0" stroke="#2984e0" stroke-width="1.51"></path><path d="M182,-105L273,-75L304,-107Z" fill="#a3a1c7" stroke="#a3a1c7" stroke-width="1.51"></path><path d="M182,-105L215,23L273,-75Z" fill="#929dd0" stroke="#929dd0" stroke-width="1.51"></path><path d="M234,118L174,194L267,181Z" fill="#2d88e4" stroke="#2d88e4" stroke-width="1.51"></path><path d="M174,194L208,240L267,181Z" fill="#2b86e2" stroke="#2b86e2" stroke-width="1.51"></path><path d="M182,-105L130,-6L215,23Z" fill="#899dd6" stroke="#899dd6" stroke-width="1.51"></path><path d="M215,23L158,99L234,118Z" fill="#3c8fe9" stroke="#3c8fe9" stroke-width="1.51"></path><path d="M158,99L174,194L234,118Z" fill="#2f8be7" stroke="#2f8be7" stroke-width="1.51"></path><path d="M174,194L163,236L208,240Z" fill="#2b86e2" stroke="#2b86e2" stroke-width="1.51"></path><path d="M130,-6L158,99L215,23Z" fill="#6295e3" stroke="#6295e3" stroke-width="1.51"></path><path d="M130,-6L69,61L158,99Z" fill="#6996e2" stroke="#6996e2" stroke-width="1.51"></path><path d="M158,99L51,157L174,194Z" fill="#448ee6" stroke="#448ee6" stroke-width="1.51"></path><path d="M27,-91L130,-6L182,-105Z" fill="#a6a6cc" stroke="#a6a6cc" stroke-width="1.51"></path><path d="M77,238L163,236L174,194Z" fill="#3889e2" stroke="#3889e2" stroke-width="1.51"></path><path d="M51,157L77,238L174,194Z" fill="#538de0" stroke="#538de0" stroke-width="1.51"></path><path d="M69,61L51,157L158,99Z" fill="#5b93e4" stroke="#5b93e4" stroke-width="1.51"></path><path d="M39,19L69,61L130,-6Z" fill="#889dd8" stroke="#889dd8" stroke-width="1.51"></path><path d="M27,-91L39,19L130,-6Z" fill="#a3a5cd" stroke="#a3a5cd" stroke-width="1.51"></path><path d="M27,-91L-33,-34L39,19Z" fill="#b5abc5" stroke="#b5abc5" stroke-width="1.51"></path><path d="M-38,180L-30,255L51,157Z" fill="#8296d2" stroke="#8296d2" stroke-width="1.51"></path><path d="M-17,112L51,157L69,61Z" fill="#7698dc" stroke="#7698dc" stroke-width="1.51"></path><path d="M51,157L-30,255L77,238Z" fill="#7392d6" stroke="#7392d6" stroke-width="1.51"></path><path d="M39,19L-17,112L69,61Z" fill="#859dd9" stroke="#859dd9" stroke-width="1.51"></path><path d="M-17,112L-38,180L51,157Z" fill="#8299d5" stroke="#8299d5" stroke-width="1.51"></path><path d="M-33,-34L-17,112L39,19Z" fill="#9fa3cf" stroke="#9fa3cf" stroke-width="1.51"></path><path d="M-50,-104L-33,-34L27,-91Z" fill="#cbb3b9" stroke="#cbb3b9" stroke-width="1.51"></path><path d="M-154,-18L-117,97L-33,-34Z" fill="#c1afbe" stroke="#c1afbe" stroke-width="1.51"></path><path d="M-33,-34L-117,97L-17,112Z" fill="#a4a5cd" stroke="#a4a5cd" stroke-width="1.51"></path><path d="M-117,97L-38,180L-17,112Z" fill="#969fd0" stroke="#969fd0" stroke-width="1.51"></path><path d="M-117,97L-118,180L-38,180Z" fill="#9fa0ca" stroke="#9fa0ca" stroke-width="1.51"></path><path d="M-50,-104L-105,-77L-33,-34Z" fill="#d5b6b4" stroke="#d5b6b4" stroke-width="1.51"></path><path d="M-38,180L-118,180L-30,255Z" fill="#959bca" stroke="#959bca" stroke-width="1.51"></path><path d="M-118,180L-123,272L-30,255Z" fill="#9c9cc5" stroke="#9c9cc5" stroke-width="1.51"></path><path d="M-105,-77L-154,-18L-33,-34Z" fill="#d3b6b5" stroke="#d3b6b5" stroke-width="1.51"></path><path d="M-154,-18L-118,180L-117,97Z" fill="#aea8c8" stroke="#aea8c8" stroke-width="1.51"></path><path d="M-154,-18L-123,272L-118,180Z" fill="#aba5c5" stroke="#aba5c5" stroke-width="1.51"></path></svg>