<svg width="300" height="176" xmlns="http://www.w3.org/2000/svg"><path d="M162,85L264,91L179,30Z" fill="#4890e7" stroke="#4890e7" stroke-width="1.51"></path><path d="M264,91L222,-15L179,30Z" fill="#6293e0" stroke="#6293e0" stroke-width="1.51"></path><path d="M264,91L309,56L222,-15Z" fill="#5b90e0" stroke="#5b90e0" stroke-width="1.51"></path><path d="M162,85L253,170L264,91Z" fill="#2f8be7" stroke="#2f8be7" stroke-width="1.51"></path><path d="M264,91L318,198L309,56Z" fill="#2c88e4" stroke="#2c88e4" stroke-width="1.51"></path><path d="M162,85L137,155L253,170Z" fill="#308be7" stroke="#308be7" stroke-width="1.51"></path><path d="M54,60L137,155L162,85Z" fill="#4d92e8" stroke="#4d92e8" stroke-width="1.51"></path><path d="M309,56L301,-4L222,-15Z" fill="#7093d9" stroke="#7093d9" stroke-width="1.51"></path><path d="M60,-13L54,60L179,30Z" fill="#809cdb" stroke="#809cdb" stroke-width="1.51"></path><path d="M301,-4L247,-76L222,-15Z" fill="#8899d2" stroke="#8899d2" stroke-width="1.51"></path><path d="M179,30L54,60L162,85Z" fill="#5d95e5" stroke="#5d95e5" stroke-width="1.51"></path><path d="M60,-13L179,30L145,-98Z" fill="#8fa0d5" stroke="#8fa0d5" stroke-width="1.51"></path><path d="M253,170L318,198L264,91Z" fill="#2b86e2" stroke="#2b86e2" stroke-width="1.51"></path><path d="M250,272L318,198L253,170Z" fill="#2883df" stroke="#2883df" stroke-width="1.51"></path><path d="M145,-98L179,30L222,-15Z" fill="#889cd6" stroke="#889cd6" stroke-width="1.51"></path><path d="M247,-76L145,-98L222,-15Z" fill="#979fcf" stroke="#979fcf" stroke-width="1.51"></path><path d="M318,198L401,101L309,56Z" fill="#2a86e2" stroke="#2a86e2" stroke-width="1.51"></path><path d="M309,56L434,3L301,-4Z" fill="#6b90d8" stroke="#6b90d8" stroke-width="1.51"></path><path d="M301,-4L356,-84L247,-76Z" fill="#919acd" stroke="#919acd" stroke-width="1.51"></path><path d="M137,155L250,272L253,170Z" fill="#2b87e3" stroke="#2b87e3" stroke-width="1.51"></path><path d="M137,155L128,286L250,272Z" fill="#2a86e2" stroke="#2a86e2" stroke-width="1.51"></path><path d="M54,60L47,194L137,155Z" fill="#6193e0" stroke="#6193e0" stroke-width="1.51"></path><path d="M434,3L356,-84L301,-4Z" fill="#8394ce" stroke="#8394ce" stroke-width="1.51"></path><path d="M247,-76L356,-84L145,-98Z" fill="#a0a0c9" stroke="#a0a0c9" stroke-width="1.51"></path><path d="M54,60L-14,158L47,194Z" fill="#7797da" stroke="#7797da" stroke-width="1.51"></path><path d="M-40,61L-14,158L54,60Z" fill="#849cd9" stroke="#849cd9" stroke-width="1.51"></path><path d="M145,-98L48,-79L60,-13Z" fill="#aca8c8" stroke="#aca8c8" stroke-width="1.51"></path><path d="M250,272L344,253L318,198Z" fill="#2680dc" stroke="#2680dc" stroke-width="1.51"></path><path d="M318,198L433,201L401,101Z" fill="#2682de" stroke="#2682de" stroke-width="1.51"></path><path d="M401,101L434,3L309,56Z" fill="#518add" stroke="#518add" stroke-width="1.51"></path><path d="M47,194L128,286L137,155Z" fill="#518ddf" stroke="#518ddf" stroke-width="1.51"></path><path d="M47,194L37,271L128,286Z" fill="#618dd9" stroke="#618dd9" stroke-width="1.51"></path><path d="M-40,61L54,60L-25,-18Z" fill="#9ea3cf" stroke="#9ea3cf" stroke-width="1.51"></path><path d="M-25,-18L54,60L60,-13Z" fill="#9fa4cf" stroke="#9fa4cf" stroke-width="1.51"></path><path d="M401,101L433,201L434,3Z" fill="#2883df" stroke="#2883df" stroke-width="1.51"></path><path d="M344,253L433,201L318,198Z" fill="#247fdb" stroke="#247fdb" stroke-width="1.51"></path><path d="M48,-79L-25,-18L60,-13Z" fill="#b2a9c6" stroke="#b2a9c6" stroke-width="1.51"></path><path d="M-50,279L37,271L47,194Z" fill="#7a92d1" stroke="#7a92d1" stroke-width="1.51"></path><path d="M344,253L403,273L433,201Z" fill="#217dd9" stroke="#217dd9" stroke-width="1.51"></path><path d="M250,272L403,273L344,253Z" fill="#227eda" stroke="#227eda" stroke-width="1.51"></path><path d="M128,286L403,273L250,272Z" fill="#2580dc" stroke="#2580dc" stroke-width="1.51"></path><path d="M434,3L447,-111L356,-84Z" fill="#9296c6" stroke="#9296c6" stroke-width="1.51"></path><path d="M356,-84L447,-111L145,-98Z" fill="#a39fc4" stroke="#a39fc4" stroke-width="1.51"></path><path d="M433,201L447,-111L434,3Z" fill="#608ad6" stroke="#608ad6" stroke-width="1.51"></path><path d="M48,-79L-38,-103L-25,-18Z" fill="#c5b0bc" stroke="#c5b0bc" stroke-width="1.51"></path><path d="M-25,-18L-106,13L-40,61Z" fill="#b3aac5" stroke="#b3aac5" stroke-width="1.51"></path><path d="M145,-98L-38,-103L48,-79Z" fill="#c0afbf" stroke="#c0afbf" stroke-width="1.51"></path><path d="M447,-111L-38,-103L145,-98Z" fill="#a9a5c8" stroke="#a9a5c8" stroke-width="1.51"></path><path d="M-134,-77L-106,13L-25,-18Z" fill="#ccb3b9" stroke="#ccb3b9" stroke-width="1.51"></path><path d="M-40,61L-118,185L-14,158Z" fill="#959fd0" stroke="#959fd0" stroke-width="1.51"></path><path d="M-14,158L-50,279L47,194Z" fill="#8296d1" stroke="#8296d1" stroke-width="1.51"></path><path d="M-118,185L-50,279L-14,158Z" fill="#949bcb" stroke="#949bcb" stroke-width="1.51"></path><path d="M37,271L-95,293L128,286Z" fill="#748fd1" stroke="#748fd1" stroke-width="1.51"></path><path d="M-139,66L-118,185L-40,61Z" fill="#a4a4cb" stroke="#a4a4cb" stroke-width="1.51"></path><path d="M-106,13L-139,66L-40,61Z" fill="#b3aac5" stroke="#b3aac5" stroke-width="1.51"></path><path d="M-134,-77L-139,66L-106,13Z" fill="#ccb3b9" stroke="#ccb3b9" stroke-width="1.51"></path><path d="M-38,-103L-134,-77L-25,-18Z" fill="#d3b6b4" stroke="#d3b6b4" stroke-width="1.51"></path><path d="M-118,185L-95,293L-50,279Z" fill="#9b9ac5" stroke="#9b9ac5" stroke-width="1.51"></path><path d="M-50,279L-95,293L37,271Z" fill="#8994ca" stroke="#8994ca" stroke-width="1.51"></path></svg>