<svg width="300" height="176" xmlns="http://www.w3.org/2000/svg"><path d="M174,57L233,3L173,-34Z" fill="#aba4c4" stroke="#aba4c4" stroke-width="1.51"></path><path d="M233,3L178,-70L173,-34Z" fill="#b4a7c0" stroke="#b4a7c0" stroke-width="1.51"></path><path d="M44,4L89,70L173,-34Z" fill="#c4b0bd" stroke="#c4b0bd" stroke-width="1.51"></path><path d="M173,-34L89,70L174,57Z" fill="#9aa2d1" stroke="#9aa2d1" stroke-width="1.51"></path><path d="M174,57L244,119L233,3Z" fill="#6d92d9" stroke="#6d92d9" stroke-width="1.51"></path><path d="M137,149L244,119L174,57Z" fill="#2e8ae6" stroke="#2e8ae6" stroke-width="1.51"></path><path d="M178,-70L79,-63L173,-34Z" fill="#baacc2" stroke="#baacc2" stroke-width="1.51"></path><path d="M79,-63L44,4L173,-34Z" fill="#d1b5b6" stroke="#d1b5b6" stroke-width="1.51"></path><path d="M89,70L137,149L174,57Z" fill="#4f92e7" stroke="#4f92e7" stroke-width="1.51"></path><path d="M27,194L137,149L89,70Z" fill="#7b94d3" stroke="#7b94d3" stroke-width="1.51"></path><path d="M233,3L263,-116L178,-70Z" fill="#b2a4be" stroke="#b2a4be" stroke-width="1.51"></path><path d="M178,-70L-14,-118L79,-63Z" fill="#dab9b0" stroke="#dab9b0" stroke-width="1.51"></path><path d="M305,-98L263,-116L233,3Z" fill="#afa1ba" stroke="#afa1ba" stroke-width="1.51"></path><path d="M354,-19L305,-98L233,3Z" fill="#ad9db7" stroke="#ad9db7" stroke-width="1.51"></path><path d="M356,108L354,-19L233,3Z" fill="#8e94c5" stroke="#8e94c5" stroke-width="1.51"></path><path d="M44,4L-4,20L89,70Z" fill="#d3b6b5" stroke="#d3b6b5" stroke-width="1.51"></path><path d="M-14,-118L-4,20L44,4Z" fill="#fbc79b" stroke="#fbc79b" stroke-width="1.51"></path><path d="M244,119L356,108L233,3Z" fill="#4b88dc" stroke="#4b88dc" stroke-width="1.51"></path><path d="M308,172L356,108L244,119Z" fill="#207cd8" stroke="#207cd8" stroke-width="1.51"></path><path d="M137,149L212,205L244,119Z" fill="#2681dd" stroke="#2681dd" stroke-width="1.51"></path><path d="M212,205L308,172L244,119Z" fill="#207bd7" stroke="#207bd7" stroke-width="1.51"></path><path d="M-4,20L-14,87L89,70Z" fill="#c5b0bd" stroke="#c5b0bd" stroke-width="1.51"></path><path d="M149,286L222,254L212,205Z" fill="#237fdb" stroke="#237fdb" stroke-width="1.51"></path><path d="M79,-63L-14,-118L44,4Z" fill="#efc1a3" stroke="#efc1a3" stroke-width="1.51"></path><path d="M-4,20L-90,4L-14,87Z" fill="#e2bcab" stroke="#e2bcab" stroke-width="1.51"></path><path d="M263,-116L-14,-118L178,-70Z" fill="#bbadc2" stroke="#bbadc2" stroke-width="1.51"></path><path d="M402,176L420,71L356,108Z" fill="#237eda" stroke="#237eda" stroke-width="1.51"></path><path d="M356,108L420,71L354,-19Z" fill="#728dd0" stroke="#728dd0" stroke-width="1.51"></path><path d="M354,-19L453,-79L305,-98Z" fill="#ad9db7" stroke="#ad9db7" stroke-width="1.51"></path><path d="M420,71L428,26L354,-19Z" fill="#9395c4" stroke="#9395c4" stroke-width="1.51"></path><path d="M-14,87L27,194L89,70Z" fill="#9fa0c9" stroke="#9fa0c9" stroke-width="1.51"></path><path d="M212,205L222,254L308,172Z" fill="#1e7ad6" stroke="#1e7ad6" stroke-width="1.51"></path><path d="M308,172L402,176L356,108Z" fill="#1d79d5" stroke="#1d79d5" stroke-width="1.51"></path><path d="M149,286L212,205L137,149Z" fill="#2681dd" stroke="#2681dd" stroke-width="1.51"></path><path d="M-142,81L-26,150L-14,87Z" fill="#b5a9c1" stroke="#b5a9c1" stroke-width="1.51"></path><path d="M-14,87L-26,150L27,194Z" fill="#b1a2bc" stroke="#b1a2bc" stroke-width="1.51"></path><path d="M445,280L453,-79L428,26Z" fill="#4c86da" stroke="#4c86da" stroke-width="1.51"></path><path d="M309,280L402,176L308,172Z" fill="#1976d2" stroke="#1976d2" stroke-width="1.51"></path><path d="M-105,-63L-90,4L-4,20Z" fill="#ffc998" stroke="#ffc998" stroke-width="1.51"></path><path d="M222,254L309,280L308,172Z" fill="#1b77d3" stroke="#1b77d3" stroke-width="1.51"></path><path d="M76,283L149,286L137,149Z" fill="#5688d8" stroke="#5688d8" stroke-width="1.51"></path><path d="M445,280L428,26L420,71Z" fill="#227dd9" stroke="#227dd9" stroke-width="1.51"></path><path d="M428,26L453,-79L354,-19Z" fill="#ad9db7" stroke="#ad9db7" stroke-width="1.51"></path><path d="M305,-98L453,-79L263,-116Z" fill="#ad9db7" stroke="#ad9db7" stroke-width="1.51"></path><path d="M-46,254L76,283L27,194Z" fill="#a29abd" stroke="#a29abd" stroke-width="1.51"></path><path d="M27,194L76,283L137,149Z" fill="#7b8fcd" stroke="#7b8fcd" stroke-width="1.51"></path><path d="M149,286L309,280L222,254Z" fill="#207cd8" stroke="#207cd8" stroke-width="1.51"></path><path d="M-14,-118L-105,-63L-4,20Z" fill="#ffc998" stroke="#ffc998" stroke-width="1.51"></path><path d="M-26,150L-46,254L27,194Z" fill="#ad9db7" stroke="#ad9db7" stroke-width="1.51"></path><path d="M-90,4L-142,81L-14,87Z" fill="#d2b6b5" stroke="#d2b6b5" stroke-width="1.51"></path><path d="M-105,-63L-142,81L-90,4Z" fill="#fac69c" stroke="#fac69c" stroke-width="1.51"></path><path d="M-117,200L-46,254L-26,150Z" fill="#ad9db7" stroke="#ad9db7" stroke-width="1.51"></path><path d="M-142,81L-117,200L-26,150Z" fill="#b1a2bc" stroke="#b1a2bc" stroke-width="1.51"></path><path d="M402,176L445,280L420,71Z" fill="#1976d2" stroke="#1976d2" stroke-width="1.51"></path><path d="M309,280L445,280L402,176Z" fill="#1976d2" stroke="#1976d2" stroke-width="1.51"></path><path d="M149,286L445,280L309,280Z" fill="#1976d2" stroke="#1976d2" stroke-width="1.51"></path><path d="M-142,81L-141,251L-117,200Z" fill="#ad9db7" stroke="#ad9db7" stroke-width="1.51"></path><path d="M-117,200L-141,251L-46,254Z" fill="#ad9db7" stroke="#ad9db7" stroke-width="1.51"></path><path d="M-46,254L-141,251L76,283Z" fill="#ad9db7" stroke="#ad9db7" stroke-width="1.51"></path></svg>