<svg width="300" height="176" xmlns="http://www.w3.org/2000/svg"><path d="M172,120L215,114L157,30Z" fill="#318de9" stroke="#318de9" stroke-width="1.51"></path><path d="M157,30L123,147L172,120Z" fill="#328eea" stroke="#328eea" stroke-width="1.51"></path><path d="M172,120L248,182L215,114Z" fill="#2783df" stroke="#2783df" stroke-width="1.51"></path><path d="M215,114L263,-15L157,30Z" fill="#8498d2" stroke="#8498d2" stroke-width="1.51"></path><path d="M215,114L340,119L263,-15Z" fill="#548adb" stroke="#548adb" stroke-width="1.51"></path><path d="M123,147L248,182L172,120Z" fill="#2884e0" stroke="#2884e0" stroke-width="1.51"></path><path d="M248,182L298,182L215,114Z" fill="#217cd8" stroke="#217cd8" stroke-width="1.51"></path><path d="M298,182L340,119L215,114Z" fill="#217dd9" stroke="#217dd9" stroke-width="1.51"></path><path d="M263,-15L245,-82L157,30Z" fill="#b2a4be" stroke="#b2a4be" stroke-width="1.51"></path><path d="M296,-65L245,-82L263,-15Z" fill="#afa0ba" stroke="#afa0ba" stroke-width="1.51"></path><path d="M340,119L311,-36L263,-15Z" fill="#9796c2" stroke="#9796c2" stroke-width="1.51"></path><path d="M26,-36L28,113L157,30Z" fill="#c1afbf" stroke="#c1afbf" stroke-width="1.51"></path><path d="M157,30L28,113L123,147Z" fill="#6f97de" stroke="#6f97de" stroke-width="1.51"></path><path d="M311,-36L296,-65L263,-15Z" fill="#ae9eb8" stroke="#ae9eb8" stroke-width="1.51"></path><path d="M245,-82L173,-112L157,30Z" fill="#b4a7c0" stroke="#b4a7c0" stroke-width="1.51"></path><path d="M435,-88L173,-112L245,-82Z" fill="#ae9fb9" stroke="#ae9fb9" stroke-width="1.51"></path><path d="M35,198L175,260L123,147Z" fill="#608ad5" stroke="#608ad5" stroke-width="1.51"></path><path d="M123,147L175,260L248,182Z" fill="#2480dc" stroke="#2480dc" stroke-width="1.51"></path><path d="M248,182L268,275L298,182Z" fill="#1c78d4" stroke="#1c78d4" stroke-width="1.51"></path><path d="M54,-84L26,-36L157,30Z" fill="#dbb9b0" stroke="#dbb9b0" stroke-width="1.51"></path><path d="M28,113L35,198L123,147Z" fill="#8a96cc" stroke="#8a96cc" stroke-width="1.51"></path><path d="M173,-112L54,-84L157,30Z" fill="#c2b0bd" stroke="#c2b0bd" stroke-width="1.51"></path><path d="M26,-36L-20,56L28,113Z" fill="#d7b7b2" stroke="#d7b7b2" stroke-width="1.51"></path><path d="M28,113L-39,189L35,198Z" fill="#aa9ebb" stroke="#aa9ebb" stroke-width="1.51"></path><path d="M175,260L268,275L248,182Z" fill="#207cd8" stroke="#207cd8" stroke-width="1.51"></path><path d="M429,191L432,78L340,119Z" fill="#217dd9" stroke="#217dd9" stroke-width="1.51"></path><path d="M26,-36L-31,22L-20,56Z" fill="#f5c4a0" stroke="#f5c4a0" stroke-width="1.51"></path><path d="M-25,-112L-31,22L26,-36Z" fill="#ffc998" stroke="#ffc998" stroke-width="1.51"></path><path d="M432,78L401,-13L340,119Z" fill="#668ad3" stroke="#668ad3" stroke-width="1.51"></path><path d="M340,119L401,-13L311,-36Z" fill="#9696c2" stroke="#9696c2" stroke-width="1.51"></path><path d="M311,-36L435,-88L296,-65Z" fill="#ad9db7" stroke="#ad9db7" stroke-width="1.51"></path><path d="M429,191L340,119L298,182Z" fill="#1b77d4" stroke="#1b77d4" stroke-width="1.51"></path><path d="M-53,240L67,294L35,198Z" fill="#a49abc" stroke="#a49abc" stroke-width="1.51"></path><path d="M35,198L67,294L175,260Z" fill="#718dd0" stroke="#718dd0" stroke-width="1.51"></path><path d="M175,260L67,294L268,275Z" fill="#2681dd" stroke="#2681dd" stroke-width="1.51"></path><path d="M-115,110L-39,189L-20,56Z" fill="#b3a6c0" stroke="#b3a6c0" stroke-width="1.51"></path><path d="M-20,56L-39,189L28,113Z" fill="#b3a6c0" stroke="#b3a6c0" stroke-width="1.51"></path><path d="M401,289L354,278L268,275Z" fill="#1976d2" stroke="#1976d2" stroke-width="1.51"></path><path d="M268,275L354,278L298,182Z" fill="#1976d2" stroke="#1976d2" stroke-width="1.51"></path><path d="M354,278L429,191L298,182Z" fill="#1976d2" stroke="#1976d2" stroke-width="1.51"></path><path d="M-109,195L-53,240L-39,189Z" fill="#ad9db7" stroke="#ad9db7" stroke-width="1.51"></path><path d="M54,-84L-25,-112L26,-36Z" fill="#f7c59e" stroke="#f7c59e" stroke-width="1.51"></path><path d="M173,-112L-25,-112L54,-84Z" fill="#e1bbad" stroke="#e1bbad" stroke-width="1.51"></path><path d="M-115,110L-20,56L-31,22Z" fill="#cdb3b8" stroke="#cdb3b8" stroke-width="1.51"></path><path d="M-39,189L-53,240L35,198Z" fill="#ad9db7" stroke="#ad9db7" stroke-width="1.51"></path><path d="M401,-13L435,-88L311,-36Z" fill="#ad9db7" stroke="#ad9db7" stroke-width="1.51"></path><path d="M296,-65L435,-88L245,-82Z" fill="#ad9db7" stroke="#ad9db7" stroke-width="1.51"></path><path d="M432,78L435,-88L401,-13Z" fill="#ad9db7" stroke="#ad9db7" stroke-width="1.51"></path><path d="M-125,2L-115,110L-31,22Z" fill="#dcbaaf" stroke="#dcbaaf" stroke-width="1.51"></path><path d="M67,294L401,289L268,275Z" fill="#1f7ad6" stroke="#1f7ad6" stroke-width="1.51"></path><path d="M354,278L401,289L429,191Z" fill="#1976d2" stroke="#1976d2" stroke-width="1.51"></path><path d="M-109,-95L-125,2L-31,22Z" fill="#ffc998" stroke="#ffc998" stroke-width="1.51"></path><path d="M-135,294L-109,195L-115,110Z" fill="#ad9db7" stroke="#ad9db7" stroke-width="1.51"></path><path d="M-115,110L-109,195L-39,189Z" fill="#ae9fb9" stroke="#ae9fb9" stroke-width="1.51"></path><path d="M-25,-112L-109,-95L-31,22Z" fill="#ffc998" stroke="#ffc998" stroke-width="1.51"></path><path d="M-109,195L-135,294L-53,240Z" fill="#ad9db7" stroke="#ad9db7" stroke-width="1.51"></path><path d="M-53,240L-135,294L67,294Z" fill="#ad9db7" stroke="#ad9db7" stroke-width="1.51"></path><path d="M-125,2L-135,294L-115,110Z" fill="#b1a4bd" stroke="#b1a4bd" stroke-width="1.51"></path></svg>