<svg width="300" height="176" xmlns="http://www.w3.org/2000/svg"><path d="M168,59L234,-26L161,-6Z" fill="#7498dd" stroke="#7498dd" stroke-width="1.51"></path><path d="M168,59L267,85L234,-26Z" fill="#6092e1" stroke="#6092e1" stroke-width="1.51"></path><path d="M234,-26L147,-103L161,-6Z" fill="#909ed3" stroke="#909ed3" stroke-width="1.51"></path><path d="M334,-62L244,-69L234,-26Z" fill="#919bce" stroke="#919bce" stroke-width="1.51"></path><path d="M244,-69L147,-103L234,-26Z" fill="#98a0ce" stroke="#98a0ce" stroke-width="1.51"></path><path d="M161,-6L65,66L168,59Z" fill="#6a97e1" stroke="#6a97e1" stroke-width="1.51"></path><path d="M267,85L346,59L234,-26Z" fill="#5e90de" stroke="#5e90de" stroke-width="1.51"></path><path d="M168,59L164,171L267,85Z" fill="#308de9" stroke="#308de9" stroke-width="1.51"></path><path d="M59,-32L65,66L161,-6Z" fill="#8a9ed7" stroke="#8a9ed7" stroke-width="1.51"></path><path d="M356,-17L334,-62L234,-26Z" fill="#8898d0" stroke="#8898d0" stroke-width="1.51"></path><path d="M244,-69L390,-99L147,-103Z" fill="#a1a0c8" stroke="#a1a0c8" stroke-width="1.51"></path><path d="M346,59L356,-17L234,-26Z" fill="#7393d7" stroke="#7393d7" stroke-width="1.51"></path><path d="M65,66L164,171L168,59Z" fill="#4291ea" stroke="#4291ea" stroke-width="1.51"></path><path d="M267,85L320,204L346,59Z" fill="#2c88e4" stroke="#2c88e4" stroke-width="1.51"></path><path d="M67,-60L59,-32L161,-6Z" fill="#9ca3d0" stroke="#9ca3d0" stroke-width="1.51"></path><path d="M147,-103L67,-60L161,-6Z" fill="#9ea3cf" stroke="#9ea3cf" stroke-width="1.51"></path><path d="M164,171L210,191L267,85Z" fill="#2e8ae6" stroke="#2e8ae6" stroke-width="1.51"></path><path d="M356,-17L390,-99L334,-62Z" fill="#9298ca" stroke="#9298ca" stroke-width="1.51"></path><path d="M346,59L419,12L356,-17Z" fill="#6a8fd6" stroke="#6a8fd6" stroke-width="1.51"></path><path d="M423,89L419,12L346,59Z" fill="#508adc" stroke="#508adc" stroke-width="1.51"></path><path d="M210,191L320,204L267,85Z" fill="#2c87e3" stroke="#2c87e3" stroke-width="1.51"></path><path d="M419,12L390,-99L356,-17Z" fill="#8594cd" stroke="#8594cd" stroke-width="1.51"></path><path d="M334,-62L390,-99L244,-69Z" fill="#9a9cc8" stroke="#9a9cc8" stroke-width="1.51"></path><path d="M386,194L423,89L346,59Z" fill="#2985e1" stroke="#2985e1" stroke-width="1.51"></path><path d="M65,66L37,170L164,171Z" fill="#5c92e2" stroke="#5c92e2" stroke-width="1.51"></path><path d="M164,171L216,261L210,191Z" fill="#2b87e3" stroke="#2b87e3" stroke-width="1.51"></path><path d="M-8,113L37,170L65,66Z" fill="#7798dc" stroke="#7798dc" stroke-width="1.51"></path><path d="M-43,-3L65,66L59,-32Z" fill="#9fa3cf" stroke="#9fa3cf" stroke-width="1.51"></path><path d="M-43,-3L-8,113L65,66Z" fill="#91a0d5" stroke="#91a0d5" stroke-width="1.51"></path><path d="M210,191L216,261L320,204Z" fill="#2984e0" stroke="#2984e0" stroke-width="1.51"></path><path d="M146,286L216,261L164,171Z" fill="#2a86e2" stroke="#2a86e2" stroke-width="1.51"></path><path d="M320,204L386,194L346,59Z" fill="#2883e0" stroke="#2883e0" stroke-width="1.51"></path><path d="M328,244L386,194L320,204Z" fill="#2580dc" stroke="#2580dc" stroke-width="1.51"></path><path d="M-42,-114L-43,-3L59,-32Z" fill="#c0aebf" stroke="#c0aebf" stroke-width="1.51"></path><path d="M-42,-114L59,-32L67,-60Z" fill="#bdaec0" stroke="#bdaec0" stroke-width="1.51"></path><path d="M216,261L328,244L320,204Z" fill="#2681de" stroke="#2681de" stroke-width="1.51"></path><path d="M37,170L146,286L164,171Z" fill="#4a8ce1" stroke="#4a8ce1" stroke-width="1.51"></path><path d="M-8,113L-15,164L37,170Z" fill="#8099d6" stroke="#8099d6" stroke-width="1.51"></path><path d="M-98,197L-15,164L-8,113Z" fill="#8f9cd0" stroke="#8f9cd0" stroke-width="1.51"></path><path d="M216,261L395,256L328,244Z" fill="#247fdb" stroke="#247fdb" stroke-width="1.51"></path><path d="M35,283L146,286L37,170Z" fill="#608dda" stroke="#608dda" stroke-width="1.51"></path><path d="M390,-99L-42,-114L147,-103Z" fill="#aaa6c9" stroke="#aaa6c9" stroke-width="1.51"></path><path d="M147,-103L-42,-114L67,-60Z" fill="#beaec0" stroke="#beaec0" stroke-width="1.51"></path><path d="M-136,-107L-88,20L-43,-3Z" fill="#cdb3b8" stroke="#cdb3b8" stroke-width="1.51"></path><path d="M-43,-3L-88,20L-8,113Z" fill="#a7a6cb" stroke="#a7a6cb" stroke-width="1.51"></path><path d="M328,244L395,256L386,194Z" fill="#237eda" stroke="#237eda" stroke-width="1.51"></path><path d="M386,194L395,256L423,89Z" fill="#2580dc" stroke="#2580dc" stroke-width="1.51"></path><path d="M146,286L395,256L216,261Z" fill="#2681dd" stroke="#2681dd" stroke-width="1.51"></path><path d="M-5,269L35,283L37,170Z" fill="#7691d3" stroke="#7691d3" stroke-width="1.51"></path><path d="M-5,269L37,170L-15,164Z" fill="#7e95d3" stroke="#7e95d3" stroke-width="1.51"></path><path d="M-136,-107L-105,56L-88,20Z" fill="#cbb3b9" stroke="#cbb3b9" stroke-width="1.51"></path><path d="M-88,20L-105,56L-8,113Z" fill="#a5a6cc" stroke="#a5a6cc" stroke-width="1.51"></path><path d="M-98,197L-5,269L-15,164Z" fill="#8d99cd" stroke="#8d99cd" stroke-width="1.51"></path><path d="M-105,56L-98,197L-8,113Z" fill="#9ba1ce" stroke="#9ba1ce" stroke-width="1.51"></path><path d="M-42,-114L-136,-107L-43,-3Z" fill="#d8b7b2" stroke="#d8b7b2" stroke-width="1.51"></path><path d="M-105,56L-128,266L-98,197Z" fill="#a4a1c6" stroke="#a4a1c6" stroke-width="1.51"></path><path d="M-136,-107L-128,266L-105,56Z" fill="#b1aac6" stroke="#b1aac6" stroke-width="1.51"></path><path d="M-98,197L-128,266L-5,269Z" fill="#989ac6" stroke="#989ac6" stroke-width="1.51"></path><path d="M-5,269L-128,266L35,283Z" fill="#8895cb" stroke="#8895cb" stroke-width="1.51"></path></svg>