<svg width="300" height="176" xmlns="http://www.w3.org/2000/svg"><path d="M156,62L215,62L240,30Z" fill="#7a96d7" stroke="#7a96d7" stroke-width="1.51"></path><path d="M240,30L119,-13L156,62Z" fill="#9ba1ce" stroke="#9ba1ce" stroke-width="1.51"></path><path d="M240,30L150,-65L119,-13Z" fill="#b5aac2" stroke="#b5aac2" stroke-width="1.51"></path><path d="M240,30L222,-88L150,-65Z" fill="#b3a6c0" stroke="#b3a6c0" stroke-width="1.51"></path><path d="M156,62L167,176L215,62Z" fill="#308be7" stroke="#308be7" stroke-width="1.51"></path><path d="M119,-13L79,68L156,62Z" fill="#a2a4cd" stroke="#a2a4cd" stroke-width="1.51"></path><path d="M240,30L302,-28L222,-88Z" fill="#b0a2bb" stroke="#b0a2bb" stroke-width="1.51"></path><path d="M331,54L302,-28L240,30Z" fill="#9c98c1" stroke="#9c98c1" stroke-width="1.51"></path><path d="M119,-13L38,1L79,68Z" fill="#cbb3b9" stroke="#cbb3b9" stroke-width="1.51"></path><path d="M87,-111L38,1L119,-13Z" fill="#dab9b0" stroke="#dab9b0" stroke-width="1.51"></path><path d="M215,62L331,54L240,30Z" fill="#7a91d1" stroke="#7a91d1" stroke-width="1.51"></path><path d="M222,-88L87,-111L150,-65Z" fill="#b6abc3" stroke="#b6abc3" stroke-width="1.51"></path><path d="M150,-65L87,-111L119,-13Z" fill="#c7b1bb" stroke="#c7b1bb" stroke-width="1.51"></path><path d="M302,-28L296,-105L222,-88Z" fill="#afa0ba" stroke="#afa0ba" stroke-width="1.51"></path><path d="M222,-88L296,-105L87,-111Z" fill="#b3a6c0" stroke="#b3a6c0" stroke-width="1.51"></path><path d="M408,-93L296,-105L302,-28Z" fill="#ad9db7" stroke="#ad9db7" stroke-width="1.51"></path><path d="M79,68L167,176L156,62Z" fill="#4c91e6" stroke="#4c91e6" stroke-width="1.51"></path><path d="M215,62L270,186L331,54Z" fill="#2883df" stroke="#2883df" stroke-width="1.51"></path><path d="M167,176L270,186L215,62Z" fill="#2782de" stroke="#2782de" stroke-width="1.51"></path><path d="M406,110L391,10L331,54Z" fill="#6b8bd2" stroke="#6b8bd2" stroke-width="1.51"></path><path d="M331,54L391,10L302,-28Z" fill="#a29abd" stroke="#a29abd" stroke-width="1.51"></path><path d="M87,-111L-7,-75L38,1Z" fill="#edc1a4" stroke="#edc1a4" stroke-width="1.51"></path><path d="M-37,66L79,68L38,1Z" fill="#cfb4b7" stroke="#cfb4b7" stroke-width="1.51"></path><path d="M49,199L167,176L79,68Z" fill="#6f90d6" stroke="#6f90d6" stroke-width="1.51"></path><path d="M49,199L167,236L167,176Z" fill="#4e87d9" stroke="#4e87d9" stroke-width="1.51"></path><path d="M167,176L256,236L270,186Z" fill="#207cd8" stroke="#207cd8" stroke-width="1.51"></path><path d="M-55,10L-37,66L38,1Z" fill="#ecc0a5" stroke="#ecc0a5" stroke-width="1.51"></path><path d="M-35,172L49,199L79,68Z" fill="#9f9cc4" stroke="#9f9cc4" stroke-width="1.51"></path><path d="M167,236L256,236L167,176Z" fill="#237fdb" stroke="#237fdb" stroke-width="1.51"></path><path d="M270,186L333,201L331,54Z" fill="#1e7ad6" stroke="#1e7ad6" stroke-width="1.51"></path><path d="M256,236L333,201L270,186Z" fill="#1b77d3" stroke="#1b77d3" stroke-width="1.51"></path><path d="M-7,-75L-55,10L38,1Z" fill="#ffc998" stroke="#ffc998" stroke-width="1.51"></path><path d="M333,201L406,110L331,54Z" fill="#227eda" stroke="#227eda" stroke-width="1.51"></path><path d="M391,10L408,-93L302,-28Z" fill="#ad9db7" stroke="#ad9db7" stroke-width="1.51"></path><path d="M406,110L408,-93L391,10Z" fill="#a49bbb" stroke="#a49bbb" stroke-width="1.51"></path><path d="M-60,263L61,250L49,199Z" fill="#a49abc" stroke="#a49abc" stroke-width="1.51"></path><path d="M49,199L61,250L167,236Z" fill="#718dd0" stroke="#718dd0" stroke-width="1.51"></path><path d="M167,236L340,291L256,236Z" fill="#1e7ad6" stroke="#1e7ad6" stroke-width="1.51"></path><path d="M-37,66L-35,172L79,68Z" fill="#b4a9c2" stroke="#b4a9c2" stroke-width="1.51"></path><path d="M-92,87L-35,172L-37,66Z" fill="#b4a8c1" stroke="#b4a8c1" stroke-width="1.51"></path><path d="M-55,10L-92,87L-37,66Z" fill="#d4b6b3" stroke="#d4b6b3" stroke-width="1.51"></path><path d="M340,291L401,203L333,201Z" fill="#1976d2" stroke="#1976d2" stroke-width="1.51"></path><path d="M333,201L401,203L406,110Z" fill="#1a76d2" stroke="#1a76d2" stroke-width="1.51"></path><path d="M-55,10L-123,-24L-92,87Z" fill="#ecc0a5" stroke="#ecc0a5" stroke-width="1.51"></path><path d="M-7,-75L-123,-24L-55,10Z" fill="#ffc998" stroke="#ffc998" stroke-width="1.51"></path><path d="M87,-111L-94,-122L-7,-75Z" fill="#ffc998" stroke="#ffc998" stroke-width="1.51"></path><path d="M296,-105L-94,-122L87,-111Z" fill="#d2b6b5" stroke="#d2b6b5" stroke-width="1.51"></path><path d="M-94,-122L-123,-24L-7,-75Z" fill="#ffc998" stroke="#ffc998" stroke-width="1.51"></path><path d="M61,250L340,291L167,236Z" fill="#247fdb" stroke="#247fdb" stroke-width="1.51"></path><path d="M256,236L340,291L333,201Z" fill="#1976d2" stroke="#1976d2" stroke-width="1.51"></path><path d="M-123,-24L-98,192L-92,87Z" fill="#b9acc2" stroke="#b9acc2" stroke-width="1.51"></path><path d="M-92,87L-98,192L-35,172Z" fill="#b0a1bb" stroke="#b0a1bb" stroke-width="1.51"></path><path d="M-35,172L-60,263L49,199Z" fill="#ad9db7" stroke="#ad9db7" stroke-width="1.51"></path><path d="M340,291L406,285L401,203Z" fill="#1976d2" stroke="#1976d2" stroke-width="1.51"></path><path d="M401,203L406,285L406,110Z" fill="#1976d2" stroke="#1976d2" stroke-width="1.51"></path><path d="M406,110L406,285L408,-93Z" fill="#2681dd" stroke="#2681dd" stroke-width="1.51"></path><path d="M-98,192L-60,263L-35,172Z" fill="#ad9db7" stroke="#ad9db7" stroke-width="1.51"></path><path d="M61,250L-121,300L340,291Z" fill="#708cd0" stroke="#708cd0" stroke-width="1.51"></path><path d="M-98,192L-121,300L-60,263Z" fill="#ad9db7" stroke="#ad9db7" stroke-width="1.51"></path><path d="M-60,263L-121,300L61,250Z" fill="#ad9db7" stroke="#ad9db7" stroke-width="1.51"></path><path d="M-123,-24L-121,300L-98,192Z" fill="#afa1ba" stroke="#afa1ba" stroke-width="1.51"></path></svg>