<svg width="300" height="176" xmlns="http://www.w3.org/2000/svg"><path d="M-134,-112L36,-102L253,-124Z" fill="#79ccf8" stroke="#79ccf8" stroke-width="1.51"></path><path d="M253,-124L325,-94L414,-125Z" fill="#66b4ed" stroke="#66b4ed" stroke-width="1.51"></path><path d="M358,-30L401,-15L414,-125Z" fill="#58a5e9" stroke="#58a5e9" stroke-width="1.51"></path><path d="M310,89L318,175L424,75Z" fill="#2b86e2" stroke="#2b86e2" stroke-width="1.51"></path><path d="M414,-125L401,-15L424,75Z" fill="#4e9ce6" stroke="#4e9ce6" stroke-width="1.51"></path><path d="M235,255L74,268L424,289Z" fill="#2681dd" stroke="#2681dd" stroke-width="1.51"></path><path d="M74,268L-37,299L424,289Z" fill="#2984e0" stroke="#2984e0" stroke-width="1.51"></path><path d="M343,258L235,255L424,289Z" fill="#227eda" stroke="#227eda" stroke-width="1.51"></path><path d="M414,-125L424,75L444,169Z" fill="#3c8fe2" stroke="#3c8fe2" stroke-width="1.51"></path><path d="M424,75L318,175L444,169Z" fill="#2783df" stroke="#2783df" stroke-width="1.51"></path><path d="M343,258L424,289L444,169Z" fill="#217cd9" stroke="#217cd9" stroke-width="1.51"></path><path d="M318,175L343,258L444,169Z" fill="#2580dc" stroke="#2580dc" stroke-width="1.51"></path><path d="M358,-30L310,89L401,-15Z" fill="#4697e7" stroke="#4697e7" stroke-width="1.51"></path><path d="M325,-94L358,-30L414,-125Z" fill="#5faceb" stroke="#5faceb" stroke-width="1.51"></path><path d="M401,-15L310,89L424,75Z" fill="#3a8ee4" stroke="#3a8ee4" stroke-width="1.51"></path><path d="M325,-94L221,22L358,-30Z" fill="#54a3eb" stroke="#54a3eb" stroke-width="1.51"></path><path d="M221,22L310,89L358,-30Z" fill="#4497e9" stroke="#4497e9" stroke-width="1.51"></path><path d="M180,243L74,268L235,255Z" fill="#2a86e2" stroke="#2a86e2" stroke-width="1.51"></path><path d="M221,22L243,75L310,89Z" fill="#3991e9" stroke="#3991e9" stroke-width="1.51"></path><path d="M310,89L262,164L318,175Z" fill="#2b87e3" stroke="#2b87e3" stroke-width="1.51"></path><path d="M318,175L235,255L343,258Z" fill="#2682de" stroke="#2682de" stroke-width="1.51"></path><path d="M262,164L235,255L318,175Z" fill="#2984e0" stroke="#2984e0" stroke-width="1.51"></path><path d="M253,-124L221,22L325,-94Z" fill="#5dacee" stroke="#5dacee" stroke-width="1.51"></path><path d="M243,75L262,164L310,89Z" fill="#2e89e6" stroke="#2e89e6" stroke-width="1.51"></path><path d="M36,-102L145,-67L253,-124Z" fill="#68baf4" stroke="#68baf4" stroke-width="1.51"></path><path d="M168,-9L221,22L253,-124Z" fill="#58a8ef" stroke="#58a8ef" stroke-width="1.51"></path><path d="M145,-67L168,-9L253,-124Z" fill="#5fb0f2" stroke="#5fb0f2" stroke-width="1.51"></path><path d="M123,196L180,243L262,164Z" fill="#2c88e4" stroke="#2c88e4" stroke-width="1.51"></path><path d="M154,99L123,196L262,164Z" fill="#2f8be7" stroke="#2f8be7" stroke-width="1.51"></path><path d="M180,243L235,255L262,164Z" fill="#2a85e1" stroke="#2a85e1" stroke-width="1.51"></path><path d="M243,75L154,99L262,164Z" fill="#308be7" stroke="#308be7" stroke-width="1.51"></path><path d="M221,22L154,99L243,75Z" fill="#3a92eb" stroke="#3a92eb" stroke-width="1.51"></path><path d="M168,-9L154,99L221,22Z" fill="#4499ed" stroke="#4499ed" stroke-width="1.51"></path><path d="M40,27L154,99L168,-9Z" fill="#4b9ff0" stroke="#4b9ff0" stroke-width="1.51"></path><path d="M123,196L74,268L180,243Z" fill="#338be4" stroke="#338be4" stroke-width="1.51"></path><path d="M75,147L123,196L154,99Z" fill="#3991ea" stroke="#3991ea" stroke-width="1.51"></path><path d="M40,27L49,89L154,99Z" fill="#4a9ef0" stroke="#4a9ef0" stroke-width="1.51"></path><path d="M145,-67L40,27L168,-9Z" fill="#5aacf2" stroke="#5aacf2" stroke-width="1.51"></path><path d="M49,89L75,147L154,99Z" fill="#4197ed" stroke="#4197ed" stroke-width="1.51"></path><path d="M36,-102L40,27L145,-67Z" fill="#68b9f5" stroke="#68b9f5" stroke-width="1.51"></path><path d="M-134,-112L-58,-84L36,-102Z" fill="#84d9fb" stroke="#84d9fb" stroke-width="1.51"></path><path d="M75,147L74,268L123,196Z" fill="#3e92e8" stroke="#3e92e8" stroke-width="1.51"></path><path d="M36,-102L-35,26L40,27Z" fill="#6bbcf5" stroke="#6bbcf5" stroke-width="1.51"></path><path d="M1,151L-37,299L74,268Z" fill="#4d9ce8" stroke="#4d9ce8" stroke-width="1.51"></path><path d="M1,151L74,268L75,147Z" fill="#4899ea" stroke="#4899ea" stroke-width="1.51"></path><path d="M49,89L1,151L75,147Z" fill="#4b9eed" stroke="#4b9eed" stroke-width="1.51"></path><path d="M-58,-84L-35,26L36,-102Z" fill="#77c9f8" stroke="#77c9f8" stroke-width="1.51"></path><path d="M-57,117L1,151L49,89Z" fill="#54a6ef" stroke="#54a6ef" stroke-width="1.51"></path><path d="M40,27L-35,26L49,89Z" fill="#5cadf3" stroke="#5cadf3" stroke-width="1.51"></path><path d="M-35,26L-57,117L49,89Z" fill="#5aacf2" stroke="#5aacf2" stroke-width="1.51"></path><path d="M-124,150L-132,299L-37,299Z" fill="#60adea" stroke="#60adea" stroke-width="1.51"></path><path d="M-124,150L-37,299L1,151Z" fill="#5aa9ec" stroke="#5aa9ec" stroke-width="1.51"></path><path d="M-57,117L-124,150L1,151Z" fill="#5dadf0" stroke="#5dadf0" stroke-width="1.51"></path><path d="M-58,-84L-106,10L-35,26Z" fill="#76c8f8" stroke="#76c8f8" stroke-width="1.51"></path><path d="M-89,110L-57,117L-35,26Z" fill="#60b1f3" stroke="#60b1f3" stroke-width="1.51"></path><path d="M-106,10L-89,110L-35,26Z" fill="#6abcf5" stroke="#6abcf5" stroke-width="1.51"></path><path d="M-134,-112L-106,10L-58,-84Z" fill="#83d8fa" stroke="#83d8fa" stroke-width="1.51"></path><path d="M-89,110L-124,150L-57,117Z" fill="#63b3f2" stroke="#63b3f2" stroke-width="1.51"></path><path d="M-106,10L-124,150L-89,110Z" fill="#67b8f4" stroke="#67b8f4" stroke-width="1.51"></path><path d="M-134,-112L-124,150L-106,10Z" fill="#78caf8" stroke="#78caf8" stroke-width="1.51"></path><path d="M-134,-112L-132,299L-124,150Z" fill="#6abaf3" stroke="#6abaf3" stroke-width="1.51"></path></svg>