<svg width="300" height="176" xmlns="http://www.w3.org/2000/svg"><path d="M167,86L229,168L258,69Z" fill="#308ce8" stroke="#308ce8" stroke-width="1.51"></path><path d="M167,86L160,188L229,168Z" fill="#2f8be7" stroke="#2f8be7" stroke-width="1.51"></path><path d="M340,185L337,56L258,69Z" fill="#2c88e4" stroke="#2c88e4" stroke-width="1.51"></path><path d="M337,56L249,-19L258,69Z" fill="#6190dd" stroke="#6190dd" stroke-width="1.51"></path><path d="M258,69L249,-19L167,86Z" fill="#5c92e2" stroke="#5c92e2" stroke-width="1.51"></path><path d="M229,168L340,185L258,69Z" fill="#2c88e4" stroke="#2c88e4" stroke-width="1.51"></path><path d="M300,241L340,185L229,168Z" fill="#2983df" stroke="#2983df" stroke-width="1.51"></path><path d="M52,117L90,178L167,86Z" fill="#5591e4" stroke="#5591e4" stroke-width="1.51"></path><path d="M167,86L90,178L160,188Z" fill="#3b8de7" stroke="#3b8de7" stroke-width="1.51"></path><path d="M91,261L161,249L160,188Z" fill="#3888e2" stroke="#3888e2" stroke-width="1.51"></path><path d="M160,188L161,249L229,168Z" fill="#2c88e4" stroke="#2c88e4" stroke-width="1.51"></path><path d="M249,-19L143,-18L167,86Z" fill="#6f97de" stroke="#6f97de" stroke-width="1.51"></path><path d="M243,268L300,241L229,168Z" fill="#2883df" stroke="#2883df" stroke-width="1.51"></path><path d="M161,249L243,268L229,168Z" fill="#2a85e1" stroke="#2a85e1" stroke-width="1.51"></path><path d="M74,-15L52,117L167,86Z" fill="#6b97e1" stroke="#6b97e1" stroke-width="1.51"></path><path d="M143,-18L74,-15L167,86Z" fill="#799add" stroke="#799add" stroke-width="1.51"></path><path d="M337,56L352,-29L249,-19Z" fill="#7493d7" stroke="#7493d7" stroke-width="1.51"></path><path d="M249,-19L264,-126L143,-18Z" fill="#939ed0" stroke="#939ed0" stroke-width="1.51"></path><path d="M143,-18L71,-105L74,-15Z" fill="#a2a5cd" stroke="#a2a5cd" stroke-width="1.51"></path><path d="M425,-13L352,-29L337,56Z" fill="#7291d4" stroke="#7291d4" stroke-width="1.51"></path><path d="M-19,236L91,261L90,178Z" fill="#6a90d8" stroke="#6a90d8" stroke-width="1.51"></path><path d="M90,178L91,261L160,188Z" fill="#4b8ce1" stroke="#4b8ce1" stroke-width="1.51"></path><path d="M161,249L91,261L243,268Z" fill="#2a85e1" stroke="#2a85e1" stroke-width="1.51"></path><path d="M441,203L423,96L340,185Z" fill="#2681dd" stroke="#2681dd" stroke-width="1.51"></path><path d="M340,185L423,96L337,56Z" fill="#2a85e1" stroke="#2a85e1" stroke-width="1.51"></path><path d="M413,281L441,203L340,185Z" fill="#237dd9" stroke="#237dd9" stroke-width="1.51"></path><path d="M413,281L340,185L300,241Z" fill="#247fdb" stroke="#247fdb" stroke-width="1.51"></path><path d="M423,96L425,-13L337,56Z" fill="#568bdb" stroke="#568bdb" stroke-width="1.51"></path><path d="M441,203L425,-13L423,96Z" fill="#2884e0" stroke="#2884e0" stroke-width="1.51"></path><path d="M309,-117L249,-19L352,-29Z" fill="#919acc" stroke="#919acc" stroke-width="1.51"></path><path d="M309,-117L264,-126L249,-19Z" fill="#a0a0c8" stroke="#a0a0c8" stroke-width="1.51"></path><path d="M405,-71L309,-117L352,-29Z" fill="#979ac7" stroke="#979ac7" stroke-width="1.51"></path><path d="M264,-126L117,-125L143,-18Z" fill="#a4a4cb" stroke="#a4a4cb" stroke-width="1.51"></path><path d="M-107,294L413,281L243,268Z" fill="#2883df" stroke="#2883df" stroke-width="1.51"></path><path d="M243,268L413,281L300,241Z" fill="#237fdb" stroke="#237fdb" stroke-width="1.51"></path><path d="M425,-13L405,-71L352,-29Z" fill="#8795cc" stroke="#8795cc" stroke-width="1.51"></path><path d="M117,-125L71,-105L143,-18Z" fill="#ada8c9" stroke="#ada8c9" stroke-width="1.51"></path><path d="M74,-15L-8,-22L52,117Z" fill="#94a0d3" stroke="#94a0d3" stroke-width="1.51"></path><path d="M71,-105L-8,-22L74,-15Z" fill="#b1a9c7" stroke="#b1a9c7" stroke-width="1.51"></path><path d="M52,117L-34,197L90,178Z" fill="#7495d9" stroke="#7495d9" stroke-width="1.51"></path><path d="M-52,56L-34,197L52,117Z" fill="#879cd6" stroke="#879cd6" stroke-width="1.51"></path><path d="M-34,197L-19,236L90,178Z" fill="#7c95d4" stroke="#7c95d4" stroke-width="1.51"></path><path d="M-8,-22L-52,56L52,117Z" fill="#97a1d2" stroke="#97a1d2" stroke-width="1.51"></path><path d="M-147,20L-147,64L-52,56Z" fill="#b9acc2" stroke="#b9acc2" stroke-width="1.51"></path><path d="M71,-105L-19,-78L-8,-22Z" fill="#c1afbf" stroke="#c1afbf" stroke-width="1.51"></path><path d="M-151,-100L-19,-78L71,-105Z" fill="#d5b6b3" stroke="#d5b6b3" stroke-width="1.51"></path><path d="M-34,197L-94,207L-19,236Z" fill="#9099cc" stroke="#9099cc" stroke-width="1.51"></path><path d="M-52,56L-94,207L-34,197Z" fill="#969ece" stroke="#969ece" stroke-width="1.51"></path><path d="M-147,64L-94,207L-52,56Z" fill="#a3a4cb" stroke="#a3a4cb" stroke-width="1.51"></path><path d="M-147,20L-52,56L-8,-22Z" fill="#b7acc3" stroke="#b7acc3" stroke-width="1.51"></path><path d="M-94,207L-107,294L-19,236Z" fill="#9699c7" stroke="#9699c7" stroke-width="1.51"></path><path d="M-19,236L-107,294L91,261Z" fill="#8293ce" stroke="#8293ce" stroke-width="1.51"></path><path d="M91,261L-107,294L243,268Z" fill="#5e8bd8" stroke="#5e8bd8" stroke-width="1.51"></path><path d="M-147,64L-107,294L-94,207Z" fill="#a5a0c4" stroke="#a5a0c4" stroke-width="1.51"></path><path d="M-19,-78L-147,20L-8,-22Z" fill="#c4b0bd" stroke="#c4b0bd" stroke-width="1.51"></path><path d="M-19,-78L-151,-100L-147,20Z" fill="#d8b7b1" stroke="#d8b7b1" stroke-width="1.51"></path><path d="M-147,20L-151,-100L-147,64Z" fill="#d3b6b5" stroke="#d3b6b5" stroke-width="1.51"></path><path d="M117,-125L-151,-100L71,-105Z" fill="#d0b5b6" stroke="#d0b5b6" stroke-width="1.51"></path></svg>