<svg width="300" height="176" xmlns="http://www.w3.org/2000/svg"><path d="M70,-107L175,-88L401,-104Z" fill="#66b6f2" stroke="#66b6f2" stroke-width="1.51"></path><path d="M207,-82L317,-70L401,-104Z" fill="#61afed" stroke="#61afed" stroke-width="1.51"></path><path d="M175,-88L207,-82L401,-104Z" fill="#63b2f0" stroke="#63b2f0" stroke-width="1.51"></path><path d="M329,242L218,285L412,272Z" fill="#237eda" stroke="#237eda" stroke-width="1.51"></path><path d="M401,-104L330,-6L428,27Z" fill="#519fe7" stroke="#519fe7" stroke-width="1.51"></path><path d="M361,103L312,183L440,150Z" fill="#2883df" stroke="#2883df" stroke-width="1.51"></path><path d="M329,242L412,272L440,150Z" fill="#237eda" stroke="#237eda" stroke-width="1.51"></path><path d="M312,183L329,242L440,150Z" fill="#2681dd" stroke="#2681dd" stroke-width="1.51"></path><path d="M436,79L361,103L440,150Z" fill="#2883df" stroke="#2883df" stroke-width="1.51"></path><path d="M317,-70L330,-6L401,-104Z" fill="#59a7ea" stroke="#59a7ea" stroke-width="1.51"></path><path d="M428,27L361,103L436,79Z" fill="#3289e2" stroke="#3289e2" stroke-width="1.51"></path><path d="M330,-6L361,103L428,27Z" fill="#3d90e5" stroke="#3d90e5" stroke-width="1.51"></path><path d="M233,13L239,107L330,-6Z" fill="#4196ea" stroke="#4196ea" stroke-width="1.51"></path><path d="M330,-6L239,107L361,103Z" fill="#368ee6" stroke="#368ee6" stroke-width="1.51"></path><path d="M239,107L312,183L361,103Z" fill="#2c87e3" stroke="#2c87e3" stroke-width="1.51"></path><path d="M239,107L252,187L312,183Z" fill="#2b87e3" stroke="#2b87e3" stroke-width="1.51"></path><path d="M312,183L252,187L329,242Z" fill="#2883e0" stroke="#2883e0" stroke-width="1.51"></path><path d="M317,-70L233,13L330,-6Z" fill="#51a1eb" stroke="#51a1eb" stroke-width="1.51"></path><path d="M252,187L218,285L329,242Z" fill="#2782de" stroke="#2782de" stroke-width="1.51"></path><path d="M207,-82L233,13L317,-70Z" fill="#59a8ee" stroke="#59a8ee" stroke-width="1.51"></path><path d="M91,240L-26,292L218,285Z" fill="#3a8ee3" stroke="#3a8ee3" stroke-width="1.51"></path><path d="M233,13L152,106L239,107Z" fill="#3690ea" stroke="#3690ea" stroke-width="1.51"></path><path d="M122,189L155,234L252,187Z" fill="#2c88e4" stroke="#2c88e4" stroke-width="1.51"></path><path d="M239,107L152,106L252,187Z" fill="#2e8be7" stroke="#2e8be7" stroke-width="1.51"></path><path d="M152,106L122,189L252,187Z" fill="#2f8be7" stroke="#2f8be7" stroke-width="1.51"></path><path d="M155,234L218,285L252,187Z" fill="#2985e1" stroke="#2985e1" stroke-width="1.51"></path><path d="M207,-82L146,7L233,13Z" fill="#54a5ef" stroke="#54a5ef" stroke-width="1.51"></path><path d="M146,7L152,106L233,13Z" fill="#4399ed" stroke="#4399ed" stroke-width="1.51"></path><path d="M175,-88L146,7L207,-82Z" fill="#5daef2" stroke="#5daef2" stroke-width="1.51"></path><path d="M155,234L91,240L218,285Z" fill="#2b86e2" stroke="#2b86e2" stroke-width="1.51"></path><path d="M70,-107L146,7L175,-88Z" fill="#63b4f3" stroke="#63b4f3" stroke-width="1.51"></path><path d="M70,-107L43,0L146,7Z" fill="#63b4f4" stroke="#63b4f4" stroke-width="1.51"></path><path d="M43,144L122,189L152,106Z" fill="#3c93ea" stroke="#3c93ea" stroke-width="1.51"></path><path d="M146,7L53,60L152,106Z" fill="#469bef" stroke="#469bef" stroke-width="1.51"></path><path d="M122,189L91,240L155,234Z" fill="#348ce5" stroke="#348ce5" stroke-width="1.51"></path><path d="M53,60L43,144L152,106Z" fill="#4399ed" stroke="#4399ed" stroke-width="1.51"></path><path d="M43,0L53,60L146,7Z" fill="#57a8f2" stroke="#57a8f2" stroke-width="1.51"></path><path d="M43,144L91,240L122,189Z" fill="#3f94e8" stroke="#3f94e8" stroke-width="1.51"></path><path d="M-133,-105L-52,-69L70,-107Z" fill="#81d6fa" stroke="#81d6fa" stroke-width="1.51"></path><path d="M43,144L-26,292L91,240Z" fill="#4899e8" stroke="#4899e8" stroke-width="1.51"></path><path d="M-44,147L-26,292L43,144Z" fill="#53a2eb" stroke="#53a2eb" stroke-width="1.51"></path><path d="M1,83L43,144L53,60Z" fill="#4ea1f0" stroke="#4ea1f0" stroke-width="1.51"></path><path d="M-52,-69L43,0L70,-107Z" fill="#72c4f7" stroke="#72c4f7" stroke-width="1.51"></path><path d="M-52,-69L-62,-29L43,0Z" fill="#74c5f7" stroke="#74c5f7" stroke-width="1.51"></path><path d="M43,0L1,83L53,60Z" fill="#59aaf2" stroke="#59aaf2" stroke-width="1.51"></path><path d="M-62,-29L1,83L43,0Z" fill="#66b7f4" stroke="#66b7f4" stroke-width="1.51"></path><path d="M1,83L-44,147L43,144Z" fill="#53a5ef" stroke="#53a5ef" stroke-width="1.51"></path><path d="M-44,147L-110,268L-26,292Z" fill="#5aa7ea" stroke="#5aa7ea" stroke-width="1.51"></path><path d="M-62,-29L-109,20L1,83Z" fill="#6dbef6" stroke="#6dbef6" stroke-width="1.51"></path><path d="M-109,20L-109,62L1,83Z" fill="#69baf5" stroke="#69baf5" stroke-width="1.51"></path><path d="M-109,62L-44,147L1,83Z" fill="#5eaef2" stroke="#5eaef2" stroke-width="1.51"></path><path d="M-146,160L-110,268L-44,147Z" fill="#62b0ee" stroke="#62b0ee" stroke-width="1.51"></path><path d="M-109,62L-146,160L-44,147Z" fill="#64b5f2" stroke="#64b5f2" stroke-width="1.51"></path><path d="M-133,-105L-62,-29L-52,-69Z" fill="#82d7fa" stroke="#82d7fa" stroke-width="1.51"></path><path d="M-133,-105L-109,20L-62,-29Z" fill="#7fd3fa" stroke="#7fd3fa" stroke-width="1.51"></path><path d="M-146,160L-109,62L-109,20Z" fill="#6bbcf5" stroke="#6bbcf5" stroke-width="1.51"></path><path d="M-133,-105L-146,160L-109,20Z" fill="#77caf8" stroke="#77caf8" stroke-width="1.51"></path></svg>