<svg width="300" height="176" xmlns="http://www.w3.org/2000/svg"><path d="M118,65L71,31L60,94Z" fill="#9ea3cf" stroke="#9ea3cf" stroke-width="1.51"></path><path d="M118,65L167,21L71,31Z" fill="#a2a4cd" stroke="#a2a4cd" stroke-width="1.51"></path><path d="M71,31L-14,29L60,94Z" fill="#c3afbd" stroke="#c3afbd" stroke-width="1.51"></path><path d="M88,-125L-14,29L71,31Z" fill="#e9bfa7" stroke="#e9bfa7" stroke-width="1.51"></path><path d="M163,204L208,77L118,65Z" fill="#2f8be7" stroke="#2f8be7" stroke-width="1.51"></path><path d="M118,65L208,77L167,21Z" fill="#7898db" stroke="#7898db" stroke-width="1.51"></path><path d="M60,94L76,203L118,65Z" fill="#7c96d6" stroke="#7c96d6" stroke-width="1.51"></path><path d="M-36,171L76,203L60,94Z" fill="#9c9ac3" stroke="#9c9ac3" stroke-width="1.51"></path><path d="M-14,29L-60,76L60,94Z" fill="#cab2b9" stroke="#cab2b9" stroke-width="1.51"></path><path d="M-60,76L-36,171L60,94Z" fill="#b4a7c0" stroke="#b4a7c0" stroke-width="1.51"></path><path d="M76,203L163,204L118,65Z" fill="#5a8bda" stroke="#5a8bda" stroke-width="1.51"></path><path d="M167,21L88,-125L71,31Z" fill="#cdb3b8" stroke="#cdb3b8" stroke-width="1.51"></path><path d="M208,77L243,15L167,21Z" fill="#8b9ad0" stroke="#8b9ad0" stroke-width="1.51"></path><path d="M314,62L243,15L208,77Z" fill="#7791d3" stroke="#7791d3" stroke-width="1.51"></path><path d="M76,203L140,237L163,204Z" fill="#4f87d9" stroke="#4f87d9" stroke-width="1.51"></path><path d="M55,251L140,237L76,203Z" fill="#738dcf" stroke="#738dcf" stroke-width="1.51"></path><path d="M-36,171L55,251L76,203Z" fill="#9b97c0" stroke="#9b97c0" stroke-width="1.51"></path><path d="M248,-60L181,-96L167,21Z" fill="#b4a6c0" stroke="#b4a6c0" stroke-width="1.51"></path><path d="M181,-96L88,-125L167,21Z" fill="#b9acc3" stroke="#b9acc3" stroke-width="1.51"></path><path d="M-151,-24L-132,119L-60,76Z" fill="#d2b6b5" stroke="#d2b6b5" stroke-width="1.51"></path><path d="M163,204L246,175L208,77Z" fill="#2681dd" stroke="#2681dd" stroke-width="1.51"></path><path d="M273,249L246,175L163,204Z" fill="#207cd8" stroke="#207cd8" stroke-width="1.51"></path><path d="M353,-30L248,-60L243,15Z" fill="#ae9fb9" stroke="#ae9fb9" stroke-width="1.51"></path><path d="M243,15L248,-60L167,21Z" fill="#b2a5be" stroke="#b2a5be" stroke-width="1.51"></path><path d="M-36,171L-64,251L55,251Z" fill="#ad9db7" stroke="#ad9db7" stroke-width="1.51"></path><path d="M-60,76L-132,119L-36,171Z" fill="#b3a6bf" stroke="#b3a6bf" stroke-width="1.51"></path><path d="M-151,-24L-60,76L-14,29Z" fill="#ebbfa6" stroke="#ebbfa6" stroke-width="1.51"></path><path d="M88,-125L-47,-120L-14,29Z" fill="#fbc79b" stroke="#fbc79b" stroke-width="1.51"></path><path d="M246,175L314,62L208,77Z" fill="#2984e0" stroke="#2984e0" stroke-width="1.51"></path><path d="M-144,148L-64,251L-36,171Z" fill="#ad9db7" stroke="#ad9db7" stroke-width="1.51"></path><path d="M-132,119L-144,148L-36,171Z" fill="#b0a2bc" stroke="#b0a2bc" stroke-width="1.51"></path><path d="M-151,-24L-144,148L-132,119Z" fill="#bdadc1" stroke="#bdadc1" stroke-width="1.51"></path><path d="M-121,-103L-151,-24L-14,29Z" fill="#ffc998" stroke="#ffc998" stroke-width="1.51"></path><path d="M246,175L310,182L314,62Z" fill="#207cd8" stroke="#207cd8" stroke-width="1.51"></path><path d="M273,249L310,182L246,175Z" fill="#1c78d4" stroke="#1c78d4" stroke-width="1.51"></path><path d="M-47,-120L-121,-103L-14,29Z" fill="#ffc998" stroke="#ffc998" stroke-width="1.51"></path><path d="M55,251L273,249L140,237Z" fill="#2782de" stroke="#2782de" stroke-width="1.51"></path><path d="M140,237L273,249L163,204Z" fill="#247fdb" stroke="#247fdb" stroke-width="1.51"></path><path d="M-144,148L-91,283L-64,251Z" fill="#ad9db7" stroke="#ad9db7" stroke-width="1.51"></path><path d="M-64,251L-91,283L55,251Z" fill="#ad9db7" stroke="#ad9db7" stroke-width="1.51"></path><path d="M55,251L-91,283L273,249Z" fill="#7b8fcc" stroke="#7b8fcc" stroke-width="1.51"></path><path d="M314,62L353,-30L243,15Z" fill="#9e98be" stroke="#9e98be" stroke-width="1.51"></path><path d="M248,-60L329,-126L181,-96Z" fill="#b0a2bb" stroke="#b0a2bb" stroke-width="1.51"></path><path d="M416,55L353,-30L314,62Z" fill="#9094c4" stroke="#9094c4" stroke-width="1.51"></path><path d="M353,-30L329,-126L248,-60Z" fill="#ad9db7" stroke="#ad9db7" stroke-width="1.51"></path><path d="M181,-96L329,-126L88,-125Z" fill="#b3a6c0" stroke="#b3a6c0" stroke-width="1.51"></path><path d="M439,167L416,55L314,62Z" fill="#2682de" stroke="#2682de" stroke-width="1.51"></path><path d="M273,249L353,235L310,182Z" fill="#1976d2" stroke="#1976d2" stroke-width="1.51"></path><path d="M353,-30L409,-118L329,-126Z" fill="#ad9db7" stroke="#ad9db7" stroke-width="1.51"></path><path d="M439,167L314,62L310,182Z" fill="#207bd7" stroke="#207bd7" stroke-width="1.51"></path><path d="M416,55L435,18L353,-30Z" fill="#9f99be" stroke="#9f99be" stroke-width="1.51"></path><path d="M439,167L435,18L416,55Z" fill="#4285db" stroke="#4285db" stroke-width="1.51"></path><path d="M353,235L439,167L310,182Z" fill="#1976d2" stroke="#1976d2" stroke-width="1.51"></path><path d="M273,249L406,246L353,235Z" fill="#1976d2" stroke="#1976d2" stroke-width="1.51"></path><path d="M-91,283L406,246L273,249Z" fill="#237fdb" stroke="#237fdb" stroke-width="1.51"></path><path d="M406,246L439,167L353,235Z" fill="#1976d2" stroke="#1976d2" stroke-width="1.51"></path><path d="M435,18L409,-118L353,-30Z" fill="#ad9db7" stroke="#ad9db7" stroke-width="1.51"></path></svg>