<svg width="300" height="176" xmlns="http://www.w3.org/2000/svg"><path d="M47,-114L123,-94L225,-98Z" fill="#6bbdf5" stroke="#6bbdf5" stroke-width="1.51"></path><path d="M326,168L435,171L438,59Z" fill="#2783df" stroke="#2783df" stroke-width="1.51"></path><path d="M300,107L326,168L438,59Z" fill="#2a86e2" stroke="#2a86e2" stroke-width="1.51"></path><path d="M-45,-122L47,-114L449,-86Z" fill="#69baf5" stroke="#69baf5" stroke-width="1.51"></path><path d="M47,-114L225,-98L449,-86Z" fill="#65b4f0" stroke="#65b4f0" stroke-width="1.51"></path><path d="M225,-98L300,-87L449,-86Z" fill="#61afed" stroke="#61afed" stroke-width="1.51"></path><path d="M333,14L426,26L449,-86Z" fill="#4d9be6" stroke="#4d9be6" stroke-width="1.51"></path><path d="M300,-87L333,14L449,-86Z" fill="#58a6ea" stroke="#58a6ea" stroke-width="1.51"></path><path d="M438,59L435,171L449,-86Z" fill="#398ce2" stroke="#398ce2" stroke-width="1.51"></path><path d="M426,26L438,59L449,-86Z" fill="#4896e4" stroke="#4896e4" stroke-width="1.51"></path><path d="M326,168L410,259L435,171Z" fill="#247fdb" stroke="#247fdb" stroke-width="1.51"></path><path d="M426,26L333,14L438,59Z" fill="#3f91e4" stroke="#3f91e4" stroke-width="1.51"></path><path d="M333,14L300,107L438,59Z" fill="#378de5" stroke="#378de5" stroke-width="1.51"></path><path d="M326,168L321,273L410,259Z" fill="#247fdb" stroke="#247fdb" stroke-width="1.51"></path><path d="M256,151L209,286L321,273Z" fill="#2783df" stroke="#2783df" stroke-width="1.51"></path><path d="M256,151L321,273L326,168Z" fill="#2883df" stroke="#2883df" stroke-width="1.51"></path><path d="M300,107L256,151L326,168Z" fill="#2b87e3" stroke="#2b87e3" stroke-width="1.51"></path><path d="M224,62L300,107L333,14Z" fill="#3990e8" stroke="#3990e8" stroke-width="1.51"></path><path d="M229,21L224,62L333,14Z" fill="#4397ea" stroke="#4397ea" stroke-width="1.51"></path><path d="M300,-87L229,21L333,14Z" fill="#51a1eb" stroke="#51a1eb" stroke-width="1.51"></path><path d="M225,-98L229,21L300,-87Z" fill="#5babef" stroke="#5babef" stroke-width="1.51"></path><path d="M224,62L256,151L300,107Z" fill="#2e8ae6" stroke="#2e8ae6" stroke-width="1.51"></path><path d="M121,257L56,274L209,286Z" fill="#3088e2" stroke="#3088e2" stroke-width="1.51"></path><path d="M146,144L121,257L209,286Z" fill="#2b87e3" stroke="#2b87e3" stroke-width="1.51"></path><path d="M225,-98L182,-15L229,21Z" fill="#56a7ef" stroke="#56a7ef" stroke-width="1.51"></path><path d="M224,62L146,144L256,151Z" fill="#308be7" stroke="#308be7" stroke-width="1.51"></path><path d="M146,144L209,286L256,151Z" fill="#2c88e4" stroke="#2c88e4" stroke-width="1.51"></path><path d="M174,54L146,144L224,62Z" fill="#338fea" stroke="#338fea" stroke-width="1.51"></path><path d="M123,-94L182,-15L225,-98Z" fill="#60b1f2" stroke="#60b1f2" stroke-width="1.51"></path><path d="M174,54L224,62L229,21Z" fill="#4196ec" stroke="#4196ec" stroke-width="1.51"></path><path d="M182,-15L174,54L229,21Z" fill="#499ced" stroke="#499ced" stroke-width="1.51"></path><path d="M123,-94L33,-35L182,-15Z" fill="#62b3f3" stroke="#62b3f3" stroke-width="1.51"></path><path d="M52,68L174,54L182,-15Z" fill="#499def" stroke="#499def" stroke-width="1.51"></path><path d="M33,-35L52,68L182,-15Z" fill="#5aabf2" stroke="#5aabf2" stroke-width="1.51"></path><path d="M52,68L146,144L174,54Z" fill="#3a94ed" stroke="#3a94ed" stroke-width="1.51"></path><path d="M33,186L121,257L146,144Z" fill="#3c91e7" stroke="#3c91e7" stroke-width="1.51"></path><path d="M52,68L33,186L146,144Z" fill="#4498ec" stroke="#4498ec" stroke-width="1.51"></path><path d="M33,186L56,274L121,257Z" fill="#4193e6" stroke="#4193e6" stroke-width="1.51"></path><path d="M47,-114L33,-35L123,-94Z" fill="#70c2f6" stroke="#70c2f6" stroke-width="1.51"></path><path d="M-45,-122L33,-35L47,-114Z" fill="#7acdf8" stroke="#7acdf8" stroke-width="1.51"></path><path d="M-5,189L33,186L52,68Z" fill="#4d9fed" stroke="#4d9fed" stroke-width="1.51"></path><path d="M-54,87L-5,189L52,68Z" fill="#54a6f0" stroke="#54a6f0" stroke-width="1.51"></path><path d="M33,-35L-34,30L52,68Z" fill="#62b3f4" stroke="#62b3f4" stroke-width="1.51"></path><path d="M33,186L-5,189L56,274Z" fill="#4b9be9" stroke="#4b9be9" stroke-width="1.51"></path><path d="M-5,189L-42,267L56,274Z" fill="#4e9de8" stroke="#4e9de8" stroke-width="1.51"></path><path d="M-34,30L-54,87L52,68Z" fill="#5eaff2" stroke="#5eaff2" stroke-width="1.51"></path><path d="M-99,-74L-34,30L33,-35Z" fill="#74c6f7" stroke="#74c6f7" stroke-width="1.51"></path><path d="M-45,-122L-99,-74L33,-35Z" fill="#7ed2f9" stroke="#7ed2f9" stroke-width="1.51"></path><path d="M-99,-74L-92,31L-34,30Z" fill="#75c7f7" stroke="#75c7f7" stroke-width="1.51"></path><path d="M-54,87L-121,204L-5,189Z" fill="#5dacef" stroke="#5dacef" stroke-width="1.51"></path><path d="M-121,204L-95,236L-5,189Z" fill="#5dabec" stroke="#5dabec" stroke-width="1.51"></path><path d="M-95,236L-42,267L-5,189Z" fill="#58a6ea" stroke="#58a6ea" stroke-width="1.51"></path><path d="M-93,75L-121,204L-54,87Z" fill="#63b3f2" stroke="#63b3f2" stroke-width="1.51"></path><path d="M-92,31L-93,75L-54,87Z" fill="#68b9f4" stroke="#68b9f4" stroke-width="1.51"></path><path d="M-92,31L-54,87L-34,30Z" fill="#68b9f5" stroke="#68b9f5" stroke-width="1.51"></path><path d="M-121,204L-93,75L-92,31Z" fill="#65b6f3" stroke="#65b6f3" stroke-width="1.51"></path><path d="M-99,-74L-121,204L-92,31Z" fill="#6dbff6" stroke="#6dbff6" stroke-width="1.51"></path></svg>