<svg width="300" height="176" xmlns="http://www.w3.org/2000/svg"><path d="M167,55L232,-4L120,19Z" fill="#6c96e0" stroke="#6c96e0" stroke-width="1.51"></path><path d="M232,-4L160,-76L120,19Z" fill="#849cd8" stroke="#849cd8" stroke-width="1.51"></path><path d="M160,-76L83,-19L120,19Z" fill="#91a0d5" stroke="#91a0d5" stroke-width="1.51"></path><path d="M232,-4L230,-79L160,-76Z" fill="#939ed1" stroke="#939ed1" stroke-width="1.51"></path><path d="M232,-4L298,-11L230,-79Z" fill="#8899d2" stroke="#8899d2" stroke-width="1.51"></path><path d="M305,55L298,-11L232,-4Z" fill="#6f93da" stroke="#6f93da" stroke-width="1.51"></path><path d="M167,55L269,90L232,-4Z" fill="#5a92e2" stroke="#5a92e2" stroke-width="1.51"></path><path d="M269,90L305,55L232,-4Z" fill="#5990e0" stroke="#5990e0" stroke-width="1.51"></path><path d="M230,-79L84,-119L160,-76Z" fill="#a5a5cb" stroke="#a5a5cb" stroke-width="1.51"></path><path d="M160,-76L84,-119L83,-19Z" fill="#a9a7ca" stroke="#a9a7ca" stroke-width="1.51"></path><path d="M120,19L46,97L167,55Z" fill="#6996e2" stroke="#6996e2" stroke-width="1.51"></path><path d="M167,55L220,160L269,90Z" fill="#308ce8" stroke="#308ce8" stroke-width="1.51"></path><path d="M83,-19L46,97L120,19Z" fill="#829cda" stroke="#829cda" stroke-width="1.51"></path><path d="M-16,-15L46,97L83,-19Z" fill="#97a1d2" stroke="#97a1d2" stroke-width="1.51"></path><path d="M230,-79L426,-93L84,-119Z" fill="#a4a2c7" stroke="#a4a2c7" stroke-width="1.51"></path><path d="M298,-11L324,-72L230,-79Z" fill="#919bce" stroke="#919bce" stroke-width="1.51"></path><path d="M440,6L324,-72L298,-11Z" fill="#8294cf" stroke="#8294cf" stroke-width="1.51"></path><path d="M129,189L220,160L167,55Z" fill="#308ce8" stroke="#308ce8" stroke-width="1.51"></path><path d="M269,90L304,184L305,55Z" fill="#2d88e4" stroke="#2d88e4" stroke-width="1.51"></path><path d="M-11,-85L-16,-15L83,-19Z" fill="#b5aac5" stroke="#b5aac5" stroke-width="1.51"></path><path d="M46,97L91,171L167,55Z" fill="#5693e5" stroke="#5693e5" stroke-width="1.51"></path><path d="M91,171L129,189L167,55Z" fill="#438ee7" stroke="#438ee7" stroke-width="1.51"></path><path d="M84,-119L-11,-85L83,-19Z" fill="#b9acc2" stroke="#b9acc2" stroke-width="1.51"></path><path d="M46,97L-55,193L91,171Z" fill="#7796d9" stroke="#7796d9" stroke-width="1.51"></path><path d="M-16,-15L-21,90L46,97Z" fill="#92a0d4" stroke="#92a0d4" stroke-width="1.51"></path><path d="M305,55L440,6L298,-11Z" fill="#6b90d8" stroke="#6b90d8" stroke-width="1.51"></path><path d="M220,160L304,184L269,90Z" fill="#2c87e4" stroke="#2c87e4" stroke-width="1.51"></path><path d="M257,263L304,184L220,160Z" fill="#2985e1" stroke="#2985e1" stroke-width="1.51"></path><path d="M450,91L440,6L305,55Z" fill="#528adb" stroke="#528adb" stroke-width="1.51"></path><path d="M324,-72L426,-93L230,-79Z" fill="#9c9cc7" stroke="#9c9cc7" stroke-width="1.51"></path><path d="M440,6L426,-93L324,-72Z" fill="#8e96c9" stroke="#8e96c9" stroke-width="1.51"></path><path d="M129,189L257,263L220,160Z" fill="#2b87e3" stroke="#2b87e3" stroke-width="1.51"></path><path d="M437,153L450,91L305,55Z" fill="#2a85e1" stroke="#2a85e1" stroke-width="1.51"></path><path d="M154,300L257,263L129,189Z" fill="#2985e1" stroke="#2985e1" stroke-width="1.51"></path><path d="M-10,239L70,276L91,171Z" fill="#6b90d8" stroke="#6b90d8" stroke-width="1.51"></path><path d="M91,171L70,276L129,189Z" fill="#558ddf" stroke="#558ddf" stroke-width="1.51"></path><path d="M-16,-15L-101,76L-21,90Z" fill="#a4a5cd" stroke="#a4a5cd" stroke-width="1.51"></path><path d="M-153,-1L-101,76L-16,-15Z" fill="#bcadc1" stroke="#bcadc1" stroke-width="1.51"></path><path d="M437,153L305,55L304,184Z" fill="#2a85e1" stroke="#2a85e1" stroke-width="1.51"></path><path d="M-55,193L46,97L-21,90Z" fill="#869bd5" stroke="#869bd5" stroke-width="1.51"></path><path d="M-101,76L-55,193L-21,90Z" fill="#97a0d0" stroke="#97a0d0" stroke-width="1.51"></path><path d="M70,276L154,300L129,189Z" fill="#4789df" stroke="#4789df" stroke-width="1.51"></path><path d="M-55,193L-10,239L91,171Z" fill="#7d95d4" stroke="#7d95d4" stroke-width="1.51"></path><path d="M362,279L437,153L304,184Z" fill="#2580dc" stroke="#2580dc" stroke-width="1.51"></path><path d="M-142,-118L-153,-1L-16,-15Z" fill="#d5b6b3" stroke="#d5b6b3" stroke-width="1.51"></path><path d="M-101,76L-122,178L-55,193Z" fill="#a0a1ca" stroke="#a0a1ca" stroke-width="1.51"></path><path d="M-11,-85L-142,-118L-16,-15Z" fill="#d4b6b5" stroke="#d4b6b5" stroke-width="1.51"></path><path d="M84,-119L-142,-118L-11,-85Z" fill="#d7b7b2" stroke="#d7b7b2" stroke-width="1.51"></path><path d="M154,300L362,279L257,263Z" fill="#2580dc" stroke="#2580dc" stroke-width="1.51"></path><path d="M257,263L362,279L304,184Z" fill="#2580dc" stroke="#2580dc" stroke-width="1.51"></path><path d="M-153,-1L-122,178L-101,76Z" fill="#ada8c9" stroke="#ada8c9" stroke-width="1.51"></path><path d="M-55,193L-91,294L-10,239Z" fill="#9098ca" stroke="#9098ca" stroke-width="1.51"></path><path d="M-122,178L-91,294L-55,193Z" fill="#9c9cc6" stroke="#9c9cc6" stroke-width="1.51"></path><path d="M-10,239L-91,294L70,276Z" fill="#8193cd" stroke="#8193cd" stroke-width="1.51"></path><path d="M70,276L-91,294L154,300Z" fill="#6c8dd3" stroke="#6c8dd3" stroke-width="1.51"></path><path d="M362,279L451,286L437,153Z" fill="#217cd8" stroke="#217cd8" stroke-width="1.51"></path><path d="M437,153L451,286L450,91Z" fill="#237fdb" stroke="#237fdb" stroke-width="1.51"></path><path d="M154,300L451,286L362,279Z" fill="#217dd9" stroke="#217dd9" stroke-width="1.51"></path></svg>