<svg width="300" height="176" xmlns="http://www.w3.org/2000/svg"><path d="M154,62L226,75L208,-6Z" fill="#5d93e2" stroke="#5d93e2" stroke-width="1.51"></path><path d="M208,-6L151,-28L154,62Z" fill="#7598dd" stroke="#7598dd" stroke-width="1.51"></path><path d="M208,-6L206,-61L151,-28Z" fill="#8a9dd5" stroke="#8a9dd5" stroke-width="1.51"></path><path d="M348,5L206,-61L208,-6Z" fill="#8298d4" stroke="#8298d4" stroke-width="1.51"></path><path d="M226,75L298,73L208,-6Z" fill="#5990e1" stroke="#5990e1" stroke-width="1.51"></path><path d="M154,62L237,148L226,75Z" fill="#318de9" stroke="#318de9" stroke-width="1.51"></path><path d="M226,75L237,148L298,73Z" fill="#2f8be7" stroke="#2f8be7" stroke-width="1.51"></path><path d="M206,-61L182,-84L151,-28Z" fill="#96a0d1" stroke="#96a0d1" stroke-width="1.51"></path><path d="M151,-28L62,16L154,62Z" fill="#7c9bdc" stroke="#7c9bdc" stroke-width="1.51"></path><path d="M154,62L118,211L237,148Z" fill="#308ce8" stroke="#308ce8" stroke-width="1.51"></path><path d="M35,-108L62,16L151,-28Z" fill="#a4a5cd" stroke="#a4a5cd" stroke-width="1.51"></path><path d="M298,73L348,5L208,-6Z" fill="#6892db" stroke="#6892db" stroke-width="1.51"></path><path d="M206,-61L301,-126L182,-84Z" fill="#a2a1c9" stroke="#a2a1c9" stroke-width="1.51"></path><path d="M62,16L53,119L154,62Z" fill="#6d97e1" stroke="#6d97e1" stroke-width="1.51"></path><path d="M53,119L79,157L154,62Z" fill="#5993e4" stroke="#5993e4" stroke-width="1.51"></path><path d="M298,73L395,71L348,5Z" fill="#558cde" stroke="#558cde" stroke-width="1.51"></path><path d="M237,148L318,159L298,73Z" fill="#2c88e4" stroke="#2c88e4" stroke-width="1.51"></path><path d="M298,243L318,159L237,148Z" fill="#2985e1" stroke="#2985e1" stroke-width="1.51"></path><path d="M79,157L118,211L154,62Z" fill="#4c8fe5" stroke="#4c8fe5" stroke-width="1.51"></path><path d="M348,5L301,-126L206,-61Z" fill="#949ccc" stroke="#949ccc" stroke-width="1.51"></path><path d="M318,159L395,71L298,73Z" fill="#2c87e3" stroke="#2c87e3" stroke-width="1.51"></path><path d="M348,5L410,-119L301,-126Z" fill="#9a9bc6" stroke="#9a9bc6" stroke-width="1.51"></path><path d="M62,16L-15,117L53,119Z" fill="#7a9add" stroke="#7a9add" stroke-width="1.51"></path><path d="M182,-84L35,-108L151,-28Z" fill="#a5a5cc" stroke="#a5a5cc" stroke-width="1.51"></path><path d="M301,-126L35,-108L182,-84Z" fill="#aaa6c9" stroke="#aaa6c9" stroke-width="1.51"></path><path d="M86,282L124,263L118,211Z" fill="#4c8ade" stroke="#4c8ade" stroke-width="1.51"></path><path d="M53,119L-15,117L79,157Z" fill="#7497dc" stroke="#7497dc" stroke-width="1.51"></path><path d="M-37,3L-15,117L62,16Z" fill="#98a1d2" stroke="#98a1d2" stroke-width="1.51"></path><path d="M318,159L447,179L395,71Z" fill="#2883df" stroke="#2883df" stroke-width="1.51"></path><path d="M210,276L298,243L237,148Z" fill="#2984e0" stroke="#2984e0" stroke-width="1.51"></path><path d="M118,211L210,276L237,148Z" fill="#2b87e3" stroke="#2b87e3" stroke-width="1.51"></path><path d="M86,282L118,211L-20,238Z" fill="#668ed8" stroke="#668ed8" stroke-width="1.51"></path><path d="M35,-108L-37,3L62,16Z" fill="#b1a9c7" stroke="#b1a9c7" stroke-width="1.51"></path><path d="M124,263L210,276L118,211Z" fill="#2b86e2" stroke="#2b86e2" stroke-width="1.51"></path><path d="M35,-108L-6,-110L-37,3Z" fill="#c6b0bc" stroke="#c6b0bc" stroke-width="1.51"></path><path d="M301,-126L-6,-110L35,-108Z" fill="#b9acc3" stroke="#b9acc3" stroke-width="1.51"></path><path d="M395,71L445,-20L348,5Z" fill="#698ed6" stroke="#698ed6" stroke-width="1.51"></path><path d="M124,263L86,282L210,276Z" fill="#3486e0" stroke="#3486e0" stroke-width="1.51"></path><path d="M-20,238L118,211L79,157Z" fill="#6891da" stroke="#6891da" stroke-width="1.51"></path><path d="M445,-20L410,-119L348,5Z" fill="#8a95ca" stroke="#8a95ca" stroke-width="1.51"></path><path d="M-15,117L-20,238L79,157Z" fill="#7b96d6" stroke="#7b96d6" stroke-width="1.51"></path><path d="M-128,70L-63,160L-15,117Z" fill="#9aa1cf" stroke="#9aa1cf" stroke-width="1.51"></path><path d="M395,71L447,179L445,-20Z" fill="#3986de" stroke="#3986de" stroke-width="1.51"></path><path d="M298,243L447,179L318,159Z" fill="#2681dd" stroke="#2681dd" stroke-width="1.51"></path><path d="M-63,160L-20,238L-15,117Z" fill="#8c9ad0" stroke="#8c9ad0" stroke-width="1.51"></path><path d="M-63,160L-114,240L-20,238Z" fill="#959aca" stroke="#959aca" stroke-width="1.51"></path><path d="M-37,3L-128,70L-15,117Z" fill="#a3a5cd" stroke="#a3a5cd" stroke-width="1.51"></path><path d="M-142,9L-128,70L-37,3Z" fill="#bcadc1" stroke="#bcadc1" stroke-width="1.51"></path><path d="M-6,-110L-97,-119L-37,3Z" fill="#d2b5b5" stroke="#d2b5b5" stroke-width="1.51"></path><path d="M301,-126L-97,-119L-6,-110Z" fill="#c5b0bc" stroke="#c5b0bc" stroke-width="1.51"></path><path d="M-97,-119L-142,9L-37,3Z" fill="#d0b4b7" stroke="#d0b4b7" stroke-width="1.51"></path><path d="M298,243L439,277L447,179Z" fill="#227dd9" stroke="#227dd9" stroke-width="1.51"></path><path d="M210,276L439,277L298,243Z" fill="#247eda" stroke="#247eda" stroke-width="1.51"></path><path d="M86,282L439,277L210,276Z" fill="#2581dd" stroke="#2581dd" stroke-width="1.51"></path><path d="M-148,190L-114,240L-63,160Z" fill="#a39fc5" stroke="#a39fc5" stroke-width="1.51"></path><path d="M-20,238L-114,240L86,282Z" fill="#8494ce" stroke="#8494ce" stroke-width="1.51"></path><path d="M-148,190L-63,160L-128,70Z" fill="#a6a3c8" stroke="#a6a3c8" stroke-width="1.51"></path><path d="M-142,9L-148,190L-128,70Z" fill="#afa9c7" stroke="#afa9c7" stroke-width="1.51"></path></svg>