<svg width="300" height="176" xmlns="http://www.w3.org/2000/svg"><path d="M133,89L68,149L145,158Z" fill="#608fdd" stroke="#608fdd" stroke-width="1.51"></path><path d="M133,89L51,121L68,149Z" fill="#7d97d6" stroke="#7d97d6" stroke-width="1.51"></path><path d="M70,260L151,245L145,158Z" fill="#5488d8" stroke="#5488d8" stroke-width="1.51"></path><path d="M-29,243L70,260L68,149Z" fill="#9897c1" stroke="#9897c1" stroke-width="1.51"></path><path d="M49,-20L-3,66L51,121Z" fill="#c3b0be" stroke="#c3b0be" stroke-width="1.51"></path><path d="M-56,198L68,149L51,121Z" fill="#a39cc0" stroke="#a39cc0" stroke-width="1.51"></path><path d="M68,149L70,260L145,158Z" fill="#6f8cd0" stroke="#6f8cd0" stroke-width="1.51"></path><path d="M145,158L262,76L133,89Z" fill="#2e8ae6" stroke="#2e8ae6" stroke-width="1.51"></path><path d="M151,245L224,208L145,158Z" fill="#2681dd" stroke="#2681dd" stroke-width="1.51"></path><path d="M133,89L49,-20L51,121Z" fill="#a2a4ce" stroke="#a2a4ce" stroke-width="1.51"></path><path d="M272,21L121,-12L133,89Z" fill="#939fd1" stroke="#939fd1" stroke-width="1.51"></path><path d="M121,-12L49,-20L133,89Z" fill="#c0aebf" stroke="#c0aebf" stroke-width="1.51"></path><path d="M433,294L223,242L151,245Z" fill="#1c78d4" stroke="#1c78d4" stroke-width="1.51"></path><path d="M151,245L223,242L224,208Z" fill="#237eda" stroke="#237eda" stroke-width="1.51"></path><path d="M325,57L262,76L354,188Z" fill="#2480dc" stroke="#2480dc" stroke-width="1.51"></path><path d="M224,208L262,76L145,158Z" fill="#2781dd" stroke="#2781dd" stroke-width="1.51"></path><path d="M-3,66L-56,198L51,121Z" fill="#b2a5be" stroke="#b2a5be" stroke-width="1.51"></path><path d="M-56,198L-29,243L68,149Z" fill="#ad9db7" stroke="#ad9db7" stroke-width="1.51"></path><path d="M-3,66L-112,70L-56,198Z" fill="#b4a7c0" stroke="#b4a7c0" stroke-width="1.51"></path><path d="M49,-20L-29,-4L-3,66Z" fill="#f2c3a2" stroke="#f2c3a2" stroke-width="1.51"></path><path d="M49,-20L-4,-99L-29,-4Z" fill="#fdc89a" stroke="#fdc89a" stroke-width="1.51"></path><path d="M121,-12L88,-64L49,-20Z" fill="#d8b8b2" stroke="#d8b8b2" stroke-width="1.51"></path><path d="M122,-86L88,-64L121,-12Z" fill="#ccb3b9" stroke="#ccb3b9" stroke-width="1.51"></path><path d="M262,76L272,21L133,89Z" fill="#6a91da" stroke="#6a91da" stroke-width="1.51"></path><path d="M88,-64L-4,-99L49,-20Z" fill="#ebc0a6" stroke="#ebc0a6" stroke-width="1.51"></path><path d="M225,-108L122,-86L121,-12Z" fill="#b6abc3" stroke="#b6abc3" stroke-width="1.51"></path><path d="M272,21L225,-108L121,-12Z" fill="#b3a6bf" stroke="#b3a6bf" stroke-width="1.51"></path><path d="M262,76L325,57L272,21Z" fill="#758ed0" stroke="#758ed0" stroke-width="1.51"></path><path d="M354,188L262,76L224,208Z" fill="#1f7ad6" stroke="#1f7ad6" stroke-width="1.51"></path><path d="M-29,-4L-112,70L-3,66Z" fill="#ddbaaf" stroke="#ddbaaf" stroke-width="1.51"></path><path d="M345,241L354,188L224,208Z" fill="#1976d2" stroke="#1976d2" stroke-width="1.51"></path><path d="M-56,198L-129,285L-29,243Z" fill="#ad9db7" stroke="#ad9db7" stroke-width="1.51"></path><path d="M-112,70L-142,155L-56,198Z" fill="#b1a3bc" stroke="#b1a3bc" stroke-width="1.51"></path><path d="M122,-86L-4,-99L88,-64Z" fill="#e0bbad" stroke="#e0bbad" stroke-width="1.51"></path><path d="M-29,-4L-132,-6L-112,70Z" fill="#f0c2a3" stroke="#f0c2a3" stroke-width="1.51"></path><path d="M223,242L345,241L224,208Z" fill="#1d79d5" stroke="#1d79d5" stroke-width="1.51"></path><path d="M433,294L345,241L223,242Z" fill="#1976d2" stroke="#1976d2" stroke-width="1.51"></path><path d="M122,-86L225,-108L-4,-99Z" fill="#c9b2ba" stroke="#c9b2ba" stroke-width="1.51"></path><path d="M361,-68L225,-108L272,21Z" fill="#ae9eb8" stroke="#ae9eb8" stroke-width="1.51"></path><path d="M325,57L341,-3L272,21Z" fill="#9496c3" stroke="#9496c3" stroke-width="1.51"></path><path d="M400,28L341,-3L325,57Z" fill="#9295c4" stroke="#9295c4" stroke-width="1.51"></path><path d="M-112,70L-132,-6L-142,155Z" fill="#c4b0bd" stroke="#c4b0bd" stroke-width="1.51"></path><path d="M-91,-88L-132,-6L-29,-4Z" fill="#ffc998" stroke="#ffc998" stroke-width="1.51"></path><path d="M-142,155L-129,285L-56,198Z" fill="#ad9db7" stroke="#ad9db7" stroke-width="1.51"></path><path d="M-29,243L-129,285L70,260Z" fill="#ad9db7" stroke="#ad9db7" stroke-width="1.51"></path><path d="M70,260L433,294L151,245Z" fill="#217dd9" stroke="#217dd9" stroke-width="1.51"></path><path d="M-4,-99L-91,-88L-29,-4Z" fill="#ffc998" stroke="#ffc998" stroke-width="1.51"></path><path d="M341,-3L361,-68L272,21Z" fill="#ad9db7" stroke="#ad9db7" stroke-width="1.51"></path><path d="M419,118L400,28L325,57Z" fill="#5c89d6" stroke="#5c89d6" stroke-width="1.51"></path><path d="M419,118L325,57L354,188Z" fill="#227eda" stroke="#227eda" stroke-width="1.51"></path><path d="M435,191L419,118L354,188Z" fill="#1b77d3" stroke="#1b77d3" stroke-width="1.51"></path><path d="M400,28L361,-68L341,-3Z" fill="#ad9db7" stroke="#ad9db7" stroke-width="1.51"></path><path d="M345,241L435,191L354,188Z" fill="#1976d2" stroke="#1976d2" stroke-width="1.51"></path><path d="M419,118L445,-118L400,28Z" fill="#a49abc" stroke="#a49abc" stroke-width="1.51"></path><path d="M345,241L433,294L435,191Z" fill="#1976d2" stroke="#1976d2" stroke-width="1.51"></path><path d="M-129,285L433,294L70,260Z" fill="#5187d9" stroke="#5187d9" stroke-width="1.51"></path><path d="M400,28L445,-118L361,-68Z" fill="#ad9db7" stroke="#ad9db7" stroke-width="1.51"></path><path d="M361,-68L445,-118L225,-108Z" fill="#ad9db7" stroke="#ad9db7" stroke-width="1.51"></path><path d="M225,-108L445,-118L-4,-99Z" fill="#b2a4be" stroke="#b2a4be" stroke-width="1.51"></path><path d="M435,191L445,-118L419,118Z" fill="#638ad4" stroke="#638ad4" stroke-width="1.51"></path><path d="M433,294L445,-118L435,191Z" fill="#227eda" stroke="#227eda" stroke-width="1.51"></path></svg>