<svg width="300" height="176" xmlns="http://www.w3.org/2000/svg"><path d="M177,98L240,180L270,113Z" fill="#2e8ae6" stroke="#2e8ae6" stroke-width="1.51"></path><path d="M177,98L137,195L240,180Z" fill="#2f8ae6" stroke="#2f8ae6" stroke-width="1.51"></path><path d="M240,180L322,176L270,113Z" fill="#2b86e2" stroke="#2b86e2" stroke-width="1.51"></path><path d="M359,242L322,176L240,180Z" fill="#2783df" stroke="#2783df" stroke-width="1.51"></path><path d="M233,-29L177,-15L177,98Z" fill="#6e96de" stroke="#6e96de" stroke-width="1.51"></path><path d="M322,176L333,73L270,113Z" fill="#2c87e3" stroke="#2c87e3" stroke-width="1.51"></path><path d="M177,98L70,112L137,195Z" fill="#448fe7" stroke="#448fe7" stroke-width="1.51"></path><path d="M177,-15L70,112L177,98Z" fill="#5393e7" stroke="#5393e7" stroke-width="1.51"></path><path d="M233,-29L177,98L270,113Z" fill="#4f90e4" stroke="#4f90e4" stroke-width="1.51"></path><path d="M70,112L67,168L137,195Z" fill="#5a91e1" stroke="#5a91e1" stroke-width="1.51"></path><path d="M333,73L233,-29L270,113Z" fill="#548ee0" stroke="#548ee0" stroke-width="1.51"></path><path d="M146,298L230,297L137,195Z" fill="#2a85e1" stroke="#2a85e1" stroke-width="1.51"></path><path d="M137,195L230,297L240,180Z" fill="#2a86e2" stroke="#2a86e2" stroke-width="1.51"></path><path d="M333,73L354,30L233,-29Z" fill="#6791db" stroke="#6791db" stroke-width="1.51"></path><path d="M407,67L354,30L333,73Z" fill="#4f8ade" stroke="#4f8ade" stroke-width="1.51"></path><path d="M322,176L407,67L333,73Z" fill="#2a86e2" stroke="#2a86e2" stroke-width="1.51"></path><path d="M230,297L359,242L240,180Z" fill="#2781de" stroke="#2781de" stroke-width="1.51"></path><path d="M86,261L146,298L137,195Z" fill="#4388df" stroke="#4388df" stroke-width="1.51"></path><path d="M67,168L86,261L137,195Z" fill="#558ddf" stroke="#558ddf" stroke-width="1.51"></path><path d="M423,192L407,67L322,176Z" fill="#2783df" stroke="#2783df" stroke-width="1.51"></path><path d="M233,-29L247,-78L177,-15Z" fill="#8d9cd2" stroke="#8d9cd2" stroke-width="1.51"></path><path d="M347,-65L247,-78L233,-29Z" fill="#939cce" stroke="#939cce" stroke-width="1.51"></path><path d="M347,-65L233,-29L354,30Z" fill="#8196d2" stroke="#8196d2" stroke-width="1.51"></path><path d="M359,242L423,192L322,176Z" fill="#2580dc" stroke="#2580dc" stroke-width="1.51"></path><path d="M70,112L-6,79L67,168Z" fill="#7297dd" stroke="#7297dd" stroke-width="1.51"></path><path d="M177,-15L66,-31L70,112Z" fill="#809cdb" stroke="#809cdb" stroke-width="1.51"></path><path d="M78,-65L66,-31L177,-15Z" fill="#9ba2d0" stroke="#9ba2d0" stroke-width="1.51"></path><path d="M66,-31L-6,79L70,112Z" fill="#869dd9" stroke="#869dd9" stroke-width="1.51"></path><path d="M67,168L-9,205L86,261Z" fill="#6d91d8" stroke="#6d91d8" stroke-width="1.51"></path><path d="M431,-73L347,-65L354,30Z" fill="#8695cd" stroke="#8695cd" stroke-width="1.51"></path><path d="M247,-78L135,-88L177,-15Z" fill="#97a0d0" stroke="#97a0d0" stroke-width="1.51"></path><path d="M-6,79L-9,205L67,168Z" fill="#7c98d8" stroke="#7c98d8" stroke-width="1.51"></path><path d="M86,261L-12,270L146,298Z" fill="#5f8bd8" stroke="#5f8bd8" stroke-width="1.51"></path><path d="M135,-88L78,-65L177,-15Z" fill="#9ca3d0" stroke="#9ca3d0" stroke-width="1.51"></path><path d="M66,-31L3,-17L-6,79Z" fill="#a1a4ce" stroke="#a1a4ce" stroke-width="1.51"></path><path d="M407,67L442,25L354,30Z" fill="#5a8bd9" stroke="#5a8bd9" stroke-width="1.51"></path><path d="M423,192L442,25L407,67Z" fill="#2884e0" stroke="#2884e0" stroke-width="1.51"></path><path d="M423,192L444,247L442,25Z" fill="#2580dc" stroke="#2580dc" stroke-width="1.51"></path><path d="M359,242L444,247L423,192Z" fill="#227dd9" stroke="#227dd9" stroke-width="1.51"></path><path d="M230,297L444,247L359,242Z" fill="#227eda" stroke="#227eda" stroke-width="1.51"></path><path d="M78,-65L3,-17L66,-31Z" fill="#aca8c9" stroke="#aca8c9" stroke-width="1.51"></path><path d="M-9,205L-12,270L86,261Z" fill="#7691d3" stroke="#7691d3" stroke-width="1.51"></path><path d="M-118,291L-12,270L-9,205Z" fill="#8e97ca" stroke="#8e97ca" stroke-width="1.51"></path><path d="M442,25L431,-73L354,30Z" fill="#7690d1" stroke="#7690d1" stroke-width="1.51"></path><path d="M347,-65L431,-73L247,-78Z" fill="#979ac8" stroke="#979ac8" stroke-width="1.51"></path><path d="M247,-78L431,-73L135,-88Z" fill="#9c9fc9" stroke="#9c9fc9" stroke-width="1.51"></path><path d="M-6,79L-116,100L-9,205Z" fill="#929ed1" stroke="#929ed1" stroke-width="1.51"></path><path d="M3,-17L-98,20L-6,79Z" fill="#aaa7ca" stroke="#aaa7ca" stroke-width="1.51"></path><path d="M78,-65L-29,-80L3,-17Z" fill="#bbadc2" stroke="#bbadc2" stroke-width="1.51"></path><path d="M135,-88L-29,-80L78,-65Z" fill="#b8acc3" stroke="#b8acc3" stroke-width="1.51"></path><path d="M-106,-61L-98,20L3,-17Z" fill="#c4b0bd" stroke="#c4b0bd" stroke-width="1.51"></path><path d="M-98,20L-116,100L-6,79Z" fill="#a6a5cc" stroke="#a6a5cc" stroke-width="1.51"></path><path d="M-106,-61L-141,168L-116,100Z" fill="#b2a9c6" stroke="#b2a9c6" stroke-width="1.51"></path><path d="M-116,100L-141,168L-9,205Z" fill="#9ea0ca" stroke="#9ea0ca" stroke-width="1.51"></path><path d="M-141,168L-118,291L-9,205Z" fill="#9c9cc7" stroke="#9c9cc7" stroke-width="1.51"></path><path d="M-12,270L-118,291L146,298Z" fill="#7b90ce" stroke="#7b90ce" stroke-width="1.51"></path><path d="M-98,20L-106,-61L-116,100Z" fill="#c0afbf" stroke="#c0afbf" stroke-width="1.51"></path><path d="M-29,-80L-106,-61L3,-17Z" fill="#cab2ba" stroke="#cab2ba" stroke-width="1.51"></path></svg>