<svg width="300" height="176" xmlns="http://www.w3.org/2000/svg"><path d="M-105,-95L-13,-96L140,-107Z" fill="#7ccff9" stroke="#7ccff9" stroke-width="1.51"></path><path d="M-105,-95L140,-107L206,-111Z" fill="#73c5f7" stroke="#73c5f7" stroke-width="1.51"></path><path d="M70,287L-64,300L265,292Z" fill="#3a8de2" stroke="#3a8de2" stroke-width="1.51"></path><path d="M406,184L305,236L445,290Z" fill="#227dda" stroke="#227dda" stroke-width="1.51"></path><path d="M428,82L406,184L445,290Z" fill="#237fdb" stroke="#237fdb" stroke-width="1.51"></path><path d="M206,-111L317,-90L451,-90Z" fill="#63b0ed" stroke="#63b0ed" stroke-width="1.51"></path><path d="M317,-90L393,28L451,-90Z" fill="#57a4e8" stroke="#57a4e8" stroke-width="1.51"></path><path d="M393,28L428,82L451,-90Z" fill="#4695e4" stroke="#4695e4" stroke-width="1.51"></path><path d="M428,82L445,290L451,-90Z" fill="#2783df" stroke="#2783df" stroke-width="1.51"></path><path d="M305,236L265,292L445,290Z" fill="#227dd9" stroke="#227dd9" stroke-width="1.51"></path><path d="M317,-90L298,-9L393,28Z" fill="#51a0ea" stroke="#51a0ea" stroke-width="1.51"></path><path d="M322,196L305,236L406,184Z" fill="#2681dd" stroke="#2681dd" stroke-width="1.51"></path><path d="M322,100L406,184L428,82Z" fill="#2984e0" stroke="#2984e0" stroke-width="1.51"></path><path d="M393,28L322,100L428,82Z" fill="#328ae3" stroke="#328ae3" stroke-width="1.51"></path><path d="M322,100L322,196L406,184Z" fill="#2883df" stroke="#2883df" stroke-width="1.51"></path><path d="M298,-9L322,100L393,28Z" fill="#3f92e6" stroke="#3f92e6" stroke-width="1.51"></path><path d="M226,20L242,91L298,-9Z" fill="#4397ea" stroke="#4397ea" stroke-width="1.51"></path><path d="M206,-111L298,-9L317,-90Z" fill="#5eadee" stroke="#5eadee" stroke-width="1.51"></path><path d="M298,-9L242,91L322,100Z" fill="#3990e8" stroke="#3990e8" stroke-width="1.51"></path><path d="M242,91L261,195L322,100Z" fill="#2d88e4" stroke="#2d88e4" stroke-width="1.51"></path><path d="M322,100L261,195L322,196Z" fill="#2a85e1" stroke="#2a85e1" stroke-width="1.51"></path><path d="M261,195L305,236L322,196Z" fill="#2783df" stroke="#2783df" stroke-width="1.51"></path><path d="M183,-10L226,20L298,-9Z" fill="#4d9fed" stroke="#4d9fed" stroke-width="1.51"></path><path d="M206,-111L183,-10L298,-9Z" fill="#59a9ef" stroke="#59a9ef" stroke-width="1.51"></path><path d="M261,195L265,292L305,236Z" fill="#2781dd" stroke="#2781dd" stroke-width="1.51"></path><path d="M242,91L142,149L261,195Z" fill="#2e8ae6" stroke="#2e8ae6" stroke-width="1.51"></path><path d="M174,240L70,287L265,292Z" fill="#2984e0" stroke="#2984e0" stroke-width="1.51"></path><path d="M261,195L174,240L265,292Z" fill="#2883df" stroke="#2883df" stroke-width="1.51"></path><path d="M142,149L174,240L261,195Z" fill="#2c88e4" stroke="#2c88e4" stroke-width="1.51"></path><path d="M226,20L140,95L242,91Z" fill="#3992eb" stroke="#3992eb" stroke-width="1.51"></path><path d="M140,95L142,149L242,91Z" fill="#318de9" stroke="#318de9" stroke-width="1.51"></path><path d="M140,-107L183,-10L206,-111Z" fill="#62b3f2" stroke="#62b3f2" stroke-width="1.51"></path><path d="M183,-10L140,95L226,20Z" fill="#459aed" stroke="#459aed" stroke-width="1.51"></path><path d="M140,-107L67,-68L183,-10Z" fill="#63b4f3" stroke="#63b4f3" stroke-width="1.51"></path><path d="M67,-68L59,-32L183,-10Z" fill="#61b2f3" stroke="#61b2f3" stroke-width="1.51"></path><path d="M59,-32L140,95L183,-10Z" fill="#4fa2f0" stroke="#4fa2f0" stroke-width="1.51"></path><path d="M142,149L81,159L174,240Z" fill="#348de7" stroke="#348de7" stroke-width="1.51"></path><path d="M81,159L70,287L174,240Z" fill="#388ee5" stroke="#388ee5" stroke-width="1.51"></path><path d="M-13,-96L67,-68L140,-107Z" fill="#73c4f7" stroke="#73c4f7" stroke-width="1.51"></path><path d="M59,-32L32,85L140,95Z" fill="#51a3f1" stroke="#51a3f1" stroke-width="1.51"></path><path d="M140,95L81,159L142,149Z" fill="#3992eb" stroke="#3992eb" stroke-width="1.51"></path><path d="M32,85L81,159L140,95Z" fill="#4398ed" stroke="#4398ed" stroke-width="1.51"></path><path d="M-63,175L-64,300L70,287Z" fill="#52a0e8" stroke="#52a0e8" stroke-width="1.51"></path><path d="M-63,175L70,287L81,159Z" fill="#4b9be9" stroke="#4b9be9" stroke-width="1.51"></path><path d="M32,85L-63,175L81,159Z" fill="#50a1ee" stroke="#50a1ee" stroke-width="1.51"></path><path d="M-58,5L32,85L59,-32Z" fill="#63b4f4" stroke="#63b4f4" stroke-width="1.51"></path><path d="M-13,-96L59,-32L67,-68Z" fill="#71c3f6" stroke="#71c3f6" stroke-width="1.51"></path><path d="M-13,-96L-58,5L59,-32Z" fill="#73c4f7" stroke="#73c4f7" stroke-width="1.51"></path><path d="M-89,273L-64,300L-63,175Z" fill="#5ba8ea" stroke="#5ba8ea" stroke-width="1.51"></path><path d="M-58,5L-63,57L32,85Z" fill="#63b4f4" stroke="#63b4f4" stroke-width="1.51"></path><path d="M-63,57L-63,175L32,85Z" fill="#5aabf1" stroke="#5aabf1" stroke-width="1.51"></path><path d="M-63,57L-108,114L-63,175Z" fill="#61b2f2" stroke="#61b2f2" stroke-width="1.51"></path><path d="M-105,-95L-58,5L-13,-96Z" fill="#7ed2f9" stroke="#7ed2f9" stroke-width="1.51"></path><path d="M-143,183L-89,273L-63,175Z" fill="#61afed" stroke="#61afed" stroke-width="1.51"></path><path d="M-96,26L-63,57L-58,5Z" fill="#6ebff6" stroke="#6ebff6" stroke-width="1.51"></path><path d="M-105,-95L-96,26L-58,5Z" fill="#7acdf9" stroke="#7acdf9" stroke-width="1.51"></path><path d="M-96,26L-108,114L-63,57Z" fill="#69baf5" stroke="#69baf5" stroke-width="1.51"></path><path d="M-108,114L-143,183L-63,175Z" fill="#64b3f0" stroke="#64b3f0" stroke-width="1.51"></path><path d="M-105,-95L-143,183L-96,26Z" fill="#72c5f7" stroke="#72c5f7" stroke-width="1.51"></path><path d="M-143,183L-108,114L-96,26Z" fill="#67b8f3" stroke="#67b8f3" stroke-width="1.51"></path></svg>