<svg width="300" height="176" xmlns="http://www.w3.org/2000/svg"><path d="M144,105L77,157L142,175Z" fill="#488fe5" stroke="#488fe5" stroke-width="1.51"></path><path d="M144,105L51,83L77,157Z" fill="#5c93e3" stroke="#5c93e3" stroke-width="1.51"></path><path d="M77,157L91,247L142,175Z" fill="#528ee0" stroke="#528ee0" stroke-width="1.51"></path><path d="M-17,194L91,247L77,157Z" fill="#6c92d9" stroke="#6c92d9" stroke-width="1.51"></path><path d="M91,247L176,259L142,175Z" fill="#3989e2" stroke="#3989e2" stroke-width="1.51"></path><path d="M142,175L242,191L144,105Z" fill="#2f8be7" stroke="#2f8be7" stroke-width="1.51"></path><path d="M176,259L242,191L142,175Z" fill="#2b87e3" stroke="#2b87e3" stroke-width="1.51"></path><path d="M144,105L120,-18L51,83Z" fill="#6c97e1" stroke="#6c97e1" stroke-width="1.51"></path><path d="M242,191L253,102L144,105Z" fill="#2f8be7" stroke="#2f8be7" stroke-width="1.51"></path><path d="M51,83L-17,194L77,157Z" fill="#7496da" stroke="#7496da" stroke-width="1.51"></path><path d="M247,-12L120,-18L144,105Z" fill="#6a96e0" stroke="#6a96e0" stroke-width="1.51"></path><path d="M51,83L-40,87L-17,194Z" fill="#849bd7" stroke="#849bd7" stroke-width="1.51"></path><path d="M-8,29L-40,87L51,83Z" fill="#8f9fd5" stroke="#8f9fd5" stroke-width="1.51"></path><path d="M50,-34L-8,29L51,83Z" fill="#97a1d2" stroke="#97a1d2" stroke-width="1.51"></path><path d="M242,191L296,180L253,102Z" fill="#2c87e3" stroke="#2c87e3" stroke-width="1.51"></path><path d="M176,259L243,255L242,191Z" fill="#2984e0" stroke="#2984e0" stroke-width="1.51"></path><path d="M243,255L296,180L242,191Z" fill="#2984e0" stroke="#2984e0" stroke-width="1.51"></path><path d="M120,-18L50,-34L51,83Z" fill="#909fd5" stroke="#909fd5" stroke-width="1.51"></path><path d="M-17,194L-31,257L91,247Z" fill="#7a92d3" stroke="#7a92d3" stroke-width="1.51"></path><path d="M91,247L-31,257L176,259Z" fill="#5d8cda" stroke="#5d8cda" stroke-width="1.51"></path><path d="M-142,167L-31,257L-17,194Z" fill="#959bca" stroke="#959bca" stroke-width="1.51"></path><path d="M253,102L247,-12L144,105Z" fill="#4b90e6" stroke="#4b90e6" stroke-width="1.51"></path><path d="M120,-18L64,-102L50,-34Z" fill="#aaa7ca" stroke="#aaa7ca" stroke-width="1.51"></path><path d="M330,71L247,-12L253,102Z" fill="#548ee1" stroke="#548ee1" stroke-width="1.51"></path><path d="M296,180L330,71L253,102Z" fill="#2c88e4" stroke="#2c88e4" stroke-width="1.51"></path><path d="M211,-82L182,-83L247,-12Z" fill="#959fd0" stroke="#959fd0" stroke-width="1.51"></path><path d="M247,-12L182,-83L120,-18Z" fill="#8c9dd4" stroke="#8c9dd4" stroke-width="1.51"></path><path d="M309,-27L211,-82L247,-12Z" fill="#8c9ad1" stroke="#8c9ad1" stroke-width="1.51"></path><path d="M329,-124L64,-102L182,-83Z" fill="#a8a5c9" stroke="#a8a5c9" stroke-width="1.51"></path><path d="M182,-83L64,-102L120,-18Z" fill="#a3a5cd" stroke="#a3a5cd" stroke-width="1.51"></path><path d="M-29,-114L-104,-34L-8,29Z" fill="#c6b0bc" stroke="#c6b0bc" stroke-width="1.51"></path><path d="M-104,-34L-135,81L-40,87Z" fill="#b3aac6" stroke="#b3aac6" stroke-width="1.51"></path><path d="M330,71L309,-27L247,-12Z" fill="#7093d9" stroke="#7093d9" stroke-width="1.51"></path><path d="M296,180L453,93L330,71Z" fill="#2a86e2" stroke="#2a86e2" stroke-width="1.51"></path><path d="M243,255L317,298L296,180Z" fill="#2681dd" stroke="#2681dd" stroke-width="1.51"></path><path d="M176,259L317,298L243,255Z" fill="#2681dd" stroke="#2681dd" stroke-width="1.51"></path><path d="M-31,257L317,298L176,259Z" fill="#2a85e1" stroke="#2a85e1" stroke-width="1.51"></path><path d="M-40,87L-142,167L-17,194Z" fill="#989fcd" stroke="#989fcd" stroke-width="1.51"></path><path d="M-104,-34L-40,87L-8,29Z" fill="#aea8c8" stroke="#aea8c8" stroke-width="1.51"></path><path d="M-135,81L-142,167L-40,87Z" fill="#a5a4ca" stroke="#a5a4ca" stroke-width="1.51"></path><path d="M-29,-114L-8,29L50,-34Z" fill="#b9acc3" stroke="#b9acc3" stroke-width="1.51"></path><path d="M64,-102L-29,-114L50,-34Z" fill="#c3afbe" stroke="#c3afbe" stroke-width="1.51"></path><path d="M-142,167L-151,277L-31,257Z" fill="#a19dc3" stroke="#a19dc3" stroke-width="1.51"></path><path d="M-31,257L-151,277L317,298Z" fill="#6b8ed4" stroke="#6b8ed4" stroke-width="1.51"></path><path d="M-134,-112L-151,277L-142,167Z" fill="#b0a8c6" stroke="#b0a8c6" stroke-width="1.51"></path><path d="M330,71L395,-8L309,-27Z" fill="#6e91d7" stroke="#6e91d7" stroke-width="1.51"></path><path d="M309,-27L329,-124L211,-82Z" fill="#9b9ec9" stroke="#9b9ec9" stroke-width="1.51"></path><path d="M453,93L395,-8L330,71Z" fill="#528adc" stroke="#528adc" stroke-width="1.51"></path><path d="M424,-83L329,-124L309,-27Z" fill="#999bc7" stroke="#999bc7" stroke-width="1.51"></path><path d="M211,-82L329,-124L182,-83Z" fill="#a4a2c8" stroke="#a4a2c8" stroke-width="1.51"></path><path d="M64,-102L329,-124L-29,-114Z" fill="#b5abc5" stroke="#b5abc5" stroke-width="1.51"></path><path d="M395,-8L424,-83L309,-27Z" fill="#8895cc" stroke="#8895cc" stroke-width="1.51"></path><path d="M452,209L453,93L296,180Z" fill="#2681dd" stroke="#2681dd" stroke-width="1.51"></path><path d="M451,241L452,209L296,180Z" fill="#237eda" stroke="#237eda" stroke-width="1.51"></path><path d="M317,298L451,241L296,180Z" fill="#237eda" stroke="#237eda" stroke-width="1.51"></path><path d="M-135,81L-134,-112L-142,167Z" fill="#bfaec0" stroke="#bfaec0" stroke-width="1.51"></path><path d="M-104,-34L-134,-112L-135,81Z" fill="#d3b5b5" stroke="#d3b5b5" stroke-width="1.51"></path><path d="M-29,-114L-134,-112L-104,-34Z" fill="#e0baad" stroke="#e0baad" stroke-width="1.51"></path><path d="M329,-124L-134,-112L-29,-114Z" fill="#c7b1bb" stroke="#c7b1bb" stroke-width="1.51"></path><path d="M453,93L424,-83L395,-8Z" fill="#728ed1" stroke="#728ed1" stroke-width="1.51"></path></svg>