<svg width="300" height="176" xmlns="http://www.w3.org/2000/svg"><path d="M-143,-95L-51,-89L92,-111Z" fill="#d7b7b3" stroke="#d7b7b3" stroke-width="1.51"></path><path d="M92,-111L206,-91L329,-113Z" fill="#a9a4c7" stroke="#a9a4c7" stroke-width="1.51"></path><path d="M389,68L355,110L433,208Z" fill="#2883df" stroke="#2883df" stroke-width="1.51"></path><path d="M355,110L360,193L433,208Z" fill="#2681dd" stroke="#2681dd" stroke-width="1.51"></path><path d="M334,238L266,299L442,240Z" fill="#227eda" stroke="#227eda" stroke-width="1.51"></path><path d="M410,-91L323,-30L453,-19Z" fill="#8b96cb" stroke="#8b96cb" stroke-width="1.51"></path><path d="M323,-30L389,68L453,-19Z" fill="#708fd4" stroke="#708fd4" stroke-width="1.51"></path><path d="M389,68L433,208L453,-19Z" fill="#2c85e0" stroke="#2c85e0" stroke-width="1.51"></path><path d="M433,208L442,240L453,-19Z" fill="#2581dd" stroke="#2581dd" stroke-width="1.51"></path><path d="M433,208L360,193L442,240Z" fill="#227dd9" stroke="#227dd9" stroke-width="1.51"></path><path d="M360,193L334,238L442,240Z" fill="#237eda" stroke="#237eda" stroke-width="1.51"></path><path d="M329,-113L323,-30L410,-91Z" fill="#999bc7" stroke="#999bc7" stroke-width="1.51"></path><path d="M323,-30L355,110L389,68Z" fill="#558cdd" stroke="#558cdd" stroke-width="1.51"></path><path d="M229,-10L248,100L323,-30Z" fill="#6b93db" stroke="#6b93db" stroke-width="1.51"></path><path d="M323,-30L248,100L355,110Z" fill="#4d8ce1" stroke="#4d8ce1" stroke-width="1.51"></path><path d="M248,100L242,170L355,110Z" fill="#2c88e4" stroke="#2c88e4" stroke-width="1.51"></path><path d="M355,110L242,170L360,193Z" fill="#2985e1" stroke="#2985e1" stroke-width="1.51"></path><path d="M242,170L334,238L360,193Z" fill="#2783df" stroke="#2783df" stroke-width="1.51"></path><path d="M206,-91L323,-30L329,-113Z" fill="#9b9ec9" stroke="#9b9ec9" stroke-width="1.51"></path><path d="M242,170L266,299L334,238Z" fill="#2682de" stroke="#2682de" stroke-width="1.51"></path><path d="M206,-91L229,-10L323,-30Z" fill="#8d9bd1" stroke="#8d9bd1" stroke-width="1.51"></path><path d="M229,-10L170,0L248,100Z" fill="#6694e0" stroke="#6694e0" stroke-width="1.51"></path><path d="M170,0L172,107L248,100Z" fill="#4890e7" stroke="#4890e7" stroke-width="1.51"></path><path d="M167,257L57,296L266,299Z" fill="#2884e0" stroke="#2884e0" stroke-width="1.51"></path><path d="M242,170L167,257L266,299Z" fill="#2884e0" stroke="#2884e0" stroke-width="1.51"></path><path d="M92,-111L119,-90L206,-91Z" fill="#aaa7c9" stroke="#aaa7c9" stroke-width="1.51"></path><path d="M131,204L167,257L242,170Z" fill="#2c87e4" stroke="#2c87e4" stroke-width="1.51"></path><path d="M172,107L242,170L248,100Z" fill="#2f8be7" stroke="#2f8be7" stroke-width="1.51"></path><path d="M206,-91L170,0L229,-10Z" fill="#8a9cd4" stroke="#8a9cd4" stroke-width="1.51"></path><path d="M172,107L131,204L242,170Z" fill="#2f8ae6" stroke="#2f8ae6" stroke-width="1.51"></path><path d="M119,-90L170,0L206,-91Z" fill="#98a1d1" stroke="#98a1d1" stroke-width="1.51"></path><path d="M119,-90L89,-24L170,0Z" fill="#95a1d3" stroke="#95a1d3" stroke-width="1.51"></path><path d="M62,196L131,204L172,107Z" fill="#488ee4" stroke="#488ee4" stroke-width="1.51"></path><path d="M33,91L62,196L172,107Z" fill="#5d92e2" stroke="#5d92e2" stroke-width="1.51"></path><path d="M170,0L89,-24L172,107Z" fill="#6d97e1" stroke="#6d97e1" stroke-width="1.51"></path><path d="M89,-24L33,91L172,107Z" fill="#6e98e0" stroke="#6e98e0" stroke-width="1.51"></path><path d="M131,204L57,296L167,257Z" fill="#4689df" stroke="#4689df" stroke-width="1.51"></path><path d="M-32,246L-124,234L57,296Z" fill="#8995cb" stroke="#8995cb" stroke-width="1.51"></path><path d="M62,196L57,296L131,204Z" fill="#5c8ddb" stroke="#5c8ddb" stroke-width="1.51"></path><path d="M92,-111L89,-24L119,-90Z" fill="#aca8c8" stroke="#aca8c8" stroke-width="1.51"></path><path d="M-54,-35L33,91L89,-24Z" fill="#a0a4cf" stroke="#a0a4cf" stroke-width="1.51"></path><path d="M-51,-89L-54,-35L89,-24Z" fill="#bfaec0" stroke="#bfaec0" stroke-width="1.51"></path><path d="M-51,-89L89,-24L92,-111Z" fill="#bbadc1" stroke="#bbadc1" stroke-width="1.51"></path><path d="M-24,120L-60,178L62,196Z" fill="#8498d4" stroke="#8498d4" stroke-width="1.51"></path><path d="M-60,178L-32,246L62,196Z" fill="#8396d1" stroke="#8396d1" stroke-width="1.51"></path><path d="M33,91L-24,120L62,196Z" fill="#7998d9" stroke="#7998d9" stroke-width="1.51"></path><path d="M-32,246L57,296L62,196Z" fill="#7391d4" stroke="#7391d4" stroke-width="1.51"></path><path d="M-91,88L-24,120L33,91Z" fill="#8e9ed5" stroke="#8e9ed5" stroke-width="1.51"></path><path d="M-54,-35L-91,88L33,91Z" fill="#a3a5cd" stroke="#a3a5cd" stroke-width="1.51"></path><path d="M-108,-5L-91,88L-54,-35Z" fill="#bcadc1" stroke="#bcadc1" stroke-width="1.51"></path><path d="M-102,151L-60,178L-24,120Z" fill="#979ece" stroke="#979ece" stroke-width="1.51"></path><path d="M-91,88L-102,151L-24,120Z" fill="#9ba1ce" stroke="#9ba1ce" stroke-width="1.51"></path><path d="M-60,178L-124,234L-32,246Z" fill="#979bc9" stroke="#979bc9" stroke-width="1.51"></path><path d="M-143,-95L-108,-5L-54,-35Z" fill="#d5b6b3" stroke="#d5b6b3" stroke-width="1.51"></path><path d="M-143,-95L-54,-35L-51,-89Z" fill="#dab8b1" stroke="#dab8b1" stroke-width="1.51"></path><path d="M-102,151L-124,234L-60,178Z" fill="#9f9fc7" stroke="#9f9fc7" stroke-width="1.51"></path><path d="M-108,-5L-102,151L-91,88Z" fill="#a8a6cb" stroke="#a8a6cb" stroke-width="1.51"></path><path d="M-108,-5L-143,-95L-102,151Z" fill="#c4b0bd" stroke="#c4b0bd" stroke-width="1.51"></path><path d="M-143,-95L-124,234L-102,151Z" fill="#aba7c9" stroke="#aba7c9" stroke-width="1.51"></path></svg>