<svg width="300" height="176" xmlns="http://www.w3.org/2000/svg"><path d="M124,121L49,121L32,170Z" fill="#8797cf" stroke="#8797cf" stroke-width="1.51"></path><path d="M32,170L148,197L124,121Z" fill="#6b8dd4" stroke="#6b8dd4" stroke-width="1.51"></path><path d="M32,170L130,236L148,197Z" fill="#678bd3" stroke="#678bd3" stroke-width="1.51"></path><path d="M32,170L53,277L130,236Z" fill="#8190cb" stroke="#8190cb" stroke-width="1.51"></path><path d="M49,121L-20,165L32,170Z" fill="#a49dc0" stroke="#a49dc0" stroke-width="1.51"></path><path d="M-28,235L53,277L32,170Z" fill="#a29abd" stroke="#a29abd" stroke-width="1.51"></path><path d="M-20,165L-28,235L32,170Z" fill="#ad9db7" stroke="#ad9db7" stroke-width="1.51"></path><path d="M49,121L-9,63L-20,165Z" fill="#b0a6c2" stroke="#b0a6c2" stroke-width="1.51"></path><path d="M-20,165L-102,157L-28,235Z" fill="#ad9db7" stroke="#ad9db7" stroke-width="1.51"></path><path d="M85,-19L-9,63L49,121Z" fill="#beaec0" stroke="#beaec0" stroke-width="1.51"></path><path d="M124,121L148,18L49,121Z" fill="#6e98e0" stroke="#6e98e0" stroke-width="1.51"></path><path d="M209,19L148,18L124,121Z" fill="#7a9adb" stroke="#7a9adb" stroke-width="1.51"></path><path d="M148,197L259,101L124,121Z" fill="#2a86e2" stroke="#2a86e2" stroke-width="1.51"></path><path d="M130,236L224,236L148,197Z" fill="#2681dd" stroke="#2681dd" stroke-width="1.51"></path><path d="M53,277L224,236L130,236Z" fill="#4385db" stroke="#4385db" stroke-width="1.51"></path><path d="M224,236L259,183L148,197Z" fill="#227dd9" stroke="#227dd9" stroke-width="1.51"></path><path d="M148,18L85,-19L49,121Z" fill="#b0a9c7" stroke="#b0a9c7" stroke-width="1.51"></path><path d="M259,183L259,101L148,197Z" fill="#247fdb" stroke="#247fdb" stroke-width="1.51"></path><path d="M259,101L209,19L124,121Z" fill="#478ee5" stroke="#478ee5" stroke-width="1.51"></path><path d="M148,18L133,-96L85,-19Z" fill="#c6b1bc" stroke="#c6b1bc" stroke-width="1.51"></path><path d="M-9,63L-102,157L-20,165Z" fill="#b2a5be" stroke="#b2a5be" stroke-width="1.51"></path><path d="M-9,63L-151,96L-102,157Z" fill="#b5a9c1" stroke="#b5a9c1" stroke-width="1.51"></path><path d="M85,-19L-1,-7L-9,63Z" fill="#ebbfa6" stroke="#ebbfa6" stroke-width="1.51"></path><path d="M-102,157L-111,242L-28,235Z" fill="#ad9db7" stroke="#ad9db7" stroke-width="1.51"></path><path d="M-28,235L-111,242L53,277Z" fill="#ad9db7" stroke="#ad9db7" stroke-width="1.51"></path><path d="M259,183L322,184L259,101Z" fill="#1f7ad6" stroke="#1f7ad6" stroke-width="1.51"></path><path d="M259,101L308,25L209,19Z" fill="#7b92d1" stroke="#7b92d1" stroke-width="1.51"></path><path d="M335,255L322,184L259,183Z" fill="#1976d2" stroke="#1976d2" stroke-width="1.51"></path><path d="M-102,157L-151,96L-111,242Z" fill="#ae9fb9" stroke="#ae9fb9" stroke-width="1.51"></path><path d="M-129,15L-151,96L-9,63Z" fill="#d1b5b6" stroke="#d1b5b6" stroke-width="1.51"></path><path d="M322,184L315,65L259,101Z" fill="#237eda" stroke="#237eda" stroke-width="1.51"></path><path d="M315,65L308,25L259,101Z" fill="#638bd5" stroke="#638bd5" stroke-width="1.51"></path><path d="M209,19L133,-96L148,18Z" fill="#b6aac3" stroke="#b6aac3" stroke-width="1.51"></path><path d="M-1,-7L-129,15L-9,63Z" fill="#edc1a4" stroke="#edc1a4" stroke-width="1.51"></path><path d="M71,-125L-40,-72L-1,-7Z" fill="#fbc79b" stroke="#fbc79b" stroke-width="1.51"></path><path d="M-1,-7L-40,-72L-129,15Z" fill="#ffc998" stroke="#ffc998" stroke-width="1.51"></path><path d="M222,-103L133,-96L209,19Z" fill="#b4a7c0" stroke="#b4a7c0" stroke-width="1.51"></path><path d="M322,184L407,72L315,65Z" fill="#2480dc" stroke="#2480dc" stroke-width="1.51"></path><path d="M224,236L335,255L259,183Z" fill="#1c78d4" stroke="#1c78d4" stroke-width="1.51"></path><path d="M53,277L335,255L224,236Z" fill="#237eda" stroke="#237eda" stroke-width="1.51"></path><path d="M71,-125L-1,-7L85,-19Z" fill="#e8bea8" stroke="#e8bea8" stroke-width="1.51"></path><path d="M133,-96L71,-125L85,-19Z" fill="#d2b6b5" stroke="#d2b6b5" stroke-width="1.51"></path><path d="M331,-70L222,-103L209,19Z" fill="#b0a2bb" stroke="#b0a2bb" stroke-width="1.51"></path><path d="M133,-96L222,-103L71,-125Z" fill="#bbadc2" stroke="#bbadc2" stroke-width="1.51"></path><path d="M335,255L388,238L322,184Z" fill="#1976d2" stroke="#1976d2" stroke-width="1.51"></path><path d="M315,65L407,72L308,25Z" fill="#718dd0" stroke="#718dd0" stroke-width="1.51"></path><path d="M388,238L411,211L322,184Z" fill="#1976d2" stroke="#1976d2" stroke-width="1.51"></path><path d="M308,25L331,-70L209,19Z" fill="#ae9fb9" stroke="#ae9fb9" stroke-width="1.51"></path><path d="M411,211L407,72L322,184Z" fill="#1d79d5" stroke="#1d79d5" stroke-width="1.51"></path><path d="M421,-17L331,-70L308,25Z" fill="#ad9db7" stroke="#ad9db7" stroke-width="1.51"></path><path d="M-40,-72L-153,-85L-129,15Z" fill="#ffc998" stroke="#ffc998" stroke-width="1.51"></path><path d="M-129,15L-153,-85L-151,96Z" fill="#f9c69d" stroke="#f9c69d" stroke-width="1.51"></path><path d="M71,-125L-153,-85L-40,-72Z" fill="#ffc998" stroke="#ffc998" stroke-width="1.51"></path><path d="M407,72L421,-17L308,25Z" fill="#9295c4" stroke="#9295c4" stroke-width="1.51"></path><path d="M451,-87L421,-17L407,72Z" fill="#ad9db7" stroke="#ad9db7" stroke-width="1.51"></path><path d="M421,-17L451,-87L331,-70Z" fill="#ad9db7" stroke="#ad9db7" stroke-width="1.51"></path><path d="M331,-70L451,-87L222,-103Z" fill="#ad9db7" stroke="#ad9db7" stroke-width="1.51"></path><path d="M222,-103L451,-87L71,-125Z" fill="#b0a2bc" stroke="#b0a2bc" stroke-width="1.51"></path><path d="M411,211L451,-87L407,72Z" fill="#608ad5" stroke="#608ad5" stroke-width="1.51"></path></svg>