<svg width="300" height="176" xmlns="http://www.w3.org/2000/svg"><path d="M154,56L133,-2L68,62Z" fill="#7198e0" stroke="#7198e0" stroke-width="1.51"></path><path d="M133,-2L56,6L68,62Z" fill="#869dd9" stroke="#869dd9" stroke-width="1.51"></path><path d="M133,-2L43,-72L56,6Z" fill="#9ea3cf" stroke="#9ea3cf" stroke-width="1.51"></path><path d="M133,-2L137,-93L43,-72Z" fill="#a4a5cd" stroke="#a4a5cd" stroke-width="1.51"></path><path d="M239,-32L137,-93L133,-2Z" fill="#8f9ed4" stroke="#8f9ed4" stroke-width="1.51"></path><path d="M154,56L239,-32L133,-2Z" fill="#7598dd" stroke="#7598dd" stroke-width="1.51"></path><path d="M210,162L227,111L154,56Z" fill="#318ce8" stroke="#318ce8" stroke-width="1.51"></path><path d="M68,62L131,180L154,56Z" fill="#4d92e8" stroke="#4d92e8" stroke-width="1.51"></path><path d="M43,-72L-34,5L56,6Z" fill="#ada8c8" stroke="#ada8c8" stroke-width="1.51"></path><path d="M56,6L-34,5L68,62Z" fill="#98a1d2" stroke="#98a1d2" stroke-width="1.51"></path><path d="M68,62L29,166L131,180Z" fill="#6293e0" stroke="#6293e0" stroke-width="1.51"></path><path d="M227,111L239,-32L154,56Z" fill="#5c92e2" stroke="#5c92e2" stroke-width="1.51"></path><path d="M-30,119L29,166L68,62Z" fill="#7b99db" stroke="#7b99db" stroke-width="1.51"></path><path d="M131,180L210,162L154,56Z" fill="#318de9" stroke="#318de9" stroke-width="1.51"></path><path d="M-34,5L-30,119L68,62Z" fill="#91a0d5" stroke="#91a0d5" stroke-width="1.51"></path><path d="M-30,119L-14,155L29,166Z" fill="#8499d5" stroke="#8499d5" stroke-width="1.51"></path><path d="M239,-32L236,-98L137,-93Z" fill="#9ca1cd" stroke="#9ca1cd" stroke-width="1.51"></path><path d="M236,-98L-14,-115L137,-93Z" fill="#b1a9c6" stroke="#b1a9c6" stroke-width="1.51"></path><path d="M137,-93L-14,-115L43,-72Z" fill="#bfaebf" stroke="#bfaebf" stroke-width="1.51"></path><path d="M43,-72L-14,-115L-34,5Z" fill="#c2afbe" stroke="#c2afbe" stroke-width="1.51"></path><path d="M355,72L239,-32L227,111Z" fill="#568fe1" stroke="#568fe1" stroke-width="1.51"></path><path d="M356,14L299,-63L239,-32Z" fill="#8497d2" stroke="#8497d2" stroke-width="1.51"></path><path d="M239,-32L299,-63L236,-98Z" fill="#969dcd" stroke="#969dcd" stroke-width="1.51"></path><path d="M131,180L128,255L210,162Z" fill="#2d89e5" stroke="#2d89e5" stroke-width="1.51"></path><path d="M48,273L128,255L131,180Z" fill="#518bde" stroke="#518bde" stroke-width="1.51"></path><path d="M48,273L131,180L29,166Z" fill="#638fdb" stroke="#638fdb" stroke-width="1.51"></path><path d="M-109,-34L-111,59L-34,5Z" fill="#beadc0" stroke="#beadc0" stroke-width="1.51"></path><path d="M-34,5L-111,59L-30,119Z" fill="#a3a5cd" stroke="#a3a5cd" stroke-width="1.51"></path><path d="M-30,119L-109,172L-14,155Z" fill="#939dcf" stroke="#939dcf" stroke-width="1.51"></path><path d="M-14,-115L-109,-34L-34,5Z" fill="#cab2ba" stroke="#cab2ba" stroke-width="1.51"></path><path d="M210,162L317,150L227,111Z" fill="#2d89e5" stroke="#2d89e5" stroke-width="1.51"></path><path d="M253,277L317,150L210,162Z" fill="#2a85e1" stroke="#2a85e1" stroke-width="1.51"></path><path d="M-43,250L29,166L-14,155Z" fill="#8397d2" stroke="#8397d2" stroke-width="1.51"></path><path d="M-43,250L48,273L29,166Z" fill="#7b93d3" stroke="#7b93d3" stroke-width="1.51"></path><path d="M317,150L355,72L227,111Z" fill="#2d88e4" stroke="#2d88e4" stroke-width="1.51"></path><path d="M355,72L356,14L239,-32Z" fill="#6b91d9" stroke="#6b91d9" stroke-width="1.51"></path><path d="M-111,59L-109,172L-30,119Z" fill="#9fa2cd" stroke="#9fa2cd" stroke-width="1.51"></path><path d="M-109,172L-43,250L-14,155Z" fill="#939bcc" stroke="#939bcc" stroke-width="1.51"></path><path d="M48,273L253,277L128,255Z" fill="#3186e0" stroke="#3186e0" stroke-width="1.51"></path><path d="M128,255L253,277L210,162Z" fill="#2a85e1" stroke="#2a85e1" stroke-width="1.51"></path><path d="M-14,-115L-149,-63L-109,-34Z" fill="#dbb9b0" stroke="#dbb9b0" stroke-width="1.51"></path><path d="M-109,-34L-149,-63L-111,59Z" fill="#cfb4b6" stroke="#cfb4b6" stroke-width="1.51"></path><path d="M-111,59L-134,268L-109,172Z" fill="#a6a2c6" stroke="#a6a2c6" stroke-width="1.51"></path><path d="M399,196L355,72L317,150Z" fill="#2984e0" stroke="#2984e0" stroke-width="1.51"></path><path d="M399,196L426,73L355,72Z" fill="#2884e0" stroke="#2884e0" stroke-width="1.51"></path><path d="M355,72L432,28L356,14Z" fill="#5d8cda" stroke="#5d8cda" stroke-width="1.51"></path><path d="M356,14L429,-91L299,-63Z" fill="#8c97cc" stroke="#8c97cc" stroke-width="1.51"></path><path d="M253,277L331,273L317,150Z" fill="#2681dd" stroke="#2681dd" stroke-width="1.51"></path><path d="M426,73L432,28L355,72Z" fill="#4d89dc" stroke="#4d89dc" stroke-width="1.51"></path><path d="M331,273L399,196L317,150Z" fill="#2680dd" stroke="#2680dd" stroke-width="1.51"></path><path d="M-109,172L-134,268L-43,250Z" fill="#9e9cc5" stroke="#9e9cc5" stroke-width="1.51"></path><path d="M-43,250L-134,268L48,273Z" fill="#8d96ca" stroke="#8d96ca" stroke-width="1.51"></path><path d="M-149,-63L-134,268L-111,59Z" fill="#aea8c8" stroke="#aea8c8" stroke-width="1.51"></path><path d="M432,28L429,-91L356,14Z" fill="#7c91cf" stroke="#7c91cf" stroke-width="1.51"></path><path d="M299,-63L429,-91L236,-98Z" fill="#9d9dc7" stroke="#9d9dc7" stroke-width="1.51"></path><path d="M236,-98L429,-91L-14,-115Z" fill="#a7a3c8" stroke="#a7a3c8" stroke-width="1.51"></path><path d="M331,273L438,267L399,196Z" fill="#217dd9" stroke="#217dd9" stroke-width="1.51"></path><path d="M399,196L438,267L426,73Z" fill="#247fdb" stroke="#247fdb" stroke-width="1.51"></path><path d="M426,73L438,267L432,28Z" fill="#2782de" stroke="#2782de" stroke-width="1.51"></path></svg>