<svg width="300" height="176" xmlns="http://www.w3.org/2000/svg"><path d="M-61,-111L164,-91L240,-95Z" fill="#4ec1b3" stroke="#4ec1b3" stroke-width="1.51"></path><path d="M155,283L42,294L266,296Z" fill="#108779" stroke="#108779" stroke-width="1.51"></path><path d="M429,-60L432,17L437,71Z" fill="#28988a" stroke="#28988a" stroke-width="1.51"></path><path d="M437,71L317,97L448,172Z" fill="#0f8779" stroke="#0f8779" stroke-width="1.51"></path><path d="M317,97L322,208L448,172Z" fill="#0e8678" stroke="#0e8678" stroke-width="1.51"></path><path d="M429,-60L437,71L448,172Z" fill="#198d7f" stroke="#198d7f" stroke-width="1.51"></path><path d="M308,234L266,296L451,266Z" fill="#088072" stroke="#088072" stroke-width="1.51"></path><path d="M448,172L322,208L451,266Z" fill="#088173" stroke="#088173" stroke-width="1.51"></path><path d="M322,208L308,234L451,266Z" fill="#098274" stroke="#098274" stroke-width="1.51"></path><path d="M429,-60L296,7L432,17Z" fill="#2e9e90" stroke="#2e9e90" stroke-width="1.51"></path><path d="M432,17L317,97L437,71Z" fill="#1a8e80" stroke="#1a8e80" stroke-width="1.51"></path><path d="M-61,-111L44,-83L164,-91Z" fill="#57cbbd" stroke="#57cbbd" stroke-width="1.51"></path><path d="M314,-90L296,7L429,-60Z" fill="#38a89a" stroke="#38a89a" stroke-width="1.51"></path><path d="M296,7L317,97L432,17Z" fill="#229587" stroke="#229587" stroke-width="1.51"></path><path d="M240,-95L222,-18L296,7Z" fill="#37a99b" stroke="#37a99b" stroke-width="1.51"></path><path d="M240,-95L296,7L314,-90Z" fill="#3cad9f" stroke="#3cad9f" stroke-width="1.51"></path><path d="M296,7L228,114L317,97Z" fill="#1a9183" stroke="#1a9183" stroke-width="1.51"></path><path d="M228,114L272,171L317,97Z" fill="#148b7d" stroke="#148b7d" stroke-width="1.51"></path><path d="M317,97L272,171L322,208Z" fill="#11887a" stroke="#11887a" stroke-width="1.51"></path><path d="M272,171L308,234L322,208Z" fill="#0f8577" stroke="#0f8577" stroke-width="1.51"></path><path d="M222,-18L228,114L296,7Z" fill="#269a8c" stroke="#269a8c" stroke-width="1.51"></path><path d="M272,171L266,296L308,234Z" fill="#0d8577" stroke="#0d8577" stroke-width="1.51"></path><path d="M222,-18L170,30L228,114Z" fill="#269a8c" stroke="#269a8c" stroke-width="1.51"></path><path d="M155,283L266,296L272,171Z" fill="#0e8678" stroke="#0e8678" stroke-width="1.51"></path><path d="M228,114L124,190L272,171Z" fill="#158c7e" stroke="#158c7e" stroke-width="1.51"></path><path d="M124,190L155,283L272,171Z" fill="#128a7c" stroke="#128a7c" stroke-width="1.51"></path><path d="M165,98L124,190L228,114Z" fill="#178f81" stroke="#178f81" stroke-width="1.51"></path><path d="M170,30L165,98L228,114Z" fill="#1b9385" stroke="#1b9385" stroke-width="1.51"></path><path d="M164,-91L222,-18L240,-95Z" fill="#40b2a4" stroke="#40b2a4" stroke-width="1.51"></path><path d="M164,-91L170,30L222,-18Z" fill="#37aa9c" stroke="#37aa9c" stroke-width="1.51"></path><path d="M49,106L124,190L165,98Z" fill="#209688" stroke="#209688" stroke-width="1.51"></path><path d="M49,106L165,98L170,30Z" fill="#22988a" stroke="#22988a" stroke-width="1.51"></path><path d="M90,-34L49,106L170,30Z" fill="#32a597" stroke="#32a597" stroke-width="1.51"></path><path d="M164,-91L90,-34L170,30Z" fill="#3aafa0" stroke="#3aafa0" stroke-width="1.51"></path><path d="M49,106L69,181L124,190Z" fill="#25998b" stroke="#25998b" stroke-width="1.51"></path><path d="M44,-83L90,-34L164,-91Z" fill="#4abeb0" stroke="#4abeb0" stroke-width="1.51"></path><path d="M124,190L42,294L155,283Z" fill="#1c9082" stroke="#1c9082" stroke-width="1.51"></path><path d="M69,181L42,294L124,190Z" fill="#239688" stroke="#239688" stroke-width="1.51"></path><path d="M-36,237L42,294L69,181Z" fill="#2c9e90" stroke="#2c9e90" stroke-width="1.51"></path><path d="M-40,-11L49,106L90,-34Z" fill="#41b3a5" stroke="#41b3a5" stroke-width="1.51"></path><path d="M44,-83L-40,-11L90,-34Z" fill="#4ec2b4" stroke="#4ec2b4" stroke-width="1.51"></path><path d="M-40,-11L1,117L49,106Z" fill="#3aad9f" stroke="#3aad9f" stroke-width="1.51"></path><path d="M-4,149L-36,237L69,181Z" fill="#31a395" stroke="#31a395" stroke-width="1.51"></path><path d="M49,106L-4,149L69,181Z" fill="#2da193" stroke="#2da193" stroke-width="1.51"></path><path d="M-36,237L-149,262L42,294Z" fill="#37a799" stroke="#37a799" stroke-width="1.51"></path><path d="M1,117L-4,149L49,106Z" fill="#32a698" stroke="#32a698" stroke-width="1.51"></path><path d="M-61,-111L-40,-11L44,-83Z" fill="#5cd0c2" stroke="#5cd0c2" stroke-width="1.51"></path><path d="M-128,196L-36,237L-4,149Z" fill="#3cad9f" stroke="#3cad9f" stroke-width="1.51"></path><path d="M-95,55L-4,149L1,117Z" fill="#3baea0" stroke="#3baea0" stroke-width="1.51"></path><path d="M-40,-11L-95,55L1,117Z" fill="#45b9ab" stroke="#45b9ab" stroke-width="1.51"></path><path d="M-95,55L-128,196L-4,149Z" fill="#41b3a5" stroke="#41b3a5" stroke-width="1.51"></path><path d="M-125,-1L-95,55L-40,-11Z" fill="#54c8ba" stroke="#54c8ba" stroke-width="1.51"></path><path d="M-61,-111L-115,-104L-40,-11Z" fill="#65dacc" stroke="#65dacc" stroke-width="1.51"></path><path d="M-115,-104L-125,-1L-40,-11Z" fill="#60d5c7" stroke="#60d5c7" stroke-width="1.51"></path><path d="M-128,196L-149,262L-36,237Z" fill="#41b2a4" stroke="#41b2a4" stroke-width="1.51"></path><path d="M-125,-1L-128,196L-95,55Z" fill="#4abeb0" stroke="#4abeb0" stroke-width="1.51"></path><path d="M-149,262L-128,196L-125,-1Z" fill="#49bbad" stroke="#49bbad" stroke-width="1.51"></path></svg>