<svg width="300" height="176" xmlns="http://www.w3.org/2000/svg"><path d="M161,104L57,82L121,148Z" fill="#21978a" stroke="#21978a" stroke-width="1.51"></path><path d="M57,82L46,167L121,148Z" fill="#279d90" stroke="#279d90" stroke-width="1.51"></path><path d="M161,104L91,-27L57,82Z" fill="#2da296" stroke="#2da296" stroke-width="1.51"></path><path d="M161,104L118,-36L91,-27Z" fill="#33a99d" stroke="#33a99d" stroke-width="1.51"></path><path d="M57,82L-26,167L46,167Z" fill="#2fa499" stroke="#2fa499" stroke-width="1.51"></path><path d="M91,-27L-1,8L57,82Z" fill="#3db3a9" stroke="#3db3a9" stroke-width="1.51"></path><path d="M121,148L269,171L161,104Z" fill="#178e80" stroke="#178e80" stroke-width="1.51"></path><path d="M63,244L125,244L121,148Z" fill="#1e9386" stroke="#1e9386" stroke-width="1.51"></path><path d="M46,167L63,244L121,148Z" fill="#25998d" stroke="#25998d" stroke-width="1.51"></path><path d="M-59,115L-26,167L57,82Z" fill="#36aba0" stroke="#36aba0" stroke-width="1.51"></path><path d="M161,104L212,-26L118,-36Z" fill="#2ea398" stroke="#2ea398" stroke-width="1.51"></path><path d="M269,171L260,88L161,104Z" fill="#168d7f" stroke="#168d7f" stroke-width="1.51"></path><path d="M-26,167L63,244L46,167Z" fill="#2da195" stroke="#2da195" stroke-width="1.51"></path><path d="M260,88L212,-26L161,104Z" fill="#22988b" stroke="#22988b" stroke-width="1.51"></path><path d="M-1,8L-59,115L57,82Z" fill="#3bb0a6" stroke="#3bb0a6" stroke-width="1.51"></path><path d="M91,-27L-26,-86L-1,8Z" fill="#4ec5bd" stroke="#4ec5bd" stroke-width="1.51"></path><path d="M118,-36L92,-100L91,-27Z" fill="#45bcb4" stroke="#45bcb4" stroke-width="1.51"></path><path d="M212,-26L136,-73L118,-36Z" fill="#3bb2a7" stroke="#3bb2a7" stroke-width="1.51"></path><path d="M125,244L269,171L121,148Z" fill="#158c7e" stroke="#158c7e" stroke-width="1.51"></path><path d="M136,-73L92,-100L118,-36Z" fill="#47beb5" stroke="#47beb5" stroke-width="1.51"></path><path d="M269,171L314,106L260,88Z" fill="#148b7d" stroke="#148b7d" stroke-width="1.51"></path><path d="M260,88L334,20L212,-26Z" fill="#279c8f" stroke="#279c8f" stroke-width="1.51"></path><path d="M-59,115L-92,147L-26,167Z" fill="#3db3a9" stroke="#3db3a9" stroke-width="1.51"></path><path d="M-26,167L-38,275L63,244Z" fill="#30a398" stroke="#30a398" stroke-width="1.51"></path><path d="M-113,83L-92,147L-59,115Z" fill="#43b9b0" stroke="#43b9b0" stroke-width="1.51"></path><path d="M-1,8L-113,83L-59,115Z" fill="#43bab1" stroke="#43bab1" stroke-width="1.51"></path><path d="M-104,-11L-113,83L-1,8Z" fill="#4ec6bf" stroke="#4ec6bf" stroke-width="1.51"></path><path d="M92,-100L-26,-86L91,-27Z" fill="#50c8c1" stroke="#50c8c1" stroke-width="1.51"></path><path d="M-117,268L-38,275L-26,167Z" fill="#3aada3" stroke="#3aada3" stroke-width="1.51"></path><path d="M63,244L-38,275L125,244Z" fill="#279a8e" stroke="#279a8e" stroke-width="1.51"></path><path d="M269,171L328,178L314,106Z" fill="#12897b" stroke="#12897b" stroke-width="1.51"></path><path d="M315,235L328,178L269,171Z" fill="#0f8678" stroke="#0f8678" stroke-width="1.51"></path><path d="M-26,-86L-104,-11L-1,8Z" fill="#57cfc8" stroke="#57cfc8" stroke-width="1.51"></path><path d="M212,-26L231,-124L136,-73Z" fill="#41b7ad" stroke="#41b7ad" stroke-width="1.51"></path><path d="M136,-73L231,-124L92,-100Z" fill="#47bfb6" stroke="#47bfb6" stroke-width="1.51"></path><path d="M314,106L334,20L260,88Z" fill="#1a9083" stroke="#1a9083" stroke-width="1.51"></path><path d="M430,76L334,20L314,106Z" fill="#198f82" stroke="#198f82" stroke-width="1.51"></path><path d="M260,296L269,171L125,244Z" fill="#108779" stroke="#108779" stroke-width="1.51"></path><path d="M260,296L315,235L269,171Z" fill="#0d8577" stroke="#0d8577" stroke-width="1.51"></path><path d="M-38,275L260,296L125,244Z" fill="#198e81" stroke="#198e81" stroke-width="1.51"></path><path d="M322,-99L231,-124L212,-26Z" fill="#41b6ad" stroke="#41b6ad" stroke-width="1.51"></path><path d="M92,-100L-138,-86L-26,-86Z" fill="#61dad6" stroke="#61dad6" stroke-width="1.51"></path><path d="M-113,83L-117,268L-92,147Z" fill="#44b9b0" stroke="#44b9b0" stroke-width="1.51"></path><path d="M-92,147L-117,268L-26,167Z" fill="#3eb3a9" stroke="#3eb3a9" stroke-width="1.51"></path><path d="M334,20L322,-99L212,-26Z" fill="#36a99f" stroke="#36a99f" stroke-width="1.51"></path><path d="M-113,83L-138,-86L-117,268Z" fill="#49c1b8" stroke="#49c1b8" stroke-width="1.51"></path><path d="M-104,-11L-138,-86L-113,83Z" fill="#5cd6d0" stroke="#5cd6d0" stroke-width="1.51"></path><path d="M-26,-86L-138,-86L-104,-11Z" fill="#64deda" stroke="#64deda" stroke-width="1.51"></path><path d="M231,-124L-138,-86L92,-100Z" fill="#56cfc8" stroke="#56cfc8" stroke-width="1.51"></path><path d="M432,202L430,76L328,178Z" fill="#0e8577" stroke="#0e8577" stroke-width="1.51"></path><path d="M328,178L430,76L314,106Z" fill="#11887a" stroke="#11887a" stroke-width="1.51"></path><path d="M334,20L395,-108L322,-99Z" fill="#3aada3" stroke="#3aada3" stroke-width="1.51"></path><path d="M315,235L432,202L328,178Z" fill="#0c8375" stroke="#0c8375" stroke-width="1.51"></path><path d="M417,291L432,202L315,235Z" fill="#088072" stroke="#088072" stroke-width="1.51"></path><path d="M441,-31L395,-108L334,20Z" fill="#34a69b" stroke="#34a69b" stroke-width="1.51"></path><path d="M322,-99L395,-108L231,-124Z" fill="#45bab2" stroke="#45bab2" stroke-width="1.51"></path><path d="M430,76L441,-31L334,20Z" fill="#25988b" stroke="#25988b" stroke-width="1.51"></path><path d="M432,202L441,-31L430,76Z" fill="#12887a" stroke="#12887a" stroke-width="1.51"></path><path d="M260,296L417,291L315,235Z" fill="#088072" stroke="#088072" stroke-width="1.51"></path></svg>