<svg width="300" height="176" xmlns="http://www.w3.org/2000/svg"><path d="M150,84L210,67L138,29Z" fill="#21998b" stroke="#21998b" stroke-width="1.51"></path><path d="M210,67L218,10L138,29Z" fill="#279d91" stroke="#279d91" stroke-width="1.51"></path><path d="M138,29L66,82L150,84Z" fill="#279d91" stroke="#279d91" stroke-width="1.51"></path><path d="M66,82L174,165L150,84Z" fill="#1d9587" stroke="#1d9587" stroke-width="1.51"></path><path d="M150,84L174,165L210,67Z" fill="#189183" stroke="#189183" stroke-width="1.51"></path><path d="M138,29L54,-18L66,82Z" fill="#35aaa0" stroke="#35aaa0" stroke-width="1.51"></path><path d="M154,-121L54,-18L138,29Z" fill="#3fb6ac" stroke="#3fb6ac" stroke-width="1.51"></path><path d="M218,10L154,-121L138,29Z" fill="#37ada2" stroke="#37ada2" stroke-width="1.51"></path><path d="M210,67L307,14L218,10Z" fill="#279c90" stroke="#279c90" stroke-width="1.51"></path><path d="M353,114L307,14L210,67Z" fill="#1c9285" stroke="#1c9285" stroke-width="1.51"></path><path d="M174,165L208,185L210,67Z" fill="#168e80" stroke="#168e80" stroke-width="1.51"></path><path d="M254,-109L154,-121L218,10Z" fill="#40b6ac" stroke="#40b6ac" stroke-width="1.51"></path><path d="M315,-88L254,-109L218,10Z" fill="#3db1a7" stroke="#3db1a7" stroke-width="1.51"></path><path d="M344,158L353,114L210,67Z" fill="#148b7d" stroke="#148b7d" stroke-width="1.51"></path><path d="M307,14L315,-88L218,10Z" fill="#32a69b" stroke="#32a69b" stroke-width="1.51"></path><path d="M54,-18L-10,-12L66,82Z" fill="#40b6ac" stroke="#40b6ac" stroke-width="1.51"></path><path d="M31,-121L-10,-12L54,-18Z" fill="#51c8c1" stroke="#51c8c1" stroke-width="1.51"></path><path d="M419,-84L315,-88L307,14Z" fill="#38aba1" stroke="#38aba1" stroke-width="1.51"></path><path d="M66,82L30,189L174,165Z" fill="#24998c" stroke="#24998c" stroke-width="1.51"></path><path d="M174,165L132,266L208,185Z" fill="#148b7d" stroke="#148b7d" stroke-width="1.51"></path><path d="M-4,174L30,189L66,82Z" fill="#2ea398" stroke="#2ea398" stroke-width="1.51"></path><path d="M208,185L344,158L210,67Z" fill="#148b7d" stroke="#148b7d" stroke-width="1.51"></path><path d="M-50,55L-4,174L66,82Z" fill="#35aa9f" stroke="#35aa9f" stroke-width="1.51"></path><path d="M208,185L329,247L344,158Z" fill="#0f8678" stroke="#0f8678" stroke-width="1.51"></path><path d="M82,258L132,266L174,165Z" fill="#188e81" stroke="#188e81" stroke-width="1.51"></path><path d="M82,258L174,165L30,189Z" fill="#209588" stroke="#209588" stroke-width="1.51"></path><path d="M154,-121L31,-121L54,-18Z" fill="#50c8c0" stroke="#50c8c0" stroke-width="1.51"></path><path d="M-103,61L-50,55L-108,-6Z" fill="#4fc7bf" stroke="#4fc7bf" stroke-width="1.51"></path><path d="M-10,-12L-50,55L66,82Z" fill="#40b6ad" stroke="#40b6ad" stroke-width="1.51"></path><path d="M-7,288L82,258L30,189Z" fill="#2a9d91" stroke="#2a9d91" stroke-width="1.51"></path><path d="M132,266L212,274L208,185Z" fill="#11887a" stroke="#11887a" stroke-width="1.51"></path><path d="M344,158L387,172L353,114Z" fill="#0f8678" stroke="#0f8678" stroke-width="1.51"></path><path d="M353,114L447,23L307,14Z" fill="#1e9285" stroke="#1e9285" stroke-width="1.51"></path><path d="M329,247L387,172L344,158Z" fill="#0d8476" stroke="#0d8476" stroke-width="1.51"></path><path d="M212,274L329,247L208,185Z" fill="#0f8678" stroke="#0f8678" stroke-width="1.51"></path><path d="M446,115L447,23L353,114Z" fill="#11897b" stroke="#11897b" stroke-width="1.51"></path><path d="M-108,-6L-50,55L-10,-12Z" fill="#4fc7bf" stroke="#4fc7bf" stroke-width="1.51"></path><path d="M-50,55L-98,173L-4,174Z" fill="#3cb2a8" stroke="#3cb2a8" stroke-width="1.51"></path><path d="M447,23L419,-84L307,14Z" fill="#2ea095" stroke="#2ea095" stroke-width="1.51"></path><path d="M315,-88L419,-84L254,-109Z" fill="#42b5ac" stroke="#42b5ac" stroke-width="1.51"></path><path d="M387,172L446,115L353,114Z" fill="#0f8678" stroke="#0f8678" stroke-width="1.51"></path><path d="M436,247L446,115L387,172Z" fill="#0b8274" stroke="#0b8274" stroke-width="1.51"></path><path d="M31,-121L-58,-111L-10,-12Z" fill="#5dd6d1" stroke="#5dd6d1" stroke-width="1.51"></path><path d="M-113,-80L-108,-6L-10,-12Z" fill="#5cd6d0" stroke="#5cd6d0" stroke-width="1.51"></path><path d="M-103,61L-98,173L-50,55Z" fill="#43b9b0" stroke="#43b9b0" stroke-width="1.51"></path><path d="M-4,174L-7,288L30,189Z" fill="#2fa398" stroke="#2fa398" stroke-width="1.51"></path><path d="M-124,261L-98,173L-103,61Z" fill="#44b9b0" stroke="#44b9b0" stroke-width="1.51"></path><path d="M-98,173L-7,288L-4,174Z" fill="#37aba0" stroke="#37aba0" stroke-width="1.51"></path><path d="M82,258L-7,288L132,266Z" fill="#239689" stroke="#239689" stroke-width="1.51"></path><path d="M132,266L-7,288L212,274Z" fill="#198e81" stroke="#198e81" stroke-width="1.51"></path><path d="M-108,-6L-124,261L-103,61Z" fill="#47beb5" stroke="#47beb5" stroke-width="1.51"></path><path d="M-58,-111L-113,-80L-10,-12Z" fill="#61dbd6" stroke="#61dbd6" stroke-width="1.51"></path><path d="M329,247L436,247L387,172Z" fill="#0a8173" stroke="#0a8173" stroke-width="1.51"></path><path d="M212,274L436,247L329,247Z" fill="#0a8273" stroke="#0a8273" stroke-width="1.51"></path><path d="M-98,173L-124,261L-7,288Z" fill="#3cafa5" stroke="#3cafa5" stroke-width="1.51"></path><path d="M-113,-80L-124,261L-108,-6Z" fill="#4ec6bf" stroke="#4ec6bf" stroke-width="1.51"></path></svg>