<svg width="300" height="176" xmlns="http://www.w3.org/2000/svg"><path d="M175,113L84,57L123,152Z" fill="#21988a" stroke="#21988a" stroke-width="1.51"></path><path d="M175,113L133,17L84,57Z" fill="#33a89d" stroke="#33a89d" stroke-width="1.51"></path><path d="M133,17L77,-2L84,57Z" fill="#53ccc5" stroke="#53ccc5" stroke-width="1.51"></path><path d="M175,113L225,54L133,17Z" fill="#2ba094" stroke="#2ba094" stroke-width="1.51"></path><path d="M84,57L28,173L123,152Z" fill="#32a59a" stroke="#32a59a" stroke-width="1.51"></path><path d="M-11,119L28,173L84,57Z" fill="#42b8ae" stroke="#42b8ae" stroke-width="1.51"></path><path d="M-48,-7L-11,119L84,57Z" fill="#5ed9d3" stroke="#5ed9d3" stroke-width="1.51"></path><path d="M175,113L256,182L225,54Z" fill="#11897b" stroke="#11897b" stroke-width="1.51"></path><path d="M123,152L256,182L175,113Z" fill="#0f8779" stroke="#0f8779" stroke-width="1.51"></path><path d="M158,266L256,182L123,152Z" fill="#0c8375" stroke="#0c8375" stroke-width="1.51"></path><path d="M225,54L243,-18L133,17Z" fill="#43b8af" stroke="#43b8af" stroke-width="1.51"></path><path d="M133,17L133,-97L77,-2Z" fill="#5bd5cf" stroke="#5bd5cf" stroke-width="1.51"></path><path d="M354,27L243,-18L225,54Z" fill="#3dafa6" stroke="#3dafa6" stroke-width="1.51"></path><path d="M28,173L68,258L123,152Z" fill="#2fa095" stroke="#2fa095" stroke-width="1.51"></path><path d="M-36,269L68,258L28,173Z" fill="#41b3aa" stroke="#41b3aa" stroke-width="1.51"></path><path d="M68,258L158,266L123,152Z" fill="#1f9185" stroke="#1f9185" stroke-width="1.51"></path><path d="M-121,151L-60,167L-11,119Z" fill="#4abfb7" stroke="#4abfb7" stroke-width="1.51"></path><path d="M243,-18L133,-97L133,17Z" fill="#4fc6bf" stroke="#4fc6bf" stroke-width="1.51"></path><path d="M-11,119L-60,167L28,173Z" fill="#49beb6" stroke="#49beb6" stroke-width="1.51"></path><path d="M-48,-7L84,57L77,-2Z" fill="#6be7e3" stroke="#6be7e3" stroke-width="1.51"></path><path d="M256,182L346,68L225,54Z" fill="#0e8678" stroke="#0e8678" stroke-width="1.51"></path><path d="M158,266L262,239L256,182Z" fill="#077f71" stroke="#077f71" stroke-width="1.51"></path><path d="M-62,-63L-48,-7L77,-2Z" fill="#7fffff" stroke="#7fffff" stroke-width="1.51"></path><path d="M356,205L346,68L256,182Z" fill="#047c6e" stroke="#047c6e" stroke-width="1.51"></path><path d="M-48,-7L-89,12L-11,119Z" fill="#69e5e1" stroke="#69e5e1" stroke-width="1.51"></path><path d="M-103,-60L-89,12L-48,-7Z" fill="#7fffff" stroke="#7fffff" stroke-width="1.51"></path><path d="M133,-97L64,-124L77,-2Z" fill="#62ddd8" stroke="#62ddd8" stroke-width="1.51"></path><path d="M353,-63L260,-86L243,-18Z" fill="#48bbb3" stroke="#48bbb3" stroke-width="1.51"></path><path d="M243,-18L260,-86L133,-97Z" fill="#4cc2ba" stroke="#4cc2ba" stroke-width="1.51"></path><path d="M133,-97L260,-86L64,-124Z" fill="#50c8c0" stroke="#50c8c0" stroke-width="1.51"></path><path d="M-60,167L-36,269L28,173Z" fill="#47bab2" stroke="#47bab2" stroke-width="1.51"></path><path d="M68,258L-36,269L158,266Z" fill="#32a399" stroke="#32a399" stroke-width="1.51"></path><path d="M262,239L300,258L256,182Z" fill="#027b6d" stroke="#027b6d" stroke-width="1.51"></path><path d="M158,266L300,258L262,239Z" fill="#057e70" stroke="#057e70" stroke-width="1.51"></path><path d="M346,68L354,27L225,54Z" fill="#2b9c91" stroke="#2b9c91" stroke-width="1.51"></path><path d="M64,-124L-62,-63L77,-2Z" fill="#76f5f4" stroke="#76f5f4" stroke-width="1.51"></path><path d="M-60,167L-123,248L-36,269Z" fill="#47bab2" stroke="#47bab2" stroke-width="1.51"></path><path d="M-143,76L-121,151L-11,119Z" fill="#4dc3bc" stroke="#4dc3bc" stroke-width="1.51"></path><path d="M300,258L356,205L256,182Z" fill="#00796b" stroke="#00796b" stroke-width="1.51"></path><path d="M346,68L402,99L354,27Z" fill="#219487" stroke="#219487" stroke-width="1.51"></path><path d="M-89,12L-143,76L-11,119Z" fill="#5ad3cd" stroke="#5ad3cd" stroke-width="1.51"></path><path d="M-103,-60L-143,76L-89,12Z" fill="#7af9f8" stroke="#7af9f8" stroke-width="1.51"></path><path d="M-62,-63L-103,-60L-48,-7Z" fill="#7fffff" stroke="#7fffff" stroke-width="1.51"></path><path d="M64,-124L-103,-60L-62,-63Z" fill="#7fffff" stroke="#7fffff" stroke-width="1.51"></path><path d="M356,205L402,99L346,68Z" fill="#088072" stroke="#088072" stroke-width="1.51"></path><path d="M432,-24L353,-63L354,27Z" fill="#47bab2" stroke="#47bab2" stroke-width="1.51"></path><path d="M354,27L353,-63L243,-18Z" fill="#47bab2" stroke="#47bab2" stroke-width="1.51"></path><path d="M-121,151L-123,248L-60,167Z" fill="#47bab2" stroke="#47bab2" stroke-width="1.51"></path><path d="M-143,76L-123,248L-121,151Z" fill="#49bdb5" stroke="#49bdb5" stroke-width="1.51"></path><path d="M448,245L413,181L356,205Z" fill="#00796b" stroke="#00796b" stroke-width="1.51"></path><path d="M356,205L413,181L402,99Z" fill="#027b6d" stroke="#027b6d" stroke-width="1.51"></path><path d="M448,245L432,-24L402,99Z" fill="#0b8375" stroke="#0b8375" stroke-width="1.51"></path><path d="M402,99L432,-24L354,27Z" fill="#35a59b" stroke="#35a59b" stroke-width="1.51"></path><path d="M432,-24L389,-106L353,-63Z" fill="#47bab2" stroke="#47bab2" stroke-width="1.51"></path><path d="M353,-63L389,-106L260,-86Z" fill="#47bab2" stroke="#47bab2" stroke-width="1.51"></path><path d="M260,-86L389,-106L64,-124Z" fill="#4bc0b8" stroke="#4bc0b8" stroke-width="1.51"></path><path d="M413,181L448,245L402,99Z" fill="#00796b" stroke="#00796b" stroke-width="1.51"></path><path d="M300,258L448,245L356,205Z" fill="#00796b" stroke="#00796b" stroke-width="1.51"></path></svg>