<svg width="300" height="176" xmlns="http://www.w3.org/2000/svg"><path d="M-100,-115L127,-94L214,-112Z" fill="#54ccc6" stroke="#54ccc6" stroke-width="1.51"></path><path d="M183,277L-51,267L217,290Z" fill="#188d80" stroke="#188d80" stroke-width="1.51"></path><path d="M-100,-115L214,-112L433,-112Z" fill="#4ac0b8" stroke="#4ac0b8" stroke-width="1.51"></path><path d="M214,-112L320,-67L433,-112Z" fill="#42b7ae" stroke="#42b7ae" stroke-width="1.51"></path><path d="M343,-1L423,15L433,-112Z" fill="#32a499" stroke="#32a499" stroke-width="1.51"></path><path d="M320,-67L343,-1L433,-112Z" fill="#39aca2" stroke="#39aca2" stroke-width="1.51"></path><path d="M349,234L217,290L440,261Z" fill="#098173" stroke="#098173" stroke-width="1.51"></path><path d="M423,15L331,96L452,55Z" fill="#1c9083" stroke="#1c9083" stroke-width="1.51"></path><path d="M331,96L400,185L452,55Z" fill="#108779" stroke="#108779" stroke-width="1.51"></path><path d="M400,185L440,261L452,55Z" fill="#0b8375" stroke="#0b8375" stroke-width="1.51"></path><path d="M433,-112L423,15L452,55Z" fill="#2c9e93" stroke="#2c9e93" stroke-width="1.51"></path><path d="M400,185L349,234L440,261Z" fill="#088173" stroke="#088173" stroke-width="1.51"></path><path d="M331,96L336,172L400,185Z" fill="#0f8779" stroke="#0f8779" stroke-width="1.51"></path><path d="M343,-1L331,96L423,15Z" fill="#229689" stroke="#229689" stroke-width="1.51"></path><path d="M336,172L349,234L400,185Z" fill="#0c8375" stroke="#0c8375" stroke-width="1.51"></path><path d="M37,250L-51,267L183,277Z" fill="#25988b" stroke="#25988b" stroke-width="1.51"></path><path d="M247,-18L331,96L343,-1Z" fill="#279b8e" stroke="#279b8e" stroke-width="1.51"></path><path d="M336,172L210,164L349,234Z" fill="#0f8779" stroke="#0f8779" stroke-width="1.51"></path><path d="M210,164L217,290L349,234Z" fill="#0f8678" stroke="#0f8678" stroke-width="1.51"></path><path d="M247,-18L221,101L331,96Z" fill="#1f9487" stroke="#1f9487" stroke-width="1.51"></path><path d="M331,96L221,101L336,172Z" fill="#138b7d" stroke="#138b7d" stroke-width="1.51"></path><path d="M320,-67L247,-18L343,-1Z" fill="#34a79c" stroke="#34a79c" stroke-width="1.51"></path><path d="M221,101L210,164L336,172Z" fill="#138b7d" stroke="#138b7d" stroke-width="1.51"></path><path d="M214,-112L247,-18L320,-67Z" fill="#3db2a8" stroke="#3db2a8" stroke-width="1.51"></path><path d="M-100,-115L-15,-82L127,-94Z" fill="#5dd7d2" stroke="#5dd7d2" stroke-width="1.51"></path><path d="M210,164L183,277L217,290Z" fill="#10887a" stroke="#10887a" stroke-width="1.51"></path><path d="M214,-112L127,-94L247,-18Z" fill="#41b7ad" stroke="#41b7ad" stroke-width="1.51"></path><path d="M127,-94L153,24L247,-18Z" fill="#37ada2" stroke="#37ada2" stroke-width="1.51"></path><path d="M153,24L221,101L247,-18Z" fill="#279c90" stroke="#279c90" stroke-width="1.51"></path><path d="M160,161L183,277L210,164Z" fill="#138b7d" stroke="#138b7d" stroke-width="1.51"></path><path d="M160,161L210,164L221,101Z" fill="#168e80" stroke="#168e80" stroke-width="1.51"></path><path d="M153,88L160,161L221,101Z" fill="#189082" stroke="#189082" stroke-width="1.51"></path><path d="M153,24L153,88L221,101Z" fill="#1e9688" stroke="#1e9688" stroke-width="1.51"></path><path d="M-15,-82L85,-75L127,-94Z" fill="#51c9c2" stroke="#51c9c2" stroke-width="1.51"></path><path d="M127,-94L85,-75L153,24Z" fill="#41b7ad" stroke="#41b7ad" stroke-width="1.51"></path><path d="M160,161L56,197L183,277Z" fill="#188f81" stroke="#188f81" stroke-width="1.51"></path><path d="M56,197L37,250L183,277Z" fill="#1f9386" stroke="#1f9386" stroke-width="1.51"></path><path d="M85,-75L65,2L153,24Z" fill="#3db3a9" stroke="#3db3a9" stroke-width="1.51"></path><path d="M65,2L74,114L153,24Z" fill="#2fa599" stroke="#2fa599" stroke-width="1.51"></path><path d="M153,24L74,114L153,88Z" fill="#239a8c" stroke="#239a8c" stroke-width="1.51"></path><path d="M153,88L74,114L160,161Z" fill="#1d9487" stroke="#1d9487" stroke-width="1.51"></path><path d="M74,114L56,197L160,161Z" fill="#22988b" stroke="#22988b" stroke-width="1.51"></path><path d="M65,2L-49,87L74,114Z" fill="#36aba0" stroke="#36aba0" stroke-width="1.51"></path><path d="M-15,-82L65,2L85,-75Z" fill="#4dc5bd" stroke="#4dc5bd" stroke-width="1.51"></path><path d="M-15,-82L-39,-17L65,2Z" fill="#50c7c0" stroke="#50c7c0" stroke-width="1.51"></path><path d="M-39,-17L-49,87L65,2Z" fill="#45bcb3" stroke="#45bcb3" stroke-width="1.51"></path><path d="M-57,148L56,197L74,114Z" fill="#2fa498" stroke="#2fa498" stroke-width="1.51"></path><path d="M-49,87L-57,148L74,114Z" fill="#37aca1" stroke="#37aca1" stroke-width="1.51"></path><path d="M-57,148L37,250L56,197Z" fill="#30a398" stroke="#30a398" stroke-width="1.51"></path><path d="M-57,148L-51,267L37,250Z" fill="#35a79d" stroke="#35a79d" stroke-width="1.51"></path><path d="M-57,148L-116,235L-51,267Z" fill="#3db0a7" stroke="#3db0a7" stroke-width="1.51"></path><path d="M-113,0L-49,87L-39,-17Z" fill="#4fc6bf" stroke="#4fc6bf" stroke-width="1.51"></path><path d="M-100,-115L-39,-17L-15,-82Z" fill="#60dad5" stroke="#60dad5" stroke-width="1.51"></path><path d="M-96,146L-116,235L-57,148Z" fill="#41b5ad" stroke="#41b5ad" stroke-width="1.51"></path><path d="M-96,146L-57,148L-49,87Z" fill="#3fb4ab" stroke="#3fb4ab" stroke-width="1.51"></path><path d="M-113,0L-145,66L-49,87Z" fill="#4ec6be" stroke="#4ec6be" stroke-width="1.51"></path><path d="M-100,-115L-113,0L-39,-17Z" fill="#60d9d4" stroke="#60d9d4" stroke-width="1.51"></path><path d="M-145,66L-96,146L-49,87Z" fill="#45bcb2" stroke="#45bcb2" stroke-width="1.51"></path><path d="M-145,66L-116,235L-96,146Z" fill="#46bcb3" stroke="#46bcb3" stroke-width="1.51"></path><path d="M-145,66L-113,0L-100,-115Z" fill="#5fd9d4" stroke="#5fd9d4" stroke-width="1.51"></path></svg>