<svg width="300" height="176" xmlns="http://www.w3.org/2000/svg"><path d="M-49,282L-132,282L223,300Z" fill="#2d9c8e" stroke="#2d9c8e" stroke-width="1.51"></path><path d="M142,275L-49,282L223,300Z" fill="#1b8e80" stroke="#1b8e80" stroke-width="1.51"></path><path d="M265,-96L332,-66L409,-62Z" fill="#3eafa0" stroke="#3eafa0" stroke-width="1.51"></path><path d="M359,185L404,287L427,171Z" fill="#0a8173" stroke="#0a8173" stroke-width="1.51"></path><path d="M409,-62L315,13L448,4Z" fill="#2f9f91" stroke="#2f9f91" stroke-width="1.51"></path><path d="M315,13L328,96L448,4Z" fill="#229587" stroke="#229587" stroke-width="1.51"></path><path d="M427,171L404,287L448,109Z" fill="#0a8173" stroke="#0a8173" stroke-width="1.51"></path><path d="M448,4L328,96L448,109Z" fill="#178c7e" stroke="#178c7e" stroke-width="1.51"></path><path d="M328,96L427,171L448,109Z" fill="#0e8678" stroke="#0e8678" stroke-width="1.51"></path><path d="M332,-66L315,13L409,-62Z" fill="#35a697" stroke="#35a697" stroke-width="1.51"></path><path d="M328,96L359,185L427,171Z" fill="#0e8678" stroke="#0e8678" stroke-width="1.51"></path><path d="M56,-119L175,-81L265,-96Z" fill="#48bbad" stroke="#48bbad" stroke-width="1.51"></path><path d="M297,237L223,300L404,287Z" fill="#0a8173" stroke="#0a8173" stroke-width="1.51"></path><path d="M359,185L297,237L404,287Z" fill="#0a8274" stroke="#0a8274" stroke-width="1.51"></path><path d="M328,96L263,121L359,185Z" fill="#11897b" stroke="#11897b" stroke-width="1.51"></path><path d="M263,121L297,237L359,185Z" fill="#0f8779" stroke="#0f8779" stroke-width="1.51"></path><path d="M263,121L230,179L297,237Z" fill="#12897b" stroke="#12897b" stroke-width="1.51"></path><path d="M265,-96L226,13L315,13Z" fill="#34a698" stroke="#34a698" stroke-width="1.51"></path><path d="M226,13L263,121L315,13Z" fill="#229688" stroke="#229688" stroke-width="1.51"></path><path d="M315,13L263,121L328,96Z" fill="#198f81" stroke="#198f81" stroke-width="1.51"></path><path d="M265,-96L315,13L332,-66Z" fill="#39aa9c" stroke="#39aa9c" stroke-width="1.51"></path><path d="M230,179L223,300L297,237Z" fill="#0e8678" stroke="#0e8678" stroke-width="1.51"></path><path d="M226,13L150,62L263,121Z" fill="#1f9587" stroke="#1f9587" stroke-width="1.51"></path><path d="M175,-81L226,13L265,-96Z" fill="#3dafa1" stroke="#3dafa1" stroke-width="1.51"></path><path d="M142,275L223,300L230,179Z" fill="#108779" stroke="#108779" stroke-width="1.51"></path><path d="M150,62L230,179L263,121Z" fill="#178e80" stroke="#178e80" stroke-width="1.51"></path><path d="M34,253L-49,282L142,275Z" fill="#28998b" stroke="#28998b" stroke-width="1.51"></path><path d="M175,-81L135,-8L226,13Z" fill="#37ab9d" stroke="#37ab9d" stroke-width="1.51"></path><path d="M132,187L142,275L230,179Z" fill="#138a7c" stroke="#138a7c" stroke-width="1.51"></path><path d="M150,62L132,187L230,179Z" fill="#178f81" stroke="#178f81" stroke-width="1.51"></path><path d="M135,-8L150,62L226,13Z" fill="#2ca092" stroke="#2ca092" stroke-width="1.51"></path><path d="M79,151L132,187L150,62Z" fill="#1e9587" stroke="#1e9587" stroke-width="1.51"></path><path d="M56,-119L135,-8L175,-81Z" fill="#46baac" stroke="#46baac" stroke-width="1.51"></path><path d="M56,-119L92,8L135,-8Z" fill="#44b7a9" stroke="#44b7a9" stroke-width="1.51"></path><path d="M132,187L34,253L142,275Z" fill="#1e9283" stroke="#1e9283" stroke-width="1.51"></path><path d="M92,8L28,120L150,62Z" fill="#2da293" stroke="#2da293" stroke-width="1.51"></path><path d="M28,120L79,151L150,62Z" fill="#279b8d" stroke="#279b8d" stroke-width="1.51"></path><path d="M135,-8L92,8L150,62Z" fill="#31a597" stroke="#31a597" stroke-width="1.51"></path><path d="M79,151L34,253L132,187Z" fill="#249789" stroke="#249789" stroke-width="1.51"></path><path d="M-25,206L34,253L79,151Z" fill="#2d9f91" stroke="#2d9f91" stroke-width="1.51"></path><path d="M-16,72L28,120L92,8Z" fill="#35a99b" stroke="#35a99b" stroke-width="1.51"></path><path d="M-10,-28L-16,72L92,8Z" fill="#43b6a8" stroke="#43b6a8" stroke-width="1.51"></path><path d="M56,-119L-10,-28L92,8Z" fill="#4dc0b2" stroke="#4dc0b2" stroke-width="1.51"></path><path d="M28,120L-25,206L79,151Z" fill="#2fa294" stroke="#2fa294" stroke-width="1.51"></path><path d="M-19,-118L-10,-28L56,-119Z" fill="#5bd0c2" stroke="#5bd0c2" stroke-width="1.51"></path><path d="M-25,206L-49,282L34,253Z" fill="#33a395" stroke="#33a395" stroke-width="1.51"></path><path d="M-16,72L-25,206L28,120Z" fill="#35a89a" stroke="#35a89a" stroke-width="1.51"></path><path d="M-115,-100L-94,-26L-19,-118Z" fill="#67dcce" stroke="#67dcce" stroke-width="1.51"></path><path d="M-149,151L-25,206L-16,72Z" fill="#3fb1a3" stroke="#3fb1a3" stroke-width="1.51"></path><path d="M-124,74L-149,151L-16,72Z" fill="#46b9ab" stroke="#46b9ab" stroke-width="1.51"></path><path d="M-94,-26L-124,74L-16,72Z" fill="#4dc1b3" stroke="#4dc1b3" stroke-width="1.51"></path><path d="M-94,-26L-16,72L-10,-28Z" fill="#4fc3b5" stroke="#4fc3b5" stroke-width="1.51"></path><path d="M-19,-118L-94,-26L-10,-28Z" fill="#5cd1c3" stroke="#5cd1c3" stroke-width="1.51"></path><path d="M-132,282L-49,282L-25,206Z" fill="#3baa9c" stroke="#3baa9c" stroke-width="1.51"></path><path d="M-149,151L-132,282L-25,206Z" fill="#42b2a4" stroke="#42b2a4" stroke-width="1.51"></path><path d="M-115,-100L-124,74L-94,-26Z" fill="#5ed3c5" stroke="#5ed3c5" stroke-width="1.51"></path><path d="M-149,151L-124,74L-115,-100Z" fill="#54c9bb" stroke="#54c9bb" stroke-width="1.51"></path></svg>