<svg width="300" height="176" xmlns="http://www.w3.org/2000/svg"><path d="M166,76L239,115L218,29Z" fill="#219689" stroke="#219689" stroke-width="1.51"></path><path d="M239,115L321,13L218,29Z" fill="#2b9e93" stroke="#2b9e93" stroke-width="1.51"></path><path d="M136,168L260,166L239,115Z" fill="#0d8476" stroke="#0d8476" stroke-width="1.51"></path><path d="M166,76L136,168L239,115Z" fill="#148c7e" stroke="#148c7e" stroke-width="1.51"></path><path d="M353,60L321,13L239,115Z" fill="#239588" stroke="#239588" stroke-width="1.51"></path><path d="M218,29L137,-28L166,76Z" fill="#40b6ac" stroke="#40b6ac" stroke-width="1.51"></path><path d="M166,76L62,89L136,168Z" fill="#24998c" stroke="#24998c" stroke-width="1.51"></path><path d="M259,-65L137,-28L218,29Z" fill="#4dc2bb" stroke="#4dc2bb" stroke-width="1.51"></path><path d="M260,166L353,60L239,115Z" fill="#0b8375" stroke="#0b8375" stroke-width="1.51"></path><path d="M321,13L259,-65L218,29Z" fill="#49bdb5" stroke="#49bdb5" stroke-width="1.51"></path><path d="M137,-28L62,89L166,76Z" fill="#40b6ac" stroke="#40b6ac" stroke-width="1.51"></path><path d="M321,13L299,-72L259,-65Z" fill="#48bab3" stroke="#48bab3" stroke-width="1.51"></path><path d="M393,-31L299,-72L321,13Z" fill="#47bab2" stroke="#47bab2" stroke-width="1.51"></path><path d="M137,-28L59,-29L62,89Z" fill="#5fd8d3" stroke="#5fd8d3" stroke-width="1.51"></path><path d="M53,-88L59,-29L137,-28Z" fill="#65e0dc" stroke="#65e0dc" stroke-width="1.51"></path><path d="M260,166L356,208L353,60Z" fill="#057d6f" stroke="#057d6f" stroke-width="1.51"></path><path d="M260,292L356,208L260,166Z" fill="#00796b" stroke="#00796b" stroke-width="1.51"></path><path d="M136,168L118,251L260,166Z" fill="#0c8476" stroke="#0c8476" stroke-width="1.51"></path><path d="M34,208L118,251L136,168Z" fill="#27988c" stroke="#27988c" stroke-width="1.51"></path><path d="M259,-65L157,-123L137,-28Z" fill="#4ec5bd" stroke="#4ec5bd" stroke-width="1.51"></path><path d="M299,-72L157,-123L259,-65Z" fill="#4bc0b8" stroke="#4bc0b8" stroke-width="1.51"></path><path d="M423,69L393,-31L353,60Z" fill="#35a69c" stroke="#35a69c" stroke-width="1.51"></path><path d="M353,60L393,-31L321,13Z" fill="#40b1a9" stroke="#40b1a9" stroke-width="1.51"></path><path d="M356,208L423,69L353,60Z" fill="#0a8274" stroke="#0a8274" stroke-width="1.51"></path><path d="M118,251L260,292L260,166Z" fill="#088072" stroke="#088072" stroke-width="1.51"></path><path d="M-16,146L34,208L62,89Z" fill="#41b5ac" stroke="#41b5ac" stroke-width="1.51"></path><path d="M62,89L34,208L136,168Z" fill="#2fa297" stroke="#2fa297" stroke-width="1.51"></path><path d="M-49,63L-16,146L62,89Z" fill="#4fc6bf" stroke="#4fc6bf" stroke-width="1.51"></path><path d="M157,-123L53,-88L137,-28Z" fill="#5bd4ce" stroke="#5bd4ce" stroke-width="1.51"></path><path d="M-49,63L62,89L-53,10Z" fill="#62ddd8" stroke="#62ddd8" stroke-width="1.51"></path><path d="M260,292L308,297L356,208Z" fill="#00796b" stroke="#00796b" stroke-width="1.51"></path><path d="M356,208L424,203L423,69Z" fill="#027b6d" stroke="#027b6d" stroke-width="1.51"></path><path d="M393,287L424,203L356,208Z" fill="#00796b" stroke="#00796b" stroke-width="1.51"></path><path d="M-53,10L62,89L59,-29Z" fill="#6ce7e4" stroke="#6ce7e4" stroke-width="1.51"></path><path d="M423,69L406,-104L393,-31Z" fill="#47bab2" stroke="#47bab2" stroke-width="1.51"></path><path d="M393,-31L406,-104L299,-72Z" fill="#47bab2" stroke="#47bab2" stroke-width="1.51"></path><path d="M299,-72L406,-104L157,-123Z" fill="#48bbb3" stroke="#48bbb3" stroke-width="1.51"></path><path d="M53,-88L-53,10L59,-29Z" fill="#79f7f6" stroke="#79f7f6" stroke-width="1.51"></path><path d="M-1,254L44,292L34,208Z" fill="#3fb1a8" stroke="#3fb1a8" stroke-width="1.51"></path><path d="M34,208L44,292L118,251Z" fill="#32a398" stroke="#32a398" stroke-width="1.51"></path><path d="M118,251L44,292L260,292Z" fill="#13897b" stroke="#13897b" stroke-width="1.51"></path><path d="M260,292L44,292L308,297Z" fill="#098173" stroke="#098173" stroke-width="1.51"></path><path d="M308,297L393,287L356,208Z" fill="#00796b" stroke="#00796b" stroke-width="1.51"></path><path d="M-16,146L-1,254L34,208Z" fill="#45b8b0" stroke="#45b8b0" stroke-width="1.51"></path><path d="M-118,261L-1,254L-16,146Z" fill="#47bab2" stroke="#47bab2" stroke-width="1.51"></path><path d="M157,-123L-46,-126L53,-88Z" fill="#6eeae8" stroke="#6eeae8" stroke-width="1.51"></path><path d="M53,-88L-46,-126L-53,10Z" fill="#7fffff" stroke="#7fffff" stroke-width="1.51"></path><path d="M-91,-112L-115,24L-53,10Z" fill="#7fffff" stroke="#7fffff" stroke-width="1.51"></path><path d="M-53,10L-115,24L-49,63Z" fill="#6eeae8" stroke="#6eeae8" stroke-width="1.51"></path><path d="M-49,63L-139,84L-16,146Z" fill="#4fc6bf" stroke="#4fc6bf" stroke-width="1.51"></path><path d="M-115,24L-139,84L-49,63Z" fill="#60dbd6" stroke="#60dbd6" stroke-width="1.51"></path><path d="M-115,24L-91,-112L-139,84Z" fill="#7fffff" stroke="#7fffff" stroke-width="1.51"></path><path d="M-46,-126L-91,-112L-53,10Z" fill="#7fffff" stroke="#7fffff" stroke-width="1.51"></path><path d="M-139,84L-147,194L-16,146Z" fill="#4bbfb8" stroke="#4bbfb8" stroke-width="1.51"></path><path d="M-1,254L-118,261L44,292Z" fill="#47bab2" stroke="#47bab2" stroke-width="1.51"></path><path d="M-147,194L-118,261L-16,146Z" fill="#47bab2" stroke="#47bab2" stroke-width="1.51"></path></svg>