<svg width="300" height="176" xmlns="http://www.w3.org/2000/svg"><path d="M166,115L223,74L143,30Z" fill="#1e9588" stroke="#1e9588" stroke-width="1.51"></path><path d="M143,30L82,95L166,115Z" fill="#21988a" stroke="#21988a" stroke-width="1.51"></path><path d="M223,74L263,-11L143,30Z" fill="#289d91" stroke="#289d91" stroke-width="1.51"></path><path d="M143,30L85,-34L82,95Z" fill="#32a89c" stroke="#32a89c" stroke-width="1.51"></path><path d="M122,-87L85,-34L143,30Z" fill="#3db4aa" stroke="#3db4aa" stroke-width="1.51"></path><path d="M321,155L327,120L223,74Z" fill="#148b7d" stroke="#148b7d" stroke-width="1.51"></path><path d="M82,95L157,206L166,115Z" fill="#1b9284" stroke="#1b9284" stroke-width="1.51"></path><path d="M327,120L310,20L223,74Z" fill="#1b9184" stroke="#1b9184" stroke-width="1.51"></path><path d="M223,74L310,20L263,-11Z" fill="#279c8f" stroke="#279c8f" stroke-width="1.51"></path><path d="M263,205L223,74L166,115Z" fill="#168d7f" stroke="#168d7f" stroke-width="1.51"></path><path d="M263,-11L122,-87L143,30Z" fill="#36aca0" stroke="#36aca0" stroke-width="1.51"></path><path d="M157,206L263,205L166,115Z" fill="#148c7e" stroke="#148c7e" stroke-width="1.51"></path><path d="M263,205L321,155L223,74Z" fill="#138a7c" stroke="#138a7c" stroke-width="1.51"></path><path d="M157,206L171,242L263,205Z" fill="#12897b" stroke="#12897b" stroke-width="1.51"></path><path d="M79,236L171,242L157,206Z" fill="#178d7f" stroke="#178d7f" stroke-width="1.51"></path><path d="M82,95L43,196L157,206Z" fill="#22978b" stroke="#22978b" stroke-width="1.51"></path><path d="M-13,159L43,196L82,95Z" fill="#2da296" stroke="#2da296" stroke-width="1.51"></path><path d="M43,196L79,236L157,206Z" fill="#219588" stroke="#219588" stroke-width="1.51"></path><path d="M263,-11L265,-120L122,-87Z" fill="#40b5ac" stroke="#40b5ac" stroke-width="1.51"></path><path d="M310,20L328,-59L263,-11Z" fill="#31a499" stroke="#31a499" stroke-width="1.51"></path><path d="M405,-7L328,-59L310,20Z" fill="#30a297" stroke="#30a297" stroke-width="1.51"></path><path d="M-23,-11L82,95L85,-34Z" fill="#3eb4aa" stroke="#3eb4aa" stroke-width="1.51"></path><path d="M-23,-11L-27,96L82,95Z" fill="#3ab0a6" stroke="#3ab0a6" stroke-width="1.51"></path><path d="M328,-59L265,-120L263,-11Z" fill="#3cb1a7" stroke="#3cb1a7" stroke-width="1.51"></path><path d="M265,-120L32,-84L122,-87Z" fill="#48c0b7" stroke="#48c0b7" stroke-width="1.51"></path><path d="M122,-87L32,-84L85,-34Z" fill="#4cc3bb" stroke="#4cc3bb" stroke-width="1.51"></path><path d="M-27,96L-13,159L82,95Z" fill="#32a89d" stroke="#32a89d" stroke-width="1.51"></path><path d="M43,196L-19,243L79,236Z" fill="#2b9e92" stroke="#2b9e92" stroke-width="1.51"></path><path d="M32,-84L-23,-11L85,-34Z" fill="#4ec5bd" stroke="#4ec5bd" stroke-width="1.51"></path><path d="M171,242L234,279L263,205Z" fill="#0f8779" stroke="#0f8779" stroke-width="1.51"></path><path d="M263,205L321,259L321,155Z" fill="#0e8577" stroke="#0e8577" stroke-width="1.51"></path><path d="M79,236L234,279L171,242Z" fill="#11897b" stroke="#11897b" stroke-width="1.51"></path><path d="M234,279L321,259L263,205Z" fill="#0d8476" stroke="#0d8476" stroke-width="1.51"></path><path d="M428,111L310,20L327,120Z" fill="#148b7d" stroke="#148b7d" stroke-width="1.51"></path><path d="M328,-59L417,-85L265,-120Z" fill="#40b4aa" stroke="#40b4aa" stroke-width="1.51"></path><path d="M428,111L405,-7L310,20Z" fill="#209487" stroke="#209487" stroke-width="1.51"></path><path d="M395,195L327,120L321,155Z" fill="#0f8779" stroke="#0f8779" stroke-width="1.51"></path><path d="M32,-84L-27,-81L-23,-11Z" fill="#57cfc9" stroke="#57cfc9" stroke-width="1.51"></path><path d="M-23,-11L-103,30L-27,96Z" fill="#49c0b8" stroke="#49c0b8" stroke-width="1.51"></path><path d="M265,-120L-27,-81L32,-84Z" fill="#50c8c0" stroke="#50c8c0" stroke-width="1.51"></path><path d="M321,259L395,195L321,155Z" fill="#0d8476" stroke="#0d8476" stroke-width="1.51"></path><path d="M395,195L428,111L327,120Z" fill="#0f8678" stroke="#0f8678" stroke-width="1.51"></path><path d="M79,236L-142,293L234,279Z" fill="#25988b" stroke="#25988b" stroke-width="1.51"></path><path d="M-13,159L-19,243L43,196Z" fill="#31a499" stroke="#31a499" stroke-width="1.51"></path><path d="M-111,180L-19,243L-13,159Z" fill="#3aaea3" stroke="#3aaea3" stroke-width="1.51"></path><path d="M-125,-67L-103,30L-23,-11Z" fill="#5ad3cd" stroke="#5ad3cd" stroke-width="1.51"></path><path d="M-27,96L-111,180L-13,159Z" fill="#3cb1a7" stroke="#3cb1a7" stroke-width="1.51"></path><path d="M405,-7L417,-85L328,-59Z" fill="#37a99f" stroke="#37a99f" stroke-width="1.51"></path><path d="M428,111L417,-85L405,-7Z" fill="#289a8f" stroke="#289a8f" stroke-width="1.51"></path><path d="M-103,30L-111,83L-27,96Z" fill="#47bdb5" stroke="#47bdb5" stroke-width="1.51"></path><path d="M-111,83L-111,180L-27,96Z" fill="#42b8ae" stroke="#42b8ae" stroke-width="1.51"></path><path d="M234,279L433,234L321,259Z" fill="#098173" stroke="#098173" stroke-width="1.51"></path><path d="M321,259L433,234L395,195Z" fill="#098173" stroke="#098173" stroke-width="1.51"></path><path d="M395,195L433,234L428,111Z" fill="#0b8274" stroke="#0b8274" stroke-width="1.51"></path><path d="M-103,30L-125,-67L-111,83Z" fill="#57d0ca" stroke="#57d0ca" stroke-width="1.51"></path><path d="M-111,83L-142,293L-111,180Z" fill="#45bab2" stroke="#45bab2" stroke-width="1.51"></path><path d="M-27,-81L-125,-67L-23,-11Z" fill="#5dd7d2" stroke="#5dd7d2" stroke-width="1.51"></path><path d="M-125,-67L-142,293L-111,83Z" fill="#49c0b8" stroke="#49c0b8" stroke-width="1.51"></path><path d="M-111,180L-142,293L-19,243Z" fill="#3fb2a8" stroke="#3fb2a8" stroke-width="1.51"></path><path d="M-19,243L-142,293L79,236Z" fill="#34a69b" stroke="#34a69b" stroke-width="1.51"></path></svg>