<svg width="300" height="176" xmlns="http://www.w3.org/2000/svg"><path d="M116,82L31,69L83,171Z" fill="#35aa9e" stroke="#35aa9e" stroke-width="1.51"></path><path d="M83,171L153,184L116,82Z" fill="#229689" stroke="#229689" stroke-width="1.51"></path><path d="M31,69L-40,171L83,171Z" fill="#43b7ae" stroke="#43b7ae" stroke-width="1.51"></path><path d="M83,171L54,258L153,184Z" fill="#27988c" stroke="#27988c" stroke-width="1.51"></path><path d="M31,69L-60,73L-40,171Z" fill="#4ec5be" stroke="#4ec5be" stroke-width="1.51"></path><path d="M-40,171L54,258L83,171Z" fill="#3daea5" stroke="#3daea5" stroke-width="1.51"></path><path d="M116,82L46,-32L31,69Z" fill="#55cec7" stroke="#55cec7" stroke-width="1.51"></path><path d="M31,69L-59,26L-60,73Z" fill="#61dcd7" stroke="#61dcd7" stroke-width="1.51"></path><path d="M153,184L209,160L116,82Z" fill="#138a7c" stroke="#138a7c" stroke-width="1.51"></path><path d="M116,82L150,-10L46,-32Z" fill="#57d0ca" stroke="#57d0ca" stroke-width="1.51"></path><path d="M172,242L209,160L153,184Z" fill="#0c8375" stroke="#0c8375" stroke-width="1.51"></path><path d="M239,6L150,-10L116,82Z" fill="#40b6ac" stroke="#40b6ac" stroke-width="1.51"></path><path d="M46,-32L-59,26L31,69Z" fill="#72efed" stroke="#72efed" stroke-width="1.51"></path><path d="M54,258L172,242L153,184Z" fill="#1a8e81" stroke="#1a8e81" stroke-width="1.51"></path><path d="M46,-32L2,-60L-59,26Z" fill="#7fffff" stroke="#7fffff" stroke-width="1.51"></path><path d="M26,-91L2,-60L46,-32Z" fill="#77f6f4" stroke="#77f6f4" stroke-width="1.51"></path><path d="M54,258L271,294L172,242Z" fill="#0d8476" stroke="#0d8476" stroke-width="1.51"></path><path d="M-40,171L-3,289L54,258Z" fill="#46b8b1" stroke="#46b8b1" stroke-width="1.51"></path><path d="M169,-115L26,-91L46,-32Z" fill="#66e1dd" stroke="#66e1dd" stroke-width="1.51"></path><path d="M271,69L239,6L116,82Z" fill="#2ea397" stroke="#2ea397" stroke-width="1.51"></path><path d="M-40,171L-114,210L-3,289Z" fill="#47bab2" stroke="#47bab2" stroke-width="1.51"></path><path d="M-152,103L-114,210L-40,171Z" fill="#49bcb4" stroke="#49bcb4" stroke-width="1.51"></path><path d="M-152,103L-40,171L-60,73Z" fill="#4dc3bc" stroke="#4dc3bc" stroke-width="1.51"></path><path d="M329,112L271,69L209,160Z" fill="#0c8476" stroke="#0c8476" stroke-width="1.51"></path><path d="M209,160L271,69L116,82Z" fill="#158c7e" stroke="#158c7e" stroke-width="1.51"></path><path d="M169,-115L46,-32L150,-10Z" fill="#59d2cc" stroke="#59d2cc" stroke-width="1.51"></path><path d="M-59,26L-152,103L-60,73Z" fill="#5bd4ce" stroke="#5bd4ce" stroke-width="1.51"></path><path d="M-115,-35L-152,103L-59,26Z" fill="#6eebe8" stroke="#6eebe8" stroke-width="1.51"></path><path d="M-115,-35L-59,26L2,-60Z" fill="#7fffff" stroke="#7fffff" stroke-width="1.51"></path><path d="M-102,-74L-115,-35L2,-60Z" fill="#7fffff" stroke="#7fffff" stroke-width="1.51"></path><path d="M-114,210L-126,263L-3,289Z" fill="#47bab2" stroke="#47bab2" stroke-width="1.51"></path><path d="M-152,103L-126,263L-114,210Z" fill="#47bab2" stroke="#47bab2" stroke-width="1.51"></path><path d="M242,-110L169,-115L150,-10Z" fill="#4ec5bc" stroke="#4ec5bc" stroke-width="1.51"></path><path d="M169,-115L-102,-74L26,-91Z" fill="#75f3f2" stroke="#75f3f2" stroke-width="1.51"></path><path d="M26,-91L-102,-74L2,-60Z" fill="#7fffff" stroke="#7fffff" stroke-width="1.51"></path><path d="M271,294L314,199L209,160Z" fill="#037c6e" stroke="#037c6e" stroke-width="1.51"></path><path d="M239,6L242,-110L150,-10Z" fill="#4cc2ba" stroke="#4cc2ba" stroke-width="1.51"></path><path d="M271,69L329,0L239,6Z" fill="#3aaca3" stroke="#3aaca3" stroke-width="1.51"></path><path d="M314,199L329,112L209,160Z" fill="#047d6f" stroke="#047d6f" stroke-width="1.51"></path><path d="M-3,289L271,294L54,258Z" fill="#229588" stroke="#229588" stroke-width="1.51"></path><path d="M172,242L271,294L209,160Z" fill="#088072" stroke="#088072" stroke-width="1.51"></path><path d="M310,-79L242,-110L239,6Z" fill="#49bdb5" stroke="#49bdb5" stroke-width="1.51"></path><path d="M329,112L329,0L271,69Z" fill="#24968a" stroke="#24968a" stroke-width="1.51"></path><path d="M329,0L310,-79L239,6Z" fill="#48bab3" stroke="#48bab3" stroke-width="1.51"></path><path d="M271,294L362,286L314,199Z" fill="#00796b" stroke="#00796b" stroke-width="1.51"></path><path d="M432,193L421,92L329,112Z" fill="#077f71" stroke="#077f71" stroke-width="1.51"></path><path d="M329,112L421,92L329,0Z" fill="#1f9285" stroke="#1f9285" stroke-width="1.51"></path><path d="M329,0L435,-118L310,-79Z" fill="#47bab2" stroke="#47bab2" stroke-width="1.51"></path><path d="M432,193L329,112L314,199Z" fill="#017a6c" stroke="#017a6c" stroke-width="1.51"></path><path d="M362,286L432,193L314,199Z" fill="#00796b" stroke="#00796b" stroke-width="1.51"></path><path d="M421,92L448,2L329,0Z" fill="#36a79d" stroke="#36a79d" stroke-width="1.51"></path><path d="M432,193L448,2L421,92Z" fill="#0d8577" stroke="#0d8577" stroke-width="1.51"></path><path d="M432,193L435,272L448,2Z" fill="#037c6e" stroke="#037c6e" stroke-width="1.51"></path><path d="M362,286L435,272L432,193Z" fill="#00796b" stroke="#00796b" stroke-width="1.51"></path><path d="M448,2L435,-118L329,0Z" fill="#47bab2" stroke="#47bab2" stroke-width="1.51"></path><path d="M310,-79L435,-118L242,-110Z" fill="#47bab2" stroke="#47bab2" stroke-width="1.51"></path><path d="M242,-110L435,-118L169,-115Z" fill="#48bbb4" stroke="#48bbb4" stroke-width="1.51"></path></svg>