<svg width="300" height="176" xmlns="http://www.w3.org/2000/svg"><path d="M58,277L-95,284L223,297Z" fill="#249587" stroke="#249587" stroke-width="1.51"></path><path d="M-142,-81L41,-74L247,-124Z" fill="#56cbbc" stroke="#56cbbc" stroke-width="1.51"></path><path d="M247,-124L304,-72L406,-83Z" fill="#42b3a5" stroke="#42b3a5" stroke-width="1.51"></path><path d="M406,8L332,63L407,117Z" fill="#1b8f81" stroke="#1b8f81" stroke-width="1.51"></path><path d="M406,-83L406,8L446,154Z" fill="#249587" stroke="#249587" stroke-width="1.51"></path><path d="M340,148L411,237L446,154Z" fill="#0c8375" stroke="#0c8375" stroke-width="1.51"></path><path d="M407,117L340,148L446,154Z" fill="#0e8577" stroke="#0e8577" stroke-width="1.51"></path><path d="M406,8L407,117L446,154Z" fill="#108779" stroke="#108779" stroke-width="1.51"></path><path d="M304,-72L326,-6L406,-83Z" fill="#39aa9b" stroke="#39aa9b" stroke-width="1.51"></path><path d="M406,-83L326,-6L406,8Z" fill="#32a294" stroke="#32a294" stroke-width="1.51"></path><path d="M340,148L322,295L411,237Z" fill="#0b8274" stroke="#0b8274" stroke-width="1.51"></path><path d="M326,-6L332,63L406,8Z" fill="#27998b" stroke="#27998b" stroke-width="1.51"></path><path d="M332,63L340,148L407,117Z" fill="#11897b" stroke="#11897b" stroke-width="1.51"></path><path d="M243,164L223,297L322,295Z" fill="#0d8577" stroke="#0d8577" stroke-width="1.51"></path><path d="M326,-6L229,29L332,63Z" fill="#279a8c" stroke="#279a8c" stroke-width="1.51"></path><path d="M243,164L322,295L340,148Z" fill="#0f8678" stroke="#0f8678" stroke-width="1.51"></path><path d="M332,63L272,89L340,148Z" fill="#148b7d" stroke="#148b7d" stroke-width="1.51"></path><path d="M272,89L243,164L340,148Z" fill="#138b7d" stroke="#138b7d" stroke-width="1.51"></path><path d="M229,29L272,89L332,63Z" fill="#1f9385" stroke="#1f9385" stroke-width="1.51"></path><path d="M304,-72L229,29L326,-6Z" fill="#32a496" stroke="#32a496" stroke-width="1.51"></path><path d="M247,-124L172,-73L304,-72Z" fill="#43b6a7" stroke="#43b6a7" stroke-width="1.51"></path><path d="M172,-73L229,29L304,-72Z" fill="#38ab9d" stroke="#38ab9d" stroke-width="1.51"></path><path d="M149,265L58,277L223,297Z" fill="#12897b" stroke="#12897b" stroke-width="1.51"></path><path d="M168,191L223,297L243,164Z" fill="#11897b" stroke="#11897b" stroke-width="1.51"></path><path d="M41,-74L172,-73L247,-124Z" fill="#46baac" stroke="#46baac" stroke-width="1.51"></path><path d="M159,114L243,164L272,89Z" fill="#168e80" stroke="#168e80" stroke-width="1.51"></path><path d="M229,29L159,114L272,89Z" fill="#1b9284" stroke="#1b9284" stroke-width="1.51"></path><path d="M168,191L149,265L223,297Z" fill="#11887a" stroke="#11887a" stroke-width="1.51"></path><path d="M172,-73L124,-26L229,29Z" fill="#37aa9c" stroke="#37aa9c" stroke-width="1.51"></path><path d="M159,114L168,191L243,164Z" fill="#158d7f" stroke="#158d7f" stroke-width="1.51"></path><path d="M124,-26L159,114L229,29Z" fill="#289c8e" stroke="#289c8e" stroke-width="1.51"></path><path d="M124,-26L80,6L159,114Z" fill="#2fa495" stroke="#2fa495" stroke-width="1.51"></path><path d="M80,6L66,74L159,114Z" fill="#2a9f91" stroke="#2a9f91" stroke-width="1.51"></path><path d="M159,114L40,153L168,191Z" fill="#1e9385" stroke="#1e9385" stroke-width="1.51"></path><path d="M41,-74L124,-26L172,-73Z" fill="#45b9ab" stroke="#45b9ab" stroke-width="1.51"></path><path d="M58,277L149,265L168,191Z" fill="#198e80" stroke="#198e80" stroke-width="1.51"></path><path d="M40,153L58,277L168,191Z" fill="#229587" stroke="#229587" stroke-width="1.51"></path><path d="M-142,-81L1,-61L41,-74Z" fill="#5ed3c5" stroke="#5ed3c5" stroke-width="1.51"></path><path d="M66,74L40,153L159,114Z" fill="#269b8d" stroke="#269b8d" stroke-width="1.51"></path><path d="M41,-74L80,6L124,-26Z" fill="#44b7a9" stroke="#44b7a9" stroke-width="1.51"></path><path d="M-54,259L-95,284L58,277Z" fill="#34a496" stroke="#34a496" stroke-width="1.51"></path><path d="M40,153L-19,183L58,277Z" fill="#2d9f91" stroke="#2d9f91" stroke-width="1.51"></path><path d="M1,-61L-46,-36L80,6Z" fill="#4fc2b4" stroke="#4fc2b4" stroke-width="1.51"></path><path d="M-46,-36L-14,90L80,6Z" fill="#45b8aa" stroke="#45b8aa" stroke-width="1.51"></path><path d="M41,-74L1,-61L80,6Z" fill="#4dc1b3" stroke="#4dc1b3" stroke-width="1.51"></path><path d="M-14,90L66,74L80,6Z" fill="#36aa9c" stroke="#36aa9c" stroke-width="1.51"></path><path d="M-19,183L-54,259L58,277Z" fill="#31a293" stroke="#31a293" stroke-width="1.51"></path><path d="M-14,90L40,153L66,74Z" fill="#31a496" stroke="#31a496" stroke-width="1.51"></path><path d="M-14,90L-19,183L40,153Z" fill="#34a799" stroke="#34a799" stroke-width="1.51"></path><path d="M-46,-36L-113,-11L-14,90Z" fill="#4fc4b5" stroke="#4fc4b5" stroke-width="1.51"></path><path d="M-142,-81L-46,-36L1,-61Z" fill="#60d5c7" stroke="#60d5c7" stroke-width="1.51"></path><path d="M-148,71L-138,205L-19,183Z" fill="#44b6a8" stroke="#44b6a8" stroke-width="1.51"></path><path d="M-113,-11L-148,71L-14,90Z" fill="#4dc1b3" stroke="#4dc1b3" stroke-width="1.51"></path><path d="M-148,71L-19,183L-14,90Z" fill="#3fb2a4" stroke="#3fb2a4" stroke-width="1.51"></path><path d="M-138,205L-54,259L-19,183Z" fill="#3dae9f" stroke="#3dae9f" stroke-width="1.51"></path><path d="M-142,-81L-113,-11L-46,-36Z" fill="#62d8c9" stroke="#62d8c9" stroke-width="1.51"></path><path d="M-138,205L-95,284L-54,259Z" fill="#40afa1" stroke="#40afa1" stroke-width="1.51"></path><path d="M-142,-81L-148,71L-113,-11Z" fill="#60d5c7" stroke="#60d5c7" stroke-width="1.51"></path></svg>