<svg width="300" height="176" xmlns="http://www.w3.org/2000/svg"><path d="M157,72L215,146L231,106Z" fill="#179082" stroke="#179082" stroke-width="1.51"></path><path d="M157,72L168,170L215,146Z" fill="#178f81" stroke="#178f81" stroke-width="1.51"></path><path d="M231,106L222,0L157,72Z" fill="#21978a" stroke="#21978a" stroke-width="1.51"></path><path d="M222,0L136,-8L157,72Z" fill="#2ca195" stroke="#2ca195" stroke-width="1.51"></path><path d="M157,72L35,105L168,170Z" fill="#1f9689" stroke="#1f9689" stroke-width="1.51"></path><path d="M136,-8L74,18L157,72Z" fill="#2fa599" stroke="#2fa599" stroke-width="1.51"></path><path d="M74,18L35,105L157,72Z" fill="#2ca296" stroke="#2ca296" stroke-width="1.51"></path><path d="M35,105L71,209L168,170Z" fill="#23988b" stroke="#23988b" stroke-width="1.51"></path><path d="M168,170L206,265L215,146Z" fill="#138b7d" stroke="#138b7d" stroke-width="1.51"></path><path d="M215,146L339,190L231,106Z" fill="#138b7d" stroke="#138b7d" stroke-width="1.51"></path><path d="M120,280L206,265L168,170Z" fill="#128a7c" stroke="#128a7c" stroke-width="1.51"></path><path d="M206,265L339,190L215,146Z" fill="#11887a" stroke="#11887a" stroke-width="1.51"></path><path d="M231,106L360,26L222,0Z" fill="#23988b" stroke="#23988b" stroke-width="1.51"></path><path d="M71,209L120,280L168,170Z" fill="#1a9083" stroke="#1a9083" stroke-width="1.51"></path><path d="M339,190L363,55L231,106Z" fill="#138b7d" stroke="#138b7d" stroke-width="1.51"></path><path d="M363,55L360,26L231,106Z" fill="#1c9284" stroke="#1c9284" stroke-width="1.51"></path><path d="M35,105L-21,166L71,209Z" fill="#2fa397" stroke="#2fa397" stroke-width="1.51"></path><path d="M74,18L-11,86L35,105Z" fill="#34aa9f" stroke="#34aa9f" stroke-width="1.51"></path><path d="M136,-8L53,-103L74,18Z" fill="#42b9b0" stroke="#42b9b0" stroke-width="1.51"></path><path d="M222,0L132,-93L136,-8Z" fill="#39afa4" stroke="#39afa4" stroke-width="1.51"></path><path d="M360,26L270,-68L222,0Z" fill="#31a59a" stroke="#31a59a" stroke-width="1.51"></path><path d="M339,190L430,84L363,55Z" fill="#11887a" stroke="#11887a" stroke-width="1.51"></path><path d="M206,265L335,248L339,190Z" fill="#0d8476" stroke="#0d8476" stroke-width="1.51"></path><path d="M388,258L335,248L206,265Z" fill="#0b8274" stroke="#0b8274" stroke-width="1.51"></path><path d="M270,-68L132,-93L222,0Z" fill="#3cb1a7" stroke="#3cb1a7" stroke-width="1.51"></path><path d="M74,18L-50,29L-11,86Z" fill="#3fb5ac" stroke="#3fb5ac" stroke-width="1.51"></path><path d="M71,209L41,289L120,280Z" fill="#219588" stroke="#219588" stroke-width="1.51"></path><path d="M-11,86L-21,166L35,105Z" fill="#34aa9e" stroke="#34aa9e" stroke-width="1.51"></path><path d="M-52,236L41,289L71,209Z" fill="#2c9f94" stroke="#2c9f94" stroke-width="1.51"></path><path d="M360,26L333,-122L270,-68Z" fill="#39ada3" stroke="#39ada3" stroke-width="1.51"></path><path d="M363,55L430,84L360,26Z" fill="#1c9184" stroke="#1c9184" stroke-width="1.51"></path><path d="M437,179L430,84L339,190Z" fill="#0d8577" stroke="#0d8577" stroke-width="1.51"></path><path d="M-11,86L-107,94L-21,166Z" fill="#3cb2a8" stroke="#3cb2a8" stroke-width="1.51"></path><path d="M53,-103L-50,29L74,18Z" fill="#49c0b8" stroke="#49c0b8" stroke-width="1.51"></path><path d="M132,-93L53,-103L136,-8Z" fill="#47bfb6" stroke="#47bfb6" stroke-width="1.51"></path><path d="M335,248L388,258L339,190Z" fill="#0a8274" stroke="#0a8274" stroke-width="1.51"></path><path d="M120,280L388,258L206,265Z" fill="#0d8577" stroke="#0d8577" stroke-width="1.51"></path><path d="M41,289L388,258L120,280Z" fill="#0f8678" stroke="#0f8678" stroke-width="1.51"></path><path d="M388,258L437,179L339,190Z" fill="#0a8274" stroke="#0a8274" stroke-width="1.51"></path><path d="M-112,209L-52,236L-21,166Z" fill="#3bafa5" stroke="#3bafa5" stroke-width="1.51"></path><path d="M-21,166L-52,236L71,209Z" fill="#32a59a" stroke="#32a59a" stroke-width="1.51"></path><path d="M430,-21L333,-122L360,26Z" fill="#34a79c" stroke="#34a79c" stroke-width="1.51"></path><path d="M270,-68L333,-122L132,-93Z" fill="#44b9b1" stroke="#44b9b1" stroke-width="1.51"></path><path d="M132,-93L333,-122L53,-103Z" fill="#48bfb7" stroke="#48bfb7" stroke-width="1.51"></path><path d="M430,84L430,-21L360,26Z" fill="#239689" stroke="#239689" stroke-width="1.51"></path><path d="M449,-68L430,-21L430,84Z" fill="#2a9b90" stroke="#2a9b90" stroke-width="1.51"></path><path d="M-50,29L-107,94L-11,86Z" fill="#42b9b0" stroke="#42b9b0" stroke-width="1.51"></path><path d="M-144,3L-107,94L-50,29Z" fill="#50c8c0" stroke="#50c8c0" stroke-width="1.51"></path><path d="M-52,236L-127,273L41,289Z" fill="#36a99e" stroke="#36a99e" stroke-width="1.51"></path><path d="M-107,94L-112,209L-21,166Z" fill="#40b5ac" stroke="#40b5ac" stroke-width="1.51"></path><path d="M430,-21L449,-68L333,-122Z" fill="#3aada3" stroke="#3aada3" stroke-width="1.51"></path><path d="M437,179L449,-68L430,84Z" fill="#178c7f" stroke="#178c7f" stroke-width="1.51"></path><path d="M333,-122L-52,-116L53,-103Z" fill="#50c9c1" stroke="#50c9c1" stroke-width="1.51"></path><path d="M53,-103L-52,-116L-50,29Z" fill="#59d3cd" stroke="#59d3cd" stroke-width="1.51"></path><path d="M-52,-116L-144,3L-50,29Z" fill="#5cd5cf" stroke="#5cd5cf" stroke-width="1.51"></path><path d="M-107,94L-144,3L-112,209Z" fill="#49bfb7" stroke="#49bfb7" stroke-width="1.51"></path><path d="M-112,209L-127,273L-52,236Z" fill="#40b3a9" stroke="#40b3a9" stroke-width="1.51"></path><path d="M-144,3L-127,273L-112,209Z" fill="#47bdb4" stroke="#47bdb4" stroke-width="1.51"></path><path d="M-52,-116L-141,-99L-144,3Z" fill="#69e5e2" stroke="#69e5e2" stroke-width="1.51"></path></svg>