<svg width="300" height="176" xmlns="http://www.w3.org/2000/svg"><path d="M173,84L241,67L137,20Z" fill="#2da296" stroke="#2da296" stroke-width="1.51"></path><path d="M241,67L262,24L137,20Z" fill="#37aba1" stroke="#37aba1" stroke-width="1.51"></path><path d="M262,24L177,-70L137,20Z" fill="#4dc4bc" stroke="#4dc4bc" stroke-width="1.51"></path><path d="M262,24L249,-60L177,-70Z" fill="#4bc0b9" stroke="#4bc0b9" stroke-width="1.51"></path><path d="M137,20L44,55L173,84Z" fill="#3db3a9" stroke="#3db3a9" stroke-width="1.51"></path><path d="M81,-104L66,7L137,20Z" fill="#61dcd7" stroke="#61dcd7" stroke-width="1.51"></path><path d="M241,67L319,83L262,24Z" fill="#279a8d" stroke="#279a8d" stroke-width="1.51"></path><path d="M262,24L352,-16L249,-60Z" fill="#48bbb3" stroke="#48bbb3" stroke-width="1.51"></path><path d="M244,184L319,83L241,67Z" fill="#0e8577" stroke="#0e8577" stroke-width="1.51"></path><path d="M66,7L44,55L137,20Z" fill="#57cfc9" stroke="#57cfc9" stroke-width="1.51"></path><path d="M84,155L122,172L173,84Z" fill="#1f9386" stroke="#1f9386" stroke-width="1.51"></path><path d="M173,84L244,184L241,67Z" fill="#12897b" stroke="#12897b" stroke-width="1.51"></path><path d="M122,172L244,184L173,84Z" fill="#10887a" stroke="#10887a" stroke-width="1.51"></path><path d="M319,83L352,-16L262,24Z" fill="#36a89d" stroke="#36a89d" stroke-width="1.51"></path><path d="M44,55L84,155L173,84Z" fill="#2da397" stroke="#2da397" stroke-width="1.51"></path><path d="M66,7L-55,14L44,55Z" fill="#6ce8e4" stroke="#6ce8e4" stroke-width="1.51"></path><path d="M177,-70L81,-104L137,20Z" fill="#55cfc8" stroke="#55cfc8" stroke-width="1.51"></path><path d="M330,-114L81,-104L177,-70Z" fill="#4dc3bc" stroke="#4dc3bc" stroke-width="1.51"></path><path d="M249,-60L330,-114L177,-70Z" fill="#4abeb7" stroke="#4abeb7" stroke-width="1.51"></path><path d="M352,-16L330,-114L249,-60Z" fill="#47bab2" stroke="#47bab2" stroke-width="1.51"></path><path d="M319,83L405,72L352,-16Z" fill="#2d9e93" stroke="#2d9e93" stroke-width="1.51"></path><path d="M352,-16L432,-94L330,-114Z" fill="#47bab2" stroke="#47bab2" stroke-width="1.51"></path><path d="M350,210L405,72L319,83Z" fill="#088173" stroke="#088173" stroke-width="1.51"></path><path d="M405,72L419,-13L352,-16Z" fill="#40b1a8" stroke="#40b1a8" stroke-width="1.51"></path><path d="M252,295L350,210L244,184Z" fill="#017a6c" stroke="#017a6c" stroke-width="1.51"></path><path d="M244,184L350,210L319,83Z" fill="#027b6d" stroke="#027b6d" stroke-width="1.51"></path><path d="M-21,-116L-55,14L66,7Z" fill="#7fffff" stroke="#7fffff" stroke-width="1.51"></path><path d="M44,55L-57,97L84,155Z" fill="#47bdb5" stroke="#47bdb5" stroke-width="1.51"></path><path d="M122,172L129,285L244,184Z" fill="#0d8476" stroke="#0d8476" stroke-width="1.51"></path><path d="M84,155L55,243L122,172Z" fill="#2a9b90" stroke="#2a9b90" stroke-width="1.51"></path><path d="M-39,184L55,243L84,155Z" fill="#3caea5" stroke="#3caea5" stroke-width="1.51"></path><path d="M330,-114L-21,-116L81,-104Z" fill="#56cfc8" stroke="#56cfc8" stroke-width="1.51"></path><path d="M81,-104L-21,-116L66,7Z" fill="#72efed" stroke="#72efed" stroke-width="1.51"></path><path d="M-55,14L-57,97L44,55Z" fill="#61dcd7" stroke="#61dcd7" stroke-width="1.51"></path><path d="M55,243L129,285L122,172Z" fill="#24968a" stroke="#24968a" stroke-width="1.51"></path><path d="M419,-13L432,-94L352,-16Z" fill="#47bab2" stroke="#47bab2" stroke-width="1.51"></path><path d="M129,285L252,295L244,184Z" fill="#088173" stroke="#088173" stroke-width="1.51"></path><path d="M-57,97L-39,184L84,155Z" fill="#4abfb7" stroke="#4abfb7" stroke-width="1.51"></path><path d="M350,210L438,210L405,72Z" fill="#027a6c" stroke="#027a6c" stroke-width="1.51"></path><path d="M252,295L363,275L350,210Z" fill="#00796b" stroke="#00796b" stroke-width="1.51"></path><path d="M428,236L438,210L350,210Z" fill="#00796b" stroke="#00796b" stroke-width="1.51"></path><path d="M405,72L438,210L419,-13Z" fill="#0e8577" stroke="#0e8577" stroke-width="1.51"></path><path d="M419,-13L438,210L432,-94Z" fill="#34a59b" stroke="#34a59b" stroke-width="1.51"></path><path d="M363,275L428,236L350,210Z" fill="#00796b" stroke="#00796b" stroke-width="1.51"></path><path d="M-55,14L-153,118L-57,97Z" fill="#56cfc8" stroke="#56cfc8" stroke-width="1.51"></path><path d="M-123,255L-26,291L-39,184Z" fill="#47bab2" stroke="#47bab2" stroke-width="1.51"></path><path d="M-21,-116L-111,-108L-55,14Z" fill="#7fffff" stroke="#7fffff" stroke-width="1.51"></path><path d="M-128,159L-39,184L-57,97Z" fill="#4abfb7" stroke="#4abfb7" stroke-width="1.51"></path><path d="M-39,184L-26,291L55,243Z" fill="#47bab2" stroke="#47bab2" stroke-width="1.51"></path><path d="M55,243L-26,291L129,285Z" fill="#36a79d" stroke="#36a79d" stroke-width="1.51"></path><path d="M129,285L-26,291L252,295Z" fill="#1e9184" stroke="#1e9184" stroke-width="1.51"></path><path d="M-111,-108L-150,-12L-55,14Z" fill="#7fffff" stroke="#7fffff" stroke-width="1.51"></path><path d="M-153,118L-128,159L-57,97Z" fill="#4cc2ba" stroke="#4cc2ba" stroke-width="1.51"></path><path d="M-150,-12L-153,118L-55,14Z" fill="#6ae6e2" stroke="#6ae6e2" stroke-width="1.51"></path><path d="M-153,118L-123,255L-128,159Z" fill="#47bab2" stroke="#47bab2" stroke-width="1.51"></path><path d="M-128,159L-123,255L-39,184Z" fill="#47bab2" stroke="#47bab2" stroke-width="1.51"></path></svg>