<svg width="300" height="176" xmlns="http://www.w3.org/2000/svg"><path d="M125,57L118,17L49,19Z" fill="#33a89d" stroke="#33a89d" stroke-width="1.51"></path><path d="M49,19L78,119L125,57Z" fill="#2da397" stroke="#2da397" stroke-width="1.51"></path><path d="M116,-75L27,-61L49,19Z" fill="#48bfb6" stroke="#48bfb6" stroke-width="1.51"></path><path d="M118,17L116,-75L49,19Z" fill="#3db3a9" stroke="#3db3a9" stroke-width="1.51"></path><path d="M238,-96L116,-75L118,17Z" fill="#3db3a9" stroke="#3db3a9" stroke-width="1.51"></path><path d="M78,119L159,209L125,57Z" fill="#1e9588" stroke="#1e9588" stroke-width="1.51"></path><path d="M-56,166L87,180L78,119Z" fill="#2da296" stroke="#2da296" stroke-width="1.51"></path><path d="M-48,108L78,119L49,19Z" fill="#33a99d" stroke="#33a99d" stroke-width="1.51"></path><path d="M27,-61L-35,-29L49,19Z" fill="#4cc3bc" stroke="#4cc3bc" stroke-width="1.51"></path><path d="M-35,-29L-48,108L49,19Z" fill="#44bbb2" stroke="#44bbb2" stroke-width="1.51"></path><path d="M-134,-9L-96,109L-48,108Z" fill="#49c0b8" stroke="#49c0b8" stroke-width="1.51"></path><path d="M27,-61L-35,-64L-35,-29Z" fill="#57cfc9" stroke="#57cfc9" stroke-width="1.51"></path><path d="M-101,-125L-35,-64L27,-61Z" fill="#60dbd6" stroke="#60dbd6" stroke-width="1.51"></path><path d="M125,57L267,28L118,17Z" fill="#299e92" stroke="#299e92" stroke-width="1.51"></path><path d="M159,209L264,59L125,57Z" fill="#189082" stroke="#189082" stroke-width="1.51"></path><path d="M87,180L159,209L78,119Z" fill="#1f9587" stroke="#1f9587" stroke-width="1.51"></path><path d="M264,59L267,28L125,57Z" fill="#23998c" stroke="#23998c" stroke-width="1.51"></path><path d="M-48,108L-56,166L78,119Z" fill="#36aba0" stroke="#36aba0" stroke-width="1.51"></path><path d="M87,180L135,269L159,209Z" fill="#198f81" stroke="#198f81" stroke-width="1.51"></path><path d="M-96,109L-56,166L-48,108Z" fill="#3fb4aa" stroke="#3fb4aa" stroke-width="1.51"></path><path d="M-134,-9L-48,108L-35,-29Z" fill="#4fc7c0" stroke="#4fc7c0" stroke-width="1.51"></path><path d="M267,28L238,-96L118,17Z" fill="#33a99d" stroke="#33a99d" stroke-width="1.51"></path><path d="M116,-75L-101,-125L27,-61Z" fill="#5ad3cd" stroke="#5ad3cd" stroke-width="1.51"></path><path d="M-56,166L62,266L87,180Z" fill="#2ca093" stroke="#2ca093" stroke-width="1.51"></path><path d="M-35,-64L-134,-9L-35,-29Z" fill="#5bd4ce" stroke="#5bd4ce" stroke-width="1.51"></path><path d="M264,59L361,-8L267,28Z" fill="#269b8f" stroke="#269b8f" stroke-width="1.51"></path><path d="M159,209L261,188L264,59Z" fill="#158c7e" stroke="#158c7e" stroke-width="1.51"></path><path d="M234,252L261,188L159,209Z" fill="#11887a" stroke="#11887a" stroke-width="1.51"></path><path d="M62,266L135,269L87,180Z" fill="#1f9386" stroke="#1f9386" stroke-width="1.51"></path><path d="M261,188L316,120L264,59Z" fill="#148b7d" stroke="#148b7d" stroke-width="1.51"></path><path d="M267,28L361,-8L238,-96Z" fill="#33a79c" stroke="#33a79c" stroke-width="1.51"></path><path d="M-35,-64L-101,-125L-134,-9Z" fill="#65e0dc" stroke="#65e0dc" stroke-width="1.51"></path><path d="M238,-96L-101,-125L116,-75Z" fill="#52cac2" stroke="#52cac2" stroke-width="1.51"></path><path d="M261,188L328,208L316,120Z" fill="#108779" stroke="#108779" stroke-width="1.51"></path><path d="M135,269L234,252L159,209Z" fill="#11897b" stroke="#11897b" stroke-width="1.51"></path><path d="M-56,166L-55,284L62,266Z" fill="#32a59b" stroke="#32a59b" stroke-width="1.51"></path><path d="M-96,109L-134,197L-56,166Z" fill="#42b8af" stroke="#42b8af" stroke-width="1.51"></path><path d="M-134,-9L-134,197L-96,109Z" fill="#49c0b7" stroke="#49c0b7" stroke-width="1.51"></path><path d="M-134,197L-55,284L-56,166Z" fill="#3eb1a8" stroke="#3eb1a8" stroke-width="1.51"></path><path d="M62,266L-55,284L135,269Z" fill="#27998d" stroke="#27998d" stroke-width="1.51"></path><path d="M316,120L361,-8L264,59Z" fill="#1e9386" stroke="#1e9386" stroke-width="1.51"></path><path d="M449,96L401,-23L361,-8Z" fill="#25988b" stroke="#25988b" stroke-width="1.51"></path><path d="M314,259L328,208L261,188Z" fill="#0e8577" stroke="#0e8577" stroke-width="1.51"></path><path d="M361,-8L337,-126L238,-96Z" fill="#3fb2a9" stroke="#3fb2a9" stroke-width="1.51"></path><path d="M238,-96L337,-126L-101,-125Z" fill="#4bc2ba" stroke="#4bc2ba" stroke-width="1.51"></path><path d="M-134,197L-112,284L-55,284Z" fill="#40b3aa" stroke="#40b3aa" stroke-width="1.51"></path><path d="M234,252L314,259L261,188Z" fill="#0e8577" stroke="#0e8577" stroke-width="1.51"></path><path d="M135,269L314,259L234,252Z" fill="#0e8677" stroke="#0e8677" stroke-width="1.51"></path><path d="M-55,284L314,259L135,269Z" fill="#168b7e" stroke="#168b7e" stroke-width="1.51"></path><path d="M361,-8L401,-23L337,-126Z" fill="#37aaa0" stroke="#37aaa0" stroke-width="1.51"></path><path d="M449,96L361,-8L316,120Z" fill="#188e80" stroke="#188e80" stroke-width="1.51"></path><path d="M410,172L316,120L328,208Z" fill="#0e8678" stroke="#0e8678" stroke-width="1.51"></path><path d="M390,237L410,172L328,208Z" fill="#0b8274" stroke="#0b8274" stroke-width="1.51"></path><path d="M314,259L390,237L328,208Z" fill="#0b8274" stroke="#0b8274" stroke-width="1.51"></path><path d="M390,237L449,96L410,172Z" fill="#0b8375" stroke="#0b8375" stroke-width="1.51"></path><path d="M410,172L449,96L316,120Z" fill="#0f8678" stroke="#0f8678" stroke-width="1.51"></path><path d="M401,-23L423,-113L337,-126Z" fill="#3fb1a8" stroke="#3fb1a8" stroke-width="1.51"></path><path d="M449,96L423,-113L401,-23Z" fill="#2d9e93" stroke="#2d9e93" stroke-width="1.51"></path></svg>