<svg width="300" height="176" xmlns="http://www.w3.org/2000/svg"><path d="M-105,-81L-61,-94L45,-126Z" fill="#65dbcd" stroke="#65dbcd" stroke-width="1.51"></path><path d="M45,-126L218,-90L299,-92Z" fill="#48bbad" stroke="#48bbad" stroke-width="1.51"></path><path d="M270,283L157,289L333,300Z" fill="#0b8375" stroke="#0b8375" stroke-width="1.51"></path><path d="M45,-126L299,-92L391,-90Z" fill="#46b8aa" stroke="#46b8aa" stroke-width="1.51"></path><path d="M391,-90L355,-6L395,30Z" fill="#31a193" stroke="#31a193" stroke-width="1.51"></path><path d="M391,-90L395,30L442,198Z" fill="#1f9183" stroke="#1f9183" stroke-width="1.51"></path><path d="M313,173L430,234L442,198Z" fill="#0a8274" stroke="#0a8274" stroke-width="1.51"></path><path d="M396,121L313,173L442,198Z" fill="#0d8577" stroke="#0d8577" stroke-width="1.51"></path><path d="M395,30L396,121L442,198Z" fill="#0f8678" stroke="#0f8678" stroke-width="1.51"></path><path d="M313,173L333,300L430,234Z" fill="#098274" stroke="#098274" stroke-width="1.51"></path><path d="M45,-126L131,-91L218,-90Z" fill="#4cc0b2" stroke="#4cc0b2" stroke-width="1.51"></path><path d="M299,-92L355,-6L391,-90Z" fill="#3bac9d" stroke="#3bac9d" stroke-width="1.51"></path><path d="M355,-6L326,97L395,30Z" fill="#229586" stroke="#229586" stroke-width="1.51"></path><path d="M395,30L326,97L396,121Z" fill="#148b7d" stroke="#148b7d" stroke-width="1.51"></path><path d="M326,97L313,173L396,121Z" fill="#11887a" stroke="#11887a" stroke-width="1.51"></path><path d="M30,258L-111,280L157,289Z" fill="#2b9b8d" stroke="#2b9b8d" stroke-width="1.51"></path><path d="M313,173L270,283L333,300Z" fill="#0b8375" stroke="#0b8375" stroke-width="1.51"></path><path d="M299,-92L255,-32L355,-6Z" fill="#38a99b" stroke="#38a99b" stroke-width="1.51"></path><path d="M247,83L326,97L355,-6Z" fill="#1e9385" stroke="#1e9385" stroke-width="1.51"></path><path d="M255,-32L247,83L355,-6Z" fill="#2a9d8f" stroke="#2a9d8f" stroke-width="1.51"></path><path d="M247,192L270,283L313,173Z" fill="#0f8678" stroke="#0f8678" stroke-width="1.51"></path><path d="M247,83L313,173L326,97Z" fill="#138b7d" stroke="#138b7d" stroke-width="1.51"></path><path d="M247,83L247,192L313,173Z" fill="#138a7c" stroke="#138a7c" stroke-width="1.51"></path><path d="M218,-90L255,-32L299,-92Z" fill="#3fb1a3" stroke="#3fb1a3" stroke-width="1.51"></path><path d="M168,153L247,192L247,83Z" fill="#158d7f" stroke="#158d7f" stroke-width="1.51"></path><path d="M155,63L247,83L255,-32Z" fill="#269b8d" stroke="#269b8d" stroke-width="1.51"></path><path d="M138,6L155,63L255,-32Z" fill="#2ea294" stroke="#2ea294" stroke-width="1.51"></path><path d="M247,192L157,289L270,283Z" fill="#0f8678" stroke="#0f8678" stroke-width="1.51"></path><path d="M218,-90L138,6L255,-32Z" fill="#39ad9e" stroke="#39ad9e" stroke-width="1.51"></path><path d="M-14,256L-111,280L30,258Z" fill="#35a596" stroke="#35a596" stroke-width="1.51"></path><path d="M168,153L157,289L247,192Z" fill="#128a7c" stroke="#128a7c" stroke-width="1.51"></path><path d="M155,63L168,153L247,83Z" fill="#189183" stroke="#189183" stroke-width="1.51"></path><path d="M93,185L157,289L168,153Z" fill="#178d7f" stroke="#178d7f" stroke-width="1.51"></path><path d="M131,-91L138,6L218,-90Z" fill="#3fb2a4" stroke="#3fb2a4" stroke-width="1.51"></path><path d="M26,110L93,185L155,63Z" fill="#259a8c" stroke="#259a8c" stroke-width="1.51"></path><path d="M155,63L93,185L168,153Z" fill="#1b9284" stroke="#1b9284" stroke-width="1.51"></path><path d="M72,22L26,110L155,63Z" fill="#2da294" stroke="#2da294" stroke-width="1.51"></path><path d="M138,6L72,22L155,63Z" fill="#2fa496" stroke="#2fa496" stroke-width="1.51"></path><path d="M93,185L30,258L157,289Z" fill="#1f9284" stroke="#1f9284" stroke-width="1.51"></path><path d="M131,-91L72,22L138,6Z" fill="#3db0a2" stroke="#3db0a2" stroke-width="1.51"></path><path d="M45,-126L72,22L131,-91Z" fill="#4bbfb1" stroke="#4bbfb1" stroke-width="1.51"></path><path d="M45,-126L-17,-4L72,22Z" fill="#4dc0b2" stroke="#4dc0b2" stroke-width="1.51"></path><path d="M26,110L30,258L93,185Z" fill="#2a9d8f" stroke="#2a9d8f" stroke-width="1.51"></path><path d="M26,110L-63,188L30,258Z" fill="#33a597" stroke="#33a597" stroke-width="1.51"></path><path d="M-63,188L-14,256L30,258Z" fill="#34a496" stroke="#34a496" stroke-width="1.51"></path><path d="M-61,-94L-17,-4L45,-126Z" fill="#5bd0c2" stroke="#5bd0c2" stroke-width="1.51"></path><path d="M-11,79L26,110L72,22Z" fill="#35aa9c" stroke="#35aa9c" stroke-width="1.51"></path><path d="M-17,-4L-11,79L72,22Z" fill="#40b4a6" stroke="#40b4a6" stroke-width="1.51"></path><path d="M-11,79L-63,188L26,110Z" fill="#38ab9d" stroke="#38ab9d" stroke-width="1.51"></path><path d="M-61,-94L-105,-81L-17,-4Z" fill="#5fd5c7" stroke="#5fd5c7" stroke-width="1.51"></path><path d="M-137,112L-63,188L-11,79Z" fill="#40b3a5" stroke="#40b3a5" stroke-width="1.51"></path><path d="M-17,-4L-123,6L-11,79Z" fill="#4cbfb1" stroke="#4cbfb1" stroke-width="1.51"></path><path d="M-123,6L-137,112L-11,79Z" fill="#4abdaf" stroke="#4abdaf" stroke-width="1.51"></path><path d="M-105,-81L-123,6L-17,-4Z" fill="#5cd0c2" stroke="#5cd0c2" stroke-width="1.51"></path><path d="M-63,188L-111,280L-14,256Z" fill="#3bab9c" stroke="#3bab9c" stroke-width="1.51"></path><path d="M-141,170L-111,280L-63,188Z" fill="#42b3a5" stroke="#42b3a5" stroke-width="1.51"></path><path d="M-137,112L-141,170L-63,188Z" fill="#46b8aa" stroke="#46b8aa" stroke-width="1.51"></path></svg>