<svg width="300" height="176" xmlns="http://www.w3.org/2000/svg"><path d="M-55,-112L30,-90L162,-88Z" fill="#57d0ca" stroke="#57d0ca" stroke-width="1.51"></path><path d="M-55,-112L162,-88L206,-91Z" fill="#4ec6be" stroke="#4ec6be" stroke-width="1.51"></path><path d="M141,249L-52,287L312,265Z" fill="#158b7d" stroke="#158b7d" stroke-width="1.51"></path><path d="M312,265L-52,287L418,275Z" fill="#0d8577" stroke="#0d8577" stroke-width="1.51"></path><path d="M-52,287L-98,296L418,275Z" fill="#1e9184" stroke="#1e9184" stroke-width="1.51"></path><path d="M206,-91L337,-86L431,-94Z" fill="#41b5ac" stroke="#41b5ac" stroke-width="1.51"></path><path d="M-55,-112L206,-91L431,-94Z" fill="#46bcb4" stroke="#46bcb4" stroke-width="1.51"></path><path d="M338,-28L296,99L450,27Z" fill="#23978a" stroke="#23978a" stroke-width="1.51"></path><path d="M431,-94L338,-28L450,27Z" fill="#32a499" stroke="#32a499" stroke-width="1.51"></path><path d="M450,27L296,99L450,91Z" fill="#178c7e" stroke="#178c7e" stroke-width="1.51"></path><path d="M296,99L390,203L450,91Z" fill="#108779" stroke="#108779" stroke-width="1.51"></path><path d="M390,203L418,275L450,91Z" fill="#0a8274" stroke="#0a8274" stroke-width="1.51"></path><path d="M296,99L348,206L390,203Z" fill="#0f8678" stroke="#0f8678" stroke-width="1.51"></path><path d="M337,-86L338,-28L431,-94Z" fill="#3baea5" stroke="#3baea5" stroke-width="1.51"></path><path d="M390,203L348,206L418,275Z" fill="#098173" stroke="#098173" stroke-width="1.51"></path><path d="M348,206L312,265L418,275Z" fill="#088173" stroke="#088173" stroke-width="1.51"></path><path d="M30,254L-52,287L141,249Z" fill="#289b8f" stroke="#289b8f" stroke-width="1.51"></path><path d="M237,238L141,249L312,265Z" fill="#0e8678" stroke="#0e8678" stroke-width="1.51"></path><path d="M242,24L296,99L338,-28Z" fill="#269a8d" stroke="#269a8d" stroke-width="1.51"></path><path d="M296,99L242,159L348,206Z" fill="#11897b" stroke="#11897b" stroke-width="1.51"></path><path d="M237,238L312,265L348,206Z" fill="#0d8476" stroke="#0d8476" stroke-width="1.51"></path><path d="M242,159L237,238L348,206Z" fill="#108779" stroke="#108779" stroke-width="1.51"></path><path d="M337,-86L206,-91L338,-28Z" fill="#3db1a7" stroke="#3db1a7" stroke-width="1.51"></path><path d="M206,-91L242,24L338,-28Z" fill="#36aa9f" stroke="#36aa9f" stroke-width="1.51"></path><path d="M242,24L226,87L296,99Z" fill="#1c9285" stroke="#1c9285" stroke-width="1.51"></path><path d="M226,87L242,159L296,99Z" fill="#158d7f" stroke="#158d7f" stroke-width="1.51"></path><path d="M206,-91L162,-88L242,24Z" fill="#3cb1a7" stroke="#3cb1a7" stroke-width="1.51"></path><path d="M162,-88L122,29L242,24Z" fill="#33a99e" stroke="#33a99e" stroke-width="1.51"></path><path d="M143,76L226,87L242,24Z" fill="#209789" stroke="#209789" stroke-width="1.51"></path><path d="M122,29L143,76L242,24Z" fill="#269c8f" stroke="#269c8f" stroke-width="1.51"></path><path d="M226,87L143,76L242,159Z" fill="#179082" stroke="#179082" stroke-width="1.51"></path><path d="M143,76L166,209L242,159Z" fill="#168e80" stroke="#168e80" stroke-width="1.51"></path><path d="M166,209L237,238L242,159Z" fill="#128a7c" stroke="#128a7c" stroke-width="1.51"></path><path d="M166,209L141,249L237,238Z" fill="#12897b" stroke="#12897b" stroke-width="1.51"></path><path d="M143,76L92,190L166,209Z" fill="#1a9184" stroke="#1a9184" stroke-width="1.51"></path><path d="M64,97L92,190L143,76Z" fill="#23998c" stroke="#23998c" stroke-width="1.51"></path><path d="M89,12L122,29L162,-88Z" fill="#39afa4" stroke="#39afa4" stroke-width="1.51"></path><path d="M30,-90L89,12L162,-88Z" fill="#47beb5" stroke="#47beb5" stroke-width="1.51"></path><path d="M92,190L141,249L166,209Z" fill="#188e80" stroke="#188e80" stroke-width="1.51"></path><path d="M122,29L64,97L143,76Z" fill="#289e92" stroke="#289e92" stroke-width="1.51"></path><path d="M92,190L30,254L141,249Z" fill="#219588" stroke="#219588" stroke-width="1.51"></path><path d="M89,12L64,97L122,29Z" fill="#30a69a" stroke="#30a69a" stroke-width="1.51"></path><path d="M30,-90L-49,0L89,12Z" fill="#4bc2ba" stroke="#4bc2ba" stroke-width="1.51"></path><path d="M2,65L64,97L89,12Z" fill="#34aa9f" stroke="#34aa9f" stroke-width="1.51"></path><path d="M64,97L-34,193L92,190Z" fill="#2ca195" stroke="#2ca195" stroke-width="1.51"></path><path d="M-34,193L30,254L92,190Z" fill="#2ca094" stroke="#2ca094" stroke-width="1.51"></path><path d="M-49,0L2,65L89,12Z" fill="#42b8ae" stroke="#42b8ae" stroke-width="1.51"></path><path d="M2,65L-34,193L64,97Z" fill="#33a89d" stroke="#33a89d" stroke-width="1.51"></path><path d="M-89,152L-34,193L2,65Z" fill="#3bafa5" stroke="#3bafa5" stroke-width="1.51"></path><path d="M-55,-112L-49,0L30,-90Z" fill="#5cd5cf" stroke="#5cd5cf" stroke-width="1.51"></path><path d="M-34,193L-52,287L30,254Z" fill="#33a69b" stroke="#33a69b" stroke-width="1.51"></path><path d="M-49,0L-95,67L2,65Z" fill="#47beb6" stroke="#47beb6" stroke-width="1.51"></path><path d="M-95,67L-89,152L2,65Z" fill="#3fb5ac" stroke="#3fb5ac" stroke-width="1.51"></path><path d="M-122,-114L-104,0L-55,-112Z" fill="#68e3df" stroke="#68e3df" stroke-width="1.51"></path><path d="M-55,-112L-104,0L-49,0Z" fill="#5cd5cf" stroke="#5cd5cf" stroke-width="1.51"></path><path d="M-98,296L-52,287L-34,193Z" fill="#39aba2" stroke="#39aba2" stroke-width="1.51"></path><path d="M-89,152L-98,296L-34,193Z" fill="#3db0a7" stroke="#3db0a7" stroke-width="1.51"></path><path d="M-104,0L-95,67L-49,0Z" fill="#51c9c2" stroke="#51c9c2" stroke-width="1.51"></path><path d="M-95,67L-98,296L-89,152Z" fill="#42b6ad" stroke="#42b6ad" stroke-width="1.51"></path><path d="M-104,0L-122,-114L-98,296Z" fill="#4dc5bd" stroke="#4dc5bd" stroke-width="1.51"></path><path d="M-104,0L-98,296L-95,67Z" fill="#44bbb1" stroke="#44bbb1" stroke-width="1.51"></path></svg>