<svg width="300" height="176" xmlns="http://www.w3.org/2000/svg"><path d="M163,95L137,-23L92,72Z" fill="#3bb1a7" stroke="#3bb1a7" stroke-width="1.51"></path><path d="M163,95L236,5L137,-23Z" fill="#40b5ac" stroke="#40b5ac" stroke-width="1.51"></path><path d="M137,-23L56,-21L92,72Z" fill="#5cd6d0" stroke="#5cd6d0" stroke-width="1.51"></path><path d="M163,95L242,97L236,5Z" fill="#269a8e" stroke="#269a8e" stroke-width="1.51"></path><path d="M54,199L176,200L163,95Z" fill="#1a8e81" stroke="#1a8e81" stroke-width="1.51"></path><path d="M56,-21L0,69L92,72Z" fill="#5ad3cd" stroke="#5ad3cd" stroke-width="1.51"></path><path d="M137,-23L53,-107L56,-21Z" fill="#65e1dd" stroke="#65e1dd" stroke-width="1.51"></path><path d="M236,5L207,-97L137,-23Z" fill="#4dc3bc" stroke="#4dc3bc" stroke-width="1.51"></path><path d="M207,-97L162,-123L137,-23Z" fill="#4fc6bf" stroke="#4fc6bf" stroke-width="1.51"></path><path d="M163,95L176,200L242,97Z" fill="#11887a" stroke="#11887a" stroke-width="1.51"></path><path d="M54,199L163,95L92,72Z" fill="#299e92" stroke="#299e92" stroke-width="1.51"></path><path d="M56,-21L-54,3L0,69Z" fill="#76f3f2" stroke="#76f3f2" stroke-width="1.51"></path><path d="M162,-123L53,-107L137,-23Z" fill="#5ad4cd" stroke="#5ad4cd" stroke-width="1.51"></path><path d="M242,97L305,91L236,5Z" fill="#24978b" stroke="#24978b" stroke-width="1.51"></path><path d="M236,5L328,-73L207,-97Z" fill="#4abeb6" stroke="#4abeb6" stroke-width="1.51"></path><path d="M270,171L305,91L242,97Z" fill="#0c8476" stroke="#0c8476" stroke-width="1.51"></path><path d="M305,91L322,16L236,5Z" fill="#33a59a" stroke="#33a59a" stroke-width="1.51"></path><path d="M0,69L54,199L92,72Z" fill="#3db2a8" stroke="#3db2a8" stroke-width="1.51"></path><path d="M176,200L270,171L242,97Z" fill="#0a8274" stroke="#0a8274" stroke-width="1.51"></path><path d="M-34,-72L-54,3L56,-21Z" fill="#7fffff" stroke="#7fffff" stroke-width="1.51"></path><path d="M0,69L-43,188L54,199Z" fill="#48bcb5" stroke="#48bcb5" stroke-width="1.51"></path><path d="M53,-107L-34,-72L56,-21Z" fill="#77f5f4" stroke="#77f5f4" stroke-width="1.51"></path><path d="M271,293L313,198L270,171Z" fill="#017a6c" stroke="#017a6c" stroke-width="1.51"></path><path d="M54,199L75,236L176,200Z" fill="#24968a" stroke="#24968a" stroke-width="1.51"></path><path d="M75,236L130,250L176,200Z" fill="#1a8e81" stroke="#1a8e81" stroke-width="1.51"></path><path d="M322,16L328,-73L236,5Z" fill="#48bab3" stroke="#48bab3" stroke-width="1.51"></path><path d="M207,-97L452,-121L162,-123Z" fill="#49bcb4" stroke="#49bcb4" stroke-width="1.51"></path><path d="M270,171L313,198L305,91Z" fill="#047d6f" stroke="#047d6f" stroke-width="1.51"></path><path d="M419,86L420,26L322,16Z" fill="#2fa095" stroke="#2fa095" stroke-width="1.51"></path><path d="M322,16L420,26L328,-73Z" fill="#47bab2" stroke="#47bab2" stroke-width="1.51"></path><path d="M271,293L270,171L176,200Z" fill="#067e70" stroke="#067e70" stroke-width="1.51"></path><path d="M54,199L-37,268L75,236Z" fill="#3eafa6" stroke="#3eafa6" stroke-width="1.51"></path><path d="M-116,115L-43,188L0,69Z" fill="#4cc2ba" stroke="#4cc2ba" stroke-width="1.51"></path><path d="M-150,16L-116,115L-54,3Z" fill="#67e3df" stroke="#67e3df" stroke-width="1.51"></path><path d="M-54,3L-116,115L0,69Z" fill="#5dd7d2" stroke="#5dd7d2" stroke-width="1.51"></path><path d="M313,198L397,147L305,91Z" fill="#057d6f" stroke="#057d6f" stroke-width="1.51"></path><path d="M419,86L322,16L305,91Z" fill="#219487" stroke="#219487" stroke-width="1.51"></path><path d="M397,147L419,86L305,91Z" fill="#0b8375" stroke="#0b8375" stroke-width="1.51"></path><path d="M-37,268L271,293L130,250Z" fill="#1d9083" stroke="#1d9083" stroke-width="1.51"></path><path d="M130,250L271,293L176,200Z" fill="#0a8274" stroke="#0a8274" stroke-width="1.51"></path><path d="M313,198L420,258L397,147Z" fill="#00796b" stroke="#00796b" stroke-width="1.51"></path><path d="M-137,195L-37,268L-43,188Z" fill="#47bab2" stroke="#47bab2" stroke-width="1.51"></path><path d="M-43,188L-37,268L54,199Z" fill="#47bab2" stroke="#47bab2" stroke-width="1.51"></path><path d="M75,236L-37,268L130,250Z" fill="#35a69c" stroke="#35a69c" stroke-width="1.51"></path><path d="M-142,-77L-150,16L-54,3Z" fill="#7fffff" stroke="#7fffff" stroke-width="1.51"></path><path d="M-34,-72L-142,-77L-54,3Z" fill="#7fffff" stroke="#7fffff" stroke-width="1.51"></path><path d="M53,-107L-142,-77L-34,-72Z" fill="#7fffff" stroke="#7fffff" stroke-width="1.51"></path><path d="M-116,115L-137,195L-43,188Z" fill="#48bbb4" stroke="#48bbb4" stroke-width="1.51"></path><path d="M-150,16L-137,195L-116,115Z" fill="#4ec5bd" stroke="#4ec5bd" stroke-width="1.51"></path><path d="M271,293L352,283L313,198Z" fill="#00796b" stroke="#00796b" stroke-width="1.51"></path><path d="M397,147L420,258L419,86Z" fill="#027b6d" stroke="#027b6d" stroke-width="1.51"></path><path d="M420,26L452,-121L328,-73Z" fill="#47bab2" stroke="#47bab2" stroke-width="1.51"></path><path d="M328,-73L452,-121L207,-97Z" fill="#47bab2" stroke="#47bab2" stroke-width="1.51"></path><path d="M419,86L452,-121L420,26Z" fill="#47bab2" stroke="#47bab2" stroke-width="1.51"></path><path d="M419,86L420,258L452,-121Z" fill="#1a8e81" stroke="#1a8e81" stroke-width="1.51"></path><path d="M352,283L420,258L313,198Z" fill="#00796b" stroke="#00796b" stroke-width="1.51"></path><path d="M-137,195L-145,297L-37,268Z" fill="#47bab2" stroke="#47bab2" stroke-width="1.51"></path><path d="M-37,268L-145,297L271,293Z" fill="#3dafa6" stroke="#3dafa6" stroke-width="1.51"></path><path d="M-150,16L-145,297L-137,195Z" fill="#48bbb3" stroke="#48bbb3" stroke-width="1.51"></path></svg>