<svg width="300" height="176" xmlns="http://www.w3.org/2000/svg"><path d="M179,263L-34,263L271,298Z" fill="#14897b" stroke="#14897b" stroke-width="1.51"></path><path d="M-34,263L-149,292L271,298Z" fill="#2a9a8b" stroke="#2a9a8b" stroke-width="1.51"></path><path d="M-139,-91L-12,-85L393,-113Z" fill="#52c6b8" stroke="#52c6b8" stroke-width="1.51"></path><path d="M218,-80L341,-95L393,-113Z" fill="#43b4a6" stroke="#43b4a6" stroke-width="1.51"></path><path d="M40,-82L218,-80L393,-113Z" fill="#44b7a9" stroke="#44b7a9" stroke-width="1.51"></path><path d="M-12,-85L40,-82L393,-113Z" fill="#48bcae" stroke="#48bcae" stroke-width="1.51"></path><path d="M418,-26L319,-8L436,92Z" fill="#26988a" stroke="#26988a" stroke-width="1.51"></path><path d="M319,-8L338,117L436,92Z" fill="#198e80" stroke="#198e80" stroke-width="1.51"></path><path d="M436,92L352,144L440,181Z" fill="#0e8577" stroke="#0e8577" stroke-width="1.51"></path><path d="M352,144L314,293L440,181Z" fill="#0b8375" stroke="#0b8375" stroke-width="1.51"></path><path d="M440,181L314,293L445,266Z" fill="#077f71" stroke="#077f71" stroke-width="1.51"></path><path d="M338,117L352,144L436,92Z" fill="#10887a" stroke="#10887a" stroke-width="1.51"></path><path d="M393,-113L341,-95L418,-26Z" fill="#3ead9f" stroke="#3ead9f" stroke-width="1.51"></path><path d="M341,-95L319,-8L418,-26Z" fill="#36a799" stroke="#36a799" stroke-width="1.51"></path><path d="M67,245L-34,263L179,263Z" fill="#239587" stroke="#239587" stroke-width="1.51"></path><path d="M248,210L314,293L352,144Z" fill="#0d8577" stroke="#0d8577" stroke-width="1.51"></path><path d="M266,-17L234,117L319,-8Z" fill="#279a8c" stroke="#279a8c" stroke-width="1.51"></path><path d="M319,-8L234,117L338,117Z" fill="#198f81" stroke="#198f81" stroke-width="1.51"></path><path d="M266,-17L319,-8L341,-95Z" fill="#37a89a" stroke="#37a89a" stroke-width="1.51"></path><path d="M338,117L248,210L352,144Z" fill="#11887a" stroke="#11887a" stroke-width="1.51"></path><path d="M234,117L248,210L338,117Z" fill="#138a7c" stroke="#138a7c" stroke-width="1.51"></path><path d="M218,-80L266,-17L341,-95Z" fill="#3dafa1" stroke="#3dafa1" stroke-width="1.51"></path><path d="M248,210L271,298L314,293Z" fill="#0c8375" stroke="#0c8375" stroke-width="1.51"></path><path d="M40,-82L149,-61L218,-80Z" fill="#45b8aa" stroke="#45b8aa" stroke-width="1.51"></path><path d="M141,-10L122,75L234,117Z" fill="#22988a" stroke="#22988a" stroke-width="1.51"></path><path d="M234,117L168,172L248,210Z" fill="#148b7d" stroke="#148b7d" stroke-width="1.51"></path><path d="M141,-10L234,117L266,-17Z" fill="#299d8f" stroke="#299d8f" stroke-width="1.51"></path><path d="M248,210L179,263L271,298Z" fill="#0e8577" stroke="#0e8577" stroke-width="1.51"></path><path d="M218,-80L141,-10L266,-17Z" fill="#39ab9d" stroke="#39ab9d" stroke-width="1.51"></path><path d="M149,-61L141,-10L218,-80Z" fill="#3db0a2" stroke="#3db0a2" stroke-width="1.51"></path><path d="M168,172L179,263L248,210Z" fill="#12897b" stroke="#12897b" stroke-width="1.51"></path><path d="M122,75L168,172L234,117Z" fill="#189082" stroke="#189082" stroke-width="1.51"></path><path d="M168,172L67,245L179,263Z" fill="#168d7f" stroke="#168d7f" stroke-width="1.51"></path><path d="M122,75L30,150L168,172Z" fill="#219789" stroke="#219789" stroke-width="1.51"></path><path d="M30,150L67,245L168,172Z" fill="#239688" stroke="#239688" stroke-width="1.51"></path><path d="M52,87L30,150L122,75Z" fill="#2a9e90" stroke="#2a9e90" stroke-width="1.51"></path><path d="M54,7L122,75L141,-10Z" fill="#34a89a" stroke="#34a89a" stroke-width="1.51"></path><path d="M40,-82L54,7L141,-10Z" fill="#44b7a9" stroke="#44b7a9" stroke-width="1.51"></path><path d="M40,-82L141,-10L149,-61Z" fill="#44b7a9" stroke="#44b7a9" stroke-width="1.51"></path><path d="M54,7L52,87L122,75Z" fill="#31a597" stroke="#31a597" stroke-width="1.51"></path><path d="M40,-82L-12,-85L54,7Z" fill="#51c5b7" stroke="#51c5b7" stroke-width="1.51"></path><path d="M-12,-85L-18,19L54,7Z" fill="#4dc0b2" stroke="#4dc0b2" stroke-width="1.51"></path><path d="M-7,80L52,87L54,7Z" fill="#38ab9d" stroke="#38ab9d" stroke-width="1.51"></path><path d="M-18,19L-7,80L54,7Z" fill="#41b4a6" stroke="#41b4a6" stroke-width="1.51"></path><path d="M30,150L-28,205L67,245Z" fill="#2ea092" stroke="#2ea092" stroke-width="1.51"></path><path d="M-28,205L-34,263L67,245Z" fill="#30a193" stroke="#30a193" stroke-width="1.51"></path><path d="M-7,80L30,150L52,87Z" fill="#31a597" stroke="#31a597" stroke-width="1.51"></path><path d="M-7,80L-28,205L30,150Z" fill="#34a799" stroke="#34a799" stroke-width="1.51"></path><path d="M-91,24L-18,19L-12,-85Z" fill="#53c7b9" stroke="#53c7b9" stroke-width="1.51"></path><path d="M-139,-91L-91,24L-12,-85Z" fill="#61d6c8" stroke="#61d6c8" stroke-width="1.51"></path><path d="M-99,187L-28,205L-7,80Z" fill="#3bad9f" stroke="#3bad9f" stroke-width="1.51"></path><path d="M-123,120L-99,187L-7,80Z" fill="#41b4a6" stroke="#41b4a6" stroke-width="1.51"></path><path d="M-18,19L-91,24L-7,80Z" fill="#47baac" stroke="#47baac" stroke-width="1.51"></path><path d="M-91,24L-123,120L-7,80Z" fill="#45b9ab" stroke="#45b9ab" stroke-width="1.51"></path><path d="M-99,187L-34,263L-28,205Z" fill="#3aab9d" stroke="#3aab9d" stroke-width="1.51"></path><path d="M-99,187L-149,292L-34,263Z" fill="#3fafa1" stroke="#3fafa1" stroke-width="1.51"></path><path d="M-139,-91L-123,120L-91,24Z" fill="#58cdbe" stroke="#58cdbe" stroke-width="1.51"></path><path d="M-123,120L-149,292L-99,187Z" fill="#46b7a9" stroke="#46b7a9" stroke-width="1.51"></path><path d="M-139,-91L-149,292L-123,120Z" fill="#4bbfb1" stroke="#4bbfb1" stroke-width="1.51"></path></svg>