<svg width="300" height="176" xmlns="http://www.w3.org/2000/svg"><path d="M159,91L75,112L157,157Z" fill="#1f9587" stroke="#1f9587" stroke-width="1.51"></path><path d="M75,112L67,166L157,157Z" fill="#299c90" stroke="#299c90" stroke-width="1.51"></path><path d="M157,157L236,155L159,91Z" fill="#11897b" stroke="#11897b" stroke-width="1.51"></path><path d="M227,242L236,155L157,157Z" fill="#088173" stroke="#088173" stroke-width="1.51"></path><path d="M67,166L157,249L157,157Z" fill="#1a8e81" stroke="#1a8e81" stroke-width="1.51"></path><path d="M236,155L253,109L159,91Z" fill="#11887a" stroke="#11887a" stroke-width="1.51"></path><path d="M215,-16L155,-13L159,91Z" fill="#43b9af" stroke="#43b9af" stroke-width="1.51"></path><path d="M159,91L155,-13L75,112Z" fill="#33a89d" stroke="#33a89d" stroke-width="1.51"></path><path d="M67,166L62,289L157,249Z" fill="#27988d" stroke="#27988d" stroke-width="1.51"></path><path d="M75,112L-14,162L67,166Z" fill="#3cafa6" stroke="#3cafa6" stroke-width="1.51"></path><path d="M-58,79L-14,162L75,112Z" fill="#4cc2bb" stroke="#4cc2bb" stroke-width="1.51"></path><path d="M155,-13L30,1L75,112Z" fill="#52cac3" stroke="#52cac3" stroke-width="1.51"></path><path d="M236,155L308,113L253,109Z" fill="#0b8375" stroke="#0b8375" stroke-width="1.51"></path><path d="M157,249L227,242L157,157Z" fill="#0c8375" stroke="#0c8375" stroke-width="1.51"></path><path d="M253,109L215,-16L159,91Z" fill="#299e91" stroke="#299e91" stroke-width="1.51"></path><path d="M157,249L62,289L227,242Z" fill="#0f8678" stroke="#0f8678" stroke-width="1.51"></path><path d="M-31,247L62,289L67,166Z" fill="#3caea5" stroke="#3caea5" stroke-width="1.51"></path><path d="M30,1L-58,79L75,112Z" fill="#57d1cb" stroke="#57d1cb" stroke-width="1.51"></path><path d="M253,109L296,7L215,-16Z" fill="#37aaa0" stroke="#37aaa0" stroke-width="1.51"></path><path d="M332,161L308,113L236,155Z" fill="#067e70" stroke="#067e70" stroke-width="1.51"></path><path d="M-14,162L-31,247L67,166Z" fill="#45b7af" stroke="#45b7af" stroke-width="1.51"></path><path d="M-97,248L-31,247L-14,162Z" fill="#47bab2" stroke="#47bab2" stroke-width="1.51"></path><path d="M308,113L296,7L253,109Z" fill="#198e80" stroke="#198e80" stroke-width="1.51"></path><path d="M298,248L332,161L236,155Z" fill="#017a6c" stroke="#017a6c" stroke-width="1.51"></path><path d="M308,113L405,4L296,7Z" fill="#30a196" stroke="#30a196" stroke-width="1.51"></path><path d="M30,1L-63,15L-58,79Z" fill="#6eebe8" stroke="#6eebe8" stroke-width="1.51"></path><path d="M227,242L298,248L236,155Z" fill="#047d6f" stroke="#047d6f" stroke-width="1.51"></path><path d="M62,289L298,248L227,242Z" fill="#0a8274" stroke="#0a8274" stroke-width="1.51"></path><path d="M155,-13L60,-124L30,1Z" fill="#65e1dd" stroke="#65e1dd" stroke-width="1.51"></path><path d="M30,1L-37,-75L-63,15Z" fill="#7fffff" stroke="#7fffff" stroke-width="1.51"></path><path d="M215,-16L178,-96L155,-13Z" fill="#4ec5bd" stroke="#4ec5bd" stroke-width="1.51"></path><path d="M208,-114L178,-96L215,-16Z" fill="#4dc3bb" stroke="#4dc3bb" stroke-width="1.51"></path><path d="M-63,15L-116,113L-58,79Z" fill="#5ad3cd" stroke="#5ad3cd" stroke-width="1.51"></path><path d="M-58,79L-116,113L-14,162Z" fill="#4dc3bb" stroke="#4dc3bb" stroke-width="1.51"></path><path d="M60,-124L-37,-75L30,1Z" fill="#79f8f7" stroke="#79f8f7" stroke-width="1.51"></path><path d="M340,-99L208,-114L215,-16Z" fill="#4abeb6" stroke="#4abeb6" stroke-width="1.51"></path><path d="M-31,247L-97,248L62,289Z" fill="#47bab2" stroke="#47bab2" stroke-width="1.51"></path><path d="M-116,113L-97,248L-14,162Z" fill="#47bab2" stroke="#47bab2" stroke-width="1.51"></path><path d="M60,-124L155,-13L178,-96Z" fill="#56cfc8" stroke="#56cfc8" stroke-width="1.51"></path><path d="M-118,-13L-151,148L-116,113Z" fill="#53cbc4" stroke="#53cbc4" stroke-width="1.51"></path><path d="M208,-114L60,-124L178,-96Z" fill="#50c8c1" stroke="#50c8c1" stroke-width="1.51"></path><path d="M-118,-13L-116,113L-63,15Z" fill="#6be7e3" stroke="#6be7e3" stroke-width="1.51"></path><path d="M-116,113L-151,148L-97,248Z" fill="#48bbb3" stroke="#48bbb3" stroke-width="1.51"></path><path d="M-93,-61L-118,-13L-63,15Z" fill="#7fffff" stroke="#7fffff" stroke-width="1.51"></path><path d="M-37,-75L-93,-61L-63,15Z" fill="#7fffff" stroke="#7fffff" stroke-width="1.51"></path><path d="M60,-124L-93,-61L-37,-75Z" fill="#7fffff" stroke="#7fffff" stroke-width="1.51"></path><path d="M389,279L415,185L332,161Z" fill="#00796b" stroke="#00796b" stroke-width="1.51"></path><path d="M332,161L427,75L308,113Z" fill="#0a8274" stroke="#0a8274" stroke-width="1.51"></path><path d="M296,7L340,-99L215,-16Z" fill="#48bbb4" stroke="#48bbb4" stroke-width="1.51"></path><path d="M427,75L405,4L308,113Z" fill="#219487" stroke="#219487" stroke-width="1.51"></path><path d="M415,185L427,75L332,161Z" fill="#067e70" stroke="#067e70" stroke-width="1.51"></path><path d="M62,289L389,279L298,248Z" fill="#047d6f" stroke="#047d6f" stroke-width="1.51"></path><path d="M298,248L389,279L332,161Z" fill="#00796b" stroke="#00796b" stroke-width="1.51"></path><path d="M405,4L340,-99L296,7Z" fill="#47bab2" stroke="#47bab2" stroke-width="1.51"></path><path d="M405,4L392,-124L340,-99Z" fill="#47bab2" stroke="#47bab2" stroke-width="1.51"></path><path d="M340,-99L392,-124L208,-114Z" fill="#47bab2" stroke="#47bab2" stroke-width="1.51"></path><path d="M208,-114L392,-124L60,-124Z" fill="#4cc1ba" stroke="#4cc1ba" stroke-width="1.51"></path><path d="M427,75L392,-124L405,4Z" fill="#47bab2" stroke="#47bab2" stroke-width="1.51"></path></svg>