<svg width="300" height="176" xmlns="http://www.w3.org/2000/svg"><path d="M-44,256L-101,248L169,299Z" fill="#2d9f94" stroke="#2d9f94" stroke-width="1.51"></path><path d="M67,273L-44,256L169,299Z" fill="#23968a" stroke="#23968a" stroke-width="1.51"></path><path d="M136,-117L271,-104L399,-98Z" fill="#46bbb3" stroke="#46bbb3" stroke-width="1.51"></path><path d="M358,234L226,262L425,282Z" fill="#098173" stroke="#098173" stroke-width="1.51"></path><path d="M226,262L169,299L425,282Z" fill="#0b8375" stroke="#0b8375" stroke-width="1.51"></path><path d="M410,62L361,163L428,205Z" fill="#0e8577" stroke="#0e8577" stroke-width="1.51"></path><path d="M358,234L425,282L428,205Z" fill="#077f71" stroke="#077f71" stroke-width="1.51"></path><path d="M328,-33L410,62L446,-15Z" fill="#299c90" stroke="#299c90" stroke-width="1.51"></path><path d="M399,-98L328,-33L446,-15Z" fill="#36a89e" stroke="#36a89e" stroke-width="1.51"></path><path d="M410,62L428,205L446,-15Z" fill="#11887a" stroke="#11887a" stroke-width="1.51"></path><path d="M428,205L425,282L446,-15Z" fill="#0b8375" stroke="#0b8375" stroke-width="1.51"></path><path d="M321,89L361,163L410,62Z" fill="#11897b" stroke="#11897b" stroke-width="1.51"></path><path d="M361,163L358,234L428,205Z" fill="#0b8375" stroke="#0b8375" stroke-width="1.51"></path><path d="M328,-33L321,89L410,62Z" fill="#219589" stroke="#219589" stroke-width="1.51"></path><path d="M271,-104L309,-63L399,-98Z" fill="#41b4ab" stroke="#41b4ab" stroke-width="1.51"></path><path d="M309,-63L328,-33L399,-98Z" fill="#3baea4" stroke="#3baea4" stroke-width="1.51"></path><path d="M261,84L321,89L328,-33Z" fill="#219689" stroke="#219689" stroke-width="1.51"></path><path d="M271,150L358,234L361,163Z" fill="#0e8678" stroke="#0e8678" stroke-width="1.51"></path><path d="M321,89L271,150L361,163Z" fill="#11897b" stroke="#11897b" stroke-width="1.51"></path><path d="M271,150L226,262L358,234Z" fill="#0e8678" stroke="#0e8678" stroke-width="1.51"></path><path d="M261,84L271,150L321,89Z" fill="#148c7e" stroke="#148c7e" stroke-width="1.51"></path><path d="M309,-63L220,-22L328,-33Z" fill="#37aba0" stroke="#37aba0" stroke-width="1.51"></path><path d="M220,-22L261,84L328,-33Z" fill="#2ca094" stroke="#2ca094" stroke-width="1.51"></path><path d="M271,-104L220,-22L309,-63Z" fill="#3db1a7" stroke="#3db1a7" stroke-width="1.51"></path><path d="M220,-22L147,60L261,84Z" fill="#269b8e" stroke="#269b8e" stroke-width="1.51"></path><path d="M136,-117L220,-22L271,-104Z" fill="#42b8ae" stroke="#42b8ae" stroke-width="1.51"></path><path d="M153,207L226,262L271,150Z" fill="#11897b" stroke="#11897b" stroke-width="1.51"></path><path d="M261,84L147,60L271,150Z" fill="#178f81" stroke="#178f81" stroke-width="1.51"></path><path d="M147,60L153,207L271,150Z" fill="#168e80" stroke="#168e80" stroke-width="1.51"></path><path d="M136,-117L148,1L220,-22Z" fill="#3bb1a7" stroke="#3bb1a7" stroke-width="1.51"></path><path d="M148,1L147,60L220,-22Z" fill="#2da397" stroke="#2da397" stroke-width="1.51"></path><path d="M153,207L169,299L226,262Z" fill="#108879" stroke="#108879" stroke-width="1.51"></path><path d="M41,80L49,198L147,60Z" fill="#279d90" stroke="#279d90" stroke-width="1.51"></path><path d="M136,-117L71,-120L148,1Z" fill="#48bfb7" stroke="#48bfb7" stroke-width="1.51"></path><path d="M147,60L49,198L153,207Z" fill="#1e9487" stroke="#1e9487" stroke-width="1.51"></path><path d="M153,207L67,273L169,299Z" fill="#168c7e" stroke="#168c7e" stroke-width="1.51"></path><path d="M71,-120L37,21L148,1Z" fill="#43bab1" stroke="#43bab1" stroke-width="1.51"></path><path d="M37,21L147,60L148,1Z" fill="#32a79b" stroke="#32a79b" stroke-width="1.51"></path><path d="M49,198L67,273L153,207Z" fill="#209588" stroke="#209588" stroke-width="1.51"></path><path d="M37,21L41,80L147,60Z" fill="#32a79c" stroke="#32a79c" stroke-width="1.51"></path><path d="M41,80L-17,119L49,198Z" fill="#30a59a" stroke="#30a59a" stroke-width="1.51"></path><path d="M49,198L-44,256L67,273Z" fill="#2c9f93" stroke="#2c9f93" stroke-width="1.51"></path><path d="M-15,-24L37,21L71,-120Z" fill="#4ec5bd" stroke="#4ec5bd" stroke-width="1.51"></path><path d="M-48,-103L-15,-24L71,-120Z" fill="#5bd4ce" stroke="#5bd4ce" stroke-width="1.51"></path><path d="M-17,119L-33,180L49,198Z" fill="#32a79c" stroke="#32a79c" stroke-width="1.51"></path><path d="M-33,180L-44,256L49,198Z" fill="#32a69b" stroke="#32a69b" stroke-width="1.51"></path><path d="M-15,-24L-17,119L37,21Z" fill="#41b7ad" stroke="#41b7ad" stroke-width="1.51"></path><path d="M37,21L-17,119L41,80Z" fill="#36aca0" stroke="#36aca0" stroke-width="1.51"></path><path d="M-131,24L-151,55L-17,119Z" fill="#4ac2ba" stroke="#4ac2ba" stroke-width="1.51"></path><path d="M-48,-103L-136,-77L-15,-24Z" fill="#62dcd7" stroke="#62dcd7" stroke-width="1.51"></path><path d="M-136,-77L-131,24L-15,-24Z" fill="#5dd7d1" stroke="#5dd7d1" stroke-width="1.51"></path><path d="M-131,24L-17,119L-15,-24Z" fill="#49c0b8" stroke="#49c0b8" stroke-width="1.51"></path><path d="M-154,171L-33,180L-17,119Z" fill="#3eb3a9" stroke="#3eb3a9" stroke-width="1.51"></path><path d="M-151,55L-154,171L-17,119Z" fill="#46bcb4" stroke="#46bcb4" stroke-width="1.51"></path><path d="M-101,248L-44,256L-33,180Z" fill="#3aaea4" stroke="#3aaea4" stroke-width="1.51"></path><path d="M-154,171L-101,248L-33,180Z" fill="#41b5ac" stroke="#41b5ac" stroke-width="1.51"></path><path d="M-136,-77L-151,55L-131,24Z" fill="#5ed9d4" stroke="#5ed9d4" stroke-width="1.51"></path></svg>