<svg width="300" height="176" xmlns="http://www.w3.org/2000/svg"><path d="M163,97L262,65L214,-24Z" fill="#249a8d" stroke="#249a8d" stroke-width="1.51"></path><path d="M214,-24L155,-22L163,97Z" fill="#2da296" stroke="#2da296" stroke-width="1.51"></path><path d="M262,65L303,-11L214,-24Z" fill="#2ca095" stroke="#2ca095" stroke-width="1.51"></path><path d="M262,65L318,89L303,-11Z" fill="#219689" stroke="#219689" stroke-width="1.51"></path><path d="M247,206L318,89L262,65Z" fill="#148c7e" stroke="#148c7e" stroke-width="1.51"></path><path d="M214,-24L183,-88L155,-22Z" fill="#3bb0a6" stroke="#3bb0a6" stroke-width="1.51"></path><path d="M255,-77L183,-88L214,-24Z" fill="#3eb3a9" stroke="#3eb3a9" stroke-width="1.51"></path><path d="M303,-11L255,-77L214,-24Z" fill="#37aba1" stroke="#37aba1" stroke-width="1.51"></path><path d="M155,-22L78,-9L163,97Z" fill="#2fa599" stroke="#2fa599" stroke-width="1.51"></path><path d="M63,-112L78,-9L155,-22Z" fill="#44bbb2" stroke="#44bbb2" stroke-width="1.51"></path><path d="M78,-9L37,65L163,97Z" fill="#2fa599" stroke="#2fa599" stroke-width="1.51"></path><path d="M151,208L247,206L163,97Z" fill="#158c7e" stroke="#158c7e" stroke-width="1.51"></path><path d="M163,97L247,206L262,65Z" fill="#168e80" stroke="#168e80" stroke-width="1.51"></path><path d="M56,189L151,208L163,97Z" fill="#1c9385" stroke="#1c9385" stroke-width="1.51"></path><path d="M247,206L304,200L318,89Z" fill="#11887a" stroke="#11887a" stroke-width="1.51"></path><path d="M303,-11L312,-113L255,-77Z" fill="#3db1a7" stroke="#3db1a7" stroke-width="1.51"></path><path d="M255,-77L312,-113L183,-88Z" fill="#43b9b0" stroke="#43b9b0" stroke-width="1.51"></path><path d="M401,-92L312,-113L303,-11Z" fill="#3db0a6" stroke="#3db0a6" stroke-width="1.51"></path><path d="M247,206L221,263L304,200Z" fill="#0f8678" stroke="#0f8678" stroke-width="1.51"></path><path d="M151,208L165,240L247,206Z" fill="#128a7c" stroke="#128a7c" stroke-width="1.51"></path><path d="M35,271L165,240L151,208Z" fill="#1a8f82" stroke="#1a8f82" stroke-width="1.51"></path><path d="M78,-9L-12,-11L37,65Z" fill="#41b7ad" stroke="#41b7ad" stroke-width="1.51"></path><path d="M183,-88L63,-112L155,-22Z" fill="#45bbb2" stroke="#45bbb2" stroke-width="1.51"></path><path d="M312,-113L63,-112L183,-88Z" fill="#48beb6" stroke="#48beb6" stroke-width="1.51"></path><path d="M37,65L56,189L163,97Z" fill="#269c8f" stroke="#269c8f" stroke-width="1.51"></path><path d="M422,64L415,17L318,89Z" fill="#1c9083" stroke="#1c9083" stroke-width="1.51"></path><path d="M318,89L415,17L303,-11Z" fill="#24988b" stroke="#24988b" stroke-width="1.51"></path><path d="M63,-112L-12,-11L78,-9Z" fill="#4cc4bc" stroke="#4cc4bc" stroke-width="1.51"></path><path d="M37,65L-17,191L56,189Z" fill="#2fa499" stroke="#2fa499" stroke-width="1.51"></path><path d="M165,240L221,263L247,206Z" fill="#10887a" stroke="#10887a" stroke-width="1.51"></path><path d="M405,208L422,64L318,89Z" fill="#108779" stroke="#108779" stroke-width="1.51"></path><path d="M415,17L401,-92L303,-11Z" fill="#32a599" stroke="#32a599" stroke-width="1.51"></path><path d="M422,64L401,-92L415,17Z" fill="#2b9d91" stroke="#2b9d91" stroke-width="1.51"></path><path d="M221,263L345,237L304,200Z" fill="#0d8476" stroke="#0d8476" stroke-width="1.51"></path><path d="M304,200L405,208L318,89Z" fill="#0f8678" stroke="#0f8678" stroke-width="1.51"></path><path d="M-12,-11L-53,81L37,65Z" fill="#41b7ae" stroke="#41b7ae" stroke-width="1.51"></path><path d="M-53,81L-17,191L37,65Z" fill="#37aca1" stroke="#37aca1" stroke-width="1.51"></path><path d="M56,189L35,271L151,208Z" fill="#22968a" stroke="#22968a" stroke-width="1.51"></path><path d="M165,240L35,271L221,263Z" fill="#148a7d" stroke="#148a7d" stroke-width="1.51"></path><path d="M345,237L405,208L304,200Z" fill="#0b8375" stroke="#0b8375" stroke-width="1.51"></path><path d="M-17,191L35,271L56,189Z" fill="#2da094" stroke="#2da094" stroke-width="1.51"></path><path d="M-148,29L-110,79L-53,81Z" fill="#4cc3bb" stroke="#4cc3bb" stroke-width="1.51"></path><path d="M63,-112L-62,-98L-12,-11Z" fill="#59d3cd" stroke="#59d3cd" stroke-width="1.51"></path><path d="M-62,-98L-92,-61L-12,-11Z" fill="#5ed7d2" stroke="#5ed7d2" stroke-width="1.51"></path><path d="M-17,191L-56,281L35,271Z" fill="#32a499" stroke="#32a499" stroke-width="1.51"></path><path d="M-53,81L-110,79L-17,191Z" fill="#3fb4ab" stroke="#3fb4ab" stroke-width="1.51"></path><path d="M-148,29L-53,81L-12,-11Z" fill="#4dc5bd" stroke="#4dc5bd" stroke-width="1.51"></path><path d="M345,237L435,279L405,208Z" fill="#078072" stroke="#078072" stroke-width="1.51"></path><path d="M405,208L435,279L422,64Z" fill="#0a8274" stroke="#0a8274" stroke-width="1.51"></path><path d="M221,263L435,279L345,237Z" fill="#098173" stroke="#098173" stroke-width="1.51"></path><path d="M35,271L435,279L221,263Z" fill="#0d8577" stroke="#0d8577" stroke-width="1.51"></path><path d="M-92,-61L-148,29L-12,-11Z" fill="#59d2cc" stroke="#59d2cc" stroke-width="1.51"></path><path d="M-99,244L-56,281L-17,191Z" fill="#39aca2" stroke="#39aca2" stroke-width="1.51"></path><path d="M35,271L-56,281L435,279Z" fill="#138a7c" stroke="#138a7c" stroke-width="1.51"></path><path d="M-99,244L-17,191L-143,208Z" fill="#3fb2a9" stroke="#3fb2a9" stroke-width="1.51"></path><path d="M-143,208L-17,191L-110,79Z" fill="#42b7ae" stroke="#42b7ae" stroke-width="1.51"></path><path d="M-99,244L-143,208L-56,281Z" fill="#3fb3aa" stroke="#3fb3aa" stroke-width="1.51"></path><path d="M-148,29L-143,208L-110,79Z" fill="#4ac1b9" stroke="#4ac1b9" stroke-width="1.51"></path></svg>