<svg width="300" height="176" xmlns="http://www.w3.org/2000/svg"><path d="M183,85L243,21L166,22Z" fill="#269b8e" stroke="#269b8e" stroke-width="1.51"></path><path d="M183,85L241,117L243,21Z" fill="#1c9385" stroke="#1c9385" stroke-width="1.51"></path><path d="M241,117L310,27L243,21Z" fill="#209588" stroke="#209588" stroke-width="1.51"></path><path d="M310,27L223,-68L243,21Z" fill="#30a499" stroke="#30a499" stroke-width="1.51"></path><path d="M243,21L223,-68L166,22Z" fill="#32a79b" stroke="#32a79b" stroke-width="1.51"></path><path d="M241,117L331,101L310,27Z" fill="#178e80" stroke="#178e80" stroke-width="1.51"></path><path d="M166,206L271,146L241,117Z" fill="#148c7e" stroke="#148c7e" stroke-width="1.51"></path><path d="M223,-68L164,-72L166,22Z" fill="#3aafa4" stroke="#3aafa4" stroke-width="1.51"></path><path d="M271,146L331,101L241,117Z" fill="#148b7d" stroke="#148b7d" stroke-width="1.51"></path><path d="M183,85L166,206L241,117Z" fill="#168e80" stroke="#168e80" stroke-width="1.51"></path><path d="M166,22L70,97L183,85Z" fill="#22998c" stroke="#22998c" stroke-width="1.51"></path><path d="M52,-14L70,97L166,22Z" fill="#32a89c" stroke="#32a89c" stroke-width="1.51"></path><path d="M164,-72L52,-14L166,22Z" fill="#3ab0a5" stroke="#3ab0a5" stroke-width="1.51"></path><path d="M70,97L166,206L183,85Z" fill="#1a9284" stroke="#1a9284" stroke-width="1.51"></path><path d="M356,-113L84,-83L164,-72Z" fill="#44bab1" stroke="#44bab1" stroke-width="1.51"></path><path d="M164,-72L84,-83L52,-14Z" fill="#46bdb4" stroke="#46bdb4" stroke-width="1.51"></path><path d="M271,146L346,186L331,101Z" fill="#11887a" stroke="#11887a" stroke-width="1.51"></path><path d="M249,261L346,186L271,146Z" fill="#108678" stroke="#108678" stroke-width="1.51"></path><path d="M-50,-115L-3,9L52,-14Z" fill="#52cac3" stroke="#52cac3" stroke-width="1.51"></path><path d="M52,-14L-3,9L70,97Z" fill="#3cb3a8" stroke="#3cb3a8" stroke-width="1.51"></path><path d="M310,27L356,-113L223,-68Z" fill="#39ada3" stroke="#39ada3" stroke-width="1.51"></path><path d="M223,-68L356,-113L164,-72Z" fill="#42b7ae" stroke="#42b7ae" stroke-width="1.51"></path><path d="M438,-17L356,-113L310,27Z" fill="#33a69b" stroke="#33a69b" stroke-width="1.51"></path><path d="M426,109L310,27L331,101Z" fill="#168c7f" stroke="#168c7f" stroke-width="1.51"></path><path d="M166,206L249,261L271,146Z" fill="#11887a" stroke="#11887a" stroke-width="1.51"></path><path d="M70,97L27,179L166,206Z" fill="#24998c" stroke="#24998c" stroke-width="1.51"></path><path d="M166,206L145,293L249,261Z" fill="#10887a" stroke="#10887a" stroke-width="1.51"></path><path d="M-42,68L27,179L70,97Z" fill="#32a79c" stroke="#32a79c" stroke-width="1.51"></path><path d="M346,186L426,109L331,101Z" fill="#108779" stroke="#108779" stroke-width="1.51"></path><path d="M426,109L438,-17L310,27Z" fill="#209487" stroke="#209487" stroke-width="1.51"></path><path d="M-3,9L-42,68L70,97Z" fill="#3bb1a7" stroke="#3bb1a7" stroke-width="1.51"></path><path d="M50,267L145,293L166,206Z" fill="#198e81" stroke="#198e81" stroke-width="1.51"></path><path d="M438,-17L415,-107L356,-113Z" fill="#3dafa5" stroke="#3dafa5" stroke-width="1.51"></path><path d="M426,109L443,164L438,-17Z" fill="#118779" stroke="#118779" stroke-width="1.51"></path><path d="M346,186L443,164L426,109Z" fill="#0d8476" stroke="#0d8476" stroke-width="1.51"></path><path d="M391,252L443,164L346,186Z" fill="#0a8274" stroke="#0a8274" stroke-width="1.51"></path><path d="M145,293L344,276L249,261Z" fill="#0c8476" stroke="#0c8476" stroke-width="1.51"></path><path d="M249,261L344,276L346,186Z" fill="#0c8375" stroke="#0c8375" stroke-width="1.51"></path><path d="M27,179L50,267L166,206Z" fill="#23978a" stroke="#23978a" stroke-width="1.51"></path><path d="M-11,239L50,267L27,179Z" fill="#2da094" stroke="#2da094" stroke-width="1.51"></path><path d="M344,276L391,252L346,186Z" fill="#098274" stroke="#098274" stroke-width="1.51"></path><path d="M-64,177L-11,239L27,179Z" fill="#34a89d" stroke="#34a89d" stroke-width="1.51"></path><path d="M-3,9L-91,13L-42,68Z" fill="#4ac1b9" stroke="#4ac1b9" stroke-width="1.51"></path><path d="M-42,68L-64,177L27,179Z" fill="#38ada3" stroke="#38ada3" stroke-width="1.51"></path><path d="M-50,-115L-91,13L-3,9Z" fill="#57d0ca" stroke="#57d0ca" stroke-width="1.51"></path><path d="M-134,110L-64,177L-42,68Z" fill="#42b7ae" stroke="#42b7ae" stroke-width="1.51"></path><path d="M356,-113L-50,-115L84,-83Z" fill="#4cc3bb" stroke="#4cc3bb" stroke-width="1.51"></path><path d="M84,-83L-50,-115L52,-14Z" fill="#54ccc6" stroke="#54ccc6" stroke-width="1.51"></path><path d="M-64,177L-89,201L-11,239Z" fill="#3aaea4" stroke="#3aaea4" stroke-width="1.51"></path><path d="M-134,110L-89,201L-64,177Z" fill="#42b7ae" stroke="#42b7ae" stroke-width="1.51"></path><path d="M-91,13L-134,110L-42,68Z" fill="#49c0b8" stroke="#49c0b8" stroke-width="1.51"></path><path d="M-50,-115L-107,-92L-91,13Z" fill="#63deda" stroke="#63deda" stroke-width="1.51"></path><path d="M-107,-92L-134,110L-91,13Z" fill="#58d1cb" stroke="#58d1cb" stroke-width="1.51"></path><path d="M-134,110L-95,297L-89,201Z" fill="#42b7ae" stroke="#42b7ae" stroke-width="1.51"></path><path d="M-89,201L-95,297L-11,239Z" fill="#3aada4" stroke="#3aada4" stroke-width="1.51"></path><path d="M-11,239L-95,297L50,267Z" fill="#32a499" stroke="#32a499" stroke-width="1.51"></path><path d="M50,267L-95,297L145,293Z" fill="#289a8e" stroke="#289a8e" stroke-width="1.51"></path></svg>