<svg width="300" height="176" xmlns="http://www.w3.org/2000/svg"><path d="M70,259L-90,288L137,256Z" fill="#299a8b" stroke="#299a8b" stroke-width="1.51"></path><path d="M-88,-125L89,-106L151,-112Z" fill="#5bcfc1" stroke="#5bcfc1" stroke-width="1.51"></path><path d="M212,239L137,256L345,262Z" fill="#0e8678" stroke="#0e8678" stroke-width="1.51"></path><path d="M151,-112L298,-69L396,-97Z" fill="#43b4a6" stroke="#43b4a6" stroke-width="1.51"></path><path d="M345,262L137,256L401,284Z" fill="#0a8274" stroke="#0a8274" stroke-width="1.51"></path><path d="M137,256L-90,288L401,284Z" fill="#10887a" stroke="#10887a" stroke-width="1.51"></path><path d="M345,262L401,284L428,161Z" fill="#088072" stroke="#088072" stroke-width="1.51"></path><path d="M334,168L345,262L428,161Z" fill="#0c8375" stroke="#0c8375" stroke-width="1.51"></path><path d="M396,-97L307,1L435,25Z" fill="#31a193" stroke="#31a193" stroke-width="1.51"></path><path d="M307,1L348,54L435,25Z" fill="#259789" stroke="#259789" stroke-width="1.51"></path><path d="M348,54L395,119L435,25Z" fill="#198d7f" stroke="#198d7f" stroke-width="1.51"></path><path d="M395,119L428,161L435,25Z" fill="#108779" stroke="#108779" stroke-width="1.51"></path><path d="M395,119L334,168L428,161Z" fill="#0e8577" stroke="#0e8577" stroke-width="1.51"></path><path d="M151,-112L224,-69L298,-69Z" fill="#43b5a7" stroke="#43b5a7" stroke-width="1.51"></path><path d="M298,-69L307,1L396,-97Z" fill="#3aaa9c" stroke="#3aaa9c" stroke-width="1.51"></path><path d="M348,54L334,168L395,119Z" fill="#11897b" stroke="#11897b" stroke-width="1.51"></path><path d="M334,168L212,239L345,262Z" fill="#0d8577" stroke="#0d8577" stroke-width="1.51"></path><path d="M256,57L334,168L348,54Z" fill="#148b7d" stroke="#148b7d" stroke-width="1.51"></path><path d="M307,1L256,57L348,54Z" fill="#249789" stroke="#249789" stroke-width="1.51"></path><path d="M258,29L256,57L307,1Z" fill="#279b8c" stroke="#279b8c" stroke-width="1.51"></path><path d="M212,181L212,239L334,168Z" fill="#11887a" stroke="#11887a" stroke-width="1.51"></path><path d="M256,57L212,181L334,168Z" fill="#148b7d" stroke="#148b7d" stroke-width="1.51"></path><path d="M298,-69L224,-69L307,1Z" fill="#39aa9c" stroke="#39aa9c" stroke-width="1.51"></path><path d="M224,-69L258,29L307,1Z" fill="#32a496" stroke="#32a496" stroke-width="1.51"></path><path d="M171,97L212,181L256,57Z" fill="#178f81" stroke="#178f81" stroke-width="1.51"></path><path d="M-30,264L-90,288L70,259Z" fill="#32a294" stroke="#32a294" stroke-width="1.51"></path><path d="M224,-69L128,-19L258,29Z" fill="#35a89a" stroke="#35a89a" stroke-width="1.51"></path><path d="M171,97L256,57L258,29Z" fill="#1f9587" stroke="#1f9587" stroke-width="1.51"></path><path d="M128,-19L171,97L258,29Z" fill="#289d8f" stroke="#289d8f" stroke-width="1.51"></path><path d="M151,-112L128,-19L224,-69Z" fill="#41b4a6" stroke="#41b4a6" stroke-width="1.51"></path><path d="M-88,-125L-50,-106L89,-106Z" fill="#64d9cb" stroke="#64d9cb" stroke-width="1.51"></path><path d="M171,97L122,191L212,181Z" fill="#168e80" stroke="#168e80" stroke-width="1.51"></path><path d="M212,181L122,191L212,239Z" fill="#138b7d" stroke="#138b7d" stroke-width="1.51"></path><path d="M122,191L137,256L212,239Z" fill="#138a7c" stroke="#138a7c" stroke-width="1.51"></path><path d="M89,-106L128,-19L151,-112Z" fill="#48bbad" stroke="#48bbad" stroke-width="1.51"></path><path d="M128,-19L44,107L171,97Z" fill="#299e90" stroke="#299e90" stroke-width="1.51"></path><path d="M44,107L122,191L171,97Z" fill="#209688" stroke="#209688" stroke-width="1.51"></path><path d="M44,107L77,192L122,191Z" fill="#25998b" stroke="#25998b" stroke-width="1.51"></path><path d="M48,-36L44,107L128,-19Z" fill="#3baea0" stroke="#3baea0" stroke-width="1.51"></path><path d="M77,192L70,259L122,191Z" fill="#219587" stroke="#219587" stroke-width="1.51"></path><path d="M89,-106L48,-36L128,-19Z" fill="#48bcad" stroke="#48bcad" stroke-width="1.51"></path><path d="M122,191L70,259L137,256Z" fill="#1c9082" stroke="#1c9082" stroke-width="1.51"></path><path d="M1,-12L44,107L48,-36Z" fill="#41b4a6" stroke="#41b4a6" stroke-width="1.51"></path><path d="M-50,-106L48,-36L89,-106Z" fill="#57ccbe" stroke="#57ccbe" stroke-width="1.51"></path><path d="M44,107L-20,144L77,192Z" fill="#2fa193" stroke="#2fa193" stroke-width="1.51"></path><path d="M-30,264L70,259L77,192Z" fill="#2a9c8d" stroke="#2a9c8d" stroke-width="1.51"></path><path d="M-20,144L-30,264L77,192Z" fill="#30a294" stroke="#30a294" stroke-width="1.51"></path><path d="M1,-12L-52,72L44,107Z" fill="#3eb2a4" stroke="#3eb2a4" stroke-width="1.51"></path><path d="M-50,-106L1,-12L48,-36Z" fill="#55c9bb" stroke="#55c9bb" stroke-width="1.51"></path><path d="M-52,72L-20,144L44,107Z" fill="#37ab9d" stroke="#37ab9d" stroke-width="1.51"></path><path d="M-93,198L-30,264L-20,144Z" fill="#3aab9d" stroke="#3aab9d" stroke-width="1.51"></path><path d="M-50,-106L-117,25L1,-12Z" fill="#59cdbf" stroke="#59cdbf" stroke-width="1.51"></path><path d="M-117,25L-52,72L1,-12Z" fill="#4cc0b2" stroke="#4cc0b2" stroke-width="1.51"></path><path d="M-52,72L-93,198L-20,144Z" fill="#3db0a2" stroke="#3db0a2" stroke-width="1.51"></path><path d="M-144,83L-93,198L-52,72Z" fill="#45b8aa" stroke="#45b8aa" stroke-width="1.51"></path><path d="M-88,-125L-117,25L-50,-106Z" fill="#65dacc" stroke="#65dacc" stroke-width="1.51"></path><path d="M-93,198L-90,288L-30,264Z" fill="#3cab9d" stroke="#3cab9d" stroke-width="1.51"></path><path d="M-117,25L-144,83L-52,72Z" fill="#4dc1b3" stroke="#4dc1b3" stroke-width="1.51"></path><path d="M-93,198L-144,83L-90,288Z" fill="#44b5a7" stroke="#44b5a7" stroke-width="1.51"></path><path d="M-144,83L-117,25L-88,-125Z" fill="#5dd2c4" stroke="#5dd2c4" stroke-width="1.51"></path></svg>