<svg width="300" height="176" xmlns="http://www.w3.org/2000/svg"><path d="M167,83L82,59L66,147Z" fill="#239a8d" stroke="#239a8d" stroke-width="1.51"></path><path d="M66,147L167,193L167,83Z" fill="#1b9285" stroke="#1b9285" stroke-width="1.51"></path><path d="M82,59L-12,95L66,147Z" fill="#2ea498" stroke="#2ea498" stroke-width="1.51"></path><path d="M82,59L41,6L-12,95Z" fill="#38aea3" stroke="#38aea3" stroke-width="1.51"></path><path d="M154,-30L41,6L82,59Z" fill="#38aea3" stroke="#38aea3" stroke-width="1.51"></path><path d="M87,267L163,243L167,193Z" fill="#168c7e" stroke="#168c7e" stroke-width="1.51"></path><path d="M87,267L167,193L66,147Z" fill="#1e9386" stroke="#1e9386" stroke-width="1.51"></path><path d="M167,83L154,-30L82,59Z" fill="#2ba195" stroke="#2ba195" stroke-width="1.51"></path><path d="M245,169L255,100L167,83Z" fill="#168e80" stroke="#168e80" stroke-width="1.51"></path><path d="M245,169L167,83L167,193Z" fill="#168d7f" stroke="#168d7f" stroke-width="1.51"></path><path d="M237,245L245,169L167,193Z" fill="#12897b" stroke="#12897b" stroke-width="1.51"></path><path d="M256,25L154,-30L167,83Z" fill="#2a9f93" stroke="#2a9f93" stroke-width="1.51"></path><path d="M-12,95L-9,194L66,147Z" fill="#31a69b" stroke="#31a69b" stroke-width="1.51"></path><path d="M-9,194L87,267L66,147Z" fill="#299d91" stroke="#299d91" stroke-width="1.51"></path><path d="M255,100L256,25L167,83Z" fill="#1d9487" stroke="#1d9487" stroke-width="1.51"></path><path d="M245,169L300,111L255,100Z" fill="#148b7d" stroke="#148b7d" stroke-width="1.51"></path><path d="M163,243L237,245L167,193Z" fill="#11897b" stroke="#11897b" stroke-width="1.51"></path><path d="M312,294L237,245L163,243Z" fill="#0e8577" stroke="#0e8577" stroke-width="1.51"></path><path d="M359,162L300,111L245,169Z" fill="#12897b" stroke="#12897b" stroke-width="1.51"></path><path d="M255,100L299,18L256,25Z" fill="#22978a" stroke="#22978a" stroke-width="1.51"></path><path d="M300,111L299,18L255,100Z" fill="#199082" stroke="#199082" stroke-width="1.51"></path><path d="M251,-122L166,-110L154,-30Z" fill="#44bab1" stroke="#44bab1" stroke-width="1.51"></path><path d="M-12,95L-115,88L-9,194Z" fill="#3cb1a7" stroke="#3cb1a7" stroke-width="1.51"></path><path d="M41,6L-50,-21L-12,95Z" fill="#45bbb2" stroke="#45bbb2" stroke-width="1.51"></path><path d="M39,-101L-50,-21L41,6Z" fill="#50c8c0" stroke="#50c8c0" stroke-width="1.51"></path><path d="M154,-30L39,-101L41,6Z" fill="#46bdb5" stroke="#46bdb5" stroke-width="1.51"></path><path d="M166,-110L39,-101L154,-30Z" fill="#48bfb7" stroke="#48bfb7" stroke-width="1.51"></path><path d="M251,-122L154,-30L256,25Z" fill="#39aea4" stroke="#39aea4" stroke-width="1.51"></path><path d="M-98,9L-115,88L-12,95Z" fill="#47beb5" stroke="#47beb5" stroke-width="1.51"></path><path d="M-50,-21L-98,9L-12,95Z" fill="#4cc3bb" stroke="#4cc3bb" stroke-width="1.51"></path><path d="M-133,-60L-98,9L-50,-21Z" fill="#5dd6d1" stroke="#5dd6d1" stroke-width="1.51"></path><path d="M-9,194L-43,285L87,267Z" fill="#2ea095" stroke="#2ea095" stroke-width="1.51"></path><path d="M-109,244L-43,285L-9,194Z" fill="#39aca1" stroke="#39aca1" stroke-width="1.51"></path><path d="M300,111L411,64L299,18Z" fill="#1b9083" stroke="#1b9083" stroke-width="1.51"></path><path d="M237,245L359,162L245,169Z" fill="#108779" stroke="#108779" stroke-width="1.51"></path><path d="M-145,194L-109,244L-9,194Z" fill="#3fb3aa" stroke="#3fb3aa" stroke-width="1.51"></path><path d="M166,-110L-29,-112L39,-101Z" fill="#57d0ca" stroke="#57d0ca" stroke-width="1.51"></path><path d="M39,-101L-29,-112L-50,-21Z" fill="#5cd6d0" stroke="#5cd6d0" stroke-width="1.51"></path><path d="M311,-87L251,-122L256,25Z" fill="#3cb1a6" stroke="#3cb1a6" stroke-width="1.51"></path><path d="M166,-110L251,-122L-29,-112Z" fill="#4ec6be" stroke="#4ec6be" stroke-width="1.51"></path><path d="M311,-87L256,25L299,18Z" fill="#31a599" stroke="#31a599" stroke-width="1.51"></path><path d="M-43,285L312,294L87,267Z" fill="#188d7f" stroke="#188d7f" stroke-width="1.51"></path><path d="M87,267L312,294L163,243Z" fill="#0f8779" stroke="#0f8779" stroke-width="1.51"></path><path d="M237,245L312,294L359,162Z" fill="#0d8476" stroke="#0d8476" stroke-width="1.51"></path><path d="M-133,-60L-145,194L-115,88Z" fill="#4dc5bd" stroke="#4dc5bd" stroke-width="1.51"></path><path d="M-115,88L-145,194L-9,194Z" fill="#41b7ae" stroke="#41b7ae" stroke-width="1.51"></path><path d="M444,-7L311,-87L299,18Z" fill="#32a49a" stroke="#32a49a" stroke-width="1.51"></path><path d="M-98,9L-133,-60L-115,88Z" fill="#58d1cb" stroke="#58d1cb" stroke-width="1.51"></path><path d="M-29,-112L-133,-60L-50,-21Z" fill="#62dcd7" stroke="#62dcd7" stroke-width="1.51"></path><path d="M447,189L411,64L359,162Z" fill="#0e8577" stroke="#0e8577" stroke-width="1.51"></path><path d="M359,162L411,64L300,111Z" fill="#12897b" stroke="#12897b" stroke-width="1.51"></path><path d="M413,298L447,189L359,162Z" fill="#088173" stroke="#088173" stroke-width="1.51"></path><path d="M411,64L444,-7L299,18Z" fill="#24988c" stroke="#24988c" stroke-width="1.51"></path><path d="M447,189L444,-7L411,64Z" fill="#12897b" stroke="#12897b" stroke-width="1.51"></path><path d="M-43,285L413,298L312,294Z" fill="#0c8476" stroke="#0c8476" stroke-width="1.51"></path><path d="M312,294L413,298L359,162Z" fill="#088072" stroke="#088072" stroke-width="1.51"></path><path d="M444,-7L436,-101L311,-87Z" fill="#3aaca2" stroke="#3aaca2" stroke-width="1.51"></path><path d="M311,-87L436,-101L251,-122Z" fill="#44b8af" stroke="#44b8af" stroke-width="1.51"></path></svg>