<svg width="300" height="176" xmlns="http://www.w3.org/2000/svg"><path d="M178,101L156,25L75,76Z" fill="#23998d" stroke="#23998d" stroke-width="1.51"></path><path d="M156,25L89,30L75,76Z" fill="#2ea498" stroke="#2ea498" stroke-width="1.51"></path><path d="M75,76L57,167L178,101Z" fill="#22998c" stroke="#22998c" stroke-width="1.51"></path><path d="M229,203L259,67L178,101Z" fill="#168e80" stroke="#168e80" stroke-width="1.51"></path><path d="M178,101L259,67L156,25Z" fill="#1f9689" stroke="#1f9689" stroke-width="1.51"></path><path d="M259,67L210,-31L156,25Z" fill="#2ba094" stroke="#2ba094" stroke-width="1.51"></path><path d="M156,25L46,-96L89,30Z" fill="#3db3a9" stroke="#3db3a9" stroke-width="1.51"></path><path d="M57,167L130,206L178,101Z" fill="#1d9386" stroke="#1d9386" stroke-width="1.51"></path><path d="M-10,22L-14,56L75,76Z" fill="#3bb1a7" stroke="#3bb1a7" stroke-width="1.51"></path><path d="M75,76L-14,56L57,167Z" fill="#2fa599" stroke="#2fa599" stroke-width="1.51"></path><path d="M-10,22L75,76L89,30Z" fill="#38aea3" stroke="#38aea3" stroke-width="1.51"></path><path d="M46,-96L-10,22L89,30Z" fill="#46bdb4" stroke="#46bdb4" stroke-width="1.51"></path><path d="M130,206L229,203L178,101Z" fill="#158d7f" stroke="#158d7f" stroke-width="1.51"></path><path d="M74,254L138,234L130,206Z" fill="#1b9083" stroke="#1b9083" stroke-width="1.51"></path><path d="M138,234L229,203L130,206Z" fill="#138b7d" stroke="#138b7d" stroke-width="1.51"></path><path d="M-33,174L74,254L57,167Z" fill="#2ca094" stroke="#2ca094" stroke-width="1.51"></path><path d="M57,167L74,254L130,206Z" fill="#229689" stroke="#229689" stroke-width="1.51"></path><path d="M179,-121L46,-96L156,25Z" fill="#43bbb1" stroke="#43bbb1" stroke-width="1.51"></path><path d="M210,-31L179,-121L156,25Z" fill="#3aafa5" stroke="#3aafa5" stroke-width="1.51"></path><path d="M338,30L235,-85L210,-31Z" fill="#35a99e" stroke="#35a99e" stroke-width="1.51"></path><path d="M-14,56L-33,174L57,167Z" fill="#33a99d" stroke="#33a99d" stroke-width="1.51"></path><path d="M-122,84L-33,174L-14,56Z" fill="#3eb4aa" stroke="#3eb4aa" stroke-width="1.51"></path><path d="M235,-85L179,-121L210,-31Z" fill="#42b7ae" stroke="#42b7ae" stroke-width="1.51"></path><path d="M229,203L321,160L259,67Z" fill="#138b7d" stroke="#138b7d" stroke-width="1.51"></path><path d="M138,234L244,247L229,203Z" fill="#11897b" stroke="#11897b" stroke-width="1.51"></path><path d="M74,254L244,247L138,234Z" fill="#128a7c" stroke="#128a7c" stroke-width="1.51"></path><path d="M305,239L321,160L229,203Z" fill="#0f8779" stroke="#0f8779" stroke-width="1.51"></path><path d="M259,67L338,30L210,-31Z" fill="#289d91" stroke="#289d91" stroke-width="1.51"></path><path d="M348,98L338,30L259,67Z" fill="#1c9184" stroke="#1c9184" stroke-width="1.51"></path><path d="M321,160L348,98L259,67Z" fill="#138b7d" stroke="#138b7d" stroke-width="1.51"></path><path d="M321,160L403,94L348,98Z" fill="#11897b" stroke="#11897b" stroke-width="1.51"></path><path d="M244,247L305,239L229,203Z" fill="#0e8678" stroke="#0e8678" stroke-width="1.51"></path><path d="M-148,0L-122,84L-10,22Z" fill="#50c8c0" stroke="#50c8c0" stroke-width="1.51"></path><path d="M-10,22L-122,84L-14,56Z" fill="#45bcb3" stroke="#45bcb3" stroke-width="1.51"></path><path d="M338,30L309,-107L235,-85Z" fill="#3aaea3" stroke="#3aaea3" stroke-width="1.51"></path><path d="M235,-85L309,-107L179,-121Z" fill="#46bcb3" stroke="#46bcb3" stroke-width="1.51"></path><path d="M-115,289L-7,291L-33,174Z" fill="#38aba0" stroke="#38aba0" stroke-width="1.51"></path><path d="M-33,174L-7,291L74,254Z" fill="#2ea095" stroke="#2ea095" stroke-width="1.51"></path><path d="M74,254L-7,291L244,247Z" fill="#1c9083" stroke="#1c9083" stroke-width="1.51"></path><path d="M244,247L402,268L305,239Z" fill="#0b8274" stroke="#0b8274" stroke-width="1.51"></path><path d="M46,-96L-57,-111L-10,22Z" fill="#58d1ca" stroke="#58d1ca" stroke-width="1.51"></path><path d="M179,-121L-57,-111L46,-96Z" fill="#58d1cb" stroke="#58d1cb" stroke-width="1.51"></path><path d="M443,207L403,94L321,160Z" fill="#0d8577" stroke="#0d8577" stroke-width="1.51"></path><path d="M348,98L403,94L338,30Z" fill="#178d7f" stroke="#178d7f" stroke-width="1.51"></path><path d="M338,30L410,-115L309,-107Z" fill="#3aada4" stroke="#3aada4" stroke-width="1.51"></path><path d="M-57,-111L-148,0L-10,22Z" fill="#5bd4ce" stroke="#5bd4ce" stroke-width="1.51"></path><path d="M-122,84L-139,202L-33,174Z" fill="#43b8af" stroke="#43b8af" stroke-width="1.51"></path><path d="M-148,0L-139,202L-122,84Z" fill="#4bc2ba" stroke="#4bc2ba" stroke-width="1.51"></path><path d="M179,-121L-129,-111L-57,-111Z" fill="#62ddd8" stroke="#62ddd8" stroke-width="1.51"></path><path d="M-57,-111L-129,-111L-148,0Z" fill="#6ae6e2" stroke="#6ae6e2" stroke-width="1.51"></path><path d="M-139,202L-115,289L-33,174Z" fill="#40b3aa" stroke="#40b3aa" stroke-width="1.51"></path><path d="M403,94L446,-18L338,30Z" fill="#219588" stroke="#219588" stroke-width="1.51"></path><path d="M403,94L443,207L446,-18Z" fill="#0f8779" stroke="#0f8779" stroke-width="1.51"></path><path d="M305,239L402,268L321,160Z" fill="#0b8375" stroke="#0b8375" stroke-width="1.51"></path><path d="M-7,291L402,268L244,247Z" fill="#0e8678" stroke="#0e8678" stroke-width="1.51"></path><path d="M446,-18L410,-115L338,30Z" fill="#33a49a" stroke="#33a49a" stroke-width="1.51"></path><path d="M309,-107L410,-115L179,-121Z" fill="#47bcb4" stroke="#47bcb4" stroke-width="1.51"></path><path d="M402,268L443,207L321,160Z" fill="#0a8274" stroke="#0a8274" stroke-width="1.51"></path></svg>