<svg width="300" height="176" xmlns="http://www.w3.org/2000/svg"><path d="M227,249L179,259L389,264Z" fill="#3d279d" stroke="#3d279d" stroke-width="1.51"></path><path d="M179,259L70,290L389,264Z" fill="#3e289f" stroke="#3e289f" stroke-width="1.51"></path><path d="M-7,-108L236,-109L390,-125Z" fill="#a888a6" stroke="#a888a6" stroke-width="1.51"></path><path d="M328,18L349,101L433,-36Z" fill="#6645a2" stroke="#6645a2" stroke-width="1.51"></path><path d="M433,-36L349,101L451,119Z" fill="#5236a1" stroke="#5236a1" stroke-width="1.51"></path><path d="M349,101L396,191L451,119Z" fill="#3f289e" stroke="#3f289e" stroke-width="1.51"></path><path d="M396,191L389,264L451,119Z" fill="#3b259b" stroke="#3b259b" stroke-width="1.51"></path><path d="M390,-125L326,-76L433,-36Z" fill="#9472a0" stroke="#9472a0" stroke-width="1.51"></path><path d="M326,-76L328,18L433,-36Z" fill="#815ea2" stroke="#815ea2" stroke-width="1.51"></path><path d="M336,234L227,249L389,264Z" fill="#3c259b" stroke="#3c259b" stroke-width="1.51"></path><path d="M236,-109L326,-76L390,-125Z" fill="#a07fa2" stroke="#a07fa2" stroke-width="1.51"></path><path d="M349,101L313,205L396,191Z" fill="#3f289f" stroke="#3f289f" stroke-width="1.51"></path><path d="M313,205L336,234L396,191Z" fill="#3c269d" stroke="#3c269d" stroke-width="1.51"></path><path d="M336,234L389,264L396,191Z" fill="#3a249a" stroke="#3a249a" stroke-width="1.51"></path><path d="M229,107L221,167L313,205Z" fill="#432da3" stroke="#432da3" stroke-width="1.51"></path><path d="M326,-76L241,-31L328,18Z" fill="#8260a5" stroke="#8260a5" stroke-width="1.51"></path><path d="M328,18L229,107L349,101Z" fill="#4e34a5" stroke="#4e34a5" stroke-width="1.51"></path><path d="M229,107L313,205L349,101Z" fill="#422ca3" stroke="#422ca3" stroke-width="1.51"></path><path d="M313,205L227,249L336,234Z" fill="#3e279e" stroke="#3e279e" stroke-width="1.51"></path><path d="M241,-31L229,107L328,18Z" fill="#6748a7" stroke="#6748a7" stroke-width="1.51"></path><path d="M236,-109L241,-31L326,-76Z" fill="#9573a5" stroke="#9573a5" stroke-width="1.51"></path><path d="M182,17L229,107L241,-31Z" fill="#694aa9" stroke="#694aa9" stroke-width="1.51"></path><path d="M221,167L227,249L313,205Z" fill="#412aa0" stroke="#412aa0" stroke-width="1.51"></path><path d="M-7,-108L50,-60L182,-70Z" fill="#b193a7" stroke="#b193a7" stroke-width="1.51"></path><path d="M221,167L179,164L227,249Z" fill="#432da3" stroke="#432da3" stroke-width="1.51"></path><path d="M179,164L179,259L227,249Z" fill="#422ba2" stroke="#422ba2" stroke-width="1.51"></path><path d="M-7,-108L182,-70L236,-109Z" fill="#a687a8" stroke="#a687a8" stroke-width="1.51"></path><path d="M236,-109L182,-70L241,-31Z" fill="#9675a7" stroke="#9675a7" stroke-width="1.51"></path><path d="M182,-70L182,17L241,-31Z" fill="#8563a9" stroke="#8563a9" stroke-width="1.51"></path><path d="M182,17L126,95L229,107Z" fill="#533aab" stroke="#533aab" stroke-width="1.51"></path><path d="M179,164L221,167L229,107Z" fill="#462fa6" stroke="#462fa6" stroke-width="1.51"></path><path d="M126,95L179,164L229,107Z" fill="#4832a9" stroke="#4832a9" stroke-width="1.51"></path><path d="M46,163L70,290L179,259Z" fill="#5a3ca3" stroke="#5a3ca3" stroke-width="1.51"></path><path d="M46,163L179,259L179,164Z" fill="#4d34a6" stroke="#4d34a6" stroke-width="1.51"></path><path d="M88,-35L126,95L182,17Z" fill="#7554ab" stroke="#7554ab" stroke-width="1.51"></path><path d="M50,-60L88,-35L182,-70Z" fill="#9f7fa9" stroke="#9f7fa9" stroke-width="1.51"></path><path d="M88,-35L182,17L182,-70Z" fill="#8866ab" stroke="#8866ab" stroke-width="1.51"></path><path d="M126,95L46,163L179,164Z" fill="#573ba9" stroke="#573ba9" stroke-width="1.51"></path><path d="M-2,243L-140,239L70,290Z" fill="#825fa1" stroke="#825fa1" stroke-width="1.51"></path><path d="M88,-35L32,105L126,95Z" fill="#7856ab" stroke="#7856ab" stroke-width="1.51"></path><path d="M32,105L46,163L126,95Z" fill="#6a4baa" stroke="#6a4baa" stroke-width="1.51"></path><path d="M-52,-22L-1,91L50,-60Z" fill="#a687a9" stroke="#a687a9" stroke-width="1.51"></path><path d="M46,163L-2,243L70,290Z" fill="#704ea3" stroke="#704ea3" stroke-width="1.51"></path><path d="M50,-60L-1,91L88,-35Z" fill="#9b7aaa" stroke="#9b7aaa" stroke-width="1.51"></path><path d="M-1,91L32,105L88,-35Z" fill="#8564ab" stroke="#8564ab" stroke-width="1.51"></path><path d="M32,105L-34,180L46,163Z" fill="#7b5aa7" stroke="#7b5aa7" stroke-width="1.51"></path><path d="M-34,180L-2,243L46,163Z" fill="#7d5aa5" stroke="#7d5aa5" stroke-width="1.51"></path><path d="M-7,-108L-52,-22L50,-60Z" fill="#bfa5a5" stroke="#bfa5a5" stroke-width="1.51"></path><path d="M-1,91L-34,180L32,105Z" fill="#8260a9" stroke="#8260a9" stroke-width="1.51"></path><path d="M-118,-95L-52,-22L-7,-108Z" fill="#d1bca2" stroke="#d1bca2" stroke-width="1.51"></path><path d="M-34,180L-102,200L-2,243Z" fill="#8b69a3" stroke="#8b69a3" stroke-width="1.51"></path><path d="M-102,200L-140,239L-2,243Z" fill="#9472a1" stroke="#9472a1" stroke-width="1.51"></path><path d="M-110,109L-34,180L-1,91Z" fill="#906fa7" stroke="#906fa7" stroke-width="1.51"></path><path d="M-52,-22L-110,109L-1,91Z" fill="#9f7fa9" stroke="#9f7fa9" stroke-width="1.51"></path><path d="M-118,-95L-110,-35L-52,-22Z" fill="#d1bda3" stroke="#d1bda3" stroke-width="1.51"></path><path d="M-110,-35L-110,109L-52,-22Z" fill="#b99da6" stroke="#b99da6" stroke-width="1.51"></path><path d="M-110,109L-102,200L-34,180Z" fill="#9876a5" stroke="#9876a5" stroke-width="1.51"></path><path d="M-110,109L-140,239L-102,200Z" fill="#a180a3" stroke="#a180a3" stroke-width="1.51"></path><path d="M-118,-95L-140,239L-110,-35Z" fill="#ba9fa6" stroke="#ba9fa6" stroke-width="1.51"></path><path d="M-110,-35L-140,239L-110,109Z" fill="#a586a8" stroke="#a586a8" stroke-width="1.51"></path></svg>