<svg width="300" height="176" xmlns="http://www.w3.org/2000/svg"><path d="M162,85L210,61L122,-33Z" fill="#6849ab" stroke="#6849ab" stroke-width="1.51"></path><path d="M210,61L225,-24L122,-33Z" fill="#7857aa" stroke="#7857aa" stroke-width="1.51"></path><path d="M122,-33L68,10L162,85Z" fill="#7c5aab" stroke="#7c5aab" stroke-width="1.51"></path><path d="M225,-24L152,-77L122,-33Z" fill="#8e6caa" stroke="#8e6caa" stroke-width="1.51"></path><path d="M122,-33L71,-79L68,10Z" fill="#9c7ba9" stroke="#9c7ba9" stroke-width="1.51"></path><path d="M68,10L58,55L162,85Z" fill="#7654ab" stroke="#7654ab" stroke-width="1.51"></path><path d="M68,10L-11,-7L58,55Z" fill="#9573aa" stroke="#9573aa" stroke-width="1.51"></path><path d="M152,-77L71,-79L122,-33Z" fill="#a080a9" stroke="#a080a9" stroke-width="1.51"></path><path d="M162,85L252,206L210,61Z" fill="#4731a8" stroke="#4731a8" stroke-width="1.51"></path><path d="M58,55L135,158L162,85Z" fill="#593eac" stroke="#593eac" stroke-width="1.51"></path><path d="M225,-24L239,-96L152,-77Z" fill="#9574a7" stroke="#9574a7" stroke-width="1.51"></path><path d="M152,-77L239,-96L71,-79Z" fill="#9e7ea9" stroke="#9e7ea9" stroke-width="1.51"></path><path d="M302,-68L239,-96L225,-24Z" fill="#9270a5" stroke="#9270a5" stroke-width="1.51"></path><path d="M334,-6L302,-68L225,-24Z" fill="#8462a5" stroke="#8462a5" stroke-width="1.51"></path><path d="M2,-77L-11,-7L68,10Z" fill="#ab8ca8" stroke="#ab8ca8" stroke-width="1.51"></path><path d="M58,55L69,202L135,158Z" fill="#6344a9" stroke="#6344a9" stroke-width="1.51"></path><path d="M328,107L334,-6L210,61Z" fill="#5a3da6" stroke="#5a3da6" stroke-width="1.51"></path><path d="M210,61L334,-6L225,-24Z" fill="#7250a7" stroke="#7250a7" stroke-width="1.51"></path><path d="M71,-79L2,-77L68,10Z" fill="#ad8fa8" stroke="#ad8fa8" stroke-width="1.51"></path><path d="M239,-96L2,-77L71,-79Z" fill="#ab8ca8" stroke="#ab8ca8" stroke-width="1.51"></path><path d="M252,206L328,107L210,61Z" fill="#452fa5" stroke="#452fa5" stroke-width="1.51"></path><path d="M-11,-7L-16,119L58,55Z" fill="#8e6daa" stroke="#8e6daa" stroke-width="1.51"></path><path d="M135,158L252,206L162,85Z" fill="#4630a7" stroke="#4630a7" stroke-width="1.51"></path><path d="M-16,119L69,202L58,55Z" fill="#7654a9" stroke="#7654a9" stroke-width="1.51"></path><path d="M148,237L252,206L135,158Z" fill="#442ea4" stroke="#442ea4" stroke-width="1.51"></path><path d="M69,202L148,237L135,158Z" fill="#5438a6" stroke="#5438a6" stroke-width="1.51"></path><path d="M328,107L425,55L334,-6Z" fill="#593ba3" stroke="#593ba3" stroke-width="1.51"></path><path d="M252,206L353,145L328,107Z" fill="#412ba1" stroke="#412ba1" stroke-width="1.51"></path><path d="M-16,119L-3,186L69,202Z" fill="#7a58a6" stroke="#7a58a6" stroke-width="1.51"></path><path d="M69,202L41,290L148,237Z" fill="#5e3fa3" stroke="#5e3fa3" stroke-width="1.51"></path><path d="M-11,-7L-88,88L-16,119Z" fill="#9777aa" stroke="#9777aa" stroke-width="1.51"></path><path d="M-16,119L-105,196L-3,186Z" fill="#8c6aa6" stroke="#8c6aa6" stroke-width="1.51"></path><path d="M-89,-74L-88,6L-11,-7Z" fill="#c1a7a5" stroke="#c1a7a5" stroke-width="1.51"></path><path d="M-88,6L-88,88L-11,-7Z" fill="#ad8fa8" stroke="#ad8fa8" stroke-width="1.51"></path><path d="M-135,255L-105,196L-88,88Z" fill="#9f7ea3" stroke="#9f7ea3" stroke-width="1.51"></path><path d="M2,-77L-89,-74L-11,-7Z" fill="#c3aaa5" stroke="#c3aaa5" stroke-width="1.51"></path><path d="M239,-96L-89,-74L2,-77Z" fill="#b89da6" stroke="#b89da6" stroke-width="1.51"></path><path d="M353,145L425,55L328,107Z" fill="#412ba2" stroke="#412ba2" stroke-width="1.51"></path><path d="M334,-6L431,-85L302,-68Z" fill="#8a67a2" stroke="#8a67a2" stroke-width="1.51"></path><path d="M252,206L319,261L353,145Z" fill="#3e289f" stroke="#3e289f" stroke-width="1.51"></path><path d="M353,145L408,177L425,55Z" fill="#3f29a0" stroke="#3f29a0" stroke-width="1.51"></path><path d="M148,237L272,272L252,206Z" fill="#402aa0" stroke="#402aa0" stroke-width="1.51"></path><path d="M425,55L444,4L334,-6Z" fill="#6948a1" stroke="#6948a1" stroke-width="1.51"></path><path d="M272,272L319,261L252,206Z" fill="#3d279d" stroke="#3d279d" stroke-width="1.51"></path><path d="M444,4L431,-85L334,-6Z" fill="#7e5ba0" stroke="#7e5ba0" stroke-width="1.51"></path><path d="M302,-68L431,-85L239,-96Z" fill="#9776a2" stroke="#9776a2" stroke-width="1.51"></path><path d="M319,261L408,177L353,145Z" fill="#3d279d" stroke="#3d279d" stroke-width="1.51"></path><path d="M425,55L431,289L444,4Z" fill="#3e289f" stroke="#3e289f" stroke-width="1.51"></path><path d="M-23,263L69,202L-3,186Z" fill="#7856a3" stroke="#7856a3" stroke-width="1.51"></path><path d="M-23,263L41,290L69,202Z" fill="#714fa2" stroke="#714fa2" stroke-width="1.51"></path><path d="M148,237L41,290L272,272Z" fill="#412ba1" stroke="#412ba1" stroke-width="1.51"></path><path d="M-105,196L-23,263L-3,186Z" fill="#8a68a3" stroke="#8a68a3" stroke-width="1.51"></path><path d="M-88,88L-105,196L-16,119Z" fill="#9675a7" stroke="#9675a7" stroke-width="1.51"></path><path d="M-135,255L-88,88L-88,6Z" fill="#a080a7" stroke="#a080a7" stroke-width="1.51"></path><path d="M-105,196L-135,255L-23,263Z" fill="#9674a1" stroke="#9674a1" stroke-width="1.51"></path><path d="M-23,263L-135,255L41,290Z" fill="#8663a0" stroke="#8663a0" stroke-width="1.51"></path><path d="M-89,-74L-135,255L-88,6Z" fill="#ab8da8" stroke="#ab8da8" stroke-width="1.51"></path><path d="M319,261L431,289L408,177Z" fill="#382299" stroke="#382299" stroke-width="1.51"></path><path d="M408,177L431,289L425,55Z" fill="#3b259c" stroke="#3b259c" stroke-width="1.51"></path><path d="M272,272L431,289L319,261Z" fill="#392399" stroke="#392399" stroke-width="1.51"></path><path d="M41,290L431,289L272,272Z" fill="#3c269c" stroke="#3c269c" stroke-width="1.51"></path></svg>