<svg width="300" height="176" xmlns="http://www.w3.org/2000/svg"><path d="M131,286L-114,294L339,300Z" fill="#4e32a0" stroke="#4e32a0" stroke-width="1.51"></path><path d="M354,-6L336,113L430,112Z" fill="#4c32a2" stroke="#4c32a2" stroke-width="1.51"></path><path d="M430,112L401,190L432,242Z" fill="#3b259b" stroke="#3b259b" stroke-width="1.51"></path><path d="M-12,-112L141,-115L441,-122Z" fill="#a98aa6" stroke="#a98aa6" stroke-width="1.51"></path><path d="M141,-115L304,-104L441,-122Z" fill="#a485a2" stroke="#a485a2" stroke-width="1.51"></path><path d="M304,-104L354,-6L441,-122Z" fill="#9471a0" stroke="#9471a0" stroke-width="1.51"></path><path d="M441,-122L354,-6L444,-30Z" fill="#88659f" stroke="#88659f" stroke-width="1.51"></path><path d="M354,-6L430,112L444,-30Z" fill="#6544a1" stroke="#6544a1" stroke-width="1.51"></path><path d="M430,112L432,242L444,-30Z" fill="#3f299f" stroke="#3f299f" stroke-width="1.51"></path><path d="M353,146L401,190L430,112Z" fill="#3e289e" stroke="#3e289e" stroke-width="1.51"></path><path d="M401,190L339,300L432,242Z" fill="#382299" stroke="#382299" stroke-width="1.51"></path><path d="M336,113L353,146L430,112Z" fill="#402aa1" stroke="#402aa1" stroke-width="1.51"></path><path d="M240,203L339,300L353,146Z" fill="#3e279e" stroke="#3e279e" stroke-width="1.51"></path><path d="M353,146L339,300L401,190Z" fill="#3c259c" stroke="#3c259c" stroke-width="1.51"></path><path d="M141,-115L265,-88L304,-104Z" fill="#a282a5" stroke="#a282a5" stroke-width="1.51"></path><path d="M271,-21L227,75L336,113Z" fill="#5a3da6" stroke="#5a3da6" stroke-width="1.51"></path><path d="M212,237L131,286L339,300Z" fill="#3e289e" stroke="#3e289e" stroke-width="1.51"></path><path d="M336,113L240,203L353,146Z" fill="#412ba1" stroke="#412ba1" stroke-width="1.51"></path><path d="M271,-21L336,113L354,-6Z" fill="#6747a5" stroke="#6747a5" stroke-width="1.51"></path><path d="M304,-104L271,-21L354,-6Z" fill="#8865a4" stroke="#8865a4" stroke-width="1.51"></path><path d="M265,-88L271,-21L304,-104Z" fill="#9472a4" stroke="#9472a4" stroke-width="1.51"></path><path d="M227,75L240,203L336,113Z" fill="#442ea4" stroke="#442ea4" stroke-width="1.51"></path><path d="M240,203L212,237L339,300Z" fill="#3e289e" stroke="#3e289e" stroke-width="1.51"></path><path d="M-34,269L-114,294L131,286Z" fill="#7b589f" stroke="#7b589f" stroke-width="1.51"></path><path d="M227,75L172,155L240,203Z" fill="#452fa6" stroke="#452fa6" stroke-width="1.51"></path><path d="M265,-88L174,8L271,-21Z" fill="#8664a7" stroke="#8664a7" stroke-width="1.51"></path><path d="M174,8L227,75L271,-21Z" fill="#6e4ea8" stroke="#6e4ea8" stroke-width="1.51"></path><path d="M141,-115L174,8L265,-88Z" fill="#9573a8" stroke="#9573a8" stroke-width="1.51"></path><path d="M172,155L212,237L240,203Z" fill="#432ca3" stroke="#432ca3" stroke-width="1.51"></path><path d="M174,8L134,61L227,75Z" fill="#6244ab" stroke="#6244ab" stroke-width="1.51"></path><path d="M134,61L172,155L227,75Z" fill="#4a34aa" stroke="#4a34aa" stroke-width="1.51"></path><path d="M172,155L131,286L212,237Z" fill="#422ca3" stroke="#422ca3" stroke-width="1.51"></path><path d="M59,255L-34,269L131,286Z" fill="#6948a1" stroke="#6948a1" stroke-width="1.51"></path><path d="M59,72L77,190L134,61Z" fill="#6446ab" stroke="#6446ab" stroke-width="1.51"></path><path d="M-12,-112L45,-87L141,-115Z" fill="#bfa4a6" stroke="#bfa4a6" stroke-width="1.51"></path><path d="M45,-87L41,-32L141,-115Z" fill="#b092a7" stroke="#b092a7" stroke-width="1.51"></path><path d="M134,61L77,190L172,155Z" fill="#5339a9" stroke="#5339a9" stroke-width="1.51"></path><path d="M77,190L131,286L172,155Z" fill="#4f35a5" stroke="#4f35a5" stroke-width="1.51"></path><path d="M141,-115L41,-32L174,8Z" fill="#9877aa" stroke="#9877aa" stroke-width="1.51"></path><path d="M41,-32L134,61L174,8Z" fill="#805fab" stroke="#805fab" stroke-width="1.51"></path><path d="M77,190L59,255L131,286Z" fill="#5d3ea3" stroke="#5d3ea3" stroke-width="1.51"></path><path d="M41,-32L59,72L134,61Z" fill="#8361ab" stroke="#8361ab" stroke-width="1.51"></path><path d="M41,-32L-17,-18L59,72Z" fill="#9d7ca9" stroke="#9d7ca9" stroke-width="1.51"></path><path d="M-35,87L-21,200L59,72Z" fill="#815fa9" stroke="#815fa9" stroke-width="1.51"></path><path d="M-21,200L59,255L77,190Z" fill="#714fa4" stroke="#714fa4" stroke-width="1.51"></path><path d="M59,72L-21,200L77,190Z" fill="#7452a7" stroke="#7452a7" stroke-width="1.51"></path><path d="M-17,-18L-35,87L59,72Z" fill="#9473aa" stroke="#9473aa" stroke-width="1.51"></path><path d="M-21,200L-34,269L59,255Z" fill="#7b58a2" stroke="#7b58a2" stroke-width="1.51"></path><path d="M-17,-18L41,-32L45,-87Z" fill="#b295a7" stroke="#b295a7" stroke-width="1.51"></path><path d="M-12,-112L-17,-18L45,-87Z" fill="#c0a7a5" stroke="#c0a7a5" stroke-width="1.51"></path><path d="M-104,79L-139,186L-35,87Z" fill="#9d7da8" stroke="#9d7da8" stroke-width="1.51"></path><path d="M-35,87L-139,186L-21,200Z" fill="#9371a6" stroke="#9371a6" stroke-width="1.51"></path><path d="M-104,79L-35,87L-17,-18Z" fill="#a283a9" stroke="#a283a9" stroke-width="1.51"></path><path d="M-134,1L-104,79L-17,-18Z" fill="#b69aa7" stroke="#b69aa7" stroke-width="1.51"></path><path d="M-126,-105L-134,1L-17,-18Z" fill="#ceb8a3" stroke="#ceb8a3" stroke-width="1.51"></path><path d="M-126,-105L-17,-18L-12,-112Z" fill="#d1bca3" stroke="#d1bca3" stroke-width="1.51"></path><path d="M-139,186L-34,269L-21,200Z" fill="#906ea2" stroke="#906ea2" stroke-width="1.51"></path><path d="M-139,186L-114,294L-34,269Z" fill="#9775a0" stroke="#9775a0" stroke-width="1.51"></path><path d="M-134,1L-139,186L-104,79Z" fill="#a889a8" stroke="#a889a8" stroke-width="1.51"></path></svg>