<svg width="300" height="176" xmlns="http://www.w3.org/2000/svg"><path d="M183,73L255,61L216,30Z" fill="#7452a5" stroke="#7452a5" stroke-width="1.51"></path><path d="M216,30L180,-8L183,73Z" fill="#906ea6" stroke="#906ea6" stroke-width="1.51"></path><path d="M300,-59L180,-8L216,30Z" fill="#ac8ea0" stroke="#ac8ea0" stroke-width="1.51"></path><path d="M183,73L265,144L255,61Z" fill="#442ea4" stroke="#442ea4" stroke-width="1.51"></path><path d="M265,144L302,114L255,61Z" fill="#3e289e" stroke="#3e289e" stroke-width="1.51"></path><path d="M183,73L130,147L265,144Z" fill="#432da3" stroke="#432da3" stroke-width="1.51"></path><path d="M36,112L130,147L183,73Z" fill="#6546a8" stroke="#6546a8" stroke-width="1.51"></path><path d="M255,61L314,-33L216,30Z" fill="#9775a0" stroke="#9775a0" stroke-width="1.51"></path><path d="M302,114L314,-33L255,61Z" fill="#78559f" stroke="#78559f" stroke-width="1.51"></path><path d="M425,65L398,-32L314,-33Z" fill="#a7879a" stroke="#a7879a" stroke-width="1.51"></path><path d="M265,144L333,162L302,114Z" fill="#372197" stroke="#372197" stroke-width="1.51"></path><path d="M223,275L333,162L265,144Z" fill="#341e94" stroke="#341e94" stroke-width="1.51"></path><path d="M314,-33L300,-59L216,30Z" fill="#a8899c" stroke="#a8899c" stroke-width="1.51"></path><path d="M223,-124L147,-82L180,-8Z" fill="#af92a4" stroke="#af92a4" stroke-width="1.51"></path><path d="M39,-1L36,112L183,73Z" fill="#9b7aa9" stroke="#9b7aa9" stroke-width="1.51"></path><path d="M39,-1L183,73L180,-8Z" fill="#a788a8" stroke="#a788a8" stroke-width="1.51"></path><path d="M300,-59L223,-124L180,-8Z" fill="#ac8ea0" stroke="#ac8ea0" stroke-width="1.51"></path><path d="M147,-82L39,-1L180,-8Z" fill="#c1a8a5" stroke="#c1a8a5" stroke-width="1.51"></path><path d="M300,-59L399,-119L223,-124Z" fill="#a7879a" stroke="#a7879a" stroke-width="1.51"></path><path d="M314,-33L398,-32L300,-59Z" fill="#a7879a" stroke="#a7879a" stroke-width="1.51"></path><path d="M425,65L314,-33L302,114Z" fill="#75529e" stroke="#75529e" stroke-width="1.51"></path><path d="M333,162L425,65L302,114Z" fill="#3b259b" stroke="#3b259b" stroke-width="1.51"></path><path d="M144,295L223,275L130,147Z" fill="#3d279d" stroke="#3d279d" stroke-width="1.51"></path><path d="M130,147L223,275L265,144Z" fill="#3a239a" stroke="#3a239a" stroke-width="1.51"></path><path d="M36,112L45,184L130,147Z" fill="#815ea1" stroke="#815ea1" stroke-width="1.51"></path><path d="M333,162L405,205L425,65Z" fill="#362096" stroke="#362096" stroke-width="1.51"></path><path d="M223,275L352,256L333,162Z" fill="#311b92" stroke="#311b92" stroke-width="1.51"></path><path d="M352,256L405,205L333,162Z" fill="#311b92" stroke="#311b92" stroke-width="1.51"></path><path d="M223,-124L60,-107L147,-82Z" fill="#b69aa7" stroke="#b69aa7" stroke-width="1.51"></path><path d="M147,-82L60,-107L39,-1Z" fill="#d6c4a1" stroke="#d6c4a1" stroke-width="1.51"></path><path d="M45,184L75,259L130,147Z" fill="#75529e" stroke="#75529e" stroke-width="1.51"></path><path d="M223,275L144,295L352,256Z" fill="#372197" stroke="#372197" stroke-width="1.51"></path><path d="M75,259L144,295L130,147Z" fill="#5d3d9f" stroke="#5d3d9f" stroke-width="1.51"></path><path d="M-39,-126L-20,17L39,-1Z" fill="#fffe96" stroke="#fffe96" stroke-width="1.51"></path><path d="M39,-1L-20,17L36,112Z" fill="#d2bda3" stroke="#d2bda3" stroke-width="1.51"></path><path d="M36,112L-16,202L45,184Z" fill="#9c7b9d" stroke="#9c7b9d" stroke-width="1.51"></path><path d="M425,65L399,-119L398,-32Z" fill="#a7879a" stroke="#a7879a" stroke-width="1.51"></path><path d="M398,-32L399,-119L300,-59Z" fill="#a7879a" stroke="#a7879a" stroke-width="1.51"></path><path d="M-59,93L-16,202L36,112Z" fill="#ac8ea0" stroke="#ac8ea0" stroke-width="1.51"></path><path d="M45,184L-16,202L75,259Z" fill="#93719c" stroke="#93719c" stroke-width="1.51"></path><path d="M352,256L427,246L405,205Z" fill="#311b92" stroke="#311b92" stroke-width="1.51"></path><path d="M405,205L427,246L425,65Z" fill="#321c92" stroke="#321c92" stroke-width="1.51"></path><path d="M144,295L427,246L352,256Z" fill="#311b92" stroke="#311b92" stroke-width="1.51"></path><path d="M-20,17L-59,93L36,112Z" fill="#bfa5a5" stroke="#bfa5a5" stroke-width="1.51"></path><path d="M-131,202L-21,274L-16,202Z" fill="#a7879a" stroke="#a7879a" stroke-width="1.51"></path><path d="M-16,202L-21,274L75,259Z" fill="#a07f9b" stroke="#a07f9b" stroke-width="1.51"></path><path d="M75,259L-21,274L144,295Z" fill="#805c9e" stroke="#805c9e" stroke-width="1.51"></path><path d="M-20,17L-118,-22L-59,93Z" fill="#e6da9e" stroke="#e6da9e" stroke-width="1.51"></path><path d="M60,-107L-39,-126L39,-1Z" fill="#f5ef99" stroke="#f5ef99" stroke-width="1.51"></path><path d="M223,-124L-39,-126L60,-107Z" fill="#d7c4a1" stroke="#d7c4a1" stroke-width="1.51"></path><path d="M-39,-126L-118,-22L-20,17Z" fill="#fffe96" stroke="#fffe96" stroke-width="1.51"></path><path d="M-59,93L-131,202L-16,202Z" fill="#a8899c" stroke="#a8899c" stroke-width="1.51"></path><path d="M-118,-22L-140,66L-59,93Z" fill="#d8c6a1" stroke="#d8c6a1" stroke-width="1.51"></path><path d="M-140,66L-131,202L-59,93Z" fill="#ae90a2" stroke="#ae90a2" stroke-width="1.51"></path><path d="M-39,-126L-131,-88L-118,-22Z" fill="#fffe96" stroke="#fffe96" stroke-width="1.51"></path><path d="M-118,-22L-131,-88L-140,66Z" fill="#fffe96" stroke="#fffe96" stroke-width="1.51"></path><path d="M-131,202L-129,275L-21,274Z" fill="#a7879a" stroke="#a7879a" stroke-width="1.51"></path><path d="M-21,274L-129,275L144,295Z" fill="#a7879a" stroke="#a7879a" stroke-width="1.51"></path><path d="M-140,66L-129,275L-131,202Z" fill="#a7879a" stroke="#a7879a" stroke-width="1.51"></path></svg>