<svg width="300" height="176" xmlns="http://www.w3.org/2000/svg"><path d="M124,80L66,-7L53,74Z" fill="#7b59ab" stroke="#7b59ab" stroke-width="1.51"></path><path d="M124,80L118,-28L66,-7Z" fill="#8361ab" stroke="#8361ab" stroke-width="1.51"></path><path d="M118,-28L34,-73L66,-7Z" fill="#a181a9" stroke="#a181a9" stroke-width="1.51"></path><path d="M206,31L126,-65L118,-28Z" fill="#8462ab" stroke="#8462ab" stroke-width="1.51"></path><path d="M66,-7L-17,21L53,74Z" fill="#9270aa" stroke="#9270aa" stroke-width="1.51"></path><path d="M34,-73L-17,21L66,-7Z" fill="#a788a9" stroke="#a788a9" stroke-width="1.51"></path><path d="M124,80L206,31L118,-28Z" fill="#6e4eab" stroke="#6e4eab" stroke-width="1.51"></path><path d="M126,-65L34,-73L118,-28Z" fill="#a383a9" stroke="#a383a9" stroke-width="1.51"></path><path d="M53,74L60,187L124,80Z" fill="#6748aa" stroke="#6748aa" stroke-width="1.51"></path><path d="M-17,21L-16,117L53,74Z" fill="#8967ab" stroke="#8967ab" stroke-width="1.51"></path><path d="M-16,117L60,187L53,74Z" fill="#7756a9" stroke="#7756a9" stroke-width="1.51"></path><path d="M124,80L241,73L206,31Z" fill="#5a3eab" stroke="#5a3eab" stroke-width="1.51"></path><path d="M222,148L241,73L124,80Z" fill="#4933a9" stroke="#4933a9" stroke-width="1.51"></path><path d="M210,-106L0,-85L34,-73Z" fill="#b295a7" stroke="#b295a7" stroke-width="1.51"></path><path d="M34,-73L0,-85L-17,21Z" fill="#b79aa7" stroke="#b79aa7" stroke-width="1.51"></path><path d="M60,187L116,199L124,80Z" fill="#5d40a8" stroke="#5d40a8" stroke-width="1.51"></path><path d="M116,199L222,148L124,80Z" fill="#4832a9" stroke="#4832a9" stroke-width="1.51"></path><path d="M-16,117L-37,169L60,187Z" fill="#7f5da7" stroke="#7f5da7" stroke-width="1.51"></path><path d="M44,263L172,239L116,199Z" fill="#5538a4" stroke="#5538a4" stroke-width="1.51"></path><path d="M-90,161L-37,169L-16,117Z" fill="#8f6da6" stroke="#8f6da6" stroke-width="1.51"></path><path d="M206,31L210,-106L126,-65Z" fill="#8e6ca9" stroke="#8e6ca9" stroke-width="1.51"></path><path d="M126,-65L210,-106L34,-73Z" fill="#a485a9" stroke="#a485a9" stroke-width="1.51"></path><path d="M335,-29L210,-106L206,31Z" fill="#8764a6" stroke="#8764a6" stroke-width="1.51"></path><path d="M116,199L172,239L222,148Z" fill="#442ea5" stroke="#442ea5" stroke-width="1.51"></path><path d="M44,263L116,199L60,187Z" fill="#6444a4" stroke="#6444a4" stroke-width="1.51"></path><path d="M-28,252L44,263L60,187Z" fill="#7351a3" stroke="#7351a3" stroke-width="1.51"></path><path d="M-123,109L-90,161L-16,117Z" fill="#9877a7" stroke="#9877a7" stroke-width="1.51"></path><path d="M-123,109L-16,117L-17,21Z" fill="#9574aa" stroke="#9574aa" stroke-width="1.51"></path><path d="M-152,-22L-123,109L-17,21Z" fill="#b497a7" stroke="#b497a7" stroke-width="1.51"></path><path d="M-28,252L60,187L-37,169Z" fill="#7e5ba4" stroke="#7e5ba4" stroke-width="1.51"></path><path d="M-89,234L-28,252L-37,169Z" fill="#8c69a3" stroke="#8c69a3" stroke-width="1.51"></path><path d="M0,-85L-152,-22L-17,21Z" fill="#c0a7a6" stroke="#c0a7a6" stroke-width="1.51"></path><path d="M355,119L241,73L222,148Z" fill="#452fa5" stroke="#452fa5" stroke-width="1.51"></path><path d="M355,119L335,-29L241,73Z" fill="#5a3ca5" stroke="#5a3ca5" stroke-width="1.51"></path><path d="M241,73L335,-29L206,31Z" fill="#6b4ba7" stroke="#6b4ba7" stroke-width="1.51"></path><path d="M-90,161L-89,234L-37,169Z" fill="#9472a4" stroke="#9472a4" stroke-width="1.51"></path><path d="M-123,109L-89,234L-90,161Z" fill="#9d7ca4" stroke="#9d7ca4" stroke-width="1.51"></path><path d="M335,-29L320,-113L210,-106Z" fill="#9977a4" stroke="#9977a4" stroke-width="1.51"></path><path d="M0,-85L-146,-99L-152,-22Z" fill="#d9c7a1" stroke="#d9c7a1" stroke-width="1.51"></path><path d="M210,-106L-146,-99L0,-85Z" fill="#c5aca5" stroke="#c5aca5" stroke-width="1.51"></path><path d="M320,-113L-146,-99L210,-106Z" fill="#ad8ea8" stroke="#ad8ea8" stroke-width="1.51"></path><path d="M358,192L355,119L222,148Z" fill="#412ba1" stroke="#412ba1" stroke-width="1.51"></path><path d="M-28,252L220,295L44,263Z" fill="#5f3fa1" stroke="#5f3fa1" stroke-width="1.51"></path><path d="M44,263L220,295L172,239Z" fill="#432da1" stroke="#432da1" stroke-width="1.51"></path><path d="M172,239L220,295L222,148Z" fill="#412ba1" stroke="#412ba1" stroke-width="1.51"></path><path d="M440,196L387,88L355,119Z" fill="#3f299f" stroke="#3f299f" stroke-width="1.51"></path><path d="M355,119L387,88L335,-29Z" fill="#5539a4" stroke="#5539a4" stroke-width="1.51"></path><path d="M335,-29L420,-116L320,-113Z" fill="#9775a1" stroke="#9775a1" stroke-width="1.51"></path><path d="M344,269L358,192L222,148Z" fill="#3e289f" stroke="#3e289f" stroke-width="1.51"></path><path d="M387,88L417,-21L335,-29Z" fill="#6c4ba2" stroke="#6c4ba2" stroke-width="1.51"></path><path d="M387,88L440,196L417,-21Z" fill="#402aa1" stroke="#402aa1" stroke-width="1.51"></path><path d="M358,192L440,196L355,119Z" fill="#3d279e" stroke="#3d279e" stroke-width="1.51"></path><path d="M220,295L344,269L222,148Z" fill="#3e289f" stroke="#3e289f" stroke-width="1.51"></path><path d="M417,-21L420,-116L335,-29Z" fill="#8a67a0" stroke="#8a67a0" stroke-width="1.51"></path><path d="M402,270L440,196L358,192Z" fill="#3a249a" stroke="#3a249a" stroke-width="1.51"></path><path d="M417,-21L440,196L420,-116Z" fill="#6746a0" stroke="#6746a0" stroke-width="1.51"></path><path d="M344,269L402,270L358,192Z" fill="#39239a" stroke="#39239a" stroke-width="1.51"></path><path d="M220,295L402,270L344,269Z" fill="#39239a" stroke="#39239a" stroke-width="1.51"></path></svg>