<svg width="300" height="176" xmlns="http://www.w3.org/2000/svg"><path d="M163,55L156,-20L84,19Z" fill="#7757ab" stroke="#7757ab" stroke-width="1.51"></path><path d="M84,19L75,80L163,55Z" fill="#7150ab" stroke="#7150ab" stroke-width="1.51"></path><path d="M156,-20L83,-83L84,19Z" fill="#9472aa" stroke="#9472aa" stroke-width="1.51"></path><path d="M84,19L-38,56L75,80Z" fill="#8665ab" stroke="#8665ab" stroke-width="1.51"></path><path d="M163,55L257,-2L156,-20Z" fill="#7453a9" stroke="#7453a9" stroke-width="1.51"></path><path d="M256,164L243,66L163,55Z" fill="#4832a8" stroke="#4832a8" stroke-width="1.51"></path><path d="M156,-20L138,-116L83,-83Z" fill="#a180a9" stroke="#a180a9" stroke-width="1.51"></path><path d="M243,66L257,-2L163,55Z" fill="#6446a9" stroke="#6446a9" stroke-width="1.51"></path><path d="M248,-88L138,-116L156,-20Z" fill="#9979a8" stroke="#9979a8" stroke-width="1.51"></path><path d="M257,-2L248,-88L156,-20Z" fill="#8866a7" stroke="#8866a7" stroke-width="1.51"></path><path d="M75,80L160,191L163,55Z" fill="#5239ab" stroke="#5239ab" stroke-width="1.51"></path><path d="M-51,-95L-30,-23L83,-83Z" fill="#bfa6a6" stroke="#bfa6a6" stroke-width="1.51"></path><path d="M83,-83L-30,-23L84,19Z" fill="#a586a9" stroke="#a586a9" stroke-width="1.51"></path><path d="M75,80L-38,56L73,169Z" fill="#7655aa" stroke="#7655aa" stroke-width="1.51"></path><path d="M-30,-23L-38,56L84,19Z" fill="#9f7ea9" stroke="#9f7ea9" stroke-width="1.51"></path><path d="M73,169L160,191L75,80Z" fill="#5c3fa8" stroke="#5c3fa8" stroke-width="1.51"></path><path d="M243,66L306,61L257,-2Z" fill="#6243a7" stroke="#6243a7" stroke-width="1.51"></path><path d="M257,-2L317,-84L248,-88Z" fill="#8f6da5" stroke="#8f6da5" stroke-width="1.51"></path><path d="M256,164L306,61L243,66Z" fill="#4630a6" stroke="#4630a6" stroke-width="1.51"></path><path d="M160,191L256,164L163,55Z" fill="#4731a7" stroke="#4731a7" stroke-width="1.51"></path><path d="M423,74L324,29L306,61Z" fill="#583ba3" stroke="#583ba3" stroke-width="1.51"></path><path d="M306,61L324,29L257,-2Z" fill="#6747a6" stroke="#6747a6" stroke-width="1.51"></path><path d="M324,29L317,-84L257,-2Z" fill="#7e5ba5" stroke="#7e5ba5" stroke-width="1.51"></path><path d="M248,-88L392,-100L138,-116Z" fill="#a181a4" stroke="#a181a4" stroke-width="1.51"></path><path d="M-30,-23L-134,-25L-38,56Z" fill="#b89ca7" stroke="#b89ca7" stroke-width="1.51"></path><path d="M138,-116L-51,-95L83,-83Z" fill="#bca2a6" stroke="#bca2a6" stroke-width="1.51"></path><path d="M160,191L232,297L256,164Z" fill="#412ba1" stroke="#412ba1" stroke-width="1.51"></path><path d="M73,169L143,256L160,191Z" fill="#5035a5" stroke="#5035a5" stroke-width="1.51"></path><path d="M35,277L143,256L73,169Z" fill="#5f40a3" stroke="#5f40a3" stroke-width="1.51"></path><path d="M-38,56L-35,195L73,169Z" fill="#805ea8" stroke="#805ea8" stroke-width="1.51"></path><path d="M-112,159L-35,195L-38,56Z" fill="#9371a7" stroke="#9371a7" stroke-width="1.51"></path><path d="M324,29L386,-17L317,-84Z" fill="#7e5ca3" stroke="#7e5ca3" stroke-width="1.51"></path><path d="M256,164L339,160L306,61Z" fill="#432da3" stroke="#432da3" stroke-width="1.51"></path><path d="M343,283L339,160L256,164Z" fill="#3e289e" stroke="#3e289e" stroke-width="1.51"></path><path d="M423,74L386,-17L324,29Z" fill="#6544a2" stroke="#6544a2" stroke-width="1.51"></path><path d="M-51,-95L-134,-25L-30,-23Z" fill="#cbb4a4" stroke="#cbb4a4" stroke-width="1.51"></path><path d="M-51,-95L-109,-109L-134,-25Z" fill="#dccaa0" stroke="#dccaa0" stroke-width="1.51"></path><path d="M138,-116L-109,-109L-51,-95Z" fill="#cfbaa3" stroke="#cfbaa3" stroke-width="1.51"></path><path d="M-35,195L35,277L73,169Z" fill="#7553a4" stroke="#7553a4" stroke-width="1.51"></path><path d="M-35,195L-53,298L35,277Z" fill="#805ea0" stroke="#805ea0" stroke-width="1.51"></path><path d="M-138,107L-112,159L-38,56Z" fill="#9f7ea8" stroke="#9f7ea8" stroke-width="1.51"></path><path d="M-134,-25L-138,107L-38,56Z" fill="#b194a7" stroke="#b194a7" stroke-width="1.51"></path><path d="M386,-17L392,-100L317,-84Z" fill="#8f6da1" stroke="#8f6da1" stroke-width="1.51"></path><path d="M317,-84L392,-100L248,-88Z" fill="#9b79a2" stroke="#9b79a2" stroke-width="1.51"></path><path d="M35,277L232,297L143,256Z" fill="#472ea1" stroke="#472ea1" stroke-width="1.51"></path><path d="M143,256L232,297L160,191Z" fill="#412ba1" stroke="#412ba1" stroke-width="1.51"></path><path d="M339,160L423,74L306,61Z" fill="#422ca3" stroke="#422ca3" stroke-width="1.51"></path><path d="M386,-17L423,74L392,-100Z" fill="#7955a0" stroke="#7955a0" stroke-width="1.51"></path><path d="M402,153L423,74L339,160Z" fill="#3f299f" stroke="#3f299f" stroke-width="1.51"></path><path d="M343,283L402,153L339,160Z" fill="#3d269c" stroke="#3d269c" stroke-width="1.51"></path><path d="M-133,292L-35,195L-112,159Z" fill="#9877a2" stroke="#9877a2" stroke-width="1.51"></path><path d="M-133,292L-53,298L-35,195Z" fill="#916ea0" stroke="#916ea0" stroke-width="1.51"></path><path d="M35,277L-53,298L232,297Z" fill="#6141a0" stroke="#6141a0" stroke-width="1.51"></path><path d="M232,297L343,283L256,164Z" fill="#3d279d" stroke="#3d279d" stroke-width="1.51"></path><path d="M-138,107L-133,292L-112,159Z" fill="#a383a3" stroke="#a383a3" stroke-width="1.51"></path><path d="M343,283L410,292L402,153Z" fill="#392399" stroke="#392399" stroke-width="1.51"></path><path d="M402,153L410,292L423,74Z" fill="#3c269c" stroke="#3c269c" stroke-width="1.51"></path><path d="M232,297L410,292L343,283Z" fill="#392299" stroke="#392299" stroke-width="1.51"></path></svg>