<svg width="300" height="176" xmlns="http://www.w3.org/2000/svg"><path d="M160,277L-51,273L212,286Z" fill="#4831a6" stroke="#4831a6" stroke-width="1.51"></path><path d="M-8,-102L46,-91L224,-109Z" fill="#8068d6" stroke="#8068d6" stroke-width="1.51"></path><path d="M212,286L-51,273L332,300Z" fill="#3f29a0" stroke="#3f29a0" stroke-width="1.51"></path><path d="M307,83L405,190L434,69Z" fill="#402aa1" stroke="#402aa1" stroke-width="1.51"></path><path d="M407,-20L361,9L434,69Z" fill="#523aae" stroke="#523aae" stroke-width="1.51"></path><path d="M405,190L426,245L434,69Z" fill="#3c269c" stroke="#3c269c" stroke-width="1.51"></path><path d="M326,-104L407,-20L444,-98Z" fill="#684ebf" stroke="#684ebf" stroke-width="1.51"></path><path d="M407,-20L434,69L444,-98Z" fill="#5940b3" stroke="#5940b3" stroke-width="1.51"></path><path d="M361,9L307,83L434,69Z" fill="#4b34a9" stroke="#4b34a9" stroke-width="1.51"></path><path d="M307,83L309,193L405,190Z" fill="#4029a0" stroke="#4029a0" stroke-width="1.51"></path><path d="M405,190L332,300L426,245Z" fill="#382299" stroke="#382299" stroke-width="1.51"></path><path d="M309,193L332,300L405,190Z" fill="#3b259c" stroke="#3b259c" stroke-width="1.51"></path><path d="M326,-104L361,9L407,-20Z" fill="#6147ba" stroke="#6147ba" stroke-width="1.51"></path><path d="M326,-104L211,24L361,9Z" fill="#6047ba" stroke="#6047ba" stroke-width="1.51"></path><path d="M211,24L307,83L361,9Z" fill="#5139af" stroke="#5139af" stroke-width="1.51"></path><path d="M307,83L215,198L309,193Z" fill="#422ca2" stroke="#422ca2" stroke-width="1.51"></path><path d="M215,198L212,286L309,193Z" fill="#3f29a0" stroke="#3f29a0" stroke-width="1.51"></path><path d="M224,-109L211,24L326,-104Z" fill="#6b52c3" stroke="#6b52c3" stroke-width="1.51"></path><path d="M309,193L212,286L332,300Z" fill="#3c269c" stroke="#3c269c" stroke-width="1.51"></path><path d="M210,82L215,198L307,83Z" fill="#462fa6" stroke="#462fa6" stroke-width="1.51"></path><path d="M211,24L210,82L307,83Z" fill="#4e37ac" stroke="#4e37ac" stroke-width="1.51"></path><path d="M93,256L-51,273L160,277Z" fill="#4f38ac" stroke="#4f38ac" stroke-width="1.51"></path><path d="M153,-75L139,2L211,24Z" fill="#634bbe" stroke="#634bbe" stroke-width="1.51"></path><path d="M210,82L166,161L215,198Z" fill="#4630a6" stroke="#4630a6" stroke-width="1.51"></path><path d="M160,277L212,286L215,198Z" fill="#402aa0" stroke="#402aa0" stroke-width="1.51"></path><path d="M46,-91L153,-75L224,-109Z" fill="#765ece" stroke="#765ece" stroke-width="1.51"></path><path d="M153,-75L211,24L224,-109Z" fill="#6a52c4" stroke="#6a52c4" stroke-width="1.51"></path><path d="M129,72L166,161L210,82Z" fill="#4a34aa" stroke="#4a34aa" stroke-width="1.51"></path><path d="M129,72L210,82L211,24Z" fill="#5139af" stroke="#5139af" stroke-width="1.51"></path><path d="M166,161L160,277L215,198Z" fill="#432da3" stroke="#432da3" stroke-width="1.51"></path><path d="M139,2L129,72L211,24Z" fill="#5840b5" stroke="#5840b5" stroke-width="1.51"></path><path d="M86,211L93,256L160,277Z" fill="#4932a7" stroke="#4932a7" stroke-width="1.51"></path><path d="M129,72L75,77L166,161Z" fill="#4f38ae" stroke="#4f38ae" stroke-width="1.51"></path><path d="M75,77L86,211L166,161Z" fill="#4f38ae" stroke="#4f38ae" stroke-width="1.51"></path><path d="M86,211L160,277L166,161Z" fill="#4630a6" stroke="#4630a6" stroke-width="1.51"></path><path d="M81,4L139,2L153,-75Z" fill="#6951c3" stroke="#6951c3" stroke-width="1.51"></path><path d="M81,4L129,72L139,2Z" fill="#6047bb" stroke="#6047bb" stroke-width="1.51"></path><path d="M46,-91L81,4L153,-75Z" fill="#755dcd" stroke="#755dcd" stroke-width="1.51"></path><path d="M81,4L75,77L129,72Z" fill="#5e45b9" stroke="#5e45b9" stroke-width="1.51"></path><path d="M75,77L-16,102L86,211Z" fill="#5a42b6" stroke="#5a42b6" stroke-width="1.51"></path><path d="M-16,102L-41,197L86,211Z" fill="#5e46b9" stroke="#5e46b9" stroke-width="1.51"></path><path d="M-41,197L-51,273L86,211Z" fill="#5d44b8" stroke="#5d44b8" stroke-width="1.51"></path><path d="M86,211L-51,273L93,256Z" fill="#553cb1" stroke="#553cb1" stroke-width="1.51"></path><path d="M-23,-6L75,77L81,4Z" fill="#6c53c5" stroke="#6c53c5" stroke-width="1.51"></path><path d="M46,-91L-23,-6L81,4Z" fill="#7a61d0" stroke="#7a61d0" stroke-width="1.51"></path><path d="M-23,-6L-16,102L75,77Z" fill="#6a51c3" stroke="#6a51c3" stroke-width="1.51"></path><path d="M-8,-102L-23,-6L46,-91Z" fill="#866ddb" stroke="#866ddb" stroke-width="1.51"></path><path d="M-110,156L-41,197L-16,102Z" fill="#6a51c3" stroke="#6a51c3" stroke-width="1.51"></path><path d="M-93,97L-110,156L-16,102Z" fill="#6f56c7" stroke="#6f56c7" stroke-width="1.51"></path><path d="M-23,-6L-93,97L-16,102Z" fill="#7058ca" stroke="#7058ca" stroke-width="1.51"></path><path d="M-137,-60L-23,-6L-8,-102Z" fill="#8e75e2" stroke="#8e75e2" stroke-width="1.51"></path><path d="M-149,20L-93,97L-23,-6Z" fill="#7e65d4" stroke="#7e65d4" stroke-width="1.51"></path><path d="M-137,-60L-149,20L-23,-6Z" fill="#8c73e0" stroke="#8c73e0" stroke-width="1.51"></path><path d="M-130,236L-51,273L-41,197Z" fill="#694fc0" stroke="#694fc0" stroke-width="1.51"></path><path d="M-110,156L-130,236L-41,197Z" fill="#6e55c5" stroke="#6e55c5" stroke-width="1.51"></path><path d="M-149,20L-110,156L-93,97Z" fill="#775fcf" stroke="#775fcf" stroke-width="1.51"></path><path d="M-149,20L-130,236L-110,156Z" fill="#775dcd" stroke="#775dcd" stroke-width="1.51"></path></svg>