<svg width="300" height="176" xmlns="http://www.w3.org/2000/svg"><path d="M132,78L153,17L46,3Z" fill="#7957ac" stroke="#7957ac" stroke-width="1.51"></path><path d="M46,3L39,64L132,78Z" fill="#7e5cab" stroke="#7e5cab" stroke-width="1.51"></path><path d="M46,3L-22,10L39,64Z" fill="#9776aa" stroke="#9776aa" stroke-width="1.51"></path><path d="M46,3L31,-76L-22,10Z" fill="#aa8ba8" stroke="#aa8ba8" stroke-width="1.51"></path><path d="M153,17L31,-76L46,3Z" fill="#9978aa" stroke="#9978aa" stroke-width="1.51"></path><path d="M132,78L254,29L153,17Z" fill="#6647ab" stroke="#6647ab" stroke-width="1.51"></path><path d="M59,186L176,160L132,78Z" fill="#553aa9" stroke="#553aa9" stroke-width="1.51"></path><path d="M153,17L181,-115L31,-76Z" fill="#9c7baa" stroke="#9c7baa" stroke-width="1.51"></path><path d="M248,120L254,29L132,78Z" fill="#5037aa" stroke="#5037aa" stroke-width="1.51"></path><path d="M39,64L59,186L132,78Z" fill="#684aab" stroke="#684aab" stroke-width="1.51"></path><path d="M-44,120L59,186L39,64Z" fill="#7b5aa9" stroke="#7b5aa9" stroke-width="1.51"></path><path d="M-22,10L-44,120L39,64Z" fill="#906eaa" stroke="#906eaa" stroke-width="1.51"></path><path d="M254,29L181,-115L153,17Z" fill="#8361a9" stroke="#8361a9" stroke-width="1.51"></path><path d="M176,160L248,120L132,78Z" fill="#4832a8" stroke="#4832a8" stroke-width="1.51"></path><path d="M-153,24L-93,83L-22,10Z" fill="#b093a7" stroke="#b093a7" stroke-width="1.51"></path><path d="M-22,10L-93,83L-44,120Z" fill="#9a7aaa" stroke="#9a7aaa" stroke-width="1.51"></path><path d="M-93,83L-59,165L-44,120Z" fill="#9574a8" stroke="#9574a8" stroke-width="1.51"></path><path d="M-44,120L-59,165L59,186Z" fill="#8462a7" stroke="#8462a7" stroke-width="1.51"></path><path d="M176,160L228,190L248,120Z" fill="#452fa5" stroke="#452fa5" stroke-width="1.51"></path><path d="M167,276L228,190L176,160Z" fill="#432da3" stroke="#432da3" stroke-width="1.51"></path><path d="M31,-76L-58,-125L-22,10Z" fill="#c3aaa5" stroke="#c3aaa5" stroke-width="1.51"></path><path d="M181,-115L-58,-125L31,-76Z" fill="#c0a7a5" stroke="#c0a7a5" stroke-width="1.51"></path><path d="M181,-115L258,-121L-58,-125Z" fill="#b295a7" stroke="#b295a7" stroke-width="1.51"></path><path d="M254,29L258,-121L181,-115Z" fill="#9574a6" stroke="#9574a6" stroke-width="1.51"></path><path d="M-58,-125L-111,-79L-22,10Z" fill="#cfbaa3" stroke="#cfbaa3" stroke-width="1.51"></path><path d="M322,156L320,118L248,120Z" fill="#432da3" stroke="#432da3" stroke-width="1.51"></path><path d="M248,120L320,118L254,29Z" fill="#4630a7" stroke="#4630a7" stroke-width="1.51"></path><path d="M254,29L338,-15L258,-121Z" fill="#8563a5" stroke="#8563a5" stroke-width="1.51"></path><path d="M320,118L338,-15L254,29Z" fill="#6041a5" stroke="#6041a5" stroke-width="1.51"></path><path d="M59,186L167,276L176,160Z" fill="#4c33a5" stroke="#4c33a5" stroke-width="1.51"></path><path d="M-61,291L62,277L59,186Z" fill="#7452a2" stroke="#7452a2" stroke-width="1.51"></path><path d="M-111,-79L-153,24L-22,10Z" fill="#c5aea5" stroke="#c5aea5" stroke-width="1.51"></path><path d="M-93,83L-108,195L-59,165Z" fill="#9a79a6" stroke="#9a79a6" stroke-width="1.51"></path><path d="M62,277L167,276L59,186Z" fill="#5a3ca3" stroke="#5a3ca3" stroke-width="1.51"></path><path d="M228,190L322,156L248,120Z" fill="#422ca3" stroke="#422ca3" stroke-width="1.51"></path><path d="M320,118L400,90L338,-15Z" fill="#5337a4" stroke="#5337a4" stroke-width="1.51"></path><path d="M252,245L322,156L228,190Z" fill="#412aa0" stroke="#412aa0" stroke-width="1.51"></path><path d="M-59,165L-61,291L59,186Z" fill="#8360a3" stroke="#8360a3" stroke-width="1.51"></path><path d="M-153,24L-108,195L-93,83Z" fill="#a586a8" stroke="#a586a8" stroke-width="1.51"></path><path d="M167,276L252,245L228,190Z" fill="#402aa1" stroke="#402aa1" stroke-width="1.51"></path><path d="M338,-15L338,-120L258,-121Z" fill="#9978a3" stroke="#9978a3" stroke-width="1.51"></path><path d="M258,-121L338,-120L-58,-125Z" fill="#ac8ea7" stroke="#ac8ea7" stroke-width="1.51"></path><path d="M-108,195L-61,291L-59,165Z" fill="#9371a2" stroke="#9371a2" stroke-width="1.51"></path><path d="M62,277L-61,291L167,276Z" fill="#6746a0" stroke="#6746a0" stroke-width="1.51"></path><path d="M423,184L400,90L322,156Z" fill="#3f299f" stroke="#3f299f" stroke-width="1.51"></path><path d="M322,156L400,90L320,118Z" fill="#412ba2" stroke="#412ba2" stroke-width="1.51"></path><path d="M338,-15L443,-100L338,-120Z" fill="#9472a0" stroke="#9472a0" stroke-width="1.51"></path><path d="M-108,195L-87,290L-61,291Z" fill="#9472a0" stroke="#9472a0" stroke-width="1.51"></path><path d="M-153,24L-87,290L-108,195Z" fill="#a181a3" stroke="#a181a3" stroke-width="1.51"></path><path d="M400,90L435,-10L338,-15Z" fill="#6847a1" stroke="#6847a1" stroke-width="1.51"></path><path d="M400,90L423,184L435,-10Z" fill="#402aa1" stroke="#402aa1" stroke-width="1.51"></path><path d="M252,245L358,265L322,156Z" fill="#3d279d" stroke="#3d279d" stroke-width="1.51"></path><path d="M167,276L358,265L252,245Z" fill="#3d279d" stroke="#3d279d" stroke-width="1.51"></path><path d="M416,297L358,265L167,276Z" fill="#3a249a" stroke="#3a249a" stroke-width="1.51"></path><path d="M358,265L423,184L322,156Z" fill="#3c269c" stroke="#3c269c" stroke-width="1.51"></path><path d="M435,-10L443,-100L338,-15Z" fill="#8461a0" stroke="#8461a0" stroke-width="1.51"></path><path d="M423,184L443,-100L435,-10Z" fill="#6544a0" stroke="#6544a0" stroke-width="1.51"></path><path d="M423,184L416,297L443,-100Z" fill="#3e289e" stroke="#3e289e" stroke-width="1.51"></path><path d="M358,265L416,297L423,184Z" fill="#382298" stroke="#382298" stroke-width="1.51"></path><path d="M-61,291L416,297L167,276Z" fill="#3f299f" stroke="#3f299f" stroke-width="1.51"></path></svg>