<svg width="300" height="176" xmlns="http://www.w3.org/2000/svg"><path d="M131,90L45,104L71,162Z" fill="#7d5ba6" stroke="#7d5ba6" stroke-width="1.51"></path><path d="M71,162L142,185L131,90Z" fill="#6242a3" stroke="#6242a3" stroke-width="1.51"></path><path d="M131,90L88,-7L45,104Z" fill="#9878aa" stroke="#9878aa" stroke-width="1.51"></path><path d="M45,104L-59,150L71,162Z" fill="#a181a1" stroke="#a181a1" stroke-width="1.51"></path><path d="M-41,-11L-52,88L45,104Z" fill="#ccb5a3" stroke="#ccb5a3" stroke-width="1.51"></path><path d="M131,90L178,-1L88,-7Z" fill="#a282a9" stroke="#a282a9" stroke-width="1.51"></path><path d="M257,93L178,-1L131,90Z" fill="#6f4fa8" stroke="#6f4fa8" stroke-width="1.51"></path><path d="M-52,88L-59,150L45,104Z" fill="#af91a3" stroke="#af91a3" stroke-width="1.51"></path><path d="M71,162L43,284L142,185Z" fill="#73509e" stroke="#73509e" stroke-width="1.51"></path><path d="M142,185L240,177L131,90Z" fill="#412aa0" stroke="#412aa0" stroke-width="1.51"></path><path d="M240,177L257,93L131,90Z" fill="#422ca2" stroke="#422ca2" stroke-width="1.51"></path><path d="M-41,261L43,284L71,162Z" fill="#99779c" stroke="#99779c" stroke-width="1.51"></path><path d="M142,185L214,242L240,177Z" fill="#3a249a" stroke="#3a249a" stroke-width="1.51"></path><path d="M152,284L214,242L142,185Z" fill="#3d279d" stroke="#3d279d" stroke-width="1.51"></path><path d="M43,284L152,284L142,185Z" fill="#603f9f" stroke="#603f9f" stroke-width="1.51"></path><path d="M-52,88L-102,150L-59,150Z" fill="#ad8fa1" stroke="#ad8fa1" stroke-width="1.51"></path><path d="M88,-7L-41,-11L45,104Z" fill="#d8c5a1" stroke="#d8c5a1" stroke-width="1.51"></path><path d="M257,93L213,-22L178,-1Z" fill="#9775a3" stroke="#9775a3" stroke-width="1.51"></path><path d="M178,-1L181,-72L88,-7Z" fill="#b396a7" stroke="#b396a7" stroke-width="1.51"></path><path d="M88,-7L26,-85L-41,-11Z" fill="#f3ec9a" stroke="#f3ec9a" stroke-width="1.51"></path><path d="M-59,150L-41,261L71,162Z" fill="#a7879a" stroke="#a7879a" stroke-width="1.51"></path><path d="M-59,150L-102,150L-41,261Z" fill="#a7879a" stroke="#a7879a" stroke-width="1.51"></path><path d="M-143,64L-102,150L-52,88Z" fill="#b093a5" stroke="#b093a5" stroke-width="1.51"></path><path d="M257,93L332,-2L213,-22Z" fill="#93719f" stroke="#93719f" stroke-width="1.51"></path><path d="M240,177L297,95L257,93Z" fill="#3c269d" stroke="#3c269d" stroke-width="1.51"></path><path d="M322,198L297,95L240,177Z" fill="#361f96" stroke="#361f96" stroke-width="1.51"></path><path d="M244,-82L181,-72L213,-22Z" fill="#ad8fa2" stroke="#ad8fa2" stroke-width="1.51"></path><path d="M213,-22L181,-72L178,-1Z" fill="#af91a4" stroke="#af91a4" stroke-width="1.51"></path><path d="M181,-72L26,-85L88,-7Z" fill="#ceb8a3" stroke="#ceb8a3" stroke-width="1.51"></path><path d="M26,-85L-10,-79L-41,-11Z" fill="#fffe96" stroke="#fffe96" stroke-width="1.51"></path><path d="M-104,-75L-96,-7L-41,-11Z" fill="#fffe96" stroke="#fffe96" stroke-width="1.51"></path><path d="M-41,-11L-96,-7L-52,88Z" fill="#ece19c" stroke="#ece19c" stroke-width="1.51"></path><path d="M-96,-7L-143,64L-52,88Z" fill="#d6c3a1" stroke="#d6c3a1" stroke-width="1.51"></path><path d="M313,266L322,198L240,177Z" fill="#321c92" stroke="#321c92" stroke-width="1.51"></path><path d="M313,266L240,177L214,242Z" fill="#351f96" stroke="#351f96" stroke-width="1.51"></path><path d="M332,-2L244,-82L213,-22Z" fill="#a98b9d" stroke="#a98b9d" stroke-width="1.51"></path><path d="M181,-72L244,-82L26,-85Z" fill="#b295a7" stroke="#b295a7" stroke-width="1.51"></path><path d="M152,284L313,266L214,242Z" fill="#382298" stroke="#382298" stroke-width="1.51"></path><path d="M297,95L332,-2L257,93Z" fill="#66449f" stroke="#66449f" stroke-width="1.51"></path><path d="M416,58L332,-2L297,95Z" fill="#73509e" stroke="#73509e" stroke-width="1.51"></path><path d="M-96,-7L-104,-75L-143,64Z" fill="#fffe96" stroke="#fffe96" stroke-width="1.51"></path><path d="M-10,-79L-104,-75L-41,-11Z" fill="#fffe96" stroke="#fffe96" stroke-width="1.51"></path><path d="M26,-85L-104,-75L-10,-79Z" fill="#fffe96" stroke="#fffe96" stroke-width="1.51"></path><path d="M332,-2L298,-89L244,-82Z" fill="#a7889b" stroke="#a7889b" stroke-width="1.51"></path><path d="M244,-82L434,-121L26,-85Z" fill="#ac8ea0" stroke="#ac8ea0" stroke-width="1.51"></path><path d="M-102,150L-150,288L-41,261Z" fill="#a7879a" stroke="#a7879a" stroke-width="1.51"></path><path d="M-41,261L-150,288L43,284Z" fill="#a7879a" stroke="#a7879a" stroke-width="1.51"></path><path d="M43,284L-150,288L152,284Z" fill="#9e7d9b" stroke="#9e7d9b" stroke-width="1.51"></path><path d="M-143,64L-150,288L-102,150Z" fill="#a8899c" stroke="#a8899c" stroke-width="1.51"></path><path d="M322,198L408,193L297,95Z" fill="#331d94" stroke="#331d94" stroke-width="1.51"></path><path d="M313,266L408,193L322,198Z" fill="#311b92" stroke="#311b92" stroke-width="1.51"></path><path d="M332,-2L434,-121L298,-89Z" fill="#a7879a" stroke="#a7879a" stroke-width="1.51"></path><path d="M408,193L416,58L297,95Z" fill="#3a249b" stroke="#3a249b" stroke-width="1.51"></path><path d="M408,193L436,261L416,58Z" fill="#321c93" stroke="#321c93" stroke-width="1.51"></path><path d="M313,266L436,261L408,193Z" fill="#311b92" stroke="#311b92" stroke-width="1.51"></path><path d="M152,284L436,261L313,266Z" fill="#311b92" stroke="#311b92" stroke-width="1.51"></path><path d="M416,58L448,-6L332,-2Z" fill="#97759c" stroke="#97759c" stroke-width="1.51"></path><path d="M436,261L448,-6L416,58Z" fill="#3c269c" stroke="#3c269c" stroke-width="1.51"></path><path d="M448,-6L434,-121L332,-2Z" fill="#a7879a" stroke="#a7879a" stroke-width="1.51"></path><path d="M298,-89L434,-121L244,-82Z" fill="#a7879a" stroke="#a7879a" stroke-width="1.51"></path><path d="M26,-85L434,-121L-104,-75Z" fill="#c3aaa5" stroke="#c3aaa5" stroke-width="1.51"></path></svg>