<svg width="300" height="176" xmlns="http://www.w3.org/2000/svg"><path d="M-131,-86L46,-77L126,-92Z" fill="#8970dd" stroke="#8970dd" stroke-width="1.51"></path><path d="M173,246L79,254L244,255Z" fill="#412ba2" stroke="#412ba2" stroke-width="1.51"></path><path d="M79,254L-28,275L244,255Z" fill="#4b33a8" stroke="#4b33a8" stroke-width="1.51"></path><path d="M-28,275L-104,296L244,255Z" fill="#553baf" stroke="#553baf" stroke-width="1.51"></path><path d="M332,261L244,255L411,275Z" fill="#3a249a" stroke="#3a249a" stroke-width="1.51"></path><path d="M244,255L-104,296L411,275Z" fill="#3f299f" stroke="#3f299f" stroke-width="1.51"></path><path d="M342,178L332,261L411,275Z" fill="#3a249a" stroke="#3a249a" stroke-width="1.51"></path><path d="M-131,-86L126,-92L419,-104Z" fill="#775fcf" stroke="#775fcf" stroke-width="1.51"></path><path d="M126,-92L269,-85L419,-104Z" fill="#7058c8" stroke="#7058c8" stroke-width="1.51"></path><path d="M269,-85L315,-76L419,-104Z" fill="#6d54c4" stroke="#6d54c4" stroke-width="1.51"></path><path d="M342,178L411,275L436,189Z" fill="#3a249a" stroke="#3a249a" stroke-width="1.51"></path><path d="M400,-4L317,77L437,60Z" fill="#4d35aa" stroke="#4d35aa" stroke-width="1.51"></path><path d="M342,178L436,189L437,60Z" fill="#3e289e" stroke="#3e289e" stroke-width="1.51"></path><path d="M317,77L342,178L437,60Z" fill="#422ba2" stroke="#422ba2" stroke-width="1.51"></path><path d="M419,-104L400,-4L437,60Z" fill="#5940b4" stroke="#5940b4" stroke-width="1.51"></path><path d="M315,-76L400,-4L419,-104Z" fill="#654cbe" stroke="#654cbe" stroke-width="1.51"></path><path d="M315,-76L325,-7L400,-4Z" fill="#5f46b9" stroke="#5f46b9" stroke-width="1.51"></path><path d="M325,-7L317,77L400,-4Z" fill="#533bb0" stroke="#533bb0" stroke-width="1.51"></path><path d="M317,77L228,116L342,178Z" fill="#432da4" stroke="#432da4" stroke-width="1.51"></path><path d="M228,116L211,169L342,178Z" fill="#432ca3" stroke="#432ca3" stroke-width="1.51"></path><path d="M244,255L332,261L342,178Z" fill="#3d279d" stroke="#3d279d" stroke-width="1.51"></path><path d="M211,169L244,255L342,178Z" fill="#402aa0" stroke="#402aa0" stroke-width="1.51"></path><path d="M315,-76L269,-85L325,-7Z" fill="#674ec0" stroke="#674ec0" stroke-width="1.51"></path><path d="M235,-3L317,77L325,-7Z" fill="#563db2" stroke="#563db2" stroke-width="1.51"></path><path d="M269,-85L235,-3L325,-7Z" fill="#624abc" stroke="#624abc" stroke-width="1.51"></path><path d="M235,-3L228,116L317,77Z" fill="#4d36ac" stroke="#4d36ac" stroke-width="1.51"></path><path d="M-131,-86L-39,-69L46,-77Z" fill="#9077e3" stroke="#9077e3" stroke-width="1.51"></path><path d="M183,59L228,116L235,-3Z" fill="#5039af" stroke="#5039af" stroke-width="1.51"></path><path d="M126,-92L235,-3L269,-85Z" fill="#6b52c4" stroke="#6b52c4" stroke-width="1.51"></path><path d="M126,-92L162,3L235,-3Z" fill="#664ec0" stroke="#664ec0" stroke-width="1.51"></path><path d="M211,169L173,246L244,255Z" fill="#412ba1" stroke="#412ba1" stroke-width="1.51"></path><path d="M162,3L183,59L235,-3Z" fill="#5a42b6" stroke="#5a42b6" stroke-width="1.51"></path><path d="M145,158L211,169L228,116Z" fill="#4630a6" stroke="#4630a6" stroke-width="1.51"></path><path d="M183,59L145,158L228,116Z" fill="#4832a9" stroke="#4832a9" stroke-width="1.51"></path><path d="M145,158L173,246L211,169Z" fill="#442ea5" stroke="#442ea5" stroke-width="1.51"></path><path d="M162,3L87,118L183,59Z" fill="#533cb2" stroke="#533cb2" stroke-width="1.51"></path><path d="M87,118L145,158L183,59Z" fill="#4c36ac" stroke="#4c36ac" stroke-width="1.51"></path><path d="M145,158L79,254L173,246Z" fill="#4730a7" stroke="#4730a7" stroke-width="1.51"></path><path d="M53,192L79,254L145,158Z" fill="#4f37ad" stroke="#4f37ad" stroke-width="1.51"></path><path d="M126,-92L44,-22L162,3Z" fill="#6f56c8" stroke="#6f56c8" stroke-width="1.51"></path><path d="M44,-22L87,118L162,3Z" fill="#6149bc" stroke="#6149bc" stroke-width="1.51"></path><path d="M46,-77L44,-22L126,-92Z" fill="#7b62d1" stroke="#7b62d1" stroke-width="1.51"></path><path d="M87,118L53,192L145,158Z" fill="#5139af" stroke="#5139af" stroke-width="1.51"></path><path d="M44,-22L-32,66L87,118Z" fill="#674ec1" stroke="#674ec1" stroke-width="1.51"></path><path d="M-26,186L53,192L87,118Z" fill="#5a42b6" stroke="#5a42b6" stroke-width="1.51"></path><path d="M-32,66L-26,186L87,118Z" fill="#6149bc" stroke="#6149bc" stroke-width="1.51"></path><path d="M-23,-7L-32,66L44,-22Z" fill="#765dcd" stroke="#765dcd" stroke-width="1.51"></path><path d="M53,192L-28,275L79,254Z" fill="#563eb2" stroke="#563eb2" stroke-width="1.51"></path><path d="M-39,-69L44,-22L46,-77Z" fill="#8269d8" stroke="#8269d8" stroke-width="1.51"></path><path d="M-26,186L-28,275L53,192Z" fill="#5e45b8" stroke="#5e45b8" stroke-width="1.51"></path><path d="M-39,-69L-23,-7L44,-22Z" fill="#8068d6" stroke="#8068d6" stroke-width="1.51"></path><path d="M-146,82L-104,169L-32,66Z" fill="#735acb" stroke="#735acb" stroke-width="1.51"></path><path d="M-104,169L-104,296L-28,275Z" fill="#694fc0" stroke="#694fc0" stroke-width="1.51"></path><path d="M-104,169L-28,275L-26,186Z" fill="#664dbf" stroke="#664dbf" stroke-width="1.51"></path><path d="M-32,66L-104,169L-26,186Z" fill="#6a51c3" stroke="#6a51c3" stroke-width="1.51"></path><path d="M-89,-8L-32,66L-23,-7Z" fill="#7c63d3" stroke="#7c63d3" stroke-width="1.51"></path><path d="M-39,-69L-89,-8L-23,-7Z" fill="#866edb" stroke="#866edb" stroke-width="1.51"></path><path d="M-89,-8L-146,82L-32,66Z" fill="#7c64d3" stroke="#7c64d3" stroke-width="1.51"></path><path d="M-131,-86L-89,-8L-39,-69Z" fill="#927ae5" stroke="#927ae5" stroke-width="1.51"></path><path d="M-131,-86L-146,82L-89,-8Z" fill="#8d74e0" stroke="#8d74e0" stroke-width="1.51"></path><path d="M-104,169L-146,82L-104,296Z" fill="#7259c9" stroke="#7259c9" stroke-width="1.51"></path></svg>