<svg width="300" height="176" xmlns="http://www.w3.org/2000/svg"><path d="M153,249L71,257L231,261Z" fill="#422ca2" stroke="#422ca2" stroke-width="1.51"></path><path d="M71,257L-49,299L231,261Z" fill="#4c35aa" stroke="#4c35aa" stroke-width="1.51"></path><path d="M88,-73L131,-76L266,-120Z" fill="#745bcc" stroke="#745bcc" stroke-width="1.51"></path><path d="M-108,-117L88,-73L266,-120Z" fill="#8269d8" stroke="#8269d8" stroke-width="1.51"></path><path d="M231,261L-49,299L343,295Z" fill="#3f299f" stroke="#3f299f" stroke-width="1.51"></path><path d="M341,-103L356,-22L400,-8Z" fill="#6249bb" stroke="#6249bb" stroke-width="1.51"></path><path d="M266,-120L341,-103L443,-115Z" fill="#7259c8" stroke="#7259c8" stroke-width="1.51"></path><path d="M341,-103L400,-8L443,-115Z" fill="#684ebf" stroke="#684ebf" stroke-width="1.51"></path><path d="M398,120L416,207L443,-115Z" fill="#442ea4" stroke="#442ea4" stroke-width="1.51"></path><path d="M400,-8L398,120L443,-115Z" fill="#563db1" stroke="#563db1" stroke-width="1.51"></path><path d="M416,207L434,279L443,-115Z" fill="#3e289e" stroke="#3e289e" stroke-width="1.51"></path><path d="M333,114L398,120L400,-8Z" fill="#452ea5" stroke="#452ea5" stroke-width="1.51"></path><path d="M416,207L343,295L434,279Z" fill="#372198" stroke="#372198" stroke-width="1.51"></path><path d="M356,-22L333,114L400,-8Z" fill="#5139ae" stroke="#5139ae" stroke-width="1.51"></path><path d="M296,202L343,295L416,207Z" fill="#3b259b" stroke="#3b259b" stroke-width="1.51"></path><path d="M398,120L333,114L416,207Z" fill="#3e289f" stroke="#3e289f" stroke-width="1.51"></path><path d="M333,114L296,202L416,207Z" fill="#3e289f" stroke="#3e289f" stroke-width="1.51"></path><path d="M249,3L244,114L333,114Z" fill="#4933a9" stroke="#4933a9" stroke-width="1.51"></path><path d="M266,-120L249,3L341,-103Z" fill="#6b52c4" stroke="#6b52c4" stroke-width="1.51"></path><path d="M341,-103L249,3L356,-22Z" fill="#634abc" stroke="#634abc" stroke-width="1.51"></path><path d="M249,3L333,114L356,-22Z" fill="#533aaf" stroke="#533aaf" stroke-width="1.51"></path><path d="M269,196L296,202L333,114Z" fill="#412ba1" stroke="#412ba1" stroke-width="1.51"></path><path d="M296,202L231,261L343,295Z" fill="#3c269c" stroke="#3c269c" stroke-width="1.51"></path><path d="M244,114L269,196L333,114Z" fill="#432da3" stroke="#432da3" stroke-width="1.51"></path><path d="M-108,-117L-17,-78L88,-73Z" fill="#8e76e1" stroke="#8e76e1" stroke-width="1.51"></path><path d="M269,196L231,261L296,202Z" fill="#3f299f" stroke="#3f299f" stroke-width="1.51"></path><path d="M173,16L244,114L249,3Z" fill="#533bb1" stroke="#533bb1" stroke-width="1.51"></path><path d="M131,-76L173,16L249,3Z" fill="#634bbe" stroke="#634bbe" stroke-width="1.51"></path><path d="M131,-76L249,3L266,-120Z" fill="#6c53c5" stroke="#6c53c5" stroke-width="1.51"></path><path d="M153,249L231,261L269,196Z" fill="#402aa0" stroke="#402aa0" stroke-width="1.51"></path><path d="M129,166L153,249L269,196Z" fill="#432da4" stroke="#432da4" stroke-width="1.51"></path><path d="M244,114L129,166L269,196Z" fill="#452fa5" stroke="#452fa5" stroke-width="1.51"></path><path d="M147,117L129,166L244,114Z" fill="#4832a8" stroke="#4832a8" stroke-width="1.51"></path><path d="M173,16L147,117L244,114Z" fill="#4b34ab" stroke="#4b34ab" stroke-width="1.51"></path><path d="M131,-76L88,-73L173,16Z" fill="#6e55c6" stroke="#6e55c6" stroke-width="1.51"></path><path d="M88,-73L31,2L173,16Z" fill="#6d54c6" stroke="#6d54c6" stroke-width="1.51"></path><path d="M31,2L69,86L173,16Z" fill="#6249bd" stroke="#6249bd" stroke-width="1.51"></path><path d="M69,86L147,117L173,16Z" fill="#523bb1" stroke="#523bb1" stroke-width="1.51"></path><path d="M129,166L71,257L153,249Z" fill="#4932a8" stroke="#4932a8" stroke-width="1.51"></path><path d="M69,86L129,166L147,117Z" fill="#4f38ae" stroke="#4f38ae" stroke-width="1.51"></path><path d="M32,171L71,257L129,166Z" fill="#5239af" stroke="#5239af" stroke-width="1.51"></path><path d="M69,86L32,171L129,166Z" fill="#553db2" stroke="#553db2" stroke-width="1.51"></path><path d="M31,2L3,70L69,86Z" fill="#674ec1" stroke="#674ec1" stroke-width="1.51"></path><path d="M-17,-78L31,2L88,-73Z" fill="#7e65d4" stroke="#7e65d4" stroke-width="1.51"></path><path d="M3,70L32,171L69,86Z" fill="#5d46ba" stroke="#5d46ba" stroke-width="1.51"></path><path d="M32,171L-10,169L71,257Z" fill="#5a41b5" stroke="#5a41b5" stroke-width="1.51"></path><path d="M-10,169L-49,299L71,257Z" fill="#5c43b6" stroke="#5c43b6" stroke-width="1.51"></path><path d="M-38,-24L3,70L31,2Z" fill="#755ccc" stroke="#755ccc" stroke-width="1.51"></path><path d="M-17,-78L-38,-24L31,2Z" fill="#8168d6" stroke="#8168d6" stroke-width="1.51"></path><path d="M3,70L-10,169L32,171Z" fill="#6148bb" stroke="#6148bb" stroke-width="1.51"></path><path d="M-149,187L-49,299L-10,169Z" fill="#694fc1" stroke="#694fc1" stroke-width="1.51"></path><path d="M-105,83L-10,169L3,70Z" fill="#6951c3" stroke="#6951c3" stroke-width="1.51"></path><path d="M-38,-24L-105,83L3,70Z" fill="#765dcd" stroke="#765dcd" stroke-width="1.51"></path><path d="M-149,187L-142,281L-49,299Z" fill="#6e54c4" stroke="#6e54c4" stroke-width="1.51"></path><path d="M-105,83L-149,187L-10,169Z" fill="#7056c7" stroke="#7056c7" stroke-width="1.51"></path><path d="M-108,-117L-38,-24L-17,-78Z" fill="#9178e4" stroke="#9178e4" stroke-width="1.51"></path><path d="M-153,-7L-105,83L-38,-24Z" fill="#846cd9" stroke="#846cd9" stroke-width="1.51"></path><path d="M-108,-117L-153,-7L-38,-24Z" fill="#937ae5" stroke="#937ae5" stroke-width="1.51"></path><path d="M-153,-7L-149,187L-105,83Z" fill="#7a61d1" stroke="#7a61d1" stroke-width="1.51"></path></svg>