<svg width="300" height="176" xmlns="http://www.w3.org/2000/svg"><path d="M183,88L165,152L231,105Z" fill="#442ea4" stroke="#442ea4" stroke-width="1.51"></path><path d="M165,152L251,175L231,105Z" fill="#3e289e" stroke="#3e289e" stroke-width="1.51"></path><path d="M44,119L45,144L165,152Z" fill="#7856a3" stroke="#7856a3" stroke-width="1.51"></path><path d="M231,105L179,14L183,88Z" fill="#6445a8" stroke="#6445a8" stroke-width="1.51"></path><path d="M231,105L303,60L179,14Z" fill="#6d4ca4" stroke="#6d4ca4" stroke-width="1.51"></path><path d="M251,175L303,60L231,105Z" fill="#3e289e" stroke="#3e289e" stroke-width="1.51"></path><path d="M251,175L311,197L303,60Z" fill="#372197" stroke="#372197" stroke-width="1.51"></path><path d="M216,293L311,197L251,175Z" fill="#351f95" stroke="#351f95" stroke-width="1.51"></path><path d="M165,152L216,293L251,175Z" fill="#392399" stroke="#392399" stroke-width="1.51"></path><path d="M44,119L165,152L183,88Z" fill="#593ca8" stroke="#593ca8" stroke-width="1.51"></path><path d="M49,28L44,119L183,88Z" fill="#8564ab" stroke="#8564ab" stroke-width="1.51"></path><path d="M179,14L49,28L183,88Z" fill="#8e6daa" stroke="#8e6daa" stroke-width="1.51"></path><path d="M303,60L230,-34L179,14Z" fill="#9f7ea1" stroke="#9f7ea1" stroke-width="1.51"></path><path d="M45,144L81,247L165,152Z" fill="#6c499e" stroke="#6c499e" stroke-width="1.51"></path><path d="M151,301L216,293L165,152Z" fill="#3c269c" stroke="#3c269c" stroke-width="1.51"></path><path d="M85,-70L49,28L179,14Z" fill="#cbb4a4" stroke="#cbb4a4" stroke-width="1.51"></path><path d="M81,247L151,301L165,152Z" fill="#50339f" stroke="#50339f" stroke-width="1.51"></path><path d="M230,-34L220,-64L179,14Z" fill="#ae90a2" stroke="#ae90a2" stroke-width="1.51"></path><path d="M359,-125L220,-64L230,-34Z" fill="#a98a9d" stroke="#a98a9d" stroke-width="1.51"></path><path d="M303,60L361,-11L230,-34Z" fill="#a2829b" stroke="#a2829b" stroke-width="1.51"></path><path d="M311,197L401,120L303,60Z" fill="#392399" stroke="#392399" stroke-width="1.51"></path><path d="M436,150L401,120L311,197Z" fill="#341e95" stroke="#341e95" stroke-width="1.51"></path><path d="M220,-64L136,-73L179,14Z" fill="#b092a5" stroke="#b092a5" stroke-width="1.51"></path><path d="M401,120L361,-11L303,60Z" fill="#6c4a9e" stroke="#6c4a9e" stroke-width="1.51"></path><path d="M-23,105L-22,146L44,119Z" fill="#ad90a2" stroke="#ad90a2" stroke-width="1.51"></path><path d="M44,119L-22,146L45,144Z" fill="#9f7fa2" stroke="#9f7fa2" stroke-width="1.51"></path><path d="M45,144L-22,146L81,247Z" fill="#93719c" stroke="#93719c" stroke-width="1.51"></path><path d="M49,28L-23,105L44,119Z" fill="#a98aa8" stroke="#a98aa8" stroke-width="1.51"></path><path d="M-42,-14L-23,105L49,28Z" fill="#ddcea0" stroke="#ddcea0" stroke-width="1.51"></path><path d="M136,-73L85,-70L179,14Z" fill="#bba1a6" stroke="#bba1a6" stroke-width="1.51"></path><path d="M216,293L363,300L311,197Z" fill="#321c92" stroke="#321c92" stroke-width="1.51"></path><path d="M151,301L363,300L216,293Z" fill="#362097" stroke="#362097" stroke-width="1.51"></path><path d="M386,282L436,150L311,197Z" fill="#311b92" stroke="#311b92" stroke-width="1.51"></path><path d="M401,120L448,8L361,-11Z" fill="#805d9e" stroke="#805d9e" stroke-width="1.51"></path><path d="M363,300L386,282L311,197Z" fill="#311b92" stroke="#311b92" stroke-width="1.51"></path><path d="M-22,146L-20,292L81,247Z" fill="#9f7f9b" stroke="#9f7f9b" stroke-width="1.51"></path><path d="M81,247L-20,292L151,301Z" fill="#7d5a9e" stroke="#7d5a9e" stroke-width="1.51"></path><path d="M-92,273L-20,292L-22,146Z" fill="#a7879a" stroke="#a7879a" stroke-width="1.51"></path><path d="M-149,144L-92,273L-22,146Z" fill="#a7879a" stroke="#a7879a" stroke-width="1.51"></path><path d="M85,-70L-42,-14L49,28Z" fill="#f0e89b" stroke="#f0e89b" stroke-width="1.51"></path><path d="M436,150L448,8L401,120Z" fill="#3e289e" stroke="#3e289e" stroke-width="1.51"></path><path d="M361,-11L359,-125L230,-34Z" fill="#a7879a" stroke="#a7879a" stroke-width="1.51"></path><path d="M448,8L386,-87L361,-11Z" fill="#a7879a" stroke="#a7879a" stroke-width="1.51"></path><path d="M220,-64L359,-125L136,-73Z" fill="#ab8da0" stroke="#ab8da0" stroke-width="1.51"></path><path d="M386,-87L359,-125L361,-11Z" fill="#a7879a" stroke="#a7879a" stroke-width="1.51"></path><path d="M136,-73L-23,-105L85,-70Z" fill="#decfa0" stroke="#decfa0" stroke-width="1.51"></path><path d="M85,-70L-23,-105L-42,-14Z" fill="#fcf997" stroke="#fcf997" stroke-width="1.51"></path><path d="M359,-125L-23,-105L136,-73Z" fill="#b295a7" stroke="#b295a7" stroke-width="1.51"></path><path d="M-149,144L-22,146L-23,105Z" fill="#ac8ea1" stroke="#ac8ea1" stroke-width="1.51"></path><path d="M-110,20L-122,67L-23,105Z" fill="#c8b1a4" stroke="#c8b1a4" stroke-width="1.51"></path><path d="M-110,20L-23,105L-42,-14Z" fill="#e0d19f" stroke="#e0d19f" stroke-width="1.51"></path><path d="M-112,-61L-110,20L-42,-14Z" fill="#fffe96" stroke="#fffe96" stroke-width="1.51"></path><path d="M-112,-61L-149,144L-122,67Z" fill="#d5c1a2" stroke="#d5c1a2" stroke-width="1.51"></path><path d="M-122,67L-149,144L-23,105Z" fill="#b092a5" stroke="#b092a5" stroke-width="1.51"></path><path d="M-110,20L-112,-61L-122,67Z" fill="#f8f399" stroke="#f8f399" stroke-width="1.51"></path><path d="M-23,-105L-112,-61L-42,-14Z" fill="#fffe96" stroke="#fffe96" stroke-width="1.51"></path></svg>