<svg width="300" height="176" xmlns="http://www.w3.org/2000/svg"><path d="M140,65L223,26L146,13Z" fill="#694aab" stroke="#694aab" stroke-width="1.51"></path><path d="M140,65L227,54L223,26Z" fill="#6143aa" stroke="#6143aa" stroke-width="1.51"></path><path d="M223,26L146,-76L146,13Z" fill="#7f5eaa" stroke="#7f5eaa" stroke-width="1.51"></path><path d="M146,13L37,61L140,65Z" fill="#7353ab" stroke="#7353ab" stroke-width="1.51"></path><path d="M140,65L218,172L227,54Z" fill="#4933a9" stroke="#4933a9" stroke-width="1.51"></path><path d="M146,-76L64,-24L146,13Z" fill="#906faa" stroke="#906faa" stroke-width="1.51"></path><path d="M140,65L120,195L218,172Z" fill="#4831a8" stroke="#4831a8" stroke-width="1.51"></path><path d="M64,-24L37,61L146,13Z" fill="#8867ab" stroke="#8867ab" stroke-width="1.51"></path><path d="M223,26L240,-121L146,-76Z" fill="#9270a8" stroke="#9270a8" stroke-width="1.51"></path><path d="M227,54L336,3L223,26Z" fill="#6949a7" stroke="#6949a7" stroke-width="1.51"></path><path d="M360,94L336,3L227,54Z" fill="#5c3ea5" stroke="#5c3ea5" stroke-width="1.51"></path><path d="M64,-24L-16,-34L37,61Z" fill="#9f7fa9" stroke="#9f7fa9" stroke-width="1.51"></path><path d="M146,-76L64,-70L64,-24Z" fill="#a484a9" stroke="#a484a9" stroke-width="1.51"></path><path d="M81,188L120,195L140,65Z" fill="#583ca9" stroke="#583ca9" stroke-width="1.51"></path><path d="M146,-76L240,-121L64,-70Z" fill="#a080a9" stroke="#a080a9" stroke-width="1.51"></path><path d="M336,3L240,-121L223,26Z" fill="#8462a6" stroke="#8462a6" stroke-width="1.51"></path><path d="M37,61L81,188L140,65Z" fill="#6547ab" stroke="#6547ab" stroke-width="1.51"></path><path d="M357,149L360,94L227,54Z" fill="#442ea4" stroke="#442ea4" stroke-width="1.51"></path><path d="M218,172L357,149L227,54Z" fill="#452ea5" stroke="#452ea5" stroke-width="1.51"></path><path d="M120,195L130,241L218,172Z" fill="#452fa5" stroke="#452fa5" stroke-width="1.51"></path><path d="M79,241L130,241L120,195Z" fill="#5539a4" stroke="#5539a4" stroke-width="1.51"></path><path d="M248,241L357,149L218,172Z" fill="#402aa1" stroke="#402aa1" stroke-width="1.51"></path><path d="M336,3L317,-111L240,-121Z" fill="#9674a3" stroke="#9674a3" stroke-width="1.51"></path><path d="M406,-84L317,-111L336,3Z" fill="#8f6ca1" stroke="#8f6ca1" stroke-width="1.51"></path><path d="M130,241L248,241L218,172Z" fill="#422ca2" stroke="#422ca2" stroke-width="1.51"></path><path d="M64,-70L-16,-34L64,-24Z" fill="#ad8fa7" stroke="#ad8fa7" stroke-width="1.51"></path><path d="M-14,165L79,241L81,188Z" fill="#6e4da5" stroke="#6e4da5" stroke-width="1.51"></path><path d="M81,188L79,241L120,195Z" fill="#5d3fa5" stroke="#5d3fa5" stroke-width="1.51"></path><path d="M-14,165L81,188L37,61Z" fill="#7554a8" stroke="#7554a8" stroke-width="1.51"></path><path d="M-53,71L-14,165L37,61Z" fill="#8664aa" stroke="#8664aa" stroke-width="1.51"></path><path d="M-16,-34L-53,71L37,61Z" fill="#9d7da9" stroke="#9d7da9" stroke-width="1.51"></path><path d="M451,26L406,-84L336,3Z" fill="#7a57a1" stroke="#7a57a1" stroke-width="1.51"></path><path d="M357,149L387,175L360,94Z" fill="#3f29a0" stroke="#3f29a0" stroke-width="1.51"></path><path d="M324,275L387,175L357,149Z" fill="#3c269d" stroke="#3c269d" stroke-width="1.51"></path><path d="M451,26L336,3L360,94Z" fill="#5e3fa2" stroke="#5e3fa2" stroke-width="1.51"></path><path d="M387,175L447,66L360,94Z" fill="#402aa0" stroke="#402aa0" stroke-width="1.51"></path><path d="M447,66L451,26L360,94Z" fill="#5135a1" stroke="#5135a1" stroke-width="1.51"></path><path d="M-16,-34L-111,17L-53,71Z" fill="#b093a7" stroke="#b093a7" stroke-width="1.51"></path><path d="M64,-70L-49,-103L-16,-34Z" fill="#c0a7a5" stroke="#c0a7a5" stroke-width="1.51"></path><path d="M240,-121L-49,-103L64,-70Z" fill="#b599a7" stroke="#b599a7" stroke-width="1.51"></path><path d="M-23,264L324,275L130,241Z" fill="#442da2" stroke="#442da2" stroke-width="1.51"></path><path d="M130,241L324,275L248,241Z" fill="#3e289f" stroke="#3e289f" stroke-width="1.51"></path><path d="M248,241L324,275L357,149Z" fill="#3d279d" stroke="#3d279d" stroke-width="1.51"></path><path d="M-49,-103L-111,17L-16,-34Z" fill="#c5aca5" stroke="#c5aca5" stroke-width="1.51"></path><path d="M-125,161L-23,264L-14,165Z" fill="#8e6ca4" stroke="#8e6ca4" stroke-width="1.51"></path><path d="M324,275L392,251L387,175Z" fill="#3a239a" stroke="#3a239a" stroke-width="1.51"></path><path d="M387,175L392,251L447,66Z" fill="#3d269d" stroke="#3d269d" stroke-width="1.51"></path><path d="M79,241L-23,264L130,241Z" fill="#6746a2" stroke="#6746a2" stroke-width="1.51"></path><path d="M-14,165L-23,264L79,241Z" fill="#7856a3" stroke="#7856a3" stroke-width="1.51"></path><path d="M-125,161L-14,165L-53,71Z" fill="#9473a7" stroke="#9473a7" stroke-width="1.51"></path><path d="M-111,17L-135,80L-53,71Z" fill="#ac8ea7" stroke="#ac8ea7" stroke-width="1.51"></path><path d="M-135,80L-125,161L-53,71Z" fill="#a181a8" stroke="#a181a8" stroke-width="1.51"></path><path d="M-111,17L-146,-82L-135,80Z" fill="#c7afa4" stroke="#c7afa4" stroke-width="1.51"></path><path d="M-49,-103L-146,-82L-111,17Z" fill="#d5c2a2" stroke="#d5c2a2" stroke-width="1.51"></path><path d="M-135,80L-114,288L-125,161Z" fill="#a383a3" stroke="#a383a3" stroke-width="1.51"></path><path d="M-125,161L-114,288L-23,264Z" fill="#9574a1" stroke="#9574a1" stroke-width="1.51"></path><path d="M-23,264L-114,288L324,275Z" fill="#6544a0" stroke="#6544a0" stroke-width="1.51"></path></svg>