<svg width="300" height="176" xmlns="http://www.w3.org/2000/svg"><path d="M122,277L90,282L328,280Z" fill="#3f299f" stroke="#3f299f" stroke-width="1.51"></path><path d="M254,257L122,277L328,280Z" fill="#3d279e" stroke="#3d279e" stroke-width="1.51"></path><path d="M407,118L307,151L434,250Z" fill="#3d279d" stroke="#3d279d" stroke-width="1.51"></path><path d="M171,-123L314,-78L444,-102Z" fill="#7157c7" stroke="#7157c7" stroke-width="1.51"></path><path d="M359,-21L422,13L444,-102Z" fill="#5f46b8" stroke="#5f46b8" stroke-width="1.51"></path><path d="M407,118L434,250L449,146Z" fill="#3b259b" stroke="#3b259b" stroke-width="1.51"></path><path d="M422,13L407,118L449,146Z" fill="#402aa0" stroke="#402aa0" stroke-width="1.51"></path><path d="M444,-102L422,13L449,146Z" fill="#5038ac" stroke="#5038ac" stroke-width="1.51"></path><path d="M307,151L328,280L434,250Z" fill="#3b259b" stroke="#3b259b" stroke-width="1.51"></path><path d="M314,-78L359,-21L444,-102Z" fill="#674dbf" stroke="#674dbf" stroke-width="1.51"></path><path d="M302,101L407,118L422,13Z" fill="#452ea4" stroke="#452ea4" stroke-width="1.51"></path><path d="M359,-21L302,101L422,13Z" fill="#5139ae" stroke="#5139ae" stroke-width="1.51"></path><path d="M302,101L307,151L407,118Z" fill="#422ca2" stroke="#422ca2" stroke-width="1.51"></path><path d="M307,151L254,257L328,280Z" fill="#3d279e" stroke="#3d279e" stroke-width="1.51"></path><path d="M240,63L302,101L359,-21Z" fill="#4f37ad" stroke="#4f37ad" stroke-width="1.51"></path><path d="M314,-78L228,-15L359,-21Z" fill="#634abd" stroke="#634abd" stroke-width="1.51"></path><path d="M228,-15L240,63L359,-21Z" fill="#5941b5" stroke="#5941b5" stroke-width="1.51"></path><path d="M211,211L254,257L307,151Z" fill="#402aa0" stroke="#402aa0" stroke-width="1.51"></path><path d="M171,-123L211,-64L314,-78Z" fill="#7158c9" stroke="#7158c9" stroke-width="1.51"></path><path d="M211,-64L228,-15L314,-78Z" fill="#684fc1" stroke="#684fc1" stroke-width="1.51"></path><path d="M302,101L240,63L307,151Z" fill="#452fa5" stroke="#452fa5" stroke-width="1.51"></path><path d="M240,63L211,211L307,151Z" fill="#442ea4" stroke="#442ea4" stroke-width="1.51"></path><path d="M-56,258L-151,285L90,282Z" fill="#6148b9" stroke="#6148b9" stroke-width="1.51"></path><path d="M130,60L120,193L211,211Z" fill="#4831a8" stroke="#4831a8" stroke-width="1.51"></path><path d="M130,60L211,211L240,63Z" fill="#4832a8" stroke="#4832a8" stroke-width="1.51"></path><path d="M211,211L122,277L254,257Z" fill="#402aa0" stroke="#402aa0" stroke-width="1.51"></path><path d="M228,-15L125,22L240,63Z" fill="#5841b5" stroke="#5841b5" stroke-width="1.51"></path><path d="M125,22L130,60L240,63Z" fill="#543db2" stroke="#543db2" stroke-width="1.51"></path><path d="M87,116L120,193L130,60Z" fill="#5039af" stroke="#5039af" stroke-width="1.51"></path><path d="M211,-64L125,22L228,-15Z" fill="#634bbe" stroke="#634bbe" stroke-width="1.51"></path><path d="M-43,-95L53,-70L171,-123Z" fill="#846cd9" stroke="#846cd9" stroke-width="1.51"></path><path d="M61,-29L125,22L171,-123Z" fill="#6f57c8" stroke="#6f57c8" stroke-width="1.51"></path><path d="M171,-123L125,22L211,-64Z" fill="#6b53c5" stroke="#6b53c5" stroke-width="1.51"></path><path d="M120,193L122,277L211,211Z" fill="#432da4" stroke="#432da4" stroke-width="1.51"></path><path d="M53,-70L61,-29L171,-123Z" fill="#7a61d0" stroke="#7a61d0" stroke-width="1.51"></path><path d="M76,189L90,282L120,193Z" fill="#4d36ab" stroke="#4d36ab" stroke-width="1.51"></path><path d="M87,116L76,189L120,193Z" fill="#5039ae" stroke="#5039ae" stroke-width="1.51"></path><path d="M120,193L90,282L122,277Z" fill="#4932a7" stroke="#4932a7" stroke-width="1.51"></path><path d="M125,22L87,116L130,60Z" fill="#573fb4" stroke="#573fb4" stroke-width="1.51"></path><path d="M61,-29L87,116L125,22Z" fill="#6149bd" stroke="#6149bd" stroke-width="1.51"></path><path d="M-43,-31L-41,113L61,-29Z" fill="#765dcd" stroke="#765dcd" stroke-width="1.51"></path><path d="M-41,113L76,189L87,116Z" fill="#5b43b7" stroke="#5b43b7" stroke-width="1.51"></path><path d="M61,-29L-41,113L87,116Z" fill="#634bbf" stroke="#634bbf" stroke-width="1.51"></path><path d="M76,189L-56,258L90,282Z" fill="#563db1" stroke="#563db1" stroke-width="1.51"></path><path d="M-41,113L-64,151L76,189Z" fill="#624abd" stroke="#624abd" stroke-width="1.51"></path><path d="M-64,151L-56,258L76,189Z" fill="#6148bb" stroke="#6148bb" stroke-width="1.51"></path><path d="M53,-70L-43,-31L61,-29Z" fill="#7e65d4" stroke="#7e65d4" stroke-width="1.51"></path><path d="M-43,-95L-43,-31L53,-70Z" fill="#8970dd" stroke="#8970dd" stroke-width="1.51"></path><path d="M-64,151L-140,146L-56,258Z" fill="#6d54c5" stroke="#6d54c5" stroke-width="1.51"></path><path d="M-126,24L-105,70L-43,-31Z" fill="#8269d7" stroke="#8269d7" stroke-width="1.51"></path><path d="M-115,-79L-43,-31L-43,-95Z" fill="#9279e5" stroke="#9279e5" stroke-width="1.51"></path><path d="M-43,-31L-105,70L-41,113Z" fill="#775ece" stroke="#775ece" stroke-width="1.51"></path><path d="M-105,70L-64,151L-41,113Z" fill="#6e55c7" stroke="#6e55c7" stroke-width="1.51"></path><path d="M-115,-79L-126,24L-43,-31Z" fill="#8e75e1" stroke="#8e75e1" stroke-width="1.51"></path><path d="M-105,70L-140,146L-64,151Z" fill="#735acb" stroke="#735acb" stroke-width="1.51"></path><path d="M-140,146L-151,285L-56,258Z" fill="#7056c6" stroke="#7056c6" stroke-width="1.51"></path><path d="M-126,24L-140,146L-105,70Z" fill="#7a61d1" stroke="#7a61d1" stroke-width="1.51"></path></svg>