<svg width="300" height="176" xmlns="http://www.w3.org/2000/svg"><path d="M-13,258L-152,256L73,270Z" fill="#6047b9" stroke="#6047b9" stroke-width="1.51"></path><path d="M73,270L-152,256L216,289Z" fill="#533aaf" stroke="#533aaf" stroke-width="1.51"></path><path d="M-118,-77L159,-104L228,-120Z" fill="#8068d6" stroke="#8068d6" stroke-width="1.51"></path><path d="M401,61L345,98L404,189Z" fill="#402aa1" stroke="#402aa1" stroke-width="1.51"></path><path d="M228,-120L355,-71L433,-87Z" fill="#6e55c4" stroke="#6e55c4" stroke-width="1.51"></path><path d="M401,61L404,189L442,249Z" fill="#3c269c" stroke="#3c269c" stroke-width="1.51"></path><path d="M433,-87L355,-71L449,-32Z" fill="#654bbc" stroke="#654bbc" stroke-width="1.51"></path><path d="M355,-71L401,61L449,-32Z" fill="#5941b4" stroke="#5941b4" stroke-width="1.51"></path><path d="M401,61L442,249L449,-32Z" fill="#3f29a0" stroke="#3f29a0" stroke-width="1.51"></path><path d="M404,189L335,301L442,249Z" fill="#382299" stroke="#382299" stroke-width="1.51"></path><path d="M-118,-77L-28,-67L159,-104Z" fill="#8a71de" stroke="#8a71de" stroke-width="1.51"></path><path d="M355,-71L301,9L401,61Z" fill="#583fb3" stroke="#583fb3" stroke-width="1.51"></path><path d="M322,204L335,301L404,189Z" fill="#3b259b" stroke="#3b259b" stroke-width="1.51"></path><path d="M301,9L345,98L401,61Z" fill="#4b34a9" stroke="#4b34a9" stroke-width="1.51"></path><path d="M345,98L322,204L404,189Z" fill="#3f289f" stroke="#3f289f" stroke-width="1.51"></path><path d="M-28,-67L51,-71L159,-104Z" fill="#8068d6" stroke="#8068d6" stroke-width="1.51"></path><path d="M242,179L322,204L345,98Z" fill="#412ba1" stroke="#412ba1" stroke-width="1.51"></path><path d="M242,-30L301,9L355,-71Z" fill="#6249bb" stroke="#6249bb" stroke-width="1.51"></path><path d="M228,-120L242,-30L355,-71Z" fill="#6c53c4" stroke="#6c53c4" stroke-width="1.51"></path><path d="M322,204L216,289L335,301Z" fill="#3c269c" stroke="#3c269c" stroke-width="1.51"></path><path d="M301,9L230,74L345,98Z" fill="#4c35ab" stroke="#4c35ab" stroke-width="1.51"></path><path d="M230,74L242,179L345,98Z" fill="#452fa5" stroke="#452fa5" stroke-width="1.51"></path><path d="M242,179L216,289L322,204Z" fill="#3f299f" stroke="#3f299f" stroke-width="1.51"></path><path d="M242,-30L230,74L301,9Z" fill="#5840b4" stroke="#5840b4" stroke-width="1.51"></path><path d="M151,262L73,270L216,289Z" fill="#412ba1" stroke="#412ba1" stroke-width="1.51"></path><path d="M151,262L216,289L242,179Z" fill="#402aa1" stroke="#402aa1" stroke-width="1.51"></path><path d="M125,210L151,262L242,179Z" fill="#432da3" stroke="#432da3" stroke-width="1.51"></path><path d="M230,74L143,71L242,179Z" fill="#4832a8" stroke="#4832a8" stroke-width="1.51"></path><path d="M143,71L125,210L242,179Z" fill="#4730a7" stroke="#4730a7" stroke-width="1.51"></path><path d="M228,-120L159,-104L242,-30Z" fill="#7158c9" stroke="#7158c9" stroke-width="1.51"></path><path d="M159,-104L160,30L242,-30Z" fill="#664ec1" stroke="#664ec1" stroke-width="1.51"></path><path d="M160,30L230,74L242,-30Z" fill="#5840b5" stroke="#5840b5" stroke-width="1.51"></path><path d="M160,30L143,71L230,74Z" fill="#513ab0" stroke="#513ab0" stroke-width="1.51"></path><path d="M64,162L125,210L143,71Z" fill="#4f37ad" stroke="#4f37ad" stroke-width="1.51"></path><path d="M72,74L64,162L143,71Z" fill="#543db2" stroke="#543db2" stroke-width="1.51"></path><path d="M51,-71L63,8L159,-104Z" fill="#765dce" stroke="#765dce" stroke-width="1.51"></path><path d="M159,-104L63,8L160,30Z" fill="#6950c3" stroke="#6950c3" stroke-width="1.51"></path><path d="M63,8L143,71L160,30Z" fill="#5c44b9" stroke="#5c44b9" stroke-width="1.51"></path><path d="M63,8L72,74L143,71Z" fill="#5e46ba" stroke="#5e46ba" stroke-width="1.51"></path><path d="M125,210L73,270L151,262Z" fill="#4831a7" stroke="#4831a7" stroke-width="1.51"></path><path d="M64,162L73,270L125,210Z" fill="#4f37ac" stroke="#4f37ac" stroke-width="1.51"></path><path d="M51,-71L-30,-8L63,8Z" fill="#7960d0" stroke="#7960d0" stroke-width="1.51"></path><path d="M63,8L-30,-8L72,74Z" fill="#6d54c6" stroke="#6d54c6" stroke-width="1.51"></path><path d="M-30,-8L-21,117L72,74Z" fill="#6951c3" stroke="#6951c3" stroke-width="1.51"></path><path d="M-21,117L64,162L72,74Z" fill="#5d45b9" stroke="#5d45b9" stroke-width="1.51"></path><path d="M64,162L-8,191L73,270Z" fill="#573eb3" stroke="#573eb3" stroke-width="1.51"></path><path d="M-8,191L-13,258L73,270Z" fill="#5a41b4" stroke="#5a41b4" stroke-width="1.51"></path><path d="M-28,-67L-30,-8L51,-71Z" fill="#836bd9" stroke="#836bd9" stroke-width="1.51"></path><path d="M-21,117L-8,191L64,162Z" fill="#5f46ba" stroke="#5f46ba" stroke-width="1.51"></path><path d="M-30,-8L-112,19L-21,117Z" fill="#785fce" stroke="#785fce" stroke-width="1.51"></path><path d="M-112,19L-128,56L-21,117Z" fill="#785fcf" stroke="#785fcf" stroke-width="1.51"></path><path d="M-98,181L-13,258L-8,191Z" fill="#644cbd" stroke="#644cbd" stroke-width="1.51"></path><path d="M-21,117L-98,181L-8,191Z" fill="#684ec0" stroke="#684ec0" stroke-width="1.51"></path><path d="M-98,181L-152,256L-13,258Z" fill="#6b52c2" stroke="#6b52c2" stroke-width="1.51"></path><path d="M-118,-77L-30,-8L-28,-67Z" fill="#8d74e1" stroke="#8d74e1" stroke-width="1.51"></path><path d="M-128,56L-98,181L-21,117Z" fill="#7057c8" stroke="#7057c8" stroke-width="1.51"></path><path d="M-118,-77L-112,19L-30,-8Z" fill="#8b72df" stroke="#8b72df" stroke-width="1.51"></path><path d="M-128,56L-152,256L-98,181Z" fill="#755bcb" stroke="#755bcb" stroke-width="1.51"></path><path d="M-152,256L-128,56L-118,-77Z" fill="#7c63d2" stroke="#7c63d2" stroke-width="1.51"></path><path d="M-118,-77L-128,56L-112,19Z" fill="#8b73df" stroke="#8b73df" stroke-width="1.51"></path></svg>