<svg width="300" height="176" xmlns="http://www.w3.org/2000/svg"><path d="M35,-117L263,-113L312,-125Z" fill="#a98ba6" stroke="#a98ba6" stroke-width="1.51"></path><path d="M-10,-121L35,-117L312,-125Z" fill="#b69aa7" stroke="#b69aa7" stroke-width="1.51"></path><path d="M391,-94L354,6L414,10Z" fill="#7e5ba1" stroke="#7e5ba1" stroke-width="1.51"></path><path d="M414,10L336,58L419,100Z" fill="#5638a2" stroke="#5638a2" stroke-width="1.51"></path><path d="M419,100L360,200L439,162Z" fill="#3d279d" stroke="#3d279d" stroke-width="1.51"></path><path d="M414,10L419,100L439,162Z" fill="#402aa0" stroke="#402aa0" stroke-width="1.51"></path><path d="M343,260L226,274L439,253Z" fill="#3a249a" stroke="#3a249a" stroke-width="1.51"></path><path d="M439,162L360,200L439,253Z" fill="#3a249a" stroke="#3a249a" stroke-width="1.51"></path><path d="M360,200L343,260L439,253Z" fill="#39239a" stroke="#39239a" stroke-width="1.51"></path><path d="M354,6L336,58L414,10Z" fill="#6746a2" stroke="#6746a2" stroke-width="1.51"></path><path d="M336,58L360,200L419,100Z" fill="#412aa1" stroke="#412aa1" stroke-width="1.51"></path><path d="M336,58L265,118L360,200Z" fill="#422ca3" stroke="#422ca3" stroke-width="1.51"></path><path d="M312,-125L354,6L391,-94Z" fill="#926fa1" stroke="#926fa1" stroke-width="1.51"></path><path d="M35,-117L125,-84L263,-113Z" fill="#a889a8" stroke="#a889a8" stroke-width="1.51"></path><path d="M263,-113L237,-21L312,-125Z" fill="#9b7aa4" stroke="#9b7aa4" stroke-width="1.51"></path><path d="M312,-125L237,-21L354,6Z" fill="#8967a4" stroke="#8967a4" stroke-width="1.51"></path><path d="M225,191L343,260L360,200Z" fill="#3d279e" stroke="#3d279e" stroke-width="1.51"></path><path d="M265,118L225,191L360,200Z" fill="#412ba2" stroke="#412ba2" stroke-width="1.51"></path><path d="M120,244L-48,296L226,274Z" fill="#573aa1" stroke="#573aa1" stroke-width="1.51"></path><path d="M237,-21L336,58L354,6Z" fill="#6e4da5" stroke="#6e4da5" stroke-width="1.51"></path><path d="M225,191L226,274L343,260Z" fill="#3e289e" stroke="#3e289e" stroke-width="1.51"></path><path d="M237,-21L265,118L336,58Z" fill="#5c3ea6" stroke="#5c3ea6" stroke-width="1.51"></path><path d="M123,25L157,102L237,-21Z" fill="#684aab" stroke="#684aab" stroke-width="1.51"></path><path d="M125,-84L237,-21L263,-113Z" fill="#9776a7" stroke="#9776a7" stroke-width="1.51"></path><path d="M237,-21L157,102L265,118Z" fill="#563ba9" stroke="#563ba9" stroke-width="1.51"></path><path d="M157,102L225,191L265,118Z" fill="#4630a6" stroke="#4630a6" stroke-width="1.51"></path><path d="M157,102L123,165L225,191Z" fill="#4731a7" stroke="#4731a7" stroke-width="1.51"></path><path d="M225,191L120,244L226,274Z" fill="#412ba2" stroke="#412ba2" stroke-width="1.51"></path><path d="M125,-84L123,25L237,-21Z" fill="#8664aa" stroke="#8664aa" stroke-width="1.51"></path><path d="M123,165L120,244L225,191Z" fill="#452fa5" stroke="#452fa5" stroke-width="1.51"></path><path d="M55,235L-48,296L120,244Z" fill="#6d4ba2" stroke="#6d4ba2" stroke-width="1.51"></path><path d="M86,196L120,244L123,165Z" fill="#573aa6" stroke="#573aa6" stroke-width="1.51"></path><path d="M123,25L71,97L157,102Z" fill="#6244ac" stroke="#6244ac" stroke-width="1.51"></path><path d="M71,97L123,165L157,102Z" fill="#583caa" stroke="#583caa" stroke-width="1.51"></path><path d="M71,97L86,196L123,165Z" fill="#6042a8" stroke="#6042a8" stroke-width="1.51"></path><path d="M29,6L71,97L123,25Z" fill="#805eab" stroke="#805eab" stroke-width="1.51"></path><path d="M29,6L123,25L125,-84Z" fill="#9473aa" stroke="#9473aa" stroke-width="1.51"></path><path d="M35,-117L29,6L125,-84Z" fill="#af91a7" stroke="#af91a7" stroke-width="1.51"></path><path d="M86,196L55,235L120,244Z" fill="#5f3fa4" stroke="#5f3fa4" stroke-width="1.51"></path><path d="M71,97L-63,169L86,196Z" fill="#7654a7" stroke="#7654a7" stroke-width="1.51"></path><path d="M-63,169L55,235L86,196Z" fill="#7553a5" stroke="#7553a5" stroke-width="1.51"></path><path d="M-10,-121L29,6L35,-117Z" fill="#bfa5a6" stroke="#bfa5a6" stroke-width="1.51"></path><path d="M29,6L-32,69L71,97Z" fill="#8a68aa" stroke="#8a68aa" stroke-width="1.51"></path><path d="M-32,69L-63,169L71,97Z" fill="#8462a9" stroke="#8462a9" stroke-width="1.51"></path><path d="M-63,169L-48,296L55,235Z" fill="#825fa2" stroke="#825fa2" stroke-width="1.51"></path><path d="M-10,-121L-63,20L29,6Z" fill="#b79ba7" stroke="#b79ba7" stroke-width="1.51"></path><path d="M-105,-8L-63,20L-10,-121Z" fill="#c4aba5" stroke="#c4aba5" stroke-width="1.51"></path><path d="M-63,20L-32,69L29,6Z" fill="#a181a9" stroke="#a181a9" stroke-width="1.51"></path><path d="M-101,-117L-105,-8L-10,-121Z" fill="#d7c4a1" stroke="#d7c4a1" stroke-width="1.51"></path><path d="M-146,170L-136,299L-63,169Z" fill="#9f7ea2" stroke="#9f7ea2" stroke-width="1.51"></path><path d="M-63,169L-136,299L-48,296Z" fill="#9371a0" stroke="#9371a0" stroke-width="1.51"></path><path d="M-63,20L-151,55L-32,69Z" fill="#ab8da8" stroke="#ab8da8" stroke-width="1.51"></path><path d="M-151,55L-63,169L-32,69Z" fill="#9b7ba9" stroke="#9b7ba9" stroke-width="1.51"></path><path d="M-151,55L-146,170L-63,169Z" fill="#a484a6" stroke="#a484a6" stroke-width="1.51"></path><path d="M-105,-8L-151,55L-63,20Z" fill="#bba0a6" stroke="#bba0a6" stroke-width="1.51"></path><path d="M-151,55L-105,-8L-101,-117Z" fill="#ceb9a3" stroke="#ceb9a3" stroke-width="1.51"></path></svg>