<svg width="300" height="176" xmlns="http://www.w3.org/2000/svg"><path d="M154,119L89,90L119,166Z" fill="#563baa" stroke="#563baa" stroke-width="1.51"></path><path d="M89,90L38,187L119,166Z" fill="#6445a8" stroke="#6445a8" stroke-width="1.51"></path><path d="M148,17L93,13L89,90Z" fill="#7555ac" stroke="#7555ac" stroke-width="1.51"></path><path d="M89,90L-26,80L38,187Z" fill="#7755a9" stroke="#7755a9" stroke-width="1.51"></path><path d="M154,119L148,17L89,90Z" fill="#5c40ac" stroke="#5c40ac" stroke-width="1.51"></path><path d="M154,119L219,59L148,17Z" fill="#583dab" stroke="#583dab" stroke-width="1.51"></path><path d="M257,181L219,59L154,119Z" fill="#4731a7" stroke="#4731a7" stroke-width="1.51"></path><path d="M119,166L257,181L154,119Z" fill="#4630a7" stroke="#4630a7" stroke-width="1.51"></path><path d="M69,264L125,257L119,166Z" fill="#583aa4" stroke="#583aa4" stroke-width="1.51"></path><path d="M93,13L-26,80L89,90Z" fill="#7f5dab" stroke="#7f5dab" stroke-width="1.51"></path><path d="M-7,300L69,264L38,187Z" fill="#714ea2" stroke="#714ea2" stroke-width="1.51"></path><path d="M38,187L69,264L119,166Z" fill="#6444a5" stroke="#6444a5" stroke-width="1.51"></path><path d="M-26,80L-33,151L38,187Z" fill="#8361a8" stroke="#8361a8" stroke-width="1.51"></path><path d="M239,243L257,181L119,166Z" fill="#432da3" stroke="#432da3" stroke-width="1.51"></path><path d="M307,289L239,243L125,257Z" fill="#3e289f" stroke="#3e289f" stroke-width="1.51"></path><path d="M125,257L239,243L119,166Z" fill="#432da3" stroke="#432da3" stroke-width="1.51"></path><path d="M93,13L-39,-21L-26,80Z" fill="#9b7aa9" stroke="#9b7aa9" stroke-width="1.51"></path><path d="M148,17L130,-74L93,13Z" fill="#8a67ab" stroke="#8a67ab" stroke-width="1.51"></path><path d="M242,-96L130,-74L148,17Z" fill="#906ea9" stroke="#906ea9" stroke-width="1.51"></path><path d="M130,-74L43,-68L93,13Z" fill="#9f7fa9" stroke="#9f7fa9" stroke-width="1.51"></path><path d="M-33,151L-7,300L38,187Z" fill="#7d5ba4" stroke="#7d5ba4" stroke-width="1.51"></path><path d="M-26,80L-92,160L-33,151Z" fill="#906fa7" stroke="#906fa7" stroke-width="1.51"></path><path d="M-111,63L-92,160L-26,80Z" fill="#9979a9" stroke="#9979a9" stroke-width="1.51"></path><path d="M43,-68L-39,-21L93,13Z" fill="#a889a8" stroke="#a889a8" stroke-width="1.51"></path><path d="M-92,160L-7,300L-33,151Z" fill="#8b69a4" stroke="#8b69a4" stroke-width="1.51"></path><path d="M69,264L-7,300L125,257Z" fill="#6544a0" stroke="#6544a0" stroke-width="1.51"></path><path d="M219,59L270,-18L148,17Z" fill="#6f4fa9" stroke="#6f4fa9" stroke-width="1.51"></path><path d="M328,120L270,-18L219,59Z" fill="#5b3ea7" stroke="#5b3ea7" stroke-width="1.51"></path><path d="M334,183L328,120L257,181Z" fill="#412ba1" stroke="#412ba1" stroke-width="1.51"></path><path d="M257,181L328,120L219,59Z" fill="#452ea5" stroke="#452ea5" stroke-width="1.51"></path><path d="M239,243L334,183L257,181Z" fill="#402aa0" stroke="#402aa0" stroke-width="1.51"></path><path d="M-39,-21L-111,63L-26,80Z" fill="#a788a8" stroke="#a788a8" stroke-width="1.51"></path><path d="M-39,-21L-95,-16L-111,63Z" fill="#ba9ea6" stroke="#ba9ea6" stroke-width="1.51"></path><path d="M-26,-106L-95,-16L-39,-21Z" fill="#c7aea5" stroke="#c7aea5" stroke-width="1.51"></path><path d="M239,243L307,289L334,183Z" fill="#3d279d" stroke="#3d279d" stroke-width="1.51"></path><path d="M-7,300L307,289L125,257Z" fill="#452da1" stroke="#452da1" stroke-width="1.51"></path><path d="M305,-74L242,-96L270,-18Z" fill="#916fa5" stroke="#916fa5" stroke-width="1.51"></path><path d="M270,-18L242,-96L148,17Z" fill="#8664a7" stroke="#8664a7" stroke-width="1.51"></path><path d="M130,-74L-26,-106L43,-68Z" fill="#b99da6" stroke="#b99da6" stroke-width="1.51"></path><path d="M242,-96L-26,-106L130,-74Z" fill="#aa8ca8" stroke="#aa8ca8" stroke-width="1.51"></path><path d="M43,-68L-26,-106L-39,-21Z" fill="#c1a7a5" stroke="#c1a7a5" stroke-width="1.51"></path><path d="M389,69L348,-8L328,120Z" fill="#5438a4" stroke="#5438a4" stroke-width="1.51"></path><path d="M328,120L348,-8L270,-18Z" fill="#6646a5" stroke="#6646a5" stroke-width="1.51"></path><path d="M348,-8L305,-74L270,-18Z" fill="#8461a4" stroke="#8461a4" stroke-width="1.51"></path><path d="M-111,63L-143,236L-92,160Z" fill="#a282a4" stroke="#a282a4" stroke-width="1.51"></path><path d="M-92,160L-143,236L-7,300Z" fill="#9472a1" stroke="#9472a1" stroke-width="1.51"></path><path d="M437,190L328,120L334,183Z" fill="#3e289e" stroke="#3e289e" stroke-width="1.51"></path><path d="M437,190L389,69L328,120Z" fill="#402aa0" stroke="#402aa0" stroke-width="1.51"></path><path d="M307,289L392,238L334,183Z" fill="#3b259b" stroke="#3b259b" stroke-width="1.51"></path><path d="M389,69L416,15L348,-8Z" fill="#6645a2" stroke="#6645a2" stroke-width="1.51"></path><path d="M348,-8L435,-75L305,-74Z" fill="#8a67a1" stroke="#8a67a1" stroke-width="1.51"></path><path d="M437,190L416,15L389,69Z" fill="#402aa1" stroke="#402aa1" stroke-width="1.51"></path><path d="M392,238L437,190L334,183Z" fill="#3b259b" stroke="#3b259b" stroke-width="1.51"></path><path d="M-111,63L-138,-109L-143,236Z" fill="#b295a7" stroke="#b295a7" stroke-width="1.51"></path><path d="M-95,-16L-138,-109L-111,63Z" fill="#ccb6a3" stroke="#ccb6a3" stroke-width="1.51"></path><path d="M-26,-106L-138,-109L-95,-16Z" fill="#d9c7a1" stroke="#d9c7a1" stroke-width="1.51"></path><path d="M416,15L435,-75L348,-8Z" fill="#7c59a0" stroke="#7c59a0" stroke-width="1.51"></path><path d="M305,-74L435,-75L242,-96Z" fill="#9675a2" stroke="#9675a2" stroke-width="1.51"></path><path d="M437,190L435,-75L416,15Z" fill="#5b3ca0" stroke="#5b3ca0" stroke-width="1.51"></path></svg>