<svg width="300" height="176" xmlns="http://www.w3.org/2000/svg"><path d="M121,79L138,25L85,20Z" fill="#7353ac" stroke="#7353ac" stroke-width="1.51"></path><path d="M85,20L69,110L121,79Z" fill="#6d4eac" stroke="#6d4eac" stroke-width="1.51"></path><path d="M121,79L209,103L138,25Z" fill="#573dac" stroke="#573dac" stroke-width="1.51"></path><path d="M121,161L209,103L121,79Z" fill="#4a34aa" stroke="#4a34aa" stroke-width="1.51"></path><path d="M69,110L121,161L121,79Z" fill="#5e41aa" stroke="#5e41aa" stroke-width="1.51"></path><path d="M91,160L121,161L69,110Z" fill="#6042a9" stroke="#6042a9" stroke-width="1.51"></path><path d="M69,110L-49,184L91,160Z" fill="#7453a8" stroke="#7453a8" stroke-width="1.51"></path><path d="M85,20L-5,66L69,110Z" fill="#7d5cab" stroke="#7d5cab" stroke-width="1.51"></path><path d="M85,20L-4,-25L-5,66Z" fill="#9877aa" stroke="#9877aa" stroke-width="1.51"></path><path d="M-4,-73L-4,-25L48,-114Z" fill="#bea3a5" stroke="#bea3a5" stroke-width="1.51"></path><path d="M-146,61L-49,184L-5,66Z" fill="#9675a9" stroke="#9675a9" stroke-width="1.51"></path><path d="M48,-114L-4,-25L85,20Z" fill="#aa8ca8" stroke="#aa8ca8" stroke-width="1.51"></path><path d="M176,-123L48,-114L85,20Z" fill="#a688a8" stroke="#a688a8" stroke-width="1.51"></path><path d="M209,103L273,23L138,25Z" fill="#6042a9" stroke="#6042a9" stroke-width="1.51"></path><path d="M176,-123L85,20L138,25Z" fill="#8b6aaa" stroke="#8b6aaa" stroke-width="1.51"></path><path d="M273,23L242,-74L138,25Z" fill="#7c5ba8" stroke="#7c5ba8" stroke-width="1.51"></path><path d="M242,-74L176,-123L138,25Z" fill="#9271a9" stroke="#9271a9" stroke-width="1.51"></path><path d="M209,103L330,81L273,23Z" fill="#5238a7" stroke="#5238a7" stroke-width="1.51"></path><path d="M121,161L270,148L209,103Z" fill="#4730a7" stroke="#4730a7" stroke-width="1.51"></path><path d="M121,161L251,250L270,148Z" fill="#432da4" stroke="#432da4" stroke-width="1.51"></path><path d="M91,160L78,238L121,161Z" fill="#5d3fa6" stroke="#5d3fa6" stroke-width="1.51"></path><path d="M-49,184L78,238L91,160Z" fill="#714fa6" stroke="#714fa6" stroke-width="1.51"></path><path d="M-5,66L-49,184L69,110Z" fill="#805ea9" stroke="#805ea9" stroke-width="1.51"></path><path d="M-130,0L-5,66L-4,-25Z" fill="#ae91a7" stroke="#ae91a7" stroke-width="1.51"></path><path d="M270,148L330,81L209,103Z" fill="#452fa5" stroke="#452fa5" stroke-width="1.51"></path><path d="M251,250L296,160L270,148Z" fill="#412ba1" stroke="#412ba1" stroke-width="1.51"></path><path d="M330,81L326,-1L273,23Z" fill="#6445a5" stroke="#6445a5" stroke-width="1.51"></path><path d="M273,23L326,-1L242,-74Z" fill="#7e5ba6" stroke="#7e5ba6" stroke-width="1.51"></path><path d="M296,160L330,81L270,148Z" fill="#432da3" stroke="#432da3" stroke-width="1.51"></path><path d="M-4,-73L-130,0L-4,-25Z" fill="#bfa5a5" stroke="#bfa5a5" stroke-width="1.51"></path><path d="M-132,-125L-130,0L-4,-73Z" fill="#d6c2a2" stroke="#d6c2a2" stroke-width="1.51"></path><path d="M78,238L178,283L121,161Z" fill="#4f34a4" stroke="#4f34a4" stroke-width="1.51"></path><path d="M-43,247L178,283L78,238Z" fill="#6343a2" stroke="#6343a2" stroke-width="1.51"></path><path d="M178,283L251,250L121,161Z" fill="#422ca2" stroke="#422ca2" stroke-width="1.51"></path><path d="M-49,184L-43,247L78,238Z" fill="#7e5ba3" stroke="#7e5ba3" stroke-width="1.51"></path><path d="M-94,237L-43,247L-49,184Z" fill="#8f6da2" stroke="#8f6da2" stroke-width="1.51"></path><path d="M-130,0L-146,61L-5,66Z" fill="#b093a7" stroke="#b093a7" stroke-width="1.51"></path><path d="M-146,61L-112,197L-49,184Z" fill="#9e7da5" stroke="#9e7da5" stroke-width="1.51"></path><path d="M326,-1L351,-75L242,-74Z" fill="#8b68a4" stroke="#8b68a4" stroke-width="1.51"></path><path d="M242,-74L393,-105L176,-123Z" fill="#a080a3" stroke="#a080a3" stroke-width="1.51"></path><path d="M397,-25L351,-75L326,-1Z" fill="#825fa2" stroke="#825fa2" stroke-width="1.51"></path><path d="M-112,197L-94,237L-49,184Z" fill="#9675a2" stroke="#9675a2" stroke-width="1.51"></path><path d="M330,81L397,97L326,-1Z" fill="#5539a4" stroke="#5539a4" stroke-width="1.51"></path><path d="M296,160L397,97L330,81Z" fill="#422ca2" stroke="#422ca2" stroke-width="1.51"></path><path d="M404,193L397,97L296,160Z" fill="#3f299f" stroke="#3f299f" stroke-width="1.51"></path><path d="M-130,0L-132,-125L-146,61Z" fill="#d2bda2" stroke="#d2bda2" stroke-width="1.51"></path><path d="M48,-114L-132,-125L-4,-73Z" fill="#d4c0a2" stroke="#d4c0a2" stroke-width="1.51"></path><path d="M176,-123L-132,-125L48,-114Z" fill="#cab4a4" stroke="#cab4a4" stroke-width="1.51"></path><path d="M397,97L397,-25L326,-1Z" fill="#6747a2" stroke="#6747a2" stroke-width="1.51"></path><path d="M397,-25L393,-105L351,-75Z" fill="#8f6da0" stroke="#8f6da0" stroke-width="1.51"></path><path d="M351,-75L393,-105L242,-74Z" fill="#9876a2" stroke="#9876a2" stroke-width="1.51"></path><path d="M397,97L404,193L397,-25Z" fill="#412ba1" stroke="#412ba1" stroke-width="1.51"></path><path d="M359,284L404,193L296,160Z" fill="#3c269c" stroke="#3c269c" stroke-width="1.51"></path><path d="M359,284L296,160L251,250Z" fill="#3d279d" stroke="#3d279d" stroke-width="1.51"></path><path d="M178,283L359,284L251,250Z" fill="#3c269d" stroke="#3c269d" stroke-width="1.51"></path><path d="M359,284L414,287L404,193Z" fill="#382298" stroke="#382298" stroke-width="1.51"></path><path d="M404,193L414,287L397,-25Z" fill="#3d279e" stroke="#3d279e" stroke-width="1.51"></path><path d="M397,-25L414,287L393,-105Z" fill="#583aa1" stroke="#583aa1" stroke-width="1.51"></path><path d="M178,283L414,287L359,284Z" fill="#392399" stroke="#392399" stroke-width="1.51"></path></svg>