<svg width="300" height="176" xmlns="http://www.w3.org/2000/svg"><path d="M153,120L67,160L140,177Z" fill="#553aa9" stroke="#553aa9" stroke-width="1.51"></path><path d="M153,120L83,59L67,160Z" fill="#5f42aa" stroke="#5f42aa" stroke-width="1.51"></path><path d="M257,192L252,94L153,120Z" fill="#4630a6" stroke="#4630a6" stroke-width="1.51"></path><path d="M36,259L178,248L140,177Z" fill="#5237a4" stroke="#5237a4" stroke-width="1.51"></path><path d="M83,59L-19,115L67,160Z" fill="#7453aa" stroke="#7453aa" stroke-width="1.51"></path><path d="M67,160L36,259L140,177Z" fill="#6243a5" stroke="#6243a5" stroke-width="1.51"></path><path d="M153,120L172,24L83,59Z" fill="#5e41ac" stroke="#5e41ac" stroke-width="1.51"></path><path d="M252,94L172,24L153,120Z" fill="#4f37aa" stroke="#4f37aa" stroke-width="1.51"></path><path d="M-52,157L36,259L67,160Z" fill="#7957a5" stroke="#7957a5" stroke-width="1.51"></path><path d="M257,192L153,120L140,177Z" fill="#462fa6" stroke="#462fa6" stroke-width="1.51"></path><path d="M172,24L31,7L83,59Z" fill="#7f5dab" stroke="#7f5dab" stroke-width="1.51"></path><path d="M83,59L1,30L-19,115Z" fill="#8564ab" stroke="#8564ab" stroke-width="1.51"></path><path d="M31,7L1,30L83,59Z" fill="#8f6eaa" stroke="#8f6eaa" stroke-width="1.51"></path><path d="M178,248L257,192L140,177Z" fill="#432da3" stroke="#432da3" stroke-width="1.51"></path><path d="M172,24L57,-93L31,7Z" fill="#9776a9" stroke="#9776a9" stroke-width="1.51"></path><path d="M252,94L222,22L172,24Z" fill="#6143a9" stroke="#6143a9" stroke-width="1.51"></path><path d="M-101,164L-52,157L-106,113Z" fill="#9a79a6" stroke="#9a79a6" stroke-width="1.51"></path><path d="M-19,115L-52,157L67,160Z" fill="#815fa7" stroke="#815fa7" stroke-width="1.51"></path><path d="M-52,157L-43,256L36,259Z" fill="#8360a2" stroke="#8360a2" stroke-width="1.51"></path><path d="M178,248L243,286L257,192Z" fill="#4029a0" stroke="#4029a0" stroke-width="1.51"></path><path d="M36,259L243,286L178,248Z" fill="#412ba2" stroke="#412ba2" stroke-width="1.51"></path><path d="M-43,256L243,286L36,259Z" fill="#603fa1" stroke="#603fa1" stroke-width="1.51"></path><path d="M-106,113L-52,157L-19,115Z" fill="#9371a7" stroke="#9371a7" stroke-width="1.51"></path><path d="M-52,157L-87,256L-43,256Z" fill="#8e6da2" stroke="#8e6da2" stroke-width="1.51"></path><path d="M1,30L-106,113L-19,115Z" fill="#916faa" stroke="#916faa" stroke-width="1.51"></path><path d="M-101,164L-87,256L-52,157Z" fill="#9674a3" stroke="#9674a3" stroke-width="1.51"></path><path d="M-43,256L-87,256L243,286Z" fill="#6e4ca1" stroke="#6e4ca1" stroke-width="1.51"></path><path d="M335,250L336,194L257,192Z" fill="#3e289e" stroke="#3e289e" stroke-width="1.51"></path><path d="M257,192L336,194L252,94Z" fill="#422ca2" stroke="#422ca2" stroke-width="1.51"></path><path d="M252,94L330,63L222,22Z" fill="#583ba7" stroke="#583ba7" stroke-width="1.51"></path><path d="M336,194L330,63L252,94Z" fill="#432da4" stroke="#432da4" stroke-width="1.51"></path><path d="M360,10L232,-62L222,22Z" fill="#7b59a6" stroke="#7b59a6" stroke-width="1.51"></path><path d="M222,22L232,-62L172,24Z" fill="#7b59a9" stroke="#7b59a9" stroke-width="1.51"></path><path d="M129,-112L57,-93L172,24Z" fill="#9d7da9" stroke="#9d7da9" stroke-width="1.51"></path><path d="M31,7L-44,-66L1,30Z" fill="#ac8da8" stroke="#ac8da8" stroke-width="1.51"></path><path d="M1,30L-126,2L-106,113Z" fill="#a98ba8" stroke="#a98ba8" stroke-width="1.51"></path><path d="M243,286L335,250L257,192Z" fill="#3d279d" stroke="#3d279d" stroke-width="1.51"></path><path d="M232,-62L129,-112L172,24Z" fill="#906ea9" stroke="#906ea9" stroke-width="1.51"></path><path d="M57,-93L-44,-66L31,7Z" fill="#b69aa7" stroke="#b69aa7" stroke-width="1.51"></path><path d="M-44,-66L-126,2L1,30Z" fill="#ba9fa6" stroke="#ba9fa6" stroke-width="1.51"></path><path d="M-106,113L-126,2L-101,164Z" fill="#a383a8" stroke="#a383a8" stroke-width="1.51"></path><path d="M-101,164L-126,2L-87,256Z" fill="#9f7fa6" stroke="#9f7fa6" stroke-width="1.51"></path><path d="M411,177L330,63L336,194Z" fill="#402aa0" stroke="#402aa0" stroke-width="1.51"></path><path d="M390,19L360,10L330,63Z" fill="#6444a3" stroke="#6444a3" stroke-width="1.51"></path><path d="M330,63L360,10L222,22Z" fill="#6646a5" stroke="#6646a5" stroke-width="1.51"></path><path d="M335,250L411,177L336,194Z" fill="#3c269c" stroke="#3c269c" stroke-width="1.51"></path><path d="M360,10L310,-113L232,-62Z" fill="#8d6ba4" stroke="#8d6ba4" stroke-width="1.51"></path><path d="M422,68L390,19L330,63Z" fill="#593ba2" stroke="#593ba2" stroke-width="1.51"></path><path d="M411,177L422,68L330,63Z" fill="#412ba1" stroke="#412ba1" stroke-width="1.51"></path><path d="M441,-83L360,10L390,19Z" fill="#7a57a1" stroke="#7a57a1" stroke-width="1.51"></path><path d="M441,-83L310,-113L360,10Z" fill="#8d6ba1" stroke="#8d6ba1" stroke-width="1.51"></path><path d="M232,-62L310,-113L129,-112Z" fill="#a080a6" stroke="#a080a6" stroke-width="1.51"></path><path d="M-44,-66L-109,-125L-126,2Z" fill="#d6c2a2" stroke="#d6c2a2" stroke-width="1.51"></path><path d="M57,-93L-109,-125L-44,-66Z" fill="#d1bda2" stroke="#d1bda2" stroke-width="1.51"></path><path d="M129,-112L-109,-125L57,-93Z" fill="#c8b1a4" stroke="#c8b1a4" stroke-width="1.51"></path><path d="M310,-113L-109,-125L129,-112Z" fill="#b599a7" stroke="#b599a7" stroke-width="1.51"></path><path d="M411,177L439,290L422,68Z" fill="#3b259b" stroke="#3b259b" stroke-width="1.51"></path><path d="M335,250L439,290L411,177Z" fill="#392399" stroke="#392399" stroke-width="1.51"></path><path d="M243,286L439,290L335,250Z" fill="#392399" stroke="#392399" stroke-width="1.51"></path><path d="M439,290L441,-83L422,68Z" fill="#402aa0" stroke="#402aa0" stroke-width="1.51"></path><path d="M422,68L441,-83L390,19Z" fill="#704ea0" stroke="#704ea0" stroke-width="1.51"></path></svg>