<svg width="300" height="176" xmlns="http://www.w3.org/2000/svg"><path d="M120,58L169,-23L90,3Z" fill="#b496a7" stroke="#b496a7" stroke-width="1.51"></path><path d="M216,64L219,-21L169,-23Z" fill="#a889a4" stroke="#a889a4" stroke-width="1.51"></path><path d="M120,58L216,64L169,-23Z" fill="#906fa8" stroke="#906fa8" stroke-width="1.51"></path><path d="M219,-21L150,-81L169,-23Z" fill="#b092a5" stroke="#b092a5" stroke-width="1.51"></path><path d="M169,-23L150,-81L90,3Z" fill="#ba9ea6" stroke="#ba9ea6" stroke-width="1.51"></path><path d="M90,3L56,109L120,58Z" fill="#9e7ea9" stroke="#9e7ea9" stroke-width="1.51"></path><path d="M168,204L243,164L216,64Z" fill="#3e289e" stroke="#3e289e" stroke-width="1.51"></path><path d="M150,-81L82,-111L90,3Z" fill="#c9b2a4" stroke="#c9b2a4" stroke-width="1.51"></path><path d="M90,3L0,79L56,109Z" fill="#ae90a7" stroke="#ae90a7" stroke-width="1.51"></path><path d="M219,-21L230,-107L150,-81Z" fill="#ae91a3" stroke="#ae91a3" stroke-width="1.51"></path><path d="M150,-81L230,-107L82,-111Z" fill="#b295a7" stroke="#b295a7" stroke-width="1.51"></path><path d="M343,-71L230,-107L219,-21Z" fill="#aa8b9d" stroke="#aa8b9d" stroke-width="1.51"></path><path d="M-50,-18L0,79L90,3Z" fill="#e7da9d" stroke="#e7da9d" stroke-width="1.51"></path><path d="M216,64L348,10L219,-21Z" fill="#9977a0" stroke="#9977a0" stroke-width="1.51"></path><path d="M168,204L216,64L120,58Z" fill="#4731a7" stroke="#4731a7" stroke-width="1.51"></path><path d="M56,109L77,189L120,58Z" fill="#7c5aa6" stroke="#7c5aa6" stroke-width="1.51"></path><path d="M-21,150L77,189L56,109Z" fill="#9573a1" stroke="#9573a1" stroke-width="1.51"></path><path d="M243,164L305,99L216,64Z" fill="#3f29a0" stroke="#3f29a0" stroke-width="1.51"></path><path d="M82,-111L-50,-18L90,3Z" fill="#ebe19c" stroke="#ebe19c" stroke-width="1.51"></path><path d="M77,189L168,204L120,58Z" fill="#5c3da3" stroke="#5c3da3" stroke-width="1.51"></path><path d="M0,79L-21,150L56,109Z" fill="#a98aa5" stroke="#a98aa5" stroke-width="1.51"></path><path d="M-100,102L-21,150L0,79Z" fill="#af92a4" stroke="#af92a4" stroke-width="1.51"></path><path d="M305,99L348,10L216,64Z" fill="#6b49a0" stroke="#6b49a0" stroke-width="1.51"></path><path d="M348,10L343,-71L219,-21Z" fill="#a7879a" stroke="#a7879a" stroke-width="1.51"></path><path d="M412,-122L-43,-125L82,-111Z" fill="#b295a7" stroke="#b295a7" stroke-width="1.51"></path><path d="M82,-111L-43,-125L-50,-18Z" fill="#fffe96" stroke="#fffe96" stroke-width="1.51"></path><path d="M305,99L402,89L348,10Z" fill="#603f9f" stroke="#603f9f" stroke-width="1.51"></path><path d="M243,164L340,154L305,99Z" fill="#372198" stroke="#372198" stroke-width="1.51"></path><path d="M262,275L340,154L243,164Z" fill="#331d93" stroke="#331d93" stroke-width="1.51"></path><path d="M-153,-18L-100,102L-50,-18Z" fill="#ede39c" stroke="#ede39c" stroke-width="1.51"></path><path d="M-50,-18L-100,102L0,79Z" fill="#d1bca2" stroke="#d1bca2" stroke-width="1.51"></path><path d="M168,204L262,275L243,164Z" fill="#382298" stroke="#382298" stroke-width="1.51"></path><path d="M77,189L121,267L168,204Z" fill="#593a9f" stroke="#593a9f" stroke-width="1.51"></path><path d="M92,283L121,267L77,189Z" fill="#6c499e" stroke="#6c499e" stroke-width="1.51"></path><path d="M92,283L77,189L-60,298Z" fill="#92709c" stroke="#92709c" stroke-width="1.51"></path><path d="M121,267L262,275L168,204Z" fill="#3b259c" stroke="#3b259c" stroke-width="1.51"></path><path d="M-60,298L77,189L-21,150Z" fill="#a7879a" stroke="#a7879a" stroke-width="1.51"></path><path d="M340,154L402,89L305,99Z" fill="#3b249b" stroke="#3b249b" stroke-width="1.51"></path><path d="M348,10L420,-25L343,-71Z" fill="#a7879a" stroke="#a7879a" stroke-width="1.51"></path><path d="M-43,-125L-130,-74L-50,-18Z" fill="#fffe96" stroke="#fffe96" stroke-width="1.51"></path><path d="M402,89L420,-25L348,10Z" fill="#8f6c9d" stroke="#8f6c9d" stroke-width="1.51"></path><path d="M92,283L262,275L121,267Z" fill="#3e289e" stroke="#3e289e" stroke-width="1.51"></path><path d="M340,154L431,148L402,89Z" fill="#382298" stroke="#382298" stroke-width="1.51"></path><path d="M-130,-74L-153,-18L-50,-18Z" fill="#fffe96" stroke="#fffe96" stroke-width="1.51"></path><path d="M-100,102L-133,146L-21,150Z" fill="#ac8ea1" stroke="#ac8ea1" stroke-width="1.51"></path><path d="M-153,-18L-133,146L-100,102Z" fill="#bda2a6" stroke="#bda2a6" stroke-width="1.51"></path><path d="M420,-25L412,-122L343,-71Z" fill="#a7879a" stroke="#a7879a" stroke-width="1.51"></path><path d="M343,-71L412,-122L230,-107Z" fill="#a7879a" stroke="#a7879a" stroke-width="1.51"></path><path d="M230,-107L412,-122L82,-111Z" fill="#ab8d9f" stroke="#ab8d9f" stroke-width="1.51"></path><path d="M402,89L431,148L420,-25Z" fill="#5a3b9f" stroke="#5a3b9f" stroke-width="1.51"></path><path d="M358,252L431,148L340,154Z" fill="#311b92" stroke="#311b92" stroke-width="1.51"></path><path d="M262,275L358,252L340,154Z" fill="#311b92" stroke="#311b92" stroke-width="1.51"></path><path d="M-133,146L-60,298L-21,150Z" fill="#a7879a" stroke="#a7879a" stroke-width="1.51"></path><path d="M92,283L-60,298L262,275Z" fill="#6b499f" stroke="#6b499f" stroke-width="1.51"></path><path d="M-133,146L-125,292L-60,298Z" fill="#a7879a" stroke="#a7879a" stroke-width="1.51"></path><path d="M-153,-18L-125,292L-133,146Z" fill="#ab8da0" stroke="#ab8da0" stroke-width="1.51"></path><path d="M358,252L449,260L431,148Z" fill="#311b92" stroke="#311b92" stroke-width="1.51"></path><path d="M431,148L449,260L420,-25Z" fill="#392299" stroke="#392299" stroke-width="1.51"></path><path d="M420,-25L449,260L412,-122Z" fill="#815e9e" stroke="#815e9e" stroke-width="1.51"></path><path d="M262,275L449,260L358,252Z" fill="#311b92" stroke="#311b92" stroke-width="1.51"></path></svg>