<svg width="300" height="176" xmlns="http://www.w3.org/2000/svg"><path d="M153,268L-35,285L253,265Z" fill="#452fa5" stroke="#452fa5" stroke-width="1.51"></path><path d="M157,-121L269,-91L352,-106Z" fill="#745aca" stroke="#745aca" stroke-width="1.51"></path><path d="M355,243L253,265L442,244Z" fill="#3a249a" stroke="#3a249a" stroke-width="1.51"></path><path d="M398,159L355,243L442,244Z" fill="#3a249a" stroke="#3a249a" stroke-width="1.51"></path><path d="M336,-25L314,88L445,-13Z" fill="#543bb0" stroke="#543bb0" stroke-width="1.51"></path><path d="M445,-13L314,88L450,93Z" fill="#4932a7" stroke="#4932a7" stroke-width="1.51"></path><path d="M314,88L398,159L450,93Z" fill="#402aa0" stroke="#402aa0" stroke-width="1.51"></path><path d="M398,159L442,244L450,93Z" fill="#3b259c" stroke="#3b259c" stroke-width="1.51"></path><path d="M426,-70L336,-25L445,-13Z" fill="#5f45b8" stroke="#5f45b8" stroke-width="1.51"></path><path d="M352,-106L336,-25L426,-70Z" fill="#674dbf" stroke="#674dbf" stroke-width="1.51"></path><path d="M316,147L355,243L398,159Z" fill="#3d279e" stroke="#3d279e" stroke-width="1.51"></path><path d="M314,88L316,147L398,159Z" fill="#412ba1" stroke="#412ba1" stroke-width="1.51"></path><path d="M244,30L314,88L336,-25Z" fill="#533bb0" stroke="#533bb0" stroke-width="1.51"></path><path d="M269,-91L336,-25L352,-106Z" fill="#6b51c2" stroke="#6b51c2" stroke-width="1.51"></path><path d="M316,147L253,265L355,243Z" fill="#3d279e" stroke="#3d279e" stroke-width="1.51"></path><path d="M208,174L253,265L316,147Z" fill="#412ba1" stroke="#412ba1" stroke-width="1.51"></path><path d="M269,-91L244,30L336,-25Z" fill="#6249bc" stroke="#6249bc" stroke-width="1.51"></path><path d="M244,30L236,106L314,88Z" fill="#4a33a9" stroke="#4a33a9" stroke-width="1.51"></path><path d="M314,88L236,106L316,147Z" fill="#442ea4" stroke="#442ea4" stroke-width="1.51"></path><path d="M236,106L208,174L316,147Z" fill="#442ea4" stroke="#442ea4" stroke-width="1.51"></path><path d="M208,174L176,210L253,265Z" fill="#422ba2" stroke="#422ba2" stroke-width="1.51"></path><path d="M158,-14L244,30L269,-91Z" fill="#634abd" stroke="#634abd" stroke-width="1.51"></path><path d="M157,-121L158,-14L269,-91Z" fill="#6f56c8" stroke="#6f56c8" stroke-width="1.51"></path><path d="M135,94L236,106L244,30Z" fill="#4c35ab" stroke="#4c35ab" stroke-width="1.51"></path><path d="M176,210L153,268L253,265Z" fill="#412aa0" stroke="#412aa0" stroke-width="1.51"></path><path d="M158,-14L135,94L244,30Z" fill="#563fb4" stroke="#563fb4" stroke-width="1.51"></path><path d="M135,94L208,174L236,106Z" fill="#4832a8" stroke="#4832a8" stroke-width="1.51"></path><path d="M83,243L-35,285L153,268Z" fill="#5038ac" stroke="#5038ac" stroke-width="1.51"></path><path d="M135,94L176,210L208,174Z" fill="#4630a7" stroke="#4630a7" stroke-width="1.51"></path><path d="M-40,-89L69,-71L157,-121Z" fill="#836bd9" stroke="#836bd9" stroke-width="1.51"></path><path d="M72,1L135,94L158,-14Z" fill="#5f46ba" stroke="#5f46ba" stroke-width="1.51"></path><path d="M157,-121L69,-71L158,-14Z" fill="#735bcb" stroke="#735bcb" stroke-width="1.51"></path><path d="M135,94L63,117L176,210Z" fill="#4d36ac" stroke="#4d36ac" stroke-width="1.51"></path><path d="M63,117L83,243L176,210Z" fill="#4d36ab" stroke="#4d36ab" stroke-width="1.51"></path><path d="M83,243L153,268L176,210Z" fill="#452fa4" stroke="#452fa4" stroke-width="1.51"></path><path d="M69,-71L72,1L158,-14Z" fill="#6e56c7" stroke="#6e56c7" stroke-width="1.51"></path><path d="M63,117L30,145L83,243Z" fill="#573eb3" stroke="#573eb3" stroke-width="1.51"></path><path d="M72,1L63,117L135,94Z" fill="#5942b6" stroke="#5942b6" stroke-width="1.51"></path><path d="M0,116L63,117L72,1Z" fill="#5f47bb" stroke="#5f47bb" stroke-width="1.51"></path><path d="M-49,-1L0,116L72,1Z" fill="#6e55c7" stroke="#6e55c7" stroke-width="1.51"></path><path d="M30,145L-3,188L83,243Z" fill="#5940b4" stroke="#5940b4" stroke-width="1.51"></path><path d="M-3,188L-35,285L83,243Z" fill="#5a41b5" stroke="#5a41b5" stroke-width="1.51"></path><path d="M-40,-89L-49,-1L69,-71Z" fill="#866cda" stroke="#866cda" stroke-width="1.51"></path><path d="M69,-71L-49,-1L72,1Z" fill="#7960d0" stroke="#7960d0" stroke-width="1.51"></path><path d="M0,116L30,145L63,117Z" fill="#5e45b9" stroke="#5e45b9" stroke-width="1.51"></path><path d="M0,116L-3,188L30,145Z" fill="#6047bb" stroke="#6047bb" stroke-width="1.51"></path><path d="M-107,191L-35,285L-3,188Z" fill="#654cbe" stroke="#654cbe" stroke-width="1.51"></path><path d="M-49,-1L-131,92L0,116Z" fill="#725acb" stroke="#725acb" stroke-width="1.51"></path><path d="M-107,191L-3,188L0,116Z" fill="#664ec0" stroke="#664ec0" stroke-width="1.51"></path><path d="M-131,92L-107,191L0,116Z" fill="#6f56c7" stroke="#6f56c7" stroke-width="1.51"></path><path d="M-107,191L-89,284L-35,285Z" fill="#684fbf" stroke="#684fbf" stroke-width="1.51"></path><path d="M-98,-75L-109,-28L-49,-1Z" fill="#8d75e1" stroke="#8d75e1" stroke-width="1.51"></path><path d="M-98,-75L-49,-1L-40,-89Z" fill="#8e76e1" stroke="#8e76e1" stroke-width="1.51"></path><path d="M-109,-28L-131,92L-49,-1Z" fill="#836ad8" stroke="#836ad8" stroke-width="1.51"></path><path d="M-107,191L-131,92L-89,284Z" fill="#7157c7" stroke="#7157c7" stroke-width="1.51"></path></svg>