<svg width="300" height="176" xmlns="http://www.w3.org/2000/svg"><path d="M125,245L-36,293L216,247Z" fill="#f66331" stroke="#f66331" stroke-width="1.51"></path><path d="M156,-121L224,-88L361,-76Z" fill="#fe8c58" stroke="#fe8c58" stroke-width="1.51"></path><path d="M331,270L216,247L393,297Z" fill="#ef5322" stroke="#ef5322" stroke-width="1.51"></path><path d="M216,247L-36,293L393,297Z" fill="#f35827" stroke="#f35827" stroke-width="1.51"></path><path d="M156,-121L361,-76L411,-74Z" fill="#fb8955" stroke="#fb8955" stroke-width="1.51"></path><path d="M398,-28L311,70L451,99Z" fill="#f66633" stroke="#f66633" stroke-width="1.51"></path><path d="M311,70L362,145L451,99Z" fill="#f55a29" stroke="#f55a29" stroke-width="1.51"></path><path d="M362,145L410,192L451,99Z" fill="#f25626" stroke="#f25626" stroke-width="1.51"></path><path d="M410,192L393,297L451,99Z" fill="#ef5322" stroke="#ef5322" stroke-width="1.51"></path><path d="M411,-74L398,-28L451,99Z" fill="#f5703d" stroke="#f5703d" stroke-width="1.51"></path><path d="M306,6L311,70L398,-28Z" fill="#f86f3c" stroke="#f86f3c" stroke-width="1.51"></path><path d="M331,270L393,297L410,192Z" fill="#ed5121" stroke="#ed5121" stroke-width="1.51"></path><path d="M362,145L331,270L410,192Z" fill="#f05524" stroke="#f05524" stroke-width="1.51"></path><path d="M361,-76L398,-28L411,-74Z" fill="#f87f4b" stroke="#f87f4b" stroke-width="1.51"></path><path d="M361,-76L306,6L398,-28Z" fill="#f87a46" stroke="#f87a46" stroke-width="1.51"></path><path d="M231,-27L306,6L361,-76Z" fill="#fa7c48" stroke="#fa7c48" stroke-width="1.51"></path><path d="M266,156L331,270L362,145Z" fill="#f35727" stroke="#f35727" stroke-width="1.51"></path><path d="M311,70L266,156L362,145Z" fill="#f75c2b" stroke="#f75c2b" stroke-width="1.51"></path><path d="M224,-88L231,-27L361,-76Z" fill="#fc8450" stroke="#fc8450" stroke-width="1.51"></path><path d="M262,77L266,156L311,70Z" fill="#fa5e2e" stroke="#fa5e2e" stroke-width="1.51"></path><path d="M266,156L216,247L331,270Z" fill="#f35727" stroke="#f35727" stroke-width="1.51"></path><path d="M-112,-126L37,-91L156,-121Z" fill="#ffa773" stroke="#ffa773" stroke-width="1.51"></path><path d="M306,6L262,77L311,70Z" fill="#fa6836" stroke="#fa6836" stroke-width="1.51"></path><path d="M231,-27L262,77L306,6Z" fill="#fb713e" stroke="#fb713e" stroke-width="1.51"></path><path d="M231,-27L164,2L262,77Z" fill="#fd7340" stroke="#fd7340" stroke-width="1.51"></path><path d="M164,2L149,62L262,77Z" fill="#fe6d3b" stroke="#fe6d3b" stroke-width="1.51"></path><path d="M262,77L169,154L266,156Z" fill="#f95e2d" stroke="#f95e2d" stroke-width="1.51"></path><path d="M169,154L216,247L266,156Z" fill="#f75c2b" stroke="#f75c2b" stroke-width="1.51"></path><path d="M149,62L169,154L262,77Z" fill="#fd6231" stroke="#fd6231" stroke-width="1.51"></path><path d="M224,-88L164,2L231,-27Z" fill="#fe814d" stroke="#fe814d" stroke-width="1.51"></path><path d="M169,154L125,245L216,247Z" fill="#f75c2b" stroke="#f75c2b" stroke-width="1.51"></path><path d="M156,-121L164,2L224,-88Z" fill="#ff8955" stroke="#ff8955" stroke-width="1.51"></path><path d="M27,235L-36,293L125,245Z" fill="#f66f3b" stroke="#f66f3b" stroke-width="1.51"></path><path d="M156,-121L37,-91L164,2Z" fill="#ff8f5b" stroke="#ff8f5b" stroke-width="1.51"></path><path d="M37,-91L48,5L164,2Z" fill="#ff8c57" stroke="#ff8c57" stroke-width="1.51"></path><path d="M92,200L125,245L169,154Z" fill="#f96230" stroke="#f96230" stroke-width="1.51"></path><path d="M149,62L56,68L169,154Z" fill="#ff6837" stroke="#ff6837" stroke-width="1.51"></path><path d="M56,68L92,200L169,154Z" fill="#fc6937" stroke="#fc6937" stroke-width="1.51"></path><path d="M48,5L149,62L164,2Z" fill="#ff7a47" stroke="#ff7a47" stroke-width="1.51"></path><path d="M48,5L56,68L149,62Z" fill="#ff7b47" stroke="#ff7b47" stroke-width="1.51"></path><path d="M-112,-126L-54,-89L37,-91Z" fill="#ffaf7c" stroke="#ffaf7c" stroke-width="1.51"></path><path d="M92,200L27,235L125,245Z" fill="#f86936" stroke="#f86936" stroke-width="1.51"></path><path d="M-35,186L27,235L92,200Z" fill="#f97340" stroke="#f97340" stroke-width="1.51"></path><path d="M56,68L-14,88L92,200Z" fill="#fe7642" stroke="#fe7642" stroke-width="1.51"></path><path d="M-14,88L-35,186L92,200Z" fill="#fc7845" stroke="#fc7845" stroke-width="1.51"></path><path d="M-54,-89L-10,19L37,-91Z" fill="#ffa06b" stroke="#ffa06b" stroke-width="1.51"></path><path d="M37,-91L-10,19L48,5Z" fill="#ff945f" stroke="#ff945f" stroke-width="1.51"></path><path d="M48,5L-10,19L56,68Z" fill="#ff8753" stroke="#ff8753" stroke-width="1.51"></path><path d="M-10,19L-14,88L56,68Z" fill="#ff844f" stroke="#ff844f" stroke-width="1.51"></path><path d="M-35,186L-36,293L27,235Z" fill="#f87945" stroke="#f87945" stroke-width="1.51"></path><path d="M-98,199L-36,293L-35,186Z" fill="#f9804c" stroke="#f9804c" stroke-width="1.51"></path><path d="M-123,117L-35,186L-14,88Z" fill="#fe8652" stroke="#fe8652" stroke-width="1.51"></path><path d="M-54,-89L-113,-36L-10,19Z" fill="#ffa46f" stroke="#ffa46f" stroke-width="1.51"></path><path d="M-123,117L-14,88L-10,19Z" fill="#ff8a55" stroke="#ff8a55" stroke-width="1.51"></path><path d="M-113,-36L-123,117L-10,19Z" fill="#ff9864" stroke="#ff9864" stroke-width="1.51"></path><path d="M-98,199L-150,258L-36,293Z" fill="#f98551" stroke="#f98551" stroke-width="1.51"></path><path d="M-123,117L-98,199L-35,186Z" fill="#fd8854" stroke="#fd8854" stroke-width="1.51"></path><path d="M-112,-126L-113,-36L-54,-89Z" fill="#ffb480" stroke="#ffb480" stroke-width="1.51"></path><path d="M-123,117L-150,258L-98,199Z" fill="#fd8d58" stroke="#fd8d58" stroke-width="1.51"></path><path d="M-150,258L-113,-36L-112,-126Z" fill="#ff9f6b" stroke="#ff9f6b" stroke-width="1.51"></path><path d="M-150,258L-123,117L-113,-36Z" fill="#ff925e" stroke="#ff925e" stroke-width="1.51"></path></svg>