<svg width="300" height="176" xmlns="http://www.w3.org/2000/svg"><path d="M141,96L246,55L123,6Z" fill="#fb6944" stroke="#fb6944" stroke-width="1.51"></path><path d="M246,55L231,-5L123,6Z" fill="#f66d52" stroke="#f66d52" stroke-width="1.51"></path><path d="M231,-5L125,-61L123,6Z" fill="#f37465" stroke="#f37465" stroke-width="1.51"></path><path d="M125,-61L74,-24L123,6Z" fill="#ee7975" stroke="#ee7975" stroke-width="1.51"></path><path d="M123,6L32,119L141,96Z" fill="#fa6c4c" stroke="#fa6c4c" stroke-width="1.51"></path><path d="M231,-5L229,-119L125,-61Z" fill="#ec7975" stroke="#ec7975" stroke-width="1.51"></path><path d="M246,55L322,4L231,-5Z" fill="#f46a50" stroke="#f46a50" stroke-width="1.51"></path><path d="M256,200L302,166L246,55Z" fill="#f85c2c" stroke="#f85c2c" stroke-width="1.51"></path><path d="M246,55L339,113L322,4Z" fill="#f6633c" stroke="#f6633c" stroke-width="1.51"></path><path d="M46,183L133,191L141,96Z" fill="#f8653f" stroke="#f8653f" stroke-width="1.51"></path><path d="M74,-24L32,119L123,6Z" fill="#f47465" stroke="#f47465" stroke-width="1.51"></path><path d="M333,-119L229,-119L231,-5Z" fill="#e7797b" stroke="#e7797b" stroke-width="1.51"></path><path d="M302,166L339,113L246,55Z" fill="#f85d2c" stroke="#f85d2c" stroke-width="1.51"></path><path d="M256,200L246,55L141,96Z" fill="#fb602f" stroke="#fb602f" stroke-width="1.51"></path><path d="M133,191L256,200L141,96Z" fill="#fa5f2e" stroke="#fa5f2e" stroke-width="1.51"></path><path d="M32,119L46,183L141,96Z" fill="#f76a4b" stroke="#f76a4b" stroke-width="1.51"></path><path d="M74,-24L-21,100L32,119Z" fill="#f37566" stroke="#f37566" stroke-width="1.51"></path><path d="M125,-61L53,-120L74,-24Z" fill="#e5818f" stroke="#e5818f" stroke-width="1.51"></path><path d="M229,-119L53,-120L125,-61Z" fill="#e6818c" stroke="#e6818c" stroke-width="1.51"></path><path d="M32,119L-4,198L46,183Z" fill="#f16d59" stroke="#f16d59" stroke-width="1.51"></path><path d="M-24,-32L-21,100L74,-24Z" fill="#ea7e82" stroke="#ea7e82" stroke-width="1.51"></path><path d="M-23,-75L-24,-32L74,-24Z" fill="#df869b" stroke="#df869b" stroke-width="1.51"></path><path d="M138,266L265,242L256,200Z" fill="#f45928" stroke="#f45928" stroke-width="1.51"></path><path d="M256,200L265,242L302,166Z" fill="#f45928" stroke="#f45928" stroke-width="1.51"></path><path d="M404,191L445,65L339,113Z" fill="#f35827" stroke="#f35827" stroke-width="1.51"></path><path d="M138,266L256,200L133,191Z" fill="#f75c2b" stroke="#f75c2b" stroke-width="1.51"></path><path d="M322,4L333,-119L231,-5Z" fill="#eb7268" stroke="#eb7268" stroke-width="1.51"></path><path d="M229,-119L333,-119L53,-120Z" fill="#e3808f" stroke="#e3808f" stroke-width="1.51"></path><path d="M403,-95L333,-119L322,4Z" fill="#e57473" stroke="#e57473" stroke-width="1.51"></path><path d="M46,183L138,266L133,191Z" fill="#f5623c" stroke="#f5623c" stroke-width="1.51"></path><path d="M53,-120L-23,-75L74,-24Z" fill="#dd87a0" stroke="#dd87a0" stroke-width="1.51"></path><path d="M445,65L416,16L339,113Z" fill="#f35d35" stroke="#f35d35" stroke-width="1.51"></path><path d="M339,113L416,16L322,4Z" fill="#f36240" stroke="#f36240" stroke-width="1.51"></path><path d="M46,183L69,297L138,266Z" fill="#f26241" stroke="#f26241" stroke-width="1.51"></path><path d="M-21,100L-4,198L32,119Z" fill="#f17161" stroke="#f17161" stroke-width="1.51"></path><path d="M416,16L403,-95L322,4Z" fill="#eb6c5f" stroke="#eb6c5f" stroke-width="1.51"></path><path d="M404,191L339,113L302,166Z" fill="#f35827" stroke="#f35827" stroke-width="1.51"></path><path d="M416,16L445,65L403,-95Z" fill="#eb6854" stroke="#eb6854" stroke-width="1.51"></path><path d="M309,299L404,191L302,166Z" fill="#f05524" stroke="#f05524" stroke-width="1.51"></path><path d="M-4,198L69,297L46,183Z" fill="#f06952" stroke="#f06952" stroke-width="1.51"></path><path d="M138,266L309,299L265,242Z" fill="#f25625" stroke="#f25625" stroke-width="1.51"></path><path d="M69,297L309,299L138,266Z" fill="#f35827" stroke="#f35827" stroke-width="1.51"></path><path d="M265,242L309,299L302,166Z" fill="#f25625" stroke="#f25625" stroke-width="1.51"></path><path d="M-4,198L-28,250L69,297Z" fill="#ec6b59" stroke="#ec6b59" stroke-width="1.51"></path><path d="M-21,100L-89,198L-4,198Z" fill="#ec746c" stroke="#ec746c" stroke-width="1.51"></path><path d="M-24,-32L-110,88L-21,100Z" fill="#e97e85" stroke="#e97e85" stroke-width="1.51"></path><path d="M-130,12L-110,88L-24,-32Z" fill="#df869d" stroke="#df869d" stroke-width="1.51"></path><path d="M-89,198L-28,250L-4,198Z" fill="#e9716b" stroke="#e9716b" stroke-width="1.51"></path><path d="M-110,88L-89,198L-21,100Z" fill="#ea7979" stroke="#ea7979" stroke-width="1.51"></path><path d="M-23,-75L-113,-64L-24,-32Z" fill="#d38db5" stroke="#d38db5" stroke-width="1.51"></path><path d="M53,-120L-113,-64L-23,-75Z" fill="#d08fba" stroke="#d08fba" stroke-width="1.51"></path><path d="M-113,-64L-130,12L-24,-32Z" fill="#d48db3" stroke="#d48db3" stroke-width="1.51"></path><path d="M-110,88L-96,258L-89,198Z" fill="#e5797f" stroke="#e5797f" stroke-width="1.51"></path><path d="M309,299L414,300L404,191Z" fill="#ed5120" stroke="#ed5120" stroke-width="1.51"></path><path d="M404,191L414,300L445,65Z" fill="#ef5423" stroke="#ef5423" stroke-width="1.51"></path><path d="M69,297L414,300L309,299Z" fill="#ef5423" stroke="#ef5423" stroke-width="1.51"></path><path d="M-130,12L-96,258L-110,88Z" fill="#e77e86" stroke="#e77e86" stroke-width="1.51"></path><path d="M-89,198L-96,258L-28,250Z" fill="#e57473" stroke="#e57473" stroke-width="1.51"></path><path d="M-28,250L-96,258L69,297Z" fill="#e96c61" stroke="#e96c61" stroke-width="1.51"></path></svg>