<svg width="300" height="176" xmlns="http://www.w3.org/2000/svg"><path d="M133,264L-37,277L231,275Z" fill="#f25e38" stroke="#f25e38" stroke-width="1.51"></path><path d="M-21,-91L138,-72L257,-84Z" fill="#e88088" stroke="#e88088" stroke-width="1.51"></path><path d="M-21,-91L257,-84L352,-105Z" fill="#e77d83" stroke="#e77d83" stroke-width="1.51"></path><path d="M303,255L231,275L387,271Z" fill="#ef5323" stroke="#ef5323" stroke-width="1.51"></path><path d="M317,154L387,271L432,171Z" fill="#f05424" stroke="#f05424" stroke-width="1.51"></path><path d="M341,80L317,154L432,171Z" fill="#f45928" stroke="#f45928" stroke-width="1.51"></path><path d="M399,-80L330,-26L432,-35Z" fill="#e76f68" stroke="#e76f68" stroke-width="1.51"></path><path d="M432,-35L330,-26L432,68Z" fill="#ec6752" stroke="#ec6752" stroke-width="1.51"></path><path d="M330,-26L341,80L432,68Z" fill="#f26242" stroke="#f26242" stroke-width="1.51"></path><path d="M341,80L432,171L432,68Z" fill="#f45928" stroke="#f45928" stroke-width="1.51"></path><path d="M317,154L303,255L387,271Z" fill="#f05524" stroke="#f05524" stroke-width="1.51"></path><path d="M352,-105L330,-26L399,-80Z" fill="#e57473" stroke="#e57473" stroke-width="1.51"></path><path d="M330,-26L252,10L341,80Z" fill="#f2684d" stroke="#f2684d" stroke-width="1.51"></path><path d="M257,-84L330,-26L352,-105Z" fill="#e67576" stroke="#e67576" stroke-width="1.51"></path><path d="M237,100L317,154L341,80Z" fill="#f85d2c" stroke="#f85d2c" stroke-width="1.51"></path><path d="M252,10L237,100L341,80Z" fill="#f8633b" stroke="#f8633b" stroke-width="1.51"></path><path d="M234,152L303,255L317,154Z" fill="#f45928" stroke="#f45928" stroke-width="1.51"></path><path d="M257,-84L252,10L330,-26Z" fill="#ed7166" stroke="#ed7166" stroke-width="1.51"></path><path d="M234,152L231,275L303,255Z" fill="#f45827" stroke="#f45827" stroke-width="1.51"></path><path d="M237,100L234,152L317,154Z" fill="#f85d2c" stroke="#f85d2c" stroke-width="1.51"></path><path d="M144,189L231,275L234,152Z" fill="#f75c2b" stroke="#f75c2b" stroke-width="1.51"></path><path d="M139,6L132,81L237,100Z" fill="#fc673f" stroke="#fc673f" stroke-width="1.51"></path><path d="M139,6L237,100L252,10Z" fill="#f86949" stroke="#f86949" stroke-width="1.51"></path><path d="M138,-72L139,6L252,10Z" fill="#f37364" stroke="#f37364" stroke-width="1.51"></path><path d="M138,-72L252,10L257,-84Z" fill="#ed766f" stroke="#ed766f" stroke-width="1.51"></path><path d="M144,189L133,264L231,275Z" fill="#f65a2a" stroke="#f65a2a" stroke-width="1.51"></path><path d="M132,81L144,189L234,152Z" fill="#fb602f" stroke="#fb602f" stroke-width="1.51"></path><path d="M132,81L234,152L237,100Z" fill="#fb6130" stroke="#fb6130" stroke-width="1.51"></path><path d="M53,239L-37,277L133,264Z" fill="#ef654c" stroke="#ef654c" stroke-width="1.51"></path><path d="M-21,-91L37,-60L138,-72Z" fill="#e0869c" stroke="#e0869c" stroke-width="1.51"></path><path d="M80,108L132,81L139,6Z" fill="#fb6b4a" stroke="#fb6b4a" stroke-width="1.51"></path><path d="M87,-36L80,108L139,6Z" fill="#f57360" stroke="#f57360" stroke-width="1.51"></path><path d="M138,-72L87,-36L139,6Z" fill="#ef7974" stroke="#ef7974" stroke-width="1.51"></path><path d="M80,108L31,146L144,189Z" fill="#f76847" stroke="#f76847" stroke-width="1.51"></path><path d="M31,146L53,239L144,189Z" fill="#f56647" stroke="#f56647" stroke-width="1.51"></path><path d="M132,81L80,108L144,189Z" fill="#fb663c" stroke="#fb663c" stroke-width="1.51"></path><path d="M53,239L133,264L144,189Z" fill="#f4613a" stroke="#f4613a" stroke-width="1.51"></path><path d="M37,-60L87,-36L138,-72Z" fill="#e88088" stroke="#e88088" stroke-width="1.51"></path><path d="M-14,7L80,108L87,-36Z" fill="#f07870" stroke="#f07870" stroke-width="1.51"></path><path d="M31,146L-2,189L53,239Z" fill="#f16c57" stroke="#f16c57" stroke-width="1.51"></path><path d="M-14,7L-6,100L80,108Z" fill="#f37466" stroke="#f37466" stroke-width="1.51"></path><path d="M37,-60L-14,7L87,-36Z" fill="#e6818d" stroke="#e6818d" stroke-width="1.51"></path><path d="M-6,100L31,146L80,108Z" fill="#f56f58" stroke="#f56f58" stroke-width="1.51"></path><path d="M-2,189L-37,277L53,239Z" fill="#ec6c5c" stroke="#ec6c5c" stroke-width="1.51"></path><path d="M-21,-91L-14,7L37,-60Z" fill="#dd87a0" stroke="#dd87a0" stroke-width="1.51"></path><path d="M-6,100L-2,189L31,146Z" fill="#f17160" stroke="#f17160" stroke-width="1.51"></path><path d="M-21,-91L-148,-81L-14,7Z" fill="#d28eb6" stroke="#d28eb6" stroke-width="1.51"></path><path d="M-14,7L-95,118L-6,100Z" fill="#ee7a77" stroke="#ee7a77" stroke-width="1.51"></path><path d="M-134,205L-37,277L-2,189Z" fill="#e77370" stroke="#e77370" stroke-width="1.51"></path><path d="M-95,118L-134,205L-2,189Z" fill="#e87878" stroke="#e87878" stroke-width="1.51"></path><path d="M-6,100L-95,118L-2,189Z" fill="#ee766d" stroke="#ee766d" stroke-width="1.51"></path><path d="M-149,21L-95,118L-14,7Z" fill="#e48291" stroke="#e48291" stroke-width="1.51"></path><path d="M-148,-81L-149,21L-14,7Z" fill="#d48db3" stroke="#d48db3" stroke-width="1.51"></path><path d="M-134,205L-122,268L-37,277Z" fill="#e2767a" stroke="#e2767a" stroke-width="1.51"></path><path d="M-149,21L-134,205L-95,118Z" fill="#e5808b" stroke="#e5808b" stroke-width="1.51"></path></svg>