<svg width="300" height="176" xmlns="http://www.w3.org/2000/svg"><path d="M179,59L166,166L223,94Z" fill="#f95e2d" stroke="#f95e2d" stroke-width="1.51"></path><path d="M166,166L228,150L223,94Z" fill="#f35828" stroke="#f35828" stroke-width="1.51"></path><path d="M59,104L76,161L166,166Z" fill="#f0684f" stroke="#f0684f" stroke-width="1.51"></path><path d="M179,59L59,104L166,166Z" fill="#fa653b" stroke="#fa653b" stroke-width="1.51"></path><path d="M223,94L241,-16L179,59Z" fill="#ee6f60" stroke="#ee6f60" stroke-width="1.51"></path><path d="M179,59L124,-25L59,104Z" fill="#ee7a78" stroke="#ee7a78" stroke-width="1.51"></path><path d="M354,0L241,-16L223,94Z" fill="#e47271" stroke="#e47271" stroke-width="1.51"></path><path d="M241,-16L124,-25L179,59Z" fill="#e2808f" stroke="#e2808f" stroke-width="1.51"></path><path d="M228,150L333,153L223,94Z" fill="#ef5423" stroke="#ef5423" stroke-width="1.51"></path><path d="M166,166L259,251L228,150Z" fill="#ed5121" stroke="#ed5121" stroke-width="1.51"></path><path d="M183,298L259,251L166,166Z" fill="#ee5322" stroke="#ee5322" stroke-width="1.51"></path><path d="M259,251L333,153L228,150Z" fill="#e84d1c" stroke="#e84d1c" stroke-width="1.51"></path><path d="M124,-25L59,-22L59,104Z" fill="#d58cb1" stroke="#d58cb1" stroke-width="1.51"></path><path d="M76,161L78,271L166,166Z" fill="#ed6246" stroke="#ed6246" stroke-width="1.51"></path><path d="M-18,186L78,271L76,161Z" fill="#e26f6e" stroke="#e26f6e" stroke-width="1.51"></path><path d="M333,153L357,118L223,94Z" fill="#ee5221" stroke="#ee5221" stroke-width="1.51"></path><path d="M78,271L183,298L166,166Z" fill="#f2592d" stroke="#f2592d" stroke-width="1.51"></path><path d="M-44,64L-18,186L59,104Z" fill="#dd8094" stroke="#dd8094" stroke-width="1.51"></path><path d="M59,104L-18,186L76,161Z" fill="#e37476" stroke="#e37476" stroke-width="1.51"></path><path d="M124,-25L143,-99L59,-22Z" fill="#d38db3" stroke="#d38db3" stroke-width="1.51"></path><path d="M241,-16L143,-99L124,-25Z" fill="#e08397" stroke="#e08397" stroke-width="1.51"></path><path d="M241,-16L235,-102L143,-99Z" fill="#dd8094" stroke="#dd8094" stroke-width="1.51"></path><path d="M357,118L354,0L223,94Z" fill="#ef5f3d" stroke="#ef5f3d" stroke-width="1.51"></path><path d="M59,-22L1,-16L59,104Z" fill="#c794c8" stroke="#c794c8" stroke-width="1.51"></path><path d="M30,-113L1,-16L59,-22Z" fill="#ae9ce8" stroke="#ae9ce8" stroke-width="1.51"></path><path d="M1,-16L-44,64L59,104Z" fill="#cd90bf" stroke="#cd90bf" stroke-width="1.51"></path><path d="M351,-71L235,-102L241,-16Z" fill="#d87b8d" stroke="#d87b8d" stroke-width="1.51"></path><path d="M357,118L411,62L354,0Z" fill="#ec6249" stroke="#ec6249" stroke-width="1.51"></path><path d="M333,153L415,181L357,118Z" fill="#ea4e1d" stroke="#ea4e1d" stroke-width="1.51"></path><path d="M259,251L363,259L333,153Z" fill="#e64a19" stroke="#e64a19" stroke-width="1.51"></path><path d="M183,298L363,259L259,251Z" fill="#e94d1c" stroke="#e94d1c" stroke-width="1.51"></path><path d="M415,181L411,62L357,118Z" fill="#ee5322" stroke="#ee5322" stroke-width="1.51"></path><path d="M363,259L415,181L333,153Z" fill="#e64a19" stroke="#e64a19" stroke-width="1.51"></path><path d="M411,-65L351,-71L354,0Z" fill="#d6798c" stroke="#d6798c" stroke-width="1.51"></path><path d="M354,0L351,-71L241,-16Z" fill="#d6798c" stroke="#d6798c" stroke-width="1.51"></path><path d="M411,62L422,28L354,0Z" fill="#e36e6b" stroke="#e36e6b" stroke-width="1.51"></path><path d="M415,181L422,28L411,62Z" fill="#f25726" stroke="#f25726" stroke-width="1.51"></path><path d="M-100,-15L-105,113L-44,64Z" fill="#cd90bf" stroke="#cd90bf" stroke-width="1.51"></path><path d="M143,-99L30,-113L59,-22Z" fill="#c793c8" stroke="#c793c8" stroke-width="1.51"></path><path d="M235,-102L30,-113L143,-99Z" fill="#dd88a2" stroke="#dd88a2" stroke-width="1.51"></path><path d="M-18,186L-61,245L78,271Z" fill="#d6798c" stroke="#d6798c" stroke-width="1.51"></path><path d="M78,271L-125,263L183,298Z" fill="#e26f6e" stroke="#e26f6e" stroke-width="1.51"></path><path d="M-107,206L-61,245L-18,186Z" fill="#d6798c" stroke="#d6798c" stroke-width="1.51"></path><path d="M-100,-15L-44,64L1,-16Z" fill="#a79ff0" stroke="#a79ff0" stroke-width="1.51"></path><path d="M-44,64L-105,113L-18,186Z" fill="#dd8094" stroke="#dd8094" stroke-width="1.51"></path><path d="M-105,113L-107,206L-18,186Z" fill="#d77a8d" stroke="#d77a8d" stroke-width="1.51"></path><path d="M422,28L411,-65L354,0Z" fill="#d6798c" stroke="#d6798c" stroke-width="1.51"></path><path d="M351,-71L411,-65L235,-102Z" fill="#d6798c" stroke="#d6798c" stroke-width="1.51"></path><path d="M-48,-93L-100,-15L1,-16Z" fill="#99a2fd" stroke="#99a2fd" stroke-width="1.51"></path><path d="M30,-113L-48,-93L1,-16Z" fill="#99a2fd" stroke="#99a2fd" stroke-width="1.51"></path><path d="M415,181L433,295L422,28Z" fill="#e74b1b" stroke="#e74b1b" stroke-width="1.51"></path><path d="M363,259L433,295L415,181Z" fill="#e64a19" stroke="#e64a19" stroke-width="1.51"></path><path d="M183,298L433,295L363,259Z" fill="#e64a19" stroke="#e64a19" stroke-width="1.51"></path><path d="M-105,113L-125,263L-107,206Z" fill="#d6798c" stroke="#d6798c" stroke-width="1.51"></path><path d="M-107,206L-125,263L-61,245Z" fill="#d6798c" stroke="#d6798c" stroke-width="1.51"></path><path d="M-61,245L-125,263L78,271Z" fill="#d6798c" stroke="#d6798c" stroke-width="1.51"></path><path d="M-124,-92L-125,263L-105,113Z" fill="#e08497" stroke="#e08497" stroke-width="1.51"></path><path d="M-100,-15L-124,-92L-105,113Z" fill="#9ca1fa" stroke="#9ca1fa" stroke-width="1.51"></path><path d="M-48,-93L-124,-92L-100,-15Z" fill="#99a2fd" stroke="#99a2fd" stroke-width="1.51"></path><path d="M30,-113L-124,-92L-48,-93Z" fill="#99a2fd" stroke="#99a2fd" stroke-width="1.51"></path></svg>