<svg width="300" height="176" xmlns="http://www.w3.org/2000/svg"><path d="M118,95L45,-3L41,70Z" fill="#f5735e" stroke="#f5735e" stroke-width="1.51"></path><path d="M118,95L164,27L45,-3Z" fill="#f77058" stroke="#f77058" stroke-width="1.51"></path><path d="M45,-3L-8,-23L41,70Z" fill="#ec7c7d" stroke="#ec7c7d" stroke-width="1.51"></path><path d="M56,-108L-8,-23L45,-3Z" fill="#e38495" stroke="#e38495" stroke-width="1.51"></path><path d="M118,95L206,85L164,27Z" fill="#fd673c" stroke="#fd673c" stroke-width="1.51"></path><path d="M164,27L154,-79L45,-3Z" fill="#f1776d" stroke="#f1776d" stroke-width="1.51"></path><path d="M218,-21L154,-79L164,27Z" fill="#f27466" stroke="#f27466" stroke-width="1.51"></path><path d="M206,85L218,-21L164,27Z" fill="#f76b4d" stroke="#f76b4d" stroke-width="1.51"></path><path d="M154,-79L56,-108L45,-3Z" fill="#e6818c" stroke="#e6818c" stroke-width="1.51"></path><path d="M46,200L182,170L118,95Z" fill="#f9643c" stroke="#f9643c" stroke-width="1.51"></path><path d="M-8,-23L-51,84L41,70Z" fill="#ed7b7a" stroke="#ed7b7a" stroke-width="1.51"></path><path d="M46,200L118,95L41,70Z" fill="#f76b4d" stroke="#f76b4d" stroke-width="1.51"></path><path d="M118,95L182,170L206,85Z" fill="#fd6131" stroke="#fd6131" stroke-width="1.51"></path><path d="M-17,205L46,200L41,70Z" fill="#f26e5a" stroke="#f26e5a" stroke-width="1.51"></path><path d="M-133,24L-108,100L-51,84Z" fill="#e6818b" stroke="#e6818b" stroke-width="1.51"></path><path d="M56,-108L-33,-89L-8,-23Z" fill="#d88aa9" stroke="#d88aa9" stroke-width="1.51"></path><path d="M154,-79L237,-92L56,-108Z" fill="#e97f85" stroke="#e97f85" stroke-width="1.51"></path><path d="M218,-21L237,-92L154,-79Z" fill="#eb7976" stroke="#eb7976" stroke-width="1.51"></path><path d="M308,25L237,-92L218,-21Z" fill="#ee7265" stroke="#ee7265" stroke-width="1.51"></path><path d="M206,85L308,25L218,-21Z" fill="#f6694c" stroke="#f6694c" stroke-width="1.51"></path><path d="M182,170L235,178L206,85Z" fill="#f95f2e" stroke="#f95f2e" stroke-width="1.51"></path><path d="M220,278L235,178L182,170Z" fill="#f65b2a" stroke="#f65b2a" stroke-width="1.51"></path><path d="M-51,84L-17,205L41,70Z" fill="#f17366" stroke="#f17366" stroke-width="1.51"></path><path d="M46,200L88,247L182,170Z" fill="#f6633d" stroke="#f6633d" stroke-width="1.51"></path><path d="M-17,205L88,247L46,200Z" fill="#f06951" stroke="#f06951" stroke-width="1.51"></path><path d="M-133,24L-51,84L-8,-23Z" fill="#e38393" stroke="#e38393" stroke-width="1.51"></path><path d="M-51,84L-118,181L-17,205Z" fill="#ea7775" stroke="#ea7775" stroke-width="1.51"></path><path d="M352,121L308,25L206,85Z" fill="#f96033" stroke="#f96033" stroke-width="1.51"></path><path d="M-33,-89L-133,24L-8,-23Z" fill="#d88aaa" stroke="#d88aaa" stroke-width="1.51"></path><path d="M88,247L167,279L182,170Z" fill="#f75d2d" stroke="#f75d2d" stroke-width="1.51"></path><path d="M-59,247L167,279L88,247Z" fill="#f06447" stroke="#f06447" stroke-width="1.51"></path><path d="M-17,205L-59,247L88,247Z" fill="#ec6c5c" stroke="#ec6c5c" stroke-width="1.51"></path><path d="M-108,100L-118,181L-51,84Z" fill="#e87c80" stroke="#e87c80" stroke-width="1.51"></path><path d="M-133,24L-118,181L-108,100Z" fill="#e67f89" stroke="#e67f89" stroke-width="1.51"></path><path d="M-118,181L-59,247L-17,205Z" fill="#e77572" stroke="#e77572" stroke-width="1.51"></path><path d="M56,-108L-133,-100L-33,-89Z" fill="#cb91c2" stroke="#cb91c2" stroke-width="1.51"></path><path d="M-33,-89L-133,-100L-133,24Z" fill="#cb92c3" stroke="#cb92c3" stroke-width="1.51"></path><path d="M235,178L352,121L206,85Z" fill="#f85d2d" stroke="#f85d2d" stroke-width="1.51"></path><path d="M334,184L352,121L235,178Z" fill="#f55a29" stroke="#f55a29" stroke-width="1.51"></path><path d="M167,279L220,278L182,170Z" fill="#f55a29" stroke="#f55a29" stroke-width="1.51"></path><path d="M337,274L334,184L235,178Z" fill="#f25726" stroke="#f25726" stroke-width="1.51"></path><path d="M308,25L338,-123L237,-92Z" fill="#e97572" stroke="#e97572" stroke-width="1.51"></path><path d="M237,-92L338,-123L56,-108Z" fill="#e47e89" stroke="#e47e89" stroke-width="1.51"></path><path d="M56,-108L338,-123L-133,-100Z" fill="#de87a0" stroke="#de87a0" stroke-width="1.51"></path><path d="M430,-23L338,-123L308,25Z" fill="#e96f66" stroke="#e96f66" stroke-width="1.51"></path><path d="M352,121L392,94L308,25Z" fill="#f75e2f" stroke="#f75e2f" stroke-width="1.51"></path><path d="M390,156L392,94L352,121Z" fill="#f45928" stroke="#f45928" stroke-width="1.51"></path><path d="M-118,181L-138,234L-59,247Z" fill="#e2787e" stroke="#e2787e" stroke-width="1.51"></path><path d="M-133,24L-138,234L-118,181Z" fill="#e37e8a" stroke="#e37e8a" stroke-width="1.51"></path><path d="M-133,-100L-138,234L-133,24Z" fill="#de869e" stroke="#de869e" stroke-width="1.51"></path><path d="M334,184L390,156L352,121Z" fill="#f35827" stroke="#f35827" stroke-width="1.51"></path><path d="M429,276L390,156L334,184Z" fill="#ef5423" stroke="#ef5423" stroke-width="1.51"></path><path d="M220,278L337,274L235,178Z" fill="#f25726" stroke="#f25726" stroke-width="1.51"></path><path d="M429,276L430,-23L392,94Z" fill="#f35827" stroke="#f35827" stroke-width="1.51"></path><path d="M392,94L430,-23L308,25Z" fill="#f16446" stroke="#f16446" stroke-width="1.51"></path><path d="M430,-23L428,-121L338,-123Z" fill="#e17579" stroke="#e17579" stroke-width="1.51"></path><path d="M390,156L429,276L392,94Z" fill="#f05524" stroke="#f05524" stroke-width="1.51"></path><path d="M337,274L429,276L334,184Z" fill="#ee5222" stroke="#ee5222" stroke-width="1.51"></path><path d="M220,278L429,276L337,274Z" fill="#ee5222" stroke="#ee5222" stroke-width="1.51"></path><path d="M167,279L429,276L220,278Z" fill="#f05423" stroke="#f05423" stroke-width="1.51"></path></svg>