<svg width="300" height="176" xmlns="http://www.w3.org/2000/svg"><path d="M121,54L62,14L45,100Z" fill="#f7715b" stroke="#f7715b" stroke-width="1.51"></path><path d="M62,14L-16,95L45,100Z" fill="#f47464" stroke="#f47464" stroke-width="1.51"></path><path d="M-16,95L43,158L45,100Z" fill="#f4715c" stroke="#f4715c" stroke-width="1.51"></path><path d="M45,100L163,165L121,54Z" fill="#fb6841" stroke="#fb6841" stroke-width="1.51"></path><path d="M121,54L179,9L62,14Z" fill="#f6715a" stroke="#f6715a" stroke-width="1.51"></path><path d="M228,145L179,9L121,54Z" fill="#fc663b" stroke="#fc663b" stroke-width="1.51"></path><path d="M62,14L-5,-30L-16,95Z" fill="#ec7c7c" stroke="#ec7c7c" stroke-width="1.51"></path><path d="M78,-92L-5,-30L62,14Z" fill="#e6818d" stroke="#e6818d" stroke-width="1.51"></path><path d="M43,158L163,165L45,100Z" fill="#f76847" stroke="#f76847" stroke-width="1.51"></path><path d="M-16,95L-11,177L43,158Z" fill="#f17160" stroke="#f17160" stroke-width="1.51"></path><path d="M43,158L142,263L163,165Z" fill="#f7623a" stroke="#f7623a" stroke-width="1.51"></path><path d="M148,-98L78,-92L62,14Z" fill="#e87f87" stroke="#e87f87" stroke-width="1.51"></path><path d="M179,9L148,-98L62,14Z" fill="#f1776e" stroke="#f1776e" stroke-width="1.51"></path><path d="M163,165L228,145L121,54Z" fill="#fc6130" stroke="#fc6130" stroke-width="1.51"></path><path d="M179,9L234,-22L148,-98Z" fill="#f0756b" stroke="#f0756b" stroke-width="1.51"></path><path d="M264,119L234,-22L179,9Z" fill="#f7694a" stroke="#f7694a" stroke-width="1.51"></path><path d="M-16,95L-108,109L-11,177Z" fill="#ee7771" stroke="#ee7771" stroke-width="1.51"></path><path d="M-125,5L-108,109L-16,95Z" fill="#e87f87" stroke="#e87f87" stroke-width="1.51"></path><path d="M-44,287L27,251L-11,177Z" fill="#eb6d60" stroke="#eb6d60" stroke-width="1.51"></path><path d="M-11,177L27,251L43,158Z" fill="#f06c59" stroke="#f06c59" stroke-width="1.51"></path><path d="M163,165L259,254L228,145Z" fill="#f75c2b" stroke="#f75c2b" stroke-width="1.51"></path><path d="M228,145L264,119L179,9Z" fill="#fc6130" stroke="#fc6130" stroke-width="1.51"></path><path d="M-5,-30L-125,5L-16,95Z" fill="#e48290" stroke="#e48290" stroke-width="1.51"></path><path d="M-64,-118L-125,5L-5,-30Z" fill="#d38eb4" stroke="#d38eb4" stroke-width="1.51"></path><path d="M27,251L142,263L43,158Z" fill="#f26547" stroke="#f26547" stroke-width="1.51"></path><path d="M329,201L306,115L264,119Z" fill="#f65b2a" stroke="#f65b2a" stroke-width="1.51"></path><path d="M234,-22L209,-112L148,-98Z" fill="#ea7b7c" stroke="#ea7b7c" stroke-width="1.51"></path><path d="M148,-98L-64,-118L78,-92Z" fill="#da89a7" stroke="#da89a7" stroke-width="1.51"></path><path d="M209,-112L-64,-118L148,-98Z" fill="#df869c" stroke="#df869c" stroke-width="1.51"></path><path d="M78,-92L-64,-118L-5,-30Z" fill="#d78bad" stroke="#d78bad" stroke-width="1.51"></path><path d="M329,201L264,119L228,145Z" fill="#f65b2b" stroke="#f65b2b" stroke-width="1.51"></path><path d="M264,119L306,115L234,-22Z" fill="#f96237" stroke="#f96237" stroke-width="1.51"></path><path d="M234,-22L333,-78L209,-112Z" fill="#e87777" stroke="#e87777" stroke-width="1.51"></path><path d="M-142,188L-90,238L-11,177Z" fill="#e67778" stroke="#e67778" stroke-width="1.51"></path><path d="M-142,188L-11,177L-108,109Z" fill="#e7797c" stroke="#e7797c" stroke-width="1.51"></path><path d="M-125,5L-142,188L-108,109Z" fill="#e6808b" stroke="#e6808b" stroke-width="1.51"></path><path d="M-142,188L-44,287L-90,238Z" fill="#e27679" stroke="#e27679" stroke-width="1.51"></path><path d="M-90,238L-44,287L-11,177Z" fill="#e7716c" stroke="#e7716c" stroke-width="1.51"></path><path d="M27,251L-44,287L142,263Z" fill="#ee664f" stroke="#ee664f" stroke-width="1.51"></path><path d="M352,298L259,254L142,263Z" fill="#f15625" stroke="#f15625" stroke-width="1.51"></path><path d="M142,263L259,254L163,165Z" fill="#f65b2a" stroke="#f65b2a" stroke-width="1.51"></path><path d="M-125,5L-144,-113L-142,188Z" fill="#d98aab" stroke="#d98aab" stroke-width="1.51"></path><path d="M-64,-118L-144,-113L-125,5Z" fill="#c295cf" stroke="#c295cf" stroke-width="1.51"></path><path d="M421,111L353,-16L306,115Z" fill="#f55f34" stroke="#f55f34" stroke-width="1.51"></path><path d="M306,115L353,-16L234,-22Z" fill="#f3684b" stroke="#f3684b" stroke-width="1.51"></path><path d="M259,254L329,201L228,145Z" fill="#f45928" stroke="#f45928" stroke-width="1.51"></path><path d="M353,-16L333,-78L234,-22Z" fill="#eb7167" stroke="#eb7167" stroke-width="1.51"></path><path d="M329,201L421,111L306,115Z" fill="#f45928" stroke="#f45928" stroke-width="1.51"></path><path d="M353,-16L423,-101L333,-78Z" fill="#e67270" stroke="#e67270" stroke-width="1.51"></path><path d="M329,201L421,196L421,111Z" fill="#f15625" stroke="#f15625" stroke-width="1.51"></path><path d="M259,254L352,298L329,201Z" fill="#f05424" stroke="#f05424" stroke-width="1.51"></path><path d="M-44,287L352,298L142,263Z" fill="#f45928" stroke="#f45928" stroke-width="1.51"></path><path d="M421,111L437,2L353,-16Z" fill="#f06344" stroke="#f06344" stroke-width="1.51"></path><path d="M421,111L443,297L437,2Z" fill="#f15625" stroke="#f15625" stroke-width="1.51"></path><path d="M352,298L421,196L329,201Z" fill="#ef5322" stroke="#ef5322" stroke-width="1.51"></path><path d="M437,2L423,-101L353,-16Z" fill="#e86d63" stroke="#e86d63" stroke-width="1.51"></path><path d="M333,-78L423,-101L209,-112Z" fill="#e27980" stroke="#e27980" stroke-width="1.51"></path><path d="M352,298L443,297L421,196Z" fill="#eb501f" stroke="#eb501f" stroke-width="1.51"></path><path d="M421,196L443,297L421,111Z" fill="#ee5221" stroke="#ee5221" stroke-width="1.51"></path></svg>