<svg width="300" height="176" xmlns="http://www.w3.org/2000/svg"><path d="M-29,-89L59,-91L231,-101Z" fill="#ff9a65" stroke="#ff9a65" stroke-width="1.51"></path><path d="M59,-91L152,-88L231,-101Z" fill="#ff905c" stroke="#ff905c" stroke-width="1.51"></path><path d="M307,-97L299,11L439,12Z" fill="#f87844" stroke="#f87844" stroke-width="1.51"></path><path d="M231,-101L307,-97L451,-100Z" fill="#fb8a56" stroke="#fb8a56" stroke-width="1.51"></path><path d="M307,-97L439,12L451,-100Z" fill="#f77f4b" stroke="#f77f4b" stroke-width="1.51"></path><path d="M306,272L210,288L453,255Z" fill="#ee5322" stroke="#ee5322" stroke-width="1.51"></path><path d="M392,172L306,272L453,255Z" fill="#ed5222" stroke="#ed5222" stroke-width="1.51"></path><path d="M439,12L407,94L453,255Z" fill="#f25726" stroke="#f25726" stroke-width="1.51"></path><path d="M407,94L392,172L453,255Z" fill="#f05423" stroke="#f05423" stroke-width="1.51"></path><path d="M451,-100L439,12L453,255Z" fill="#f3602f" stroke="#f3602f" stroke-width="1.51"></path><path d="M299,11L407,94L439,12Z" fill="#f66735" stroke="#f66735" stroke-width="1.51"></path><path d="M312,157L306,272L392,172Z" fill="#f15625" stroke="#f15625" stroke-width="1.51"></path><path d="M312,157L392,172L407,94Z" fill="#f45827" stroke="#f45827" stroke-width="1.51"></path><path d="M313,83L312,157L407,94Z" fill="#f65b2a" stroke="#f65b2a" stroke-width="1.51"></path><path d="M299,11L313,83L407,94Z" fill="#f86331" stroke="#f86331" stroke-width="1.51"></path><path d="M229,145L183,239L306,272Z" fill="#f45928" stroke="#f45928" stroke-width="1.51"></path><path d="M183,239L210,288L306,272Z" fill="#f25726" stroke="#f25726" stroke-width="1.51"></path><path d="M220,-4L299,11L307,-97Z" fill="#fb7d48" stroke="#fb7d48" stroke-width="1.51"></path><path d="M231,-101L220,-4L307,-97Z" fill="#fd8652" stroke="#fd8652" stroke-width="1.51"></path><path d="M229,145L306,272L312,157Z" fill="#f45928" stroke="#f45928" stroke-width="1.51"></path><path d="M299,11L256,54L313,83Z" fill="#fa6836" stroke="#fa6836" stroke-width="1.51"></path><path d="M229,145L312,157L313,83Z" fill="#f75c2c" stroke="#f75c2c" stroke-width="1.51"></path><path d="M256,54L229,145L313,83Z" fill="#fa5f2e" stroke="#fa5f2e" stroke-width="1.51"></path><path d="M220,-4L256,54L299,11Z" fill="#fb713e" stroke="#fb713e" stroke-width="1.51"></path><path d="M48,253L-34,290L210,288Z" fill="#f56735" stroke="#f56735" stroke-width="1.51"></path><path d="M154,197L183,239L229,145Z" fill="#f85d2c" stroke="#f85d2c" stroke-width="1.51"></path><path d="M182,96L229,145L256,54Z" fill="#fc6130" stroke="#fc6130" stroke-width="1.51"></path><path d="M220,-4L182,96L256,54Z" fill="#fd6b3a" stroke="#fd6b3a" stroke-width="1.51"></path><path d="M132,9L182,96L220,-4Z" fill="#fe713e" stroke="#fe713e" stroke-width="1.51"></path><path d="M152,-88L220,-4L231,-101Z" fill="#ff8853" stroke="#ff8853" stroke-width="1.51"></path><path d="M182,96L154,197L229,145Z" fill="#fb5f2f" stroke="#fb5f2f" stroke-width="1.51"></path><path d="M152,-88L132,9L220,-4Z" fill="#ff804c" stroke="#ff804c" stroke-width="1.51"></path><path d="M183,239L48,253L210,288Z" fill="#f65b2a" stroke="#f65b2a" stroke-width="1.51"></path><path d="M52,88L41,152L154,197Z" fill="#fc6d3b" stroke="#fc6d3b" stroke-width="1.51"></path><path d="M52,88L154,197L182,96Z" fill="#fd6635" stroke="#fd6635" stroke-width="1.51"></path><path d="M132,9L52,88L182,96Z" fill="#ff6f3d" stroke="#ff6f3d" stroke-width="1.51"></path><path d="M154,197L48,253L183,239Z" fill="#f7602f" stroke="#f7602f" stroke-width="1.51"></path><path d="M53,-18L132,9L152,-88Z" fill="#ff8854" stroke="#ff8854" stroke-width="1.51"></path><path d="M59,-91L53,-18L152,-88Z" fill="#ff935f" stroke="#ff935f" stroke-width="1.51"></path><path d="M41,152L48,253L154,197Z" fill="#f96b38" stroke="#f96b38" stroke-width="1.51"></path><path d="M53,-18L52,88L132,9Z" fill="#ff804c" stroke="#ff804c" stroke-width="1.51"></path><path d="M41,152L-18,206L48,253Z" fill="#f97441" stroke="#f97441" stroke-width="1.51"></path><path d="M-51,87L52,88L53,-18Z" fill="#ff8450" stroke="#ff8450" stroke-width="1.51"></path><path d="M-59,-33L-51,87L53,-18Z" fill="#ff935f" stroke="#ff935f" stroke-width="1.51"></path><path d="M-29,-89L53,-18L59,-91Z" fill="#ff9d69" stroke="#ff9d69" stroke-width="1.51"></path><path d="M-51,87L41,152L52,88Z" fill="#ff7b48" stroke="#ff7b48" stroke-width="1.51"></path><path d="M-29,-89L-59,-33L53,-18Z" fill="#ff9f6a" stroke="#ff9f6a" stroke-width="1.51"></path><path d="M-18,206L-34,290L48,253Z" fill="#f77642" stroke="#f77642" stroke-width="1.51"></path><path d="M-51,87L-18,206L41,152Z" fill="#fd7d49" stroke="#fd7d49" stroke-width="1.51"></path><path d="M-51,87L-111,155L-18,206Z" fill="#fd8651" stroke="#fd8651" stroke-width="1.51"></path><path d="M-124,237L-34,290L-18,206Z" fill="#f9804b" stroke="#f9804b" stroke-width="1.51"></path><path d="M-111,155L-124,237L-18,206Z" fill="#fb8753" stroke="#fb8753" stroke-width="1.51"></path><path d="M-59,-33L-134,-19L-51,87Z" fill="#ff9d69" stroke="#ff9d69" stroke-width="1.51"></path><path d="M-94,-77L-59,-33L-29,-89Z" fill="#ffab77" stroke="#ffab77" stroke-width="1.51"></path><path d="M-140,103L-111,155L-51,87Z" fill="#ff8e59" stroke="#ff8e59" stroke-width="1.51"></path><path d="M-134,-19L-140,103L-51,87Z" fill="#ff9763" stroke="#ff9763" stroke-width="1.51"></path><path d="M-94,-77L-134,-19L-59,-33Z" fill="#ffab77" stroke="#ffab77" stroke-width="1.51"></path><path d="M-140,103L-124,237L-111,155Z" fill="#fe8f5a" stroke="#fe8f5a" stroke-width="1.51"></path></svg>