<svg width="300" height="176" xmlns="http://www.w3.org/2000/svg"><path d="M169,68L265,90L235,-7Z" fill="#f86743" stroke="#f86743" stroke-width="1.51"></path><path d="M265,90L324,-13L235,-7Z" fill="#f4694d" stroke="#f4694d" stroke-width="1.51"></path><path d="M217,198L303,109L265,90Z" fill="#f85d2c" stroke="#f85d2c" stroke-width="1.51"></path><path d="M303,109L324,-13L265,90Z" fill="#f7623a" stroke="#f7623a" stroke-width="1.51"></path><path d="M235,-7L117,-20L169,68Z" fill="#f76e55" stroke="#f76e55" stroke-width="1.51"></path><path d="M147,-91L117,-20L235,-7Z" fill="#f0776d" stroke="#f0776d" stroke-width="1.51"></path><path d="M169,68L151,166L265,90Z" fill="#fc6130" stroke="#fc6130" stroke-width="1.51"></path><path d="M75,183L151,166L28,114Z" fill="#f76747" stroke="#f76747" stroke-width="1.51"></path><path d="M151,166L217,198L265,90Z" fill="#f95e2d" stroke="#f95e2d" stroke-width="1.51"></path><path d="M331,-74L227,-103L235,-7Z" fill="#ea7673" stroke="#ea7673" stroke-width="1.51"></path><path d="M117,-20L73,0L169,68Z" fill="#f6735f" stroke="#f6735f" stroke-width="1.51"></path><path d="M73,-59L73,0L117,-20Z" fill="#ec7c7c" stroke="#ec7c7c" stroke-width="1.51"></path><path d="M227,-103L147,-91L235,-7Z" fill="#eb7978" stroke="#eb7978" stroke-width="1.51"></path><path d="M324,-13L331,-74L235,-7Z" fill="#ec7064" stroke="#ec7064" stroke-width="1.51"></path><path d="M147,-91L73,-59L117,-20Z" fill="#eb7d81" stroke="#eb7d81" stroke-width="1.51"></path><path d="M303,109L441,55L324,-13Z" fill="#f3623e" stroke="#f3623e" stroke-width="1.51"></path><path d="M324,-13L436,-25L331,-74Z" fill="#e96f65" stroke="#e96f65" stroke-width="1.51"></path><path d="M257,235L357,181L303,109Z" fill="#f45928" stroke="#f45928" stroke-width="1.51"></path><path d="M217,198L257,235L303,109Z" fill="#f65a29" stroke="#f65a29" stroke-width="1.51"></path><path d="M151,250L257,235L217,198Z" fill="#f55a29" stroke="#f55a29" stroke-width="1.51"></path><path d="M151,166L151,250L217,198Z" fill="#f85d2c" stroke="#f85d2c" stroke-width="1.51"></path><path d="M28,114L151,166L169,68Z" fill="#fb673e" stroke="#fb673e" stroke-width="1.51"></path><path d="M-17,-18L28,114L73,0Z" fill="#ef7a75" stroke="#ef7a75" stroke-width="1.51"></path><path d="M73,0L28,114L169,68Z" fill="#f86f54" stroke="#f86f54" stroke-width="1.51"></path><path d="M75,183L151,250L151,166Z" fill="#f86035" stroke="#f86035" stroke-width="1.51"></path><path d="M357,181L441,55L303,109Z" fill="#f55a29" stroke="#f55a29" stroke-width="1.51"></path><path d="M441,55L436,-25L324,-13Z" fill="#ed6651" stroke="#ed6651" stroke-width="1.51"></path><path d="M436,-25L415,-102L331,-74Z" fill="#e57270" stroke="#e57270" stroke-width="1.51"></path><path d="M331,-74L415,-102L227,-103Z" fill="#e3787e" stroke="#e3787e" stroke-width="1.51"></path><path d="M73,-59L-17,-18L73,0Z" fill="#e78089" stroke="#e78089" stroke-width="1.51"></path><path d="M75,183L87,279L151,250Z" fill="#f4613b" stroke="#f4613b" stroke-width="1.51"></path><path d="M28,114L1,176L75,183Z" fill="#f36d56" stroke="#f36d56" stroke-width="1.51"></path><path d="M-90,102L1,176L28,114Z" fill="#ef7469" stroke="#ef7469" stroke-width="1.51"></path><path d="M151,250L345,286L257,235Z" fill="#f25726" stroke="#f25726" stroke-width="1.51"></path><path d="M257,235L345,286L357,181Z" fill="#f05524" stroke="#f05524" stroke-width="1.51"></path><path d="M357,181L438,211L441,55Z" fill="#f15625" stroke="#f15625" stroke-width="1.51"></path><path d="M-8,244L87,279L75,183Z" fill="#f0674d" stroke="#f0674d" stroke-width="1.51"></path><path d="M151,250L87,279L345,286Z" fill="#f35827" stroke="#f35827" stroke-width="1.51"></path><path d="M393,270L438,211L357,181Z" fill="#ee5322" stroke="#ee5322" stroke-width="1.51"></path><path d="M345,286L393,270L357,181Z" fill="#ed5222" stroke="#ed5222" stroke-width="1.51"></path><path d="M-17,-18L-59,57L28,114Z" fill="#ed7b7a" stroke="#ed7b7a" stroke-width="1.51"></path><path d="M-17,-18L-43,-60L-59,57Z" fill="#e0869a" stroke="#e0869a" stroke-width="1.51"></path><path d="M73,-59L-43,-60L-17,-18Z" fill="#de869e" stroke="#de869e" stroke-width="1.51"></path><path d="M147,-91L-43,-60L73,-59Z" fill="#e28597" stroke="#e28597" stroke-width="1.51"></path><path d="M-102,169L-8,244L1,176Z" fill="#ea726a" stroke="#ea726a" stroke-width="1.51"></path><path d="M1,176L-8,244L75,183Z" fill="#f06c57" stroke="#f06c57" stroke-width="1.51"></path><path d="M-59,57L-90,102L28,114Z" fill="#f07872" stroke="#f07872" stroke-width="1.51"></path><path d="M-151,31L-90,102L-59,57Z" fill="#e5828f" stroke="#e5828f" stroke-width="1.51"></path><path d="M-90,102L-102,169L1,176Z" fill="#ea7775" stroke="#ea7775" stroke-width="1.51"></path><path d="M-43,-60L-151,31L-59,57Z" fill="#dd87a2" stroke="#dd87a2" stroke-width="1.51"></path><path d="M-90,102L-151,31L-102,169Z" fill="#e77f88" stroke="#e77f88" stroke-width="1.51"></path><path d="M-43,-60L-150,-115L-151,31Z" fill="#ca92c4" stroke="#ca92c4" stroke-width="1.51"></path><path d="M147,-91L-150,-115L-43,-60Z" fill="#d28eb7" stroke="#d28eb7" stroke-width="1.51"></path><path d="M227,-103L-150,-115L147,-91Z" fill="#dd87a1" stroke="#dd87a1" stroke-width="1.51"></path><path d="M415,-102L-150,-115L227,-103Z" fill="#e6808a" stroke="#e6808a" stroke-width="1.51"></path><path d="M-151,31L-149,284L-102,169Z" fill="#e27e8b" stroke="#e27e8b" stroke-width="1.51"></path><path d="M-102,169L-149,284L-8,244Z" fill="#e47578" stroke="#e47578" stroke-width="1.51"></path><path d="M-8,244L-149,284L87,279Z" fill="#e86d62" stroke="#e86d62" stroke-width="1.51"></path><path d="M87,279L-149,284L345,286Z" fill="#f15f3d" stroke="#f15f3d" stroke-width="1.51"></path></svg>