<svg width="300" height="176" xmlns="http://www.w3.org/2000/svg"><path d="M161,108L136,145L251,148Z" fill="#f65b2a" stroke="#f65b2a" stroke-width="1.51"></path><path d="M136,145L157,250L251,148Z" fill="#f05524" stroke="#f05524" stroke-width="1.51"></path><path d="M251,148L227,57L161,108Z" fill="#f85c2b" stroke="#f85c2b" stroke-width="1.51"></path><path d="M157,250L238,260L251,148Z" fill="#ed5221" stroke="#ed5221" stroke-width="1.51"></path><path d="M251,148L320,147L227,57Z" fill="#f25625" stroke="#f25625" stroke-width="1.51"></path><path d="M308,271L320,147L251,148Z" fill="#e64b1a" stroke="#e64b1a" stroke-width="1.51"></path><path d="M136,145L70,202L157,250Z" fill="#ef5e3c" stroke="#ef5e3c" stroke-width="1.51"></path><path d="M35,64L70,202L136,145Z" fill="#ed6d5d" stroke="#ed6d5d" stroke-width="1.51"></path><path d="M161,108L35,64L136,145Z" fill="#f76b4d" stroke="#f76b4d" stroke-width="1.51"></path><path d="M227,57L130,31L161,108Z" fill="#f76b4d" stroke="#f76b4d" stroke-width="1.51"></path><path d="M238,260L308,271L251,148Z" fill="#e94d1c" stroke="#e94d1c" stroke-width="1.51"></path><path d="M50,288L308,271L238,260Z" fill="#ef5322" stroke="#ef5322" stroke-width="1.51"></path><path d="M320,147L352,98L227,57Z" fill="#f15524" stroke="#f15524" stroke-width="1.51"></path><path d="M410,181L352,98L320,147Z" fill="#eb4f1e" stroke="#eb4f1e" stroke-width="1.51"></path><path d="M227,57L211,-23L130,31Z" fill="#e77a7d" stroke="#e77a7d" stroke-width="1.51"></path><path d="M337,7L211,-23L227,57Z" fill="#e07780" stroke="#e07780" stroke-width="1.51"></path><path d="M130,31L35,64L161,108Z" fill="#f37668" stroke="#f37668" stroke-width="1.51"></path><path d="M82,3L35,64L130,31Z" fill="#de87a0" stroke="#de87a0" stroke-width="1.51"></path><path d="M167,-65L82,3L130,31Z" fill="#da89a8" stroke="#da89a8" stroke-width="1.51"></path><path d="M70,202L50,288L157,250Z" fill="#ea6550" stroke="#ea6550" stroke-width="1.51"></path><path d="M157,250L50,288L238,260Z" fill="#f35828" stroke="#f35828" stroke-width="1.51"></path><path d="M-9,186L50,288L70,202Z" fill="#df7174" stroke="#df7174" stroke-width="1.51"></path><path d="M-18,100L-9,186L70,202Z" fill="#dc7784" stroke="#dc7784" stroke-width="1.51"></path><path d="M352,98L337,7L227,57Z" fill="#ea6550" stroke="#ea6550" stroke-width="1.51"></path><path d="M308,271L410,181L320,147Z" fill="#e64a19" stroke="#e64a19" stroke-width="1.51"></path><path d="M352,98L403,60L337,7Z" fill="#eb654f" stroke="#eb654f" stroke-width="1.51"></path><path d="M35,64L-18,100L70,202Z" fill="#e47a80" stroke="#e47a80" stroke-width="1.51"></path><path d="M-20,-35L-18,100L35,64Z" fill="#c594cb" stroke="#c594cb" stroke-width="1.51"></path><path d="M211,-23L167,-65L130,31Z" fill="#e08397" stroke="#e08397" stroke-width="1.51"></path><path d="M248,-81L167,-65L211,-23Z" fill="#dd8093" stroke="#dd8093" stroke-width="1.51"></path><path d="M410,181L403,60L352,98Z" fill="#ef5423" stroke="#ef5423" stroke-width="1.51"></path><path d="M300,-64L211,-23L337,7Z" fill="#d87a8d" stroke="#d87a8d" stroke-width="1.51"></path><path d="M300,-64L248,-81L211,-23Z" fill="#da7c90" stroke="#da7c90" stroke-width="1.51"></path><path d="M391,-100L300,-64L337,7Z" fill="#d6798c" stroke="#d6798c" stroke-width="1.51"></path><path d="M-9,186L-13,292L50,288Z" fill="#d97786" stroke="#d97786" stroke-width="1.51"></path><path d="M-135,255L-13,292L-9,186Z" fill="#d6798c" stroke="#d6798c" stroke-width="1.51"></path><path d="M-13,292L411,281L50,288Z" fill="#f35727" stroke="#f35727" stroke-width="1.51"></path><path d="M50,288L411,281L308,271Z" fill="#ea4e1d" stroke="#ea4e1d" stroke-width="1.51"></path><path d="M308,271L411,281L410,181Z" fill="#e64a19" stroke="#e64a19" stroke-width="1.51"></path><path d="M41,-103L82,3L167,-65Z" fill="#cf8fbc" stroke="#cf8fbc" stroke-width="1.51"></path><path d="M41,-103L-20,-35L82,3Z" fill="#b19ce5" stroke="#b19ce5" stroke-width="1.51"></path><path d="M82,3L-20,-35L35,64Z" fill="#ba99da" stroke="#ba99da" stroke-width="1.51"></path><path d="M403,60L445,18L337,7Z" fill="#e26e6d" stroke="#e26e6d" stroke-width="1.51"></path><path d="M410,181L445,18L403,60Z" fill="#f25829" stroke="#f25829" stroke-width="1.51"></path><path d="M411,281L445,18L410,181Z" fill="#e84d1c" stroke="#e84d1c" stroke-width="1.51"></path><path d="M248,-81L41,-103L167,-65Z" fill="#e18598" stroke="#e18598" stroke-width="1.51"></path><path d="M-102,19L-126,111L-18,100Z" fill="#db89a5" stroke="#db89a5" stroke-width="1.51"></path><path d="M-18,100L-129,180L-9,186Z" fill="#d97b8e" stroke="#d97b8e" stroke-width="1.51"></path><path d="M-126,111L-129,180L-18,100Z" fill="#dc7f92" stroke="#dc7f92" stroke-width="1.51"></path><path d="M445,18L391,-100L337,7Z" fill="#d6798c" stroke="#d6798c" stroke-width="1.51"></path><path d="M300,-64L391,-100L248,-81Z" fill="#d6798c" stroke="#d6798c" stroke-width="1.51"></path><path d="M248,-81L391,-100L41,-103Z" fill="#db7f92" stroke="#db7f92" stroke-width="1.51"></path><path d="M41,-103L-45,-64L-20,-35Z" fill="#99a2fd" stroke="#99a2fd" stroke-width="1.51"></path><path d="M-20,-35L-102,19L-18,100Z" fill="#b999dc" stroke="#b999dc" stroke-width="1.51"></path><path d="M-45,-64L-102,19L-20,-35Z" fill="#99a2fd" stroke="#99a2fd" stroke-width="1.51"></path><path d="M-129,180L-135,255L-9,186Z" fill="#d6798c" stroke="#d6798c" stroke-width="1.51"></path><path d="M-126,111L-135,255L-129,180Z" fill="#d6798c" stroke="#d6798c" stroke-width="1.51"></path><path d="M41,-103L-108,-60L-45,-64Z" fill="#99a2fd" stroke="#99a2fd" stroke-width="1.51"></path><path d="M-45,-64L-108,-60L-102,19Z" fill="#99a2fd" stroke="#99a2fd" stroke-width="1.51"></path><path d="M-102,19L-108,-60L-126,111Z" fill="#b49be2" stroke="#b49be2" stroke-width="1.51"></path></svg>