<svg width="300" height="176" xmlns="http://www.w3.org/2000/svg"><path d="M158,120L77,116L124,175Z" fill="#f46443" stroke="#f46443" stroke-width="1.51"></path><path d="M77,116L70,171L124,175Z" fill="#ed6854" stroke="#ed6854" stroke-width="1.51"></path><path d="M158,120L150,26L77,116Z" fill="#fc6a44" stroke="#fc6a44" stroke-width="1.51"></path><path d="M158,120L240,117L150,26Z" fill="#fd6131" stroke="#fd6131" stroke-width="1.51"></path><path d="M273,187L240,117L158,120Z" fill="#f25626" stroke="#f25626" stroke-width="1.51"></path><path d="M70,171L61,244L124,175Z" fill="#e96755" stroke="#e96755" stroke-width="1.51"></path><path d="M124,175L273,187L158,120Z" fill="#f25726" stroke="#f25726" stroke-width="1.51"></path><path d="M61,244L168,254L124,175Z" fill="#ee5f3f" stroke="#ee5f3f" stroke-width="1.51"></path><path d="M77,116L-19,173L70,171Z" fill="#e37373" stroke="#e37373" stroke-width="1.51"></path><path d="M70,171L-19,173L61,244Z" fill="#e07173" stroke="#e07173" stroke-width="1.51"></path><path d="M71,-1L-9,82L77,116Z" fill="#e38393" stroke="#e38393" stroke-width="1.51"></path><path d="M150,26L71,-1L77,116Z" fill="#e97f85" stroke="#e97f85" stroke-width="1.51"></path><path d="M-9,82L-19,173L77,116Z" fill="#e17d89" stroke="#e17d89" stroke-width="1.51"></path><path d="M168,254L273,187L124,175Z" fill="#f05423" stroke="#f05423" stroke-width="1.51"></path><path d="M-9,82L-126,97L-19,173Z" fill="#de8194" stroke="#de8194" stroke-width="1.51"></path><path d="M71,-1L-13,1L-9,82Z" fill="#c196d2" stroke="#c196d2" stroke-width="1.51"></path><path d="M-19,173L-18,267L61,244Z" fill="#d97786" stroke="#d97786" stroke-width="1.51"></path><path d="M61,244L218,299L168,254Z" fill="#f35727" stroke="#f35727" stroke-width="1.51"></path><path d="M-18,267L218,299L61,244Z" fill="#ea6654" stroke="#ea6654" stroke-width="1.51"></path><path d="M168,254L218,299L273,187Z" fill="#ed5120" stroke="#ed5120" stroke-width="1.51"></path><path d="M240,117L261,-6L150,26Z" fill="#ee6f60" stroke="#ee6f60" stroke-width="1.51"></path><path d="M150,26L90,-88L71,-1Z" fill="#d28eb7" stroke="#d28eb7" stroke-width="1.51"></path><path d="M71,-1L90,-88L-13,1Z" fill="#b999db" stroke="#b999db" stroke-width="1.51"></path><path d="M297,28L261,-6L240,117Z" fill="#eb6b5b" stroke="#eb6b5b" stroke-width="1.51"></path><path d="M346,81L297,28L240,117Z" fill="#f05d38" stroke="#f05d38" stroke-width="1.51"></path><path d="M273,187L348,162L240,117Z" fill="#ea4e1d" stroke="#ea4e1d" stroke-width="1.51"></path><path d="M218,299L302,249L273,187Z" fill="#e94d1d" stroke="#e94d1d" stroke-width="1.51"></path><path d="M178,-110L90,-88L150,26Z" fill="#de879f" stroke="#de879f" stroke-width="1.51"></path><path d="M302,249L348,162L273,187Z" fill="#e64a19" stroke="#e64a19" stroke-width="1.51"></path><path d="M348,162L346,81L240,117Z" fill="#ee5322" stroke="#ee5322" stroke-width="1.51"></path><path d="M-13,1L-126,97L-9,82Z" fill="#d18eb8" stroke="#d18eb8" stroke-width="1.51"></path><path d="M-19,173L-94,277L-18,267Z" fill="#d6798c" stroke="#d6798c" stroke-width="1.51"></path><path d="M-95,-31L-126,97L-13,1Z" fill="#b39be3" stroke="#b39be3" stroke-width="1.51"></path><path d="M260,-93L261,-6L353,-78Z" fill="#d77a8c" stroke="#d77a8c" stroke-width="1.51"></path><path d="M260,-93L178,-110L261,-6Z" fill="#db7e91" stroke="#db7e91" stroke-width="1.51"></path><path d="M261,-6L178,-110L150,26Z" fill="#de8194" stroke="#de8194" stroke-width="1.51"></path><path d="M-18,267L-94,277L218,299Z" fill="#df7175" stroke="#df7175" stroke-width="1.51"></path><path d="M-134,190L-94,277L-19,173Z" fill="#d6798c" stroke="#d6798c" stroke-width="1.51"></path><path d="M-126,97L-134,190L-19,173Z" fill="#d97c8f" stroke="#d97c8f" stroke-width="1.51"></path><path d="M353,-78L261,-6L297,28Z" fill="#d6798c" stroke="#d6798c" stroke-width="1.51"></path><path d="M-4,-124L-95,-31L-13,1Z" fill="#99a2fd" stroke="#99a2fd" stroke-width="1.51"></path><path d="M90,-88L-4,-124L-13,1Z" fill="#ab9eec" stroke="#ab9eec" stroke-width="1.51"></path><path d="M178,-110L-4,-124L90,-88Z" fill="#cc91c1" stroke="#cc91c1" stroke-width="1.51"></path><path d="M-95,-31L-107,-75L-126,97Z" fill="#99a2fd" stroke="#99a2fd" stroke-width="1.51"></path><path d="M-4,-124L-107,-75L-95,-31Z" fill="#99a2fd" stroke="#99a2fd" stroke-width="1.51"></path><path d="M348,162L427,59L346,81Z" fill="#f15524" stroke="#f15524" stroke-width="1.51"></path><path d="M346,81L390,-22L297,28Z" fill="#e26e6c" stroke="#e26e6c" stroke-width="1.51"></path><path d="M302,249L416,204L348,162Z" fill="#e64a19" stroke="#e64a19" stroke-width="1.51"></path><path d="M417,292L416,204L302,249Z" fill="#e64a19" stroke="#e64a19" stroke-width="1.51"></path><path d="M427,59L390,-22L346,81Z" fill="#e66b61" stroke="#e66b61" stroke-width="1.51"></path><path d="M390,-22L353,-78L297,28Z" fill="#d6798c" stroke="#d6798c" stroke-width="1.51"></path><path d="M260,-93L402,-97L178,-110Z" fill="#d87a8d" stroke="#d87a8d" stroke-width="1.51"></path><path d="M416,204L427,59L348,162Z" fill="#eb4f1f" stroke="#eb4f1f" stroke-width="1.51"></path><path d="M416,204L417,292L427,59Z" fill="#e64a19" stroke="#e64a19" stroke-width="1.51"></path><path d="M218,299L417,292L302,249Z" fill="#e64a19" stroke="#e64a19" stroke-width="1.51"></path><path d="M427,59L402,-97L390,-22Z" fill="#d6798c" stroke="#d6798c" stroke-width="1.51"></path><path d="M390,-22L402,-97L353,-78Z" fill="#d6798c" stroke="#d6798c" stroke-width="1.51"></path><path d="M353,-78L402,-97L260,-93Z" fill="#d6798c" stroke="#d6798c" stroke-width="1.51"></path><path d="M178,-110L402,-97L-4,-124Z" fill="#de8195" stroke="#de8195" stroke-width="1.51"></path></svg>