<svg width="300" height="176" xmlns="http://www.w3.org/2000/svg"><path d="M-21,-116L26,-101L176,-81Z" fill="#ff9f6b" stroke="#ff9f6b" stroke-width="1.51"></path><path d="M-21,-116L176,-81L341,-76Z" fill="#ff8f5a" stroke="#ff8f5a" stroke-width="1.51"></path><path d="M176,-81L227,-69L341,-76Z" fill="#fd8854" stroke="#fd8854" stroke-width="1.51"></path><path d="M163,264L91,295L359,280Z" fill="#f35726" stroke="#f35726" stroke-width="1.51"></path><path d="M361,72L391,82L413,-22Z" fill="#f66634" stroke="#f66634" stroke-width="1.51"></path><path d="M391,82L360,151L424,179Z" fill="#f35727" stroke="#f35727" stroke-width="1.51"></path><path d="M360,151L359,280L424,179Z" fill="#f05423" stroke="#f05423" stroke-width="1.51"></path><path d="M413,-22L391,82L424,179Z" fill="#f55c2b" stroke="#f55c2b" stroke-width="1.51"></path><path d="M413,-22L424,179L434,275Z" fill="#f15625" stroke="#f15625" stroke-width="1.51"></path><path d="M424,179L359,280L434,275Z" fill="#ed5120" stroke="#ed5120" stroke-width="1.51"></path><path d="M216,246L163,264L359,280Z" fill="#f25625" stroke="#f25625" stroke-width="1.51"></path><path d="M302,2L361,72L413,-22Z" fill="#f76e3a" stroke="#f76e3a" stroke-width="1.51"></path><path d="M389,-69L341,-76L413,-22Z" fill="#f87e4a" stroke="#f87e4a" stroke-width="1.51"></path><path d="M341,-76L302,2L413,-22Z" fill="#f87a46" stroke="#f87a46" stroke-width="1.51"></path><path d="M361,72L360,151L391,82Z" fill="#f55a29" stroke="#f55a29" stroke-width="1.51"></path><path d="M268,108L208,210L360,151Z" fill="#f65b2a" stroke="#f65b2a" stroke-width="1.51"></path><path d="M216,246L359,280L360,151Z" fill="#f15625" stroke="#f15625" stroke-width="1.51"></path><path d="M208,210L216,246L360,151Z" fill="#f45928" stroke="#f45928" stroke-width="1.51"></path><path d="M302,2L272,23L361,72Z" fill="#f96c39" stroke="#f96c39" stroke-width="1.51"></path><path d="M272,23L268,108L361,72Z" fill="#f96332" stroke="#f96332" stroke-width="1.51"></path><path d="M268,108L360,151L361,72Z" fill="#f75b2b" stroke="#f75b2b" stroke-width="1.51"></path><path d="M227,-69L302,2L341,-76Z" fill="#fb804c" stroke="#fb804c" stroke-width="1.51"></path><path d="M227,-69L272,23L302,2Z" fill="#fb7946" stroke="#fb7946" stroke-width="1.51"></path><path d="M168,107L208,210L268,108Z" fill="#f95f2e" stroke="#f95f2e" stroke-width="1.51"></path><path d="M227,-69L134,-20L272,23Z" fill="#fd7d49" stroke="#fd7d49" stroke-width="1.51"></path><path d="M134,-20L168,107L272,23Z" fill="#fe703d" stroke="#fe703d" stroke-width="1.51"></path><path d="M168,107L268,108L272,23Z" fill="#fc6332" stroke="#fc6332" stroke-width="1.51"></path><path d="M168,107L153,199L208,210Z" fill="#fa5e2e" stroke="#fa5e2e" stroke-width="1.51"></path><path d="M176,-81L134,-20L227,-69Z" fill="#ff8652" stroke="#ff8652" stroke-width="1.51"></path><path d="M208,210L163,264L216,246Z" fill="#f55a29" stroke="#f55a29" stroke-width="1.51"></path><path d="M153,199L163,264L208,210Z" fill="#f75b2b" stroke="#f75b2b" stroke-width="1.51"></path><path d="M80,109L153,199L168,107Z" fill="#fc6433" stroke="#fc6433" stroke-width="1.51"></path><path d="M134,-20L80,109L168,107Z" fill="#ff6e3c" stroke="#ff6e3c" stroke-width="1.51"></path><path d="M88,-31L134,-20L176,-81Z" fill="#ff8753" stroke="#ff8753" stroke-width="1.51"></path><path d="M26,-101L88,-31L176,-81Z" fill="#ff935f" stroke="#ff935f" stroke-width="1.51"></path><path d="M153,199L91,295L163,264Z" fill="#f65d2c" stroke="#f65d2c" stroke-width="1.51"></path><path d="M88,-31L80,109L134,-20Z" fill="#ff7e4b" stroke="#ff7e4b" stroke-width="1.51"></path><path d="M40,153L91,295L153,199Z" fill="#f86735" stroke="#f86735" stroke-width="1.51"></path><path d="M80,109L40,153L153,199Z" fill="#fc6b39" stroke="#fc6b39" stroke-width="1.51"></path><path d="M-37,-17L-51,96L80,109Z" fill="#ff8550" stroke="#ff8550" stroke-width="1.51"></path><path d="M-37,-17L80,109L88,-31Z" fill="#ff8753" stroke="#ff8753" stroke-width="1.51"></path><path d="M40,153L-40,286L91,295Z" fill="#f7713e" stroke="#f7713e" stroke-width="1.51"></path><path d="M26,-101L-37,-17L88,-31Z" fill="#ff9a65" stroke="#ff9a65" stroke-width="1.51"></path><path d="M-51,96L40,153L80,109Z" fill="#fe7946" stroke="#fe7946" stroke-width="1.51"></path><path d="M-64,150L-92,240L-40,286Z" fill="#fa824e" stroke="#fa824e" stroke-width="1.51"></path><path d="M-21,-116L-37,-17L26,-101Z" fill="#ffa571" stroke="#ffa571" stroke-width="1.51"></path><path d="M-64,150L-40,286L40,153Z" fill="#fa7d48" stroke="#fa7d48" stroke-width="1.51"></path><path d="M-51,96L-64,150L40,153Z" fill="#fe814d" stroke="#fe814d" stroke-width="1.51"></path><path d="M-89,158L-92,240L-64,150Z" fill="#fc8753" stroke="#fc8753" stroke-width="1.51"></path><path d="M-93,7L-51,96L-37,-17Z" fill="#ff9661" stroke="#ff9661" stroke-width="1.51"></path><path d="M-99,-61L-37,-17L-21,-116Z" fill="#ffa975" stroke="#ffa975" stroke-width="1.51"></path><path d="M-99,-61L-93,7L-37,-17Z" fill="#ffa470" stroke="#ffa470" stroke-width="1.51"></path><path d="M-89,158L-64,150L-51,96Z" fill="#fe8853" stroke="#fe8853" stroke-width="1.51"></path><path d="M-139,106L-89,158L-51,96Z" fill="#ff8c57" stroke="#ff8c57" stroke-width="1.51"></path><path d="M-93,7L-139,106L-51,96Z" fill="#ff925e" stroke="#ff925e" stroke-width="1.51"></path><path d="M-139,106L-92,240L-89,158Z" fill="#fd8c57" stroke="#fd8c57" stroke-width="1.51"></path><path d="M-99,-61L-139,106L-93,7Z" fill="#ffa06c" stroke="#ffa06c" stroke-width="1.51"></path></svg>