<svg width="300" height="176" xmlns="http://www.w3.org/2000/svg"><path d="M-119,-123L153,-86L241,-89Z" fill="#e0859a" stroke="#e0859a" stroke-width="1.51"></path><path d="M219,279L79,295L363,285Z" fill="#f15625" stroke="#f15625" stroke-width="1.51"></path><path d="M346,182L363,285L401,155Z" fill="#f05424" stroke="#f05424" stroke-width="1.51"></path><path d="M241,-89L342,-81L415,-86Z" fill="#e4777a" stroke="#e4777a" stroke-width="1.51"></path><path d="M-119,-123L241,-89L415,-86Z" fill="#e77e87" stroke="#e77e87" stroke-width="1.51"></path><path d="M415,-86L326,-25L451,21Z" fill="#e96c60" stroke="#e96c60" stroke-width="1.51"></path><path d="M352,79L441,107L451,21Z" fill="#f35c32" stroke="#f35c32" stroke-width="1.51"></path><path d="M441,107L401,155L452,280Z" fill="#ef5323" stroke="#ef5323" stroke-width="1.51"></path><path d="M401,155L363,285L452,280Z" fill="#ed5120" stroke="#ed5120" stroke-width="1.51"></path><path d="M451,21L441,107L452,280Z" fill="#f15525" stroke="#f15525" stroke-width="1.51"></path><path d="M326,-25L352,79L451,21Z" fill="#f06549" stroke="#f06549" stroke-width="1.51"></path><path d="M352,79L401,155L441,107Z" fill="#f45928" stroke="#f45928" stroke-width="1.51"></path><path d="M-119,-123L64,-75L153,-86Z" fill="#d88aaa" stroke="#d88aaa" stroke-width="1.51"></path><path d="M342,-81L326,-25L415,-86Z" fill="#e67370" stroke="#e67370" stroke-width="1.51"></path><path d="M352,79L346,182L401,155Z" fill="#f45828" stroke="#f45828" stroke-width="1.51"></path><path d="M261,172L346,182L352,79Z" fill="#f65a29" stroke="#f65a29" stroke-width="1.51"></path><path d="M346,182L261,172L363,285Z" fill="#f15625" stroke="#f15625" stroke-width="1.51"></path><path d="M261,172L219,279L363,285Z" fill="#f25625" stroke="#f25625" stroke-width="1.51"></path><path d="M207,88L261,172L352,79Z" fill="#f95e2d" stroke="#f95e2d" stroke-width="1.51"></path><path d="M326,-25L226,-10L352,79Z" fill="#f26a50" stroke="#f26a50" stroke-width="1.51"></path><path d="M226,-10L207,88L352,79Z" fill="#f76540" stroke="#f76540" stroke-width="1.51"></path><path d="M241,-89L326,-25L342,-81Z" fill="#e87573" stroke="#e87573" stroke-width="1.51"></path><path d="M241,-89L226,-10L326,-25Z" fill="#ec736a" stroke="#ec736a" stroke-width="1.51"></path><path d="M121,266L79,295L219,279Z" fill="#f45a2c" stroke="#f45a2c" stroke-width="1.51"></path><path d="M182,166L219,279L261,172Z" fill="#f65b2a" stroke="#f65b2a" stroke-width="1.51"></path><path d="M207,88L182,166L261,172Z" fill="#f95f2e" stroke="#f95f2e" stroke-width="1.51"></path><path d="M155,56L207,88L226,-10Z" fill="#f96946" stroke="#f96946" stroke-width="1.51"></path><path d="M153,-86L226,-10L241,-89Z" fill="#ec7875" stroke="#ec7875" stroke-width="1.51"></path><path d="M182,166L121,266L219,279Z" fill="#f65b2a" stroke="#f65b2a" stroke-width="1.51"></path><path d="M129,-10L155,56L226,-10Z" fill="#f66f56" stroke="#f66f56" stroke-width="1.51"></path><path d="M153,-86L129,-10L226,-10Z" fill="#f1766b" stroke="#f1766b" stroke-width="1.51"></path><path d="M155,56L182,166L207,88Z" fill="#fd6231" stroke="#fd6231" stroke-width="1.51"></path><path d="M1,255L-147,243L79,295Z" fill="#e86d63" stroke="#e86d63" stroke-width="1.51"></path><path d="M69,76L89,159L155,56Z" fill="#fc6943" stroke="#fc6943" stroke-width="1.51"></path><path d="M155,56L89,159L182,166Z" fill="#fd6334" stroke="#fd6334" stroke-width="1.51"></path><path d="M89,159L121,266L182,166Z" fill="#f86034" stroke="#f86034" stroke-width="1.51"></path><path d="M64,-75L129,-10L153,-86Z" fill="#eb7d80" stroke="#eb7d80" stroke-width="1.51"></path><path d="M129,-10L69,76L155,56Z" fill="#f86f54" stroke="#f86f54" stroke-width="1.51"></path><path d="M89,159L1,255L121,266Z" fill="#f26547" stroke="#f26547" stroke-width="1.51"></path><path d="M1,255L79,295L121,266Z" fill="#f06346" stroke="#f06346" stroke-width="1.51"></path><path d="M42,20L69,76L129,-10Z" fill="#f37566" stroke="#f37566" stroke-width="1.51"></path><path d="M64,-75L42,20L129,-10Z" fill="#ec7c7d" stroke="#ec7c7d" stroke-width="1.51"></path><path d="M-119,-123L-59,-68L64,-75Z" fill="#ce90be" stroke="#ce90be" stroke-width="1.51"></path><path d="M-61,203L1,255L89,159Z" fill="#ef6d5c" stroke="#ef6d5c" stroke-width="1.51"></path><path d="M69,76L-30,75L89,159Z" fill="#f66f56" stroke="#f66f56" stroke-width="1.51"></path><path d="M-30,75L-61,203L89,159Z" fill="#f17162" stroke="#f17162" stroke-width="1.51"></path><path d="M-43,5L42,20L64,-75Z" fill="#e6818b" stroke="#e6818b" stroke-width="1.51"></path><path d="M-59,-68L-43,5L64,-75Z" fill="#dc88a3" stroke="#dc88a3" stroke-width="1.51"></path><path d="M42,20L-30,75L69,76Z" fill="#f2766a" stroke="#f2766a" stroke-width="1.51"></path><path d="M-43,5L-30,75L42,20Z" fill="#ea7d80" stroke="#ea7d80" stroke-width="1.51"></path><path d="M-61,203L-147,243L1,255Z" fill="#e67373" stroke="#e67373" stroke-width="1.51"></path><path d="M-106,20L-152,120L-30,75Z" fill="#e7808a" stroke="#e7808a" stroke-width="1.51"></path><path d="M-112,196L-61,203L-30,75Z" fill="#e97776" stroke="#e97776" stroke-width="1.51"></path><path d="M-152,120L-112,196L-30,75Z" fill="#e77c81" stroke="#e77c81" stroke-width="1.51"></path><path d="M-43,5L-106,20L-30,75Z" fill="#e4828f" stroke="#e4828f" stroke-width="1.51"></path><path d="M-112,196L-147,243L-61,203Z" fill="#e2787f" stroke="#e2787f" stroke-width="1.51"></path><path d="M-59,-68L-106,20L-43,5Z" fill="#da89a7" stroke="#da89a7" stroke-width="1.51"></path><path d="M-119,-123L-106,20L-59,-68Z" fill="#cb91c2" stroke="#cb91c2" stroke-width="1.51"></path><path d="M-119,-123L-152,120L-106,20Z" fill="#d58cb0" stroke="#d58cb0" stroke-width="1.51"></path><path d="M-152,120L-147,243L-112,196Z" fill="#e07d8a" stroke="#e07d8a" stroke-width="1.51"></path></svg>