<svg width="300" height="176" xmlns="http://www.w3.org/2000/svg"><path d="M-145,-78L50,-95L118,-104Z" fill="#ffa572" stroke="#ffa572" stroke-width="1.51"></path><path d="M211,270L64,300L322,280Z" fill="#f25726" stroke="#f25726" stroke-width="1.51"></path><path d="M118,-104L241,-85L328,-105Z" fill="#ff8e59" stroke="#ff8e59" stroke-width="1.51"></path><path d="M395,-23L354,-8L396,73Z" fill="#f76e3b" stroke="#f76e3b" stroke-width="1.51"></path><path d="M118,-104L328,-105L415,-114Z" fill="#fd8e59" stroke="#fd8e59" stroke-width="1.51"></path><path d="M350,196L396,253L433,158Z" fill="#ef5423" stroke="#ef5423" stroke-width="1.51"></path><path d="M396,73L350,196L433,158Z" fill="#f35726" stroke="#f35726" stroke-width="1.51"></path><path d="M415,-114L395,-23L433,158Z" fill="#f56e3b" stroke="#f56e3b" stroke-width="1.51"></path><path d="M395,-23L396,73L433,158Z" fill="#f55f2d" stroke="#f55f2d" stroke-width="1.51"></path><path d="M333,66L350,196L396,73Z" fill="#f55a29" stroke="#f55a29" stroke-width="1.51"></path><path d="M328,-105L395,-23L415,-114Z" fill="#f9844f" stroke="#f9844f" stroke-width="1.51"></path><path d="M328,-105L354,-8L395,-23Z" fill="#f87d48" stroke="#f87d48" stroke-width="1.51"></path><path d="M354,-8L333,66L396,73Z" fill="#f76735" stroke="#f76735" stroke-width="1.51"></path><path d="M350,196L322,280L396,253Z" fill="#ee5322" stroke="#ee5322" stroke-width="1.51"></path><path d="M241,-85L257,-3L328,-105Z" fill="#fc8550" stroke="#fc8550" stroke-width="1.51"></path><path d="M255,199L322,280L350,196Z" fill="#f15625" stroke="#f15625" stroke-width="1.51"></path><path d="M333,66L263,116L350,196Z" fill="#f75c2b" stroke="#f75c2b" stroke-width="1.51"></path><path d="M263,116L255,199L350,196Z" fill="#f55a29" stroke="#f55a29" stroke-width="1.51"></path><path d="M257,-3L333,66L354,-8Z" fill="#f96f3c" stroke="#f96f3c" stroke-width="1.51"></path><path d="M328,-105L257,-3L354,-8Z" fill="#fa7d49" stroke="#fa7d49" stroke-width="1.51"></path><path d="M257,-3L263,116L333,66Z" fill="#fa6634" stroke="#fa6634" stroke-width="1.51"></path><path d="M255,199L211,270L322,280Z" fill="#f25626" stroke="#f25626" stroke-width="1.51"></path><path d="M241,-85L142,-17L257,-3Z" fill="#fe804c" stroke="#fe804c" stroke-width="1.51"></path><path d="M142,-17L182,115L257,-3Z" fill="#fe713e" stroke="#fe713e" stroke-width="1.51"></path><path d="M172,162L255,199L263,116Z" fill="#f85d2c" stroke="#f85d2c" stroke-width="1.51"></path><path d="M182,115L172,162L263,116Z" fill="#fa5f2f" stroke="#fa5f2f" stroke-width="1.51"></path><path d="M257,-3L182,115L263,116Z" fill="#fc6432" stroke="#fc6432" stroke-width="1.51"></path><path d="M169,238L211,270L255,199Z" fill="#f55928" stroke="#f55928" stroke-width="1.51"></path><path d="M172,162L169,238L255,199Z" fill="#f75c2b" stroke="#f75c2b" stroke-width="1.51"></path><path d="M118,-104L142,-17L241,-85Z" fill="#ff8955" stroke="#ff8955" stroke-width="1.51"></path><path d="M142,-17L91,95L182,115Z" fill="#ff6c3b" stroke="#ff6c3b" stroke-width="1.51"></path><path d="M169,238L64,300L211,270Z" fill="#f55a29" stroke="#f55a29" stroke-width="1.51"></path><path d="M62,168L169,238L172,162Z" fill="#fa6130" stroke="#fa6130" stroke-width="1.51"></path><path d="M91,95L172,162L182,115Z" fill="#fd6332" stroke="#fd6332" stroke-width="1.51"></path><path d="M91,95L62,168L172,162Z" fill="#fc6937" stroke="#fc6937" stroke-width="1.51"></path><path d="M62,168L64,300L169,238Z" fill="#f76633" stroke="#f76633" stroke-width="1.51"></path><path d="M118,-104L77,-23L142,-17Z" fill="#ff8b57" stroke="#ff8b57" stroke-width="1.51"></path><path d="M77,-23L91,95L142,-17Z" fill="#ff7e4a" stroke="#ff7e4a" stroke-width="1.51"></path><path d="M77,-23L-2,12L91,95Z" fill="#ff8450" stroke="#ff8450" stroke-width="1.51"></path><path d="M50,-95L77,-23L118,-104Z" fill="#ff9662" stroke="#ff9662" stroke-width="1.51"></path><path d="M-145,-78L-17,-62L50,-95Z" fill="#ffaa76" stroke="#ffaa76" stroke-width="1.51"></path><path d="M62,168L-2,293L64,300Z" fill="#f76f3c" stroke="#f76f3c" stroke-width="1.51"></path><path d="M-22,120L62,168L91,95Z" fill="#fd7542" stroke="#fd7542" stroke-width="1.51"></path><path d="M-2,12L-22,120L91,95Z" fill="#ff7e4b" stroke="#ff7e4b" stroke-width="1.51"></path><path d="M-63,174L-2,293L62,168Z" fill="#f97844" stroke="#f97844" stroke-width="1.51"></path><path d="M50,-95L-17,-62L77,-23Z" fill="#ff9a66" stroke="#ff9a66" stroke-width="1.51"></path><path d="M-17,-62L-2,12L77,-23Z" fill="#ff9560" stroke="#ff9560" stroke-width="1.51"></path><path d="M-22,120L-63,174L62,168Z" fill="#fd7c49" stroke="#fd7c49" stroke-width="1.51"></path><path d="M-110,120L-22,120L-2,12Z" fill="#ff8753" stroke="#ff8753" stroke-width="1.51"></path><path d="M-118,-9L-110,120L-2,12Z" fill="#ff9661" stroke="#ff9661" stroke-width="1.51"></path><path d="M-17,-62L-118,-9L-2,12Z" fill="#ff9e6a" stroke="#ff9e6a" stroke-width="1.51"></path><path d="M-63,174L-113,256L-2,293Z" fill="#f9804c" stroke="#f9804c" stroke-width="1.51"></path><path d="M-145,-78L-118,-9L-17,-62Z" fill="#ffac78" stroke="#ffac78" stroke-width="1.51"></path><path d="M-110,120L-63,174L-22,120Z" fill="#fe8752" stroke="#fe8752" stroke-width="1.51"></path><path d="M-110,120L-117,165L-63,174Z" fill="#fe8b57" stroke="#fe8b57" stroke-width="1.51"></path><path d="M-117,165L-113,256L-63,174Z" fill="#fc8954" stroke="#fc8954" stroke-width="1.51"></path><path d="M-145,-78L-117,165L-110,120Z" fill="#ff9763" stroke="#ff9763" stroke-width="1.51"></path><path d="M-118,-9L-145,-78L-110,120Z" fill="#ffa370" stroke="#ffa370" stroke-width="1.51"></path><path d="M-117,165L-145,-78L-113,256Z" fill="#ff925d" stroke="#ff925d" stroke-width="1.51"></path></svg>