<svg width="300" height="176" xmlns="http://www.w3.org/2000/svg"><path d="M131,93L74,110L87,176Z" fill="#f96844" stroke="#f96844" stroke-width="1.51"></path><path d="M87,176L174,181L131,93Z" fill="#fa6337" stroke="#fa6337" stroke-width="1.51"></path><path d="M174,181L212,86L131,93Z" fill="#fc6130" stroke="#fc6130" stroke-width="1.51"></path><path d="M174,181L212,191L212,86Z" fill="#fa5f2e" stroke="#fa5f2e" stroke-width="1.51"></path><path d="M177,278L212,191L174,181Z" fill="#f75b2b" stroke="#f75b2b" stroke-width="1.51"></path><path d="M87,176L177,278L174,181Z" fill="#f85e2e" stroke="#f85e2e" stroke-width="1.51"></path><path d="M-27,189L46,260L87,176Z" fill="#f16a54" stroke="#f16a54" stroke-width="1.51"></path><path d="M74,110L-27,189L87,176Z" fill="#f46b53" stroke="#f46b53" stroke-width="1.51"></path><path d="M46,260L177,278L87,176Z" fill="#f3613c" stroke="#f3613c" stroke-width="1.51"></path><path d="M74,110L-36,56L-27,189Z" fill="#f27262" stroke="#f27262" stroke-width="1.51"></path><path d="M131,93L35,0L74,110Z" fill="#f86f55" stroke="#f86f55" stroke-width="1.51"></path><path d="M183,-7L35,0L131,93Z" fill="#f6715a" stroke="#f6715a" stroke-width="1.51"></path><path d="M212,86L183,-7L131,93Z" fill="#fb6841" stroke="#fb6841" stroke-width="1.51"></path><path d="M-27,189L-20,236L46,260Z" fill="#ec6d5e" stroke="#ec6d5e" stroke-width="1.51"></path><path d="M35,0L-36,56L74,110Z" fill="#f2766b" stroke="#f2766b" stroke-width="1.51"></path><path d="M35,0L-9,-1L-36,56Z" fill="#e97f84" stroke="#e97f84" stroke-width="1.51"></path><path d="M-53,-90L-9,-1L35,0Z" fill="#e0869b" stroke="#e0869b" stroke-width="1.51"></path><path d="M212,86L207,-24L183,-7Z" fill="#f66d52" stroke="#f66d52" stroke-width="1.51"></path><path d="M183,-7L89,-61L35,0Z" fill="#ee7a75" stroke="#ee7a75" stroke-width="1.51"></path><path d="M138,-125L89,-61L183,-7Z" fill="#ec7c7d" stroke="#ec7c7d" stroke-width="1.51"></path><path d="M212,191L311,109L212,86Z" fill="#f95e2d" stroke="#f95e2d" stroke-width="1.51"></path><path d="M212,86L356,-11L207,-24Z" fill="#f46a50" stroke="#f46a50" stroke-width="1.51"></path><path d="M177,278L250,282L212,191Z" fill="#f45828" stroke="#f45828" stroke-width="1.51"></path><path d="M323,197L311,109L212,191Z" fill="#f65a29" stroke="#f65a29" stroke-width="1.51"></path><path d="M-27,189L-96,194L-20,236Z" fill="#e9726d" stroke="#e9726d" stroke-width="1.51"></path><path d="M-129,84L-96,194L-27,189Z" fill="#e8797b" stroke="#e8797b" stroke-width="1.51"></path><path d="M250,282L323,197L212,191Z" fill="#f35827" stroke="#f35827" stroke-width="1.51"></path><path d="M-36,56L-129,84L-27,189Z" fill="#ec7a78" stroke="#ec7a78" stroke-width="1.51"></path><path d="M-99,-9L-129,84L-36,56Z" fill="#e38494" stroke="#e38494" stroke-width="1.51"></path><path d="M-9,-1L-99,-9L-36,56Z" fill="#e38394" stroke="#e38394" stroke-width="1.51"></path><path d="M-53,-90L-99,-9L-9,-1Z" fill="#d88aaa" stroke="#d88aaa" stroke-width="1.51"></path><path d="M89,-61L-53,-90L35,0Z" fill="#e0869a" stroke="#e0869a" stroke-width="1.51"></path><path d="M207,-24L138,-125L183,-7Z" fill="#ee7872" stroke="#ee7872" stroke-width="1.51"></path><path d="M231,-125L138,-125L207,-24Z" fill="#e87d83" stroke="#e87d83" stroke-width="1.51"></path><path d="M250,282L333,300L323,197Z" fill="#f05424" stroke="#f05424" stroke-width="1.51"></path><path d="M177,278L333,300L250,282Z" fill="#f05524" stroke="#f05524" stroke-width="1.51"></path><path d="M-139,251L333,300L177,278Z" fill="#f35c32" stroke="#f35c32" stroke-width="1.51"></path><path d="M46,260L-139,251L177,278Z" fill="#ed6853" stroke="#ed6853" stroke-width="1.51"></path><path d="M-20,236L-139,251L46,260Z" fill="#e86f68" stroke="#e86f68" stroke-width="1.51"></path><path d="M-96,194L-139,251L-20,236Z" fill="#e47578" stroke="#e47578" stroke-width="1.51"></path><path d="M-129,84L-139,251L-96,194Z" fill="#e27c86" stroke="#e27c86" stroke-width="1.51"></path><path d="M138,-125L-53,-90L89,-61Z" fill="#dd87a1" stroke="#dd87a1" stroke-width="1.51"></path><path d="M430,246L393,163L323,197Z" fill="#f05423" stroke="#f05423" stroke-width="1.51"></path><path d="M323,197L393,163L311,109Z" fill="#f45828" stroke="#f45828" stroke-width="1.51"></path><path d="M311,109L356,-11L212,86Z" fill="#f7623b" stroke="#f7623b" stroke-width="1.51"></path><path d="M395,86L356,-11L311,109Z" fill="#f56039" stroke="#f56039" stroke-width="1.51"></path><path d="M393,163L395,86L311,109Z" fill="#f55929" stroke="#f55929" stroke-width="1.51"></path><path d="M335,-76L231,-125L207,-24Z" fill="#e87879" stroke="#e87879" stroke-width="1.51"></path><path d="M356,-11L335,-76L207,-24Z" fill="#ec7167" stroke="#ec7167" stroke-width="1.51"></path><path d="M387,-83L335,-76L356,-11Z" fill="#e7716d" stroke="#e7716d" stroke-width="1.51"></path><path d="M395,86L400,9L356,-11Z" fill="#f06447" stroke="#f06447" stroke-width="1.51"></path><path d="M430,246L400,9L395,86Z" fill="#f45827" stroke="#f45827" stroke-width="1.51"></path><path d="M-53,-90L-120,-103L-99,-9Z" fill="#c992c5" stroke="#c992c5" stroke-width="1.51"></path><path d="M-99,-9L-120,-103L-129,84Z" fill="#d48db4" stroke="#d48db4" stroke-width="1.51"></path><path d="M-129,84L-120,-103L-139,251Z" fill="#e48292" stroke="#e48292" stroke-width="1.51"></path><path d="M138,-125L-120,-103L-53,-90Z" fill="#ce90be" stroke="#ce90be" stroke-width="1.51"></path><path d="M393,163L430,246L395,86Z" fill="#f15524" stroke="#f15524" stroke-width="1.51"></path><path d="M333,300L430,246L323,197Z" fill="#ed5322" stroke="#ed5322" stroke-width="1.51"></path><path d="M400,9L387,-83L356,-11Z" fill="#ea6d60" stroke="#ea6d60" stroke-width="1.51"></path><path d="M335,-76L387,-83L231,-125Z" fill="#e3787f" stroke="#e3787f" stroke-width="1.51"></path></svg>