<svg width="300" height="176" xmlns="http://www.w3.org/2000/svg"><path d="M117,96L48,104L74,201Z" fill="#ee6e5e" stroke="#ee6e5e" stroke-width="1.51"></path><path d="M48,104L-11,115L74,201Z" fill="#e47679" stroke="#e47679" stroke-width="1.51"></path><path d="M74,201L171,211L117,96Z" fill="#f05f3d" stroke="#f05f3d" stroke-width="1.51"></path><path d="M74,201L170,300L171,211Z" fill="#f15a30" stroke="#f15a30" stroke-width="1.51"></path><path d="M-16,257L31,272L74,201Z" fill="#de7378" stroke="#de7378" stroke-width="1.51"></path><path d="M117,96L36,10L48,104Z" fill="#ea7d81" stroke="#ea7d81" stroke-width="1.51"></path><path d="M48,104L36,10L-11,115Z" fill="#e28496" stroke="#e28496" stroke-width="1.51"></path><path d="M-59,205L-16,257L74,201Z" fill="#d6798c" stroke="#d6798c" stroke-width="1.51"></path><path d="M-145,95L-59,205L-11,115Z" fill="#db7e91" stroke="#db7e91" stroke-width="1.51"></path><path d="M-11,115L-59,205L74,201Z" fill="#d7798b" stroke="#d7798b" stroke-width="1.51"></path><path d="M256,101L160,-11L117,96Z" fill="#f66c50" stroke="#f66c50" stroke-width="1.51"></path><path d="M117,96L160,-11L36,10Z" fill="#e38393" stroke="#e38393" stroke-width="1.51"></path><path d="M171,211L256,101L117,96Z" fill="#f65b2a" stroke="#f65b2a" stroke-width="1.51"></path><path d="M171,211L259,180L256,101Z" fill="#ee5322" stroke="#ee5322" stroke-width="1.51"></path><path d="M242,239L259,180L171,211Z" fill="#ed5120" stroke="#ed5120" stroke-width="1.51"></path><path d="M31,272L170,300L74,201Z" fill="#ea6550" stroke="#ea6550" stroke-width="1.51"></path><path d="M170,300L242,239L171,211Z" fill="#ef5323" stroke="#ef5323" stroke-width="1.51"></path><path d="M78,-85L-22,-8L36,10Z" fill="#ae9ce8" stroke="#ae9ce8" stroke-width="1.51"></path><path d="M36,10L-22,-8L-11,115Z" fill="#c395cf" stroke="#c395cf" stroke-width="1.51"></path><path d="M256,101L242,-23L160,-11Z" fill="#e57779" stroke="#e57779" stroke-width="1.51"></path><path d="M160,-11L78,-85L36,10Z" fill="#cd90bf" stroke="#cd90bf" stroke-width="1.51"></path><path d="M131,-91L78,-85L160,-11Z" fill="#d98aaa" stroke="#d98aaa" stroke-width="1.51"></path><path d="M-22,-8L-145,95L-11,115Z" fill="#d68caf" stroke="#d68caf" stroke-width="1.51"></path><path d="M206,-106L131,-91L160,-11Z" fill="#e08397" stroke="#e08397" stroke-width="1.51"></path><path d="M321,256L259,180L242,239Z" fill="#e84d1c" stroke="#e84d1c" stroke-width="1.51"></path><path d="M321,256L328,178L259,180Z" fill="#e64a19" stroke="#e64a19" stroke-width="1.51"></path><path d="M259,180L328,178L256,101Z" fill="#eb4f1f" stroke="#eb4f1f" stroke-width="1.51"></path><path d="M256,101L335,-18L242,-23Z" fill="#e17478" stroke="#e17478" stroke-width="1.51"></path><path d="M-59,205L-142,248L-16,257Z" fill="#d6798c" stroke="#d6798c" stroke-width="1.51"></path><path d="M-145,95L-154,199L-59,205Z" fill="#d87a8d" stroke="#d87a8d" stroke-width="1.51"></path><path d="M-154,199L-142,248L-59,205Z" fill="#d6798c" stroke="#d6798c" stroke-width="1.51"></path><path d="M-16,257L-142,248L31,272Z" fill="#d6798c" stroke="#d6798c" stroke-width="1.51"></path><path d="M31,272L-142,248L170,300Z" fill="#dc747f" stroke="#dc747f" stroke-width="1.51"></path><path d="M-58,-75L-95,-29L-22,-8Z" fill="#99a2fd" stroke="#99a2fd" stroke-width="1.51"></path><path d="M-22,-8L-95,-29L-145,95Z" fill="#b09ce6" stroke="#b09ce6" stroke-width="1.51"></path><path d="M170,300L321,256L242,239Z" fill="#eb4f1e" stroke="#eb4f1e" stroke-width="1.51"></path><path d="M-145,-77L-58,-75L78,-85Z" fill="#99a2fd" stroke="#99a2fd" stroke-width="1.51"></path><path d="M78,-85L-58,-75L-22,-8Z" fill="#99a2fd" stroke="#99a2fd" stroke-width="1.51"></path><path d="M441,86L355,72L446,159Z" fill="#f05524" stroke="#f05524" stroke-width="1.51"></path><path d="M328,178L355,72L256,101Z" fill="#ef5322" stroke="#ef5322" stroke-width="1.51"></path><path d="M131,-91L206,-106L78,-85Z" fill="#de87a0" stroke="#de87a0" stroke-width="1.51"></path><path d="M242,-23L206,-106L160,-11Z" fill="#dd8094" stroke="#dd8094" stroke-width="1.51"></path><path d="M349,-86L206,-106L242,-23Z" fill="#d97b8e" stroke="#d97b8e" stroke-width="1.51"></path><path d="M355,72L335,-18L256,101Z" fill="#ea6653" stroke="#ea6653" stroke-width="1.51"></path><path d="M-58,-75L-145,-77L-95,-29Z" fill="#99a2fd" stroke="#99a2fd" stroke-width="1.51"></path><path d="M-95,-29L-145,-77L-145,95Z" fill="#99a2fd" stroke="#99a2fd" stroke-width="1.51"></path><path d="M-145,95L-145,-77L-154,199Z" fill="#d98aaa" stroke="#d98aaa" stroke-width="1.51"></path><path d="M206,-106L-145,-77L78,-85Z" fill="#b799dd" stroke="#b799dd" stroke-width="1.51"></path><path d="M321,256L405,280L328,178Z" fill="#e64a19" stroke="#e64a19" stroke-width="1.51"></path><path d="M398,-98L349,-86L335,-18Z" fill="#d6798c" stroke="#d6798c" stroke-width="1.51"></path><path d="M170,300L405,280L321,256Z" fill="#e64a19" stroke="#e64a19" stroke-width="1.51"></path><path d="M450,-11L335,-18L355,72Z" fill="#dd747c" stroke="#dd747c" stroke-width="1.51"></path><path d="M335,-18L349,-86L242,-23Z" fill="#d6798c" stroke="#d6798c" stroke-width="1.51"></path><path d="M446,159L355,72L328,178Z" fill="#ec501f" stroke="#ec501f" stroke-width="1.51"></path><path d="M405,280L446,159L328,178Z" fill="#e64a19" stroke="#e64a19" stroke-width="1.51"></path><path d="M450,-11L398,-98L335,-18Z" fill="#d6798c" stroke="#d6798c" stroke-width="1.51"></path><path d="M349,-86L398,-98L206,-106Z" fill="#d6798c" stroke="#d6798c" stroke-width="1.51"></path><path d="M441,86L450,-11L355,72Z" fill="#e96756" stroke="#e96756" stroke-width="1.51"></path><path d="M446,159L450,-11L441,86Z" fill="#f05b34" stroke="#f05b34" stroke-width="1.51"></path></svg>