<svg width="300" height="176" xmlns="http://www.w3.org/2000/svg"><path d="M-112,-69L-14,-96L44,-119Z" fill="#ce90bd" stroke="#ce90bd" stroke-width="1.51"></path><path d="M44,-119L146,-79L224,-72Z" fill="#e88087" stroke="#e88087" stroke-width="1.51"></path><path d="M44,-119L224,-72L341,-83Z" fill="#e77c82" stroke="#e77c82" stroke-width="1.51"></path><path d="M162,264L91,273L417,289Z" fill="#f25626" stroke="#f25626" stroke-width="1.51"></path><path d="M91,273L-52,297L417,289Z" fill="#f45928" stroke="#f45928" stroke-width="1.51"></path><path d="M317,236L220,248L417,289Z" fill="#ef5423" stroke="#ef5423" stroke-width="1.51"></path><path d="M220,248L162,264L417,289Z" fill="#f15525" stroke="#f15525" stroke-width="1.51"></path><path d="M361,180L317,236L417,289Z" fill="#ee5322" stroke="#ee5322" stroke-width="1.51"></path><path d="M44,-119L341,-83L430,-114Z" fill="#e27c85" stroke="#e27c85" stroke-width="1.51"></path><path d="M361,180L417,289L440,203Z" fill="#ee5221" stroke="#ee5221" stroke-width="1.51"></path><path d="M388,55L361,180L440,203Z" fill="#f25726" stroke="#f25726" stroke-width="1.51"></path><path d="M312,-27L388,55L441,-9Z" fill="#ee6751" stroke="#ee6751" stroke-width="1.51"></path><path d="M341,-83L312,-27L441,-9Z" fill="#e96f66" stroke="#e96f66" stroke-width="1.51"></path><path d="M430,-114L341,-83L441,-9Z" fill="#e47170" stroke="#e47170" stroke-width="1.51"></path><path d="M388,55L440,203L441,-9Z" fill="#f45a2b" stroke="#f45a2b" stroke-width="1.51"></path><path d="M303,64L361,180L388,55Z" fill="#f75c2b" stroke="#f75c2b" stroke-width="1.51"></path><path d="M312,-27L303,64L388,55Z" fill="#f26548" stroke="#f26548" stroke-width="1.51"></path><path d="M258,184L317,236L361,180Z" fill="#f25726" stroke="#f25726" stroke-width="1.51"></path><path d="M303,64L258,184L361,180Z" fill="#f65b2a" stroke="#f65b2a" stroke-width="1.51"></path><path d="M242,79L258,184L303,64Z" fill="#fa5e2e" stroke="#fa5e2e" stroke-width="1.51"></path><path d="M270,-16L303,64L312,-27Z" fill="#f26b54" stroke="#f26b54" stroke-width="1.51"></path><path d="M224,-72L312,-27L341,-83Z" fill="#e97472" stroke="#e97472" stroke-width="1.51"></path><path d="M224,-72L270,-16L312,-27Z" fill="#ed7269" stroke="#ed7269" stroke-width="1.51"></path><path d="M258,184L220,248L317,236Z" fill="#f35827" stroke="#f35827" stroke-width="1.51"></path><path d="M270,-16L242,79L303,64Z" fill="#f66645" stroke="#f66645" stroke-width="1.51"></path><path d="M242,79L177,190L258,184Z" fill="#f85e2d" stroke="#f85e2d" stroke-width="1.51"></path><path d="M224,-72L120,-27L270,-16Z" fill="#ef756b" stroke="#ef756b" stroke-width="1.51"></path><path d="M144,77L242,79L270,-16Z" fill="#f96845" stroke="#f96845" stroke-width="1.51"></path><path d="M120,-27L144,77L270,-16Z" fill="#f66f56" stroke="#f66f56" stroke-width="1.51"></path><path d="M144,77L177,190L242,79Z" fill="#fc6130" stroke="#fc6130" stroke-width="1.51"></path><path d="M177,190L220,248L258,184Z" fill="#f65a2a" stroke="#f65a2a" stroke-width="1.51"></path><path d="M177,190L162,264L220,248Z" fill="#f65a2a" stroke="#f65a2a" stroke-width="1.51"></path><path d="M146,-79L120,-27L224,-72Z" fill="#ee7a76" stroke="#ee7a76" stroke-width="1.51"></path><path d="M120,-27L92,11L144,77Z" fill="#f6725d" stroke="#f6725d" stroke-width="1.51"></path><path d="M144,77L89,79L177,190Z" fill="#fd6437" stroke="#fd6437" stroke-width="1.51"></path><path d="M89,79L54,191L177,190Z" fill="#f9663f" stroke="#f9663f" stroke-width="1.51"></path><path d="M91,273L162,264L177,190Z" fill="#f65c2d" stroke="#f65c2d" stroke-width="1.51"></path><path d="M54,191L91,273L177,190Z" fill="#f5613b" stroke="#f5613b" stroke-width="1.51"></path><path d="M92,11L89,79L144,77Z" fill="#f96e51" stroke="#f96e51" stroke-width="1.51"></path><path d="M44,-119L120,-27L146,-79Z" fill="#e6818c" stroke="#e6818c" stroke-width="1.51"></path><path d="M44,-119L92,11L120,-27Z" fill="#e97e84" stroke="#e97e84" stroke-width="1.51"></path><path d="M-13,147L54,191L89,79Z" fill="#f46d54" stroke="#f46d54" stroke-width="1.51"></path><path d="M-20,73L-13,147L89,79Z" fill="#f5725e" stroke="#f5725e" stroke-width="1.51"></path><path d="M54,191L-52,297L91,273Z" fill="#ee6852" stroke="#ee6852" stroke-width="1.51"></path><path d="M-14,-96L-63,18L92,11Z" fill="#e38393" stroke="#e38393" stroke-width="1.51"></path><path d="M-63,18L-20,73L92,11Z" fill="#ec7c7c" stroke="#ec7c7c" stroke-width="1.51"></path><path d="M44,-119L-14,-96L92,11Z" fill="#df869c" stroke="#df869c" stroke-width="1.51"></path><path d="M-20,73L89,79L92,11Z" fill="#f47463" stroke="#f47463" stroke-width="1.51"></path><path d="M-13,147L-52,297L54,191Z" fill="#ed6e5f" stroke="#ed6e5f" stroke-width="1.51"></path><path d="M-109,169L-87,294L-52,297Z" fill="#e37476" stroke="#e37476" stroke-width="1.51"></path><path d="M-112,-69L-63,18L-14,-96Z" fill="#d38db4" stroke="#d38db4" stroke-width="1.51"></path><path d="M-20,73L-121,108L-13,147Z" fill="#ee7974" stroke="#ee7974" stroke-width="1.51"></path><path d="M-121,108L-109,169L-13,147Z" fill="#e97a7b" stroke="#e97a7b" stroke-width="1.51"></path><path d="M-109,169L-52,297L-13,147Z" fill="#e87471" stroke="#e87471" stroke-width="1.51"></path><path d="M-63,18L-121,108L-20,73Z" fill="#e97e83" stroke="#e97e83" stroke-width="1.51"></path><path d="M-109,169L-121,108L-87,294Z" fill="#e47980" stroke="#e47980" stroke-width="1.51"></path><path d="M-112,-69L-118,23L-63,18Z" fill="#d78cae" stroke="#d78cae" stroke-width="1.51"></path><path d="M-118,23L-121,108L-63,18Z" fill="#e28495" stroke="#e28495" stroke-width="1.51"></path></svg>