<svg width="300" height="176" xmlns="http://www.w3.org/2000/svg"><path d="M146,75L139,149L229,85Z" fill="#fb602f" stroke="#fb602f" stroke-width="1.51"></path><path d="M139,149L237,186L229,85Z" fill="#f35827" stroke="#f35827" stroke-width="1.51"></path><path d="M139,149L167,270L237,186Z" fill="#f05524" stroke="#f05524" stroke-width="1.51"></path><path d="M50,59L89,204L139,149Z" fill="#ef6a55" stroke="#ef6a55" stroke-width="1.51"></path><path d="M229,85L222,-19L146,75Z" fill="#f07060" stroke="#f07060" stroke-width="1.51"></path><path d="M330,24L222,-19L229,85Z" fill="#e6716e" stroke="#e6716e" stroke-width="1.51"></path><path d="M222,-19L134,-16L146,75Z" fill="#e67e88" stroke="#e67e88" stroke-width="1.51"></path><path d="M146,75L50,59L139,149Z" fill="#f96c4e" stroke="#f96c4e" stroke-width="1.51"></path><path d="M134,-16L50,59L146,75Z" fill="#e87f86" stroke="#e87f86" stroke-width="1.51"></path><path d="M237,186L324,173L229,85Z" fill="#ed5121" stroke="#ed5121" stroke-width="1.51"></path><path d="M89,204L167,270L139,149Z" fill="#f05c35" stroke="#f05c35" stroke-width="1.51"></path><path d="M237,186L341,298L324,173Z" fill="#e64a19" stroke="#e64a19" stroke-width="1.51"></path><path d="M324,173L345,115L229,85Z" fill="#ee5221" stroke="#ee5221" stroke-width="1.51"></path><path d="M167,270L216,275L237,186Z" fill="#ee5222" stroke="#ee5222" stroke-width="1.51"></path><path d="M345,115L330,24L229,85Z" fill="#ef5d38" stroke="#ef5d38" stroke-width="1.51"></path><path d="M89,204L58,245L167,270Z" fill="#ec6247" stroke="#ec6247" stroke-width="1.51"></path><path d="M-60,146L58,245L89,204Z" fill="#de7379" stroke="#de7379" stroke-width="1.51"></path><path d="M50,59L-60,146L89,204Z" fill="#e27980" stroke="#e27980" stroke-width="1.51"></path><path d="M134,-16L44,-25L50,59Z" fill="#cb91c3" stroke="#cb91c3" stroke-width="1.51"></path><path d="M92,-87L44,-25L134,-16Z" fill="#cc91c0" stroke="#cc91c0" stroke-width="1.51"></path><path d="M44,-25L-4,13L50,59Z" fill="#bd97d6" stroke="#bd97d6" stroke-width="1.51"></path><path d="M119,-106L92,-87L134,-16Z" fill="#d68caf" stroke="#d68caf" stroke-width="1.51"></path><path d="M44,-25L-60,-82L-4,13Z" fill="#99a2fd" stroke="#99a2fd" stroke-width="1.51"></path><path d="M119,-106L134,-16L222,-19Z" fill="#e18498" stroke="#e18498" stroke-width="1.51"></path><path d="M399,211L401,63L345,115Z" fill="#ed5120" stroke="#ed5120" stroke-width="1.51"></path><path d="M345,115L401,63L330,24Z" fill="#ee6041" stroke="#ee6041" stroke-width="1.51"></path><path d="M268,-101L222,-19L330,24Z" fill="#d87b8e" stroke="#d87b8e" stroke-width="1.51"></path><path d="M268,-101L119,-106L222,-19Z" fill="#dd8094" stroke="#dd8094" stroke-width="1.51"></path><path d="M358,-69L268,-101L330,24Z" fill="#d6798c" stroke="#d6798c" stroke-width="1.51"></path><path d="M-4,13L-43,59L50,59Z" fill="#c694ca" stroke="#c694ca" stroke-width="1.51"></path><path d="M324,173L399,211L345,115Z" fill="#e74c1b" stroke="#e74c1b" stroke-width="1.51"></path><path d="M341,298L399,211L324,173Z" fill="#e64a19" stroke="#e64a19" stroke-width="1.51"></path><path d="M167,270L341,298L216,275Z" fill="#eb4f1f" stroke="#eb4f1f" stroke-width="1.51"></path><path d="M216,275L341,298L237,186Z" fill="#e94d1c" stroke="#e94d1c" stroke-width="1.51"></path><path d="M-43,59L-60,146L50,59Z" fill="#e18598" stroke="#e18598" stroke-width="1.51"></path><path d="M390,-75L358,-69L443,2Z" fill="#d6798c" stroke="#d6798c" stroke-width="1.51"></path><path d="M-60,146L-25,267L58,245Z" fill="#d6798c" stroke="#d6798c" stroke-width="1.51"></path><path d="M58,245L-25,267L167,270Z" fill="#e66b61" stroke="#e66b61" stroke-width="1.51"></path><path d="M167,270L-25,267L341,298Z" fill="#f25625" stroke="#f25625" stroke-width="1.51"></path><path d="M443,2L358,-69L330,24Z" fill="#d6798c" stroke="#d6798c" stroke-width="1.51"></path><path d="M358,-69L390,-75L268,-101Z" fill="#d6798c" stroke="#d6798c" stroke-width="1.51"></path><path d="M401,63L443,2L330,24Z" fill="#e36e6b" stroke="#e36e6b" stroke-width="1.51"></path><path d="M440,238L443,2L401,63Z" fill="#f15524" stroke="#f15524" stroke-width="1.51"></path><path d="M399,211L440,238L401,63Z" fill="#e74b1a" stroke="#e74b1a" stroke-width="1.51"></path><path d="M341,298L440,238L399,211Z" fill="#e64a19" stroke="#e64a19" stroke-width="1.51"></path><path d="M-60,146L-117,152L-25,267Z" fill="#d6798c" stroke="#d6798c" stroke-width="1.51"></path><path d="M-137,109L-117,152L-60,146Z" fill="#db7e91" stroke="#db7e91" stroke-width="1.51"></path><path d="M-43,59L-137,109L-60,146Z" fill="#df8296" stroke="#df8296" stroke-width="1.51"></path><path d="M-4,13L-144,-17L-43,59Z" fill="#af9ce7" stroke="#af9ce7" stroke-width="1.51"></path><path d="M92,-87L-60,-82L44,-25Z" fill="#ab9deb" stroke="#ab9deb" stroke-width="1.51"></path><path d="M119,-106L-60,-82L92,-87Z" fill="#ba98db" stroke="#ba98db" stroke-width="1.51"></path><path d="M-144,-17L-137,109L-43,59Z" fill="#cb91c3" stroke="#cb91c3" stroke-width="1.51"></path><path d="M-60,-82L-111,-69L-4,13Z" fill="#99a2fd" stroke="#99a2fd" stroke-width="1.51"></path><path d="M-111,-69L-144,-17L-4,13Z" fill="#99a2fd" stroke="#99a2fd" stroke-width="1.51"></path><path d="M-117,152L-144,266L-25,267Z" fill="#d6798c" stroke="#d6798c" stroke-width="1.51"></path><path d="M-25,267L-144,266L341,298Z" fill="#e46d67" stroke="#e46d67" stroke-width="1.51"></path><path d="M-137,109L-144,266L-117,152Z" fill="#d6798c" stroke="#d6798c" stroke-width="1.51"></path><path d="M-144,-17L-144,266L-137,109Z" fill="#dd8094" stroke="#dd8094" stroke-width="1.51"></path></svg>