<svg width="300" height="176" xmlns="http://www.w3.org/2000/svg"><path d="M163,58L166,23L80,64Z" fill="#fa6c4b" stroke="#fa6c4b" stroke-width="1.51"></path><path d="M166,23L87,-26L80,64Z" fill="#f57360" stroke="#f57360" stroke-width="1.51"></path><path d="M80,64L155,148L163,58Z" fill="#fe6639" stroke="#fe6639" stroke-width="1.51"></path><path d="M166,23L158,-83L87,-26Z" fill="#f1776d" stroke="#f1776d" stroke-width="1.51"></path><path d="M166,23L249,-21L158,-83Z" fill="#f17467" stroke="#f17467" stroke-width="1.51"></path><path d="M163,58L249,-21L166,23Z" fill="#f76d52" stroke="#f76d52" stroke-width="1.51"></path><path d="M249,117L249,-21L163,58Z" fill="#f96742" stroke="#f96742" stroke-width="1.51"></path><path d="M158,-83L71,-100L87,-26Z" fill="#e78089" stroke="#e78089" stroke-width="1.51"></path><path d="M-53,22L-37,85L80,64Z" fill="#ef7974" stroke="#ef7974" stroke-width="1.51"></path><path d="M155,148L249,117L163,58Z" fill="#fc6231" stroke="#fc6231" stroke-width="1.51"></path><path d="M80,64L66,202L155,148Z" fill="#f96742" stroke="#f96742" stroke-width="1.51"></path><path d="M-53,22L80,64L87,-26Z" fill="#ee7a77" stroke="#ee7a77" stroke-width="1.51"></path><path d="M-38,-67L-53,22L87,-26Z" fill="#e28496" stroke="#e28496" stroke-width="1.51"></path><path d="M155,148L250,178L249,117Z" fill="#f95d2d" stroke="#f95d2d" stroke-width="1.51"></path><path d="M-37,85L66,202L80,64Z" fill="#f56f58" stroke="#f56f58" stroke-width="1.51"></path><path d="M71,-100L-38,-67L87,-26Z" fill="#e0859b" stroke="#e0859b" stroke-width="1.51"></path><path d="M301,-72L253,-122L249,-21Z" fill="#e87777" stroke="#e87777" stroke-width="1.51"></path><path d="M235,287L250,178L155,148Z" fill="#f65b2a" stroke="#f65b2a" stroke-width="1.51"></path><path d="M249,-21L253,-122L158,-83Z" fill="#e9797a" stroke="#e9797a" stroke-width="1.51"></path><path d="M158,-83L253,-122L71,-100Z" fill="#e77f88" stroke="#e77f88" stroke-width="1.51"></path><path d="M301,-72L249,-21L340,9Z" fill="#ed7063" stroke="#ed7063" stroke-width="1.51"></path><path d="M331,79L249,-21L249,117Z" fill="#f7643d" stroke="#f7643d" stroke-width="1.51"></path><path d="M302,182L331,79L249,117Z" fill="#f85c2b" stroke="#f85c2b" stroke-width="1.51"></path><path d="M-37,85L-26,198L66,202Z" fill="#f07061" stroke="#f07061" stroke-width="1.51"></path><path d="M-148,176L-26,198L-37,85Z" fill="#e97877" stroke="#e97877" stroke-width="1.51"></path><path d="M331,79L340,9L249,-21Z" fill="#f3684c" stroke="#f3684c" stroke-width="1.51"></path><path d="M66,202L72,255L155,148Z" fill="#f5643f" stroke="#f5643f" stroke-width="1.51"></path><path d="M-26,198L72,255L66,202Z" fill="#f06952" stroke="#f06952" stroke-width="1.51"></path><path d="M235,287L302,182L250,178Z" fill="#f45828" stroke="#f45828" stroke-width="1.51"></path><path d="M250,178L302,182L249,117Z" fill="#f75b2a" stroke="#f75b2a" stroke-width="1.51"></path><path d="M-53,22L-130,90L-37,85Z" fill="#e97f86" stroke="#e97f86" stroke-width="1.51"></path><path d="M-38,-67L-120,-23L-53,22Z" fill="#d88bab" stroke="#d88bab" stroke-width="1.51"></path><path d="M-120,-23L-130,90L-53,22Z" fill="#de869e" stroke="#de869e" stroke-width="1.51"></path><path d="M71,-100L-115,-73L-38,-67Z" fill="#d18eb7" stroke="#d18eb7" stroke-width="1.51"></path><path d="M-38,-67L-115,-73L-120,-23Z" fill="#cc91bf" stroke="#cc91bf" stroke-width="1.51"></path><path d="M72,255L119,298L155,148Z" fill="#f56038" stroke="#f56038" stroke-width="1.51"></path><path d="M-30,282L119,298L72,255Z" fill="#ee644a" stroke="#ee644a" stroke-width="1.51"></path><path d="M119,298L235,287L155,148Z" fill="#f65a29" stroke="#f65a29" stroke-width="1.51"></path><path d="M-26,198L-30,282L72,255Z" fill="#ec6b5b" stroke="#ec6b5b" stroke-width="1.51"></path><path d="M-117,250L-30,282L-26,198Z" fill="#e6726e" stroke="#e6726e" stroke-width="1.51"></path><path d="M-130,90L-148,176L-37,85Z" fill="#e77d84" stroke="#e77d84" stroke-width="1.51"></path><path d="M-120,-23L-148,176L-130,90Z" fill="#e48291" stroke="#e48291" stroke-width="1.51"></path><path d="M-115,-73L-148,176L-120,-23Z" fill="#da89a8" stroke="#da89a8" stroke-width="1.51"></path><path d="M302,182L392,207L331,79Z" fill="#f45828" stroke="#f45828" stroke-width="1.51"></path><path d="M433,-12L389,-110L340,9Z" fill="#e86e64" stroke="#e86e64" stroke-width="1.51"></path><path d="M235,287L347,241L302,182Z" fill="#f15625" stroke="#f15625" stroke-width="1.51"></path><path d="M340,9L389,-110L301,-72Z" fill="#e7726e" stroke="#e7726e" stroke-width="1.51"></path><path d="M301,-72L389,-110L253,-122Z" fill="#e27a82" stroke="#e27a82" stroke-width="1.51"></path><path d="M433,-12L340,9L441,93Z" fill="#ef6345" stroke="#ef6345" stroke-width="1.51"></path><path d="M441,93L340,9L331,79Z" fill="#f46038" stroke="#f46038" stroke-width="1.51"></path><path d="M-148,176L-117,250L-26,198Z" fill="#e4787d" stroke="#e4787d" stroke-width="1.51"></path><path d="M347,241L392,207L302,182Z" fill="#f05524" stroke="#f05524" stroke-width="1.51"></path><path d="M392,207L441,93L331,79Z" fill="#f45828" stroke="#f45828" stroke-width="1.51"></path><path d="M392,207L441,238L441,93Z" fill="#ef5423" stroke="#ef5423" stroke-width="1.51"></path><path d="M347,241L441,238L392,207Z" fill="#ee5221" stroke="#ee5221" stroke-width="1.51"></path><path d="M235,287L441,238L347,241Z" fill="#ee5322" stroke="#ee5322" stroke-width="1.51"></path></svg>