<svg width="300" height="176" xmlns="http://www.w3.org/2000/svg"><path d="M121,115L77,99L60,163Z" fill="#f86947" stroke="#f86947" stroke-width="1.51"></path><path d="M60,163L129,173L121,115Z" fill="#f86640" stroke="#f86640" stroke-width="1.51"></path><path d="M60,163L84,280L129,173Z" fill="#f46442" stroke="#f46442" stroke-width="1.51"></path><path d="M77,99L-33,165L60,163Z" fill="#f46e57" stroke="#f46e57" stroke-width="1.51"></path><path d="M129,173L219,179L121,115Z" fill="#fb602f" stroke="#fb602f" stroke-width="1.51"></path><path d="M146,284L219,179L129,173Z" fill="#f85d2c" stroke="#f85d2c" stroke-width="1.51"></path><path d="M-33,165L84,280L60,163Z" fill="#f16a53" stroke="#f16a53" stroke-width="1.51"></path><path d="M77,99L-51,56L-33,165Z" fill="#f27465" stroke="#f27465" stroke-width="1.51"></path><path d="M121,115L75,-13L77,99Z" fill="#f96e52" stroke="#f96e52" stroke-width="1.51"></path><path d="M167,-26L75,-13L121,115Z" fill="#f6715a" stroke="#f6715a" stroke-width="1.51"></path><path d="M219,179L234,89L121,115Z" fill="#fc602f" stroke="#fc602f" stroke-width="1.51"></path><path d="M75,-13L-17,24L77,99Z" fill="#f1776e" stroke="#f1776e" stroke-width="1.51"></path><path d="M84,280L146,284L129,173Z" fill="#f45f35" stroke="#f45f35" stroke-width="1.51"></path><path d="M-17,24L-51,56L77,99Z" fill="#f07870" stroke="#f07870" stroke-width="1.51"></path><path d="M207,0L167,-26L121,115Z" fill="#f96d4f" stroke="#f96d4f" stroke-width="1.51"></path><path d="M234,89L207,0L121,115Z" fill="#fc663c" stroke="#fc663c" stroke-width="1.51"></path><path d="M-33,165L-62,269L84,280Z" fill="#eb6d5e" stroke="#eb6d5e" stroke-width="1.51"></path><path d="M-87,265L-62,269L-33,165Z" fill="#e67370" stroke="#e67370" stroke-width="1.51"></path><path d="M167,-26L119,-66L75,-13Z" fill="#ef7975" stroke="#ef7975" stroke-width="1.51"></path><path d="M75,-13L66,-91L-17,24Z" fill="#e7808a" stroke="#e7808a" stroke-width="1.51"></path><path d="M261,-110L119,-66L167,-26Z" fill="#eb7a78" stroke="#eb7a78" stroke-width="1.51"></path><path d="M-127,192L-87,265L-33,165Z" fill="#e67678" stroke="#e67678" stroke-width="1.51"></path><path d="M-51,56L-115,58L-33,165Z" fill="#ed7b79" stroke="#ed7b79" stroke-width="1.51"></path><path d="M-140,-26L-115,58L-51,56Z" fill="#de869e" stroke="#de869e" stroke-width="1.51"></path><path d="M-140,-26L-51,56L-17,24Z" fill="#e18599" stroke="#e18599" stroke-width="1.51"></path><path d="M219,179L312,187L234,89Z" fill="#f85c2b" stroke="#f85c2b" stroke-width="1.51"></path><path d="M146,284L272,261L219,179Z" fill="#f45928" stroke="#f45928" stroke-width="1.51"></path><path d="M-115,58L-127,192L-33,165Z" fill="#e87b7e" stroke="#e87b7e" stroke-width="1.51"></path><path d="M119,-66L66,-91L75,-13Z" fill="#e88089" stroke="#e88089" stroke-width="1.51"></path><path d="M272,261L312,187L219,179Z" fill="#f45828" stroke="#f45828" stroke-width="1.51"></path><path d="M234,89L348,4L207,0Z" fill="#f5684a" stroke="#f5684a" stroke-width="1.51"></path><path d="M312,187L330,115L234,89Z" fill="#f75c2b" stroke="#f75c2b" stroke-width="1.51"></path><path d="M-115,58L-140,-26L-127,192Z" fill="#e48392" stroke="#e48392" stroke-width="1.51"></path><path d="M-47,-113L-140,-26L-17,24Z" fill="#d48cb1" stroke="#d48cb1" stroke-width="1.51"></path><path d="M66,-91L-47,-113L-17,24Z" fill="#db89a5" stroke="#db89a5" stroke-width="1.51"></path><path d="M330,115L348,4L234,89Z" fill="#f76136" stroke="#f76136" stroke-width="1.51"></path><path d="M207,0L261,-110L167,-26Z" fill="#ee756e" stroke="#ee756e" stroke-width="1.51"></path><path d="M119,-66L261,-110L66,-91Z" fill="#ea7e84" stroke="#ea7e84" stroke-width="1.51"></path><path d="M312,187L419,187L330,115Z" fill="#f35727" stroke="#f35727" stroke-width="1.51"></path><path d="M330,115L402,27L348,4Z" fill="#f3623e" stroke="#f3623e" stroke-width="1.51"></path><path d="M272,261L347,279L312,187Z" fill="#f05524" stroke="#f05524" stroke-width="1.51"></path><path d="M146,284L347,279L272,261Z" fill="#f05525" stroke="#f05525" stroke-width="1.51"></path><path d="M348,4L261,-110L207,0Z" fill="#ed7267" stroke="#ed7267" stroke-width="1.51"></path><path d="M66,-91L261,-110L-47,-113Z" fill="#e0869b" stroke="#e0869b" stroke-width="1.51"></path><path d="M-47,-113L-126,-113L-140,-26Z" fill="#c196d1" stroke="#c196d1" stroke-width="1.51"></path><path d="M348,4L308,-125L261,-110Z" fill="#e67778" stroke="#e67778" stroke-width="1.51"></path><path d="M441,62L402,27L330,115Z" fill="#f45d34" stroke="#f45d34" stroke-width="1.51"></path><path d="M347,279L419,187L312,187Z" fill="#ef5423" stroke="#ef5423" stroke-width="1.51"></path><path d="M440,-93L308,-125L348,4Z" fill="#e57374" stroke="#e57374" stroke-width="1.51"></path><path d="M261,-110L308,-125L-47,-113Z" fill="#e4818e" stroke="#e4818e" stroke-width="1.51"></path><path d="M-47,-113L308,-125L-126,-113Z" fill="#d58cb1" stroke="#d58cb1" stroke-width="1.51"></path><path d="M402,27L440,-93L348,4Z" fill="#ea6b5c" stroke="#ea6b5c" stroke-width="1.51"></path><path d="M419,187L441,62L330,115Z" fill="#f35827" stroke="#f35827" stroke-width="1.51"></path><path d="M419,187L449,275L441,62Z" fill="#ef5323" stroke="#ef5323" stroke-width="1.51"></path><path d="M347,279L449,275L419,187Z" fill="#ec5120" stroke="#ec5120" stroke-width="1.51"></path><path d="M441,62L440,-93L402,27Z" fill="#eb6752" stroke="#eb6752" stroke-width="1.51"></path><path d="M449,275L440,-93L441,62Z" fill="#f3592b" stroke="#f3592b" stroke-width="1.51"></path></svg>