<svg width="300" height="176" xmlns="http://www.w3.org/2000/svg"><path d="M150,87L132,146L209,162Z" fill="#fc6130" stroke="#fc6130" stroke-width="1.51"></path><path d="M209,162L231,69L150,87Z" fill="#fc6130" stroke="#fc6130" stroke-width="1.51"></path><path d="M174,284L265,236L209,162Z" fill="#f55a29" stroke="#f55a29" stroke-width="1.51"></path><path d="M46,112L49,152L132,146Z" fill="#f8694a" stroke="#f8694a" stroke-width="1.51"></path><path d="M150,87L46,112L132,146Z" fill="#fb6740" stroke="#fb6740" stroke-width="1.51"></path><path d="M209,162L340,100L231,69Z" fill="#f95e2e" stroke="#f95e2e" stroke-width="1.51"></path><path d="M174,284L209,162L132,146Z" fill="#f85d2c" stroke="#f85d2c" stroke-width="1.51"></path><path d="M231,69L227,-13L150,87Z" fill="#f96845" stroke="#f96845" stroke-width="1.51"></path><path d="M150,87L125,-18L46,112Z" fill="#fa6e4f" stroke="#fa6e4f" stroke-width="1.51"></path><path d="M344,-11L227,-13L231,69Z" fill="#f36b51" stroke="#f36b51" stroke-width="1.51"></path><path d="M227,-13L125,-18L150,87Z" fill="#f76e54" stroke="#f76e54" stroke-width="1.51"></path><path d="M92,271L174,284L132,146Z" fill="#f65e31" stroke="#f65e31" stroke-width="1.51"></path><path d="M349,163L340,100L209,162Z" fill="#f65b2a" stroke="#f65b2a" stroke-width="1.51"></path><path d="M49,152L92,271L132,146Z" fill="#f56543" stroke="#f56543" stroke-width="1.51"></path><path d="M265,236L349,163L209,162Z" fill="#f45a29" stroke="#f45a29" stroke-width="1.51"></path><path d="M49,152L-8,160L92,271Z" fill="#f26a51" stroke="#f26a51" stroke-width="1.51"></path><path d="M46,112L-8,160L49,152Z" fill="#f36f59" stroke="#f36f59" stroke-width="1.51"></path><path d="M-45,87L-8,160L46,112Z" fill="#f17364" stroke="#f17364" stroke-width="1.51"></path><path d="M125,-18L30,-7L46,112Z" fill="#f2766a" stroke="#f2766a" stroke-width="1.51"></path><path d="M227,-13L156,-60L125,-18Z" fill="#f17569" stroke="#f17569" stroke-width="1.51"></path><path d="M64,-97L30,-7L125,-18Z" fill="#e87f86" stroke="#e87f86" stroke-width="1.51"></path><path d="M358,-86L213,-83L227,-13Z" fill="#ea7673" stroke="#ea7673" stroke-width="1.51"></path><path d="M227,-13L213,-83L156,-60Z" fill="#ed7771" stroke="#ed7771" stroke-width="1.51"></path><path d="M340,100L344,-11L231,69Z" fill="#f6633f" stroke="#f6633f" stroke-width="1.51"></path><path d="M441,58L344,-11L340,100Z" fill="#f2613e" stroke="#f2613e" stroke-width="1.51"></path><path d="M-32,23L-45,87L46,112Z" fill="#f0776e" stroke="#f0776e" stroke-width="1.51"></path><path d="M30,-7L-32,23L46,112Z" fill="#ef7974" stroke="#ef7974" stroke-width="1.51"></path><path d="M174,284L346,288L265,236Z" fill="#f15524" stroke="#f15524" stroke-width="1.51"></path><path d="M265,236L346,288L349,163Z" fill="#f05524" stroke="#f05524" stroke-width="1.51"></path><path d="M-8,160L-48,236L92,271Z" fill="#ee6c5a" stroke="#ee6c5a" stroke-width="1.51"></path><path d="M-123,194L-48,236L-8,160Z" fill="#e87572" stroke="#e87572" stroke-width="1.51"></path><path d="M213,-83L64,-97L156,-60Z" fill="#ea7d81" stroke="#ea7d81" stroke-width="1.51"></path><path d="M156,-60L64,-97L125,-18Z" fill="#ea7e81" stroke="#ea7e81" stroke-width="1.51"></path><path d="M30,-7L-15,-68L-32,23Z" fill="#e38494" stroke="#e38494" stroke-width="1.51"></path><path d="M391,288L434,180L349,163Z" fill="#ef5322" stroke="#ef5322" stroke-width="1.51"></path><path d="M349,163L434,180L340,100Z" fill="#f35827" stroke="#f35827" stroke-width="1.51"></path><path d="M346,288L391,288L349,163Z" fill="#ed5322" stroke="#ed5322" stroke-width="1.51"></path><path d="M64,-97L-15,-68L30,-7Z" fill="#e0869c" stroke="#e0869c" stroke-width="1.51"></path><path d="M-32,23L-116,64L-45,87Z" fill="#e97f86" stroke="#e97f86" stroke-width="1.51"></path><path d="M434,180L441,58L340,100Z" fill="#f45827" stroke="#f45827" stroke-width="1.51"></path><path d="M424,-6L358,-86L344,-11Z" fill="#e96e63" stroke="#e96e63" stroke-width="1.51"></path><path d="M344,-11L358,-86L227,-13Z" fill="#eb7166" stroke="#eb7166" stroke-width="1.51"></path><path d="M213,-83L358,-86L64,-97Z" fill="#e77c81" stroke="#e77c81" stroke-width="1.51"></path><path d="M441,58L424,-6L344,-11Z" fill="#ee654d" stroke="#ee654d" stroke-width="1.51"></path><path d="M-112,-12L-116,64L-32,23Z" fill="#e0869b" stroke="#e0869b" stroke-width="1.51"></path><path d="M-45,87L-123,194L-8,160Z" fill="#eb7774" stroke="#eb7774" stroke-width="1.51"></path><path d="M-48,236L-92,265L92,271Z" fill="#e96d61" stroke="#e96d61" stroke-width="1.51"></path><path d="M92,271L-92,265L174,284Z" fill="#ee6448" stroke="#ee6448" stroke-width="1.51"></path><path d="M-123,194L-92,265L-48,236Z" fill="#e37678" stroke="#e37678" stroke-width="1.51"></path><path d="M-116,64L-123,194L-45,87Z" fill="#e87c81" stroke="#e87c81" stroke-width="1.51"></path><path d="M-116,64L-129,-113L-123,194Z" fill="#df869c" stroke="#df869c" stroke-width="1.51"></path><path d="M-15,-68L-112,-12L-32,23Z" fill="#dc88a4" stroke="#dc88a4" stroke-width="1.51"></path><path d="M441,58L447,-90L424,-6Z" fill="#e96857" stroke="#e96857" stroke-width="1.51"></path><path d="M424,-6L447,-90L358,-86Z" fill="#e4706d" stroke="#e4706d" stroke-width="1.51"></path><path d="M358,-86L447,-90L64,-97Z" fill="#e4797f" stroke="#e4797f" stroke-width="1.51"></path><path d="M-15,-68L-129,-113L-112,-12Z" fill="#cb91c2" stroke="#cb91c2" stroke-width="1.51"></path><path d="M-112,-12L-129,-113L-116,64Z" fill="#d08fba" stroke="#d08fba" stroke-width="1.51"></path><path d="M64,-97L-129,-113L-15,-68Z" fill="#ce90bc" stroke="#ce90bc" stroke-width="1.51"></path><path d="M447,-90L-129,-113L64,-97Z" fill="#e5828f" stroke="#e5828f" stroke-width="1.51"></path></svg>