<svg width="300" height="176" xmlns="http://www.w3.org/2000/svg"><path d="M116,90L37,175L152,147Z" fill="#f1694f" stroke="#f1694f" stroke-width="1.51"></path><path d="M116,90L43,88L37,175Z" fill="#ed736a" stroke="#ed736a" stroke-width="1.51"></path><path d="M43,88L-3,163L37,175Z" fill="#e17880" stroke="#e17880" stroke-width="1.51"></path><path d="M37,270L128,246L37,175Z" fill="#e66b60" stroke="#e66b60" stroke-width="1.51"></path><path d="M37,175L128,246L152,147Z" fill="#ec6247" stroke="#ec6247" stroke-width="1.51"></path><path d="M43,88L-16,119L-3,163Z" fill="#df7e8e" stroke="#df7e8e" stroke-width="1.51"></path><path d="M-3,163L37,270L37,175Z" fill="#dc747d" stroke="#dc747d" stroke-width="1.51"></path><path d="M116,90L55,-15L43,88Z" fill="#e5828f" stroke="#e5828f" stroke-width="1.51"></path><path d="M43,88L-20,-28L-16,119Z" fill="#d28eb7" stroke="#d28eb7" stroke-width="1.51"></path><path d="M121,-36L55,-15L116,90Z" fill="#d78aac" stroke="#d78aac" stroke-width="1.51"></path><path d="M152,147L207,16L116,90Z" fill="#fe6537" stroke="#fe6537" stroke-width="1.51"></path><path d="M267,112L207,16L152,147Z" fill="#fa5f2e" stroke="#fa5f2e" stroke-width="1.51"></path><path d="M128,246L261,198L152,147Z" fill="#f05524" stroke="#f05524" stroke-width="1.51"></path><path d="M261,198L267,112L152,147Z" fill="#f05423" stroke="#f05423" stroke-width="1.51"></path><path d="M207,16L121,-36L116,90Z" fill="#eb7d80" stroke="#eb7d80" stroke-width="1.51"></path><path d="M-3,163L-59,298L37,270Z" fill="#d6798c" stroke="#d6798c" stroke-width="1.51"></path><path d="M-16,119L-99,167L-3,163Z" fill="#d97c8f" stroke="#d97c8f" stroke-width="1.51"></path><path d="M-126,75L-99,167L-16,119Z" fill="#dd8094" stroke="#dd8094" stroke-width="1.51"></path><path d="M37,270L231,282L128,246Z" fill="#f05b34" stroke="#f05b34" stroke-width="1.51"></path><path d="M128,246L231,282L261,198Z" fill="#ee5222" stroke="#ee5222" stroke-width="1.51"></path><path d="M55,-15L-20,-28L43,88Z" fill="#bb98d9" stroke="#bb98d9" stroke-width="1.51"></path><path d="M35,-70L-20,-28L55,-15Z" fill="#aa9eed" stroke="#aa9eed" stroke-width="1.51"></path><path d="M-99,167L-59,298L-3,163Z" fill="#d6798c" stroke="#d6798c" stroke-width="1.51"></path><path d="M37,270L-59,298L231,282Z" fill="#e66a5f" stroke="#e66a5f" stroke-width="1.51"></path><path d="M121,-36L35,-70L55,-15Z" fill="#c495cd" stroke="#c495cd" stroke-width="1.51"></path><path d="M-20,-28L-126,75L-16,119Z" fill="#ce90bd" stroke="#ce90bd" stroke-width="1.51"></path><path d="M121,-36L156,-73L35,-70Z" fill="#d28eb6" stroke="#d28eb6" stroke-width="1.51"></path><path d="M207,16L156,-73L121,-36Z" fill="#e08497" stroke="#e08497" stroke-width="1.51"></path><path d="M233,-117L156,-73L207,16Z" fill="#de8194" stroke="#de8194" stroke-width="1.51"></path><path d="M-99,167L-121,277L-59,298Z" fill="#d6798c" stroke="#d6798c" stroke-width="1.51"></path><path d="M-126,75L-121,277L-99,167Z" fill="#d7798c" stroke="#d7798c" stroke-width="1.51"></path><path d="M267,112L333,-12L207,16Z" fill="#e86d64" stroke="#e86d64" stroke-width="1.51"></path><path d="M353,173L346,116L267,112Z" fill="#ec5120" stroke="#ec5120" stroke-width="1.51"></path><path d="M353,173L267,112L261,198Z" fill="#e94d1c" stroke="#e94d1c" stroke-width="1.51"></path><path d="M231,282L309,293L261,198Z" fill="#e94d1c" stroke="#e94d1c" stroke-width="1.51"></path><path d="M-59,298L309,293L231,282Z" fill="#f25625" stroke="#f25625" stroke-width="1.51"></path><path d="M309,293L353,173L261,198Z" fill="#e64a19" stroke="#e64a19" stroke-width="1.51"></path><path d="M-126,75L-133,0L-121,277Z" fill="#de8194" stroke="#de8194" stroke-width="1.51"></path><path d="M-20,-28L-133,0L-126,75Z" fill="#ac9deb" stroke="#ac9deb" stroke-width="1.51"></path><path d="M-97,-98L-133,0L-20,-28Z" fill="#99a2fd" stroke="#99a2fd" stroke-width="1.51"></path><path d="M35,-70L-15,-118L-20,-28Z" fill="#99a2fd" stroke="#99a2fd" stroke-width="1.51"></path><path d="M156,-73L-15,-118L35,-70Z" fill="#be97d5" stroke="#be97d5" stroke-width="1.51"></path><path d="M346,116L333,-12L267,112Z" fill="#ef5e3b" stroke="#ef5e3b" stroke-width="1.51"></path><path d="M391,56L333,-12L346,116Z" fill="#ea6551" stroke="#ea6551" stroke-width="1.51"></path><path d="M299,-79L233,-117L207,16Z" fill="#da7d90" stroke="#da7d90" stroke-width="1.51"></path><path d="M156,-73L233,-117L-15,-118Z" fill="#d98aa9" stroke="#d98aa9" stroke-width="1.51"></path><path d="M333,-12L299,-79L207,16Z" fill="#d87a8d" stroke="#d87a8d" stroke-width="1.51"></path><path d="M-15,-118L-97,-98L-20,-28Z" fill="#99a2fd" stroke="#99a2fd" stroke-width="1.51"></path><path d="M333,-12L427,-106L299,-79Z" fill="#d6798c" stroke="#d6798c" stroke-width="1.51"></path><path d="M407,168L391,56L346,116Z" fill="#ef5423" stroke="#ef5423" stroke-width="1.51"></path><path d="M353,173L407,168L346,116Z" fill="#e94e1d" stroke="#e94e1d" stroke-width="1.51"></path><path d="M406,257L407,168L353,173Z" fill="#e64a19" stroke="#e64a19" stroke-width="1.51"></path><path d="M309,293L406,257L353,173Z" fill="#e64a19" stroke="#e64a19" stroke-width="1.51"></path><path d="M391,56L416,4L333,-12Z" fill="#dd737a" stroke="#dd737a" stroke-width="1.51"></path><path d="M407,168L416,4L391,56Z" fill="#f05c36" stroke="#f05c36" stroke-width="1.51"></path><path d="M406,257L416,4L407,168Z" fill="#eb4f1e" stroke="#eb4f1e" stroke-width="1.51"></path><path d="M416,4L427,-106L333,-12Z" fill="#d6798c" stroke="#d6798c" stroke-width="1.51"></path><path d="M299,-79L427,-106L233,-117Z" fill="#d6798c" stroke="#d6798c" stroke-width="1.51"></path><path d="M406,257L427,-106L416,4Z" fill="#ea6653" stroke="#ea6653" stroke-width="1.51"></path></svg>