<svg width="300" height="176" xmlns="http://www.w3.org/2000/svg"><path d="M356,164L410,189L417,87Z" fill="#f25726" stroke="#f25726" stroke-width="1.51"></path><path d="M259,-87L330,-80L425,-101Z" fill="#fa8853" stroke="#fa8853" stroke-width="1.51"></path><path d="M80,-122L259,-87L425,-101Z" fill="#fe8e5a" stroke="#fe8e5a" stroke-width="1.51"></path><path d="M327,248L232,298L449,299Z" fill="#ed5221" stroke="#ed5221" stroke-width="1.51"></path><path d="M410,189L327,248L449,299Z" fill="#ed5120" stroke="#ed5120" stroke-width="1.51"></path><path d="M417,87L410,189L449,299Z" fill="#ee5322" stroke="#ee5322" stroke-width="1.51"></path><path d="M342,60L417,87L450,-10Z" fill="#f56533" stroke="#f56533" stroke-width="1.51"></path><path d="M341,-18L342,60L450,-10Z" fill="#f76f3b" stroke="#f76f3b" stroke-width="1.51"></path><path d="M425,-101L341,-18L450,-10Z" fill="#f77a46" stroke="#f77a46" stroke-width="1.51"></path><path d="M417,87L449,299L450,-10Z" fill="#f25625" stroke="#f25625" stroke-width="1.51"></path><path d="M330,-80L341,-18L425,-101Z" fill="#f9814d" stroke="#f9814d" stroke-width="1.51"></path><path d="M342,60L356,164L417,87Z" fill="#f55a29" stroke="#f55a29" stroke-width="1.51"></path><path d="M356,164L327,248L410,189Z" fill="#f05524" stroke="#f05524" stroke-width="1.51"></path><path d="M80,-122L160,-78L259,-87Z" fill="#ff905b" stroke="#ff905b" stroke-width="1.51"></path><path d="M341,-18L250,8L342,60Z" fill="#f9703d" stroke="#f9703d" stroke-width="1.51"></path><path d="M212,164L327,248L356,164Z" fill="#f35827" stroke="#f35827" stroke-width="1.51"></path><path d="M273,98L212,164L356,164Z" fill="#f75c2b" stroke="#f75c2b" stroke-width="1.51"></path><path d="M342,60L273,98L356,164Z" fill="#f75c2b" stroke="#f75c2b" stroke-width="1.51"></path><path d="M330,-80L259,-87L341,-18Z" fill="#fa824e" stroke="#fa824e" stroke-width="1.51"></path><path d="M259,-87L250,8L341,-18Z" fill="#fb7d49" stroke="#fb7d49" stroke-width="1.51"></path><path d="M250,8L273,98L342,60Z" fill="#fa6735" stroke="#fa6735" stroke-width="1.51"></path><path d="M212,164L232,298L327,248Z" fill="#f25726" stroke="#f25726" stroke-width="1.51"></path><path d="M212,164L148,241L232,298Z" fill="#f55a29" stroke="#f55a29" stroke-width="1.51"></path><path d="M160,-78L250,8L259,-87Z" fill="#fe834f" stroke="#fe834f" stroke-width="1.51"></path><path d="M250,8L124,118L273,98Z" fill="#fd6534" stroke="#fd6534" stroke-width="1.51"></path><path d="M124,118L212,164L273,98Z" fill="#fb602f" stroke="#fb602f" stroke-width="1.51"></path><path d="M148,241L-7,300L232,298Z" fill="#f55e2c" stroke="#f55e2c" stroke-width="1.51"></path><path d="M124,13L124,118L250,8Z" fill="#ff6e3c" stroke="#ff6e3c" stroke-width="1.51"></path><path d="M155,181L148,241L212,164Z" fill="#f85d2c" stroke="#f85d2c" stroke-width="1.51"></path><path d="M160,-78L124,13L250,8Z" fill="#ff7e4a" stroke="#ff7e4a" stroke-width="1.51"></path><path d="M32,251L-7,300L148,241Z" fill="#f56b38" stroke="#f56b38" stroke-width="1.51"></path><path d="M124,118L155,181L212,164Z" fill="#fb602f" stroke="#fb602f" stroke-width="1.51"></path><path d="M89,20L124,118L124,13Z" fill="#ff7542" stroke="#ff7542" stroke-width="1.51"></path><path d="M80,-122L89,20L124,13Z" fill="#ff8a55" stroke="#ff8a55" stroke-width="1.51"></path><path d="M62,189L148,241L155,181Z" fill="#f96331" stroke="#f96331" stroke-width="1.51"></path><path d="M80,-122L124,13L160,-78Z" fill="#ff8e59" stroke="#ff8e59" stroke-width="1.51"></path><path d="M124,118L62,189L155,181Z" fill="#fb6735" stroke="#fb6735" stroke-width="1.51"></path><path d="M-108,-60L-44,-61L80,-122Z" fill="#ffa874" stroke="#ffa874" stroke-width="1.51"></path><path d="M62,189L32,251L148,241Z" fill="#f86936" stroke="#f86936" stroke-width="1.51"></path><path d="M89,20L32,115L124,118Z" fill="#ff713f" stroke="#ff713f" stroke-width="1.51"></path><path d="M32,115L62,189L124,118Z" fill="#fc6f3d" stroke="#fc6f3d" stroke-width="1.51"></path><path d="M-26,29L32,115L89,20Z" fill="#ff814e" stroke="#ff814e" stroke-width="1.51"></path><path d="M80,-122L-44,-61L89,20Z" fill="#ff9863" stroke="#ff9863" stroke-width="1.51"></path><path d="M-44,-61L-26,29L89,20Z" fill="#ff935e" stroke="#ff935e" stroke-width="1.51"></path><path d="M-26,29L-13,114L32,115Z" fill="#ff804c" stroke="#ff804c" stroke-width="1.51"></path><path d="M-5,153L32,251L62,189Z" fill="#fa7340" stroke="#fa7340" stroke-width="1.51"></path><path d="M32,115L-5,153L62,189Z" fill="#fc7643" stroke="#fc7643" stroke-width="1.51"></path><path d="M-13,114L-5,153L32,115Z" fill="#fe7c48" stroke="#fe7c48" stroke-width="1.51"></path><path d="M-5,153L-103,201L32,251Z" fill="#fa7d49" stroke="#fa7d49" stroke-width="1.51"></path><path d="M-103,201L-7,300L32,251Z" fill="#f77a46" stroke="#f77a46" stroke-width="1.51"></path><path d="M-26,29L-95,65L-13,114Z" fill="#ff8b56" stroke="#ff8b56" stroke-width="1.51"></path><path d="M-103,201L-122,288L-7,300Z" fill="#f8824d" stroke="#f8824d" stroke-width="1.51"></path><path d="M-13,114L-103,201L-5,153Z" fill="#fc814d" stroke="#fc814d" stroke-width="1.51"></path><path d="M-44,-61L-111,31L-26,29Z" fill="#ff9d68" stroke="#ff9d68" stroke-width="1.51"></path><path d="M-95,65L-103,201L-13,114Z" fill="#ff8954" stroke="#ff8954" stroke-width="1.51"></path><path d="M-108,-60L-111,31L-44,-61Z" fill="#ffa773" stroke="#ffa773" stroke-width="1.51"></path><path d="M-111,31L-95,65L-26,29Z" fill="#ff9661" stroke="#ff9661" stroke-width="1.51"></path><path d="M-111,31L-103,201L-95,65Z" fill="#ff8f5b" stroke="#ff8f5b" stroke-width="1.51"></path><path d="M-111,31L-122,288L-103,201Z" fill="#fd8c58" stroke="#fd8c58" stroke-width="1.51"></path></svg>