<svg width="300" height="176" xmlns="http://www.w3.org/2000/svg"><path d="M161,67L164,6L84,73Z" fill="#fa6c4b" stroke="#fa6c4b" stroke-width="1.51"></path><path d="M164,6L68,-33L84,73Z" fill="#f47464" stroke="#f47464" stroke-width="1.51"></path><path d="M161,67L225,94L164,6Z" fill="#fb6842" stroke="#fb6842" stroke-width="1.51"></path><path d="M180,148L225,94L161,67Z" fill="#fc6231" stroke="#fc6231" stroke-width="1.51"></path><path d="M84,73L180,148L161,67Z" fill="#fe6536" stroke="#fe6536" stroke-width="1.51"></path><path d="M84,73L57,150L180,148Z" fill="#fa6740" stroke="#fa6740" stroke-width="1.51"></path><path d="M-34,114L57,150L84,73Z" fill="#f56f58" stroke="#f56f58" stroke-width="1.51"></path><path d="M68,-33L-15,-30L84,73Z" fill="#ed7c7c" stroke="#ed7c7c" stroke-width="1.51"></path><path d="M133,-120L35,-70L68,-33Z" fill="#e38393" stroke="#e38393" stroke-width="1.51"></path><path d="M35,-70L-15,-30L68,-33Z" fill="#e28495" stroke="#e28495" stroke-width="1.51"></path><path d="M164,6L133,-120L68,-33Z" fill="#ed7b7b" stroke="#ed7b7b" stroke-width="1.51"></path><path d="M260,-24L235,-63L164,6Z" fill="#f07265" stroke="#f07265" stroke-width="1.51"></path><path d="M225,94L260,-24L164,6Z" fill="#f66b4f" stroke="#f66b4f" stroke-width="1.51"></path><path d="M235,-63L133,-120L164,6Z" fill="#ed7975" stroke="#ed7975" stroke-width="1.51"></path><path d="M-15,-30L-34,114L84,73Z" fill="#f07871" stroke="#f07871" stroke-width="1.51"></path><path d="M323,72L298,17L225,94Z" fill="#f8633b" stroke="#f8633b" stroke-width="1.51"></path><path d="M225,94L298,17L260,-24Z" fill="#f5694b" stroke="#f5694b" stroke-width="1.51"></path><path d="M260,-24L323,-117L235,-63Z" fill="#e87676" stroke="#e87676" stroke-width="1.51"></path><path d="M133,-120L-2,-107L35,-70Z" fill="#db88a5" stroke="#db88a5" stroke-width="1.51"></path><path d="M35,-70L-2,-107L-15,-30Z" fill="#da89a7" stroke="#da89a7" stroke-width="1.51"></path><path d="M-34,114L-40,162L57,150Z" fill="#f07264" stroke="#f07264" stroke-width="1.51"></path><path d="M209,241L272,177L180,148Z" fill="#f75c2b" stroke="#f75c2b" stroke-width="1.51"></path><path d="M297,159L323,72L225,94Z" fill="#f95e2d" stroke="#f95e2d" stroke-width="1.51"></path><path d="M180,148L272,177L225,94Z" fill="#f95e2d" stroke="#f95e2d" stroke-width="1.51"></path><path d="M136,265L180,148L57,150Z" fill="#f86237" stroke="#f86237" stroke-width="1.51"></path><path d="M-40,162L60,241L57,150Z" fill="#f06c58" stroke="#f06c58" stroke-width="1.51"></path><path d="M272,177L297,159L225,94Z" fill="#f85d2c" stroke="#f85d2c" stroke-width="1.51"></path><path d="M136,265L209,241L180,148Z" fill="#f75c2b" stroke="#f75c2b" stroke-width="1.51"></path><path d="M272,177L300,250L297,159Z" fill="#f35928" stroke="#f35928" stroke-width="1.51"></path><path d="M-90,-64L-107,-5L-15,-30Z" fill="#d68cb0" stroke="#d68cb0" stroke-width="1.51"></path><path d="M-15,-30L-107,-5L-34,114Z" fill="#e48290" stroke="#e48290" stroke-width="1.51"></path><path d="M-34,114L-126,167L-40,162Z" fill="#ea7876" stroke="#ea7876" stroke-width="1.51"></path><path d="M60,241L136,265L57,150Z" fill="#f36443" stroke="#f36443" stroke-width="1.51"></path><path d="M-2,-107L-90,-64L-15,-30Z" fill="#d48db4" stroke="#d48db4" stroke-width="1.51"></path><path d="M-107,-5L-120,83L-34,114Z" fill="#e7808a" stroke="#e7808a" stroke-width="1.51"></path><path d="M298,17L323,-117L260,-24Z" fill="#ec7269" stroke="#ec7269" stroke-width="1.51"></path><path d="M235,-63L323,-117L133,-120Z" fill="#e57d85" stroke="#e57d85" stroke-width="1.51"></path><path d="M415,-4L323,-117L298,17Z" fill="#eb6f64" stroke="#eb6f64" stroke-width="1.51"></path><path d="M-120,83L-126,167L-34,114Z" fill="#e87c80" stroke="#e87c80" stroke-width="1.51"></path><path d="M-40,162L-22,297L60,241Z" fill="#ec6c5d" stroke="#ec6c5d" stroke-width="1.51"></path><path d="M136,265L300,250L209,241Z" fill="#f45827" stroke="#f45827" stroke-width="1.51"></path><path d="M209,241L300,250L272,177Z" fill="#f35827" stroke="#f35827" stroke-width="1.51"></path><path d="M427,103L415,-4L323,72Z" fill="#f35f3a" stroke="#f35f3a" stroke-width="1.51"></path><path d="M427,103L323,72L297,159Z" fill="#f65b2a" stroke="#f65b2a" stroke-width="1.51"></path><path d="M323,72L415,-4L298,17Z" fill="#f26648" stroke="#f26648" stroke-width="1.51"></path><path d="M-107,294L-22,297L-40,162Z" fill="#e6716e" stroke="#e6716e" stroke-width="1.51"></path><path d="M60,241L-22,297L136,265Z" fill="#ef6449" stroke="#ef6449" stroke-width="1.51"></path><path d="M136,265L404,300L300,250Z" fill="#f05424" stroke="#f05424" stroke-width="1.51"></path><path d="M422,189L427,103L297,159Z" fill="#f35726" stroke="#f35726" stroke-width="1.51"></path><path d="M300,250L422,189L297,159Z" fill="#f15626" stroke="#f15626" stroke-width="1.51"></path><path d="M-126,167L-107,294L-40,162Z" fill="#e5777b" stroke="#e5777b" stroke-width="1.51"></path><path d="M415,-4L449,-74L323,-117Z" fill="#e5716f" stroke="#e5716f" stroke-width="1.51"></path><path d="M427,103L449,-74L415,-4Z" fill="#ec664e" stroke="#ec664e" stroke-width="1.51"></path><path d="M422,189L449,-74L427,103Z" fill="#f35b30" stroke="#f35b30" stroke-width="1.51"></path><path d="M-22,297L404,300L136,265Z" fill="#f35827" stroke="#f35827" stroke-width="1.51"></path><path d="M300,250L404,300L422,189Z" fill="#ed5221" stroke="#ed5221" stroke-width="1.51"></path></svg>