<svg width="300" height="176" xmlns="http://www.w3.org/2000/svg"><path d="M241,283L149,281L333,300Z" fill="#f15524" stroke="#f15524" stroke-width="1.51"></path><path d="M149,281L-89,283L333,300Z" fill="#f45c2b" stroke="#f45c2b" stroke-width="1.51"></path><path d="M302,147L333,300L427,262Z" fill="#ef5323" stroke="#ef5323" stroke-width="1.51"></path><path d="M302,147L427,262L430,174Z" fill="#f05524" stroke="#f05524" stroke-width="1.51"></path><path d="M300,108L422,114L436,3Z" fill="#f65e2d" stroke="#f65e2d" stroke-width="1.51"></path><path d="M310,-24L300,108L436,3Z" fill="#f76b38" stroke="#f76b38" stroke-width="1.51"></path><path d="M422,114L430,174L436,3Z" fill="#f45827" stroke="#f45827" stroke-width="1.51"></path><path d="M310,-24L436,3L440,-79Z" fill="#f77945" stroke="#f77945" stroke-width="1.51"></path><path d="M305,-100L310,-24L440,-79Z" fill="#f9824e" stroke="#f9824e" stroke-width="1.51"></path><path d="M-140,-116L-40,-88L162,-108Z" fill="#ffaa77" stroke="#ffaa77" stroke-width="1.51"></path><path d="M422,114L302,147L430,174Z" fill="#f35827" stroke="#f35827" stroke-width="1.51"></path><path d="M300,108L302,147L422,114Z" fill="#f65a2a" stroke="#f65a2a" stroke-width="1.51"></path><path d="M-40,-88L44,-81L162,-108Z" fill="#ff9e6a" stroke="#ff9e6a" stroke-width="1.51"></path><path d="M267,104L300,108L310,-24Z" fill="#fa6533" stroke="#fa6533" stroke-width="1.51"></path><path d="M226,-7L267,104L310,-24Z" fill="#fb6f3d" stroke="#fb6f3d" stroke-width="1.51"></path><path d="M305,-100L253,-66L310,-24Z" fill="#fb844f" stroke="#fb844f" stroke-width="1.51"></path><path d="M302,147L270,154L333,300Z" fill="#f35827" stroke="#f35827" stroke-width="1.51"></path><path d="M270,154L241,283L333,300Z" fill="#f15625" stroke="#f15625" stroke-width="1.51"></path><path d="M162,-108L253,-66L305,-100Z" fill="#fe8c57" stroke="#fe8c57" stroke-width="1.51"></path><path d="M253,-66L226,-7L310,-24Z" fill="#fc7e4a" stroke="#fc7e4a" stroke-width="1.51"></path><path d="M267,104L270,154L300,108Z" fill="#f85d2c" stroke="#f85d2c" stroke-width="1.51"></path><path d="M300,108L270,154L302,147Z" fill="#f75c2b" stroke="#f75c2b" stroke-width="1.51"></path><path d="M226,-7L161,90L267,104Z" fill="#fd6837" stroke="#fd6837" stroke-width="1.51"></path><path d="M158,177L241,283L270,154Z" fill="#f65b2a" stroke="#f65b2a" stroke-width="1.51"></path><path d="M267,104L161,90L270,154Z" fill="#fa5f2e" stroke="#fa5f2e" stroke-width="1.51"></path><path d="M161,90L158,177L270,154Z" fill="#fa5f2e" stroke="#fa5f2e" stroke-width="1.51"></path><path d="M179,-6L161,90L226,-7Z" fill="#fe7340" stroke="#fe7340" stroke-width="1.51"></path><path d="M158,177L149,281L241,283Z" fill="#f55a29" stroke="#f55a29" stroke-width="1.51"></path><path d="M179,-6L226,-7L253,-66Z" fill="#fe7e4a" stroke="#fe7e4a" stroke-width="1.51"></path><path d="M162,-108L179,-6L253,-66Z" fill="#ff8652" stroke="#ff8652" stroke-width="1.51"></path><path d="M49,238L-89,283L149,281Z" fill="#f66e3c" stroke="#f66e3c" stroke-width="1.51"></path><path d="M49,238L149,281L158,177Z" fill="#f76230" stroke="#f76230" stroke-width="1.51"></path><path d="M31,7L46,90L161,90Z" fill="#ff7745" stroke="#ff7745" stroke-width="1.51"></path><path d="M31,7L161,90L179,-6Z" fill="#ff7844" stroke="#ff7844" stroke-width="1.51"></path><path d="M162,-108L44,-81L179,-6Z" fill="#ff8d58" stroke="#ff8d58" stroke-width="1.51"></path><path d="M44,-81L31,7L179,-6Z" fill="#ff8b57" stroke="#ff8b57" stroke-width="1.51"></path><path d="M-37,247L-89,283L49,238Z" fill="#f77a46" stroke="#f77a46" stroke-width="1.51"></path><path d="M46,90L52,188L158,177Z" fill="#fc6c3a" stroke="#fc6c3a" stroke-width="1.51"></path><path d="M52,188L49,238L158,177Z" fill="#f96a37" stroke="#f96a37" stroke-width="1.51"></path><path d="M46,90L158,177L161,90Z" fill="#fe6736" stroke="#fe6736" stroke-width="1.51"></path><path d="M-40,-88L-16,19L31,7Z" fill="#ff9964" stroke="#ff9964" stroke-width="1.51"></path><path d="M-16,19L-19,77L31,7Z" fill="#ff8b57" stroke="#ff8b57" stroke-width="1.51"></path><path d="M-40,-88L31,7L44,-81Z" fill="#ff9d68" stroke="#ff9d68" stroke-width="1.51"></path><path d="M31,7L-19,77L46,90Z" fill="#ff824e" stroke="#ff824e" stroke-width="1.51"></path><path d="M-19,77L-5,178L46,90Z" fill="#fe7c48" stroke="#fe7c48" stroke-width="1.51"></path><path d="M-5,178L49,238L52,188Z" fill="#f9733f" stroke="#f9733f" stroke-width="1.51"></path><path d="M46,90L-5,178L52,188Z" fill="#fc7643" stroke="#fc7643" stroke-width="1.51"></path><path d="M-5,178L-37,247L49,238Z" fill="#f97743" stroke="#f97743" stroke-width="1.51"></path><path d="M-40,-88L-133,-24L-16,19Z" fill="#ffa36f" stroke="#ffa36f" stroke-width="1.51"></path><path d="M-152,176L-37,247L-5,178Z" fill="#fb834f" stroke="#fb834f" stroke-width="1.51"></path><path d="M-19,77L-117,81L-5,178Z" fill="#ff8551" stroke="#ff8551" stroke-width="1.51"></path><path d="M-117,81L-152,176L-5,178Z" fill="#fe8b56" stroke="#fe8b56" stroke-width="1.51"></path><path d="M-117,81L-19,77L-16,19Z" fill="#ff8e59" stroke="#ff8e59" stroke-width="1.51"></path><path d="M-133,-24L-117,81L-16,19Z" fill="#ff9b67" stroke="#ff9b67" stroke-width="1.51"></path><path d="M-152,176L-89,283L-37,247Z" fill="#fa8651" stroke="#fa8651" stroke-width="1.51"></path><path d="M-140,-116L-133,-24L-40,-88Z" fill="#ffb380" stroke="#ffb380" stroke-width="1.51"></path><path d="M-133,-24L-152,176L-117,81Z" fill="#ff9763" stroke="#ff9763" stroke-width="1.51"></path><path d="M-140,-116L-152,176L-133,-24Z" fill="#ffa672" stroke="#ffa672" stroke-width="1.51"></path></svg>