<svg width="300" height="176" xmlns="http://www.w3.org/2000/svg"><path d="M172,115L260,183L238,94Z" fill="#c12a6b" stroke="#c12a6b" stroke-width="1.51"></path><path d="M260,183L317,189L238,94Z" fill="#be2668" stroke="#be2668" stroke-width="1.51"></path><path d="M172,115L127,205L260,183Z" fill="#c1296b" stroke="#c1296b" stroke-width="1.51"></path><path d="M260,183L267,261L317,189Z" fill="#ba2364" stroke="#ba2364" stroke-width="1.51"></path><path d="M161,271L267,261L260,183Z" fill="#bb2364" stroke="#bb2364" stroke-width="1.51"></path><path d="M127,205L161,271L260,183Z" fill="#be2668" stroke="#be2668" stroke-width="1.51"></path><path d="M317,189L333,64L238,94Z" fill="#bf2769" stroke="#bf2769" stroke-width="1.51"></path><path d="M127,205L75,245L161,271Z" fill="#c12d6e" stroke="#c12d6e" stroke-width="1.51"></path><path d="M172,115L80,185L127,205Z" fill="#c52f71" stroke="#c52f71" stroke-width="1.51"></path><path d="M238,94L148,3L172,115Z" fill="#c83274" stroke="#c83274" stroke-width="1.51"></path><path d="M172,115L41,103L80,185Z" fill="#c93779" stroke="#c93779" stroke-width="1.51"></path><path d="M226,-26L148,3L238,94Z" fill="#cc3f81" stroke="#cc3f81" stroke-width="1.51"></path><path d="M333,64L310,12L238,94Z" fill="#c53274" stroke="#c53274" stroke-width="1.51"></path><path d="M310,12L226,-26L238,94Z" fill="#c93d7f" stroke="#c93d7f" stroke-width="1.51"></path><path d="M80,185L75,245L127,205Z" fill="#c43476" stroke="#c43476" stroke-width="1.51"></path><path d="M317,189L417,83L333,64Z" fill="#bd2567" stroke="#bd2567" stroke-width="1.51"></path><path d="M267,261L351,271L317,189Z" fill="#b72061" stroke="#b72061" stroke-width="1.51"></path><path d="M161,271L351,271L267,261Z" fill="#b82062" stroke="#b82062" stroke-width="1.51"></path><path d="M148,3L41,103L172,115Z" fill="#cb397b" stroke="#cb397b" stroke-width="1.51"></path><path d="M80,185L2,151L75,245Z" fill="#c83e7f" stroke="#c83e7f" stroke-width="1.51"></path><path d="M431,207L417,83L317,189Z" fill="#b92163" stroke="#b92163" stroke-width="1.51"></path><path d="M333,64L404,2L310,12Z" fill="#c63a7a" stroke="#c63a7a" stroke-width="1.51"></path><path d="M41,103L2,151L80,185Z" fill="#cc4285" stroke="#cc4285" stroke-width="1.51"></path><path d="M41,103L-47,67L2,151Z" fill="#d14b90" stroke="#d14b90" stroke-width="1.51"></path><path d="M148,3L69,-15L41,103Z" fill="#d24b8f" stroke="#d24b8f" stroke-width="1.51"></path><path d="M136,-95L69,-15L148,3Z" fill="#d6569d" stroke="#d6569d" stroke-width="1.51"></path><path d="M351,271L431,207L317,189Z" fill="#b61f60" stroke="#b61f60" stroke-width="1.51"></path><path d="M351,271L413,261L431,207Z" fill="#b31c5d" stroke="#b31c5d" stroke-width="1.51"></path><path d="M417,83L404,2L333,64Z" fill="#c23273" stroke="#c23273" stroke-width="1.51"></path><path d="M351,-111L232,-110L226,-26Z" fill="#d3579f" stroke="#d3579f" stroke-width="1.51"></path><path d="M226,-26L136,-95L148,3Z" fill="#d35196" stroke="#d35196" stroke-width="1.51"></path><path d="M232,-110L136,-95L226,-26Z" fill="#d558a0" stroke="#d558a0" stroke-width="1.51"></path><path d="M351,-111L226,-26L310,12Z" fill="#ce4d91" stroke="#ce4d91" stroke-width="1.51"></path><path d="M69,-15L-47,67L41,103Z" fill="#d45197" stroke="#d45197" stroke-width="1.51"></path><path d="M-42,-8L-47,67L69,-15Z" fill="#d95fa9" stroke="#d95fa9" stroke-width="1.51"></path><path d="M136,-95L92,-107L69,-15Z" fill="#da61ad" stroke="#da61ad" stroke-width="1.51"></path><path d="M232,-110L92,-107L136,-95Z" fill="#da60ab" stroke="#da60ab" stroke-width="1.51"></path><path d="M404,2L351,-111L310,12Z" fill="#cb488c" stroke="#cb488c" stroke-width="1.51"></path><path d="M404,2L426,-66L351,-111Z" fill="#cc4e92" stroke="#cc4e92" stroke-width="1.51"></path><path d="M417,83L426,-66L404,2Z" fill="#c53d7e" stroke="#c53d7e" stroke-width="1.51"></path><path d="M431,207L426,-66L417,83Z" fill="#bd2869" stroke="#bd2869" stroke-width="1.51"></path><path d="M-26,-79L-42,-8L69,-15Z" fill="#dd69b6" stroke="#dd69b6" stroke-width="1.51"></path><path d="M2,151L-64,284L75,245Z" fill="#ca4587" stroke="#ca4587" stroke-width="1.51"></path><path d="M75,245L-64,284L161,271Z" fill="#c3397a" stroke="#c3397a" stroke-width="1.51"></path><path d="M161,271L-64,284L351,271Z" fill="#bc2466" stroke="#bc2466" stroke-width="1.51"></path><path d="M-91,247L-64,284L2,151Z" fill="#ce4f93" stroke="#ce4f93" stroke-width="1.51"></path><path d="M-105,153L2,151L-47,67Z" fill="#d4539a" stroke="#d4539a" stroke-width="1.51"></path><path d="M-117,104L-105,153L-47,67Z" fill="#d75aa3" stroke="#d75aa3" stroke-width="1.51"></path><path d="M-105,153L-91,247L2,151Z" fill="#d15399" stroke="#d15399" stroke-width="1.51"></path><path d="M-94,-11L-117,104L-47,67Z" fill="#da63af" stroke="#da63af" stroke-width="1.51"></path><path d="M92,-107L-26,-79L69,-15Z" fill="#dd69b7" stroke="#dd69b7" stroke-width="1.51"></path><path d="M-94,-11L-47,67L-42,-8Z" fill="#dd67b5" stroke="#dd67b5" stroke-width="1.51"></path><path d="M-105,153L-117,104L-91,247Z" fill="#d45ba3" stroke="#d45ba3" stroke-width="1.51"></path><path d="M-108,-74L-94,-11L-42,-8Z" fill="#e076c8" stroke="#e076c8" stroke-width="1.51"></path><path d="M-26,-79L-108,-74L-42,-8Z" fill="#e177ca" stroke="#e177ca" stroke-width="1.51"></path><path d="M-94,-11L-108,-74L-117,104Z" fill="#df71c2" stroke="#df71c2" stroke-width="1.51"></path><path d="M92,-107L-108,-74L-26,-79Z" fill="#e177cb" stroke="#e177cb" stroke-width="1.51"></path></svg>