<svg width="300" height="176" xmlns="http://www.w3.org/2000/svg"><path d="M-50,-96L145,-105L330,-123Z" fill="#e15f9d" stroke="#e15f9d" stroke-width="1.51"></path><path d="M145,-105L253,-95L330,-123Z" fill="#dd5b97" stroke="#dd5b97" stroke-width="1.51"></path><path d="M387,-28L331,1L428,83Z" fill="#c73976" stroke="#c73976" stroke-width="1.51"></path><path d="M331,1L341,88L428,83Z" fill="#c22f6e" stroke="#c22f6e" stroke-width="1.51"></path><path d="M341,88L405,149L428,83Z" fill="#bc2466" stroke="#bc2466" stroke-width="1.51"></path><path d="M389,-106L387,-28L428,83Z" fill="#ca417d" stroke="#ca417d" stroke-width="1.51"></path><path d="M335,253L240,298L430,255Z" fill="#b51d5f" stroke="#b51d5f" stroke-width="1.51"></path><path d="M405,149L346,191L430,255Z" fill="#b61f60" stroke="#b61f60" stroke-width="1.51"></path><path d="M346,191L335,253L430,255Z" fill="#b51e5f" stroke="#b51e5f" stroke-width="1.51"></path><path d="M428,83L405,149L430,255Z" fill="#b71f61" stroke="#b71f61" stroke-width="1.51"></path><path d="M341,88L346,191L405,149Z" fill="#bb2365" stroke="#bb2365" stroke-width="1.51"></path><path d="M38,248L-89,285L240,298Z" fill="#c43673" stroke="#c43673" stroke-width="1.51"></path><path d="M330,-123L331,1L387,-28Z" fill="#d24b86" stroke="#d24b86" stroke-width="1.51"></path><path d="M330,-123L387,-28L389,-106Z" fill="#d5528d" stroke="#d5528d" stroke-width="1.51"></path><path d="M-50,-96L56,-86L145,-105Z" fill="#e86aa9" stroke="#e86aa9" stroke-width="1.51"></path><path d="M330,-123L253,-95L331,1Z" fill="#d6518d" stroke="#d6518d" stroke-width="1.51"></path><path d="M253,-95L260,-6L331,1Z" fill="#d14985" stroke="#d14985" stroke-width="1.51"></path><path d="M331,1L260,-6L341,88Z" fill="#c93977" stroke="#c93977" stroke-width="1.51"></path><path d="M260,-6L268,118L341,88Z" fill="#c42f6f" stroke="#c42f6f" stroke-width="1.51"></path><path d="M269,200L335,253L346,191Z" fill="#b82162" stroke="#b82162" stroke-width="1.51"></path><path d="M341,88L268,118L346,191Z" fill="#bd2567" stroke="#bd2567" stroke-width="1.51"></path><path d="M268,118L269,200L346,191Z" fill="#bc2466" stroke="#bc2466" stroke-width="1.51"></path><path d="M269,200L240,298L335,253Z" fill="#b82062" stroke="#b82062" stroke-width="1.51"></path><path d="M165,255L38,248L240,298Z" fill="#bc2567" stroke="#bc2567" stroke-width="1.51"></path><path d="M253,-95L145,-105L260,-6Z" fill="#d95390" stroke="#d95390" stroke-width="1.51"></path><path d="M145,-105L176,30L260,-6Z" fill="#d44a87" stroke="#d44a87" stroke-width="1.51"></path><path d="M176,30L129,81L268,118Z" fill="#c73072" stroke="#c73072" stroke-width="1.51"></path><path d="M260,-6L176,30L268,118Z" fill="#c93676" stroke="#c93676" stroke-width="1.51"></path><path d="M165,255L240,298L269,200Z" fill="#ba2264" stroke="#ba2264" stroke-width="1.51"></path><path d="M175,176L165,255L269,200Z" fill="#be2668" stroke="#be2668" stroke-width="1.51"></path><path d="M268,118L175,176L269,200Z" fill="#bf2769" stroke="#bf2769" stroke-width="1.51"></path><path d="M129,81L175,176L268,118Z" fill="#c32b6d" stroke="#c32b6d" stroke-width="1.51"></path><path d="M2,248L-89,285L38,248Z" fill="#cd4580" stroke="#cd4580" stroke-width="1.51"></path><path d="M56,-86L50,-15L145,-105Z" fill="#e2609d" stroke="#e2609d" stroke-width="1.51"></path><path d="M59,160L165,255L175,176Z" fill="#c22c6d" stroke="#c22c6d" stroke-width="1.51"></path><path d="M129,81L59,160L175,176Z" fill="#c73172" stroke="#c73172" stroke-width="1.51"></path><path d="M59,60L129,81L176,30Z" fill="#ce3c7c" stroke="#ce3c7c" stroke-width="1.51"></path><path d="M50,-15L59,60L176,30Z" fill="#d54987" stroke="#d54987" stroke-width="1.51"></path><path d="M145,-105L50,-15L176,30Z" fill="#d9508e" stroke="#d9508e" stroke-width="1.51"></path><path d="M59,160L38,248L165,255Z" fill="#c63472" stroke="#c63472" stroke-width="1.51"></path><path d="M59,60L59,160L129,81Z" fill="#cd3b7b" stroke="#cd3b7b" stroke-width="1.51"></path><path d="M-50,-96L50,-15L56,-86Z" fill="#e769a7" stroke="#e769a7" stroke-width="1.51"></path><path d="M-53,201L2,248L59,160Z" fill="#ce4481" stroke="#ce4481" stroke-width="1.51"></path><path d="M2,110L-53,201L59,160Z" fill="#d14683" stroke="#d14683" stroke-width="1.51"></path><path d="M2,248L38,248L59,160Z" fill="#cb3e7b" stroke="#cb3e7b" stroke-width="1.51"></path><path d="M50,-15L-4,19L59,60Z" fill="#db5491" stroke="#db5491" stroke-width="1.51"></path><path d="M-4,19L2,110L59,60Z" fill="#d74d8b" stroke="#d74d8b" stroke-width="1.51"></path><path d="M2,110L59,160L59,60Z" fill="#d04280" stroke="#d04280" stroke-width="1.51"></path><path d="M-50,-96L-4,19L50,-15Z" fill="#e565a2" stroke="#e565a2" stroke-width="1.51"></path><path d="M-50,-96L-125,-12L-4,19Z" fill="#ea6dab" stroke="#ea6dab" stroke-width="1.51"></path><path d="M-91,178L-53,201L2,110Z" fill="#d54e8b" stroke="#d54e8b" stroke-width="1.51"></path><path d="M-105,101L-91,178L2,110Z" fill="#d95290" stroke="#d95290" stroke-width="1.51"></path><path d="M-4,19L-105,101L2,110Z" fill="#da5290" stroke="#da5290" stroke-width="1.51"></path><path d="M-53,201L-89,285L2,248Z" fill="#d14b86" stroke="#d14b86" stroke-width="1.51"></path><path d="M-125,-12L-105,101L-4,19Z" fill="#e362a0" stroke="#e362a0" stroke-width="1.51"></path><path d="M-91,178L-89,285L-53,201Z" fill="#d5508c" stroke="#d5508c" stroke-width="1.51"></path><path d="M-134,-85L-125,-12L-50,-96Z" fill="#f27bba" stroke="#f27bba" stroke-width="1.51"></path><path d="M-105,101L-125,-12L-89,285Z" fill="#dd5996" stroke="#dd5996" stroke-width="1.51"></path><path d="M-91,178L-105,101L-89,285Z" fill="#d85491" stroke="#d85491" stroke-width="1.51"></path></svg>