<svg width="300" height="176" xmlns="http://www.w3.org/2000/svg"><path d="M120,68L59,102L159,188Z" fill="#c83577" stroke="#c83577" stroke-width="1.51"></path><path d="M59,102L78,198L159,188Z" fill="#c73577" stroke="#c73577" stroke-width="1.51"></path><path d="M159,188L206,191L120,68Z" fill="#c32b6d" stroke="#c32b6d" stroke-width="1.51"></path><path d="M207,264L206,191L159,188Z" fill="#be2668" stroke="#be2668" stroke-width="1.51"></path><path d="M78,198L130,249L159,188Z" fill="#c22e70" stroke="#c22e70" stroke-width="1.51"></path><path d="M78,198L31,241L130,249Z" fill="#c43678" stroke="#c43678" stroke-width="1.51"></path><path d="M-45,146L31,241L78,198Z" fill="#cb4385" stroke="#cb4385" stroke-width="1.51"></path><path d="M206,191L270,108L120,68Z" fill="#c32a6d" stroke="#c32a6d" stroke-width="1.51"></path><path d="M206,191L298,157L270,108Z" fill="#bf2768" stroke="#bf2768" stroke-width="1.51"></path><path d="M130,249L207,264L159,188Z" fill="#be2668" stroke="#be2668" stroke-width="1.51"></path><path d="M-142,257L207,264L130,249Z" fill="#c33878" stroke="#c33878" stroke-width="1.51"></path><path d="M120,68L44,-32L59,102Z" fill="#d1498d" stroke="#d1498d" stroke-width="1.51"></path><path d="M270,108L163,-17L120,68Z" fill="#c9377a" stroke="#c9377a" stroke-width="1.51"></path><path d="M-51,59L-45,146L59,102Z" fill="#d24d93" stroke="#d24d93" stroke-width="1.51"></path><path d="M59,102L-45,146L78,198Z" fill="#cd4386" stroke="#cd4386" stroke-width="1.51"></path><path d="M316,255L298,157L206,191Z" fill="#bb2465" stroke="#bb2465" stroke-width="1.51"></path><path d="M163,-17L44,-32L120,68Z" fill="#d24c92" stroke="#d24c92" stroke-width="1.51"></path><path d="M44,-32L-51,59L59,102Z" fill="#d5549b" stroke="#d5549b" stroke-width="1.51"></path><path d="M231,-76L124,-64L163,-17Z" fill="#d4539a" stroke="#d4539a" stroke-width="1.51"></path><path d="M163,-17L124,-64L44,-32Z" fill="#d6579f" stroke="#d6579f" stroke-width="1.51"></path><path d="M-45,146L-63,244L31,241Z" fill="#cd4b8f" stroke="#cd4b8f" stroke-width="1.51"></path><path d="M31,241L-142,257L130,249Z" fill="#c84385" stroke="#c84385" stroke-width="1.51"></path><path d="M-148,174L-63,244L-45,146Z" fill="#d2569d" stroke="#d2569d" stroke-width="1.51"></path><path d="M270,108L267,-24L163,-17Z" fill="#ca3f81" stroke="#ca3f81" stroke-width="1.51"></path><path d="M298,157L316,60L270,108Z" fill="#c0286a" stroke="#c0286a" stroke-width="1.51"></path><path d="M316,60L267,-24L270,108Z" fill="#c63677" stroke="#c63677" stroke-width="1.51"></path><path d="M-4,-111L-29,-28L44,-32Z" fill="#de6ebd" stroke="#de6ebd" stroke-width="1.51"></path><path d="M44,-32L-29,-28L-51,59Z" fill="#db63ae" stroke="#db63ae" stroke-width="1.51"></path><path d="M298,157L398,106L316,60Z" fill="#be2668" stroke="#be2668" stroke-width="1.51"></path><path d="M207,264L316,255L206,191Z" fill="#ba2364" stroke="#ba2364" stroke-width="1.51"></path><path d="M267,-24L231,-76L163,-17Z" fill="#d14e94" stroke="#d14e94" stroke-width="1.51"></path><path d="M267,-24L307,-34L231,-76Z" fill="#d04e93" stroke="#d04e93" stroke-width="1.51"></path><path d="M316,60L307,-34L267,-24Z" fill="#ca4285" stroke="#ca4285" stroke-width="1.51"></path><path d="M124,-64L73,-121L44,-32Z" fill="#db64b1" stroke="#db64b1" stroke-width="1.51"></path><path d="M231,-76L73,-121L124,-64Z" fill="#d95da7" stroke="#d95da7" stroke-width="1.51"></path><path d="M-150,94L-45,146L-51,59Z" fill="#d75aa2" stroke="#d75aa2" stroke-width="1.51"></path><path d="M-150,94L-148,174L-45,146Z" fill="#d75da7" stroke="#d75da7" stroke-width="1.51"></path><path d="M-113,-21L-150,94L-51,59Z" fill="#dc68b6" stroke="#dc68b6" stroke-width="1.51"></path><path d="M73,-121L-4,-111L44,-32Z" fill="#df6fbf" stroke="#df6fbf" stroke-width="1.51"></path><path d="M-29,-28L-113,-21L-51,59Z" fill="#dd6bb9" stroke="#dd6bb9" stroke-width="1.51"></path><path d="M-97,-67L-113,-21L-29,-28Z" fill="#e177ca" stroke="#e177ca" stroke-width="1.51"></path><path d="M442,181L398,106L298,157Z" fill="#ba2264" stroke="#ba2264" stroke-width="1.51"></path><path d="M316,60L421,-34L307,-34Z" fill="#c94284" stroke="#c94284" stroke-width="1.51"></path><path d="M-148,174L-142,257L-63,244Z" fill="#d25aa2" stroke="#d25aa2" stroke-width="1.51"></path><path d="M-63,244L-142,257L31,241Z" fill="#cd4f93" stroke="#cd4f93" stroke-width="1.51"></path><path d="M-4,-111L-97,-67L-29,-28Z" fill="#e178cc" stroke="#e178cc" stroke-width="1.51"></path><path d="M316,255L442,181L298,157Z" fill="#b82062" stroke="#b82062" stroke-width="1.51"></path><path d="M421,-34L341,-118L307,-34Z" fill="#ce5095" stroke="#ce5095" stroke-width="1.51"></path><path d="M307,-34L341,-118L231,-76Z" fill="#d1559c" stroke="#d1559c" stroke-width="1.51"></path><path d="M231,-76L341,-118L73,-121Z" fill="#d75ea9" stroke="#d75ea9" stroke-width="1.51"></path><path d="M421,-34L316,60L398,106Z" fill="#c23374" stroke="#c23374" stroke-width="1.51"></path><path d="M-142,257L416,296L207,264Z" fill="#bc2466" stroke="#bc2466" stroke-width="1.51"></path><path d="M207,264L416,296L316,255Z" fill="#b61e5f" stroke="#b61e5f" stroke-width="1.51"></path><path d="M316,255L416,296L442,181Z" fill="#b41c5e" stroke="#b41c5e" stroke-width="1.51"></path><path d="M442,181L421,-34L398,106Z" fill="#bc2567" stroke="#bc2567" stroke-width="1.51"></path><path d="M421,-34L423,-88L341,-118Z" fill="#ce5399" stroke="#ce5399" stroke-width="1.51"></path><path d="M442,181L423,-88L421,-34Z" fill="#c33979" stroke="#c33979" stroke-width="1.51"></path></svg>