<svg width="300" height="176" xmlns="http://www.w3.org/2000/svg"><path d="M-94,-95L-4,-100L156,-120Z" fill="#ec71b0" stroke="#ec71b0" stroke-width="1.51"></path><path d="M178,257L90,277L331,281Z" fill="#ba2264" stroke="#ba2264" stroke-width="1.51"></path><path d="M400,-22L326,66L419,71Z" fill="#c43472" stroke="#c43472" stroke-width="1.51"></path><path d="M351,-107L400,-22L420,-101Z" fill="#d34f8a" stroke="#d34f8a" stroke-width="1.51"></path><path d="M400,-22L419,71L420,-101Z" fill="#ca417c" stroke="#ca417c" stroke-width="1.51"></path><path d="M419,71L362,156L430,202Z" fill="#b92163" stroke="#b92163" stroke-width="1.51"></path><path d="M362,156L418,241L430,202Z" fill="#b61e60" stroke="#b61e60" stroke-width="1.51"></path><path d="M420,-101L419,71L430,202Z" fill="#c02d6c" stroke="#c02d6c" stroke-width="1.51"></path><path d="M307,11L326,66L400,-22Z" fill="#c83a78" stroke="#c83a78" stroke-width="1.51"></path><path d="M362,156L331,281L418,241Z" fill="#b61e60" stroke="#b61e60" stroke-width="1.51"></path><path d="M326,66L362,156L419,71Z" fill="#bd2567" stroke="#bd2567" stroke-width="1.51"></path><path d="M351,-107L307,11L400,-22Z" fill="#cf4884" stroke="#cf4884" stroke-width="1.51"></path><path d="M-9,252L-95,249L90,277Z" fill="#cc437e" stroke="#cc437e" stroke-width="1.51"></path><path d="M223,107L231,166L326,66Z" fill="#c1296b" stroke="#c1296b" stroke-width="1.51"></path><path d="M156,-120L215,-74L351,-107Z" fill="#dc5996" stroke="#dc5996" stroke-width="1.51"></path><path d="M247,-2L307,11L351,-107Z" fill="#d04884" stroke="#d04884" stroke-width="1.51"></path><path d="M215,-74L247,-2L351,-107Z" fill="#d64f8c" stroke="#d64f8c" stroke-width="1.51"></path><path d="M326,66L231,166L362,156Z" fill="#be2668" stroke="#be2668" stroke-width="1.51"></path><path d="M238,238L331,281L362,156Z" fill="#b82162" stroke="#b82162" stroke-width="1.51"></path><path d="M231,166L238,238L362,156Z" fill="#bc2465" stroke="#bc2465" stroke-width="1.51"></path><path d="M238,238L178,257L331,281Z" fill="#b92163" stroke="#b92163" stroke-width="1.51"></path><path d="M307,11L247,-2L326,66Z" fill="#ca3a78" stroke="#ca3a78" stroke-width="1.51"></path><path d="M247,-2L223,107L326,66Z" fill="#c63372" stroke="#c63372" stroke-width="1.51"></path><path d="M179,11L155,63L223,107Z" fill="#c93475" stroke="#c93475" stroke-width="1.51"></path><path d="M231,166L178,257L238,238Z" fill="#bd2566" stroke="#bd2566" stroke-width="1.51"></path><path d="M179,11L223,107L247,-2Z" fill="#cb3978" stroke="#cb3978" stroke-width="1.51"></path><path d="M215,-74L179,11L247,-2Z" fill="#d34886" stroke="#d34886" stroke-width="1.51"></path><path d="M149,165L178,257L231,166Z" fill="#bf2769" stroke="#bf2769" stroke-width="1.51"></path><path d="M223,107L149,165L231,166Z" fill="#c1296b" stroke="#c1296b" stroke-width="1.51"></path><path d="M155,63L149,165L223,107Z" fill="#c42c6e" stroke="#c42c6e" stroke-width="1.51"></path><path d="M156,-120L82,-67L179,11Z" fill="#db5492" stroke="#db5492" stroke-width="1.51"></path><path d="M156,-120L179,11L215,-74Z" fill="#d95290" stroke="#d95290" stroke-width="1.51"></path><path d="M149,165L90,277L178,257Z" fill="#bf286a" stroke="#bf286a" stroke-width="1.51"></path><path d="M73,-8L155,63L179,11Z" fill="#d14281" stroke="#d14281" stroke-width="1.51"></path><path d="M82,-67L73,-8L179,11Z" fill="#d9518f" stroke="#d9518f" stroke-width="1.51"></path><path d="M60,179L90,277L149,165Z" fill="#c53271" stroke="#c53271" stroke-width="1.51"></path><path d="M62,71L60,179L149,165Z" fill="#ca3777" stroke="#ca3777" stroke-width="1.51"></path><path d="M62,71L149,165L155,63Z" fill="#c93374" stroke="#c93374" stroke-width="1.51"></path><path d="M73,-8L62,71L155,63Z" fill="#d24483" stroke="#d24483" stroke-width="1.51"></path><path d="M-4,-100L82,-67L156,-120Z" fill="#e566a4" stroke="#e566a4" stroke-width="1.51"></path><path d="M2,156L60,179L62,71Z" fill="#cf417e" stroke="#cf417e" stroke-width="1.51"></path><path d="M-7,112L2,156L62,71Z" fill="#d24584" stroke="#d24584" stroke-width="1.51"></path><path d="M60,179L-9,252L90,277Z" fill="#c83b78" stroke="#c83b78" stroke-width="1.51"></path><path d="M-9,10L62,71L73,-8Z" fill="#da518f" stroke="#da518f" stroke-width="1.51"></path><path d="M-4,-100L-9,10L73,-8Z" fill="#e3619f" stroke="#e3619f" stroke-width="1.51"></path><path d="M-4,-100L73,-8L82,-67Z" fill="#e462a0" stroke="#e462a0" stroke-width="1.51"></path><path d="M2,156L-9,252L60,179Z" fill="#ce427e" stroke="#ce427e" stroke-width="1.51"></path><path d="M-9,10L-7,112L62,71Z" fill="#d74d8b" stroke="#d74d8b" stroke-width="1.51"></path><path d="M-94,-95L-109,-8L-9,10Z" fill="#eb6fae" stroke="#eb6fae" stroke-width="1.51"></path><path d="M-113,200L-95,249L-9,252Z" fill="#d44f8a" stroke="#d44f8a" stroke-width="1.51"></path><path d="M-9,10L-109,-8L-7,112Z" fill="#df5b99" stroke="#df5b99" stroke-width="1.51"></path><path d="M-109,-8L-144,104L-7,112Z" fill="#e05c9a" stroke="#e05c9a" stroke-width="1.51"></path><path d="M-94,-95L-9,10L-4,-100Z" fill="#eb70af" stroke="#eb70af" stroke-width="1.51"></path><path d="M-7,112L-113,200L2,156Z" fill="#d54d8a" stroke="#d54d8a" stroke-width="1.51"></path><path d="M-113,200L-9,252L2,156Z" fill="#d34b87" stroke="#d34b87" stroke-width="1.51"></path><path d="M-144,104L-113,200L-7,112Z" fill="#da5692" stroke="#da5692" stroke-width="1.51"></path><path d="M-144,104L-109,-8L-94,-95Z" fill="#eb6fae" stroke="#eb6fae" stroke-width="1.51"></path></svg>