<svg width="300" height="176" xmlns="http://www.w3.org/2000/svg"><path d="M158,272L-96,279L306,273Z" fill="#be2b6b" stroke="#be2b6b" stroke-width="1.51"></path><path d="M240,270L158,272L306,273Z" fill="#b92163" stroke="#b92163" stroke-width="1.51"></path><path d="M117,-121L213,-72L332,-76Z" fill="#d65ba3" stroke="#d65ba3" stroke-width="1.51"></path><path d="M117,-121L332,-76L416,-71Z" fill="#d359a0" stroke="#d359a0" stroke-width="1.51"></path><path d="M332,83L298,193L430,88Z" fill="#bc2566" stroke="#bc2566" stroke-width="1.51"></path><path d="M416,-71L395,-16L430,88Z" fill="#c53e80" stroke="#c53e80" stroke-width="1.51"></path><path d="M430,88L298,193L453,201Z" fill="#b92162" stroke="#b92162" stroke-width="1.51"></path><path d="M298,193L407,259L453,201Z" fill="#b51e5f" stroke="#b51e5f" stroke-width="1.51"></path><path d="M416,-71L430,88L453,201Z" fill="#bd286a" stroke="#bd286a" stroke-width="1.51"></path><path d="M319,23L332,83L395,-16Z" fill="#c5397a" stroke="#c5397a" stroke-width="1.51"></path><path d="M395,-16L332,83L430,88Z" fill="#c23171" stroke="#c23171" stroke-width="1.51"></path><path d="M332,-76L395,-16L416,-71Z" fill="#cc4d91" stroke="#cc4d91" stroke-width="1.51"></path><path d="M298,193L306,273L407,259Z" fill="#b61f60" stroke="#b61f60" stroke-width="1.51"></path><path d="M332,-76L319,23L395,-16Z" fill="#cb4789" stroke="#cb4789" stroke-width="1.51"></path><path d="M319,23L247,115L332,83Z" fill="#c32d6f" stroke="#c32d6f" stroke-width="1.51"></path><path d="M247,115L298,193L332,83Z" fill="#be2768" stroke="#be2768" stroke-width="1.51"></path><path d="M236,-15L319,23L332,-76Z" fill="#cd488b" stroke="#cd488b" stroke-width="1.51"></path><path d="M213,-72L236,-15L332,-76Z" fill="#d15197" stroke="#d15197" stroke-width="1.51"></path><path d="M298,193L240,270L306,273Z" fill="#b82162" stroke="#b82162" stroke-width="1.51"></path><path d="M236,-15L247,115L319,23Z" fill="#c7387a" stroke="#c7387a" stroke-width="1.51"></path><path d="M247,115L220,177L298,193Z" fill="#be2668" stroke="#be2668" stroke-width="1.51"></path><path d="M55,244L-96,279L158,272Z" fill="#c63c7e" stroke="#c63c7e" stroke-width="1.51"></path><path d="M220,177L240,270L298,193Z" fill="#bb2465" stroke="#bb2465" stroke-width="1.51"></path><path d="M-58,260L-96,279L55,244Z" fill="#cb4a8d" stroke="#cb4a8d" stroke-width="1.51"></path><path d="M148,-36L122,80L236,-15Z" fill="#ce4487" stroke="#ce4487" stroke-width="1.51"></path><path d="M220,177L158,272L240,270Z" fill="#bb2465" stroke="#bb2465" stroke-width="1.51"></path><path d="M120,156L220,177L247,115Z" fill="#c12a6b" stroke="#c12a6b" stroke-width="1.51"></path><path d="M122,80L120,156L247,115Z" fill="#c52c6f" stroke="#c52c6f" stroke-width="1.51"></path><path d="M236,-15L122,80L247,115Z" fill="#c83477" stroke="#c83477" stroke-width="1.51"></path><path d="M213,-72L148,-36L236,-15Z" fill="#d24f95" stroke="#d24f95" stroke-width="1.51"></path><path d="M120,156L158,272L220,177Z" fill="#c0286a" stroke="#c0286a" stroke-width="1.51"></path><path d="M117,-121L148,-36L213,-72Z" fill="#d759a2" stroke="#d759a2" stroke-width="1.51"></path><path d="M-115,-106L1,-66L117,-121Z" fill="#e177cb" stroke="#e177cb" stroke-width="1.51"></path><path d="M56,10L91,59L148,-36Z" fill="#d34d93" stroke="#d34d93" stroke-width="1.51"></path><path d="M117,-121L83,-73L148,-36Z" fill="#d95faa" stroke="#d95faa" stroke-width="1.51"></path><path d="M91,59L122,80L148,-36Z" fill="#cf4487" stroke="#cf4487" stroke-width="1.51"></path><path d="M120,156L76,192L158,272Z" fill="#c32f70" stroke="#c32f70" stroke-width="1.51"></path><path d="M76,192L55,244L158,272Z" fill="#c33374" stroke="#c33374" stroke-width="1.51"></path><path d="M83,-73L56,10L148,-36Z" fill="#d759a1" stroke="#d759a1" stroke-width="1.51"></path><path d="M91,59L-10,101L120,156Z" fill="#cc3f81" stroke="#cc3f81" stroke-width="1.51"></path><path d="M-10,101L76,192L120,156Z" fill="#ca3d80" stroke="#ca3d80" stroke-width="1.51"></path><path d="M91,59L120,156L122,80Z" fill="#ca3678" stroke="#ca3678" stroke-width="1.51"></path><path d="M1,-66L83,-73L117,-121Z" fill="#dd6ab8" stroke="#dd6ab8" stroke-width="1.51"></path><path d="M-10,101L-21,172L76,192Z" fill="#cd4689" stroke="#cd4689" stroke-width="1.51"></path><path d="M1,-66L56,10L83,-73Z" fill="#db63af" stroke="#db63af" stroke-width="1.51"></path><path d="M56,10L-10,101L91,59Z" fill="#d24b90" stroke="#d24b90" stroke-width="1.51"></path><path d="M-21,172L55,244L76,192Z" fill="#c94082" stroke="#c94082" stroke-width="1.51"></path><path d="M-21,172L-58,260L55,244Z" fill="#cb478a" stroke="#cb478a" stroke-width="1.51"></path><path d="M1,-66L-29,7L56,10Z" fill="#db63af" stroke="#db63af" stroke-width="1.51"></path><path d="M-29,7L-10,101L56,10Z" fill="#d6569e" stroke="#d6569e" stroke-width="1.51"></path><path d="M-29,7L-87,97L-10,101Z" fill="#d758a0" stroke="#d758a0" stroke-width="1.51"></path><path d="M-104,-1L-29,7L1,-66Z" fill="#de6dbc" stroke="#de6dbc" stroke-width="1.51"></path><path d="M-115,-106L-104,-1L1,-66Z" fill="#e27acf" stroke="#e27acf" stroke-width="1.51"></path><path d="M-87,97L-21,172L-10,101Z" fill="#d35197" stroke="#d35197" stroke-width="1.51"></path><path d="M-104,-1L-87,97L-29,7Z" fill="#db65b2" stroke="#db65b2" stroke-width="1.51"></path><path d="M-148,190L-58,260L-21,172Z" fill="#d0549a" stroke="#d0549a" stroke-width="1.51"></path><path d="M-87,97L-148,190L-21,172Z" fill="#d4589f" stroke="#d4589f" stroke-width="1.51"></path><path d="M-148,190L-96,279L-58,260Z" fill="#d0579d" stroke="#d0579d" stroke-width="1.51"></path><path d="M-104,-1L-148,190L-87,97Z" fill="#d95fa9" stroke="#d95fa9" stroke-width="1.51"></path><path d="M-115,-106L-148,190L-104,-1Z" fill="#de6fbf" stroke="#de6fbf" stroke-width="1.51"></path></svg>