<svg width="300" height="176" xmlns="http://www.w3.org/2000/svg"><path d="M177,68L211,91L210,18Z" fill="#c83577" stroke="#c83577" stroke-width="1.51"></path><path d="M210,18L122,7L177,68Z" fill="#cc3e81" stroke="#cc3e81" stroke-width="1.51"></path><path d="M61,63L165,147L177,68Z" fill="#c83274" stroke="#c83274" stroke-width="1.51"></path><path d="M177,68L165,147L211,91Z" fill="#c52c6e" stroke="#c52c6e" stroke-width="1.51"></path><path d="M212,207L312,90L211,91Z" fill="#c0296a" stroke="#c0296a" stroke-width="1.51"></path><path d="M211,91L312,90L210,18Z" fill="#c63173" stroke="#c63173" stroke-width="1.51"></path><path d="M210,18L162,-59L122,7Z" fill="#d14a8e" stroke="#d14a8e" stroke-width="1.51"></path><path d="M206,-123L162,-59L210,18Z" fill="#d4539a" stroke="#d4539a" stroke-width="1.51"></path><path d="M312,90L344,31L210,18Z" fill="#c63677" stroke="#c63677" stroke-width="1.51"></path><path d="M122,7L61,63L177,68Z" fill="#ce4184" stroke="#ce4184" stroke-width="1.51"></path><path d="M44,21L61,63L122,7Z" fill="#d34d92" stroke="#d34d92" stroke-width="1.51"></path><path d="M165,147L212,207L211,91Z" fill="#c12a6b" stroke="#c12a6b" stroke-width="1.51"></path><path d="M162,264L212,207L165,147Z" fill="#bf2769" stroke="#bf2769" stroke-width="1.51"></path><path d="M39,-105L44,21L122,7Z" fill="#d85ba5" stroke="#d85ba5" stroke-width="1.51"></path><path d="M162,-59L39,-105L122,7Z" fill="#d75ba4" stroke="#d75ba4" stroke-width="1.51"></path><path d="M342,-76L206,-123L210,18Z" fill="#d25398" stroke="#d25398" stroke-width="1.51"></path><path d="M344,31L342,-76L210,18Z" fill="#cb4588" stroke="#cb4588" stroke-width="1.51"></path><path d="M212,207L331,203L312,90Z" fill="#bd2567" stroke="#bd2567" stroke-width="1.51"></path><path d="M312,90L436,54L344,31Z" fill="#c12f70" stroke="#c12f70" stroke-width="1.51"></path><path d="M162,264L237,239L212,207Z" fill="#bc2466" stroke="#bc2466" stroke-width="1.51"></path><path d="M237,239L331,203L212,207Z" fill="#bb2365" stroke="#bb2365" stroke-width="1.51"></path><path d="M344,31L387,-67L342,-76Z" fill="#cb4a8e" stroke="#cb4a8e" stroke-width="1.51"></path><path d="M342,-76L387,-67L206,-123Z" fill="#d2589f" stroke="#d2589f" stroke-width="1.51"></path><path d="M449,-27L387,-67L344,31Z" fill="#c94487" stroke="#c94487" stroke-width="1.51"></path><path d="M42,234L162,264L165,147Z" fill="#c22e6f" stroke="#c22e6f" stroke-width="1.51"></path><path d="M61,63L30,187L165,147Z" fill="#ca397c" stroke="#ca397c" stroke-width="1.51"></path><path d="M-7,171L30,187L61,63Z" fill="#cd4487" stroke="#cd4487" stroke-width="1.51"></path><path d="M420,168L436,54L312,90Z" fill="#bc2466" stroke="#bc2466" stroke-width="1.51"></path><path d="M44,21L-47,59L61,63Z" fill="#d55299" stroke="#d55299" stroke-width="1.51"></path><path d="M206,-123L39,-105L162,-59Z" fill="#d961ab" stroke="#d961ab" stroke-width="1.51"></path><path d="M39,-105L-22,7L44,21Z" fill="#db64af" stroke="#db64af" stroke-width="1.51"></path><path d="M331,203L420,168L312,90Z" fill="#ba2364" stroke="#ba2364" stroke-width="1.51"></path><path d="M30,187L42,234L165,147Z" fill="#c7387a" stroke="#c7387a" stroke-width="1.51"></path><path d="M-7,171L42,234L30,187Z" fill="#ca4385" stroke="#ca4385" stroke-width="1.51"></path><path d="M-47,59L-7,171L61,63Z" fill="#d14b90" stroke="#d14b90" stroke-width="1.51"></path><path d="M436,54L449,-27L344,31Z" fill="#c4397a" stroke="#c4397a" stroke-width="1.51"></path><path d="M420,168L449,-27L436,54Z" fill="#be2b6c" stroke="#be2b6c" stroke-width="1.51"></path><path d="M-22,7L-47,59L44,21Z" fill="#d85ba5" stroke="#d85ba5" stroke-width="1.51"></path><path d="M162,264L353,285L237,239Z" fill="#b92163" stroke="#b92163" stroke-width="1.51"></path><path d="M237,239L353,285L331,203Z" fill="#b72061" stroke="#b72061" stroke-width="1.51"></path><path d="M331,203L405,266L420,168Z" fill="#b61f5f" stroke="#b61f5f" stroke-width="1.51"></path><path d="M353,285L405,266L331,203Z" fill="#b41d5e" stroke="#b41d5e" stroke-width="1.51"></path><path d="M-22,7L-137,-23L-47,59Z" fill="#dd69b7" stroke="#dd69b7" stroke-width="1.51"></path><path d="M39,-105L-57,-87L-22,7Z" fill="#e072c2" stroke="#e072c2" stroke-width="1.51"></path><path d="M39,-105L-99,-114L-57,-87Z" fill="#e37fd6" stroke="#e37fd6" stroke-width="1.51"></path><path d="M-57,-87L-137,-23L-22,7Z" fill="#e175c7" stroke="#e175c7" stroke-width="1.51"></path><path d="M206,-123L-99,-114L39,-105Z" fill="#e073c5" stroke="#e073c5" stroke-width="1.51"></path><path d="M-99,-114L-137,-23L-57,-87Z" fill="#e482da" stroke="#e482da" stroke-width="1.51"></path><path d="M-47,59L-131,193L-7,171Z" fill="#d3549b" stroke="#d3549b" stroke-width="1.51"></path><path d="M-137,-23L-148,64L-47,59Z" fill="#dd6bbb" stroke="#dd6bbb" stroke-width="1.51"></path><path d="M-7,171L-55,300L42,234Z" fill="#ca4789" stroke="#ca4789" stroke-width="1.51"></path><path d="M-112,241L-55,300L-7,171Z" fill="#cd4f94" stroke="#cd4f94" stroke-width="1.51"></path><path d="M42,234L-55,300L162,264Z" fill="#c43b7b" stroke="#c43b7b" stroke-width="1.51"></path><path d="M162,264L-55,300L353,285Z" fill="#bb2465" stroke="#bb2465" stroke-width="1.51"></path><path d="M-148,64L-131,193L-47,59Z" fill="#d85ea8" stroke="#d85ea8" stroke-width="1.51"></path><path d="M-131,193L-112,241L-7,171Z" fill="#d1559c" stroke="#d1559c" stroke-width="1.51"></path></svg>