<svg width="300" height="176" xmlns="http://www.w3.org/2000/svg"><path d="M157,111L182,168L220,82Z" fill="#c32b6d" stroke="#c32b6d" stroke-width="1.51"></path><path d="M182,168L251,187L220,82Z" fill="#c0296a" stroke="#c0296a" stroke-width="1.51"></path><path d="M220,82L151,30L157,111Z" fill="#c83174" stroke="#c83174" stroke-width="1.51"></path><path d="M322,72L206,19L220,82Z" fill="#c73476" stroke="#c73476" stroke-width="1.51"></path><path d="M206,19L151,30L220,82Z" fill="#ca3a7c" stroke="#ca3a7c" stroke-width="1.51"></path><path d="M36,106L81,146L157,111Z" fill="#ca397b" stroke="#ca397b" stroke-width="1.51"></path><path d="M157,111L81,146L182,168Z" fill="#c52d70" stroke="#c52d70" stroke-width="1.51"></path><path d="M182,168L215,250L251,187Z" fill="#be2667" stroke="#be2667" stroke-width="1.51"></path><path d="M174,284L215,250L182,168Z" fill="#bd2567" stroke="#bd2567" stroke-width="1.51"></path><path d="M251,187L322,72L220,82Z" fill="#c1286a" stroke="#c1286a" stroke-width="1.51"></path><path d="M215,250L311,195L251,187Z" fill="#bb2465" stroke="#bb2465" stroke-width="1.51"></path><path d="M311,195L322,72L251,187Z" fill="#bd2567" stroke="#bd2567" stroke-width="1.51"></path><path d="M215,250L353,274L311,195Z" fill="#b82162" stroke="#b82162" stroke-width="1.51"></path><path d="M59,263L174,284L182,168Z" fill="#c0296a" stroke="#c0296a" stroke-width="1.51"></path><path d="M56,20L36,106L157,111Z" fill="#cd3f81" stroke="#cd3f81" stroke-width="1.51"></path><path d="M81,146L59,263L182,168Z" fill="#c53274" stroke="#c53274" stroke-width="1.51"></path><path d="M151,30L56,20L157,111Z" fill="#cd3e81" stroke="#cd3e81" stroke-width="1.51"></path><path d="M80,-95L56,20L151,30Z" fill="#d5549b" stroke="#d5549b" stroke-width="1.51"></path><path d="M322,72L320,-23L206,19Z" fill="#c83d7f" stroke="#c83d7f" stroke-width="1.51"></path><path d="M206,19L219,-64L151,30Z" fill="#cf478a" stroke="#cf478a" stroke-width="1.51"></path><path d="M320,-23L219,-64L206,19Z" fill="#cf4a8e" stroke="#cf4a8e" stroke-width="1.51"></path><path d="M-24,200L59,263L81,146Z" fill="#c93f82" stroke="#c93f82" stroke-width="1.51"></path><path d="M311,195L401,87L322,72Z" fill="#bd2567" stroke="#bd2567" stroke-width="1.51"></path><path d="M322,72L428,27L320,-23Z" fill="#c5397a" stroke="#c5397a" stroke-width="1.51"></path><path d="M36,106L-24,200L81,146Z" fill="#cd4386" stroke="#cd4386" stroke-width="1.51"></path><path d="M56,20L0,77L36,106Z" fill="#d24b90" stroke="#d24b90" stroke-width="1.51"></path><path d="M311,195L450,203L401,87Z" fill="#b82162" stroke="#b82162" stroke-width="1.51"></path><path d="M174,284L353,274L215,250Z" fill="#b82162" stroke="#b82162" stroke-width="1.51"></path><path d="M404,-105L297,-87L320,-23Z" fill="#cf5299" stroke="#cf5299" stroke-width="1.51"></path><path d="M320,-23L297,-87L219,-64Z" fill="#d05197" stroke="#d05197" stroke-width="1.51"></path><path d="M0,77L-24,200L36,106Z" fill="#cf498d" stroke="#cf498d" stroke-width="1.51"></path><path d="M297,-87L160,-116L219,-64Z" fill="#d65aa3" stroke="#d65aa3" stroke-width="1.51"></path><path d="M219,-64L160,-116L151,30Z" fill="#d45299" stroke="#d45299" stroke-width="1.51"></path><path d="M56,20L-43,-8L0,77Z" fill="#d759a2" stroke="#d759a2" stroke-width="1.51"></path><path d="M401,87L428,27L322,72Z" fill="#c12e6f" stroke="#c12e6f" stroke-width="1.51"></path><path d="M450,203L428,27L401,87Z" fill="#ba2364" stroke="#ba2364" stroke-width="1.51"></path><path d="M160,-116L80,-95L151,30Z" fill="#d759a2" stroke="#d759a2" stroke-width="1.51"></path><path d="M353,274L450,203L311,195Z" fill="#b61e60" stroke="#b61e60" stroke-width="1.51"></path><path d="M353,274L435,275L450,203Z" fill="#b21b5c" stroke="#b21b5c" stroke-width="1.51"></path><path d="M174,284L435,275L353,274Z" fill="#b51d5f" stroke="#b51d5f" stroke-width="1.51"></path><path d="M80,-95L-4,-61L56,20Z" fill="#db64b0" stroke="#db64b0" stroke-width="1.51"></path><path d="M0,77L-88,107L-24,200Z" fill="#d25196" stroke="#d25196" stroke-width="1.51"></path><path d="M-4,-61L-43,-8L56,20Z" fill="#db64b0" stroke="#db64b0" stroke-width="1.51"></path><path d="M-43,-8L-88,107L0,77Z" fill="#d75ba3" stroke="#d75ba3" stroke-width="1.51"></path><path d="M-24,200L-49,285L59,263Z" fill="#c94588" stroke="#c94588" stroke-width="1.51"></path><path d="M59,263L-49,285L174,284Z" fill="#c33878" stroke="#c33878" stroke-width="1.51"></path><path d="M-96,194L-49,285L-24,200Z" fill="#ce5095" stroke="#ce5095" stroke-width="1.51"></path><path d="M-88,107L-96,194L-24,200Z" fill="#d2559b" stroke="#d2559b" stroke-width="1.51"></path><path d="M428,27L404,-105L320,-23Z" fill="#ca488b" stroke="#ca488b" stroke-width="1.51"></path><path d="M297,-87L404,-105L160,-116Z" fill="#d45ca5" stroke="#d45ca5" stroke-width="1.51"></path><path d="M-96,194L-100,295L-49,285Z" fill="#ce5398" stroke="#ce5398" stroke-width="1.51"></path><path d="M-49,285L-100,295L174,284Z" fill="#c64283" stroke="#c64283" stroke-width="1.51"></path><path d="M174,284L-100,295L435,275Z" fill="#ba2364" stroke="#ba2364" stroke-width="1.51"></path><path d="M-88,107L-112,-35L-96,194Z" fill="#d95da6" stroke="#d95da6" stroke-width="1.51"></path><path d="M-96,194L-112,-35L-100,295Z" fill="#d55aa3" stroke="#d55aa3" stroke-width="1.51"></path><path d="M-43,-8L-112,-35L-88,107Z" fill="#dd69b8" stroke="#dd69b8" stroke-width="1.51"></path><path d="M-91,-93L-112,-35L-43,-8Z" fill="#e179cd" stroke="#e179cd" stroke-width="1.51"></path><path d="M-91,-93L-43,-8L-4,-61Z" fill="#e074c7" stroke="#e074c7" stroke-width="1.51"></path><path d="M80,-95L-91,-93L-4,-61Z" fill="#e075c7" stroke="#e075c7" stroke-width="1.51"></path><path d="M160,-116L-91,-93L80,-95Z" fill="#df70c1" stroke="#df70c1" stroke-width="1.51"></path></svg>