<svg width="300" height="176" xmlns="http://www.w3.org/2000/svg"><path d="M40,273L-109,285L209,288Z" fill="#c43b7b" stroke="#c43b7b" stroke-width="1.51"></path><path d="M401,70L351,175L435,199Z" fill="#b92263" stroke="#b92263" stroke-width="1.51"></path><path d="M434,-23L401,70L435,199Z" fill="#bc2667" stroke="#bc2667" stroke-width="1.51"></path><path d="M116,-112L235,-93L447,-70Z" fill="#d45aa2" stroke="#d45aa2" stroke-width="1.51"></path><path d="M235,-93L298,-79L447,-70Z" fill="#d1559c" stroke="#d1559c" stroke-width="1.51"></path><path d="M298,-79L434,-23L447,-70Z" fill="#cc4e92" stroke="#cc4e92" stroke-width="1.51"></path><path d="M434,-23L435,199L447,-70Z" fill="#c13474" stroke="#c13474" stroke-width="1.51"></path><path d="M435,199L435,234L447,-70Z" fill="#b92263" stroke="#b92263" stroke-width="1.51"></path><path d="M323,16L401,70L434,-23Z" fill="#c4397a" stroke="#c4397a" stroke-width="1.51"></path><path d="M298,-79L323,16L434,-23Z" fill="#cb488b" stroke="#cb488b" stroke-width="1.51"></path><path d="M435,199L351,175L435,234Z" fill="#b61e60" stroke="#b61e60" stroke-width="1.51"></path><path d="M351,175L355,278L435,234Z" fill="#b51e5f" stroke="#b51e5f" stroke-width="1.51"></path><path d="M330,84L351,175L401,70Z" fill="#bd2566" stroke="#bd2566" stroke-width="1.51"></path><path d="M323,16L330,84L401,70Z" fill="#c23071" stroke="#c23071" stroke-width="1.51"></path><path d="M330,84L236,150L351,175Z" fill="#bd2667" stroke="#bd2667" stroke-width="1.51"></path><path d="M351,175L236,150L355,278Z" fill="#b92263" stroke="#b92263" stroke-width="1.51"></path><path d="M236,150L209,288L355,278Z" fill="#ba2263" stroke="#ba2263" stroke-width="1.51"></path><path d="M298,-79L239,-3L323,16Z" fill="#cd488c" stroke="#cd488c" stroke-width="1.51"></path><path d="M323,16L239,-3L330,84Z" fill="#c73a7b" stroke="#c73a7b" stroke-width="1.51"></path><path d="M239,-3L209,119L330,84Z" fill="#c53173" stroke="#c53173" stroke-width="1.51"></path><path d="M209,119L236,150L330,84Z" fill="#c1296b" stroke="#c1296b" stroke-width="1.51"></path><path d="M235,-93L239,-3L298,-79Z" fill="#d15298" stroke="#d15298" stroke-width="1.51"></path><path d="M133,245L209,288L236,150Z" fill="#bd2567" stroke="#bd2567" stroke-width="1.51"></path><path d="M155,145L133,245L236,150Z" fill="#c0286a" stroke="#c0286a" stroke-width="1.51"></path><path d="M150,75L209,119L239,-3Z" fill="#c83376" stroke="#c83376" stroke-width="1.51"></path><path d="M144,-25L150,75L239,-3Z" fill="#ce4285" stroke="#ce4285" stroke-width="1.51"></path><path d="M235,-93L144,-25L239,-3Z" fill="#d24f94" stroke="#d24f94" stroke-width="1.51"></path><path d="M209,119L155,145L236,150Z" fill="#c22a6c" stroke="#c22a6c" stroke-width="1.51"></path><path d="M116,-112L144,-25L235,-93Z" fill="#d759a2" stroke="#d759a2" stroke-width="1.51"></path><path d="M-11,266L-109,285L40,273Z" fill="#c9488b" stroke="#c9488b" stroke-width="1.51"></path><path d="M150,75L155,145L209,119Z" fill="#c42c6e" stroke="#c42c6e" stroke-width="1.51"></path><path d="M133,245L40,273L209,288Z" fill="#bf2a6b" stroke="#bf2a6b" stroke-width="1.51"></path><path d="M-47,-102L69,-85L116,-112Z" fill="#df71c1" stroke="#df71c1" stroke-width="1.51"></path><path d="M92,114L31,152L133,245Z" fill="#c73879" stroke="#c73879" stroke-width="1.51"></path><path d="M116,-112L69,-85L144,-25Z" fill="#d960ab" stroke="#d960ab" stroke-width="1.51"></path><path d="M144,-25L79,15L150,75Z" fill="#d0468a" stroke="#d0468a" stroke-width="1.51"></path><path d="M150,75L92,114L155,145Z" fill="#c73173" stroke="#c73173" stroke-width="1.51"></path><path d="M92,114L133,245L155,145Z" fill="#c52f71" stroke="#c52f71" stroke-width="1.51"></path><path d="M79,15L92,114L150,75Z" fill="#cd3d80" stroke="#cd3d80" stroke-width="1.51"></path><path d="M69,-85L79,15L144,-25Z" fill="#d758a0" stroke="#d758a0" stroke-width="1.51"></path><path d="M31,152L40,273L133,245Z" fill="#c5397a" stroke="#c5397a" stroke-width="1.51"></path><path d="M69,-85L1,-21L79,15Z" fill="#d960aa" stroke="#d960aa" stroke-width="1.51"></path><path d="M79,15L-33,102L92,114Z" fill="#d0468a" stroke="#d0468a" stroke-width="1.51"></path><path d="M-33,102L31,152L92,114Z" fill="#ce4488" stroke="#ce4488" stroke-width="1.51"></path><path d="M31,152L-11,266L40,273Z" fill="#c94284" stroke="#c94284" stroke-width="1.51"></path><path d="M1,-21L-33,102L79,15Z" fill="#d7579e" stroke="#d7579e" stroke-width="1.51"></path><path d="M-47,-102L1,-21L69,-85Z" fill="#df70c0" stroke="#df70c0" stroke-width="1.51"></path><path d="M-46,169L-11,266L31,152Z" fill="#cd498c" stroke="#cd498c" stroke-width="1.51"></path><path d="M-33,102L-46,169L31,152Z" fill="#d04d91" stroke="#d04d91" stroke-width="1.51"></path><path d="M-117,9L-114,64L-33,102Z" fill="#da62ad" stroke="#da62ad" stroke-width="1.51"></path><path d="M-117,9L-33,102L1,-21Z" fill="#db62ae" stroke="#db62ae" stroke-width="1.51"></path><path d="M-47,-102L-117,9L1,-21Z" fill="#e073c4" stroke="#e073c4" stroke-width="1.51"></path><path d="M-137,-66L-117,9L-47,-102Z" fill="#e37ed4" stroke="#e37ed4" stroke-width="1.51"></path><path d="M-46,169L-109,285L-11,266Z" fill="#cd4f93" stroke="#cd4f93" stroke-width="1.51"></path><path d="M-110,165L-109,285L-46,169Z" fill="#d1569d" stroke="#d1569d" stroke-width="1.51"></path><path d="M-110,165L-46,169L-33,102Z" fill="#d3549b" stroke="#d3549b" stroke-width="1.51"></path><path d="M-114,64L-110,165L-33,102Z" fill="#d65aa2" stroke="#d65aa2" stroke-width="1.51"></path><path d="M-110,165L-137,-66L-109,285Z" fill="#d75ea8" stroke="#d75ea8" stroke-width="1.51"></path><path d="M-114,64L-137,-66L-110,165Z" fill="#dc68b6" stroke="#dc68b6" stroke-width="1.51"></path><path d="M-117,9L-137,-66L-114,64Z" fill="#e174c7" stroke="#e174c7" stroke-width="1.51"></path></svg>