<svg width="300" height="176" xmlns="http://www.w3.org/2000/svg"><path d="M130,90L33,91L60,165Z" fill="#cf4a8f" stroke="#cf4a8f" stroke-width="1.51"></path><path d="M60,165L167,202L130,90Z" fill="#c33475" stroke="#c33475" stroke-width="1.51"></path><path d="M33,91L-51,188L60,165Z" fill="#d25ca5" stroke="#d25ca5" stroke-width="1.51"></path><path d="M41,-5L-29,57L33,91Z" fill="#e27acf" stroke="#e27acf" stroke-width="1.51"></path><path d="M130,90L41,-5L33,91Z" fill="#da62ad" stroke="#da62ad" stroke-width="1.51"></path><path d="M215,-19L119,-22L130,90Z" fill="#d85ea8" stroke="#d85ea8" stroke-width="1.51"></path><path d="M130,90L119,-22L41,-5Z" fill="#de6ebe" stroke="#de6ebe" stroke-width="1.51"></path><path d="M-29,57L-51,188L33,91Z" fill="#d965b2" stroke="#d965b2" stroke-width="1.51"></path><path d="M60,165L52,290L167,202Z" fill="#c33c7c" stroke="#c33c7c" stroke-width="1.51"></path><path d="M253,160L234,57L130,90Z" fill="#c0286a" stroke="#c0286a" stroke-width="1.51"></path><path d="M72,-63L-5,-26L41,-5Z" fill="#e78eed" stroke="#e78eed" stroke-width="1.51"></path><path d="M41,-5L-5,-26L-29,57Z" fill="#e894f6" stroke="#e894f6" stroke-width="1.51"></path><path d="M167,202L253,160L130,90Z" fill="#ba2364" stroke="#ba2364" stroke-width="1.51"></path><path d="M-46,253L52,290L60,165Z" fill="#cd569d" stroke="#cd569d" stroke-width="1.51"></path><path d="M167,202L241,258L253,160Z" fill="#b41c5e" stroke="#b41c5e" stroke-width="1.51"></path><path d="M119,-22L72,-63L41,-5Z" fill="#e480d8" stroke="#e480d8" stroke-width="1.51"></path><path d="M150,-89L72,-63L119,-22Z" fill="#e074c7" stroke="#e074c7" stroke-width="1.51"></path><path d="M-51,188L-46,253L60,165Z" fill="#d05ea7" stroke="#d05ea7" stroke-width="1.51"></path><path d="M234,57L215,-19L130,90Z" fill="#d04b90" stroke="#d04b90" stroke-width="1.51"></path><path d="M52,290L163,286L167,202Z" fill="#be2e6e" stroke="#be2e6e" stroke-width="1.51"></path><path d="M-51,188L-110,187L-46,253Z" fill="#d05ea7" stroke="#d05ea7" stroke-width="1.51"></path><path d="M-148,108L-110,187L-51,188Z" fill="#d260a9" stroke="#d260a9" stroke-width="1.51"></path><path d="M-148,108L-51,188L-29,57Z" fill="#d864b0" stroke="#d864b0" stroke-width="1.51"></path><path d="M163,286L241,258L167,202Z" fill="#b61f60" stroke="#b61f60" stroke-width="1.51"></path><path d="M215,-19L150,-89L119,-22Z" fill="#db67b4" stroke="#db67b4" stroke-width="1.51"></path><path d="M305,146L299,119L253,160Z" fill="#b31b5d" stroke="#b31b5d" stroke-width="1.51"></path><path d="M253,160L299,119L234,57Z" fill="#ba2263" stroke="#ba2263" stroke-width="1.51"></path><path d="M234,57L307,26L215,-19Z" fill="#cf549b" stroke="#cf549b" stroke-width="1.51"></path><path d="M241,258L305,146L253,160Z" fill="#b0185a" stroke="#b0185a" stroke-width="1.51"></path><path d="M-5,-26L-125,16L-29,57Z" fill="#e891f1" stroke="#e891f1" stroke-width="1.51"></path><path d="M-146,-74L-125,16L-5,-26Z" fill="#e99aff" stroke="#e99aff" stroke-width="1.51"></path><path d="M-125,16L-148,108L-29,57Z" fill="#e178cc" stroke="#e178cc" stroke-width="1.51"></path><path d="M215,-19L206,-119L150,-89Z" fill="#d965b2" stroke="#d965b2" stroke-width="1.51"></path><path d="M299,119L307,26L234,57Z" fill="#c13474" stroke="#c13474" stroke-width="1.51"></path><path d="M393,28L307,26L299,119Z" fill="#c33a7b" stroke="#c33a7b" stroke-width="1.51"></path><path d="M331,-90L206,-119L215,-19Z" fill="#d461ac" stroke="#d461ac" stroke-width="1.51"></path><path d="M150,-89L-57,-117L72,-63Z" fill="#e688e4" stroke="#e688e4" stroke-width="1.51"></path><path d="M72,-63L-57,-117L-5,-26Z" fill="#e999fd" stroke="#e999fd" stroke-width="1.51"></path><path d="M206,-119L-57,-117L150,-89Z" fill="#e279cd" stroke="#e279cd" stroke-width="1.51"></path><path d="M-110,187L-152,277L-46,253Z" fill="#d05ea7" stroke="#d05ea7" stroke-width="1.51"></path><path d="M-46,253L-152,277L52,290Z" fill="#d05ea7" stroke="#d05ea7" stroke-width="1.51"></path><path d="M-148,108L-152,277L-110,187Z" fill="#d05ea7" stroke="#d05ea7" stroke-width="1.51"></path><path d="M305,146L390,147L299,119Z" fill="#b21b5c" stroke="#b21b5c" stroke-width="1.51"></path><path d="M241,258L310,301L305,146Z" fill="#ae1658" stroke="#ae1658" stroke-width="1.51"></path><path d="M163,286L310,301L241,258Z" fill="#b21a5c" stroke="#b21a5c" stroke-width="1.51"></path><path d="M52,290L310,301L163,286Z" fill="#b82062" stroke="#b82062" stroke-width="1.51"></path><path d="M-148,108L-146,-74L-152,277Z" fill="#da66b3" stroke="#da66b3" stroke-width="1.51"></path><path d="M-125,16L-146,-74L-148,108Z" fill="#e791f1" stroke="#e791f1" stroke-width="1.51"></path><path d="M-57,-117L-146,-74L-5,-26Z" fill="#e99aff" stroke="#e99aff" stroke-width="1.51"></path><path d="M412,244L390,147L305,146Z" fill="#ad1457" stroke="#ad1457" stroke-width="1.51"></path><path d="M393,28L331,-90L307,26Z" fill="#d05ea7" stroke="#d05ea7" stroke-width="1.51"></path><path d="M307,26L331,-90L215,-19Z" fill="#d15fa9" stroke="#d15fa9" stroke-width="1.51"></path><path d="M390,147L393,28L299,119Z" fill="#b82062" stroke="#b82062" stroke-width="1.51"></path><path d="M393,28L400,-108L331,-90Z" fill="#d05ea7" stroke="#d05ea7" stroke-width="1.51"></path><path d="M390,147L428,93L393,28Z" fill="#ba2264" stroke="#ba2264" stroke-width="1.51"></path><path d="M412,244L428,93L390,147Z" fill="#af1759" stroke="#af1759" stroke-width="1.51"></path><path d="M310,301L412,244L305,146Z" fill="#ad1457" stroke="#ad1457" stroke-width="1.51"></path><path d="M428,93L400,-108L393,28Z" fill="#cf5ca4" stroke="#cf5ca4" stroke-width="1.51"></path><path d="M331,-90L400,-108L206,-119Z" fill="#d05ea7" stroke="#d05ea7" stroke-width="1.51"></path></svg>