<svg width="300" height="176" xmlns="http://www.w3.org/2000/svg"><path d="M74,273L-58,287L172,283Z" fill="#c53673" stroke="#c53673" stroke-width="1.51"></path><path d="M172,283L-58,287L325,297Z" fill="#bc2466" stroke="#bc2466" stroke-width="1.51"></path><path d="M398,-34L345,13L416,100Z" fill="#c53674" stroke="#c53674" stroke-width="1.51"></path><path d="M345,13L358,80L416,100Z" fill="#c12d6c" stroke="#c12d6c" stroke-width="1.51"></path><path d="M67,-119L214,-101L448,-83Z" fill="#dc5996" stroke="#dc5996" stroke-width="1.51"></path><path d="M214,-101L340,-70L448,-83Z" fill="#d6538e" stroke="#d6538e" stroke-width="1.51"></path><path d="M340,-70L398,-34L448,-83Z" fill="#d14c87" stroke="#d14c87" stroke-width="1.51"></path><path d="M398,-34L416,100L448,-83Z" fill="#c93e7a" stroke="#c93e7a" stroke-width="1.51"></path><path d="M416,100L422,179L448,-83Z" fill="#bf2a6a" stroke="#bf2a6a" stroke-width="1.51"></path><path d="M358,80L312,167L416,100Z" fill="#bc2566" stroke="#bc2566" stroke-width="1.51"></path><path d="M325,297L406,295L422,179Z" fill="#b31c5d" stroke="#b31c5d" stroke-width="1.51"></path><path d="M312,167L325,297L422,179Z" fill="#b71f61" stroke="#b71f61" stroke-width="1.51"></path><path d="M416,100L312,167L422,179Z" fill="#ba2264" stroke="#ba2264" stroke-width="1.51"></path><path d="M340,-70L345,13L398,-34Z" fill="#ce4581" stroke="#ce4581" stroke-width="1.51"></path><path d="M312,167L240,208L325,297Z" fill="#b92163" stroke="#b92163" stroke-width="1.51"></path><path d="M340,-70L271,-1L345,13Z" fill="#ce4481" stroke="#ce4481" stroke-width="1.51"></path><path d="M345,13L262,72L358,80Z" fill="#c53271" stroke="#c53271" stroke-width="1.51"></path><path d="M262,72L312,167L358,80Z" fill="#bf2769" stroke="#bf2769" stroke-width="1.51"></path><path d="M271,-1L262,72L345,13Z" fill="#c93a78" stroke="#c93a78" stroke-width="1.51"></path><path d="M214,-101L271,-1L340,-70Z" fill="#d54f8b" stroke="#d54f8b" stroke-width="1.51"></path><path d="M211,251L172,283L325,297Z" fill="#b82162" stroke="#b82162" stroke-width="1.51"></path><path d="M240,208L211,251L325,297Z" fill="#b92163" stroke="#b92163" stroke-width="1.51"></path><path d="M262,72L240,208L312,167Z" fill="#be2768" stroke="#be2768" stroke-width="1.51"></path><path d="M67,-119L123,-90L214,-101Z" fill="#e15f9d" stroke="#e15f9d" stroke-width="1.51"></path><path d="M132,102L161,168L262,72Z" fill="#c42b6e" stroke="#c42b6e" stroke-width="1.51"></path><path d="M161,168L240,208L262,72Z" fill="#c0296a" stroke="#c0296a" stroke-width="1.51"></path><path d="M180,4L262,72L271,-1Z" fill="#cc3c7b" stroke="#cc3c7b" stroke-width="1.51"></path><path d="M214,-101L180,4L271,-1Z" fill="#d44a88" stroke="#d44a88" stroke-width="1.51"></path><path d="M180,4L132,102L262,72Z" fill="#ca3475" stroke="#ca3475" stroke-width="1.51"></path><path d="M161,168L211,251L240,208Z" fill="#be2667" stroke="#be2667" stroke-width="1.51"></path><path d="M161,168L172,283L211,251Z" fill="#bd2567" stroke="#bd2567" stroke-width="1.51"></path><path d="M123,-90L180,4L214,-101Z" fill="#da5390" stroke="#da5390" stroke-width="1.51"></path><path d="M76,-19L53,59L132,102Z" fill="#d34483" stroke="#d34483" stroke-width="1.51"></path><path d="M161,168L74,273L172,283Z" fill="#bf296a" stroke="#bf296a" stroke-width="1.51"></path><path d="M76,-19L132,102L180,4Z" fill="#d14180" stroke="#d14180" stroke-width="1.51"></path><path d="M123,-90L76,-19L180,4Z" fill="#da518f" stroke="#da518f" stroke-width="1.51"></path><path d="M47,175L74,273L161,168Z" fill="#c63472" stroke="#c63472" stroke-width="1.51"></path><path d="M132,102L47,175L161,168Z" fill="#c73273" stroke="#c73273" stroke-width="1.51"></path><path d="M53,59L47,175L132,102Z" fill="#cd3b7a" stroke="#cd3b7a" stroke-width="1.51"></path><path d="M67,-119L76,-19L123,-90Z" fill="#e2609e" stroke="#e2609e" stroke-width="1.51"></path><path d="M-33,91L47,175L53,59Z" fill="#d24583" stroke="#d24583" stroke-width="1.51"></path><path d="M-29,-111L-3,-21L67,-119Z" fill="#ea6eac" stroke="#ea6eac" stroke-width="1.51"></path><path d="M47,175L-51,191L74,273Z" fill="#cc407c" stroke="#cc407c" stroke-width="1.51"></path><path d="M-51,191L-58,287L74,273Z" fill="#cd4480" stroke="#cd4480" stroke-width="1.51"></path><path d="M67,-119L-3,-21L76,-19Z" fill="#e362a0" stroke="#e362a0" stroke-width="1.51"></path><path d="M-3,-21L53,59L76,-19Z" fill="#dc5593" stroke="#dc5593" stroke-width="1.51"></path><path d="M-33,91L-51,191L47,175Z" fill="#d34886" stroke="#d34886" stroke-width="1.51"></path><path d="M-3,-21L-33,91L53,59Z" fill="#db5391" stroke="#db5391" stroke-width="1.51"></path><path d="M-29,-111L-129,-15L-3,-21Z" fill="#eb70af" stroke="#eb70af" stroke-width="1.51"></path><path d="M-129,-15L-33,91L-3,-21Z" fill="#e362a0" stroke="#e362a0" stroke-width="1.51"></path><path d="M-129,-15L-150,54L-33,91Z" fill="#e464a2" stroke="#e464a2" stroke-width="1.51"></path><path d="M-151,169L-51,191L-33,91Z" fill="#d95490" stroke="#d95490" stroke-width="1.51"></path><path d="M-152,-75L-129,-15L-29,-111Z" fill="#f27cbb" stroke="#f27cbb" stroke-width="1.51"></path><path d="M-154,251L-58,287L-51,191Z" fill="#d4518c" stroke="#d4518c" stroke-width="1.51"></path><path d="M-150,54L-151,169L-33,91Z" fill="#de5b98" stroke="#de5b98" stroke-width="1.51"></path><path d="M-151,169L-154,251L-51,191Z" fill="#da5893" stroke="#da5893" stroke-width="1.51"></path><path d="M-152,-75L-150,54L-129,-15Z" fill="#ef76b5" stroke="#ef76b5" stroke-width="1.51"></path><path d="M-154,251L-151,169L-150,54Z" fill="#df5f9b" stroke="#df5f9b" stroke-width="1.51"></path><path d="M-152,-75L-154,251L-150,54Z" fill="#e564a3" stroke="#e564a3" stroke-width="1.51"></path></svg>