<svg width="300" height="176" xmlns="http://www.w3.org/2000/svg"><path d="M155,56L126,25L46,61Z" fill="#d85aa3" stroke="#d85aa3" stroke-width="1.51"></path><path d="M46,61L92,152L155,56Z" fill="#cf4488" stroke="#cf4488" stroke-width="1.51"></path><path d="M126,25L40,29L46,61Z" fill="#de6dbc" stroke="#de6dbc" stroke-width="1.51"></path><path d="M40,29L-16,75L46,61Z" fill="#e073c5" stroke="#e073c5" stroke-width="1.51"></path><path d="M46,61L-5,152L92,152Z" fill="#d2559b" stroke="#d2559b" stroke-width="1.51"></path><path d="M92,152L176,171L155,56Z" fill="#c32d6f" stroke="#c32d6f" stroke-width="1.51"></path><path d="M-16,75L-5,152L46,61Z" fill="#da64b1" stroke="#da64b1" stroke-width="1.51"></path><path d="M92,152L139,266L176,171Z" fill="#bd2a6a" stroke="#bd2a6a" stroke-width="1.51"></path><path d="M176,171L254,113L155,56Z" fill="#bf2769" stroke="#bf2769" stroke-width="1.51"></path><path d="M155,56L260,1L126,25Z" fill="#d4559d" stroke="#d4559d" stroke-width="1.51"></path><path d="M-16,75L-89,116L-5,152Z" fill="#d865b1" stroke="#d865b1" stroke-width="1.51"></path><path d="M40,29L-42,7L-16,75Z" fill="#e585e0" stroke="#e585e0" stroke-width="1.51"></path><path d="M37,-73L-42,7L40,29Z" fill="#e996f9" stroke="#e996f9" stroke-width="1.51"></path><path d="M126,25L37,-73L40,29Z" fill="#e484dd" stroke="#e484dd" stroke-width="1.51"></path><path d="M128,-125L37,-73L126,25Z" fill="#e27acf" stroke="#e27acf" stroke-width="1.51"></path><path d="M254,113L260,1L155,56Z" fill="#c94082" stroke="#c94082" stroke-width="1.51"></path><path d="M69,284L139,266L92,152Z" fill="#c2397a" stroke="#c2397a" stroke-width="1.51"></path><path d="M176,171L262,203L254,113Z" fill="#b51d5f" stroke="#b51d5f" stroke-width="1.51"></path><path d="M-5,152L69,284L92,152Z" fill="#c94c8f" stroke="#c94c8f" stroke-width="1.51"></path><path d="M-42,7L-89,116L-16,75Z" fill="#e175c7" stroke="#e175c7" stroke-width="1.51"></path><path d="M341,150L298,77L254,113Z" fill="#b61f60" stroke="#b61f60" stroke-width="1.51"></path><path d="M254,113L298,77L260,1Z" fill="#c33878" stroke="#c33878" stroke-width="1.51"></path><path d="M236,-103L128,-125L126,25Z" fill="#db67b4" stroke="#db67b4" stroke-width="1.51"></path><path d="M218,260L262,203L176,171Z" fill="#b41c5e" stroke="#b41c5e" stroke-width="1.51"></path><path d="M-44,294L69,284L-5,152Z" fill="#cf5ca4" stroke="#cf5ca4" stroke-width="1.51"></path><path d="M-89,116L-99,144L-5,152Z" fill="#d562ad" stroke="#d562ad" stroke-width="1.51"></path><path d="M-42,7L-88,-28L-89,116Z" fill="#e688e4" stroke="#e688e4" stroke-width="1.51"></path><path d="M37,-73L-4,-107L-42,7Z" fill="#e99aff" stroke="#e99aff" stroke-width="1.51"></path><path d="M128,-125L-4,-107L37,-73Z" fill="#e688e4" stroke="#e688e4" stroke-width="1.51"></path><path d="M-4,-107L-88,-28L-42,7Z" fill="#e99aff" stroke="#e99aff" stroke-width="1.51"></path><path d="M-89,116L-132,-111L-99,144Z" fill="#e37ed5" stroke="#e37ed5" stroke-width="1.51"></path><path d="M355,300L218,260L139,266Z" fill="#b21a5c" stroke="#b21a5c" stroke-width="1.51"></path><path d="M139,266L218,260L176,171Z" fill="#b72061" stroke="#b72061" stroke-width="1.51"></path><path d="M260,1L236,-103L126,25Z" fill="#d764b0" stroke="#d764b0" stroke-width="1.51"></path><path d="M350,-117L236,-103L260,1Z" fill="#d15fa9" stroke="#d15fa9" stroke-width="1.51"></path><path d="M298,77L328,25L260,1Z" fill="#c94a8d" stroke="#c94a8d" stroke-width="1.51"></path><path d="M403,106L328,25L298,77Z" fill="#bf3271" stroke="#bf3271" stroke-width="1.51"></path><path d="M262,203L341,150L254,113Z" fill="#b1195b" stroke="#b1195b" stroke-width="1.51"></path><path d="M390,195L341,150L262,203Z" fill="#ad1457" stroke="#ad1457" stroke-width="1.51"></path><path d="M-121,241L-44,294L-5,152Z" fill="#d05ea7" stroke="#d05ea7" stroke-width="1.51"></path><path d="M-99,144L-121,241L-5,152Z" fill="#d05ea7" stroke="#d05ea7" stroke-width="1.51"></path><path d="M-132,-111L-121,241L-99,144Z" fill="#dc67b5" stroke="#dc67b5" stroke-width="1.51"></path><path d="M-88,-28L-132,-111L-89,116Z" fill="#e99aff" stroke="#e99aff" stroke-width="1.51"></path><path d="M-4,-107L-132,-111L-88,-28Z" fill="#e99aff" stroke="#e99aff" stroke-width="1.51"></path><path d="M128,-125L-132,-111L-4,-107Z" fill="#e99aff" stroke="#e99aff" stroke-width="1.51"></path><path d="M390,195L403,106L341,150Z" fill="#b1195a" stroke="#b1195a" stroke-width="1.51"></path><path d="M341,150L403,106L298,77Z" fill="#b61f60" stroke="#b61f60" stroke-width="1.51"></path><path d="M328,25L350,-117L260,1Z" fill="#d05ea7" stroke="#d05ea7" stroke-width="1.51"></path><path d="M355,300L390,195L262,203Z" fill="#ad1457" stroke="#ad1457" stroke-width="1.51"></path><path d="M403,106L411,30L328,25Z" fill="#c33d7d" stroke="#c33d7d" stroke-width="1.51"></path><path d="M396,-91L350,-117L328,25Z" fill="#d05ea7" stroke="#d05ea7" stroke-width="1.51"></path><path d="M236,-103L350,-117L128,-125Z" fill="#d562ad" stroke="#d562ad" stroke-width="1.51"></path><path d="M-44,294L355,300L69,284Z" fill="#be2e6e" stroke="#be2e6e" stroke-width="1.51"></path><path d="M69,284L355,300L139,266Z" fill="#b61f60" stroke="#b61f60" stroke-width="1.51"></path><path d="M218,260L355,300L262,203Z" fill="#af1659" stroke="#af1659" stroke-width="1.51"></path><path d="M411,30L396,-91L328,25Z" fill="#d05ea7" stroke="#d05ea7" stroke-width="1.51"></path><path d="M355,300L449,246L390,195Z" fill="#ad1457" stroke="#ad1457" stroke-width="1.51"></path><path d="M390,195L449,246L403,106Z" fill="#ad1457" stroke="#ad1457" stroke-width="1.51"></path><path d="M403,106L449,246L411,30Z" fill="#b41c5e" stroke="#b41c5e" stroke-width="1.51"></path><path d="M411,30L449,246L396,-91Z" fill="#c13777" stroke="#c13777" stroke-width="1.51"></path></svg>