<svg width="300" height="176" xmlns="http://www.w3.org/2000/svg"><path d="M130,102L150,24L88,12Z" fill="#ce4083" stroke="#ce4083" stroke-width="1.51"></path><path d="M88,12L37,61L130,102Z" fill="#cf4487" stroke="#cf4487" stroke-width="1.51"></path><path d="M150,24L70,-65L88,12Z" fill="#d45298" stroke="#d45298" stroke-width="1.51"></path><path d="M265,57L216,-2L150,24Z" fill="#cb3e81" stroke="#cb3e81" stroke-width="1.51"></path><path d="M116,-115L70,-65L150,24Z" fill="#d85aa3" stroke="#d85aa3" stroke-width="1.51"></path><path d="M88,12L-25,-30L37,61Z" fill="#d758a0" stroke="#d758a0" stroke-width="1.51"></path><path d="M37,61L46,191L130,102Z" fill="#cc3d80" stroke="#cc3d80" stroke-width="1.51"></path><path d="M-102,25L-10,110L37,61Z" fill="#d6569d" stroke="#d6569d" stroke-width="1.51"></path><path d="M130,102L265,57L150,24Z" fill="#c93577" stroke="#c93577" stroke-width="1.51"></path><path d="M46,191L135,200L130,102Z" fill="#c63476" stroke="#c63476" stroke-width="1.51"></path><path d="M-10,110L46,191L37,61Z" fill="#cf4689" stroke="#cf4689" stroke-width="1.51"></path><path d="M268,181L265,57L130,102Z" fill="#c22a6c" stroke="#c22a6c" stroke-width="1.51"></path><path d="M70,-65L-25,-30L88,12Z" fill="#da60aa" stroke="#da60aa" stroke-width="1.51"></path><path d="M-10,110L0,177L46,191Z" fill="#cd468a" stroke="#cd468a" stroke-width="1.51"></path><path d="M70,-65L-63,-104L-25,-30Z" fill="#df71c2" stroke="#df71c2" stroke-width="1.51"></path><path d="M216,-2L116,-115L150,24Z" fill="#d34e94" stroke="#d34e94" stroke-width="1.51"></path><path d="M135,200L268,181L130,102Z" fill="#c2296b" stroke="#c2296b" stroke-width="1.51"></path><path d="M216,-2L255,-120L116,-115Z" fill="#d659a1" stroke="#d659a1" stroke-width="1.51"></path><path d="M265,57L304,-22L216,-2Z" fill="#cb4083" stroke="#cb4083" stroke-width="1.51"></path><path d="M344,88L304,-22L265,57Z" fill="#c63678" stroke="#c63678" stroke-width="1.51"></path><path d="M135,200L273,267L268,181Z" fill="#bc2466" stroke="#bc2466" stroke-width="1.51"></path><path d="M46,191L130,267L135,200Z" fill="#c33273" stroke="#c33273" stroke-width="1.51"></path><path d="M56,285L130,267L46,191Z" fill="#c43677" stroke="#c43677" stroke-width="1.51"></path><path d="M-25,-30L-102,25L37,61Z" fill="#da62ad" stroke="#da62ad" stroke-width="1.51"></path><path d="M-142,169L-47,251L0,177Z" fill="#d05298" stroke="#d05298" stroke-width="1.51"></path><path d="M304,-22L255,-120L216,-2Z" fill="#d15095" stroke="#d15095" stroke-width="1.51"></path><path d="M327,162L344,88L265,57Z" fill="#bf2869" stroke="#bf2869" stroke-width="1.51"></path><path d="M-47,251L46,191L0,177Z" fill="#cb4689" stroke="#cb4689" stroke-width="1.51"></path><path d="M-47,251L56,285L46,191Z" fill="#c84184" stroke="#c84184" stroke-width="1.51"></path><path d="M116,-115L-63,-104L70,-65Z" fill="#df70c1" stroke="#df70c1" stroke-width="1.51"></path><path d="M-25,-30L-120,-82L-102,25Z" fill="#e075c8" stroke="#e075c8" stroke-width="1.51"></path><path d="M268,181L327,162L265,57Z" fill="#bf2769" stroke="#bf2769" stroke-width="1.51"></path><path d="M273,267L327,162L268,181Z" fill="#ba2364" stroke="#ba2364" stroke-width="1.51"></path><path d="M-142,169L0,177L-10,110Z" fill="#d25298" stroke="#d25298" stroke-width="1.51"></path><path d="M-120,-82L-142,65L-102,25Z" fill="#e074c6" stroke="#e074c6" stroke-width="1.51"></path><path d="M-102,25L-142,65L-10,110Z" fill="#da60aa" stroke="#da60aa" stroke-width="1.51"></path><path d="M315,300L273,267L130,267Z" fill="#b82062" stroke="#b82062" stroke-width="1.51"></path><path d="M130,267L273,267L135,200Z" fill="#bd2567" stroke="#bd2567" stroke-width="1.51"></path><path d="M-63,-104L-120,-82L-25,-30Z" fill="#e37cd3" stroke="#e37cd3" stroke-width="1.51"></path><path d="M304,-22L361,-66L255,-120Z" fill="#d05399" stroke="#d05399" stroke-width="1.51"></path><path d="M391,-64L361,-66L433,-4Z" fill="#cb4b8e" stroke="#cb4b8e" stroke-width="1.51"></path><path d="M-142,65L-142,169L-10,110Z" fill="#d75ca5" stroke="#d75ca5" stroke-width="1.51"></path><path d="M344,88L433,-4L304,-22Z" fill="#c63b7c" stroke="#c63b7c" stroke-width="1.51"></path><path d="M422,158L412,84L344,88Z" fill="#bb2465" stroke="#bb2465" stroke-width="1.51"></path><path d="M422,158L344,88L327,162Z" fill="#bb2365" stroke="#bb2365" stroke-width="1.51"></path><path d="M361,-66L391,-64L255,-120Z" fill="#d1569c" stroke="#d1569c" stroke-width="1.51"></path><path d="M433,-4L361,-66L304,-22Z" fill="#ca488b" stroke="#ca488b" stroke-width="1.51"></path><path d="M-142,65L-149,236L-142,169Z" fill="#d762ac" stroke="#d762ac" stroke-width="1.51"></path><path d="M-142,169L-149,236L-47,251Z" fill="#d25aa1" stroke="#d25aa1" stroke-width="1.51"></path><path d="M-47,251L-149,236L56,285Z" fill="#cb4d90" stroke="#cb4d90" stroke-width="1.51"></path><path d="M56,285L315,300L130,267Z" fill="#bb2365" stroke="#bb2365" stroke-width="1.51"></path><path d="M273,267L315,300L327,162Z" fill="#b72061" stroke="#b72061" stroke-width="1.51"></path><path d="M421,266L422,158L327,162Z" fill="#b71f60" stroke="#b71f60" stroke-width="1.51"></path><path d="M422,158L433,-4L412,84Z" fill="#bd2768" stroke="#bd2768" stroke-width="1.51"></path><path d="M412,84L433,-4L344,88Z" fill="#c13070" stroke="#c13070" stroke-width="1.51"></path><path d="M422,158L421,266L433,-4Z" fill="#b82162" stroke="#b82162" stroke-width="1.51"></path><path d="M315,300L421,266L327,162Z" fill="#b51e5f" stroke="#b51e5f" stroke-width="1.51"></path></svg>