<svg width="300" height="176" xmlns="http://www.w3.org/2000/svg"><path d="M142,72L170,190L219,115Z" fill="#bf2769" stroke="#bf2769" stroke-width="1.51"></path><path d="M142,72L92,204L170,190Z" fill="#c02d6e" stroke="#c02d6e" stroke-width="1.51"></path><path d="M142,72L53,90L92,204Z" fill="#cb4184" stroke="#cb4184" stroke-width="1.51"></path><path d="M170,190L247,208L219,115Z" fill="#b51d5f" stroke="#b51d5f" stroke-width="1.51"></path><path d="M230,264L247,208L170,190Z" fill="#b41d5e" stroke="#b41d5e" stroke-width="1.51"></path><path d="M142,286L230,264L170,190Z" fill="#b71f61" stroke="#b71f61" stroke-width="1.51"></path><path d="M142,72L35,-29L53,90Z" fill="#dc67b4" stroke="#dc67b4" stroke-width="1.51"></path><path d="M219,115L176,-23L142,72Z" fill="#ce4487" stroke="#ce4487" stroke-width="1.51"></path><path d="M92,204L142,286L170,190Z" fill="#bd2a6b" stroke="#bd2a6b" stroke-width="1.51"></path><path d="M92,204L93,299L142,286Z" fill="#c13676" stroke="#c13676" stroke-width="1.51"></path><path d="M53,90L-4,158L92,204Z" fill="#cd5095" stroke="#cd5095" stroke-width="1.51"></path><path d="M230,264L299,237L247,208Z" fill="#b0185a" stroke="#b0185a" stroke-width="1.51"></path><path d="M247,208L343,156L219,115Z" fill="#b21a5c" stroke="#b21a5c" stroke-width="1.51"></path><path d="M219,115L258,-29L176,-23Z" fill="#d2579e" stroke="#d2579e" stroke-width="1.51"></path><path d="M142,286L417,255L230,264Z" fill="#b0185a" stroke="#b0185a" stroke-width="1.51"></path><path d="M-24,284L93,299L92,204Z" fill="#c94b8e" stroke="#c94b8e" stroke-width="1.51"></path><path d="M53,90L-15,76L-4,158Z" fill="#d862ad" stroke="#d862ad" stroke-width="1.51"></path><path d="M35,-29L-15,76L53,90Z" fill="#e278cd" stroke="#e278cd" stroke-width="1.51"></path><path d="M299,237L343,156L247,208Z" fill="#ad1557" stroke="#ad1557" stroke-width="1.51"></path><path d="M300,-15L258,-29L219,115Z" fill="#ce5298" stroke="#ce5298" stroke-width="1.51"></path><path d="M176,-23L35,-29L142,72Z" fill="#df6fc0" stroke="#df6fc0" stroke-width="1.51"></path><path d="M258,-29L165,-62L176,-23Z" fill="#d864b0" stroke="#d864b0" stroke-width="1.51"></path><path d="M343,156L343,60L219,115Z" fill="#b61f60" stroke="#b61f60" stroke-width="1.51"></path><path d="M343,60L300,-15L219,115Z" fill="#c43e7e" stroke="#c43e7e" stroke-width="1.51"></path><path d="M258,-29L272,-78L165,-62Z" fill="#d663ae" stroke="#d663ae" stroke-width="1.51"></path><path d="M165,-62L35,-29L176,-23Z" fill="#df70c1" stroke="#df70c1" stroke-width="1.51"></path><path d="M343,156L390,156L343,60Z" fill="#b41d5e" stroke="#b41d5e" stroke-width="1.51"></path><path d="M417,255L390,156L343,156Z" fill="#ad1457" stroke="#ad1457" stroke-width="1.51"></path><path d="M299,-71L258,-29L300,-15Z" fill="#d15fa8" stroke="#d15fa8" stroke-width="1.51"></path><path d="M299,-71L272,-78L258,-29Z" fill="#d260a9" stroke="#d260a9" stroke-width="1.51"></path><path d="M-4,158L-24,284L92,204Z" fill="#cd579d" stroke="#cd579d" stroke-width="1.51"></path><path d="M-111,184L-24,284L-4,158Z" fill="#d05ea7" stroke="#d05ea7" stroke-width="1.51"></path><path d="M388,-120L299,-71L300,-15Z" fill="#d05ea7" stroke="#d05ea7" stroke-width="1.51"></path><path d="M444,3L300,-15L343,60Z" fill="#cc559b" stroke="#cc559b" stroke-width="1.51"></path><path d="M-15,76L-111,184L-4,158Z" fill="#d562ad" stroke="#d562ad" stroke-width="1.51"></path><path d="M35,-29L-52,-21L-15,76Z" fill="#e895f7" stroke="#e895f7" stroke-width="1.51"></path><path d="M-38,-99L-52,-21L35,-29Z" fill="#e99aff" stroke="#e99aff" stroke-width="1.51"></path><path d="M390,156L422,102L343,60Z" fill="#b71f61" stroke="#b71f61" stroke-width="1.51"></path><path d="M165,-62L83,-124L35,-29Z" fill="#e27bd0" stroke="#e27bd0" stroke-width="1.51"></path><path d="M272,-78L83,-124L165,-62Z" fill="#da66b3" stroke="#da66b3" stroke-width="1.51"></path><path d="M-139,91L-111,184L-15,76Z" fill="#d864b0" stroke="#d864b0" stroke-width="1.51"></path><path d="M390,156L417,255L422,102Z" fill="#ae1557" stroke="#ae1557" stroke-width="1.51"></path><path d="M299,237L417,255L343,156Z" fill="#ad1457" stroke="#ad1457" stroke-width="1.51"></path><path d="M230,264L417,255L299,237Z" fill="#ad1457" stroke="#ad1457" stroke-width="1.51"></path><path d="M93,299L417,255L142,286Z" fill="#b41c5e" stroke="#b41c5e" stroke-width="1.51"></path><path d="M-52,-21L-139,91L-15,76Z" fill="#e37ed6" stroke="#e37ed6" stroke-width="1.51"></path><path d="M-52,-21L-134,-9L-139,91Z" fill="#e78fed" stroke="#e78fed" stroke-width="1.51"></path><path d="M83,-124L-38,-99L35,-29Z" fill="#e891f1" stroke="#e891f1" stroke-width="1.51"></path><path d="M-111,184L-107,276L-24,284Z" fill="#d05ea7" stroke="#d05ea7" stroke-width="1.51"></path><path d="M-24,284L-107,276L93,299Z" fill="#d05ea7" stroke="#d05ea7" stroke-width="1.51"></path><path d="M-139,91L-107,276L-111,184Z" fill="#d05ea7" stroke="#d05ea7" stroke-width="1.51"></path><path d="M417,255L444,3L422,102Z" fill="#b51d5f" stroke="#b51d5f" stroke-width="1.51"></path><path d="M422,102L444,3L343,60Z" fill="#c33c7c" stroke="#c33c7c" stroke-width="1.51"></path><path d="M-130,-98L-134,-9L-52,-21Z" fill="#e99aff" stroke="#e99aff" stroke-width="1.51"></path><path d="M444,3L388,-120L300,-15Z" fill="#d05ea7" stroke="#d05ea7" stroke-width="1.51"></path><path d="M299,-71L388,-120L272,-78Z" fill="#d05ea7" stroke="#d05ea7" stroke-width="1.51"></path><path d="M272,-78L388,-120L83,-124Z" fill="#d461ac" stroke="#d461ac" stroke-width="1.51"></path><path d="M-38,-99L-130,-98L-52,-21Z" fill="#e99aff" stroke="#e99aff" stroke-width="1.51"></path><path d="M-134,-9L-130,-98L-139,91Z" fill="#e99aff" stroke="#e99aff" stroke-width="1.51"></path><path d="M83,-124L-130,-98L-38,-99Z" fill="#e99aff" stroke="#e99aff" stroke-width="1.51"></path></svg>