<svg width="300" height="176" xmlns="http://www.w3.org/2000/svg"><path d="M159,116L179,205L236,200Z" fill="#c0286a" stroke="#c0286a" stroke-width="1.51"></path><path d="M236,200L267,90L159,116Z" fill="#c1296b" stroke="#c1296b" stroke-width="1.51"></path><path d="M179,205L222,247L236,200Z" fill="#bd2567" stroke="#bd2567" stroke-width="1.51"></path><path d="M64,198L140,266L179,205Z" fill="#c12c6d" stroke="#c12c6d" stroke-width="1.51"></path><path d="M179,205L140,266L222,247Z" fill="#bc2566" stroke="#bc2566" stroke-width="1.51"></path><path d="M267,90L233,16L159,116Z" fill="#c63072" stroke="#c63072" stroke-width="1.51"></path><path d="M236,200L340,200L267,90Z" fill="#bd2567" stroke="#bd2567" stroke-width="1.51"></path><path d="M267,90L351,30L233,16Z" fill="#c63678" stroke="#c63678" stroke-width="1.51"></path><path d="M222,247L340,200L236,200Z" fill="#ba2364" stroke="#ba2364" stroke-width="1.51"></path><path d="M79,55L64,198L159,116Z" fill="#c93779" stroke="#c93779" stroke-width="1.51"></path><path d="M159,116L64,198L179,205Z" fill="#c42d6f" stroke="#c42d6f" stroke-width="1.51"></path><path d="M340,200L349,108L267,90Z" fill="#bd2567" stroke="#bd2567" stroke-width="1.51"></path><path d="M138,-9L79,55L159,116Z" fill="#cd3e80" stroke="#cd3e80" stroke-width="1.51"></path><path d="M233,16L138,-9L159,116Z" fill="#cb3b7e" stroke="#cb3b7e" stroke-width="1.51"></path><path d="M64,198L86,290L140,266Z" fill="#c23273" stroke="#c23273" stroke-width="1.51"></path><path d="M140,266L357,299L222,247Z" fill="#b92162" stroke="#b92162" stroke-width="1.51"></path><path d="M340,200L393,173L349,108Z" fill="#ba2264" stroke="#ba2264" stroke-width="1.51"></path><path d="M349,108L351,30L267,90Z" fill="#c22b6d" stroke="#c22b6d" stroke-width="1.51"></path><path d="M233,16L149,-100L138,-9Z" fill="#d24e94" stroke="#d24e94" stroke-width="1.51"></path><path d="M399,17L351,30L349,108Z" fill="#c23272" stroke="#c23272" stroke-width="1.51"></path><path d="M79,55L-10,106L64,198Z" fill="#cd4285" stroke="#cd4285" stroke-width="1.51"></path><path d="M138,-9L53,6L79,55Z" fill="#d34d92" stroke="#d34d92" stroke-width="1.51"></path><path d="M86,290L357,299L140,266Z" fill="#b92263" stroke="#b92263" stroke-width="1.51"></path><path d="M222,247L357,299L340,200Z" fill="#b71f61" stroke="#b71f61" stroke-width="1.51"></path><path d="M340,200L435,280L393,173Z" fill="#b51e5f" stroke="#b51e5f" stroke-width="1.51"></path><path d="M53,6L-10,106L79,55Z" fill="#d34d92" stroke="#d34d92" stroke-width="1.51"></path><path d="M64,198L2,261L86,290Z" fill="#c53b7c" stroke="#c53b7c" stroke-width="1.51"></path><path d="M-47,197L2,261L64,198Z" fill="#ca4588" stroke="#ca4588" stroke-width="1.51"></path><path d="M363,-86L249,-101L233,16Z" fill="#d05196" stroke="#d05196" stroke-width="1.51"></path><path d="M446,87L399,17L349,108Z" fill="#bf2a6b" stroke="#bf2a6b" stroke-width="1.51"></path><path d="M435,280L446,87L393,173Z" fill="#b61e60" stroke="#b61e60" stroke-width="1.51"></path><path d="M393,173L446,87L349,108Z" fill="#bb2365" stroke="#bb2365" stroke-width="1.51"></path><path d="M-10,106L-47,197L64,198Z" fill="#cd488c" stroke="#cd488c" stroke-width="1.51"></path><path d="M138,-9L77,-77L53,6Z" fill="#d758a1" stroke="#d758a1" stroke-width="1.51"></path><path d="M363,-86L233,16L351,30Z" fill="#cb4588" stroke="#cb4588" stroke-width="1.51"></path><path d="M249,-101L149,-100L233,16Z" fill="#d4559b" stroke="#d4559b" stroke-width="1.51"></path><path d="M-10,106L-125,157L-47,197Z" fill="#d2539a" stroke="#d2539a" stroke-width="1.51"></path><path d="M53,6L-1,-10L-10,106Z" fill="#d6579e" stroke="#d6579e" stroke-width="1.51"></path><path d="M77,-77L-1,-10L53,6Z" fill="#da60ab" stroke="#da60ab" stroke-width="1.51"></path><path d="M149,-100L77,-77L138,-9Z" fill="#d85ba4" stroke="#d85ba4" stroke-width="1.51"></path><path d="M357,299L435,280L340,200Z" fill="#b31c5d" stroke="#b31c5d" stroke-width="1.51"></path><path d="M399,17L363,-86L351,30Z" fill="#c84485" stroke="#c84485" stroke-width="1.51"></path><path d="M434,-87L363,-86L399,17Z" fill="#cb4c90" stroke="#cb4c90" stroke-width="1.51"></path><path d="M-47,197L-106,300L2,261Z" fill="#cc4e92" stroke="#cc4e92" stroke-width="1.51"></path><path d="M-148,57L-125,157L-10,106Z" fill="#d75ba4" stroke="#d75ba4" stroke-width="1.51"></path><path d="M446,87L434,-87L399,17Z" fill="#c43d7e" stroke="#c43d7e" stroke-width="1.51"></path><path d="M363,-86L434,-87L249,-101Z" fill="#d1579e" stroke="#d1579e" stroke-width="1.51"></path><path d="M-125,157L-106,300L-47,197Z" fill="#d1569d" stroke="#d1569d" stroke-width="1.51"></path><path d="M2,261L-106,300L86,290Z" fill="#c74486" stroke="#c74486" stroke-width="1.51"></path><path d="M86,290L-106,300L357,299Z" fill="#be2c6d" stroke="#be2c6d" stroke-width="1.51"></path><path d="M-1,-10L-148,57L-10,106Z" fill="#d95ea8" stroke="#d95ea8" stroke-width="1.51"></path><path d="M-125,157L-148,57L-106,300Z" fill="#d55ea8" stroke="#d55ea8" stroke-width="1.51"></path><path d="M-122,-22L-148,57L-1,-10Z" fill="#de6dbe" stroke="#de6dbe" stroke-width="1.51"></path><path d="M-116,-81L-122,-22L-1,-10Z" fill="#e177ca" stroke="#e177ca" stroke-width="1.51"></path><path d="M-61,-118L-1,-10L77,-77Z" fill="#df70c1" stroke="#df70c1" stroke-width="1.51"></path><path d="M249,-101L-61,-118L149,-100Z" fill="#dc67b4" stroke="#dc67b4" stroke-width="1.51"></path><path d="M149,-100L-61,-118L77,-77Z" fill="#df6fbf" stroke="#df6fbf" stroke-width="1.51"></path><path d="M-61,-118L-116,-81L-1,-10Z" fill="#e27acf" stroke="#e27acf" stroke-width="1.51"></path><path d="M-122,-22L-116,-81L-148,57Z" fill="#e27acf" stroke="#e27acf" stroke-width="1.51"></path></svg>