<svg width="300" height="176" xmlns="http://www.w3.org/2000/svg"><path d="M-108,-87L31,-86L216,-105Z" fill="#e86aa9" stroke="#e86aa9" stroke-width="1.51"></path><path d="M-108,-87L216,-105L299,-114Z" fill="#e15f9c" stroke="#e15f9c" stroke-width="1.51"></path><path d="M267,235L125,248L345,249Z" fill="#ba2264" stroke="#ba2264" stroke-width="1.51"></path><path d="M-108,-87L299,-114L397,-121Z" fill="#de5c99" stroke="#de5c99" stroke-width="1.51"></path><path d="M336,194L345,249L415,153Z" fill="#b72061" stroke="#b72061" stroke-width="1.51"></path><path d="M397,-121L412,-14L425,65Z" fill="#cb427d" stroke="#cb427d" stroke-width="1.51"></path><path d="M345,249L125,248L449,274Z" fill="#b61f60" stroke="#b61f60" stroke-width="1.51"></path><path d="M125,248L-64,283L449,274Z" fill="#bb2465" stroke="#bb2465" stroke-width="1.51"></path><path d="M415,153L345,249L449,274Z" fill="#b41d5e" stroke="#b41d5e" stroke-width="1.51"></path><path d="M425,65L415,153L449,274Z" fill="#b71f61" stroke="#b71f61" stroke-width="1.51"></path><path d="M397,-121L303,-28L412,-14Z" fill="#d14b86" stroke="#d14b86" stroke-width="1.51"></path><path d="M412,-14L303,-28L425,65Z" fill="#c83c78" stroke="#c83c78" stroke-width="1.51"></path><path d="M303,-28L347,118L425,65Z" fill="#c43170" stroke="#c43170" stroke-width="1.51"></path><path d="M347,118L415,153L425,65Z" fill="#bb2465" stroke="#bb2465" stroke-width="1.51"></path><path d="M299,-114L303,-28L397,-121Z" fill="#d7548f" stroke="#d7548f" stroke-width="1.51"></path><path d="M347,118L336,194L415,153Z" fill="#ba2264" stroke="#ba2264" stroke-width="1.51"></path><path d="M236,-17L212,74L303,-28Z" fill="#ce407e" stroke="#ce407e" stroke-width="1.51"></path><path d="M336,194L267,235L345,249Z" fill="#b82062" stroke="#b82062" stroke-width="1.51"></path><path d="M303,-28L212,74L347,118Z" fill="#c63372" stroke="#c63372" stroke-width="1.51"></path><path d="M212,74L268,162L347,118Z" fill="#c02869" stroke="#c02869" stroke-width="1.51"></path><path d="M268,162L336,194L347,118Z" fill="#bc2466" stroke="#bc2466" stroke-width="1.51"></path><path d="M268,162L267,235L336,194Z" fill="#ba2364" stroke="#ba2364" stroke-width="1.51"></path><path d="M299,-114L216,-105L303,-28Z" fill="#d85490" stroke="#d85490" stroke-width="1.51"></path><path d="M216,-105L236,-17L303,-28Z" fill="#d64d8a" stroke="#d64d8a" stroke-width="1.51"></path><path d="M54,241L-64,283L125,248Z" fill="#c83b77" stroke="#c83b77" stroke-width="1.51"></path><path d="M152,144L125,248L267,235Z" fill="#be2768" stroke="#be2768" stroke-width="1.51"></path><path d="M152,144L267,235L268,162Z" fill="#be2668" stroke="#be2668" stroke-width="1.51"></path><path d="M212,74L152,144L268,162Z" fill="#c22a6c" stroke="#c22a6c" stroke-width="1.51"></path><path d="M31,-86L156,-70L216,-105Z" fill="#df5b9a" stroke="#df5b9a" stroke-width="1.51"></path><path d="M170,26L212,74L236,-17Z" fill="#cd3d7b" stroke="#cd3d7b" stroke-width="1.51"></path><path d="M216,-105L156,-70L236,-17Z" fill="#d95290" stroke="#d95290" stroke-width="1.51"></path><path d="M156,-70L170,26L236,-17Z" fill="#d44987" stroke="#d44987" stroke-width="1.51"></path><path d="M-108,-87L-47,-77L31,-86Z" fill="#ef76b5" stroke="#ef76b5" stroke-width="1.51"></path><path d="M142,70L152,144L212,74Z" fill="#c52d6f" stroke="#c52d6f" stroke-width="1.51"></path><path d="M170,26L142,70L212,74Z" fill="#ca3676" stroke="#ca3676" stroke-width="1.51"></path><path d="M66,201L125,248L152,144Z" fill="#c43070" stroke="#c43070" stroke-width="1.51"></path><path d="M142,70L92,93L152,144Z" fill="#c83273" stroke="#c83273" stroke-width="1.51"></path><path d="M156,-70L66,-23L170,26Z" fill="#d84e8c" stroke="#d84e8c" stroke-width="1.51"></path><path d="M66,-23L142,70L170,26Z" fill="#d24382" stroke="#d24382" stroke-width="1.51"></path><path d="M31,-86L66,-23L156,-70Z" fill="#e15d9b" stroke="#e15d9b" stroke-width="1.51"></path><path d="M66,-23L92,93L142,70Z" fill="#d24381" stroke="#d24381" stroke-width="1.51"></path><path d="M92,93L66,201L152,144Z" fill="#c83574" stroke="#c83574" stroke-width="1.51"></path><path d="M66,201L54,241L125,248Z" fill="#c63573" stroke="#c63573" stroke-width="1.51"></path><path d="M66,-23L-46,30L92,93Z" fill="#d9508e" stroke="#d9508e" stroke-width="1.51"></path><path d="M-46,30L-42,79L92,93Z" fill="#d84e8c" stroke="#d84e8c" stroke-width="1.51"></path><path d="M-31,170L66,201L92,93Z" fill="#cd3f7d" stroke="#cd3f7d" stroke-width="1.51"></path><path d="M-42,79L-31,170L92,93Z" fill="#d34786" stroke="#d34786" stroke-width="1.51"></path><path d="M31,-86L-47,-77L66,-23Z" fill="#e768a6" stroke="#e768a6" stroke-width="1.51"></path><path d="M-47,-77L-46,30L66,-23Z" fill="#e464a1" stroke="#e464a1" stroke-width="1.51"></path><path d="M-31,170L54,241L66,201Z" fill="#cc3f7c" stroke="#cc3f7c" stroke-width="1.51"></path><path d="M-31,170L-64,283L54,241Z" fill="#ce4681" stroke="#ce4681" stroke-width="1.51"></path><path d="M-47,-77L-108,-87L-46,30Z" fill="#ec71b0" stroke="#ec71b0" stroke-width="1.51"></path><path d="M-108,-87L-147,30L-46,30Z" fill="#ea6fad" stroke="#ea6fad" stroke-width="1.51"></path><path d="M-98,66L-119,179L-42,79Z" fill="#dc5795" stroke="#dc5795" stroke-width="1.51"></path><path d="M-95,268L-64,283L-31,170Z" fill="#d24d88" stroke="#d24d88" stroke-width="1.51"></path><path d="M-119,179L-95,268L-31,170Z" fill="#d6518d" stroke="#d6518d" stroke-width="1.51"></path><path d="M-42,79L-119,179L-31,170Z" fill="#d8528f" stroke="#d8528f" stroke-width="1.51"></path><path d="M-46,30L-98,66L-42,79Z" fill="#df5a99" stroke="#df5a99" stroke-width="1.51"></path><path d="M-147,30L-98,66L-46,30Z" fill="#e463a2" stroke="#e463a2" stroke-width="1.51"></path><path d="M-147,30L-119,179L-98,66Z" fill="#e05d9b" stroke="#e05d9b" stroke-width="1.51"></path></svg>