<svg width="300" height="176" xmlns="http://www.w3.org/2000/svg"><path d="M122,82L66,61L48,146Z" fill="#cc3c7f" stroke="#cc3c7f" stroke-width="1.51"></path><path d="M66,61L-18,105L48,146Z" fill="#cf4589" stroke="#cf4589" stroke-width="1.51"></path><path d="M122,82L162,26L66,61Z" fill="#cd3e81" stroke="#cd3e81" stroke-width="1.51"></path><path d="M48,146L181,179L122,82Z" fill="#c73375" stroke="#c73375" stroke-width="1.51"></path><path d="M122,82L254,67L162,26Z" fill="#c93678" stroke="#c93678" stroke-width="1.51"></path><path d="M48,146L77,242L181,179Z" fill="#c53475" stroke="#c53475" stroke-width="1.51"></path><path d="M-18,105L-40,159L48,146Z" fill="#cf4a8f" stroke="#cf4a8f" stroke-width="1.51"></path><path d="M-40,159L77,242L48,146Z" fill="#cb4285" stroke="#cb4285" stroke-width="1.51"></path><path d="M66,61L-47,20L-18,105Z" fill="#d55299" stroke="#d55299" stroke-width="1.51"></path><path d="M-18,105L-106,85L-40,159Z" fill="#d4549b" stroke="#d4549b" stroke-width="1.51"></path><path d="M162,26L31,-25L66,61Z" fill="#d34e92" stroke="#d34e92" stroke-width="1.51"></path><path d="M31,-25L-47,20L66,61Z" fill="#d85aa2" stroke="#d85aa2" stroke-width="1.51"></path><path d="M181,179L254,67L122,82Z" fill="#c42c6e" stroke="#c42c6e" stroke-width="1.51"></path><path d="M181,179L255,152L254,67Z" fill="#c1296b" stroke="#c1296b" stroke-width="1.51"></path><path d="M243,283L255,152L181,179Z" fill="#bd2567" stroke="#bd2567" stroke-width="1.51"></path><path d="M-47,20L-106,85L-18,105Z" fill="#d75aa3" stroke="#d75aa3" stroke-width="1.51"></path><path d="M-97,-109L-113,22L-47,20Z" fill="#e074c6" stroke="#e074c6" stroke-width="1.51"></path><path d="M162,26L77,-80L31,-25Z" fill="#d758a0" stroke="#d758a0" stroke-width="1.51"></path><path d="M127,-95L77,-80L162,26Z" fill="#d758a0" stroke="#d758a0" stroke-width="1.51"></path><path d="M77,242L134,292L181,179Z" fill="#c02b6c" stroke="#c02b6c" stroke-width="1.51"></path><path d="M-61,287L134,292L77,242Z" fill="#c43a7b" stroke="#c43a7b" stroke-width="1.51"></path><path d="M261,-2L127,-95L162,26Z" fill="#d14c91" stroke="#d14c91" stroke-width="1.51"></path><path d="M-47,20L-113,22L-106,85Z" fill="#dc66b3" stroke="#dc66b3" stroke-width="1.51"></path><path d="M-27,-109L-47,20L31,-25Z" fill="#de6cbb" stroke="#de6cbb" stroke-width="1.51"></path><path d="M254,67L261,-2L162,26Z" fill="#ca3c7f" stroke="#ca3c7f" stroke-width="1.51"></path><path d="M315,13L261,-2L254,67Z" fill="#c93c7e" stroke="#c93c7e" stroke-width="1.51"></path><path d="M-40,159L-61,287L77,242Z" fill="#cb478a" stroke="#cb478a" stroke-width="1.51"></path><path d="M-106,85L-114,205L-40,159Z" fill="#d458a0" stroke="#d458a0" stroke-width="1.51"></path><path d="M-142,266L-114,205L-106,85Z" fill="#d45ca6" stroke="#d45ca6" stroke-width="1.51"></path><path d="M-114,205L-61,287L-40,159Z" fill="#d05399" stroke="#d05399" stroke-width="1.51"></path><path d="M255,152L312,154L254,67Z" fill="#c0286a" stroke="#c0286a" stroke-width="1.51"></path><path d="M243,283L312,154L255,152Z" fill="#bb2465" stroke="#bb2465" stroke-width="1.51"></path><path d="M134,292L243,283L181,179Z" fill="#bc2466" stroke="#bc2466" stroke-width="1.51"></path><path d="M77,-80L-27,-109L31,-25Z" fill="#de6dbc" stroke="#de6dbc" stroke-width="1.51"></path><path d="M127,-95L-27,-109L77,-80Z" fill="#de6dbd" stroke="#de6dbd" stroke-width="1.51"></path><path d="M261,-2L263,-119L127,-95Z" fill="#d4569e" stroke="#d4569e" stroke-width="1.51"></path><path d="M341,114L315,13L254,67Z" fill="#c33071" stroke="#c33071" stroke-width="1.51"></path><path d="M312,154L341,114L254,67Z" fill="#bf2769" stroke="#bf2769" stroke-width="1.51"></path><path d="M397,201L341,114L312,154Z" fill="#ba2364" stroke="#ba2364" stroke-width="1.51"></path><path d="M-114,205L-142,266L-61,287Z" fill="#d0579e" stroke="#d0579e" stroke-width="1.51"></path><path d="M-113,22L-142,266L-106,85Z" fill="#d85fa9" stroke="#d85fa9" stroke-width="1.51"></path><path d="M-27,-109L-97,-109L-47,20Z" fill="#e27ace" stroke="#e27ace" stroke-width="1.51"></path><path d="M344,-63L263,-119L261,-2Z" fill="#d05197" stroke="#d05197" stroke-width="1.51"></path><path d="M127,-95L263,-119L-27,-109Z" fill="#dc66b2" stroke="#dc66b2" stroke-width="1.51"></path><path d="M-27,-109L263,-119L-97,-109Z" fill="#e073c5" stroke="#e073c5" stroke-width="1.51"></path><path d="M315,13L344,-63L261,-2Z" fill="#cc478a" stroke="#cc478a" stroke-width="1.51"></path><path d="M443,-19L344,-63L315,13Z" fill="#ca4688" stroke="#ca4688" stroke-width="1.51"></path><path d="M341,114L435,110L315,13Z" fill="#bf296a" stroke="#bf296a" stroke-width="1.51"></path><path d="M243,283L354,277L312,154Z" fill="#b82062" stroke="#b82062" stroke-width="1.51"></path><path d="M134,292L354,277L243,283Z" fill="#b72061" stroke="#b72061" stroke-width="1.51"></path><path d="M354,277L397,201L312,154Z" fill="#b72061" stroke="#b72061" stroke-width="1.51"></path><path d="M354,277L397,253L397,201Z" fill="#b41d5e" stroke="#b41d5e" stroke-width="1.51"></path><path d="M397,253L435,110L397,201Z" fill="#b61e60" stroke="#b61e60" stroke-width="1.51"></path><path d="M397,201L435,110L341,114Z" fill="#ba2264" stroke="#ba2264" stroke-width="1.51"></path><path d="M344,-63L450,-95L263,-119Z" fill="#d0579e" stroke="#d0579e" stroke-width="1.51"></path><path d="M435,110L443,-19L315,13Z" fill="#c33676" stroke="#c33676" stroke-width="1.51"></path><path d="M443,-19L450,-95L344,-63Z" fill="#cb4d91" stroke="#cb4d91" stroke-width="1.51"></path><path d="M435,110L450,-95L443,-19Z" fill="#c53e7f" stroke="#c53e7f" stroke-width="1.51"></path></svg>