<svg width="300" height="176" xmlns="http://www.w3.org/2000/svg"><path d="M153,67L72,-3L80,98Z" fill="#ce4285" stroke="#ce4285" stroke-width="1.51"></path><path d="M153,67L135,-27L72,-3Z" fill="#d14a8e" stroke="#d14a8e" stroke-width="1.51"></path><path d="M135,-27L64,-59L72,-3Z" fill="#d759a1" stroke="#d759a1" stroke-width="1.51"></path><path d="M72,-3L-41,82L80,98Z" fill="#d24c92" stroke="#d24c92" stroke-width="1.51"></path><path d="M-61,10L-41,82L72,-3Z" fill="#d85ca5" stroke="#d85ca5" stroke-width="1.51"></path><path d="M153,67L240,-9L135,-27Z" fill="#ce4487" stroke="#ce4487" stroke-width="1.51"></path><path d="M135,-27L167,-111L64,-59Z" fill="#d85ca6" stroke="#d85ca6" stroke-width="1.51"></path><path d="M80,98L174,192L153,67Z" fill="#c63072" stroke="#c63072" stroke-width="1.51"></path><path d="M153,67L255,64L240,-9Z" fill="#ca3a7c" stroke="#ca3a7c" stroke-width="1.51"></path><path d="M-41,82L50,188L80,98Z" fill="#ce4488" stroke="#ce4488" stroke-width="1.51"></path><path d="M229,183L255,64L153,67Z" fill="#c32b6d" stroke="#c32b6d" stroke-width="1.51"></path><path d="M50,188L174,192L80,98Z" fill="#c73577" stroke="#c73577" stroke-width="1.51"></path><path d="M64,-59L-61,10L72,-3Z" fill="#da61ac" stroke="#da61ac" stroke-width="1.51"></path><path d="M240,-9L167,-111L135,-27Z" fill="#d45298" stroke="#d45298" stroke-width="1.51"></path><path d="M174,192L229,183L153,67Z" fill="#c22a6c" stroke="#c22a6c" stroke-width="1.51"></path><path d="M240,-9L238,-104L167,-111Z" fill="#d5579f" stroke="#d5579f" stroke-width="1.51"></path><path d="M345,-32L238,-104L240,-9Z" fill="#d04f95" stroke="#d04f95" stroke-width="1.51"></path><path d="M167,-111L-50,-95L64,-59Z" fill="#de6cba" stroke="#de6cba" stroke-width="1.51"></path><path d="M64,-59L-50,-95L-61,10Z" fill="#df6fbe" stroke="#df6fbe" stroke-width="1.51"></path><path d="M-41,82L-45,201L50,188Z" fill="#cf4b8f" stroke="#cf4b8f" stroke-width="1.51"></path><path d="M-61,10L-107,63L-41,82Z" fill="#da61ab" stroke="#da61ab" stroke-width="1.51"></path><path d="M-134,2L-107,63L-61,10Z" fill="#de6cbb" stroke="#de6cbb" stroke-width="1.51"></path><path d="M-126,166L-45,201L-41,82Z" fill="#d3559c" stroke="#d3559c" stroke-width="1.51"></path><path d="M50,188L146,301L174,192Z" fill="#c12d6e" stroke="#c12d6e" stroke-width="1.51"></path><path d="M255,64L345,-32L240,-9Z" fill="#ca4183" stroke="#ca4183" stroke-width="1.51"></path><path d="M229,183L326,106L255,64Z" fill="#c0286a" stroke="#c0286a" stroke-width="1.51"></path><path d="M174,192L265,242L229,183Z" fill="#bd2567" stroke="#bd2567" stroke-width="1.51"></path><path d="M-45,201L44,277L50,188Z" fill="#c94385" stroke="#c94385" stroke-width="1.51"></path><path d="M-144,-63L-134,2L-61,10Z" fill="#e177cb" stroke="#e177cb" stroke-width="1.51"></path><path d="M229,183L357,162L326,106Z" fill="#bd2567" stroke="#bd2567" stroke-width="1.51"></path><path d="M146,301L265,242L174,192Z" fill="#bc2466" stroke="#bc2466" stroke-width="1.51"></path><path d="M326,106L345,-32L255,64Z" fill="#c53577" stroke="#c53577" stroke-width="1.51"></path><path d="M-45,201L-36,287L44,277Z" fill="#ca468a" stroke="#ca468a" stroke-width="1.51"></path><path d="M-107,63L-126,166L-41,82Z" fill="#d75ba4" stroke="#d75ba4" stroke-width="1.51"></path><path d="M-134,2L-126,166L-107,63Z" fill="#da64af" stroke="#da64af" stroke-width="1.51"></path><path d="M44,277L146,301L50,188Z" fill="#c33576" stroke="#c33576" stroke-width="1.51"></path><path d="M-134,2L-144,-63L-126,166Z" fill="#de6fbf" stroke="#de6fbf" stroke-width="1.51"></path><path d="M-50,-95L-144,-63L-61,10Z" fill="#e27acf" stroke="#e27acf" stroke-width="1.51"></path><path d="M-96,291L-36,287L-45,201Z" fill="#cc4e93" stroke="#cc4e93" stroke-width="1.51"></path><path d="M44,277L-36,287L146,301Z" fill="#c3397a" stroke="#c3397a" stroke-width="1.51"></path><path d="M326,106L397,85L345,-32Z" fill="#c23173" stroke="#c23173" stroke-width="1.51"></path><path d="M305,241L357,162L229,183Z" fill="#bb2364" stroke="#bb2364" stroke-width="1.51"></path><path d="M265,242L305,241L229,183Z" fill="#ba2364" stroke="#ba2364" stroke-width="1.51"></path><path d="M392,269L305,241L265,242Z" fill="#b61f60" stroke="#b61f60" stroke-width="1.51"></path><path d="M345,-32L332,-118L238,-104Z" fill="#d2579e" stroke="#d2579e" stroke-width="1.51"></path><path d="M238,-104L332,-118L167,-111Z" fill="#d65fa9" stroke="#d65fa9" stroke-width="1.51"></path><path d="M357,162L397,85L326,106Z" fill="#bd2567" stroke="#bd2567" stroke-width="1.51"></path><path d="M345,-32L423,-86L332,-118Z" fill="#cf5399" stroke="#cf5399" stroke-width="1.51"></path><path d="M-126,166L-96,291L-45,201Z" fill="#d1569c" stroke="#d1569c" stroke-width="1.51"></path><path d="M-36,287L-96,291L146,301Z" fill="#c64283" stroke="#c64283" stroke-width="1.51"></path><path d="M397,85L423,7L345,-32Z" fill="#c43a7b" stroke="#c43a7b" stroke-width="1.51"></path><path d="M423,7L423,-86L345,-32Z" fill="#ca498b" stroke="#ca498b" stroke-width="1.51"></path><path d="M397,85L439,210L423,7Z" fill="#bb2365" stroke="#bb2365" stroke-width="1.51"></path><path d="M357,162L439,210L397,85Z" fill="#b92162" stroke="#b92162" stroke-width="1.51"></path><path d="M305,241L392,269L357,162Z" fill="#b61f60" stroke="#b61f60" stroke-width="1.51"></path><path d="M146,301L392,269L265,242Z" fill="#b72061" stroke="#b72061" stroke-width="1.51"></path><path d="M392,269L439,210L357,162Z" fill="#b51e5f" stroke="#b51e5f" stroke-width="1.51"></path><path d="M423,7L439,210L423,-86Z" fill="#c03272" stroke="#c03272" stroke-width="1.51"></path></svg>