<svg width="300" height="176" xmlns="http://www.w3.org/2000/svg"><path d="M170,118L91,149L150,166Z" fill="#c52e70" stroke="#c52e70" stroke-width="1.51"></path><path d="M170,118L90,95L91,149Z" fill="#c83476" stroke="#c83476" stroke-width="1.51"></path><path d="M170,118L124,21L90,95Z" fill="#ca3678" stroke="#ca3678" stroke-width="1.51"></path><path d="M150,166L243,161L170,118Z" fill="#c22a6c" stroke="#c22a6c" stroke-width="1.51"></path><path d="M170,118L217,20L124,21Z" fill="#ca387a" stroke="#ca387a" stroke-width="1.51"></path><path d="M91,149L90,253L150,166Z" fill="#c43273" stroke="#c43273" stroke-width="1.51"></path><path d="M150,166L218,288L243,161Z" fill="#be2667" stroke="#be2667" stroke-width="1.51"></path><path d="M-53,170L90,253L91,149Z" fill="#c93f81" stroke="#c93f81" stroke-width="1.51"></path><path d="M243,161L257,87L170,118Z" fill="#c22a6c" stroke="#c22a6c" stroke-width="1.51"></path><path d="M257,87L217,20L170,118Z" fill="#c63072" stroke="#c63072" stroke-width="1.51"></path><path d="M124,21L87,-7L90,95Z" fill="#d1478b" stroke="#d1478b" stroke-width="1.51"></path><path d="M90,95L-20,63L91,149Z" fill="#cd4184" stroke="#cd4184" stroke-width="1.51"></path><path d="M85,-78L87,-7L124,-100Z" fill="#da5fa9" stroke="#da5fa9" stroke-width="1.51"></path><path d="M87,-7L-20,63L90,95Z" fill="#d24c91" stroke="#d24c91" stroke-width="1.51"></path><path d="M90,253L160,289L150,166Z" fill="#c02a6c" stroke="#c02a6c" stroke-width="1.51"></path><path d="M243,161L297,172L257,87Z" fill="#bf2769" stroke="#bf2769" stroke-width="1.51"></path><path d="M218,288L297,172L243,161Z" fill="#bc2465" stroke="#bc2465" stroke-width="1.51"></path><path d="M160,289L218,288L150,166Z" fill="#bd2566" stroke="#bd2566" stroke-width="1.51"></path><path d="M-20,63L-53,170L91,149Z" fill="#cf498d" stroke="#cf498d" stroke-width="1.51"></path><path d="M-20,63L-135,73L-53,170Z" fill="#d6579f" stroke="#d6579f" stroke-width="1.51"></path><path d="M87,-7L-16,-4L-20,63Z" fill="#d85aa2" stroke="#d85aa2" stroke-width="1.51"></path><path d="M297,172L326,57L257,87Z" fill="#c0286a" stroke="#c0286a" stroke-width="1.51"></path><path d="M257,87L326,57L217,20Z" fill="#c63476" stroke="#c63476" stroke-width="1.51"></path><path d="M-53,170L-22,276L90,253Z" fill="#c94487" stroke="#c94487" stroke-width="1.51"></path><path d="M90,253L-22,276L160,289Z" fill="#c23575" stroke="#c23575" stroke-width="1.51"></path><path d="M87,-7L85,-78L-16,-4Z" fill="#d95faa" stroke="#d95faa" stroke-width="1.51"></path><path d="M124,-100L87,-7L124,21Z" fill="#d6559c" stroke="#d6559c" stroke-width="1.51"></path><path d="M124,-100L124,21L217,20Z" fill="#d24c91" stroke="#d24c91" stroke-width="1.51"></path><path d="M221,-123L124,-100L217,20Z" fill="#d5569e" stroke="#d5569e" stroke-width="1.51"></path><path d="M-16,-4L-94,29L-20,63Z" fill="#da61ad" stroke="#da61ad" stroke-width="1.51"></path><path d="M-33,-73L-94,29L-16,-4Z" fill="#de6dbc" stroke="#de6dbc" stroke-width="1.51"></path><path d="M-53,170L-114,250L-22,276Z" fill="#ce5196" stroke="#ce5196" stroke-width="1.51"></path><path d="M-135,73L-118,168L-53,170Z" fill="#d65ba4" stroke="#d65ba4" stroke-width="1.51"></path><path d="M326,57L357,22L217,20Z" fill="#c7397b" stroke="#c7397b" stroke-width="1.51"></path><path d="M428,59L357,22L326,57Z" fill="#c33374" stroke="#c33374" stroke-width="1.51"></path><path d="M124,-100L-33,-73L85,-78Z" fill="#dd6ab9" stroke="#dd6ab9" stroke-width="1.51"></path><path d="M85,-78L-33,-73L-16,-4Z" fill="#dd6bba" stroke="#dd6bba" stroke-width="1.51"></path><path d="M297,172L388,161L326,57Z" fill="#bd2566" stroke="#bd2566" stroke-width="1.51"></path><path d="M360,277L388,161L297,172Z" fill="#b92162" stroke="#b92162" stroke-width="1.51"></path><path d="M124,-100L-89,-85L-33,-73Z" fill="#e074c7" stroke="#e074c7" stroke-width="1.51"></path><path d="M329,-122L221,-123L217,20Z" fill="#d3569d" stroke="#d3569d" stroke-width="1.51"></path><path d="M-89,-85L-135,73L-94,29Z" fill="#df71c3" stroke="#df71c3" stroke-width="1.51"></path><path d="M-94,29L-135,73L-20,63Z" fill="#da62ad" stroke="#da62ad" stroke-width="1.51"></path><path d="M-118,168L-114,250L-53,170Z" fill="#d2589f" stroke="#d2589f" stroke-width="1.51"></path><path d="M-135,73L-114,250L-118,168Z" fill="#d55ea7" stroke="#d55ea7" stroke-width="1.51"></path><path d="M218,288L360,277L297,172Z" fill="#b82062" stroke="#b82062" stroke-width="1.51"></path><path d="M221,-123L-89,-85L124,-100Z" fill="#dd6bb9" stroke="#dd6bb9" stroke-width="1.51"></path><path d="M-33,-73L-89,-85L-94,29Z" fill="#e177ca" stroke="#e177ca" stroke-width="1.51"></path><path d="M357,22L329,-122L217,20Z" fill="#cd498c" stroke="#cd498c" stroke-width="1.51"></path><path d="M388,161L428,59L326,57Z" fill="#bd2567" stroke="#bd2567" stroke-width="1.51"></path><path d="M430,250L428,59L388,161Z" fill="#b82062" stroke="#b82062" stroke-width="1.51"></path><path d="M418,-100L329,-122L357,22Z" fill="#ce5196" stroke="#ce5196" stroke-width="1.51"></path><path d="M360,277L430,250L388,161Z" fill="#b51d5f" stroke="#b51d5f" stroke-width="1.51"></path><path d="M428,59L446,31L357,22Z" fill="#c23474" stroke="#c23474" stroke-width="1.51"></path><path d="M430,250L446,31L428,59Z" fill="#b92263" stroke="#b92263" stroke-width="1.51"></path><path d="M446,31L418,-100L357,22Z" fill="#c84385" stroke="#c84385" stroke-width="1.51"></path></svg>