<svg width="300" height="176" xmlns="http://www.w3.org/2000/svg"><path d="M59,-109L143,-97L229,-96Z" fill="#e05d9b" stroke="#e05d9b" stroke-width="1.51"></path><path d="M59,-109L229,-96L336,-89Z" fill="#dd5a97" stroke="#dd5a97" stroke-width="1.51"></path><path d="M348,171L387,209L403,93Z" fill="#b92263" stroke="#b92263" stroke-width="1.51"></path><path d="M403,93L387,209L425,255Z" fill="#b71f61" stroke="#b71f61" stroke-width="1.51"></path><path d="M412,-62L347,22L436,24Z" fill="#c93e7a" stroke="#c93e7a" stroke-width="1.51"></path><path d="M347,22L403,93L436,24Z" fill="#c33170" stroke="#c33170" stroke-width="1.51"></path><path d="M403,93L425,255L436,24Z" fill="#ba2264" stroke="#ba2264" stroke-width="1.51"></path><path d="M347,22L344,82L403,93Z" fill="#c12d6c" stroke="#c12d6c" stroke-width="1.51"></path><path d="M387,209L311,285L425,255Z" fill="#b41c5e" stroke="#b41c5e" stroke-width="1.51"></path><path d="M344,82L348,171L403,93Z" fill="#bc2466" stroke="#bc2466" stroke-width="1.51"></path><path d="M336,-89L347,22L412,-62Z" fill="#cf4883" stroke="#cf4883" stroke-width="1.51"></path><path d="M348,171L311,285L387,209Z" fill="#b72060" stroke="#b72060" stroke-width="1.51"></path><path d="M229,-96L242,8L336,-89Z" fill="#d64f8c" stroke="#d64f8c" stroke-width="1.51"></path><path d="M242,8L239,89L344,82Z" fill="#c63272" stroke="#c63272" stroke-width="1.51"></path><path d="M242,8L344,82L347,22Z" fill="#c83675" stroke="#c83675" stroke-width="1.51"></path><path d="M336,-89L242,8L347,22Z" fill="#cf4581" stroke="#cf4581" stroke-width="1.51"></path><path d="M236,240L311,285L348,171Z" fill="#b82162" stroke="#b82162" stroke-width="1.51"></path><path d="M219,175L236,240L348,171Z" fill="#bc2465" stroke="#bc2465" stroke-width="1.51"></path><path d="M344,82L239,89L348,171Z" fill="#bf2769" stroke="#bf2769" stroke-width="1.51"></path><path d="M239,89L219,175L348,171Z" fill="#be2768" stroke="#be2768" stroke-width="1.51"></path><path d="M236,240L144,280L311,285Z" fill="#b92163" stroke="#b92163" stroke-width="1.51"></path><path d="M143,-97L150,-14L229,-96Z" fill="#db5492" stroke="#db5492" stroke-width="1.51"></path><path d="M150,-14L116,72L239,89Z" fill="#cb3978" stroke="#cb3978" stroke-width="1.51"></path><path d="M147,187L219,175L239,89Z" fill="#c1296b" stroke="#c1296b" stroke-width="1.51"></path><path d="M116,72L147,187L239,89Z" fill="#c52c6f" stroke="#c52c6f" stroke-width="1.51"></path><path d="M150,-14L239,89L242,8Z" fill="#cd3d7b" stroke="#cd3d7b" stroke-width="1.51"></path><path d="M229,-96L150,-14L242,8Z" fill="#d54b88" stroke="#d54b88" stroke-width="1.51"></path><path d="M219,175L147,187L236,240Z" fill="#be2668" stroke="#be2668" stroke-width="1.51"></path><path d="M147,187L144,280L236,240Z" fill="#bd2567" stroke="#bd2567" stroke-width="1.51"></path><path d="M59,-109L52,-1L143,-97Z" fill="#e15f9d" stroke="#e15f9d" stroke-width="1.51"></path><path d="M52,248L-47,278L144,280Z" fill="#c63975" stroke="#c63975" stroke-width="1.51"></path><path d="M116,72L31,116L147,187Z" fill="#ca3777" stroke="#ca3777" stroke-width="1.51"></path><path d="M31,116L26,159L147,187Z" fill="#cb3b79" stroke="#cb3b79" stroke-width="1.51"></path><path d="M52,248L144,280L147,187Z" fill="#c22e6d" stroke="#c22e6d" stroke-width="1.51"></path><path d="M143,-97L52,-1L150,-14Z" fill="#db5392" stroke="#db5392" stroke-width="1.51"></path><path d="M52,-1L116,72L150,-14Z" fill="#d44886" stroke="#d44886" stroke-width="1.51"></path><path d="M26,159L52,248L147,187Z" fill="#c83876" stroke="#c83876" stroke-width="1.51"></path><path d="M52,-1L31,116L116,72Z" fill="#d34483" stroke="#d34483" stroke-width="1.51"></path><path d="M-43,93L31,116L52,-1Z" fill="#d74b8a" stroke="#d74b8a" stroke-width="1.51"></path><path d="M-20,-14L-43,93L52,-1Z" fill="#de5896" stroke="#de5896" stroke-width="1.51"></path><path d="M2,-113L-20,-14L52,-1Z" fill="#e565a3" stroke="#e565a3" stroke-width="1.51"></path><path d="M2,-113L52,-1L59,-109Z" fill="#e668a6" stroke="#e668a6" stroke-width="1.51"></path><path d="M26,159L-47,278L52,248Z" fill="#cc417e" stroke="#cc417e" stroke-width="1.51"></path><path d="M3,145L-47,278L26,159Z" fill="#d04683" stroke="#d04683" stroke-width="1.51"></path><path d="M-43,93L3,145L31,116Z" fill="#d44987" stroke="#d44987" stroke-width="1.51"></path><path d="M3,145L26,159L31,116Z" fill="#d04482" stroke="#d04482" stroke-width="1.51"></path><path d="M-146,-68L-20,-14L2,-113Z" fill="#ee74b2" stroke="#ee74b2" stroke-width="1.51"></path><path d="M-43,93L-149,163L3,145Z" fill="#d9528f" stroke="#d9528f" stroke-width="1.51"></path><path d="M-149,163L-47,278L3,145Z" fill="#d54f8b" stroke="#d54f8b" stroke-width="1.51"></path><path d="M-149,163L-146,248L-47,278Z" fill="#d85691" stroke="#d85691" stroke-width="1.51"></path><path d="M-148,-6L-43,93L-20,-14Z" fill="#e463a1" stroke="#e463a1" stroke-width="1.51"></path><path d="M-146,-68L-148,-6L-20,-14Z" fill="#ed74b3" stroke="#ed74b3" stroke-width="1.51"></path><path d="M-148,-6L-153,102L-43,93Z" fill="#e362a0" stroke="#e362a0" stroke-width="1.51"></path><path d="M-153,102L-149,163L-43,93Z" fill="#de5b98" stroke="#de5b98" stroke-width="1.51"></path><path d="M-149,163L-153,102L-146,248Z" fill="#de5e9a" stroke="#de5e9a" stroke-width="1.51"></path></svg>