<svg width="300" height="176" xmlns="http://www.w3.org/2000/svg"><path d="M158,108L58,147L137,185Z" fill="#c43577" stroke="#c43577" stroke-width="1.51"></path><path d="M158,108L54,76L58,147Z" fill="#cd4588" stroke="#cd4588" stroke-width="1.51"></path><path d="M58,147L60,235L137,185Z" fill="#c43f80" stroke="#c43f80" stroke-width="1.51"></path><path d="M-28,189L60,235L58,147Z" fill="#cc5499" stroke="#cc5499" stroke-width="1.51"></path><path d="M137,185L264,186L158,108Z" fill="#b92163" stroke="#b92163" stroke-width="1.51"></path><path d="M60,235L179,254L137,185Z" fill="#be2e6f" stroke="#be2e6f" stroke-width="1.51"></path><path d="M54,76L-29,119L58,147Z" fill="#d55ba4" stroke="#d55ba4" stroke-width="1.51"></path><path d="M-29,119L-28,189L58,147Z" fill="#d361ab" stroke="#d361ab" stroke-width="1.51"></path><path d="M147,-21L62,-14L54,76Z" fill="#e075c8" stroke="#e075c8" stroke-width="1.51"></path><path d="M54,76L-53,-17L-29,119Z" fill="#e278cd" stroke="#e278cd" stroke-width="1.51"></path><path d="M179,254L264,186L137,185Z" fill="#b61e60" stroke="#b61e60" stroke-width="1.51"></path><path d="M158,108L147,-21L54,76Z" fill="#d55298" stroke="#d55298" stroke-width="1.51"></path><path d="M206,-9L147,-21L158,108Z" fill="#d5579e" stroke="#d5579e" stroke-width="1.51"></path><path d="M264,186L273,108L158,108Z" fill="#b92163" stroke="#b92163" stroke-width="1.51"></path><path d="M273,108L206,-9L158,108Z" fill="#c7387a" stroke="#c7387a" stroke-width="1.51"></path><path d="M264,186L340,146L273,108Z" fill="#b21a5c" stroke="#b21a5c" stroke-width="1.51"></path><path d="M179,254L261,246L264,186Z" fill="#b21a5c" stroke="#b21a5c" stroke-width="1.51"></path><path d="M-28,189L-10,285L60,235Z" fill="#cf5ca4" stroke="#cf5ca4" stroke-width="1.51"></path><path d="M60,235L-10,285L179,254Z" fill="#c64384" stroke="#c64384" stroke-width="1.51"></path><path d="M179,254L347,263L261,246Z" fill="#b0185a" stroke="#b0185a" stroke-width="1.51"></path><path d="M147,-21L78,-70L62,-14Z" fill="#e27ad0" stroke="#e27ad0" stroke-width="1.51"></path><path d="M62,-14L-53,-17L54,76Z" fill="#e68be7" stroke="#e68be7" stroke-width="1.51"></path><path d="M146,-84L78,-70L147,-21Z" fill="#df71c2" stroke="#df71c2" stroke-width="1.51"></path><path d="M206,-9L146,-84L147,-21Z" fill="#db67b4" stroke="#db67b4" stroke-width="1.51"></path><path d="M-29,119L-121,200L-28,189Z" fill="#d15fa8" stroke="#d15fa8" stroke-width="1.51"></path><path d="M-29,-61L-53,-17L62,-14Z" fill="#e99aff" stroke="#e99aff" stroke-width="1.51"></path><path d="M347,263L340,146L264,186Z" fill="#ad1457" stroke="#ad1457" stroke-width="1.51"></path><path d="M273,108L363,3L206,-9Z" fill="#ca4b8e" stroke="#ca4b8e" stroke-width="1.51"></path><path d="M206,-9L237,-87L146,-84Z" fill="#d865b1" stroke="#d865b1" stroke-width="1.51"></path><path d="M340,146L342,112L273,108Z" fill="#b51d5f" stroke="#b51d5f" stroke-width="1.51"></path><path d="M-53,-17L-116,76L-29,119Z" fill="#e278cd" stroke="#e278cd" stroke-width="1.51"></path><path d="M-28,189L-106,300L-10,285Z" fill="#d05ea7" stroke="#d05ea7" stroke-width="1.51"></path><path d="M-116,76L-121,200L-29,119Z" fill="#d663ae" stroke="#d663ae" stroke-width="1.51"></path><path d="M-137,-69L-29,-61L78,-70Z" fill="#e99aff" stroke="#e99aff" stroke-width="1.51"></path><path d="M78,-70L-29,-61L62,-14Z" fill="#e78eec" stroke="#e78eec" stroke-width="1.51"></path><path d="M-53,-17L-128,1L-116,76Z" fill="#e78fee" stroke="#e78fee" stroke-width="1.51"></path><path d="M350,-70L237,-87L206,-9Z" fill="#d360aa" stroke="#d360aa" stroke-width="1.51"></path><path d="M405,66L363,3L342,112Z" fill="#c23878" stroke="#c23878" stroke-width="1.51"></path><path d="M261,246L347,263L264,186Z" fill="#ae1558" stroke="#ae1558" stroke-width="1.51"></path><path d="M431,299L347,263L179,254Z" fill="#ad1457" stroke="#ad1457" stroke-width="1.51"></path><path d="M-10,285L431,299L179,254Z" fill="#b51e5f" stroke="#b51e5f" stroke-width="1.51"></path><path d="M-121,200L-106,300L-28,189Z" fill="#d05ea7" stroke="#d05ea7" stroke-width="1.51"></path><path d="M-137,-69L-128,1L-53,-17Z" fill="#e99aff" stroke="#e99aff" stroke-width="1.51"></path><path d="M-116,76L-128,1L-121,200Z" fill="#dc67b5" stroke="#dc67b5" stroke-width="1.51"></path><path d="M342,112L363,3L273,108Z" fill="#be2e6e" stroke="#be2e6e" stroke-width="1.51"></path><path d="M396,163L342,112L340,146Z" fill="#b21a5c" stroke="#b21a5c" stroke-width="1.51"></path><path d="M347,263L396,163L340,146Z" fill="#ad1457" stroke="#ad1457" stroke-width="1.51"></path><path d="M396,163L405,66L342,112Z" fill="#b61e60" stroke="#b61e60" stroke-width="1.51"></path><path d="M405,66L394,11L363,3Z" fill="#ca4e92" stroke="#ca4e92" stroke-width="1.51"></path><path d="M363,3L350,-70L206,-9Z" fill="#d05ea7" stroke="#d05ea7" stroke-width="1.51"></path><path d="M394,11L350,-70L363,3Z" fill="#d05ea7" stroke="#d05ea7" stroke-width="1.51"></path><path d="M-29,-61L-137,-69L-53,-17Z" fill="#e99aff" stroke="#e99aff" stroke-width="1.51"></path><path d="M-128,1L-137,-69L-121,200Z" fill="#e481d9" stroke="#e481d9" stroke-width="1.51"></path><path d="M146,-84L-137,-69L78,-70Z" fill="#e791f0" stroke="#e791f0" stroke-width="1.51"></path><path d="M396,163L431,299L405,66Z" fill="#ad1457" stroke="#ad1457" stroke-width="1.51"></path><path d="M347,263L431,299L396,163Z" fill="#ad1457" stroke="#ad1457" stroke-width="1.51"></path><path d="M-106,300L431,299L-10,285Z" fill="#c13777" stroke="#c13777" stroke-width="1.51"></path><path d="M394,11L438,-78L350,-70Z" fill="#d05ea7" stroke="#d05ea7" stroke-width="1.51"></path><path d="M350,-70L438,-78L237,-87Z" fill="#d05ea7" stroke="#d05ea7" stroke-width="1.51"></path><path d="M405,66L438,-78L394,11Z" fill="#d05ea7" stroke="#d05ea7" stroke-width="1.51"></path><path d="M431,299L438,-78L405,66Z" fill="#b92163" stroke="#b92163" stroke-width="1.51"></path></svg>