<svg width="300" height="176" xmlns="http://www.w3.org/2000/svg"><path d="M-58,-112L67,-121L118,-125Z" fill="#eb71b0" stroke="#eb71b0" stroke-width="1.51"></path><path d="M59,264L-47,272L183,288Z" fill="#c43673" stroke="#c43673" stroke-width="1.51"></path><path d="M263,-121L352,-75L438,-69Z" fill="#d6538e" stroke="#d6538e" stroke-width="1.51"></path><path d="M426,-12L321,72L439,84Z" fill="#c3316f" stroke="#c3316f" stroke-width="1.51"></path><path d="M438,-69L426,-12L439,84Z" fill="#c73c77" stroke="#c73c77" stroke-width="1.51"></path><path d="M439,84L355,159L442,193Z" fill="#b82162" stroke="#b82162" stroke-width="1.51"></path><path d="M323,278L183,288L452,284Z" fill="#b41d5e" stroke="#b41d5e" stroke-width="1.51"></path><path d="M438,-69L439,84L452,284Z" fill="#ba2264" stroke="#ba2264" stroke-width="1.51"></path><path d="M442,193L323,278L452,284Z" fill="#b31b5d" stroke="#b31b5d" stroke-width="1.51"></path><path d="M439,84L442,193L452,284Z" fill="#b51d5f" stroke="#b51d5f" stroke-width="1.51"></path><path d="M352,-75L426,-12L438,-69Z" fill="#cf4984" stroke="#cf4984" stroke-width="1.51"></path><path d="M355,159L323,278L442,193Z" fill="#b71f60" stroke="#b71f60" stroke-width="1.51"></path><path d="M321,72L355,159L439,84Z" fill="#bd2567" stroke="#bd2567" stroke-width="1.51"></path><path d="M352,-75L302,-18L426,-12Z" fill="#cf4783" stroke="#cf4783" stroke-width="1.51"></path><path d="M302,-18L321,72L426,-12Z" fill="#c93b78" stroke="#c93b78" stroke-width="1.51"></path><path d="M302,-18L269,13L321,72Z" fill="#ca3b79" stroke="#ca3b79" stroke-width="1.51"></path><path d="M236,266L183,288L323,278Z" fill="#b82062" stroke="#b82062" stroke-width="1.51"></path><path d="M272,145L236,266L323,278Z" fill="#ba2263" stroke="#ba2263" stroke-width="1.51"></path><path d="M272,145L323,278L355,159Z" fill="#ba2264" stroke="#ba2264" stroke-width="1.51"></path><path d="M321,72L272,145L355,159Z" fill="#be2668" stroke="#be2668" stroke-width="1.51"></path><path d="M263,-121L302,-18L352,-75Z" fill="#d6518c" stroke="#d6518c" stroke-width="1.51"></path><path d="M259,110L272,145L321,72Z" fill="#c0286a" stroke="#c0286a" stroke-width="1.51"></path><path d="M269,13L259,110L321,72Z" fill="#c53070" stroke="#c53070" stroke-width="1.51"></path><path d="M263,-121L269,13L302,-18Z" fill="#d34a87" stroke="#d34a87" stroke-width="1.51"></path><path d="M118,-125L127,21L263,-121Z" fill="#dc5693" stroke="#dc5693" stroke-width="1.51"></path><path d="M138,96L259,110L269,13Z" fill="#c63071" stroke="#c63071" stroke-width="1.51"></path><path d="M127,21L138,96L269,13Z" fill="#cc3979" stroke="#cc3979" stroke-width="1.51"></path><path d="M263,-121L127,21L269,13Z" fill="#d34a87" stroke="#d34a87" stroke-width="1.51"></path><path d="M259,110L150,160L272,145Z" fill="#c1296b" stroke="#c1296b" stroke-width="1.51"></path><path d="M150,160L236,266L272,145Z" fill="#be2668" stroke="#be2668" stroke-width="1.51"></path><path d="M138,96L150,160L259,110Z" fill="#c32c6d" stroke="#c32c6d" stroke-width="1.51"></path><path d="M150,160L183,288L236,266Z" fill="#bd2567" stroke="#bd2567" stroke-width="1.51"></path><path d="M118,-125L52,-25L127,21Z" fill="#dd5795" stroke="#dd5795" stroke-width="1.51"></path><path d="M150,160L59,264L183,288Z" fill="#c02b6b" stroke="#c02b6b" stroke-width="1.51"></path><path d="M67,-121L52,-25L118,-125Z" fill="#e565a3" stroke="#e565a3" stroke-width="1.51"></path><path d="M127,21L69,94L138,96Z" fill="#cd3b7a" stroke="#cd3b7a" stroke-width="1.51"></path><path d="M138,96L69,94L150,160Z" fill="#c93374" stroke="#c93374" stroke-width="1.51"></path><path d="M69,94L39,160L150,160Z" fill="#ca3877" stroke="#ca3877" stroke-width="1.51"></path><path d="M39,160L59,264L150,160Z" fill="#c83675" stroke="#c83675" stroke-width="1.51"></path><path d="M52,-25L69,94L127,21Z" fill="#d54a88" stroke="#d54a88" stroke-width="1.51"></path><path d="M39,160L-31,166L59,264Z" fill="#cd417d" stroke="#cd417d" stroke-width="1.51"></path><path d="M-31,166L-47,272L59,264Z" fill="#cd4480" stroke="#cd4480" stroke-width="1.51"></path><path d="M-7,-26L52,-25L67,-121Z" fill="#e464a2" stroke="#e464a2" stroke-width="1.51"></path><path d="M-58,-112L-7,-26L67,-121Z" fill="#eb70ae" stroke="#eb70ae" stroke-width="1.51"></path><path d="M-12,111L39,160L69,94Z" fill="#d04381" stroke="#d04381" stroke-width="1.51"></path><path d="M52,-25L-7,-26L69,94Z" fill="#db5592" stroke="#db5592" stroke-width="1.51"></path><path d="M-7,-26L-12,111L69,94Z" fill="#d84d8b" stroke="#d84d8b" stroke-width="1.51"></path><path d="M-98,59L-12,111L-7,-26Z" fill="#de5997" stroke="#de5997" stroke-width="1.51"></path><path d="M-12,111L-31,166L39,160Z" fill="#d24784" stroke="#d24784" stroke-width="1.51"></path><path d="M-94,-66L-130,-11L-7,-26Z" fill="#ec71af" stroke="#ec71af" stroke-width="1.51"></path><path d="M-130,-11L-98,59L-7,-26Z" fill="#e768a6" stroke="#e768a6" stroke-width="1.51"></path><path d="M-58,-112L-94,-66L-7,-26Z" fill="#ee74b3" stroke="#ee74b3" stroke-width="1.51"></path><path d="M-104,266L-47,272L-31,166Z" fill="#d34d88" stroke="#d34d88" stroke-width="1.51"></path><path d="M-130,191L-104,266L-31,166Z" fill="#d6528e" stroke="#d6528e" stroke-width="1.51"></path><path d="M-98,59L-31,166L-12,111Z" fill="#d8508e" stroke="#d8508e" stroke-width="1.51"></path><path d="M-98,59L-130,191L-31,166Z" fill="#da5692" stroke="#da5692" stroke-width="1.51"></path><path d="M-130,-11L-130,191L-98,59Z" fill="#e15f9d" stroke="#e15f9d" stroke-width="1.51"></path></svg>