<svg width="300" height="176" xmlns="http://www.w3.org/2000/svg"><path d="M268,264L59,300L306,278Z" fill="#b92263" stroke="#b92263" stroke-width="1.51"></path><path d="M88,-121L206,-75L360,-62Z" fill="#d55aa2" stroke="#d55aa2" stroke-width="1.51"></path><path d="M88,-121L360,-62L393,-60Z" fill="#d2579e" stroke="#d2579e" stroke-width="1.51"></path><path d="M393,-60L354,19L435,-33Z" fill="#c94688" stroke="#c94688" stroke-width="1.51"></path><path d="M360,173L417,209L435,96Z" fill="#b82162" stroke="#b82162" stroke-width="1.51"></path><path d="M363,100L360,173L435,96Z" fill="#bb2365" stroke="#bb2365" stroke-width="1.51"></path><path d="M435,-33L354,19L435,96Z" fill="#c33778" stroke="#c33778" stroke-width="1.51"></path><path d="M354,19L363,100L435,96Z" fill="#c02b6c" stroke="#c02b6c" stroke-width="1.51"></path><path d="M360,-62L354,19L393,-60Z" fill="#cb488c" stroke="#cb488c" stroke-width="1.51"></path><path d="M360,173L394,268L417,209Z" fill="#b51e5f" stroke="#b51e5f" stroke-width="1.51"></path><path d="M360,173L306,278L394,268Z" fill="#b51e5f" stroke="#b51e5f" stroke-width="1.51"></path><path d="M234,-4L354,19L360,-62Z" fill="#cb4689" stroke="#cb4689" stroke-width="1.51"></path><path d="M268,264L306,278L360,173Z" fill="#b82061" stroke="#b82061" stroke-width="1.51"></path><path d="M240,177L268,264L360,173Z" fill="#ba2364" stroke="#ba2364" stroke-width="1.51"></path><path d="M354,19L222,99L363,100Z" fill="#c22d6e" stroke="#c22d6e" stroke-width="1.51"></path><path d="M240,177L360,173L363,100Z" fill="#bc2566" stroke="#bc2566" stroke-width="1.51"></path><path d="M222,99L240,177L363,100Z" fill="#c0286a" stroke="#c0286a" stroke-width="1.51"></path><path d="M234,-4L222,99L354,19Z" fill="#c7397b" stroke="#c7397b" stroke-width="1.51"></path><path d="M206,-75L234,-4L360,-62Z" fill="#d04f94" stroke="#d04f94" stroke-width="1.51"></path><path d="M138,246L59,300L268,264Z" fill="#bc2566" stroke="#bc2566" stroke-width="1.51"></path><path d="M240,177L154,208L268,264Z" fill="#bc2566" stroke="#bc2566" stroke-width="1.51"></path><path d="M154,208L138,246L268,264Z" fill="#bc2566" stroke="#bc2566" stroke-width="1.51"></path><path d="M206,-75L159,-59L234,-4Z" fill="#d25197" stroke="#d25197" stroke-width="1.51"></path><path d="M139,28L222,99L234,-4Z" fill="#ca3a7d" stroke="#ca3a7d" stroke-width="1.51"></path><path d="M222,99L154,208L240,177Z" fill="#c1286a" stroke="#c1286a" stroke-width="1.51"></path><path d="M159,-59L139,28L234,-4Z" fill="#d0498d" stroke="#d0498d" stroke-width="1.51"></path><path d="M88,-121L159,-59L206,-75Z" fill="#d85ca5" stroke="#d85ca5" stroke-width="1.51"></path><path d="M120,72L154,208L222,99Z" fill="#c52c6e" stroke="#c52c6e" stroke-width="1.51"></path><path d="M139,28L120,72L222,99Z" fill="#c93477" stroke="#c93477" stroke-width="1.51"></path><path d="M120,72L78,168L154,208Z" fill="#c63274" stroke="#c63274" stroke-width="1.51"></path><path d="M40,19L139,28L159,-59Z" fill="#d34f95" stroke="#d34f95" stroke-width="1.51"></path><path d="M88,-121L40,19L159,-59Z" fill="#d85da7" stroke="#d85da7" stroke-width="1.51"></path><path d="M78,168L138,246L154,208Z" fill="#c22e6f" stroke="#c22e6f" stroke-width="1.51"></path><path d="M47,80L78,168L120,72Z" fill="#cb3b7e" stroke="#cb3b7e" stroke-width="1.51"></path><path d="M40,19L120,72L139,28Z" fill="#d0468a" stroke="#d0468a" stroke-width="1.51"></path><path d="M78,168L59,300L138,246Z" fill="#c33475" stroke="#c33475" stroke-width="1.51"></path><path d="M-13,-104L40,19L88,-121Z" fill="#dd6bb9" stroke="#dd6bb9" stroke-width="1.51"></path><path d="M40,19L47,80L120,72Z" fill="#d1478b" stroke="#d1478b" stroke-width="1.51"></path><path d="M-18,258L-146,288L59,300Z" fill="#ca4a8d" stroke="#ca4a8d" stroke-width="1.51"></path><path d="M-18,258L59,300L78,168Z" fill="#c73d7f" stroke="#c73d7f" stroke-width="1.51"></path><path d="M-29,189L-18,258L78,168Z" fill="#ca4587" stroke="#ca4587" stroke-width="1.51"></path><path d="M-13,-104L-43,-12L40,19Z" fill="#dd69b7" stroke="#dd69b7" stroke-width="1.51"></path><path d="M47,80L-29,189L78,168Z" fill="#cd4386" stroke="#cd4386" stroke-width="1.51"></path><path d="M-60,95L-29,189L47,80Z" fill="#d14d92" stroke="#d14d92" stroke-width="1.51"></path><path d="M40,19L-60,95L47,80Z" fill="#d35096" stroke="#d35096" stroke-width="1.51"></path><path d="M-43,-12L-60,95L40,19Z" fill="#d85ca6" stroke="#d85ca6" stroke-width="1.51"></path><path d="M-114,-77L-92,-20L-43,-12Z" fill="#e177ca" stroke="#e177ca" stroke-width="1.51"></path><path d="M-29,189L-134,206L-18,258Z" fill="#cf5196" stroke="#cf5196" stroke-width="1.51"></path><path d="M-114,-77L-43,-12L-13,-104Z" fill="#e279cd" stroke="#e279cd" stroke-width="1.51"></path><path d="M-92,-20L-60,95L-43,-12Z" fill="#dc66b4" stroke="#dc66b4" stroke-width="1.51"></path><path d="M-60,95L-109,111L-29,189Z" fill="#d4569d" stroke="#d4569d" stroke-width="1.51"></path><path d="M-134,206L-146,288L-18,258Z" fill="#cf569d" stroke="#cf569d" stroke-width="1.51"></path><path d="M-109,111L-134,206L-29,189Z" fill="#d458a0" stroke="#d458a0" stroke-width="1.51"></path><path d="M-92,-20L-109,111L-60,95Z" fill="#da61ac" stroke="#da61ac" stroke-width="1.51"></path><path d="M-114,-77L-109,111L-92,-20Z" fill="#df71c2" stroke="#df71c2" stroke-width="1.51"></path><path d="M-114,-77L-134,206L-109,111Z" fill="#da62ae" stroke="#da62ae" stroke-width="1.51"></path><path d="M-146,288L-134,206L-114,-77Z" fill="#d760ab" stroke="#d760ab" stroke-width="1.51"></path></svg>