<svg width="300" height="176" xmlns="http://www.w3.org/2000/svg"><path d="M141,92L148,170L233,101Z" fill="#c0286a" stroke="#c0286a" stroke-width="1.51"></path><path d="M148,170L265,175L233,101Z" fill="#b82162" stroke="#b82162" stroke-width="1.51"></path><path d="M148,170L226,254L265,175Z" fill="#b41d5e" stroke="#b41d5e" stroke-width="1.51"></path><path d="M265,175L358,67L233,101Z" fill="#b71f61" stroke="#b71f61" stroke-width="1.51"></path><path d="M226,254L300,197L265,175Z" fill="#b0185a" stroke="#b0185a" stroke-width="1.51"></path><path d="M223,-21L131,-1L141,92Z" fill="#d659a1" stroke="#d659a1" stroke-width="1.51"></path><path d="M141,92L45,105L148,170Z" fill="#c83b7d" stroke="#c83b7d" stroke-width="1.51"></path><path d="M131,-1L45,105L141,92Z" fill="#d45096" stroke="#d45096" stroke-width="1.51"></path><path d="M148,170L177,298L226,254Z" fill="#b71f61" stroke="#b71f61" stroke-width="1.51"></path><path d="M45,105L35,161L148,170Z" fill="#ca4689" stroke="#ca4689" stroke-width="1.51"></path><path d="M323,-33L223,-21L233,101Z" fill="#d0579e" stroke="#d0579e" stroke-width="1.51"></path><path d="M233,101L223,-21L141,92Z" fill="#cb4183" stroke="#cb4183" stroke-width="1.51"></path><path d="M226,254L321,297L300,197Z" fill="#ae1658" stroke="#ae1658" stroke-width="1.51"></path><path d="M31,236L177,298L148,170Z" fill="#bf3171" stroke="#bf3171" stroke-width="1.51"></path><path d="M300,197L358,67L265,175Z" fill="#b1195b" stroke="#b1195b" stroke-width="1.51"></path><path d="M35,161L31,236L148,170Z" fill="#c64486" stroke="#c64486" stroke-width="1.51"></path><path d="M45,105L-6,70L35,161Z" fill="#d65da6" stroke="#d65da6" stroke-width="1.51"></path><path d="M131,-1L53,-14L45,105Z" fill="#df70c0" stroke="#df70c0" stroke-width="1.51"></path><path d="M164,-90L53,-14L131,-1Z" fill="#e073c6" stroke="#e073c6" stroke-width="1.51"></path><path d="M53,-14L-6,70L45,105Z" fill="#df71c3" stroke="#df71c3" stroke-width="1.51"></path><path d="M35,161L-49,195L31,236Z" fill="#cf5ca4" stroke="#cf5ca4" stroke-width="1.51"></path><path d="M358,67L323,-33L233,101Z" fill="#c64384" stroke="#c64384" stroke-width="1.51"></path><path d="M223,-21L164,-90L131,-1Z" fill="#da66b3" stroke="#da66b3" stroke-width="1.51"></path><path d="M410,174L403,91L358,67Z" fill="#b61f60" stroke="#b61f60" stroke-width="1.51"></path><path d="M177,298L321,297L226,254Z" fill="#b21a5c" stroke="#b21a5c" stroke-width="1.51"></path><path d="M266,-98L164,-90L223,-21Z" fill="#d763af" stroke="#d763af" stroke-width="1.51"></path><path d="M410,174L358,67L300,197Z" fill="#b1195b" stroke="#b1195b" stroke-width="1.51"></path><path d="M358,67L447,6L323,-33Z" fill="#cd569c" stroke="#cd569c" stroke-width="1.51"></path><path d="M387,272L410,174L300,197Z" fill="#ad1457" stroke="#ad1457" stroke-width="1.51"></path><path d="M323,-33L266,-98L223,-21Z" fill="#d260aa" stroke="#d260aa" stroke-width="1.51"></path><path d="M-6,70L-49,195L35,161Z" fill="#d562ad" stroke="#d562ad" stroke-width="1.51"></path><path d="M-6,70L-115,160L-49,195Z" fill="#d562ad" stroke="#d562ad" stroke-width="1.51"></path><path d="M53,-14L-56,27L-6,70Z" fill="#e68be7" stroke="#e68be7" stroke-width="1.51"></path><path d="M164,-90L27,-61L53,-14Z" fill="#e37fd6" stroke="#e37fd6" stroke-width="1.51"></path><path d="M321,297L387,272L300,197Z" fill="#ad1457" stroke="#ad1457" stroke-width="1.51"></path><path d="M27,-61L-56,27L53,-14Z" fill="#e998fb" stroke="#e998fb" stroke-width="1.51"></path><path d="M-49,195L-55,267L31,236Z" fill="#d05ea7" stroke="#d05ea7" stroke-width="1.51"></path><path d="M31,236L-55,267L177,298Z" fill="#c94c8f" stroke="#c94c8f" stroke-width="1.51"></path><path d="M-115,160L-55,267L-49,195Z" fill="#d05ea7" stroke="#d05ea7" stroke-width="1.51"></path><path d="M323,-33L343,-111L266,-98Z" fill="#d05ea7" stroke="#d05ea7" stroke-width="1.51"></path><path d="M266,-98L386,-122L164,-90Z" fill="#d260aa" stroke="#d260aa" stroke-width="1.51"></path><path d="M386,-122L343,-111L323,-33Z" fill="#d05ea7" stroke="#d05ea7" stroke-width="1.51"></path><path d="M403,91L447,6L358,67Z" fill="#c33c7c" stroke="#c33c7c" stroke-width="1.51"></path><path d="M410,174L447,6L403,91Z" fill="#b92163" stroke="#b92163" stroke-width="1.51"></path><path d="M-132,104L-115,160L-6,70Z" fill="#d965b2" stroke="#d965b2" stroke-width="1.51"></path><path d="M-56,27L-132,104L-6,70Z" fill="#e074c7" stroke="#e074c7" stroke-width="1.51"></path><path d="M-92,-33L-132,104L-56,27Z" fill="#e588e3" stroke="#e588e3" stroke-width="1.51"></path><path d="M27,-61L-92,-33L-56,27Z" fill="#e99aff" stroke="#e99aff" stroke-width="1.51"></path><path d="M447,6L386,-122L323,-33Z" fill="#d05ea7" stroke="#d05ea7" stroke-width="1.51"></path><path d="M343,-111L386,-122L266,-98Z" fill="#d05ea7" stroke="#d05ea7" stroke-width="1.51"></path><path d="M27,-61L-64,-106L-92,-33Z" fill="#e99aff" stroke="#e99aff" stroke-width="1.51"></path><path d="M164,-90L-64,-106L27,-61Z" fill="#e68cea" stroke="#e68cea" stroke-width="1.51"></path><path d="M386,-122L-64,-106L164,-90Z" fill="#db67b4" stroke="#db67b4" stroke-width="1.51"></path><path d="M-64,-106L-113,-75L-92,-33Z" fill="#e99aff" stroke="#e99aff" stroke-width="1.51"></path><path d="M-92,-33L-113,-75L-132,104Z" fill="#e99aff" stroke="#e99aff" stroke-width="1.51"></path><path d="M-115,160L-134,301L-55,267Z" fill="#d05ea7" stroke="#d05ea7" stroke-width="1.51"></path><path d="M-55,267L-134,301L177,298Z" fill="#d05ea7" stroke="#d05ea7" stroke-width="1.51"></path><path d="M177,298L-134,301L321,297Z" fill="#bf3070" stroke="#bf3070" stroke-width="1.51"></path><path d="M-132,104L-134,301L-115,160Z" fill="#d05ea7" stroke="#d05ea7" stroke-width="1.51"></path></svg>