<svg width="300" height="176" xmlns="http://www.w3.org/2000/svg"><path d="M119,112L78,68L45,156Z" fill="#5268bd" stroke="#5268bd" stroke-width="1.51"></path><path d="M45,156L118,180L119,112Z" fill="#4f63ba" stroke="#4f63ba" stroke-width="1.51"></path><path d="M45,156L77,254L118,180Z" fill="#4e63b9" stroke="#4e63b9" stroke-width="1.51"></path><path d="M78,68L-35,145L45,156Z" fill="#5874c1" stroke="#5874c1" stroke-width="1.51"></path><path d="M119,112L147,6L78,68Z" fill="#546bbf" stroke="#546bbf" stroke-width="1.51"></path><path d="M78,68L-58,66L-35,145Z" fill="#5d7ec5" stroke="#5d7ec5" stroke-width="1.51"></path><path d="M207,102L147,6L119,112Z" fill="#4d5dba" stroke="#4d5dba" stroke-width="1.51"></path><path d="M213,182L207,102L119,112Z" fill="#4755b5" stroke="#4755b5" stroke-width="1.51"></path><path d="M-22,-36L-58,66L78,68Z" fill="#6591cc" stroke="#6591cc" stroke-width="1.51"></path><path d="M-30,241L77,254L45,156Z" fill="#536ebb" stroke="#536ebb" stroke-width="1.51"></path><path d="M118,180L213,182L119,112Z" fill="#4655b5" stroke="#4655b5" stroke-width="1.51"></path><path d="M147,6L59,-32L78,68Z" fill="#5e7fc6" stroke="#5e7fc6" stroke-width="1.51"></path><path d="M77,254L124,257L118,180Z" fill="#495bb4" stroke="#495bb4" stroke-width="1.51"></path><path d="M124,257L213,182L118,180Z" fill="#4452b2" stroke="#4452b2" stroke-width="1.51"></path><path d="M-35,145L-30,241L45,156Z" fill="#5a79c0" stroke="#5a79c0" stroke-width="1.51"></path><path d="M-88,250L-30,241L-35,145Z" fill="#5c82c2" stroke="#5c82c2" stroke-width="1.51"></path><path d="M59,-32L-22,-36L78,68Z" fill="#6692cc" stroke="#6692cc" stroke-width="1.51"></path><path d="M147,6L164,-63L59,-32Z" fill="#6188c9" stroke="#6188c9" stroke-width="1.51"></path><path d="M207,102L234,23L147,6Z" fill="#5166bc" stroke="#5166bc" stroke-width="1.51"></path><path d="M324,78L234,23L207,102Z" fill="#4a5bb7" stroke="#4a5bb7" stroke-width="1.51"></path><path d="M328,185L324,78L207,102Z" fill="#4351b1" stroke="#4351b1" stroke-width="1.51"></path><path d="M124,257L222,244L213,182Z" fill="#414faf" stroke="#414faf" stroke-width="1.51"></path><path d="M234,23L164,-63L147,6Z" fill="#5b79c3" stroke="#5b79c3" stroke-width="1.51"></path><path d="M59,-32L45,-106L-22,-36Z" fill="#6ea9d4" stroke="#6ea9d4" stroke-width="1.51"></path><path d="M-30,241L-88,250L77,254Z" fill="#5776bd" stroke="#5776bd" stroke-width="1.51"></path><path d="M77,254L-88,250L124,257Z" fill="#506ab9" stroke="#506ab9" stroke-width="1.51"></path><path d="M-137,168L-88,250L-35,145Z" fill="#618cc6" stroke="#618cc6" stroke-width="1.51"></path><path d="M-58,66L-140,101L-35,145Z" fill="#648fca" stroke="#648fca" stroke-width="1.51"></path><path d="M-22,-36L-109,5L-58,66Z" fill="#6da8d3" stroke="#6da8d3" stroke-width="1.51"></path><path d="M-109,5L-140,101L-58,66Z" fill="#6ba2d1" stroke="#6ba2d1" stroke-width="1.51"></path><path d="M-140,101L-137,168L-35,145Z" fill="#6594cb" stroke="#6594cb" stroke-width="1.51"></path><path d="M164,-63L45,-106L59,-32Z" fill="#6a9dd0" stroke="#6a9dd0" stroke-width="1.51"></path><path d="M-22,-36L-115,-96L-109,5Z" fill="#74bfda" stroke="#74bfda" stroke-width="1.51"></path><path d="M45,-106L-27,-117L-22,-36Z" fill="#73bbd9" stroke="#73bbd9" stroke-width="1.51"></path><path d="M328,185L207,102L213,182Z" fill="#4251b1" stroke="#4251b1" stroke-width="1.51"></path><path d="M234,23L245,-73L164,-63Z" fill="#5e81c5" stroke="#5e81c5" stroke-width="1.51"></path><path d="M351,-10L245,-73L234,23Z" fill="#5978c0" stroke="#5978c0" stroke-width="1.51"></path><path d="M164,-63L245,-73L45,-106Z" fill="#6693cc" stroke="#6693cc" stroke-width="1.51"></path><path d="M222,244L328,185L213,182Z" fill="#404dae" stroke="#404dae" stroke-width="1.51"></path><path d="M-27,-117L-115,-96L-22,-36Z" fill="#76c7dd" stroke="#76c7dd" stroke-width="1.51"></path><path d="M-109,5L-115,-96L-140,101Z" fill="#72b9d8" stroke="#72b9d8" stroke-width="1.51"></path><path d="M222,244L332,248L328,185Z" fill="#3d4bab" stroke="#3d4bab" stroke-width="1.51"></path><path d="M405,100L351,-10L324,78Z" fill="#485bb4" stroke="#485bb4" stroke-width="1.51"></path><path d="M124,257L332,248L222,244Z" fill="#3e4cac" stroke="#3e4cac" stroke-width="1.51"></path><path d="M324,78L351,-10L234,23Z" fill="#4f66b9" stroke="#4f66b9" stroke-width="1.51"></path><path d="M405,100L324,78L328,185Z" fill="#404eae" stroke="#404eae" stroke-width="1.51"></path><path d="M332,248L395,181L328,185Z" fill="#3c49a9" stroke="#3c49a9" stroke-width="1.51"></path><path d="M395,181L405,100L328,185Z" fill="#3e4bab" stroke="#3e4bab" stroke-width="1.51"></path><path d="M418,-102L343,-88L351,-10Z" fill="#5c84c1" stroke="#5c84c1" stroke-width="1.51"></path><path d="M351,-10L343,-88L245,-73Z" fill="#5d83c2" stroke="#5d83c2" stroke-width="1.51"></path><path d="M245,-73L343,-88L45,-106Z" fill="#6593cb" stroke="#6593cb" stroke-width="1.51"></path><path d="M45,-106L418,-102L-27,-117Z" fill="#6a9dd0" stroke="#6a9dd0" stroke-width="1.51"></path><path d="M405,100L442,17L351,-10Z" fill="#4b60b4" stroke="#4b60b4" stroke-width="1.51"></path><path d="M443,246L442,17L405,100Z" fill="#3d4bab" stroke="#3d4bab" stroke-width="1.51"></path><path d="M395,181L443,246L405,100Z" fill="#3a49a9" stroke="#3a49a9" stroke-width="1.51"></path><path d="M332,248L443,246L395,181Z" fill="#3947a7" stroke="#3947a7" stroke-width="1.51"></path><path d="M124,257L443,246L332,248Z" fill="#3b49a9" stroke="#3b49a9" stroke-width="1.51"></path><path d="M442,17L418,-102L351,-10Z" fill="#5676bc" stroke="#5676bc" stroke-width="1.51"></path><path d="M343,-88L418,-102L45,-106Z" fill="#6494c9" stroke="#6494c9" stroke-width="1.51"></path></svg>