<svg width="300" height="176" xmlns="http://www.w3.org/2000/svg"><path d="M125,57L207,22L170,12Z" fill="#628ac8" stroke="#628ac8" stroke-width="1.51"></path><path d="M125,57L232,73L207,22Z" fill="#5976c1" stroke="#5976c1" stroke-width="1.51"></path><path d="M125,57L156,156L232,73Z" fill="#4856b6" stroke="#4856b6" stroke-width="1.51"></path><path d="M170,12L92,-61L125,57Z" fill="#6fafd5" stroke="#6fafd5" stroke-width="1.51"></path><path d="M207,22L206,-70L170,12Z" fill="#6aa2ce" stroke="#6aa2ce" stroke-width="1.51"></path><path d="M318,-25L206,-70L207,22Z" fill="#669dca" stroke="#669dca" stroke-width="1.51"></path><path d="M156,156L212,208L232,73Z" fill="#3e4cac" stroke="#3e4cac" stroke-width="1.51"></path><path d="M145,-86L92,-61L170,12Z" fill="#6faed5" stroke="#6faed5" stroke-width="1.51"></path><path d="M92,-61L31,25L125,57Z" fill="#75c4db" stroke="#75c4db" stroke-width="1.51"></path><path d="M125,57L32,110L156,156Z" fill="#546dbe" stroke="#546dbe" stroke-width="1.51"></path><path d="M31,25L32,110L125,57Z" fill="#699bcf" stroke="#699bcf" stroke-width="1.51"></path><path d="M156,156L161,294L212,208Z" fill="#3b49a9" stroke="#3b49a9" stroke-width="1.51"></path><path d="M206,-70L145,-86L170,12Z" fill="#6ba4d0" stroke="#6ba4d0" stroke-width="1.51"></path><path d="M232,73L318,-25L207,22Z" fill="#5e88c3" stroke="#5e88c3" stroke-width="1.51"></path><path d="M355,87L318,-25L232,73Z" fill="#5271b9" stroke="#5271b9" stroke-width="1.51"></path><path d="M32,110L60,196L156,156Z" fill="#5471bb" stroke="#5471bb" stroke-width="1.51"></path><path d="M361,144L355,87L232,73Z" fill="#3b4aaa" stroke="#3b4aaa" stroke-width="1.51"></path><path d="M212,208L361,144L232,73Z" fill="#3946a6" stroke="#3946a6" stroke-width="1.51"></path><path d="M32,110L-18,119L60,196Z" fill="#6291c6" stroke="#6291c6" stroke-width="1.51"></path><path d="M-34,28L-18,119L32,110Z" fill="#6da8d3" stroke="#6da8d3" stroke-width="1.51"></path><path d="M212,208L243,263L361,144Z" fill="#3341a1" stroke="#3341a1" stroke-width="1.51"></path><path d="M161,294L243,263L212,208Z" fill="#3947a7" stroke="#3947a7" stroke-width="1.51"></path><path d="M31,25L-34,28L32,110Z" fill="#74c0da" stroke="#74c0da" stroke-width="1.51"></path><path d="M2,-85L-34,28L31,25Z" fill="#7ff8ea" stroke="#7ff8ea" stroke-width="1.51"></path><path d="M318,-25L336,-96L206,-70Z" fill="#6399c6" stroke="#6399c6" stroke-width="1.51"></path><path d="M206,-70L336,-96L145,-86Z" fill="#679fcb" stroke="#679fcb" stroke-width="1.51"></path><path d="M422,-31L336,-96L318,-25Z" fill="#6298c5" stroke="#6298c5" stroke-width="1.51"></path><path d="M417,67L318,-25L355,87Z" fill="#5372b9" stroke="#5372b9" stroke-width="1.51"></path><path d="M92,-61L2,-85L31,25Z" fill="#7ce1e4" stroke="#7ce1e4" stroke-width="1.51"></path><path d="M145,-86L2,-85L92,-61Z" fill="#77ccde" stroke="#77ccde" stroke-width="1.51"></path><path d="M336,-96L2,-85L145,-86Z" fill="#6ca5d1" stroke="#6ca5d1" stroke-width="1.51"></path><path d="M-14,234L77,269L60,196Z" fill="#5a83be" stroke="#5a83be" stroke-width="1.51"></path><path d="M60,196L77,269L156,156Z" fill="#4d66b5" stroke="#4d66b5" stroke-width="1.51"></path><path d="M77,269L161,294L156,156Z" fill="#4455af" stroke="#4455af" stroke-width="1.51"></path><path d="M361,144L417,67L355,87Z" fill="#3c4aaa" stroke="#3c4aaa" stroke-width="1.51"></path><path d="M-18,119L-14,234L60,196Z" fill="#6193c4" stroke="#6193c4" stroke-width="1.51"></path><path d="M-34,28L-62,144L-18,119Z" fill="#6ba5d1" stroke="#6ba5d1" stroke-width="1.51"></path><path d="M361,144L441,165L417,67Z" fill="#3846a6" stroke="#3846a6" stroke-width="1.51"></path><path d="M243,263L301,284L361,144Z" fill="#303f9f" stroke="#303f9f" stroke-width="1.51"></path><path d="M161,294L301,284L243,263Z" fill="#3644a4" stroke="#3644a4" stroke-width="1.51"></path><path d="M-62,144L-14,234L-18,119Z" fill="#639ac7" stroke="#639ac7" stroke-width="1.51"></path><path d="M417,67L422,-31L318,-25Z" fill="#6195c4" stroke="#6195c4" stroke-width="1.51"></path><path d="M417,67L441,165L422,-31Z" fill="#485db2" stroke="#485db2" stroke-width="1.51"></path><path d="M400,275L441,165L361,144Z" fill="#303f9f" stroke="#303f9f" stroke-width="1.51"></path><path d="M422,-31L427,-77L336,-96Z" fill="#6298c5" stroke="#6298c5" stroke-width="1.51"></path><path d="M441,165L427,-77L422,-31Z" fill="#5c87c0" stroke="#5c87c0" stroke-width="1.51"></path><path d="M-34,28L-133,94L-62,144Z" fill="#6da6d2" stroke="#6da6d2" stroke-width="1.51"></path><path d="M2,-85L-118,-14L-34,28Z" fill="#7ff8ea" stroke="#7ff8ea" stroke-width="1.51"></path><path d="M301,284L400,275L361,144Z" fill="#303f9f" stroke="#303f9f" stroke-width="1.51"></path><path d="M-62,144L-130,182L-14,234Z" fill="#6298c5" stroke="#6298c5" stroke-width="1.51"></path><path d="M-118,-14L-133,94L-34,28Z" fill="#79d6e1" stroke="#79d6e1" stroke-width="1.51"></path><path d="M-133,94L-130,182L-62,144Z" fill="#679ecb" stroke="#679ecb" stroke-width="1.51"></path><path d="M-118,-14L-130,-74L-133,94Z" fill="#7ff6ea" stroke="#7ff6ea" stroke-width="1.51"></path><path d="M2,-85L-130,-74L-118,-14Z" fill="#7ff8ea" stroke="#7ff8ea" stroke-width="1.51"></path><path d="M-130,182L-111,294L-14,234Z" fill="#6298c5" stroke="#6298c5" stroke-width="1.51"></path><path d="M-14,234L-111,294L77,269Z" fill="#6298c5" stroke="#6298c5" stroke-width="1.51"></path><path d="M77,269L-111,294L161,294Z" fill="#5a82be" stroke="#5a82be" stroke-width="1.51"></path></svg>