<svg width="300" height="176" xmlns="http://www.w3.org/2000/svg"><path d="M161,89L213,59L122,9Z" fill="#5976c2" stroke="#5976c2" stroke-width="1.51"></path><path d="M122,9L89,93L161,89Z" fill="#5c7bc5" stroke="#5c7bc5" stroke-width="1.51"></path><path d="M213,59L181,-66L122,9Z" fill="#6ba4d0" stroke="#6ba4d0" stroke-width="1.51"></path><path d="M213,59L270,30L181,-66Z" fill="#6598ca" stroke="#6598ca" stroke-width="1.51"></path><path d="M313,30L270,30L304,117Z" fill="#4d65b5" stroke="#4d65b5" stroke-width="1.51"></path><path d="M122,9L49,18L89,93Z" fill="#6ca4d2" stroke="#6ca4d2" stroke-width="1.51"></path><path d="M40,-76L49,18L122,9Z" fill="#78d1df" stroke="#78d1df" stroke-width="1.51"></path><path d="M270,30L221,-81L181,-66Z" fill="#689fcc" stroke="#689fcc" stroke-width="1.51"></path><path d="M89,93L91,154L161,89Z" fill="#5168bc" stroke="#5168bc" stroke-width="1.51"></path><path d="M304,117L270,30L213,59Z" fill="#4b60b4" stroke="#4b60b4" stroke-width="1.51"></path><path d="M1,199L91,154L89,93Z" fill="#597dbf" stroke="#597dbf" stroke-width="1.51"></path><path d="M270,30L334,-70L221,-81Z" fill="#649ac7" stroke="#649ac7" stroke-width="1.51"></path><path d="M304,117L213,59L252,176Z" fill="#3d4bab" stroke="#3d4bab" stroke-width="1.51"></path><path d="M252,176L213,59L161,89Z" fill="#4251b1" stroke="#4251b1" stroke-width="1.51"></path><path d="M183,209L252,176L161,89Z" fill="#3c4aaa" stroke="#3c4aaa" stroke-width="1.51"></path><path d="M221,-81L40,-76L181,-66Z" fill="#6da8d3" stroke="#6da8d3" stroke-width="1.51"></path><path d="M181,-66L40,-76L122,9Z" fill="#72b9d8" stroke="#72b9d8" stroke-width="1.51"></path><path d="M91,154L183,209L161,89Z" fill="#4352b0" stroke="#4352b0" stroke-width="1.51"></path><path d="M313,30L334,-70L270,30Z" fill="#6298c5" stroke="#6298c5" stroke-width="1.51"></path><path d="M433,-33L334,-70L313,30Z" fill="#6298c5" stroke="#6298c5" stroke-width="1.51"></path><path d="M347,237L351,198L252,176Z" fill="#303f9f" stroke="#303f9f" stroke-width="1.51"></path><path d="M91,154L123,248L183,209Z" fill="#4355af" stroke="#4355af" stroke-width="1.51"></path><path d="M40,-76L-58,-16L49,18Z" fill="#7ef2e9" stroke="#7ef2e9" stroke-width="1.51"></path><path d="M49,18L-60,69L89,93Z" fill="#70b2d6" stroke="#70b2d6" stroke-width="1.51"></path><path d="M91,154L72,251L123,248Z" fill="#4d67b5" stroke="#4d67b5" stroke-width="1.51"></path><path d="M221,-81L-8,-101L40,-76Z" fill="#76c9dd" stroke="#76c9dd" stroke-width="1.51"></path><path d="M-58,-16L-60,69L49,18Z" fill="#7ce2e4" stroke="#7ce2e4" stroke-width="1.51"></path><path d="M-8,-101L-58,-16L40,-76Z" fill="#7ff8ea" stroke="#7ff8ea" stroke-width="1.51"></path><path d="M-60,69L1,199L89,93Z" fill="#679ccc" stroke="#679ccc" stroke-width="1.51"></path><path d="M1,199L72,251L91,154Z" fill="#577cbc" stroke="#577cbc" stroke-width="1.51"></path><path d="M304,117L430,66L313,30Z" fill="#475ab1" stroke="#475ab1" stroke-width="1.51"></path><path d="M252,176L351,198L304,117Z" fill="#3241a1" stroke="#3241a1" stroke-width="1.51"></path><path d="M261,279L252,176L183,209Z" fill="#3645a5" stroke="#3645a5" stroke-width="1.51"></path><path d="M123,248L261,279L183,209Z" fill="#3a48a8" stroke="#3a48a8" stroke-width="1.51"></path><path d="M72,251L261,279L123,248Z" fill="#3d4cac" stroke="#3d4cac" stroke-width="1.51"></path><path d="M-8,-101L-93,-14L-58,-16Z" fill="#7ff8ea" stroke="#7ff8ea" stroke-width="1.51"></path><path d="M-58,-16L-93,-14L-60,69Z" fill="#7debe7" stroke="#7debe7" stroke-width="1.51"></path><path d="M411,162L430,66L304,117Z" fill="#3948a8" stroke="#3948a8" stroke-width="1.51"></path><path d="M351,198L411,162L304,117Z" fill="#3341a1" stroke="#3341a1" stroke-width="1.51"></path><path d="M261,279L347,237L252,176Z" fill="#3140a0" stroke="#3140a0" stroke-width="1.51"></path><path d="M-93,-14L-108,64L-60,69Z" fill="#79d3e0" stroke="#79d3e0" stroke-width="1.51"></path><path d="M-150,193L-116,244L1,199Z" fill="#6298c5" stroke="#6298c5" stroke-width="1.51"></path><path d="M413,277L411,162L351,198Z" fill="#303f9f" stroke="#303f9f" stroke-width="1.51"></path><path d="M430,66L433,-33L313,30Z" fill="#5b85bf" stroke="#5b85bf" stroke-width="1.51"></path><path d="M433,-33L427,-80L334,-70Z" fill="#6298c5" stroke="#6298c5" stroke-width="1.51"></path><path d="M334,-70L427,-80L221,-81Z" fill="#6298c5" stroke="#6298c5" stroke-width="1.51"></path><path d="M221,-81L427,-80L-8,-101Z" fill="#68a0cd" stroke="#68a0cd" stroke-width="1.51"></path><path d="M-116,244L-24,258L1,199Z" fill="#6298c5" stroke="#6298c5" stroke-width="1.51"></path><path d="M1,199L-24,258L72,251Z" fill="#5f8fc3" stroke="#5f8fc3" stroke-width="1.51"></path><path d="M72,251L-24,258L261,279Z" fill="#4c63b4" stroke="#4c63b4" stroke-width="1.51"></path><path d="M261,279L413,277L347,237Z" fill="#303f9f" stroke="#303f9f" stroke-width="1.51"></path><path d="M347,237L413,277L351,198Z" fill="#303f9f" stroke="#303f9f" stroke-width="1.51"></path><path d="M411,162L413,277L430,66Z" fill="#3140a0" stroke="#3140a0" stroke-width="1.51"></path><path d="M-150,193L1,199L-60,69Z" fill="#659bc9" stroke="#659bc9" stroke-width="1.51"></path><path d="M-108,64L-150,193L-60,69Z" fill="#6aa3cf" stroke="#6aa3cf" stroke-width="1.51"></path><path d="M-152,-123L-150,193L-108,64Z" fill="#77cede" stroke="#77cede" stroke-width="1.51"></path><path d="M-93,-14L-152,-123L-108,64Z" fill="#7ff8ea" stroke="#7ff8ea" stroke-width="1.51"></path><path d="M-8,-101L-152,-123L-93,-14Z" fill="#7ff8ea" stroke="#7ff8ea" stroke-width="1.51"></path><path d="M427,-80L-152,-123L-8,-101Z" fill="#76c7dc" stroke="#76c7dc" stroke-width="1.51"></path></svg>