<svg width="300" height="176" xmlns="http://www.w3.org/2000/svg"><path d="M26,-101L238,-91L312,-115Z" fill="#7580d4" stroke="#7580d4" stroke-width="1.51"></path><path d="M-36,-115L26,-101L312,-115Z" fill="#808cdd" stroke="#808cdd" stroke-width="1.51"></path><path d="M330,-28L394,30L418,-86Z" fill="#5d68c1" stroke="#5d68c1" stroke-width="1.51"></path><path d="M138,281L55,292L429,254Z" fill="#3d4bab" stroke="#3d4bab" stroke-width="1.51"></path><path d="M242,268L138,281L429,254Z" fill="#3b49a9" stroke="#3b49a9" stroke-width="1.51"></path><path d="M317,248L242,268L429,254Z" fill="#3a47a7" stroke="#3a47a7" stroke-width="1.51"></path><path d="M394,30L305,95L444,83Z" fill="#4553b2" stroke="#4553b2" stroke-width="1.51"></path><path d="M305,95L391,184L444,83Z" fill="#3f4dad" stroke="#3f4dad" stroke-width="1.51"></path><path d="M418,-86L394,30L444,83Z" fill="#545eba" stroke="#545eba" stroke-width="1.51"></path><path d="M391,184L429,254L444,83Z" fill="#3a49a9" stroke="#3a49a9" stroke-width="1.51"></path><path d="M391,184L317,248L429,254Z" fill="#3947a7" stroke="#3947a7" stroke-width="1.51"></path><path d="M312,-115L330,-28L418,-86Z" fill="#6a74ca" stroke="#6a74ca" stroke-width="1.51"></path><path d="M305,95L316,182L391,184Z" fill="#3f4dad" stroke="#3f4dad" stroke-width="1.51"></path><path d="M316,182L317,248L391,184Z" fill="#3c4aaa" stroke="#3c4aaa" stroke-width="1.51"></path><path d="M330,-28L305,95L394,30Z" fill="#505db9" stroke="#505db9" stroke-width="1.51"></path><path d="M26,-101L130,-66L238,-91Z" fill="#7682d6" stroke="#7682d6" stroke-width="1.51"></path><path d="M305,95L253,147L316,182Z" fill="#4250b0" stroke="#4250b0" stroke-width="1.51"></path><path d="M245,67L305,95L330,-28Z" fill="#4f5cb9" stroke="#4f5cb9" stroke-width="1.51"></path><path d="M234,-7L245,67L330,-28Z" fill="#5864c0" stroke="#5864c0" stroke-width="1.51"></path><path d="M312,-115L238,-91L330,-28Z" fill="#6d76cc" stroke="#6d76cc" stroke-width="1.51"></path><path d="M238,-91L234,-7L330,-28Z" fill="#6570c8" stroke="#6570c8" stroke-width="1.51"></path><path d="M253,147L242,268L316,182Z" fill="#3f4dad" stroke="#3f4dad" stroke-width="1.51"></path><path d="M316,182L242,268L317,248Z" fill="#3d4aaa" stroke="#3d4aaa" stroke-width="1.51"></path><path d="M245,67L253,147L305,95Z" fill="#4553b3" stroke="#4553b3" stroke-width="1.51"></path><path d="M124,189L138,281L242,268Z" fill="#414faf" stroke="#414faf" stroke-width="1.51"></path><path d="M234,-7L159,1L245,67Z" fill="#5865c1" stroke="#5865c1" stroke-width="1.51"></path><path d="M124,189L242,268L253,147Z" fill="#4250b0" stroke="#4250b0" stroke-width="1.51"></path><path d="M145,110L124,189L253,147Z" fill="#4654b4" stroke="#4654b4" stroke-width="1.51"></path><path d="M245,67L145,110L253,147Z" fill="#4755b5" stroke="#4755b5" stroke-width="1.51"></path><path d="M159,1L234,-7L238,-91Z" fill="#6570c9" stroke="#6570c9" stroke-width="1.51"></path><path d="M130,-66L159,1L238,-91Z" fill="#6b76cd" stroke="#6b76cd" stroke-width="1.51"></path><path d="M159,1L145,110L245,67Z" fill="#505dbc" stroke="#505dbc" stroke-width="1.51"></path><path d="M124,189L71,211L138,281Z" fill="#4957b5" stroke="#4957b5" stroke-width="1.51"></path><path d="M82,13L74,94L145,110Z" fill="#5764c1" stroke="#5764c1" stroke-width="1.51"></path><path d="M82,13L145,110L159,1Z" fill="#5a66c2" stroke="#5a66c2" stroke-width="1.51"></path><path d="M130,-66L82,13L159,1Z" fill="#6874cc" stroke="#6874cc" stroke-width="1.51"></path><path d="M74,94L124,189L145,110Z" fill="#4e5cba" stroke="#4e5cba" stroke-width="1.51"></path><path d="M71,211L55,292L138,281Z" fill="#4c58b6" stroke="#4c58b6" stroke-width="1.51"></path><path d="M74,94L71,211L124,189Z" fill="#505dbb" stroke="#505dbb" stroke-width="1.51"></path><path d="M26,-101L82,13L130,-66Z" fill="#7782d6" stroke="#7782d6" stroke-width="1.51"></path><path d="M-10,238L55,292L71,211Z" fill="#5560bc" stroke="#5560bc" stroke-width="1.51"></path><path d="M-47,148L71,211L74,94Z" fill="#5b67c2" stroke="#5b67c2" stroke-width="1.51"></path><path d="M26,-101L-51,24L82,13Z" fill="#7a84d8" stroke="#7a84d8" stroke-width="1.51"></path><path d="M-39,73L74,94L82,13Z" fill="#6470c9" stroke="#6470c9" stroke-width="1.51"></path><path d="M-51,24L-39,73L82,13Z" fill="#707bd2" stroke="#707bd2" stroke-width="1.51"></path><path d="M-47,148L-10,238L71,211Z" fill="#5e68c2" stroke="#5e68c2" stroke-width="1.51"></path><path d="M-39,73L-47,148L74,94Z" fill="#6470c9" stroke="#6470c9" stroke-width="1.51"></path><path d="M-10,238L-145,297L55,292Z" fill="#6069c2" stroke="#6069c2" stroke-width="1.51"></path><path d="M-36,-115L-51,24L26,-101Z" fill="#8a95e3" stroke="#8a95e3" stroke-width="1.51"></path><path d="M-107,-14L-51,24L-36,-115Z" fill="#8a95e3" stroke="#8a95e3" stroke-width="1.51"></path><path d="M-104,-86L-107,-14L-36,-115Z" fill="#95a0eb" stroke="#95a0eb" stroke-width="1.51"></path><path d="M-47,148L-127,147L-10,238Z" fill="#6973cb" stroke="#6973cb" stroke-width="1.51"></path><path d="M-127,147L-145,297L-10,238Z" fill="#6c76cc" stroke="#6c76cc" stroke-width="1.51"></path><path d="M-126,70L-127,147L-47,148Z" fill="#727dd2" stroke="#727dd2" stroke-width="1.51"></path><path d="M-126,70L-47,148L-39,73Z" fill="#6f7ad1" stroke="#6f7ad1" stroke-width="1.51"></path><path d="M-51,24L-126,70L-39,73Z" fill="#7782d6" stroke="#7782d6" stroke-width="1.51"></path><path d="M-107,-14L-126,70L-51,24Z" fill="#818cdd" stroke="#818cdd" stroke-width="1.51"></path><path d="M-126,70L-107,-14L-104,-86Z" fill="#8c97e5" stroke="#8c97e5" stroke-width="1.51"></path><path d="M-145,297L-127,147L-126,70Z" fill="#757fd3" stroke="#757fd3" stroke-width="1.51"></path></svg>