<svg width="300" height="176" xmlns="http://www.w3.org/2000/svg"><path d="M148,103L53,105L59,178Z" fill="#5166bc" stroke="#5166bc" stroke-width="1.51"></path><path d="M59,178L160,205L148,103Z" fill="#4a5bb7" stroke="#4a5bb7" stroke-width="1.51"></path><path d="M53,105L-17,152L59,178Z" fill="#5772bf" stroke="#5772bf" stroke-width="1.51"></path><path d="M53,105L-24,115L-17,152Z" fill="#5b7bc3" stroke="#5b7bc3" stroke-width="1.51"></path><path d="M160,205L244,119L148,103Z" fill="#4654b4" stroke="#4654b4" stroke-width="1.51"></path><path d="M71,284L171,246L160,205Z" fill="#4454b1" stroke="#4454b1" stroke-width="1.51"></path><path d="M71,284L160,205L59,178Z" fill="#4a5eb5" stroke="#4a5eb5" stroke-width="1.51"></path><path d="M53,105L29,14L-24,115Z" fill="#5c7cc5" stroke="#5c7cc5" stroke-width="1.51"></path><path d="M148,103L29,14L53,105Z" fill="#576fc1" stroke="#576fc1" stroke-width="1.51"></path><path d="M148,103L180,1L29,14Z" fill="#5871c1" stroke="#5871c1" stroke-width="1.51"></path><path d="M265,150L244,119L160,205Z" fill="#4352b2" stroke="#4352b2" stroke-width="1.51"></path><path d="M-64,259L71,284L59,178Z" fill="#536fbb" stroke="#536fbb" stroke-width="1.51"></path><path d="M244,119L180,1L148,103Z" fill="#4b5cb9" stroke="#4b5cb9" stroke-width="1.51"></path><path d="M221,257L265,150L160,205Z" fill="#414fb0" stroke="#414fb0" stroke-width="1.51"></path><path d="M244,119L225,-17L180,1Z" fill="#5268bc" stroke="#5268bc" stroke-width="1.51"></path><path d="M171,246L221,257L160,205Z" fill="#404faf" stroke="#404faf" stroke-width="1.51"></path><path d="M71,284L221,257L171,246Z" fill="#404faf" stroke="#404faf" stroke-width="1.51"></path><path d="M-17,152L-64,259L59,178Z" fill="#5978bf" stroke="#5978bf" stroke-width="1.51"></path><path d="M-24,115L-92,175L-17,152Z" fill="#5e85c5" stroke="#5e85c5" stroke-width="1.51"></path><path d="M-106,90L-92,175L-24,115Z" fill="#638dc9" stroke="#638dc9" stroke-width="1.51"></path><path d="M326,11L225,-17L244,119Z" fill="#4f65ba" stroke="#4f65ba" stroke-width="1.51"></path><path d="M-13,-110L-52,-17L29,14Z" fill="#6facd4" stroke="#6facd4" stroke-width="1.51"></path><path d="M-92,175L-64,259L-17,152Z" fill="#5e85c4" stroke="#5e85c4" stroke-width="1.51"></path><path d="M265,150L348,64L244,119Z" fill="#4352b2" stroke="#4352b2" stroke-width="1.51"></path><path d="M221,257L306,183L265,150Z" fill="#404dae" stroke="#404dae" stroke-width="1.51"></path><path d="M-52,-17L-106,90L-24,115Z" fill="#6795cd" stroke="#6795cd" stroke-width="1.51"></path><path d="M29,14L-52,-17L-24,115Z" fill="#6692cd" stroke="#6692cd" stroke-width="1.51"></path><path d="M156,-105L29,14L180,1Z" fill="#6288c9" stroke="#6288c9" stroke-width="1.51"></path><path d="M221,257L314,265L306,183Z" fill="#3d4bab" stroke="#3d4bab" stroke-width="1.51"></path><path d="M71,284L314,265L221,257Z" fill="#3e4cac" stroke="#3e4cac" stroke-width="1.51"></path><path d="M225,-17L156,-105L180,1Z" fill="#5f83c6" stroke="#5f83c6" stroke-width="1.51"></path><path d="M225,-17L212,-118L156,-105Z" fill="#6490ca" stroke="#6490ca" stroke-width="1.51"></path><path d="M306,183L348,64L265,150Z" fill="#4150b0" stroke="#4150b0" stroke-width="1.51"></path><path d="M435,155L348,64L306,183Z" fill="#3f4dad" stroke="#3f4dad" stroke-width="1.51"></path><path d="M348,64L326,11L244,119Z" fill="#495ab5" stroke="#495ab5" stroke-width="1.51"></path><path d="M156,-105L64,-125L29,14Z" fill="#6aa0d1" stroke="#6aa0d1" stroke-width="1.51"></path><path d="M-92,175L-145,247L-64,259Z" fill="#608dc5" stroke="#608dc5" stroke-width="1.51"></path><path d="M-64,259L-145,247L71,284Z" fill="#5a7ebf" stroke="#5a7ebf" stroke-width="1.51"></path><path d="M-106,90L-145,247L-92,175Z" fill="#6594ca" stroke="#6594ca" stroke-width="1.51"></path><path d="M64,-125L-13,-110L29,14Z" fill="#70afd5" stroke="#70afd5" stroke-width="1.51"></path><path d="M-52,-17L-147,24L-106,90Z" fill="#6eaad4" stroke="#6eaad4" stroke-width="1.51"></path><path d="M-106,90L-147,24L-145,247Z" fill="#689cce" stroke="#689cce" stroke-width="1.51"></path><path d="M-124,-89L-147,24L-52,-17Z" fill="#74c1db" stroke="#74c1db" stroke-width="1.51"></path><path d="M329,-105L212,-118L225,-17Z" fill="#628ec7" stroke="#628ec7" stroke-width="1.51"></path><path d="M156,-105L212,-118L64,-125Z" fill="#6ba0d1" stroke="#6ba0d1" stroke-width="1.51"></path><path d="M64,-125L-124,-89L-13,-110Z" fill="#76c9dd" stroke="#76c9dd" stroke-width="1.51"></path><path d="M-13,-110L-124,-89L-52,-17Z" fill="#76c5dc" stroke="#76c5dc" stroke-width="1.51"></path><path d="M326,11L329,-105L225,-17Z" fill="#5b7dc1" stroke="#5b7dc1" stroke-width="1.51"></path><path d="M348,64L391,-20L326,11Z" fill="#4f68b9" stroke="#4f68b9" stroke-width="1.51"></path><path d="M447,89L391,-20L348,64Z" fill="#495eb4" stroke="#495eb4" stroke-width="1.51"></path><path d="M391,-20L329,-105L326,11Z" fill="#597bbf" stroke="#597bbf" stroke-width="1.51"></path><path d="M314,265L435,155L306,183Z" fill="#3c4aaa" stroke="#3c4aaa" stroke-width="1.51"></path><path d="M435,155L447,89L348,64Z" fill="#3f4dad" stroke="#3f4dad" stroke-width="1.51"></path><path d="M435,155L434,301L447,89Z" fill="#3947a7" stroke="#3947a7" stroke-width="1.51"></path><path d="M314,265L434,301L435,155Z" fill="#3846a6" stroke="#3846a6" stroke-width="1.51"></path><path d="M71,284L434,301L314,265Z" fill="#3a48a8" stroke="#3a48a8" stroke-width="1.51"></path><path d="M447,89L452,-79L391,-20Z" fill="#516cb8" stroke="#516cb8" stroke-width="1.51"></path><path d="M391,-20L452,-79L329,-105Z" fill="#5c83c1" stroke="#5c83c1" stroke-width="1.51"></path></svg>