<svg width="300" height="176" xmlns="http://www.w3.org/2000/svg"><path d="M152,87L147,170L228,90Z" fill="#4856b6" stroke="#4856b6" stroke-width="1.51"></path><path d="M147,170L272,182L228,90Z" fill="#4452b3" stroke="#4452b3" stroke-width="1.51"></path><path d="M152,87L60,161L147,170Z" fill="#4b5db9" stroke="#4b5db9" stroke-width="1.51"></path><path d="M131,264L222,259L147,170Z" fill="#4250b0" stroke="#4250b0" stroke-width="1.51"></path><path d="M147,170L222,259L272,182Z" fill="#414fb0" stroke="#414fb0" stroke-width="1.51"></path><path d="M152,87L67,68L60,161Z" fill="#5166bd" stroke="#5166bd" stroke-width="1.51"></path><path d="M86,4L67,68L152,87Z" fill="#5771c1" stroke="#5771c1" stroke-width="1.51"></path><path d="M60,161L131,264L147,170Z" fill="#495bb5" stroke="#495bb5" stroke-width="1.51"></path><path d="M228,90L211,-28L152,87Z" fill="#4f64bc" stroke="#4f64bc" stroke-width="1.51"></path><path d="M362,21L211,-28L228,90Z" fill="#5168bb" stroke="#5168bb" stroke-width="1.51"></path><path d="M211,-28L150,-25L152,87Z" fill="#5772c1" stroke="#5772c1" stroke-width="1.51"></path><path d="M150,-25L86,4L152,87Z" fill="#5974c2" stroke="#5974c2" stroke-width="1.51"></path><path d="M272,182L353,104L228,90Z" fill="#4351b1" stroke="#4351b1" stroke-width="1.51"></path><path d="M358,177L353,104L272,182Z" fill="#404dad" stroke="#404dad" stroke-width="1.51"></path><path d="M362,236L358,177L272,182Z" fill="#3d4bab" stroke="#3d4bab" stroke-width="1.51"></path><path d="M150,-25L153,-97L86,4Z" fill="#6289c9" stroke="#6289c9" stroke-width="1.51"></path><path d="M211,-28L206,-66L150,-25Z" fill="#5f83c6" stroke="#5f83c6" stroke-width="1.51"></path><path d="M322,-102L206,-66L211,-28Z" fill="#6089c6" stroke="#6089c6" stroke-width="1.51"></path><path d="M222,259L362,236L272,182Z" fill="#3d4bab" stroke="#3d4bab" stroke-width="1.51"></path><path d="M353,104L362,21L228,90Z" fill="#4757b4" stroke="#4757b4" stroke-width="1.51"></path><path d="M414,111L362,21L353,104Z" fill="#4352b0" stroke="#4352b0" stroke-width="1.51"></path><path d="M414,111L353,104L358,177Z" fill="#3f4dad" stroke="#3f4dad" stroke-width="1.51"></path><path d="M60,161L49,283L131,264Z" fill="#4c61b6" stroke="#4c61b6" stroke-width="1.51"></path><path d="M131,264L49,283L222,259Z" fill="#4252b0" stroke="#4252b0" stroke-width="1.51"></path><path d="M-19,168L49,283L60,161Z" fill="#546fbd" stroke="#546fbd" stroke-width="1.51"></path><path d="M67,68L-13,72L60,161Z" fill="#5874c2" stroke="#5874c2" stroke-width="1.51"></path><path d="M86,4L-13,72L67,68Z" fill="#5e7fc6" stroke="#5e7fc6" stroke-width="1.51"></path><path d="M-13,72L-19,168L60,161Z" fill="#5a79c2" stroke="#5a79c2" stroke-width="1.51"></path><path d="M440,156L414,111L358,177Z" fill="#3c4bab" stroke="#3c4bab" stroke-width="1.51"></path><path d="M206,-66L153,-97L150,-25Z" fill="#638cc9" stroke="#638cc9" stroke-width="1.51"></path><path d="M86,4L-51,-23L-13,72Z" fill="#6694cd" stroke="#6694cd" stroke-width="1.51"></path><path d="M322,-102L153,-97L206,-66Z" fill="#6492ca" stroke="#6492ca" stroke-width="1.51"></path><path d="M362,21L322,-102L211,-28Z" fill="#5a7dc1" stroke="#5a7dc1" stroke-width="1.51"></path><path d="M414,111L392,6L362,21Z" fill="#495db4" stroke="#495db4" stroke-width="1.51"></path><path d="M362,236L440,156L358,177Z" fill="#3b49a9" stroke="#3b49a9" stroke-width="1.51"></path><path d="M414,111L440,156L392,6Z" fill="#3f4eae" stroke="#3f4eae" stroke-width="1.51"></path><path d="M362,236L410,274L440,156Z" fill="#3846a6" stroke="#3846a6" stroke-width="1.51"></path><path d="M222,259L410,274L362,236Z" fill="#3947a7" stroke="#3947a7" stroke-width="1.51"></path><path d="M49,283L410,274L222,259Z" fill="#3d4bab" stroke="#3d4bab" stroke-width="1.51"></path><path d="M392,6L322,-102L362,21Z" fill="#5777be" stroke="#5777be" stroke-width="1.51"></path><path d="M49,283L-31,297L410,274Z" fill="#404fae" stroke="#404fae" stroke-width="1.51"></path><path d="M-19,168L-31,297L49,283Z" fill="#5574bc" stroke="#5574bc" stroke-width="1.51"></path><path d="M-98,187L-31,297L-19,168Z" fill="#5c82c2" stroke="#5c82c2" stroke-width="1.51"></path><path d="M-13,72L-93,102L-19,168Z" fill="#6086c7" stroke="#6086c7" stroke-width="1.51"></path><path d="M-51,-23L-93,102L-13,72Z" fill="#6797ce" stroke="#6797ce" stroke-width="1.51"></path><path d="M32,-123L-51,-23L86,4Z" fill="#6da7d3" stroke="#6da7d3" stroke-width="1.51"></path><path d="M-93,102L-98,187L-19,168Z" fill="#618ac7" stroke="#618ac7" stroke-width="1.51"></path><path d="M322,-102L32,-123L153,-97Z" fill="#699bce" stroke="#699bce" stroke-width="1.51"></path><path d="M153,-97L32,-123L86,4Z" fill="#6a9ed0" stroke="#6a9ed0" stroke-width="1.51"></path><path d="M322,-102L393,-105L32,-123Z" fill="#6698cc" stroke="#6698cc" stroke-width="1.51"></path><path d="M392,6L393,-105L322,-102Z" fill="#5c84c2" stroke="#5c84c2" stroke-width="1.51"></path><path d="M440,156L393,-105L392,6Z" fill="#4e65b7" stroke="#4e65b7" stroke-width="1.51"></path><path d="M32,-123L-46,-88L-51,-23Z" fill="#73bdda" stroke="#73bdda" stroke-width="1.51"></path><path d="M-51,-23L-154,20L-93,102Z" fill="#6da9d3" stroke="#6da9d3" stroke-width="1.51"></path><path d="M-98,187L-105,286L-31,297Z" fill="#5d86c1" stroke="#5d86c1" stroke-width="1.51"></path><path d="M-154,20L-105,286L-98,187Z" fill="#6596ca" stroke="#6596ca" stroke-width="1.51"></path><path d="M-93,102L-154,20L-98,187Z" fill="#6899ce" stroke="#6899ce" stroke-width="1.51"></path><path d="M-124,-91L-154,20L-51,-23Z" fill="#75c3db" stroke="#75c3db" stroke-width="1.51"></path><path d="M-46,-88L-124,-91L-51,-23Z" fill="#76c6dd" stroke="#76c6dd" stroke-width="1.51"></path><path d="M32,-123L-124,-91L-46,-88Z" fill="#77cbde" stroke="#77cbde" stroke-width="1.51"></path></svg>