<svg width="300" height="176" xmlns="http://www.w3.org/2000/svg"><path d="M168,57L250,-11L156,-12Z" fill="#5771c1" stroke="#5771c1" stroke-width="1.51"></path><path d="M168,57L260,60L250,-11Z" fill="#5168bc" stroke="#5168bc" stroke-width="1.51"></path><path d="M250,-11L163,-86L156,-12Z" fill="#5e82c6" stroke="#5e82c6" stroke-width="1.51"></path><path d="M250,-11L224,-105L163,-86Z" fill="#628bc8" stroke="#628bc8" stroke-width="1.51"></path><path d="M250,-11L329,-62L224,-105Z" fill="#5f86c5" stroke="#5f86c5" stroke-width="1.51"></path><path d="M260,60L324,-8L250,-11Z" fill="#536dbc" stroke="#536dbc" stroke-width="1.51"></path><path d="M156,-12L65,-4L168,57Z" fill="#5a77c3" stroke="#5a77c3" stroke-width="1.51"></path><path d="M163,-86L65,-4L156,-12Z" fill="#6288c9" stroke="#6288c9" stroke-width="1.51"></path><path d="M324,-8L329,-62L250,-11Z" fill="#5979c0" stroke="#5979c0" stroke-width="1.51"></path><path d="M168,57L163,166L260,60Z" fill="#4856b6" stroke="#4856b6" stroke-width="1.51"></path><path d="M260,60L362,115L324,-8Z" fill="#4a5db5" stroke="#4a5db5" stroke-width="1.51"></path><path d="M44,112L163,166L168,57Z" fill="#4c5dba" stroke="#4c5dba" stroke-width="1.51"></path><path d="M163,166L230,189L260,60Z" fill="#4553b3" stroke="#4553b3" stroke-width="1.51"></path><path d="M65,-4L44,112L168,57Z" fill="#5872c2" stroke="#5872c2" stroke-width="1.51"></path><path d="M361,151L362,115L260,60Z" fill="#4250b0" stroke="#4250b0" stroke-width="1.51"></path><path d="M324,-8L423,6L329,-62Z" fill="#5675bd" stroke="#5675bd" stroke-width="1.51"></path><path d="M230,189L361,151L260,60Z" fill="#4251b1" stroke="#4251b1" stroke-width="1.51"></path><path d="M65,-4L-34,-15L44,112Z" fill="#638bca" stroke="#638bca" stroke-width="1.51"></path><path d="M163,-86L29,-105L65,-4Z" fill="#6a9dd0" stroke="#6a9dd0" stroke-width="1.51"></path><path d="M224,-105L29,-105L163,-86Z" fill="#699ccf" stroke="#699ccf" stroke-width="1.51"></path><path d="M422,56L324,-8L362,115Z" fill="#485bb4" stroke="#485bb4" stroke-width="1.51"></path><path d="M422,56L423,6L324,-8Z" fill="#4f66b7" stroke="#4f66b7" stroke-width="1.51"></path><path d="M419,163L422,56L362,115Z" fill="#3f4dad" stroke="#3f4dad" stroke-width="1.51"></path><path d="M29,-105L-34,-15L65,-4Z" fill="#6ca5d2" stroke="#6ca5d2" stroke-width="1.51"></path><path d="M44,112L34,187L163,166Z" fill="#5066bb" stroke="#5066bb" stroke-width="1.51"></path><path d="M163,166L227,258L230,189Z" fill="#424faf" stroke="#424faf" stroke-width="1.51"></path><path d="M1,176L34,187L44,112Z" fill="#5673bf" stroke="#5673bf" stroke-width="1.51"></path><path d="M230,189L317,240L361,151Z" fill="#3e4dac" stroke="#3e4dac" stroke-width="1.51"></path><path d="M119,299L227,258L163,166Z" fill="#414faf" stroke="#414faf" stroke-width="1.51"></path><path d="M423,6L436,-64L329,-62Z" fill="#577abe" stroke="#577abe" stroke-width="1.51"></path><path d="M329,-62L436,-64L224,-105Z" fill="#5f89c4" stroke="#5f89c4" stroke-width="1.51"></path><path d="M422,56L436,-64L423,6Z" fill="#506bb8" stroke="#506bb8" stroke-width="1.51"></path><path d="M227,258L317,240L230,189Z" fill="#3e4cac" stroke="#3e4cac" stroke-width="1.51"></path><path d="M361,151L419,163L362,115Z" fill="#3e4cac" stroke="#3e4cac" stroke-width="1.51"></path><path d="M29,-105L-25,-100L-34,-15Z" fill="#72b8d8" stroke="#72b8d8" stroke-width="1.51"></path><path d="M63,279L119,299L163,166Z" fill="#4758b2" stroke="#4758b2" stroke-width="1.51"></path><path d="M-60,107L1,176L44,112Z" fill="#5b7cc3" stroke="#5b7cc3" stroke-width="1.51"></path><path d="M317,240L419,163L361,151Z" fill="#3c4aaa" stroke="#3c4aaa" stroke-width="1.51"></path><path d="M422,56L419,163L436,-64Z" fill="#475ab1" stroke="#475ab1" stroke-width="1.51"></path><path d="M-106,71L-60,107L-34,-15Z" fill="#6899ce" stroke="#6899ce" stroke-width="1.51"></path><path d="M-34,-15L-60,107L44,112Z" fill="#6289c9" stroke="#6289c9" stroke-width="1.51"></path><path d="M227,258L401,288L317,240Z" fill="#3a48a8" stroke="#3a48a8" stroke-width="1.51"></path><path d="M63,279L163,166L34,187Z" fill="#4c61b7" stroke="#4c61b7" stroke-width="1.51"></path><path d="M-14,268L63,279L34,187Z" fill="#526dba" stroke="#526dba" stroke-width="1.51"></path><path d="M-14,268L34,187L1,176Z" fill="#5674be" stroke="#5674be" stroke-width="1.51"></path><path d="M-25,-100L-99,-35L-34,-15Z" fill="#73bad9" stroke="#73bad9" stroke-width="1.51"></path><path d="M-95,175L-14,268L1,176Z" fill="#5b7fc1" stroke="#5b7fc1" stroke-width="1.51"></path><path d="M-99,-35L-106,71L-34,-15Z" fill="#6fadd4" stroke="#6fadd4" stroke-width="1.51"></path><path d="M-95,175L1,176L-60,107Z" fill="#5f86c5" stroke="#5f86c5" stroke-width="1.51"></path><path d="M63,279L-14,268L119,299Z" fill="#4d64b6" stroke="#4d64b6" stroke-width="1.51"></path><path d="M317,240L401,288L419,163Z" fill="#3947a7" stroke="#3947a7" stroke-width="1.51"></path><path d="M119,299L401,288L227,258Z" fill="#3b4aaa" stroke="#3b4aaa" stroke-width="1.51"></path><path d="M-106,71L-95,175L-60,107Z" fill="#6591cb" stroke="#6591cb" stroke-width="1.51"></path><path d="M-99,-35L-144,-73L-106,71Z" fill="#74beda" stroke="#74beda" stroke-width="1.51"></path><path d="M-106,71L-144,-73L-95,175Z" fill="#6ca5d2" stroke="#6ca5d2" stroke-width="1.51"></path><path d="M-25,-100L-144,-73L-99,-35Z" fill="#77cbde" stroke="#77cbde" stroke-width="1.51"></path><path d="M-144,-73L-95,266L-95,175Z" fill="#6697cc" stroke="#6697cc" stroke-width="1.51"></path><path d="M-95,175L-95,266L-14,268Z" fill="#5d85c2" stroke="#5d85c2" stroke-width="1.51"></path><path d="M-14,268L-95,266L119,299Z" fill="#5371ba" stroke="#5371ba" stroke-width="1.51"></path></svg>