<svg width="300" height="176" xmlns="http://www.w3.org/2000/svg"><path d="M174,77L214,88L220,14Z" fill="#4e60bb" stroke="#4e60bb" stroke-width="1.51"></path><path d="M220,14L120,31L174,77Z" fill="#5268be" stroke="#5268be" stroke-width="1.51"></path><path d="M33,83L150,169L174,77Z" fill="#4e5fba" stroke="#4e5fba" stroke-width="1.51"></path><path d="M174,77L150,169L214,88Z" fill="#4856b6" stroke="#4856b6" stroke-width="1.51"></path><path d="M120,31L33,83L174,77Z" fill="#546bc0" stroke="#546bc0" stroke-width="1.51"></path><path d="M158,-86L74,13L120,31Z" fill="#6084c7" stroke="#6084c7" stroke-width="1.51"></path><path d="M220,14L158,-86L120,31Z" fill="#5c7bc4" stroke="#5c7bc4" stroke-width="1.51"></path><path d="M225,-83L158,-86L220,14Z" fill="#6087c7" stroke="#6087c7" stroke-width="1.51"></path><path d="M150,169L209,194L214,88Z" fill="#4554b4" stroke="#4554b4" stroke-width="1.51"></path><path d="M358,105L323,-31L220,14Z" fill="#5066ba" stroke="#5066ba" stroke-width="1.51"></path><path d="M358,105L220,14L214,88Z" fill="#495ab6" stroke="#495ab6" stroke-width="1.51"></path><path d="M220,14L323,-31L225,-83Z" fill="#5c7ec2" stroke="#5c7ec2" stroke-width="1.51"></path><path d="M360,172L358,105L214,88Z" fill="#4250b0" stroke="#4250b0" stroke-width="1.51"></path><path d="M323,-31L301,-85L225,-83Z" fill="#5f88c5" stroke="#5f88c5" stroke-width="1.51"></path><path d="M225,-83L37,-121L158,-86Z" fill="#699bcf" stroke="#699bcf" stroke-width="1.51"></path><path d="M74,13L33,83L120,31Z" fill="#5c7ac5" stroke="#5c7ac5" stroke-width="1.51"></path><path d="M209,194L360,172L214,88Z" fill="#4251b1" stroke="#4251b1" stroke-width="1.51"></path><path d="M209,194L323,288L360,172Z" fill="#3d4bab" stroke="#3d4bab" stroke-width="1.51"></path><path d="M150,169L213,249L209,194Z" fill="#4250b1" stroke="#4250b1" stroke-width="1.51"></path><path d="M126,300L213,249L150,169Z" fill="#414faf" stroke="#414faf" stroke-width="1.51"></path><path d="M74,13L-16,11L33,83Z" fill="#6288c9" stroke="#6288c9" stroke-width="1.51"></path><path d="M37,-121L-16,11L74,13Z" fill="#6b9fd0" stroke="#6b9fd0" stroke-width="1.51"></path><path d="M33,83L30,205L150,169Z" fill="#5268bc" stroke="#5268bc" stroke-width="1.51"></path><path d="M-33,97L30,205L33,83Z" fill="#5a79c2" stroke="#5a79c2" stroke-width="1.51"></path><path d="M301,-85L37,-121L225,-83Z" fill="#6696cd" stroke="#6696cd" stroke-width="1.51"></path><path d="M158,-86L37,-121L74,13Z" fill="#699ccf" stroke="#699ccf" stroke-width="1.51"></path><path d="M-16,11L-33,97L33,83Z" fill="#6187c9" stroke="#6187c9" stroke-width="1.51"></path><path d="M440,119L440,-3L358,105Z" fill="#4353af" stroke="#4353af" stroke-width="1.51"></path><path d="M358,105L440,-3L323,-31Z" fill="#4e65b7" stroke="#4e65b7" stroke-width="1.51"></path><path d="M323,-31L438,-106L301,-85Z" fill="#5e87c3" stroke="#5e87c3" stroke-width="1.51"></path><path d="M360,172L440,119L358,105Z" fill="#3e4cac" stroke="#3e4cac" stroke-width="1.51"></path><path d="M323,288L403,190L360,172Z" fill="#3b48a8" stroke="#3b48a8" stroke-width="1.51"></path><path d="M403,190L440,119L360,172Z" fill="#3c4aaa" stroke="#3c4aaa" stroke-width="1.51"></path><path d="M30,205L76,271L150,169Z" fill="#4c61b7" stroke="#4c61b7" stroke-width="1.51"></path><path d="M213,249L323,288L209,194Z" fill="#3d4cac" stroke="#3d4cac" stroke-width="1.51"></path><path d="M76,271L126,300L150,169Z" fill="#4658b2" stroke="#4658b2" stroke-width="1.51"></path><path d="M126,300L323,288L213,249Z" fill="#3c4bab" stroke="#3c4bab" stroke-width="1.51"></path><path d="M-16,11L-122,90L-33,97Z" fill="#6693cc" stroke="#6693cc" stroke-width="1.51"></path><path d="M37,-121L-35,-86L-16,11Z" fill="#71b4d7" stroke="#71b4d7" stroke-width="1.51"></path><path d="M440,-3L438,-106L323,-31Z" fill="#597cbe" stroke="#597cbe" stroke-width="1.51"></path><path d="M301,-85L438,-106L37,-121Z" fill="#6596ca" stroke="#6596ca" stroke-width="1.51"></path><path d="M-118,181L-60,192L-33,97Z" fill="#618ac7" stroke="#618ac7" stroke-width="1.51"></path><path d="M-33,97L-60,192L30,205Z" fill="#5b7ec3" stroke="#5b7ec3" stroke-width="1.51"></path><path d="M30,205L-59,293L76,271Z" fill="#536fba" stroke="#536fba" stroke-width="1.51"></path><path d="M323,288L404,296L403,190Z" fill="#3845a5" stroke="#3845a5" stroke-width="1.51"></path><path d="M403,190L404,296L440,119Z" fill="#3947a7" stroke="#3947a7" stroke-width="1.51"></path><path d="M126,300L404,296L323,288Z" fill="#3947a7" stroke="#3947a7" stroke-width="1.51"></path><path d="M-142,-17L-122,90L-16,11Z" fill="#6ea9d3" stroke="#6ea9d3" stroke-width="1.51"></path><path d="M-35,-86L-142,-17L-16,11Z" fill="#72b7d8" stroke="#72b7d8" stroke-width="1.51"></path><path d="M37,-121L-109,-94L-35,-86Z" fill="#76c9dd" stroke="#76c9dd" stroke-width="1.51"></path><path d="M-122,90L-118,181L-33,97Z" fill="#6492cb" stroke="#6492cb" stroke-width="1.51"></path><path d="M-60,192L-59,293L30,205Z" fill="#597cc0" stroke="#597cc0" stroke-width="1.51"></path><path d="M76,271L-59,293L126,300Z" fill="#4d66b6" stroke="#4d66b6" stroke-width="1.51"></path><path d="M-109,-94L-142,-17L-35,-86Z" fill="#77cbde" stroke="#77cbde" stroke-width="1.51"></path><path d="M-122,90L-142,-17L-118,181Z" fill="#6a9ed0" stroke="#6a9ed0" stroke-width="1.51"></path><path d="M-106,236L-59,293L-60,192Z" fill="#5d86c2" stroke="#5d86c2" stroke-width="1.51"></path><path d="M-118,181L-106,236L-60,192Z" fill="#618ec6" stroke="#618ec6" stroke-width="1.51"></path></svg>