<svg width="300" height="176" xmlns="http://www.w3.org/2000/svg"><path d="M124,88L52,110L89,208Z" fill="#5065bb" stroke="#5065bb" stroke-width="1.51"></path><path d="M89,208L170,185L124,88Z" fill="#495ab7" stroke="#495ab7" stroke-width="1.51"></path><path d="M52,110L-5,116L89,208Z" fill="#556fbe" stroke="#556fbe" stroke-width="1.51"></path><path d="M-30,15L-5,116L52,110Z" fill="#5e7fc6" stroke="#5e7fc6" stroke-width="1.51"></path><path d="M170,185L263,112L124,88Z" fill="#4755b5" stroke="#4755b5" stroke-width="1.51"></path><path d="M175,253L216,203L170,185Z" fill="#4250b0" stroke="#4250b0" stroke-width="1.51"></path><path d="M89,208L175,253L170,185Z" fill="#4453b2" stroke="#4453b2" stroke-width="1.51"></path><path d="M89,208L93,293L175,253Z" fill="#4657b2" stroke="#4657b2" stroke-width="1.51"></path><path d="M-25,280L93,293L89,208Z" fill="#4e66b7" stroke="#4e66b7" stroke-width="1.51"></path><path d="M-5,116L-58,154L89,208Z" fill="#5877c1" stroke="#5877c1" stroke-width="1.51"></path><path d="M216,203L263,112L170,185Z" fill="#4351b1" stroke="#4351b1" stroke-width="1.51"></path><path d="M216,203L321,156L263,112Z" fill="#4250b0" stroke="#4250b0" stroke-width="1.51"></path><path d="M175,253L228,259L216,203Z" fill="#404dae" stroke="#404dae" stroke-width="1.51"></path><path d="M93,293L228,259L175,253Z" fill="#3f4eae" stroke="#3f4eae" stroke-width="1.51"></path><path d="M124,88L66,-33L52,110Z" fill="#5975c3" stroke="#5975c3" stroke-width="1.51"></path><path d="M-5,116L-89,65L-58,154Z" fill="#6188c8" stroke="#6188c8" stroke-width="1.51"></path><path d="M244,-9L119,-27L124,88Z" fill="#5770c1" stroke="#5770c1" stroke-width="1.51"></path><path d="M119,-27L66,-33L124,88Z" fill="#5e7fc6" stroke="#5e7fc6" stroke-width="1.51"></path><path d="M-58,154L-25,280L89,208Z" fill="#5775be" stroke="#5775be" stroke-width="1.51"></path><path d="M66,-33L-30,15L52,110Z" fill="#628aca" stroke="#628aca" stroke-width="1.51"></path><path d="M-30,15L-89,65L-5,116Z" fill="#658fcb" stroke="#658fcb" stroke-width="1.51"></path><path d="M-58,154L-89,237L-25,280Z" fill="#5c83c2" stroke="#5c83c2" stroke-width="1.51"></path><path d="M263,112L244,-9L124,88Z" fill="#4c5eba" stroke="#4c5eba" stroke-width="1.51"></path><path d="M-127,194L-89,237L-58,154Z" fill="#618dc6" stroke="#618dc6" stroke-width="1.51"></path><path d="M244,-9L166,-59L119,-27Z" fill="#5e80c6" stroke="#5e80c6" stroke-width="1.51"></path><path d="M119,-27L81,-121L66,-33Z" fill="#699bcf" stroke="#699bcf" stroke-width="1.51"></path><path d="M228,259L321,156L216,203Z" fill="#404dad" stroke="#404dad" stroke-width="1.51"></path><path d="M263,112L297,17L244,-9Z" fill="#4f64ba" stroke="#4f64ba" stroke-width="1.51"></path><path d="M244,-9L258,-110L166,-59Z" fill="#6088c7" stroke="#6088c7" stroke-width="1.51"></path><path d="M346,80L297,17L263,112Z" fill="#4858b4" stroke="#4858b4" stroke-width="1.51"></path><path d="M-89,65L-127,194L-58,154Z" fill="#6491c9" stroke="#6491c9" stroke-width="1.51"></path><path d="M321,156L346,80L263,112Z" fill="#4251b1" stroke="#4251b1" stroke-width="1.51"></path><path d="M-89,65L-115,-1L-127,194Z" fill="#6899ce" stroke="#6899ce" stroke-width="1.51"></path><path d="M-30,15L-115,-1L-89,65Z" fill="#6da6d2" stroke="#6da6d2" stroke-width="1.51"></path><path d="M-128,-83L-115,-1L-30,15Z" fill="#73bbd9" stroke="#73bbd9" stroke-width="1.51"></path><path d="M-17,-111L-30,15L66,-33Z" fill="#6ea9d3" stroke="#6ea9d3" stroke-width="1.51"></path><path d="M166,-59L81,-121L119,-27Z" fill="#6796cd" stroke="#6796cd" stroke-width="1.51"></path><path d="M258,-110L81,-121L166,-59Z" fill="#6797cd" stroke="#6797cd" stroke-width="1.51"></path><path d="M321,156L419,150L346,80Z" fill="#404dad" stroke="#404dad" stroke-width="1.51"></path><path d="M228,259L332,297L321,156Z" fill="#3c4aaa" stroke="#3c4aaa" stroke-width="1.51"></path><path d="M93,293L332,297L228,259Z" fill="#3d4aaa" stroke="#3d4aaa" stroke-width="1.51"></path><path d="M81,-121L-17,-111L66,-33Z" fill="#70b0d5" stroke="#70b0d5" stroke-width="1.51"></path><path d="M322,-59L258,-110L244,-9Z" fill="#5f86c5" stroke="#5f86c5" stroke-width="1.51"></path><path d="M322,-59L244,-9L297,17Z" fill="#5876c0" stroke="#5876c0" stroke-width="1.51"></path><path d="M393,-6L322,-59L297,17Z" fill="#5674bd" stroke="#5674bd" stroke-width="1.51"></path><path d="M416,256L419,150L321,156Z" fill="#3b49a9" stroke="#3b49a9" stroke-width="1.51"></path><path d="M346,80L393,-6L297,17Z" fill="#4d64b8" stroke="#4d64b8" stroke-width="1.51"></path><path d="M-115,-1L-128,-83L-127,194Z" fill="#6faed5" stroke="#6faed5" stroke-width="1.51"></path><path d="M-17,-111L-128,-83L-30,15Z" fill="#74bfda" stroke="#74bfda" stroke-width="1.51"></path><path d="M439,107L393,-6L346,80Z" fill="#4658b2" stroke="#4658b2" stroke-width="1.51"></path><path d="M322,-59L453,-60L258,-110Z" fill="#5e88c4" stroke="#5e88c4" stroke-width="1.51"></path><path d="M332,297L416,256L321,156Z" fill="#3948a8" stroke="#3948a8" stroke-width="1.51"></path><path d="M416,256L439,107L419,150Z" fill="#3b48a8" stroke="#3b48a8" stroke-width="1.51"></path><path d="M419,150L439,107L346,80Z" fill="#3f4dad" stroke="#3f4dad" stroke-width="1.51"></path><path d="M439,107L453,-60L393,-6Z" fill="#4d66b6" stroke="#4d66b6" stroke-width="1.51"></path><path d="M393,-6L453,-60L322,-59Z" fill="#587bbe" stroke="#587bbe" stroke-width="1.51"></path></svg>