<svg width="300" height="176" xmlns="http://www.w3.org/2000/svg"><path d="M156,86L71,60L125,151Z" fill="#5268bd" stroke="#5268bd" stroke-width="1.51"></path><path d="M71,60L34,206L125,151Z" fill="#5777be" stroke="#5777be" stroke-width="1.51"></path><path d="M155,-36L49,-17L71,60Z" fill="#75c4db" stroke="#75c4db" stroke-width="1.51"></path><path d="M71,60L-15,185L34,206Z" fill="#608cc4" stroke="#608cc4" stroke-width="1.51"></path><path d="M156,86L155,-36L71,60Z" fill="#6692cc" stroke="#6692cc" stroke-width="1.51"></path><path d="M253,183L248,97L156,86Z" fill="#3f4eae" stroke="#3f4eae" stroke-width="1.51"></path><path d="M253,183L156,86L125,151Z" fill="#404eaf" stroke="#404eaf" stroke-width="1.51"></path><path d="M49,-17L-21,28L71,60Z" fill="#78d0df" stroke="#78d0df" stroke-width="1.51"></path><path d="M-57,69L-15,185L71,60Z" fill="#6ba4d0" stroke="#6ba4d0" stroke-width="1.51"></path><path d="M266,1L155,-36L156,86Z" fill="#6593ca" stroke="#6593ca" stroke-width="1.51"></path><path d="M-15,185L28,242L34,206Z" fill="#5f90c3" stroke="#5f90c3" stroke-width="1.51"></path><path d="M34,206L149,297L125,151Z" fill="#4c63b4" stroke="#4c63b4" stroke-width="1.51"></path><path d="M-21,28L-57,69L71,60Z" fill="#76c7dc" stroke="#76c7dc" stroke-width="1.51"></path><path d="M149,297L253,183L125,151Z" fill="#3b49aa" stroke="#3b49aa" stroke-width="1.51"></path><path d="M248,97L266,1L156,86Z" fill="#5169bb" stroke="#5169bb" stroke-width="1.51"></path><path d="M298,81L266,1L248,97Z" fill="#4e66b7" stroke="#4e66b7" stroke-width="1.51"></path><path d="M253,183L298,81L248,97Z" fill="#3c4aaa" stroke="#3c4aaa" stroke-width="1.51"></path><path d="M-21,28L-90,70L-57,69Z" fill="#75c4db" stroke="#75c4db" stroke-width="1.51"></path><path d="M-57,69L-91,148L-15,185Z" fill="#679fcb" stroke="#679fcb" stroke-width="1.51"></path><path d="M-142,0L-90,70L-21,28Z" fill="#7ad9e2" stroke="#7ad9e2" stroke-width="1.51"></path><path d="M28,242L149,297L34,206Z" fill="#5474ba" stroke="#5474ba" stroke-width="1.51"></path><path d="M-90,70L-91,148L-57,69Z" fill="#6ca5d1" stroke="#6ca5d1" stroke-width="1.51"></path><path d="M-15,185L-13,274L28,242Z" fill="#6298c5" stroke="#6298c5" stroke-width="1.51"></path><path d="M-90,259L-13,274L-15,185Z" fill="#6298c5" stroke="#6298c5" stroke-width="1.51"></path><path d="M28,242L-13,274L149,297Z" fill="#577cbc" stroke="#577cbc" stroke-width="1.51"></path><path d="M49,-17L-62,-126L-21,28Z" fill="#7ff8ea" stroke="#7ff8ea" stroke-width="1.51"></path><path d="M155,-36L121,-111L49,-17Z" fill="#73bcd9" stroke="#73bcd9" stroke-width="1.51"></path><path d="M240,-126L121,-111L155,-36Z" fill="#6ba4d0" stroke="#6ba4d0" stroke-width="1.51"></path><path d="M121,-111L39,-106L49,-17Z" fill="#79d2df" stroke="#79d2df" stroke-width="1.51"></path><path d="M266,1L240,-126L155,-36Z" fill="#68a0cc" stroke="#68a0cc" stroke-width="1.51"></path><path d="M298,81L306,8L266,1Z" fill="#597fbe" stroke="#597fbe" stroke-width="1.51"></path><path d="M253,183L363,180L298,81Z" fill="#3543a3" stroke="#3543a3" stroke-width="1.51"></path><path d="M149,297L223,290L253,183Z" fill="#3847a7" stroke="#3847a7" stroke-width="1.51"></path><path d="M-91,148L-90,259L-15,185Z" fill="#6298c5" stroke="#6298c5" stroke-width="1.51"></path><path d="M223,290L304,270L253,183Z" fill="#3442a2" stroke="#3442a2" stroke-width="1.51"></path><path d="M298,81L426,103L306,8Z" fill="#4a60b3" stroke="#4a60b3" stroke-width="1.51"></path><path d="M346,-111L240,-126L266,1Z" fill="#639ac7" stroke="#639ac7" stroke-width="1.51"></path><path d="M121,-111L-62,-126L39,-106Z" fill="#7ce6e5" stroke="#7ce6e5" stroke-width="1.51"></path><path d="M-90,70L-142,0L-91,148Z" fill="#71b4d7" stroke="#71b4d7" stroke-width="1.51"></path><path d="M-91,148L-142,0L-90,259Z" fill="#679fcb" stroke="#679fcb" stroke-width="1.51"></path><path d="M-92,-113L-142,0L-21,28Z" fill="#7ff8ea" stroke="#7ff8ea" stroke-width="1.51"></path><path d="M304,270L363,180L253,183Z" fill="#303f9f" stroke="#303f9f" stroke-width="1.51"></path><path d="M240,-126L-62,-126L121,-111Z" fill="#74c1da" stroke="#74c1da" stroke-width="1.51"></path><path d="M39,-106L-62,-126L49,-17Z" fill="#7ff3e9" stroke="#7ff3e9" stroke-width="1.51"></path><path d="M-62,-126L-92,-113L-21,28Z" fill="#7ff8ea" stroke="#7ff8ea" stroke-width="1.51"></path><path d="M436,149L426,103L363,180Z" fill="#3543a3" stroke="#3543a3" stroke-width="1.51"></path><path d="M363,180L426,103L298,81Z" fill="#3947a7" stroke="#3947a7" stroke-width="1.51"></path><path d="M306,8L346,-111L266,1Z" fill="#6298c5" stroke="#6298c5" stroke-width="1.51"></path><path d="M426,-7L346,-111L306,8Z" fill="#6298c5" stroke="#6298c5" stroke-width="1.51"></path><path d="M424,295L436,149L363,180Z" fill="#303f9f" stroke="#303f9f" stroke-width="1.51"></path><path d="M436,149L426,-7L426,103Z" fill="#4151ae" stroke="#4151ae" stroke-width="1.51"></path><path d="M426,103L426,-7L306,8Z" fill="#5679bc" stroke="#5679bc" stroke-width="1.51"></path><path d="M426,-7L397,-119L346,-111Z" fill="#6298c5" stroke="#6298c5" stroke-width="1.51"></path><path d="M346,-111L397,-119L240,-126Z" fill="#6298c5" stroke="#6298c5" stroke-width="1.51"></path><path d="M149,297L424,295L223,290Z" fill="#3342a2" stroke="#3342a2" stroke-width="1.51"></path><path d="M223,290L424,295L304,270Z" fill="#303f9f" stroke="#303f9f" stroke-width="1.51"></path><path d="M304,270L424,295L363,180Z" fill="#303f9f" stroke="#303f9f" stroke-width="1.51"></path></svg>