<svg width="300" height="176" xmlns="http://www.w3.org/2000/svg"><path d="M124,117L91,191L130,189Z" fill="#4a5fb3" stroke="#4a5fb3" stroke-width="1.51"></path><path d="M124,117L52,105L91,191Z" fill="#5470bc" stroke="#5470bc" stroke-width="1.51"></path><path d="M52,105L-14,170L91,191Z" fill="#5c85c1" stroke="#5c85c1" stroke-width="1.51"></path><path d="M130,189L223,106L124,117Z" fill="#4350b0" stroke="#4350b0" stroke-width="1.51"></path><path d="M124,117L117,30L52,105Z" fill="#5a77c3" stroke="#5a77c3" stroke-width="1.51"></path><path d="M223,106L117,30L124,117Z" fill="#4c5bba" stroke="#4c5bba" stroke-width="1.51"></path><path d="M52,105L-3,75L-14,170Z" fill="#679bcc" stroke="#679bcc" stroke-width="1.51"></path><path d="M-14,170L42,264L91,191Z" fill="#5a83bf" stroke="#5a83bf" stroke-width="1.51"></path><path d="M91,191L170,286L130,189Z" fill="#4456af" stroke="#4456af" stroke-width="1.51"></path><path d="M58,24L-3,75L52,105Z" fill="#6ca6d2" stroke="#6ca6d2" stroke-width="1.51"></path><path d="M117,30L58,24L52,105Z" fill="#6a9ed0" stroke="#6a9ed0" stroke-width="1.51"></path><path d="M130,189L253,165L223,106Z" fill="#3c4bab" stroke="#3c4bab" stroke-width="1.51"></path><path d="M236,253L253,165L130,189Z" fill="#3947a7" stroke="#3947a7" stroke-width="1.51"></path><path d="M42,264L170,286L91,191Z" fill="#4c64b4" stroke="#4c64b4" stroke-width="1.51"></path><path d="M170,286L236,253L130,189Z" fill="#3b49a9" stroke="#3b49a9" stroke-width="1.51"></path><path d="M-105,241L-44,259L-14,170Z" fill="#6298c5" stroke="#6298c5" stroke-width="1.51"></path><path d="M58,24L-1,6L-3,75Z" fill="#78cdde" stroke="#78cdde" stroke-width="1.51"></path><path d="M91,-119L-1,6L58,24Z" fill="#7bdde3" stroke="#7bdde3" stroke-width="1.51"></path><path d="M42,264L-44,259L170,286Z" fill="#577bbc" stroke="#577bbc" stroke-width="1.51"></path><path d="M-14,170L-44,259L42,264Z" fill="#6298c5" stroke="#6298c5" stroke-width="1.51"></path><path d="M-103,88L-14,170L-3,75Z" fill="#6aa2cf" stroke="#6aa2cf" stroke-width="1.51"></path><path d="M223,106L219,-5L117,30Z" fill="#5b7cc3" stroke="#5b7cc3" stroke-width="1.51"></path><path d="M117,30L91,-119L58,24Z" fill="#76c7dc" stroke="#76c7dc" stroke-width="1.51"></path><path d="M363,97L219,-5L223,106Z" fill="#4c61b5" stroke="#4c61b5" stroke-width="1.51"></path><path d="M-1,6L-103,88L-3,75Z" fill="#75c3db" stroke="#75c3db" stroke-width="1.51"></path><path d="M253,165L335,164L223,106Z" fill="#3846a6" stroke="#3846a6" stroke-width="1.51"></path><path d="M236,253L320,235L253,165Z" fill="#3341a1" stroke="#3341a1" stroke-width="1.51"></path><path d="M408,256L320,235L236,253Z" fill="#303f9f" stroke="#303f9f" stroke-width="1.51"></path><path d="M320,235L335,164L253,165Z" fill="#303f9f" stroke="#303f9f" stroke-width="1.51"></path><path d="M-123,173L-105,241L-14,170Z" fill="#6298c5" stroke="#6298c5" stroke-width="1.51"></path><path d="M-103,88L-123,173L-14,170Z" fill="#669dca" stroke="#669dca" stroke-width="1.51"></path><path d="M427,163L363,97L335,164Z" fill="#3644a4" stroke="#3644a4" stroke-width="1.51"></path><path d="M335,164L363,97L223,106Z" fill="#3847a7" stroke="#3847a7" stroke-width="1.51"></path><path d="M262,-84L180,-109L219,-5Z" fill="#68a0cc" stroke="#68a0cc" stroke-width="1.51"></path><path d="M219,-5L180,-109L117,30Z" fill="#6ba4d0" stroke="#6ba4d0" stroke-width="1.51"></path><path d="M180,-109L91,-119L117,30Z" fill="#70b1d6" stroke="#70b1d6" stroke-width="1.51"></path><path d="M-1,6L-139,18L-103,88Z" fill="#79d5e0" stroke="#79d5e0" stroke-width="1.51"></path><path d="M-103,88L-139,18L-123,173Z" fill="#6ca5d2" stroke="#6ca5d2" stroke-width="1.51"></path><path d="M-88,-115L-139,18L-1,6Z" fill="#7ff8ea" stroke="#7ff8ea" stroke-width="1.51"></path><path d="M344,-30L262,-84L219,-5Z" fill="#649ac7" stroke="#649ac7" stroke-width="1.51"></path><path d="M363,97L344,-30L219,-5Z" fill="#5b86bf" stroke="#5b86bf" stroke-width="1.51"></path><path d="M91,-119L-23,-126L-1,6Z" fill="#7debe7" stroke="#7debe7" stroke-width="1.51"></path><path d="M320,235L408,256L335,164Z" fill="#303f9f" stroke="#303f9f" stroke-width="1.51"></path><path d="M363,97L432,63L344,-30Z" fill="#5372b9" stroke="#5372b9" stroke-width="1.51"></path><path d="M170,286L408,256L236,253Z" fill="#3341a1" stroke="#3341a1" stroke-width="1.51"></path><path d="M408,256L427,163L335,164Z" fill="#303f9f" stroke="#303f9f" stroke-width="1.51"></path><path d="M344,-30L297,-111L262,-84Z" fill="#6298c5" stroke="#6298c5" stroke-width="1.51"></path><path d="M262,-84L297,-111L180,-109Z" fill="#669dca" stroke="#669dca" stroke-width="1.51"></path><path d="M180,-109L297,-111L91,-119Z" fill="#6aa2cf" stroke="#6aa2cf" stroke-width="1.51"></path><path d="M91,-119L297,-111L-23,-126Z" fill="#72b6d7" stroke="#72b6d7" stroke-width="1.51"></path><path d="M-23,-126L-88,-115L-1,6Z" fill="#7ff8ea" stroke="#7ff8ea" stroke-width="1.51"></path><path d="M344,-30L429,-65L297,-111Z" fill="#6298c5" stroke="#6298c5" stroke-width="1.51"></path><path d="M427,163L432,63L363,97Z" fill="#3a49a9" stroke="#3a49a9" stroke-width="1.51"></path><path d="M432,63L447,-23L344,-30Z" fill="#6195c4" stroke="#6195c4" stroke-width="1.51"></path><path d="M427,163L447,-23L432,63Z" fill="#485db2" stroke="#485db2" stroke-width="1.51"></path><path d="M447,-23L429,-65L344,-30Z" fill="#6298c5" stroke="#6298c5" stroke-width="1.51"></path></svg>