<svg width="300" height="176" xmlns="http://www.w3.org/2000/svg"><path d="M-129,-126L-61,-118L218,-126Z" fill="#919ee9" stroke="#919ee9" stroke-width="1.51"></path><path d="M-61,-118L82,-100L218,-126Z" fill="#8490e0" stroke="#8490e0" stroke-width="1.51"></path><path d="M42,283L-27,286L301,286Z" fill="#4754b2" stroke="#4754b2" stroke-width="1.51"></path><path d="M138,280L42,283L301,286Z" fill="#3f4dad" stroke="#3f4dad" stroke-width="1.51"></path><path d="M411,-68L389,11L429,80Z" fill="#545fbb" stroke="#545fbb" stroke-width="1.51"></path><path d="M429,80L304,153L450,151Z" fill="#3e4cac" stroke="#3e4cac" stroke-width="1.51"></path><path d="M304,153L423,251L450,151Z" fill="#3b49a9" stroke="#3b49a9" stroke-width="1.51"></path><path d="M411,-68L429,80L450,151Z" fill="#4854b2" stroke="#4854b2" stroke-width="1.51"></path><path d="M347,-26L389,11L411,-68Z" fill="#5d68c1" stroke="#5d68c1" stroke-width="1.51"></path><path d="M389,11L306,79L429,80Z" fill="#4a56b4" stroke="#4a56b4" stroke-width="1.51"></path><path d="M306,79L304,153L429,80Z" fill="#4150b0" stroke="#4150b0" stroke-width="1.51"></path><path d="M304,153L301,286L423,251Z" fill="#3a49a9" stroke="#3a49a9" stroke-width="1.51"></path><path d="M272,184L301,286L304,153Z" fill="#3e4cac" stroke="#3e4cac" stroke-width="1.51"></path><path d="M361,-99L347,-26L411,-68Z" fill="#6670c7" stroke="#6670c7" stroke-width="1.51"></path><path d="M347,-26L306,79L389,11Z" fill="#535fbb" stroke="#535fbb" stroke-width="1.51"></path><path d="M272,184L264,254L301,286Z" fill="#3d4aaa" stroke="#3d4aaa" stroke-width="1.51"></path><path d="M218,-126L347,-26L361,-99Z" fill="#6d77cd" stroke="#6d77cd" stroke-width="1.51"></path><path d="M214,-8L306,79L347,-26Z" fill="#5762be" stroke="#5762be" stroke-width="1.51"></path><path d="M218,-126L214,-8L347,-26Z" fill="#6873ca" stroke="#6873ca" stroke-width="1.51"></path><path d="M264,254L138,280L301,286Z" fill="#3c4aab" stroke="#3c4aab" stroke-width="1.51"></path><path d="M227,92L272,184L304,153Z" fill="#4351b1" stroke="#4351b1" stroke-width="1.51"></path><path d="M227,92L304,153L306,79Z" fill="#4452b2" stroke="#4452b2" stroke-width="1.51"></path><path d="M214,-8L227,92L306,79Z" fill="#4f5cba" stroke="#4f5cba" stroke-width="1.51"></path><path d="M170,-63L214,-8L218,-126Z" fill="#6d78cf" stroke="#6d78cf" stroke-width="1.51"></path><path d="M168,179L264,254L272,184Z" fill="#404eae" stroke="#404eae" stroke-width="1.51"></path><path d="M227,92L168,179L272,184Z" fill="#4452b2" stroke="#4452b2" stroke-width="1.51"></path><path d="M168,179L138,280L264,254Z" fill="#404faf" stroke="#404faf" stroke-width="1.51"></path><path d="M140,77L168,179L227,92Z" fill="#4856b6" stroke="#4856b6" stroke-width="1.51"></path><path d="M214,-8L163,27L227,92Z" fill="#5562bf" stroke="#5562bf" stroke-width="1.51"></path><path d="M163,27L140,77L227,92Z" fill="#4f5dbb" stroke="#4f5dbb" stroke-width="1.51"></path><path d="M82,-100L170,-63L218,-126Z" fill="#7580d5" stroke="#7580d5" stroke-width="1.51"></path><path d="M170,-63L163,27L214,-8Z" fill="#616dc7" stroke="#616dc7" stroke-width="1.51"></path><path d="M140,77L86,159L168,179Z" fill="#4b59b8" stroke="#4b59b8" stroke-width="1.51"></path><path d="M86,159L138,280L168,179Z" fill="#4755b4" stroke="#4755b4" stroke-width="1.51"></path><path d="M70,-21L163,27L170,-63Z" fill="#6772cb" stroke="#6772cb" stroke-width="1.51"></path><path d="M82,-100L70,-21L170,-63Z" fill="#7580d4" stroke="#7580d4" stroke-width="1.51"></path><path d="M70,-21L140,77L163,27Z" fill="#5d6ac5" stroke="#5d6ac5" stroke-width="1.51"></path><path d="M86,159L42,283L138,280Z" fill="#4d59b6" stroke="#4d59b6" stroke-width="1.51"></path><path d="M38,100L86,159L140,77Z" fill="#5461be" stroke="#5461be" stroke-width="1.51"></path><path d="M70,-21L38,100L140,77Z" fill="#5f6ac6" stroke="#5f6ac6" stroke-width="1.51"></path><path d="M-41,60L38,100L70,-21Z" fill="#6a75cd" stroke="#6a75cd" stroke-width="1.51"></path><path d="M-19,-30L-41,60L70,-21Z" fill="#7782d6" stroke="#7782d6" stroke-width="1.51"></path><path d="M-19,-30L70,-21L82,-100Z" fill="#7c87da" stroke="#7c87da" stroke-width="1.51"></path><path d="M-42,197L42,283L86,159Z" fill="#5963bf" stroke="#5963bf" stroke-width="1.51"></path><path d="M38,100L-42,197L86,159Z" fill="#5c68c3" stroke="#5c68c3" stroke-width="1.51"></path><path d="M-61,-118L-19,-30L82,-100Z" fill="#8a95e4" stroke="#8a95e4" stroke-width="1.51"></path><path d="M-41,60L-42,197L38,100Z" fill="#6570c9" stroke="#6570c9" stroke-width="1.51"></path><path d="M-42,197L-27,286L42,283Z" fill="#5d67c1" stroke="#5d67c1" stroke-width="1.51"></path><path d="M-94,176L-42,197L-41,60Z" fill="#6b76cc" stroke="#6b76cc" stroke-width="1.51"></path><path d="M-131,71L-94,176L-41,60Z" fill="#727cd2" stroke="#727cd2" stroke-width="1.51"></path><path d="M-42,197L-147,290L-27,286Z" fill="#6771c7" stroke="#6771c7" stroke-width="1.51"></path><path d="M-98,-6L-41,60L-19,-30Z" fill="#7f8adc" stroke="#7f8adc" stroke-width="1.51"></path><path d="M-61,-118L-98,-6L-19,-30Z" fill="#8d98e5" stroke="#8d98e5" stroke-width="1.51"></path><path d="M-94,176L-147,290L-42,197Z" fill="#6c76cc" stroke="#6c76cc" stroke-width="1.51"></path><path d="M-129,-126L-98,-6L-61,-118Z" fill="#99a6ef" stroke="#99a6ef" stroke-width="1.51"></path><path d="M-98,-6L-131,71L-41,60Z" fill="#7d88da" stroke="#7d88da" stroke-width="1.51"></path><path d="M-131,71L-147,290L-94,176Z" fill="#737dd2" stroke="#737dd2" stroke-width="1.51"></path><path d="M-129,-126L-131,71L-98,-6Z" fill="#8f9be7" stroke="#8f9be7" stroke-width="1.51"></path><path d="M-147,290L-131,71L-129,-126Z" fill="#7c87da" stroke="#7c87da" stroke-width="1.51"></path></svg>