<svg width="300" height="176" xmlns="http://www.w3.org/2000/svg"><path d="M64,254L-93,298L140,258Z" fill="#545fbb" stroke="#545fbb" stroke-width="1.51"></path><path d="M140,258L-93,298L223,262Z" fill="#4b57b5" stroke="#4b57b5" stroke-width="1.51"></path><path d="M-113,-77L-15,-85L309,-120Z" fill="#838fdf" stroke="#838fdf" stroke-width="1.51"></path><path d="M-15,-85L258,-107L309,-120Z" fill="#7681d5" stroke="#7681d5" stroke-width="1.51"></path><path d="M223,262L-93,298L343,275Z" fill="#3f4dad" stroke="#3f4dad" stroke-width="1.51"></path><path d="M343,275L433,268L443,164Z" fill="#3746a6" stroke="#3746a6" stroke-width="1.51"></path><path d="M304,206L343,275L443,164Z" fill="#3b48a8" stroke="#3b48a8" stroke-width="1.51"></path><path d="M426,-121L347,-9L451,-2Z" fill="#606ac3" stroke="#606ac3" stroke-width="1.51"></path><path d="M347,-9L419,83L451,-2Z" fill="#505cb8" stroke="#505cb8" stroke-width="1.51"></path><path d="M419,83L443,164L451,-2Z" fill="#404eae" stroke="#404eae" stroke-width="1.51"></path><path d="M419,83L344,103L443,164Z" fill="#3e4dad" stroke="#3e4dad" stroke-width="1.51"></path><path d="M344,103L304,206L443,164Z" fill="#3e4cac" stroke="#3e4cac" stroke-width="1.51"></path><path d="M309,-120L347,-9L426,-121Z" fill="#6b74cb" stroke="#6b74cb" stroke-width="1.51"></path><path d="M347,-9L344,103L419,83Z" fill="#4956b4" stroke="#4956b4" stroke-width="1.51"></path><path d="M34,-70L127,-60L258,-107Z" fill="#737fd4" stroke="#737fd4" stroke-width="1.51"></path><path d="M-15,-85L34,-70L258,-107Z" fill="#7d88da" stroke="#7d88da" stroke-width="1.51"></path><path d="M229,61L220,199L304,206Z" fill="#4351b1" stroke="#4351b1" stroke-width="1.51"></path><path d="M229,61L304,206L344,103Z" fill="#4351b1" stroke="#4351b1" stroke-width="1.51"></path><path d="M309,-120L258,-107L347,-9Z" fill="#6c76cc" stroke="#6c76cc" stroke-width="1.51"></path><path d="M258,-107L212,13L347,-9Z" fill="#636ec7" stroke="#636ec7" stroke-width="1.51"></path><path d="M229,61L344,103L347,-9Z" fill="#4d5ab8" stroke="#4d5ab8" stroke-width="1.51"></path><path d="M212,13L229,61L347,-9Z" fill="#5662be" stroke="#5662be" stroke-width="1.51"></path><path d="M304,206L223,262L343,275Z" fill="#3c49a9" stroke="#3c49a9" stroke-width="1.51"></path><path d="M177,161L220,199L229,61Z" fill="#4553b3" stroke="#4553b3" stroke-width="1.51"></path><path d="M220,199L223,262L304,206Z" fill="#3f4dad" stroke="#3f4dad" stroke-width="1.51"></path><path d="M127,-60L212,13L258,-107Z" fill="#6975cc" stroke="#6975cc" stroke-width="1.51"></path><path d="M220,199L140,258L223,262Z" fill="#404eae" stroke="#404eae" stroke-width="1.51"></path><path d="M125,81L177,161L229,61Z" fill="#4957b7" stroke="#4957b7" stroke-width="1.51"></path><path d="M165,29L125,81L229,61Z" fill="#515ebd" stroke="#515ebd" stroke-width="1.51"></path><path d="M212,13L165,29L229,61Z" fill="#5562bf" stroke="#5562bf" stroke-width="1.51"></path><path d="M-36,264L-93,298L64,254Z" fill="#5e68c1" stroke="#5e68c1" stroke-width="1.51"></path><path d="M127,-60L165,29L212,13Z" fill="#606cc6" stroke="#606cc6" stroke-width="1.51"></path><path d="M177,161L140,258L220,199Z" fill="#4351b1" stroke="#4351b1" stroke-width="1.51"></path><path d="M64,165L140,258L177,161Z" fill="#4856b5" stroke="#4856b5" stroke-width="1.51"></path><path d="M125,81L64,165L177,161Z" fill="#4d5ab9" stroke="#4d5ab9" stroke-width="1.51"></path><path d="M127,-60L38,-28L165,29Z" fill="#6a76ce" stroke="#6a76ce" stroke-width="1.51"></path><path d="M38,-28L125,81L165,29Z" fill="#606cc7" stroke="#606cc7" stroke-width="1.51"></path><path d="M64,165L64,254L140,258Z" fill="#4d5ab7" stroke="#4d5ab7" stroke-width="1.51"></path><path d="M29,102L64,165L125,81Z" fill="#5663c0" stroke="#5663c0" stroke-width="1.51"></path><path d="M38,-28L29,102L125,81Z" fill="#626dc8" stroke="#626dc8" stroke-width="1.51"></path><path d="M34,-70L38,-28L127,-60Z" fill="#7985d8" stroke="#7985d8" stroke-width="1.51"></path><path d="M-52,-11L29,102L38,-28Z" fill="#737ed3" stroke="#737ed3" stroke-width="1.51"></path><path d="M29,102L-45,114L64,165Z" fill="#5f6bc5" stroke="#5f6bc5" stroke-width="1.51"></path><path d="M-45,114L-60,205L64,165Z" fill="#626dc6" stroke="#626dc6" stroke-width="1.51"></path><path d="M64,165L-60,205L64,254Z" fill="#5a65c0" stroke="#5a65c0" stroke-width="1.51"></path><path d="M-60,205L-36,264L64,254Z" fill="#5e68c1" stroke="#5e68c1" stroke-width="1.51"></path><path d="M-52,-11L-45,114L29,102Z" fill="#6c78cf" stroke="#6c78cf" stroke-width="1.51"></path><path d="M34,-70L-15,-85L38,-28Z" fill="#828dde" stroke="#828dde" stroke-width="1.51"></path><path d="M-15,-85L-52,-11L38,-28Z" fill="#838ede" stroke="#838ede" stroke-width="1.51"></path><path d="M-52,-11L-126,82L-45,114Z" fill="#7681d6" stroke="#7681d6" stroke-width="1.51"></path><path d="M-113,-77L-52,-11L-15,-85Z" fill="#8e9ae7" stroke="#8e9ae7" stroke-width="1.51"></path><path d="M-109,209L-60,205L-45,114Z" fill="#6b76cc" stroke="#6b76cc" stroke-width="1.51"></path><path d="M-60,205L-109,209L-36,264Z" fill="#6872c9" stroke="#6872c9" stroke-width="1.51"></path><path d="M-109,209L-93,298L-36,264Z" fill="#6871c8" stroke="#6871c8" stroke-width="1.51"></path><path d="M-152,-27L-126,82L-52,-11Z" fill="#8691e1" stroke="#8691e1" stroke-width="1.51"></path><path d="M-126,82L-109,209L-45,114Z" fill="#717bd1" stroke="#717bd1" stroke-width="1.51"></path><path d="M-113,-77L-152,-27L-52,-11Z" fill="#919de9" stroke="#919de9" stroke-width="1.51"></path><path d="M-126,82L-152,-27L-109,209Z" fill="#7984d8" stroke="#7984d8" stroke-width="1.51"></path></svg>