<svg width="300" height="176" xmlns="http://www.w3.org/2000/svg"><path d="M142,95L86,81L78,154Z" fill="#546ebe" stroke="#546ebe" stroke-width="1.51"></path><path d="M78,154L182,195L142,95Z" fill="#4758b3" stroke="#4758b3" stroke-width="1.51"></path><path d="M86,81L-23,69L78,154Z" fill="#628bc8" stroke="#628bc8" stroke-width="1.51"></path><path d="M127,-26L36,25L86,81Z" fill="#70b2d6" stroke="#70b2d6" stroke-width="1.51"></path><path d="M78,154L79,240L182,195Z" fill="#495eb2" stroke="#495eb2" stroke-width="1.51"></path><path d="M-46,167L79,240L78,154Z" fill="#5b85bf" stroke="#5b85bf" stroke-width="1.51"></path><path d="M36,25L-23,69L86,81Z" fill="#70b0d5" stroke="#70b0d5" stroke-width="1.51"></path><path d="M142,95L127,-26L86,81Z" fill="#628aca" stroke="#628aca" stroke-width="1.51"></path><path d="M250,-8L127,-26L142,95Z" fill="#6592cb" stroke="#6592cb" stroke-width="1.51"></path><path d="M182,195L258,99L142,95Z" fill="#414faf" stroke="#414faf" stroke-width="1.51"></path><path d="M221,280L245,179L182,195Z" fill="#3846a6" stroke="#3846a6" stroke-width="1.51"></path><path d="M245,179L258,99L182,195Z" fill="#3a47a7" stroke="#3a47a7" stroke-width="1.51"></path><path d="M79,240L177,259L182,195Z" fill="#3f4eac" stroke="#3f4eac" stroke-width="1.51"></path><path d="M-23,69L-46,167L78,154Z" fill="#689ecc" stroke="#689ecc" stroke-width="1.51"></path><path d="M-112,57L-91,202L-46,167Z" fill="#669dca" stroke="#669dca" stroke-width="1.51"></path><path d="M36,25L-30,20L-23,69Z" fill="#79d4e0" stroke="#79d4e0" stroke-width="1.51"></path><path d="M49,-88L-30,20L36,25Z" fill="#7eeee7" stroke="#7eeee7" stroke-width="1.51"></path><path d="M258,99L250,-8L142,95Z" fill="#5169bb" stroke="#5169bb" stroke-width="1.51"></path><path d="M-46,167L-35,255L79,240Z" fill="#6298c5" stroke="#6298c5" stroke-width="1.51"></path><path d="M79,240L221,280L177,259Z" fill="#3d4bab" stroke="#3d4bab" stroke-width="1.51"></path><path d="M177,259L221,280L182,195Z" fill="#3a48a8" stroke="#3a48a8" stroke-width="1.51"></path><path d="M-35,255L221,280L79,240Z" fill="#4f6bb7" stroke="#4f6bb7" stroke-width="1.51"></path><path d="M-112,57L-46,167L-23,69Z" fill="#6ba5d1" stroke="#6ba5d1" stroke-width="1.51"></path><path d="M-46,167L-91,202L-35,255Z" fill="#6298c5" stroke="#6298c5" stroke-width="1.51"></path><path d="M127,-26L49,-88L36,25Z" fill="#78d1df" stroke="#78d1df" stroke-width="1.51"></path><path d="M144,-110L49,-88L127,-26Z" fill="#73bdd9" stroke="#73bdd9" stroke-width="1.51"></path><path d="M327,271L321,157L245,179Z" fill="#303f9f" stroke="#303f9f" stroke-width="1.51"></path><path d="M245,179L321,157L258,99Z" fill="#3845a5" stroke="#3845a5" stroke-width="1.51"></path><path d="M258,99L310,30L250,-8Z" fill="#5677bc" stroke="#5677bc" stroke-width="1.51"></path><path d="M353,102L310,30L258,99Z" fill="#4455af" stroke="#4455af" stroke-width="1.51"></path><path d="M-30,20L-112,57L-23,69Z" fill="#77cadd" stroke="#77cadd" stroke-width="1.51"></path><path d="M-151,23L-112,57L-30,20Z" fill="#7ad9e1" stroke="#7ad9e1" stroke-width="1.51"></path><path d="M240,-96L127,-26L250,-8Z" fill="#69a1cd" stroke="#69a1cd" stroke-width="1.51"></path><path d="M240,-96L144,-110L127,-26Z" fill="#6ba4d0" stroke="#6ba4d0" stroke-width="1.51"></path><path d="M-91,202L-92,256L-35,255Z" fill="#6298c5" stroke="#6298c5" stroke-width="1.51"></path><path d="M-35,255L-92,256L221,280Z" fill="#5c88c0" stroke="#5c88c0" stroke-width="1.51"></path><path d="M-151,23L-92,256L-91,202Z" fill="#649bc8" stroke="#649bc8" stroke-width="1.51"></path><path d="M321,157L353,102L258,99Z" fill="#3947a7" stroke="#3947a7" stroke-width="1.51"></path><path d="M144,-110L-1,-108L49,-88Z" fill="#79d5e0" stroke="#79d5e0" stroke-width="1.51"></path><path d="M49,-88L-1,-108L-30,20Z" fill="#7ff4e9" stroke="#7ff4e9" stroke-width="1.51"></path><path d="M321,-111L250,-8L310,30Z" fill="#6298c6" stroke="#6298c6" stroke-width="1.51"></path><path d="M321,-111L240,-96L250,-8Z" fill="#649bc8" stroke="#649bc8" stroke-width="1.51"></path><path d="M399,174L397,109L353,102Z" fill="#3746a6" stroke="#3746a6" stroke-width="1.51"></path><path d="M221,280L327,271L245,179Z" fill="#3442a2" stroke="#3442a2" stroke-width="1.51"></path><path d="M-112,57L-151,23L-91,202Z" fill="#6ca5d1" stroke="#6ca5d1" stroke-width="1.51"></path><path d="M-133,-119L-151,23L-30,20Z" fill="#7ff8ea" stroke="#7ff8ea" stroke-width="1.51"></path><path d="M353,102L439,-17L310,30Z" fill="#5576bb" stroke="#5576bb" stroke-width="1.51"></path><path d="M399,174L353,102L321,157Z" fill="#3543a3" stroke="#3543a3" stroke-width="1.51"></path><path d="M327,271L399,174L321,157Z" fill="#303f9f" stroke="#303f9f" stroke-width="1.51"></path><path d="M439,-17L321,-111L310,30Z" fill="#6298c5" stroke="#6298c5" stroke-width="1.51"></path><path d="M240,-96L321,-111L144,-110Z" fill="#679ecb" stroke="#679ecb" stroke-width="1.51"></path><path d="M321,-111L-133,-119L144,-110Z" fill="#73bbd9" stroke="#73bbd9" stroke-width="1.51"></path><path d="M144,-110L-133,-119L-1,-108Z" fill="#7ff6ea" stroke="#7ff6ea" stroke-width="1.51"></path><path d="M-1,-108L-133,-119L-30,20Z" fill="#7ff8ea" stroke="#7ff8ea" stroke-width="1.51"></path><path d="M327,271L414,286L399,174Z" fill="#303f9f" stroke="#303f9f" stroke-width="1.51"></path><path d="M399,174L439,-17L397,109Z" fill="#3d4cac" stroke="#3d4cac" stroke-width="1.51"></path><path d="M221,280L414,286L327,271Z" fill="#303f9f" stroke="#303f9f" stroke-width="1.51"></path><path d="M414,286L439,-17L399,174Z" fill="#3543a3" stroke="#3543a3" stroke-width="1.51"></path><path d="M397,109L439,-17L353,102Z" fill="#4a60b3" stroke="#4a60b3" stroke-width="1.51"></path><path d="M439,-17L447,-77L321,-111Z" fill="#6298c5" stroke="#6298c5" stroke-width="1.51"></path><path d="M414,286L447,-77L439,-17Z" fill="#4a60b3" stroke="#4a60b3" stroke-width="1.51"></path></svg>