<svg width="300" height="176" xmlns="http://www.w3.org/2000/svg"><path d="M119,75L212,65L138,16Z" fill="#5164bd" stroke="#5164bd" stroke-width="1.51"></path><path d="M212,65L211,-13L138,16Z" fill="#556dbf" stroke="#556dbf" stroke-width="1.51"></path><path d="M138,16L47,55L119,75Z" fill="#5872c2" stroke="#5872c2" stroke-width="1.51"></path><path d="M119,75L158,198L212,65Z" fill="#4857b7" stroke="#4857b7" stroke-width="1.51"></path><path d="M39,187L158,198L119,75Z" fill="#4d60b9" stroke="#4d60b9" stroke-width="1.51"></path><path d="M116,-84L84,-62L138,16Z" fill="#648fcb" stroke="#648fcb" stroke-width="1.51"></path><path d="M138,16L47,-29L47,55Z" fill="#6083c8" stroke="#6083c8" stroke-width="1.51"></path><path d="M84,-62L47,-29L138,16Z" fill="#648ecb" stroke="#648ecb" stroke-width="1.51"></path><path d="M211,-13L116,-84L138,16Z" fill="#5e80c6" stroke="#5e80c6" stroke-width="1.51"></path><path d="M158,198L239,209L212,65Z" fill="#4453b3" stroke="#4453b3" stroke-width="1.51"></path><path d="M297,-114L228,-104L211,-13Z" fill="#628dc8" stroke="#628dc8" stroke-width="1.51"></path><path d="M353,16L211,-13L212,65Z" fill="#526abc" stroke="#526abc" stroke-width="1.51"></path><path d="M211,-13L228,-104L116,-84Z" fill="#628cc9" stroke="#628cc9" stroke-width="1.51"></path><path d="M309,180L337,82L212,65Z" fill="#4452b2" stroke="#4452b2" stroke-width="1.51"></path><path d="M-11,170L39,187L47,55Z" fill="#5874c0" stroke="#5874c0" stroke-width="1.51"></path><path d="M47,55L39,187L119,75Z" fill="#546cbf" stroke="#546cbf" stroke-width="1.51"></path><path d="M158,198L238,289L239,209Z" fill="#404eae" stroke="#404eae" stroke-width="1.51"></path><path d="M39,187L128,243L158,198Z" fill="#495cb5" stroke="#495cb5" stroke-width="1.51"></path><path d="M239,209L309,180L212,65Z" fill="#4351b1" stroke="#4351b1" stroke-width="1.51"></path><path d="M337,82L353,16L212,65Z" fill="#4b5eb6" stroke="#4b5eb6" stroke-width="1.51"></path><path d="M47,-29L-38,28L47,55Z" fill="#6591cc" stroke="#6591cc" stroke-width="1.51"></path><path d="M-6,-80L-38,28L47,-29Z" fill="#6ca5d2" stroke="#6ca5d2" stroke-width="1.51"></path><path d="M-38,28L-42,63L47,55Z" fill="#648ecb" stroke="#648ecb" stroke-width="1.51"></path><path d="M-42,63L-11,170L47,55Z" fill="#5d7ec5" stroke="#5d7ec5" stroke-width="1.51"></path><path d="M39,187L79,251L128,243Z" fill="#4c61b7" stroke="#4c61b7" stroke-width="1.51"></path><path d="M-33,246L79,251L39,187Z" fill="#536ebb" stroke="#536ebb" stroke-width="1.51"></path><path d="M353,16L297,-114L211,-13Z" fill="#5b7ec2" stroke="#5b7ec2" stroke-width="1.51"></path><path d="M-111,-113L116,-84L228,-104Z" fill="#6eacd4" stroke="#6eacd4" stroke-width="1.51"></path><path d="M-111,-113L-6,-80L116,-84Z" fill="#74bdd9" stroke="#74bdd9" stroke-width="1.51"></path><path d="M116,-84L-6,-80L84,-62Z" fill="#6da6d2" stroke="#6da6d2" stroke-width="1.51"></path><path d="M84,-62L-6,-80L47,-29Z" fill="#6da5d2" stroke="#6da5d2" stroke-width="1.51"></path><path d="M79,251L238,289L128,243Z" fill="#404faf" stroke="#404faf" stroke-width="1.51"></path><path d="M128,243L238,289L158,198Z" fill="#404faf" stroke="#404faf" stroke-width="1.51"></path><path d="M239,209L238,289L309,180Z" fill="#3e4cac" stroke="#3e4cac" stroke-width="1.51"></path><path d="M452,110L353,16L337,82Z" fill="#4556b1" stroke="#4556b1" stroke-width="1.51"></path><path d="M452,110L401,-7L353,16Z" fill="#495fb4" stroke="#495fb4" stroke-width="1.51"></path><path d="M353,16L401,-7L297,-114Z" fill="#587abf" stroke="#587abf" stroke-width="1.51"></path><path d="M309,180L398,149L337,82Z" fill="#404eae" stroke="#404eae" stroke-width="1.51"></path><path d="M355,300L398,149L309,180Z" fill="#3b49a9" stroke="#3b49a9" stroke-width="1.51"></path><path d="M-11,170L-33,246L39,187Z" fill="#5877bf" stroke="#5877bf" stroke-width="1.51"></path><path d="M79,251L-33,246L238,289Z" fill="#495cb3" stroke="#495cb3" stroke-width="1.51"></path><path d="M-96,249L-33,246L-11,170Z" fill="#5c80c1" stroke="#5c80c1" stroke-width="1.51"></path><path d="M-6,-80L-107,-27L-38,28Z" fill="#70b2d6" stroke="#70b2d6" stroke-width="1.51"></path><path d="M-38,28L-153,66L-42,63Z" fill="#6a9dcf" stroke="#6a9dcf" stroke-width="1.51"></path><path d="M-42,63L-150,180L-11,170Z" fill="#628bc8" stroke="#628bc8" stroke-width="1.51"></path><path d="M398,149L452,110L337,82Z" fill="#3f4dad" stroke="#3f4dad" stroke-width="1.51"></path><path d="M448,292L452,110L398,149Z" fill="#3948a8" stroke="#3948a8" stroke-width="1.51"></path><path d="M238,289L355,300L309,180Z" fill="#3b48a8" stroke="#3b48a8" stroke-width="1.51"></path><path d="M-107,-27L-153,66L-38,28Z" fill="#6fadd4" stroke="#6fadd4" stroke-width="1.51"></path><path d="M-150,180L-96,249L-11,170Z" fill="#608bc5" stroke="#608bc5" stroke-width="1.51"></path><path d="M-33,246L-96,249L238,289Z" fill="#506ab9" stroke="#506ab9" stroke-width="1.51"></path><path d="M-107,-27L-111,-113L-153,66Z" fill="#75c4db" stroke="#75c4db" stroke-width="1.51"></path><path d="M-6,-80L-111,-113L-107,-27Z" fill="#76c9dd" stroke="#76c9dd" stroke-width="1.51"></path><path d="M297,-114L-111,-113L228,-104Z" fill="#6aa0d1" stroke="#6aa0d1" stroke-width="1.51"></path><path d="M452,110L451,-112L401,-7Z" fill="#516bb8" stroke="#516bb8" stroke-width="1.51"></path><path d="M401,-7L451,-112L297,-114Z" fill="#5d87c2" stroke="#5d87c2" stroke-width="1.51"></path><path d="M-153,66L-150,180L-42,63Z" fill="#6899ce" stroke="#6899ce" stroke-width="1.51"></path><path d="M355,300L448,292L398,149Z" fill="#3745a5" stroke="#3745a5" stroke-width="1.51"></path></svg>