<svg width="300" height="176" xmlns="http://www.w3.org/2000/svg"><path d="M166,89L234,71L150,24Z" fill="#4e60bb" stroke="#4e60bb" stroke-width="1.51"></path><path d="M234,71L257,-27L150,24Z" fill="#546cbe" stroke="#546cbe" stroke-width="1.51"></path><path d="M234,71L348,102L257,-27Z" fill="#4d61b8" stroke="#4d61b8" stroke-width="1.51"></path><path d="M166,89L256,165L234,71Z" fill="#4755b5" stroke="#4755b5" stroke-width="1.51"></path><path d="M166,89L130,198L256,165Z" fill="#4554b4" stroke="#4554b4" stroke-width="1.51"></path><path d="M150,24L60,85L166,89Z" fill="#5266be" stroke="#5266be" stroke-width="1.51"></path><path d="M150,24L51,5L60,85Z" fill="#5b79c4" stroke="#5b79c4" stroke-width="1.51"></path><path d="M178,-120L51,5L150,24Z" fill="#6187c9" stroke="#6187c9" stroke-width="1.51"></path><path d="M90,193L130,198L166,89Z" fill="#495ab7" stroke="#495ab7" stroke-width="1.51"></path><path d="M256,165L348,102L234,71Z" fill="#4452b2" stroke="#4452b2" stroke-width="1.51"></path><path d="M257,-27L178,-120L150,24Z" fill="#5e83c6" stroke="#5e83c6" stroke-width="1.51"></path><path d="M60,85L90,193L166,89Z" fill="#4e62bb" stroke="#4e62bb" stroke-width="1.51"></path><path d="M257,-27L268,-114L178,-120Z" fill="#6491ca" stroke="#6491ca" stroke-width="1.51"></path><path d="M348,102L353,-27L257,-27Z" fill="#516aba" stroke="#516aba" stroke-width="1.51"></path><path d="M352,-97L268,-114L257,-27Z" fill="#618cc6" stroke="#618cc6" stroke-width="1.51"></path><path d="M316,281L336,164L256,165Z" fill="#3e4cac" stroke="#3e4cac" stroke-width="1.51"></path><path d="M256,165L336,164L348,102Z" fill="#414eaf" stroke="#414eaf" stroke-width="1.51"></path><path d="M336,164L401,75L348,102Z" fill="#404eae" stroke="#404eae" stroke-width="1.51"></path><path d="M348,102L401,75L353,-27Z" fill="#495db4" stroke="#495db4" stroke-width="1.51"></path><path d="M353,-27L352,-97L257,-27Z" fill="#5b81c2" stroke="#5b81c2" stroke-width="1.51"></path><path d="M415,-92L352,-97L353,-27Z" fill="#5d85c2" stroke="#5d85c2" stroke-width="1.51"></path><path d="M51,5L-26,4L60,85Z" fill="#6389ca" stroke="#6389ca" stroke-width="1.51"></path><path d="M60,85L-28,149L90,193Z" fill="#5670bf" stroke="#5670bf" stroke-width="1.51"></path><path d="M2,-71L-26,4L51,5Z" fill="#6ba1d1" stroke="#6ba1d1" stroke-width="1.51"></path><path d="M37,-125L2,-71L51,5Z" fill="#6eabd4" stroke="#6eabd4" stroke-width="1.51"></path><path d="M178,-120L37,-125L51,5Z" fill="#6ba2d1" stroke="#6ba2d1" stroke-width="1.51"></path><path d="M-52,118L-28,149L60,85Z" fill="#5d7dc4" stroke="#5d7dc4" stroke-width="1.51"></path><path d="M401,75L422,-26L353,-27Z" fill="#506ab8" stroke="#506ab8" stroke-width="1.51"></path><path d="M-26,4L-52,118L60,85Z" fill="#6186c8" stroke="#6186c8" stroke-width="1.51"></path><path d="M130,198L256,298L256,165Z" fill="#404faf" stroke="#404faf" stroke-width="1.51"></path><path d="M61,275L123,294L130,198Z" fill="#475ab3" stroke="#475ab3" stroke-width="1.51"></path><path d="M61,275L130,198L90,193Z" fill="#4b5eb5" stroke="#4b5eb5" stroke-width="1.51"></path><path d="M123,294L256,298L130,198Z" fill="#3f4eae" stroke="#3f4eae" stroke-width="1.51"></path><path d="M336,164L443,205L401,75Z" fill="#3d4bab" stroke="#3d4bab" stroke-width="1.51"></path><path d="M-28,149L61,275L90,193Z" fill="#526cbb" stroke="#526cbb" stroke-width="1.51"></path><path d="M-59,297L61,275L-28,149Z" fill="#5776bd" stroke="#5776bd" stroke-width="1.51"></path><path d="M422,-26L415,-92L353,-27Z" fill="#597dbf" stroke="#597dbf" stroke-width="1.51"></path><path d="M352,-97L415,-92L268,-114Z" fill="#6291c7" stroke="#6291c7" stroke-width="1.51"></path><path d="M256,298L316,281L256,165Z" fill="#3c4aaa" stroke="#3c4aaa" stroke-width="1.51"></path><path d="M316,281L411,237L336,164Z" fill="#3a49a8" stroke="#3a49a8" stroke-width="1.51"></path><path d="M401,75L443,205L422,-26Z" fill="#404eae" stroke="#404eae" stroke-width="1.51"></path><path d="M411,237L443,205L336,164Z" fill="#3a48a8" stroke="#3a48a8" stroke-width="1.51"></path><path d="M-26,4L-115,-4L-52,118Z" fill="#6a9ed0" stroke="#6a9ed0" stroke-width="1.51"></path><path d="M2,-71L-115,-4L-26,4Z" fill="#70b0d5" stroke="#70b0d5" stroke-width="1.51"></path><path d="M-104,-126L-115,-4L2,-71Z" fill="#76c6dc" stroke="#76c6dc" stroke-width="1.51"></path><path d="M-52,118L-104,206L-28,149Z" fill="#6088c6" stroke="#6088c6" stroke-width="1.51"></path><path d="M-147,115L-104,206L-52,118Z" fill="#6492ca" stroke="#6492ca" stroke-width="1.51"></path><path d="M37,-125L-104,-126L2,-71Z" fill="#76c7dd" stroke="#76c7dd" stroke-width="1.51"></path><path d="M-104,-126L-147,115L-115,-4Z" fill="#73bdd9" stroke="#73bdd9" stroke-width="1.51"></path><path d="M-115,-4L-147,115L-52,118Z" fill="#699bcf" stroke="#699bcf" stroke-width="1.51"></path><path d="M-104,206L-59,297L-28,149Z" fill="#5d85c3" stroke="#5d85c3" stroke-width="1.51"></path><path d="M61,275L-59,297L123,294Z" fill="#4e67b7" stroke="#4e67b7" stroke-width="1.51"></path><path d="M123,294L-59,297L256,298Z" fill="#4557b0" stroke="#4557b0" stroke-width="1.51"></path><path d="M-104,206L-89,298L-59,297Z" fill="#5d87c1" stroke="#5d87c1" stroke-width="1.51"></path><path d="M-59,297L-89,298L256,298Z" fill="#4e68b7" stroke="#4e68b7" stroke-width="1.51"></path><path d="M-147,115L-89,298L-104,206Z" fill="#6392c7" stroke="#6392c7" stroke-width="1.51"></path></svg>