<svg width="300" height="176" xmlns="http://www.w3.org/2000/svg"><path d="M92,277L-96,285L169,277Z" fill="#4d64b6" stroke="#4d64b6" stroke-width="1.51"></path><path d="M40,-113L141,-107L237,-111Z" fill="#6a9fd1" stroke="#6a9fd1" stroke-width="1.51"></path><path d="M40,-113L237,-111L396,-123Z" fill="#689bcd" stroke="#689bcd" stroke-width="1.51"></path><path d="M326,6L335,81L400,-29Z" fill="#5068b9" stroke="#5068b9" stroke-width="1.51"></path><path d="M396,-123L360,-59L400,-29Z" fill="#5c84c1" stroke="#5c84c1" stroke-width="1.51"></path><path d="M169,277L-96,285L418,290Z" fill="#3f4dad" stroke="#3f4dad" stroke-width="1.51"></path><path d="M272,275L169,277L418,290Z" fill="#3a48a8" stroke="#3a48a8" stroke-width="1.51"></path><path d="M348,272L272,275L418,290Z" fill="#3746a6" stroke="#3746a6" stroke-width="1.51"></path><path d="M396,-123L400,-29L425,117Z" fill="#5370ba" stroke="#5370ba" stroke-width="1.51"></path><path d="M400,-29L335,81L425,117Z" fill="#4759b2" stroke="#4759b2" stroke-width="1.51"></path><path d="M396,-123L425,117L433,167Z" fill="#4759b2" stroke="#4759b2" stroke-width="1.51"></path><path d="M348,272L418,290L433,167Z" fill="#3745a5" stroke="#3745a5" stroke-width="1.51"></path><path d="M425,117L311,162L433,167Z" fill="#3d4bab" stroke="#3d4bab" stroke-width="1.51"></path><path d="M311,162L348,272L433,167Z" fill="#3b49a9" stroke="#3b49a9" stroke-width="1.51"></path><path d="M335,81L311,162L425,117Z" fill="#404eae" stroke="#404eae" stroke-width="1.51"></path><path d="M360,-59L326,6L400,-29Z" fill="#5777bd" stroke="#5777bd" stroke-width="1.51"></path><path d="M237,-111L360,-59L396,-123Z" fill="#6190c7" stroke="#6190c7" stroke-width="1.51"></path><path d="M311,162L266,201L348,272Z" fill="#3d4bab" stroke="#3d4bab" stroke-width="1.51"></path><path d="M266,201L272,275L348,272Z" fill="#3b49a9" stroke="#3b49a9" stroke-width="1.51"></path><path d="M233,-32L326,6L360,-59Z" fill="#597ac0" stroke="#597ac0" stroke-width="1.51"></path><path d="M237,-111L233,-32L360,-59Z" fill="#5f88c5" stroke="#5f88c5" stroke-width="1.51"></path><path d="M326,6L236,111L335,81Z" fill="#495ab5" stroke="#495ab5" stroke-width="1.51"></path><path d="M236,111L311,162L335,81Z" fill="#4351b1" stroke="#4351b1" stroke-width="1.51"></path><path d="M233,-32L236,111L326,6Z" fill="#5168bb" stroke="#5168bb" stroke-width="1.51"></path><path d="M236,111L266,201L311,162Z" fill="#4150b0" stroke="#4150b0" stroke-width="1.51"></path><path d="M233,-32L149,9L236,111Z" fill="#536abd" stroke="#536abd" stroke-width="1.51"></path><path d="M266,201L169,277L272,275Z" fill="#3e4cac" stroke="#3e4cac" stroke-width="1.51"></path><path d="M236,111L119,189L266,201Z" fill="#4452b2" stroke="#4452b2" stroke-width="1.51"></path><path d="M119,189L169,277L266,201Z" fill="#414faf" stroke="#414faf" stroke-width="1.51"></path><path d="M139,114L119,189L236,111Z" fill="#4755b5" stroke="#4755b5" stroke-width="1.51"></path><path d="M149,9L139,114L236,111Z" fill="#4b5bb9" stroke="#4b5bb9" stroke-width="1.51"></path><path d="M141,-107L233,-32L237,-111Z" fill="#6491cb" stroke="#6491cb" stroke-width="1.51"></path><path d="M141,-107L149,9L233,-32Z" fill="#6085c7" stroke="#6085c7" stroke-width="1.51"></path><path d="M-123,-62L-12,-85L40,-113Z" fill="#75c3db" stroke="#75c3db" stroke-width="1.51"></path><path d="M68,80L139,114L149,9Z" fill="#5367be" stroke="#5367be" stroke-width="1.51"></path><path d="M141,-107L51,11L149,9Z" fill="#628ac9" stroke="#628ac9" stroke-width="1.51"></path><path d="M119,189L92,277L169,277Z" fill="#4555b1" stroke="#4555b1" stroke-width="1.51"></path><path d="M40,-113L51,11L141,-107Z" fill="#6ba1d1" stroke="#6ba1d1" stroke-width="1.51"></path><path d="M51,11L68,80L149,9Z" fill="#5c7ac5" stroke="#5c7ac5" stroke-width="1.51"></path><path d="M39,156L119,189L139,114Z" fill="#4e61b9" stroke="#4e61b9" stroke-width="1.51"></path><path d="M68,80L39,156L139,114Z" fill="#5268bd" stroke="#5268bd" stroke-width="1.51"></path><path d="M-48,250L-96,285L92,277Z" fill="#5676bc" stroke="#5676bc" stroke-width="1.51"></path><path d="M39,156L92,277L119,189Z" fill="#4d62b8" stroke="#4d62b8" stroke-width="1.51"></path><path d="M40,-113L-12,-85L51,11Z" fill="#6fabd4" stroke="#6fabd4" stroke-width="1.51"></path><path d="M39,156L-5,167L92,277Z" fill="#526dbc" stroke="#526dbc" stroke-width="1.51"></path><path d="M-5,167L-48,250L92,277Z" fill="#5471bc" stroke="#5471bc" stroke-width="1.51"></path><path d="M-12,-85L-35,-17L51,11Z" fill="#6da6d3" stroke="#6da6d3" stroke-width="1.51"></path><path d="M51,11L-52,116L68,80Z" fill="#5d7ec6" stroke="#5d7ec6" stroke-width="1.51"></path><path d="M-52,116L39,156L68,80Z" fill="#5977c2" stroke="#5977c2" stroke-width="1.51"></path><path d="M-52,116L-5,167L39,156Z" fill="#5b7bc2" stroke="#5b7bc2" stroke-width="1.51"></path><path d="M-35,-17L-52,116L51,11Z" fill="#6592cc" stroke="#6592cc" stroke-width="1.51"></path><path d="M-119,95L-52,116L-35,-17Z" fill="#6797cd" stroke="#6797cd" stroke-width="1.51"></path><path d="M-100,-22L-119,95L-35,-17Z" fill="#6fabd4" stroke="#6fabd4" stroke-width="1.51"></path><path d="M-105,194L-48,250L-5,167Z" fill="#5d83c3" stroke="#5d83c3" stroke-width="1.51"></path><path d="M-52,116L-105,194L-5,167Z" fill="#5f86c6" stroke="#5f86c6" stroke-width="1.51"></path><path d="M-100,-22L-35,-17L-12,-85Z" fill="#72b6d8" stroke="#72b6d8" stroke-width="1.51"></path><path d="M-123,-62L-100,-22L-12,-85Z" fill="#75c4db" stroke="#75c4db" stroke-width="1.51"></path><path d="M-119,95L-105,194L-52,116Z" fill="#6491ca" stroke="#6491ca" stroke-width="1.51"></path><path d="M-105,194L-96,285L-48,250Z" fill="#5e88c3" stroke="#5e88c3" stroke-width="1.51"></path><path d="M-123,-62L-119,95L-100,-22Z" fill="#72b8d8" stroke="#72b8d8" stroke-width="1.51"></path><path d="M-105,194L-119,95L-96,285Z" fill="#6391c8" stroke="#6391c8" stroke-width="1.51"></path></svg>