<svg width="300" height="176" xmlns="http://www.w3.org/2000/svg"><path d="M-151,-69L-11,-92L50,-103Z" fill="#919de9" stroke="#919de9" stroke-width="1.51"></path><path d="M119,-102L229,-106L315,-118Z" fill="#7681d4" stroke="#7681d4" stroke-width="1.51"></path><path d="M50,-103L119,-102L315,-118Z" fill="#7783d7" stroke="#7783d7" stroke-width="1.51"></path><path d="M247,264L-7,296L354,291Z" fill="#3d4bab" stroke="#3d4bab" stroke-width="1.51"></path><path d="M354,291L-7,296L439,298Z" fill="#3a48a8" stroke="#3a48a8" stroke-width="1.51"></path><path d="M386,151L354,291L439,298Z" fill="#3746a6" stroke="#3746a6" stroke-width="1.51"></path><path d="M429,-81L300,-19L447,11Z" fill="#5e68c1" stroke="#5e68c1" stroke-width="1.51"></path><path d="M300,-19L387,83L447,11Z" fill="#515db9" stroke="#515db9" stroke-width="1.51"></path><path d="M386,151L439,298L447,11Z" fill="#3c49a9" stroke="#3c49a9" stroke-width="1.51"></path><path d="M387,83L386,151L447,11Z" fill="#4150af" stroke="#4150af" stroke-width="1.51"></path><path d="M315,-118L300,-19L429,-81Z" fill="#6973ca" stroke="#6973ca" stroke-width="1.51"></path><path d="M308,152L261,205L354,291Z" fill="#3d4bab" stroke="#3d4bab" stroke-width="1.51"></path><path d="M360,101L308,152L386,151Z" fill="#404eae" stroke="#404eae" stroke-width="1.51"></path><path d="M308,152L354,291L386,151Z" fill="#3c4aaa" stroke="#3c4aaa" stroke-width="1.51"></path><path d="M300,-19L360,101L387,83Z" fill="#4b57b6" stroke="#4b57b6" stroke-width="1.51"></path><path d="M360,101L386,151L387,83Z" fill="#404eae" stroke="#404eae" stroke-width="1.51"></path><path d="M261,205L247,264L354,291Z" fill="#3b4aaa" stroke="#3b4aaa" stroke-width="1.51"></path><path d="M261,117L308,152L360,101Z" fill="#4250b0" stroke="#4250b0" stroke-width="1.51"></path><path d="M300,-19L261,117L360,101Z" fill="#4957b6" stroke="#4957b6" stroke-width="1.51"></path><path d="M119,235L-7,296L247,264Z" fill="#4653b2" stroke="#4653b2" stroke-width="1.51"></path><path d="M180,63L261,117L262,-27Z" fill="#505dbb" stroke="#505dbb" stroke-width="1.51"></path><path d="M262,-27L261,117L300,-19Z" fill="#5561be" stroke="#5561be" stroke-width="1.51"></path><path d="M262,-27L300,-19L315,-118Z" fill="#6771c9" stroke="#6771c9" stroke-width="1.51"></path><path d="M229,-106L262,-27L315,-118Z" fill="#6e79ce" stroke="#6e79ce" stroke-width="1.51"></path><path d="M261,117L261,205L308,152Z" fill="#414faf" stroke="#414faf" stroke-width="1.51"></path><path d="M71,243L-7,296L119,235Z" fill="#515cb9" stroke="#515cb9" stroke-width="1.51"></path><path d="M180,63L119,189L261,117Z" fill="#4755b5" stroke="#4755b5" stroke-width="1.51"></path><path d="M119,235L247,264L261,205Z" fill="#3f4eae" stroke="#3f4eae" stroke-width="1.51"></path><path d="M261,117L119,189L261,205Z" fill="#4351b1" stroke="#4351b1" stroke-width="1.51"></path><path d="M229,-106L150,-8L262,-27Z" fill="#6873cb" stroke="#6873cb" stroke-width="1.51"></path><path d="M150,-8L180,63L262,-27Z" fill="#5b68c3" stroke="#5b68c3" stroke-width="1.51"></path><path d="M119,189L119,235L261,205Z" fill="#4351b1" stroke="#4351b1" stroke-width="1.51"></path><path d="M119,-102L150,-8L229,-106Z" fill="#6f7bd1" stroke="#6f7bd1" stroke-width="1.51"></path><path d="M49,67L119,189L180,63Z" fill="#4f5dbb" stroke="#4f5dbb" stroke-width="1.51"></path><path d="M86,27L49,67L180,63Z" fill="#5b67c3" stroke="#5b67c3" stroke-width="1.51"></path><path d="M150,-8L86,27L180,63Z" fill="#5b67c3" stroke="#5b67c3" stroke-width="1.51"></path><path d="M50,-103L86,27L119,-102Z" fill="#7883d7" stroke="#7883d7" stroke-width="1.51"></path><path d="M49,67L53,175L119,189Z" fill="#5461be" stroke="#5461be" stroke-width="1.51"></path><path d="M119,-102L86,27L150,-8Z" fill="#6b77ce" stroke="#6b77ce" stroke-width="1.51"></path><path d="M50,-103L-17,-29L86,27Z" fill="#7a85d8" stroke="#7a85d8" stroke-width="1.51"></path><path d="M71,243L119,235L119,189Z" fill="#4c58b6" stroke="#4c58b6" stroke-width="1.51"></path><path d="M53,175L71,243L119,189Z" fill="#505dba" stroke="#505dba" stroke-width="1.51"></path><path d="M49,67L-1,96L53,175Z" fill="#5d69c4" stroke="#5d69c4" stroke-width="1.51"></path><path d="M-17,-29L49,67L86,27Z" fill="#6d78cf" stroke="#6d78cf" stroke-width="1.51"></path><path d="M-11,-92L-17,-29L50,-103Z" fill="#8793e1" stroke="#8793e1" stroke-width="1.51"></path><path d="M53,175L-15,209L71,243Z" fill="#5863be" stroke="#5863be" stroke-width="1.51"></path><path d="M-15,209L-7,296L71,243Z" fill="#5963be" stroke="#5963be" stroke-width="1.51"></path><path d="M-17,-29L-1,96L49,67Z" fill="#6c77cf" stroke="#6c77cf" stroke-width="1.51"></path><path d="M-1,96L-15,209L53,175Z" fill="#5e6ac4" stroke="#5e6ac4" stroke-width="1.51"></path><path d="M-15,209L-100,211L-7,296Z" fill="#636dc5" stroke="#636dc5" stroke-width="1.51"></path><path d="M-17,-29L-92,54L-1,96Z" fill="#7580d5" stroke="#7580d5" stroke-width="1.51"></path><path d="M-100,211L-15,209L-1,96Z" fill="#6671c9" stroke="#6671c9" stroke-width="1.51"></path><path d="M-92,54L-100,211L-1,96Z" fill="#6d78ce" stroke="#6d78ce" stroke-width="1.51"></path><path d="M-151,-69L-17,-29L-11,-92Z" fill="#8f9be7" stroke="#8f9be7" stroke-width="1.51"></path><path d="M-100,211L-147,270L-7,296Z" fill="#6972c9" stroke="#6972c9" stroke-width="1.51"></path><path d="M-150,-3L-92,54L-17,-29Z" fill="#8490df" stroke="#8490df" stroke-width="1.51"></path><path d="M-151,-69L-150,-3L-17,-29Z" fill="#909ce8" stroke="#909ce8" stroke-width="1.51"></path><path d="M-150,-3L-147,270L-100,211Z" fill="#7680d4" stroke="#7680d4" stroke-width="1.51"></path><path d="M-150,-3L-100,211L-92,54Z" fill="#7682d6" stroke="#7682d6" stroke-width="1.51"></path></svg>