<svg width="300" height="176" xmlns="http://www.w3.org/2000/svg"><path d="M-24,-108L215,-114L300,-119Z" fill="#7984d8" stroke="#7984d8" stroke-width="1.51"></path><path d="M215,245L132,247L311,262Z" fill="#3e4cac" stroke="#3e4cac" stroke-width="1.51"></path><path d="M132,247L-127,300L311,262Z" fill="#4855b3" stroke="#4855b3" stroke-width="1.51"></path><path d="M311,262L-127,300L404,265Z" fill="#3e4cac" stroke="#3e4cac" stroke-width="1.51"></path><path d="M303,161L311,262L404,265Z" fill="#3b49a9" stroke="#3b49a9" stroke-width="1.51"></path><path d="M351,69L303,161L414,83Z" fill="#414faf" stroke="#414faf" stroke-width="1.51"></path><path d="M342,29L351,69L414,83Z" fill="#4956b4" stroke="#4956b4" stroke-width="1.51"></path><path d="M414,83L303,161L430,180Z" fill="#3e4cac" stroke="#3e4cac" stroke-width="1.51"></path><path d="M303,161L404,265L430,180Z" fill="#3a49a9" stroke="#3a49a9" stroke-width="1.51"></path><path d="M342,29L414,83L432,2Z" fill="#4d59b6" stroke="#4d59b6" stroke-width="1.51"></path><path d="M409,-65L342,29L432,2Z" fill="#5964be" stroke="#5964be" stroke-width="1.51"></path><path d="M414,83L430,180L432,2Z" fill="#3f4dad" stroke="#3f4dad" stroke-width="1.51"></path><path d="M300,-119L342,29L409,-65Z" fill="#646ec6" stroke="#646ec6" stroke-width="1.51"></path><path d="M300,-119L224,13L342,29Z" fill="#606bc4" stroke="#606bc4" stroke-width="1.51"></path><path d="M342,29L241,75L351,69Z" fill="#4b59b7" stroke="#4b59b7" stroke-width="1.51"></path><path d="M241,75L303,161L351,69Z" fill="#4352b2" stroke="#4352b2" stroke-width="1.51"></path><path d="M-24,-108L88,-81L215,-114Z" fill="#808bdd" stroke="#808bdd" stroke-width="1.51"></path><path d="M224,13L241,75L342,29Z" fill="#525ebb" stroke="#525ebb" stroke-width="1.51"></path><path d="M-13,243L-127,300L132,247Z" fill="#5b66c0" stroke="#5b66c0" stroke-width="1.51"></path><path d="M215,-114L224,13L300,-119Z" fill="#6d77ce" stroke="#6d77ce" stroke-width="1.51"></path><path d="M303,161L237,192L311,262Z" fill="#3e4cac" stroke="#3e4cac" stroke-width="1.51"></path><path d="M237,192L215,245L311,262Z" fill="#3e4cac" stroke="#3e4cac" stroke-width="1.51"></path><path d="M241,75L237,192L303,161Z" fill="#4351b1" stroke="#4351b1" stroke-width="1.51"></path><path d="M77,235L-13,243L132,247Z" fill="#515db9" stroke="#515db9" stroke-width="1.51"></path><path d="M88,-81L134,-82L215,-114Z" fill="#7680d5" stroke="#7680d5" stroke-width="1.51"></path><path d="M215,-114L134,-82L224,13Z" fill="#6c77ce" stroke="#6c77ce" stroke-width="1.51"></path><path d="M160,92L125,160L237,192Z" fill="#4654b4" stroke="#4654b4" stroke-width="1.51"></path><path d="M160,92L237,192L241,75Z" fill="#4654b4" stroke="#4654b4" stroke-width="1.51"></path><path d="M224,13L160,92L241,75Z" fill="#4f5cbb" stroke="#4f5cbb" stroke-width="1.51"></path><path d="M125,160L215,245L237,192Z" fill="#4350b0" stroke="#4350b0" stroke-width="1.51"></path><path d="M125,160L132,247L215,245Z" fill="#4251b1" stroke="#4251b1" stroke-width="1.51"></path><path d="M120,22L160,92L224,13Z" fill="#5561bf" stroke="#5561bf" stroke-width="1.51"></path><path d="M134,-82L120,22L224,13Z" fill="#636fc8" stroke="#636fc8" stroke-width="1.51"></path><path d="M79,-8L120,22L134,-82Z" fill="#6b77ce" stroke="#6b77ce" stroke-width="1.51"></path><path d="M120,22L43,64L160,92Z" fill="#5965c2" stroke="#5965c2" stroke-width="1.51"></path><path d="M59,148L125,160L160,92Z" fill="#4e5cba" stroke="#4e5cba" stroke-width="1.51"></path><path d="M43,64L59,148L160,92Z" fill="#5561bf" stroke="#5561bf" stroke-width="1.51"></path><path d="M125,160L77,235L132,247Z" fill="#4a57b5" stroke="#4a57b5" stroke-width="1.51"></path><path d="M88,-81L79,-8L134,-82Z" fill="#7580d5" stroke="#7580d5" stroke-width="1.51"></path><path d="M59,148L77,235L125,160Z" fill="#505dba" stroke="#505dba" stroke-width="1.51"></path><path d="M79,-8L43,64L120,22Z" fill="#6570ca" stroke="#6570ca" stroke-width="1.51"></path><path d="M59,148L-10,196L77,235Z" fill="#5863bf" stroke="#5863bf" stroke-width="1.51"></path><path d="M-3,15L79,-8L88,-81Z" fill="#7580d5" stroke="#7580d5" stroke-width="1.51"></path><path d="M-24,-108L-3,15L88,-81Z" fill="#828dde" stroke="#828dde" stroke-width="1.51"></path><path d="M-3,15L43,64L79,-8Z" fill="#6d77cf" stroke="#6d77cf" stroke-width="1.51"></path><path d="M43,64L-17,106L59,148Z" fill="#5e6ac5" stroke="#5e6ac5" stroke-width="1.51"></path><path d="M-10,196L-13,243L77,235Z" fill="#5a65bf" stroke="#5a65bf" stroke-width="1.51"></path><path d="M-17,106L-10,196L59,148Z" fill="#5f6bc5" stroke="#5f6bc5" stroke-width="1.51"></path><path d="M-3,15L-17,106L43,64Z" fill="#6974cc" stroke="#6974cc" stroke-width="1.51"></path><path d="M-17,106L-151,159L-10,196Z" fill="#6b75cc" stroke="#6b75cc" stroke-width="1.51"></path><path d="M-144,22L-109,60L-3,15Z" fill="#7e8adb" stroke="#7e8adb" stroke-width="1.51"></path><path d="M-24,-108L-133,-98L-3,15Z" fill="#8f9ae7" stroke="#8f9ae7" stroke-width="1.51"></path><path d="M-133,-98L-144,22L-3,15Z" fill="#8b97e4" stroke="#8b97e4" stroke-width="1.51"></path><path d="M-109,60L-17,106L-3,15Z" fill="#727dd2" stroke="#727dd2" stroke-width="1.51"></path><path d="M-151,159L-13,243L-10,196Z" fill="#6872c9" stroke="#6872c9" stroke-width="1.51"></path><path d="M-151,159L-127,300L-13,243Z" fill="#6c76cc" stroke="#6c76cc" stroke-width="1.51"></path><path d="M-109,60L-151,159L-17,106Z" fill="#727dd3" stroke="#727dd3" stroke-width="1.51"></path><path d="M-144,22L-151,159L-109,60Z" fill="#7c87d9" stroke="#7c87d9" stroke-width="1.51"></path></svg>