<svg width="300" height="176" xmlns="http://www.w3.org/2000/svg"><path d="M-53,-114L35,-115L165,-117Z" fill="#73b8d8" stroke="#73b8d8" stroke-width="1.51"></path><path d="M72,291L-144,298L332,300Z" fill="#485cb2" stroke="#485cb2" stroke-width="1.51"></path><path d="M177,272L72,291L332,300Z" fill="#3d4bab" stroke="#3d4bab" stroke-width="1.51"></path><path d="M355,-22L309,65L389,99Z" fill="#4a5eb5" stroke="#4a5eb5" stroke-width="1.51"></path><path d="M355,-22L389,99L417,-16Z" fill="#4e65b7" stroke="#4e65b7" stroke-width="1.51"></path><path d="M389,99L406,160L417,-16Z" fill="#4151af" stroke="#4151af" stroke-width="1.51"></path><path d="M165,-117L311,-79L419,-100Z" fill="#6393c8" stroke="#6393c8" stroke-width="1.51"></path><path d="M355,-22L417,-16L419,-100Z" fill="#587cbe" stroke="#587cbe" stroke-width="1.51"></path><path d="M406,160L329,200L425,265Z" fill="#3a48a8" stroke="#3a48a8" stroke-width="1.51"></path><path d="M329,200L332,300L425,265Z" fill="#3846a6" stroke="#3846a6" stroke-width="1.51"></path><path d="M417,-16L406,160L425,265Z" fill="#3d4bab" stroke="#3d4bab" stroke-width="1.51"></path><path d="M419,-100L417,-16L425,265Z" fill="#475bb2" stroke="#475bb2" stroke-width="1.51"></path><path d="M311,-79L355,-22L419,-100Z" fill="#5c84c2" stroke="#5c84c2" stroke-width="1.51"></path><path d="M389,99L329,200L406,160Z" fill="#3e4bab" stroke="#3e4bab" stroke-width="1.51"></path><path d="M271,149L329,200L389,99Z" fill="#404eae" stroke="#404eae" stroke-width="1.51"></path><path d="M309,65L271,149L389,99Z" fill="#4251b1" stroke="#4251b1" stroke-width="1.51"></path><path d="M165,-117L209,-73L311,-79Z" fill="#6492ca" stroke="#6492ca" stroke-width="1.51"></path><path d="M311,-79L215,-4L355,-22Z" fill="#5b7dc1" stroke="#5b7dc1" stroke-width="1.51"></path><path d="M215,-4L309,65L355,-22Z" fill="#536cbc" stroke="#536cbc" stroke-width="1.51"></path><path d="M329,200L224,244L332,300Z" fill="#3b49a9" stroke="#3b49a9" stroke-width="1.51"></path><path d="M224,244L177,272L332,300Z" fill="#3c4aaa" stroke="#3c4aaa" stroke-width="1.51"></path><path d="M271,149L224,244L329,200Z" fill="#3f4dad" stroke="#3f4dad" stroke-width="1.51"></path><path d="M235,73L271,149L309,65Z" fill="#4553b3" stroke="#4553b3" stroke-width="1.51"></path><path d="M215,-4L235,73L309,65Z" fill="#4f63ba" stroke="#4f63ba" stroke-width="1.51"></path><path d="M209,-73L215,-4L311,-79Z" fill="#5f84c5" stroke="#5f84c5" stroke-width="1.51"></path><path d="M235,73L143,155L271,149Z" fill="#4654b4" stroke="#4654b4" stroke-width="1.51"></path><path d="M143,155L224,244L271,149Z" fill="#4251b1" stroke="#4251b1" stroke-width="1.51"></path><path d="M215,-4L156,6L235,73Z" fill="#546cbe" stroke="#546cbe" stroke-width="1.51"></path><path d="M156,6L124,62L235,73Z" fill="#5166bd" stroke="#5166bd" stroke-width="1.51"></path><path d="M124,62L143,155L235,73Z" fill="#4958b8" stroke="#4958b8" stroke-width="1.51"></path><path d="M209,-73L156,6L215,-4Z" fill="#5d7dc4" stroke="#5d7dc4" stroke-width="1.51"></path><path d="M143,155L177,272L224,244Z" fill="#424faf" stroke="#424faf" stroke-width="1.51"></path><path d="M165,-117L156,6L209,-73Z" fill="#628bc9" stroke="#628bc9" stroke-width="1.51"></path><path d="M34,-24L156,6L165,-117Z" fill="#648ecb" stroke="#648ecb" stroke-width="1.51"></path><path d="M35,-115L34,-24L165,-117Z" fill="#6ca6d2" stroke="#6ca6d2" stroke-width="1.51"></path><path d="M143,155L76,176L177,272Z" fill="#4657b4" stroke="#4657b4" stroke-width="1.51"></path><path d="M76,176L72,291L177,272Z" fill="#475ab3" stroke="#475ab3" stroke-width="1.51"></path><path d="M124,62L76,176L143,155Z" fill="#4d5fba" stroke="#4d5fba" stroke-width="1.51"></path><path d="M34,-24L124,62L156,6Z" fill="#5d7dc5" stroke="#5d7dc5" stroke-width="1.51"></path><path d="M34,-24L44,56L124,62Z" fill="#5f80c7" stroke="#5f80c7" stroke-width="1.51"></path><path d="M44,56L76,176L124,62Z" fill="#5369be" stroke="#5369be" stroke-width="1.51"></path><path d="M-7,246L-144,298L72,291Z" fill="#5778bc" stroke="#5778bc" stroke-width="1.51"></path><path d="M44,56L3,154L76,176Z" fill="#5671c0" stroke="#5671c0" stroke-width="1.51"></path><path d="M-7,246L72,291L76,176Z" fill="#5069b9" stroke="#5069b9" stroke-width="1.51"></path><path d="M3,154L-7,246L76,176Z" fill="#5571bd" stroke="#5571bd" stroke-width="1.51"></path><path d="M-15,-26L34,-24L35,-115Z" fill="#6eabd4" stroke="#6eabd4" stroke-width="1.51"></path><path d="M-53,-114L-15,-26L35,-115Z" fill="#73bdd9" stroke="#73bdd9" stroke-width="1.51"></path><path d="M-34,86L3,154L44,56Z" fill="#5c7cc5" stroke="#5c7cc5" stroke-width="1.51"></path><path d="M34,-24L-15,-26L44,56Z" fill="#6796ce" stroke="#6796ce" stroke-width="1.51"></path><path d="M-15,-26L-34,86L44,56Z" fill="#658ecb" stroke="#658ecb" stroke-width="1.51"></path><path d="M-97,-22L-34,86L-15,-26Z" fill="#6ca3d2" stroke="#6ca3d2" stroke-width="1.51"></path><path d="M-109,205L-7,246L3,154Z" fill="#5b80c2" stroke="#5b80c2" stroke-width="1.51"></path><path d="M-34,86L-109,205L3,154Z" fill="#5f85c5" stroke="#5f85c5" stroke-width="1.51"></path><path d="M-53,-114L-97,-22L-15,-26Z" fill="#74bcda" stroke="#74bcda" stroke-width="1.51"></path><path d="M-109,205L-144,298L-7,246Z" fill="#5e89c2" stroke="#5e89c2" stroke-width="1.51"></path><path d="M-140,88L-109,205L-34,86Z" fill="#6592cb" stroke="#6592cb" stroke-width="1.51"></path><path d="M-134,-87L-97,-22L-53,-114Z" fill="#78cedf" stroke="#78cedf" stroke-width="1.51"></path><path d="M-97,-22L-140,88L-34,86Z" fill="#6ba1d1" stroke="#6ba1d1" stroke-width="1.51"></path><path d="M-134,-87L-140,88L-97,-22Z" fill="#74beda" stroke="#74beda" stroke-width="1.51"></path><path d="M-140,88L-144,298L-109,205Z" fill="#6597c9" stroke="#6597c9" stroke-width="1.51"></path></svg>