<svg width="300" height="176" xmlns="http://www.w3.org/2000/svg"><path d="M173,77L160,26L90,91Z" fill="#5063bc" stroke="#5063bc" stroke-width="1.51"></path><path d="M160,26L84,31L90,91Z" fill="#576fc1" stroke="#576fc1" stroke-width="1.51"></path><path d="M160,26L154,-98L84,31Z" fill="#5e80c6" stroke="#5e80c6" stroke-width="1.51"></path><path d="M173,77L217,-21L160,26Z" fill="#546cbf" stroke="#546cbf" stroke-width="1.51"></path><path d="M173,77L245,112L217,-21Z" fill="#4e61ba" stroke="#4e61ba" stroke-width="1.51"></path><path d="M175,204L245,112L173,77Z" fill="#4654b4" stroke="#4654b4" stroke-width="1.51"></path><path d="M-43,7L-2,63L84,31Z" fill="#638dca" stroke="#638dca" stroke-width="1.51"></path><path d="M84,31L-2,63L90,91Z" fill="#5b78c4" stroke="#5b78c4" stroke-width="1.51"></path><path d="M-2,63L60,193L90,91Z" fill="#5670c0" stroke="#5670c0" stroke-width="1.51"></path><path d="M90,91L175,204L173,77Z" fill="#4958b7" stroke="#4958b7" stroke-width="1.51"></path><path d="M217,-21L208,-64L160,26Z" fill="#5c7bc3" stroke="#5c7bc3" stroke-width="1.51"></path><path d="M360,-87L208,-64L217,-21Z" fill="#5f86c5" stroke="#5f86c5" stroke-width="1.51"></path><path d="M60,193L175,204L90,91Z" fill="#4c5eb8" stroke="#4c5eb8" stroke-width="1.51"></path><path d="M208,-64L154,-98L160,26Z" fill="#6085c7" stroke="#6085c7" stroke-width="1.51"></path><path d="M-30,-100L-43,7L84,31Z" fill="#6ca2d2" stroke="#6ca2d2" stroke-width="1.51"></path><path d="M-2,63L-49,155L60,193Z" fill="#5a79c2" stroke="#5a79c2" stroke-width="1.51"></path><path d="M154,-98L82,-112L84,31Z" fill="#6796cd" stroke="#6796cd" stroke-width="1.51"></path><path d="M175,204L262,203L245,112Z" fill="#4351b1" stroke="#4351b1" stroke-width="1.51"></path><path d="M60,193L178,235L175,204Z" fill="#4555b3" stroke="#4555b3" stroke-width="1.51"></path><path d="M245,112L315,17L217,-21Z" fill="#5066bb" stroke="#5066bb" stroke-width="1.51"></path><path d="M262,203L316,101L245,112Z" fill="#4251b1" stroke="#4251b1" stroke-width="1.51"></path><path d="M316,101L315,17L245,112Z" fill="#4757b4" stroke="#4757b4" stroke-width="1.51"></path><path d="M228,242L262,203L175,204Z" fill="#404eae" stroke="#404eae" stroke-width="1.51"></path><path d="M60,193L56,283L178,235Z" fill="#495db5" stroke="#495db5" stroke-width="1.51"></path><path d="M-92,100L-49,155L-2,63Z" fill="#6188c8" stroke="#6188c8" stroke-width="1.51"></path><path d="M178,235L228,242L175,204Z" fill="#414faf" stroke="#414faf" stroke-width="1.51"></path><path d="M-43,7L-92,100L-2,63Z" fill="#6793cc" stroke="#6793cc" stroke-width="1.51"></path><path d="M-43,7L-137,-33L-92,100Z" fill="#6eaad4" stroke="#6eaad4" stroke-width="1.51"></path><path d="M82,-112L-30,-100L84,31Z" fill="#6ca6d2" stroke="#6ca6d2" stroke-width="1.51"></path><path d="M-149,203L-11,244L-49,155Z" fill="#5f88c4" stroke="#5f88c4" stroke-width="1.51"></path><path d="M-49,155L-11,244L60,193Z" fill="#5877bf" stroke="#5877bf" stroke-width="1.51"></path><path d="M178,235L56,283L228,242Z" fill="#414faf" stroke="#414faf" stroke-width="1.51"></path><path d="M-11,244L56,283L60,193Z" fill="#516bba" stroke="#516bba" stroke-width="1.51"></path><path d="M305,254L342,184L262,203Z" fill="#3d4bab" stroke="#3d4bab" stroke-width="1.51"></path><path d="M262,203L342,184L316,101Z" fill="#404eae" stroke="#404eae" stroke-width="1.51"></path><path d="M401,-28L360,-87L315,17Z" fill="#5879be" stroke="#5879be" stroke-width="1.51"></path><path d="M228,242L305,254L262,203Z" fill="#3e4bab" stroke="#3e4bab" stroke-width="1.51"></path><path d="M56,283L305,254L228,242Z" fill="#3e4dad" stroke="#3e4dad" stroke-width="1.51"></path><path d="M315,17L360,-87L217,-21Z" fill="#597bc1" stroke="#597bc1" stroke-width="1.51"></path><path d="M208,-64L360,-87L154,-98Z" fill="#638fc8" stroke="#638fc8" stroke-width="1.51"></path><path d="M154,-98L439,-114L82,-112Z" fill="#6799cc" stroke="#6799cc" stroke-width="1.51"></path><path d="M401,-28L315,17L430,56Z" fill="#4f68b8" stroke="#4f68b8" stroke-width="1.51"></path><path d="M342,184L391,150L316,101Z" fill="#3f4dad" stroke="#3f4dad" stroke-width="1.51"></path><path d="M418,289L391,150L342,184Z" fill="#3a48a8" stroke="#3a48a8" stroke-width="1.51"></path><path d="M-30,-100L-137,-33L-43,7Z" fill="#74bcd9" stroke="#74bcd9" stroke-width="1.51"></path><path d="M430,56L315,17L316,101Z" fill="#485ab4" stroke="#485ab4" stroke-width="1.51"></path><path d="M-30,-100L-99,-126L-137,-33Z" fill="#79d1e0" stroke="#79d1e0" stroke-width="1.51"></path><path d="M82,-112L-99,-126L-30,-100Z" fill="#76c8dd" stroke="#76c8dd" stroke-width="1.51"></path><path d="M391,150L430,56L316,101Z" fill="#404eae" stroke="#404eae" stroke-width="1.51"></path><path d="M-11,244L-138,301L56,283Z" fill="#5779bd" stroke="#5779bd" stroke-width="1.51"></path><path d="M-92,100L-149,203L-49,155Z" fill="#6491c9" stroke="#6491c9" stroke-width="1.51"></path><path d="M-137,-33L-149,203L-92,100Z" fill="#6a9ccf" stroke="#6a9ccf" stroke-width="1.51"></path><path d="M430,56L439,-114L401,-28Z" fill="#5574bb" stroke="#5574bb" stroke-width="1.51"></path><path d="M401,-28L439,-114L360,-87Z" fill="#5d86c1" stroke="#5d86c1" stroke-width="1.51"></path><path d="M360,-87L439,-114L154,-98Z" fill="#6391c7" stroke="#6391c7" stroke-width="1.51"></path><path d="M82,-112L439,-114L-99,-126Z" fill="#6ca1d1" stroke="#6ca1d1" stroke-width="1.51"></path><path d="M-149,203L-138,301L-11,244Z" fill="#5f8bc3" stroke="#5f8bc3" stroke-width="1.51"></path><path d="M391,150L418,289L430,56Z" fill="#3b49a9" stroke="#3b49a9" stroke-width="1.51"></path><path d="M430,56L418,289L439,-114Z" fill="#4151af" stroke="#4151af" stroke-width="1.51"></path><path d="M305,254L418,289L342,184Z" fill="#3948a7" stroke="#3948a7" stroke-width="1.51"></path><path d="M56,283L418,289L305,254Z" fill="#3b49a9" stroke="#3b49a9" stroke-width="1.51"></path><path d="M-138,301L418,289L56,283Z" fill="#4456b0" stroke="#4456b0" stroke-width="1.51"></path></svg>