<svg width="300" height="176" xmlns="http://www.w3.org/2000/svg"><path d="M-64,-102L71,-97L183,-122Z" fill="#8591e1" stroke="#8591e1" stroke-width="1.51"></path><path d="M206,272L162,293L353,272Z" fill="#3c4aaa" stroke="#3c4aaa" stroke-width="1.51"></path><path d="M183,-122L233,-111L403,-90Z" fill="#737ed2" stroke="#737ed2" stroke-width="1.51"></path><path d="M233,-111L331,-70L403,-90Z" fill="#6e78cd" stroke="#6e78cd" stroke-width="1.51"></path><path d="M411,183L353,272L442,254Z" fill="#3746a6" stroke="#3746a6" stroke-width="1.51"></path><path d="M411,20L406,88L442,254Z" fill="#3d4cac" stroke="#3d4cac" stroke-width="1.51"></path><path d="M406,88L411,183L442,254Z" fill="#3a49a9" stroke="#3a49a9" stroke-width="1.51"></path><path d="M403,-90L411,20L442,254Z" fill="#4653b2" stroke="#4653b2" stroke-width="1.51"></path><path d="M327,60L305,194L406,88Z" fill="#414faf" stroke="#414faf" stroke-width="1.51"></path><path d="M406,88L305,194L411,183Z" fill="#3e4bab" stroke="#3e4bab" stroke-width="1.51"></path><path d="M305,194L353,272L411,183Z" fill="#3b49a9" stroke="#3b49a9" stroke-width="1.51"></path><path d="M403,-90L331,-70L411,20Z" fill="#626cc4" stroke="#626cc4" stroke-width="1.51"></path><path d="M331,-70L325,15L411,20Z" fill="#5b65c0" stroke="#5b65c0" stroke-width="1.51"></path><path d="M327,60L406,88L411,20Z" fill="#4956b4" stroke="#4956b4" stroke-width="1.51"></path><path d="M325,15L327,60L411,20Z" fill="#505cb9" stroke="#505cb9" stroke-width="1.51"></path><path d="M82,272L-63,285L162,293Z" fill="#505ab7" stroke="#505ab7" stroke-width="1.51"></path><path d="M270,175L305,194L327,60Z" fill="#414faf" stroke="#414faf" stroke-width="1.51"></path><path d="M251,65L270,175L327,60Z" fill="#4453b3" stroke="#4453b3" stroke-width="1.51"></path><path d="M305,194L206,272L353,272Z" fill="#3c4aaa" stroke="#3c4aaa" stroke-width="1.51"></path><path d="M325,15L251,65L327,60Z" fill="#4e5bb9" stroke="#4e5bb9" stroke-width="1.51"></path><path d="M236,6L325,15L331,-70Z" fill="#5e69c3" stroke="#5e69c3" stroke-width="1.51"></path><path d="M233,-111L236,6L331,-70Z" fill="#6973ca" stroke="#6973ca" stroke-width="1.51"></path><path d="M236,6L251,65L325,15Z" fill="#5460bd" stroke="#5460bd" stroke-width="1.51"></path><path d="M270,175L206,272L305,194Z" fill="#3f4dad" stroke="#3f4dad" stroke-width="1.51"></path><path d="M233,-111L177,-9L236,6Z" fill="#6671ca" stroke="#6671ca" stroke-width="1.51"></path><path d="M251,65L156,148L270,175Z" fill="#4553b3" stroke="#4553b3" stroke-width="1.51"></path><path d="M156,148L206,272L270,175Z" fill="#4250b0" stroke="#4250b0" stroke-width="1.51"></path><path d="M183,-122L177,-9L233,-111Z" fill="#707bd1" stroke="#707bd1" stroke-width="1.51"></path><path d="M236,6L177,-9L251,65Z" fill="#5864c0" stroke="#5864c0" stroke-width="1.51"></path><path d="M177,-9L127,111L251,65Z" fill="#515ebc" stroke="#515ebc" stroke-width="1.51"></path><path d="M127,111L156,148L251,65Z" fill="#4857b7" stroke="#4857b7" stroke-width="1.51"></path><path d="M156,148L82,272L162,293Z" fill="#4553b2" stroke="#4553b2" stroke-width="1.51"></path><path d="M71,-97L177,-9L183,-122Z" fill="#727dd3" stroke="#727dd3" stroke-width="1.51"></path><path d="M156,148L162,293L206,272Z" fill="#414faf" stroke="#414faf" stroke-width="1.51"></path><path d="M76,10L127,111L177,-9Z" fill="#5b67c3" stroke="#5b67c3" stroke-width="1.51"></path><path d="M71,-97L76,10L177,-9Z" fill="#6e79d0" stroke="#6e79d0" stroke-width="1.51"></path><path d="M41,176L82,272L156,148Z" fill="#4e5bb9" stroke="#4e5bb9" stroke-width="1.51"></path><path d="M89,118L41,176L156,148Z" fill="#505ebb" stroke="#505ebb" stroke-width="1.51"></path><path d="M127,111L89,118L156,148Z" fill="#4d5bba" stroke="#4d5bba" stroke-width="1.51"></path><path d="M76,10L89,118L127,111Z" fill="#5662c0" stroke="#5662c0" stroke-width="1.51"></path><path d="M-64,-102L-53,28L71,-97Z" fill="#8792e1" stroke="#8792e1" stroke-width="1.51"></path><path d="M71,-97L-53,28L76,10Z" fill="#7782d6" stroke="#7782d6" stroke-width="1.51"></path><path d="M-9,151L41,176L89,118Z" fill="#5a66c1" stroke="#5a66c1" stroke-width="1.51"></path><path d="M76,10L-36,94L89,118Z" fill="#606cc7" stroke="#606cc7" stroke-width="1.51"></path><path d="M-36,94L-9,151L89,118Z" fill="#5f6cc6" stroke="#5f6cc6" stroke-width="1.51"></path><path d="M-53,28L-36,94L76,10Z" fill="#6f7ad1" stroke="#6f7ad1" stroke-width="1.51"></path><path d="M41,176L-63,285L82,272Z" fill="#5963be" stroke="#5963be" stroke-width="1.51"></path><path d="M-64,-102L-93,-60L-53,28Z" fill="#8d98e6" stroke="#8d98e6" stroke-width="1.51"></path><path d="M-9,151L-63,285L41,176Z" fill="#606ac4" stroke="#606ac4" stroke-width="1.51"></path><path d="M-109,239L-63,285L-9,151Z" fill="#6771c8" stroke="#6771c8" stroke-width="1.51"></path><path d="M-106,154L-109,239L-9,151Z" fill="#6b76cc" stroke="#6b76cc" stroke-width="1.51"></path><path d="M-36,94L-106,154L-9,151Z" fill="#6a75cc" stroke="#6a75cc" stroke-width="1.51"></path><path d="M-89,84L-106,154L-36,94Z" fill="#707bd0" stroke="#707bd0" stroke-width="1.51"></path><path d="M-53,28L-89,84L-36,94Z" fill="#727dd3" stroke="#727dd3" stroke-width="1.51"></path><path d="M-135,15L-89,84L-53,28Z" fill="#7d88db" stroke="#7d88db" stroke-width="1.51"></path><path d="M-93,-60L-135,15L-53,28Z" fill="#8893e2" stroke="#8893e2" stroke-width="1.51"></path><path d="M-135,15L-106,154L-89,84Z" fill="#7682d6" stroke="#7682d6" stroke-width="1.51"></path><path d="M-135,15L-109,239L-106,154Z" fill="#747fd3" stroke="#747fd3" stroke-width="1.51"></path></svg>