<svg width="300" height="176" xmlns="http://www.w3.org/2000/svg"><path d="M-23,252L-130,240L236,290Z" fill="#516cb9" stroke="#516cb9" stroke-width="1.51"></path><path d="M69,250L-23,252L236,290Z" fill="#495cb3" stroke="#495cb3" stroke-width="1.51"></path><path d="M396,76L312,152L409,203Z" fill="#3e4cad" stroke="#3e4cad" stroke-width="1.51"></path><path d="M330,-98L357,14L442,-85Z" fill="#5b80c0" stroke="#5b80c0" stroke-width="1.51"></path><path d="M442,-85L357,14L447,-21Z" fill="#5576bc" stroke="#5576bc" stroke-width="1.51"></path><path d="M357,14L396,76L447,-21Z" fill="#4d64b6" stroke="#4d64b6" stroke-width="1.51"></path><path d="M396,76L409,203L447,-21Z" fill="#404eae" stroke="#404eae" stroke-width="1.51"></path><path d="M83,-113L131,-86L330,-98Z" fill="#6797cd" stroke="#6797cd" stroke-width="1.51"></path><path d="M307,116L312,152L396,76Z" fill="#414faf" stroke="#414faf" stroke-width="1.51"></path><path d="M312,152L398,250L409,203Z" fill="#3b49a9" stroke="#3b49a9" stroke-width="1.51"></path><path d="M131,-86L250,-65L330,-98Z" fill="#6390c9" stroke="#6390c9" stroke-width="1.51"></path><path d="M312,152L312,286L398,250Z" fill="#3b49a9" stroke="#3b49a9" stroke-width="1.51"></path><path d="M357,14L307,116L396,76Z" fill="#4657b2" stroke="#4657b2" stroke-width="1.51"></path><path d="M250,-65L263,-3L330,-98Z" fill="#5e84c4" stroke="#5e84c4" stroke-width="1.51"></path><path d="M257,58L307,116L357,14Z" fill="#495bb5" stroke="#495bb5" stroke-width="1.51"></path><path d="M263,-3L257,58L357,14Z" fill="#5169bb" stroke="#5169bb" stroke-width="1.51"></path><path d="M330,-98L263,-3L357,14Z" fill="#597abf" stroke="#597abf" stroke-width="1.51"></path><path d="M312,152L240,161L312,286Z" fill="#3e4cad" stroke="#3e4cad" stroke-width="1.51"></path><path d="M240,161L236,290L312,286Z" fill="#3d4bab" stroke="#3d4bab" stroke-width="1.51"></path><path d="M307,116L240,161L312,152Z" fill="#4250b0" stroke="#4250b0" stroke-width="1.51"></path><path d="M257,58L240,161L307,116Z" fill="#4452b2" stroke="#4452b2" stroke-width="1.51"></path><path d="M145,248L69,250L236,290Z" fill="#404faf" stroke="#404faf" stroke-width="1.51"></path><path d="M145,248L236,290L240,161Z" fill="#404eae" stroke="#404eae" stroke-width="1.51"></path><path d="M177,114L240,161L257,58Z" fill="#4654b4" stroke="#4654b4" stroke-width="1.51"></path><path d="M172,-6L257,58L263,-3Z" fill="#546ebe" stroke="#546ebe" stroke-width="1.51"></path><path d="M250,-65L172,-6L263,-3Z" fill="#5b7bc2" stroke="#5b7bc2" stroke-width="1.51"></path><path d="M172,-6L177,114L257,58Z" fill="#4e62bb" stroke="#4e62bb" stroke-width="1.51"></path><path d="M131,-86L172,-6L250,-65Z" fill="#6187c7" stroke="#6187c7" stroke-width="1.51"></path><path d="M177,114L119,208L240,161Z" fill="#4553b3" stroke="#4553b3" stroke-width="1.51"></path><path d="M119,208L145,248L240,161Z" fill="#4351b1" stroke="#4351b1" stroke-width="1.51"></path><path d="M51,-3L45,72L172,-6Z" fill="#5e7ec6" stroke="#5e7ec6" stroke-width="1.51"></path><path d="M45,174L119,208L177,114Z" fill="#4b5db8" stroke="#4b5db8" stroke-width="1.51"></path><path d="M45,72L45,174L177,114Z" fill="#5166bc" stroke="#5166bc" stroke-width="1.51"></path><path d="M172,-6L45,72L177,114Z" fill="#5267be" stroke="#5267be" stroke-width="1.51"></path><path d="M131,-86L51,-3L172,-6Z" fill="#6289c9" stroke="#6289c9" stroke-width="1.51"></path><path d="M119,208L69,250L145,248Z" fill="#485ab3" stroke="#485ab3" stroke-width="1.51"></path><path d="M83,-113L51,-3L131,-86Z" fill="#699dd0" stroke="#699dd0" stroke-width="1.51"></path><path d="M45,174L69,250L119,208Z" fill="#4d63b8" stroke="#4d63b8" stroke-width="1.51"></path><path d="M-18,-103L51,-3L83,-113Z" fill="#6facd4" stroke="#6facd4" stroke-width="1.51"></path><path d="M-37,94L45,174L45,72Z" fill="#5a78c2" stroke="#5a78c2" stroke-width="1.51"></path><path d="M-18,27L45,72L51,-3Z" fill="#638aca" stroke="#638aca" stroke-width="1.51"></path><path d="M45,174L-23,252L69,250Z" fill="#536dbb" stroke="#536dbb" stroke-width="1.51"></path><path d="M-56,194L-23,252L45,174Z" fill="#5879bf" stroke="#5879bf" stroke-width="1.51"></path><path d="M-18,-103L-18,27L51,-3Z" fill="#6ca4d2" stroke="#6ca4d2" stroke-width="1.51"></path><path d="M-37,94L-56,194L45,174Z" fill="#5c7dc3" stroke="#5c7dc3" stroke-width="1.51"></path><path d="M-18,27L-37,94L45,72Z" fill="#6186c8" stroke="#6186c8" stroke-width="1.51"></path><path d="M-127,120L-56,194L-37,94Z" fill="#628cc8" stroke="#628cc8" stroke-width="1.51"></path><path d="M-150,22L-37,94L-18,27Z" fill="#6a9ccf" stroke="#6a9ccf" stroke-width="1.51"></path><path d="M-117,-68L-150,22L-18,27Z" fill="#71b6d7" stroke="#71b6d7" stroke-width="1.51"></path><path d="M-117,-68L-18,27L-18,-103Z" fill="#73b9d8" stroke="#73b9d8" stroke-width="1.51"></path><path d="M-56,194L-130,240L-23,252Z" fill="#5d86c3" stroke="#5d86c3" stroke-width="1.51"></path><path d="M-127,120L-114,193L-56,194Z" fill="#6391c9" stroke="#6391c9" stroke-width="1.51"></path><path d="M-150,22L-127,120L-37,94Z" fill="#699acf" stroke="#699acf" stroke-width="1.51"></path><path d="M-114,193L-130,240L-56,194Z" fill="#618fc6" stroke="#618fc6" stroke-width="1.51"></path><path d="M-127,120L-130,240L-114,193Z" fill="#6596ca" stroke="#6596ca" stroke-width="1.51"></path><path d="M-150,22L-130,240L-127,120Z" fill="#699cce" stroke="#699cce" stroke-width="1.51"></path></svg>