<svg width="300" height="176" xmlns="http://www.w3.org/2000/svg"><path d="M-60,266L-121,261L137,293Z" fill="#a162a6" stroke="#a162a6" stroke-width="1.51"></path><path d="M126,-68L238,-67L297,-86Z" fill="#b67cab" stroke="#b67cab" stroke-width="1.51"></path><path d="M-96,-125L126,-68L297,-86Z" fill="#c693ab" stroke="#c693ab" stroke-width="1.51"></path><path d="M399,-69L318,-26L453,19Z" fill="#a061a6" stroke="#a061a6" stroke-width="1.51"></path><path d="M318,-26L398,74L453,19Z" fill="#914ba8" stroke="#914ba8" stroke-width="1.51"></path><path d="M398,74L432,150L453,19Z" fill="#7b2ea8" stroke="#7b2ea8" stroke-width="1.51"></path><path d="M331,238L255,252L453,238Z" fill="#7324a3" stroke="#7324a3" stroke-width="1.51"></path><path d="M255,252L137,293L453,238Z" fill="#7426a4" stroke="#7426a4" stroke-width="1.51"></path><path d="M432,150L331,238L453,238Z" fill="#7224a2" stroke="#7224a2" stroke-width="1.51"></path><path d="M453,19L432,150L453,238Z" fill="#7527a5" stroke="#7527a5" stroke-width="1.51"></path><path d="M300,192L331,238L432,150Z" fill="#7527a5" stroke="#7527a5" stroke-width="1.51"></path><path d="M398,74L329,72L432,150Z" fill="#792ba9" stroke="#792ba9" stroke-width="1.51"></path><path d="M329,72L300,192L432,150Z" fill="#782aa8" stroke="#782aa8" stroke-width="1.51"></path><path d="M318,-26L329,72L398,74Z" fill="#8d45ab" stroke="#8d45ab" stroke-width="1.51"></path><path d="M297,-86L318,-26L399,-69Z" fill="#ad71a7" stroke="#ad71a7" stroke-width="1.51"></path><path d="M318,-26L209,17L329,72Z" fill="#964fac" stroke="#964fac" stroke-width="1.51"></path><path d="M209,17L249,99L329,72Z" fill="#893daf" stroke="#893daf" stroke-width="1.51"></path><path d="M249,99L300,192L329,72Z" fill="#7c2eac" stroke="#7c2eac" stroke-width="1.51"></path><path d="M300,192L255,252L331,238Z" fill="#7627a6" stroke="#7627a6" stroke-width="1.51"></path><path d="M2,-72L50,-63L126,-68Z" fill="#c998ab" stroke="#c998ab" stroke-width="1.51"></path><path d="M-96,-125L2,-72L126,-68Z" fill="#d7b0a7" stroke="#d7b0a7" stroke-width="1.51"></path><path d="M249,99L247,202L300,192Z" fill="#7a2daa" stroke="#7a2daa" stroke-width="1.51"></path><path d="M297,-86L238,-67L318,-26Z" fill="#af73a9" stroke="#af73a9" stroke-width="1.51"></path><path d="M238,-67L209,17L318,-26Z" fill="#a666ac" stroke="#a666ac" stroke-width="1.51"></path><path d="M247,202L255,252L300,192Z" fill="#772aa7" stroke="#772aa7" stroke-width="1.51"></path><path d="M52,261L-60,266L137,293Z" fill="#9450a7" stroke="#9450a7" stroke-width="1.51"></path><path d="M128,204L247,202L249,99Z" fill="#7d2ead" stroke="#7d2ead" stroke-width="1.51"></path><path d="M128,76L128,204L249,99Z" fill="#8133b1" stroke="#8133b1" stroke-width="1.51"></path><path d="M247,202L128,204L255,252Z" fill="#7a2baa" stroke="#7a2baa" stroke-width="1.51"></path><path d="M128,204L137,293L255,252Z" fill="#792ba9" stroke="#792ba9" stroke-width="1.51"></path><path d="M166,7L209,17L238,-67Z" fill="#a462ae" stroke="#a462ae" stroke-width="1.51"></path><path d="M209,17L128,76L249,99Z" fill="#8b3fb2" stroke="#8b3fb2" stroke-width="1.51"></path><path d="M126,-68L166,7L238,-67Z" fill="#ae70ae" stroke="#ae70ae" stroke-width="1.51"></path><path d="M166,7L128,76L209,17Z" fill="#974fb2" stroke="#974fb2" stroke-width="1.51"></path><path d="M73,194L128,204L128,76Z" fill="#8a40af" stroke="#8a40af" stroke-width="1.51"></path><path d="M87,-5L128,76L166,7Z" fill="#9f5ab2" stroke="#9f5ab2" stroke-width="1.51"></path><path d="M126,-68L87,-5L166,7Z" fill="#ae70b0" stroke="#ae70b0" stroke-width="1.51"></path><path d="M73,194L52,261L128,204Z" fill="#8d45ab" stroke="#8d45ab" stroke-width="1.51"></path><path d="M35,93L73,194L128,76Z" fill="#944bb1" stroke="#944bb1" stroke-width="1.51"></path><path d="M128,204L52,261L137,293Z" fill="#863caa" stroke="#863caa" stroke-width="1.51"></path><path d="M50,-63L87,-5L126,-68Z" fill="#bd86ad" stroke="#bd86ad" stroke-width="1.51"></path><path d="M87,-5L35,93L128,76Z" fill="#a05bb2" stroke="#a05bb2" stroke-width="1.51"></path><path d="M35,93L-28,155L73,194Z" fill="#9f5bae" stroke="#9f5bae" stroke-width="1.51"></path><path d="M50,-63L-37,-17L87,-5Z" fill="#c38fac" stroke="#c38fac" stroke-width="1.51"></path><path d="M-37,-17L35,93L87,-5Z" fill="#b67aaf" stroke="#b67aaf" stroke-width="1.51"></path><path d="M-37,-17L-51,59L35,93Z" fill="#b97fae" stroke="#b97fae" stroke-width="1.51"></path><path d="M-28,155L52,261L73,194Z" fill="#9a56ab" stroke="#9a56ab" stroke-width="1.51"></path><path d="M2,-72L-37,-17L50,-63Z" fill="#cea1aa" stroke="#cea1aa" stroke-width="1.51"></path><path d="M-28,155L-60,266L52,261Z" fill="#a363a8" stroke="#a363a8" stroke-width="1.51"></path><path d="M-51,59L-28,155L35,93Z" fill="#ab6baf" stroke="#ab6baf" stroke-width="1.51"></path><path d="M-96,-125L-37,-17L2,-72Z" fill="#dcbaa6" stroke="#dcbaa6" stroke-width="1.51"></path><path d="M-96,-125L-134,-34L-37,-17Z" fill="#e1c2a4" stroke="#e1c2a4" stroke-width="1.51"></path><path d="M-106,167L-60,266L-28,155Z" fill="#b075a8" stroke="#b075a8" stroke-width="1.51"></path><path d="M-51,59L-113,94L-28,155Z" fill="#b57aae" stroke="#b57aae" stroke-width="1.51"></path><path d="M-113,94L-106,167L-28,155Z" fill="#b77eab" stroke="#b77eab" stroke-width="1.51"></path><path d="M-106,167L-121,261L-60,266Z" fill="#b47da5" stroke="#b47da5" stroke-width="1.51"></path><path d="M-134,-34L-51,59L-37,-17Z" fill="#cfa3aa" stroke="#cfa3aa" stroke-width="1.51"></path><path d="M-134,-34L-113,94L-51,59Z" fill="#ca9baa" stroke="#ca9baa" stroke-width="1.51"></path><path d="M-113,94L-121,261L-106,167Z" fill="#bb85a8" stroke="#bb85a8" stroke-width="1.51"></path><path d="M-134,-34L-121,261L-113,94Z" fill="#c18cab" stroke="#c18cab" stroke-width="1.51"></path></svg>