<svg width="300" height="176" xmlns="http://www.w3.org/2000/svg"><path d="M133,100L156,5L91,79Z" fill="#944ab3" stroke="#944ab3" stroke-width="1.51"></path><path d="M156,5L52,14L91,79Z" fill="#a360b1" stroke="#a360b1" stroke-width="1.51"></path><path d="M133,100L222,99L156,5Z" fill="#8a3eb3" stroke="#8a3eb3" stroke-width="1.51"></path><path d="M133,100L175,147L222,99Z" fill="#8133b1" stroke="#8133b1" stroke-width="1.51"></path><path d="M30,197L175,147L133,100Z" fill="#8a3fb0" stroke="#8a3fb0" stroke-width="1.51"></path><path d="M156,5L89,-95L52,14Z" fill="#b579af" stroke="#b579af" stroke-width="1.51"></path><path d="M222,99L234,-13L156,5Z" fill="#974fb0" stroke="#974fb0" stroke-width="1.51"></path><path d="M234,-13L159,-96L156,5Z" fill="#ab6cae" stroke="#ab6cae" stroke-width="1.51"></path><path d="M159,-96L89,-95L156,5Z" fill="#b87eae" stroke="#b87eae" stroke-width="1.51"></path><path d="M222,99L302,1L234,-13Z" fill="#954dae" stroke="#954dae" stroke-width="1.51"></path><path d="M175,147L216,203L222,99Z" fill="#7e30ae" stroke="#7e30ae" stroke-width="1.51"></path><path d="M152,284L216,203L175,147Z" fill="#7b2dab" stroke="#7b2dab" stroke-width="1.51"></path><path d="M91,79L30,197L133,100Z" fill="#934ab1" stroke="#934ab1" stroke-width="1.51"></path><path d="M52,14L-38,95L91,79Z" fill="#a867b1" stroke="#a867b1" stroke-width="1.51"></path><path d="M-51,-33L-38,95L52,14Z" fill="#bd86ad" stroke="#bd86ad" stroke-width="1.51"></path><path d="M234,-13L271,-69L159,-96Z" fill="#b276ac" stroke="#b276ac" stroke-width="1.51"></path><path d="M325,89L302,1L222,99Z" fill="#883cae" stroke="#883cae" stroke-width="1.51"></path><path d="M-38,95L30,197L91,79Z" fill="#a05caf" stroke="#a05caf" stroke-width="1.51"></path><path d="M302,1L271,-69L234,-13Z" fill="#a666ab" stroke="#a666ab" stroke-width="1.51"></path><path d="M355,157L325,89L222,99Z" fill="#7c2eac" stroke="#7c2eac" stroke-width="1.51"></path><path d="M89,-95L-51,-33L52,14Z" fill="#c694ac" stroke="#c694ac" stroke-width="1.51"></path><path d="M-38,95L-20,196L30,197Z" fill="#a666ac" stroke="#a666ac" stroke-width="1.51"></path><path d="M30,197L61,269L175,147Z" fill="#8d44ac" stroke="#8d44ac" stroke-width="1.51"></path><path d="M-38,234L61,269L30,197Z" fill="#9c59a9" stroke="#9c59a9" stroke-width="1.51"></path><path d="M61,269L152,284L175,147Z" fill="#8135ab" stroke="#8135ab" stroke-width="1.51"></path><path d="M216,203L355,157L222,99Z" fill="#7c2dab" stroke="#7c2dab" stroke-width="1.51"></path><path d="M152,284L272,249L216,203Z" fill="#782aa8" stroke="#782aa8" stroke-width="1.51"></path><path d="M-114,24L-113,55L-38,95Z" fill="#c390ac" stroke="#c390ac" stroke-width="1.51"></path><path d="M-38,95L-102,147L-20,196Z" fill="#b075ab" stroke="#b075ab" stroke-width="1.51"></path><path d="M-51,-33L-114,24L-38,95Z" fill="#c796ab" stroke="#c796ab" stroke-width="1.51"></path><path d="M272,249L355,157L216,203Z" fill="#782aa8" stroke="#782aa8" stroke-width="1.51"></path><path d="M416,-94L352,-124L302,1Z" fill="#b076a6" stroke="#b076a6" stroke-width="1.51"></path><path d="M-102,147L-38,234L-20,196Z" fill="#ae72a9" stroke="#ae72a9" stroke-width="1.51"></path><path d="M-20,196L-38,234L30,197Z" fill="#a463a9" stroke="#a463a9" stroke-width="1.51"></path><path d="M-51,-33L-137,-97L-114,24Z" fill="#debca5" stroke="#debca5" stroke-width="1.51"></path><path d="M89,-95L-59,-116L-51,-33Z" fill="#d8b3a7" stroke="#d8b3a7" stroke-width="1.51"></path><path d="M159,-96L-59,-116L89,-95Z" fill="#d1a6a9" stroke="#d1a6a9" stroke-width="1.51"></path><path d="M-113,55L-102,147L-38,95Z" fill="#b980ad" stroke="#b980ad" stroke-width="1.51"></path><path d="M302,1L352,-124L271,-69Z" fill="#af74a8" stroke="#af74a8" stroke-width="1.51"></path><path d="M271,-69L352,-124L159,-96Z" fill="#ba84a8" stroke="#ba84a8" stroke-width="1.51"></path><path d="M159,-96L352,-124L-59,-116Z" fill="#c38fac" stroke="#c38fac" stroke-width="1.51"></path><path d="M416,-94L302,1L450,24Z" fill="#9f60a7" stroke="#9f60a7" stroke-width="1.51"></path><path d="M152,284L337,255L272,249Z" fill="#7527a5" stroke="#7527a5" stroke-width="1.51"></path><path d="M272,249L337,255L355,157Z" fill="#7527a5" stroke="#7527a5" stroke-width="1.51"></path><path d="M447,238L415,154L355,157Z" fill="#7425a4" stroke="#7425a4" stroke-width="1.51"></path><path d="M355,157L415,154L325,89Z" fill="#782aa8" stroke="#782aa8" stroke-width="1.51"></path><path d="M-59,-116L-137,-97L-51,-33Z" fill="#e6cba3" stroke="#e6cba3" stroke-width="1.51"></path><path d="M-114,24L-137,-97L-113,55Z" fill="#dab6a6" stroke="#dab6a6" stroke-width="1.51"></path><path d="M-113,55L-105,250L-102,147Z" fill="#bb85a9" stroke="#bb85a9" stroke-width="1.51"></path><path d="M-137,-97L-105,250L-113,55Z" fill="#c594ac" stroke="#c594ac" stroke-width="1.51"></path><path d="M-102,147L-105,250L-38,234Z" fill="#b27aa7" stroke="#b27aa7" stroke-width="1.51"></path><path d="M-38,234L-105,250L61,269Z" fill="#a567a6" stroke="#a567a6" stroke-width="1.51"></path><path d="M61,269L-105,250L152,284Z" fill="#9652a7" stroke="#9652a7" stroke-width="1.51"></path><path d="M450,24L302,1L325,89Z" fill="#8d46aa" stroke="#8d46aa" stroke-width="1.51"></path><path d="M451,113L450,24L325,89Z" fill="#7e32a9" stroke="#7e32a9" stroke-width="1.51"></path><path d="M415,154L451,113L325,89Z" fill="#782aa8" stroke="#782aa8" stroke-width="1.51"></path><path d="M447,238L451,113L415,154Z" fill="#7325a3" stroke="#7325a3" stroke-width="1.51"></path><path d="M337,255L447,238L355,157Z" fill="#7325a3" stroke="#7325a3" stroke-width="1.51"></path><path d="M152,284L447,238L337,255Z" fill="#7325a3" stroke="#7325a3" stroke-width="1.51"></path></svg>