<svg width="300" height="176" xmlns="http://www.w3.org/2000/svg"><path d="M119,83L92,84L140,149Z" fill="#8c40b3" stroke="#8c40b3" stroke-width="1.51"></path><path d="M92,84L43,210L140,149Z" fill="#9046af" stroke="#9046af" stroke-width="1.51"></path><path d="M3,117L43,210L92,84Z" fill="#9b56af" stroke="#9b56af" stroke-width="1.51"></path><path d="M257,106L179,4L119,83Z" fill="#8b3fb2" stroke="#8b3fb2" stroke-width="1.51"></path><path d="M119,83L67,-27L92,84Z" fill="#a15cb1" stroke="#a15cb1" stroke-width="1.51"></path><path d="M92,84L67,-27L3,117Z" fill="#a563b1" stroke="#a563b1" stroke-width="1.51"></path><path d="M233,209L257,106L140,149Z" fill="#7d2fad" stroke="#7d2fad" stroke-width="1.51"></path><path d="M140,149L257,106L119,83Z" fill="#8133b1" stroke="#8133b1" stroke-width="1.51"></path><path d="M116,288L233,209L140,149Z" fill="#7c2eac" stroke="#7c2eac" stroke-width="1.51"></path><path d="M179,4L67,-27L119,83Z" fill="#a35eb1" stroke="#a35eb1" stroke-width="1.51"></path><path d="M3,117L-30,205L43,210Z" fill="#a260ac" stroke="#a260ac" stroke-width="1.51"></path><path d="M91,299L116,288L43,210Z" fill="#8b43a8" stroke="#8b43a8" stroke-width="1.51"></path><path d="M43,210L116,288L140,149Z" fill="#8940ac" stroke="#8940ac" stroke-width="1.51"></path><path d="M-35,254L91,299L43,210Z" fill="#9754a8" stroke="#9754a8" stroke-width="1.51"></path><path d="M-30,205L-35,254L43,210Z" fill="#a262a9" stroke="#a262a9" stroke-width="1.51"></path><path d="M3,117L-96,161L-30,205Z" fill="#ad70ab" stroke="#ad70ab" stroke-width="1.51"></path><path d="M-30,205L-96,161L-35,254Z" fill="#ad71a8" stroke="#ad71a8" stroke-width="1.51"></path><path d="M67,-27L-46,-11L3,117Z" fill="#b97fae" stroke="#b97fae" stroke-width="1.51"></path><path d="M67,-27L-56,-126L-46,-11Z" fill="#d2a8a8" stroke="#d2a8a8" stroke-width="1.51"></path><path d="M179,4L90,-81L67,-27Z" fill="#b579ae" stroke="#b579ae" stroke-width="1.51"></path><path d="M-138,107L-96,161L3,117Z" fill="#b67dab" stroke="#b67dab" stroke-width="1.51"></path><path d="M358,65L323,5L257,106Z" fill="#883dac" stroke="#883dac" stroke-width="1.51"></path><path d="M116,288L231,293L233,209Z" fill="#782aa8" stroke="#782aa8" stroke-width="1.51"></path><path d="M91,299L231,293L116,288Z" fill="#792ba8" stroke="#792ba8" stroke-width="1.51"></path><path d="M234,-79L124,-98L179,4Z" fill="#b377ae" stroke="#b377ae" stroke-width="1.51"></path><path d="M179,4L124,-98L90,-81Z" fill="#b87eae" stroke="#b87eae" stroke-width="1.51"></path><path d="M257,106L272,-36L179,4Z" fill="#9750af" stroke="#9750af" stroke-width="1.51"></path><path d="M272,-36L234,-79L179,4Z" fill="#aa6cac" stroke="#aa6cac" stroke-width="1.51"></path><path d="M-46,-11L-138,107L3,117Z" fill="#ba81ae" stroke="#ba81ae" stroke-width="1.51"></path><path d="M-96,161L-109,297L-35,254Z" fill="#b178a6" stroke="#b178a6" stroke-width="1.51"></path><path d="M272,-36L312,-70L234,-79Z" fill="#b075aa" stroke="#b075aa" stroke-width="1.51"></path><path d="M257,106L323,5L272,-36Z" fill="#954ead" stroke="#954ead" stroke-width="1.51"></path><path d="M361,148L257,106L233,209Z" fill="#7b2caa" stroke="#7b2caa" stroke-width="1.51"></path><path d="M319,293L361,148L233,209Z" fill="#7628a6" stroke="#7628a6" stroke-width="1.51"></path><path d="M361,148L358,65L257,106Z" fill="#7b2dab" stroke="#7b2dab" stroke-width="1.51"></path><path d="M-46,-11L-107,-32L-138,107Z" fill="#cea2a9" stroke="#cea2a9" stroke-width="1.51"></path><path d="M-56,-126L-107,-32L-46,-11Z" fill="#ddbba5" stroke="#ddbba5" stroke-width="1.51"></path><path d="M-56,-126L67,-27L90,-81Z" fill="#d0a4a9" stroke="#d0a4a9" stroke-width="1.51"></path><path d="M91,299L319,293L231,293Z" fill="#7527a5" stroke="#7527a5" stroke-width="1.51"></path><path d="M231,293L319,293L233,209Z" fill="#7527a5" stroke="#7527a5" stroke-width="1.51"></path><path d="M-138,107L-109,297L-96,161Z" fill="#ba85a7" stroke="#ba85a7" stroke-width="1.51"></path><path d="M-35,254L-109,297L91,299Z" fill="#a162a5" stroke="#a162a5" stroke-width="1.51"></path><path d="M412,13L312,-70L323,5Z" fill="#a05fa8" stroke="#a05fa8" stroke-width="1.51"></path><path d="M323,5L312,-70L272,-36Z" fill="#a667a9" stroke="#a667a9" stroke-width="1.51"></path><path d="M234,-79L442,-75L124,-98Z" fill="#b67ea9" stroke="#b67ea9" stroke-width="1.51"></path><path d="M442,-75L-56,-126L124,-98Z" fill="#bf89ac" stroke="#bf89ac" stroke-width="1.51"></path><path d="M124,-98L-56,-126L90,-81Z" fill="#d3a9a8" stroke="#d3a9a8" stroke-width="1.51"></path><path d="M-56,-126L-123,-78L-107,-32Z" fill="#e7cda2" stroke="#e7cda2" stroke-width="1.51"></path><path d="M-107,-32L-123,-78L-138,107Z" fill="#d9b4a6" stroke="#d9b4a6" stroke-width="1.51"></path><path d="M397,256L417,187L361,148Z" fill="#7325a3" stroke="#7325a3" stroke-width="1.51"></path><path d="M361,148L438,76L358,65Z" fill="#7a2ba9" stroke="#7a2ba9" stroke-width="1.51"></path><path d="M358,65L412,13L323,5Z" fill="#904aa9" stroke="#904aa9" stroke-width="1.51"></path><path d="M319,293L397,256L361,148Z" fill="#7325a3" stroke="#7325a3" stroke-width="1.51"></path><path d="M438,76L412,13L358,65Z" fill="#873ea9" stroke="#873ea9" stroke-width="1.51"></path><path d="M417,187L438,76L361,148Z" fill="#7628a6" stroke="#7628a6" stroke-width="1.51"></path><path d="M438,76L442,-75L412,13Z" fill="#9552a6" stroke="#9552a6" stroke-width="1.51"></path><path d="M412,13L442,-75L312,-70Z" fill="#a669a6" stroke="#a669a6" stroke-width="1.51"></path><path d="M312,-70L442,-75L234,-79Z" fill="#b178a7" stroke="#b178a7" stroke-width="1.51"></path></svg>