<svg width="300" height="176" xmlns="http://www.w3.org/2000/svg"><path d="M165,293L-63,285L208,299Z" fill="#7f32ad" stroke="#7f32ad" stroke-width="1.51"></path><path d="M-63,285L-120,287L208,299Z" fill="#8f41b9" stroke="#8f41b9" stroke-width="1.51"></path><path d="M84,-113L240,-72L343,-99Z" fill="#aa5bcf" stroke="#aa5bcf" stroke-width="1.51"></path><path d="M400,187L400,242L417,88Z" fill="#7426a4" stroke="#7426a4" stroke-width="1.51"></path><path d="M343,-99L400,28L434,-92Z" fill="#9a4cc1" stroke="#9a4cc1" stroke-width="1.51"></path><path d="M400,28L417,88L434,-92Z" fill="#8b3db6" stroke="#8b3db6" stroke-width="1.51"></path><path d="M323,78L340,202L400,187Z" fill="#772aa7" stroke="#772aa7" stroke-width="1.51"></path><path d="M343,-99L304,22L400,28Z" fill="#9345bc" stroke="#9345bc" stroke-width="1.51"></path><path d="M400,28L323,78L417,88Z" fill="#7f31ae" stroke="#7f31ae" stroke-width="1.51"></path><path d="M323,78L400,187L417,88Z" fill="#792aa9" stroke="#792aa9" stroke-width="1.51"></path><path d="M304,22L323,78L400,28Z" fill="#8638b3" stroke="#8638b3" stroke-width="1.51"></path><path d="M400,187L340,202L400,242Z" fill="#7325a3" stroke="#7325a3" stroke-width="1.51"></path><path d="M340,202L301,285L400,242Z" fill="#7324a3" stroke="#7324a3" stroke-width="1.51"></path><path d="M323,78L237,174L340,202Z" fill="#7a2caa" stroke="#7a2caa" stroke-width="1.51"></path><path d="M237,174L301,285L340,202Z" fill="#7728a6" stroke="#7728a6" stroke-width="1.51"></path><path d="M240,-72L304,22L343,-99Z" fill="#9d4fc5" stroke="#9d4fc5" stroke-width="1.51"></path><path d="M240,-72L234,18L304,22Z" fill="#9547c0" stroke="#9547c0" stroke-width="1.51"></path><path d="M207,98L237,174L323,78Z" fill="#7e30ae" stroke="#7e30ae" stroke-width="1.51"></path><path d="M304,22L234,18L323,78Z" fill="#893bb6" stroke="#893bb6" stroke-width="1.51"></path><path d="M234,18L207,98L323,78Z" fill="#8437b3" stroke="#8437b3" stroke-width="1.51"></path><path d="M84,-113L156,-64L240,-72Z" fill="#aa5bd0" stroke="#aa5bd0" stroke-width="1.51"></path><path d="M237,174L208,299L301,285Z" fill="#7628a6" stroke="#7628a6" stroke-width="1.51"></path><path d="M158,94L207,98L234,18Z" fill="#8637b5" stroke="#8637b5" stroke-width="1.51"></path><path d="M207,98L137,189L237,174Z" fill="#7e30ae" stroke="#7e30ae" stroke-width="1.51"></path><path d="M165,293L208,299L237,174Z" fill="#782aa8" stroke="#782aa8" stroke-width="1.51"></path><path d="M137,189L165,293L237,174Z" fill="#7b2dab" stroke="#7b2dab" stroke-width="1.51"></path><path d="M157,-33L234,18L240,-72Z" fill="#9b4dc5" stroke="#9b4dc5" stroke-width="1.51"></path><path d="M156,-64L157,-33L240,-72Z" fill="#a354ca" stroke="#a354ca" stroke-width="1.51"></path><path d="M46,251L-63,285L165,293Z" fill="#893bb5" stroke="#893bb5" stroke-width="1.51"></path><path d="M158,94L137,189L207,98Z" fill="#8133b1" stroke="#8133b1" stroke-width="1.51"></path><path d="M157,-33L158,94L234,18Z" fill="#9142bc" stroke="#9142bc" stroke-width="1.51"></path><path d="M45,-4L59,72L157,-33Z" fill="#9f50c8" stroke="#9f50c8" stroke-width="1.51"></path><path d="M51,167L137,189L158,94Z" fill="#8637b4" stroke="#8637b4" stroke-width="1.51"></path><path d="M157,-33L59,72L158,94Z" fill="#9243be" stroke="#9243be" stroke-width="1.51"></path><path d="M137,189L46,251L165,293Z" fill="#8032af" stroke="#8032af" stroke-width="1.51"></path><path d="M-133,-69L-26,-61L84,-113Z" fill="#c677e4" stroke="#c677e4" stroke-width="1.51"></path><path d="M156,-64L45,-4L157,-33Z" fill="#a456cb" stroke="#a456cb" stroke-width="1.51"></path><path d="M59,72L51,167L158,94Z" fill="#8c3eb9" stroke="#8c3eb9" stroke-width="1.51"></path><path d="M84,-113L45,-4L156,-64Z" fill="#ae5fd3" stroke="#ae5fd3" stroke-width="1.51"></path><path d="M51,167L46,251L137,189Z" fill="#893ab6" stroke="#893ab6" stroke-width="1.51"></path><path d="M1,204L46,251L51,167Z" fill="#9042bb" stroke="#9042bb" stroke-width="1.51"></path><path d="M-12,115L51,167L59,72Z" fill="#9547c0" stroke="#9547c0" stroke-width="1.51"></path><path d="M-26,-61L45,-4L84,-113Z" fill="#b768da" stroke="#b768da" stroke-width="1.51"></path><path d="M45,-4L-30,31L59,72Z" fill="#a556cb" stroke="#a556cb" stroke-width="1.51"></path><path d="M-30,31L-12,115L59,72Z" fill="#9f50c7" stroke="#9f50c7" stroke-width="1.51"></path><path d="M-12,115L1,204L51,167Z" fill="#9547bf" stroke="#9547bf" stroke-width="1.51"></path><path d="M1,204L-63,285L46,251Z" fill="#9446bd" stroke="#9446bd" stroke-width="1.51"></path><path d="M-26,-61L-30,31L45,-4Z" fill="#b264d6" stroke="#b264d6" stroke-width="1.51"></path><path d="M-12,115L-121,180L1,204Z" fill="#9e50c6" stroke="#9e50c6" stroke-width="1.51"></path><path d="M-121,180L-63,285L1,204Z" fill="#9d50c5" stroke="#9d50c5" stroke-width="1.51"></path><path d="M-126,26L-30,31L-26,-61Z" fill="#b96adb" stroke="#b96adb" stroke-width="1.51"></path><path d="M-30,31L-135,118L-12,115Z" fill="#a657cc" stroke="#a657cc" stroke-width="1.51"></path><path d="M-135,118L-121,180L-12,115Z" fill="#a759cd" stroke="#a759cd" stroke-width="1.51"></path><path d="M-126,26L-135,118L-30,31Z" fill="#b263d6" stroke="#b263d6" stroke-width="1.51"></path><path d="M-133,-69L-126,26L-26,-61Z" fill="#c677e5" stroke="#c677e5" stroke-width="1.51"></path><path d="M-121,180L-120,287L-63,285Z" fill="#a255c8" stroke="#a255c8" stroke-width="1.51"></path><path d="M-121,180L-135,118L-120,287Z" fill="#aa5bce" stroke="#aa5bce" stroke-width="1.51"></path><path d="M-133,-69L-135,118L-126,26Z" fill="#bf70e0" stroke="#bf70e0" stroke-width="1.51"></path></svg>