<svg width="300" height="176" xmlns="http://www.w3.org/2000/svg"><path d="M155,70L159,0L59,-7Z" fill="#a15db1" stroke="#a15db1" stroke-width="1.51"></path><path d="M59,-7L39,96L155,70Z" fill="#a15cb2" stroke="#a15cb2" stroke-width="1.51"></path><path d="M39,96L119,154L155,70Z" fill="#8f44b2" stroke="#8f44b2" stroke-width="1.51"></path><path d="M59,-7L-23,4L39,96Z" fill="#b478af" stroke="#b478af" stroke-width="1.51"></path><path d="M159,0L91,-121L59,-7Z" fill="#b980ae" stroke="#b980ae" stroke-width="1.51"></path><path d="M59,-7L-55,-123L-23,4Z" fill="#cea1aa" stroke="#cea1aa" stroke-width="1.51"></path><path d="M243,-65L169,-107L159,0Z" fill="#b276ad" stroke="#b276ad" stroke-width="1.51"></path><path d="M169,-107L91,-121L159,0Z" fill="#bb82ae" stroke="#bb82ae" stroke-width="1.51"></path><path d="M155,70L272,26L159,0Z" fill="#964eb0" stroke="#964eb0" stroke-width="1.51"></path><path d="M269,103L272,26L155,70Z" fill="#893db0" stroke="#893db0" stroke-width="1.51"></path><path d="M272,26L243,-65L159,0Z" fill="#a461ae" stroke="#a461ae" stroke-width="1.51"></path><path d="M39,96L54,199L119,154Z" fill="#954daf" stroke="#954daf" stroke-width="1.51"></path><path d="M-23,4L-56,79L39,96Z" fill="#b477af" stroke="#b477af" stroke-width="1.51"></path><path d="M-57,156L54,199L39,96Z" fill="#a260ad" stroke="#a260ad" stroke-width="1.51"></path><path d="M234,173L155,70L119,154Z" fill="#8032b0" stroke="#8032b0" stroke-width="1.51"></path><path d="M234,173L269,103L155,70Z" fill="#7f31af" stroke="#7f31af" stroke-width="1.51"></path><path d="M159,250L234,173L119,154Z" fill="#7d2ead" stroke="#7d2ead" stroke-width="1.51"></path><path d="M272,26L301,-2L243,-65Z" fill="#a260ac" stroke="#a260ac" stroke-width="1.51"></path><path d="M318,82L301,-2L272,26Z" fill="#9149ad" stroke="#9149ad" stroke-width="1.51"></path><path d="M-56,79L-57,156L39,96Z" fill="#ac6dae" stroke="#ac6dae" stroke-width="1.51"></path><path d="M269,103L318,82L272,26Z" fill="#8538ae" stroke="#8538ae" stroke-width="1.51"></path><path d="M327,190L318,82L269,103Z" fill="#7b2dab" stroke="#7b2dab" stroke-width="1.51"></path><path d="M-56,79L-96,121L-57,156Z" fill="#b57bac" stroke="#b57bac" stroke-width="1.51"></path><path d="M-145,-7L-96,121L-56,79Z" fill="#c490ac" stroke="#c490ac" stroke-width="1.51"></path><path d="M-23,4L-145,-7L-56,79Z" fill="#c999ab" stroke="#c999ab" stroke-width="1.51"></path><path d="M91,-121L-55,-123L59,-7Z" fill="#d2a8a9" stroke="#d2a8a9" stroke-width="1.51"></path><path d="M54,199L159,250L119,154Z" fill="#883dad" stroke="#883dad" stroke-width="1.51"></path><path d="M76,289L159,250L54,199Z" fill="#893faa" stroke="#893faa" stroke-width="1.51"></path><path d="M-55,-123L-145,-7L-23,4Z" fill="#dbb6a6" stroke="#dbb6a6" stroke-width="1.51"></path><path d="M-16,273L54,199L-57,156Z" fill="#a362aa" stroke="#a362aa" stroke-width="1.51"></path><path d="M-16,273L76,289L54,199Z" fill="#9652a8" stroke="#9652a8" stroke-width="1.51"></path><path d="M-95,235L-16,273L-57,156Z" fill="#ad71a7" stroke="#ad71a7" stroke-width="1.51"></path><path d="M234,173L327,190L269,103Z" fill="#7a2daa" stroke="#7a2daa" stroke-width="1.51"></path><path d="M246,283L327,190L234,173Z" fill="#772aa7" stroke="#772aa7" stroke-width="1.51"></path><path d="M246,283L234,173L159,250Z" fill="#792aa9" stroke="#792aa9" stroke-width="1.51"></path><path d="M301,-2L346,-114L243,-65Z" fill="#af73a9" stroke="#af73a9" stroke-width="1.51"></path><path d="M243,-65L346,-114L169,-107Z" fill="#ba84a8" stroke="#ba84a8" stroke-width="1.51"></path><path d="M169,-107L346,-114L91,-121Z" fill="#c28eaa" stroke="#c28eaa" stroke-width="1.51"></path><path d="M420,16L346,-114L301,-2Z" fill="#a465a7" stroke="#a465a7" stroke-width="1.51"></path><path d="M420,16L301,-2L318,82Z" fill="#9049aa" stroke="#9049aa" stroke-width="1.51"></path><path d="M-55,-123L-137,-111L-145,-7Z" fill="#ebd3a1" stroke="#ebd3a1" stroke-width="1.51"></path><path d="M-96,121L-142,173L-57,156Z" fill="#b982aa" stroke="#b982aa" stroke-width="1.51"></path><path d="M-145,-7L-142,173L-96,121Z" fill="#c28eab" stroke="#c28eab" stroke-width="1.51"></path><path d="M-142,173L-95,235L-57,156Z" fill="#b780a8" stroke="#b780a8" stroke-width="1.51"></path><path d="M76,289L246,283L159,250Z" fill="#782aa8" stroke="#782aa8" stroke-width="1.51"></path><path d="M437,111L420,16L318,82Z" fill="#8135a9" stroke="#8135a9" stroke-width="1.51"></path><path d="M420,168L437,111L318,82Z" fill="#7829a8" stroke="#7829a8" stroke-width="1.51"></path><path d="M420,168L318,82L327,190Z" fill="#782aa8" stroke="#782aa8" stroke-width="1.51"></path><path d="M444,283L420,168L327,190Z" fill="#7224a2" stroke="#7224a2" stroke-width="1.51"></path><path d="M420,16L448,-65L346,-114Z" fill="#a86ca5" stroke="#a86ca5" stroke-width="1.51"></path><path d="M437,111L448,-65L420,16Z" fill="#904ba6" stroke="#904ba6" stroke-width="1.51"></path><path d="M76,289L345,297L246,283Z" fill="#7527a5" stroke="#7527a5" stroke-width="1.51"></path><path d="M246,283L345,297L327,190Z" fill="#7326a3" stroke="#7326a3" stroke-width="1.51"></path><path d="M345,297L444,283L327,190Z" fill="#7122a1" stroke="#7122a1" stroke-width="1.51"></path><path d="M420,168L444,283L437,111Z" fill="#7224a2" stroke="#7224a2" stroke-width="1.51"></path><path d="M437,111L444,283L448,-65Z" fill="#7628a6" stroke="#7628a6" stroke-width="1.51"></path></svg>