<svg width="300" height="176" xmlns="http://www.w3.org/2000/svg"><path d="M136,101L164,-19L91,65Z" fill="#af70af" stroke="#af70af" stroke-width="1.51"></path><path d="M136,101L222,79L164,-19Z" fill="#a05caf" stroke="#a05caf" stroke-width="1.51"></path><path d="M164,-19L83,-20L91,65Z" fill="#d3a9a8" stroke="#d3a9a8" stroke-width="1.51"></path><path d="M222,79L258,-2L164,-19Z" fill="#b780a8" stroke="#b780a8" stroke-width="1.51"></path><path d="M128,-95L88,-70L164,-19Z" fill="#d3a9a8" stroke="#d3a9a8" stroke-width="1.51"></path><path d="M164,-19L88,-70L83,-20Z" fill="#d9b3a7" stroke="#d9b3a7" stroke-width="1.51"></path><path d="M136,101L252,150L222,79Z" fill="#7c2eac" stroke="#7c2eac" stroke-width="1.51"></path><path d="M91,65L126,170L136,101Z" fill="#9249af" stroke="#9249af" stroke-width="1.51"></path><path d="M258,-2L214,-75L164,-19Z" fill="#c495a5" stroke="#c495a5" stroke-width="1.51"></path><path d="M214,-75L128,-95L164,-19Z" fill="#c899a9" stroke="#c899a9" stroke-width="1.51"></path><path d="M222,79L331,30L258,-2Z" fill="#a669a5" stroke="#a669a5" stroke-width="1.51"></path><path d="M126,170L252,150L136,101Z" fill="#7a2caa" stroke="#7a2caa" stroke-width="1.51"></path><path d="M91,65L46,191L126,170Z" fill="#9c5aa9" stroke="#9c5aa9" stroke-width="1.51"></path><path d="M-45,-13L-4,121L91,65Z" fill="#d9b3a6" stroke="#d9b3a6" stroke-width="1.51"></path><path d="M-45,-13L91,65L83,-20Z" fill="#ebd4a0" stroke="#ebd4a0" stroke-width="1.51"></path><path d="M-4,121L46,191L91,65Z" fill="#b278a9" stroke="#b278a9" stroke-width="1.51"></path><path d="M126,170L155,288L252,150Z" fill="#7426a4" stroke="#7426a4" stroke-width="1.51"></path><path d="M252,150L319,103L222,79Z" fill="#7629a6" stroke="#7629a6" stroke-width="1.51"></path><path d="M319,103L331,30L222,79Z" fill="#883fa7" stroke="#883fa7" stroke-width="1.51"></path><path d="M258,-2L310,-99L214,-75Z" fill="#c091a1" stroke="#c091a1" stroke-width="1.51"></path><path d="M-12,-103L-45,-13L83,-20Z" fill="#fcf898" stroke="#fcf898" stroke-width="1.51"></path><path d="M-12,-103L83,-20L88,-70Z" fill="#eeda9f" stroke="#eeda9f" stroke-width="1.51"></path><path d="M331,30L310,-99L258,-2Z" fill="#bd8e9e" stroke="#bd8e9e" stroke-width="1.51"></path><path d="M214,-75L310,-99L128,-95Z" fill="#c495a5" stroke="#c495a5" stroke-width="1.51"></path><path d="M404,-110L-12,-103L128,-95Z" fill="#c898a9" stroke="#c898a9" stroke-width="1.51"></path><path d="M128,-95L-12,-103L88,-70Z" fill="#e8d0a1" stroke="#e8d0a1" stroke-width="1.51"></path><path d="M-45,264L77,253L46,191Z" fill="#b27da0" stroke="#b27da0" stroke-width="1.51"></path><path d="M46,191L77,253L126,170Z" fill="#9958a4" stroke="#9958a4" stroke-width="1.51"></path><path d="M-4,121L-45,157L46,191Z" fill="#c091a1" stroke="#c091a1" stroke-width="1.51"></path><path d="M-101,61L-45,157L-4,121Z" fill="#c697a7" stroke="#c697a7" stroke-width="1.51"></path><path d="M-45,-13L-101,61L-4,121Z" fill="#dfbea5" stroke="#dfbea5" stroke-width="1.51"></path><path d="M-116,-95L-91,7L-45,-13Z" fill="#fffe96" stroke="#fffe96" stroke-width="1.51"></path><path d="M319,103L387,86L331,30Z" fill="#853ca6" stroke="#853ca6" stroke-width="1.51"></path><path d="M331,30L404,-110L310,-99Z" fill="#bd8e9e" stroke="#bd8e9e" stroke-width="1.51"></path><path d="M363,155L387,86L319,103Z" fill="#7324a3" stroke="#7324a3" stroke-width="1.51"></path><path d="M363,155L319,103L252,150Z" fill="#7021a0" stroke="#7021a0" stroke-width="1.51"></path><path d="M322,277L363,155L252,150Z" fill="#6a1b9a" stroke="#6a1b9a" stroke-width="1.51"></path><path d="M77,253L155,288L126,170Z" fill="#8840a6" stroke="#8840a6" stroke-width="1.51"></path><path d="M-91,7L-101,61L-45,-13Z" fill="#f5e99b" stroke="#f5e99b" stroke-width="1.51"></path><path d="M387,86L399,30L331,30Z" fill="#9958a4" stroke="#9958a4" stroke-width="1.51"></path><path d="M155,288L253,298L252,150Z" fill="#7122a1" stroke="#7122a1" stroke-width="1.51"></path><path d="M-101,61L-106,176L-45,157Z" fill="#c394a4" stroke="#c394a4" stroke-width="1.51"></path><path d="M-45,157L-45,264L46,191Z" fill="#bd8e9e" stroke="#bd8e9e" stroke-width="1.51"></path><path d="M77,253L-45,264L155,288Z" fill="#a366a3" stroke="#a366a3" stroke-width="1.51"></path><path d="M253,298L322,277L252,150Z" fill="#6c1e9c" stroke="#6c1e9c" stroke-width="1.51"></path><path d="M363,155L436,188L387,86Z" fill="#6f209f" stroke="#6f209f" stroke-width="1.51"></path><path d="M-106,176L-45,264L-45,157Z" fill="#bd8e9e" stroke="#bd8e9e" stroke-width="1.51"></path><path d="M-91,7L-116,-95L-101,61Z" fill="#fffe96" stroke="#fffe96" stroke-width="1.51"></path><path d="M-101,61L-116,-95L-106,176Z" fill="#e4c8a3" stroke="#e4c8a3" stroke-width="1.51"></path><path d="M-12,-103L-116,-95L-45,-13Z" fill="#fffe96" stroke="#fffe96" stroke-width="1.51"></path><path d="M399,30L404,-110L331,30Z" fill="#bd8e9e" stroke="#bd8e9e" stroke-width="1.51"></path><path d="M310,-99L404,-110L128,-95Z" fill="#be909f" stroke="#be909f" stroke-width="1.51"></path><path d="M433,256L436,188L363,155Z" fill="#6a1b9a" stroke="#6a1b9a" stroke-width="1.51"></path><path d="M387,86L436,188L399,30Z" fill="#7526a5" stroke="#7526a5" stroke-width="1.51"></path><path d="M399,30L436,188L404,-110Z" fill="#a366a3" stroke="#a366a3" stroke-width="1.51"></path><path d="M-106,176L-104,267L-45,264Z" fill="#bd8e9e" stroke="#bd8e9e" stroke-width="1.51"></path><path d="M-45,264L-104,267L155,288Z" fill="#bc8d9e" stroke="#bc8d9e" stroke-width="1.51"></path><path d="M155,288L-104,267L253,298Z" fill="#914ca5" stroke="#914ca5" stroke-width="1.51"></path><path d="M-116,-95L-104,267L-106,176Z" fill="#c696a7" stroke="#c696a7" stroke-width="1.51"></path><path d="M322,277L433,256L363,155Z" fill="#6a1b9a" stroke="#6a1b9a" stroke-width="1.51"></path><path d="M253,298L433,256L322,277Z" fill="#6a1b9a" stroke="#6a1b9a" stroke-width="1.51"></path></svg>