<svg width="300" height="176" xmlns="http://www.w3.org/2000/svg"><path d="M126,91L149,-3L48,-5Z" fill="#c897ab" stroke="#c897ab" stroke-width="1.51"></path><path d="M48,-5L31,62L126,91Z" fill="#c998ab" stroke="#c998ab" stroke-width="1.51"></path><path d="M149,-3L67,-75L48,-5Z" fill="#e1c3a4" stroke="#e1c3a4" stroke-width="1.51"></path><path d="M48,-5L-26,-4L31,62Z" fill="#f0dd9e" stroke="#f0dd9e" stroke-width="1.51"></path><path d="M67,-75L-26,-4L48,-5Z" fill="#f5ea9b" stroke="#f5ea9b" stroke-width="1.51"></path><path d="M149,-3L181,-83L67,-75Z" fill="#d1a5a9" stroke="#d1a5a9" stroke-width="1.51"></path><path d="M258,-61L181,-83L149,-3Z" fill="#c696a7" stroke="#c696a7" stroke-width="1.51"></path><path d="M79,200L181,177L126,91Z" fill="#863ba9" stroke="#863ba9" stroke-width="1.51"></path><path d="M-26,-4L-47,56L31,62Z" fill="#ead2a1" stroke="#ead2a1" stroke-width="1.51"></path><path d="M126,91L259,99L149,-3Z" fill="#9952af" stroke="#9952af" stroke-width="1.51"></path><path d="M79,200L126,91L31,62Z" fill="#a463ac" stroke="#a463ac" stroke-width="1.51"></path><path d="M-21,197L79,200L31,62Z" fill="#b47ea4" stroke="#b47ea4" stroke-width="1.51"></path><path d="M236,156L259,99L126,91Z" fill="#7b2cab" stroke="#7b2cab" stroke-width="1.51"></path><path d="M259,99L270,-19L149,-3Z" fill="#b177a8" stroke="#b177a8" stroke-width="1.51"></path><path d="M181,177L236,156L126,91Z" fill="#792ba9" stroke="#792ba9" stroke-width="1.51"></path><path d="M270,-19L258,-61L149,-3Z" fill="#c394a4" stroke="#c394a4" stroke-width="1.51"></path><path d="M-26,-4L-107,9L-47,56Z" fill="#f4e69c" stroke="#f4e69c" stroke-width="1.51"></path><path d="M67,-75L-24,-107L-26,-4Z" fill="#fdfa97" stroke="#fdfa97" stroke-width="1.51"></path><path d="M181,-83L-24,-107L67,-75Z" fill="#e6cca2" stroke="#e6cca2" stroke-width="1.51"></path><path d="M-47,56L-21,197L31,62Z" fill="#c798a8" stroke="#c798a8" stroke-width="1.51"></path><path d="M-24,-107L-107,9L-26,-4Z" fill="#fffe96" stroke="#fffe96" stroke-width="1.51"></path><path d="M-47,56L-89,146L-21,197Z" fill="#c394a4" stroke="#c394a4" stroke-width="1.51"></path><path d="M-107,9L-98,113L-47,56Z" fill="#dcbaa6" stroke="#dcbaa6" stroke-width="1.51"></path><path d="M259,99L307,-21L270,-19Z" fill="#b17aa3" stroke="#b17aa3" stroke-width="1.51"></path><path d="M270,-19L307,-21L258,-61Z" fill="#bf90a0" stroke="#bf90a0" stroke-width="1.51"></path><path d="M259,99L300,112L307,-21Z" fill="#8e48a6" stroke="#8e48a6" stroke-width="1.51"></path><path d="M236,156L300,112L259,99Z" fill="#7526a5" stroke="#7526a5" stroke-width="1.51"></path><path d="M-98,113L-89,146L-47,56Z" fill="#c798a8" stroke="#c798a8" stroke-width="1.51"></path><path d="M79,200L142,267L181,177Z" fill="#8035a6" stroke="#8035a6" stroke-width="1.51"></path><path d="M181,177L232,289L236,156Z" fill="#7123a1" stroke="#7123a1" stroke-width="1.51"></path><path d="M361,211L389,159L300,112Z" fill="#6d1e9c" stroke="#6d1e9c" stroke-width="1.51"></path><path d="M32,286L142,267L79,200Z" fill="#9957a4" stroke="#9957a4" stroke-width="1.51"></path><path d="M307,-21L304,-91L258,-61Z" fill="#be8f9f" stroke="#be8f9f" stroke-width="1.51"></path><path d="M258,-61L304,-91L181,-83Z" fill="#c192a2" stroke="#c192a2" stroke-width="1.51"></path><path d="M181,-83L396,-121L-24,-107Z" fill="#c797a8" stroke="#c797a8" stroke-width="1.51"></path><path d="M-21,197L32,286L79,200Z" fill="#b17ba0" stroke="#b17ba0" stroke-width="1.51"></path><path d="M-89,146L-54,236L-21,197Z" fill="#bd8e9e" stroke="#bd8e9e" stroke-width="1.51"></path><path d="M-54,236L32,286L-21,197Z" fill="#bd8e9e" stroke="#bd8e9e" stroke-width="1.51"></path><path d="M-107,9L-150,-91L-98,113Z" fill="#faf299" stroke="#faf299" stroke-width="1.51"></path><path d="M-24,-107L-150,-91L-107,9Z" fill="#fffe96" stroke="#fffe96" stroke-width="1.51"></path><path d="M32,286L232,289L142,267Z" fill="#7f34a6" stroke="#7f34a6" stroke-width="1.51"></path><path d="M142,267L232,289L181,177Z" fill="#7425a4" stroke="#7425a4" stroke-width="1.51"></path><path d="M-54,236L-119,237L32,286Z" fill="#bd8e9e" stroke="#bd8e9e" stroke-width="1.51"></path><path d="M-89,146L-119,237L-54,236Z" fill="#bd8e9e" stroke="#bd8e9e" stroke-width="1.51"></path><path d="M-98,113L-119,237L-89,146Z" fill="#be8f9f" stroke="#be8f9f" stroke-width="1.51"></path><path d="M-150,-91L-119,237L-98,113Z" fill="#cb9caa" stroke="#cb9caa" stroke-width="1.51"></path><path d="M307,-21L396,-121L304,-91Z" fill="#bd8e9e" stroke="#bd8e9e" stroke-width="1.51"></path><path d="M300,112L396,27L307,-21Z" fill="#a163a3" stroke="#a163a3" stroke-width="1.51"></path><path d="M417,58L396,27L300,112Z" fill="#8b45a5" stroke="#8b45a5" stroke-width="1.51"></path><path d="M361,211L300,112L236,156Z" fill="#6c1e9c" stroke="#6c1e9c" stroke-width="1.51"></path><path d="M306,282L361,211L236,156Z" fill="#6a1b9a" stroke="#6a1b9a" stroke-width="1.51"></path><path d="M389,159L417,58L300,112Z" fill="#7425a4" stroke="#7425a4" stroke-width="1.51"></path><path d="M232,289L306,282L236,156Z" fill="#6d1f9d" stroke="#6d1f9d" stroke-width="1.51"></path><path d="M396,27L396,-121L307,-21Z" fill="#bd8e9e" stroke="#bd8e9e" stroke-width="1.51"></path><path d="M304,-91L396,-121L181,-83Z" fill="#bd8e9e" stroke="#bd8e9e" stroke-width="1.51"></path><path d="M417,58L396,-121L396,27Z" fill="#bd8e9e" stroke="#bd8e9e" stroke-width="1.51"></path><path d="M306,282L398,260L361,211Z" fill="#6a1b9a" stroke="#6a1b9a" stroke-width="1.51"></path><path d="M361,211L398,260L389,159Z" fill="#6a1b9a" stroke="#6a1b9a" stroke-width="1.51"></path><path d="M389,159L398,260L417,58Z" fill="#6c1e9c" stroke="#6c1e9c" stroke-width="1.51"></path></svg>