<svg width="300" height="176" xmlns="http://www.w3.org/2000/svg"><path d="M-144,-86L-33,-89L173,-105Z" fill="#c476e4" stroke="#c476e4" stroke-width="1.51"></path><path d="M362,93L347,207L413,92Z" fill="#782aa8" stroke="#782aa8" stroke-width="1.51"></path><path d="M413,-83L312,17L420,21Z" fill="#9143bb" stroke="#9143bb" stroke-width="1.51"></path><path d="M341,238L393,288L439,203Z" fill="#7123a1" stroke="#7123a1" stroke-width="1.51"></path><path d="M347,207L341,238L439,203Z" fill="#7325a3" stroke="#7325a3" stroke-width="1.51"></path><path d="M413,92L347,207L439,203Z" fill="#7527a5" stroke="#7527a5" stroke-width="1.51"></path><path d="M420,21L413,92L439,203Z" fill="#7729a7" stroke="#7729a7" stroke-width="1.51"></path><path d="M413,-83L420,21L439,203Z" fill="#8134af" stroke="#8134af" stroke-width="1.51"></path><path d="M355,-109L312,17L413,-83Z" fill="#9c4ec3" stroke="#9c4ec3" stroke-width="1.51"></path><path d="M362,93L413,92L420,21Z" fill="#7e30ac" stroke="#7e30ac" stroke-width="1.51"></path><path d="M312,17L362,93L420,21Z" fill="#8537b2" stroke="#8537b2" stroke-width="1.51"></path><path d="M173,-105L251,-76L355,-109Z" fill="#a95ace" stroke="#a95ace" stroke-width="1.51"></path><path d="M341,238L257,292L393,288Z" fill="#7224a2" stroke="#7224a2" stroke-width="1.51"></path><path d="M251,-76L312,17L355,-109Z" fill="#9d50c5" stroke="#9d50c5" stroke-width="1.51"></path><path d="M312,17L207,73L362,93Z" fill="#8436b2" stroke="#8436b2" stroke-width="1.51"></path><path d="M207,73L245,180L362,93Z" fill="#7d2fad" stroke="#7d2fad" stroke-width="1.51"></path><path d="M245,180L347,207L362,93Z" fill="#792ba9" stroke="#792ba9" stroke-width="1.51"></path><path d="M245,180L341,238L347,207Z" fill="#7628a6" stroke="#7628a6" stroke-width="1.51"></path><path d="M245,180L257,292L341,238Z" fill="#7628a6" stroke="#7628a6" stroke-width="1.51"></path><path d="M230,21L207,73L312,17Z" fill="#8b3db8" stroke="#8b3db8" stroke-width="1.51"></path><path d="M251,-76L230,21L312,17Z" fill="#9647bf" stroke="#9647bf" stroke-width="1.51"></path><path d="M207,73L143,96L245,180Z" fill="#8032b0" stroke="#8032b0" stroke-width="1.51"></path><path d="M143,96L146,190L245,180Z" fill="#7f31af" stroke="#7f31af" stroke-width="1.51"></path><path d="M175,-1L230,21L251,-76Z" fill="#994bc2" stroke="#994bc2" stroke-width="1.51"></path><path d="M121,237L88,290L257,292Z" fill="#792ba9" stroke="#792ba9" stroke-width="1.51"></path><path d="M245,180L146,190L257,292Z" fill="#7a2ba9" stroke="#7a2ba9" stroke-width="1.51"></path><path d="M146,190L121,237L257,292Z" fill="#7a2caa" stroke="#7a2caa" stroke-width="1.51"></path><path d="M173,-105L175,-1L251,-76Z" fill="#a355ca" stroke="#a355ca" stroke-width="1.51"></path><path d="M-33,-89L56,-62L173,-105Z" fill="#b869db" stroke="#b869db" stroke-width="1.51"></path><path d="M175,-1L207,73L230,21Z" fill="#8f40bb" stroke="#8f40bb" stroke-width="1.51"></path><path d="M175,-1L143,96L207,73Z" fill="#8a3cb8" stroke="#8a3cb8" stroke-width="1.51"></path><path d="M56,-62L89,-16L173,-105Z" fill="#ac5ed1" stroke="#ac5ed1" stroke-width="1.51"></path><path d="M93,66L143,96L175,-1Z" fill="#8e3fbb" stroke="#8e3fbb" stroke-width="1.51"></path><path d="M89,-16L93,66L175,-1Z" fill="#994ac3" stroke="#994ac3" stroke-width="1.51"></path><path d="M173,-105L89,-16L175,-1Z" fill="#a253ca" stroke="#a253ca" stroke-width="1.51"></path><path d="M93,66L92,210L143,96Z" fill="#883ab7" stroke="#883ab7" stroke-width="1.51"></path><path d="M143,96L92,210L146,190Z" fill="#8335b2" stroke="#8335b2" stroke-width="1.51"></path><path d="M92,210L121,237L146,190Z" fill="#8233b0" stroke="#8233b0" stroke-width="1.51"></path><path d="M-15,199L92,210L93,66Z" fill="#8f40bb" stroke="#8f40bb" stroke-width="1.51"></path><path d="M92,210L88,290L121,237Z" fill="#8334b1" stroke="#8334b1" stroke-width="1.51"></path><path d="M-46,-17L-41,60L89,-16Z" fill="#ad5fd2" stroke="#ad5fd2" stroke-width="1.51"></path><path d="M-3,285L88,290L92,210Z" fill="#883ab4" stroke="#883ab4" stroke-width="1.51"></path><path d="M-15,199L-3,285L92,210Z" fill="#8f42ba" stroke="#8f42ba" stroke-width="1.51"></path><path d="M89,-16L-41,60L93,66Z" fill="#a051c8" stroke="#a051c8" stroke-width="1.51"></path><path d="M-41,60L-15,199L93,66Z" fill="#994ac3" stroke="#994ac3" stroke-width="1.51"></path><path d="M56,-62L-46,-17L89,-16Z" fill="#b163d5" stroke="#b163d5" stroke-width="1.51"></path><path d="M-33,-89L-46,-17L56,-62Z" fill="#bd6ede" stroke="#bd6ede" stroke-width="1.51"></path><path d="M-41,60L-103,146L-15,199Z" fill="#a253c9" stroke="#a253c9" stroke-width="1.51"></path><path d="M-15,199L-116,244L-3,285Z" fill="#9a4cc2" stroke="#9a4cc2" stroke-width="1.51"></path><path d="M-103,146L-116,244L-15,199Z" fill="#a254c8" stroke="#a254c8" stroke-width="1.51"></path><path d="M-130,78L-103,146L-41,60Z" fill="#aa5bd0" stroke="#aa5bd0" stroke-width="1.51"></path><path d="M-46,-17L-131,-22L-41,60Z" fill="#b96adc" stroke="#b96adc" stroke-width="1.51"></path><path d="M-131,-22L-130,78L-41,60Z" fill="#b768d9" stroke="#b768d9" stroke-width="1.51"></path><path d="M-131,-22L-46,-17L-33,-89Z" fill="#c475e3" stroke="#c475e3" stroke-width="1.51"></path><path d="M-144,-86L-131,-22L-33,-89Z" fill="#cf80eb" stroke="#cf80eb" stroke-width="1.51"></path><path d="M-130,78L-116,244L-103,146Z" fill="#aa5ccf" stroke="#aa5ccf" stroke-width="1.51"></path><path d="M-131,-22L-144,-86L-130,78Z" fill="#c778e6" stroke="#c778e6" stroke-width="1.51"></path></svg>