<svg width="300" height="176" xmlns="http://www.w3.org/2000/svg"><path d="M133,93L64,119L149,166Z" fill="#8b3fb2" stroke="#8b3fb2" stroke-width="1.51"></path><path d="M64,119L29,187L149,166Z" fill="#9249af" stroke="#9249af" stroke-width="1.51"></path><path d="M149,166L227,115L133,93Z" fill="#8132b1" stroke="#8132b1" stroke-width="1.51"></path><path d="M219,281L220,165L149,166Z" fill="#7b2dab" stroke="#7b2dab" stroke-width="1.51"></path><path d="M220,165L227,115L149,166Z" fill="#7e30ae" stroke="#7e30ae" stroke-width="1.51"></path><path d="M29,187L78,274L149,166Z" fill="#8e45ac" stroke="#8e45ac" stroke-width="1.51"></path><path d="M147,-15L63,-1L133,93Z" fill="#a25eb2" stroke="#a25eb2" stroke-width="1.51"></path><path d="M133,93L63,-1L64,119Z" fill="#9a53b2" stroke="#9a53b2" stroke-width="1.51"></path><path d="M64,119L-62,119L29,187Z" fill="#a361ae" stroke="#a361ae" stroke-width="1.51"></path><path d="M78,274L128,289L149,166Z" fill="#8338ab" stroke="#8338ab" stroke-width="1.51"></path><path d="M227,115L147,-15L133,93Z" fill="#8c40b3" stroke="#8c40b3" stroke-width="1.51"></path><path d="M-64,23L-62,119L64,119Z" fill="#ad6db0" stroke="#ad6db0" stroke-width="1.51"></path><path d="M29,187L-28,281L78,274Z" fill="#9a56a8" stroke="#9a56a8" stroke-width="1.51"></path><path d="M-62,119L-57,184L29,187Z" fill="#aa6cab" stroke="#aa6cab" stroke-width="1.51"></path><path d="M220,165L296,119L227,115Z" fill="#7d2fad" stroke="#7d2fad" stroke-width="1.51"></path><path d="M128,289L219,281L149,166Z" fill="#7a2caa" stroke="#7a2caa" stroke-width="1.51"></path><path d="M227,115L266,-34L147,-15Z" fill="#9952af" stroke="#9952af" stroke-width="1.51"></path><path d="M310,181L296,119L220,165Z" fill="#7b2dab" stroke="#7b2dab" stroke-width="1.51"></path><path d="M-57,184L-28,281L29,187Z" fill="#a566a9" stroke="#a566a9" stroke-width="1.51"></path><path d="M78,274L-28,281L128,289Z" fill="#904aa7" stroke="#904aa7" stroke-width="1.51"></path><path d="M307,258L310,181L220,165Z" fill="#782aa8" stroke="#782aa8" stroke-width="1.51"></path><path d="M63,-1L-64,23L64,119Z" fill="#b072af" stroke="#b072af" stroke-width="1.51"></path><path d="M147,-15L88,-68L63,-1Z" fill="#b67aaf" stroke="#b67aaf" stroke-width="1.51"></path><path d="M-29,-122L-64,23L63,-1Z" fill="#cd9faa" stroke="#cd9faa" stroke-width="1.51"></path><path d="M244,-69L132,-76L147,-15Z" fill="#b275ae" stroke="#b275ae" stroke-width="1.51"></path><path d="M147,-15L132,-76L88,-68Z" fill="#b87eae" stroke="#b87eae" stroke-width="1.51"></path><path d="M296,119L297,10L227,115Z" fill="#8234af" stroke="#8234af" stroke-width="1.51"></path><path d="M403,82L297,10L296,119Z" fill="#8337ac" stroke="#8337ac" stroke-width="1.51"></path><path d="M297,10L266,-34L227,115Z" fill="#944cae" stroke="#944cae" stroke-width="1.51"></path><path d="M219,281L307,258L220,165Z" fill="#7729a7" stroke="#7729a7" stroke-width="1.51"></path><path d="M301,-68L244,-69L266,-34Z" fill="#ae73aa" stroke="#ae73aa" stroke-width="1.51"></path><path d="M266,-34L244,-69L147,-15Z" fill="#ac6dad" stroke="#ac6dad" stroke-width="1.51"></path><path d="M-57,184L-119,301L-28,281Z" fill="#ad73a5" stroke="#ad73a5" stroke-width="1.51"></path><path d="M-62,119L-142,162L-57,184Z" fill="#b77eaa" stroke="#b77eaa" stroke-width="1.51"></path><path d="M-150,73L-142,162L-62,119Z" fill="#bf8aab" stroke="#bf8aab" stroke-width="1.51"></path><path d="M-64,23L-150,73L-62,119Z" fill="#c08aac" stroke="#c08aac" stroke-width="1.51"></path><path d="M-138,-6L-150,73L-64,23Z" fill="#d0a5a9" stroke="#d0a5a9" stroke-width="1.51"></path><path d="M297,10L301,-68L266,-34Z" fill="#a666ab" stroke="#a666ab" stroke-width="1.51"></path><path d="M399,-102L-29,-122L132,-76Z" fill="#bf8aac" stroke="#bf8aac" stroke-width="1.51"></path><path d="M446,-4L301,-68L297,10Z" fill="#a160a9" stroke="#a160a9" stroke-width="1.51"></path><path d="M-142,162L-119,301L-57,184Z" fill="#b781a6" stroke="#b781a6" stroke-width="1.51"></path><path d="M-28,281L-119,301L128,289Z" fill="#9e5ea5" stroke="#9e5ea5" stroke-width="1.51"></path><path d="M-105,-73L-138,-6L-64,23Z" fill="#dab5a6" stroke="#dab5a6" stroke-width="1.51"></path><path d="M399,-102L132,-76L244,-69Z" fill="#b77ea9" stroke="#b77ea9" stroke-width="1.51"></path><path d="M132,-76L-29,-122L88,-68Z" fill="#cda0aa" stroke="#cda0aa" stroke-width="1.51"></path><path d="M88,-68L-29,-122L63,-1Z" fill="#cb9caa" stroke="#cb9caa" stroke-width="1.51"></path><path d="M447,210L403,82L310,181Z" fill="#7628a6" stroke="#7628a6" stroke-width="1.51"></path><path d="M310,181L403,82L296,119Z" fill="#7a2caa" stroke="#7a2caa" stroke-width="1.51"></path><path d="M-29,-122L-105,-73L-64,23Z" fill="#ddbba6" stroke="#ddbba6" stroke-width="1.51"></path><path d="M307,258L427,269L310,181Z" fill="#7325a3" stroke="#7325a3" stroke-width="1.51"></path><path d="M219,281L427,269L307,258Z" fill="#7224a2" stroke="#7224a2" stroke-width="1.51"></path><path d="M128,289L427,269L219,281Z" fill="#7426a4" stroke="#7426a4" stroke-width="1.51"></path><path d="M427,269L447,210L310,181Z" fill="#7224a2" stroke="#7224a2" stroke-width="1.51"></path><path d="M403,82L446,-4L297,10Z" fill="#8f48a9" stroke="#8f48a9" stroke-width="1.51"></path><path d="M447,210L446,-4L403,82Z" fill="#7829a8" stroke="#7829a8" stroke-width="1.51"></path><path d="M446,-4L399,-102L301,-68Z" fill="#aa6fa5" stroke="#aa6fa5" stroke-width="1.51"></path><path d="M301,-68L399,-102L244,-69Z" fill="#b37ba7" stroke="#b37ba7" stroke-width="1.51"></path></svg>