<svg width="300" height="176" xmlns="http://www.w3.org/2000/svg"><path d="M149,95L162,171L222,118Z" fill="#7b2dab" stroke="#7b2dab" stroke-width="1.51"></path><path d="M162,171L229,177L222,118Z" fill="#7527a5" stroke="#7527a5" stroke-width="1.51"></path><path d="M149,95L71,170L162,171Z" fill="#883eab" stroke="#883eab" stroke-width="1.51"></path><path d="M162,171L150,269L229,177Z" fill="#7426a4" stroke="#7426a4" stroke-width="1.51"></path><path d="M222,118L163,-4L149,95Z" fill="#9249b0" stroke="#9249b0" stroke-width="1.51"></path><path d="M149,95L45,54L71,170Z" fill="#a15eaf" stroke="#a15eaf" stroke-width="1.51"></path><path d="M229,177L310,181L222,118Z" fill="#7022a0" stroke="#7022a0" stroke-width="1.51"></path><path d="M222,118L209,-18L163,-4Z" fill="#af73ab" stroke="#af73ab" stroke-width="1.51"></path><path d="M261,282L310,181L229,177Z" fill="#6d1e9d" stroke="#6d1e9d" stroke-width="1.51"></path><path d="M71,170L150,269L162,171Z" fill="#833aa6" stroke="#833aa6" stroke-width="1.51"></path><path d="M310,181L324,117L222,118Z" fill="#7123a1" stroke="#7123a1" stroke-width="1.51"></path><path d="M298,-11L209,-18L222,118Z" fill="#ad72a7" stroke="#ad72a7" stroke-width="1.51"></path><path d="M80,7L45,54L149,95Z" fill="#be86ad" stroke="#be86ad" stroke-width="1.51"></path><path d="M129,-94L80,7L163,-4Z" fill="#d4aba8" stroke="#d4aba8" stroke-width="1.51"></path><path d="M163,-4L80,7L149,95Z" fill="#bb82ae" stroke="#bb82ae" stroke-width="1.51"></path><path d="M150,269L261,282L229,177Z" fill="#7123a1" stroke="#7123a1" stroke-width="1.51"></path><path d="M324,117L298,-11L222,118Z" fill="#853ba8" stroke="#853ba8" stroke-width="1.51"></path><path d="M71,170L65,289L150,269Z" fill="#9350a5" stroke="#9350a5" stroke-width="1.51"></path><path d="M45,54L-16,150L71,170Z" fill="#b77fa8" stroke="#b77fa8" stroke-width="1.51"></path><path d="M-53,260L65,289L71,170Z" fill="#b27ca0" stroke="#b27ca0" stroke-width="1.51"></path><path d="M150,269L65,289L261,282Z" fill="#7628a6" stroke="#7628a6" stroke-width="1.51"></path><path d="M261,282L333,285L310,181Z" fill="#6a1b9a" stroke="#6a1b9a" stroke-width="1.51"></path><path d="M310,181L391,196L324,117Z" fill="#6b1d9b" stroke="#6b1d9b" stroke-width="1.51"></path><path d="M65,289L333,285L261,282Z" fill="#7122a1" stroke="#7122a1" stroke-width="1.51"></path><path d="M333,285L391,196L310,181Z" fill="#6a1b9a" stroke="#6a1b9a" stroke-width="1.51"></path><path d="M324,117L441,86L298,-11Z" fill="#8d47a5" stroke="#8d47a5" stroke-width="1.51"></path><path d="M45,54L-43,84L-16,150Z" fill="#c999aa" stroke="#c999aa" stroke-width="1.51"></path><path d="M-22,-29L-43,84L45,54Z" fill="#ead4a0" stroke="#ead4a0" stroke-width="1.51"></path><path d="M209,-18L129,-94L163,-4Z" fill="#c899a9" stroke="#c899a9" stroke-width="1.51"></path><path d="M80,7L-22,-29L45,54Z" fill="#eeda9f" stroke="#eeda9f" stroke-width="1.51"></path><path d="M219,-121L129,-94L209,-18Z" fill="#c797a8" stroke="#c797a8" stroke-width="1.51"></path><path d="M298,-11L219,-121L209,-18Z" fill="#c293a3" stroke="#c293a3" stroke-width="1.51"></path><path d="M-9,-81L-22,-29L80,7Z" fill="#faf399" stroke="#faf399" stroke-width="1.51"></path><path d="M129,-94L66,-106L80,7Z" fill="#e0c0a4" stroke="#e0c0a4" stroke-width="1.51"></path><path d="M219,-121L66,-106L129,-94Z" fill="#cfa2a9" stroke="#cfa2a9" stroke-width="1.51"></path><path d="M-127,152L-53,260L-16,150Z" fill="#bd8e9e" stroke="#bd8e9e" stroke-width="1.51"></path><path d="M-16,150L-53,260L71,170Z" fill="#bd8d9e" stroke="#bd8d9e" stroke-width="1.51"></path><path d="M298,-11L335,-112L219,-121Z" fill="#be8f9f" stroke="#be8f9f" stroke-width="1.51"></path><path d="M391,196L441,86L324,117Z" fill="#7022a0" stroke="#7022a0" stroke-width="1.51"></path><path d="M-43,84L-97,85L-16,150Z" fill="#c798a8" stroke="#c798a8" stroke-width="1.51"></path><path d="M-99,-11L-97,85L-43,84Z" fill="#e1c2a4" stroke="#e1c2a4" stroke-width="1.51"></path><path d="M-22,-29L-99,-11L-43,84Z" fill="#f7ed9b" stroke="#f7ed9b" stroke-width="1.51"></path><path d="M66,-106L-9,-81L80,7Z" fill="#f0df9e" stroke="#f0df9e" stroke-width="1.51"></path><path d="M424,-86L335,-112L298,-11Z" fill="#bd8e9e" stroke="#bd8e9e" stroke-width="1.51"></path><path d="M391,196L429,285L441,86Z" fill="#6a1b9a" stroke="#6a1b9a" stroke-width="1.51"></path><path d="M333,285L429,285L391,196Z" fill="#6a1b9a" stroke="#6a1b9a" stroke-width="1.51"></path><path d="M65,289L429,285L333,285Z" fill="#6c1e9c" stroke="#6c1e9c" stroke-width="1.51"></path><path d="M441,86L441,-14L298,-11Z" fill="#af77a1" stroke="#af77a1" stroke-width="1.51"></path><path d="M-97,85L-127,152L-16,150Z" fill="#c494a5" stroke="#c494a5" stroke-width="1.51"></path><path d="M-97,85L-99,-11L-127,152Z" fill="#d2a8a8" stroke="#d2a8a8" stroke-width="1.51"></path><path d="M-121,-90L-99,-11L-22,-29Z" fill="#fffe96" stroke="#fffe96" stroke-width="1.51"></path><path d="M441,-14L424,-86L298,-11Z" fill="#bd8e9e" stroke="#bd8e9e" stroke-width="1.51"></path><path d="M-127,152L-137,295L-53,260Z" fill="#bd8e9e" stroke="#bd8e9e" stroke-width="1.51"></path><path d="M-53,260L-137,295L65,289Z" fill="#bd8e9e" stroke="#bd8e9e" stroke-width="1.51"></path><path d="M65,289L-137,295L429,285Z" fill="#8840a6" stroke="#8840a6" stroke-width="1.51"></path><path d="M-9,-81L-121,-90L-22,-29Z" fill="#fffe96" stroke="#fffe96" stroke-width="1.51"></path><path d="M-99,-11L-121,-90L-127,152Z" fill="#f6ea9b" stroke="#f6ea9b" stroke-width="1.51"></path><path d="M-127,152L-121,-90L-137,295Z" fill="#c596a6" stroke="#c596a6" stroke-width="1.51"></path><path d="M66,-106L-121,-90L-9,-81Z" fill="#fffe96" stroke="#fffe96" stroke-width="1.51"></path><path d="M219,-121L-121,-90L66,-106Z" fill="#edd99f" stroke="#edd99f" stroke-width="1.51"></path></svg>