<svg width="300" height="176" xmlns="http://www.w3.org/2000/svg"><path d="M-52,251L-110,243L92,274Z" fill="#9648bf" stroke="#9648bf" stroke-width="1.51"></path><path d="M149,275L92,274L272,291Z" fill="#7829a8" stroke="#7829a8" stroke-width="1.51"></path><path d="M136,-70L212,-60L357,-95Z" fill="#a556cb" stroke="#a556cb" stroke-width="1.51"></path><path d="M53,-104L136,-70L357,-95Z" fill="#aa5cd0" stroke="#aa5cd0" stroke-width="1.51"></path><path d="M325,169L330,251L401,174Z" fill="#7527a5" stroke="#7527a5" stroke-width="1.51"></path><path d="M325,169L401,174L401,96Z" fill="#7729a7" stroke="#7729a7" stroke-width="1.51"></path><path d="M354,13L401,96L406,27Z" fill="#8336b1" stroke="#8336b1" stroke-width="1.51"></path><path d="M401,96L401,174L406,27Z" fill="#792ba9" stroke="#792ba9" stroke-width="1.51"></path><path d="M354,13L406,27L412,-59Z" fill="#8f41b9" stroke="#8f41b9" stroke-width="1.51"></path><path d="M357,-95L354,13L412,-59Z" fill="#984bc1" stroke="#984bc1" stroke-width="1.51"></path><path d="M330,251L272,291L412,296Z" fill="#7123a1" stroke="#7123a1" stroke-width="1.51"></path><path d="M401,174L330,251L412,296Z" fill="#7223a1" stroke="#7223a1" stroke-width="1.51"></path><path d="M412,-59L406,27L412,296Z" fill="#792ba9" stroke="#792ba9" stroke-width="1.51"></path><path d="M406,27L401,174L412,296Z" fill="#7526a5" stroke="#7526a5" stroke-width="1.51"></path><path d="M354,13L304,56L401,96Z" fill="#8335b1" stroke="#8335b1" stroke-width="1.51"></path><path d="M304,56L325,169L401,96Z" fill="#7b2dab" stroke="#7b2dab" stroke-width="1.51"></path><path d="M262,23L354,13L357,-95Z" fill="#9547bf" stroke="#9547bf" stroke-width="1.51"></path><path d="M212,-60L262,23L357,-95Z" fill="#9c4ec4" stroke="#9c4ec4" stroke-width="1.51"></path><path d="M262,23L304,56L354,13Z" fill="#8a3cb7" stroke="#8a3cb7" stroke-width="1.51"></path><path d="M304,56L234,96L325,169Z" fill="#7d2fad" stroke="#7d2fad" stroke-width="1.51"></path><path d="M234,96L263,202L325,169Z" fill="#7b2dab" stroke="#7b2dab" stroke-width="1.51"></path><path d="M325,169L263,202L330,251Z" fill="#7629a6" stroke="#7629a6" stroke-width="1.51"></path><path d="M263,202L272,291L330,251Z" fill="#7527a4" stroke="#7527a4" stroke-width="1.51"></path><path d="M262,23L234,96L304,56Z" fill="#8538b4" stroke="#8538b4" stroke-width="1.51"></path><path d="M234,96L153,171L263,202Z" fill="#7d2fad" stroke="#7d2fad" stroke-width="1.51"></path><path d="M263,202L149,275L272,291Z" fill="#7729a7" stroke="#7729a7" stroke-width="1.51"></path><path d="M142,58L234,96L262,23Z" fill="#8839b6" stroke="#8839b6" stroke-width="1.51"></path><path d="M212,-60L142,58L262,23Z" fill="#9345bf" stroke="#9345bf" stroke-width="1.51"></path><path d="M153,171L149,275L263,202Z" fill="#7b2dab" stroke="#7b2dab" stroke-width="1.51"></path><path d="M118,14L142,58L212,-60Z" fill="#9748c1" stroke="#9748c1" stroke-width="1.51"></path><path d="M142,58L153,171L234,96Z" fill="#8233b2" stroke="#8233b2" stroke-width="1.51"></path><path d="M136,-70L118,14L212,-60Z" fill="#a152c9" stroke="#a152c9" stroke-width="1.51"></path><path d="M92,274L149,275L153,171Z" fill="#7e30ad" stroke="#7e30ad" stroke-width="1.51"></path><path d="M38,171L92,274L153,171Z" fill="#8638b3" stroke="#8638b3" stroke-width="1.51"></path><path d="M82,93L38,171L153,171Z" fill="#8a3cb7" stroke="#8a3cb7" stroke-width="1.51"></path><path d="M142,58L82,93L153,171Z" fill="#8738b6" stroke="#8738b6" stroke-width="1.51"></path><path d="M39,-34L118,14L136,-70Z" fill="#a758cd" stroke="#a758cd" stroke-width="1.51"></path><path d="M118,14L82,93L142,58Z" fill="#9143bd" stroke="#9143bd" stroke-width="1.51"></path><path d="M53,-104L39,-34L136,-70Z" fill="#b364d6" stroke="#b364d6" stroke-width="1.51"></path><path d="M-7,9L82,93L118,14Z" fill="#9d4ec6" stroke="#9d4ec6" stroke-width="1.51"></path><path d="M39,-34L-7,9L118,14Z" fill="#a85ace" stroke="#a85ace" stroke-width="1.51"></path><path d="M38,171L-52,251L92,274Z" fill="#8f42ba" stroke="#8f42ba" stroke-width="1.51"></path><path d="M-42,113L38,171L82,93Z" fill="#9647c0" stroke="#9647c0" stroke-width="1.51"></path><path d="M-7,9L-42,113L82,93Z" fill="#9e50c7" stroke="#9e50c7" stroke-width="1.51"></path><path d="M-64,195L-52,251L38,171Z" fill="#994bc2" stroke="#994bc2" stroke-width="1.51"></path><path d="M-53,-66L39,-34L53,-104Z" fill="#bd6ede" stroke="#bd6ede" stroke-width="1.51"></path><path d="M-87,-97L-53,-66L53,-104Z" fill="#c879e6" stroke="#c879e6" stroke-width="1.51"></path><path d="M-53,-66L-7,9L39,-34Z" fill="#b868da" stroke="#b868da" stroke-width="1.51"></path><path d="M-42,113L-64,195L38,171Z" fill="#9b4dc4" stroke="#9b4dc4" stroke-width="1.51"></path><path d="M-148,83L-116,-5L-87,-97Z" fill="#c374e3" stroke="#c374e3" stroke-width="1.51"></path><path d="M-116,-5L-42,113L-7,9Z" fill="#b061d4" stroke="#b061d4" stroke-width="1.51"></path><path d="M-53,-66L-116,-5L-7,9Z" fill="#be6fde" stroke="#be6fde" stroke-width="1.51"></path><path d="M-64,195L-87,195L-52,251Z" fill="#9f52c6" stroke="#9f52c6" stroke-width="1.51"></path><path d="M-87,195L-64,195L-42,113Z" fill="#a253c9" stroke="#a253c9" stroke-width="1.51"></path><path d="M-148,83L-87,195L-42,113Z" fill="#a85ace" stroke="#a85ace" stroke-width="1.51"></path><path d="M-116,-5L-148,83L-42,113Z" fill="#b263d6" stroke="#b263d6" stroke-width="1.51"></path><path d="M-87,-97L-116,-5L-53,-66Z" fill="#c97ae8" stroke="#c97ae8" stroke-width="1.51"></path><path d="M-87,195L-110,243L-52,251Z" fill="#a153c7" stroke="#a153c7" stroke-width="1.51"></path><path d="M-148,83L-110,243L-87,195Z" fill="#a95bce" stroke="#a95bce" stroke-width="1.51"></path></svg>