<svg width="300" height="176" xmlns="http://www.w3.org/2000/svg"><path d="M119,113L139,1L76,62Z" fill="#b072b0" stroke="#b072b0" stroke-width="1.51"></path><path d="M139,1L56,-29L76,62Z" fill="#d9b5a6" stroke="#d9b5a6" stroke-width="1.51"></path><path d="M119,113L270,87L139,1Z" fill="#944db0" stroke="#944db0" stroke-width="1.51"></path><path d="M36,171L144,179L119,113Z" fill="#9450a8" stroke="#9450a8" stroke-width="1.51"></path><path d="M139,1L83,-73L56,-29Z" fill="#dfc0a5" stroke="#dfc0a5" stroke-width="1.51"></path><path d="M218,176L270,87L119,113Z" fill="#7a2baa" stroke="#7a2baa" stroke-width="1.51"></path><path d="M139,1L183,-83L83,-73Z" fill="#d0a4a9" stroke="#d0a4a9" stroke-width="1.51"></path><path d="M56,-29L2,-4L76,62Z" fill="#ebd5a0" stroke="#ebd5a0" stroke-width="1.51"></path><path d="M76,62L36,171L119,113Z" fill="#a564ac" stroke="#a564ac" stroke-width="1.51"></path><path d="M-52,-62L2,-4L56,-29Z" fill="#fffc97" stroke="#fffc97" stroke-width="1.51"></path><path d="M144,179L218,176L119,113Z" fill="#792aa9" stroke="#792aa9" stroke-width="1.51"></path><path d="M270,87L265,-7L139,1Z" fill="#b076a8" stroke="#b076a8" stroke-width="1.51"></path><path d="M-22,56L36,171L76,62Z" fill="#bd86ac" stroke="#bd86ac" stroke-width="1.51"></path><path d="M265,-7L183,-83L139,1Z" fill="#c696a7" stroke="#c696a7" stroke-width="1.51"></path><path d="M2,-4L-22,56L76,62Z" fill="#e3c6a4" stroke="#e3c6a4" stroke-width="1.51"></path><path d="M270,87L347,-34L265,-7Z" fill="#b37ea1" stroke="#b37ea1" stroke-width="1.51"></path><path d="M218,176L305,117L270,87Z" fill="#7426a4" stroke="#7426a4" stroke-width="1.51"></path><path d="M265,-7L251,-97L183,-83Z" fill="#c393a4" stroke="#c393a4" stroke-width="1.51"></path><path d="M183,-83L251,-97L83,-73Z" fill="#c898a9" stroke="#c898a9" stroke-width="1.51"></path><path d="M312,-99L251,-97L265,-7Z" fill="#bf90a0" stroke="#bf90a0" stroke-width="1.51"></path><path d="M144,179L177,249L218,176Z" fill="#7426a4" stroke="#7426a4" stroke-width="1.51"></path><path d="M218,176L341,191L305,117Z" fill="#6d1f9d" stroke="#6d1f9d" stroke-width="1.51"></path><path d="M76,281L177,249L144,179Z" fill="#8136a6" stroke="#8136a6" stroke-width="1.51"></path><path d="M36,171L76,281L144,179Z" fill="#9857a4" stroke="#9857a4" stroke-width="1.51"></path><path d="M-22,56L-50,163L36,171Z" fill="#c494a5" stroke="#c494a5" stroke-width="1.51"></path><path d="M177,249L210,256L218,176Z" fill="#7224a2" stroke="#7224a2" stroke-width="1.51"></path><path d="M-22,56L-127,65L-50,163Z" fill="#c999aa" stroke="#c999aa" stroke-width="1.51"></path><path d="M2,-4L-87,21L-22,56Z" fill="#f1e29d" stroke="#f1e29d" stroke-width="1.51"></path><path d="M83,-73L-52,-62L56,-29Z" fill="#f6ea9b" stroke="#f6ea9b" stroke-width="1.51"></path><path d="M-115,-68L-52,-62L83,-73Z" fill="#fffe96" stroke="#fffe96" stroke-width="1.51"></path><path d="M-52,-62L-87,21L2,-4Z" fill="#fffe96" stroke="#fffe96" stroke-width="1.51"></path><path d="M177,249L76,281L210,256Z" fill="#7628a6" stroke="#7628a6" stroke-width="1.51"></path><path d="M-6,273L76,281L36,171Z" fill="#ae77a1" stroke="#ae77a1" stroke-width="1.51"></path><path d="M305,117L347,-34L270,87Z" fill="#934fa5" stroke="#934fa5" stroke-width="1.51"></path><path d="M347,-34L312,-99L265,-7Z" fill="#bd8e9e" stroke="#bd8e9e" stroke-width="1.51"></path><path d="M305,117L417,4L347,-34Z" fill="#a86ea2" stroke="#a86ea2" stroke-width="1.51"></path><path d="M310,266L341,191L218,176Z" fill="#6b1c9b" stroke="#6b1c9b" stroke-width="1.51"></path><path d="M-50,163L-6,273L36,171Z" fill="#bd8e9e" stroke="#bd8e9e" stroke-width="1.51"></path><path d="M-50,163L-120,263L-6,273Z" fill="#bd8e9e" stroke="#bd8e9e" stroke-width="1.51"></path><path d="M-87,21L-127,65L-22,56Z" fill="#e4c8a3" stroke="#e4c8a3" stroke-width="1.51"></path><path d="M-115,-68L-127,65L-87,21Z" fill="#fcf798" stroke="#fcf798" stroke-width="1.51"></path><path d="M76,281L310,266L210,256Z" fill="#7324a2" stroke="#7324a2" stroke-width="1.51"></path><path d="M210,256L310,266L218,176Z" fill="#6e209e" stroke="#6e209e" stroke-width="1.51"></path><path d="M-52,-62L-115,-68L-87,21Z" fill="#fffe96" stroke="#fffe96" stroke-width="1.51"></path><path d="M251,-97L-115,-68L83,-73Z" fill="#e6cda2" stroke="#e6cda2" stroke-width="1.51"></path><path d="M453,195L415,99L341,191Z" fill="#6c1e9c" stroke="#6c1e9c" stroke-width="1.51"></path><path d="M341,191L415,99L305,117Z" fill="#7021a0" stroke="#7021a0" stroke-width="1.51"></path><path d="M415,99L417,4L305,117Z" fill="#853ba6" stroke="#853ba6" stroke-width="1.51"></path><path d="M347,-34L447,-126L312,-99Z" fill="#bd8e9e" stroke="#bd8e9e" stroke-width="1.51"></path><path d="M-127,65L-127,207L-50,163Z" fill="#c192a2" stroke="#c192a2" stroke-width="1.51"></path><path d="M-127,207L-120,263L-50,163Z" fill="#bd8e9e" stroke="#bd8e9e" stroke-width="1.51"></path><path d="M-6,273L-120,263L76,281Z" fill="#bd8e9e" stroke="#bd8e9e" stroke-width="1.51"></path><path d="M415,99L453,195L417,4Z" fill="#7527a5" stroke="#7527a5" stroke-width="1.51"></path><path d="M310,266L429,235L341,191Z" fill="#6a1b9a" stroke="#6a1b9a" stroke-width="1.51"></path><path d="M429,235L453,195L341,191Z" fill="#6a1b9a" stroke="#6a1b9a" stroke-width="1.51"></path><path d="M417,4L447,-126L347,-34Z" fill="#bd8e9e" stroke="#bd8e9e" stroke-width="1.51"></path><path d="M312,-99L447,-126L251,-97Z" fill="#bd8e9e" stroke="#bd8e9e" stroke-width="1.51"></path><path d="M251,-97L447,-126L-115,-68Z" fill="#c697a7" stroke="#c697a7" stroke-width="1.51"></path><path d="M453,195L447,-126L417,4Z" fill="#ac73a1" stroke="#ac73a1" stroke-width="1.51"></path></svg>