<svg width="300" height="176" xmlns="http://www.w3.org/2000/svg"><path d="M1,-113L79,-106L226,-121Z" fill="#cd9faa" stroke="#cd9faa" stroke-width="1.51"></path><path d="M149,257L-30,281L264,278Z" fill="#8033a9" stroke="#8033a9" stroke-width="1.51"></path><path d="M264,278L-30,281L363,289Z" fill="#7628a6" stroke="#7628a6" stroke-width="1.51"></path><path d="M359,17L336,77L392,4Z" fill="#8f48a9" stroke="#8f48a9" stroke-width="1.51"></path><path d="M226,-121L346,-92L398,-111Z" fill="#bb87a5" stroke="#bb87a5" stroke-width="1.51"></path><path d="M346,-92L392,4L398,-111Z" fill="#ad73a5" stroke="#ad73a5" stroke-width="1.51"></path><path d="M336,77L301,181L409,208Z" fill="#782aa8" stroke="#782aa8" stroke-width="1.51"></path><path d="M336,77L409,208L441,116Z" fill="#7729a7" stroke="#7729a7" stroke-width="1.51"></path><path d="M392,4L336,77L441,116Z" fill="#8237aa" stroke="#8237aa" stroke-width="1.51"></path><path d="M409,208L429,263L441,116Z" fill="#7224a2" stroke="#7224a2" stroke-width="1.51"></path><path d="M398,-111L392,4L441,116Z" fill="#9653a7" stroke="#9653a7" stroke-width="1.51"></path><path d="M409,208L363,289L429,263Z" fill="#7021a0" stroke="#7021a0" stroke-width="1.51"></path><path d="M346,-92L359,17L392,4Z" fill="#a061a8" stroke="#a061a8" stroke-width="1.51"></path><path d="M301,181L363,289L409,208Z" fill="#7425a3" stroke="#7425a3" stroke-width="1.51"></path><path d="M346,-92L212,10L359,17Z" fill="#a262aa" stroke="#a262aa" stroke-width="1.51"></path><path d="M301,181L264,278L363,289Z" fill="#7426a4" stroke="#7426a4" stroke-width="1.51"></path><path d="M249,108L301,181L336,77Z" fill="#7c2dac" stroke="#7c2dac" stroke-width="1.51"></path><path d="M212,10L336,77L359,17Z" fill="#9049ac" stroke="#9049ac" stroke-width="1.51"></path><path d="M226,-121L212,10L346,-92Z" fill="#b278aa" stroke="#b278aa" stroke-width="1.51"></path><path d="M212,10L249,108L336,77Z" fill="#873caf" stroke="#873caf" stroke-width="1.51"></path><path d="M249,108L259,173L301,181Z" fill="#7b2dab" stroke="#7b2dab" stroke-width="1.51"></path><path d="M259,173L264,278L301,181Z" fill="#7829a8" stroke="#7829a8" stroke-width="1.51"></path><path d="M167,-90L180,-3L212,10Z" fill="#aa69af" stroke="#aa69af" stroke-width="1.51"></path><path d="M167,-90L212,10L226,-121Z" fill="#b47aad" stroke="#b47aad" stroke-width="1.51"></path><path d="M212,10L182,55L249,108Z" fill="#8c42b1" stroke="#8c42b1" stroke-width="1.51"></path><path d="M130,180L149,257L259,173Z" fill="#7c2eac" stroke="#7c2eac" stroke-width="1.51"></path><path d="M259,173L149,257L264,278Z" fill="#782aa8" stroke="#782aa8" stroke-width="1.51"></path><path d="M79,-106L167,-90L226,-121Z" fill="#c18cac" stroke="#c18cac" stroke-width="1.51"></path><path d="M249,108L130,180L259,173Z" fill="#7d2fad" stroke="#7d2fad" stroke-width="1.51"></path><path d="M182,55L130,180L249,108Z" fill="#8132b1" stroke="#8132b1" stroke-width="1.51"></path><path d="M80,99L130,180L182,55Z" fill="#883bb2" stroke="#883bb2" stroke-width="1.51"></path><path d="M180,-3L182,55L212,10Z" fill="#9a54b0" stroke="#9a54b0" stroke-width="1.51"></path><path d="M31,237L-30,281L149,257Z" fill="#934ea8" stroke="#934ea8" stroke-width="1.51"></path><path d="M167,-90L75,-2L180,-3Z" fill="#ae6fb0" stroke="#ae6fb0" stroke-width="1.51"></path><path d="M180,-3L75,-2L182,55Z" fill="#9e58b2" stroke="#9e58b2" stroke-width="1.51"></path><path d="M75,-2L80,99L182,55Z" fill="#9b54b2" stroke="#9b54b2" stroke-width="1.51"></path><path d="M79,-106L75,-2L167,-90Z" fill="#bf88ad" stroke="#bf88ad" stroke-width="1.51"></path><path d="M45,184L31,237L130,180Z" fill="#924bac" stroke="#924bac" stroke-width="1.51"></path><path d="M130,180L31,237L149,257Z" fill="#883eab" stroke="#883eab" stroke-width="1.51"></path><path d="M80,99L45,184L130,180Z" fill="#9148af" stroke="#9148af" stroke-width="1.51"></path><path d="M-24,-34L-11,116L75,-2Z" fill="#b87dae" stroke="#b87dae" stroke-width="1.51"></path><path d="M-24,-34L75,-2L79,-106Z" fill="#c794ac" stroke="#c794ac" stroke-width="1.51"></path><path d="M1,-113L-24,-34L79,-106Z" fill="#d5aca8" stroke="#d5aca8" stroke-width="1.51"></path><path d="M75,-2L-11,116L80,99Z" fill="#a35fb1" stroke="#a35fb1" stroke-width="1.51"></path><path d="M-11,116L45,184L80,99Z" fill="#9d58af" stroke="#9d58af" stroke-width="1.51"></path><path d="M-24,-34L-98,20L-11,116Z" fill="#c18cac" stroke="#c18cac" stroke-width="1.51"></path><path d="M-16,156L31,237L45,184Z" fill="#9e5bab" stroke="#9e5bab" stroke-width="1.51"></path><path d="M-11,116L-16,156L45,184Z" fill="#a462ad" stroke="#a462ad" stroke-width="1.51"></path><path d="M-16,156L-30,281L31,237Z" fill="#a161a9" stroke="#a161a9" stroke-width="1.51"></path><path d="M-112,173L-30,281L-16,156Z" fill="#ad71a8" stroke="#ad71a8" stroke-width="1.51"></path><path d="M-105,-78L-24,-34L1,-113Z" fill="#ddbba5" stroke="#ddbba5" stroke-width="1.51"></path><path d="M-112,173L-144,241L-30,281Z" fill="#b47da5" stroke="#b47da5" stroke-width="1.51"></path><path d="M-98,20L-132,116L-11,116Z" fill="#ba82ae" stroke="#ba82ae" stroke-width="1.51"></path><path d="M-112,173L-16,156L-11,116Z" fill="#af72ac" stroke="#af72ac" stroke-width="1.51"></path><path d="M-132,116L-112,173L-11,116Z" fill="#b87fab" stroke="#b87fab" stroke-width="1.51"></path><path d="M-105,-78L-98,20L-24,-34Z" fill="#d8b2a7" stroke="#d8b2a7" stroke-width="1.51"></path><path d="M-105,-78L-132,116L-98,20Z" fill="#d1a8a9" stroke="#d1a8a9" stroke-width="1.51"></path><path d="M-132,116L-144,241L-112,173Z" fill="#be8aa7" stroke="#be8aa7" stroke-width="1.51"></path></svg>