<svg width="300" height="176" xmlns="http://www.w3.org/2000/svg"><path d="M129,266L-49,286L261,294Z" fill="#8238a8" stroke="#8238a8" stroke-width="1.51"></path><path d="M352,268L261,294L416,284Z" fill="#7123a1" stroke="#7123a1" stroke-width="1.51"></path><path d="M352,174L352,268L416,284Z" fill="#7224a1" stroke="#7224a1" stroke-width="1.51"></path><path d="M335,-101L343,16L433,16Z" fill="#a160a8" stroke="#a160a8" stroke-width="1.51"></path><path d="M413,54L339,84L436,148Z" fill="#792ba9" stroke="#792ba9" stroke-width="1.51"></path><path d="M352,174L416,284L436,148Z" fill="#7325a3" stroke="#7325a3" stroke-width="1.51"></path><path d="M433,16L413,54L436,148Z" fill="#7e32a8" stroke="#7e32a8" stroke-width="1.51"></path><path d="M258,-104L335,-101L445,-106Z" fill="#b984a5" stroke="#b984a5" stroke-width="1.51"></path><path d="M133,-117L258,-104L445,-106Z" fill="#bd89a7" stroke="#bd89a7" stroke-width="1.51"></path><path d="M335,-101L433,16L445,-106Z" fill="#ab70a4" stroke="#ab70a4" stroke-width="1.51"></path><path d="M433,16L436,148L445,-106Z" fill="#904ba6" stroke="#904ba6" stroke-width="1.51"></path><path d="M339,84L352,174L436,148Z" fill="#772aa7" stroke="#772aa7" stroke-width="1.51"></path><path d="M343,16L413,54L433,16Z" fill="#8f48a8" stroke="#8f48a8" stroke-width="1.51"></path><path d="M343,16L339,84L413,54Z" fill="#893faa" stroke="#893faa" stroke-width="1.51"></path><path d="M258,-104L237,1L335,-101Z" fill="#b177a9" stroke="#b177a9" stroke-width="1.51"></path><path d="M210,114L244,202L339,84Z" fill="#7d2eac" stroke="#7d2eac" stroke-width="1.51"></path><path d="M335,-101L237,1L343,16Z" fill="#a565aa" stroke="#a565aa" stroke-width="1.51"></path><path d="M339,84L244,202L352,174Z" fill="#792ba9" stroke="#792ba9" stroke-width="1.51"></path><path d="M352,174L244,202L352,268Z" fill="#7528a5" stroke="#7528a5" stroke-width="1.51"></path><path d="M244,202L261,294L352,268Z" fill="#7526a5" stroke="#7526a5" stroke-width="1.51"></path><path d="M237,1L339,84L343,16Z" fill="#9149ac" stroke="#9149ac" stroke-width="1.51"></path><path d="M237,1L210,114L339,84Z" fill="#883baf" stroke="#883baf" stroke-width="1.51"></path><path d="M181,73L210,114L237,1Z" fill="#8b3fb1" stroke="#8b3fb1" stroke-width="1.51"></path><path d="M133,-117L237,1L258,-104Z" fill="#b67cab" stroke="#b67cab" stroke-width="1.51"></path><path d="M244,202L129,266L261,294Z" fill="#7829a8" stroke="#7829a8" stroke-width="1.51"></path><path d="M133,-117L137,16L237,1Z" fill="#ab6caf" stroke="#ab6caf" stroke-width="1.51"></path><path d="M210,114L129,199L244,202Z" fill="#7d2fad" stroke="#7d2fad" stroke-width="1.51"></path><path d="M129,199L129,266L244,202Z" fill="#7b2dab" stroke="#7b2dab" stroke-width="1.51"></path><path d="M137,16L181,73L237,1Z" fill="#9750b1" stroke="#9750b1" stroke-width="1.51"></path><path d="M181,73L129,199L210,114Z" fill="#8032b0" stroke="#8032b0" stroke-width="1.51"></path><path d="M137,16L53,75L181,73Z" fill="#974eb3" stroke="#974eb3" stroke-width="1.51"></path><path d="M53,75L129,199L181,73Z" fill="#8a3eb2" stroke="#8a3eb2" stroke-width="1.51"></path><path d="M81,235L-49,286L129,266Z" fill="#924da8" stroke="#924da8" stroke-width="1.51"></path><path d="M81,235L129,266L129,199Z" fill="#853aab" stroke="#853aab" stroke-width="1.51"></path><path d="M53,75L72,208L129,199Z" fill="#9148af" stroke="#9148af" stroke-width="1.51"></path><path d="M36,-113L34,-18L133,-117Z" fill="#cb9caa" stroke="#cb9caa" stroke-width="1.51"></path><path d="M133,-117L34,-18L137,16Z" fill="#b97fae" stroke="#b97fae" stroke-width="1.51"></path><path d="M34,-18L53,75L137,16Z" fill="#ab6cb0" stroke="#ab6cb0" stroke-width="1.51"></path><path d="M72,208L81,235L129,199Z" fill="#8b42ac" stroke="#8b42ac" stroke-width="1.51"></path><path d="M-105,-97L-18,-92L36,-113Z" fill="#e1c2a4" stroke="#e1c2a4" stroke-width="1.51"></path><path d="M53,75L-47,197L72,208Z" fill="#9f5bad" stroke="#9f5bad" stroke-width="1.51"></path><path d="M72,208L-49,286L81,235Z" fill="#9754a9" stroke="#9754a9" stroke-width="1.51"></path><path d="M-7,-29L34,-18L36,-113Z" fill="#cc9daa" stroke="#cc9daa" stroke-width="1.51"></path><path d="M-49,67L-47,197L53,75Z" fill="#aa6aaf" stroke="#aa6aaf" stroke-width="1.51"></path><path d="M-47,197L-49,286L72,208Z" fill="#a262a8" stroke="#a262a8" stroke-width="1.51"></path><path d="M-7,-29L-49,67L34,-18Z" fill="#c28cad" stroke="#c28cad" stroke-width="1.51"></path><path d="M-18,-92L-7,-29L36,-113Z" fill="#d6aea8" stroke="#d6aea8" stroke-width="1.51"></path><path d="M34,-18L-49,67L53,75Z" fill="#b478af" stroke="#b478af" stroke-width="1.51"></path><path d="M-49,67L-112,114L-47,197Z" fill="#b57bac" stroke="#b57bac" stroke-width="1.51"></path><path d="M-112,114L-111,164L-47,197Z" fill="#b77faa" stroke="#b77faa" stroke-width="1.51"></path><path d="M-119,3L-49,67L-7,-29Z" fill="#c999ab" stroke="#c999ab" stroke-width="1.51"></path><path d="M-18,-92L-105,-97L-7,-29Z" fill="#ddbaa6" stroke="#ddbaa6" stroke-width="1.51"></path><path d="M-105,-97L-119,3L-7,-29Z" fill="#dbb7a6" stroke="#dbb7a6" stroke-width="1.51"></path><path d="M-116,274L-49,286L-47,197Z" fill="#ae74a5" stroke="#ae74a5" stroke-width="1.51"></path><path d="M-111,164L-116,274L-47,197Z" fill="#b57da7" stroke="#b57da7" stroke-width="1.51"></path><path d="M-119,3L-112,114L-49,67Z" fill="#c390ac" stroke="#c390ac" stroke-width="1.51"></path><path d="M-112,114L-116,274L-111,164Z" fill="#ba85a8" stroke="#ba85a8" stroke-width="1.51"></path><path d="M-119,3L-116,274L-112,114Z" fill="#be88aa" stroke="#be88aa" stroke-width="1.51"></path></svg>