<svg width="300" height="176" xmlns="http://www.w3.org/2000/svg"><path d="M27,-124L152,-105L209,-106Z" fill="#b465d7" stroke="#b465d7" stroke-width="1.51"></path><path d="M59,274L-59,295L327,261Z" fill="#7f31ae" stroke="#7f31ae" stroke-width="1.51"></path><path d="M182,249L59,274L327,261Z" fill="#782aa8" stroke="#782aa8" stroke-width="1.51"></path><path d="M27,-124L209,-106L409,-102Z" fill="#ae5fd2" stroke="#ae5fd2" stroke-width="1.51"></path><path d="M209,-106L308,-70L409,-102Z" fill="#a658cb" stroke="#a658cb" stroke-width="1.51"></path><path d="M327,261L-59,295L438,267Z" fill="#7527a5" stroke="#7527a5" stroke-width="1.51"></path><path d="M317,94L347,167L440,68Z" fill="#792ba9" stroke="#792ba9" stroke-width="1.51"></path><path d="M409,-102L401,-19L440,68Z" fill="#9043ba" stroke="#9043ba" stroke-width="1.51"></path><path d="M327,261L438,267L448,200Z" fill="#7122a0" stroke="#7122a0" stroke-width="1.51"></path><path d="M347,167L327,261L448,200Z" fill="#7325a3" stroke="#7325a3" stroke-width="1.51"></path><path d="M440,68L347,167L448,200Z" fill="#7528a5" stroke="#7528a5" stroke-width="1.51"></path><path d="M401,-19L317,94L440,68Z" fill="#8335b0" stroke="#8335b0" stroke-width="1.51"></path><path d="M297,24L317,94L401,-19Z" fill="#883ab5" stroke="#883ab5" stroke-width="1.51"></path><path d="M308,-70L401,-19L409,-102Z" fill="#9d4fc4" stroke="#9d4fc4" stroke-width="1.51"></path><path d="M308,-70L297,24L401,-19Z" fill="#9547be" stroke="#9547be" stroke-width="1.51"></path><path d="M237,236L182,249L327,261Z" fill="#7628a6" stroke="#7628a6" stroke-width="1.51"></path><path d="M250,162L237,236L327,261Z" fill="#7729a7" stroke="#7729a7" stroke-width="1.51"></path><path d="M250,162L327,261L347,167Z" fill="#7729a7" stroke="#7729a7" stroke-width="1.51"></path><path d="M317,94L250,162L347,167Z" fill="#7a2caa" stroke="#7a2caa" stroke-width="1.51"></path><path d="M222,-23L297,24L308,-70Z" fill="#984ac1" stroke="#984ac1" stroke-width="1.51"></path><path d="M297,24L255,70L317,94Z" fill="#8336b2" stroke="#8336b2" stroke-width="1.51"></path><path d="M255,70L250,162L317,94Z" fill="#7e2fae" stroke="#7e2fae" stroke-width="1.51"></path><path d="M209,-106L222,-23L308,-70Z" fill="#a254c9" stroke="#a254c9" stroke-width="1.51"></path><path d="M222,-23L255,70L297,24Z" fill="#8e3fba" stroke="#8e3fba" stroke-width="1.51"></path><path d="M182,249L237,236L250,162Z" fill="#792ba9" stroke="#792ba9" stroke-width="1.51"></path><path d="M163,77L127,155L250,162Z" fill="#8132b0" stroke="#8132b0" stroke-width="1.51"></path><path d="M163,77L250,162L255,70Z" fill="#8031b0" stroke="#8031b0" stroke-width="1.51"></path><path d="M222,-23L163,77L255,70Z" fill="#8c3db9" stroke="#8c3db9" stroke-width="1.51"></path><path d="M179,-28L163,77L222,-23Z" fill="#9546bf" stroke="#9546bf" stroke-width="1.51"></path><path d="M127,155L182,249L250,162Z" fill="#7c2eac" stroke="#7c2eac" stroke-width="1.51"></path><path d="M209,-106L179,-28L222,-23Z" fill="#a153c9" stroke="#a153c9" stroke-width="1.51"></path><path d="M152,-105L179,-28L209,-106Z" fill="#a85ace" stroke="#a85ace" stroke-width="1.51"></path><path d="M48,24L163,77L179,-28Z" fill="#9647c1" stroke="#9647c1" stroke-width="1.51"></path><path d="M127,155L59,274L182,249Z" fill="#8032af" stroke="#8032af" stroke-width="1.51"></path><path d="M152,-105L48,24L179,-28Z" fill="#a455cb" stroke="#a455cb" stroke-width="1.51"></path><path d="M27,-124L48,24L152,-105Z" fill="#b364d6" stroke="#b364d6" stroke-width="1.51"></path><path d="M66,109L127,155L163,77Z" fill="#8839b6" stroke="#8839b6" stroke-width="1.51"></path><path d="M48,24L66,109L163,77Z" fill="#9143bd" stroke="#9143bd" stroke-width="1.51"></path><path d="M70,148L59,274L127,155Z" fill="#883ab5" stroke="#883ab5" stroke-width="1.51"></path><path d="M27,-124L-9,-97L48,24Z" fill="#bb6cdc" stroke="#bb6cdc" stroke-width="1.51"></path><path d="M66,109L70,148L127,155Z" fill="#8b3db8" stroke="#8b3db8" stroke-width="1.51"></path><path d="M-9,-97L-55,2L48,24Z" fill="#b667d9" stroke="#b667d9" stroke-width="1.51"></path><path d="M48,24L-40,79L66,109Z" fill="#9c4dc5" stroke="#9c4dc5" stroke-width="1.51"></path><path d="M66,109L-4,177L70,148Z" fill="#9143bd" stroke="#9143bd" stroke-width="1.51"></path><path d="M-4,177L59,274L70,148Z" fill="#8f41ba" stroke="#8f41ba" stroke-width="1.51"></path><path d="M-40,79L-4,177L66,109Z" fill="#994ac3" stroke="#994ac3" stroke-width="1.51"></path><path d="M-4,177L-59,295L59,274Z" fill="#9245bc" stroke="#9245bc" stroke-width="1.51"></path><path d="M-114,-99L-9,-97L27,-124Z" fill="#cc7dea" stroke="#cc7dea" stroke-width="1.51"></path><path d="M-55,2L-40,79L48,24Z" fill="#aa5cd0" stroke="#aa5cd0" stroke-width="1.51"></path><path d="M-114,-99L-55,2L-9,-97Z" fill="#c878e6" stroke="#c878e6" stroke-width="1.51"></path><path d="M-96,273L-59,295L-4,177Z" fill="#9b4dc2" stroke="#9b4dc2" stroke-width="1.51"></path><path d="M-111,190L-96,273L-4,177Z" fill="#9f52c6" stroke="#9f52c6" stroke-width="1.51"></path><path d="M-40,79L-111,190L-4,177Z" fill="#a052c8" stroke="#a052c8" stroke-width="1.51"></path><path d="M-114,-99L-126,-29L-55,2Z" fill="#c879e7" stroke="#c879e7" stroke-width="1.51"></path><path d="M-55,2L-131,83L-40,79Z" fill="#af61d4" stroke="#af61d4" stroke-width="1.51"></path><path d="M-131,83L-111,190L-40,79Z" fill="#a95bcf" stroke="#a95bcf" stroke-width="1.51"></path><path d="M-126,-29L-131,83L-55,2Z" fill="#bc6ddd" stroke="#bc6ddd" stroke-width="1.51"></path></svg>