<svg width="300" height="176" xmlns="http://www.w3.org/2000/svg"><path d="M146,110L143,154L237,145Z" fill="#8032b0" stroke="#8032b0" stroke-width="1.51"></path><path d="M237,145L223,67L146,110Z" fill="#8132b1" stroke="#8132b1" stroke-width="1.51"></path><path d="M143,154L163,269L237,145Z" fill="#7c2fac" stroke="#7c2fac" stroke-width="1.51"></path><path d="M223,67L123,-18L146,110Z" fill="#9046b3" stroke="#9046b3" stroke-width="1.51"></path><path d="M342,100L237,2L223,67Z" fill="#8a40ae" stroke="#8a40ae" stroke-width="1.51"></path><path d="M237,145L342,100L223,67Z" fill="#7e30ae" stroke="#7e30ae" stroke-width="1.51"></path><path d="M298,254L341,153L237,145Z" fill="#782aa8" stroke="#782aa8" stroke-width="1.51"></path><path d="M143,154L29,251L163,269Z" fill="#863bab" stroke="#863bab" stroke-width="1.51"></path><path d="M146,110L35,150L143,154Z" fill="#8c41b0" stroke="#8c41b0" stroke-width="1.51"></path><path d="M31,109L35,150L146,110Z" fill="#964eb0" stroke="#964eb0" stroke-width="1.51"></path><path d="M341,153L342,100L237,145Z" fill="#7b2dab" stroke="#7b2dab" stroke-width="1.51"></path><path d="M123,-18L31,109L146,110Z" fill="#9850b3" stroke="#9850b3" stroke-width="1.51"></path><path d="M246,288L298,254L237,145Z" fill="#7729a7" stroke="#7729a7" stroke-width="1.51"></path><path d="M163,269L246,288L237,145Z" fill="#792ba9" stroke="#792ba9" stroke-width="1.51"></path><path d="M237,2L123,-18L223,67Z" fill="#9b55b0" stroke="#9b55b0" stroke-width="1.51"></path><path d="M183,-96L88,-27L123,-18Z" fill="#b479af" stroke="#b479af" stroke-width="1.51"></path><path d="M123,-18L88,-27L31,109Z" fill="#ab6bb0" stroke="#ab6bb0" stroke-width="1.51"></path><path d="M35,150L29,251L143,154Z" fill="#934bad" stroke="#934bad" stroke-width="1.51"></path><path d="M163,269L-90,299L246,288Z" fill="#843aa8" stroke="#843aa8" stroke-width="1.51"></path><path d="M-18,237L29,251L35,150Z" fill="#9e5baa" stroke="#9e5baa" stroke-width="1.51"></path><path d="M333,-27L254,-63L237,2Z" fill="#a666ab" stroke="#a666ab" stroke-width="1.51"></path><path d="M341,153L388,115L342,100Z" fill="#792ba9" stroke="#792ba9" stroke-width="1.51"></path><path d="M429,210L388,115L341,153Z" fill="#7628a6" stroke="#7628a6" stroke-width="1.51"></path><path d="M237,2L183,-96L123,-18Z" fill="#ad6dae" stroke="#ad6dae" stroke-width="1.51"></path><path d="M333,-27L237,2L342,100Z" fill="#944dac" stroke="#944dac" stroke-width="1.51"></path><path d="M405,17L333,-27L342,100Z" fill="#9049aa" stroke="#9049aa" stroke-width="1.51"></path><path d="M-50,207L-18,237L35,150Z" fill="#a464aa" stroke="#a464aa" stroke-width="1.51"></path><path d="M254,-63L183,-96L237,2Z" fill="#af72ac" stroke="#af72ac" stroke-width="1.51"></path><path d="M320,-114L183,-96L254,-63Z" fill="#b982a9" stroke="#b982a9" stroke-width="1.51"></path><path d="M31,109L-39,73L35,150Z" fill="#a563af" stroke="#a563af" stroke-width="1.51"></path><path d="M88,-27L-39,73L31,109Z" fill="#ae6eb0" stroke="#ae6eb0" stroke-width="1.51"></path><path d="M388,115L405,17L342,100Z" fill="#7f32aa" stroke="#7f32aa" stroke-width="1.51"></path><path d="M-94,167L-50,207L35,150Z" fill="#ab6dab" stroke="#ab6dab" stroke-width="1.51"></path><path d="M298,254L429,210L341,153Z" fill="#7526a4" stroke="#7526a4" stroke-width="1.51"></path><path d="M388,115L429,210L405,17Z" fill="#7829a8" stroke="#7829a8" stroke-width="1.51"></path><path d="M427,298L429,210L298,254Z" fill="#7122a1" stroke="#7122a1" stroke-width="1.51"></path><path d="M183,-96L36,-74L88,-27Z" fill="#c08aad" stroke="#c08aad" stroke-width="1.51"></path><path d="M88,-27L-62,-35L-39,73Z" fill="#c28dad" stroke="#c28dad" stroke-width="1.51"></path><path d="M412,-75L320,-114L333,-27Z" fill="#b076a6" stroke="#b076a6" stroke-width="1.51"></path><path d="M333,-27L320,-114L254,-63Z" fill="#b076a8" stroke="#b076a8" stroke-width="1.51"></path><path d="M-50,207L-90,299L-18,237Z" fill="#aa6fa5" stroke="#aa6fa5" stroke-width="1.51"></path><path d="M-39,73L-94,167L35,150Z" fill="#ad6fad" stroke="#ad6fad" stroke-width="1.51"></path><path d="M-92,80L-94,167L-39,73Z" fill="#b77dad" stroke="#b77dad" stroke-width="1.51"></path><path d="M-62,-35L-92,80L-39,73Z" fill="#c390ac" stroke="#c390ac" stroke-width="1.51"></path><path d="M246,288L427,298L298,254Z" fill="#7223a2" stroke="#7223a2" stroke-width="1.51"></path><path d="M36,-74L-62,-35L88,-27Z" fill="#ca9aab" stroke="#ca9aab" stroke-width="1.51"></path><path d="M405,17L412,-75L333,-27Z" fill="#a262a7" stroke="#a262a7" stroke-width="1.51"></path><path d="M429,210L412,-75L405,17Z" fill="#873da8" stroke="#873da8" stroke-width="1.51"></path><path d="M36,-74L-20,-110L-62,-35Z" fill="#d8b2a7" stroke="#d8b2a7" stroke-width="1.51"></path><path d="M183,-96L-20,-110L36,-74Z" fill="#cea1aa" stroke="#cea1aa" stroke-width="1.51"></path><path d="M320,-114L-20,-110L183,-96Z" fill="#c18dac" stroke="#c18dac" stroke-width="1.51"></path><path d="M-94,167L-90,299L-50,207Z" fill="#b178a6" stroke="#b178a6" stroke-width="1.51"></path><path d="M-18,237L-90,299L29,251Z" fill="#a466a6" stroke="#a466a6" stroke-width="1.51"></path><path d="M29,251L-90,299L163,269Z" fill="#9652a7" stroke="#9652a7" stroke-width="1.51"></path><path d="M246,288L-90,299L427,298Z" fill="#7628a6" stroke="#7628a6" stroke-width="1.51"></path><path d="M-20,-110L-106,-70L-62,-35Z" fill="#e0c0a5" stroke="#e0c0a5" stroke-width="1.51"></path><path d="M-62,-35L-147,1L-92,80Z" fill="#d1a5a9" stroke="#d1a5a9" stroke-width="1.51"></path><path d="M-92,80L-147,1L-94,167Z" fill="#c18bad" stroke="#c18bad" stroke-width="1.51"></path><path d="M-94,167L-147,1L-90,299Z" fill="#bb86a9" stroke="#bb86a9" stroke-width="1.51"></path><path d="M-106,-70L-147,1L-62,-35Z" fill="#debda5" stroke="#debda5" stroke-width="1.51"></path></svg>