<svg width="300" height="176" xmlns="http://www.w3.org/2000/svg"><path d="M136,81L167,29L64,56Z" fill="#974eb3" stroke="#974eb3" stroke-width="1.51"></path><path d="M167,29L45,14L64,56Z" fill="#a562b1" stroke="#a562b1" stroke-width="1.51"></path><path d="M167,29L121,-71L45,14Z" fill="#ae6faf" stroke="#ae6faf" stroke-width="1.51"></path><path d="M-38,93L62,146L64,56Z" fill="#a15db1" stroke="#a15db1" stroke-width="1.51"></path><path d="M64,56L62,146L136,81Z" fill="#944ab2" stroke="#944ab2" stroke-width="1.51"></path><path d="M62,146L161,150L136,81Z" fill="#8a3eb2" stroke="#8a3eb2" stroke-width="1.51"></path><path d="M136,81L271,80L167,29Z" fill="#8c40b2" stroke="#8c40b2" stroke-width="1.51"></path><path d="M167,29L257,-77L121,-71Z" fill="#ad6eae" stroke="#ad6eae" stroke-width="1.51"></path><path d="M271,80L254,0L167,29Z" fill="#934baf" stroke="#934baf" stroke-width="1.51"></path><path d="M121,-71L77,-114L45,14Z" fill="#c28dac" stroke="#c28dac" stroke-width="1.51"></path><path d="M257,-77L77,-114L121,-71Z" fill="#bc84ad" stroke="#bc84ad" stroke-width="1.51"></path><path d="M45,14L-38,93L64,56Z" fill="#ae6eb0" stroke="#ae6eb0" stroke-width="1.51"></path><path d="M-56,-24L-38,93L45,14Z" fill="#bd87ad" stroke="#bd87ad" stroke-width="1.51"></path><path d="M161,150L271,80L136,81Z" fill="#8133b1" stroke="#8133b1" stroke-width="1.51"></path><path d="M-39,-104L-56,-24L45,14Z" fill="#cfa3aa" stroke="#cfa3aa" stroke-width="1.51"></path><path d="M254,0L257,-77L167,29Z" fill="#a463ae" stroke="#a463ae" stroke-width="1.51"></path><path d="M296,-26L257,-77L254,0Z" fill="#a869ab" stroke="#a869ab" stroke-width="1.51"></path><path d="M271,80L296,-26L254,0Z" fill="#9752ad" stroke="#9752ad" stroke-width="1.51"></path><path d="M77,-114L-39,-104L45,14Z" fill="#cfa2a9" stroke="#cfa2a9" stroke-width="1.51"></path><path d="M271,80L388,68L296,-26Z" fill="#8e46ac" stroke="#8e46ac" stroke-width="1.51"></path><path d="M161,150L272,165L271,80Z" fill="#7e2fae" stroke="#7e2fae" stroke-width="1.51"></path><path d="M264,246L272,165L161,150Z" fill="#7b2daa" stroke="#7b2daa" stroke-width="1.51"></path><path d="M62,146L129,243L161,150Z" fill="#873cae" stroke="#873cae" stroke-width="1.51"></path><path d="M42,267L129,243L62,146Z" fill="#8f47ab" stroke="#8f47ab" stroke-width="1.51"></path><path d="M272,165L302,147L271,80Z" fill="#7c2eac" stroke="#7c2eac" stroke-width="1.51"></path><path d="M296,-26L304,-83L257,-77Z" fill="#b074a9" stroke="#b074a9" stroke-width="1.51"></path><path d="M257,-77L304,-83L77,-114Z" fill="#bb84ab" stroke="#bb84ab" stroke-width="1.51"></path><path d="M392,-84L304,-83L296,-26Z" fill="#ae74a7" stroke="#ae74a7" stroke-width="1.51"></path><path d="M-38,93L-55,196L62,146Z" fill="#a767ad" stroke="#a767ad" stroke-width="1.51"></path><path d="M-114,205L-55,196L-38,93Z" fill="#b279aa" stroke="#b279aa" stroke-width="1.51"></path><path d="M-56,-24L-140,5L-38,93Z" fill="#ca9aab" stroke="#ca9aab" stroke-width="1.51"></path><path d="M-39,-104L-100,-83L-56,-24Z" fill="#e0c0a5" stroke="#e0c0a5" stroke-width="1.51"></path><path d="M-55,196L42,267L62,146Z" fill="#9e5bab" stroke="#9e5bab" stroke-width="1.51"></path><path d="M302,147L350,109L271,80Z" fill="#7c2dac" stroke="#7c2dac" stroke-width="1.51"></path><path d="M-100,-83L-140,5L-56,-24Z" fill="#ddbaa5" stroke="#ddbaa5" stroke-width="1.51"></path><path d="M302,147L419,166L350,109Z" fill="#782aa8" stroke="#782aa8" stroke-width="1.51"></path><path d="M272,165L333,275L302,147Z" fill="#7829a7" stroke="#7829a7" stroke-width="1.51"></path><path d="M129,243L264,246L161,150Z" fill="#7b2dab" stroke="#7b2dab" stroke-width="1.51"></path><path d="M333,275L264,246L129,243Z" fill="#7628a6" stroke="#7628a6" stroke-width="1.51"></path><path d="M-140,5L-150,81L-38,93Z" fill="#c795ab" stroke="#c795ab" stroke-width="1.51"></path><path d="M419,166L388,68L350,109Z" fill="#792aa8" stroke="#792aa8" stroke-width="1.51"></path><path d="M350,109L388,68L271,80Z" fill="#7d2fac" stroke="#7d2fac" stroke-width="1.51"></path><path d="M-150,81L-114,205L-38,93Z" fill="#bc84ab" stroke="#bc84ab" stroke-width="1.51"></path><path d="M-55,196L-55,272L42,267Z" fill="#a566a7" stroke="#a566a7" stroke-width="1.51"></path><path d="M-114,205L-55,272L-55,196Z" fill="#b077a6" stroke="#b077a6" stroke-width="1.51"></path><path d="M304,-83L392,-84L77,-114Z" fill="#ba83a9" stroke="#ba83a9" stroke-width="1.51"></path><path d="M388,68L392,-84L296,-26Z" fill="#9e5da8" stroke="#9e5da8" stroke-width="1.51"></path><path d="M387,281L333,275L42,267Z" fill="#7427a4" stroke="#7427a4" stroke-width="1.51"></path><path d="M42,267L333,275L129,243Z" fill="#792ba9" stroke="#792ba9" stroke-width="1.51"></path><path d="M264,246L333,275L272,165Z" fill="#7628a6" stroke="#7628a6" stroke-width="1.51"></path><path d="M333,275L419,166L302,147Z" fill="#7527a5" stroke="#7527a5" stroke-width="1.51"></path><path d="M388,68L450,30L392,-84Z" fill="#9653a7" stroke="#9653a7" stroke-width="1.51"></path><path d="M419,166L450,30L388,68Z" fill="#792aa9" stroke="#792aa9" stroke-width="1.51"></path><path d="M-150,81L-146,265L-114,205Z" fill="#bf8ca6" stroke="#bf8ca6" stroke-width="1.51"></path><path d="M-114,205L-146,265L-55,272Z" fill="#b57fa4" stroke="#b57fa4" stroke-width="1.51"></path><path d="M-55,272L387,281L42,267Z" fill="#8034a9" stroke="#8034a9" stroke-width="1.51"></path><path d="M333,275L387,281L419,166Z" fill="#7223a1" stroke="#7223a1" stroke-width="1.51"></path></svg>