<svg width="300" height="176" xmlns="http://www.w3.org/2000/svg"><path d="M-23,268L-150,234L84,301Z" fill="#9649be" stroke="#9649be" stroke-width="1.51"></path><path d="M268,264L84,301L359,269Z" fill="#7527a5" stroke="#7527a5" stroke-width="1.51"></path><path d="M352,104L420,188L422,94Z" fill="#7729a7" stroke="#7729a7" stroke-width="1.51"></path><path d="M216,-123L301,-63L438,-117Z" fill="#a759cc" stroke="#a759cc" stroke-width="1.51"></path><path d="M301,-63L396,8L438,-117Z" fill="#9b4dc2" stroke="#9b4dc2" stroke-width="1.51"></path><path d="M396,8L422,94L438,-117Z" fill="#8e40b8" stroke="#8e40b8" stroke-width="1.51"></path><path d="M359,269L84,301L446,282Z" fill="#7224a2" stroke="#7224a2" stroke-width="1.51"></path><path d="M420,188L359,269L446,282Z" fill="#7022a0" stroke="#7022a0" stroke-width="1.51"></path><path d="M438,-117L422,94L446,282Z" fill="#782aa8" stroke="#782aa8" stroke-width="1.51"></path><path d="M422,94L420,188L446,282Z" fill="#7224a2" stroke="#7224a2" stroke-width="1.51"></path><path d="M301,-63L326,-5L396,8Z" fill="#9446be" stroke="#9446be" stroke-width="1.51"></path><path d="M325,176L359,269L420,188Z" fill="#7425a4" stroke="#7425a4" stroke-width="1.51"></path><path d="M352,104L325,176L420,188Z" fill="#7729a7" stroke="#7729a7" stroke-width="1.51"></path><path d="M396,8L352,104L422,94Z" fill="#7e30ad" stroke="#7e30ad" stroke-width="1.51"></path><path d="M326,-5L352,104L396,8Z" fill="#8739b4" stroke="#8739b4" stroke-width="1.51"></path><path d="M326,-5L239,3L352,104Z" fill="#893bb6" stroke="#893bb6" stroke-width="1.51"></path><path d="M325,176L268,264L359,269Z" fill="#7526a4" stroke="#7526a4" stroke-width="1.51"></path><path d="M207,104L271,173L352,104Z" fill="#7c2eac" stroke="#7c2eac" stroke-width="1.51"></path><path d="M239,3L207,104L352,104Z" fill="#8335b2" stroke="#8335b2" stroke-width="1.51"></path><path d="M271,173L325,176L352,104Z" fill="#792ba9" stroke="#792ba9" stroke-width="1.51"></path><path d="M271,173L268,264L325,176Z" fill="#7829a7" stroke="#7829a7" stroke-width="1.51"></path><path d="M301,-63L239,3L326,-5Z" fill="#9749c0" stroke="#9749c0" stroke-width="1.51"></path><path d="M140,249L84,301L268,264Z" fill="#792aa9" stroke="#792aa9" stroke-width="1.51"></path><path d="M216,-123L239,3L301,-63Z" fill="#a153c8" stroke="#a153c8" stroke-width="1.51"></path><path d="M162,-60L172,-28L216,-123Z" fill="#a657cc" stroke="#a657cc" stroke-width="1.51"></path><path d="M216,-123L172,-28L239,3Z" fill="#a052c8" stroke="#a052c8" stroke-width="1.51"></path><path d="M140,249L268,264L271,173Z" fill="#792aa9" stroke="#792aa9" stroke-width="1.51"></path><path d="M207,104L140,249L271,173Z" fill="#7c2eac" stroke="#7c2eac" stroke-width="1.51"></path><path d="M116,145L140,249L207,104Z" fill="#7f31af" stroke="#7f31af" stroke-width="1.51"></path><path d="M172,-28L133,96L207,104Z" fill="#8a3bb8" stroke="#8a3bb8" stroke-width="1.51"></path><path d="M172,-28L207,104L239,3Z" fill="#9041bb" stroke="#9041bb" stroke-width="1.51"></path><path d="M133,96L116,145L207,104Z" fill="#8234b2" stroke="#8234b2" stroke-width="1.51"></path><path d="M37,-124L162,-60L216,-123Z" fill="#b062d5" stroke="#b062d5" stroke-width="1.51"></path><path d="M71,79L133,96L172,-28Z" fill="#9142bd" stroke="#9142bd" stroke-width="1.51"></path><path d="M162,-60L29,4L172,-28Z" fill="#a354ca" stroke="#a354ca" stroke-width="1.51"></path><path d="M29,4L71,79L172,-28Z" fill="#9d4ec6" stroke="#9d4ec6" stroke-width="1.51"></path><path d="M116,145L56,181L140,249Z" fill="#8537b3" stroke="#8537b3" stroke-width="1.51"></path><path d="M37,-124L29,4L162,-60Z" fill="#b162d5" stroke="#b162d5" stroke-width="1.51"></path><path d="M56,181L84,301L140,249Z" fill="#8435b1" stroke="#8435b1" stroke-width="1.51"></path><path d="M71,79L116,145L133,96Z" fill="#8a3bb8" stroke="#8a3bb8" stroke-width="1.51"></path><path d="M71,79L56,181L116,145Z" fill="#8d3eb9" stroke="#8d3eb9" stroke-width="1.51"></path><path d="M-44,-60L29,4L37,-124Z" fill="#bc6ddd" stroke="#bc6ddd" stroke-width="1.51"></path><path d="M-46,85L56,181L71,79Z" fill="#9648c1" stroke="#9648c1" stroke-width="1.51"></path><path d="M56,181L-23,268L84,301Z" fill="#8c3fb7" stroke="#8c3fb7" stroke-width="1.51"></path><path d="M-46,85L-61,169L56,181Z" fill="#9b4dc4" stroke="#9b4dc4" stroke-width="1.51"></path><path d="M29,4L-13,8L71,79Z" fill="#a556cb" stroke="#a556cb" stroke-width="1.51"></path><path d="M-13,8L-46,85L71,79Z" fill="#a354ca" stroke="#a354ca" stroke-width="1.51"></path><path d="M-61,169L-23,268L56,181Z" fill="#9649c0" stroke="#9649c0" stroke-width="1.51"></path><path d="M-44,-60L-13,8L29,4Z" fill="#b566d8" stroke="#b566d8" stroke-width="1.51"></path><path d="M-115,-87L-44,-60L37,-124Z" fill="#ca7be8" stroke="#ca7be8" stroke-width="1.51"></path><path d="M-61,169L-113,194L-23,268Z" fill="#9f51c6" stroke="#9f51c6" stroke-width="1.51"></path><path d="M-44,-60L-124,-11L-13,8Z" fill="#be6fdf" stroke="#be6fdf" stroke-width="1.51"></path><path d="M-124,-11L-46,85L-13,8Z" fill="#b364d7" stroke="#b364d7" stroke-width="1.51"></path><path d="M-124,-11L-131,71L-46,85Z" fill="#b566d8" stroke="#b566d8" stroke-width="1.51"></path><path d="M-113,194L-150,234L-23,268Z" fill="#a355c8" stroke="#a355c8" stroke-width="1.51"></path><path d="M-131,71L-61,169L-46,85Z" fill="#a759ce" stroke="#a759ce" stroke-width="1.51"></path><path d="M-115,-87L-124,-11L-44,-60Z" fill="#ca7be8" stroke="#ca7be8" stroke-width="1.51"></path><path d="M-131,71L-113,194L-61,169Z" fill="#a95bce" stroke="#a95bce" stroke-width="1.51"></path><path d="M-150,234L-131,71L-124,-11Z" fill="#b162d5" stroke="#b162d5" stroke-width="1.51"></path><path d="M-131,71L-150,234L-113,194Z" fill="#ac5ed1" stroke="#ac5ed1" stroke-width="1.51"></path></svg>