<svg width="300" height="176" xmlns="http://www.w3.org/2000/svg"><path d="M37,-89L173,-98L238,-113Z" fill="#ae5fd3" stroke="#ae5fd3" stroke-width="1.51"></path><path d="M-30,-85L37,-89L238,-113Z" fill="#b869da" stroke="#b869da" stroke-width="1.51"></path><path d="M133,289L52,292L251,301Z" fill="#782aa8" stroke="#782aa8" stroke-width="1.51"></path><path d="M52,292L-24,301L251,301Z" fill="#8133ae" stroke="#8133ae" stroke-width="1.51"></path><path d="M238,-113L353,-92L420,-124Z" fill="#a95bcc" stroke="#a95bcc" stroke-width="1.51"></path><path d="M420,-124L353,-92L425,3Z" fill="#9d4fc4" stroke="#9d4fc4" stroke-width="1.51"></path><path d="M412,79L303,188L432,199Z" fill="#7628a6" stroke="#7628a6" stroke-width="1.51"></path><path d="M425,3L412,79L432,199Z" fill="#782aa8" stroke="#782aa8" stroke-width="1.51"></path><path d="M420,-124L425,3L450,270Z" fill="#8133af" stroke="#8133af" stroke-width="1.51"></path><path d="M432,199L345,288L450,270Z" fill="#7021a0" stroke="#7021a0" stroke-width="1.51"></path><path d="M425,3L432,199L450,270Z" fill="#7426a4" stroke="#7426a4" stroke-width="1.51"></path><path d="M299,85L303,188L412,79Z" fill="#7a2caa" stroke="#7a2caa" stroke-width="1.51"></path><path d="M305,22L412,79L425,3Z" fill="#8638b3" stroke="#8638b3" stroke-width="1.51"></path><path d="M303,188L345,288L432,199Z" fill="#7425a3" stroke="#7425a3" stroke-width="1.51"></path><path d="M353,-92L305,22L425,3Z" fill="#9446bd" stroke="#9446bd" stroke-width="1.51"></path><path d="M305,22L299,85L412,79Z" fill="#8234b0" stroke="#8234b0" stroke-width="1.51"></path><path d="M299,85L272,114L303,188Z" fill="#7b2dab" stroke="#7b2dab" stroke-width="1.51"></path><path d="M303,188L251,301L345,288Z" fill="#7426a4" stroke="#7426a4" stroke-width="1.51"></path><path d="M238,-113L305,22L353,-92Z" fill="#9f51c6" stroke="#9f51c6" stroke-width="1.51"></path><path d="M238,-113L229,14L305,22Z" fill="#994bc2" stroke="#994bc2" stroke-width="1.51"></path><path d="M272,114L251,168L303,188Z" fill="#7b2cab" stroke="#7b2cab" stroke-width="1.51"></path><path d="M251,168L251,301L303,188Z" fill="#7729a7" stroke="#7729a7" stroke-width="1.51"></path><path d="M229,14L299,85L305,22Z" fill="#893bb6" stroke="#893bb6" stroke-width="1.51"></path><path d="M229,14L272,114L299,85Z" fill="#8335b2" stroke="#8335b2" stroke-width="1.51"></path><path d="M173,-98L229,14L238,-113Z" fill="#a455cb" stroke="#a455cb" stroke-width="1.51"></path><path d="M161,169L133,289L251,301Z" fill="#792ba9" stroke="#792ba9" stroke-width="1.51"></path><path d="M161,169L251,301L251,168Z" fill="#7a2baa" stroke="#7a2baa" stroke-width="1.51"></path><path d="M229,14L123,76L272,114Z" fill="#8637b5" stroke="#8637b5" stroke-width="1.51"></path><path d="M161,169L251,168L272,114Z" fill="#7d2fad" stroke="#7d2fad" stroke-width="1.51"></path><path d="M123,76L161,169L272,114Z" fill="#8032b0" stroke="#8032b0" stroke-width="1.51"></path><path d="M173,-98L120,-5L229,14Z" fill="#9e4fc6" stroke="#9e4fc6" stroke-width="1.51"></path><path d="M120,-5L123,76L229,14Z" fill="#9142bd" stroke="#9142bd" stroke-width="1.51"></path><path d="M123,76L60,115L161,169Z" fill="#8839b6" stroke="#8839b6" stroke-width="1.51"></path><path d="M64,195L133,289L161,169Z" fill="#8133b0" stroke="#8133b0" stroke-width="1.51"></path><path d="M37,-89L120,-5L173,-98Z" fill="#ac5ed1" stroke="#ac5ed1" stroke-width="1.51"></path><path d="M60,115L64,195L161,169Z" fill="#893ab6" stroke="#893ab6" stroke-width="1.51"></path><path d="M120,-5L40,15L123,76Z" fill="#9b4cc4" stroke="#9b4cc4" stroke-width="1.51"></path><path d="M64,195L52,292L133,289Z" fill="#8437b2" stroke="#8437b2" stroke-width="1.51"></path><path d="M37,-89L40,15L120,-5Z" fill="#ab5cd1" stroke="#ab5cd1" stroke-width="1.51"></path><path d="M40,15L60,115L123,76Z" fill="#9546c0" stroke="#9546c0" stroke-width="1.51"></path><path d="M37,-89L-30,-85L40,15Z" fill="#b96adb" stroke="#b96adb" stroke-width="1.51"></path><path d="M3,190L-24,301L52,292Z" fill="#9042ba" stroke="#9042ba" stroke-width="1.51"></path><path d="M40,15L-40,66L60,115Z" fill="#9e4fc7" stroke="#9e4fc7" stroke-width="1.51"></path><path d="M60,115L3,190L64,195Z" fill="#9142bc" stroke="#9142bc" stroke-width="1.51"></path><path d="M3,190L52,292L64,195Z" fill="#8d40b9" stroke="#8d40b9" stroke-width="1.51"></path><path d="M-40,66L3,190L60,115Z" fill="#994ac3" stroke="#994ac3" stroke-width="1.51"></path><path d="M-30,-85L-56,22L40,15Z" fill="#b667d8" stroke="#b667d8" stroke-width="1.51"></path><path d="M-56,22L-40,66L40,15Z" fill="#ab5cd1" stroke="#ab5cd1" stroke-width="1.51"></path><path d="M-106,186L-125,281L-24,301Z" fill="#a052c6" stroke="#a052c6" stroke-width="1.51"></path><path d="M-106,186L-24,301L3,190Z" fill="#9b4dc2" stroke="#9b4dc2" stroke-width="1.51"></path><path d="M-40,66L-106,186L3,190Z" fill="#a051c8" stroke="#a051c8" stroke-width="1.51"></path><path d="M-124,-69L-139,-25L-56,22Z" fill="#c677e5" stroke="#c677e5" stroke-width="1.51"></path><path d="M-100,61L-106,186L-40,66Z" fill="#a859ce" stroke="#a859ce" stroke-width="1.51"></path><path d="M-124,-69L-56,22L-30,-85Z" fill="#c475e4" stroke="#c475e4" stroke-width="1.51"></path><path d="M-56,22L-100,61L-40,66Z" fill="#af60d4" stroke="#af60d4" stroke-width="1.51"></path><path d="M-139,-25L-100,61L-56,22Z" fill="#bb6cdd" stroke="#bb6cdd" stroke-width="1.51"></path><path d="M-139,-25L-106,186L-100,61Z" fill="#b163d6" stroke="#b163d6" stroke-width="1.51"></path><path d="M-139,-25L-125,281L-106,186Z" fill="#ac5dd1" stroke="#ac5dd1" stroke-width="1.51"></path></svg>