<svg width="300" height="176" xmlns="http://www.w3.org/2000/svg"><path d="M152,55L221,66L161,5Z" fill="#944ab2" stroke="#944ab2" stroke-width="1.51"></path><path d="M221,66L249,22L161,5Z" fill="#964eb0" stroke="#964eb0" stroke-width="1.51"></path><path d="M249,22L208,-116L161,5Z" fill="#a96aae" stroke="#a96aae" stroke-width="1.51"></path><path d="M323,97L303,-26L249,22Z" fill="#924bac" stroke="#924bac" stroke-width="1.51"></path><path d="M122,166L240,162L221,66Z" fill="#8031af" stroke="#8031af" stroke-width="1.51"></path><path d="M221,66L323,97L249,22Z" fill="#893eae" stroke="#893eae" stroke-width="1.51"></path><path d="M240,162L323,97L221,66Z" fill="#7e30ae" stroke="#7e30ae" stroke-width="1.51"></path><path d="M152,55L122,166L221,66Z" fill="#8334b3" stroke="#8334b3" stroke-width="1.51"></path><path d="M75,151L122,166L152,55Z" fill="#8b3fb2" stroke="#8b3fb2" stroke-width="1.51"></path><path d="M161,5L56,-27L152,55Z" fill="#a562b1" stroke="#a562b1" stroke-width="1.51"></path><path d="M89,-87L56,-27L161,5Z" fill="#b87dae" stroke="#b87dae" stroke-width="1.51"></path><path d="M303,-26L208,-116L249,22Z" fill="#aa6cab" stroke="#aa6cab" stroke-width="1.51"></path><path d="M151,-121L89,-87L161,5Z" fill="#ba81ad" stroke="#ba81ad" stroke-width="1.51"></path><path d="M208,-116L151,-121L161,5Z" fill="#b87fad" stroke="#b87fad" stroke-width="1.51"></path><path d="M240,162L309,147L323,97Z" fill="#7b2dab" stroke="#7b2dab" stroke-width="1.51"></path><path d="M26,97L75,151L152,55Z" fill="#944bb2" stroke="#944bb2" stroke-width="1.51"></path><path d="M56,-27L26,97L152,55Z" fill="#a663b1" stroke="#a663b1" stroke-width="1.51"></path><path d="M303,-26L314,-121L208,-116Z" fill="#b780a9" stroke="#b780a9" stroke-width="1.51"></path><path d="M208,-116L314,-121L151,-121Z" fill="#c290a9" stroke="#c290a9" stroke-width="1.51"></path><path d="M431,-92L314,-121L303,-26Z" fill="#b27aa5" stroke="#b27aa5" stroke-width="1.51"></path><path d="M323,97L388,69L303,-26Z" fill="#8b42ab" stroke="#8b42ab" stroke-width="1.51"></path><path d="M427,154L388,69L323,97Z" fill="#792ba9" stroke="#792ba9" stroke-width="1.51"></path><path d="M56,-27L-40,-17L26,97Z" fill="#ba81ae" stroke="#ba81ae" stroke-width="1.51"></path><path d="M89,-87L0,-101L56,-27Z" fill="#cc9daa" stroke="#cc9daa" stroke-width="1.51"></path><path d="M151,-121L0,-101L89,-87Z" fill="#cea1aa" stroke="#cea1aa" stroke-width="1.51"></path><path d="M0,-101L-40,-17L56,-27Z" fill="#cea0aa" stroke="#cea0aa" stroke-width="1.51"></path><path d="M240,162L320,298L309,147Z" fill="#7829a7" stroke="#7829a7" stroke-width="1.51"></path><path d="M122,166L154,276L240,162Z" fill="#7c2eac" stroke="#7c2eac" stroke-width="1.51"></path><path d="M81,260L154,276L122,166Z" fill="#8438ab" stroke="#8438ab" stroke-width="1.51"></path><path d="M81,260L122,166L75,151Z" fill="#8d43ad" stroke="#8d43ad" stroke-width="1.51"></path><path d="M-6,208L81,260L75,151Z" fill="#9651ab" stroke="#9651ab" stroke-width="1.51"></path><path d="M-40,-17L-55,63L26,97Z" fill="#b980ae" stroke="#b980ae" stroke-width="1.51"></path><path d="M388,69L438,11L303,-26Z" fill="#934ea8" stroke="#934ea8" stroke-width="1.51"></path><path d="M-6,208L75,151L26,97Z" fill="#9e5aae" stroke="#9e5aae" stroke-width="1.51"></path><path d="M-137,293L217,293L154,276Z" fill="#8b43a7" stroke="#8b43a7" stroke-width="1.51"></path><path d="M154,276L217,293L240,162Z" fill="#792aa9" stroke="#792aa9" stroke-width="1.51"></path><path d="M309,147L427,154L323,97Z" fill="#792ba9" stroke="#792ba9" stroke-width="1.51"></path><path d="M388,69L427,154L438,11Z" fill="#7d30a8" stroke="#7d30a8" stroke-width="1.51"></path><path d="M-55,63L-6,208L26,97Z" fill="#a969ae" stroke="#a969ae" stroke-width="1.51"></path><path d="M447,243L427,154L309,147Z" fill="#7426a4" stroke="#7426a4" stroke-width="1.51"></path><path d="M438,11L431,-92L303,-26Z" fill="#a465a6" stroke="#a465a6" stroke-width="1.51"></path><path d="M-55,63L-132,187L-6,208Z" fill="#b278ab" stroke="#b278ab" stroke-width="1.51"></path><path d="M-40,-17L-94,59L-55,63Z" fill="#c591ac" stroke="#c591ac" stroke-width="1.51"></path><path d="M-147,-30L-94,59L-40,-17Z" fill="#d2a8a8" stroke="#d2a8a8" stroke-width="1.51"></path><path d="M-132,187L0,257L-6,208Z" fill="#ab6ea8" stroke="#ab6ea8" stroke-width="1.51"></path><path d="M-6,208L0,257L81,260Z" fill="#9a57a8" stroke="#9a57a8" stroke-width="1.51"></path><path d="M81,260L-137,293L154,276Z" fill="#9653a7" stroke="#9653a7" stroke-width="1.51"></path><path d="M217,293L320,298L240,162Z" fill="#7628a6" stroke="#7628a6" stroke-width="1.51"></path><path d="M427,154L447,243L438,11Z" fill="#7527a5" stroke="#7527a5" stroke-width="1.51"></path><path d="M320,298L447,243L309,147Z" fill="#7325a3" stroke="#7325a3" stroke-width="1.51"></path><path d="M0,-101L-102,-123L-40,-17Z" fill="#dfbfa5" stroke="#dfbfa5" stroke-width="1.51"></path><path d="M151,-121L-102,-123L0,-101Z" fill="#dcbaa6" stroke="#dcbaa6" stroke-width="1.51"></path><path d="M314,-121L-102,-123L151,-121Z" fill="#cb9caa" stroke="#cb9caa" stroke-width="1.51"></path><path d="M-102,-123L-147,-30L-40,-17Z" fill="#e2c4a4" stroke="#e2c4a4" stroke-width="1.51"></path><path d="M-94,59L-132,187L-55,63Z" fill="#bb83ac" stroke="#bb83ac" stroke-width="1.51"></path><path d="M-147,-30L-132,187L-94,59Z" fill="#c695ab" stroke="#c695ab" stroke-width="1.51"></path><path d="M-132,187L-137,293L0,257Z" fill="#b27aa5" stroke="#b27aa5" stroke-width="1.51"></path><path d="M0,257L-137,293L81,260Z" fill="#a263a6" stroke="#a263a6" stroke-width="1.51"></path><path d="M217,293L-137,293L320,298Z" fill="#7d30a7" stroke="#7d30a7" stroke-width="1.51"></path><path d="M-147,-30L-137,293L-132,187Z" fill="#c18fa8" stroke="#c18fa8" stroke-width="1.51"></path></svg>