<svg width="300" height="176" xmlns="http://www.w3.org/2000/svg"><path d="M120,62L84,-21L73,69Z" fill="#a461b1" stroke="#a461b1" stroke-width="1.51"></path><path d="M120,62L152,12L84,-21Z" fill="#a460b1" stroke="#a460b1" stroke-width="1.51"></path><path d="M152,12L145,-81L84,-21Z" fill="#b173af" stroke="#b173af" stroke-width="1.51"></path><path d="M-39,-16L-28,92L73,69Z" fill="#b477af" stroke="#b477af" stroke-width="1.51"></path><path d="M175,187L233,96L120,62Z" fill="#8133b1" stroke="#8133b1" stroke-width="1.51"></path><path d="M84,-21L-39,-16L73,69Z" fill="#b77cae" stroke="#b77cae" stroke-width="1.51"></path><path d="M-40,-66L-39,-16L84,-21Z" fill="#cb9baa" stroke="#cb9baa" stroke-width="1.51"></path><path d="M145,-81L35,-107L84,-21Z" fill="#c490ac" stroke="#c490ac" stroke-width="1.51"></path><path d="M120,62L233,96L152,12Z" fill="#8e44b2" stroke="#8e44b2" stroke-width="1.51"></path><path d="M152,12L259,-25L145,-81Z" fill="#aa6baf" stroke="#aa6baf" stroke-width="1.51"></path><path d="M73,197L120,62L73,69Z" fill="#9349b2" stroke="#9349b2" stroke-width="1.51"></path><path d="M35,-107L-40,-66L84,-21Z" fill="#cea1a9" stroke="#cea1a9" stroke-width="1.51"></path><path d="M-28,92L-7,166L73,69Z" fill="#a462b0" stroke="#a462b0" stroke-width="1.51"></path><path d="M-7,166L73,197L73,69Z" fill="#9b55ae" stroke="#9b55ae" stroke-width="1.51"></path><path d="M233,96L259,-25L152,12Z" fill="#9750b0" stroke="#9750b0" stroke-width="1.51"></path><path d="M73,197L175,187L120,62Z" fill="#883bb0" stroke="#883bb0" stroke-width="1.51"></path><path d="M259,-25L267,-99L145,-81Z" fill="#b47aab" stroke="#b47aab" stroke-width="1.51"></path><path d="M145,-81L267,-99L35,-107Z" fill="#bf89ad" stroke="#bf89ad" stroke-width="1.51"></path><path d="M175,187L214,204L233,96Z" fill="#7d2fad" stroke="#7d2fad" stroke-width="1.51"></path><path d="M233,96L327,4L259,-25Z" fill="#954ead" stroke="#954ead" stroke-width="1.51"></path><path d="M175,239L214,204L175,187Z" fill="#7b2dab" stroke="#7b2dab" stroke-width="1.51"></path><path d="M-40,-66L-129,6L-39,-16Z" fill="#d5aea7" stroke="#d5aea7" stroke-width="1.51"></path><path d="M-39,-16L-129,6L-28,92Z" fill="#c795ab" stroke="#c795ab" stroke-width="1.51"></path><path d="M-28,92L-118,112L-7,166Z" fill="#b175ad" stroke="#b175ad" stroke-width="1.51"></path><path d="M-129,6L-118,112L-28,92Z" fill="#c18bac" stroke="#c18bac" stroke-width="1.51"></path><path d="M73,197L175,239L175,187Z" fill="#8032ad" stroke="#8032ad" stroke-width="1.51"></path><path d="M84,263L175,239L73,197Z" fill="#863bab" stroke="#863bab" stroke-width="1.51"></path><path d="M259,-25L297,-104L267,-99Z" fill="#b47ba9" stroke="#b47ba9" stroke-width="1.51"></path><path d="M347,63L327,4L233,96Z" fill="#8a40ad" stroke="#8a40ad" stroke-width="1.51"></path><path d="M-31,297L73,197L-7,166Z" fill="#9e5ca9" stroke="#9e5ca9" stroke-width="1.51"></path><path d="M-31,297L84,263L73,197Z" fill="#9551a8" stroke="#9551a8" stroke-width="1.51"></path><path d="M327,4L297,-104L259,-25Z" fill="#a96ba9" stroke="#a96ba9" stroke-width="1.51"></path><path d="M267,-99L297,-104L35,-107Z" fill="#bf8aab" stroke="#bf8aab" stroke-width="1.51"></path><path d="M345,157L347,63L233,96Z" fill="#7c2eac" stroke="#7c2eac" stroke-width="1.51"></path><path d="M327,4L430,-27L297,-104Z" fill="#a76aa7" stroke="#a76aa7" stroke-width="1.51"></path><path d="M-127,283L-116,208L-118,112Z" fill="#bb86a6" stroke="#bb86a6" stroke-width="1.51"></path><path d="M-40,-66L-141,-102L-129,6Z" fill="#e3c5a4" stroke="#e3c5a4" stroke-width="1.51"></path><path d="M35,-107L-141,-102L-40,-66Z" fill="#e2c4a4" stroke="#e2c4a4" stroke-width="1.51"></path><path d="M-118,112L-116,208L-7,166Z" fill="#b57caa" stroke="#b57caa" stroke-width="1.51"></path><path d="M-127,283L-118,112L-129,6Z" fill="#bf8baa" stroke="#bf8baa" stroke-width="1.51"></path><path d="M214,204L345,157L233,96Z" fill="#7c2dac" stroke="#7c2dac" stroke-width="1.51"></path><path d="M315,295L345,157L214,204Z" fill="#7728a6" stroke="#7728a6" stroke-width="1.51"></path><path d="M-116,208L-31,297L-7,166Z" fill="#ab6fa7" stroke="#ab6fa7" stroke-width="1.51"></path><path d="M84,263L242,294L175,239Z" fill="#792ba9" stroke="#792ba9" stroke-width="1.51"></path><path d="M345,157L392,86L347,63Z" fill="#7a2caa" stroke="#7a2caa" stroke-width="1.51"></path><path d="M347,63L430,-27L327,4Z" fill="#9550a9" stroke="#9550a9" stroke-width="1.51"></path><path d="M-31,297L242,294L84,263Z" fill="#863da8" stroke="#863da8" stroke-width="1.51"></path><path d="M175,239L242,294L214,204Z" fill="#782aa8" stroke="#782aa8" stroke-width="1.51"></path><path d="M-116,208L-127,283L-31,297Z" fill="#b27aa4" stroke="#b27aa4" stroke-width="1.51"></path><path d="M-141,-102L-127,283L-129,6Z" fill="#ca9bab" stroke="#ca9bab" stroke-width="1.51"></path><path d="M315,295L393,183L345,157Z" fill="#7426a4" stroke="#7426a4" stroke-width="1.51"></path><path d="M345,157L393,183L392,86Z" fill="#7729a7" stroke="#7729a7" stroke-width="1.51"></path><path d="M393,183L430,-27L392,86Z" fill="#7c2ea9" stroke="#7c2ea9" stroke-width="1.51"></path><path d="M392,86L430,-27L347,63Z" fill="#8b43a9" stroke="#8b43a9" stroke-width="1.51"></path><path d="M-31,297L315,295L242,294Z" fill="#7728a7" stroke="#7728a7" stroke-width="1.51"></path><path d="M242,294L315,295L214,204Z" fill="#7527a5" stroke="#7527a5" stroke-width="1.51"></path><path d="M430,-27L449,-62L297,-104Z" fill="#ac71a5" stroke="#ac71a5" stroke-width="1.51"></path><path d="M393,183L449,-62L430,-27Z" fill="#8d46a7" stroke="#8d46a7" stroke-width="1.51"></path><path d="M393,183L407,271L449,-62Z" fill="#7628a6" stroke="#7628a6" stroke-width="1.51"></path><path d="M315,295L407,271L393,183Z" fill="#7123a1" stroke="#7123a1" stroke-width="1.51"></path></svg>