<svg width="300" height="176" xmlns="http://www.w3.org/2000/svg"><path d="M174,114L255,174L221,110Z" fill="#7829a7" stroke="#7829a7" stroke-width="1.51"></path><path d="M174,114L121,179L255,174Z" fill="#7728a7" stroke="#7728a7" stroke-width="1.51"></path><path d="M255,174L338,60L221,110Z" fill="#7527a5" stroke="#7527a5" stroke-width="1.51"></path><path d="M269,291L309,192L255,174Z" fill="#6c1d9c" stroke="#6c1d9c" stroke-width="1.51"></path><path d="M67,117L74,158L121,179Z" fill="#9b59a8" stroke="#9b59a8" stroke-width="1.51"></path><path d="M121,179L149,278L255,174Z" fill="#7526a5" stroke="#7526a5" stroke-width="1.51"></path><path d="M32,295L149,278L121,179Z" fill="#914da5" stroke="#914da5" stroke-width="1.51"></path><path d="M123,-11L67,117L174,114Z" fill="#a05bb2" stroke="#a05bb2" stroke-width="1.51"></path><path d="M174,114L67,117L121,179Z" fill="#8d44ac" stroke="#8d44ac" stroke-width="1.51"></path><path d="M149,278L269,291L255,174Z" fill="#7022a0" stroke="#7022a0" stroke-width="1.51"></path><path d="M269,291L327,265L309,192Z" fill="#6a1b9a" stroke="#6a1b9a" stroke-width="1.51"></path><path d="M396,73L338,60L309,192Z" fill="#7425a4" stroke="#7425a4" stroke-width="1.51"></path><path d="M309,192L338,60L255,174Z" fill="#6f219f" stroke="#6f219f" stroke-width="1.51"></path><path d="M221,110L238,-14L174,114Z" fill="#8f46ad" stroke="#8f46ad" stroke-width="1.51"></path><path d="M338,60L238,-14L221,110Z" fill="#9a57a7" stroke="#9a57a7" stroke-width="1.51"></path><path d="M238,-14L123,-11L174,114Z" fill="#b277ac" stroke="#b277ac" stroke-width="1.51"></path><path d="M338,60L332,-26L238,-14Z" fill="#b8879f" stroke="#b8879f" stroke-width="1.51"></path><path d="M438,186L396,73L309,192Z" fill="#6e1f9e" stroke="#6e1f9e" stroke-width="1.51"></path><path d="M-55,185L32,295L74,158Z" fill="#b6839f" stroke="#b6839f" stroke-width="1.51"></path><path d="M74,158L32,295L121,179Z" fill="#9d5da4" stroke="#9d5da4" stroke-width="1.51"></path><path d="M149,278L32,295L269,291Z" fill="#7728a7" stroke="#7728a7" stroke-width="1.51"></path><path d="M416,0L332,-26L338,60Z" fill="#b582a0" stroke="#b582a0" stroke-width="1.51"></path><path d="M238,-14L133,-86L123,-11Z" fill="#c899a9" stroke="#c899a9" stroke-width="1.51"></path><path d="M67,117L-23,108L74,158Z" fill="#b47ba8" stroke="#b47ba8" stroke-width="1.51"></path><path d="M31,0L-23,108L67,117Z" fill="#c998ab" stroke="#c998ab" stroke-width="1.51"></path><path d="M123,-11L31,0L67,117Z" fill="#d0a4a9" stroke="#d0a4a9" stroke-width="1.51"></path><path d="M327,265L438,186L309,192Z" fill="#6a1b9a" stroke="#6a1b9a" stroke-width="1.51"></path><path d="M327,265L415,295L438,186Z" fill="#6a1b9a" stroke="#6a1b9a" stroke-width="1.51"></path><path d="M269,291L415,295L327,265Z" fill="#6a1b9a" stroke="#6a1b9a" stroke-width="1.51"></path><path d="M-28,301L415,295L269,291Z" fill="#7123a1" stroke="#7123a1" stroke-width="1.51"></path><path d="M123,-11L47,-120L31,0Z" fill="#e9d1a1" stroke="#e9d1a1" stroke-width="1.51"></path><path d="M270,-111L133,-86L238,-14Z" fill="#c495a5" stroke="#c495a5" stroke-width="1.51"></path><path d="M-23,108L-55,185L74,158Z" fill="#c192a2" stroke="#c192a2" stroke-width="1.51"></path><path d="M438,186L416,0L396,73Z" fill="#782ba7" stroke="#782ba7" stroke-width="1.51"></path><path d="M396,73L416,0L338,60Z" fill="#9d5da4" stroke="#9d5da4" stroke-width="1.51"></path><path d="M-55,185L-28,301L32,295Z" fill="#bd8e9e" stroke="#bd8e9e" stroke-width="1.51"></path><path d="M32,295L-28,301L269,291Z" fill="#9653a4" stroke="#9653a4" stroke-width="1.51"></path><path d="M344,-82L270,-111L332,-26Z" fill="#bd8e9e" stroke="#bd8e9e" stroke-width="1.51"></path><path d="M332,-26L270,-111L238,-14Z" fill="#be909f" stroke="#be909f" stroke-width="1.51"></path><path d="M416,0L344,-82L332,-26Z" fill="#bd8e9e" stroke="#bd8e9e" stroke-width="1.51"></path><path d="M-23,108L-106,65L-55,185Z" fill="#c596a6" stroke="#c596a6" stroke-width="1.51"></path><path d="M31,0L-8,-34L-23,108Z" fill="#f1e19d" stroke="#f1e19d" stroke-width="1.51"></path><path d="M47,-120L-8,-34L31,0Z" fill="#f8ee9a" stroke="#f8ee9a" stroke-width="1.51"></path><path d="M270,-111L47,-120L133,-86Z" fill="#ca9aab" stroke="#ca9aab" stroke-width="1.51"></path><path d="M133,-86L47,-120L123,-11Z" fill="#dcbaa6" stroke="#dcbaa6" stroke-width="1.51"></path><path d="M-141,22L-106,65L-8,-34Z" fill="#f5e99b" stroke="#f5e99b" stroke-width="1.51"></path><path d="M-8,-34L-106,65L-23,108Z" fill="#e5c9a3" stroke="#e5c9a3" stroke-width="1.51"></path><path d="M-55,185L-151,300L-28,301Z" fill="#bd8e9e" stroke="#bd8e9e" stroke-width="1.51"></path><path d="M47,-120L-18,-80L-8,-34Z" fill="#fdf998" stroke="#fdf998" stroke-width="1.51"></path><path d="M-106,65L-130,182L-55,185Z" fill="#c192a2" stroke="#c192a2" stroke-width="1.51"></path><path d="M416,0L414,-103L344,-82Z" fill="#bd8e9e" stroke="#bd8e9e" stroke-width="1.51"></path><path d="M344,-82L414,-103L270,-111Z" fill="#bd8e9e" stroke="#bd8e9e" stroke-width="1.51"></path><path d="M438,186L414,-103L416,0Z" fill="#a970a2" stroke="#a970a2" stroke-width="1.51"></path><path d="M-106,65L-141,22L-130,182Z" fill="#ca9aab" stroke="#ca9aab" stroke-width="1.51"></path><path d="M-153,-85L-141,22L-8,-34Z" fill="#fffe96" stroke="#fffe96" stroke-width="1.51"></path><path d="M-130,182L-151,300L-55,185Z" fill="#bd8e9e" stroke="#bd8e9e" stroke-width="1.51"></path><path d="M-141,22L-151,300L-130,182Z" fill="#be8f9f" stroke="#be8f9f" stroke-width="1.51"></path><path d="M-141,22L-153,-85L-151,300Z" fill="#d0a4a9" stroke="#d0a4a9" stroke-width="1.51"></path><path d="M-18,-80L-153,-85L-8,-34Z" fill="#fffe96" stroke="#fffe96" stroke-width="1.51"></path><path d="M47,-120L-153,-85L-18,-80Z" fill="#fffe96" stroke="#fffe96" stroke-width="1.51"></path></svg>