<svg width="300" height="176" xmlns="http://www.w3.org/2000/svg"><path d="M146,104L75,109L85,156Z" fill="#8e44b1" stroke="#8e44b1" stroke-width="1.51"></path><path d="M85,156L127,200L146,104Z" fill="#883cb0" stroke="#883cb0" stroke-width="1.51"></path><path d="M146,104L168,27L75,109Z" fill="#8d40b4" stroke="#8d40b4" stroke-width="1.51"></path><path d="M232,83L168,27L146,104Z" fill="#893cb2" stroke="#893cb2" stroke-width="1.51"></path><path d="M266,146L232,83L146,104Z" fill="#8031b0" stroke="#8031b0" stroke-width="1.51"></path><path d="M168,27L82,-16L75,109Z" fill="#9f5ab2" stroke="#9f5ab2" stroke-width="1.51"></path><path d="M127,200L266,146L146,104Z" fill="#7f31af" stroke="#7f31af" stroke-width="1.51"></path><path d="M79,289L118,273L127,200Z" fill="#853baa" stroke="#853baa" stroke-width="1.51"></path><path d="M249,299L266,146L127,200Z" fill="#7a2caa" stroke="#7a2caa" stroke-width="1.51"></path><path d="M-24,237L79,289L85,156Z" fill="#9650aa" stroke="#9650aa" stroke-width="1.51"></path><path d="M85,156L79,289L127,200Z" fill="#8a41ac" stroke="#8a41ac" stroke-width="1.51"></path><path d="M-53,195L-24,237L85,156Z" fill="#a160aa" stroke="#a160aa" stroke-width="1.51"></path><path d="M82,-16L-23,23L75,109Z" fill="#ae6fb0" stroke="#ae6fb0" stroke-width="1.51"></path><path d="M-53,195L85,156L75,109Z" fill="#9c58ae" stroke="#9c58ae" stroke-width="1.51"></path><path d="M-63,79L-53,195L75,109Z" fill="#a969ae" stroke="#a969ae" stroke-width="1.51"></path><path d="M-23,23L-63,79L75,109Z" fill="#ae70b0" stroke="#ae70b0" stroke-width="1.51"></path><path d="M168,27L215,-63L82,-16Z" fill="#a866b0" stroke="#a866b0" stroke-width="1.51"></path><path d="M232,83L240,-33L168,27Z" fill="#9850b0" stroke="#9850b0" stroke-width="1.51"></path><path d="M302,24L240,-33L232,83Z" fill="#964fae" stroke="#964fae" stroke-width="1.51"></path><path d="M266,146L320,73L232,83Z" fill="#7e30ae" stroke="#7e30ae" stroke-width="1.51"></path><path d="M240,-33L215,-63L168,27Z" fill="#a766ae" stroke="#a766ae" stroke-width="1.51"></path><path d="M240,-33L296,-84L215,-63Z" fill="#b175ab" stroke="#b175ab" stroke-width="1.51"></path><path d="M320,73L302,24L232,83Z" fill="#893eae" stroke="#893eae" stroke-width="1.51"></path><path d="M266,146L322,199L320,73Z" fill="#7a2caa" stroke="#7a2caa" stroke-width="1.51"></path><path d="M118,273L249,299L127,200Z" fill="#792ba9" stroke="#792ba9" stroke-width="1.51"></path><path d="M79,289L249,299L118,273Z" fill="#792aa8" stroke="#792aa8" stroke-width="1.51"></path><path d="M249,299L322,199L266,146Z" fill="#7729a7" stroke="#7729a7" stroke-width="1.51"></path><path d="M-23,23L-100,18L-63,79Z" fill="#c38fac" stroke="#c38fac" stroke-width="1.51"></path><path d="M-143,106L-135,189L-53,195Z" fill="#bb85a8" stroke="#bb85a8" stroke-width="1.51"></path><path d="M-36,-86L-100,18L-23,23Z" fill="#d0a4a9" stroke="#d0a4a9" stroke-width="1.51"></path><path d="M-36,-86L-23,23L82,-16Z" fill="#c896ab" stroke="#c896ab" stroke-width="1.51"></path><path d="M148,-125L33,-105L82,-16Z" fill="#c796ab" stroke="#c796ab" stroke-width="1.51"></path><path d="M215,-63L148,-125L82,-16Z" fill="#b77cae" stroke="#b77cae" stroke-width="1.51"></path><path d="M-53,195L-130,260L-24,237Z" fill="#ae75a6" stroke="#ae75a6" stroke-width="1.51"></path><path d="M-24,237L-130,260L79,289Z" fill="#a465a6" stroke="#a465a6" stroke-width="1.51"></path><path d="M-143,106L-53,195L-63,79Z" fill="#b880ab" stroke="#b880ab" stroke-width="1.51"></path><path d="M-100,18L-143,106L-63,79Z" fill="#c390ac" stroke="#c390ac" stroke-width="1.51"></path><path d="M33,-105L-36,-86L82,-16Z" fill="#cfa3a9" stroke="#cfa3a9" stroke-width="1.51"></path><path d="M-135,189L-130,260L-53,195Z" fill="#b781a6" stroke="#b781a6" stroke-width="1.51"></path><path d="M-143,106L-130,260L-135,189Z" fill="#bf8ca6" stroke="#bf8ca6" stroke-width="1.51"></path><path d="M215,-63L296,-84L148,-125Z" fill="#ba83aa" stroke="#ba83aa" stroke-width="1.51"></path><path d="M302,24L296,-84L240,-33Z" fill="#a667ab" stroke="#a667ab" stroke-width="1.51"></path><path d="M392,-64L296,-84L302,24Z" fill="#a86aa8" stroke="#a86aa8" stroke-width="1.51"></path><path d="M249,299L356,286L322,199Z" fill="#7325a3" stroke="#7325a3" stroke-width="1.51"></path><path d="M322,199L420,144L320,73Z" fill="#782aa8" stroke="#782aa8" stroke-width="1.51"></path><path d="M435,9L392,-64L302,24Z" fill="#9c5ba7" stroke="#9c5ba7" stroke-width="1.51"></path><path d="M148,-125L-102,-88L33,-105Z" fill="#d8b3a6" stroke="#d8b3a6" stroke-width="1.51"></path><path d="M33,-105L-102,-88L-36,-86Z" fill="#e0c0a4" stroke="#e0c0a4" stroke-width="1.51"></path><path d="M-36,-86L-102,-88L-100,18Z" fill="#debca5" stroke="#debca5" stroke-width="1.51"></path><path d="M-100,18L-102,-88L-143,106Z" fill="#d4aca8" stroke="#d4aca8" stroke-width="1.51"></path><path d="M429,256L420,144L322,199Z" fill="#7326a3" stroke="#7326a3" stroke-width="1.51"></path><path d="M429,256L446,90L420,144Z" fill="#7426a4" stroke="#7426a4" stroke-width="1.51"></path><path d="M420,144L446,90L320,73Z" fill="#792aa9" stroke="#792aa9" stroke-width="1.51"></path><path d="M435,9L302,24L320,73Z" fill="#8e47aa" stroke="#8e47aa" stroke-width="1.51"></path><path d="M296,-84L392,-64L148,-125Z" fill="#b881a8" stroke="#b881a8" stroke-width="1.51"></path><path d="M356,286L429,256L322,199Z" fill="#7223a2" stroke="#7223a2" stroke-width="1.51"></path><path d="M446,90L435,9L320,73Z" fill="#853ba9" stroke="#853ba9" stroke-width="1.51"></path></svg>