<svg width="300" height="176" xmlns="http://www.w3.org/2000/svg"><path d="M182,66L261,83L222,24Z" fill="#e64e3d" stroke="#e64e3d" stroke-width="1.51"></path><path d="M182,66L244,148L261,83Z" fill="#e61312" stroke="#e61312" stroke-width="1.51"></path><path d="M222,24L172,-25L182,66Z" fill="#e0776b" stroke="#e0776b" stroke-width="1.51"></path><path d="M261,83L353,-16L222,24Z" fill="#dc6a5b" stroke="#dc6a5b" stroke-width="1.51"></path><path d="M222,24L273,-83L172,-25Z" fill="#d58984" stroke="#d58984" stroke-width="1.51"></path><path d="M332,157L350,112L261,83Z" fill="#dd0a09" stroke="#dd0a09" stroke-width="1.51"></path><path d="M244,148L332,157L261,83Z" fill="#de0a09" stroke="#de0a09" stroke-width="1.51"></path><path d="M182,66L143,209L244,148Z" fill="#e31010" stroke="#e31010" stroke-width="1.51"></path><path d="M74,-23L80,99L182,66Z" fill="#e4756a" stroke="#e4756a" stroke-width="1.51"></path><path d="M350,112L353,-16L261,83Z" fill="#df4935" stroke="#df4935" stroke-width="1.51"></path><path d="M353,-16L273,-83L222,24Z" fill="#d08680" stroke="#d08680" stroke-width="1.51"></path><path d="M80,99L143,209L182,66Z" fill="#e92e22" stroke="#e92e22" stroke-width="1.51"></path><path d="M244,148L232,299L332,157Z" fill="#d70302" stroke="#d70302" stroke-width="1.51"></path><path d="M172,-25L74,-23L182,66Z" fill="#db8b87" stroke="#db8b87" stroke-width="1.51"></path><path d="M116,-107L74,-23L172,-25Z" fill="#d29c9f" stroke="#d29c9f" stroke-width="1.51"></path><path d="M353,-16L345,-77L273,-83Z" fill="#cf867f" stroke="#cf867f" stroke-width="1.51"></path><path d="M82,278L151,240L143,209Z" fill="#e13424" stroke="#e13424" stroke-width="1.51"></path><path d="M143,209L151,240L244,148Z" fill="#df0c0b" stroke="#df0c0b" stroke-width="1.51"></path><path d="M350,112L415,86L353,-16Z" fill="#e04734" stroke="#e04734" stroke-width="1.51"></path><path d="M353,-16L394,-114L345,-77Z" fill="#cf867f" stroke="#cf867f" stroke-width="1.51"></path><path d="M390,177L415,86L350,112Z" fill="#dc0908" stroke="#dc0908" stroke-width="1.51"></path><path d="M80,99L76,194L143,209Z" fill="#e14b38" stroke="#e14b38" stroke-width="1.51"></path><path d="M-21,147L76,194L80,99Z" fill="#dd6f61" stroke="#dd6f61" stroke-width="1.51"></path><path d="M332,157L390,177L350,112Z" fill="#d90404" stroke="#d90404" stroke-width="1.51"></path><path d="M363,257L390,177L332,157Z" fill="#d50000" stroke="#d50000" stroke-width="1.51"></path><path d="M415,86L420,17L353,-16Z" fill="#d96b5b" stroke="#d96b5b" stroke-width="1.51"></path><path d="M394,-114L116,-107L273,-83Z" fill="#d28782" stroke="#d28782" stroke-width="1.51"></path><path d="M273,-83L116,-107L172,-25Z" fill="#d88b87" stroke="#d88b87" stroke-width="1.51"></path><path d="M116,-107L61,-78L74,-23Z" fill="#c2aebc" stroke="#c2aebc" stroke-width="1.51"></path><path d="M-40,79L-21,147L80,99Z" fill="#da8882" stroke="#da8882" stroke-width="1.51"></path><path d="M151,240L232,299L244,148Z" fill="#dd0908" stroke="#dd0908" stroke-width="1.51"></path><path d="M82,278L232,299L151,240Z" fill="#e10e0d" stroke="#e10e0d" stroke-width="1.51"></path><path d="M232,299L363,257L332,157Z" fill="#d50000" stroke="#d50000" stroke-width="1.51"></path><path d="M345,-77L394,-114L273,-83Z" fill="#cf867f" stroke="#cf867f" stroke-width="1.51"></path><path d="M420,17L394,-114L353,-16Z" fill="#cf867f" stroke="#cf867f" stroke-width="1.51"></path><path d="M76,194L82,278L143,209Z" fill="#df4936" stroke="#df4936" stroke-width="1.51"></path><path d="M76,194L-28,277L82,278Z" fill="#d96e5f" stroke="#d96e5f" stroke-width="1.51"></path><path d="M-40,79L80,99L74,-23Z" fill="#d3999b" stroke="#d3999b" stroke-width="1.51"></path><path d="M-51,-32L-40,79L74,-23Z" fill="#90d0f4" stroke="#90d0f4" stroke-width="1.51"></path><path d="M61,-78L-24,-71L74,-23Z" fill="#a5c5e1" stroke="#a5c5e1" stroke-width="1.51"></path><path d="M116,-107L-24,-71L61,-78Z" fill="#afbed6" stroke="#afbed6" stroke-width="1.51"></path><path d="M-24,-71L-51,-32L74,-23Z" fill="#80d6ff" stroke="#80d6ff" stroke-width="1.51"></path><path d="M363,257L422,287L390,177Z" fill="#d50000" stroke="#d50000" stroke-width="1.51"></path><path d="M390,177L422,287L415,86Z" fill="#d50000" stroke="#d50000" stroke-width="1.51"></path><path d="M415,86L422,287L420,17Z" fill="#dc0707" stroke="#dc0707" stroke-width="1.51"></path><path d="M232,299L422,287L363,257Z" fill="#d50000" stroke="#d50000" stroke-width="1.51"></path><path d="M-114,180L-28,277L-21,147Z" fill="#cf867f" stroke="#cf867f" stroke-width="1.51"></path><path d="M-21,147L-28,277L76,194Z" fill="#d18178" stroke="#d18178" stroke-width="1.51"></path><path d="M82,278L-28,277L232,299Z" fill="#df4d3a" stroke="#df4d3a" stroke-width="1.51"></path><path d="M-129,106L-21,147L-40,79Z" fill="#d88b87" stroke="#d88b87" stroke-width="1.51"></path><path d="M-142,-11L-129,106L-40,79Z" fill="#c9a7b0" stroke="#c9a7b0" stroke-width="1.51"></path><path d="M-129,106L-114,180L-21,147Z" fill="#d38883" stroke="#d38883" stroke-width="1.51"></path><path d="M-51,-32L-142,-11L-40,79Z" fill="#97cdee" stroke="#97cdee" stroke-width="1.51"></path><path d="M-145,-120L-142,-11L-51,-32Z" fill="#80d6ff" stroke="#80d6ff" stroke-width="1.51"></path><path d="M-24,-71L-145,-120L-51,-32Z" fill="#80d6ff" stroke="#80d6ff" stroke-width="1.51"></path><path d="M116,-107L-145,-120L-24,-71Z" fill="#80d6ff" stroke="#80d6ff" stroke-width="1.51"></path><path d="M394,-114L-145,-120L116,-107Z" fill="#d29b9f" stroke="#d29b9f" stroke-width="1.51"></path><path d="M-129,106L-153,272L-114,180Z" fill="#cf867f" stroke="#cf867f" stroke-width="1.51"></path><path d="M-114,180L-153,272L-28,277Z" fill="#cf867f" stroke="#cf867f" stroke-width="1.51"></path><path d="M-28,277L-153,272L232,299Z" fill="#d37d72" stroke="#d37d72" stroke-width="1.51"></path><path d="M-142,-11L-153,272L-129,106Z" fill="#d68a85" stroke="#d68a85" stroke-width="1.51"></path><path d="M-145,-120L-153,272L-142,-11Z" fill="#c1b0bf" stroke="#c1b0bf" stroke-width="1.51"></path></svg>