<svg width="300" height="176" xmlns="http://www.w3.org/2000/svg"><path d="M120,93L92,20L53,115Z" fill="#ed4637" stroke="#ed4637" stroke-width="1.51"></path><path d="M120,93L155,29L92,20Z" fill="#ed4839" stroke="#ed4839" stroke-width="1.51"></path><path d="M53,115L130,189L120,93Z" fill="#eb382b" stroke="#eb382b" stroke-width="1.51"></path><path d="M-28,81L35,153L53,115Z" fill="#e95848" stroke="#e95848" stroke-width="1.51"></path><path d="M92,20L-28,81L53,115Z" fill="#eb5a4a" stroke="#eb5a4a" stroke-width="1.51"></path><path d="M92,20L-29,-11L-28,81Z" fill="#e57468" stroke="#e57468" stroke-width="1.51"></path><path d="M82,-66L-29,-11L92,20Z" fill="#e27c73" stroke="#e27c73" stroke-width="1.51"></path><path d="M35,153L130,189L53,115Z" fill="#ea4333" stroke="#ea4333" stroke-width="1.51"></path><path d="M262,96L208,7L155,29Z" fill="#eb3e2f" stroke="#eb3e2f" stroke-width="1.51"></path><path d="M-28,81L0,179L35,153Z" fill="#e75d4c" stroke="#e75d4c" stroke-width="1.51"></path><path d="M35,153L93,255L130,189Z" fill="#e73d2d" stroke="#e73d2d" stroke-width="1.51"></path><path d="M151,-83L82,-66L92,20Z" fill="#e4756a" stroke="#e4756a" stroke-width="1.51"></path><path d="M155,29L151,-83L92,20Z" fill="#e96152" stroke="#e96152" stroke-width="1.51"></path><path d="M262,96L155,29L120,93Z" fill="#ee2921" stroke="#ee2921" stroke-width="1.51"></path><path d="M208,7L151,-83L155,29Z" fill="#e95d4d" stroke="#e95d4d" stroke-width="1.51"></path><path d="M-127,195L-9,236L0,179Z" fill="#e1695a" stroke="#e1695a" stroke-width="1.51"></path><path d="M0,179L93,255L35,153Z" fill="#e64e3c" stroke="#e64e3c" stroke-width="1.51"></path><path d="M-9,236L93,255L0,179Z" fill="#e45240" stroke="#e45240" stroke-width="1.51"></path><path d="M266,149L120,93L130,189Z" fill="#eb1716" stroke="#eb1716" stroke-width="1.51"></path><path d="M266,149L262,96L120,93Z" fill="#eb1717" stroke="#eb1717" stroke-width="1.51"></path><path d="M-149,8L-150,109L-28,81Z" fill="#de8680" stroke="#de8680" stroke-width="1.51"></path><path d="M82,-66L-46,-99L-29,-11Z" fill="#d59697" stroke="#d59697" stroke-width="1.51"></path><path d="M151,-83L-46,-99L82,-66Z" fill="#d9908d" stroke="#d9908d" stroke-width="1.51"></path><path d="M214,290L266,149L130,189Z" fill="#e61312" stroke="#e61312" stroke-width="1.51"></path><path d="M93,255L141,271L130,189Z" fill="#e62a1e" stroke="#e62a1e" stroke-width="1.51"></path><path d="M-125,274L141,271L93,255Z" fill="#e14e3b" stroke="#e14e3b" stroke-width="1.51"></path><path d="M-149,8L-28,81L-29,-11Z" fill="#dc8a86" stroke="#dc8a86" stroke-width="1.51"></path><path d="M-28,81L-127,195L0,179Z" fill="#e36d5e" stroke="#e36d5e" stroke-width="1.51"></path><path d="M151,-83L236,-98L-46,-99Z" fill="#de8680" stroke="#de8680" stroke-width="1.51"></path><path d="M208,7L236,-98L151,-83Z" fill="#e46e61" stroke="#e46e61" stroke-width="1.51"></path><path d="M350,30L236,-98L208,7Z" fill="#e55d4c" stroke="#e55d4c" stroke-width="1.51"></path><path d="M-126,-79L-149,8L-29,-11Z" fill="#cba4ad" stroke="#cba4ad" stroke-width="1.51"></path><path d="M-150,109L-127,195L-28,81Z" fill="#df7b71" stroke="#df7b71" stroke-width="1.51"></path><path d="M-46,-99L-126,-79L-29,-11Z" fill="#c8a8b2" stroke="#c8a8b2" stroke-width="1.51"></path><path d="M-125,274L214,290L141,271Z" fill="#e23f2d" stroke="#e23f2d" stroke-width="1.51"></path><path d="M141,271L214,290L130,189Z" fill="#e51211" stroke="#e51211" stroke-width="1.51"></path><path d="M349,202L350,58L266,149Z" fill="#e51211" stroke="#e51211" stroke-width="1.51"></path><path d="M266,149L350,58L262,96Z" fill="#e81514" stroke="#e81514" stroke-width="1.51"></path><path d="M262,96L350,30L208,7Z" fill="#e93c2d" stroke="#e93c2d" stroke-width="1.51"></path><path d="M350,58L350,30L262,96Z" fill="#e72f23" stroke="#e72f23" stroke-width="1.51"></path><path d="M-9,236L-125,274L93,255Z" fill="#e05f4d" stroke="#e05f4d" stroke-width="1.51"></path><path d="M-127,195L-125,274L-9,236Z" fill="#db7467" stroke="#db7467" stroke-width="1.51"></path><path d="M-150,109L-125,274L-127,195Z" fill="#d9817a" stroke="#d9817a" stroke-width="1.51"></path><path d="M214,290L349,202L266,149Z" fill="#e20f0e" stroke="#e20f0e" stroke-width="1.51"></path><path d="M350,30L325,-107L236,-98Z" fill="#e06c5e" stroke="#e06c5e" stroke-width="1.51"></path><path d="M236,-98L325,-107L-46,-99Z" fill="#e08077" stroke="#e08077" stroke-width="1.51"></path><path d="M214,290L356,236L349,202Z" fill="#df0c0b" stroke="#df0c0b" stroke-width="1.51"></path><path d="M349,202L411,195L350,58Z" fill="#e20f0e" stroke="#e20f0e" stroke-width="1.51"></path><path d="M350,58L432,8L350,30Z" fill="#e44130" stroke="#e44130" stroke-width="1.51"></path><path d="M356,236L411,195L349,202Z" fill="#df0c0a" stroke="#df0c0a" stroke-width="1.51"></path><path d="M350,30L432,8L325,-107Z" fill="#e15c4b" stroke="#e15c4b" stroke-width="1.51"></path><path d="M449,78L432,8L350,58Z" fill="#e33726" stroke="#e33726" stroke-width="1.51"></path><path d="M411,195L449,78L350,58Z" fill="#e3100f" stroke="#e3100f" stroke-width="1.51"></path><path d="M411,195L417,270L449,78Z" fill="#de0b09" stroke="#de0b09" stroke-width="1.51"></path><path d="M356,236L417,270L411,195Z" fill="#dc0907" stroke="#dc0907" stroke-width="1.51"></path><path d="M214,290L417,270L356,236Z" fill="#dd0a08" stroke="#dd0a08" stroke-width="1.51"></path><path d="M432,8L449,-115L325,-107Z" fill="#db6f61" stroke="#db6f61" stroke-width="1.51"></path><path d="M325,-107L449,-115L-46,-99Z" fill="#dc8077" stroke="#dc8077" stroke-width="1.51"></path><path d="M449,78L449,-115L432,8Z" fill="#df5542" stroke="#df5542" stroke-width="1.51"></path></svg>