<svg width="300" height="176" xmlns="http://www.w3.org/2000/svg"><path d="M-139,-104L43,-87L140,-102Z" fill="#cea0a6" stroke="#cea0a6" stroke-width="1.51"></path><path d="M-139,-104L140,-102L235,-123Z" fill="#d69595" stroke="#d69595" stroke-width="1.51"></path><path d="M421,55L340,157L430,193Z" fill="#e20f0e" stroke="#e20f0e" stroke-width="1.51"></path><path d="M430,193L301,273L451,244Z" fill="#dc0807" stroke="#dc0807" stroke-width="1.51"></path><path d="M421,55L430,193L451,244Z" fill="#df0c0a" stroke="#df0c0a" stroke-width="1.51"></path><path d="M235,-123L305,-85L391,-107Z" fill="#da7e74" stroke="#da7e74" stroke-width="1.51"></path><path d="M313,103L340,157L421,55Z" fill="#e51211" stroke="#e51211" stroke-width="1.51"></path><path d="M340,157L301,273L430,193Z" fill="#df0c0b" stroke="#df0c0b" stroke-width="1.51"></path><path d="M391,-107L305,-85L410,-2Z" fill="#dd6d5f" stroke="#dd6d5f" stroke-width="1.51"></path><path d="M305,-85L321,13L410,-2Z" fill="#e25e4c" stroke="#e25e4c" stroke-width="1.51"></path><path d="M410,-2L321,13L421,55Z" fill="#e34734" stroke="#e34734" stroke-width="1.51"></path><path d="M321,13L313,103L421,55Z" fill="#e63224" stroke="#e63224" stroke-width="1.51"></path><path d="M305,-85L243,-26L321,13Z" fill="#e36251" stroke="#e36251" stroke-width="1.51"></path><path d="M220,171L264,245L340,157Z" fill="#e41110" stroke="#e41110" stroke-width="1.51"></path><path d="M262,114L220,171L340,157Z" fill="#e61313" stroke="#e61313" stroke-width="1.51"></path><path d="M264,245L301,273L340,157Z" fill="#e00e0d" stroke="#e00e0d" stroke-width="1.51"></path><path d="M313,103L262,114L340,157Z" fill="#e61312" stroke="#e61312" stroke-width="1.51"></path><path d="M264,245L142,265L301,273Z" fill="#e10e0d" stroke="#e10e0d" stroke-width="1.51"></path><path d="M262,114L313,103L321,13Z" fill="#e9231b" stroke="#e9231b" stroke-width="1.51"></path><path d="M243,-26L262,114L321,13Z" fill="#e84332" stroke="#e84332" stroke-width="1.51"></path><path d="M235,-123L243,-26L305,-85Z" fill="#e07569" stroke="#e07569" stroke-width="1.51"></path><path d="M150,-28L134,64L243,-26Z" fill="#ea5444" stroke="#ea5444" stroke-width="1.51"></path><path d="M243,-26L134,64L262,114Z" fill="#eb3a2c" stroke="#eb3a2c" stroke-width="1.51"></path><path d="M220,171L142,265L264,245Z" fill="#e41110" stroke="#e41110" stroke-width="1.51"></path><path d="M134,64L220,171L262,114Z" fill="#eb1717" stroke="#eb1717" stroke-width="1.51"></path><path d="M143,183L142,265L220,171Z" fill="#e71413" stroke="#e71413" stroke-width="1.51"></path><path d="M140,-102L150,-28L235,-123Z" fill="#e2796e" stroke="#e2796e" stroke-width="1.51"></path><path d="M235,-123L150,-28L243,-26Z" fill="#e46e61" stroke="#e46e61" stroke-width="1.51"></path><path d="M134,64L143,183L220,171Z" fill="#eb1717" stroke="#eb1717" stroke-width="1.51"></path><path d="M-139,-104L-35,-71L43,-87Z" fill="#c6abb6" stroke="#c6abb6" stroke-width="1.51"></path><path d="M77,236L-37,252L142,265Z" fill="#e34633" stroke="#e34633" stroke-width="1.51"></path><path d="M134,64L55,89L143,183Z" fill="#ed3428" stroke="#ed3428" stroke-width="1.51"></path><path d="M55,89L72,207L143,183Z" fill="#ea3c2d" stroke="#ea3c2d" stroke-width="1.51"></path><path d="M77,236L142,265L143,183Z" fill="#e72b1f" stroke="#e72b1f" stroke-width="1.51"></path><path d="M72,207L77,236L143,183Z" fill="#e73728" stroke="#e73728" stroke-width="1.51"></path><path d="M59,-5L134,64L150,-28Z" fill="#ea5d4e" stroke="#ea5d4e" stroke-width="1.51"></path><path d="M140,-102L43,-87L150,-28Z" fill="#e17f77" stroke="#e17f77" stroke-width="1.51"></path><path d="M43,-87L59,-5L150,-28Z" fill="#e37a70" stroke="#e37a70" stroke-width="1.51"></path><path d="M59,-5L55,89L134,64Z" fill="#ec5646" stroke="#ec5646" stroke-width="1.51"></path><path d="M-9,59L55,89L59,-5Z" fill="#e96657" stroke="#e96657" stroke-width="1.51"></path><path d="M55,89L-9,160L72,207Z" fill="#e9503f" stroke="#e9503f" stroke-width="1.51"></path><path d="M72,207L-37,252L77,236Z" fill="#e34f3d" stroke="#e34f3d" stroke-width="1.51"></path><path d="M-9,160L-37,252L72,207Z" fill="#e45947" stroke="#e45947" stroke-width="1.51"></path><path d="M-9,59L-9,160L55,89Z" fill="#ea5a4b" stroke="#ea5a4b" stroke-width="1.51"></path><path d="M-64,-29L-9,59L59,-5Z" fill="#e18078" stroke="#e18078" stroke-width="1.51"></path><path d="M-35,-71L-64,-29L59,-5Z" fill="#d89290" stroke="#d89290" stroke-width="1.51"></path><path d="M43,-87L-35,-71L59,-5Z" fill="#da8f8d" stroke="#da8f8d" stroke-width="1.51"></path><path d="M-102,207L-37,252L-9,160Z" fill="#e06a5b" stroke="#e06a5b" stroke-width="1.51"></path><path d="M-123,78L-102,207L-9,160Z" fill="#e17468" stroke="#e17468" stroke-width="1.51"></path><path d="M-123,78L-9,160L-9,59Z" fill="#e66d5f" stroke="#e66d5f" stroke-width="1.51"></path><path d="M-64,-29L-123,78L-9,59Z" fill="#de8680" stroke="#de8680" stroke-width="1.51"></path><path d="M-133,-12L-123,78L-64,-29Z" fill="#d4989a" stroke="#d4989a" stroke-width="1.51"></path><path d="M-139,-104L-64,-29L-35,-71Z" fill="#c4adba" stroke="#c4adba" stroke-width="1.51"></path><path d="M-102,207L-122,237L-37,252Z" fill="#db7467" stroke="#db7467" stroke-width="1.51"></path><path d="M-139,-104L-133,-12L-64,-29Z" fill="#c3aebb" stroke="#c3aebb" stroke-width="1.51"></path><path d="M-123,78L-122,237L-102,207Z" fill="#dc7d74" stroke="#dc7d74" stroke-width="1.51"></path><path d="M-123,78L-133,-12L-122,237Z" fill="#de827b" stroke="#de827b" stroke-width="1.51"></path></svg>