<svg width="300" height="176" xmlns="http://www.w3.org/2000/svg"><path d="M-137,-119L-8,-107L158,-109Z" fill="#c9a7b2" stroke="#c9a7b2" stroke-width="1.51"></path><path d="M243,250L119,281L332,242Z" fill="#e10f0d" stroke="#e10f0d" stroke-width="1.51"></path><path d="M332,242L119,281L412,244Z" fill="#e00c0b" stroke="#e00c0b" stroke-width="1.51"></path><path d="M119,281L70,294L412,244Z" fill="#e20f0e" stroke="#e20f0e" stroke-width="1.51"></path><path d="M407,146L360,172L412,244Z" fill="#df0c0b" stroke="#df0c0b" stroke-width="1.51"></path><path d="M-137,-119L158,-109L432,-117Z" fill="#df857e" stroke="#df857e" stroke-width="1.51"></path><path d="M158,-109L317,-77L432,-117Z" fill="#db7c72" stroke="#db7c72" stroke-width="1.51"></path><path d="M432,-117L360,-12L453,-8Z" fill="#dd6554" stroke="#dd6554" stroke-width="1.51"></path><path d="M360,-12L402,100L453,-8Z" fill="#e24432" stroke="#e24432" stroke-width="1.51"></path><path d="M402,100L407,146L453,-8Z" fill="#e41d15" stroke="#e41d15" stroke-width="1.51"></path><path d="M407,146L412,244L453,-8Z" fill="#e10e0d" stroke="#e10e0d" stroke-width="1.51"></path><path d="M360,-12L331,89L402,100Z" fill="#e53022" stroke="#e53022" stroke-width="1.51"></path><path d="M317,-77L360,-12L432,-117Z" fill="#dd6f60" stroke="#dd6f60" stroke-width="1.51"></path><path d="M360,172L332,242L412,244Z" fill="#de0b09" stroke="#de0b09" stroke-width="1.51"></path><path d="M331,89L360,172L402,100Z" fill="#e41110" stroke="#e41110" stroke-width="1.51"></path><path d="M402,100L360,172L407,146Z" fill="#e20f0e" stroke="#e20f0e" stroke-width="1.51"></path><path d="M158,-109L214,-69L317,-77Z" fill="#e0786d" stroke="#e0786d" stroke-width="1.51"></path><path d="M248,-7L252,68L331,89Z" fill="#e8382a" stroke="#e8382a" stroke-width="1.51"></path><path d="M248,-7L331,89L360,-12Z" fill="#e64736" stroke="#e64736" stroke-width="1.51"></path><path d="M317,-77L248,-7L360,-12Z" fill="#e36251" stroke="#e36251" stroke-width="1.51"></path><path d="M268,205L332,242L360,172Z" fill="#e10e0d" stroke="#e10e0d" stroke-width="1.51"></path><path d="M331,89L268,205L360,172Z" fill="#e41110" stroke="#e41110" stroke-width="1.51"></path><path d="M252,68L268,205L331,89Z" fill="#e71414" stroke="#e71414" stroke-width="1.51"></path><path d="M268,205L243,250L332,242Z" fill="#e10e0d" stroke="#e10e0d" stroke-width="1.51"></path><path d="M214,-69L248,-7L317,-77Z" fill="#e36a5c" stroke="#e36a5c" stroke-width="1.51"></path><path d="M118,80L150,193L252,68Z" fill="#ec1918" stroke="#ec1918" stroke-width="1.51"></path><path d="M252,68L150,193L268,205Z" fill="#e81514" stroke="#e81514" stroke-width="1.51"></path><path d="M150,193L243,250L268,205Z" fill="#e41111" stroke="#e41111" stroke-width="1.51"></path><path d="M248,-7L141,9L252,68Z" fill="#ea4939" stroke="#ea4939" stroke-width="1.51"></path><path d="M141,9L118,80L252,68Z" fill="#ed392c" stroke="#ed392c" stroke-width="1.51"></path><path d="M214,-69L141,9L248,-7Z" fill="#e85f4f" stroke="#e85f4f" stroke-width="1.51"></path><path d="M150,193L119,281L243,250Z" fill="#e51211" stroke="#e51211" stroke-width="1.51"></path><path d="M158,-109L141,9L214,-69Z" fill="#e56e60" stroke="#e56e60" stroke-width="1.51"></path><path d="M48,-79L71,20L141,9Z" fill="#e67164" stroke="#e67164" stroke-width="1.51"></path><path d="M118,80L88,146L150,193Z" fill="#ec2e24" stroke="#ec2e24" stroke-width="1.51"></path><path d="M-8,-107L48,-79L158,-109Z" fill="#d79494" stroke="#d79494" stroke-width="1.51"></path><path d="M48,-79L141,9L158,-109Z" fill="#e3796f" stroke="#e3796f" stroke-width="1.51"></path><path d="M88,146L70,294L119,281Z" fill="#e53929" stroke="#e53929" stroke-width="1.51"></path><path d="M71,20L118,80L141,9Z" fill="#ec5343" stroke="#ec5343" stroke-width="1.51"></path><path d="M88,146L119,281L150,193Z" fill="#e82c20" stroke="#e82c20" stroke-width="1.51"></path><path d="M-29,250L-122,256L70,294Z" fill="#de6251" stroke="#de6251" stroke-width="1.51"></path><path d="M-8,184L70,294L88,146Z" fill="#e54b39" stroke="#e54b39" stroke-width="1.51"></path><path d="M31,58L88,146L118,80Z" fill="#ed4234" stroke="#ed4234" stroke-width="1.51"></path><path d="M71,20L31,58L118,80Z" fill="#eb5748" stroke="#eb5748" stroke-width="1.51"></path><path d="M-8,184L-29,250L70,294Z" fill="#e25745" stroke="#e25745" stroke-width="1.51"></path><path d="M48,-79L-16,9L71,20Z" fill="#e17f76" stroke="#e17f76" stroke-width="1.51"></path><path d="M31,58L-4,96L88,146Z" fill="#eb5242" stroke="#eb5242" stroke-width="1.51"></path><path d="M-4,96L-8,184L88,146Z" fill="#e85644" stroke="#e85644" stroke-width="1.51"></path><path d="M-16,9L31,58L71,20Z" fill="#e66f62" stroke="#e66f62" stroke-width="1.51"></path><path d="M-8,-107L-16,9L48,-79Z" fill="#d69595" stroke="#d69595" stroke-width="1.51"></path><path d="M-16,9L-4,96L31,58Z" fill="#e76c5e" stroke="#e76c5e" stroke-width="1.51"></path><path d="M-112,-34L-16,9L-8,-107Z" fill="#d19da1" stroke="#d19da1" stroke-width="1.51"></path><path d="M-90,162L-29,250L-8,184Z" fill="#e16959" stroke="#e16959" stroke-width="1.51"></path><path d="M-16,9L-121,117L-4,96Z" fill="#e57367" stroke="#e57367" stroke-width="1.51"></path><path d="M-121,117L-90,162L-4,96Z" fill="#e37367" stroke="#e37367" stroke-width="1.51"></path><path d="M-90,162L-8,184L-4,96Z" fill="#e46858" stroke="#e46858" stroke-width="1.51"></path><path d="M-137,-119L-112,-34L-8,-107Z" fill="#bcb4c5" stroke="#bcb4c5" stroke-width="1.51"></path><path d="M-112,-34L-121,117L-16,9Z" fill="#db8c88" stroke="#db8c88" stroke-width="1.51"></path><path d="M-90,162L-122,256L-29,250Z" fill="#dd7365" stroke="#dd7365" stroke-width="1.51"></path><path d="M-121,117L-122,256L-90,162Z" fill="#dd7c72" stroke="#dd7c72" stroke-width="1.51"></path><path d="M-137,-119L-121,117L-112,-34Z" fill="#cba4ad" stroke="#cba4ad" stroke-width="1.51"></path><path d="M-137,-119L-122,256L-121,117Z" fill="#df847d" stroke="#df847d" stroke-width="1.51"></path></svg>