<svg width="300" height="176" xmlns="http://www.w3.org/2000/svg"><path d="M154,78L70,56L144,148Z" fill="#ee2e24" stroke="#ee2e24" stroke-width="1.51"></path><path d="M70,56L92,175L144,148Z" fill="#ec382a" stroke="#ec382a" stroke-width="1.51"></path><path d="M154,78L80,24L70,56Z" fill="#ec4e3e" stroke="#ec4e3e" stroke-width="1.51"></path><path d="M154,78L177,-31L80,24Z" fill="#ec4f3f" stroke="#ec4f3f" stroke-width="1.51"></path><path d="M248,-22L177,-31L154,78Z" fill="#ea5141" stroke="#ea5141" stroke-width="1.51"></path><path d="M70,56L-56,117L92,175Z" fill="#ea5242" stroke="#ea5242" stroke-width="1.51"></path><path d="M-50,-20L-56,117L70,56Z" fill="#e57266" stroke="#e57266" stroke-width="1.51"></path><path d="M260,191L264,104L144,148Z" fill="#e81515" stroke="#e81515" stroke-width="1.51"></path><path d="M144,148L264,104L154,78Z" fill="#ec1818" stroke="#ec1818" stroke-width="1.51"></path><path d="M92,175L140,265L144,148Z" fill="#e8281f" stroke="#e8281f" stroke-width="1.51"></path><path d="M33,286L140,265L92,175Z" fill="#e53a2a" stroke="#e53a2a" stroke-width="1.51"></path><path d="M-56,117L-57,187L92,175Z" fill="#e65f4f" stroke="#e65f4f" stroke-width="1.51"></path><path d="M233,265L260,191L144,148Z" fill="#e61312" stroke="#e61312" stroke-width="1.51"></path><path d="M-10,270L33,286L92,175Z" fill="#e34e3c" stroke="#e34e3c" stroke-width="1.51"></path><path d="M80,24L-50,-20L70,56Z" fill="#e67164" stroke="#e67164" stroke-width="1.51"></path><path d="M177,-31L154,-80L80,24Z" fill="#e86759" stroke="#e86759" stroke-width="1.51"></path><path d="M263,-108L154,-80L177,-31Z" fill="#e37468" stroke="#e37468" stroke-width="1.51"></path><path d="M264,104L248,-22L154,78Z" fill="#eb372a" stroke="#eb372a" stroke-width="1.51"></path><path d="M55,-102L-50,-20L80,24Z" fill="#de8680" stroke="#de8680" stroke-width="1.51"></path><path d="M-57,187L-10,270L92,175Z" fill="#e45947" stroke="#e45947" stroke-width="1.51"></path><path d="M264,104L296,64L248,-22Z" fill="#e93a2b" stroke="#e93a2b" stroke-width="1.51"></path><path d="M336,174L296,64L264,104Z" fill="#e71413" stroke="#e71413" stroke-width="1.51"></path><path d="M-57,187L-114,285L-10,270Z" fill="#dd6c5e" stroke="#dd6c5e" stroke-width="1.51"></path><path d="M-56,117L-88,181L-57,187Z" fill="#e17063" stroke="#e17063" stroke-width="1.51"></path><path d="M-126,95L-88,181L-56,117Z" fill="#e1786d" stroke="#e1786d" stroke-width="1.51"></path><path d="M33,286L233,265L140,265Z" fill="#e41f17" stroke="#e41f17" stroke-width="1.51"></path><path d="M140,265L233,265L144,148Z" fill="#e61312" stroke="#e61312" stroke-width="1.51"></path><path d="M154,-80L55,-102L80,24Z" fill="#e27c73" stroke="#e27c73" stroke-width="1.51"></path><path d="M-98,-12L-126,95L-56,117Z" fill="#e0827a" stroke="#e0827a" stroke-width="1.51"></path><path d="M-50,-20L-98,-12L-56,117Z" fill="#dd8984" stroke="#dd8984" stroke-width="1.51"></path><path d="M55,-102L-29,-85L-50,-20Z" fill="#d19ca0" stroke="#d19ca0" stroke-width="1.51"></path><path d="M-105,-96L-98,-12L-50,-20Z" fill="#caa5ae" stroke="#caa5ae" stroke-width="1.51"></path><path d="M296,64L328,24L248,-22Z" fill="#e74937" stroke="#e74937" stroke-width="1.51"></path><path d="M248,-22L263,-108L177,-31Z" fill="#e36c5e" stroke="#e36c5e" stroke-width="1.51"></path><path d="M435,116L328,24L296,64Z" fill="#e6291e" stroke="#e6291e" stroke-width="1.51"></path><path d="M336,174L264,104L260,191Z" fill="#e51212" stroke="#e51212" stroke-width="1.51"></path><path d="M305,244L336,174L260,191Z" fill="#e20f0e" stroke="#e20f0e" stroke-width="1.51"></path><path d="M233,265L305,244L260,191Z" fill="#e10f0e" stroke="#e10f0e" stroke-width="1.51"></path><path d="M327,-94L263,-108L248,-22Z" fill="#df7366" stroke="#df7366" stroke-width="1.51"></path><path d="M154,-80L263,-108L55,-102Z" fill="#e17e75" stroke="#e17e75" stroke-width="1.51"></path><path d="M-88,181L-114,285L-57,187Z" fill="#dd7468" stroke="#dd7468" stroke-width="1.51"></path><path d="M-10,270L-114,285L33,286Z" fill="#dd6352" stroke="#dd6352" stroke-width="1.51"></path><path d="M-126,95L-114,285L-88,181Z" fill="#dc7b71" stroke="#dc7b71" stroke-width="1.51"></path><path d="M55,-102L-105,-96L-29,-85Z" fill="#c7a9b4" stroke="#c7a9b4" stroke-width="1.51"></path><path d="M-29,-85L-105,-96L-50,-20Z" fill="#c8a8b2" stroke="#c8a8b2" stroke-width="1.51"></path><path d="M-98,-12L-105,-96L-126,95Z" fill="#cf9fa4" stroke="#cf9fa4" stroke-width="1.51"></path><path d="M328,24L327,-94L248,-22Z" fill="#e36150" stroke="#e36150" stroke-width="1.51"></path><path d="M426,-25L327,-94L328,24Z" fill="#e1614f" stroke="#e1614f" stroke-width="1.51"></path><path d="M336,174L435,116L296,64Z" fill="#e51111" stroke="#e51111" stroke-width="1.51"></path><path d="M448,176L435,116L336,174Z" fill="#e00d0c" stroke="#e00d0c" stroke-width="1.51"></path><path d="M435,116L426,-25L328,24Z" fill="#e33e2c" stroke="#e33e2c" stroke-width="1.51"></path><path d="M435,116L448,176L426,-25Z" fill="#e3100f" stroke="#e3100f" stroke-width="1.51"></path><path d="M441,283L448,176L336,174Z" fill="#dd0a08" stroke="#dd0a08" stroke-width="1.51"></path><path d="M426,-25L392,-111L327,-94Z" fill="#db7264" stroke="#db7264" stroke-width="1.51"></path><path d="M327,-94L392,-111L263,-108Z" fill="#d97d73" stroke="#d97d73" stroke-width="1.51"></path><path d="M305,244L441,283L336,174Z" fill="#de0b09" stroke="#de0b09" stroke-width="1.51"></path><path d="M233,265L441,283L305,244Z" fill="#dd0a09" stroke="#dd0a09" stroke-width="1.51"></path><path d="M33,286L441,283L233,265Z" fill="#e00d0c" stroke="#e00d0c" stroke-width="1.51"></path></svg>