<svg width="300" height="176" xmlns="http://www.w3.org/2000/svg"><path d="M-110,-81L49,-84L140,-101Z" fill="#fa5f56" stroke="#fa5f56" stroke-width="1.51"></path><path d="M140,-101L256,-99L391,-110Z" fill="#f44e42" stroke="#f44e42" stroke-width="1.51"></path><path d="M-45,270L-141,274L416,293Z" fill="#e7271e" stroke="#e7271e" stroke-width="1.51"></path><path d="M332,263L207,247L416,293Z" fill="#dd0a09" stroke="#dd0a09" stroke-width="1.51"></path><path d="M207,247L42,258L416,293Z" fill="#e10e0e" stroke="#e10e0e" stroke-width="1.51"></path><path d="M42,258L-45,270L416,293Z" fill="#e51612" stroke="#e51612" stroke-width="1.51"></path><path d="M338,-32L324,116L421,107Z" fill="#e81f19" stroke="#e81f19" stroke-width="1.51"></path><path d="M332,263L416,293L441,182Z" fill="#dc0707" stroke="#dc0707" stroke-width="1.51"></path><path d="M391,-110L347,-69L448,-21Z" fill="#ed4336" stroke="#ed4336" stroke-width="1.51"></path><path d="M347,-69L338,-32L448,-21Z" fill="#ec3e31" stroke="#ec3e31" stroke-width="1.51"></path><path d="M338,-32L421,107L448,-21Z" fill="#e82e22" stroke="#e82e22" stroke-width="1.51"></path><path d="M421,107L441,182L448,-21Z" fill="#e3100f" stroke="#e3100f" stroke-width="1.51"></path><path d="M421,107L316,160L441,182Z" fill="#e10e0d" stroke="#e10e0d" stroke-width="1.51"></path><path d="M316,160L332,263L441,182Z" fill="#df0d0c" stroke="#df0d0c" stroke-width="1.51"></path><path d="M324,116L316,160L421,107Z" fill="#e41110" stroke="#e41110" stroke-width="1.51"></path><path d="M150,239L42,258L207,247Z" fill="#e61915" stroke="#e61915" stroke-width="1.51"></path><path d="M256,-99L347,-69L391,-110Z" fill="#f04a3e" stroke="#f04a3e" stroke-width="1.51"></path><path d="M252,-21L225,75L324,116Z" fill="#ec241e" stroke="#ec241e" stroke-width="1.51"></path><path d="M316,160L252,160L332,263Z" fill="#e30f0f" stroke="#e30f0f" stroke-width="1.51"></path><path d="M252,-21L324,116L338,-32Z" fill="#ec2f25" stroke="#ec2f25" stroke-width="1.51"></path><path d="M256,-99L338,-32L347,-69Z" fill="#f04539" stroke="#f04539" stroke-width="1.51"></path><path d="M252,160L207,247L332,263Z" fill="#e20f0e" stroke="#e20f0e" stroke-width="1.51"></path><path d="M256,-99L252,-21L338,-32Z" fill="#f04236" stroke="#f04236" stroke-width="1.51"></path><path d="M252,160L316,160L324,116Z" fill="#e51312" stroke="#e51312" stroke-width="1.51"></path><path d="M225,75L252,160L324,116Z" fill="#e81514" stroke="#e81514" stroke-width="1.51"></path><path d="M122,27L225,75L252,-21Z" fill="#f03027" stroke="#f03027" stroke-width="1.51"></path><path d="M225,75L127,148L252,160Z" fill="#ea1716" stroke="#ea1716" stroke-width="1.51"></path><path d="M140,-101L252,-21L256,-99Z" fill="#f4483d" stroke="#f4483d" stroke-width="1.51"></path><path d="M122,27L152,76L225,75Z" fill="#f02621" stroke="#f02621" stroke-width="1.51"></path><path d="M152,76L127,148L225,75Z" fill="#ee1919" stroke="#ee1919" stroke-width="1.51"></path><path d="M140,-101L122,27L252,-21Z" fill="#f44035" stroke="#f44035" stroke-width="1.51"></path><path d="M150,239L207,247L252,160Z" fill="#e51211" stroke="#e51211" stroke-width="1.51"></path><path d="M127,148L150,239L252,160Z" fill="#e81514" stroke="#e81514" stroke-width="1.51"></path><path d="M37,151L42,258L127,148Z" fill="#ed2c24" stroke="#ed2c24" stroke-width="1.51"></path><path d="M76,-7L122,27L140,-101Z" fill="#f6453b" stroke="#f6453b" stroke-width="1.51"></path><path d="M49,-84L76,-7L140,-101Z" fill="#f85147" stroke="#f85147" stroke-width="1.51"></path><path d="M127,148L42,258L150,239Z" fill="#e9221c" stroke="#e9221c" stroke-width="1.51"></path><path d="M92,89L127,148L152,76Z" fill="#ef221e" stroke="#ef221e" stroke-width="1.51"></path><path d="M122,27L92,89L152,76Z" fill="#f22c25" stroke="#f22c25" stroke-width="1.51"></path><path d="M92,89L37,151L127,148Z" fill="#ef2a24" stroke="#ef2a24" stroke-width="1.51"></path><path d="M76,-7L92,89L122,27Z" fill="#f4392f" stroke="#f4392f" stroke-width="1.51"></path><path d="M-110,-81L-2,-62L49,-84Z" fill="#fb635a" stroke="#fb635a" stroke-width="1.51"></path><path d="M76,-7L3,27L92,89Z" fill="#f54036" stroke="#f54036" stroke-width="1.51"></path><path d="M3,27L37,151L92,89Z" fill="#f3352c" stroke="#f3352c" stroke-width="1.51"></path><path d="M3,27L-41,59L37,151Z" fill="#f53f36" stroke="#f53f36" stroke-width="1.51"></path><path d="M49,-84L-2,-62L76,-7Z" fill="#f9554b" stroke="#f9554b" stroke-width="1.51"></path><path d="M-2,-62L3,27L76,-7Z" fill="#f85046" stroke="#f85046" stroke-width="1.51"></path><path d="M37,151L-64,196L42,258Z" fill="#ee392d" stroke="#ee392d" stroke-width="1.51"></path><path d="M-64,196L-45,270L42,258Z" fill="#ec3c30" stroke="#ec3c30" stroke-width="1.51"></path><path d="M-41,59L-64,196L37,151Z" fill="#f34035" stroke="#f34035" stroke-width="1.51"></path><path d="M-2,-62L-120,-24L3,27Z" fill="#fa5b51" stroke="#fa5b51" stroke-width="1.51"></path><path d="M-120,-24L-41,59L3,27Z" fill="#f9544a" stroke="#f9544a" stroke-width="1.51"></path><path d="M-138,104L-64,196L-41,59Z" fill="#f5493f" stroke="#f5493f" stroke-width="1.51"></path><path d="M-110,-81L-120,-24L-2,-62Z" fill="#fc665f" stroke="#fc665f" stroke-width="1.51"></path><path d="M-64,196L-141,274L-45,270Z" fill="#ee463a" stroke="#ee463a" stroke-width="1.51"></path><path d="M-120,-24L-138,104L-41,59Z" fill="#f9564c" stroke="#f9564c" stroke-width="1.51"></path><path d="M-138,104L-146,198L-64,196Z" fill="#f44d42" stroke="#f44d42" stroke-width="1.51"></path><path d="M-146,198L-141,274L-64,196Z" fill="#f04c40" stroke="#f04c40" stroke-width="1.51"></path></svg>