<svg width="300" height="176" xmlns="http://www.w3.org/2000/svg"><path d="M169,74L220,190L242,82Z" fill="#e61212" stroke="#e61212" stroke-width="1.51"></path><path d="M169,74L140,183L220,190Z" fill="#e31010" stroke="#e31010" stroke-width="1.51"></path><path d="M242,82L147,-10L169,74Z" fill="#e75b4a" stroke="#e75b4a" stroke-width="1.51"></path><path d="M220,190L317,90L242,82Z" fill="#e00d0c" stroke="#e00d0c" stroke-width="1.51"></path><path d="M140,183L123,235L220,190Z" fill="#e10e0d" stroke="#e10e0d" stroke-width="1.51"></path><path d="M89,211L123,235L140,183Z" fill="#e03c29" stroke="#e03c29" stroke-width="1.51"></path><path d="M33,61L89,211L140,183Z" fill="#e25442" stroke="#e25442" stroke-width="1.51"></path><path d="M220,190L328,206L317,90Z" fill="#d80303" stroke="#d80303" stroke-width="1.51"></path><path d="M123,235L272,259L220,190Z" fill="#dd0908" stroke="#dd0908" stroke-width="1.51"></path><path d="M272,259L328,206L220,190Z" fill="#d70202" stroke="#d70202" stroke-width="1.51"></path><path d="M273,-21L147,-10L242,82Z" fill="#dc7a6f" stroke="#dc7a6f" stroke-width="1.51"></path><path d="M169,74L33,61L140,183Z" fill="#eb4334" stroke="#eb4334" stroke-width="1.51"></path><path d="M344,29L273,-21L242,82Z" fill="#db6a5b" stroke="#db6a5b" stroke-width="1.51"></path><path d="M317,90L344,29L242,82Z" fill="#e13e2c" stroke="#e13e2c" stroke-width="1.51"></path><path d="M436,98L344,29L317,90Z" fill="#e13625" stroke="#e13625" stroke-width="1.51"></path><path d="M147,-10L52,27L169,74Z" fill="#e17f77" stroke="#e17f77" stroke-width="1.51"></path><path d="M52,27L33,61L169,74Z" fill="#e27e75" stroke="#e27e75" stroke-width="1.51"></path><path d="M328,206L419,184L317,90Z" fill="#d70202" stroke="#d70202" stroke-width="1.51"></path><path d="M272,259L331,261L328,206Z" fill="#d50000" stroke="#d50000" stroke-width="1.51"></path><path d="M147,-10L30,-103L52,27Z" fill="#bfb2c2" stroke="#bfb2c2" stroke-width="1.51"></path><path d="M273,-21L207,-63L147,-10Z" fill="#d68a85" stroke="#d68a85" stroke-width="1.51"></path><path d="M123,235L44,278L272,259Z" fill="#e21711" stroke="#e21711" stroke-width="1.51"></path><path d="M272,259L44,278L331,261Z" fill="#dc0807" stroke="#dc0807" stroke-width="1.51"></path><path d="M89,211L44,278L123,235Z" fill="#de5441" stroke="#de5441" stroke-width="1.51"></path><path d="M-11,253L44,278L89,211Z" fill="#d86f61" stroke="#d86f61" stroke-width="1.51"></path><path d="M207,-63L159,-89L147,-10Z" fill="#d98b88" stroke="#d98b88" stroke-width="1.51"></path><path d="M391,258L419,184L328,206Z" fill="#d50000" stroke="#d50000" stroke-width="1.51"></path><path d="M331,261L391,258L328,206Z" fill="#d50000" stroke="#d50000" stroke-width="1.51"></path><path d="M44,278L391,258L331,261Z" fill="#d90404" stroke="#d90404" stroke-width="1.51"></path><path d="M-38,80L-36,155L33,61Z" fill="#d98c88" stroke="#d98c88" stroke-width="1.51"></path><path d="M33,61L-36,155L89,211Z" fill="#da796e" stroke="#da796e" stroke-width="1.51"></path><path d="M419,184L436,98L317,90Z" fill="#dc0908" stroke="#dc0908" stroke-width="1.51"></path><path d="M-47,15L-38,80L33,61Z" fill="#c4acb8" stroke="#c4acb8" stroke-width="1.51"></path><path d="M-47,15L33,61L52,27Z" fill="#bbb4c6" stroke="#bbb4c6" stroke-width="1.51"></path><path d="M-36,155L-11,253L89,211Z" fill="#d37e74" stroke="#d37e74" stroke-width="1.51"></path><path d="M436,98L444,12L344,29Z" fill="#dd5845" stroke="#dd5845" stroke-width="1.51"></path><path d="M344,29L344,-114L273,-21Z" fill="#cf867f" stroke="#cf867f" stroke-width="1.51"></path><path d="M273,-21L344,-114L207,-63Z" fill="#d18781" stroke="#d18781" stroke-width="1.51"></path><path d="M207,-63L344,-114L159,-89Z" fill="#d48983" stroke="#d48983" stroke-width="1.51"></path><path d="M-117,80L-92,194L-36,155Z" fill="#d48883" stroke="#d48883" stroke-width="1.51"></path><path d="M30,-103L-47,15L52,27Z" fill="#8ed1f5" stroke="#8ed1f5" stroke-width="1.51"></path><path d="M453,-71L344,-114L344,29Z" fill="#cf867f" stroke="#cf867f" stroke-width="1.51"></path><path d="M0,-114L30,-103L159,-89Z" fill="#b7b8cc" stroke="#b7b8cc" stroke-width="1.51"></path><path d="M159,-89L30,-103L147,-10Z" fill="#cea0a6" stroke="#cea0a6" stroke-width="1.51"></path><path d="M-36,155L-92,194L-11,253Z" fill="#cf867f" stroke="#cf867f" stroke-width="1.51"></path><path d="M-117,80L-36,155L-38,80Z" fill="#d98b87" stroke="#d98b87" stroke-width="1.51"></path><path d="M344,-114L0,-114L159,-89Z" fill="#d98c88" stroke="#d98c88" stroke-width="1.51"></path><path d="M30,-103L0,-114L-47,15Z" fill="#80d6ff" stroke="#80d6ff" stroke-width="1.51"></path><path d="M-153,-15L-117,80L-47,15Z" fill="#acc1da" stroke="#acc1da" stroke-width="1.51"></path><path d="M-47,15L-117,80L-38,80Z" fill="#c9a6b0" stroke="#c9a6b0" stroke-width="1.51"></path><path d="M436,98L453,-71L444,12Z" fill="#d47a6f" stroke="#d47a6f" stroke-width="1.51"></path><path d="M444,12L453,-71L344,29Z" fill="#cf867f" stroke="#cf867f" stroke-width="1.51"></path><path d="M0,-114L-96,-68L-47,15Z" fill="#80d6ff" stroke="#80d6ff" stroke-width="1.51"></path><path d="M-92,194L-144,263L-11,253Z" fill="#cf867f" stroke="#cf867f" stroke-width="1.51"></path><path d="M-11,253L-144,263L44,278Z" fill="#cf867f" stroke="#cf867f" stroke-width="1.51"></path><path d="M-117,80L-144,263L-92,194Z" fill="#cf867f" stroke="#cf867f" stroke-width="1.51"></path><path d="M-153,-15L-144,263L-117,80Z" fill="#d88b87" stroke="#d88b87" stroke-width="1.51"></path><path d="M-96,-68L-153,-15L-47,15Z" fill="#80d6ff" stroke="#80d6ff" stroke-width="1.51"></path></svg>