<svg width="300" height="176" xmlns="http://www.w3.org/2000/svg"><path d="M146,102L183,186L229,115Z" fill="#eb1716" stroke="#eb1716" stroke-width="1.51"></path><path d="M183,186L268,168L229,115Z" fill="#e81514" stroke="#e81514" stroke-width="1.51"></path><path d="M146,102L89,171L183,186Z" fill="#eb201b" stroke="#eb201b" stroke-width="1.51"></path><path d="M268,168L302,166L229,115Z" fill="#e61313" stroke="#e61313" stroke-width="1.51"></path><path d="M219,266L302,166L268,168Z" fill="#e41110" stroke="#e41110" stroke-width="1.51"></path><path d="M229,115L173,9L146,102Z" fill="#ed2720" stroke="#ed2720" stroke-width="1.51"></path><path d="M146,102L48,66L89,171Z" fill="#ec3b2d" stroke="#ec3b2d" stroke-width="1.51"></path><path d="M270,28L173,9L229,115Z" fill="#eb392c" stroke="#eb392c" stroke-width="1.51"></path><path d="M183,186L219,266L268,168Z" fill="#e51211" stroke="#e51211" stroke-width="1.51"></path><path d="M159,286L219,266L183,186Z" fill="#e41110" stroke="#e41110" stroke-width="1.51"></path><path d="M344,81L270,28L229,115Z" fill="#e9251d" stroke="#e9251d" stroke-width="1.51"></path><path d="M173,9L48,66L146,102Z" fill="#ee4234" stroke="#ee4234" stroke-width="1.51"></path><path d="M89,171L159,286L183,186Z" fill="#e81a16" stroke="#e81a16" stroke-width="1.51"></path><path d="M302,166L344,81L229,115Z" fill="#e71413" stroke="#e71413" stroke-width="1.51"></path><path d="M173,9L32,18L48,66Z" fill="#ea5e4e" stroke="#ea5e4e" stroke-width="1.51"></path><path d="M89,171L42,277L159,286Z" fill="#e53727" stroke="#e53727" stroke-width="1.51"></path><path d="M-52,201L42,277L89,171Z" fill="#e45341" stroke="#e45341" stroke-width="1.51"></path><path d="M-39,72L89,171L48,66Z" fill="#eb5444" stroke="#eb5444" stroke-width="1.51"></path><path d="M173,9L81,-86L32,18Z" fill="#e67063" stroke="#e67063" stroke-width="1.51"></path><path d="M227,-82L166,-66L173,9Z" fill="#e66a5b" stroke="#e66a5b" stroke-width="1.51"></path><path d="M227,-82L173,9L270,28Z" fill="#e75c4b" stroke="#e75c4b" stroke-width="1.51"></path><path d="M302,166L418,175L344,81Z" fill="#e3100f" stroke="#e3100f" stroke-width="1.51"></path><path d="M219,266L362,261L302,166Z" fill="#e00e0d" stroke="#e00e0d" stroke-width="1.51"></path><path d="M159,286L362,261L219,266Z" fill="#e00d0c" stroke="#e00d0c" stroke-width="1.51"></path><path d="M358,-64L227,-82L270,28Z" fill="#e36555" stroke="#e36555" stroke-width="1.51"></path><path d="M344,81L361,-1L270,28Z" fill="#e6402f" stroke="#e6402f" stroke-width="1.51"></path><path d="M409,54L361,-1L344,81Z" fill="#e53a2a" stroke="#e53a2a" stroke-width="1.51"></path><path d="M32,18L-39,72L48,66Z" fill="#e76a5c" stroke="#e76a5c" stroke-width="1.51"></path><path d="M362,261L418,175L302,166Z" fill="#e00d0c" stroke="#e00d0c" stroke-width="1.51"></path><path d="M418,175L409,54L344,81Z" fill="#e41110" stroke="#e41110" stroke-width="1.51"></path><path d="M-39,72L-52,201L89,171Z" fill="#e75d4d" stroke="#e75d4d" stroke-width="1.51"></path><path d="M227,-82L81,-86L166,-66Z" fill="#e4776c" stroke="#e4776c" stroke-width="1.51"></path><path d="M166,-66L81,-86L173,9Z" fill="#e76e61" stroke="#e76e61" stroke-width="1.51"></path><path d="M32,18L-55,4L-39,72Z" fill="#e27c72" stroke="#e27c72" stroke-width="1.51"></path><path d="M415,-84L358,-64L361,-1Z" fill="#de6757" stroke="#de6757" stroke-width="1.51"></path><path d="M361,-1L358,-64L270,28Z" fill="#e35847" stroke="#e35847" stroke-width="1.51"></path><path d="M-52,201L-48,269L42,277Z" fill="#e0604f" stroke="#e0604f" stroke-width="1.51"></path><path d="M159,286L422,258L362,261Z" fill="#dd0a09" stroke="#dd0a09" stroke-width="1.51"></path><path d="M362,261L422,258L418,175Z" fill="#dc0807" stroke="#dc0807" stroke-width="1.51"></path><path d="M-39,72L-108,172L-52,201Z" fill="#e27164" stroke="#e27164" stroke-width="1.51"></path><path d="M-3,-81L-55,4L32,18Z" fill="#dc8b87" stroke="#dc8b87" stroke-width="1.51"></path><path d="M81,-86L-3,-81L32,18Z" fill="#dc8a86" stroke="#dc8a86" stroke-width="1.51"></path><path d="M-52,201L-118,243L-48,269Z" fill="#dd7062" stroke="#dd7062" stroke-width="1.51"></path><path d="M-135,118L-108,172L-39,72Z" fill="#e1796f" stroke="#e1796f" stroke-width="1.51"></path><path d="M409,54L448,6L361,-1Z" fill="#e24735" stroke="#e24735" stroke-width="1.51"></path><path d="M418,175L448,6L409,54Z" fill="#e41e15" stroke="#e41e15" stroke-width="1.51"></path><path d="M422,258L448,6L418,175Z" fill="#e00d0c" stroke="#e00d0c" stroke-width="1.51"></path><path d="M-143,17L-135,118L-39,72Z" fill="#df847d" stroke="#df847d" stroke-width="1.51"></path><path d="M-143,17L-39,72L-55,4Z" fill="#db8b87" stroke="#db8b87" stroke-width="1.51"></path><path d="M448,6L415,-84L361,-1Z" fill="#df5d4b" stroke="#df5d4b" stroke-width="1.51"></path><path d="M358,-64L415,-84L227,-82Z" fill="#dd7366" stroke="#dd7366" stroke-width="1.51"></path><path d="M227,-82L415,-84L81,-86Z" fill="#df776c" stroke="#df776c" stroke-width="1.51"></path><path d="M-108,172L-118,243L-52,201Z" fill="#dc766a" stroke="#dc766a" stroke-width="1.51"></path><path d="M-135,118L-118,243L-108,172Z" fill="#db7e76" stroke="#db7e76" stroke-width="1.51"></path><path d="M-153,-64L-143,17L-55,4Z" fill="#cca3ac" stroke="#cca3ac" stroke-width="1.51"></path><path d="M-3,-81L-153,-64L-55,4Z" fill="#cba4ab" stroke="#cba4ab" stroke-width="1.51"></path><path d="M-143,17L-153,-64L-135,118Z" fill="#d19da2" stroke="#d19da2" stroke-width="1.51"></path></svg>