<svg width="300" height="176" xmlns="http://www.w3.org/2000/svg"><path d="M145,81L141,29L72,31Z" fill="#ed4a3a" stroke="#ed4a3a" stroke-width="1.51"></path><path d="M72,31L69,145L145,81Z" fill="#ee3e30" stroke="#ee3e30" stroke-width="1.51"></path><path d="M26,95L69,145L72,31Z" fill="#ec4c3c" stroke="#ec4c3c" stroke-width="1.51"></path><path d="M141,29L62,-98L72,31Z" fill="#e76e60" stroke="#e76e60" stroke-width="1.51"></path><path d="M145,81L210,-3L141,29Z" fill="#ed4434" stroke="#ed4434" stroke-width="1.51"></path><path d="M72,31L-17,27L26,95Z" fill="#e86758" stroke="#e86758" stroke-width="1.51"></path><path d="M-8,-72L-17,27L72,31Z" fill="#e18077" stroke="#e18077" stroke-width="1.51"></path><path d="M210,-3L165,-91L141,29Z" fill="#e96050" stroke="#e96050" stroke-width="1.51"></path><path d="M165,-91L62,-98L141,29Z" fill="#e47569" stroke="#e47569" stroke-width="1.51"></path><path d="M69,145L180,205L145,81Z" fill="#ec261e" stroke="#ec261e" stroke-width="1.51"></path><path d="M145,81L273,75L210,-3Z" fill="#eb392c" stroke="#eb392c" stroke-width="1.51"></path><path d="M180,205L273,75L145,81Z" fill="#eb1717" stroke="#eb1717" stroke-width="1.51"></path><path d="M210,-3L217,-71L165,-91Z" fill="#e46d5f" stroke="#e46d5f" stroke-width="1.51"></path><path d="M26,95L-34,195L69,145Z" fill="#e75746" stroke="#e75746" stroke-width="1.51"></path><path d="M69,145L117,284L180,205Z" fill="#e82a1f" stroke="#e82a1f" stroke-width="1.51"></path><path d="M-17,27L-51,116L26,95Z" fill="#e86758" stroke="#e86758" stroke-width="1.51"></path><path d="M325,-4L217,-71L210,-3Z" fill="#e56050" stroke="#e56050" stroke-width="1.51"></path><path d="M-17,27L-148,76L-51,116Z" fill="#e37a70" stroke="#e37a70" stroke-width="1.51"></path><path d="M62,-98L-8,-72L72,31Z" fill="#dd8882" stroke="#dd8882" stroke-width="1.51"></path><path d="M-51,116L-34,195L26,95Z" fill="#e66454" stroke="#e66454" stroke-width="1.51"></path><path d="M180,205L264,202L273,75Z" fill="#e71413" stroke="#e71413" stroke-width="1.51"></path><path d="M264,202L304,157L273,75Z" fill="#e61312" stroke="#e61312" stroke-width="1.51"></path><path d="M304,157L328,60L273,75Z" fill="#e81414" stroke="#e81414" stroke-width="1.51"></path><path d="M273,75L325,-4L210,-3Z" fill="#e84938" stroke="#e84938" stroke-width="1.51"></path><path d="M328,60L325,-4L273,75Z" fill="#e73c2c" stroke="#e73c2c" stroke-width="1.51"></path><path d="M180,205L251,286L264,202Z" fill="#e3100f" stroke="#e3100f" stroke-width="1.51"></path><path d="M86,294L117,284L69,145Z" fill="#e53a29" stroke="#e53a29" stroke-width="1.51"></path><path d="M-34,195L86,294L69,145Z" fill="#e54e3c" stroke="#e54e3c" stroke-width="1.51"></path><path d="M-8,-72L-126,-10L-17,27Z" fill="#d69595" stroke="#d69595" stroke-width="1.51"></path><path d="M-51,116L-139,209L-34,195Z" fill="#e07265" stroke="#e07265" stroke-width="1.51"></path><path d="M-126,-10L-148,76L-17,27Z" fill="#d98f8e" stroke="#d98f8e" stroke-width="1.51"></path><path d="M86,294L251,286L117,284Z" fill="#e3100f" stroke="#e3100f" stroke-width="1.51"></path><path d="M117,284L251,286L180,205Z" fill="#e31110" stroke="#e31110" stroke-width="1.51"></path><path d="M264,202L299,249L304,157Z" fill="#e2100f" stroke="#e2100f" stroke-width="1.51"></path><path d="M-101,295L-32,289L-34,195Z" fill="#dc6b5b" stroke="#dc6b5b" stroke-width="1.51"></path><path d="M-34,195L-32,289L86,294Z" fill="#e05846" stroke="#e05846" stroke-width="1.51"></path><path d="M251,286L299,249L264,202Z" fill="#e10e0d" stroke="#e10e0d" stroke-width="1.51"></path><path d="M304,157L407,97L328,60Z" fill="#e61311" stroke="#e61311" stroke-width="1.51"></path><path d="M325,-4L342,-87L217,-71Z" fill="#e16b5c" stroke="#e16b5c" stroke-width="1.51"></path><path d="M217,-71L342,-87L165,-91Z" fill="#df776b" stroke="#df776b" stroke-width="1.51"></path><path d="M165,-91L442,-116L62,-98Z" fill="#de7e75" stroke="#de7e75" stroke-width="1.51"></path><path d="M431,17L342,-87L325,-4Z" fill="#e15d4b" stroke="#e15d4b" stroke-width="1.51"></path><path d="M-148,76L-139,209L-51,116Z" fill="#de7e75" stroke="#de7e75" stroke-width="1.51"></path><path d="M-126,-10L-141,-100L-148,76Z" fill="#c8a8b2" stroke="#c8a8b2" stroke-width="1.51"></path><path d="M-8,-72L-141,-100L-126,-10Z" fill="#c3adba" stroke="#c3adba" stroke-width="1.51"></path><path d="M62,-98L-141,-100L-8,-72Z" fill="#c8a8b3" stroke="#c8a8b3" stroke-width="1.51"></path><path d="M328,60L431,17L325,-4Z" fill="#e44634" stroke="#e44634" stroke-width="1.51"></path><path d="M453,178L407,97L304,157Z" fill="#e10f0d" stroke="#e10f0d" stroke-width="1.51"></path><path d="M-139,209L-101,295L-34,195Z" fill="#db7569" stroke="#db7569" stroke-width="1.51"></path><path d="M-32,289L-101,295L86,294Z" fill="#de5e4c" stroke="#de5e4c" stroke-width="1.51"></path><path d="M407,97L431,17L328,60Z" fill="#e43022" stroke="#e43022" stroke-width="1.51"></path><path d="M407,97L453,178L431,17Z" fill="#e30f0f" stroke="#e30f0f" stroke-width="1.51"></path><path d="M299,249L391,279L304,157Z" fill="#e00c0b" stroke="#e00c0b" stroke-width="1.51"></path><path d="M251,286L391,279L299,249Z" fill="#dd0a09" stroke="#dd0a09" stroke-width="1.51"></path><path d="M391,279L453,178L304,157Z" fill="#de0b0a" stroke="#de0b0a" stroke-width="1.51"></path><path d="M431,17L442,-116L342,-87Z" fill="#dc6c5c" stroke="#dc6c5c" stroke-width="1.51"></path><path d="M342,-87L442,-116L165,-91Z" fill="#db7b70" stroke="#db7b70" stroke-width="1.51"></path><path d="M62,-98L442,-116L-141,-100Z" fill="#dd8984" stroke="#dd8984" stroke-width="1.51"></path><path d="M453,178L442,-116L431,17Z" fill="#e14330" stroke="#e14330" stroke-width="1.51"></path></svg>