<svg width="300" height="176" xmlns="http://www.w3.org/2000/svg"><path d="M160,65L240,20L119,-11Z" fill="#ec493a" stroke="#ec493a" stroke-width="1.51"></path><path d="M240,20L248,-76L119,-11Z" fill="#e85f4f" stroke="#e85f4f" stroke-width="1.51"></path><path d="M240,20L325,-12L248,-76Z" fill="#e45e4d" stroke="#e45e4d" stroke-width="1.51"></path><path d="M160,65L254,114L240,20Z" fill="#ec2e24" stroke="#ec2e24" stroke-width="1.51"></path><path d="M248,-76L147,-126L119,-11Z" fill="#e47468" stroke="#e47468" stroke-width="1.51"></path><path d="M119,-11L59,112L160,65Z" fill="#ed4838" stroke="#ed4838" stroke-width="1.51"></path><path d="M30,-125L43,0L119,-11Z" fill="#e0827a" stroke="#e0827a" stroke-width="1.51"></path><path d="M321,64L325,-12L240,20Z" fill="#e74736" stroke="#e74736" stroke-width="1.51"></path><path d="M160,65L178,154L254,114Z" fill="#eb1818" stroke="#eb1818" stroke-width="1.51"></path><path d="M85,158L178,154L160,65Z" fill="#ed201c" stroke="#ed201c" stroke-width="1.51"></path><path d="M254,114L321,64L240,20Z" fill="#ea2d22" stroke="#ea2d22" stroke-width="1.51"></path><path d="M43,0L59,112L119,-11Z" fill="#ea6050" stroke="#ea6050" stroke-width="1.51"></path><path d="M325,-12L332,-66L248,-76Z" fill="#e1695a" stroke="#e1695a" stroke-width="1.51"></path><path d="M248,-76L400,-95L147,-126Z" fill="#dc7c72" stroke="#dc7c72" stroke-width="1.51"></path><path d="M400,-12L332,-66L325,-12Z" fill="#e15f4f" stroke="#e15f4f" stroke-width="1.51"></path><path d="M59,112L85,158L160,65Z" fill="#ec382b" stroke="#ec382b" stroke-width="1.51"></path><path d="M59,112L-8,200L85,158Z" fill="#e84e3d" stroke="#e84e3d" stroke-width="1.51"></path><path d="M43,0L-13,63L59,112Z" fill="#e96353" stroke="#e96353" stroke-width="1.51"></path><path d="M-11,-65L-12,9L43,0Z" fill="#de8781" stroke="#de8781" stroke-width="1.51"></path><path d="M147,-126L30,-125L119,-11Z" fill="#dd8883" stroke="#dd8883" stroke-width="1.51"></path><path d="M-12,9L-13,63L43,0Z" fill="#e4786d" stroke="#e4786d" stroke-width="1.51"></path><path d="M178,154L264,188L254,114Z" fill="#e81514" stroke="#e81514" stroke-width="1.51"></path><path d="M254,114L315,188L321,64Z" fill="#e71413" stroke="#e71413" stroke-width="1.51"></path><path d="M227,237L264,188L178,154Z" fill="#e61312" stroke="#e61312" stroke-width="1.51"></path><path d="M30,-125L-11,-65L43,0Z" fill="#d79393" stroke="#d79393" stroke-width="1.51"></path><path d="M-12,9L-109,-11L-13,63Z" fill="#de8680" stroke="#de8680" stroke-width="1.51"></path><path d="M321,64L387,54L325,-12Z" fill="#e5402f" stroke="#e5402f" stroke-width="1.51"></path><path d="M315,188L387,54L321,64Z" fill="#e61312" stroke="#e61312" stroke-width="1.51"></path><path d="M387,54L400,-12L325,-12Z" fill="#e34d3b" stroke="#e34d3b" stroke-width="1.51"></path><path d="M264,188L315,188L254,114Z" fill="#e51211" stroke="#e51211" stroke-width="1.51"></path><path d="M264,188L305,260L315,188Z" fill="#e20f0e" stroke="#e20f0e" stroke-width="1.51"></path><path d="M117,255L227,237L178,154Z" fill="#e61312" stroke="#e61312" stroke-width="1.51"></path><path d="M400,-12L400,-95L332,-66Z" fill="#dd6a5b" stroke="#dd6a5b" stroke-width="1.51"></path><path d="M332,-66L400,-95L248,-76Z" fill="#dd7367" stroke="#dd7367" stroke-width="1.51"></path><path d="M72,274L117,255L85,158Z" fill="#e63929" stroke="#e63929" stroke-width="1.51"></path><path d="M85,158L117,255L178,154Z" fill="#e9281f" stroke="#e9281f" stroke-width="1.51"></path><path d="M-13,63L-8,200L59,112Z" fill="#e95a4a" stroke="#e95a4a" stroke-width="1.51"></path><path d="M117,255L305,260L227,237Z" fill="#e2100f" stroke="#e2100f" stroke-width="1.51"></path><path d="M227,237L305,260L264,188Z" fill="#e20f0e" stroke="#e20f0e" stroke-width="1.51"></path><path d="M315,188L450,196L387,54Z" fill="#e20f0e" stroke="#e20f0e" stroke-width="1.51"></path><path d="M-130,-61L-109,-11L-11,-65Z" fill="#c9a6b0" stroke="#c9a6b0" stroke-width="1.51"></path><path d="M-11,-65L-109,-11L-12,9Z" fill="#d79595" stroke="#d79595" stroke-width="1.51"></path><path d="M-13,63L-108,104L-8,200Z" fill="#e56b5d" stroke="#e56b5d" stroke-width="1.51"></path><path d="M117,255L72,274L305,260Z" fill="#e41110" stroke="#e41110" stroke-width="1.51"></path><path d="M-8,200L72,274L85,158Z" fill="#e54b39" stroke="#e54b39" stroke-width="1.51"></path><path d="M-109,-11L-108,104L-13,63Z" fill="#df837c" stroke="#df837c" stroke-width="1.51"></path><path d="M-109,-11L-130,-61L-108,104Z" fill="#d29b9e" stroke="#d29b9e" stroke-width="1.51"></path><path d="M30,-125L-130,-61L-11,-65Z" fill="#c8a8b2" stroke="#c8a8b2" stroke-width="1.51"></path><path d="M-151,191L-44,247L-8,200Z" fill="#de7061" stroke="#de7061" stroke-width="1.51"></path><path d="M-8,200L-44,247L72,274Z" fill="#e15847" stroke="#e15847" stroke-width="1.51"></path><path d="M407,255L450,196L315,188Z" fill="#de0a09" stroke="#de0a09" stroke-width="1.51"></path><path d="M387,54L450,196L400,-12Z" fill="#e41d15" stroke="#e41d15" stroke-width="1.51"></path><path d="M400,-12L450,196L400,-95Z" fill="#e24230" stroke="#e24230" stroke-width="1.51"></path><path d="M72,274L407,255L305,260Z" fill="#e00d0c" stroke="#e00d0c" stroke-width="1.51"></path><path d="M305,260L407,255L315,188Z" fill="#df0b0a" stroke="#df0b0a" stroke-width="1.51"></path><path d="M-108,104L-151,191L-8,200Z" fill="#df776b" stroke="#df776b" stroke-width="1.51"></path><path d="M-130,-61L-151,191L-108,104Z" fill="#dd8782" stroke="#dd8782" stroke-width="1.51"></path><path d="M-151,191L-147,279L-44,247Z" fill="#d97b71" stroke="#d97b71" stroke-width="1.51"></path><path d="M-44,247L-147,279L72,274Z" fill="#dd6655" stroke="#dd6655" stroke-width="1.51"></path></svg>