<svg width="300" height="176" xmlns="http://www.w3.org/2000/svg"><path d="M-34,267L-153,278L239,292Z" fill="#e93428" stroke="#e93428" stroke-width="1.51"></path><path d="M359,151L396,176L413,67Z" fill="#e20f0f" stroke="#e20f0f" stroke-width="1.51"></path><path d="M357,240L239,292L419,247Z" fill="#dd0a08" stroke="#dd0a08" stroke-width="1.51"></path><path d="M413,67L396,176L419,247Z" fill="#e00d0b" stroke="#e00d0b" stroke-width="1.51"></path><path d="M214,-74L339,-63L448,-120Z" fill="#f0483c" stroke="#f0483c" stroke-width="1.51"></path><path d="M134,-124L214,-74L448,-120Z" fill="#f34e43" stroke="#f34e43" stroke-width="1.51"></path><path d="M339,-63L403,-34L448,-120Z" fill="#ed4537" stroke="#ed4537" stroke-width="1.51"></path><path d="M403,-34L413,67L448,-120Z" fill="#ea3a2d" stroke="#ea3a2d" stroke-width="1.51"></path><path d="M413,67L419,247L448,-120Z" fill="#e51c16" stroke="#e51c16" stroke-width="1.51"></path><path d="M142,257L-34,267L239,292Z" fill="#e61e17" stroke="#e61e17" stroke-width="1.51"></path><path d="M310,84L359,151L413,67Z" fill="#e61212" stroke="#e61212" stroke-width="1.51"></path><path d="M403,-34L338,7L413,67Z" fill="#e92f25" stroke="#e92f25" stroke-width="1.51"></path><path d="M396,176L357,240L419,247Z" fill="#dd0a08" stroke="#dd0a08" stroke-width="1.51"></path><path d="M338,7L310,84L413,67Z" fill="#e9231c" stroke="#e9231c" stroke-width="1.51"></path><path d="M339,-63L338,7L403,-34Z" fill="#ed3b2f" stroke="#ed3b2f" stroke-width="1.51"></path><path d="M359,151L357,240L396,176Z" fill="#e00d0c" stroke="#e00d0c" stroke-width="1.51"></path><path d="M263,184L357,240L359,151Z" fill="#e10f0e" stroke="#e10f0e" stroke-width="1.51"></path><path d="M310,84L263,184L359,151Z" fill="#e51212" stroke="#e51212" stroke-width="1.51"></path><path d="M263,184L239,292L357,240Z" fill="#e10d0d" stroke="#e10d0d" stroke-width="1.51"></path><path d="M244,2L310,84L338,7Z" fill="#ec2c23" stroke="#ec2c23" stroke-width="1.51"></path><path d="M244,2L338,7L339,-63Z" fill="#ee392e" stroke="#ee392e" stroke-width="1.51"></path><path d="M214,-74L244,2L339,-63Z" fill="#f14135" stroke="#f14135" stroke-width="1.51"></path><path d="M244,94L263,184L310,84Z" fill="#e81514" stroke="#e81514" stroke-width="1.51"></path><path d="M244,2L244,94L310,84Z" fill="#ec231d" stroke="#ec231d" stroke-width="1.51"></path><path d="M-113,-78L-13,-71L134,-124Z" fill="#fb625a" stroke="#fb625a" stroke-width="1.51"></path><path d="M37,246L-34,267L142,257Z" fill="#e92f24" stroke="#e92f24" stroke-width="1.51"></path><path d="M173,189L142,257L239,292Z" fill="#e41111" stroke="#e41111" stroke-width="1.51"></path><path d="M244,2L171,87L244,94Z" fill="#ee241e" stroke="#ee241e" stroke-width="1.51"></path><path d="M244,94L173,189L263,184Z" fill="#e81514" stroke="#e81514" stroke-width="1.51"></path><path d="M173,189L239,292L263,184Z" fill="#e41110" stroke="#e41110" stroke-width="1.51"></path><path d="M214,-74L123,-20L244,2Z" fill="#f33f35" stroke="#f33f35" stroke-width="1.51"></path><path d="M123,-20L171,87L244,2Z" fill="#f13129" stroke="#f13129" stroke-width="1.51"></path><path d="M171,87L173,189L244,94Z" fill="#eb1717" stroke="#eb1717" stroke-width="1.51"></path><path d="M134,-124L123,-20L214,-74Z" fill="#f64a3f" stroke="#f64a3f" stroke-width="1.51"></path><path d="M83,-84L123,-20L134,-124Z" fill="#f85046" stroke="#f85046" stroke-width="1.51"></path><path d="M40,74L81,211L171,87Z" fill="#ef2821" stroke="#ef2821" stroke-width="1.51"></path><path d="M123,-20L63,26L171,87Z" fill="#f3362d" stroke="#f3362d" stroke-width="1.51"></path><path d="M171,87L81,211L173,189Z" fill="#eb1918" stroke="#eb1918" stroke-width="1.51"></path><path d="M81,211L142,257L173,189Z" fill="#e81b16" stroke="#e81b16" stroke-width="1.51"></path><path d="M63,26L40,74L171,87Z" fill="#f3332b" stroke="#f3332b" stroke-width="1.51"></path><path d="M-13,-71L83,-84L134,-124Z" fill="#fa5a50" stroke="#fa5a50" stroke-width="1.51"></path><path d="M81,211L37,246L142,257Z" fill="#e9271e" stroke="#e9271e" stroke-width="1.51"></path><path d="M83,-84L63,26L123,-20Z" fill="#f6493f" stroke="#f6493f" stroke-width="1.51"></path><path d="M-6,77L-52,182L40,74Z" fill="#f33d33" stroke="#f33d33" stroke-width="1.51"></path><path d="M-13,-71L-26,0L63,26Z" fill="#f95348" stroke="#f95348" stroke-width="1.51"></path><path d="M40,74L-52,182L81,211Z" fill="#f0372d" stroke="#f0372d" stroke-width="1.51"></path><path d="M-52,182L37,246L81,211Z" fill="#ed352a" stroke="#ed352a" stroke-width="1.51"></path><path d="M-13,-71L63,26L83,-84Z" fill="#f95349" stroke="#f95349" stroke-width="1.51"></path><path d="M-6,77L40,74L63,26Z" fill="#f53f35" stroke="#f53f35" stroke-width="1.51"></path><path d="M-26,0L-6,77L63,26Z" fill="#f6483e" stroke="#f6483e" stroke-width="1.51"></path><path d="M-52,182L-34,267L37,246Z" fill="#ed3c30" stroke="#ed3c30" stroke-width="1.51"></path><path d="M-136,107L-52,182L-6,77Z" fill="#f4473c" stroke="#f4473c" stroke-width="1.51"></path><path d="M-88,11L-136,107L-6,77Z" fill="#f74e44" stroke="#f74e44" stroke-width="1.51"></path><path d="M-26,0L-88,11L-6,77Z" fill="#f85146" stroke="#f85146" stroke-width="1.51"></path><path d="M-113,-78L-88,11L-26,0Z" fill="#fb6057" stroke="#fb6057" stroke-width="1.51"></path><path d="M-113,-78L-26,0L-13,-71Z" fill="#fb6259" stroke="#fb6259" stroke-width="1.51"></path><path d="M-52,182L-121,181L-34,267Z" fill="#f04539" stroke="#f04539" stroke-width="1.51"></path><path d="M-136,107L-121,181L-52,182Z" fill="#f34c40" stroke="#f34c40" stroke-width="1.51"></path><path d="M-121,181L-153,278L-34,267Z" fill="#ef493d" stroke="#ef493d" stroke-width="1.51"></path><path d="M-113,-78L-136,107L-88,11Z" fill="#fb5e55" stroke="#fb5e55" stroke-width="1.51"></path><path d="M-136,107L-153,278L-121,181Z" fill="#f25044" stroke="#f25044" stroke-width="1.51"></path></svg>