<svg width="300" height="176" xmlns="http://www.w3.org/2000/svg"><path d="M165,94L207,144L209,112Z" fill="#eb1717" stroke="#eb1717" stroke-width="1.51"></path><path d="M165,94L129,202L207,144Z" fill="#eb1717" stroke="#eb1717" stroke-width="1.51"></path><path d="M165,94L68,80L129,202Z" fill="#ed2e24" stroke="#ed2e24" stroke-width="1.51"></path><path d="M165,94L160,4L68,80Z" fill="#ee3e30" stroke="#ee3e30" stroke-width="1.51"></path><path d="M209,112L160,4L165,94Z" fill="#ee2c23" stroke="#ee2c23" stroke-width="1.51"></path><path d="M68,80L74,211L129,202Z" fill="#e93c2d" stroke="#e93c2d" stroke-width="1.51"></path><path d="M207,144L331,96L209,112Z" fill="#e91515" stroke="#e91515" stroke-width="1.51"></path><path d="M209,112L244,-28L160,4Z" fill="#ea4636" stroke="#ea4636" stroke-width="1.51"></path><path d="M261,265L319,192L207,144Z" fill="#e41110" stroke="#e41110" stroke-width="1.51"></path><path d="M261,265L207,144L129,202Z" fill="#e61312" stroke="#e61312" stroke-width="1.51"></path><path d="M319,192L331,96L207,144Z" fill="#e61312" stroke="#e61312" stroke-width="1.51"></path><path d="M147,294L261,265L129,202Z" fill="#e41110" stroke="#e41110" stroke-width="1.51"></path><path d="M330,24L244,-28L209,112Z" fill="#e94231" stroke="#e94231" stroke-width="1.51"></path><path d="M74,211L147,294L129,202Z" fill="#e62d20" stroke="#e62d20" stroke-width="1.51"></path><path d="M331,96L330,24L209,112Z" fill="#e9221b" stroke="#e9221b" stroke-width="1.51"></path><path d="M-20,181L42,271L74,211Z" fill="#e4513f" stroke="#e4513f" stroke-width="1.51"></path><path d="M160,4L31,5L68,80Z" fill="#ea5e4e" stroke="#ea5e4e" stroke-width="1.51"></path><path d="M146,-82L31,5L160,4Z" fill="#e76c5f" stroke="#e76c5f" stroke-width="1.51"></path><path d="M74,211L42,271L147,294Z" fill="#e43a2a" stroke="#e43a2a" stroke-width="1.51"></path><path d="M-20,181L74,211L68,80Z" fill="#e84f3e" stroke="#e84f3e" stroke-width="1.51"></path><path d="M-57,87L-20,181L68,80Z" fill="#e85f4f" stroke="#e85f4f" stroke-width="1.51"></path><path d="M244,-28L146,-82L160,4Z" fill="#e76556" stroke="#e76556" stroke-width="1.51"></path><path d="M244,-28L262,-96L146,-82Z" fill="#e27265" stroke="#e27265" stroke-width="1.51"></path><path d="M330,24L262,-96L244,-28Z" fill="#e36352" stroke="#e36352" stroke-width="1.51"></path><path d="M31,5L-57,87L68,80Z" fill="#e86859" stroke="#e86859" stroke-width="1.51"></path><path d="M31,5L-36,12L-57,87Z" fill="#e37b71" stroke="#e37b71" stroke-width="1.51"></path><path d="M32,-80L-36,12L31,5Z" fill="#de8781" stroke="#de8781" stroke-width="1.51"></path><path d="M261,265L362,283L319,192Z" fill="#df0c0b" stroke="#df0c0b" stroke-width="1.51"></path><path d="M449,205L444,90L331,96Z" fill="#e20f0e" stroke="#e20f0e" stroke-width="1.51"></path><path d="M331,96L444,90L330,24Z" fill="#e6281c" stroke="#e6281c" stroke-width="1.51"></path><path d="M147,294L362,283L261,265Z" fill="#df0c0b" stroke="#df0c0b" stroke-width="1.51"></path><path d="M2,-126L32,-80L146,-82Z" fill="#d69495" stroke="#d69495" stroke-width="1.51"></path><path d="M146,-82L32,-80L31,5Z" fill="#df837b" stroke="#df837b" stroke-width="1.51"></path><path d="M-20,181L-32,278L42,271Z" fill="#e15b4a" stroke="#e15b4a" stroke-width="1.51"></path><path d="M42,271L-32,278L147,294Z" fill="#e24835" stroke="#e24835" stroke-width="1.51"></path><path d="M-93,246L-32,278L-20,181Z" fill="#df695a" stroke="#df695a" stroke-width="1.51"></path><path d="M330,24L354,-125L262,-96Z" fill="#df6e61" stroke="#df6e61" stroke-width="1.51"></path><path d="M449,205L331,96L319,192Z" fill="#e10e0d" stroke="#e10e0d" stroke-width="1.51"></path><path d="M362,283L449,205L319,192Z" fill="#dd0a08" stroke="#dd0a08" stroke-width="1.51"></path><path d="M444,90L417,-35L330,24Z" fill="#e34432" stroke="#e34432" stroke-width="1.51"></path><path d="M362,283L429,272L449,205Z" fill="#da0605" stroke="#da0605" stroke-width="1.51"></path><path d="M-139,162L-93,246L-20,181Z" fill="#de7468" stroke="#de7468" stroke-width="1.51"></path><path d="M417,-35L354,-125L330,24Z" fill="#df6655" stroke="#df6655" stroke-width="1.51"></path><path d="M262,-96L2,-126L146,-82Z" fill="#e0847c" stroke="#e0847c" stroke-width="1.51"></path><path d="M354,-125L2,-126L262,-96Z" fill="#dc847d" stroke="#dc847d" stroke-width="1.51"></path><path d="M32,-80L-117,-61L-36,12Z" fill="#d29b9e" stroke="#d29b9e" stroke-width="1.51"></path><path d="M-152,18L-136,86L-57,87Z" fill="#dd8883" stroke="#dd8883" stroke-width="1.51"></path><path d="M-152,18L-57,87L-36,12Z" fill="#dc8984" stroke="#dc8984" stroke-width="1.51"></path><path d="M-57,87L-139,162L-20,181Z" fill="#e27366" stroke="#e27366" stroke-width="1.51"></path><path d="M-136,86L-139,162L-57,87Z" fill="#e07e75" stroke="#e07e75" stroke-width="1.51"></path><path d="M444,90L413,-94L417,-35Z" fill="#df5744" stroke="#df5744" stroke-width="1.51"></path><path d="M417,-35L413,-94L354,-125Z" fill="#da7468" stroke="#da7468" stroke-width="1.51"></path><path d="M-136,86L-152,18L-139,162Z" fill="#de8781" stroke="#de8781" stroke-width="1.51"></path><path d="M-117,-61L-152,18L-36,12Z" fill="#d09ea4" stroke="#d09ea4" stroke-width="1.51"></path><path d="M2,-126L-117,-61L32,-80Z" fill="#c8a8b1" stroke="#c8a8b1" stroke-width="1.51"></path></svg>