<svg width="300" height="176" xmlns="http://www.w3.org/2000/svg"><path d="M260,-106L351,-64L428,-82Z" fill="#ef483b" stroke="#ef483b" stroke-width="1.51"></path><path d="M428,-82L351,-64L429,27Z" fill="#eb3d30" stroke="#eb3d30" stroke-width="1.51"></path><path d="M309,241L211,301L451,268Z" fill="#dd0a08" stroke="#dd0a08" stroke-width="1.51"></path><path d="M356,198L309,241L451,268Z" fill="#dd0908" stroke="#dd0908" stroke-width="1.51"></path><path d="M392,163L356,198L451,268Z" fill="#dd0a09" stroke="#dd0a09" stroke-width="1.51"></path><path d="M429,27L399,93L451,268Z" fill="#e10e0d" stroke="#e10e0d" stroke-width="1.51"></path><path d="M399,93L392,163L451,268Z" fill="#df0c0b" stroke="#df0c0b" stroke-width="1.51"></path><path d="M428,-82L429,27L451,268Z" fill="#e41a14" stroke="#e41a14" stroke-width="1.51"></path><path d="M353,98L399,93L429,27Z" fill="#e61a15" stroke="#e61a15" stroke-width="1.51"></path><path d="M315,-28L353,98L429,27Z" fill="#e92a20" stroke="#e92a20" stroke-width="1.51"></path><path d="M351,-64L315,-28L429,27Z" fill="#ec392d" stroke="#ec392d" stroke-width="1.51"></path><path d="M353,98L392,163L399,93Z" fill="#e41010" stroke="#e41010" stroke-width="1.51"></path><path d="M353,98L356,198L392,163Z" fill="#e20f0e" stroke="#e20f0e" stroke-width="1.51"></path><path d="M315,-28L257,18L353,98Z" fill="#ec2d23" stroke="#ec2d23" stroke-width="1.51"></path><path d="M257,18L262,99L353,98Z" fill="#ea1d19" stroke="#ea1d19" stroke-width="1.51"></path><path d="M223,169L309,241L356,198Z" fill="#e2100f" stroke="#e2100f" stroke-width="1.51"></path><path d="M262,99L223,169L356,198Z" fill="#e51312" stroke="#e51312" stroke-width="1.51"></path><path d="M353,98L262,99L356,198Z" fill="#e51211" stroke="#e51211" stroke-width="1.51"></path><path d="M260,-106L315,-28L351,-64Z" fill="#f04539" stroke="#f04539" stroke-width="1.51"></path><path d="M127,273L39,280L211,301Z" fill="#e41a15" stroke="#e41a15" stroke-width="1.51"></path><path d="M260,-106L257,18L315,-28Z" fill="#f03f33" stroke="#f03f33" stroke-width="1.51"></path><path d="M223,169L211,301L309,241Z" fill="#e20f0e" stroke="#e20f0e" stroke-width="1.51"></path><path d="M173,2L257,18L260,-106Z" fill="#f23d33" stroke="#f23d33" stroke-width="1.51"></path><path d="M137,-118L173,2L260,-106Z" fill="#f5493e" stroke="#f5493e" stroke-width="1.51"></path><path d="M155,158L223,169L262,99Z" fill="#e91615" stroke="#e91615" stroke-width="1.51"></path><path d="M129,120L155,158L262,99Z" fill="#ec1817" stroke="#ec1817" stroke-width="1.51"></path><path d="M257,18L173,2L262,99Z" fill="#ee2b23" stroke="#ee2b23" stroke-width="1.51"></path><path d="M173,2L129,120L262,99Z" fill="#ef201c" stroke="#ef201c" stroke-width="1.51"></path><path d="M127,273L211,301L223,169Z" fill="#e41110" stroke="#e41110" stroke-width="1.51"></path><path d="M155,158L127,273L223,169Z" fill="#e71414" stroke="#e71414" stroke-width="1.51"></path><path d="M85,62L129,120L173,2Z" fill="#f22b24" stroke="#f22b24" stroke-width="1.51"></path><path d="M65,147L127,273L155,158Z" fill="#eb211b" stroke="#eb211b" stroke-width="1.51"></path><path d="M137,-118L58,31L173,2Z" fill="#f6443a" stroke="#f6443a" stroke-width="1.51"></path><path d="M58,31L85,62L173,2Z" fill="#f4382f" stroke="#f4382f" stroke-width="1.51"></path><path d="M37,-125L58,31L137,-118Z" fill="#f8544a" stroke="#f8544a" stroke-width="1.51"></path><path d="M129,120L65,147L155,158Z" fill="#ee231d" stroke="#ee231d" stroke-width="1.51"></path><path d="M65,147L39,280L127,273Z" fill="#e92920" stroke="#e92920" stroke-width="1.51"></path><path d="M85,62L65,147L129,120Z" fill="#f02923" stroke="#f02923" stroke-width="1.51"></path><path d="M37,-125L-63,-11L58,31Z" fill="#f9574d" stroke="#f9574d" stroke-width="1.51"></path><path d="M-4,251L39,280L65,147Z" fill="#eb3328" stroke="#eb3328" stroke-width="1.51"></path><path d="M-16,163L-4,251L65,147Z" fill="#ee372c" stroke="#ee372c" stroke-width="1.51"></path><path d="M-9,117L65,147L85,62Z" fill="#f2332b" stroke="#f2332b" stroke-width="1.51"></path><path d="M58,31L-9,117L85,62Z" fill="#f43a30" stroke="#f43a30" stroke-width="1.51"></path><path d="M-45,-117L-63,-11L37,-125Z" fill="#fc645c" stroke="#fc645c" stroke-width="1.51"></path><path d="M-4,251L-109,264L39,280Z" fill="#eb3d2f" stroke="#eb3d2f" stroke-width="1.51"></path><path d="M-9,117L-16,163L65,147Z" fill="#f1392f" stroke="#f1392f" stroke-width="1.51"></path><path d="M-63,-11L-9,117L58,31Z" fill="#f6483d" stroke="#f6483d" stroke-width="1.51"></path><path d="M-63,-11L-118,118L-9,117Z" fill="#f74b40" stroke="#f74b40" stroke-width="1.51"></path><path d="M-16,163L-88,169L-4,251Z" fill="#f04034" stroke="#f04034" stroke-width="1.51"></path><path d="M-88,169L-109,264L-4,251Z" fill="#ef4438" stroke="#ef4438" stroke-width="1.51"></path><path d="M-88,169L-16,163L-9,117Z" fill="#f24237" stroke="#f24237" stroke-width="1.51"></path><path d="M-118,118L-88,169L-9,117Z" fill="#f4483c" stroke="#f4483c" stroke-width="1.51"></path><path d="M-147,-32L-118,118L-63,-11Z" fill="#fa5b52" stroke="#fa5b52" stroke-width="1.51"></path><path d="M-134,-69L-63,-11L-45,-117Z" fill="#fd6861" stroke="#fd6861" stroke-width="1.51"></path><path d="M-134,-69L-147,-32L-63,-11Z" fill="#fc6861" stroke="#fc6861" stroke-width="1.51"></path><path d="M-118,118L-109,264L-88,169Z" fill="#f24b40" stroke="#f24b40" stroke-width="1.51"></path><path d="M-118,118L-147,-32L-109,264Z" fill="#f75046" stroke="#f75046" stroke-width="1.51"></path></svg>