<svg width="300" height="176" xmlns="http://www.w3.org/2000/svg"><path d="M65,272L-46,271L212,285Z" fill="#e7281e" stroke="#e7281e" stroke-width="1.51"></path><path d="M133,272L65,272L212,285Z" fill="#e41613" stroke="#e41613" stroke-width="1.51"></path><path d="M-106,-120L182,-105L241,-106Z" fill="#f9584e" stroke="#f9584e" stroke-width="1.51"></path><path d="M342,-30L300,103L390,-26Z" fill="#eb3025" stroke="#eb3025" stroke-width="1.51"></path><path d="M390,-26L300,103L422,114Z" fill="#e81f19" stroke="#e81f19" stroke-width="1.51"></path><path d="M411,-76L390,-26L422,114Z" fill="#e93126" stroke="#e93126" stroke-width="1.51"></path><path d="M411,-76L422,114L434,170Z" fill="#e51b15" stroke="#e51b15" stroke-width="1.51"></path><path d="M340,209L423,241L434,170Z" fill="#dd0a09" stroke="#dd0a09" stroke-width="1.51"></path><path d="M422,114L340,209L434,170Z" fill="#e00d0c" stroke="#e00d0c" stroke-width="1.51"></path><path d="M300,103L340,209L422,114Z" fill="#e3100f" stroke="#e3100f" stroke-width="1.51"></path><path d="M340,209L324,294L423,241Z" fill="#dc0908" stroke="#dc0908" stroke-width="1.51"></path><path d="M352,-90L390,-26L411,-76Z" fill="#ed4336" stroke="#ed4336" stroke-width="1.51"></path><path d="M259,58L300,103L342,-30Z" fill="#ec2820" stroke="#ec2820" stroke-width="1.51"></path><path d="M352,-90L342,-30L390,-26Z" fill="#ed4033" stroke="#ed4033" stroke-width="1.51"></path><path d="M-106,-120L90,-80L182,-105Z" fill="#fb5d54" stroke="#fb5d54" stroke-width="1.51"></path><path d="M264,203L324,294L340,209Z" fill="#e00d0c" stroke="#e00d0c" stroke-width="1.51"></path><path d="M300,103L264,203L340,209Z" fill="#e31110" stroke="#e31110" stroke-width="1.51"></path><path d="M229,2L259,58L342,-30Z" fill="#ee3228" stroke="#ee3228" stroke-width="1.51"></path><path d="M241,-106L342,-30L352,-90Z" fill="#f0473a" stroke="#f0473a" stroke-width="1.51"></path><path d="M241,-106L229,2L342,-30Z" fill="#f14135" stroke="#f14135" stroke-width="1.51"></path><path d="M264,203L212,285L324,294Z" fill="#e00d0c" stroke="#e00d0c" stroke-width="1.51"></path><path d="M181,72L167,185L264,203Z" fill="#e91515" stroke="#e91515" stroke-width="1.51"></path><path d="M181,72L264,203L300,103Z" fill="#e91515" stroke="#e91515" stroke-width="1.51"></path><path d="M259,58L181,72L300,103Z" fill="#ec1c19" stroke="#ec1c19" stroke-width="1.51"></path><path d="M182,-105L229,2L241,-106Z" fill="#f4483c" stroke="#f4483c" stroke-width="1.51"></path><path d="M167,185L212,285L264,203Z" fill="#e41110" stroke="#e41110" stroke-width="1.51"></path><path d="M229,2L181,72L259,58Z" fill="#ee2923" stroke="#ee2923" stroke-width="1.51"></path><path d="M182,-105L142,0L229,2Z" fill="#f44035" stroke="#f44035" stroke-width="1.51"></path><path d="M167,185L133,272L212,285Z" fill="#e51211" stroke="#e51211" stroke-width="1.51"></path><path d="M142,0L181,72L229,2Z" fill="#f13129" stroke="#f13129" stroke-width="1.51"></path><path d="M81,85L64,158L167,185Z" fill="#ee2620" stroke="#ee2620" stroke-width="1.51"></path><path d="M81,85L167,185L181,72Z" fill="#ee1c1a" stroke="#ee1c1a" stroke-width="1.51"></path><path d="M142,0L81,85L181,72Z" fill="#f22d26" stroke="#f22d26" stroke-width="1.51"></path><path d="M90,-80L142,0L182,-105Z" fill="#f7493e" stroke="#f7493e" stroke-width="1.51"></path><path d="M64,158L133,272L167,185Z" fill="#e91e19" stroke="#e91e19" stroke-width="1.51"></path><path d="M-106,-120L-49,-71L90,-80Z" fill="#fc655e" stroke="#fc655e" stroke-width="1.51"></path><path d="M64,158L65,272L133,272Z" fill="#e9271e" stroke="#e9271e" stroke-width="1.51"></path><path d="M90,-80L60,27L142,0Z" fill="#f6463b" stroke="#f6463b" stroke-width="1.51"></path><path d="M60,27L81,85L142,0Z" fill="#f43930" stroke="#f43930" stroke-width="1.51"></path><path d="M64,158L-25,153L65,272Z" fill="#ed3329" stroke="#ed3329" stroke-width="1.51"></path><path d="M-49,-71L60,27L90,-80Z" fill="#f9544a" stroke="#f9544a" stroke-width="1.51"></path><path d="M-49,-71L-33,30L60,27Z" fill="#f95349" stroke="#f95349" stroke-width="1.51"></path><path d="M-25,153L-46,271L65,272Z" fill="#ec392d" stroke="#ec392d" stroke-width="1.51"></path><path d="M-55,56L-25,153L81,85Z" fill="#f43d33" stroke="#f43d33" stroke-width="1.51"></path><path d="M-33,30L-55,56L81,85Z" fill="#f6453a" stroke="#f6453a" stroke-width="1.51"></path><path d="M60,27L-33,30L81,85Z" fill="#f54137" stroke="#f54137" stroke-width="1.51"></path><path d="M-25,153L64,158L81,85Z" fill="#f1342b" stroke="#f1342b" stroke-width="1.51"></path><path d="M-49,-71L-127,-36L-33,30Z" fill="#fb5f57" stroke="#fb5f57" stroke-width="1.51"></path><path d="M-55,56L-142,98L-25,153Z" fill="#f6493e" stroke="#f6493e" stroke-width="1.51"></path><path d="M-142,98L-103,182L-25,153Z" fill="#f44a3f" stroke="#f44a3f" stroke-width="1.51"></path><path d="M-103,182L-46,271L-25,153Z" fill="#f04338" stroke="#f04338" stroke-width="1.51"></path><path d="M-103,182L-130,256L-46,271Z" fill="#ef483b" stroke="#ef483b" stroke-width="1.51"></path><path d="M-127,-36L-55,56L-33,30Z" fill="#f9584e" stroke="#f9584e" stroke-width="1.51"></path><path d="M-106,-120L-127,-36L-49,-71Z" fill="#fd6c66" stroke="#fd6c66" stroke-width="1.51"></path><path d="M-127,-36L-142,98L-55,56Z" fill="#fa584f" stroke="#fa584f" stroke-width="1.51"></path><path d="M-142,98L-130,256L-103,182Z" fill="#f34e43" stroke="#f34e43" stroke-width="1.51"></path></svg>