<svg width="300" height="176" xmlns="http://www.w3.org/2000/svg"><path d="M156,61L151,-20L92,57Z" fill="#ec4d3c" stroke="#ec4d3c" stroke-width="1.51"></path><path d="M151,-20L55,-10L92,57Z" fill="#e96353" stroke="#e96353" stroke-width="1.51"></path><path d="M156,61L231,3L151,-20Z" fill="#eb4e3f" stroke="#eb4e3f" stroke-width="1.51"></path><path d="M231,3L166,-79L151,-20Z" fill="#e76455" stroke="#e76455" stroke-width="1.51"></path><path d="M151,-20L68,-88L55,-10Z" fill="#e3786d" stroke="#e3786d" stroke-width="1.51"></path><path d="M166,-79L68,-88L151,-20Z" fill="#e4776c" stroke="#e4776c" stroke-width="1.51"></path><path d="M156,61L245,63L231,3Z" fill="#eb3f30" stroke="#eb3f30" stroke-width="1.51"></path><path d="M92,57L165,148L156,61Z" fill="#ef241f" stroke="#ef241f" stroke-width="1.51"></path><path d="M156,61L165,148L245,63Z" fill="#ed1919" stroke="#ed1919" stroke-width="1.51"></path><path d="M-10,169L55,172L92,57Z" fill="#ea4e3e" stroke="#ea4e3e" stroke-width="1.51"></path><path d="M92,57L55,172L165,148Z" fill="#ec372a" stroke="#ec372a" stroke-width="1.51"></path><path d="M55,-10L-58,94L92,57Z" fill="#e86759" stroke="#e86759" stroke-width="1.51"></path><path d="M68,-88L-40,-26L55,-10Z" fill="#dc8985" stroke="#dc8985" stroke-width="1.51"></path><path d="M231,3L247,-103L166,-79Z" fill="#e46e61" stroke="#e46e61" stroke-width="1.51"></path><path d="M166,-79L247,-103L68,-88Z" fill="#e27b72" stroke="#e27b72" stroke-width="1.51"></path><path d="M331,-72L247,-103L231,3Z" fill="#e16d5e" stroke="#e16d5e" stroke-width="1.51"></path><path d="M245,63L318,2L231,3Z" fill="#e84938" stroke="#e84938" stroke-width="1.51"></path><path d="M216,189L300,97L245,63Z" fill="#e91515" stroke="#e91515" stroke-width="1.51"></path><path d="M122,267L216,189L165,148Z" fill="#e81414" stroke="#e81414" stroke-width="1.51"></path><path d="M165,148L216,189L245,63Z" fill="#ea1616" stroke="#ea1616" stroke-width="1.51"></path><path d="M300,97L318,2L245,63Z" fill="#e83528" stroke="#e83528" stroke-width="1.51"></path><path d="M-40,-26L-58,94L55,-10Z" fill="#e17f76" stroke="#e17f76" stroke-width="1.51"></path><path d="M-58,94L-10,169L92,57Z" fill="#e95c4c" stroke="#e95c4c" stroke-width="1.51"></path><path d="M55,172L122,267L165,148Z" fill="#e82f23" stroke="#e82f23" stroke-width="1.51"></path><path d="M-40,-26L-129,15L-58,94Z" fill="#dc8b88" stroke="#dc8b88" stroke-width="1.51"></path><path d="M68,-88L-43,-105L-40,-26Z" fill="#d19ca1" stroke="#d19ca1" stroke-width="1.51"></path><path d="M247,-103L-43,-105L68,-88Z" fill="#da8e8c" stroke="#da8e8c" stroke-width="1.51"></path><path d="M318,2L331,-72L231,3Z" fill="#e45d4d" stroke="#e45d4d" stroke-width="1.51"></path><path d="M67,284L122,267L55,172Z" fill="#e43e2c" stroke="#e43e2c" stroke-width="1.51"></path><path d="M-153,-112L-129,15L-40,-26Z" fill="#c6aab6" stroke="#c6aab6" stroke-width="1.51"></path><path d="M-58,94L-145,205L-10,169Z" fill="#e17265" stroke="#e17265" stroke-width="1.51"></path><path d="M300,97L398,-13L318,2Z" fill="#e54433" stroke="#e54433" stroke-width="1.51"></path><path d="M318,2L398,-13L331,-72Z" fill="#e25f4d" stroke="#e25f4d" stroke-width="1.51"></path><path d="M216,189L346,170L300,97Z" fill="#e61212" stroke="#e61212" stroke-width="1.51"></path><path d="M300,260L346,170L216,189Z" fill="#e20f0f" stroke="#e20f0f" stroke-width="1.51"></path><path d="M-34,260L55,172L-10,169Z" fill="#e45b49" stroke="#e45b49" stroke-width="1.51"></path><path d="M-34,260L67,284L55,172Z" fill="#e3513f" stroke="#e3513f" stroke-width="1.51"></path><path d="M430,119L398,-13L300,97Z" fill="#e5291d" stroke="#e5291d" stroke-width="1.51"></path><path d="M-129,15L-143,81L-58,94Z" fill="#dd8782" stroke="#dd8782" stroke-width="1.51"></path><path d="M-145,205L-34,260L-10,169Z" fill="#df6e60" stroke="#df6e60" stroke-width="1.51"></path><path d="M256,291L216,189L122,267Z" fill="#e31010" stroke="#e31010" stroke-width="1.51"></path><path d="M256,291L300,260L216,189Z" fill="#e10e0d" stroke="#e10e0d" stroke-width="1.51"></path><path d="M67,284L256,291L122,267Z" fill="#e41311" stroke="#e41311" stroke-width="1.51"></path><path d="M-129,15L-153,-112L-143,81Z" fill="#c9a7b0" stroke="#c9a7b0" stroke-width="1.51"></path><path d="M-43,-105L-153,-112L-40,-26Z" fill="#c0b1c0" stroke="#c0b1c0" stroke-width="1.51"></path><path d="M247,-103L-153,-112L-43,-105Z" fill="#cda3aa" stroke="#cda3aa" stroke-width="1.51"></path><path d="M429,149L430,119L346,170Z" fill="#e10e0d" stroke="#e10e0d" stroke-width="1.51"></path><path d="M346,170L430,119L300,97Z" fill="#e41110" stroke="#e41110" stroke-width="1.51"></path><path d="M-143,81L-145,205L-58,94Z" fill="#df7f76" stroke="#df7f76" stroke-width="1.51"></path><path d="M-153,-112L-145,205L-143,81Z" fill="#d79392" stroke="#d79392" stroke-width="1.51"></path><path d="M441,238L429,149L346,170Z" fill="#df0b0b" stroke="#df0b0b" stroke-width="1.51"></path><path d="M441,238L443,-91L430,119Z" fill="#e3100f" stroke="#e3100f" stroke-width="1.51"></path><path d="M430,119L443,-91L398,-13Z" fill="#e04e3b" stroke="#e04e3b" stroke-width="1.51"></path><path d="M398,-13L443,-91L331,-72Z" fill="#dc6b5b" stroke="#dc6b5b" stroke-width="1.51"></path><path d="M331,-72L443,-91L247,-103Z" fill="#db776b" stroke="#db776b" stroke-width="1.51"></path><path d="M-145,205L-125,256L-34,260Z" fill="#d9776c" stroke="#d9776c" stroke-width="1.51"></path><path d="M-34,260L-125,256L67,284Z" fill="#de6352" stroke="#de6352" stroke-width="1.51"></path><path d="M429,149L441,238L430,119Z" fill="#df0b0a" stroke="#df0b0a" stroke-width="1.51"></path><path d="M300,260L441,238L346,170Z" fill="#de0b0a" stroke="#de0b0a" stroke-width="1.51"></path><path d="M256,291L441,238L300,260Z" fill="#dd0a09" stroke="#dd0a09" stroke-width="1.51"></path></svg>