<svg width="300" height="176" xmlns="http://www.w3.org/2000/svg"><path d="M170,117L171,178L231,188Z" fill="#e91515" stroke="#e91515" stroke-width="1.51"></path><path d="M231,188L296,114L170,117Z" fill="#e81515" stroke="#e81515" stroke-width="1.51"></path><path d="M171,178L221,242L231,188Z" fill="#e61312" stroke="#e61312" stroke-width="1.51"></path><path d="M231,188L318,156L296,114Z" fill="#e51312" stroke="#e51312" stroke-width="1.51"></path><path d="M296,114L264,58L170,117Z" fill="#ea1716" stroke="#ea1716" stroke-width="1.51"></path><path d="M43,161L158,246L171,178Z" fill="#e92a1f" stroke="#e92a1f" stroke-width="1.51"></path><path d="M171,178L158,246L221,242Z" fill="#e51312" stroke="#e51312" stroke-width="1.51"></path><path d="M221,242L318,156L231,188Z" fill="#e41110" stroke="#e41110" stroke-width="1.51"></path><path d="M170,117L92,108L171,178Z" fill="#ed1d1a" stroke="#ed1d1a" stroke-width="1.51"></path><path d="M173,28L92,108L170,117Z" fill="#ef231e" stroke="#ef231e" stroke-width="1.51"></path><path d="M264,58L173,28L170,117Z" fill="#ed2e23" stroke="#ed2e23" stroke-width="1.51"></path><path d="M92,108L43,161L171,178Z" fill="#ea372a" stroke="#ea372a" stroke-width="1.51"></path><path d="M296,-15L264,58L394,109Z" fill="#e73728" stroke="#e73728" stroke-width="1.51"></path><path d="M296,-15L246,-24L264,58Z" fill="#e75140" stroke="#e75140" stroke-width="1.51"></path><path d="M264,58L246,-24L173,28Z" fill="#e94b3a" stroke="#e94b3a" stroke-width="1.51"></path><path d="M318,156L394,109L296,114Z" fill="#e51211" stroke="#e51211" stroke-width="1.51"></path><path d="M361,294L389,168L318,156Z" fill="#df0c0b" stroke="#df0c0b" stroke-width="1.51"></path><path d="M394,109L264,58L296,114Z" fill="#e71413" stroke="#e71413" stroke-width="1.51"></path><path d="M43,161L64,273L158,246Z" fill="#e63b2b" stroke="#e63b2b" stroke-width="1.51"></path><path d="M158,246L361,294L221,242Z" fill="#e10e0d" stroke="#e10e0d" stroke-width="1.51"></path><path d="M389,168L394,109L318,156Z" fill="#e2100e" stroke="#e2100e" stroke-width="1.51"></path><path d="M92,108L-33,80L43,161Z" fill="#ea5343" stroke="#ea5343" stroke-width="1.51"></path><path d="M173,28L34,27L92,108Z" fill="#ec4d3e" stroke="#ec4d3e" stroke-width="1.51"></path><path d="M-3,-4L34,27L60,-71Z" fill="#e18077" stroke="#e18077" stroke-width="1.51"></path><path d="M64,273L361,294L158,246Z" fill="#e20f0f" stroke="#e20f0f" stroke-width="1.51"></path><path d="M221,242L361,294L318,156Z" fill="#e00d0c" stroke="#e00d0c" stroke-width="1.51"></path><path d="M-33,80L-38,182L43,161Z" fill="#e66051" stroke="#e66051" stroke-width="1.51"></path><path d="M43,161L-38,182L64,273Z" fill="#e45443" stroke="#e45443" stroke-width="1.51"></path><path d="M34,27L-33,80L92,108Z" fill="#ea5c4d" stroke="#ea5c4d" stroke-width="1.51"></path><path d="M361,294L405,301L389,168Z" fill="#dc0807" stroke="#dc0807" stroke-width="1.51"></path><path d="M389,168L405,301L394,109Z" fill="#df0b0b" stroke="#df0b0b" stroke-width="1.51"></path><path d="M-63,298L405,301L361,294Z" fill="#df0c0b" stroke="#df0c0b" stroke-width="1.51"></path><path d="M34,27L-3,-4L-33,80Z" fill="#e5756a" stroke="#e5756a" stroke-width="1.51"></path><path d="M60,-71L34,27L173,28Z" fill="#e76c5e" stroke="#e76c5e" stroke-width="1.51"></path><path d="M180,-123L173,28L246,-24Z" fill="#e66757" stroke="#e66757" stroke-width="1.51"></path><path d="M180,-123L60,-71L173,28Z" fill="#e67265" stroke="#e67265" stroke-width="1.51"></path><path d="M296,-15L247,-114L246,-24Z" fill="#e36a5b" stroke="#e36a5b" stroke-width="1.51"></path><path d="M336,-109L247,-114L296,-15Z" fill="#de7468" stroke="#de7468" stroke-width="1.51"></path><path d="M247,-114L180,-123L246,-24Z" fill="#e0796e" stroke="#e0796e" stroke-width="1.51"></path><path d="M428,-36L336,-109L296,-15Z" fill="#de695a" stroke="#de695a" stroke-width="1.51"></path><path d="M247,-114L336,-109L180,-123Z" fill="#da827b" stroke="#da827b" stroke-width="1.51"></path><path d="M394,109L428,-36L296,-15Z" fill="#e44936" stroke="#e44936" stroke-width="1.51"></path><path d="M405,301L428,-36L394,109Z" fill="#e20f0e" stroke="#e20f0e" stroke-width="1.51"></path><path d="M64,273L-63,298L361,294Z" fill="#e3291c" stroke="#e3291c" stroke-width="1.51"></path><path d="M-38,182L-63,298L64,273Z" fill="#e05e4d" stroke="#e05e4d" stroke-width="1.51"></path><path d="M-110,293L-63,298L-38,182Z" fill="#db6f60" stroke="#db6f60" stroke-width="1.51"></path><path d="M-123,59L-102,169L-33,80Z" fill="#e3776d" stroke="#e3776d" stroke-width="1.51"></path><path d="M-33,80L-102,169L-38,182Z" fill="#e36f61" stroke="#e36f61" stroke-width="1.51"></path><path d="M428,-36L407,-104L336,-109Z" fill="#da7467" stroke="#da7467" stroke-width="1.51"></path><path d="M336,-109L407,-104L180,-123Z" fill="#d98078" stroke="#d98078" stroke-width="1.51"></path><path d="M-3,-4L-123,59L-33,80Z" fill="#e17f77" stroke="#e17f77" stroke-width="1.51"></path><path d="M60,-71L-42,-84L-3,-4Z" fill="#d79393" stroke="#d79393" stroke-width="1.51"></path><path d="M180,-123L-42,-84L60,-71Z" fill="#d89291" stroke="#d89291" stroke-width="1.51"></path><path d="M-125,-35L-123,59L-3,-4Z" fill="#d69595" stroke="#d69595" stroke-width="1.51"></path><path d="M-102,169L-110,293L-38,182Z" fill="#dd7367" stroke="#dd7367" stroke-width="1.51"></path><path d="M-123,59L-110,293L-102,169Z" fill="#dc7c72" stroke="#dc7c72" stroke-width="1.51"></path><path d="M-42,-84L-125,-35L-3,-4Z" fill="#d09ea3" stroke="#d09ea3" stroke-width="1.51"></path><path d="M-42,-84L-128,-126L-125,-35Z" fill="#bab6c8" stroke="#bab6c8" stroke-width="1.51"></path><path d="M-125,-35L-128,-126L-123,59Z" fill="#c4acb9" stroke="#c4acb9" stroke-width="1.51"></path><path d="M180,-123L-128,-126L-42,-84Z" fill="#c9a7b1" stroke="#c9a7b1" stroke-width="1.51"></path></svg>