<svg width="300" height="176" xmlns="http://www.w3.org/2000/svg"><path d="M120,91L78,170L162,153Z" fill="#e63c2c" stroke="#e63c2c" stroke-width="1.51"></path><path d="M120,91L45,64L78,170Z" fill="#e75c4b" stroke="#e75c4b" stroke-width="1.51"></path><path d="M210,20L136,-8L120,91Z" fill="#e66b5e" stroke="#e66b5e" stroke-width="1.51"></path><path d="M161,259L209,207L162,153Z" fill="#df0c0b" stroke="#df0c0b" stroke-width="1.51"></path><path d="M78,170L161,259L162,153Z" fill="#e12b1c" stroke="#e12b1c" stroke-width="1.51"></path><path d="M120,91L136,-8L45,64Z" fill="#e37a70" stroke="#e37a70" stroke-width="1.51"></path><path d="M249,68L120,91L162,153Z" fill="#ea1616" stroke="#ea1616" stroke-width="1.51"></path><path d="M209,207L249,68L162,153Z" fill="#e20f0e" stroke="#e20f0e" stroke-width="1.51"></path><path d="M249,68L210,20L120,91Z" fill="#e94d3c" stroke="#e94d3c" stroke-width="1.51"></path><path d="M209,207L302,101L249,68Z" fill="#e00d0c" stroke="#e00d0c" stroke-width="1.51"></path><path d="M161,259L222,266L209,207Z" fill="#de0a09" stroke="#de0a09" stroke-width="1.51"></path><path d="M45,64L-37,69L78,170Z" fill="#e07c73" stroke="#e07c73" stroke-width="1.51"></path><path d="M78,170L43,293L161,259Z" fill="#df4e3b" stroke="#df4e3b" stroke-width="1.51"></path><path d="M-3,15L-37,69L45,64Z" fill="#c3adba" stroke="#c3adba" stroke-width="1.51"></path><path d="M161,259L43,293L222,266Z" fill="#e21f16" stroke="#e21f16" stroke-width="1.51"></path><path d="M-27,244L43,293L78,170Z" fill="#d67568" stroke="#d67568" stroke-width="1.51"></path><path d="M74,-29L-3,15L45,64Z" fill="#b9b6c9" stroke="#b9b6c9" stroke-width="1.51"></path><path d="M136,-8L74,-29L45,64Z" fill="#caa6af" stroke="#caa6af" stroke-width="1.51"></path><path d="M-55,209L-27,244L78,170Z" fill="#cf867f" stroke="#cf867f" stroke-width="1.51"></path><path d="M-37,69L-55,209L78,170Z" fill="#d38882" stroke="#d38882" stroke-width="1.51"></path><path d="M249,68L350,24L210,20Z" fill="#de6352" stroke="#de6352" stroke-width="1.51"></path><path d="M304,178L302,101L209,207Z" fill="#d90504" stroke="#d90504" stroke-width="1.51"></path><path d="M222,266L304,178L209,207Z" fill="#d90505" stroke="#d90505" stroke-width="1.51"></path><path d="M-55,209L-94,269L-27,244Z" fill="#cf867f" stroke="#cf867f" stroke-width="1.51"></path><path d="M-27,244L-94,269L43,293Z" fill="#cf867f" stroke="#cf867f" stroke-width="1.51"></path><path d="M-37,69L-98,210L-55,209Z" fill="#d18781" stroke="#d18781" stroke-width="1.51"></path><path d="M130,-117L32,-71L74,-29Z" fill="#c0b1c0" stroke="#c0b1c0" stroke-width="1.51"></path><path d="M74,-29L32,-71L-3,15Z" fill="#a3c6e3" stroke="#a3c6e3" stroke-width="1.51"></path><path d="M-140,-24L-136,59L-37,69Z" fill="#b5bacf" stroke="#b5bacf" stroke-width="1.51"></path><path d="M130,-117L74,-29L136,-8Z" fill="#cf9fa5" stroke="#cf9fa5" stroke-width="1.51"></path><path d="M-98,210L-94,269L-55,209Z" fill="#cf867f" stroke="#cf867f" stroke-width="1.51"></path><path d="M222,266L345,237L304,178Z" fill="#d60101" stroke="#d60101" stroke-width="1.51"></path><path d="M304,178L403,113L302,101Z" fill="#db0707" stroke="#db0707" stroke-width="1.51"></path><path d="M220,-103L136,-8L210,20Z" fill="#d88b87" stroke="#d88b87" stroke-width="1.51"></path><path d="M220,-103L130,-117L136,-8Z" fill="#da8c88" stroke="#da8c88" stroke-width="1.51"></path><path d="M302,101L350,24L249,68Z" fill="#e0422f" stroke="#e0422f" stroke-width="1.51"></path><path d="M403,113L350,24L302,101Z" fill="#e2291b" stroke="#e2291b" stroke-width="1.51"></path><path d="M340,-75L220,-103L210,20Z" fill="#d28882" stroke="#d28882" stroke-width="1.51"></path><path d="M-37,69L-136,59L-98,210Z" fill="#d88b86" stroke="#d88b86" stroke-width="1.51"></path><path d="M-98,210L-136,59L-94,269Z" fill="#cf867f" stroke="#cf867f" stroke-width="1.51"></path><path d="M-140,-24L-37,69L-3,15Z" fill="#a3c6e3" stroke="#a3c6e3" stroke-width="1.51"></path><path d="M130,-117L-32,-99L32,-71Z" fill="#aac2dc" stroke="#aac2dc" stroke-width="1.51"></path><path d="M32,-71L-32,-99L-3,15Z" fill="#80d6ff" stroke="#80d6ff" stroke-width="1.51"></path><path d="M405,183L403,113L304,178Z" fill="#d70302" stroke="#d70302" stroke-width="1.51"></path><path d="M345,237L405,183L304,178Z" fill="#d50000" stroke="#d50000" stroke-width="1.51"></path><path d="M-32,-99L-140,-24L-3,15Z" fill="#80d6ff" stroke="#80d6ff" stroke-width="1.51"></path><path d="M396,-62L340,-75L350,24Z" fill="#cf867f" stroke="#cf867f" stroke-width="1.51"></path><path d="M350,24L340,-75L210,20Z" fill="#cf867f" stroke="#cf867f" stroke-width="1.51"></path><path d="M-32,-99L-135,-61L-140,-24Z" fill="#80d6ff" stroke="#80d6ff" stroke-width="1.51"></path><path d="M403,113L420,-19L350,24Z" fill="#dc604e" stroke="#dc604e" stroke-width="1.51"></path><path d="M434,272L420,-19L403,113Z" fill="#dd0908" stroke="#dd0908" stroke-width="1.51"></path><path d="M405,183L434,272L403,113Z" fill="#d50000" stroke="#d50000" stroke-width="1.51"></path><path d="M345,237L434,272L405,183Z" fill="#d50000" stroke="#d50000" stroke-width="1.51"></path><path d="M222,266L434,272L345,237Z" fill="#d50000" stroke="#d50000" stroke-width="1.51"></path><path d="M43,293L434,272L222,266Z" fill="#db0606" stroke="#db0606" stroke-width="1.51"></path><path d="M420,-19L396,-62L350,24Z" fill="#cf867f" stroke="#cf867f" stroke-width="1.51"></path><path d="M340,-75L396,-62L220,-103Z" fill="#cf867f" stroke="#cf867f" stroke-width="1.51"></path></svg>