<svg width="300" height="176" xmlns="http://www.w3.org/2000/svg"><path d="M124,58L47,-11L67,71Z" fill="#da8f8c" stroke="#da8f8c" stroke-width="1.51"></path><path d="M124,58L158,-15L47,-11Z" fill="#d5989a" stroke="#d5989a" stroke-width="1.51"></path><path d="M158,-15L75,-78L47,-11Z" fill="#c7a9b4" stroke="#c7a9b4" stroke-width="1.51"></path><path d="M158,-15L144,-79L75,-78Z" fill="#d3999c" stroke="#d3999c" stroke-width="1.51"></path><path d="M47,-11L-12,92L67,71Z" fill="#d19c9f" stroke="#d19c9f" stroke-width="1.51"></path><path d="M67,71L66,173L124,58Z" fill="#e95949" stroke="#e95949" stroke-width="1.51"></path><path d="M-46,9L-12,92L47,-11Z" fill="#b0bed6" stroke="#b0bed6" stroke-width="1.51"></path><path d="M-17,-77L-46,9L47,-11Z" fill="#80d6ff" stroke="#80d6ff" stroke-width="1.51"></path><path d="M-111,-106L-17,-77L75,-78Z" fill="#80d6ff" stroke="#80d6ff" stroke-width="1.51"></path><path d="M75,-78L-17,-77L47,-11Z" fill="#a3c6e3" stroke="#a3c6e3" stroke-width="1.51"></path><path d="M248,55L228,-16L158,-15Z" fill="#d9827b" stroke="#d9827b" stroke-width="1.51"></path><path d="M158,-15L228,-16L144,-79Z" fill="#d98b87" stroke="#d98b87" stroke-width="1.51"></path><path d="M-12,92L66,173L67,71Z" fill="#e17568" stroke="#e17568" stroke-width="1.51"></path><path d="M124,58L248,55L158,-15Z" fill="#e46c5f" stroke="#e46c5f" stroke-width="1.51"></path><path d="M224,148L248,55L124,58Z" fill="#eb1a18" stroke="#eb1a18" stroke-width="1.51"></path><path d="M-12,92L-10,166L66,173Z" fill="#d78078" stroke="#d78078" stroke-width="1.51"></path><path d="M-148,151L-10,166L-12,92Z" fill="#d48983" stroke="#d48983" stroke-width="1.51"></path><path d="M66,173L140,191L124,58Z" fill="#e54533" stroke="#e54533" stroke-width="1.51"></path><path d="M117,238L140,191L66,173Z" fill="#e04331" stroke="#e04331" stroke-width="1.51"></path><path d="M140,191L224,148L124,58Z" fill="#e71413" stroke="#e71413" stroke-width="1.51"></path><path d="M228,-16L254,-72L144,-79Z" fill="#d68a85" stroke="#d68a85" stroke-width="1.51"></path><path d="M307,-28L254,-72L228,-16Z" fill="#d28781" stroke="#d28781" stroke-width="1.51"></path><path d="M-111,-106L-118,29L-46,9Z" fill="#80d6ff" stroke="#80d6ff" stroke-width="1.51"></path><path d="M-46,9L-118,29L-12,92Z" fill="#bdb3c4" stroke="#bdb3c4" stroke-width="1.51"></path><path d="M140,191L239,291L224,148Z" fill="#dd0a09" stroke="#dd0a09" stroke-width="1.51"></path><path d="M76,273L117,238L66,173Z" fill="#de5340" stroke="#de5340" stroke-width="1.51"></path><path d="M329,68L307,-28L248,55Z" fill="#db6858" stroke="#db6858" stroke-width="1.51"></path><path d="M248,55L307,-28L228,-16Z" fill="#d4847d" stroke="#d4847d" stroke-width="1.51"></path><path d="M-118,29L-145,65L-12,92Z" fill="#cca3ab" stroke="#cca3ab" stroke-width="1.51"></path><path d="M-17,-77L-111,-106L-46,9Z" fill="#80d6ff" stroke="#80d6ff" stroke-width="1.51"></path><path d="M-118,29L-111,-106L-145,65Z" fill="#80d6ff" stroke="#80d6ff" stroke-width="1.51"></path><path d="M144,-79L-111,-106L75,-78Z" fill="#a4c5e2" stroke="#a4c5e2" stroke-width="1.51"></path><path d="M343,-74L-111,-106L144,-79Z" fill="#d3999c" stroke="#d3999c" stroke-width="1.51"></path><path d="M310,170L329,68L248,55Z" fill="#e10e0d" stroke="#e10e0d" stroke-width="1.51"></path><path d="M310,170L248,55L224,148Z" fill="#e00d0c" stroke="#e00d0c" stroke-width="1.51"></path><path d="M239,291L310,170L224,148Z" fill="#d80403" stroke="#d80403" stroke-width="1.51"></path><path d="M-10,166L76,273L66,173Z" fill="#d86e5f" stroke="#d86e5f" stroke-width="1.51"></path><path d="M-51,268L76,273L-10,166Z" fill="#d0837b" stroke="#d0837b" stroke-width="1.51"></path><path d="M-145,65L-148,151L-12,92Z" fill="#d98b87" stroke="#d98b87" stroke-width="1.51"></path><path d="M239,291L140,191L117,238Z" fill="#e00d0d" stroke="#e00d0d" stroke-width="1.51"></path><path d="M254,-72L343,-74L144,-79Z" fill="#d38883" stroke="#d38883" stroke-width="1.51"></path><path d="M307,-28L343,-74L254,-72Z" fill="#cf867f" stroke="#cf867f" stroke-width="1.51"></path><path d="M438,-74L343,-74L453,-5Z" fill="#cf867f" stroke="#cf867f" stroke-width="1.51"></path><path d="M-113,263L-51,268L-10,166Z" fill="#cf867f" stroke="#cf867f" stroke-width="1.51"></path><path d="M-51,268L239,291L76,273Z" fill="#de523f" stroke="#de523f" stroke-width="1.51"></path><path d="M76,273L239,291L117,238Z" fill="#e21c14" stroke="#e21c14" stroke-width="1.51"></path><path d="M-148,151L-113,263L-10,166Z" fill="#cf867f" stroke="#cf867f" stroke-width="1.51"></path><path d="M239,291L338,242L310,170Z" fill="#d50000" stroke="#d50000" stroke-width="1.51"></path><path d="M418,173L439,92L329,68Z" fill="#de0b0a" stroke="#de0b0a" stroke-width="1.51"></path><path d="M453,-5L343,-74L307,-28Z" fill="#cf867f" stroke="#cf867f" stroke-width="1.51"></path><path d="M418,173L329,68L310,170Z" fill="#da0606" stroke="#da0606" stroke-width="1.51"></path><path d="M338,242L418,173L310,170Z" fill="#d50000" stroke="#d50000" stroke-width="1.51"></path><path d="M343,-74L438,-74L-111,-106Z" fill="#d58984" stroke="#d58984" stroke-width="1.51"></path><path d="M453,-5L307,-28L329,68Z" fill="#d47b70" stroke="#d47b70" stroke-width="1.51"></path><path d="M439,92L453,-5L329,68Z" fill="#de523f" stroke="#de523f" stroke-width="1.51"></path><path d="M239,291L400,257L338,242Z" fill="#d50000" stroke="#d50000" stroke-width="1.51"></path><path d="M338,242L400,257L418,173Z" fill="#d50000" stroke="#d50000" stroke-width="1.51"></path><path d="M418,173L400,257L439,92Z" fill="#d50000" stroke="#d50000" stroke-width="1.51"></path></svg>