<svg width="300" height="176" xmlns="http://www.w3.org/2000/svg"><path d="M153,76L271,80L169,14Z" fill="#e8513f" stroke="#e8513f" stroke-width="1.51"></path><path d="M271,80L223,-11L169,14Z" fill="#e06f62" stroke="#e06f62" stroke-width="1.51"></path><path d="M271,80L327,24L223,-11Z" fill="#dc6a5a" stroke="#dc6a5a" stroke-width="1.51"></path><path d="M248,200L310,117L271,80Z" fill="#dd0a09" stroke="#dd0a09" stroke-width="1.51"></path><path d="M310,117L327,24L271,80Z" fill="#e13423" stroke="#e13423" stroke-width="1.51"></path><path d="M153,76L248,200L271,80Z" fill="#e41110" stroke="#e41110" stroke-width="1.51"></path><path d="M310,117L428,103L327,24Z" fill="#e22519" stroke="#e22519" stroke-width="1.51"></path><path d="M248,200L339,155L310,117Z" fill="#d70302" stroke="#d70302" stroke-width="1.51"></path><path d="M327,24L297,-77L223,-11Z" fill="#d08680" stroke="#d08680" stroke-width="1.51"></path><path d="M223,-11L138,-98L169,14Z" fill="#d98b87" stroke="#d98b87" stroke-width="1.51"></path><path d="M153,76L158,211L248,200Z" fill="#e10d0c" stroke="#e10d0c" stroke-width="1.51"></path><path d="M241,-126L138,-98L223,-11Z" fill="#d78a86" stroke="#d78a86" stroke-width="1.51"></path><path d="M169,14L30,66L153,76Z" fill="#e66d60" stroke="#e66d60" stroke-width="1.51"></path><path d="M153,76L41,181L158,211Z" fill="#e33d2c" stroke="#e33d2c" stroke-width="1.51"></path><path d="M43,-34L30,66L169,14Z" fill="#cda2aa" stroke="#cda2aa" stroke-width="1.51"></path><path d="M297,-77L241,-126L223,-11Z" fill="#d38882" stroke="#d38882" stroke-width="1.51"></path><path d="M138,-98L43,-34L169,14Z" fill="#d09ea2" stroke="#d09ea2" stroke-width="1.51"></path><path d="M30,66L41,181L153,76Z" fill="#e76050" stroke="#e76050" stroke-width="1.51"></path><path d="M339,155L428,103L310,117Z" fill="#dc0908" stroke="#dc0908" stroke-width="1.51"></path><path d="M327,24L399,-76L297,-77Z" fill="#cf867f" stroke="#cf867f" stroke-width="1.51"></path><path d="M357,247L398,169L339,155Z" fill="#d50000" stroke="#d50000" stroke-width="1.51"></path><path d="M398,169L428,103L339,155Z" fill="#da0505" stroke="#da0505" stroke-width="1.51"></path><path d="M248,200L357,247L339,155Z" fill="#d50000" stroke="#d50000" stroke-width="1.51"></path><path d="M158,211L221,280L248,200Z" fill="#dd0908" stroke="#dd0908" stroke-width="1.51"></path><path d="M164,282L221,280L158,211Z" fill="#df0c0b" stroke="#df0c0b" stroke-width="1.51"></path><path d="M70,267L164,282L158,211Z" fill="#e12e1f" stroke="#e12e1f" stroke-width="1.51"></path><path d="M297,-77L399,-76L241,-126Z" fill="#cf867f" stroke="#cf867f" stroke-width="1.51"></path><path d="M441,-10L399,-76L327,24Z" fill="#cf867f" stroke="#cf867f" stroke-width="1.51"></path><path d="M221,280L357,247L248,200Z" fill="#d70202" stroke="#d70202" stroke-width="1.51"></path><path d="M428,103L441,-10L327,24Z" fill="#dc604e" stroke="#dc604e" stroke-width="1.51"></path><path d="M43,-34L-42,25L30,66Z" fill="#a9c2dc" stroke="#a9c2dc" stroke-width="1.51"></path><path d="M138,-98L40,-120L43,-34Z" fill="#bdb3c4" stroke="#bdb3c4" stroke-width="1.51"></path><path d="M241,-126L40,-120L138,-98Z" fill="#d89291" stroke="#d89291" stroke-width="1.51"></path><path d="M357,247L392,235L398,169Z" fill="#d50000" stroke="#d50000" stroke-width="1.51"></path><path d="M398,169L392,235L428,103Z" fill="#d60101" stroke="#d60101" stroke-width="1.51"></path><path d="M41,181L70,267L158,211Z" fill="#df513e" stroke="#df513e" stroke-width="1.51"></path><path d="M-44,-92L-42,25L43,-34Z" fill="#80d6ff" stroke="#80d6ff" stroke-width="1.51"></path><path d="M30,66L-53,85L41,181Z" fill="#d98782" stroke="#d98782" stroke-width="1.51"></path><path d="M41,181L-32,294L70,267Z" fill="#d5786b" stroke="#d5786b" stroke-width="1.51"></path><path d="M-42,25L-53,85L30,66Z" fill="#caa6af" stroke="#caa6af" stroke-width="1.51"></path><path d="M-53,85L-53,179L41,181Z" fill="#d38882" stroke="#d38882" stroke-width="1.51"></path><path d="M-42,25L-104,-5L-53,85Z" fill="#b5bacf" stroke="#b5bacf" stroke-width="1.51"></path><path d="M40,-120L-44,-92L43,-34Z" fill="#8fd0f4" stroke="#8fd0f4" stroke-width="1.51"></path><path d="M-44,-92L-104,-5L-42,25Z" fill="#80d6ff" stroke="#80d6ff" stroke-width="1.51"></path><path d="M-53,85L-113,103L-53,179Z" fill="#d68a85" stroke="#d68a85" stroke-width="1.51"></path><path d="M-104,-5L-113,103L-53,85Z" fill="#cba4ac" stroke="#cba4ac" stroke-width="1.51"></path><path d="M-95,301L-32,294L-53,179Z" fill="#cf867f" stroke="#cf867f" stroke-width="1.51"></path><path d="M-53,179L-32,294L41,181Z" fill="#cf867f" stroke="#cf867f" stroke-width="1.51"></path><path d="M70,267L-32,294L164,282Z" fill="#dc604e" stroke="#dc604e" stroke-width="1.51"></path><path d="M164,282L-95,301L221,280Z" fill="#df4c39" stroke="#df4c39" stroke-width="1.51"></path><path d="M40,-120L-93,-99L-44,-92Z" fill="#80d6ff" stroke="#80d6ff" stroke-width="1.51"></path><path d="M-44,-92L-93,-99L-104,-5Z" fill="#80d6ff" stroke="#80d6ff" stroke-width="1.51"></path><path d="M-113,103L-144,199L-53,179Z" fill="#d18781" stroke="#d18781" stroke-width="1.51"></path><path d="M-104,-5L-144,199L-113,103Z" fill="#da8c88" stroke="#da8c88" stroke-width="1.51"></path><path d="M-93,-99L-144,199L-104,-5Z" fill="#b1bcd3" stroke="#b1bcd3" stroke-width="1.51"></path><path d="M-144,199L-95,301L-53,179Z" fill="#cf867f" stroke="#cf867f" stroke-width="1.51"></path><path d="M-32,294L-95,301L164,282Z" fill="#d27f76" stroke="#d27f76" stroke-width="1.51"></path></svg>