<svg width="300" height="176" xmlns="http://www.w3.org/2000/svg"><path d="M168,90L252,204L265,111Z" fill="#e91615" stroke="#e91615" stroke-width="1.51"></path><path d="M168,90L117,179L252,204Z" fill="#ea1616" stroke="#ea1616" stroke-width="1.51"></path><path d="M117,179L226,273L252,204Z" fill="#e51211" stroke="#e51211" stroke-width="1.51"></path><path d="M271,-28L160,-9L168,90Z" fill="#eb4d3c" stroke="#eb4d3c" stroke-width="1.51"></path><path d="M349,149L340,105L265,111Z" fill="#e61312" stroke="#e61312" stroke-width="1.51"></path><path d="M349,149L265,111L252,204Z" fill="#e51211" stroke="#e51211" stroke-width="1.51"></path><path d="M117,179L181,291L226,273Z" fill="#e51111" stroke="#e51111" stroke-width="1.51"></path><path d="M315,253L349,149L252,204Z" fill="#e20f0e" stroke="#e20f0e" stroke-width="1.51"></path><path d="M226,273L315,253L252,204Z" fill="#e10e0d" stroke="#e10e0d" stroke-width="1.51"></path><path d="M419,300L315,253L226,273Z" fill="#dd0a08" stroke="#dd0a08" stroke-width="1.51"></path><path d="M117,179L80,283L181,291Z" fill="#e5271c" stroke="#e5271c" stroke-width="1.51"></path><path d="M48,106L44,156L117,179Z" fill="#e94535" stroke="#e94535" stroke-width="1.51"></path><path d="M168,90L48,106L117,179Z" fill="#ec3327" stroke="#ec3327" stroke-width="1.51"></path><path d="M271,-28L168,90L265,111Z" fill="#eb3427" stroke="#eb3427" stroke-width="1.51"></path><path d="M168,90L29,21L48,106Z" fill="#ed4b3b" stroke="#ed4b3b" stroke-width="1.51"></path><path d="M44,156L80,283L117,179Z" fill="#e63f2f" stroke="#e63f2f" stroke-width="1.51"></path><path d="M342,15L271,-28L265,111Z" fill="#e74332" stroke="#e74332" stroke-width="1.51"></path><path d="M340,105L342,15L265,111Z" fill="#e8221a" stroke="#e8221a" stroke-width="1.51"></path><path d="M434,19L342,15L340,105Z" fill="#e53929" stroke="#e53929" stroke-width="1.51"></path><path d="M315,253L400,206L349,149Z" fill="#e00d0c" stroke="#e00d0c" stroke-width="1.51"></path><path d="M349,149L430,111L340,105Z" fill="#e41110" stroke="#e41110" stroke-width="1.51"></path><path d="M44,156L-3,206L80,283Z" fill="#e54e3c" stroke="#e54e3c" stroke-width="1.51"></path><path d="M-8,57L-3,206L44,156Z" fill="#e75a4a" stroke="#e75a4a" stroke-width="1.51"></path><path d="M48,106L-8,57L44,156Z" fill="#ea5545" stroke="#ea5545" stroke-width="1.51"></path><path d="M160,-9L29,21L168,90Z" fill="#ec5041" stroke="#ec5041" stroke-width="1.51"></path><path d="M160,-9L143,-68L29,21Z" fill="#e76a5d" stroke="#e76a5d" stroke-width="1.51"></path><path d="M251,-74L143,-68L160,-9Z" fill="#e66b5d" stroke="#e66b5d" stroke-width="1.51"></path><path d="M400,206L430,111L349,149Z" fill="#e10e0d" stroke="#e10e0d" stroke-width="1.51"></path><path d="M271,-28L251,-74L160,-9Z" fill="#e56556" stroke="#e56556" stroke-width="1.51"></path><path d="M359,-93L251,-74L271,-28Z" fill="#e06f61" stroke="#e06f61" stroke-width="1.51"></path><path d="M29,21L-8,57L48,106Z" fill="#e96354" stroke="#e96354" stroke-width="1.51"></path><path d="M400,206L419,300L430,111Z" fill="#dd0908" stroke="#dd0908" stroke-width="1.51"></path><path d="M315,253L419,300L400,206Z" fill="#dc0807" stroke="#dc0807" stroke-width="1.51"></path><path d="M181,291L419,300L226,273Z" fill="#de0a0a" stroke="#de0a0a" stroke-width="1.51"></path><path d="M29,21L-10,2L-8,57Z" fill="#e4776c" stroke="#e4776c" stroke-width="1.51"></path><path d="M-116,210L-51,265L-3,206Z" fill="#de6c5d" stroke="#de6c5d" stroke-width="1.51"></path><path d="M64,-95L-10,2L29,21Z" fill="#df837c" stroke="#df837c" stroke-width="1.51"></path><path d="M342,15L359,-93L271,-28Z" fill="#e26252" stroke="#e26252" stroke-width="1.51"></path><path d="M430,111L434,19L340,105Z" fill="#e51f16" stroke="#e51f16" stroke-width="1.51"></path><path d="M-3,206L-51,265L80,283Z" fill="#e15746" stroke="#e15746" stroke-width="1.51"></path><path d="M-107,108L-3,206L-8,57Z" fill="#e56a5b" stroke="#e56a5b" stroke-width="1.51"></path><path d="M251,-74L64,-95L143,-68Z" fill="#e4776d" stroke="#e4776d" stroke-width="1.51"></path><path d="M143,-68L64,-95L29,21Z" fill="#e17f76" stroke="#e17f76" stroke-width="1.51"></path><path d="M434,19L359,-93L342,15Z" fill="#e15b48" stroke="#e15b48" stroke-width="1.51"></path><path d="M251,-74L359,-93L64,-95Z" fill="#e0796f" stroke="#e0796f" stroke-width="1.51"></path><path d="M-105,-32L-8,57L-10,2Z" fill="#dd8984" stroke="#dd8984" stroke-width="1.51"></path><path d="M-105,-32L-107,108L-8,57Z" fill="#de857e" stroke="#de857e" stroke-width="1.51"></path><path d="M-107,108L-116,210L-3,206Z" fill="#e07266" stroke="#e07266" stroke-width="1.51"></path><path d="M-91,-116L-43,-103L64,-95Z" fill="#c5abb8" stroke="#c5abb8" stroke-width="1.51"></path><path d="M64,-95L-43,-103L-10,2Z" fill="#d5989a" stroke="#d5989a" stroke-width="1.51"></path><path d="M359,-93L450,-113L64,-95Z" fill="#db7c72" stroke="#db7c72" stroke-width="1.51"></path><path d="M434,19L450,-113L359,-93Z" fill="#db6b5c" stroke="#db6b5c" stroke-width="1.51"></path><path d="M430,111L450,-113L434,19Z" fill="#e04d3a" stroke="#e04d3a" stroke-width="1.51"></path><path d="M419,300L450,-113L430,111Z" fill="#e30f0e" stroke="#e30f0e" stroke-width="1.51"></path><path d="M-43,-103L-105,-32L-10,2Z" fill="#d09fa3" stroke="#d09fa3" stroke-width="1.51"></path><path d="M-107,108L-136,298L-116,210Z" fill="#da7e74" stroke="#da7e74" stroke-width="1.51"></path><path d="M-116,210L-136,298L-51,265Z" fill="#d9776b" stroke="#d9776b" stroke-width="1.51"></path><path d="M-51,265L-136,298L80,283Z" fill="#dd6453" stroke="#dd6453" stroke-width="1.51"></path><path d="M80,283L-136,298L181,291Z" fill="#e14c39" stroke="#e14c39" stroke-width="1.51"></path><path d="M181,291L-136,298L419,300Z" fill="#e3100f" stroke="#e3100f" stroke-width="1.51"></path><path d="M-105,-32L-136,298L-107,108Z" fill="#df7f76" stroke="#df7f76" stroke-width="1.51"></path><path d="M450,-113L-91,-116L64,-95Z" fill="#df857e" stroke="#df857e" stroke-width="1.51"></path><path d="M-43,-103L-91,-116L-105,-32Z" fill="#bfb2c2" stroke="#bfb2c2" stroke-width="1.51"></path></svg>