<svg width="300" height="176" xmlns="http://www.w3.org/2000/svg"><path d="M-44,-103L89,-101L159,-112Z" fill="#fa5c53" stroke="#fa5c53" stroke-width="1.51"></path><path d="M-133,-114L-44,-103L159,-112Z" fill="#fc6760" stroke="#fc6760" stroke-width="1.51"></path><path d="M159,-112L222,-93L360,-93Z" fill="#f44d42" stroke="#f44d42" stroke-width="1.51"></path><path d="M162,276L-32,298L361,273Z" fill="#e3100f" stroke="#e3100f" stroke-width="1.51"></path><path d="M360,-93L353,3L401,12Z" fill="#ec3a2e" stroke="#ec3a2e" stroke-width="1.51"></path><path d="M401,12L321,76L416,121Z" fill="#e71c16" stroke="#e71c16" stroke-width="1.51"></path><path d="M416,121L357,203L418,202Z" fill="#e00d0c" stroke="#e00d0c" stroke-width="1.51"></path><path d="M357,203L361,273L418,202Z" fill="#dd0a09" stroke="#dd0a09" stroke-width="1.51"></path><path d="M416,121L418,202L427,270Z" fill="#dd0a09" stroke="#dd0a09" stroke-width="1.51"></path><path d="M418,202L361,273L427,270Z" fill="#db0706" stroke="#db0706" stroke-width="1.51"></path><path d="M159,-112L360,-93L433,-87Z" fill="#f14c3f" stroke="#f14c3f" stroke-width="1.51"></path><path d="M360,-93L401,12L433,-87Z" fill="#ec4134" stroke="#ec4134" stroke-width="1.51"></path><path d="M401,12L416,121L433,-87Z" fill="#e82e23" stroke="#e82e23" stroke-width="1.51"></path><path d="M416,121L427,270L433,-87Z" fill="#e2100f" stroke="#e2100f" stroke-width="1.51"></path><path d="M353,3L321,76L401,12Z" fill="#ea2b21" stroke="#ea2b21" stroke-width="1.51"></path><path d="M321,76L357,203L416,121Z" fill="#e3100f" stroke="#e3100f" stroke-width="1.51"></path><path d="M321,76L240,189L357,203Z" fill="#e41211" stroke="#e41211" stroke-width="1.51"></path><path d="M265,-21L353,3L360,-93Z" fill="#ee3e32" stroke="#ee3e32" stroke-width="1.51"></path><path d="M357,203L231,234L361,273Z" fill="#df0c0b" stroke="#df0c0b" stroke-width="1.51"></path><path d="M231,234L162,276L361,273Z" fill="#e10e0c" stroke="#e10e0c" stroke-width="1.51"></path><path d="M240,189L231,234L357,203Z" fill="#e3100f" stroke="#e3100f" stroke-width="1.51"></path><path d="M222,-93L265,-21L360,-93Z" fill="#f1463a" stroke="#f1463a" stroke-width="1.51"></path><path d="M265,-21L321,76L353,3Z" fill="#ec2f25" stroke="#ec2f25" stroke-width="1.51"></path><path d="M265,-21L221,82L321,76Z" fill="#ec2820" stroke="#ec2820" stroke-width="1.51"></path><path d="M221,82L240,189L321,76Z" fill="#e91515" stroke="#e91515" stroke-width="1.51"></path><path d="M222,-93L136,-30L265,-21Z" fill="#f34338" stroke="#f34338" stroke-width="1.51"></path><path d="M136,-30L221,82L265,-21Z" fill="#f1342b" stroke="#f1342b" stroke-width="1.51"></path><path d="M221,82L127,116L240,189Z" fill="#ea1717" stroke="#ea1717" stroke-width="1.51"></path><path d="M127,116L138,208L240,189Z" fill="#e91615" stroke="#e91615" stroke-width="1.51"></path><path d="M138,208L231,234L240,189Z" fill="#e61312" stroke="#e61312" stroke-width="1.51"></path><path d="M159,-112L136,-30L222,-93Z" fill="#f64a40" stroke="#f64a40" stroke-width="1.51"></path><path d="M138,208L162,276L231,234Z" fill="#e51211" stroke="#e51211" stroke-width="1.51"></path><path d="M59,252L-32,298L162,276Z" fill="#e72b20" stroke="#e72b20" stroke-width="1.51"></path><path d="M136,-30L127,116L221,82Z" fill="#f02721" stroke="#f02721" stroke-width="1.51"></path><path d="M48,25L127,116L136,-30Z" fill="#f3372e" stroke="#f3372e" stroke-width="1.51"></path><path d="M127,116L63,164L138,208Z" fill="#ec241e" stroke="#ec241e" stroke-width="1.51"></path><path d="M89,-101L136,-30L159,-112Z" fill="#f84f44" stroke="#f84f44" stroke-width="1.51"></path><path d="M138,208L59,252L162,276Z" fill="#e71d18" stroke="#e71d18" stroke-width="1.51"></path><path d="M48,25L29,100L127,116Z" fill="#f3322a" stroke="#f3322a" stroke-width="1.51"></path><path d="M63,164L59,252L138,208Z" fill="#eb281f" stroke="#eb281f" stroke-width="1.51"></path><path d="M89,-101L48,25L136,-30Z" fill="#f74a40" stroke="#f74a40" stroke-width="1.51"></path><path d="M29,100L63,164L127,116Z" fill="#f02e26" stroke="#f02e26" stroke-width="1.51"></path><path d="M-12,6L48,25L89,-101Z" fill="#f84f46" stroke="#f84f46" stroke-width="1.51"></path><path d="M-44,-103L-12,6L89,-101Z" fill="#fa5c53" stroke="#fa5c53" stroke-width="1.51"></path><path d="M-23,182L59,252L63,164Z" fill="#ed3429" stroke="#ed3429" stroke-width="1.51"></path><path d="M29,100L-23,182L63,164Z" fill="#f0372d" stroke="#f0372d" stroke-width="1.51"></path><path d="M-23,182L-32,298L59,252Z" fill="#ec382c" stroke="#ec382c" stroke-width="1.51"></path><path d="M-28,113L-23,182L29,100Z" fill="#f23d33" stroke="#f23d33" stroke-width="1.51"></path><path d="M-12,6L29,100L48,25Z" fill="#f6443a" stroke="#f6443a" stroke-width="1.51"></path><path d="M-12,6L-28,113L29,100Z" fill="#f54237" stroke="#f54237" stroke-width="1.51"></path><path d="M-91,-18L-151,107L-28,113Z" fill="#f85046" stroke="#f85046" stroke-width="1.51"></path><path d="M-90,259L-32,298L-23,182Z" fill="#ed4134" stroke="#ed4134" stroke-width="1.51"></path><path d="M-28,113L-108,161L-23,182Z" fill="#f24438" stroke="#f24438" stroke-width="1.51"></path><path d="M-91,-18L-28,113L-12,6Z" fill="#f85046" stroke="#f85046" stroke-width="1.51"></path><path d="M-44,-103L-91,-18L-12,6Z" fill="#fb5f56" stroke="#fb5f56" stroke-width="1.51"></path><path d="M-108,161L-90,259L-23,182Z" fill="#f0463a" stroke="#f0463a" stroke-width="1.51"></path><path d="M-151,107L-108,161L-28,113Z" fill="#f54b41" stroke="#f54b41" stroke-width="1.51"></path><path d="M-133,-114L-91,-18L-44,-103Z" fill="#fd6c66" stroke="#fd6c66" stroke-width="1.51"></path><path d="M-108,161L-151,107L-90,259Z" fill="#f34d42" stroke="#f34d42" stroke-width="1.51"></path><path d="M-133,-114L-151,107L-91,-18Z" fill="#fb635c" stroke="#fb635c" stroke-width="1.51"></path></svg>