<svg width="300" height="176" xmlns="http://www.w3.org/2000/svg"><path d="M-102,-124L28,-100L358,-106Z" fill="#d99190" stroke="#d99190" stroke-width="1.51"></path><path d="M151,-69L267,-67L358,-106Z" fill="#df766a" stroke="#df766a" stroke-width="1.51"></path><path d="M28,-100L151,-69L358,-106Z" fill="#e17b72" stroke="#e17b72" stroke-width="1.51"></path><path d="M360,76L389,195L437,62Z" fill="#e31010" stroke="#e31010" stroke-width="1.51"></path><path d="M421,-14L356,-9L437,62Z" fill="#e24b38" stroke="#e24b38" stroke-width="1.51"></path><path d="M356,-9L360,76L437,62Z" fill="#e43b2a" stroke="#e43b2a" stroke-width="1.51"></path><path d="M417,-71L421,-14L437,62Z" fill="#df5441" stroke="#df5441" stroke-width="1.51"></path><path d="M321,251L218,276L441,254Z" fill="#dd0a09" stroke="#dd0a09" stroke-width="1.51"></path><path d="M389,195L321,251L441,254Z" fill="#dd0a08" stroke="#dd0a08" stroke-width="1.51"></path><path d="M437,62L389,195L441,254Z" fill="#df0c0a" stroke="#df0c0a" stroke-width="1.51"></path><path d="M360,76L305,154L389,195Z" fill="#e3100f" stroke="#e3100f" stroke-width="1.51"></path><path d="M417,-71L356,-9L421,-14Z" fill="#df5f4e" stroke="#df5f4e" stroke-width="1.51"></path><path d="M358,-106L356,-9L417,-71Z" fill="#dd6c5d" stroke="#dd6c5d" stroke-width="1.51"></path><path d="M305,154L321,251L389,195Z" fill="#e00e0d" stroke="#e00e0d" stroke-width="1.51"></path><path d="M236,6L272,97L356,-9Z" fill="#e84432" stroke="#e84432" stroke-width="1.51"></path><path d="M267,-67L356,-9L358,-106Z" fill="#df6c5e" stroke="#df6c5e" stroke-width="1.51"></path><path d="M356,-9L272,97L360,76Z" fill="#e73426" stroke="#e73426" stroke-width="1.51"></path><path d="M272,97L305,154L360,76Z" fill="#e71313" stroke="#e71313" stroke-width="1.51"></path><path d="M267,-67L236,6L356,-9Z" fill="#e45e4d" stroke="#e45e4d" stroke-width="1.51"></path><path d="M-35,254L-114,258L79,276Z" fill="#df6150" stroke="#df6150" stroke-width="1.51"></path><path d="M305,154L222,146L321,251Z" fill="#e41110" stroke="#e41110" stroke-width="1.51"></path><path d="M222,146L218,276L321,251Z" fill="#e2100f" stroke="#e2100f" stroke-width="1.51"></path><path d="M272,97L222,146L305,154Z" fill="#e71413" stroke="#e71413" stroke-width="1.51"></path><path d="M175,237L218,276L222,146Z" fill="#e51111" stroke="#e51111" stroke-width="1.51"></path><path d="M168,-33L236,6L267,-67Z" fill="#e66353" stroke="#e66353" stroke-width="1.51"></path><path d="M236,6L166,60L272,97Z" fill="#eb3729" stroke="#eb3729" stroke-width="1.51"></path><path d="M166,60L222,146L272,97Z" fill="#eb1717" stroke="#eb1717" stroke-width="1.51"></path><path d="M151,-69L168,-33L267,-67Z" fill="#e46d60" stroke="#e46d60" stroke-width="1.51"></path><path d="M152,154L175,237L222,146Z" fill="#e81514" stroke="#e81514" stroke-width="1.51"></path><path d="M168,-33L166,60L236,6Z" fill="#ea5040" stroke="#ea5040" stroke-width="1.51"></path><path d="M175,237L79,276L218,276Z" fill="#e41110" stroke="#e41110" stroke-width="1.51"></path><path d="M166,60L152,154L222,146Z" fill="#ec1818" stroke="#ec1818" stroke-width="1.51"></path><path d="M34,202L79,276L152,154Z" fill="#e73b2c" stroke="#e73b2c" stroke-width="1.51"></path><path d="M91,112L152,154L166,60Z" fill="#ee241f" stroke="#ee241f" stroke-width="1.51"></path><path d="M65,19L166,60L168,-33Z" fill="#eb5545" stroke="#eb5545" stroke-width="1.51"></path><path d="M152,154L79,276L175,237Z" fill="#e72119" stroke="#e72119" stroke-width="1.51"></path><path d="M151,-69L65,19L168,-33Z" fill="#e8695b" stroke="#e8695b" stroke-width="1.51"></path><path d="M65,19L91,112L166,60Z" fill="#ed4636" stroke="#ed4636" stroke-width="1.51"></path><path d="M28,-100L65,19L151,-69Z" fill="#e17f76" stroke="#e17f76" stroke-width="1.51"></path><path d="M91,112L34,202L152,154Z" fill="#ea3c2d" stroke="#ea3c2d" stroke-width="1.51"></path><path d="M-102,-124L-29,-91L28,-100Z" fill="#c2aebc" stroke="#c2aebc" stroke-width="1.51"></path><path d="M28,-100L0,4L65,19Z" fill="#df837c" stroke="#df837c" stroke-width="1.51"></path><path d="M-30,165L34,202L91,112Z" fill="#e75342" stroke="#e75342" stroke-width="1.51"></path><path d="M-44,96L-30,165L91,112Z" fill="#e85c4c" stroke="#e85c4c" stroke-width="1.51"></path><path d="M65,19L-44,96L91,112Z" fill="#eb5949" stroke="#eb5949" stroke-width="1.51"></path><path d="M0,4L-44,96L65,19Z" fill="#e67164" stroke="#e67164" stroke-width="1.51"></path><path d="M34,202L-35,254L79,276Z" fill="#e25240" stroke="#e25240" stroke-width="1.51"></path><path d="M-29,-91L0,4L28,-100Z" fill="#d4989a" stroke="#d4989a" stroke-width="1.51"></path><path d="M-30,165L-35,254L34,202Z" fill="#e25f4e" stroke="#e25f4e" stroke-width="1.51"></path><path d="M-90,84L-44,96L0,4Z" fill="#e4776c" stroke="#e4776c" stroke-width="1.51"></path><path d="M-29,-91L-144,12L0,4Z" fill="#d4999c" stroke="#d4999c" stroke-width="1.51"></path><path d="M-144,12L-90,84L0,4Z" fill="#dc8a86" stroke="#dc8a86" stroke-width="1.51"></path><path d="M-91,162L-114,258L-35,254Z" fill="#dd7265" stroke="#dd7265" stroke-width="1.51"></path><path d="M-91,162L-35,254L-30,165Z" fill="#e16b5d" stroke="#e16b5d" stroke-width="1.51"></path><path d="M-44,96L-91,162L-30,165Z" fill="#e36e60" stroke="#e36e60" stroke-width="1.51"></path><path d="M-102,-124L-144,12L-29,-91Z" fill="#c1b0be" stroke="#c1b0be" stroke-width="1.51"></path><path d="M-90,84L-91,162L-44,96Z" fill="#e37468" stroke="#e37468" stroke-width="1.51"></path><path d="M-144,12L-91,162L-90,84Z" fill="#e17e76" stroke="#e17e76" stroke-width="1.51"></path><path d="M-144,12L-114,258L-91,162Z" fill="#dd7e75" stroke="#dd7e75" stroke-width="1.51"></path></svg>