<svg width="300" height="176" xmlns="http://www.w3.org/2000/svg"><path d="M-130,-72L-43,-81L81,-99Z" fill="#fc655d" stroke="#fc655d" stroke-width="1.51"></path><path d="M243,277L-36,286L318,299Z" fill="#e20f0e" stroke="#e20f0e" stroke-width="1.51"></path><path d="M81,-99L239,-94L358,-121Z" fill="#f54f43" stroke="#f54f43" stroke-width="1.51"></path><path d="M303,190L406,236L442,181Z" fill="#df0c0b" stroke="#df0c0b" stroke-width="1.51"></path><path d="M394,101L303,190L442,181Z" fill="#e10e0d" stroke="#e10e0d" stroke-width="1.51"></path><path d="M411,-90L397,-8L442,181Z" fill="#e72a20" stroke="#e72a20" stroke-width="1.51"></path><path d="M397,-8L394,101L442,181Z" fill="#e41110" stroke="#e41110" stroke-width="1.51"></path><path d="M312,96L303,190L394,101Z" fill="#e51111" stroke="#e51111" stroke-width="1.51"></path><path d="M312,96L394,101L397,-8Z" fill="#e81f19" stroke="#e81f19" stroke-width="1.51"></path><path d="M315,-12L312,96L397,-8Z" fill="#ea2d23" stroke="#ea2d23" stroke-width="1.51"></path><path d="M315,-12L397,-8L411,-90Z" fill="#ec3d30" stroke="#ec3d30" stroke-width="1.51"></path><path d="M358,-121L315,-12L411,-90Z" fill="#ee4539" stroke="#ee4539" stroke-width="1.51"></path><path d="M303,190L318,299L406,236Z" fill="#de0b09" stroke="#de0b09" stroke-width="1.51"></path><path d="M81,-99L150,-82L239,-94Z" fill="#f74e43" stroke="#f74e43" stroke-width="1.51"></path><path d="M239,-94L315,-12L358,-121Z" fill="#f0473b" stroke="#f0473b" stroke-width="1.51"></path><path d="M36,247L-36,286L178,247Z" fill="#e82c22" stroke="#e82c22" stroke-width="1.51"></path><path d="M178,247L-36,286L243,277Z" fill="#e51a15" stroke="#e51a15" stroke-width="1.51"></path><path d="M209,158L303,190L312,96Z" fill="#e61313" stroke="#e61313" stroke-width="1.51"></path><path d="M239,-94L210,-4L315,-12Z" fill="#f13f34" stroke="#f13f34" stroke-width="1.51"></path><path d="M213,76L312,96L315,-12Z" fill="#ec251e" stroke="#ec251e" stroke-width="1.51"></path><path d="M210,-4L213,76L315,-12Z" fill="#ef3128" stroke="#ef3128" stroke-width="1.51"></path><path d="M303,190L243,277L318,299Z" fill="#e00c0b" stroke="#e00c0b" stroke-width="1.51"></path><path d="M213,76L209,158L312,96Z" fill="#e91616" stroke="#e91616" stroke-width="1.51"></path><path d="M209,158L243,277L303,190Z" fill="#e41110" stroke="#e41110" stroke-width="1.51"></path><path d="M150,200L178,247L209,158Z" fill="#e71413" stroke="#e71413" stroke-width="1.51"></path><path d="M150,-82L210,-4L239,-94Z" fill="#f4463b" stroke="#f4463b" stroke-width="1.51"></path><path d="M209,158L178,247L243,277Z" fill="#e41110" stroke="#e41110" stroke-width="1.51"></path><path d="M150,-82L123,5L210,-4Z" fill="#f43f34" stroke="#f43f34" stroke-width="1.51"></path><path d="M143,120L209,158L213,76Z" fill="#ec1817" stroke="#ec1817" stroke-width="1.51"></path><path d="M210,-4L123,5L213,76Z" fill="#f13028" stroke="#f13028" stroke-width="1.51"></path><path d="M123,5L143,120L213,76Z" fill="#f0231f" stroke="#f0231f" stroke-width="1.51"></path><path d="M143,120L150,200L209,158Z" fill="#ea1616" stroke="#ea1616" stroke-width="1.51"></path><path d="M123,5L76,69L143,120Z" fill="#f22d26" stroke="#f22d26" stroke-width="1.51"></path><path d="M150,200L73,197L178,247Z" fill="#e81a17" stroke="#e81a17" stroke-width="1.51"></path><path d="M73,197L36,247L178,247Z" fill="#e9251d" stroke="#e9251d" stroke-width="1.51"></path><path d="M143,120L73,197L150,200Z" fill="#eb201b" stroke="#eb201b" stroke-width="1.51"></path><path d="M81,-99L123,5L150,-82Z" fill="#f74c41" stroke="#f74c41" stroke-width="1.51"></path><path d="M76,69L73,197L143,120Z" fill="#ef2821" stroke="#ef2821" stroke-width="1.51"></path><path d="M81,-99L61,17L123,5Z" fill="#f6493f" stroke="#f6493f" stroke-width="1.51"></path><path d="M61,17L76,69L123,5Z" fill="#f53c32" stroke="#f53c32" stroke-width="1.51"></path><path d="M-50,109L-29,207L73,197Z" fill="#f03b30" stroke="#f03b30" stroke-width="1.51"></path><path d="M-50,109L73,197L76,69Z" fill="#f1362c" stroke="#f1362c" stroke-width="1.51"></path><path d="M-14,-25L61,17L81,-99Z" fill="#f85248" stroke="#f85248" stroke-width="1.51"></path><path d="M-43,-81L-14,-25L81,-99Z" fill="#fa5d54" stroke="#fa5d54" stroke-width="1.51"></path><path d="M61,17L-50,109L76,69Z" fill="#f43e34" stroke="#f43e34" stroke-width="1.51"></path><path d="M-29,207L36,247L73,197Z" fill="#ec3429" stroke="#ec3429" stroke-width="1.51"></path><path d="M-14,-25L-50,109L61,17Z" fill="#f74a40" stroke="#f74a40" stroke-width="1.51"></path><path d="M-29,207L-36,286L36,247Z" fill="#ec3a2e" stroke="#ec3a2e" stroke-width="1.51"></path><path d="M-131,-23L-100,111L-50,109Z" fill="#f85147" stroke="#f85147" stroke-width="1.51"></path><path d="M-50,109L-118,189L-29,207Z" fill="#f2453a" stroke="#f2453a" stroke-width="1.51"></path><path d="M-110,239L-36,286L-29,207Z" fill="#ee4336" stroke="#ee4336" stroke-width="1.51"></path><path d="M-43,-81L-131,-23L-14,-25Z" fill="#fc6259" stroke="#fc6259" stroke-width="1.51"></path><path d="M-131,-23L-50,109L-14,-25Z" fill="#f9564c" stroke="#f9564c" stroke-width="1.51"></path><path d="M-100,111L-118,189L-50,109Z" fill="#f44a3f" stroke="#f44a3f" stroke-width="1.51"></path><path d="M-118,189L-110,239L-29,207Z" fill="#f0483b" stroke="#f0483b" stroke-width="1.51"></path><path d="M-130,-72L-131,-23L-43,-81Z" fill="#fd6a63" stroke="#fd6a63" stroke-width="1.51"></path><path d="M-131,-23L-118,189L-100,111Z" fill="#f85045" stroke="#f85045" stroke-width="1.51"></path></svg>