<svg width="300" height="176" xmlns="http://www.w3.org/2000/svg"><path d="M151,61L149,5L84,56Z" fill="#fa9f49" stroke="#fa9f49" stroke-width="1.51"></path><path d="M149,5L38,-3L84,56Z" fill="#f5a45a" stroke="#f5a45a" stroke-width="1.51"></path><path d="M149,5L64,-63L38,-3Z" fill="#f0a867" stroke="#f0a867" stroke-width="1.51"></path><path d="M149,5L165,-76L64,-63Z" fill="#f1a766" stroke="#f1a766" stroke-width="1.51"></path><path d="M151,61L230,4L149,5Z" fill="#f99e49" stroke="#f99e49" stroke-width="1.51"></path><path d="M151,61L224,88L230,4Z" fill="#fb9b3e" stroke="#fb9b3e" stroke-width="1.51"></path><path d="M170,159L224,88L151,61Z" fill="#fe972f" stroke="#fe972f" stroke-width="1.51"></path><path d="M230,4L165,-76L149,5Z" fill="#f4a258" stroke="#f4a258" stroke-width="1.51"></path><path d="M84,56L170,159L151,61Z" fill="#fe9a36" stroke="#fe9a36" stroke-width="1.51"></path><path d="M-11,-93L-13,-1L38,-3Z" fill="#e8ae7d" stroke="#e8ae7d" stroke-width="1.51"></path><path d="M38,-3L-9,93L84,56Z" fill="#f4a45c" stroke="#f4a45c" stroke-width="1.51"></path><path d="M84,56L40,171L170,159Z" fill="#fb9a3e" stroke="#fb9a3e" stroke-width="1.51"></path><path d="M-13,-1L-9,93L38,-3Z" fill="#efa869" stroke="#efa869" stroke-width="1.51"></path><path d="M-9,93L40,171L84,56Z" fill="#f8a04e" stroke="#f8a04e" stroke-width="1.51"></path><path d="M156,234L215,166L170,159Z" fill="#fd932b" stroke="#fd932b" stroke-width="1.51"></path><path d="M170,159L215,166L224,88Z" fill="#fd942c" stroke="#fd942c" stroke-width="1.51"></path><path d="M230,4L254,-72L165,-76Z" fill="#f1a35f" stroke="#f1a35f" stroke-width="1.51"></path><path d="M351,-21L254,-72L230,4Z" fill="#f29e57" stroke="#f29e57" stroke-width="1.51"></path><path d="M315,96L230,4L224,88Z" fill="#fc9738" stroke="#fc9738" stroke-width="1.51"></path><path d="M304,-118L-11,-93L165,-76Z" fill="#edaa70" stroke="#edaa70" stroke-width="1.51"></path><path d="M165,-76L-11,-93L64,-63Z" fill="#e8ad7c" stroke="#e8ad7c" stroke-width="1.51"></path><path d="M64,-63L-11,-93L38,-3Z" fill="#e7ae7d" stroke="#e7ae7d" stroke-width="1.51"></path><path d="M40,171L156,234L170,159Z" fill="#fc9634" stroke="#fc9634" stroke-width="1.51"></path><path d="M313,166L315,96L224,88Z" fill="#fd922b" stroke="#fd922b" stroke-width="1.51"></path><path d="M313,166L224,88L215,166Z" fill="#fd922a" stroke="#fd922a" stroke-width="1.51"></path><path d="M40,171L27,254L156,234Z" fill="#f79740" stroke="#f79740" stroke-width="1.51"></path><path d="M-9,93L-48,166L40,171Z" fill="#f4a057" stroke="#f4a057" stroke-width="1.51"></path><path d="M-147,79L-48,166L-9,93Z" fill="#f0a666" stroke="#f0a666" stroke-width="1.51"></path><path d="M-94,8L-9,93L-13,-1Z" fill="#ecaa72" stroke="#ecaa72" stroke-width="1.51"></path><path d="M-11,-93L-94,8L-13,-1Z" fill="#e5b085" stroke="#e5b085" stroke-width="1.51"></path><path d="M249,263L313,166L215,166Z" fill="#fb8e27" stroke="#fb8e27" stroke-width="1.51"></path><path d="M420,-7L351,-21L315,96Z" fill="#f69742" stroke="#f69742" stroke-width="1.51"></path><path d="M315,96L351,-21L230,4Z" fill="#f89944" stroke="#f89944" stroke-width="1.51"></path><path d="M-48,166L27,254L40,171Z" fill="#f39d51" stroke="#f39d51" stroke-width="1.51"></path><path d="M351,-21L304,-118L254,-72Z" fill="#eea163" stroke="#eea163" stroke-width="1.51"></path><path d="M254,-72L304,-118L165,-76Z" fill="#eca66b" stroke="#eca66b" stroke-width="1.51"></path><path d="M27,254L249,263L156,234Z" fill="#fb902a" stroke="#fb902a" stroke-width="1.51"></path><path d="M156,234L249,263L215,166Z" fill="#fb8f28" stroke="#fb8f28" stroke-width="1.51"></path><path d="M-48,166L-21,281L27,254Z" fill="#f29b55" stroke="#f29b55" stroke-width="1.51"></path><path d="M-94,8L-147,79L-9,93Z" fill="#ecab73" stroke="#ecab73" stroke-width="1.51"></path><path d="M-94,8L-134,-79L-147,79Z" fill="#e0b38e" stroke="#e0b38e" stroke-width="1.51"></path><path d="M-11,-93L-134,-79L-94,8Z" fill="#dcb596" stroke="#dcb596" stroke-width="1.51"></path><path d="M-123,242L-21,281L-48,166Z" fill="#eea060" stroke="#eea060" stroke-width="1.51"></path><path d="M27,254L-21,281L249,263Z" fill="#f7943a" stroke="#f7943a" stroke-width="1.51"></path><path d="M-147,79L-139,172L-48,166Z" fill="#eca76f" stroke="#eca76f" stroke-width="1.51"></path><path d="M249,263L309,267L313,166Z" fill="#fa8b24" stroke="#fa8b24" stroke-width="1.51"></path><path d="M412,115L420,-7L315,96Z" fill="#fa9231" stroke="#fa9231" stroke-width="1.51"></path><path d="M-21,281L309,267L249,263Z" fill="#fb8e26" stroke="#fb8e26" stroke-width="1.51"></path><path d="M351,-21L406,-94L304,-118Z" fill="#eda064" stroke="#eda064" stroke-width="1.51"></path><path d="M412,115L315,96L313,166Z" fill="#fb8f28" stroke="#fb8f28" stroke-width="1.51"></path><path d="M430,194L412,115L313,166Z" fill="#fa8c24" stroke="#fa8c24" stroke-width="1.51"></path><path d="M420,-7L406,-94L351,-21Z" fill="#f09b57" stroke="#f09b57" stroke-width="1.51"></path><path d="M-139,172L-123,242L-48,166Z" fill="#eba46a" stroke="#eba46a" stroke-width="1.51"></path><path d="M309,267L430,194L313,166Z" fill="#fa8a23" stroke="#fa8a23" stroke-width="1.51"></path><path d="M412,115L430,194L420,-7Z" fill="#fa8e26" stroke="#fa8e26" stroke-width="1.51"></path><path d="M309,267L448,246L430,194Z" fill="#f8871f" stroke="#f8871f" stroke-width="1.51"></path><path d="M430,194L448,246L420,-7Z" fill="#fa8b23" stroke="#fa8b23" stroke-width="1.51"></path></svg>