<svg width="300" height="176" xmlns="http://www.w3.org/2000/svg"><path d="M232,251L169,292L306,241Z" fill="#fa8c25" stroke="#fa8c25" stroke-width="1.51"></path><path d="M360,9L334,62L403,117Z" fill="#fc962f" stroke="#fc962f" stroke-width="1.51"></path><path d="M171,-119L239,-97L446,-73Z" fill="#ffbe57" stroke="#ffbe57" stroke-width="1.51"></path><path d="M239,-97L299,-74L446,-73Z" fill="#ffb852" stroke="#ffb852" stroke-width="1.51"></path><path d="M403,117L430,181L451,17Z" fill="#fa8d25" stroke="#fa8d25" stroke-width="1.51"></path><path d="M446,-73L360,9L451,17Z" fill="#fca640" stroke="#fca640" stroke-width="1.51"></path><path d="M360,9L403,117L451,17Z" fill="#fb9832" stroke="#fb9832" stroke-width="1.51"></path><path d="M306,241L169,292L452,252Z" fill="#f98922" stroke="#f98922" stroke-width="1.51"></path><path d="M430,181L306,241L452,252Z" fill="#f88720" stroke="#f88720" stroke-width="1.51"></path><path d="M451,17L430,181L452,252Z" fill="#f98a22" stroke="#f98a22" stroke-width="1.51"></path><path d="M299,-74L360,9L446,-73Z" fill="#feaf49" stroke="#feaf49" stroke-width="1.51"></path><path d="M403,117L362,150L430,181Z" fill="#fa8c24" stroke="#fa8c24" stroke-width="1.51"></path><path d="M362,150L306,241L430,181Z" fill="#fa8a23" stroke="#fa8a23" stroke-width="1.51"></path><path d="M334,62L362,150L403,117Z" fill="#fb8f28" stroke="#fb8f28" stroke-width="1.51"></path><path d="M257,198L306,241L362,150Z" fill="#fa8d25" stroke="#fa8d25" stroke-width="1.51"></path><path d="M334,62L269,74L362,150Z" fill="#fd922a" stroke="#fd922a" stroke-width="1.51"></path><path d="M269,74L257,198L362,150Z" fill="#fc9029" stroke="#fc9029" stroke-width="1.51"></path><path d="M227,-7L334,62L360,9Z" fill="#fda23b" stroke="#fda23b" stroke-width="1.51"></path><path d="M299,-74L227,-7L360,9Z" fill="#fead46" stroke="#fead46" stroke-width="1.51"></path><path d="M227,-7L269,74L334,62Z" fill="#fd9f37" stroke="#fd9f37" stroke-width="1.51"></path><path d="M257,198L232,251L306,241Z" fill="#fa8d25" stroke="#fa8d25" stroke-width="1.51"></path><path d="M239,-97L227,-7L299,-74Z" fill="#ffb750" stroke="#ffb750" stroke-width="1.51"></path><path d="M-28,-101L70,-86L171,-119Z" fill="#ffd169" stroke="#ffd169" stroke-width="1.51"></path><path d="M227,-7L163,57L269,74Z" fill="#fea13a" stroke="#fea13a" stroke-width="1.51"></path><path d="M155,192L257,198L269,74Z" fill="#fd922a" stroke="#fd922a" stroke-width="1.51"></path><path d="M163,57L155,192L269,74Z" fill="#fe962e" stroke="#fe962e" stroke-width="1.51"></path><path d="M160,-25L227,-7L239,-97Z" fill="#ffb44d" stroke="#ffb44d" stroke-width="1.51"></path><path d="M155,192L232,251L257,198Z" fill="#fc9028" stroke="#fc9028" stroke-width="1.51"></path><path d="M171,-119L160,-25L239,-97Z" fill="#ffbe56" stroke="#ffbe56" stroke-width="1.51"></path><path d="M160,-25L163,57L227,-7Z" fill="#ffaa43" stroke="#ffaa43" stroke-width="1.51"></path><path d="M155,192L169,292L232,251Z" fill="#fb8f27" stroke="#fb8f27" stroke-width="1.51"></path><path d="M65,156L155,192L163,57Z" fill="#fe9a33" stroke="#fe9a33" stroke-width="1.51"></path><path d="M51,102L65,156L163,57Z" fill="#ffa23a" stroke="#ffa23a" stroke-width="1.51"></path><path d="M160,-25L64,16L163,57Z" fill="#ffad45" stroke="#ffad45" stroke-width="1.51"></path><path d="M155,192L26,239L169,292Z" fill="#fc962f" stroke="#fc962f" stroke-width="1.51"></path><path d="M26,239L-37,273L169,292Z" fill="#fc9f38" stroke="#fc9f38" stroke-width="1.51"></path><path d="M70,-86L160,-25L171,-119Z" fill="#ffc159" stroke="#ffc159" stroke-width="1.51"></path><path d="M64,16L51,102L163,57Z" fill="#ffaa42" stroke="#ffaa42" stroke-width="1.51"></path><path d="M65,156L26,239L155,192Z" fill="#fd9e37" stroke="#fd9e37" stroke-width="1.51"></path><path d="M70,-86L64,16L160,-25Z" fill="#ffbd55" stroke="#ffbd55" stroke-width="1.51"></path><path d="M-17,24L51,102L64,16Z" fill="#ffb64e" stroke="#ffb64e" stroke-width="1.51"></path><path d="M-28,153L26,239L65,156Z" fill="#fea942" stroke="#fea942" stroke-width="1.51"></path><path d="M-17,24L64,16L70,-86Z" fill="#ffc35b" stroke="#ffc35b" stroke-width="1.51"></path><path d="M-28,-101L-17,24L70,-86Z" fill="#ffd068" stroke="#ffd068" stroke-width="1.51"></path><path d="M51,102L-28,153L65,156Z" fill="#ffaa43" stroke="#ffaa43" stroke-width="1.51"></path><path d="M-17,24L-51,54L51,102Z" fill="#ffb951" stroke="#ffb951" stroke-width="1.51"></path><path d="M-51,54L-28,153L51,102Z" fill="#ffb24b" stroke="#ffb24b" stroke-width="1.51"></path><path d="M-28,153L-37,273L26,239Z" fill="#fdad45" stroke="#fdad45" stroke-width="1.51"></path><path d="M-51,54L-92,68L-28,153Z" fill="#ffbb53" stroke="#ffbb53" stroke-width="1.51"></path><path d="M-92,68L-114,150L-28,153Z" fill="#ffbc54" stroke="#ffbc54" stroke-width="1.51"></path><path d="M-102,247L-37,273L-28,153Z" fill="#feb34c" stroke="#feb34c" stroke-width="1.51"></path><path d="M-114,150L-102,247L-28,153Z" fill="#ffba52" stroke="#ffba52" stroke-width="1.51"></path><path d="M-140,-76L-143,-6L-28,-101Z" fill="#ffe47b" stroke="#ffe47b" stroke-width="1.51"></path><path d="M-28,-101L-143,-6L-17,24Z" fill="#ffd66e" stroke="#ffd66e" stroke-width="1.51"></path><path d="M-143,-6L-51,54L-17,24Z" fill="#ffcb64" stroke="#ffcb64" stroke-width="1.51"></path><path d="M-143,-6L-92,68L-51,54Z" fill="#ffcc64" stroke="#ffcc64" stroke-width="1.51"></path><path d="M-114,150L-143,-6L-102,247Z" fill="#ffc35b" stroke="#ffc35b" stroke-width="1.51"></path><path d="M-143,-6L-114,150L-92,68Z" fill="#ffc860" stroke="#ffc860" stroke-width="1.51"></path></svg>