<svg width="300" height="176" xmlns="http://www.w3.org/2000/svg"><path d="M147,95L173,171L215,146Z" fill="#fe952e" stroke="#fe952e" stroke-width="1.51"></path><path d="M215,146L235,117L147,95Z" fill="#fe952e" stroke="#fe952e" stroke-width="1.51"></path><path d="M147,95L80,179L173,171Z" fill="#fd9733" stroke="#fd9733" stroke-width="1.51"></path><path d="M235,117L248,29L147,95Z" fill="#fe9732" stroke="#fe9732" stroke-width="1.51"></path><path d="M248,29L168,-9L147,95Z" fill="#fa9c43" stroke="#fa9c43" stroke-width="1.51"></path><path d="M147,95L34,103L80,179Z" fill="#fa9b41" stroke="#fa9b41" stroke-width="1.51"></path><path d="M30,18L34,103L147,95Z" fill="#f9a04c" stroke="#f9a04c" stroke-width="1.51"></path><path d="M173,171L238,281L215,146Z" fill="#fc9029" stroke="#fc9029" stroke-width="1.51"></path><path d="M355,199L326,108L235,117Z" fill="#fc9028" stroke="#fc9028" stroke-width="1.51"></path><path d="M80,179L181,272L173,171Z" fill="#fc932c" stroke="#fc932c" stroke-width="1.51"></path><path d="M355,199L235,117L215,146Z" fill="#fc9029" stroke="#fc9029" stroke-width="1.51"></path><path d="M235,117L326,108L248,29Z" fill="#fd952e" stroke="#fd952e" stroke-width="1.51"></path><path d="M80,179L58,240L181,272Z" fill="#fa9437" stroke="#fa9437" stroke-width="1.51"></path><path d="M-53,162L58,240L80,179Z" fill="#f59b4c" stroke="#f59b4c" stroke-width="1.51"></path><path d="M181,272L238,281L173,171Z" fill="#fb8e27" stroke="#fb8e27" stroke-width="1.51"></path><path d="M326,108L299,3L248,29Z" fill="#fa973c" stroke="#fa973c" stroke-width="1.51"></path><path d="M248,29L213,-87L168,-9Z" fill="#f4a157" stroke="#f4a157" stroke-width="1.51"></path><path d="M168,-9L30,18L147,95Z" fill="#f8a14e" stroke="#f8a14e" stroke-width="1.51"></path><path d="M344,243L355,199L215,146Z" fill="#fa8d25" stroke="#fa8d25" stroke-width="1.51"></path><path d="M326,108L391,72L299,3Z" fill="#fa9435" stroke="#fa9435" stroke-width="1.51"></path><path d="M30,18L-11,68L34,103Z" fill="#f4a45c" stroke="#f4a45c" stroke-width="1.51"></path><path d="M34,103L-53,162L80,179Z" fill="#f69e51" stroke="#f69e51" stroke-width="1.51"></path><path d="M238,281L344,243L215,146Z" fill="#fa8d25" stroke="#fa8d25" stroke-width="1.51"></path><path d="M168,-9L67,-121L30,18Z" fill="#eea96c" stroke="#eea96c" stroke-width="1.51"></path><path d="M299,3L213,-87L248,29Z" fill="#f49f54" stroke="#f49f54" stroke-width="1.51"></path><path d="M299,3L301,-115L213,-87Z" fill="#efa263" stroke="#efa263" stroke-width="1.51"></path><path d="M432,179L391,72L326,108Z" fill="#fb8e27" stroke="#fb8e27" stroke-width="1.51"></path><path d="M432,179L326,108L355,199Z" fill="#fa8c25" stroke="#fa8c25" stroke-width="1.51"></path><path d="M-11,68L-53,162L34,103Z" fill="#f4a259" stroke="#f4a259" stroke-width="1.51"></path><path d="M-53,162L-33,248L58,240Z" fill="#f29c54" stroke="#f29c54" stroke-width="1.51"></path><path d="M58,240L-33,248L181,272Z" fill="#f79540" stroke="#f79540" stroke-width="1.51"></path><path d="M181,272L-145,269L238,281Z" fill="#f89338" stroke="#f89338" stroke-width="1.51"></path><path d="M213,-87L174,-123L168,-9Z" fill="#efa668" stroke="#efa668" stroke-width="1.51"></path><path d="M301,-115L174,-123L213,-87Z" fill="#eba872" stroke="#eba872" stroke-width="1.51"></path><path d="M-11,68L-108,72L-53,162Z" fill="#f1a664" stroke="#f1a664" stroke-width="1.51"></path><path d="M30,18L-41,-1L-11,68Z" fill="#eea96d" stroke="#eea96d" stroke-width="1.51"></path><path d="M-27,-80L-41,-1L30,18Z" fill="#e8ae7d" stroke="#e8ae7d" stroke-width="1.51"></path><path d="M410,273L432,179L355,199Z" fill="#f88820" stroke="#f88820" stroke-width="1.51"></path><path d="M174,-123L67,-121L168,-9Z" fill="#edaa70" stroke="#edaa70" stroke-width="1.51"></path><path d="M416,-3L301,-115L299,3Z" fill="#f19d58" stroke="#f19d58" stroke-width="1.51"></path><path d="M391,72L416,-3L299,3Z" fill="#f69642" stroke="#f69642" stroke-width="1.51"></path><path d="M432,179L416,-3L391,72Z" fill="#fb8f29" stroke="#fb8f29" stroke-width="1.51"></path><path d="M238,281L410,273L344,243Z" fill="#f88820" stroke="#f88820" stroke-width="1.51"></path><path d="M344,243L410,273L355,199Z" fill="#f88820" stroke="#f88820" stroke-width="1.51"></path><path d="M-41,-1L-108,72L-11,68Z" fill="#edaa71" stroke="#edaa71" stroke-width="1.51"></path><path d="M-53,162L-152,182L-33,248Z" fill="#eda165" stroke="#eda165" stroke-width="1.51"></path><path d="M-138,19L-108,72L-41,-1Z" fill="#e7ae80" stroke="#e7ae80" stroke-width="1.51"></path><path d="M67,-121L-27,-80L30,18Z" fill="#e6af81" stroke="#e6af81" stroke-width="1.51"></path><path d="M-136,-94L-138,19L-41,-1Z" fill="#deb492" stroke="#deb492" stroke-width="1.51"></path><path d="M-108,72L-152,182L-53,162Z" fill="#eda76d" stroke="#eda76d" stroke-width="1.51"></path><path d="M-138,19L-152,182L-108,72Z" fill="#ebab76" stroke="#ebab76" stroke-width="1.51"></path><path d="M416,-3L448,-73L301,-115Z" fill="#ee9d5e" stroke="#ee9d5e" stroke-width="1.51"></path><path d="M432,179L448,-73L416,-3Z" fill="#f6933c" stroke="#f6933c" stroke-width="1.51"></path><path d="M-152,182L-145,269L-33,248Z" fill="#eba26a" stroke="#eba26a" stroke-width="1.51"></path><path d="M-33,248L-145,269L181,272Z" fill="#f2994f" stroke="#f2994f" stroke-width="1.51"></path><path d="M-138,19L-136,-94L-152,182Z" fill="#e3b188" stroke="#e3b188" stroke-width="1.51"></path><path d="M-27,-80L-136,-94L-41,-1Z" fill="#ddb494" stroke="#ddb494" stroke-width="1.51"></path><path d="M67,-121L-136,-94L-27,-80Z" fill="#dbb699" stroke="#dbb699" stroke-width="1.51"></path></svg>