<svg width="300" height="176" xmlns="http://www.w3.org/2000/svg"><path d="M-147,-119L-15,-90L85,-82Z" fill="#ffdf77" stroke="#ffdf77" stroke-width="1.51"></path><path d="M-37,268L-141,262L87,278Z" fill="#fdac46" stroke="#fdac46" stroke-width="1.51"></path><path d="M-147,-119L85,-82L208,-86Z" fill="#ffd36b" stroke="#ffd36b" stroke-width="1.51"></path><path d="M312,109L349,184L398,196Z" fill="#fb8c25" stroke="#fb8c25" stroke-width="1.51"></path><path d="M208,-86L297,-64L430,-60Z" fill="#ffb74f" stroke="#ffb74f" stroke-width="1.51"></path><path d="M236,260L87,278L440,294Z" fill="#fa8a23" stroke="#fa8a23" stroke-width="1.51"></path><path d="M347,246L236,260L440,294Z" fill="#f88720" stroke="#f88720" stroke-width="1.51"></path><path d="M398,196L347,246L440,294Z" fill="#f8861f" stroke="#f8861f" stroke-width="1.51"></path><path d="M426,11L312,109L450,60Z" fill="#fb962e" stroke="#fb962e" stroke-width="1.51"></path><path d="M312,109L398,196L450,60Z" fill="#fb8e26" stroke="#fb8e26" stroke-width="1.51"></path><path d="M398,196L440,294L450,60Z" fill="#f98821" stroke="#f98821" stroke-width="1.51"></path><path d="M430,-60L426,11L450,60Z" fill="#fca13b" stroke="#fca13b" stroke-width="1.51"></path><path d="M314,-5L312,109L426,11Z" fill="#fc9d35" stroke="#fc9d35" stroke-width="1.51"></path><path d="M314,-5L426,11L430,-60Z" fill="#fca841" stroke="#fca841" stroke-width="1.51"></path><path d="M297,-64L314,-5L430,-60Z" fill="#feaf48" stroke="#feaf48" stroke-width="1.51"></path><path d="M349,184L347,246L398,196Z" fill="#f98922" stroke="#f98922" stroke-width="1.51"></path><path d="M312,109L239,147L349,184Z" fill="#fb9028" stroke="#fb9028" stroke-width="1.51"></path><path d="M236,260L347,246L349,184Z" fill="#fa8b23" stroke="#fa8b23" stroke-width="1.51"></path><path d="M239,147L236,260L349,184Z" fill="#fb8e26" stroke="#fb8e26" stroke-width="1.51"></path><path d="M183,58L207,97L261,-30Z" fill="#fea13a" stroke="#fea13a" stroke-width="1.51"></path><path d="M207,97L312,109L314,-5Z" fill="#fd9931" stroke="#fd9931" stroke-width="1.51"></path><path d="M261,-30L207,97L314,-5Z" fill="#fea43d" stroke="#fea43d" stroke-width="1.51"></path><path d="M297,-64L261,-30L314,-5Z" fill="#ffaf48" stroke="#ffaf48" stroke-width="1.51"></path><path d="M207,97L239,147L312,109Z" fill="#fd942c" stroke="#fd942c" stroke-width="1.51"></path><path d="M175,23L183,58L261,-30Z" fill="#fea740" stroke="#fea740" stroke-width="1.51"></path><path d="M208,-86L261,-30L297,-64Z" fill="#ffb750" stroke="#ffb750" stroke-width="1.51"></path><path d="M157,237L87,278L236,260Z" fill="#fc8f27" stroke="#fc8f27" stroke-width="1.51"></path><path d="M172,209L236,260L239,147Z" fill="#fc9028" stroke="#fc9028" stroke-width="1.51"></path><path d="M208,-86L175,23L261,-30Z" fill="#ffb24a" stroke="#ffb24a" stroke-width="1.51"></path><path d="M143,-60L175,23L208,-86Z" fill="#ffb54e" stroke="#ffb54e" stroke-width="1.51"></path><path d="M172,209L157,237L236,260Z" fill="#fc8f28" stroke="#fc8f28" stroke-width="1.51"></path><path d="M207,97L172,209L239,147Z" fill="#fd932c" stroke="#fd932c" stroke-width="1.51"></path><path d="M183,58L52,174L207,97Z" fill="#ff9931" stroke="#ff9931" stroke-width="1.51"></path><path d="M52,174L172,209L207,97Z" fill="#fe962e" stroke="#fe962e" stroke-width="1.51"></path><path d="M85,-82L143,-60L208,-86Z" fill="#ffbf58" stroke="#ffbf58" stroke-width="1.51"></path><path d="M175,23L40,78L183,58Z" fill="#ffa43d" stroke="#ffa43d" stroke-width="1.51"></path><path d="M40,78L52,174L183,58Z" fill="#ffa23a" stroke="#ffa23a" stroke-width="1.51"></path><path d="M143,-60L49,11L175,23Z" fill="#ffb44c" stroke="#ffb44c" stroke-width="1.51"></path><path d="M49,11L40,78L175,23Z" fill="#ffaf48" stroke="#ffaf48" stroke-width="1.51"></path><path d="M52,174L157,237L172,209Z" fill="#fd962f" stroke="#fd962f" stroke-width="1.51"></path><path d="M52,174L87,278L157,237Z" fill="#fc9a32" stroke="#fc9a32" stroke-width="1.51"></path><path d="M85,-82L49,11L143,-60Z" fill="#ffc159" stroke="#ffc159" stroke-width="1.51"></path><path d="M-4,177L-37,268L52,174Z" fill="#feab44" stroke="#feab44" stroke-width="1.51"></path><path d="M-15,-90L49,11L85,-82Z" fill="#ffcb63" stroke="#ffcb63" stroke-width="1.51"></path><path d="M52,174L-37,268L87,278Z" fill="#fca43d" stroke="#fca43d" stroke-width="1.51"></path><path d="M-19,81L-4,177L40,78Z" fill="#ffaf48" stroke="#ffaf48" stroke-width="1.51"></path><path d="M-19,16L40,78L49,11Z" fill="#ffba52" stroke="#ffba52" stroke-width="1.51"></path><path d="M-15,-90L-19,16L49,11Z" fill="#ffca62" stroke="#ffca62" stroke-width="1.51"></path><path d="M40,78L-4,177L52,174Z" fill="#ffaa43" stroke="#ffaa43" stroke-width="1.51"></path><path d="M-19,16L-19,81L40,78Z" fill="#ffb951" stroke="#ffb951" stroke-width="1.51"></path><path d="M-153,2L-19,16L-15,-90Z" fill="#ffd56c" stroke="#ffd56c" stroke-width="1.51"></path><path d="M-127,183L-37,268L-4,177Z" fill="#ffb44d" stroke="#ffb44d" stroke-width="1.51"></path><path d="M-19,81L-103,89L-4,177Z" fill="#ffb74f" stroke="#ffb74f" stroke-width="1.51"></path><path d="M-103,89L-127,183L-4,177Z" fill="#ffbb53" stroke="#ffbb53" stroke-width="1.51"></path><path d="M-19,16L-103,89L-19,81Z" fill="#ffbf57" stroke="#ffbf57" stroke-width="1.51"></path><path d="M-147,-119L-153,2L-15,-90Z" fill="#ffe57d" stroke="#ffe57d" stroke-width="1.51"></path><path d="M-153,2L-103,89L-19,16Z" fill="#ffcc64" stroke="#ffcc64" stroke-width="1.51"></path><path d="M-127,183L-141,262L-37,268Z" fill="#ffba53" stroke="#ffba53" stroke-width="1.51"></path><path d="M-153,2L-127,183L-103,89Z" fill="#ffc65e" stroke="#ffc65e" stroke-width="1.51"></path><path d="M-153,2L-141,262L-127,183Z" fill="#ffc55d" stroke="#ffc55d" stroke-width="1.51"></path></svg>