<svg width="300" height="176" xmlns="http://www.w3.org/2000/svg"><path d="M180,98L220,54L144,25Z" fill="#f89e4b" stroke="#f89e4b" stroke-width="1.51"></path><path d="M220,54L226,19L144,25Z" fill="#f1a260" stroke="#f1a260" stroke-width="1.51"></path><path d="M144,25L63,94L180,98Z" fill="#f9a04c" stroke="#f9a04c" stroke-width="1.51"></path><path d="M272,146L297,86L220,54Z" fill="#fb8e27" stroke="#fb8e27" stroke-width="1.51"></path><path d="M220,54L297,86L226,19Z" fill="#f4994b" stroke="#f4994b" stroke-width="1.51"></path><path d="M144,25L72,-16L63,94Z" fill="#e8ae7c" stroke="#e8ae7c" stroke-width="1.51"></path><path d="M148,-77L72,-16L144,25Z" fill="#e2b18a" stroke="#e2b18a" stroke-width="1.51"></path><path d="M247,241L272,146L180,98Z" fill="#f98720" stroke="#f98720" stroke-width="1.51"></path><path d="M180,98L272,146L220,54Z" fill="#fc912a" stroke="#fc912a" stroke-width="1.51"></path><path d="M226,19L148,-77L144,25Z" fill="#e8ac7b" stroke="#e8ac7b" stroke-width="1.51"></path><path d="M226,-85L148,-77L226,19Z" fill="#e7a979" stroke="#e7a979" stroke-width="1.51"></path><path d="M323,-7L226,-85L226,19Z" fill="#e6a475" stroke="#e6a475" stroke-width="1.51"></path><path d="M297,86L323,-7L226,19Z" fill="#ee9b5a" stroke="#ee9b5a" stroke-width="1.51"></path><path d="M63,94L116,210L180,98Z" fill="#f9973d" stroke="#f9973d" stroke-width="1.51"></path><path d="M63,94L83,211L116,210Z" fill="#f39549" stroke="#f39549" stroke-width="1.51"></path><path d="M63,94L-2,181L83,211Z" fill="#ed9d5e" stroke="#ed9d5e" stroke-width="1.51"></path><path d="M-42,-6L2,116L63,94Z" fill="#e3b189" stroke="#e3b189" stroke-width="1.51"></path><path d="M116,210L247,241L180,98Z" fill="#f98a22" stroke="#f98a22" stroke-width="1.51"></path><path d="M272,146L393,158L297,86Z" fill="#f8861e" stroke="#f8861e" stroke-width="1.51"></path><path d="M119,285L247,241L116,210Z" fill="#fa8b24" stroke="#fa8b24" stroke-width="1.51"></path><path d="M323,-7L317,-100L226,-85Z" fill="#e5a273" stroke="#e5a273" stroke-width="1.51"></path><path d="M226,-85L54,-122L148,-77Z" fill="#e6ae80" stroke="#e6ae80" stroke-width="1.51"></path><path d="M297,86L394,67L323,-7Z" fill="#f2954c" stroke="#f2954c" stroke-width="1.51"></path><path d="M247,241L323,205L272,146Z" fill="#f68119" stroke="#f68119" stroke-width="1.51"></path><path d="M72,-16L-42,-6L63,94Z" fill="#d7b8a0" stroke="#d7b8a0" stroke-width="1.51"></path><path d="M148,-77L54,-122L72,-16Z" fill="#dbb598" stroke="#dbb598" stroke-width="1.51"></path><path d="M317,-100L54,-122L226,-85Z" fill="#e7aa79" stroke="#e7aa79" stroke-width="1.51"></path><path d="M393,158L394,67L297,86Z" fill="#f98a23" stroke="#f98a23" stroke-width="1.51"></path><path d="M323,-7L407,-75L317,-100Z" fill="#e5a172" stroke="#e5a172" stroke-width="1.51"></path><path d="M2,116L-2,181L63,94Z" fill="#eaa56e" stroke="#eaa56e" stroke-width="1.51"></path><path d="M-44,-97L-42,-6L72,-16Z" fill="#c1c1c1" stroke="#c1c1c1" stroke-width="1.51"></path><path d="M2,116L-119,165L-2,181Z" fill="#e6a475" stroke="#e6a475" stroke-width="1.51"></path><path d="M394,67L400,-9L323,-7Z" fill="#ea9d65" stroke="#ea9d65" stroke-width="1.51"></path><path d="M53,270L119,285L83,211Z" fill="#f2954b" stroke="#f2954b" stroke-width="1.51"></path><path d="M83,211L119,285L116,210Z" fill="#f59240" stroke="#f59240" stroke-width="1.51"></path><path d="M394,67L403,240L400,-9Z" fill="#fa8b23" stroke="#fa8b23" stroke-width="1.51"></path><path d="M323,205L393,158L272,146Z" fill="#f68018" stroke="#f68018" stroke-width="1.51"></path><path d="M-2,181L53,270L83,211Z" fill="#ec9b5e" stroke="#ec9b5e" stroke-width="1.51"></path><path d="M400,-9L407,-75L323,-7Z" fill="#e5a172" stroke="#e5a172" stroke-width="1.51"></path><path d="M403,240L407,-75L400,-9Z" fill="#f39548" stroke="#f39548" stroke-width="1.51"></path><path d="M54,-122L-44,-97L72,-16Z" fill="#cabeb4" stroke="#cabeb4" stroke-width="1.51"></path><path d="M119,285L326,279L247,241Z" fill="#f8851e" stroke="#f8851e" stroke-width="1.51"></path><path d="M247,241L326,279L323,205Z" fill="#f57f17" stroke="#f57f17" stroke-width="1.51"></path><path d="M323,205L403,240L393,158Z" fill="#f57f17" stroke="#f57f17" stroke-width="1.51"></path><path d="M-2,181L-53,242L53,270Z" fill="#e5a172" stroke="#e5a172" stroke-width="1.51"></path><path d="M-42,-6L-108,91L2,116Z" fill="#e0b28d" stroke="#e0b28d" stroke-width="1.51"></path><path d="M-111,12L-108,91L-42,-6Z" fill="#d2baa8" stroke="#d2baa8" stroke-width="1.51"></path><path d="M-115,-78L-111,12L-42,-6Z" fill="#c1c1c1" stroke="#c1c1c1" stroke-width="1.51"></path><path d="M326,279L403,240L323,205Z" fill="#f57f17" stroke="#f57f17" stroke-width="1.51"></path><path d="M393,158L403,240L394,67Z" fill="#f6821b" stroke="#f6821b" stroke-width="1.51"></path><path d="M-119,165L-53,242L-2,181Z" fill="#e5a172" stroke="#e5a172" stroke-width="1.51"></path><path d="M-108,91L-119,165L2,116Z" fill="#e7a878" stroke="#e7a878" stroke-width="1.51"></path><path d="M-111,12L-119,165L-108,91Z" fill="#e8ad7d" stroke="#e8ad7d" stroke-width="1.51"></path><path d="M-111,12L-115,-78L-119,165Z" fill="#d2baa7" stroke="#d2baa7" stroke-width="1.51"></path><path d="M-44,-97L-115,-78L-42,-6Z" fill="#c1c1c1" stroke="#c1c1c1" stroke-width="1.51"></path><path d="M-119,165L-119,260L-53,242Z" fill="#e5a172" stroke="#e5a172" stroke-width="1.51"></path><path d="M-53,242L-119,260L53,270Z" fill="#e5a172" stroke="#e5a172" stroke-width="1.51"></path><path d="M53,270L-119,260L119,285Z" fill="#e89e6a" stroke="#e89e6a" stroke-width="1.51"></path></svg>