<svg width="300" height="176" xmlns="http://www.w3.org/2000/svg"><path d="M140,68L226,64L143,29Z" fill="#fc9b3e" stroke="#fc9b3e" stroke-width="1.51"></path><path d="M226,64L228,19L143,29Z" fill="#fa9c43" stroke="#fa9c43" stroke-width="1.51"></path><path d="M226,64L302,71L228,19Z" fill="#fb993c" stroke="#fb993c" stroke-width="1.51"></path><path d="M221,182L302,71L226,64Z" fill="#fd942c" stroke="#fd942c" stroke-width="1.51"></path><path d="M140,68L171,184L226,64Z" fill="#fe972f" stroke="#fe972f" stroke-width="1.51"></path><path d="M54,31L57,83L140,68Z" fill="#f9a04d" stroke="#f9a04d" stroke-width="1.51"></path><path d="M143,29L54,31L140,68Z" fill="#f9a04c" stroke="#f9a04c" stroke-width="1.51"></path><path d="M67,-86L54,31L143,29Z" fill="#f2a663" stroke="#f2a663" stroke-width="1.51"></path><path d="M57,83L171,184L140,68Z" fill="#fd9a38" stroke="#fd9a38" stroke-width="1.51"></path><path d="M171,184L221,182L226,64Z" fill="#fd942c" stroke="#fd942c" stroke-width="1.51"></path><path d="M228,19L226,-104L143,29Z" fill="#f5a156" stroke="#f5a156" stroke-width="1.51"></path><path d="M302,71L332,0L228,19Z" fill="#f89943" stroke="#f89943" stroke-width="1.51"></path><path d="M332,0L226,-104L228,19Z" fill="#f39f57" stroke="#f39f57" stroke-width="1.51"></path><path d="M226,-104L183,-121L143,29Z" fill="#f0a666" stroke="#f0a666" stroke-width="1.51"></path><path d="M183,-121L67,-86L143,29Z" fill="#f0a869" stroke="#f0a869" stroke-width="1.51"></path><path d="M302,71L386,72L332,0Z" fill="#f9953a" stroke="#f9953a" stroke-width="1.51"></path><path d="M221,182L340,163L302,71Z" fill="#fc9129" stroke="#fc9129" stroke-width="1.51"></path><path d="M221,182L320,293L340,163Z" fill="#fb8c25" stroke="#fb8c25" stroke-width="1.51"></path><path d="M171,184L215,265L221,182Z" fill="#fc9029" stroke="#fc9029" stroke-width="1.51"></path><path d="M44,208L118,238L171,184Z" fill="#fa9536" stroke="#fa9536" stroke-width="1.51"></path><path d="M340,163L386,72L302,71Z" fill="#fc9029" stroke="#fc9029" stroke-width="1.51"></path><path d="M57,83L44,208L171,184Z" fill="#fa993e" stroke="#fa993e" stroke-width="1.51"></path><path d="M-32,94L44,208L57,83Z" fill="#f69f50" stroke="#f69f50" stroke-width="1.51"></path><path d="M332,0L299,-126L226,-104Z" fill="#eda366" stroke="#eda366" stroke-width="1.51"></path><path d="M226,-104L299,-126L183,-121Z" fill="#e9a974" stroke="#e9a974" stroke-width="1.51"></path><path d="M414,-107L299,-126L332,0Z" fill="#eda164" stroke="#eda164" stroke-width="1.51"></path><path d="M118,238L215,265L171,184Z" fill="#fc9129" stroke="#fc9129" stroke-width="1.51"></path><path d="M54,31L-32,94L57,83Z" fill="#f6a358" stroke="#f6a358" stroke-width="1.51"></path><path d="M67,-86L-28,1L54,31Z" fill="#ecab73" stroke="#ecab73" stroke-width="1.51"></path><path d="M-28,1L-32,94L54,31Z" fill="#f0a867" stroke="#f0a867" stroke-width="1.51"></path><path d="M-29,264L60,259L44,208Z" fill="#f4984b" stroke="#f4984b" stroke-width="1.51"></path><path d="M44,208L60,259L118,238Z" fill="#f8963f" stroke="#f8963f" stroke-width="1.51"></path><path d="M118,238L60,259L215,265Z" fill="#fb912e" stroke="#fb912e" stroke-width="1.51"></path><path d="M183,-121L-14,-96L67,-86Z" fill="#e6af81" stroke="#e6af81" stroke-width="1.51"></path><path d="M67,-86L-14,-96L-28,1Z" fill="#e5b085" stroke="#e5b085" stroke-width="1.51"></path><path d="M386,72L426,-13L332,0Z" fill="#f69643" stroke="#f69643" stroke-width="1.51"></path><path d="M386,72L408,199L426,-13Z" fill="#fb8f28" stroke="#fb8f28" stroke-width="1.51"></path><path d="M340,163L408,199L386,72Z" fill="#fb8d25" stroke="#fb8d25" stroke-width="1.51"></path><path d="M413,247L408,199L340,163Z" fill="#f98922" stroke="#f98922" stroke-width="1.51"></path><path d="M-32,94L-45,210L44,208Z" fill="#f39f56" stroke="#f39f56" stroke-width="1.51"></path><path d="M-145,186L-45,210L-32,94Z" fill="#efa365" stroke="#efa365" stroke-width="1.51"></path><path d="M60,259L320,293L215,265Z" fill="#fb8d25" stroke="#fb8d25" stroke-width="1.51"></path><path d="M215,265L320,293L221,182Z" fill="#fa8c24" stroke="#fa8c24" stroke-width="1.51"></path><path d="M426,-13L414,-107L332,0Z" fill="#f09b57" stroke="#f09b57" stroke-width="1.51"></path><path d="M-28,1L-110,29L-32,94Z" fill="#ecab73" stroke="#ecab73" stroke-width="1.51"></path><path d="M-116,-96L-110,29L-28,1Z" fill="#e0b28d" stroke="#e0b28d" stroke-width="1.51"></path><path d="M60,259L-139,296L320,293Z" fill="#f7933b" stroke="#f7933b" stroke-width="1.51"></path><path d="M-45,210L-29,264L44,208Z" fill="#f29c54" stroke="#f29c54" stroke-width="1.51"></path><path d="M-139,296L-29,264L-45,210Z" fill="#ed9e60" stroke="#ed9e60" stroke-width="1.51"></path><path d="M320,293L413,247L340,163Z" fill="#f98821" stroke="#f98821" stroke-width="1.51"></path><path d="M408,199L413,247L426,-13Z" fill="#fa8b24" stroke="#fa8b24" stroke-width="1.51"></path><path d="M-110,29L-144,80L-32,94Z" fill="#ecab74" stroke="#ecab74" stroke-width="1.51"></path><path d="M-110,29L-116,-96L-144,80Z" fill="#e1b28d" stroke="#e1b28d" stroke-width="1.51"></path><path d="M-14,-96L-116,-96L-28,1Z" fill="#deb393" stroke="#deb393" stroke-width="1.51"></path><path d="M183,-121L-116,-96L-14,-96Z" fill="#dfb390" stroke="#dfb390" stroke-width="1.51"></path><path d="M-144,80L-145,186L-32,94Z" fill="#eda86f" stroke="#eda86f" stroke-width="1.51"></path><path d="M-145,186L-139,296L-45,210Z" fill="#eaa26a" stroke="#eaa26a" stroke-width="1.51"></path><path d="M-29,264L-139,296L60,259Z" fill="#ef9b58" stroke="#ef9b58" stroke-width="1.51"></path></svg>