<svg width="300" height="176" xmlns="http://www.w3.org/2000/svg"><path d="M129,87L154,-10L75,81Z" fill="#f2a661" stroke="#f2a661" stroke-width="1.51"></path><path d="M154,-10L48,6L75,81Z" fill="#e5b083" stroke="#e5b083" stroke-width="1.51"></path><path d="M129,87L208,28L154,-10Z" fill="#f2a560" stroke="#f2a560" stroke-width="1.51"></path><path d="M248,-100L131,-97L154,-10Z" fill="#e7ab7b" stroke="#e7ab7b" stroke-width="1.51"></path><path d="M154,-10L131,-97L48,6Z" fill="#e0b38f" stroke="#e0b38f" stroke-width="1.51"></path><path d="M131,-97L32,-76L48,6Z" fill="#d6b8a1" stroke="#d6b8a1" stroke-width="1.51"></path><path d="M-60,4L-56,56L48,6Z" fill="#cdbcb0" stroke="#cdbcb0" stroke-width="1.51"></path><path d="M48,6L-56,56L75,81Z" fill="#deb492" stroke="#deb492" stroke-width="1.51"></path><path d="M129,87L264,95L208,28Z" fill="#fa993f" stroke="#fa993f" stroke-width="1.51"></path><path d="M208,28L248,-100L154,-10Z" fill="#e7a979" stroke="#e7a979" stroke-width="1.51"></path><path d="M32,-76L-60,4L48,6Z" fill="#c3c0be" stroke="#c3c0be" stroke-width="1.51"></path><path d="M129,87L175,205L264,95Z" fill="#fb9029" stroke="#fb9029" stroke-width="1.51"></path><path d="M75,81L33,192L129,87Z" fill="#f39e54" stroke="#f39e54" stroke-width="1.51"></path><path d="M-56,56L33,192L75,81Z" fill="#eaa972" stroke="#eaa972" stroke-width="1.51"></path><path d="M128,239L175,205L129,87Z" fill="#fa8d29" stroke="#fa8d29" stroke-width="1.51"></path><path d="M316,0L248,-100L208,28Z" fill="#e6a475" stroke="#e6a475" stroke-width="1.51"></path><path d="M33,192L128,239L129,87Z" fill="#f49445" stroke="#f49445" stroke-width="1.51"></path><path d="M264,95L316,0L208,28Z" fill="#f19b55" stroke="#f19b55" stroke-width="1.51"></path><path d="M264,95L336,91L316,0Z" fill="#f59240" stroke="#f59240" stroke-width="1.51"></path><path d="M175,205L270,177L264,95Z" fill="#f88720" stroke="#f88720" stroke-width="1.51"></path><path d="M270,241L270,177L175,205Z" fill="#f7851d" stroke="#f7851d" stroke-width="1.51"></path><path d="M32,-76L-49,-123L-60,4Z" fill="#c1c1c1" stroke="#c1c1c1" stroke-width="1.51"></path><path d="M131,-97L-49,-123L32,-76Z" fill="#cdbcb0" stroke="#cdbcb0" stroke-width="1.51"></path><path d="M314,-117L-49,-123L131,-97Z" fill="#e4b085" stroke="#e4b085" stroke-width="1.51"></path><path d="M-56,56L-41,200L33,192Z" fill="#e5a576" stroke="#e5a576" stroke-width="1.51"></path><path d="M-60,4L-110,73L-56,56Z" fill="#d7b79f" stroke="#d7b79f" stroke-width="1.51"></path><path d="M-138,26L-110,73L-60,4Z" fill="#d3baa6" stroke="#d3baa6" stroke-width="1.51"></path><path d="M-129,147L-41,200L-56,56Z" fill="#e6a777" stroke="#e6a777" stroke-width="1.51"></path><path d="M33,192L83,256L128,239Z" fill="#f1964c" stroke="#f1964c" stroke-width="1.51"></path><path d="M-44,255L83,256L33,192Z" fill="#e99e67" stroke="#e99e67" stroke-width="1.51"></path><path d="M270,177L336,91L264,95Z" fill="#f98821" stroke="#f98821" stroke-width="1.51"></path><path d="M-134,-83L-138,26L-60,4Z" fill="#c1c1c1" stroke="#c1c1c1" stroke-width="1.51"></path><path d="M-110,73L-129,147L-56,56Z" fill="#e8ad7c" stroke="#e8ad7c" stroke-width="1.51"></path><path d="M248,-100L314,-117L131,-97Z" fill="#e6a777" stroke="#e6a777" stroke-width="1.51"></path><path d="M316,0L314,-117L248,-100Z" fill="#e5a273" stroke="#e5a273" stroke-width="1.51"></path><path d="M406,-72L314,-117L316,0Z" fill="#e5a172" stroke="#e5a172" stroke-width="1.51"></path><path d="M-138,26L-129,147L-110,73Z" fill="#e6af81" stroke="#e6af81" stroke-width="1.51"></path><path d="M83,256L270,241L128,239Z" fill="#fa8b24" stroke="#fa8b24" stroke-width="1.51"></path><path d="M128,239L270,241L175,205Z" fill="#f98921" stroke="#f98921" stroke-width="1.51"></path><path d="M270,177L343,189L336,91Z" fill="#f7831b" stroke="#f7831b" stroke-width="1.51"></path><path d="M-49,-123L-134,-83L-60,4Z" fill="#c1c1c1" stroke="#c1c1c1" stroke-width="1.51"></path><path d="M-144,273L-44,255L-41,200Z" fill="#e5a172" stroke="#e5a172" stroke-width="1.51"></path><path d="M-41,200L-44,255L33,192Z" fill="#e5a172" stroke="#e5a172" stroke-width="1.51"></path><path d="M319,235L343,189L270,177Z" fill="#f57f17" stroke="#f57f17" stroke-width="1.51"></path><path d="M270,241L319,235L270,177Z" fill="#f68019" stroke="#f68019" stroke-width="1.51"></path><path d="M441,114L399,-21L336,91Z" fill="#f49340" stroke="#f49340" stroke-width="1.51"></path><path d="M336,91L399,-21L316,0Z" fill="#eb9c60" stroke="#eb9c60" stroke-width="1.51"></path><path d="M399,-21L406,-72L316,0Z" fill="#e5a172" stroke="#e5a172" stroke-width="1.51"></path><path d="M440,145L441,114L336,91Z" fill="#f98820" stroke="#f98820" stroke-width="1.51"></path><path d="M399,-21L441,114L406,-72Z" fill="#e79f6d" stroke="#e79f6d" stroke-width="1.51"></path><path d="M440,145L336,91L343,189Z" fill="#f7841d" stroke="#f7841d" stroke-width="1.51"></path><path d="M-129,147L-144,273L-41,200Z" fill="#e5a172" stroke="#e5a172" stroke-width="1.51"></path><path d="M-44,255L-144,273L83,256Z" fill="#e5a172" stroke="#e5a172" stroke-width="1.51"></path><path d="M-138,26L-144,273L-129,147Z" fill="#e5a576" stroke="#e5a576" stroke-width="1.51"></path><path d="M407,238L440,145L343,189Z" fill="#f57f17" stroke="#f57f17" stroke-width="1.51"></path><path d="M319,235L407,238L343,189Z" fill="#f57f17" stroke="#f57f17" stroke-width="1.51"></path><path d="M270,241L407,238L319,235Z" fill="#f57f17" stroke="#f57f17" stroke-width="1.51"></path><path d="M83,256L407,238L270,241Z" fill="#f7831c" stroke="#f7831c" stroke-width="1.51"></path><path d="M-144,273L407,238L83,256Z" fill="#f6913a" stroke="#f6913a" stroke-width="1.51"></path></svg>