<svg width="300" height="176" xmlns="http://www.w3.org/2000/svg"><path d="M-131,-102L1,-73L231,-109Z" fill="#e2b189" stroke="#e2b189" stroke-width="1.51"></path><path d="M339,211L357,273L406,173Z" fill="#f98922" stroke="#f98922" stroke-width="1.51"></path><path d="M356,11L399,81L420,-16Z" fill="#f69541" stroke="#f69541" stroke-width="1.51"></path><path d="M399,81L406,173L420,-16Z" fill="#fb902b" stroke="#fb902b" stroke-width="1.51"></path><path d="M164,274L-59,279L438,288Z" fill="#fb8d25" stroke="#fb8d25" stroke-width="1.51"></path><path d="M357,273L253,270L438,288Z" fill="#f8861f" stroke="#f8861f" stroke-width="1.51"></path><path d="M253,270L164,274L438,288Z" fill="#f98922" stroke="#f98922" stroke-width="1.51"></path><path d="M406,173L357,273L438,288Z" fill="#f8861f" stroke="#f8861f" stroke-width="1.51"></path><path d="M420,-16L406,173L438,288Z" fill="#f98b23" stroke="#f98b23" stroke-width="1.51"></path><path d="M399,81L347,89L406,173Z" fill="#fb8e26" stroke="#fb8e26" stroke-width="1.51"></path><path d="M309,-107L356,11L415,-100Z" fill="#ee9f60" stroke="#ee9f60" stroke-width="1.51"></path><path d="M415,-100L356,11L420,-16Z" fill="#f09a55" stroke="#f09a55" stroke-width="1.51"></path><path d="M356,11L347,89L399,81Z" fill="#f99334" stroke="#f99334" stroke-width="1.51"></path><path d="M347,89L339,211L406,173Z" fill="#fa8c25" stroke="#fa8c25" stroke-width="1.51"></path><path d="M1,-73L40,-67L231,-109Z" fill="#e9ad79" stroke="#e9ad79" stroke-width="1.51"></path><path d="M245,168L339,211L347,89Z" fill="#fb8f28" stroke="#fb8f28" stroke-width="1.51"></path><path d="M270,90L245,168L347,89Z" fill="#fd922a" stroke="#fd922a" stroke-width="1.51"></path><path d="M309,-107L209,-2L356,11Z" fill="#f29e58" stroke="#f29e58" stroke-width="1.51"></path><path d="M270,90L347,89L356,11Z" fill="#fb9535" stroke="#fb9535" stroke-width="1.51"></path><path d="M339,211L253,270L357,273Z" fill="#f98922" stroke="#f98922" stroke-width="1.51"></path><path d="M209,-2L270,90L356,11Z" fill="#f89942" stroke="#f89942" stroke-width="1.51"></path><path d="M231,-109L209,-2L309,-107Z" fill="#efa466" stroke="#efa466" stroke-width="1.51"></path><path d="M245,168L253,270L339,211Z" fill="#fa8c25" stroke="#fa8c25" stroke-width="1.51"></path><path d="M29,251L-59,279L164,274Z" fill="#f59645" stroke="#f59645" stroke-width="1.51"></path><path d="M178,-61L209,-2L231,-109Z" fill="#f1a462" stroke="#f1a462" stroke-width="1.51"></path><path d="M245,168L175,169L253,270Z" fill="#fc9028" stroke="#fc9028" stroke-width="1.51"></path><path d="M175,169L164,274L253,270Z" fill="#fb8f27" stroke="#fb8f27" stroke-width="1.51"></path><path d="M209,-2L142,86L270,90Z" fill="#fc9a3b" stroke="#fc9a3b" stroke-width="1.51"></path><path d="M175,169L245,168L270,90Z" fill="#fd932b" stroke="#fd932b" stroke-width="1.51"></path><path d="M142,86L175,169L270,90Z" fill="#fe962e" stroke="#fe962e" stroke-width="1.51"></path><path d="M40,-67L178,-61L231,-109Z" fill="#efa86b" stroke="#efa86b" stroke-width="1.51"></path><path d="M178,-61L130,-25L209,-2Z" fill="#f4a35a" stroke="#f4a35a" stroke-width="1.51"></path><path d="M130,-25L142,86L209,-2Z" fill="#f99f4a" stroke="#f99f4a" stroke-width="1.51"></path><path d="M130,-25L71,21L142,86Z" fill="#f8a151" stroke="#f8a151" stroke-width="1.51"></path><path d="M142,86L65,115L175,169Z" fill="#fd9936" stroke="#fd9936" stroke-width="1.51"></path><path d="M29,251L164,274L175,169Z" fill="#fb9331" stroke="#fb9331" stroke-width="1.51"></path><path d="M29,176L29,251L175,169Z" fill="#f89840" stroke="#f89840" stroke-width="1.51"></path><path d="M40,-67L130,-25L178,-61Z" fill="#efa86a" stroke="#efa86a" stroke-width="1.51"></path><path d="M65,115L29,176L175,169Z" fill="#fa9a3f" stroke="#fa9a3f" stroke-width="1.51"></path><path d="M71,21L65,115L142,86Z" fill="#fb9f46" stroke="#fb9f46" stroke-width="1.51"></path><path d="M40,-67L71,21L130,-25Z" fill="#efa869" stroke="#efa869" stroke-width="1.51"></path><path d="M1,-73L-48,12L40,-67Z" fill="#e6af82" stroke="#e6af82" stroke-width="1.51"></path><path d="M40,-67L-48,12L71,21Z" fill="#ecab73" stroke="#ecab73" stroke-width="1.51"></path><path d="M-43,81L65,115L71,21Z" fill="#f6a356" stroke="#f6a356" stroke-width="1.51"></path><path d="M-48,12L-43,81L71,21Z" fill="#efa869" stroke="#efa869" stroke-width="1.51"></path><path d="M-43,81L29,176L65,115Z" fill="#f6a052" stroke="#f6a052" stroke-width="1.51"></path><path d="M-44,181L29,251L29,176Z" fill="#f49c52" stroke="#f49c52" stroke-width="1.51"></path><path d="M-43,81L-44,181L29,176Z" fill="#f3a15a" stroke="#f3a15a" stroke-width="1.51"></path><path d="M-44,181L-59,279L29,251Z" fill="#f09c57" stroke="#f09c57" stroke-width="1.51"></path><path d="M-131,-102L-48,12L1,-73Z" fill="#deb491" stroke="#deb491" stroke-width="1.51"></path><path d="M-131,184L-149,253L-59,279Z" fill="#eaa26b" stroke="#eaa26b" stroke-width="1.51"></path><path d="M-131,-102L-88,27L-48,12Z" fill="#e0b38e" stroke="#e0b38e" stroke-width="1.51"></path><path d="M-136,119L-131,184L-44,181Z" fill="#eca56c" stroke="#eca56c" stroke-width="1.51"></path><path d="M-131,184L-59,279L-44,181Z" fill="#eda164" stroke="#eda164" stroke-width="1.51"></path><path d="M-48,12L-88,27L-43,81Z" fill="#ebab74" stroke="#ebab74" stroke-width="1.51"></path><path d="M-136,119L-44,181L-43,81Z" fill="#efa667" stroke="#efa667" stroke-width="1.51"></path><path d="M-88,27L-136,119L-43,81Z" fill="#edaa70" stroke="#edaa70" stroke-width="1.51"></path><path d="M-131,-102L-136,119L-88,27Z" fill="#e2b189" stroke="#e2b189" stroke-width="1.51"></path><path d="M-149,253L-136,119L-131,-102Z" fill="#eaac77" stroke="#eaac77" stroke-width="1.51"></path><path d="M-136,119L-149,253L-131,184Z" fill="#e9a773" stroke="#e9a773" stroke-width="1.51"></path></svg>