<svg width="300" height="176" xmlns="http://www.w3.org/2000/svg"><path d="M117,77L72,18L46,99Z" fill="#f9a04d" stroke="#f9a04d" stroke-width="1.51"></path><path d="M117,77L181,24L72,18Z" fill="#f9a04a" stroke="#f9a04a" stroke-width="1.51"></path><path d="M72,18L-40,54L46,99Z" fill="#f4a45c" stroke="#f4a45c" stroke-width="1.51"></path><path d="M46,99L155,189L117,77Z" fill="#fc9a3c" stroke="#fc9a3c" stroke-width="1.51"></path><path d="M117,77L213,95L181,24Z" fill="#fd9a39" stroke="#fd9a39" stroke-width="1.51"></path><path d="M-52,194L37,189L46,99Z" fill="#f59e52" stroke="#f59e52" stroke-width="1.51"></path><path d="M155,189L213,95L117,77Z" fill="#ff972f" stroke="#ff972f" stroke-width="1.51"></path><path d="M37,189L155,189L46,99Z" fill="#f99a41" stroke="#f99a41" stroke-width="1.51"></path><path d="M72,18L-57,-29L-40,54Z" fill="#edab71" stroke="#edab71" stroke-width="1.51"></path><path d="M180,-93L32,-85L72,18Z" fill="#edaa6f" stroke="#edaa6f" stroke-width="1.51"></path><path d="M32,-85L-57,-29L72,18Z" fill="#e9ad7a" stroke="#e9ad7a" stroke-width="1.51"></path><path d="M181,24L180,-93L72,18Z" fill="#f5a358" stroke="#f5a358" stroke-width="1.51"></path><path d="M213,95L217,-18L181,24Z" fill="#f99c44" stroke="#f99c44" stroke-width="1.51"></path><path d="M-131,19L-89,111L-40,54Z" fill="#ebab74" stroke="#ebab74" stroke-width="1.51"></path><path d="M-40,54L-89,111L46,99Z" fill="#f3a55e" stroke="#f3a55e" stroke-width="1.51"></path><path d="M-89,111L-52,194L46,99Z" fill="#f2a25d" stroke="#f2a25d" stroke-width="1.51"></path><path d="M37,189L88,256L155,189Z" fill="#f9963b" stroke="#f9963b" stroke-width="1.51"></path><path d="M32,-85L-37,-85L-57,-29Z" fill="#e1b28d" stroke="#e1b28d" stroke-width="1.51"></path><path d="M217,-18L180,-93L181,24Z" fill="#f4a25a" stroke="#f4a25a" stroke-width="1.51"></path><path d="M32,-85L-87,-118L-37,-85Z" fill="#dbb598" stroke="#dbb598" stroke-width="1.51"></path><path d="M-22,288L88,256L37,189Z" fill="#f59848" stroke="#f59848" stroke-width="1.51"></path><path d="M353,15L242,-98L217,-18Z" fill="#f29f58" stroke="#f29f58" stroke-width="1.51"></path><path d="M155,189L221,195L213,95Z" fill="#fd932c" stroke="#fd932c" stroke-width="1.51"></path><path d="M171,272L221,195L155,189Z" fill="#fc9029" stroke="#fc9029" stroke-width="1.51"></path><path d="M-87,-118L-131,19L-57,-29Z" fill="#ddb595" stroke="#ddb595" stroke-width="1.51"></path><path d="M-57,-29L-131,19L-40,54Z" fill="#e7ae80" stroke="#e7ae80" stroke-width="1.51"></path><path d="M-89,111L-130,181L-52,194Z" fill="#eda569" stroke="#eda569" stroke-width="1.51"></path><path d="M88,256L171,272L155,189Z" fill="#fb922d" stroke="#fb922d" stroke-width="1.51"></path><path d="M217,-18L242,-98L180,-93Z" fill="#efa566" stroke="#efa566" stroke-width="1.51"></path><path d="M180,-93L-87,-118L32,-85Z" fill="#e2b189" stroke="#e2b189" stroke-width="1.51"></path><path d="M318,73L217,-18L213,95Z" fill="#fa993c" stroke="#fa993c" stroke-width="1.51"></path><path d="M-52,194L-22,288L37,189Z" fill="#f29c54" stroke="#f29c54" stroke-width="1.51"></path><path d="M-131,19L-130,181L-89,111Z" fill="#eca971" stroke="#eca971" stroke-width="1.51"></path><path d="M242,-98L-87,-118L180,-93Z" fill="#e8ad7b" stroke="#e8ad7b" stroke-width="1.51"></path><path d="M-37,-85L-87,-118L-57,-29Z" fill="#dbb699" stroke="#dbb699" stroke-width="1.51"></path><path d="M88,256L-22,288L171,272Z" fill="#f7933c" stroke="#f7933c" stroke-width="1.51"></path><path d="M-153,242L-22,288L-52,194Z" fill="#ed9f62" stroke="#ed9f62" stroke-width="1.51"></path><path d="M221,195L318,73L213,95Z" fill="#fd932c" stroke="#fd932c" stroke-width="1.51"></path><path d="M337,192L318,73L221,195Z" fill="#fc9028" stroke="#fc9028" stroke-width="1.51"></path><path d="M171,272L237,246L221,195Z" fill="#fb8e27" stroke="#fb8e27" stroke-width="1.51"></path><path d="M429,112L353,15L318,73Z" fill="#fa9232" stroke="#fa9232" stroke-width="1.51"></path><path d="M318,73L353,15L217,-18Z" fill="#f79945" stroke="#f79945" stroke-width="1.51"></path><path d="M-130,181L-153,242L-52,194Z" fill="#eba46c" stroke="#eba46c" stroke-width="1.51"></path><path d="M-131,19L-153,242L-130,181Z" fill="#e9a974" stroke="#e9a974" stroke-width="1.51"></path><path d="M237,246L337,192L221,195Z" fill="#fb8e26" stroke="#fb8e26" stroke-width="1.51"></path><path d="M353,15L355,-96L242,-98Z" fill="#efa05f" stroke="#efa05f" stroke-width="1.51"></path><path d="M242,-98L355,-96L-87,-118Z" fill="#eca972" stroke="#eca972" stroke-width="1.51"></path><path d="M337,192L429,112L318,73Z" fill="#fb8f27" stroke="#fb8f27" stroke-width="1.51"></path><path d="M353,15L414,-83L355,-96Z" fill="#ef9e5c" stroke="#ef9e5c" stroke-width="1.51"></path><path d="M429,112L429,-15L353,15Z" fill="#f7933c" stroke="#f7933c" stroke-width="1.51"></path><path d="M363,299L337,192L237,246Z" fill="#f98a22" stroke="#f98a22" stroke-width="1.51"></path><path d="M363,299L420,193L337,192Z" fill="#f98821" stroke="#f98821" stroke-width="1.51"></path><path d="M337,192L420,193L429,112Z" fill="#fa8b23" stroke="#fa8b23" stroke-width="1.51"></path><path d="M429,-15L414,-83L353,15Z" fill="#f19a53" stroke="#f19a53" stroke-width="1.51"></path><path d="M-22,288L363,299L171,272Z" fill="#fa8d25" stroke="#fa8d25" stroke-width="1.51"></path><path d="M171,272L363,299L237,246Z" fill="#fa8a23" stroke="#fa8a23" stroke-width="1.51"></path><path d="M363,299L453,298L420,193Z" fill="#f7841d" stroke="#f7841d" stroke-width="1.51"></path><path d="M420,193L453,298L429,112Z" fill="#f88720" stroke="#f88720" stroke-width="1.51"></path><path d="M429,112L453,298L429,-15Z" fill="#fa8b23" stroke="#fa8b23" stroke-width="1.51"></path></svg>