<svg width="300" height="176" xmlns="http://www.w3.org/2000/svg"><path d="M-60,-120L171,-87L241,-103Z" fill="#ffca62" stroke="#ffca62" stroke-width="1.51"></path><path d="M-126,-121L-60,-120L303,-124Z" fill="#ffda72" stroke="#ffda72" stroke-width="1.51"></path><path d="M-60,-120L241,-103L303,-124Z" fill="#ffc75f" stroke="#ffc75f" stroke-width="1.51"></path><path d="M326,16L410,100L435,-13Z" fill="#fc9c35" stroke="#fc9c35" stroke-width="1.51"></path><path d="M319,248L211,286L437,276Z" fill="#f98821" stroke="#f98821" stroke-width="1.51"></path><path d="M344,175L319,248L437,276Z" fill="#f88721" stroke="#f88721" stroke-width="1.51"></path><path d="M344,175L437,276L452,179Z" fill="#f98820" stroke="#f98820" stroke-width="1.51"></path><path d="M410,100L344,175L452,179Z" fill="#fa8b24" stroke="#fa8b24" stroke-width="1.51"></path><path d="M435,-13L410,100L452,179Z" fill="#fb8e26" stroke="#fb8e26" stroke-width="1.51"></path><path d="M442,-60L435,-13L452,179Z" fill="#fb9933" stroke="#fb9933" stroke-width="1.51"></path><path d="M326,16L323,54L410,100Z" fill="#fc9831" stroke="#fc9831" stroke-width="1.51"></path><path d="M326,16L435,-13L442,-60Z" fill="#fca841" stroke="#fca841" stroke-width="1.51"></path><path d="M303,-124L326,16L442,-60Z" fill="#feb24b" stroke="#feb24b" stroke-width="1.51"></path><path d="M323,54L344,175L410,100Z" fill="#fb9028" stroke="#fb9028" stroke-width="1.51"></path><path d="M303,-124L241,-103L326,16Z" fill="#ffb850" stroke="#ffb850" stroke-width="1.51"></path><path d="M241,-103L216,12L326,16Z" fill="#ffae47" stroke="#ffae47" stroke-width="1.51"></path><path d="M239,179L319,248L344,175Z" fill="#fa8d25" stroke="#fa8d25" stroke-width="1.51"></path><path d="M323,54L237,99L344,175Z" fill="#fc922a" stroke="#fc922a" stroke-width="1.51"></path><path d="M237,99L239,179L344,175Z" fill="#fc9129" stroke="#fc9129" stroke-width="1.51"></path><path d="M216,12L323,54L326,16Z" fill="#fda23a" stroke="#fda23a" stroke-width="1.51"></path><path d="M216,12L237,99L323,54Z" fill="#fe9c35" stroke="#fe9c35" stroke-width="1.51"></path><path d="M239,179L211,286L319,248Z" fill="#fa8c25" stroke="#fa8c25" stroke-width="1.51"></path><path d="M-60,-120L69,-64L171,-87Z" fill="#ffd068" stroke="#ffd068" stroke-width="1.51"></path><path d="M216,12L163,78L237,99Z" fill="#fe9d35" stroke="#fe9d35" stroke-width="1.51"></path><path d="M163,78L152,153L237,99Z" fill="#fe962f" stroke="#fe962f" stroke-width="1.51"></path><path d="M131,235L211,286L239,179Z" fill="#fc8f28" stroke="#fc8f28" stroke-width="1.51"></path><path d="M152,153L131,235L239,179Z" fill="#fd922b" stroke="#fd922b" stroke-width="1.51"></path><path d="M237,99L152,153L239,179Z" fill="#fd942c" stroke="#fd942c" stroke-width="1.51"></path><path d="M171,-87L216,12L241,-103Z" fill="#ffb951" stroke="#ffb951" stroke-width="1.51"></path><path d="M131,235L45,288L211,286Z" fill="#fb922b" stroke="#fb922b" stroke-width="1.51"></path><path d="M171,-87L118,-10L216,12Z" fill="#ffb34c" stroke="#ffb34c" stroke-width="1.51"></path><path d="M118,-10L163,78L216,12Z" fill="#ffa73f" stroke="#ffa73f" stroke-width="1.51"></path><path d="M69,-64L118,-10L171,-87Z" fill="#ffbe56" stroke="#ffbe56" stroke-width="1.51"></path><path d="M32,72L152,153L163,78Z" fill="#ff9e37" stroke="#ff9e37" stroke-width="1.51"></path><path d="M118,-10L32,72L163,78Z" fill="#ffaa42" stroke="#ffaa42" stroke-width="1.51"></path><path d="M38,200L131,235L152,153Z" fill="#fd9a33" stroke="#fd9a33" stroke-width="1.51"></path><path d="M32,72L38,200L152,153Z" fill="#fea33b" stroke="#fea33b" stroke-width="1.51"></path><path d="M40,-11L32,72L118,-10Z" fill="#ffb850" stroke="#ffb850" stroke-width="1.51"></path><path d="M38,200L45,288L131,235Z" fill="#fc9d37" stroke="#fc9d37" stroke-width="1.51"></path><path d="M32,72L-5,156L38,200Z" fill="#ffab44" stroke="#ffab44" stroke-width="1.51"></path><path d="M69,-64L40,-11L118,-10Z" fill="#ffc058" stroke="#ffc058" stroke-width="1.51"></path><path d="M-60,-120L40,-11L69,-64Z" fill="#ffd26a" stroke="#ffd26a" stroke-width="1.51"></path><path d="M-17,12L32,72L40,-11Z" fill="#ffbd55" stroke="#ffbd55" stroke-width="1.51"></path><path d="M-60,-120L-17,12L40,-11Z" fill="#ffd169" stroke="#ffd169" stroke-width="1.51"></path><path d="M-57,238L-107,258L45,288Z" fill="#fdae48" stroke="#fdae48" stroke-width="1.51"></path><path d="M38,200L-57,238L45,288Z" fill="#fda841" stroke="#fda841" stroke-width="1.51"></path><path d="M-57,102L-5,156L32,72Z" fill="#ffb24b" stroke="#ffb24b" stroke-width="1.51"></path><path d="M-5,156L-57,238L38,200Z" fill="#fead46" stroke="#fead46" stroke-width="1.51"></path><path d="M-17,12L-57,102L32,72Z" fill="#ffba52" stroke="#ffba52" stroke-width="1.51"></path><path d="M-60,-120L-115,-4L-17,12Z" fill="#ffd870" stroke="#ffd870" stroke-width="1.51"></path><path d="M-57,102L-57,238L-5,156Z" fill="#ffb44d" stroke="#ffb44d" stroke-width="1.51"></path><path d="M-153,153L-57,238L-57,102Z" fill="#ffbc55" stroke="#ffbc55" stroke-width="1.51"></path><path d="M-115,-4L-57,102L-17,12Z" fill="#ffc860" stroke="#ffc860" stroke-width="1.51"></path><path d="M-126,-121L-115,-4L-60,-120Z" fill="#ffe87f" stroke="#ffe87f" stroke-width="1.51"></path><path d="M-153,153L-107,258L-57,238Z" fill="#ffbb55" stroke="#ffbb55" stroke-width="1.51"></path><path d="M-124,89L-153,153L-57,102Z" fill="#ffc25a" stroke="#ffc25a" stroke-width="1.51"></path><path d="M-115,-4L-124,89L-57,102Z" fill="#ffc75f" stroke="#ffc75f" stroke-width="1.51"></path><path d="M-153,153L-124,89L-115,-4Z" fill="#ffc861" stroke="#ffc861" stroke-width="1.51"></path><path d="M-126,-121L-153,153L-115,-4Z" fill="#ffd870" stroke="#ffd870" stroke-width="1.51"></path></svg>