<svg width="300" height="176" xmlns="http://www.w3.org/2000/svg"><path d="M146,110L74,147L144,169Z" fill="#f8953b" stroke="#f8953b" stroke-width="1.51"></path><path d="M146,110L52,93L74,147Z" fill="#f69d4e" stroke="#f69d4e" stroke-width="1.51"></path><path d="M74,147L73,256L144,169Z" fill="#f49444" stroke="#f49444" stroke-width="1.51"></path><path d="M-8,176L73,256L74,147Z" fill="#ec9b5d" stroke="#ec9b5d" stroke-width="1.51"></path><path d="M52,93L-8,176L74,147Z" fill="#eda165" stroke="#eda165" stroke-width="1.51"></path><path d="M144,169L247,201L146,110Z" fill="#fa8c24" stroke="#fa8c24" stroke-width="1.51"></path><path d="M229,268L247,201L144,169Z" fill="#f88720" stroke="#f88720" stroke-width="1.51"></path><path d="M73,256L118,291L144,169Z" fill="#f5923c" stroke="#f5923c" stroke-width="1.51"></path><path d="M146,110L89,-16L52,93Z" fill="#f1a765" stroke="#f1a765" stroke-width="1.51"></path><path d="M52,93L-32,74L-8,176Z" fill="#e8a978" stroke="#e8a978" stroke-width="1.51"></path><path d="M156,-19L89,-16L146,110Z" fill="#ecaa72" stroke="#ecaa72" stroke-width="1.51"></path><path d="M247,201L265,82L146,110Z" fill="#fa8d26" stroke="#fa8d26" stroke-width="1.51"></path><path d="M-2,19L-32,74L52,93Z" fill="#e0b28e" stroke="#e0b28e" stroke-width="1.51"></path><path d="M265,82L156,-19L146,110Z" fill="#f79d4b" stroke="#f79d4b" stroke-width="1.51"></path><path d="M89,-16L-2,19L52,93Z" fill="#ddb494" stroke="#ddb494" stroke-width="1.51"></path><path d="M118,291L229,268L144,169Z" fill="#fa8b24" stroke="#fa8b24" stroke-width="1.51"></path><path d="M265,82L268,-2L156,-19Z" fill="#eda268" stroke="#eda268" stroke-width="1.51"></path><path d="M-8,176L-59,271L73,256Z" fill="#e5a171" stroke="#e5a171" stroke-width="1.51"></path><path d="M73,256L-59,271L118,291Z" fill="#ec9b5e" stroke="#ec9b5e" stroke-width="1.51"></path><path d="M-132,235L-59,271L-8,176Z" fill="#e5a172" stroke="#e5a172" stroke-width="1.51"></path><path d="M265,82L300,-12L268,-2Z" fill="#ec9e62" stroke="#ec9e62" stroke-width="1.51"></path><path d="M268,-2L246,-75L156,-19Z" fill="#e6a778" stroke="#e6a778" stroke-width="1.51"></path><path d="M349,73L300,-12L265,82Z" fill="#f1964c" stroke="#f1964c" stroke-width="1.51"></path><path d="M357,206L265,82L247,201Z" fill="#f7821a" stroke="#f7821a" stroke-width="1.51"></path><path d="M357,206L349,73L265,82Z" fill="#f88820" stroke="#f88820" stroke-width="1.51"></path><path d="M89,-16L70,-107L-2,19Z" fill="#d1baa9" stroke="#d1baa9" stroke-width="1.51"></path><path d="M144,-123L70,-107L89,-16Z" fill="#ddb493" stroke="#ddb493" stroke-width="1.51"></path><path d="M144,-123L89,-16L156,-19Z" fill="#e4b086" stroke="#e4b086" stroke-width="1.51"></path><path d="M300,-12L246,-75L268,-2Z" fill="#e5a375" stroke="#e5a375" stroke-width="1.51"></path><path d="M347,245L357,206L247,201Z" fill="#f57f17" stroke="#f57f17" stroke-width="1.51"></path><path d="M229,268L347,245L247,201Z" fill="#f6821a" stroke="#f6821a" stroke-width="1.51"></path><path d="M445,236L347,245L229,268Z" fill="#f57f17" stroke="#f57f17" stroke-width="1.51"></path><path d="M246,-75L144,-123L156,-19Z" fill="#e7ab7b" stroke="#e7ab7b" stroke-width="1.51"></path><path d="M-153,88L-32,74L-150,23Z" fill="#deb391" stroke="#deb391" stroke-width="1.51"></path><path d="M-153,88L-8,176L-32,74Z" fill="#e7aa7a" stroke="#e7aa7a" stroke-width="1.51"></path><path d="M-153,88L-140,210L-8,176Z" fill="#e5a375" stroke="#e5a375" stroke-width="1.51"></path><path d="M-140,210L-132,235L-8,176Z" fill="#e5a172" stroke="#e5a172" stroke-width="1.51"></path><path d="M-150,23L-32,74L-2,19Z" fill="#d5b9a3" stroke="#d5b9a3" stroke-width="1.51"></path><path d="M144,-123L-50,-89L70,-107Z" fill="#d2baa8" stroke="#d2baa8" stroke-width="1.51"></path><path d="M70,-107L-50,-89L-2,19Z" fill="#c3c0be" stroke="#c3c0be" stroke-width="1.51"></path><path d="M-124,-77L-150,23L-2,19Z" fill="#c1c1c1" stroke="#c1c1c1" stroke-width="1.51"></path><path d="M246,-75L310,-100L144,-123Z" fill="#e6a777" stroke="#e6a777" stroke-width="1.51"></path><path d="M300,-12L310,-100L246,-75Z" fill="#e5a274" stroke="#e5a274" stroke-width="1.51"></path><path d="M409,-76L310,-100L300,-12Z" fill="#e5a172" stroke="#e5a172" stroke-width="1.51"></path><path d="M445,236L421,177L357,206Z" fill="#f57f17" stroke="#f57f17" stroke-width="1.51"></path><path d="M357,206L421,177L349,73Z" fill="#f7831b" stroke="#f7831b" stroke-width="1.51"></path><path d="M349,73L425,1L300,-12Z" fill="#eb9c62" stroke="#eb9c62" stroke-width="1.51"></path><path d="M421,177L421,66L349,73Z" fill="#f98a22" stroke="#f98a22" stroke-width="1.51"></path><path d="M-50,-89L-124,-77L-2,19Z" fill="#c1c1c1" stroke="#c1c1c1" stroke-width="1.51"></path><path d="M144,-123L-124,-77L-50,-89Z" fill="#c1c1c1" stroke="#c1c1c1" stroke-width="1.51"></path><path d="M421,66L425,1L349,73Z" fill="#f1964d" stroke="#f1964d" stroke-width="1.51"></path><path d="M445,236L425,1L421,66Z" fill="#fa8a23" stroke="#fa8a23" stroke-width="1.51"></path><path d="M421,177L445,236L421,66Z" fill="#f6821a" stroke="#f6821a" stroke-width="1.51"></path><path d="M347,245L445,236L357,206Z" fill="#f57f17" stroke="#f57f17" stroke-width="1.51"></path><path d="M118,291L445,236L229,268Z" fill="#f6821b" stroke="#f6821b" stroke-width="1.51"></path><path d="M425,1L409,-76L300,-12Z" fill="#e5a172" stroke="#e5a172" stroke-width="1.51"></path></svg>