<svg width="300" height="176" xmlns="http://www.w3.org/2000/svg"><path d="M173,106L236,173L244,89Z" fill="#fe942c" stroke="#fe942c" stroke-width="1.51"></path><path d="M173,106L139,206L236,173Z" fill="#fd942c" stroke="#fd942c" stroke-width="1.51"></path><path d="M173,106L89,178L139,206Z" fill="#fd9632" stroke="#fd9632" stroke-width="1.51"></path><path d="M167,-3L82,107L173,106Z" fill="#fd9b3b" stroke="#fd9b3b" stroke-width="1.51"></path><path d="M82,107L89,178L173,106Z" fill="#fc993a" stroke="#fc993a" stroke-width="1.51"></path><path d="M244,89L167,-3L173,106Z" fill="#fd9939" stroke="#fd9939" stroke-width="1.51"></path><path d="M244,89L230,-35L167,-3Z" fill="#f89d49" stroke="#f89d49" stroke-width="1.51"></path><path d="M236,173L363,92L244,89Z" fill="#fd922b" stroke="#fd922b" stroke-width="1.51"></path><path d="M236,173L353,194L363,92Z" fill="#fb8f27" stroke="#fb8f27" stroke-width="1.51"></path><path d="M321,278L353,194L236,173Z" fill="#fa8b24" stroke="#fa8b24" stroke-width="1.51"></path><path d="M359,4L230,-35L244,89Z" fill="#f79b47" stroke="#f79b47" stroke-width="1.51"></path><path d="M139,206L244,297L236,173Z" fill="#fb8f28" stroke="#fb8f28" stroke-width="1.51"></path><path d="M120,277L244,297L139,206Z" fill="#fb8f27" stroke="#fb8f27" stroke-width="1.51"></path><path d="M89,178L120,277L139,206Z" fill="#fa9435" stroke="#fa9435" stroke-width="1.51"></path><path d="M244,297L321,278L236,173Z" fill="#fa8b24" stroke="#fa8b24" stroke-width="1.51"></path><path d="M363,92L359,4L244,89Z" fill="#fa9536" stroke="#fa9536" stroke-width="1.51"></path><path d="M230,-35L168,-67L167,-3Z" fill="#f3a35c" stroke="#f3a35c" stroke-width="1.51"></path><path d="M167,-3L87,-30L82,107Z" fill="#f7a252" stroke="#f7a252" stroke-width="1.51"></path><path d="M220,-109L168,-67L230,-35Z" fill="#efa567" stroke="#efa567" stroke-width="1.51"></path><path d="M168,-67L87,-30L167,-3Z" fill="#f3a55f" stroke="#f3a55f" stroke-width="1.51"></path><path d="M448,210L418,96L353,194Z" fill="#fa8a23" stroke="#fa8a23" stroke-width="1.51"></path><path d="M353,194L418,96L363,92Z" fill="#fb8e26" stroke="#fb8e26" stroke-width="1.51"></path><path d="M363,92L418,96L359,4Z" fill="#fa9233" stroke="#fa9233" stroke-width="1.51"></path><path d="M-32,19L-14,118L82,107Z" fill="#f5a357" stroke="#f5a357" stroke-width="1.51"></path><path d="M82,107L-14,118L89,178Z" fill="#f89d49" stroke="#f89d49" stroke-width="1.51"></path><path d="M89,178L35,297L120,277Z" fill="#f8943c" stroke="#f8943c" stroke-width="1.51"></path><path d="M321,278L407,268L353,194Z" fill="#f88820" stroke="#f88820" stroke-width="1.51"></path><path d="M244,297L407,268L321,278Z" fill="#f8871f" stroke="#f8871f" stroke-width="1.51"></path><path d="M168,-67L30,-80L87,-30Z" fill="#edaa71" stroke="#edaa71" stroke-width="1.51"></path><path d="M349,-113L220,-109L230,-35Z" fill="#eca469" stroke="#eca469" stroke-width="1.51"></path><path d="M407,268L448,210L353,194Z" fill="#f88720" stroke="#f88720" stroke-width="1.51"></path><path d="M-52,207L35,297L89,178Z" fill="#f4994c" stroke="#f4994c" stroke-width="1.51"></path><path d="M120,277L35,297L244,297Z" fill="#fa8f2c" stroke="#fa8f2c" stroke-width="1.51"></path><path d="M-4,-62L-32,19L87,-30Z" fill="#eaac78" stroke="#eaac78" stroke-width="1.51"></path><path d="M87,-30L-32,19L82,107Z" fill="#f3a55f" stroke="#f3a55f" stroke-width="1.51"></path><path d="M359,4L349,-113L230,-35Z" fill="#f09f5c" stroke="#f09f5c" stroke-width="1.51"></path><path d="M418,96L445,-23L359,4Z" fill="#f69440" stroke="#f69440" stroke-width="1.51"></path><path d="M448,210L445,-23L418,96Z" fill="#fb8d26" stroke="#fb8d26" stroke-width="1.51"></path><path d="M451,-63L349,-113L359,4Z" fill="#ef9d5c" stroke="#ef9d5c" stroke-width="1.51"></path><path d="M-118,201L-52,207L-14,118Z" fill="#efa262" stroke="#efa262" stroke-width="1.51"></path><path d="M-14,118L-52,207L89,178Z" fill="#f59e52" stroke="#f59e52" stroke-width="1.51"></path><path d="M220,-109L30,-80L168,-67Z" fill="#eea96f" stroke="#eea96f" stroke-width="1.51"></path><path d="M30,-80L-4,-62L87,-30Z" fill="#e8ae7d" stroke="#e8ae7d" stroke-width="1.51"></path><path d="M-52,207L-51,261L35,297Z" fill="#f19b55" stroke="#f19b55" stroke-width="1.51"></path><path d="M445,-23L451,-63L359,4Z" fill="#f19952" stroke="#f19952" stroke-width="1.51"></path><path d="M448,210L451,-63L445,-23Z" fill="#f79139" stroke="#f79139" stroke-width="1.51"></path><path d="M-126,-21L-121,73L-32,19Z" fill="#e6af81" stroke="#e6af81" stroke-width="1.51"></path><path d="M-32,19L-121,73L-14,118Z" fill="#efa86a" stroke="#efa86a" stroke-width="1.51"></path><path d="M-52,207L-118,201L-51,261Z" fill="#eda063" stroke="#eda063" stroke-width="1.51"></path><path d="M-121,73L-118,201L-14,118Z" fill="#eea669" stroke="#eea669" stroke-width="1.51"></path><path d="M-118,201L-103,291L-51,261Z" fill="#eca065" stroke="#eca065" stroke-width="1.51"></path><path d="M-51,261L-103,291L35,297Z" fill="#ee9b58" stroke="#ee9b58" stroke-width="1.51"></path><path d="M-121,73L-142,-62L-118,201Z" fill="#e9ac7a" stroke="#e9ac7a" stroke-width="1.51"></path><path d="M-4,-62L-126,-21L-32,19Z" fill="#e4b086" stroke="#e4b086" stroke-width="1.51"></path><path d="M-142,-62L-126,-21L-4,-62Z" fill="#dcb596" stroke="#dcb596" stroke-width="1.51"></path><path d="M30,-80L-142,-62L-4,-62Z" fill="#dfb391" stroke="#dfb391" stroke-width="1.51"></path><path d="M-126,-21L-142,-62L-121,73Z" fill="#dfb491" stroke="#dfb491" stroke-width="1.51"></path><path d="M220,-109L-142,-62L30,-80Z" fill="#e4b086" stroke="#e4b086" stroke-width="1.51"></path></svg>