<svg width="300" height="176" xmlns="http://www.w3.org/2000/svg"><path d="M241,280L161,278L348,296Z" fill="#f98a22" stroke="#f98a22" stroke-width="1.51"></path><path d="M327,148L409,205L423,69Z" fill="#fb8d25" stroke="#fb8d25" stroke-width="1.51"></path><path d="M409,205L348,296L444,295Z" fill="#f7851d" stroke="#f7851d" stroke-width="1.51"></path><path d="M432,-2L423,69L444,295Z" fill="#fa8c25" stroke="#fa8c25" stroke-width="1.51"></path><path d="M423,69L409,205L444,295Z" fill="#f98821" stroke="#f98821" stroke-width="1.51"></path><path d="M337,-124L432,-2L447,-102Z" fill="#feb44e" stroke="#feb44e" stroke-width="1.51"></path><path d="M432,-2L444,295L447,-102Z" fill="#fb932c" stroke="#fb932c" stroke-width="1.51"></path><path d="M337,-124L318,18L432,-2Z" fill="#fdad46" stroke="#fdad46" stroke-width="1.51"></path><path d="M318,18L423,69L432,-2Z" fill="#fc9d37" stroke="#fc9d37" stroke-width="1.51"></path><path d="M300,67L327,148L423,69Z" fill="#fc9129" stroke="#fc9129" stroke-width="1.51"></path><path d="M318,18L300,67L423,69Z" fill="#fc9a33" stroke="#fc9a33" stroke-width="1.51"></path><path d="M327,148L348,296L409,205Z" fill="#f98922" stroke="#f98922" stroke-width="1.51"></path><path d="M212,201L241,280L327,148Z" fill="#fb8e27" stroke="#fb8e27" stroke-width="1.51"></path><path d="M270,-125L318,18L337,-124Z" fill="#ffb851" stroke="#ffb851" stroke-width="1.51"></path><path d="M327,148L241,280L348,296Z" fill="#f98a23" stroke="#f98a23" stroke-width="1.51"></path><path d="M270,-125L218,24L318,18Z" fill="#feaf48" stroke="#feaf48" stroke-width="1.51"></path><path d="M300,67L244,78L327,148Z" fill="#fd932b" stroke="#fd932b" stroke-width="1.51"></path><path d="M244,78L212,201L327,148Z" fill="#fd922a" stroke="#fd922a" stroke-width="1.51"></path><path d="M218,24L300,67L318,18Z" fill="#fda039" stroke="#fda039" stroke-width="1.51"></path><path d="M174,155L212,201L244,78Z" fill="#fd942c" stroke="#fd942c" stroke-width="1.51"></path><path d="M166,-9L218,24L270,-125Z" fill="#ffb34c" stroke="#ffb34c" stroke-width="1.51"></path><path d="M218,24L244,78L300,67Z" fill="#fe9c35" stroke="#fe9c35" stroke-width="1.51"></path><path d="M116,-121L166,-9L270,-125Z" fill="#ffbf57" stroke="#ffbf57" stroke-width="1.51"></path><path d="M212,201L161,278L241,280Z" fill="#fb8e26" stroke="#fb8e26" stroke-width="1.51"></path><path d="M218,24L135,107L244,78Z" fill="#ff9c34" stroke="#ff9c34" stroke-width="1.51"></path><path d="M135,107L174,155L244,78Z" fill="#fe962e" stroke="#fe962e" stroke-width="1.51"></path><path d="M56,235L-56,263L161,278Z" fill="#fc9f39" stroke="#fc9f39" stroke-width="1.51"></path><path d="M166,-9L135,107L218,24Z" fill="#ffa33b" stroke="#ffa33b" stroke-width="1.51"></path><path d="M174,155L161,278L212,201Z" fill="#fc912a" stroke="#fc912a" stroke-width="1.51"></path><path d="M116,-121L52,-81L166,-9Z" fill="#ffc35b" stroke="#ffc35b" stroke-width="1.51"></path><path d="M37,30L135,107L166,-9Z" fill="#ffaa42" stroke="#ffaa42" stroke-width="1.51"></path><path d="M135,107L65,159L174,155Z" fill="#fe9a33" stroke="#fe9a33" stroke-width="1.51"></path><path d="M56,235L161,278L174,155Z" fill="#fc952d" stroke="#fc952d" stroke-width="1.51"></path><path d="M65,159L56,235L174,155Z" fill="#fd9c35" stroke="#fd9c35" stroke-width="1.51"></path><path d="M52,-81L37,30L166,-9Z" fill="#ffbc55" stroke="#ffbc55" stroke-width="1.51"></path><path d="M29,86L65,159L135,107Z" fill="#ffa43c" stroke="#ffa43c" stroke-width="1.51"></path><path d="M37,30L29,86L135,107Z" fill="#ffaa43" stroke="#ffaa43" stroke-width="1.51"></path><path d="M-11,-116L52,-81L116,-121Z" fill="#ffd56d" stroke="#ffd56d" stroke-width="1.51"></path><path d="M-45,3L37,30L52,-81Z" fill="#ffc75f" stroke="#ffc75f" stroke-width="1.51"></path><path d="M-47,155L56,235L65,159Z" fill="#fea841" stroke="#fea841" stroke-width="1.51"></path><path d="M2,117L-47,155L65,159Z" fill="#ffae46" stroke="#ffae46" stroke-width="1.51"></path><path d="M29,86L2,117L65,159Z" fill="#ffaa44" stroke="#ffaa44" stroke-width="1.51"></path><path d="M-11,-116L-45,3L52,-81Z" fill="#ffd46c" stroke="#ffd46c" stroke-width="1.51"></path><path d="M-47,155L-56,263L56,235Z" fill="#fead46" stroke="#fead46" stroke-width="1.51"></path><path d="M-45,3L29,86L37,30Z" fill="#ffbb54" stroke="#ffbb54" stroke-width="1.51"></path><path d="M-45,3L2,117L29,86Z" fill="#ffb74f" stroke="#ffb74f" stroke-width="1.51"></path><path d="M-94,-82L-94,-24L-45,3Z" fill="#ffd971" stroke="#ffd971" stroke-width="1.51"></path><path d="M-94,-82L-45,3L-11,-116Z" fill="#ffdc74" stroke="#ffdc74" stroke-width="1.51"></path><path d="M-45,3L-123,65L2,117Z" fill="#ffc059" stroke="#ffc059" stroke-width="1.51"></path><path d="M-123,65L-47,155L2,117Z" fill="#ffba51" stroke="#ffba51" stroke-width="1.51"></path><path d="M-99,249L-56,263L-47,155Z" fill="#feb54e" stroke="#feb54e" stroke-width="1.51"></path><path d="M-148,179L-99,249L-47,155Z" fill="#ffbc55" stroke="#ffbc55" stroke-width="1.51"></path><path d="M-123,65L-148,179L-47,155Z" fill="#ffc058" stroke="#ffc058" stroke-width="1.51"></path><path d="M-94,-24L-123,65L-45,3Z" fill="#ffd068" stroke="#ffd068" stroke-width="1.51"></path><path d="M-94,-82L-123,65L-94,-24Z" fill="#ffd970" stroke="#ffd970" stroke-width="1.51"></path></svg>