<svg width="300" height="176" xmlns="http://www.w3.org/2000/svg"><path d="M131,118L45,151L119,183Z" fill="#fb993d" stroke="#fb993d" stroke-width="1.51"></path><path d="M131,118L61,61L45,151Z" fill="#fa9c44" stroke="#fa9c44" stroke-width="1.51"></path><path d="M45,151L57,268L119,183Z" fill="#f89840" stroke="#f89840" stroke-width="1.51"></path><path d="M57,268L141,272L119,183Z" fill="#f99336" stroke="#f99336" stroke-width="1.51"></path><path d="M242,198L218,91L131,118Z" fill="#fd942d" stroke="#fd942d" stroke-width="1.51"></path><path d="M123,-24L85,-23L61,61Z" fill="#f3a55e" stroke="#f3a55e" stroke-width="1.51"></path><path d="M242,198L131,118L119,183Z" fill="#fe942d" stroke="#fe942d" stroke-width="1.51"></path><path d="M45,151L-29,245L57,268Z" fill="#f49a4c" stroke="#f49a4c" stroke-width="1.51"></path><path d="M-47,115L-39,191L45,151Z" fill="#f3a058" stroke="#f3a058" stroke-width="1.51"></path><path d="M61,61L-47,115L45,151Z" fill="#f6a152" stroke="#f6a152" stroke-width="1.51"></path><path d="M-39,191L-29,245L45,151Z" fill="#f39d55" stroke="#f39d55" stroke-width="1.51"></path><path d="M217,258L242,198L119,183Z" fill="#fc9129" stroke="#fc9129" stroke-width="1.51"></path><path d="M61,61L-24,-8L-47,115Z" fill="#f2a663" stroke="#f2a663" stroke-width="1.51"></path><path d="M123,-24L61,61L131,118Z" fill="#f9a04b" stroke="#f9a04b" stroke-width="1.51"></path><path d="M141,272L217,258L119,183Z" fill="#fc9029" stroke="#fc9029" stroke-width="1.51"></path><path d="M218,91L123,-24L131,118Z" fill="#fd9b3b" stroke="#fd9b3b" stroke-width="1.51"></path><path d="M85,-23L-24,-8L61,61Z" fill="#f0a768" stroke="#f0a768" stroke-width="1.51"></path><path d="M-39,191L-96,211L-29,245Z" fill="#ef9f5e" stroke="#ef9f5e" stroke-width="1.51"></path><path d="M-47,115L-96,211L-39,191Z" fill="#efa262" stroke="#efa262" stroke-width="1.51"></path><path d="M-112,93L-96,211L-47,115Z" fill="#eea569" stroke="#eea569" stroke-width="1.51"></path><path d="M-24,-8L-112,93L-47,115Z" fill="#eea96d" stroke="#eea96d" stroke-width="1.51"></path><path d="M218,91L257,-24L123,-24Z" fill="#f89e4b" stroke="#f89e4b" stroke-width="1.51"></path><path d="M351,29L257,-24L218,91Z" fill="#f89942" stroke="#f89942" stroke-width="1.51"></path><path d="M85,-23L-6,-112L-24,-8Z" fill="#e7ae7e" stroke="#e7ae7e" stroke-width="1.51"></path><path d="M123,-24L44,-122L85,-23Z" fill="#ecab73" stroke="#ecab73" stroke-width="1.51"></path><path d="M257,-24L182,-90L123,-24Z" fill="#f2a45f" stroke="#f2a45f" stroke-width="1.51"></path><path d="M-24,-8L-131,20L-112,93Z" fill="#e8ae7c" stroke="#e8ae7c" stroke-width="1.51"></path><path d="M-112,93L-122,299L-96,211Z" fill="#eba46c" stroke="#eba46c" stroke-width="1.51"></path><path d="M-140,-80L-131,20L-24,-8Z" fill="#dfb390" stroke="#dfb390" stroke-width="1.51"></path><path d="M242,198L361,107L218,91Z" fill="#fc922a" stroke="#fc922a" stroke-width="1.51"></path><path d="M217,258L329,239L242,198Z" fill="#fb8c25" stroke="#fb8c25" stroke-width="1.51"></path><path d="M401,293L329,239L217,258Z" fill="#f98821" stroke="#f98821" stroke-width="1.51"></path><path d="M-96,211L-122,299L-29,245Z" fill="#ec9f63" stroke="#ec9f63" stroke-width="1.51"></path><path d="M-29,245L-122,299L57,268Z" fill="#f09b57" stroke="#f09b57" stroke-width="1.51"></path><path d="M57,268L-122,299L141,272Z" fill="#f49649" stroke="#f49649" stroke-width="1.51"></path><path d="M-131,20L-122,299L-112,93Z" fill="#eba871" stroke="#eba871" stroke-width="1.51"></path><path d="M257,-24L238,-82L182,-90Z" fill="#f0a464" stroke="#f0a464" stroke-width="1.51"></path><path d="M329,239L361,160L242,198Z" fill="#fa8c25" stroke="#fa8c25" stroke-width="1.51"></path><path d="M257,-24L353,-93L238,-82Z" fill="#efa263" stroke="#efa263" stroke-width="1.51"></path><path d="M182,-90L44,-122L123,-24Z" fill="#ecaa73" stroke="#ecaa73" stroke-width="1.51"></path><path d="M353,-93L44,-122L182,-90Z" fill="#eca871" stroke="#eca871" stroke-width="1.51"></path><path d="M361,160L361,107L242,198Z" fill="#fb8e27" stroke="#fb8e27" stroke-width="1.51"></path><path d="M44,-122L-6,-112L85,-23Z" fill="#e4b085" stroke="#e4b085" stroke-width="1.51"></path><path d="M361,107L351,29L218,91Z" fill="#fc9430" stroke="#fc9430" stroke-width="1.51"></path><path d="M361,107L398,101L351,29Z" fill="#fb912d" stroke="#fb912d" stroke-width="1.51"></path><path d="M361,160L398,101L361,107Z" fill="#fb8e26" stroke="#fb8e26" stroke-width="1.51"></path><path d="M447,177L398,101L361,160Z" fill="#fa8b24" stroke="#fa8b24" stroke-width="1.51"></path><path d="M-131,20L-140,-80L-122,299Z" fill="#eaac78" stroke="#eaac78" stroke-width="1.51"></path><path d="M-6,-112L-140,-80L-24,-8Z" fill="#ddb594" stroke="#ddb594" stroke-width="1.51"></path><path d="M329,239L447,177L361,160Z" fill="#f98a23" stroke="#f98a23" stroke-width="1.51"></path><path d="M141,272L401,293L217,258Z" fill="#fa8b23" stroke="#fa8b23" stroke-width="1.51"></path><path d="M-122,299L401,293L141,272Z" fill="#fa8e29" stroke="#fa8e29" stroke-width="1.51"></path><path d="M436,-32L353,-93L351,29Z" fill="#f19b54" stroke="#f19b54" stroke-width="1.51"></path><path d="M351,29L353,-93L257,-24Z" fill="#f29d56" stroke="#f29d56" stroke-width="1.51"></path><path d="M238,-82L353,-93L182,-90Z" fill="#eda56b" stroke="#eda56b" stroke-width="1.51"></path><path d="M401,293L447,177L329,239Z" fill="#f88720" stroke="#f88720" stroke-width="1.51"></path><path d="M398,101L436,-32L351,29Z" fill="#f7943e" stroke="#f7943e" stroke-width="1.51"></path><path d="M447,177L436,-32L398,101Z" fill="#fa8e29" stroke="#fa8e29" stroke-width="1.51"></path><path d="M436,-32L447,-101L353,-93Z" fill="#ec9d61" stroke="#ec9d61" stroke-width="1.51"></path><path d="M353,-93L447,-101L44,-122Z" fill="#eaa66f" stroke="#eaa66f" stroke-width="1.51"></path><path d="M447,177L447,-101L436,-32Z" fill="#f59443" stroke="#f59443" stroke-width="1.51"></path></svg>