<svg width="300" height="176" xmlns="http://www.w3.org/2000/svg"><path d="M122,93L83,115L146,151Z" fill="#f99940" stroke="#f99940" stroke-width="1.51"></path><path d="M83,115L39,172L146,151Z" fill="#f4994c" stroke="#f4994c" stroke-width="1.51"></path><path d="M258,59L177,3L122,93Z" fill="#f69f51" stroke="#f69f51" stroke-width="1.51"></path><path d="M161,293L218,205L146,151Z" fill="#f98a23" stroke="#f98a23" stroke-width="1.51"></path><path d="M122,93L81,-8L83,115Z" fill="#f2a661" stroke="#f2a661" stroke-width="1.51"></path><path d="M258,59L122,93L146,151Z" fill="#fd952d" stroke="#fd952d" stroke-width="1.51"></path><path d="M177,3L81,-8L122,93Z" fill="#edaa71" stroke="#edaa71" stroke-width="1.51"></path><path d="M83,115L-25,116L39,172Z" fill="#eca369" stroke="#eca369" stroke-width="1.51"></path><path d="M81,-8L-25,116L83,115Z" fill="#ecaa72" stroke="#ecaa72" stroke-width="1.51"></path><path d="M39,172L161,293L146,151Z" fill="#f6913a" stroke="#f6913a" stroke-width="1.51"></path><path d="M-25,116L-27,172L39,172Z" fill="#e6a475" stroke="#e6a475" stroke-width="1.51"></path><path d="M218,205L258,59L146,151Z" fill="#fa8d26" stroke="#fa8d26" stroke-width="1.51"></path><path d="M30,299L161,293L39,172Z" fill="#f1974e" stroke="#f1974e" stroke-width="1.51"></path><path d="M-27,172L-24,248L39,172Z" fill="#e5a172" stroke="#e5a172" stroke-width="1.51"></path><path d="M258,59L229,-20L177,3Z" fill="#eaa56d" stroke="#eaa56d" stroke-width="1.51"></path><path d="M171,-98L67,-64L81,-8Z" fill="#dfb391" stroke="#dfb391" stroke-width="1.51"></path><path d="M-24,248L30,299L39,172Z" fill="#e79f6b" stroke="#e79f6b" stroke-width="1.51"></path><path d="M81,-8L-48,-2L-25,116Z" fill="#d4b9a4" stroke="#d4b9a4" stroke-width="1.51"></path><path d="M171,-98L81,-8L177,3Z" fill="#e6ae80" stroke="#e6ae80" stroke-width="1.51"></path><path d="M218,205L308,66L258,59Z" fill="#fb8d25" stroke="#fb8d25" stroke-width="1.51"></path><path d="M258,59L272,-60L229,-20Z" fill="#e5a576" stroke="#e5a576" stroke-width="1.51"></path><path d="M-25,116L-100,71L-27,172Z" fill="#e7a979" stroke="#e7a979" stroke-width="1.51"></path><path d="M-27,172L-133,211L-24,248Z" fill="#e5a172" stroke="#e5a172" stroke-width="1.51"></path><path d="M67,-64L-48,-2L81,-8Z" fill="#ccbdb2" stroke="#ccbdb2" stroke-width="1.51"></path><path d="M218,205L358,197L308,66Z" fill="#f6831b" stroke="#f6831b" stroke-width="1.51"></path><path d="M273,290L300,245L218,205Z" fill="#f7821b" stroke="#f7821b" stroke-width="1.51"></path><path d="M30,299L273,290L161,293Z" fill="#fa8c24" stroke="#fa8c24" stroke-width="1.51"></path><path d="M161,293L273,290L218,205Z" fill="#f8861f" stroke="#f8861f" stroke-width="1.51"></path><path d="M-48,-2L-100,71L-25,116Z" fill="#deb391" stroke="#deb391" stroke-width="1.51"></path><path d="M272,-60L171,-98L229,-20Z" fill="#e6a778" stroke="#e6a778" stroke-width="1.51"></path><path d="M229,-20L171,-98L177,3Z" fill="#e7aa7a" stroke="#e7aa7a" stroke-width="1.51"></path><path d="M308,66L272,-60L258,59Z" fill="#eb9e63" stroke="#eb9e63" stroke-width="1.51"></path><path d="M442,204L358,197L443,239Z" fill="#f57f17" stroke="#f57f17" stroke-width="1.51"></path><path d="M300,245L358,197L218,205Z" fill="#f67f18" stroke="#f67f18" stroke-width="1.51"></path><path d="M308,66L351,-27L272,-60Z" fill="#e5a172" stroke="#e5a172" stroke-width="1.51"></path><path d="M-48,-2L-114,8L-100,71Z" fill="#cfbcad" stroke="#cfbcad" stroke-width="1.51"></path><path d="M-128,-94L-114,8L-48,-2Z" fill="#c1c1c1" stroke="#c1c1c1" stroke-width="1.51"></path><path d="M-114,8L-133,211L-100,71Z" fill="#e7ac7c" stroke="#e7ac7c" stroke-width="1.51"></path><path d="M-100,71L-133,211L-27,172Z" fill="#e6a475" stroke="#e6a475" stroke-width="1.51"></path><path d="M-24,248L-143,295L30,299Z" fill="#e5a172" stroke="#e5a172" stroke-width="1.51"></path><path d="M171,-98L-21,-97L67,-64Z" fill="#d7b8a0" stroke="#d7b8a0" stroke-width="1.51"></path><path d="M67,-64L-21,-97L-48,-2Z" fill="#c1c1c1" stroke="#c1c1c1" stroke-width="1.51"></path><path d="M430,71L351,-27L308,66Z" fill="#ef9955" stroke="#ef9955" stroke-width="1.51"></path><path d="M351,-27L301,-99L272,-60Z" fill="#e5a172" stroke="#e5a172" stroke-width="1.51"></path><path d="M272,-60L301,-99L171,-98Z" fill="#e6a576" stroke="#e6a576" stroke-width="1.51"></path><path d="M171,-98L301,-99L-21,-97Z" fill="#e8ad7d" stroke="#e8ad7d" stroke-width="1.51"></path><path d="M-133,211L-143,295L-24,248Z" fill="#e5a172" stroke="#e5a172" stroke-width="1.51"></path><path d="M-128,-94L-143,295L-133,211Z" fill="#e6a777" stroke="#e6a777" stroke-width="1.51"></path><path d="M351,-27L408,-100L301,-99Z" fill="#e5a172" stroke="#e5a172" stroke-width="1.51"></path><path d="M358,197L430,71L308,66Z" fill="#f98922" stroke="#f98922" stroke-width="1.51"></path><path d="M-114,8L-128,-94L-133,211Z" fill="#d6b8a1" stroke="#d6b8a1" stroke-width="1.51"></path><path d="M-21,-97L-128,-94L-48,-2Z" fill="#c1c1c1" stroke="#c1c1c1" stroke-width="1.51"></path><path d="M358,197L442,204L430,71Z" fill="#f6821a" stroke="#f6821a" stroke-width="1.51"></path><path d="M443,239L358,197L300,245Z" fill="#f57f17" stroke="#f57f17" stroke-width="1.51"></path><path d="M273,290L443,239L300,245Z" fill="#f57f17" stroke="#f57f17" stroke-width="1.51"></path><path d="M430,71L446,-7L351,-27Z" fill="#e89e69" stroke="#e89e69" stroke-width="1.51"></path><path d="M442,204L446,-7L430,71Z" fill="#fa8c25" stroke="#fa8c25" stroke-width="1.51"></path><path d="M443,239L446,-7L442,204Z" fill="#f7841c" stroke="#f7841c" stroke-width="1.51"></path><path d="M446,-7L408,-100L351,-27Z" fill="#e5a172" stroke="#e5a172" stroke-width="1.51"></path><path d="M301,-99L408,-100L-21,-97Z" fill="#e6a777" stroke="#e6a777" stroke-width="1.51"></path></svg>