<svg width="300" height="176" xmlns="http://www.w3.org/2000/svg"><path d="M-106,-109L148,-93L249,-109Z" fill="#e7ae7e" stroke="#e7ae7e" stroke-width="1.51"></path><path d="M390,202L410,252L422,82Z" fill="#f98a22" stroke="#f98a22" stroke-width="1.51"></path><path d="M312,5L422,82L451,-14Z" fill="#f69541" stroke="#f69541" stroke-width="1.51"></path><path d="M422,82L410,252L451,-14Z" fill="#fa8d25" stroke="#fa8d25" stroke-width="1.51"></path><path d="M329,-63L451,-14L452,-66Z" fill="#ef9c59" stroke="#ef9c59" stroke-width="1.51"></path><path d="M249,-109L329,-63L452,-66Z" fill="#eda165" stroke="#eda165" stroke-width="1.51"></path><path d="M329,-63L312,5L451,-14Z" fill="#f29a53" stroke="#f29a53" stroke-width="1.51"></path><path d="M-106,-109L33,-79L148,-93Z" fill="#e1b28b" stroke="#e1b28b" stroke-width="1.51"></path><path d="M312,5L322,83L422,82Z" fill="#fa9436" stroke="#fa9436" stroke-width="1.51"></path><path d="M350,193L390,202L422,82Z" fill="#fa8b24" stroke="#fa8b24" stroke-width="1.51"></path><path d="M322,83L350,193L422,82Z" fill="#fb8e27" stroke="#fb8e27" stroke-width="1.51"></path><path d="M390,202L330,268L410,252Z" fill="#f88720" stroke="#f88720" stroke-width="1.51"></path><path d="M350,193L330,268L390,202Z" fill="#f98922" stroke="#f98922" stroke-width="1.51"></path><path d="M322,83L246,152L350,193Z" fill="#fc9028" stroke="#fc9028" stroke-width="1.51"></path><path d="M272,277L330,268L350,193Z" fill="#f98922" stroke="#f98922" stroke-width="1.51"></path><path d="M246,152L272,277L350,193Z" fill="#fb8d25" stroke="#fb8d25" stroke-width="1.51"></path><path d="M312,5L272,5L322,83Z" fill="#f89942" stroke="#f89942" stroke-width="1.51"></path><path d="M238,96L246,152L322,83Z" fill="#fd932c" stroke="#fd932c" stroke-width="1.51"></path><path d="M272,5L312,5L329,-63Z" fill="#f49c52" stroke="#f49c52" stroke-width="1.51"></path><path d="M249,-109L272,5L329,-63Z" fill="#f0a15f" stroke="#f0a15f" stroke-width="1.51"></path><path d="M272,5L238,96L322,83Z" fill="#fb9737" stroke="#fb9737" stroke-width="1.51"></path><path d="M174,-24L182,96L238,96Z" fill="#fc9a3c" stroke="#fc9a3c" stroke-width="1.51"></path><path d="M249,-109L174,-24L272,5Z" fill="#f2a25d" stroke="#f2a25d" stroke-width="1.51"></path><path d="M174,-24L238,96L272,5Z" fill="#f89c46" stroke="#f89c46" stroke-width="1.51"></path><path d="M126,255L92,280L272,277Z" fill="#fb8e27" stroke="#fb8e27" stroke-width="1.51"></path><path d="M246,152L127,196L272,277Z" fill="#fc9028" stroke="#fc9028" stroke-width="1.51"></path><path d="M127,196L126,255L272,277Z" fill="#fb8f28" stroke="#fb8f28" stroke-width="1.51"></path><path d="M238,96L182,96L246,152Z" fill="#fe952d" stroke="#fe952d" stroke-width="1.51"></path><path d="M148,-93L174,-24L249,-109Z" fill="#efa669" stroke="#efa669" stroke-width="1.51"></path><path d="M182,96L127,196L246,152Z" fill="#fd942d" stroke="#fd942d" stroke-width="1.51"></path><path d="M174,-24L88,-30L182,96Z" fill="#f9a04d" stroke="#f9a04d" stroke-width="1.51"></path><path d="M88,-30L26,109L182,96Z" fill="#faa04b" stroke="#faa04b" stroke-width="1.51"></path><path d="M26,109L70,170L182,96Z" fill="#fb9b3f" stroke="#fb9b3f" stroke-width="1.51"></path><path d="M70,170L127,196L182,96Z" fill="#fc9734" stroke="#fc9734" stroke-width="1.51"></path><path d="M148,-93L88,-30L174,-24Z" fill="#f1a765" stroke="#f1a765" stroke-width="1.51"></path><path d="M33,-79L88,-30L148,-93Z" fill="#ebab75" stroke="#ebab75" stroke-width="1.51"></path><path d="M70,170L92,280L126,255Z" fill="#f99439" stroke="#f99439" stroke-width="1.51"></path><path d="M70,170L126,255L127,196Z" fill="#fa9537" stroke="#fa9537" stroke-width="1.51"></path><path d="M-106,-109L-8,-67L33,-79Z" fill="#ddb494" stroke="#ddb494" stroke-width="1.51"></path><path d="M-54,30L26,109L88,-30Z" fill="#f2a764" stroke="#f2a764" stroke-width="1.51"></path><path d="M-8,-67L-54,30L88,-30Z" fill="#eaac79" stroke="#eaac79" stroke-width="1.51"></path><path d="M70,170L-28,268L92,280Z" fill="#f59846" stroke="#f59846" stroke-width="1.51"></path><path d="M-11,159L-28,268L70,170Z" fill="#f49c50" stroke="#f49c50" stroke-width="1.51"></path><path d="M33,-79L-8,-67L88,-30Z" fill="#e8ae7e" stroke="#e8ae7e" stroke-width="1.51"></path><path d="M26,109L-11,159L70,170Z" fill="#f69e4e" stroke="#f69e4e" stroke-width="1.51"></path><path d="M-54,30L-48,108L26,109Z" fill="#f3a560" stroke="#f3a560" stroke-width="1.51"></path><path d="M-48,108L-11,159L26,109Z" fill="#f4a258" stroke="#f4a258" stroke-width="1.51"></path><path d="M-90,171L-28,268L-11,159Z" fill="#f09f5c" stroke="#f09f5c" stroke-width="1.51"></path><path d="M-102,-15L-54,30L-8,-67Z" fill="#e4b085" stroke="#e4b085" stroke-width="1.51"></path><path d="M-106,-109L-102,-15L-8,-67Z" fill="#dcb597" stroke="#dcb597" stroke-width="1.51"></path><path d="M-48,108L-90,171L-11,159Z" fill="#f1a361" stroke="#f1a361" stroke-width="1.51"></path><path d="M-54,30L-97,104L-48,108Z" fill="#f0a869" stroke="#f0a869" stroke-width="1.51"></path><path d="M-90,171L-137,259L-28,268Z" fill="#eca064" stroke="#eca064" stroke-width="1.51"></path><path d="M-97,104L-90,171L-48,108Z" fill="#efa568" stroke="#efa568" stroke-width="1.51"></path><path d="M-102,-15L-97,104L-54,30Z" fill="#e9ad7a" stroke="#e9ad7a" stroke-width="1.51"></path><path d="M-97,104L-137,259L-90,171Z" fill="#eca56c" stroke="#eca56c" stroke-width="1.51"></path><path d="M-102,-15L-137,259L-97,104Z" fill="#eca870" stroke="#eca870" stroke-width="1.51"></path><path d="M-106,-109L-137,259L-102,-15Z" fill="#e7ae7f" stroke="#e7ae7f" stroke-width="1.51"></path></svg>