<svg width="300" height="176" xmlns="http://www.w3.org/2000/svg"><path d="M-92,-116L36,-99L251,-95Z" fill="#ffd26a" stroke="#ffd26a" stroke-width="1.51"></path><path d="M313,-5L332,85L429,-35Z" fill="#fda13b" stroke="#fda13b" stroke-width="1.51"></path><path d="M-92,-116L251,-95L442,-103Z" fill="#ffc35b" stroke="#ffc35b" stroke-width="1.51"></path><path d="M251,-95L306,-89L442,-103Z" fill="#ffbc55" stroke="#ffbc55" stroke-width="1.51"></path><path d="M306,-89L429,-35L442,-103Z" fill="#feb54e" stroke="#feb54e" stroke-width="1.51"></path><path d="M322,175L431,209L443,92Z" fill="#fa8b23" stroke="#fa8b23" stroke-width="1.51"></path><path d="M332,85L322,175L443,92Z" fill="#fb8f27" stroke="#fb8f27" stroke-width="1.51"></path><path d="M429,-35L332,85L443,92Z" fill="#fb9832" stroke="#fb9832" stroke-width="1.51"></path><path d="M442,-103L429,-35L443,92Z" fill="#fca53f" stroke="#fca53f" stroke-width="1.51"></path><path d="M306,-89L313,-5L429,-35Z" fill="#feaf48" stroke="#feaf48" stroke-width="1.51"></path><path d="M355,266L423,249L431,209Z" fill="#f8861f" stroke="#f8861f" stroke-width="1.51"></path><path d="M322,175L355,266L431,209Z" fill="#f98922" stroke="#f98922" stroke-width="1.51"></path><path d="M322,175L230,192L355,266Z" fill="#fa8c25" stroke="#fa8c25" stroke-width="1.51"></path><path d="M230,192L212,271L355,266Z" fill="#fa8c24" stroke="#fa8c24" stroke-width="1.51"></path><path d="M229,65L230,192L322,175Z" fill="#fd922a" stroke="#fd922a" stroke-width="1.51"></path><path d="M229,65L322,175L332,85Z" fill="#fd922b" stroke="#fd922b" stroke-width="1.51"></path><path d="M313,-5L229,65L332,85Z" fill="#fd9c36" stroke="#fd9c36" stroke-width="1.51"></path><path d="M306,-89L251,-95L313,-5Z" fill="#ffb64f" stroke="#ffb64f" stroke-width="1.51"></path><path d="M251,-95L218,-14L313,-5Z" fill="#ffb24a" stroke="#ffb24a" stroke-width="1.51"></path><path d="M36,-99L164,-60L251,-95Z" fill="#ffc159" stroke="#ffc159" stroke-width="1.51"></path><path d="M218,-14L229,65L313,-5Z" fill="#fea63e" stroke="#fea63e" stroke-width="1.51"></path><path d="M89,239L-16,281L212,271Z" fill="#fb9831" stroke="#fb9831" stroke-width="1.51"></path><path d="M169,237L212,271L230,192Z" fill="#fb8f27" stroke="#fb8f27" stroke-width="1.51"></path><path d="M229,65L159,182L230,192Z" fill="#fd932c" stroke="#fd932c" stroke-width="1.51"></path><path d="M164,-60L218,-14L251,-95Z" fill="#ffb850" stroke="#ffb850" stroke-width="1.51"></path><path d="M169,237L89,239L212,271Z" fill="#fc8f28" stroke="#fc8f28" stroke-width="1.51"></path><path d="M118,81L159,182L229,65Z" fill="#fe9730" stroke="#fe9730" stroke-width="1.51"></path><path d="M218,-14L145,1L229,65Z" fill="#ffa740" stroke="#ffa740" stroke-width="1.51"></path><path d="M159,182L169,237L230,192Z" fill="#fc9129" stroke="#fc9129" stroke-width="1.51"></path><path d="M145,1L118,81L229,65Z" fill="#ffa23a" stroke="#ffa23a" stroke-width="1.51"></path><path d="M164,-60L145,1L218,-14Z" fill="#ffb24a" stroke="#ffb24a" stroke-width="1.51"></path><path d="M118,81L82,149L159,182Z" fill="#fe9b34" stroke="#fe9b34" stroke-width="1.51"></path><path d="M159,182L89,239L169,237Z" fill="#fc942c" stroke="#fc942c" stroke-width="1.51"></path><path d="M31,-33L145,1L164,-60Z" fill="#ffba52" stroke="#ffba52" stroke-width="1.51"></path><path d="M36,-99L31,-33L164,-60Z" fill="#ffc860" stroke="#ffc860" stroke-width="1.51"></path><path d="M82,149L89,239L159,182Z" fill="#fd9a33" stroke="#fd9a33" stroke-width="1.51"></path><path d="M31,-33L62,95L118,81Z" fill="#ffb048" stroke="#ffb048" stroke-width="1.51"></path><path d="M31,-33L118,81L145,1Z" fill="#ffb24a" stroke="#ffb24a" stroke-width="1.51"></path><path d="M-92,-116L-26,-92L36,-99Z" fill="#ffe178" stroke="#ffe178" stroke-width="1.51"></path><path d="M62,95L82,149L118,81Z" fill="#ffa33b" stroke="#ffa33b" stroke-width="1.51"></path><path d="M31,-33L-13,75L62,95Z" fill="#ffb74f" stroke="#ffb74f" stroke-width="1.51"></path><path d="M82,149L-34,172L89,239Z" fill="#fea53d" stroke="#fea53d" stroke-width="1.51"></path><path d="M-34,172L-16,281L89,239Z" fill="#fda841" stroke="#fda841" stroke-width="1.51"></path><path d="M62,95L-34,172L82,149Z" fill="#ffa942" stroke="#ffa942" stroke-width="1.51"></path><path d="M-50,19L-13,75L31,-33Z" fill="#ffc35b" stroke="#ffc35b" stroke-width="1.51"></path><path d="M-13,75L-34,172L62,95Z" fill="#ffaf48" stroke="#ffaf48" stroke-width="1.51"></path><path d="M-26,-92L31,-33L36,-99Z" fill="#ffd46b" stroke="#ffd46b" stroke-width="1.51"></path><path d="M-26,-92L-50,19L31,-33Z" fill="#ffd068" stroke="#ffd068" stroke-width="1.51"></path><path d="M-131,-34L-50,19L-26,-92Z" fill="#ffd970" stroke="#ffd970" stroke-width="1.51"></path><path d="M-34,172L-115,248L-16,281Z" fill="#feb24c" stroke="#feb24c" stroke-width="1.51"></path><path d="M-149,119L-34,172L-13,75Z" fill="#ffba52" stroke="#ffba52" stroke-width="1.51"></path><path d="M-50,19L-149,119L-13,75Z" fill="#ffc159" stroke="#ffc159" stroke-width="1.51"></path><path d="M-92,-116L-131,-34L-26,-92Z" fill="#ffe57c" stroke="#ffe57c" stroke-width="1.51"></path><path d="M-152,156L-115,248L-34,172Z" fill="#ffbc55" stroke="#ffbc55" stroke-width="1.51"></path><path d="M-149,119L-152,156L-34,172Z" fill="#ffc059" stroke="#ffc059" stroke-width="1.51"></path><path d="M-131,-34L-149,119L-50,19Z" fill="#ffd067" stroke="#ffd067" stroke-width="1.51"></path></svg>