<svg width="300" height="176" xmlns="http://www.w3.org/2000/svg"><path d="M153,73L208,83L159,10Z" fill="#fc9b3d" stroke="#fc9b3d" stroke-width="1.51"></path><path d="M208,83L223,-10L159,10Z" fill="#f99d46" stroke="#f99d46" stroke-width="1.51"></path><path d="M171,194L243,156L208,83Z" fill="#fd942c" stroke="#fd942c" stroke-width="1.51"></path><path d="M57,-4L81,108L153,73Z" fill="#f99f4a" stroke="#f99f4a" stroke-width="1.51"></path><path d="M208,83L307,-12L223,-10Z" fill="#f89b48" stroke="#f89b48" stroke-width="1.51"></path><path d="M171,194L208,83L153,73Z" fill="#fe972f" stroke="#fe972f" stroke-width="1.51"></path><path d="M330,115L307,-12L208,83Z" fill="#fb9637" stroke="#fb9637" stroke-width="1.51"></path><path d="M159,10L57,-4L153,73Z" fill="#f8a14f" stroke="#f8a14f" stroke-width="1.51"></path><path d="M120,-98L57,-4L159,10Z" fill="#f1a764" stroke="#f1a764" stroke-width="1.51"></path><path d="M81,108L171,194L153,73Z" fill="#fd9834" stroke="#fd9834" stroke-width="1.51"></path><path d="M223,-10L120,-98L159,10Z" fill="#f4a45c" stroke="#f4a45c" stroke-width="1.51"></path><path d="M258,-106L120,-98L223,-10Z" fill="#efa667" stroke="#efa667" stroke-width="1.51"></path><path d="M243,156L330,115L208,83Z" fill="#fd932c" stroke="#fd932c" stroke-width="1.51"></path><path d="M336,144L330,115L243,156Z" fill="#fc9029" stroke="#fc9029" stroke-width="1.51"></path><path d="M307,-12L258,-106L223,-10Z" fill="#f2a15c" stroke="#f2a15c" stroke-width="1.51"></path><path d="M81,108L53,154L171,194Z" fill="#fb993c" stroke="#fb993c" stroke-width="1.51"></path><path d="M-13,111L53,154L81,108Z" fill="#f79e4d" stroke="#f79e4d" stroke-width="1.51"></path><path d="M399,-87L342,-102L307,-12Z" fill="#eea061" stroke="#eea061" stroke-width="1.51"></path><path d="M314,256L336,144L243,156Z" fill="#fa8d27" stroke="#fa8d27" stroke-width="1.51"></path><path d="M258,-106L93,-124L120,-98Z" fill="#ebaa74" stroke="#ebaa74" stroke-width="1.51"></path><path d="M120,-98L93,-124L57,-4Z" fill="#eaac77" stroke="#eaac77" stroke-width="1.51"></path><path d="M-50,30L-13,111L57,-4Z" fill="#f1a765" stroke="#f1a765" stroke-width="1.51"></path><path d="M57,-4L-13,111L81,108Z" fill="#f6a253" stroke="#f6a253" stroke-width="1.51"></path><path d="M171,194L243,267L243,156Z" fill="#fc9028" stroke="#fc9028" stroke-width="1.51"></path><path d="M53,154L152,253L171,194Z" fill="#fb9433" stroke="#fb9433" stroke-width="1.51"></path><path d="M35,235L152,253L53,154Z" fill="#f8973e" stroke="#f8973e" stroke-width="1.51"></path><path d="M307,-12L342,-102L258,-106Z" fill="#eea264" stroke="#eea264" stroke-width="1.51"></path><path d="M258,-106L342,-102L93,-124Z" fill="#eaa872" stroke="#eaa872" stroke-width="1.51"></path><path d="M421,6L307,-12L330,115Z" fill="#f8963e" stroke="#f8963e" stroke-width="1.51"></path><path d="M336,144L395,114L330,115Z" fill="#fb8f27" stroke="#fb8f27" stroke-width="1.51"></path><path d="M420,148L395,114L336,144Z" fill="#fb8d25" stroke="#fb8d25" stroke-width="1.51"></path><path d="M152,253L243,267L171,194Z" fill="#fb8f27" stroke="#fb8f27" stroke-width="1.51"></path><path d="M-13,-107L-50,30L57,-4Z" fill="#e8ae7c" stroke="#e8ae7c" stroke-width="1.51"></path><path d="M395,114L421,6L330,115Z" fill="#fb912d" stroke="#fb912d" stroke-width="1.51"></path><path d="M-40,198L35,235L53,154Z" fill="#f49c4f" stroke="#f49c4f" stroke-width="1.51"></path><path d="M-40,198L53,154L-13,111Z" fill="#f49f55" stroke="#f49f55" stroke-width="1.51"></path><path d="M243,267L314,256L243,156Z" fill="#fa8c25" stroke="#fa8c25" stroke-width="1.51"></path><path d="M421,6L399,-87L307,-12Z" fill="#f19b54" stroke="#f19b54" stroke-width="1.51"></path><path d="M93,-124L-13,-107L57,-4Z" fill="#e6af82" stroke="#e6af82" stroke-width="1.51"></path><path d="M413,235L420,148L336,144Z" fill="#f98a23" stroke="#f98a23" stroke-width="1.51"></path><path d="M395,114L420,148L421,6Z" fill="#fb8e27" stroke="#fb8e27" stroke-width="1.51"></path><path d="M-147,117L-40,198L-13,111Z" fill="#f0a465" stroke="#f0a465" stroke-width="1.51"></path><path d="M-50,30L-91,26L-13,111Z" fill="#eea96e" stroke="#eea96e" stroke-width="1.51"></path><path d="M-13,-107L-91,26L-50,30Z" fill="#e5b084" stroke="#e5b084" stroke-width="1.51"></path><path d="M-40,198L-19,238L35,235Z" fill="#f29c53" stroke="#f29c53" stroke-width="1.51"></path><path d="M35,235L-19,238L152,253Z" fill="#f69643" stroke="#f69643" stroke-width="1.51"></path><path d="M152,253L-97,252L243,267Z" fill="#f99337" stroke="#f99337" stroke-width="1.51"></path><path d="M314,256L413,235L336,144Z" fill="#fa8a23" stroke="#fa8a23" stroke-width="1.51"></path><path d="M-40,198L-97,252L-19,238Z" fill="#ef9e5d" stroke="#ef9e5d" stroke-width="1.51"></path><path d="M-91,26L-147,117L-13,111Z" fill="#eea96c" stroke="#eea96c" stroke-width="1.51"></path><path d="M-148,-89L-147,117L-91,26Z" fill="#e2b28a" stroke="#e2b28a" stroke-width="1.51"></path><path d="M-149,183L-97,252L-40,198Z" fill="#eca268" stroke="#eca268" stroke-width="1.51"></path><path d="M-19,238L-97,252L152,253Z" fill="#f3994d" stroke="#f3994d" stroke-width="1.51"></path><path d="M-13,-107L-148,-89L-91,26Z" fill="#dcb597" stroke="#dcb597" stroke-width="1.51"></path><path d="M93,-124L-148,-89L-13,-107Z" fill="#dbb699" stroke="#dbb699" stroke-width="1.51"></path><path d="M-147,117L-149,183L-40,198Z" fill="#eca56e" stroke="#eca56e" stroke-width="1.51"></path><path d="M-148,-89L-149,183L-147,117Z" fill="#e7ae7f" stroke="#e7ae7f" stroke-width="1.51"></path></svg>