<svg width="300" height="176" xmlns="http://www.w3.org/2000/svg"><path d="M-139,-126L-20,-116L231,-121Z" fill="#ddb493" stroke="#ddb493" stroke-width="1.51"></path><path d="M133,242L48,255L254,262Z" fill="#fb902a" stroke="#fb902a" stroke-width="1.51"></path><path d="M48,255L-105,253L341,300Z" fill="#f89238" stroke="#f89238" stroke-width="1.51"></path><path d="M254,262L48,255L341,300Z" fill="#fa8c24" stroke="#fa8c24" stroke-width="1.51"></path><path d="M231,-121L314,-88L386,-98Z" fill="#eaa46d" stroke="#eaa46d" stroke-width="1.51"></path><path d="M317,-11L410,90L449,1Z" fill="#f69540" stroke="#f69540" stroke-width="1.51"></path><path d="M386,-98L317,-11L449,1Z" fill="#f19b56" stroke="#f19b56" stroke-width="1.51"></path><path d="M410,90L414,158L449,1Z" fill="#fa8e29" stroke="#fa8e29" stroke-width="1.51"></path><path d="M414,158L341,300L452,260Z" fill="#f8861f" stroke="#f8861f" stroke-width="1.51"></path><path d="M449,1L414,158L452,260Z" fill="#fa8a23" stroke="#fa8a23" stroke-width="1.51"></path><path d="M317,166L341,300L414,158Z" fill="#fa8a23" stroke="#fa8a23" stroke-width="1.51"></path><path d="M317,-11L350,120L410,90Z" fill="#fa9333" stroke="#fa9333" stroke-width="1.51"></path><path d="M350,120L317,166L414,158Z" fill="#fa8d26" stroke="#fa8d26" stroke-width="1.51"></path><path d="M410,90L350,120L414,158Z" fill="#fb8d26" stroke="#fb8d26" stroke-width="1.51"></path><path d="M314,-88L317,-11L386,-98Z" fill="#eea061" stroke="#eea061" stroke-width="1.51"></path><path d="M317,166L254,262L341,300Z" fill="#f98a23" stroke="#f98a23" stroke-width="1.51"></path><path d="M317,-11L270,25L350,120Z" fill="#f9973c" stroke="#f9973c" stroke-width="1.51"></path><path d="M-20,-116L150,-92L231,-121Z" fill="#e8ad7b" stroke="#e8ad7b" stroke-width="1.51"></path><path d="M254,60L317,166L350,120Z" fill="#fc912a" stroke="#fc912a" stroke-width="1.51"></path><path d="M270,25L254,60L350,120Z" fill="#fc9534" stroke="#fc9534" stroke-width="1.51"></path><path d="M231,-121L270,25L314,-88Z" fill="#efa261" stroke="#efa261" stroke-width="1.51"></path><path d="M314,-88L270,25L317,-11Z" fill="#f39d55" stroke="#f39d55" stroke-width="1.51"></path><path d="M217,169L254,262L317,166Z" fill="#fb8e27" stroke="#fb8e27" stroke-width="1.51"></path><path d="M254,60L217,169L317,166Z" fill="#fd922a" stroke="#fd922a" stroke-width="1.51"></path><path d="M-20,-116L52,-88L150,-92Z" fill="#e4b085" stroke="#e4b085" stroke-width="1.51"></path><path d="M150,-92L164,28L231,-121Z" fill="#f0a564" stroke="#f0a564" stroke-width="1.51"></path><path d="M169,57L217,169L254,60Z" fill="#fe962e" stroke="#fe962e" stroke-width="1.51"></path><path d="M164,28L254,60L270,25Z" fill="#fa9b42" stroke="#fa9b42" stroke-width="1.51"></path><path d="M231,-121L164,28L270,25Z" fill="#f4a057" stroke="#f4a057" stroke-width="1.51"></path><path d="M164,28L169,57L254,60Z" fill="#fb9b3f" stroke="#fb9b3f" stroke-width="1.51"></path><path d="M217,169L168,189L254,262Z" fill="#fc9028" stroke="#fc9028" stroke-width="1.51"></path><path d="M168,189L133,242L254,262Z" fill="#fc9028" stroke="#fc9028" stroke-width="1.51"></path><path d="M169,57L168,189L217,169Z" fill="#fe952d" stroke="#fe952d" stroke-width="1.51"></path><path d="M52,-88L87,27L150,-92Z" fill="#eda96e" stroke="#eda96e" stroke-width="1.51"></path><path d="M150,-92L87,27L164,28Z" fill="#f5a359" stroke="#f5a359" stroke-width="1.51"></path><path d="M164,28L89,69L169,57Z" fill="#fc9d42" stroke="#fc9d42" stroke-width="1.51"></path><path d="M87,166L168,189L169,57Z" fill="#fe9731" stroke="#fe9731" stroke-width="1.51"></path><path d="M89,69L87,166L169,57Z" fill="#fd9b3a" stroke="#fd9b3a" stroke-width="1.51"></path><path d="M87,27L89,69L164,28Z" fill="#f9a04c" stroke="#f9a04c" stroke-width="1.51"></path><path d="M87,166L133,242L168,189Z" fill="#fc9432" stroke="#fc9432" stroke-width="1.51"></path><path d="M-20,238L-105,253L48,255Z" fill="#f09c57" stroke="#f09c57" stroke-width="1.51"></path><path d="M87,166L48,255L133,242Z" fill="#f8963b" stroke="#f8963b" stroke-width="1.51"></path><path d="M-20,238L48,255L87,166Z" fill="#f59949" stroke="#f59949" stroke-width="1.51"></path><path d="M-64,74L-50,196L87,166Z" fill="#f4a057" stroke="#f4a057" stroke-width="1.51"></path><path d="M52,-88L-61,-31L87,27Z" fill="#eaac78" stroke="#eaac78" stroke-width="1.51"></path><path d="M87,27L-64,74L89,69Z" fill="#f5a459" stroke="#f5a459" stroke-width="1.51"></path><path d="M-64,74L87,166L89,69Z" fill="#f8a04e" stroke="#f8a04e" stroke-width="1.51"></path><path d="M-50,196L-20,238L87,166Z" fill="#f39c51" stroke="#f39c51" stroke-width="1.51"></path><path d="M-61,-31L-64,74L87,27Z" fill="#edaa6f" stroke="#edaa6f" stroke-width="1.51"></path><path d="M-20,-116L-61,-31L52,-88Z" fill="#e0b38e" stroke="#e0b38e" stroke-width="1.51"></path><path d="M-98,68L-64,74L-61,-31Z" fill="#eaac79" stroke="#eaac79" stroke-width="1.51"></path><path d="M-64,74L-91,169L-50,196Z" fill="#efa465" stroke="#efa465" stroke-width="1.51"></path><path d="M-139,-126L-61,-31L-20,-116Z" fill="#d7b89f" stroke="#d7b89f" stroke-width="1.51"></path><path d="M-50,196L-105,253L-20,238Z" fill="#ef9f5f" stroke="#ef9f5f" stroke-width="1.51"></path><path d="M-98,68L-91,169L-64,74Z" fill="#efa76a" stroke="#efa76a" stroke-width="1.51"></path><path d="M-133,16L-98,68L-61,-31Z" fill="#e5b084" stroke="#e5b084" stroke-width="1.51"></path><path d="M-91,169L-105,253L-50,196Z" fill="#eda265" stroke="#eda265" stroke-width="1.51"></path><path d="M-139,-126L-133,16L-61,-31Z" fill="#dab69b" stroke="#dab69b" stroke-width="1.51"></path><path d="M-98,68L-133,16L-91,169Z" fill="#ecaa71" stroke="#ecaa71" stroke-width="1.51"></path><path d="M-133,16L-105,253L-91,169Z" fill="#eca66e" stroke="#eca66e" stroke-width="1.51"></path></svg>