<svg width="300" height="176" xmlns="http://www.w3.org/2000/svg"><path d="M168,118L120,150L232,169Z" fill="#fe952d" stroke="#fe952d" stroke-width="1.51"></path><path d="M120,150L209,239L232,169Z" fill="#fd922a" stroke="#fd922a" stroke-width="1.51"></path><path d="M120,150L92,174L209,239Z" fill="#fd942f" stroke="#fd942f" stroke-width="1.51"></path><path d="M92,174L130,277L209,239Z" fill="#fc922b" stroke="#fc922b" stroke-width="1.51"></path><path d="M232,169L229,76L168,118Z" fill="#fe942d" stroke="#fe942d" stroke-width="1.51"></path><path d="M168,118L33,106L120,150Z" fill="#fc9a3b" stroke="#fc9a3b" stroke-width="1.51"></path><path d="M92,174L70,291L130,277Z" fill="#f89438" stroke="#f89438" stroke-width="1.51"></path><path d="M92,174L-45,145L70,291Z" fill="#f69a49" stroke="#f69a49" stroke-width="1.51"></path><path d="M120,150L33,106L92,174Z" fill="#fa9b41" stroke="#fa9b41" stroke-width="1.51"></path><path d="M165,13L33,106L168,118Z" fill="#fd9c3d" stroke="#fd9c3d" stroke-width="1.51"></path><path d="M229,76L165,13L168,118Z" fill="#fd9a37" stroke="#fd9a37" stroke-width="1.51"></path><path d="M344,248L348,185L232,169Z" fill="#fa8c25" stroke="#fa8c25" stroke-width="1.51"></path><path d="M232,169L340,81L229,76Z" fill="#fd932c" stroke="#fd932c" stroke-width="1.51"></path><path d="M229,76L244,-23L165,13Z" fill="#f89d48" stroke="#f89d48" stroke-width="1.51"></path><path d="M344,248L232,169L209,239Z" fill="#fb8d26" stroke="#fb8d26" stroke-width="1.51"></path><path d="M414,249L344,248L130,277Z" fill="#f98922" stroke="#f98922" stroke-width="1.51"></path><path d="M130,277L344,248L209,239Z" fill="#fb8d25" stroke="#fb8d25" stroke-width="1.51"></path><path d="M348,185L340,81L232,169Z" fill="#fc8f28" stroke="#fc8f28" stroke-width="1.51"></path><path d="M340,81L244,-23L229,76Z" fill="#f9983e" stroke="#f9983e" stroke-width="1.51"></path><path d="M33,106L-45,145L92,174Z" fill="#f69e4f" stroke="#f69e4f" stroke-width="1.51"></path><path d="M-34,77L-45,145L33,106Z" fill="#f4a35a" stroke="#f4a35a" stroke-width="1.51"></path><path d="M33,-33L33,106L165,13Z" fill="#f5a45a" stroke="#f5a45a" stroke-width="1.51"></path><path d="M3,-10L-34,77L33,106Z" fill="#f2a661" stroke="#f2a661" stroke-width="1.51"></path><path d="M440,57L388,20L340,81Z" fill="#f89337" stroke="#f89337" stroke-width="1.51"></path><path d="M344,248L414,249L348,185Z" fill="#f98821" stroke="#f98821" stroke-width="1.51"></path><path d="M70,291L414,249L130,277Z" fill="#fa8d25" stroke="#fa8d25" stroke-width="1.51"></path><path d="M68,-101L33,-33L165,13Z" fill="#eea96c" stroke="#eea96c" stroke-width="1.51"></path><path d="M33,-33L3,-10L33,106Z" fill="#f0a868" stroke="#f0a868" stroke-width="1.51"></path><path d="M340,81L363,5L244,-23Z" fill="#f79844" stroke="#f79844" stroke-width="1.51"></path><path d="M388,20L363,5L340,81Z" fill="#f7953e" stroke="#f7953e" stroke-width="1.51"></path><path d="M-45,145L-60,291L70,291Z" fill="#f29b54" stroke="#f29b54" stroke-width="1.51"></path><path d="M450,172L340,81L348,185Z" fill="#fb8c25" stroke="#fb8c25" stroke-width="1.51"></path><path d="M414,249L450,172L348,185Z" fill="#f98821" stroke="#f98821" stroke-width="1.51"></path><path d="M244,-23L224,-101L165,13Z" fill="#f2a25b" stroke="#f2a25b" stroke-width="1.51"></path><path d="M342,-93L224,-101L244,-23Z" fill="#eea365" stroke="#eea365" stroke-width="1.51"></path><path d="M342,-93L244,-23L363,5Z" fill="#f19e58" stroke="#f19e58" stroke-width="1.51"></path><path d="M422,-122L342,-93L363,5Z" fill="#ed9e60" stroke="#ed9e60" stroke-width="1.51"></path><path d="M450,172L440,57L340,81Z" fill="#fb8e26" stroke="#fb8e26" stroke-width="1.51"></path><path d="M163,-123L68,-101L165,13Z" fill="#efa86c" stroke="#efa86c" stroke-width="1.51"></path><path d="M33,-33L-48,-96L3,-10Z" fill="#e5af83" stroke="#e5af83" stroke-width="1.51"></path><path d="M224,-101L163,-123L165,13Z" fill="#f0a667" stroke="#f0a667" stroke-width="1.51"></path><path d="M-45,145L-140,156L-60,291Z" fill="#eda265" stroke="#eda265" stroke-width="1.51"></path><path d="M-149,109L-140,156L-45,145Z" fill="#eca76f" stroke="#eca76f" stroke-width="1.51"></path><path d="M-149,109L-45,145L-34,77Z" fill="#efa668" stroke="#efa668" stroke-width="1.51"></path><path d="M-149,109L-34,77L-147,2Z" fill="#eaac79" stroke="#eaac79" stroke-width="1.51"></path><path d="M422,-122L363,5L388,20Z" fill="#f19a54" stroke="#f19a54" stroke-width="1.51"></path><path d="M224,-101L422,-122L163,-123Z" fill="#e9a772" stroke="#e9a772" stroke-width="1.51"></path><path d="M-147,2L-34,77L3,-10Z" fill="#e9ad79" stroke="#e9ad79" stroke-width="1.51"></path><path d="M-149,109L-146,272L-140,156Z" fill="#e8a874" stroke="#e8a874" stroke-width="1.51"></path><path d="M-140,156L-146,272L-60,291Z" fill="#eaa26b" stroke="#eaa26b" stroke-width="1.51"></path><path d="M-115,-116L-48,-96L68,-101Z" fill="#dab69a" stroke="#dab69a" stroke-width="1.51"></path><path d="M68,-101L-48,-96L33,-33Z" fill="#e3b187" stroke="#e3b187" stroke-width="1.51"></path><path d="M-48,-96L-147,2L3,-10Z" fill="#e1b28c" stroke="#e1b28c" stroke-width="1.51"></path><path d="M440,57L422,-122L388,20Z" fill="#f2984e" stroke="#f2984e" stroke-width="1.51"></path><path d="M342,-93L422,-122L224,-101Z" fill="#eaa46d" stroke="#eaa46d" stroke-width="1.51"></path><path d="M-48,-96L-115,-116L-147,2Z" fill="#d7b79f" stroke="#d7b79f" stroke-width="1.51"></path><path d="M163,-123L-115,-116L68,-101Z" fill="#e0b38e" stroke="#e0b38e" stroke-width="1.51"></path></svg>