<svg width="300" height="176" xmlns="http://www.w3.org/2000/svg"><path d="M85,278L-118,280L180,301Z" fill="#fb9e38" stroke="#fb9e38" stroke-width="1.51"></path><path d="M28,-88L148,-82L269,-106Z" fill="#ffc35b" stroke="#ffc35b" stroke-width="1.51"></path><path d="M-129,-101L28,-88L269,-106Z" fill="#ffd36b" stroke="#ffd36b" stroke-width="1.51"></path><path d="M-129,-101L269,-106L362,-114Z" fill="#ffc55d" stroke="#ffc55d" stroke-width="1.51"></path><path d="M320,248L180,301L404,261Z" fill="#f98921" stroke="#f98921" stroke-width="1.51"></path><path d="M350,-34L411,4L422,-91Z" fill="#fdad46" stroke="#fdad46" stroke-width="1.51"></path><path d="M348,163L404,261L449,198Z" fill="#f98821" stroke="#f98821" stroke-width="1.51"></path><path d="M390,78L348,163L449,198Z" fill="#fa8c24" stroke="#fa8c24" stroke-width="1.51"></path><path d="M411,4L390,78L449,198Z" fill="#fb8e26" stroke="#fb8e26" stroke-width="1.51"></path><path d="M422,-91L411,4L449,198Z" fill="#fb9933" stroke="#fb9933" stroke-width="1.51"></path><path d="M348,163L320,248L404,261Z" fill="#f98922" stroke="#f98922" stroke-width="1.51"></path><path d="M335,55L390,78L411,4Z" fill="#fc9a33" stroke="#fc9a33" stroke-width="1.51"></path><path d="M362,-114L350,-34L422,-91Z" fill="#ffb64f" stroke="#ffb64f" stroke-width="1.51"></path><path d="M350,-34L335,55L411,4Z" fill="#fca23c" stroke="#fca23c" stroke-width="1.51"></path><path d="M335,55L348,163L390,78Z" fill="#fc9029" stroke="#fc9029" stroke-width="1.51"></path><path d="M233,248L180,301L320,248Z" fill="#fa8b24" stroke="#fa8b24" stroke-width="1.51"></path><path d="M335,55L214,107L348,163Z" fill="#fc922b" stroke="#fc922b" stroke-width="1.51"></path><path d="M269,-106L350,-34L362,-114Z" fill="#ffb953" stroke="#ffb953" stroke-width="1.51"></path><path d="M221,200L320,248L348,163Z" fill="#fa8d25" stroke="#fa8d25" stroke-width="1.51"></path><path d="M208,-29L335,55L350,-34Z" fill="#fda841" stroke="#fda841" stroke-width="1.51"></path><path d="M269,-106L208,-29L350,-34Z" fill="#ffb54e" stroke="#ffb54e" stroke-width="1.51"></path><path d="M214,107L221,200L348,163Z" fill="#fc912a" stroke="#fc912a" stroke-width="1.51"></path><path d="M208,-29L214,107L335,55Z" fill="#fe9f37" stroke="#fe9f37" stroke-width="1.51"></path><path d="M221,200L233,248L320,248Z" fill="#fb8c25" stroke="#fb8c25" stroke-width="1.51"></path><path d="M148,-82L208,-29L269,-106Z" fill="#ffbb54" stroke="#ffbb54" stroke-width="1.51"></path><path d="M146,101L140,207L214,107Z" fill="#fe962e" stroke="#fe962e" stroke-width="1.51"></path><path d="M208,-29L139,-12L214,107Z" fill="#ffa73f" stroke="#ffa73f" stroke-width="1.51"></path><path d="M139,-12L146,101L214,107Z" fill="#ff9e36" stroke="#ff9e36" stroke-width="1.51"></path><path d="M214,107L140,207L221,200Z" fill="#fd932b" stroke="#fd932b" stroke-width="1.51"></path><path d="M221,200L140,207L233,248Z" fill="#fc9028" stroke="#fc9028" stroke-width="1.51"></path><path d="M140,207L180,301L233,248Z" fill="#fb8e27" stroke="#fb8e27" stroke-width="1.51"></path><path d="M148,-82L139,-12L208,-29Z" fill="#ffb64e" stroke="#ffb64e" stroke-width="1.51"></path><path d="M139,-12L92,74L146,101Z" fill="#ffa53d" stroke="#ffa53d" stroke-width="1.51"></path><path d="M140,207L85,278L180,301Z" fill="#fb922b" stroke="#fb922b" stroke-width="1.51"></path><path d="M-63,255L-118,280L85,278Z" fill="#fdad46" stroke="#fdad46" stroke-width="1.51"></path><path d="M72,-26L92,74L139,-12Z" fill="#ffb34b" stroke="#ffb34b" stroke-width="1.51"></path><path d="M26,145L140,207L146,101Z" fill="#fe9d36" stroke="#fe9d36" stroke-width="1.51"></path><path d="M92,74L26,145L146,101Z" fill="#ffa23b" stroke="#ffa23b" stroke-width="1.51"></path><path d="M72,-26L139,-12L148,-82Z" fill="#ffbb53" stroke="#ffbb53" stroke-width="1.51"></path><path d="M28,-88L72,-26L148,-82Z" fill="#ffc75f" stroke="#ffc75f" stroke-width="1.51"></path><path d="M26,145L85,278L140,207Z" fill="#fd9d36" stroke="#fd9d36" stroke-width="1.51"></path><path d="M26,145L-12,175L85,278Z" fill="#fda63f" stroke="#fda63f" stroke-width="1.51"></path><path d="M72,-26L-8,54L92,74Z" fill="#ffb64e" stroke="#ffb64e" stroke-width="1.51"></path><path d="M-8,54L26,145L92,74Z" fill="#ffac44" stroke="#ffac44" stroke-width="1.51"></path><path d="M-12,175L-63,255L85,278Z" fill="#fda942" stroke="#fda942" stroke-width="1.51"></path><path d="M-41,-8L-8,54L72,-26Z" fill="#ffc35b" stroke="#ffc35b" stroke-width="1.51"></path><path d="M28,-88L-30,-63L72,-26Z" fill="#ffcf67" stroke="#ffcf67" stroke-width="1.51"></path><path d="M-30,-63L-41,-8L72,-26Z" fill="#ffcd65" stroke="#ffcd65" stroke-width="1.51"></path><path d="M-8,54L-12,175L26,145Z" fill="#ffaf48" stroke="#ffaf48" stroke-width="1.51"></path><path d="M-129,-101L-30,-63L28,-88Z" fill="#ffe077" stroke="#ffe077" stroke-width="1.51"></path><path d="M-96,155L-12,175L-8,54Z" fill="#ffb54e" stroke="#ffb54e" stroke-width="1.51"></path><path d="M-96,155L-63,255L-12,175Z" fill="#ffb54e" stroke="#ffb54e" stroke-width="1.51"></path><path d="M-41,-8L-113,110L-8,54Z" fill="#ffc35b" stroke="#ffc35b" stroke-width="1.51"></path><path d="M-113,110L-96,155L-8,54Z" fill="#ffbd55" stroke="#ffbd55" stroke-width="1.51"></path><path d="M-147,-33L-113,110L-41,-8Z" fill="#ffd168" stroke="#ffd168" stroke-width="1.51"></path><path d="M-147,-33L-41,-8L-30,-63Z" fill="#ffd971" stroke="#ffd971" stroke-width="1.51"></path><path d="M-129,-101L-147,-33L-30,-63Z" fill="#ffe47c" stroke="#ffe47c" stroke-width="1.51"></path><path d="M-96,155L-118,280L-63,255Z" fill="#ffb952" stroke="#ffb952" stroke-width="1.51"></path><path d="M-113,110L-118,280L-96,155Z" fill="#ffbe57" stroke="#ffbe57" stroke-width="1.51"></path><path d="M-147,-33L-118,280L-113,110Z" fill="#ffc45d" stroke="#ffc45d" stroke-width="1.51"></path></svg>