<svg width="300" height="176" xmlns="http://www.w3.org/2000/svg"><path d="M181,116L261,178L228,109Z" fill="#fd942c" stroke="#fd942c" stroke-width="1.51"></path><path d="M181,116L164,188L261,178Z" fill="#fd932b" stroke="#fd932b" stroke-width="1.51"></path><path d="M164,188L223,243L261,178Z" fill="#fc9029" stroke="#fc9029" stroke-width="1.51"></path><path d="M261,178L309,168L228,109Z" fill="#fc9129" stroke="#fc9129" stroke-width="1.51"></path><path d="M339,270L309,168L261,178Z" fill="#fa8c25" stroke="#fa8c25" stroke-width="1.51"></path><path d="M164,188L120,237L223,243Z" fill="#fc9129" stroke="#fc9129" stroke-width="1.51"></path><path d="M91,247L120,237L36,182Z" fill="#f8963d" stroke="#f8963d" stroke-width="1.51"></path><path d="M309,168L337,80L228,109Z" fill="#fd912a" stroke="#fd912a" stroke-width="1.51"></path><path d="M228,109L175,-27L181,116Z" fill="#fd9938" stroke="#fd9938" stroke-width="1.51"></path><path d="M120,237L91,247L223,243Z" fill="#fb912a" stroke="#fb912a" stroke-width="1.51"></path><path d="M36,182L120,237L164,188Z" fill="#fa9638" stroke="#fa9638" stroke-width="1.51"></path><path d="M309,168L427,168L337,80Z" fill="#fb8e27" stroke="#fb8e27" stroke-width="1.51"></path><path d="M223,243L339,270L261,178Z" fill="#fa8c24" stroke="#fa8c24" stroke-width="1.51"></path><path d="M91,247L339,270L223,243Z" fill="#fb8d26" stroke="#fb8d26" stroke-width="1.51"></path><path d="M37,88L36,182L164,188Z" fill="#f99a42" stroke="#f99a42" stroke-width="1.51"></path><path d="M337,80L242,-17L228,109Z" fill="#fb9739" stroke="#fb9739" stroke-width="1.51"></path><path d="M181,116L37,88L164,188Z" fill="#fd9835" stroke="#fd9835" stroke-width="1.51"></path><path d="M175,-27L37,88L181,116Z" fill="#fc9d42" stroke="#fc9d42" stroke-width="1.51"></path><path d="M242,-17L175,-27L228,109Z" fill="#f89d48" stroke="#f89d48" stroke-width="1.51"></path><path d="M337,80L346,21L242,-17Z" fill="#f89843" stroke="#f89843" stroke-width="1.51"></path><path d="M440,18L346,21L337,80Z" fill="#f7953c" stroke="#f7953c" stroke-width="1.51"></path><path d="M339,270L427,168L309,168Z" fill="#f98a23" stroke="#f98a23" stroke-width="1.51"></path><path d="M427,168L434,115L337,80Z" fill="#fb8d26" stroke="#fb8d26" stroke-width="1.51"></path><path d="M242,-17L266,-76L175,-27Z" fill="#f3a25c" stroke="#f3a25c" stroke-width="1.51"></path><path d="M346,21L266,-76L242,-17Z" fill="#f39e55" stroke="#f39e55" stroke-width="1.51"></path><path d="M306,-102L266,-76L346,21Z" fill="#f09f5e" stroke="#f09f5e" stroke-width="1.51"></path><path d="M-54,160L-32,245L36,182Z" fill="#f29e57" stroke="#f29e57" stroke-width="1.51"></path><path d="M175,-27L29,-23L37,88Z" fill="#f4a55e" stroke="#f4a55e" stroke-width="1.51"></path><path d="M68,-76L29,-23L175,-27Z" fill="#eea96d" stroke="#eea96d" stroke-width="1.51"></path><path d="M36,182L-32,245L91,247Z" fill="#f5994a" stroke="#f5994a" stroke-width="1.51"></path><path d="M91,247L434,300L339,270Z" fill="#f98921" stroke="#f98921" stroke-width="1.51"></path><path d="M-54,160L36,182L37,88Z" fill="#f5a054" stroke="#f5a054" stroke-width="1.51"></path><path d="M427,168L434,300L434,115Z" fill="#f88820" stroke="#f88820" stroke-width="1.51"></path><path d="M339,270L434,300L427,168Z" fill="#f8861f" stroke="#f8861f" stroke-width="1.51"></path><path d="M-132,258L434,300L91,247Z" fill="#fa902d" stroke="#fa902d" stroke-width="1.51"></path><path d="M-51,93L-54,160L37,88Z" fill="#f3a35c" stroke="#f3a35c" stroke-width="1.51"></path><path d="M434,115L440,18L337,80Z" fill="#fa902f" stroke="#fa902f" stroke-width="1.51"></path><path d="M434,300L440,18L434,115Z" fill="#fa8a23" stroke="#fa8a23" stroke-width="1.51"></path><path d="M29,-23L-51,93L37,88Z" fill="#f2a662" stroke="#f2a662" stroke-width="1.51"></path><path d="M141,-118L68,-76L175,-27Z" fill="#eda96f" stroke="#eda96f" stroke-width="1.51"></path><path d="M266,-76L141,-118L175,-27Z" fill="#efa668" stroke="#efa668" stroke-width="1.51"></path><path d="M428,-118L306,-102L346,21Z" fill="#ee9f60" stroke="#ee9f60" stroke-width="1.51"></path><path d="M306,-102L141,-118L266,-76Z" fill="#eca66e" stroke="#eca66e" stroke-width="1.51"></path><path d="M-39,-61L-29,-36L29,-23Z" fill="#e6af83" stroke="#e6af83" stroke-width="1.51"></path><path d="M29,-23L-29,-36L-51,93Z" fill="#ebab74" stroke="#ebab74" stroke-width="1.51"></path><path d="M-39,-61L29,-23L68,-76Z" fill="#e7af80" stroke="#e7af80" stroke-width="1.51"></path><path d="M-29,-36L-130,62L-51,93Z" fill="#eaac77" stroke="#eaac77" stroke-width="1.51"></path><path d="M-122,-87L-39,-61L68,-76Z" fill="#deb391" stroke="#deb391" stroke-width="1.51"></path><path d="M-54,160L-126,185L-32,245Z" fill="#eea163" stroke="#eea163" stroke-width="1.51"></path><path d="M-51,93L-126,185L-54,160Z" fill="#efa467" stroke="#efa467" stroke-width="1.51"></path><path d="M-130,62L-126,185L-51,93Z" fill="#eda86e" stroke="#eda86e" stroke-width="1.51"></path><path d="M440,18L428,-118L346,21Z" fill="#f19952" stroke="#f19952" stroke-width="1.51"></path><path d="M306,-102L428,-118L141,-118Z" fill="#e9a671" stroke="#e9a671" stroke-width="1.51"></path><path d="M-138,-27L-130,62L-29,-36Z" fill="#e2b189" stroke="#e2b189" stroke-width="1.51"></path><path d="M-126,185L-132,258L-32,245Z" fill="#eca267" stroke="#eca267" stroke-width="1.51"></path><path d="M-32,245L-132,258L91,247Z" fill="#f19b56" stroke="#f19b56" stroke-width="1.51"></path><path d="M-130,62L-132,258L-126,185Z" fill="#eaa771" stroke="#eaa771" stroke-width="1.51"></path><path d="M-130,62L-138,-27L-132,258Z" fill="#ebab75" stroke="#ebab75" stroke-width="1.51"></path><path d="M-39,-61L-138,-27L-29,-36Z" fill="#dfb38f" stroke="#dfb38f" stroke-width="1.51"></path><path d="M-39,-61L-122,-87L-138,-27Z" fill="#d9b69b" stroke="#d9b69b" stroke-width="1.51"></path><path d="M141,-118L-122,-87L68,-76Z" fill="#e2b28a" stroke="#e2b28a" stroke-width="1.51"></path></svg>