<svg width="300" height="176" xmlns="http://www.w3.org/2000/svg"><path d="M172,67L128,2L73,81Z" fill="#f2a661" stroke="#f2a661" stroke-width="1.51"></path><path d="M128,2L51,10L73,81Z" fill="#e5af83" stroke="#e5af83" stroke-width="1.51"></path><path d="M73,81L173,169L172,67Z" fill="#fd9835" stroke="#fd9835" stroke-width="1.51"></path><path d="M128,2L50,-60L51,10Z" fill="#d7b79f" stroke="#d7b79f" stroke-width="1.51"></path><path d="M50,-60L-13,25L51,10Z" fill="#cbbdb3" stroke="#cbbdb3" stroke-width="1.51"></path><path d="M51,10L-13,25L73,81Z" fill="#deb492" stroke="#deb492" stroke-width="1.51"></path><path d="M73,81L45,178L173,169Z" fill="#f59948" stroke="#f59948" stroke-width="1.51"></path><path d="M-39,58L45,178L73,81Z" fill="#eca76e" stroke="#eca76e" stroke-width="1.51"></path><path d="M172,67L238,-31L128,2Z" fill="#eba871" stroke="#eba871" stroke-width="1.51"></path><path d="M128,2L132,-96L50,-60Z" fill="#deb492" stroke="#deb492" stroke-width="1.51"></path><path d="M267,106L238,-31L172,67Z" fill="#f49c52" stroke="#f49c52" stroke-width="1.51"></path><path d="M238,-31L132,-96L128,2Z" fill="#e7ac7c" stroke="#e7ac7c" stroke-width="1.51"></path><path d="M173,169L212,178L172,67Z" fill="#fb8f27" stroke="#fb8f27" stroke-width="1.51"></path><path d="M217,259L212,178L173,169Z" fill="#f98820" stroke="#f98820" stroke-width="1.51"></path><path d="M212,178L267,106L172,67Z" fill="#fc8f28" stroke="#fc8f28" stroke-width="1.51"></path><path d="M-96,55L-39,58L-13,25Z" fill="#d8b79e" stroke="#d8b79e" stroke-width="1.51"></path><path d="M-13,25L-39,58L73,81Z" fill="#ddb494" stroke="#ddb494" stroke-width="1.51"></path><path d="M238,-31L240,-75L132,-96Z" fill="#e7a979" stroke="#e7a979" stroke-width="1.51"></path><path d="M305,-19L240,-75L238,-31Z" fill="#e6a475" stroke="#e6a475" stroke-width="1.51"></path><path d="M267,106L305,-19L238,-31Z" fill="#eb9f66" stroke="#eb9f66" stroke-width="1.51"></path><path d="M-10,297L86,255L45,178Z" fill="#ec9c60" stroke="#ec9c60" stroke-width="1.51"></path><path d="M45,178L86,255L173,169Z" fill="#f49342" stroke="#f49342" stroke-width="1.51"></path><path d="M50,-60L-32,-92L-13,25Z" fill="#c2c1c0" stroke="#c2c1c0" stroke-width="1.51"></path><path d="M132,-96L-32,-92L50,-60Z" fill="#d0bbaa" stroke="#d0bbaa" stroke-width="1.51"></path><path d="M86,255L130,268L173,169Z" fill="#f88f32" stroke="#f88f32" stroke-width="1.51"></path><path d="M-39,58L-63,193L45,178Z" fill="#e6a676" stroke="#e6a676" stroke-width="1.51"></path><path d="M-133,-69L-96,55L-13,25Z" fill="#c3c0be" stroke="#c3c0be" stroke-width="1.51"></path><path d="M130,268L217,259L173,169Z" fill="#fa8a23" stroke="#fa8a23" stroke-width="1.51"></path><path d="M212,178L322,164L267,106Z" fill="#f8861f" stroke="#f8861f" stroke-width="1.51"></path><path d="M267,106L347,69L305,-19Z" fill="#f39548" stroke="#f39548" stroke-width="1.51"></path><path d="M322,164L347,69L267,106Z" fill="#f98921" stroke="#f98921" stroke-width="1.51"></path><path d="M-96,55L-63,193L-39,58Z" fill="#e7ac7b" stroke="#e7ac7b" stroke-width="1.51"></path><path d="M304,278L322,164L212,178Z" fill="#f68119" stroke="#f68119" stroke-width="1.51"></path><path d="M-133,-69L-139,30L-96,55Z" fill="#c4c0bd" stroke="#c4c0bd" stroke-width="1.51"></path><path d="M-96,55L-131,181L-63,193Z" fill="#e6a676" stroke="#e6a676" stroke-width="1.51"></path><path d="M-63,193L-10,297L45,178Z" fill="#e5a172" stroke="#e5a172" stroke-width="1.51"></path><path d="M86,255L-10,297L130,268Z" fill="#f09853" stroke="#f09853" stroke-width="1.51"></path><path d="M130,268L304,278L217,259Z" fill="#f8861f" stroke="#f8861f" stroke-width="1.51"></path><path d="M305,-19L346,-109L240,-75Z" fill="#e4a273" stroke="#e4a273" stroke-width="1.51"></path><path d="M240,-75L346,-109L132,-96Z" fill="#e6a677" stroke="#e6a677" stroke-width="1.51"></path><path d="M132,-96L346,-109L-32,-92Z" fill="#e8ad7e" stroke="#e8ad7e" stroke-width="1.51"></path><path d="M450,19L346,-109L305,-19Z" fill="#e5a172" stroke="#e5a172" stroke-width="1.51"></path><path d="M-63,193L-144,296L-10,297Z" fill="#e5a172" stroke="#e5a172" stroke-width="1.51"></path><path d="M-139,30L-131,181L-96,55Z" fill="#e8ad7d" stroke="#e8ad7d" stroke-width="1.51"></path><path d="M-32,-92L-133,-69L-13,25Z" fill="#c1c1c1" stroke="#c1c1c1" stroke-width="1.51"></path><path d="M-10,297L304,278L130,268Z" fill="#f98d2b" stroke="#f98d2b" stroke-width="1.51"></path><path d="M217,259L304,278L212,178Z" fill="#f7841c" stroke="#f7841c" stroke-width="1.51"></path><path d="M322,164L450,85L347,69Z" fill="#f98a22" stroke="#f98a22" stroke-width="1.51"></path><path d="M417,211L450,85L322,164Z" fill="#f7831b" stroke="#f7831b" stroke-width="1.51"></path><path d="M347,69L450,19L305,-19Z" fill="#eb9c60" stroke="#eb9c60" stroke-width="1.51"></path><path d="M450,85L450,19L347,69Z" fill="#f49343" stroke="#f49343" stroke-width="1.51"></path><path d="M304,278L417,211L322,164Z" fill="#f57f17" stroke="#f57f17" stroke-width="1.51"></path><path d="M-139,30L-144,296L-131,181Z" fill="#e5a273" stroke="#e5a273" stroke-width="1.51"></path><path d="M-131,181L-144,296L-63,193Z" fill="#e5a172" stroke="#e5a172" stroke-width="1.51"></path><path d="M450,19L440,-110L346,-109Z" fill="#e5a172" stroke="#e5a172" stroke-width="1.51"></path><path d="M304,278L439,254L417,211Z" fill="#f57f17" stroke="#f57f17" stroke-width="1.51"></path><path d="M417,211L439,254L450,85Z" fill="#f57f17" stroke="#f57f17" stroke-width="1.51"></path></svg>