<svg width="300" height="176" xmlns="http://www.w3.org/2000/svg"><path d="M171,78L224,86L154,-2Z" fill="#ac9843" stroke="#ac9843" stroke-width="1.51"></path><path d="M224,86L261,-4L154,-2Z" fill="#b99f50" stroke="#b99f50" stroke-width="1.51"></path><path d="M261,-4L222,-77L154,-2Z" fill="#c7a760" stroke="#c7a760" stroke-width="1.51"></path><path d="M222,-77L145,-64L154,-2Z" fill="#cbab63" stroke="#cbab63" stroke-width="1.51"></path><path d="M261,-4L305,-33L222,-77Z" fill="#c3a25c" stroke="#c3a25c" stroke-width="1.51"></path><path d="M344,72L305,-33L261,-4Z" fill="#b99b52" stroke="#b99b52" stroke-width="1.51"></path><path d="M224,86L344,72L261,-4Z" fill="#a5913d" stroke="#a5913d" stroke-width="1.51"></path><path d="M305,-33L328,-66L222,-77Z" fill="#c1a15a" stroke="#c1a15a" stroke-width="1.51"></path><path d="M406,-70L328,-66L305,-33Z" fill="#c09f59" stroke="#c09f59" stroke-width="1.51"></path><path d="M171,78L211,198L224,86Z" fill="#928728" stroke="#928728" stroke-width="1.51"></path><path d="M154,-2L58,100L171,78Z" fill="#b49e4b" stroke="#b49e4b" stroke-width="1.51"></path><path d="M32,-28L58,100L154,-2Z" fill="#d6b26f" stroke="#d6b26f" stroke-width="1.51"></path><path d="M224,86L322,156L344,72Z" fill="#8d8222" stroke="#8d8222" stroke-width="1.51"></path><path d="M121,185L211,198L171,78Z" fill="#918626" stroke="#918626" stroke-width="1.51"></path><path d="M211,198L322,156L224,86Z" fill="#8a7f20" stroke="#8a7f20" stroke-width="1.51"></path><path d="M58,100L121,185L171,78Z" fill="#a29239" stroke="#a29239" stroke-width="1.51"></path><path d="M145,-64L32,-28L154,-2Z" fill="#dab472" stroke="#dab472" stroke-width="1.51"></path><path d="M145,-64L31,-78L32,-28Z" fill="#e8bc80" stroke="#e8bc80" stroke-width="1.51"></path><path d="M222,-77L31,-78L145,-64Z" fill="#d3b06b" stroke="#d3b06b" stroke-width="1.51"></path><path d="M58,100L55,176L121,185Z" fill="#aa9542" stroke="#aa9542" stroke-width="1.51"></path><path d="M141,289L225,294L211,198Z" fill="#8b8021" stroke="#8b8021" stroke-width="1.51"></path><path d="M-17,161L55,176L58,100Z" fill="#ba9e52" stroke="#ba9e52" stroke-width="1.51"></path><path d="M32,-28L-9,6L58,100Z" fill="#e7bb80" stroke="#e7bb80" stroke-width="1.51"></path><path d="M31,-78L-9,6L32,-28Z" fill="#f9c592" stroke="#f9c592" stroke-width="1.51"></path><path d="M328,-66L406,-70L222,-77Z" fill="#c09f59" stroke="#c09f59" stroke-width="1.51"></path><path d="M439,25L406,-70L305,-33Z" fill="#c09f59" stroke="#c09f59" stroke-width="1.51"></path><path d="M439,25L305,-33L344,72Z" fill="#b4984d" stroke="#b4984d" stroke-width="1.51"></path><path d="M451,106L439,25L344,72Z" fill="#9a8a32" stroke="#9a8a32" stroke-width="1.51"></path><path d="M-9,6L-19,98L58,100Z" fill="#d5b16d" stroke="#d5b16d" stroke-width="1.51"></path><path d="M322,156L394,178L344,72Z" fill="#887d1d" stroke="#887d1d" stroke-width="1.51"></path><path d="M341,266L394,178L322,156Z" fill="#827717" stroke="#827717" stroke-width="1.51"></path><path d="M394,178L451,106L344,72Z" fill="#8a7f20" stroke="#8a7f20" stroke-width="1.51"></path><path d="M-19,98L-17,161L58,100Z" fill="#c6a75e" stroke="#c6a75e" stroke-width="1.51"></path><path d="M211,198L341,266L322,156Z" fill="#837718" stroke="#837718" stroke-width="1.51"></path><path d="M141,289L211,198L121,185Z" fill="#8e8324" stroke="#8e8324" stroke-width="1.51"></path><path d="M141,289L121,185L35,257Z" fill="#9f8d37" stroke="#9f8d37" stroke-width="1.51"></path><path d="M35,257L121,185L55,176Z" fill="#a99341" stroke="#a99341" stroke-width="1.51"></path><path d="M394,178L434,244L451,106Z" fill="#827717" stroke="#827717" stroke-width="1.51"></path><path d="M225,294L341,266L211,198Z" fill="#857a1b" stroke="#857a1b" stroke-width="1.51"></path><path d="M-17,161L35,257L55,176Z" fill="#b89b51" stroke="#b89b51" stroke-width="1.51"></path><path d="M-124,78L-91,155L-19,98Z" fill="#c9a962" stroke="#c9a962" stroke-width="1.51"></path><path d="M-19,98L-91,155L-17,161Z" fill="#c5a55e" stroke="#c5a55e" stroke-width="1.51"></path><path d="M31,-78L-61,-121L-9,6Z" fill="#ffc998" stroke="#ffc998" stroke-width="1.51"></path><path d="M222,-77L-61,-121L31,-78Z" fill="#e9bd82" stroke="#e9bd82" stroke-width="1.51"></path><path d="M406,-70L-61,-121L222,-77Z" fill="#c9a962" stroke="#c9a962" stroke-width="1.51"></path><path d="M341,266L434,244L394,178Z" fill="#827717" stroke="#827717" stroke-width="1.51"></path><path d="M225,294L434,244L341,266Z" fill="#827717" stroke="#827717" stroke-width="1.51"></path><path d="M-17,161L-11,280L35,257Z" fill="#bf9f58" stroke="#bf9f58" stroke-width="1.51"></path><path d="M-124,78L-19,98L-9,6Z" fill="#dcb575" stroke="#dcb575" stroke-width="1.51"></path><path d="M-92,269L-11,280L-17,161Z" fill="#c09f59" stroke="#c09f59" stroke-width="1.51"></path><path d="M35,257L-11,280L141,289Z" fill="#ad9546" stroke="#ad9546" stroke-width="1.51"></path><path d="M141,289L-11,280L225,294Z" fill="#998a31" stroke="#998a31" stroke-width="1.51"></path><path d="M-144,7L-124,78L-9,6Z" fill="#eebf86" stroke="#eebf86" stroke-width="1.51"></path><path d="M-61,-121L-102,-117L-9,6Z" fill="#ffc998" stroke="#ffc998" stroke-width="1.51"></path><path d="M-102,-117L-144,7L-9,6Z" fill="#ffc998" stroke="#ffc998" stroke-width="1.51"></path><path d="M-124,78L-92,269L-91,155Z" fill="#c1a15a" stroke="#c1a15a" stroke-width="1.51"></path><path d="M-91,155L-92,269L-17,161Z" fill="#c09f59" stroke="#c09f59" stroke-width="1.51"></path><path d="M-144,7L-92,269L-124,78Z" fill="#c8a861" stroke="#c8a861" stroke-width="1.51"></path></svg>