<svg width="300" height="176" xmlns="http://www.w3.org/2000/svg"><path d="M28,-92L148,-77L259,-104Z" fill="#c4b95a" stroke="#c4b95a" stroke-width="1.51"></path><path d="M28,-92L259,-104L358,-120Z" fill="#c3b859" stroke="#c3b859" stroke-width="1.51"></path><path d="M361,258L244,296L423,263Z" fill="#897e1f" stroke="#897e1f" stroke-width="1.51"></path><path d="M422,169L361,258L423,263Z" fill="#897e1f" stroke="#897e1f" stroke-width="1.51"></path><path d="M412,-19L341,22L449,105Z" fill="#9c9133" stroke="#9c9133" stroke-width="1.51"></path><path d="M341,22L344,117L449,105Z" fill="#94892a" stroke="#94892a" stroke-width="1.51"></path><path d="M399,-103L412,-19L449,105Z" fill="#a59a3c" stroke="#a59a3c" stroke-width="1.51"></path><path d="M344,117L422,169L449,105Z" fill="#8f8424" stroke="#8f8424" stroke-width="1.51"></path><path d="M422,169L423,263L449,105Z" fill="#8b8021" stroke="#8b8021" stroke-width="1.51"></path><path d="M69,266L-39,297L244,296Z" fill="#998e30" stroke="#998e30" stroke-width="1.51"></path><path d="M303,173L361,258L422,169Z" fill="#8c8123" stroke="#8c8123" stroke-width="1.51"></path><path d="M344,117L303,173L422,169Z" fill="#8f8425" stroke="#8f8425" stroke-width="1.51"></path><path d="M399,-103L358,-120L412,-19Z" fill="#b6ab4d" stroke="#b6ab4d" stroke-width="1.51"></path><path d="M358,-120L341,22L412,-19Z" fill="#aea344" stroke="#aea344" stroke-width="1.51"></path><path d="M259,-104L268,12L341,22Z" fill="#aea344" stroke="#aea344" stroke-width="1.51"></path><path d="M341,22L256,68L344,117Z" fill="#998e2f" stroke="#998e2f" stroke-width="1.51"></path><path d="M259,-104L341,22L358,-120Z" fill="#b7ac4d" stroke="#b7ac4d" stroke-width="1.51"></path><path d="M303,173L253,195L361,258Z" fill="#8e8325" stroke="#8e8325" stroke-width="1.51"></path><path d="M253,195L244,296L361,258Z" fill="#8d8223" stroke="#8d8223" stroke-width="1.51"></path><path d="M268,12L256,68L341,22Z" fill="#a29638" stroke="#a29638" stroke-width="1.51"></path><path d="M256,68L303,173L344,117Z" fill="#93882a" stroke="#93882a" stroke-width="1.51"></path><path d="M256,68L253,195L303,173Z" fill="#938829" stroke="#938829" stroke-width="1.51"></path><path d="M176,253L69,266L244,296Z" fill="#918626" stroke="#918626" stroke-width="1.51"></path><path d="M176,253L244,296L253,195Z" fill="#8f8425" stroke="#8f8425" stroke-width="1.51"></path><path d="M141,153L253,195L256,68Z" fill="#968b2c" stroke="#968b2c" stroke-width="1.51"></path><path d="M135,87L141,153L256,68Z" fill="#9a8f2f" stroke="#9a8f2f" stroke-width="1.51"></path><path d="M156,30L256,68L268,12Z" fill="#a4993a" stroke="#a4993a" stroke-width="1.51"></path><path d="M259,-104L148,-77L268,12Z" fill="#b8ad4e" stroke="#b8ad4e" stroke-width="1.51"></path><path d="M148,-77L156,30L268,12Z" fill="#b0a546" stroke="#b0a546" stroke-width="1.51"></path><path d="M156,30L135,87L256,68Z" fill="#a09536" stroke="#a09536" stroke-width="1.51"></path><path d="M141,153L176,253L253,195Z" fill="#948929" stroke="#948929" stroke-width="1.51"></path><path d="M-111,-62L-62,-66L28,-92Z" fill="#ded374" stroke="#ded374" stroke-width="1.51"></path><path d="M141,153L69,266L176,253Z" fill="#978c2d" stroke="#978c2d" stroke-width="1.51"></path><path d="M45,173L69,266L141,153Z" fill="#9f9436" stroke="#9f9436" stroke-width="1.51"></path><path d="M28,-92L26,16L148,-77Z" fill="#c7bc5d" stroke="#c7bc5d" stroke-width="1.51"></path><path d="M148,-77L26,16L156,30Z" fill="#b7ac4d" stroke="#b7ac4d" stroke-width="1.51"></path><path d="M26,16L135,87L156,30Z" fill="#aca142" stroke="#aca142" stroke-width="1.51"></path><path d="M135,87L46,120L141,153Z" fill="#a09536" stroke="#a09536" stroke-width="1.51"></path><path d="M46,120L45,173L141,153Z" fill="#a39839" stroke="#a39839" stroke-width="1.51"></path><path d="M26,16L46,120L135,87Z" fill="#aba041" stroke="#aba041" stroke-width="1.51"></path><path d="M26,16L-41,75L46,120Z" fill="#b5ab4b" stroke="#b5ab4b" stroke-width="1.51"></path><path d="M45,173L-39,297L69,266Z" fill="#a69b3d" stroke="#a69b3d" stroke-width="1.51"></path><path d="M-95,250L-39,297L-34,147Z" fill="#b3a84a" stroke="#b3a84a" stroke-width="1.51"></path><path d="M-62,-66L-52,5L26,16Z" fill="#cec364" stroke="#cec364" stroke-width="1.51"></path><path d="M-62,-66L26,16L28,-92Z" fill="#d1c767" stroke="#d1c767" stroke-width="1.51"></path><path d="M-34,147L-39,297L45,173Z" fill="#ada244" stroke="#ada244" stroke-width="1.51"></path><path d="M-34,147L45,173L46,120Z" fill="#ada243" stroke="#ada243" stroke-width="1.51"></path><path d="M-41,75L-34,147L46,120Z" fill="#b3a849" stroke="#b3a849" stroke-width="1.51"></path><path d="M-52,5L-41,75L26,16Z" fill="#c3b859" stroke="#c3b859" stroke-width="1.51"></path><path d="M-62,-66L-103,-22L-52,5Z" fill="#d7cd6e" stroke="#d7cd6e" stroke-width="1.51"></path><path d="M-138,119L-104,161L-41,75Z" fill="#c0b556" stroke="#c0b556" stroke-width="1.51"></path><path d="M-41,75L-104,161L-34,147Z" fill="#baaf50" stroke="#baaf50" stroke-width="1.51"></path><path d="M-104,161L-95,250L-34,147Z" fill="#baaf50" stroke="#baaf50" stroke-width="1.51"></path><path d="M-52,5L-103,-22L-41,75Z" fill="#ccc262" stroke="#ccc262" stroke-width="1.51"></path><path d="M-103,-22L-138,119L-41,75Z" fill="#c8bd5f" stroke="#c8bd5f" stroke-width="1.51"></path><path d="M-111,-62L-103,-22L-62,-66Z" fill="#e0d676" stroke="#e0d676" stroke-width="1.51"></path><path d="M-104,161L-138,119L-95,250Z" fill="#bfb456" stroke="#bfb456" stroke-width="1.51"></path><path d="M-111,-62L-138,119L-103,-22Z" fill="#d6cc6c" stroke="#d6cc6c" stroke-width="1.51"></path></svg>