<svg width="300" height="176" xmlns="http://www.w3.org/2000/svg"><path d="M243,-73L331,-64L420,-77Z" fill="#b79d4f" stroke="#b79d4f" stroke-width="1.51"></path><path d="M69,-114L243,-73L420,-77Z" fill="#bea357" stroke="#bea357" stroke-width="1.51"></path><path d="M420,-77L335,0L441,26Z" fill="#a89341" stroke="#a89341" stroke-width="1.51"></path><path d="M335,0L400,61L441,26Z" fill="#9f8e36" stroke="#9f8e36" stroke-width="1.51"></path><path d="M400,61L393,160L441,26Z" fill="#928628" stroke="#928628" stroke-width="1.51"></path><path d="M393,160L387,289L441,26Z" fill="#8d8223" stroke="#8d8223" stroke-width="1.51"></path><path d="M308,202L360,294L387,289Z" fill="#897e1f" stroke="#897e1f" stroke-width="1.51"></path><path d="M308,202L387,289L393,160Z" fill="#8b8022" stroke="#8b8022" stroke-width="1.51"></path><path d="M321,109L393,160L400,61Z" fill="#918627" stroke="#918627" stroke-width="1.51"></path><path d="M331,-64L335,0L420,-77Z" fill="#b09849" stroke="#b09849" stroke-width="1.51"></path><path d="M335,0L321,109L400,61Z" fill="#9a8c31" stroke="#9a8c31" stroke-width="1.51"></path><path d="M321,109L308,202L393,160Z" fill="#908526" stroke="#908526" stroke-width="1.51"></path><path d="M69,-114L159,-70L243,-73Z" fill="#c1a659" stroke="#c1a659" stroke-width="1.51"></path><path d="M308,202L217,291L360,294Z" fill="#8c8121" stroke="#8c8121" stroke-width="1.51"></path><path d="M267,111L249,178L308,202Z" fill="#938728" stroke="#938728" stroke-width="1.51"></path><path d="M267,111L308,202L321,109Z" fill="#938828" stroke="#938828" stroke-width="1.51"></path><path d="M267,111L321,109L335,0Z" fill="#988c2e" stroke="#988c2e" stroke-width="1.51"></path><path d="M269,-25L267,111L335,0Z" fill="#a3923a" stroke="#a3923a" stroke-width="1.51"></path><path d="M331,-64L269,-25L335,0Z" fill="#af9946" stroke="#af9946" stroke-width="1.51"></path><path d="M243,-73L269,-25L331,-64Z" fill="#b59d4d" stroke="#b59d4d" stroke-width="1.51"></path><path d="M249,178L217,291L308,202Z" fill="#8f8425" stroke="#8f8425" stroke-width="1.51"></path><path d="M162,240L217,291L249,178Z" fill="#918626" stroke="#918626" stroke-width="1.51"></path><path d="M243,-73L161,-7L269,-25Z" fill="#b49d4b" stroke="#b49d4b" stroke-width="1.51"></path><path d="M155,66L267,111L269,-25Z" fill="#a09237" stroke="#a09237" stroke-width="1.51"></path><path d="M161,-7L155,66L269,-25Z" fill="#aa9841" stroke="#aa9841" stroke-width="1.51"></path><path d="M155,66L249,178L267,111Z" fill="#978c2d" stroke="#978c2d" stroke-width="1.51"></path><path d="M159,-70L161,-7L243,-73Z" fill="#b8a050" stroke="#b8a050" stroke-width="1.51"></path><path d="M138,183L162,240L249,178Z" fill="#948929" stroke="#948929" stroke-width="1.51"></path><path d="M155,66L138,183L249,178Z" fill="#978c2d" stroke="#978c2d" stroke-width="1.51"></path><path d="M162,240L27,292L217,291Z" fill="#938729" stroke="#938729" stroke-width="1.51"></path><path d="M55,72L138,183L155,66Z" fill="#a09336" stroke="#a09336" stroke-width="1.51"></path><path d="M159,-70L80,-5L161,-7Z" fill="#b7a04f" stroke="#b7a04f" stroke-width="1.51"></path><path d="M80,-5L155,66L161,-7Z" fill="#ae9b45" stroke="#ae9b45" stroke-width="1.51"></path><path d="M138,183L51,208L162,240Z" fill="#9a8d30" stroke="#9a8d30" stroke-width="1.51"></path><path d="M51,208L27,292L162,240Z" fill="#9e8e35" stroke="#9e8e35" stroke-width="1.51"></path><path d="M80,-5L55,72L155,66Z" fill="#ae9b45" stroke="#ae9b45" stroke-width="1.51"></path><path d="M69,-114L80,-5L159,-70Z" fill="#c4a75c" stroke="#c4a75c" stroke-width="1.51"></path><path d="M55,72L51,208L138,183Z" fill="#a29339" stroke="#a29339" stroke-width="1.51"></path><path d="M-12,165L51,208L55,72Z" fill="#ab9842" stroke="#ab9842" stroke-width="1.51"></path><path d="M-3,77L-12,165L55,72Z" fill="#b09c47" stroke="#b09c47" stroke-width="1.51"></path><path d="M-96,-101L-27,-64L69,-114Z" fill="#ddb676" stroke="#ddb676" stroke-width="1.51"></path><path d="M-64,-23L-3,77L80,-5Z" fill="#c2a75a" stroke="#c2a75a" stroke-width="1.51"></path><path d="M-27,-64L-64,-23L80,-5Z" fill="#cead66" stroke="#cead66" stroke-width="1.51"></path><path d="M-3,77L55,72L80,-5Z" fill="#b59f4c" stroke="#b59f4c" stroke-width="1.51"></path><path d="M69,-114L-27,-64L80,-5Z" fill="#cdad65" stroke="#cdad65" stroke-width="1.51"></path><path d="M-12,165L-59,290L27,292Z" fill="#ac9644" stroke="#ac9644" stroke-width="1.51"></path><path d="M-12,165L27,292L51,208Z" fill="#a8943f" stroke="#a8943f" stroke-width="1.51"></path><path d="M-112,257L-59,290L-12,165Z" fill="#b49b4c" stroke="#b49b4c" stroke-width="1.51"></path><path d="M-111,163L-112,257L-12,165Z" fill="#b99f51" stroke="#b99f51" stroke-width="1.51"></path><path d="M-64,-23L-103,-11L-3,77Z" fill="#ccac64" stroke="#ccac64" stroke-width="1.51"></path><path d="M-103,-11L-148,111L-3,77Z" fill="#c7a95f" stroke="#c7a95f" stroke-width="1.51"></path><path d="M-111,163L-12,165L-3,77Z" fill="#b79f4f" stroke="#b79f4f" stroke-width="1.51"></path><path d="M-148,111L-111,163L-3,77Z" fill="#bfa457" stroke="#bfa457" stroke-width="1.51"></path><path d="M-96,-101L-64,-23L-27,-64Z" fill="#deb776" stroke="#deb776" stroke-width="1.51"></path><path d="M-96,-101L-103,-11L-64,-23Z" fill="#deb676" stroke="#deb676" stroke-width="1.51"></path><path d="M-148,111L-103,-11L-96,-101Z" fill="#d9b371" stroke="#d9b371" stroke-width="1.51"></path><path d="M-148,111L-112,257L-111,163Z" fill="#c2a45a" stroke="#c2a45a" stroke-width="1.51"></path></svg>