<svg width="300" height="176" xmlns="http://www.w3.org/2000/svg"><path d="M135,107L86,114L168,175Z" fill="#9c8e32" stroke="#9c8e32" stroke-width="1.51"></path><path d="M86,114L89,251L168,175Z" fill="#9a8a32" stroke="#9a8a32" stroke-width="1.51"></path><path d="M30,163L89,251L86,114Z" fill="#aa9342" stroke="#aa9342" stroke-width="1.51"></path><path d="M168,175L247,54L135,107Z" fill="#958a2b" stroke="#958a2b" stroke-width="1.51"></path><path d="M174,258L220,194L168,175Z" fill="#8b8021" stroke="#8b8021" stroke-width="1.51"></path><path d="M89,251L174,258L168,175Z" fill="#918527" stroke="#918527" stroke-width="1.51"></path><path d="M30,163L-3,263L89,251Z" fill="#b3984c" stroke="#b3984c" stroke-width="1.51"></path><path d="M89,251L-3,263L174,258Z" fill="#a38f3c" stroke="#a38f3c" stroke-width="1.51"></path><path d="M86,114L-43,117L30,163Z" fill="#bfa257" stroke="#bfa257" stroke-width="1.51"></path><path d="M30,163L-57,185L-3,263Z" fill="#c09f59" stroke="#c09f59" stroke-width="1.51"></path><path d="M-26,28L-43,117L86,114Z" fill="#ccac64" stroke="#ccac64" stroke-width="1.51"></path><path d="M220,194L247,54L168,175Z" fill="#8e8325" stroke="#8e8325" stroke-width="1.51"></path><path d="M135,107L121,-35L86,114Z" fill="#b69f4e" stroke="#b69f4e" stroke-width="1.51"></path><path d="M220,194L362,182L247,54Z" fill="#897e1e" stroke="#897e1e" stroke-width="1.51"></path><path d="M174,258L259,259L220,194Z" fill="#897e1f" stroke="#897e1f" stroke-width="1.51"></path><path d="M313,288L259,259L174,258Z" fill="#867b1c" stroke="#867b1c" stroke-width="1.51"></path><path d="M-43,117L-57,185L30,163Z" fill="#c3a25c" stroke="#c3a25c" stroke-width="1.51"></path><path d="M247,54L237,11L135,107Z" fill="#a89540" stroke="#a89540" stroke-width="1.51"></path><path d="M237,11L121,-35L135,107Z" fill="#bca254" stroke="#bca254" stroke-width="1.51"></path><path d="M-43,117L-120,114L-57,185Z" fill="#c5a55e" stroke="#c5a55e" stroke-width="1.51"></path><path d="M48,-35L-26,28L86,114Z" fill="#dfb677" stroke="#dfb677" stroke-width="1.51"></path><path d="M121,-35L48,-35L86,114Z" fill="#dab472" stroke="#dab472" stroke-width="1.51"></path><path d="M259,259L362,182L220,194Z" fill="#837819" stroke="#837819" stroke-width="1.51"></path><path d="M247,54L340,-33L237,11Z" fill="#bc9e55" stroke="#bc9e55" stroke-width="1.51"></path><path d="M-3,263L313,288L174,258Z" fill="#8e8323" stroke="#8e8323" stroke-width="1.51"></path><path d="M-26,28L-120,114L-43,117Z" fill="#cead66" stroke="#cead66" stroke-width="1.51"></path><path d="M-57,185L-108,274L-3,263Z" fill="#c09f59" stroke="#c09f59" stroke-width="1.51"></path><path d="M313,288L362,182L259,259Z" fill="#827717" stroke="#827717" stroke-width="1.51"></path><path d="M121,-35L39,-76L48,-35Z" fill="#e8bc80" stroke="#e8bc80" stroke-width="1.51"></path><path d="M48,-35L-7,-74L-26,28Z" fill="#fdc896" stroke="#fdc896" stroke-width="1.51"></path><path d="M-26,28L-107,-35L-120,114Z" fill="#ebbd83" stroke="#ebbd83" stroke-width="1.51"></path><path d="M175,-113L39,-76L121,-35Z" fill="#dab472" stroke="#dab472" stroke-width="1.51"></path><path d="M-3,263L-108,274L313,288Z" fill="#aa9342" stroke="#aa9342" stroke-width="1.51"></path><path d="M-145,168L-108,274L-57,185Z" fill="#c09f59" stroke="#c09f59" stroke-width="1.51"></path><path d="M362,182L362,86L247,54Z" fill="#8c8122" stroke="#8c8122" stroke-width="1.51"></path><path d="M-120,114L-145,168L-57,185Z" fill="#c3a25c" stroke="#c3a25c" stroke-width="1.51"></path><path d="M39,-76L-7,-74L48,-35Z" fill="#f6c48f" stroke="#f6c48f" stroke-width="1.51"></path><path d="M39,-76L175,-113L-7,-74Z" fill="#e8bc80" stroke="#e8bc80" stroke-width="1.51"></path><path d="M237,11L175,-113L121,-35Z" fill="#cbaa63" stroke="#cbaa63" stroke-width="1.51"></path><path d="M273,-80L175,-113L237,11Z" fill="#c6a55f" stroke="#c6a55f" stroke-width="1.51"></path><path d="M340,-33L273,-80L237,11Z" fill="#c1a15a" stroke="#c1a15a" stroke-width="1.51"></path><path d="M362,86L340,-33L247,54Z" fill="#ac9445" stroke="#ac9445" stroke-width="1.51"></path><path d="M-7,-74L-107,-35L-26,28Z" fill="#ffc998" stroke="#ffc998" stroke-width="1.51"></path><path d="M-120,114L-107,-35L-145,168Z" fill="#d0af68" stroke="#d0af68" stroke-width="1.51"></path><path d="M362,182L425,158L362,86Z" fill="#877c1d" stroke="#877c1d" stroke-width="1.51"></path><path d="M362,86L440,-1L340,-33Z" fill="#b69a4f" stroke="#b69a4f" stroke-width="1.51"></path><path d="M423,272L425,158L362,182Z" fill="#827717" stroke="#827717" stroke-width="1.51"></path><path d="M-7,-74L-103,-62L-107,-35Z" fill="#ffc998" stroke="#ffc998" stroke-width="1.51"></path><path d="M-107,-35L-103,-62L-145,168Z" fill="#f1c18a" stroke="#f1c18a" stroke-width="1.51"></path><path d="M175,-113L-103,-62L-7,-74Z" fill="#f8c590" stroke="#f8c590" stroke-width="1.51"></path><path d="M313,288L423,272L362,182Z" fill="#827717" stroke="#827717" stroke-width="1.51"></path><path d="M423,272L440,78L425,158Z" fill="#837818" stroke="#837818" stroke-width="1.51"></path><path d="M425,158L440,78L362,86Z" fill="#8c8122" stroke="#8c8122" stroke-width="1.51"></path><path d="M435,-62L333,-113L340,-33Z" fill="#c09f59" stroke="#c09f59" stroke-width="1.51"></path><path d="M340,-33L333,-113L273,-80Z" fill="#c09f59" stroke="#c09f59" stroke-width="1.51"></path><path d="M273,-80L333,-113L175,-113Z" fill="#c3a35c" stroke="#c3a35c" stroke-width="1.51"></path><path d="M440,78L440,-1L362,86Z" fill="#a28e3a" stroke="#a28e3a" stroke-width="1.51"></path><path d="M440,-1L435,-62L340,-33Z" fill="#c09f59" stroke="#c09f59" stroke-width="1.51"></path></svg>