<svg width="300" height="176" xmlns="http://www.w3.org/2000/svg"><path d="M34,285L2,300L303,296Z" fill="#958a2c" stroke="#958a2c" stroke-width="1.51"></path><path d="M213,-105L345,-72L425,-101Z" fill="#bbb052" stroke="#bbb052" stroke-width="1.51"></path><path d="M328,91L433,180L447,84Z" fill="#8f8426" stroke="#8f8426" stroke-width="1.51"></path><path d="M425,-101L345,-72L451,9Z" fill="#b0a547" stroke="#b0a547" stroke-width="1.51"></path><path d="M345,-72L315,7L451,9Z" fill="#aa9f40" stroke="#aa9f40" stroke-width="1.51"></path><path d="M328,91L447,84L451,9Z" fill="#978c2d" stroke="#978c2d" stroke-width="1.51"></path><path d="M315,7L328,91L451,9Z" fill="#9e9334" stroke="#9e9334" stroke-width="1.51"></path><path d="M301,167L415,236L433,180Z" fill="#8c8122" stroke="#8c8122" stroke-width="1.51"></path><path d="M328,91L301,167L433,180Z" fill="#908526" stroke="#908526" stroke-width="1.51"></path><path d="M268,244L303,296L415,236Z" fill="#8a7f21" stroke="#8a7f21" stroke-width="1.51"></path><path d="M301,167L268,244L415,236Z" fill="#8d8223" stroke="#8d8223" stroke-width="1.51"></path><path d="M271,184L268,244L301,167Z" fill="#908526" stroke="#908526" stroke-width="1.51"></path><path d="M154,235L34,285L303,296Z" fill="#918626" stroke="#918626" stroke-width="1.51"></path><path d="M231,-9L315,7L345,-72Z" fill="#aea344" stroke="#aea344" stroke-width="1.51"></path><path d="M213,-105L231,-9L345,-72Z" fill="#b8ad4e" stroke="#b8ad4e" stroke-width="1.51"></path><path d="M231,-9L228,115L315,7Z" fill="#a29738" stroke="#a29738" stroke-width="1.51"></path><path d="M315,7L228,115L328,91Z" fill="#998e30" stroke="#998e30" stroke-width="1.51"></path><path d="M228,115L301,167L328,91Z" fill="#94892a" stroke="#94892a" stroke-width="1.51"></path><path d="M183,28L228,115L231,-9Z" fill="#a39838" stroke="#a39838" stroke-width="1.51"></path><path d="M228,115L271,184L301,167Z" fill="#938829" stroke="#938829" stroke-width="1.51"></path><path d="M268,244L154,235L303,296Z" fill="#8e8324" stroke="#8e8324" stroke-width="1.51"></path><path d="M154,235L268,244L271,184Z" fill="#918627" stroke="#918627" stroke-width="1.51"></path><path d="M228,115L154,235L271,184Z" fill="#94882a" stroke="#94882a" stroke-width="1.51"></path><path d="M33,-92L131,-68L213,-105Z" fill="#c6bb5c" stroke="#c6bb5c" stroke-width="1.51"></path><path d="M124,156L154,235L228,115Z" fill="#968b2c" stroke="#968b2c" stroke-width="1.51"></path><path d="M183,28L165,67L228,115Z" fill="#9e9334" stroke="#9e9334" stroke-width="1.51"></path><path d="M213,-105L131,-68L231,-9Z" fill="#bbb050" stroke="#bbb050" stroke-width="1.51"></path><path d="M131,-68L183,28L231,-9Z" fill="#b1a647" stroke="#b1a647" stroke-width="1.51"></path><path d="M165,67L124,156L228,115Z" fill="#998e2f" stroke="#998e2f" stroke-width="1.51"></path><path d="M131,-68L62,28L183,28Z" fill="#b4a94a" stroke="#b4a94a" stroke-width="1.51"></path><path d="M62,28L89,62L183,28Z" fill="#aca142" stroke="#aca142" stroke-width="1.51"></path><path d="M89,62L165,67L183,28Z" fill="#a4993a" stroke="#a4993a" stroke-width="1.51"></path><path d="M89,62L124,156L165,67Z" fill="#9f9435" stroke="#9f9435" stroke-width="1.51"></path><path d="M124,156L53,184L154,235Z" fill="#9c9132" stroke="#9c9132" stroke-width="1.51"></path><path d="M53,184L34,285L154,235Z" fill="#9e9334" stroke="#9e9334" stroke-width="1.51"></path><path d="M-141,-66L-28,-66L33,-92Z" fill="#ded374" stroke="#ded374" stroke-width="1.51"></path><path d="M89,62L53,184L124,156Z" fill="#a39839" stroke="#a39839" stroke-width="1.51"></path><path d="M33,-92L62,28L131,-68Z" fill="#c4b95a" stroke="#c4b95a" stroke-width="1.51"></path><path d="M-42,71L-23,183L53,184Z" fill="#b0a547" stroke="#b0a547" stroke-width="1.51"></path><path d="M33,-92L2,24L62,28Z" fill="#c4b95a" stroke="#c4b95a" stroke-width="1.51"></path><path d="M-42,71L53,184L89,62Z" fill="#ada243" stroke="#ada243" stroke-width="1.51"></path><path d="M62,28L2,24L89,62Z" fill="#b6ab4b" stroke="#b6ab4b" stroke-width="1.51"></path><path d="M2,24L-42,71L89,62Z" fill="#b8ad4e" stroke="#b8ad4e" stroke-width="1.51"></path><path d="M-28,-66L2,24L33,-92Z" fill="#d0c566" stroke="#d0c566" stroke-width="1.51"></path><path d="M-23,183L34,285L53,184Z" fill="#a89d3f" stroke="#a89d3f" stroke-width="1.51"></path><path d="M-23,183L2,300L34,285Z" fill="#a99d3f" stroke="#a99d3f" stroke-width="1.51"></path><path d="M-42,71L-105,158L-23,183Z" fill="#b9ae4f" stroke="#b9ae4f" stroke-width="1.51"></path><path d="M-28,-66L-120,9L2,24Z" fill="#d0c666" stroke="#d0c666" stroke-width="1.51"></path><path d="M-120,9L-42,71L2,24Z" fill="#c7bc5d" stroke="#c7bc5d" stroke-width="1.51"></path><path d="M-23,183L-89,289L2,300Z" fill="#afa445" stroke="#afa445" stroke-width="1.51"></path><path d="M-141,-66L-120,9L-28,-66Z" fill="#ded474" stroke="#ded474" stroke-width="1.51"></path><path d="M-105,158L-89,289L-23,183Z" fill="#b7ac4e" stroke="#b7ac4e" stroke-width="1.51"></path><path d="M-150,54L-105,158L-42,71Z" fill="#c2b758" stroke="#c2b758" stroke-width="1.51"></path><path d="M-120,9L-150,54L-42,71Z" fill="#cdc363" stroke="#cdc363" stroke-width="1.51"></path><path d="M-105,158L-150,54L-89,289Z" fill="#c0b556" stroke="#c0b556" stroke-width="1.51"></path><path d="M-141,-66L-150,54L-120,9Z" fill="#dcd273" stroke="#dcd273" stroke-width="1.51"></path></svg>