<svg width="300" height="176" xmlns="http://www.w3.org/2000/svg"><path d="M90,-116L132,-107L337,-104Z" fill="#c5ba5b" stroke="#c5ba5b" stroke-width="1.51"></path><path d="M350,89L395,160L404,57Z" fill="#918627" stroke="#918627" stroke-width="1.51"></path><path d="M404,57L395,160L430,11Z" fill="#948829" stroke="#948829" stroke-width="1.51"></path><path d="M300,270L265,299L441,253Z" fill="#897e1f" stroke="#897e1f" stroke-width="1.51"></path><path d="M395,160L336,174L441,253Z" fill="#8b8022" stroke="#8b8022" stroke-width="1.51"></path><path d="M336,174L300,270L441,253Z" fill="#8b8021" stroke="#8b8021" stroke-width="1.51"></path><path d="M430,11L395,160L441,253Z" fill="#8e8223" stroke="#8e8223" stroke-width="1.51"></path><path d="M306,-11L404,57L430,11Z" fill="#a19638" stroke="#a19638" stroke-width="1.51"></path><path d="M389,-63L306,-11L430,11Z" fill="#aa9f40" stroke="#aa9f40" stroke-width="1.51"></path><path d="M306,-11L350,89L404,57Z" fill="#9d9133" stroke="#9d9133" stroke-width="1.51"></path><path d="M350,89L336,174L395,160Z" fill="#908526" stroke="#908526" stroke-width="1.51"></path><path d="M120,253L-43,298L265,299Z" fill="#968b2c" stroke="#968b2c" stroke-width="1.51"></path><path d="M337,-104L306,-11L389,-63Z" fill="#b4a94a" stroke="#b4a94a" stroke-width="1.51"></path><path d="M73,255L-43,298L120,253Z" fill="#a19637" stroke="#a19637" stroke-width="1.51"></path><path d="M132,-107L234,-63L337,-104Z" fill="#bfb455" stroke="#bfb455" stroke-width="1.51"></path><path d="M234,-63L306,-11L337,-104Z" fill="#b6ab4d" stroke="#b6ab4d" stroke-width="1.51"></path><path d="M269,75L336,174L350,89Z" fill="#938829" stroke="#938829" stroke-width="1.51"></path><path d="M306,-11L269,75L350,89Z" fill="#9d9233" stroke="#9d9233" stroke-width="1.51"></path><path d="M225,165L300,270L336,174Z" fill="#908525" stroke="#908525" stroke-width="1.51"></path><path d="M269,75L225,165L336,174Z" fill="#938829" stroke="#938829" stroke-width="1.51"></path><path d="M225,165L265,299L300,270Z" fill="#8e8324" stroke="#8e8324" stroke-width="1.51"></path><path d="M247,12L269,75L306,-11Z" fill="#a4993a" stroke="#a4993a" stroke-width="1.51"></path><path d="M234,-63L247,12L306,-11Z" fill="#afa445" stroke="#afa445" stroke-width="1.51"></path><path d="M225,165L120,253L265,299Z" fill="#918627" stroke="#918627" stroke-width="1.51"></path><path d="M247,12L143,76L269,75Z" fill="#a09536" stroke="#a09536" stroke-width="1.51"></path><path d="M143,76L225,165L269,75Z" fill="#988d2e" stroke="#988d2e" stroke-width="1.51"></path><path d="M129,177L120,253L225,165Z" fill="#958a2b" stroke="#958a2b" stroke-width="1.51"></path><path d="M168,-10L143,76L247,12Z" fill="#a89d3e" stroke="#a89d3e" stroke-width="1.51"></path><path d="M234,-63L168,-10L247,12Z" fill="#b0a547" stroke="#b0a547" stroke-width="1.51"></path><path d="M-111,-74L-6,-78L90,-116Z" fill="#dbd171" stroke="#dbd171" stroke-width="1.51"></path><path d="M143,76L129,177L225,165Z" fill="#988d2e" stroke="#988d2e" stroke-width="1.51"></path><path d="M132,-107L168,-10L234,-63Z" fill="#bbb051" stroke="#bbb051" stroke-width="1.51"></path><path d="M87,85L129,177L143,76Z" fill="#9f9435" stroke="#9f9435" stroke-width="1.51"></path><path d="M78,-13L143,76L168,-10Z" fill="#aea344" stroke="#aea344" stroke-width="1.51"></path><path d="M132,-107L78,-13L168,-10Z" fill="#bcb152" stroke="#bcb152" stroke-width="1.51"></path><path d="M87,85L60,165L129,177Z" fill="#a29737" stroke="#a29737" stroke-width="1.51"></path><path d="M73,255L120,253L129,177Z" fill="#9a8f30" stroke="#9a8f30" stroke-width="1.51"></path><path d="M90,-116L78,-13L132,-107Z" fill="#c8bd5e" stroke="#c8bd5e" stroke-width="1.51"></path><path d="M78,-13L87,85L143,76Z" fill="#aca141" stroke="#aca141" stroke-width="1.51"></path><path d="M60,165L73,255L129,177Z" fill="#9f9435" stroke="#9f9435" stroke-width="1.51"></path><path d="M60,165L-10,203L73,255Z" fill="#a69b3c" stroke="#a69b3c" stroke-width="1.51"></path><path d="M78,-13L-43,68L87,85Z" fill="#b6ab4c" stroke="#b6ab4c" stroke-width="1.51"></path><path d="M-43,68L60,165L87,85Z" fill="#ada243" stroke="#ada243" stroke-width="1.51"></path><path d="M-6,-78L78,-13L90,-116Z" fill="#cdc263" stroke="#cdc263" stroke-width="1.51"></path><path d="M-6,-78L-62,20L78,-13Z" fill="#cac061" stroke="#cac061" stroke-width="1.51"></path><path d="M-62,20L-43,68L78,-13Z" fill="#c2b758" stroke="#c2b758" stroke-width="1.51"></path><path d="M-10,203L-43,298L73,255Z" fill="#a89d3f" stroke="#a89d3f" stroke-width="1.51"></path><path d="M-43,68L-10,203L60,165Z" fill="#afa446" stroke="#afa446" stroke-width="1.51"></path><path d="M-96,72L-95,184L-43,68Z" fill="#beb354" stroke="#beb354" stroke-width="1.51"></path><path d="M-100,272L-43,298L-10,203Z" fill="#b1a648" stroke="#b1a648" stroke-width="1.51"></path><path d="M-95,184L-100,272L-10,203Z" fill="#b6ab4c" stroke="#b6ab4c" stroke-width="1.51"></path><path d="M-43,68L-95,184L-10,203Z" fill="#b7ac4d" stroke="#b7ac4d" stroke-width="1.51"></path><path d="M-111,-74L-62,20L-6,-78Z" fill="#d9cf70" stroke="#d9cf70" stroke-width="1.51"></path><path d="M-111,-74L-129,21L-62,20Z" fill="#d8ce6f" stroke="#d8ce6f" stroke-width="1.51"></path><path d="M-62,20L-96,72L-43,68Z" fill="#c5bb5b" stroke="#c5bb5b" stroke-width="1.51"></path><path d="M-129,21L-96,72L-62,20Z" fill="#cdc363" stroke="#cdc363" stroke-width="1.51"></path><path d="M-96,72L-129,21L-95,184Z" fill="#c3b95a" stroke="#c3b95a" stroke-width="1.51"></path><path d="M-129,21L-100,272L-95,184Z" fill="#c0b556" stroke="#c0b556" stroke-width="1.51"></path></svg>