<svg width="300" height="176" xmlns="http://www.w3.org/2000/svg"><path d="M164,90L156,155L217,96Z" fill="#998e2f" stroke="#998e2f" stroke-width="1.51"></path><path d="M156,155L233,210L217,96Z" fill="#968b2c" stroke="#968b2c" stroke-width="1.51"></path><path d="M164,90L69,104L156,155Z" fill="#9d9133" stroke="#9d9133" stroke-width="1.51"></path><path d="M170,277L247,240L233,210Z" fill="#908526" stroke="#908526" stroke-width="1.51"></path><path d="M217,96L137,9L164,90Z" fill="#a09336" stroke="#a09336" stroke-width="1.51"></path><path d="M164,90L137,9L69,104Z" fill="#a5963b" stroke="#a5963b" stroke-width="1.51"></path><path d="M233,210L302,196L217,96Z" fill="#938829" stroke="#938829" stroke-width="1.51"></path><path d="M170,277L233,210L156,155Z" fill="#938829" stroke="#938829" stroke-width="1.51"></path><path d="M247,240L302,196L233,210Z" fill="#908526" stroke="#908526" stroke-width="1.51"></path><path d="M69,104L48,174L156,155Z" fill="#a19238" stroke="#a19238" stroke-width="1.51"></path><path d="M91,289L170,277L156,155Z" fill="#94892b" stroke="#94892b" stroke-width="1.51"></path><path d="M217,96L242,-29L137,9Z" fill="#a7963e" stroke="#a7963e" stroke-width="1.51"></path><path d="M302,196L331,66L217,96Z" fill="#94892a" stroke="#94892a" stroke-width="1.51"></path><path d="M322,5L242,-29L217,96Z" fill="#a5943c" stroke="#a5943c" stroke-width="1.51"></path><path d="M69,104L-2,107L48,174Z" fill="#ab9842" stroke="#ab9842" stroke-width="1.51"></path><path d="M137,9L42,22L69,104Z" fill="#b09c47" stroke="#b09c47" stroke-width="1.51"></path><path d="M89,-65L42,22L137,9Z" fill="#bba353" stroke="#bba353" stroke-width="1.51"></path><path d="M331,66L322,5L217,96Z" fill="#9d8f33" stroke="#9d8f33" stroke-width="1.51"></path><path d="M440,146L417,55L331,66Z" fill="#928727" stroke="#928727" stroke-width="1.51"></path><path d="M247,240L328,245L302,196Z" fill="#8e8324" stroke="#8e8324" stroke-width="1.51"></path><path d="M170,277L328,245L247,240Z" fill="#8e8324" stroke="#8e8324" stroke-width="1.51"></path><path d="M48,174L91,289L156,155Z" fill="#9d8e34" stroke="#9d8e34" stroke-width="1.51"></path><path d="M42,22L-2,107L69,104Z" fill="#af9c47" stroke="#af9c47" stroke-width="1.51"></path><path d="M48,174L-2,258L91,289Z" fill="#a3913b" stroke="#a3913b" stroke-width="1.51"></path><path d="M149,-123L89,-65L137,9Z" fill="#c0a558" stroke="#c0a558" stroke-width="1.51"></path><path d="M-2,107L-21,206L48,174Z" fill="#ad9945" stroke="#ad9945" stroke-width="1.51"></path><path d="M-2,107L-122,197L-21,206Z" fill="#b69d4e" stroke="#b69d4e" stroke-width="1.51"></path><path d="M42,22L-11,23L-2,107Z" fill="#baa251" stroke="#baa251" stroke-width="1.51"></path><path d="M89,-65L-11,23L42,22Z" fill="#c1a65a" stroke="#c1a65a" stroke-width="1.51"></path><path d="M331,66L387,24L322,5Z" fill="#a09037" stroke="#a09037" stroke-width="1.51"></path><path d="M328,-72L262,-86L242,-29Z" fill="#b79e4f" stroke="#b79e4f" stroke-width="1.51"></path><path d="M417,55L387,24L331,66Z" fill="#9b8c32" stroke="#9b8c32" stroke-width="1.51"></path><path d="M242,-29L149,-123L137,9Z" fill="#b8a150" stroke="#b8a150" stroke-width="1.51"></path><path d="M328,-72L242,-29L322,5Z" fill="#b09a47" stroke="#b09a47" stroke-width="1.51"></path><path d="M-21,206L-2,258L48,174Z" fill="#ab9642" stroke="#ab9642" stroke-width="1.51"></path><path d="M440,146L331,66L302,196Z" fill="#908526" stroke="#908526" stroke-width="1.51"></path><path d="M411,-100L328,-72L387,24Z" fill="#b09849" stroke="#b09849" stroke-width="1.51"></path><path d="M387,24L328,-72L322,5Z" fill="#aa9542" stroke="#aa9542" stroke-width="1.51"></path><path d="M262,-86L149,-123L242,-29Z" fill="#bda256" stroke="#bda256" stroke-width="1.51"></path><path d="M-64,-91L-88,8L-11,23Z" fill="#d3b06b" stroke="#d3b06b" stroke-width="1.51"></path><path d="M411,-100L149,-123L262,-86Z" fill="#c1a358" stroke="#c1a358" stroke-width="1.51"></path><path d="M328,245L440,146L302,196Z" fill="#8d8223" stroke="#8d8223" stroke-width="1.51"></path><path d="M328,245L425,272L440,146Z" fill="#8a7f20" stroke="#8a7f20" stroke-width="1.51"></path><path d="M170,277L425,272L328,245Z" fill="#8b8021" stroke="#8b8021" stroke-width="1.51"></path><path d="M91,289L425,272L170,277Z" fill="#8d8223" stroke="#8d8223" stroke-width="1.51"></path><path d="M-64,-91L-11,23L89,-65Z" fill="#cfae68" stroke="#cfae68" stroke-width="1.51"></path><path d="M-11,23L-118,73L-2,107Z" fill="#bfa456" stroke="#bfa456" stroke-width="1.51"></path><path d="M-88,8L-118,73L-11,23Z" fill="#caab62" stroke="#caab62" stroke-width="1.51"></path><path d="M-21,206L-141,285L-2,258Z" fill="#b2994b" stroke="#b2994b" stroke-width="1.51"></path><path d="M-118,73L-122,197L-2,107Z" fill="#bea356" stroke="#bea356" stroke-width="1.51"></path><path d="M328,-72L411,-100L262,-86Z" fill="#ba9f53" stroke="#ba9f53" stroke-width="1.51"></path><path d="M417,55L411,-100L387,24Z" fill="#a6923e" stroke="#a6923e" stroke-width="1.51"></path><path d="M440,146L411,-100L417,55Z" fill="#9c8c34" stroke="#9c8c34" stroke-width="1.51"></path><path d="M149,-123L-64,-91L89,-65Z" fill="#d2af6a" stroke="#d2af6a" stroke-width="1.51"></path><path d="M-88,8L-139,-86L-118,73Z" fill="#d9b371" stroke="#d9b371" stroke-width="1.51"></path><path d="M-122,197L-141,285L-21,206Z" fill="#ba9e52" stroke="#ba9e52" stroke-width="1.51"></path><path d="M-2,258L-141,285L91,289Z" fill="#ab9543" stroke="#ab9543" stroke-width="1.51"></path><path d="M-118,73L-141,285L-122,197Z" fill="#c2a45a" stroke="#c2a45a" stroke-width="1.51"></path><path d="M-118,73L-139,-86L-141,285Z" fill="#c8aa60" stroke="#c8aa60" stroke-width="1.51"></path><path d="M-64,-91L-139,-86L-88,8Z" fill="#e2b97a" stroke="#e2b97a" stroke-width="1.51"></path><path d="M149,-123L-139,-86L-64,-91Z" fill="#dfb777" stroke="#dfb777" stroke-width="1.51"></path></svg>