<svg width="300" height="176" xmlns="http://www.w3.org/2000/svg"><path d="M120,265L48,292L356,297Z" fill="#8f8425" stroke="#8f8425" stroke-width="1.51"></path><path d="M355,114L346,166L394,211Z" fill="#8e8325" stroke="#8e8325" stroke-width="1.51"></path><path d="M355,114L394,211L437,82Z" fill="#8f8425" stroke="#8f8425" stroke-width="1.51"></path><path d="M339,-35L355,114L437,82Z" fill="#9a8b31" stroke="#9a8b31" stroke-width="1.51"></path><path d="M394,211L417,284L437,82Z" fill="#8b8020" stroke="#8b8020" stroke-width="1.51"></path><path d="M339,-35L437,82L438,-36Z" fill="#a4913b" stroke="#a4913b" stroke-width="1.51"></path><path d="M226,-95L324,-68L439,-90Z" fill="#ba9f52" stroke="#ba9f52" stroke-width="1.51"></path><path d="M142,-124L226,-95L439,-90Z" fill="#c1a359" stroke="#c1a359" stroke-width="1.51"></path><path d="M339,-35L438,-36L439,-90Z" fill="#b09848" stroke="#b09848" stroke-width="1.51"></path><path d="M324,-68L339,-35L439,-90Z" fill="#b49b4d" stroke="#b49b4d" stroke-width="1.51"></path><path d="M263,247L120,265L356,297Z" fill="#8d8223" stroke="#8d8223" stroke-width="1.51"></path><path d="M394,211L356,297L417,284Z" fill="#887d1e" stroke="#887d1e" stroke-width="1.51"></path><path d="M339,-35L268,-12L355,114Z" fill="#a3923a" stroke="#a3923a" stroke-width="1.51"></path><path d="M263,247L356,297L394,211Z" fill="#8a7f21" stroke="#8a7f21" stroke-width="1.51"></path><path d="M346,166L263,247L394,211Z" fill="#8e8223" stroke="#8e8223" stroke-width="1.51"></path><path d="M268,-12L215,83L355,114Z" fill="#9c8e33" stroke="#9c8e33" stroke-width="1.51"></path><path d="M217,147L346,166L355,114Z" fill="#928728" stroke="#928728" stroke-width="1.51"></path><path d="M215,83L217,147L355,114Z" fill="#968b2b" stroke="#968b2b" stroke-width="1.51"></path><path d="M217,147L263,247L346,166Z" fill="#928626" stroke="#928626" stroke-width="1.51"></path><path d="M324,-68L268,-12L339,-35Z" fill="#b19a48" stroke="#b19a48" stroke-width="1.51"></path><path d="M226,-95L268,-12L324,-68Z" fill="#b79e4e" stroke="#b79e4e" stroke-width="1.51"></path><path d="M217,147L158,190L263,247Z" fill="#938829" stroke="#938829" stroke-width="1.51"></path><path d="M226,-95L147,31L268,-12Z" fill="#b29c49" stroke="#b29c49" stroke-width="1.51"></path><path d="M147,31L215,83L268,-12Z" fill="#a5953c" stroke="#a5953c" stroke-width="1.51"></path><path d="M158,190L120,265L263,247Z" fill="#928728" stroke="#928728" stroke-width="1.51"></path><path d="M215,83L167,113L217,147Z" fill="#988d2e" stroke="#988d2e" stroke-width="1.51"></path><path d="M142,-124L147,31L226,-95Z" fill="#bca253" stroke="#bca253" stroke-width="1.51"></path><path d="M147,31L167,113L215,83Z" fill="#9d9133" stroke="#9d9133" stroke-width="1.51"></path><path d="M167,113L158,190L217,147Z" fill="#978c2d" stroke="#978c2d" stroke-width="1.51"></path><path d="M52,-75L64,-12L142,-124Z" fill="#c8aa61" stroke="#c8aa61" stroke-width="1.51"></path><path d="M142,-124L64,-12L147,31Z" fill="#bca353" stroke="#bca353" stroke-width="1.51"></path><path d="M147,31L37,57L167,113Z" fill="#a5963c" stroke="#a5963c" stroke-width="1.51"></path><path d="M57,198L158,190L167,113Z" fill="#9b8e31" stroke="#9b8e31" stroke-width="1.51"></path><path d="M37,57L57,198L167,113Z" fill="#a4943a" stroke="#a4943a" stroke-width="1.51"></path><path d="M-52,-121L52,-75L142,-124Z" fill="#d6b26e" stroke="#d6b26e" stroke-width="1.51"></path><path d="M57,198L120,265L158,190Z" fill="#9a8d30" stroke="#9a8d30" stroke-width="1.51"></path><path d="M64,-12L37,57L147,31Z" fill="#b49e4b" stroke="#b49e4b" stroke-width="1.51"></path><path d="M57,198L48,292L120,265Z" fill="#9e8e35" stroke="#9e8e35" stroke-width="1.51"></path><path d="M-36,71L-12,186L37,57Z" fill="#b39d4a" stroke="#b39d4a" stroke-width="1.51"></path><path d="M-12,186L-37,282L48,292Z" fill="#aa9542" stroke="#aa9542" stroke-width="1.51"></path><path d="M-12,186L48,292L57,198Z" fill="#a6933e" stroke="#a6933e" stroke-width="1.51"></path><path d="M37,57L-12,186L57,198Z" fill="#ab9843" stroke="#ab9843" stroke-width="1.51"></path><path d="M52,-75L-36,-17L64,-12Z" fill="#caab62" stroke="#caab62" stroke-width="1.51"></path><path d="M-36,-17L37,57L64,-12Z" fill="#c1a659" stroke="#c1a659" stroke-width="1.51"></path><path d="M-52,-121L-36,-17L52,-75Z" fill="#d8b370" stroke="#d8b370" stroke-width="1.51"></path><path d="M-36,-17L-36,71L37,57Z" fill="#c0a658" stroke="#c0a658" stroke-width="1.51"></path><path d="M-52,-121L-118,-63L-36,-17Z" fill="#e0b878" stroke="#e0b878" stroke-width="1.51"></path><path d="M-36,-17L-100,55L-36,71Z" fill="#c7aa5f" stroke="#c7aa5f" stroke-width="1.51"></path><path d="M-100,55L-101,198L-36,71Z" fill="#bfa456" stroke="#bfa456" stroke-width="1.51"></path><path d="M-36,71L-101,198L-12,186Z" fill="#b79f4f" stroke="#b79f4f" stroke-width="1.51"></path><path d="M-101,198L-37,282L-12,186Z" fill="#b39a4c" stroke="#b39a4c" stroke-width="1.51"></path><path d="M-101,198L-124,264L-37,282Z" fill="#b79c50" stroke="#b79c50" stroke-width="1.51"></path><path d="M-127,14L-100,55L-36,-17Z" fill="#d0ae68" stroke="#d0ae68" stroke-width="1.51"></path><path d="M-118,-63L-127,14L-36,-17Z" fill="#dab472" stroke="#dab472" stroke-width="1.51"></path><path d="M-127,14L-124,264L-101,198Z" fill="#c2a459" stroke="#c2a459" stroke-width="1.51"></path><path d="M-127,14L-101,198L-100,55Z" fill="#c4a85c" stroke="#c4a85c" stroke-width="1.51"></path></svg>