<svg width="300" height="176" xmlns="http://www.w3.org/2000/svg"><path d="M158,87L178,157L234,169Z" fill="#978c2d" stroke="#978c2d" stroke-width="1.51"></path><path d="M234,169L272,71L158,87Z" fill="#988d2d" stroke="#988d2d" stroke-width="1.51"></path><path d="M272,71L273,-17L158,87Z" fill="#a19238" stroke="#a19238" stroke-width="1.51"></path><path d="M272,71L343,-3L273,-17Z" fill="#a5933c" stroke="#a5933c" stroke-width="1.51"></path><path d="M358,149L356,98L272,71Z" fill="#938829" stroke="#938829" stroke-width="1.51"></path><path d="M234,169L358,149L272,71Z" fill="#948829" stroke="#948829" stroke-width="1.51"></path><path d="M178,157L157,240L234,169Z" fill="#94892a" stroke="#94892a" stroke-width="1.51"></path><path d="M49,208L157,240L178,157Z" fill="#998c2f" stroke="#998c2f" stroke-width="1.51"></path><path d="M331,255L358,149L234,169Z" fill="#908425" stroke="#908425" stroke-width="1.51"></path><path d="M158,87L49,208L178,157Z" fill="#9c8f32" stroke="#9c8f32" stroke-width="1.51"></path><path d="M273,-17L138,-17L158,87Z" fill="#aa9840" stroke="#aa9840" stroke-width="1.51"></path><path d="M138,-17L90,7L158,87Z" fill="#ad9a43" stroke="#ad9a43" stroke-width="1.51"></path><path d="M356,98L343,-3L272,71Z" fill="#9c8e32" stroke="#9c8e32" stroke-width="1.51"></path><path d="M157,240L218,289L234,169Z" fill="#918627" stroke="#918627" stroke-width="1.51"></path><path d="M90,7L42,58L158,87Z" fill="#ad9a43" stroke="#ad9a43" stroke-width="1.51"></path><path d="M218,289L331,255L234,169Z" fill="#8f8424" stroke="#8f8424" stroke-width="1.51"></path><path d="M273,-17L149,-66L138,-17Z" fill="#b59e4c" stroke="#b59e4c" stroke-width="1.51"></path><path d="M138,-17L80,-84L90,7Z" fill="#bda355" stroke="#bda355" stroke-width="1.51"></path><path d="M90,7L-9,18L42,58Z" fill="#baa251" stroke="#baa251" stroke-width="1.51"></path><path d="M222,-109L149,-66L273,-17Z" fill="#bba152" stroke="#bba152" stroke-width="1.51"></path><path d="M42,58L49,208L158,87Z" fill="#a5953b" stroke="#a5953b" stroke-width="1.51"></path><path d="M157,240L33,293L218,289Z" fill="#938729" stroke="#938729" stroke-width="1.51"></path><path d="M346,-94L222,-109L273,-17Z" fill="#ba9f52" stroke="#ba9f52" stroke-width="1.51"></path><path d="M403,280L444,158L358,149Z" fill="#8b8021" stroke="#8b8021" stroke-width="1.51"></path><path d="M358,149L444,158L356,98Z" fill="#8f8425" stroke="#8f8425" stroke-width="1.51"></path><path d="M356,98L452,60L343,-3Z" fill="#9a8c31" stroke="#9a8c31" stroke-width="1.51"></path><path d="M222,-109L80,-84L149,-66Z" fill="#c2a65a" stroke="#c2a65a" stroke-width="1.51"></path><path d="M149,-66L80,-84L138,-17Z" fill="#c0a557" stroke="#c0a557" stroke-width="1.51"></path><path d="M343,-3L346,-94L273,-17Z" fill="#b09948" stroke="#b09948" stroke-width="1.51"></path><path d="M444,158L452,60L356,98Z" fill="#908525" stroke="#908525" stroke-width="1.51"></path><path d="M419,-30L346,-94L343,-3Z" fill="#af9847" stroke="#af9847" stroke-width="1.51"></path><path d="M452,60L419,-30L343,-3Z" fill="#a2903a" stroke="#a2903a" stroke-width="1.51"></path><path d="M-9,18L-26,111L42,58Z" fill="#b8a150" stroke="#b8a150" stroke-width="1.51"></path><path d="M42,58L-26,111L49,208Z" fill="#ae9a45" stroke="#ae9a45" stroke-width="1.51"></path><path d="M80,-84L-9,18L90,7Z" fill="#c2a75a" stroke="#c2a75a" stroke-width="1.51"></path><path d="M218,289L403,280L331,255Z" fill="#8a7f20" stroke="#8a7f20" stroke-width="1.51"></path><path d="M331,255L403,280L358,149Z" fill="#8b8020" stroke="#8b8020" stroke-width="1.51"></path><path d="M-9,286L33,293L49,208Z" fill="#a5923d" stroke="#a5923d" stroke-width="1.51"></path><path d="M49,208L33,293L157,240Z" fill="#9e8e35" stroke="#9e8e35" stroke-width="1.51"></path><path d="M452,60L441,-62L419,-30Z" fill="#a5913d" stroke="#a5913d" stroke-width="1.51"></path><path d="M419,-30L441,-62L346,-94Z" fill="#b2994b" stroke="#b2994b" stroke-width="1.51"></path><path d="M-26,111L-63,154L49,208Z" fill="#b19b49" stroke="#b19b49" stroke-width="1.51"></path><path d="M-139,155L-63,154L-149,115Z" fill="#c3a55a" stroke="#c3a55a" stroke-width="1.51"></path><path d="M-63,154L-9,286L49,208Z" fill="#ad9745" stroke="#ad9745" stroke-width="1.51"></path><path d="M-9,18L-97,-20L-26,111Z" fill="#c5a85d" stroke="#c5a85d" stroke-width="1.51"></path><path d="M80,-84L-61,-62L-9,18Z" fill="#cfae67" stroke="#cfae67" stroke-width="1.51"></path><path d="M-132,-73L-61,-62L80,-84Z" fill="#ddb575" stroke="#ddb575" stroke-width="1.51"></path><path d="M-61,-62L-97,-20L-9,18Z" fill="#d4b06c" stroke="#d4b06c" stroke-width="1.51"></path><path d="M-63,154L-106,249L-9,286Z" fill="#b49b4d" stroke="#b49b4d" stroke-width="1.51"></path><path d="M-139,155L-106,249L-63,154Z" fill="#bea256" stroke="#bea256" stroke-width="1.51"></path><path d="M-149,115L-63,154L-26,111Z" fill="#bda355" stroke="#bda355" stroke-width="1.51"></path><path d="M-97,-20L-149,115L-26,111Z" fill="#c5a95d" stroke="#c5a95d" stroke-width="1.51"></path><path d="M-97,-20L-132,-73L-149,115Z" fill="#d9b371" stroke="#d9b371" stroke-width="1.51"></path><path d="M-61,-62L-132,-73L-97,-20Z" fill="#e1b879" stroke="#e1b879" stroke-width="1.51"></path><path d="M222,-109L-132,-73L80,-84Z" fill="#d1af69" stroke="#d1af69" stroke-width="1.51"></path></svg>