<svg width="300" height="176" xmlns="http://www.w3.org/2000/svg"><path d="M127,104L45,62L58,158Z" fill="#b19b48" stroke="#b19b48" stroke-width="1.51"></path><path d="M45,62L-16,64L58,158Z" fill="#c3a65a" stroke="#c3a65a" stroke-width="1.51"></path><path d="M-16,64L-7,211L58,158Z" fill="#c0a259" stroke="#c0a259" stroke-width="1.51"></path><path d="M58,158L166,206L127,104Z" fill="#9d8d33" stroke="#9d8d33" stroke-width="1.51"></path><path d="M116,260L166,206L58,158Z" fill="#9b8b32" stroke="#9b8b32" stroke-width="1.51"></path><path d="M172,-30L47,-34L45,62Z" fill="#e2b87a" stroke="#e2b87a" stroke-width="1.51"></path><path d="M45,62L-13,-23L-16,64Z" fill="#e9bd82" stroke="#e9bd82" stroke-width="1.51"></path><path d="M127,104L172,-30L45,62Z" fill="#bfa557" stroke="#bfa557" stroke-width="1.51"></path><path d="M166,206L221,93L127,104Z" fill="#938829" stroke="#938829" stroke-width="1.51"></path><path d="M47,-34L-13,-23L45,62Z" fill="#f5c38e" stroke="#f5c38e" stroke-width="1.51"></path><path d="M-7,211L116,260L58,158Z" fill="#ad9546" stroke="#ad9546" stroke-width="1.51"></path><path d="M215,-8L172,-30L127,104Z" fill="#bfa456" stroke="#bfa456" stroke-width="1.51"></path><path d="M166,206L219,194L221,93Z" fill="#8c8122" stroke="#8c8122" stroke-width="1.51"></path><path d="M217,275L219,194L166,206Z" fill="#8a7f20" stroke="#8a7f20" stroke-width="1.51"></path><path d="M-7,211L47,292L116,260Z" fill="#ae9548" stroke="#ae9548" stroke-width="1.51"></path><path d="M-16,64L-87,183L-7,211Z" fill="#c3a35c" stroke="#c3a35c" stroke-width="1.51"></path><path d="M-134,72L-87,183L-16,64Z" fill="#cbaa63" stroke="#cbaa63" stroke-width="1.51"></path><path d="M221,93L215,-8L127,104Z" fill="#a6953d" stroke="#a6953d" stroke-width="1.51"></path><path d="M-9,288L47,292L-7,211Z" fill="#bc9d56" stroke="#bc9d56" stroke-width="1.51"></path><path d="M-13,-23L-91,12L-16,64Z" fill="#f5c38d" stroke="#f5c38d" stroke-width="1.51"></path><path d="M47,-34L-47,-74L-13,-23Z" fill="#ffc998" stroke="#ffc998" stroke-width="1.51"></path><path d="M172,-30L158,-68L47,-34Z" fill="#d5b16d" stroke="#d5b16d" stroke-width="1.51"></path><path d="M231,-79L158,-68L172,-30Z" fill="#caa962" stroke="#caa962" stroke-width="1.51"></path><path d="M-97,283L-9,288L-7,211Z" fill="#c09f59" stroke="#c09f59" stroke-width="1.51"></path><path d="M-91,12L-134,72L-16,64Z" fill="#e3b97b" stroke="#e3b97b" stroke-width="1.51"></path><path d="M-91,12L-97,-93L-134,72Z" fill="#ffc998" stroke="#ffc998" stroke-width="1.51"></path><path d="M-13,-23L-47,-74L-91,12Z" fill="#ffc998" stroke="#ffc998" stroke-width="1.51"></path><path d="M88,-116L-47,-74L47,-34Z" fill="#f5c38e" stroke="#f5c38e" stroke-width="1.51"></path><path d="M47,292L217,275L116,260Z" fill="#96882d" stroke="#96882d" stroke-width="1.51"></path><path d="M116,260L217,275L166,206Z" fill="#8d8223" stroke="#8d8223" stroke-width="1.51"></path><path d="M158,-68L88,-116L47,-34Z" fill="#deb677" stroke="#deb677" stroke-width="1.51"></path><path d="M215,-8L231,-79L172,-30Z" fill="#c8a861" stroke="#c8a861" stroke-width="1.51"></path><path d="M221,93L303,69L215,-8Z" fill="#a89440" stroke="#a89440" stroke-width="1.51"></path><path d="M324,198L303,69L221,93Z" fill="#8b8021" stroke="#8b8021" stroke-width="1.51"></path><path d="M324,198L221,93L219,194Z" fill="#887d1e" stroke="#887d1e" stroke-width="1.51"></path><path d="M334,-30L231,-79L215,-8Z" fill="#c3a35c" stroke="#c3a35c" stroke-width="1.51"></path><path d="M158,-68L231,-79L88,-116Z" fill="#ccac64" stroke="#ccac64" stroke-width="1.51"></path><path d="M-87,183L-97,283L-7,211Z" fill="#c09f59" stroke="#c09f59" stroke-width="1.51"></path><path d="M-9,288L-97,283L47,292Z" fill="#c09f59" stroke="#c09f59" stroke-width="1.51"></path><path d="M-134,72L-97,283L-87,183Z" fill="#c09f59" stroke="#c09f59" stroke-width="1.51"></path><path d="M88,-116L-97,-93L-47,-74Z" fill="#ffc998" stroke="#ffc998" stroke-width="1.51"></path><path d="M-47,-74L-97,-93L-91,12Z" fill="#ffc998" stroke="#ffc998" stroke-width="1.51"></path><path d="M217,275L324,198L219,194Z" fill="#867b1c" stroke="#867b1c" stroke-width="1.51"></path><path d="M303,69L334,-30L215,-8Z" fill="#bb9d54" stroke="#bb9d54" stroke-width="1.51"></path><path d="M388,24L334,-30L303,69Z" fill="#b4984d" stroke="#b4984d" stroke-width="1.51"></path><path d="M426,108L388,24L303,69Z" fill="#9a8a32" stroke="#9a8a32" stroke-width="1.51"></path><path d="M217,275L339,253L324,198Z" fill="#827718" stroke="#827718" stroke-width="1.51"></path><path d="M334,-30L311,-107L231,-79Z" fill="#c0a05a" stroke="#c0a05a" stroke-width="1.51"></path><path d="M231,-79L311,-107L88,-116Z" fill="#c8a760" stroke="#c8a760" stroke-width="1.51"></path><path d="M334,-30L412,-65L311,-107Z" fill="#c09f59" stroke="#c09f59" stroke-width="1.51"></path><path d="M395,173L303,69L324,198Z" fill="#867b1c" stroke="#867b1c" stroke-width="1.51"></path><path d="M339,253L395,173L324,198Z" fill="#827717" stroke="#827717" stroke-width="1.51"></path><path d="M395,173L426,108L303,69Z" fill="#8a7f20" stroke="#8a7f20" stroke-width="1.51"></path><path d="M388,24L412,-65L334,-30Z" fill="#c09f59" stroke="#c09f59" stroke-width="1.51"></path><path d="M426,108L412,-65L388,24Z" fill="#b3984c" stroke="#b3984c" stroke-width="1.51"></path><path d="M426,108L447,291L412,-65Z" fill="#8b8021" stroke="#8b8021" stroke-width="1.51"></path><path d="M395,173L447,291L426,108Z" fill="#827717" stroke="#827717" stroke-width="1.51"></path><path d="M339,253L447,291L395,173Z" fill="#827717" stroke="#827717" stroke-width="1.51"></path><path d="M217,275L447,291L339,253Z" fill="#827717" stroke="#827717" stroke-width="1.51"></path><path d="M47,292L447,291L217,275Z" fill="#877c1d" stroke="#877c1d" stroke-width="1.51"></path></svg>