<svg width="300" height="176" xmlns="http://www.w3.org/2000/svg"><path d="M135,99L89,71L90,159Z" fill="#a19338" stroke="#a19338" stroke-width="1.51"></path><path d="M90,159L154,185L135,99Z" fill="#9c8f32" stroke="#9c8f32" stroke-width="1.51"></path><path d="M89,71L-56,84L90,159Z" fill="#ac9942" stroke="#ac9942" stroke-width="1.51"></path><path d="M175,5L67,10L89,71Z" fill="#af9c46" stroke="#af9c46" stroke-width="1.51"></path><path d="M135,99L175,5L89,71Z" fill="#a5963b" stroke="#a5963b" stroke-width="1.51"></path><path d="M154,185L206,78L135,99Z" fill="#998e2f" stroke="#998e2f" stroke-width="1.51"></path><path d="M206,78L175,5L135,99Z" fill="#a19337" stroke="#a19337" stroke-width="1.51"></path><path d="M-32,9L-56,84L89,71Z" fill="#bba252" stroke="#bba252" stroke-width="1.51"></path><path d="M-56,84L-52,175L90,159Z" fill="#b19c48" stroke="#b19c48" stroke-width="1.51"></path><path d="M90,159L121,294L154,185Z" fill="#998c2f" stroke="#998c2f" stroke-width="1.51"></path><path d="M-7,-76L-32,9L67,10Z" fill="#caab62" stroke="#caab62" stroke-width="1.51"></path><path d="M67,10L-32,9L89,71Z" fill="#b9a151" stroke="#b9a151" stroke-width="1.51"></path><path d="M206,78L228,10L175,5Z" fill="#a6963d" stroke="#a6963d" stroke-width="1.51"></path><path d="M31,292L121,294L90,159Z" fill="#9d8d34" stroke="#9d8d34" stroke-width="1.51"></path><path d="M154,185L258,203L206,78Z" fill="#958a2c" stroke="#958a2c" stroke-width="1.51"></path><path d="M-52,175L-20,262L90,159Z" fill="#ac9744" stroke="#ac9744" stroke-width="1.51"></path><path d="M223,288L258,203L154,185Z" fill="#918627" stroke="#918627" stroke-width="1.51"></path><path d="M206,78L306,-4L228,10Z" fill="#a5943b" stroke="#a5943b" stroke-width="1.51"></path><path d="M-20,262L31,292L90,159Z" fill="#a5923d" stroke="#a5923d" stroke-width="1.51"></path><path d="M239,-89L154,-74L175,5Z" fill="#b9a151" stroke="#b9a151" stroke-width="1.51"></path><path d="M175,5L154,-74L67,10Z" fill="#b6a04d" stroke="#b6a04d" stroke-width="1.51"></path><path d="M154,-74L92,-85L67,10Z" fill="#c1a659" stroke="#c1a659" stroke-width="1.51"></path><path d="M-138,-10L-107,96L-56,84Z" fill="#caab62" stroke="#caab62" stroke-width="1.51"></path><path d="M-56,84L-107,96L-52,175Z" fill="#bca255" stroke="#bca255" stroke-width="1.51"></path><path d="M-52,175L-110,276L-20,262Z" fill="#b49b4c" stroke="#b49b4c" stroke-width="1.51"></path><path d="M-32,9L-138,-10L-56,84Z" fill="#ccac64" stroke="#ccac64" stroke-width="1.51"></path><path d="M92,-85L-7,-76L67,10Z" fill="#caaa62" stroke="#caaa62" stroke-width="1.51"></path><path d="M121,294L223,288L154,185Z" fill="#928727" stroke="#928727" stroke-width="1.51"></path><path d="M223,288L297,202L258,203Z" fill="#8f8425" stroke="#8f8425" stroke-width="1.51"></path><path d="M258,203L297,202L206,78Z" fill="#948829" stroke="#948829" stroke-width="1.51"></path><path d="M-138,-10L-146,147L-107,96Z" fill="#caab62" stroke="#caab62" stroke-width="1.51"></path><path d="M-107,96L-146,147L-52,175Z" fill="#c0a458" stroke="#c0a458" stroke-width="1.51"></path><path d="M228,10L239,-89L175,5Z" fill="#b29c49" stroke="#b29c49" stroke-width="1.51"></path><path d="M360,114L306,-4L206,78Z" fill="#9b8e32" stroke="#9b8e32" stroke-width="1.51"></path><path d="M306,-4L239,-89L228,10Z" fill="#b19b48" stroke="#b19b48" stroke-width="1.51"></path><path d="M154,-74L239,-89L92,-85Z" fill="#c1a558" stroke="#c1a558" stroke-width="1.51"></path><path d="M-146,147L-110,276L-52,175Z" fill="#bda155" stroke="#bda155" stroke-width="1.51"></path><path d="M-20,262L-110,276L31,292Z" fill="#ad9646" stroke="#ad9646" stroke-width="1.51"></path><path d="M-89,-102L-138,-10L-32,9Z" fill="#dbb573" stroke="#dbb573" stroke-width="1.51"></path><path d="M297,202L360,114L206,78Z" fill="#948929" stroke="#948929" stroke-width="1.51"></path><path d="M-7,-76L-89,-102L-32,9Z" fill="#d9b471" stroke="#d9b471" stroke-width="1.51"></path><path d="M92,-85L-89,-102L-7,-76Z" fill="#dab472" stroke="#dab472" stroke-width="1.51"></path><path d="M395,-121L-89,-102L92,-85Z" fill="#c8aa60" stroke="#c8aa60" stroke-width="1.51"></path><path d="M297,202L386,154L360,114Z" fill="#908525" stroke="#908525" stroke-width="1.51"></path><path d="M432,-2L326,-95L306,-4Z" fill="#ae9746" stroke="#ae9746" stroke-width="1.51"></path><path d="M356,292L386,154L297,202Z" fill="#8d8122" stroke="#8d8122" stroke-width="1.51"></path><path d="M239,-89L395,-121L92,-85Z" fill="#c1a459" stroke="#c1a459" stroke-width="1.51"></path><path d="M306,-4L326,-95L239,-89Z" fill="#b79d4f" stroke="#b79d4f" stroke-width="1.51"></path><path d="M432,-2L306,-4L360,114Z" fill="#9e8e36" stroke="#9e8e36" stroke-width="1.51"></path><path d="M121,294L356,292L223,288Z" fill="#8c8122" stroke="#8c8122" stroke-width="1.51"></path><path d="M223,288L356,292L297,202Z" fill="#8c8122" stroke="#8c8122" stroke-width="1.51"></path><path d="M356,292L409,278L386,154Z" fill="#8a7e1f" stroke="#8a7e1f" stroke-width="1.51"></path><path d="M452,61L360,114L386,154Z" fill="#908526" stroke="#908526" stroke-width="1.51"></path><path d="M452,61L432,-2L360,114Z" fill="#97892e" stroke="#97892e" stroke-width="1.51"></path><path d="M409,278L452,61L386,154Z" fill="#8c8122" stroke="#8c8122" stroke-width="1.51"></path><path d="M452,61L395,-121L432,-2Z" fill="#a89340" stroke="#a89340" stroke-width="1.51"></path><path d="M432,-2L395,-121L326,-95Z" fill="#b59b4e" stroke="#b59b4e" stroke-width="1.51"></path><path d="M326,-95L395,-121L239,-89Z" fill="#bea156" stroke="#bea156" stroke-width="1.51"></path></svg>