<svg width="300" height="176" xmlns="http://www.w3.org/2000/svg"><path d="M132,82L134,10L70,20Z" fill="#ad9a44" stroke="#ad9a44" stroke-width="1.51"></path><path d="M70,20L31,80L132,82Z" fill="#ad9b44" stroke="#ad9b44" stroke-width="1.51"></path><path d="M70,20L-3,62L31,80Z" fill="#b69f4d" stroke="#b69f4d" stroke-width="1.51"></path><path d="M132,82L214,86L134,10Z" fill="#a19438" stroke="#a19438" stroke-width="1.51"></path><path d="M150,188L214,86L132,82Z" fill="#998e2f" stroke="#998e2f" stroke-width="1.51"></path><path d="M31,80L39,161L132,82Z" fill="#a8973e" stroke="#a8973e" stroke-width="1.51"></path><path d="M-3,62L39,161L31,80Z" fill="#af9b46" stroke="#af9b46" stroke-width="1.51"></path><path d="M70,20L-48,7L-3,62Z" fill="#bfa457" stroke="#bfa457" stroke-width="1.51"></path><path d="M134,10L33,-73L70,20Z" fill="#bda355" stroke="#bda355" stroke-width="1.51"></path><path d="M39,161L150,188L132,82Z" fill="#9f9136" stroke="#9f9136" stroke-width="1.51"></path><path d="M134,10L177,-114L33,-73Z" fill="#c1a659" stroke="#c1a659" stroke-width="1.51"></path><path d="M214,86L247,-16L134,10Z" fill="#a7963e" stroke="#a7963e" stroke-width="1.51"></path><path d="M33,-73L-48,7L70,20Z" fill="#c7a95f" stroke="#c7a95f" stroke-width="1.51"></path><path d="M-3,62L-39,197L39,161Z" fill="#b09b48" stroke="#b09b48" stroke-width="1.51"></path><path d="M247,-16L177,-114L134,10Z" fill="#b69f4e" stroke="#b69f4e" stroke-width="1.51"></path><path d="M-48,7L-87,64L-3,62Z" fill="#c4a85c" stroke="#c4a85c" stroke-width="1.51"></path><path d="M214,86L312,-4L247,-16Z" fill="#a6943d" stroke="#a6943d" stroke-width="1.51"></path><path d="M150,188L269,160L214,86Z" fill="#968b2b" stroke="#968b2b" stroke-width="1.51"></path><path d="M247,-16L220,-121L177,-114Z" fill="#bfa457" stroke="#bfa457" stroke-width="1.51"></path><path d="M-48,7L-98,-6L-87,64Z" fill="#cead66" stroke="#cead66" stroke-width="1.51"></path><path d="M33,-73L-40,-94L-48,7Z" fill="#d5b16d" stroke="#d5b16d" stroke-width="1.51"></path><path d="M177,-114L-40,-94L33,-73Z" fill="#d2af6a" stroke="#d2af6a" stroke-width="1.51"></path><path d="M-102,-94L-40,-94L177,-114Z" fill="#dbb473" stroke="#dbb473" stroke-width="1.51"></path><path d="M150,188L224,251L269,160Z" fill="#938829" stroke="#938829" stroke-width="1.51"></path><path d="M39,161L50,240L150,188Z" fill="#a09037" stroke="#a09037" stroke-width="1.51"></path><path d="M-39,197L50,240L39,161Z" fill="#aa9642" stroke="#aa9642" stroke-width="1.51"></path><path d="M-87,64L-39,197L-3,62Z" fill="#b9a150" stroke="#b9a150" stroke-width="1.51"></path><path d="M-40,-94L-98,-6L-48,7Z" fill="#d7b26f" stroke="#d7b26f" stroke-width="1.51"></path><path d="M325,108L312,-4L214,86Z" fill="#9c8e32" stroke="#9c8e32" stroke-width="1.51"></path><path d="M247,-16L327,-108L220,-121Z" fill="#bca154" stroke="#bca154" stroke-width="1.51"></path><path d="M269,160L325,108L214,86Z" fill="#958a2b" stroke="#958a2b" stroke-width="1.51"></path><path d="M269,160L343,165L325,108Z" fill="#928628" stroke="#928628" stroke-width="1.51"></path><path d="M156,291L224,251L150,188Z" fill="#928727" stroke="#928727" stroke-width="1.51"></path><path d="M50,240L156,291L150,188Z" fill="#988a2e" stroke="#988a2e" stroke-width="1.51"></path><path d="M-40,-94L-102,-94L-98,-6Z" fill="#e1b879" stroke="#e1b879" stroke-width="1.51"></path><path d="M220,-121L-102,-94L177,-114Z" fill="#cfae67" stroke="#cfae67" stroke-width="1.51"></path><path d="M-87,64L-102,208L-39,197Z" fill="#bba153" stroke="#bba153" stroke-width="1.51"></path><path d="M-39,197L-45,265L50,240Z" fill="#ac9645" stroke="#ac9645" stroke-width="1.51"></path><path d="M50,240L-45,265L156,291Z" fill="#a08f38" stroke="#a08f38" stroke-width="1.51"></path><path d="M-98,-6L-102,208L-87,64Z" fill="#c2a75a" stroke="#c2a75a" stroke-width="1.51"></path><path d="M-123,301L-102,208L-98,-6Z" fill="#c0a357" stroke="#c0a357" stroke-width="1.51"></path><path d="M345,250L343,165L269,160Z" fill="#8f8424" stroke="#8f8424" stroke-width="1.51"></path><path d="M401,20L327,-108L312,-4Z" fill="#ae9746" stroke="#ae9746" stroke-width="1.51"></path><path d="M-102,208L-45,265L-39,197Z" fill="#b59b4e" stroke="#b59b4e" stroke-width="1.51"></path><path d="M401,20L312,-4L325,108Z" fill="#9e8e35" stroke="#9e8e35" stroke-width="1.51"></path><path d="M312,-4L327,-108L247,-16Z" fill="#b29b4a" stroke="#b29b4a" stroke-width="1.51"></path><path d="M424,120L401,20L325,108Z" fill="#938829" stroke="#938829" stroke-width="1.51"></path><path d="M343,165L424,120L325,108Z" fill="#908526" stroke="#908526" stroke-width="1.51"></path><path d="M224,251L345,250L269,160Z" fill="#8f8425" stroke="#8f8425" stroke-width="1.51"></path><path d="M418,300L345,250L224,251Z" fill="#8a7f20" stroke="#8a7f20" stroke-width="1.51"></path><path d="M394,203L424,120L343,165Z" fill="#8d8224" stroke="#8d8224" stroke-width="1.51"></path><path d="M345,250L394,203L343,165Z" fill="#8c8122" stroke="#8c8122" stroke-width="1.51"></path><path d="M-102,208L-123,301L-45,265Z" fill="#b79c50" stroke="#b79c50" stroke-width="1.51"></path><path d="M-45,265L-123,301L156,291Z" fill="#a89340" stroke="#a89340" stroke-width="1.51"></path><path d="M-102,-94L-123,301L-98,-6Z" fill="#c9aa60" stroke="#c9aa60" stroke-width="1.51"></path><path d="M401,20L436,-98L327,-108Z" fill="#b3994b" stroke="#b3994b" stroke-width="1.51"></path><path d="M327,-108L436,-98L220,-121Z" fill="#bfa258" stroke="#bfa258" stroke-width="1.51"></path><path d="M424,120L436,-98L401,20Z" fill="#a18f39" stroke="#a18f39" stroke-width="1.51"></path><path d="M424,120L418,300L436,-98Z" fill="#8f8425" stroke="#8f8425" stroke-width="1.51"></path><path d="M394,203L418,300L424,120Z" fill="#8a7f20" stroke="#8a7f20" stroke-width="1.51"></path><path d="M345,250L418,300L394,203Z" fill="#887d1f" stroke="#887d1f" stroke-width="1.51"></path><path d="M156,291L418,300L224,251Z" fill="#8c8122" stroke="#8c8122" stroke-width="1.51"></path><path d="M-123,301L418,300L156,291Z" fill="#908525" stroke="#908525" stroke-width="1.51"></path></svg>