<svg width="300" height="176" xmlns="http://www.w3.org/2000/svg"><path d="M132,54L150,-9L85,-4Z" fill="#b09c48" stroke="#b09c48" stroke-width="1.51"></path><path d="M132,54L209,19L150,-9Z" fill="#aa9840" stroke="#aa9840" stroke-width="1.51"></path><path d="M170,-121L54,-71L150,-9Z" fill="#c2a659" stroke="#c2a659" stroke-width="1.51"></path><path d="M150,-9L54,-71L85,-4Z" fill="#bea455" stroke="#bea455" stroke-width="1.51"></path><path d="M-9,-2L50,121L85,-4Z" fill="#b8a04f" stroke="#b8a04f" stroke-width="1.51"></path><path d="M85,-4L50,121L132,54Z" fill="#ac9b43" stroke="#ac9b43" stroke-width="1.51"></path><path d="M132,54L256,62L209,19Z" fill="#a39439" stroke="#a39439" stroke-width="1.51"></path><path d="M54,-71L-9,-2L85,-4Z" fill="#c5a85e" stroke="#c5a85e" stroke-width="1.51"></path><path d="M243,178L256,62L132,54Z" fill="#998e2e" stroke="#998e2e" stroke-width="1.51"></path><path d="M310,10L242,-63L209,19Z" fill="#ad9945" stroke="#ad9945" stroke-width="1.51"></path><path d="M209,19L242,-63L150,-9Z" fill="#b19c48" stroke="#b19c48" stroke-width="1.51"></path><path d="M242,-63L170,-121L150,-9Z" fill="#bca253" stroke="#bca253" stroke-width="1.51"></path><path d="M50,121L89,169L132,54Z" fill="#a4943a" stroke="#a4943a" stroke-width="1.51"></path><path d="M89,169L129,182L132,54Z" fill="#9e9134" stroke="#9e9134" stroke-width="1.51"></path><path d="M50,121L-3,174L89,169Z" fill="#a8963f" stroke="#a8963f" stroke-width="1.51"></path><path d="M-9,-2L-49,95L50,121Z" fill="#b7a04e" stroke="#b7a04e" stroke-width="1.51"></path><path d="M256,62L310,10L209,19Z" fill="#a4933a" stroke="#a4933a" stroke-width="1.51"></path><path d="M-9,-2L-129,-16L-49,95Z" fill="#caab63" stroke="#caab63" stroke-width="1.51"></path><path d="M54,-71L-29,-106L-9,-2Z" fill="#d3b06b" stroke="#d3b06b" stroke-width="1.51"></path><path d="M170,-121L-29,-106L54,-71Z" fill="#d2b06a" stroke="#d2b06a" stroke-width="1.51"></path><path d="M-49,95L-3,174L50,121Z" fill="#b19c48" stroke="#b19c48" stroke-width="1.51"></path><path d="M89,169L42,276L129,182Z" fill="#9f8f35" stroke="#9f8f35" stroke-width="1.51"></path><path d="M256,62L355,73L310,10Z" fill="#9e8f34" stroke="#9e8f34" stroke-width="1.51"></path><path d="M129,182L243,178L132,54Z" fill="#988d2e" stroke="#988d2e" stroke-width="1.51"></path><path d="M310,10L337,-59L242,-63Z" fill="#b19a49" stroke="#b19a49" stroke-width="1.51"></path><path d="M242,-63L337,-59L170,-121Z" fill="#bda254" stroke="#bda254" stroke-width="1.51"></path><path d="M243,178L297,170L256,62Z" fill="#94892a" stroke="#94892a" stroke-width="1.51"></path><path d="M310,10L424,-18L337,-59Z" fill="#ab9643" stroke="#ab9643" stroke-width="1.51"></path><path d="M297,170L355,73L256,62Z" fill="#94892a" stroke="#94892a" stroke-width="1.51"></path><path d="M-29,-106L-129,-16L-9,-2Z" fill="#d8b370" stroke="#d8b370" stroke-width="1.51"></path><path d="M-121,250L-49,260L-3,174Z" fill="#b49b4c" stroke="#b49b4c" stroke-width="1.51"></path><path d="M433,150L421,102L355,73Z" fill="#908526" stroke="#908526" stroke-width="1.51"></path><path d="M243,178L267,239L297,170Z" fill="#908527" stroke="#908527" stroke-width="1.51"></path><path d="M132,289L267,239L243,178Z" fill="#918626" stroke="#918626" stroke-width="1.51"></path><path d="M132,289L243,178L129,182Z" fill="#93882a" stroke="#93882a" stroke-width="1.51"></path><path d="M-129,-16L-145,63L-49,95Z" fill="#cdad65" stroke="#cdad65" stroke-width="1.51"></path><path d="M-49,260L42,276L-3,174Z" fill="#ab9643" stroke="#ab9643" stroke-width="1.51"></path><path d="M-3,174L42,276L89,169Z" fill="#a5933d" stroke="#a5933d" stroke-width="1.51"></path><path d="M42,276L132,289L129,182Z" fill="#9a8c31" stroke="#9a8c31" stroke-width="1.51"></path><path d="M-151,146L-3,174L-49,95Z" fill="#bba152" stroke="#bba152" stroke-width="1.51"></path><path d="M-129,-16L-150,-110L-145,63Z" fill="#e1b879" stroke="#e1b879" stroke-width="1.51"></path><path d="M-29,-106L-150,-110L-129,-16Z" fill="#e7bc80" stroke="#e7bc80" stroke-width="1.51"></path><path d="M170,-121L-150,-110L-29,-106Z" fill="#e0b778" stroke="#e0b778" stroke-width="1.51"></path><path d="M-145,63L-151,146L-49,95Z" fill="#c4a75d" stroke="#c4a75d" stroke-width="1.51"></path><path d="M-150,-110L-151,146L-145,63Z" fill="#d7b26f" stroke="#d7b26f" stroke-width="1.51"></path><path d="M421,102L424,-18L355,73Z" fill="#998b30" stroke="#998b30" stroke-width="1.51"></path><path d="M355,73L424,-18L310,10Z" fill="#a19039" stroke="#a19039" stroke-width="1.51"></path><path d="M424,-18L415,-71L337,-59Z" fill="#b09848" stroke="#b09848" stroke-width="1.51"></path><path d="M337,-59L415,-71L170,-121Z" fill="#bba053" stroke="#bba053" stroke-width="1.51"></path><path d="M433,150L355,73L297,170Z" fill="#908526" stroke="#908526" stroke-width="1.51"></path><path d="M267,239L323,282L297,170Z" fill="#8d8223" stroke="#8d8223" stroke-width="1.51"></path><path d="M132,289L323,282L267,239Z" fill="#8d8223" stroke="#8d8223" stroke-width="1.51"></path><path d="M-151,146L-121,250L-3,174Z" fill="#bca054" stroke="#bca054" stroke-width="1.51"></path><path d="M-49,260L-121,250L42,276Z" fill="#b09848" stroke="#b09848" stroke-width="1.51"></path><path d="M397,277L433,150L297,170Z" fill="#8c8122" stroke="#8c8122" stroke-width="1.51"></path><path d="M421,102L433,150L424,-18Z" fill="#928628" stroke="#928628" stroke-width="1.51"></path><path d="M323,282L397,277L297,170Z" fill="#8b8021" stroke="#8b8021" stroke-width="1.51"></path></svg>