<svg width="300" height="176" xmlns="http://www.w3.org/2000/svg"><path d="M131,91L81,21L62,58Z" fill="#ac9a43" stroke="#ac9a43" stroke-width="1.51"></path><path d="M131,91L150,-25L81,21Z" fill="#ad9b44" stroke="#ad9b44" stroke-width="1.51"></path><path d="M62,58L70,166L131,91Z" fill="#a4953b" stroke="#a4953b" stroke-width="1.51"></path><path d="M62,58L-11,64L70,166Z" fill="#ac9a43" stroke="#ac9a43" stroke-width="1.51"></path><path d="M0,-29L-11,64L62,58Z" fill="#bda355" stroke="#bda355" stroke-width="1.51"></path><path d="M0,-29L62,58L81,21Z" fill="#bca353" stroke="#bca353" stroke-width="1.51"></path><path d="M214,118L213,-4L131,91Z" fill="#9f9235" stroke="#9f9235" stroke-width="1.51"></path><path d="M131,91L213,-4L150,-25Z" fill="#aa9941" stroke="#aa9941" stroke-width="1.51"></path><path d="M149,209L214,118L131,91Z" fill="#988d2e" stroke="#988d2e" stroke-width="1.51"></path><path d="M26,-123L0,-29L81,21Z" fill="#cbab63" stroke="#cbab63" stroke-width="1.51"></path><path d="M150,-25L26,-123L81,21Z" fill="#c2a65a" stroke="#c2a65a" stroke-width="1.51"></path><path d="M213,-4L179,-80L150,-25Z" fill="#b59f4d" stroke="#b59f4d" stroke-width="1.51"></path><path d="M70,166L149,209L131,91Z" fill="#9d9033" stroke="#9d9033" stroke-width="1.51"></path><path d="M-11,64L-15,209L70,166Z" fill="#ad9945" stroke="#ad9945" stroke-width="1.51"></path><path d="M70,166L145,251L149,209Z" fill="#998c30" stroke="#998c30" stroke-width="1.51"></path><path d="M179,-80L26,-123L150,-25Z" fill="#c5a85c" stroke="#c5a85c" stroke-width="1.51"></path><path d="M50,294L145,251L70,166Z" fill="#9d8e34" stroke="#9d8e34" stroke-width="1.51"></path><path d="M149,209L269,178L214,118Z" fill="#958a2a" stroke="#958a2a" stroke-width="1.51"></path><path d="M0,-29L-96,29L-11,64Z" fill="#c7a95f" stroke="#c7a95f" stroke-width="1.51"></path><path d="M-11,64L-99,58L-15,209Z" fill="#b8a050" stroke="#b8a050" stroke-width="1.51"></path><path d="M-48,-83L-96,29L0,-29Z" fill="#d4b16c" stroke="#d4b16c" stroke-width="1.51"></path><path d="M214,118L308,-9L213,-4Z" fill="#a3933a" stroke="#a3933a" stroke-width="1.51"></path><path d="M258,279L269,178L149,209Z" fill="#918627" stroke="#918627" stroke-width="1.51"></path><path d="M-96,29L-99,58L-11,64Z" fill="#c6a95e" stroke="#c6a95e" stroke-width="1.51"></path><path d="M26,-123L-48,-83L0,-29Z" fill="#d9b371" stroke="#d9b371" stroke-width="1.51"></path><path d="M348,117L308,-9L214,118Z" fill="#998c2f" stroke="#998c2f" stroke-width="1.51"></path><path d="M213,-4L244,-110L179,-80Z" fill="#bba152" stroke="#bba152" stroke-width="1.51"></path><path d="M316,-61L244,-110L213,-4Z" fill="#b79e4f" stroke="#b79e4f" stroke-width="1.51"></path><path d="M179,-80L244,-110L26,-123Z" fill="#c6a95e" stroke="#c6a95e" stroke-width="1.51"></path><path d="M308,-9L316,-61L213,-4Z" fill="#af9947" stroke="#af9947" stroke-width="1.51"></path><path d="M-15,209L50,294L70,166Z" fill="#a6933d" stroke="#a6933d" stroke-width="1.51"></path><path d="M269,178L348,117L214,118Z" fill="#93882a" stroke="#93882a" stroke-width="1.51"></path><path d="M308,-9L419,-4L316,-61Z" fill="#ac9744" stroke="#ac9744" stroke-width="1.51"></path><path d="M-15,209L-53,256L50,294Z" fill="#ab9542" stroke="#ab9542" stroke-width="1.51"></path><path d="M-90,246L-53,256L-15,209Z" fill="#b39a4b" stroke="#b39a4b" stroke-width="1.51"></path><path d="M269,178L349,186L348,117Z" fill="#918626" stroke="#918626" stroke-width="1.51"></path><path d="M145,251L258,279L149,209Z" fill="#918627" stroke="#918627" stroke-width="1.51"></path><path d="M50,294L258,279L145,251Z" fill="#918627" stroke="#918627" stroke-width="1.51"></path><path d="M-148,187L-90,246L-15,209Z" fill="#b99e51" stroke="#b99e51" stroke-width="1.51"></path><path d="M-53,256L-90,246L50,294Z" fill="#ae9646" stroke="#ae9646" stroke-width="1.51"></path><path d="M337,259L349,186L269,178Z" fill="#8e8324" stroke="#8e8324" stroke-width="1.51"></path><path d="M-99,58L-148,187L-15,209Z" fill="#bda255" stroke="#bda255" stroke-width="1.51"></path><path d="M-141,-101L-148,187L-99,58Z" fill="#d0af68" stroke="#d0af68" stroke-width="1.51"></path><path d="M-96,29L-141,-101L-99,58Z" fill="#d9b371" stroke="#d9b371" stroke-width="1.51"></path><path d="M-48,-83L-141,-101L-96,29Z" fill="#e1b879" stroke="#e1b879" stroke-width="1.51"></path><path d="M26,-123L-141,-101L-48,-83Z" fill="#e6ba7e" stroke="#e6ba7e" stroke-width="1.51"></path><path d="M258,279L337,259L269,178Z" fill="#8e8223" stroke="#8e8223" stroke-width="1.51"></path><path d="M453,69L348,117L440,202Z" fill="#8e8324" stroke="#8e8324" stroke-width="1.51"></path><path d="M453,69L419,-4L348,117Z" fill="#978a2e" stroke="#978a2e" stroke-width="1.51"></path><path d="M348,117L419,-4L308,-9Z" fill="#9f8f36" stroke="#9f8f36" stroke-width="1.51"></path><path d="M316,-61L442,-115L244,-110Z" fill="#bca055" stroke="#bca055" stroke-width="1.51"></path><path d="M440,202L348,117L349,186Z" fill="#8e8324" stroke="#8e8324" stroke-width="1.51"></path><path d="M337,259L411,242L349,186Z" fill="#8b8020" stroke="#8b8020" stroke-width="1.51"></path><path d="M258,279L411,242L337,259Z" fill="#8a7f20" stroke="#8a7f20" stroke-width="1.51"></path><path d="M411,242L440,202L349,186Z" fill="#8a7f20" stroke="#8a7f20" stroke-width="1.51"></path><path d="M419,-4L442,-115L316,-61Z" fill="#b2994a" stroke="#b2994a" stroke-width="1.51"></path><path d="M244,-110L442,-115L26,-123Z" fill="#c5a75d" stroke="#c5a75d" stroke-width="1.51"></path><path d="M453,69L442,-115L419,-4Z" fill="#a7923e" stroke="#a7923e" stroke-width="1.51"></path></svg>