<svg width="300" height="176" xmlns="http://www.w3.org/2000/svg"><path d="M90,253L-94,262L133,260Z" fill="#a2903a" stroke="#a2903a" stroke-width="1.51"></path><path d="M-27,-73L175,-105L231,-121Z" fill="#c8aa60" stroke="#c8aa60" stroke-width="1.51"></path><path d="M-135,-60L-27,-73L231,-121Z" fill="#d6b16d" stroke="#d6b16d" stroke-width="1.51"></path><path d="M133,260L-94,262L313,291Z" fill="#96892d" stroke="#96892d" stroke-width="1.51"></path><path d="M313,291L-94,262L392,301Z" fill="#8e8324" stroke="#8e8324" stroke-width="1.51"></path><path d="M345,168L313,291L392,301Z" fill="#8a7f20" stroke="#8a7f20" stroke-width="1.51"></path><path d="M345,168L392,301L408,163Z" fill="#8b8021" stroke="#8b8021" stroke-width="1.51"></path><path d="M408,-16L326,28L413,119Z" fill="#9c8d33" stroke="#9c8d33" stroke-width="1.51"></path><path d="M326,28L331,94L413,119Z" fill="#95892b" stroke="#95892b" stroke-width="1.51"></path><path d="M231,-121L323,-96L417,-78Z" fill="#bea155" stroke="#bea155" stroke-width="1.51"></path><path d="M323,-96L408,-16L417,-78Z" fill="#b39a4b" stroke="#b39a4b" stroke-width="1.51"></path><path d="M408,-16L413,119L417,-78Z" fill="#a2903a" stroke="#a2903a" stroke-width="1.51"></path><path d="M345,168L408,163L413,119Z" fill="#8e8324" stroke="#8e8324" stroke-width="1.51"></path><path d="M331,94L345,168L413,119Z" fill="#908527" stroke="#908527" stroke-width="1.51"></path><path d="M323,-96L326,28L408,-16Z" fill="#ad9745" stroke="#ad9745" stroke-width="1.51"></path><path d="M270,247L313,291L345,168Z" fill="#8d8222" stroke="#8d8222" stroke-width="1.51"></path><path d="M323,-96L227,-34L326,28Z" fill="#b09a48" stroke="#b09a48" stroke-width="1.51"></path><path d="M331,94L257,211L345,168Z" fill="#918627" stroke="#918627" stroke-width="1.51"></path><path d="M257,211L270,247L345,168Z" fill="#8f8425" stroke="#8f8425" stroke-width="1.51"></path><path d="M326,28L214,65L331,94Z" fill="#9b8e32" stroke="#9b8e32" stroke-width="1.51"></path><path d="M214,65L257,211L331,94Z" fill="#958a2b" stroke="#958a2b" stroke-width="1.51"></path><path d="M270,247L133,260L313,291Z" fill="#8e8324" stroke="#8e8324" stroke-width="1.51"></path><path d="M231,-121L227,-34L323,-96Z" fill="#bda255" stroke="#bda255" stroke-width="1.51"></path><path d="M227,-34L214,65L326,28Z" fill="#a6953d" stroke="#a6953d" stroke-width="1.51"></path><path d="M-27,-73L53,-64L175,-105Z" fill="#cead66" stroke="#cead66" stroke-width="1.51"></path><path d="M214,65L125,209L257,211Z" fill="#958a2b" stroke="#958a2b" stroke-width="1.51"></path><path d="M257,211L133,260L270,247Z" fill="#908526" stroke="#908526" stroke-width="1.51"></path><path d="M153,62L125,209L214,65Z" fill="#9a8f2f" stroke="#9a8f2f" stroke-width="1.51"></path><path d="M175,-105L227,-34L231,-121Z" fill="#c0a457" stroke="#c0a457" stroke-width="1.51"></path><path d="M125,209L133,260L257,211Z" fill="#938828" stroke="#938828" stroke-width="1.51"></path><path d="M129,16L153,62L214,65Z" fill="#a4953a" stroke="#a4953a" stroke-width="1.51"></path><path d="M129,16L214,65L227,-34Z" fill="#aa9841" stroke="#aa9841" stroke-width="1.51"></path><path d="M175,-105L129,16L227,-34Z" fill="#b7a04e" stroke="#b7a04e" stroke-width="1.51"></path><path d="M31,90L42,187L125,209Z" fill="#a4943b" stroke="#a4943b" stroke-width="1.51"></path><path d="M31,90L125,209L153,62Z" fill="#a19337" stroke="#a19337" stroke-width="1.51"></path><path d="M73,-16L129,16L175,-105Z" fill="#bba252" stroke="#bba252" stroke-width="1.51"></path><path d="M53,-64L73,-16L175,-105Z" fill="#c4a85c" stroke="#c4a85c" stroke-width="1.51"></path><path d="M129,16L31,90L153,62Z" fill="#aa9941" stroke="#aa9941" stroke-width="1.51"></path><path d="M-63,241L-94,262L90,253Z" fill="#ad9645" stroke="#ad9645" stroke-width="1.51"></path><path d="M73,-16L31,90L129,16Z" fill="#b49f4b" stroke="#b49f4b" stroke-width="1.51"></path><path d="M125,209L90,253L133,260Z" fill="#988b2f" stroke="#988b2f" stroke-width="1.51"></path><path d="M42,187L90,253L125,209Z" fill="#9e8f35" stroke="#9e8f35" stroke-width="1.51"></path><path d="M-2,22L31,90L73,-16Z" fill="#baa252" stroke="#baa252" stroke-width="1.51"></path><path d="M42,187L-63,241L90,253Z" fill="#a8943f" stroke="#a8943f" stroke-width="1.51"></path><path d="M53,-64L-2,22L73,-16Z" fill="#c4a75c" stroke="#c4a75c" stroke-width="1.51"></path><path d="M-49,192L-63,241L42,187Z" fill="#b09948" stroke="#b09948" stroke-width="1.51"></path><path d="M31,90L-57,105L42,187Z" fill="#b09b48" stroke="#b09b48" stroke-width="1.51"></path><path d="M-57,105L-49,192L42,187Z" fill="#b29b4a" stroke="#b29b4a" stroke-width="1.51"></path><path d="M-27,-73L-2,22L53,-64Z" fill="#cdad66" stroke="#cdad66" stroke-width="1.51"></path><path d="M-2,22L-57,105L31,90Z" fill="#b8a150" stroke="#b8a150" stroke-width="1.51"></path><path d="M-135,-60L-137,26L-27,-73Z" fill="#deb676" stroke="#deb676" stroke-width="1.51"></path><path d="M-27,-73L-137,26L-2,22Z" fill="#d1af69" stroke="#d1af69" stroke-width="1.51"></path><path d="M-137,26L-116,60L-2,22Z" fill="#ccac64" stroke="#ccac64" stroke-width="1.51"></path><path d="M-116,60L-57,105L-2,22Z" fill="#c2a659" stroke="#c2a659" stroke-width="1.51"></path><path d="M-57,105L-105,164L-49,192Z" fill="#baa052" stroke="#baa052" stroke-width="1.51"></path><path d="M-105,164L-63,241L-49,192Z" fill="#b89e50" stroke="#b89e50" stroke-width="1.51"></path><path d="M-105,164L-94,262L-63,241Z" fill="#b99e52" stroke="#b99e52" stroke-width="1.51"></path><path d="M-116,60L-105,164L-57,105Z" fill="#c0a558" stroke="#c0a558" stroke-width="1.51"></path><path d="M-105,164L-137,26L-94,262Z" fill="#c1a459" stroke="#c1a459" stroke-width="1.51"></path><path d="M-116,60L-137,26L-105,164Z" fill="#c7a95e" stroke="#c7a95e" stroke-width="1.51"></path></svg>