<svg width="300" height="176" xmlns="http://www.w3.org/2000/svg"><path d="M329,258L217,291L407,253Z" fill="#8a7f21" stroke="#8a7f21" stroke-width="1.51"></path><path d="M426,7L318,98L445,116Z" fill="#958a2a" stroke="#958a2a" stroke-width="1.51"></path><path d="M429,-66L426,7L445,116Z" fill="#9f9436" stroke="#9f9436" stroke-width="1.51"></path><path d="M306,207L407,253L446,182Z" fill="#8a7f21" stroke="#8a7f21" stroke-width="1.51"></path><path d="M445,116L318,98L446,182Z" fill="#8f8424" stroke="#8f8424" stroke-width="1.51"></path><path d="M318,98L306,207L446,182Z" fill="#8f8425" stroke="#8f8425" stroke-width="1.51"></path><path d="M325,-6L318,98L426,7Z" fill="#9f9435" stroke="#9f9435" stroke-width="1.51"></path><path d="M325,-6L426,7L429,-66Z" fill="#aa9e40" stroke="#aa9e40" stroke-width="1.51"></path><path d="M320,-105L325,-6L429,-66Z" fill="#b3a849" stroke="#b3a849" stroke-width="1.51"></path><path d="M306,207L329,258L407,253Z" fill="#8b8020" stroke="#8b8020" stroke-width="1.51"></path><path d="M161,270L-62,298L217,291Z" fill="#978c2d" stroke="#978c2d" stroke-width="1.51"></path><path d="M228,113L264,211L306,207Z" fill="#928728" stroke="#928728" stroke-width="1.51"></path><path d="M228,113L306,207L318,98Z" fill="#938829" stroke="#938829" stroke-width="1.51"></path><path d="M208,-111L267,20L320,-105Z" fill="#b8ad4f" stroke="#b8ad4f" stroke-width="1.51"></path><path d="M320,-105L267,20L325,-6Z" fill="#afa446" stroke="#afa446" stroke-width="1.51"></path><path d="M267,20L318,98L325,-6Z" fill="#a09537" stroke="#a09537" stroke-width="1.51"></path><path d="M306,207L264,211L329,258Z" fill="#8e8324" stroke="#8e8324" stroke-width="1.51"></path><path d="M264,211L217,291L329,258Z" fill="#8d8223" stroke="#8d8223" stroke-width="1.51"></path><path d="M267,20L228,113L318,98Z" fill="#998e2f" stroke="#998e2f" stroke-width="1.51"></path><path d="M208,-111L176,-25L267,20Z" fill="#b4a94b" stroke="#b4a94b" stroke-width="1.51"></path><path d="M161,270L217,291L264,211Z" fill="#8f8425" stroke="#8f8425" stroke-width="1.51"></path><path d="M181,176L161,270L264,211Z" fill="#928728" stroke="#928728" stroke-width="1.51"></path><path d="M228,113L181,176L264,211Z" fill="#94892a" stroke="#94892a" stroke-width="1.51"></path><path d="M175,111L228,113L267,20Z" fill="#9a8f30" stroke="#9a8f30" stroke-width="1.51"></path><path d="M176,-25L175,111L267,20Z" fill="#a59a3b" stroke="#a59a3b" stroke-width="1.51"></path><path d="M32,244L-62,298L161,270Z" fill="#a29738" stroke="#a29738" stroke-width="1.51"></path><path d="M158,-61L176,-25L208,-111Z" fill="#bcb152" stroke="#bcb152" stroke-width="1.51"></path><path d="M175,111L181,176L228,113Z" fill="#978c2d" stroke="#978c2d" stroke-width="1.51"></path><path d="M71,-113L158,-61L208,-111Z" fill="#c4b95a" stroke="#c4b95a" stroke-width="1.51"></path><path d="M35,18L28,70L175,111Z" fill="#aba041" stroke="#aba041" stroke-width="1.51"></path><path d="M35,18L175,111L176,-25Z" fill="#aba041" stroke="#aba041" stroke-width="1.51"></path><path d="M32,244L161,270L181,176Z" fill="#988c2d" stroke="#988c2d" stroke-width="1.51"></path><path d="M38,147L32,244L181,176Z" fill="#a09536" stroke="#a09536" stroke-width="1.51"></path><path d="M175,111L38,147L181,176Z" fill="#9b9031" stroke="#9b9031" stroke-width="1.51"></path><path d="M158,-61L35,18L176,-25Z" fill="#b8ad4e" stroke="#b8ad4e" stroke-width="1.51"></path><path d="M28,70L38,147L175,111Z" fill="#a59a3b" stroke="#a59a3b" stroke-width="1.51"></path><path d="M71,-113L35,18L158,-61Z" fill="#c4b95a" stroke="#c4b95a" stroke-width="1.51"></path><path d="M-38,-63L-18,6L35,18Z" fill="#cabf60" stroke="#cabf60" stroke-width="1.51"></path><path d="M-16,172L32,244L38,147Z" fill="#aa9f41" stroke="#aa9f41" stroke-width="1.51"></path><path d="M-117,-105L-38,-63L71,-113Z" fill="#dfd575" stroke="#dfd575" stroke-width="1.51"></path><path d="M-38,-63L35,18L71,-113Z" fill="#cec464" stroke="#cec464" stroke-width="1.51"></path><path d="M-18,6L28,70L35,18Z" fill="#bdb253" stroke="#bdb253" stroke-width="1.51"></path><path d="M28,70L-9,95L38,147Z" fill="#afa445" stroke="#afa445" stroke-width="1.51"></path><path d="M-9,95L-16,172L38,147Z" fill="#afa445" stroke="#afa445" stroke-width="1.51"></path><path d="M-18,6L-9,95L28,70Z" fill="#b9af4f" stroke="#b9af4f" stroke-width="1.51"></path><path d="M-16,172L-99,251L32,244Z" fill="#afa446" stroke="#afa446" stroke-width="1.51"></path><path d="M-99,251L-62,298L32,244Z" fill="#b0a546" stroke="#b0a546" stroke-width="1.51"></path><path d="M-18,6L-98,26L-9,95Z" fill="#c4b959" stroke="#c4b959" stroke-width="1.51"></path><path d="M-98,26L-91,94L-9,95Z" fill="#c1b657" stroke="#c1b657" stroke-width="1.51"></path><path d="M-91,94L-16,172L-9,95Z" fill="#b7ac4d" stroke="#b7ac4d" stroke-width="1.51"></path><path d="M-38,-63L-98,26L-18,6Z" fill="#d1c667" stroke="#d1c667" stroke-width="1.51"></path><path d="M-91,94L-134,175L-16,172Z" fill="#bcb152" stroke="#bcb152" stroke-width="1.51"></path><path d="M-134,175L-99,251L-16,172Z" fill="#b9ae50" stroke="#b9ae50" stroke-width="1.51"></path><path d="M-117,-105L-98,26L-38,-63Z" fill="#ded474" stroke="#ded474" stroke-width="1.51"></path><path d="M-98,26L-134,175L-91,94Z" fill="#c4b959" stroke="#c4b959" stroke-width="1.51"></path><path d="M-117,-105L-134,175L-98,26Z" fill="#d1c768" stroke="#d1c768" stroke-width="1.51"></path></svg>