<svg width="300" height="176" xmlns="http://www.w3.org/2000/svg"><path d="M-4,-92L51,-89L183,-110Z" fill="#d0c566" stroke="#d0c566" stroke-width="1.51"></path><path d="M396,-17L396,87L411,148Z" fill="#958a2b" stroke="#958a2b" stroke-width="1.51"></path><path d="M238,265L34,290L452,265Z" fill="#8d8223" stroke="#8d8223" stroke-width="1.51"></path><path d="M329,245L238,265L452,265Z" fill="#8a7f20" stroke="#8a7f20" stroke-width="1.51"></path><path d="M388,-72L396,-17L452,265Z" fill="#978c2d" stroke="#978c2d" stroke-width="1.51"></path><path d="M396,-17L411,148L452,265Z" fill="#8e8324" stroke="#8e8324" stroke-width="1.51"></path><path d="M411,148L329,245L452,265Z" fill="#8a7f20" stroke="#8a7f20" stroke-width="1.51"></path><path d="M396,-17L326,1L396,87Z" fill="#a19637" stroke="#a19637" stroke-width="1.51"></path><path d="M353,112L305,204L411,148Z" fill="#8f8425" stroke="#8f8425" stroke-width="1.51"></path><path d="M305,204L329,245L411,148Z" fill="#8d8223" stroke="#8d8223" stroke-width="1.51"></path><path d="M396,87L353,112L411,148Z" fill="#908526" stroke="#908526" stroke-width="1.51"></path><path d="M388,-72L326,1L396,-17Z" fill="#aca143" stroke="#aca143" stroke-width="1.51"></path><path d="M326,1L353,112L396,87Z" fill="#988d2e" stroke="#988d2e" stroke-width="1.51"></path><path d="M314,-105L326,1L388,-72Z" fill="#b4a94a" stroke="#b4a94a" stroke-width="1.51"></path><path d="M314,-105L251,-71L326,1Z" fill="#b6ab4c" stroke="#b6ab4c" stroke-width="1.51"></path><path d="M265,27L268,99L326,1Z" fill="#a09536" stroke="#a09536" stroke-width="1.51"></path><path d="M252,159L305,204L353,112Z" fill="#918627" stroke="#918627" stroke-width="1.51"></path><path d="M268,99L252,159L353,112Z" fill="#94892a" stroke="#94892a" stroke-width="1.51"></path><path d="M326,1L268,99L353,112Z" fill="#988d2f" stroke="#988d2f" stroke-width="1.51"></path><path d="M251,-71L265,27L326,1Z" fill="#aca243" stroke="#aca243" stroke-width="1.51"></path><path d="M305,204L238,265L329,245Z" fill="#8d8223" stroke="#8d8223" stroke-width="1.51"></path><path d="M183,-110L251,-71L314,-105Z" fill="#bfb556" stroke="#bfb556" stroke-width="1.51"></path><path d="M134,241L34,290L238,265Z" fill="#93882a" stroke="#93882a" stroke-width="1.51"></path><path d="M-18,284L-91,289L34,290Z" fill="#aba042" stroke="#aba042" stroke-width="1.51"></path><path d="M252,159L238,265L305,204Z" fill="#908526" stroke="#908526" stroke-width="1.51"></path><path d="M134,241L238,265L252,159Z" fill="#918627" stroke="#918627" stroke-width="1.51"></path><path d="M251,-71L134,-7L265,27Z" fill="#b0a546" stroke="#b0a546" stroke-width="1.51"></path><path d="M265,27L140,104L268,99Z" fill="#9b9031" stroke="#9b9031" stroke-width="1.51"></path><path d="M140,104L252,159L268,99Z" fill="#978c2c" stroke="#978c2c" stroke-width="1.51"></path><path d="M134,-7L140,104L265,27Z" fill="#a59a3b" stroke="#a59a3b" stroke-width="1.51"></path><path d="M183,-110L134,-7L251,-71Z" fill="#bbb051" stroke="#bbb051" stroke-width="1.51"></path><path d="M140,104L122,211L252,159Z" fill="#978c2c" stroke="#978c2c" stroke-width="1.51"></path><path d="M122,211L134,241L252,159Z" fill="#94892a" stroke="#94892a" stroke-width="1.51"></path><path d="M51,-89L134,-7L183,-110Z" fill="#c2b758" stroke="#c2b758" stroke-width="1.51"></path><path d="M134,-7L38,14L140,104Z" fill="#aea344" stroke="#aea344" stroke-width="1.51"></path><path d="M38,14L68,118L140,104Z" fill="#a89d3e" stroke="#a89d3e" stroke-width="1.51"></path><path d="M68,118L122,211L140,104Z" fill="#9e9335" stroke="#9e9335" stroke-width="1.51"></path><path d="M68,118L30,162L122,211Z" fill="#a39839" stroke="#a39839" stroke-width="1.51"></path><path d="M122,211L34,290L134,241Z" fill="#9b8f31" stroke="#9b8f31" stroke-width="1.51"></path><path d="M51,-89L38,14L134,-7Z" fill="#c0b656" stroke="#c0b656" stroke-width="1.51"></path><path d="M30,162L34,290L122,211Z" fill="#a29738" stroke="#a29738" stroke-width="1.51"></path><path d="M-47,186L-18,284L30,162Z" fill="#aea344" stroke="#aea344" stroke-width="1.51"></path><path d="M30,162L-18,284L34,290Z" fill="#a89c3e" stroke="#a89c3e" stroke-width="1.51"></path><path d="M-4,-92L38,14L51,-89Z" fill="#cec364" stroke="#cec364" stroke-width="1.51"></path><path d="M38,14L-53,110L68,118Z" fill="#b2a748" stroke="#b2a748" stroke-width="1.51"></path><path d="M-53,110L30,162L68,118Z" fill="#aea344" stroke="#aea344" stroke-width="1.51"></path><path d="M-4,-92L-54,26L38,14Z" fill="#cbc061" stroke="#cbc061" stroke-width="1.51"></path><path d="M-54,26L-53,110L38,14Z" fill="#bfb455" stroke="#bfb455" stroke-width="1.51"></path><path d="M-53,110L-47,186L30,162Z" fill="#b3a749" stroke="#b3a749" stroke-width="1.51"></path><path d="M-47,186L-91,289L-18,284Z" fill="#b1a748" stroke="#b1a748" stroke-width="1.51"></path><path d="M-112,-76L-54,26L-4,-92Z" fill="#d9cf70" stroke="#d9cf70" stroke-width="1.51"></path><path d="M-112,-76L-129,-16L-54,26Z" fill="#dbd071" stroke="#dbd071" stroke-width="1.51"></path><path d="M-99,196L-91,289L-47,186Z" fill="#b7ac4e" stroke="#b7ac4e" stroke-width="1.51"></path><path d="M-54,26L-153,110L-53,110Z" fill="#c2b758" stroke="#c2b758" stroke-width="1.51"></path><path d="M-153,110L-99,196L-53,110Z" fill="#c0b556" stroke="#c0b556" stroke-width="1.51"></path><path d="M-53,110L-99,196L-47,186Z" fill="#b9ae50" stroke="#b9ae50" stroke-width="1.51"></path><path d="M-129,-16L-153,110L-54,26Z" fill="#cfc565" stroke="#cfc565" stroke-width="1.51"></path><path d="M-99,196L-153,110L-91,289Z" fill="#beb355" stroke="#beb355" stroke-width="1.51"></path></svg>