<svg width="300" height="176" xmlns="http://www.w3.org/2000/svg"><path d="M176,112L169,167L222,115Z" fill="#928728" stroke="#928728" stroke-width="1.51"></path><path d="M169,167L252,149L222,115Z" fill="#8e8324" stroke="#8e8324" stroke-width="1.51"></path><path d="M169,167L208,270L252,149Z" fill="#8a7f1f" stroke="#8a7f1f" stroke-width="1.51"></path><path d="M335,83L268,22L222,115Z" fill="#998a30" stroke="#998a30" stroke-width="1.51"></path><path d="M208,270L325,158L252,149Z" fill="#857a1b" stroke="#857a1b" stroke-width="1.51"></path><path d="M176,112L67,110L169,167Z" fill="#9a8d30" stroke="#9a8d30" stroke-width="1.51"></path><path d="M169,167L116,288L208,270Z" fill="#8d8223" stroke="#8d8223" stroke-width="1.51"></path><path d="M222,115L268,22L176,112Z" fill="#988c2e" stroke="#988c2e" stroke-width="1.51"></path><path d="M176,112L124,-1L67,110Z" fill="#ad9b44" stroke="#ad9b44" stroke-width="1.51"></path><path d="M335,83L222,115L252,149Z" fill="#8d8223" stroke="#8d8223" stroke-width="1.51"></path><path d="M325,158L335,83L252,149Z" fill="#897d1e" stroke="#897d1e" stroke-width="1.51"></path><path d="M67,110L45,173L169,167Z" fill="#a5923c" stroke="#a5923c" stroke-width="1.51"></path><path d="M268,22L124,-1L176,112Z" fill="#b19b48" stroke="#b19b48" stroke-width="1.51"></path><path d="M45,173L116,288L169,167Z" fill="#9c8b33" stroke="#9c8b33" stroke-width="1.51"></path><path d="M124,-1L48,15L67,110Z" fill="#cdac65" stroke="#cdac65" stroke-width="1.51"></path><path d="M67,110L-5,81L45,173Z" fill="#bca155" stroke="#bca155" stroke-width="1.51"></path><path d="M45,173L31,251L116,288Z" fill="#ab9443" stroke="#ab9443" stroke-width="1.51"></path><path d="M-14,193L31,251L45,173Z" fill="#b99b52" stroke="#b99b52" stroke-width="1.51"></path><path d="M446,185L396,93L325,158Z" fill="#867b1c" stroke="#867b1c" stroke-width="1.51"></path><path d="M325,158L396,93L335,83Z" fill="#8b8021" stroke="#8b8021" stroke-width="1.51"></path><path d="M335,83L306,-32L268,22Z" fill="#b2974b" stroke="#b2974b" stroke-width="1.51"></path><path d="M433,12L306,-32L335,83Z" fill="#b4984d" stroke="#b4984d" stroke-width="1.51"></path><path d="M268,22L251,-68L124,-1Z" fill="#c7a760" stroke="#c7a760" stroke-width="1.51"></path><path d="M48,15L-5,81L67,110Z" fill="#ccac64" stroke="#ccac64" stroke-width="1.51"></path><path d="M208,270L352,294L325,158Z" fill="#827718" stroke="#827718" stroke-width="1.51"></path><path d="M116,288L352,294L208,270Z" fill="#887d1e" stroke="#887d1e" stroke-width="1.51"></path><path d="M-5,81L-14,193L45,173Z" fill="#c1a25a" stroke="#c1a25a" stroke-width="1.51"></path><path d="M306,-32L251,-68L268,22Z" fill="#c2a15b" stroke="#c2a15b" stroke-width="1.51"></path><path d="M124,-1L82,-90L48,15Z" fill="#e3b97b" stroke="#e3b97b" stroke-width="1.51"></path><path d="M352,294L429,242L325,158Z" fill="#827717" stroke="#827717" stroke-width="1.51"></path><path d="M429,242L446,185L325,158Z" fill="#827717" stroke="#827717" stroke-width="1.51"></path><path d="M251,-68L151,-106L124,-1Z" fill="#cbab63" stroke="#cbab63" stroke-width="1.51"></path><path d="M151,-106L82,-90L124,-1Z" fill="#d7b26f" stroke="#d7b26f" stroke-width="1.51"></path><path d="M48,15L-48,29L-5,81Z" fill="#e7bb80" stroke="#e7bb80" stroke-width="1.51"></path><path d="M306,-32L320,-123L251,-68Z" fill="#c0a059" stroke="#c0a059" stroke-width="1.51"></path><path d="M396,93L433,12L335,83Z" fill="#9d8c34" stroke="#9d8c34" stroke-width="1.51"></path><path d="M446,185L433,12L396,93Z" fill="#8d8223" stroke="#8d8223" stroke-width="1.51"></path><path d="M-124,92L-119,190L-14,193Z" fill="#c2a25c" stroke="#c2a25c" stroke-width="1.51"></path><path d="M-46,-61L-48,29L48,15Z" fill="#ffc998" stroke="#ffc998" stroke-width="1.51"></path><path d="M-14,193L-61,252L31,251Z" fill="#c09f59" stroke="#c09f59" stroke-width="1.51"></path><path d="M31,251L-61,252L116,288Z" fill="#b69a4f" stroke="#b69a4f" stroke-width="1.51"></path><path d="M-119,190L-61,252L-14,193Z" fill="#c09f59" stroke="#c09f59" stroke-width="1.51"></path><path d="M424,-101L320,-123L306,-32Z" fill="#c09f59" stroke="#c09f59" stroke-width="1.51"></path><path d="M251,-68L320,-123L151,-106Z" fill="#c5a45e" stroke="#c5a45e" stroke-width="1.51"></path><path d="M-124,92L-14,193L-5,81Z" fill="#c8a860" stroke="#c8a860" stroke-width="1.51"></path><path d="M82,-90L-46,-61L48,15Z" fill="#f5c38e" stroke="#f5c38e" stroke-width="1.51"></path><path d="M-135,-104L-46,-61L82,-90Z" fill="#ffc998" stroke="#ffc998" stroke-width="1.51"></path><path d="M-124,92L-5,81L-48,29Z" fill="#d9b371" stroke="#d9b371" stroke-width="1.51"></path><path d="M-111,-2L-124,92L-48,29Z" fill="#e8bc81" stroke="#e8bc81" stroke-width="1.51"></path><path d="M-119,190L-116,240L-61,252Z" fill="#c09f59" stroke="#c09f59" stroke-width="1.51"></path><path d="M433,12L424,-101L306,-32Z" fill="#c09f59" stroke="#c09f59" stroke-width="1.51"></path><path d="M-46,-61L-111,-2L-48,29Z" fill="#ffc998" stroke="#ffc998" stroke-width="1.51"></path><path d="M-46,-61L-135,-104L-111,-2Z" fill="#ffc998" stroke="#ffc998" stroke-width="1.51"></path><path d="M-111,-2L-135,-104L-124,92Z" fill="#ffc998" stroke="#ffc998" stroke-width="1.51"></path><path d="M-124,92L-135,-104L-119,190Z" fill="#ddb675" stroke="#ddb675" stroke-width="1.51"></path><path d="M151,-106L-135,-104L82,-90Z" fill="#f4c38d" stroke="#f4c38d" stroke-width="1.51"></path><path d="M320,-123L-135,-104L151,-106Z" fill="#dab472" stroke="#dab472" stroke-width="1.51"></path></svg>