<svg width="300" height="176" xmlns="http://www.w3.org/2000/svg"><path d="M171,118L226,70L214,12Z" fill="#9e9134" stroke="#9e9134" stroke-width="1.51"></path><path d="M214,12L124,-5L171,118Z" fill="#a5953b" stroke="#a5953b" stroke-width="1.51"></path><path d="M30,63L85,148L171,118Z" fill="#a3943a" stroke="#a3943a" stroke-width="1.51"></path><path d="M30,63L171,118L124,-5Z" fill="#a9983f" stroke="#a9983f" stroke-width="1.51"></path><path d="M76,-6L30,63L124,-5Z" fill="#b7a04e" stroke="#b7a04e" stroke-width="1.51"></path><path d="M226,70L297,78L214,12Z" fill="#9f9136" stroke="#9f9136" stroke-width="1.51"></path><path d="M306,177L297,78L226,70Z" fill="#968a2b" stroke="#968a2b" stroke-width="1.51"></path><path d="M207,200L226,70L171,118Z" fill="#978c2d" stroke="#978c2d" stroke-width="1.51"></path><path d="M85,148L121,197L171,118Z" fill="#9c8f32" stroke="#9c8f32" stroke-width="1.51"></path><path d="M121,197L207,200L171,118Z" fill="#968b2c" stroke="#968b2c" stroke-width="1.51"></path><path d="M214,12L242,-82L124,-5Z" fill="#b29d4a" stroke="#b29d4a" stroke-width="1.51"></path><path d="M124,-5L119,-99L76,-6Z" fill="#bea455" stroke="#bea455" stroke-width="1.51"></path><path d="M356,-7L242,-82L214,12Z" fill="#b09a47" stroke="#b09a47" stroke-width="1.51"></path><path d="M242,-82L119,-99L124,-5Z" fill="#bca354" stroke="#bca354" stroke-width="1.51"></path><path d="M76,-6L-4,3L30,63Z" fill="#bda355" stroke="#bda355" stroke-width="1.51"></path><path d="M61,-104L-4,3L76,-6Z" fill="#c7aa5f" stroke="#c7aa5f" stroke-width="1.51"></path><path d="M119,-99L61,-104L76,-6Z" fill="#c8aa60" stroke="#c8aa60" stroke-width="1.51"></path><path d="M207,200L306,177L226,70Z" fill="#94892a" stroke="#94892a" stroke-width="1.51"></path><path d="M207,200L313,238L306,177Z" fill="#908526" stroke="#908526" stroke-width="1.51"></path><path d="M121,197L150,253L207,200Z" fill="#94892a" stroke="#94892a" stroke-width="1.51"></path><path d="M78,239L150,253L121,197Z" fill="#998c2f" stroke="#998c2f" stroke-width="1.51"></path><path d="M78,239L121,197L85,148Z" fill="#9e9035" stroke="#9e9035" stroke-width="1.51"></path><path d="M414,22L356,-7L297,78Z" fill="#a08f37" stroke="#a08f37" stroke-width="1.51"></path><path d="M297,78L356,-7L214,12Z" fill="#a3923a" stroke="#a3923a" stroke-width="1.51"></path><path d="M-45,153L85,148L30,63Z" fill="#ad9a45" stroke="#ad9a45" stroke-width="1.51"></path><path d="M-45,153L78,239L85,148Z" fill="#a7953f" stroke="#a7953f" stroke-width="1.51"></path><path d="M356,-7L342,-65L242,-82Z" fill="#b39b4b" stroke="#b39b4b" stroke-width="1.51"></path><path d="M-62,110L-45,153L30,63Z" fill="#b69f4e" stroke="#b69f4e" stroke-width="1.51"></path><path d="M-4,3L-62,110L30,63Z" fill="#bca353" stroke="#bca353" stroke-width="1.51"></path><path d="M-58,263L225,283L150,253Z" fill="#988a2f" stroke="#988a2f" stroke-width="1.51"></path><path d="M150,253L225,283L207,200Z" fill="#918627" stroke="#918627" stroke-width="1.51"></path><path d="M443,60L414,22L297,78Z" fill="#9a8c31" stroke="#9a8c31" stroke-width="1.51"></path><path d="M225,283L313,238L207,200Z" fill="#8f8425" stroke="#8f8425" stroke-width="1.51"></path><path d="M-4,3L-95,100L-62,110Z" fill="#bfa557" stroke="#bfa557" stroke-width="1.51"></path><path d="M61,-104L-47,-63L-4,3Z" fill="#d2af6a" stroke="#d2af6a" stroke-width="1.51"></path><path d="M356,-7L420,-84L342,-65Z" fill="#b19949" stroke="#b19949" stroke-width="1.51"></path><path d="M443,60L297,78L306,177Z" fill="#938728" stroke="#938728" stroke-width="1.51"></path><path d="M-62,110L-95,100L-45,153Z" fill="#bca253" stroke="#bca253" stroke-width="1.51"></path><path d="M-135,2L-95,100L-4,3Z" fill="#cbab63" stroke="#cbab63" stroke-width="1.51"></path><path d="M434,201L443,60L306,177Z" fill="#8e8324" stroke="#8e8324" stroke-width="1.51"></path><path d="M414,22L420,-84L356,-7Z" fill="#aa9442" stroke="#aa9442" stroke-width="1.51"></path><path d="M342,-65L420,-84L242,-82Z" fill="#b89e51" stroke="#b89e51" stroke-width="1.51"></path><path d="M242,-82L420,-84L119,-99Z" fill="#bea256" stroke="#bea256" stroke-width="1.51"></path><path d="M119,-99L420,-84L61,-104Z" fill="#c2a65a" stroke="#c2a65a" stroke-width="1.51"></path><path d="M443,60L420,-84L414,22Z" fill="#a4903c" stroke="#a4903c" stroke-width="1.51"></path><path d="M-47,-63L-135,2L-4,3Z" fill="#d4b06d" stroke="#d4b06d" stroke-width="1.51"></path><path d="M-114,194L-58,263L-45,153Z" fill="#b89e50" stroke="#b89e50" stroke-width="1.51"></path><path d="M-45,153L-58,263L78,239Z" fill="#ad9745" stroke="#ad9745" stroke-width="1.51"></path><path d="M78,239L-58,263L150,253Z" fill="#a18f38" stroke="#a18f38" stroke-width="1.51"></path><path d="M-114,194L-45,153L-95,100Z" fill="#bda255" stroke="#bda255" stroke-width="1.51"></path><path d="M417,290L434,201L313,238Z" fill="#897e1f" stroke="#897e1f" stroke-width="1.51"></path><path d="M313,238L434,201L306,177Z" fill="#8c8123" stroke="#8c8123" stroke-width="1.51"></path><path d="M-135,2L-114,194L-95,100Z" fill="#c5a85d" stroke="#c5a85d" stroke-width="1.51"></path><path d="M61,-104L-131,-76L-47,-63Z" fill="#deb676" stroke="#deb676" stroke-width="1.51"></path><path d="M-47,-63L-131,-76L-135,2Z" fill="#e1b879" stroke="#e1b879" stroke-width="1.51"></path><path d="M225,283L417,290L313,238Z" fill="#8a7f20" stroke="#8a7f20" stroke-width="1.51"></path><path d="M-114,194L-134,271L-58,263Z" fill="#ba9e53" stroke="#ba9e53" stroke-width="1.51"></path><path d="M-58,263L-134,271L225,283Z" fill="#a7923f" stroke="#a7923f" stroke-width="1.51"></path><path d="M225,283L-134,271L417,290Z" fill="#908525" stroke="#908525" stroke-width="1.51"></path><path d="M-135,2L-134,271L-114,194Z" fill="#c3a55c" stroke="#c3a55c" stroke-width="1.51"></path></svg>