<svg width="300" height="176" xmlns="http://www.w3.org/2000/svg"><path d="M131,97L34,117L117,176Z" fill="#a8953f" stroke="#a8953f" stroke-width="1.51"></path><path d="M34,117L70,206L117,176Z" fill="#a99341" stroke="#a99341" stroke-width="1.51"></path><path d="M34,117L-1,189L70,206Z" fill="#b59a4f" stroke="#b59a4f" stroke-width="1.51"></path><path d="M34,117L-117,114L-1,189Z" fill="#c5a55e" stroke="#c5a55e" stroke-width="1.51"></path><path d="M54,8L-5,56L34,117Z" fill="#d4b06b" stroke="#d4b06b" stroke-width="1.51"></path><path d="M131,97L54,8L34,117Z" fill="#bda454" stroke="#bda454" stroke-width="1.51"></path><path d="M117,176L234,173L131,97Z" fill="#928728" stroke="#928728" stroke-width="1.51"></path><path d="M70,206L161,235L117,176Z" fill="#9a8a31" stroke="#9a8a31" stroke-width="1.51"></path><path d="M87,290L161,235L70,206Z" fill="#9d8c35" stroke="#9d8c35" stroke-width="1.51"></path><path d="M131,97L156,-4L54,8Z" fill="#c6a85e" stroke="#c6a85e" stroke-width="1.51"></path><path d="M261,100L156,-4L131,97Z" fill="#a6953d" stroke="#a6953d" stroke-width="1.51"></path><path d="M-122,196L-26,253L-1,189Z" fill="#c09f59" stroke="#c09f59" stroke-width="1.51"></path><path d="M54,8L-12,16L-5,56Z" fill="#ecbe84" stroke="#ecbe84" stroke-width="1.51"></path><path d="M161,235L234,173L117,176Z" fill="#8d8223" stroke="#8d8223" stroke-width="1.51"></path><path d="M-26,253L87,290L70,206Z" fill="#b1974a" stroke="#b1974a" stroke-width="1.51"></path><path d="M-1,189L-26,253L70,206Z" fill="#bb9d54" stroke="#bb9d54" stroke-width="1.51"></path><path d="M-117,114L34,117L-5,56Z" fill="#ccac64" stroke="#ccac64" stroke-width="1.51"></path><path d="M234,173L261,100L131,97Z" fill="#918627" stroke="#918627" stroke-width="1.51"></path><path d="M234,173L327,166L261,100Z" fill="#887d1e" stroke="#887d1e" stroke-width="1.51"></path><path d="M161,235L221,283L234,173Z" fill="#8a7f20" stroke="#8a7f20" stroke-width="1.51"></path><path d="M87,290L221,283L161,235Z" fill="#8e8324" stroke="#8e8324" stroke-width="1.51"></path><path d="M-12,16L-117,114L-5,56Z" fill="#dcb574" stroke="#dcb574" stroke-width="1.51"></path><path d="M261,100L261,12L156,-4Z" fill="#b29b4a" stroke="#b29b4a" stroke-width="1.51"></path><path d="M-117,114L-122,196L-1,189Z" fill="#c1a15a" stroke="#c1a15a" stroke-width="1.51"></path><path d="M54,8L-63,-66L-12,16Z" fill="#ffc998" stroke="#ffc998" stroke-width="1.51"></path><path d="M-12,16L-129,-25L-117,114Z" fill="#ebbe83" stroke="#ebbe83" stroke-width="1.51"></path><path d="M156,-4L91,-93L54,8Z" fill="#ddb676" stroke="#ddb676" stroke-width="1.51"></path><path d="M142,-104L91,-93L156,-4Z" fill="#d4b06c" stroke="#d4b06c" stroke-width="1.51"></path><path d="M271,-101L142,-104L156,-4Z" fill="#caa962" stroke="#caa962" stroke-width="1.51"></path><path d="M221,283L327,166L234,173Z" fill="#857a1b" stroke="#857a1b" stroke-width="1.51"></path><path d="M261,100L335,6L261,12Z" fill="#ab9443" stroke="#ab9443" stroke-width="1.51"></path><path d="M-124,-122L-63,-66L91,-93Z" fill="#ffc998" stroke="#ffc998" stroke-width="1.51"></path><path d="M91,-93L-63,-66L54,8Z" fill="#f6c48e" stroke="#f6c48e" stroke-width="1.51"></path><path d="M-63,-66L-129,-25L-12,16Z" fill="#ffc998" stroke="#ffc998" stroke-width="1.51"></path><path d="M-117,114L-147,268L-122,196Z" fill="#c09f59" stroke="#c09f59" stroke-width="1.51"></path><path d="M-122,196L-147,268L-26,253Z" fill="#c09f59" stroke="#c09f59" stroke-width="1.51"></path><path d="M-26,253L-147,268L87,290Z" fill="#c09f59" stroke="#c09f59" stroke-width="1.51"></path><path d="M-129,-25L-147,268L-117,114Z" fill="#c8a861" stroke="#c8a861" stroke-width="1.51"></path><path d="M327,166L361,110L261,100Z" fill="#897e1f" stroke="#897e1f" stroke-width="1.51"></path><path d="M361,110L335,6L261,100Z" fill="#98892f" stroke="#98892f" stroke-width="1.51"></path><path d="M261,12L271,-101L156,-4Z" fill="#c6a55f" stroke="#c6a55f" stroke-width="1.51"></path><path d="M335,6L271,-101L261,12Z" fill="#c1a05a" stroke="#c1a05a" stroke-width="1.51"></path><path d="M327,166L420,159L361,110Z" fill="#867b1c" stroke="#867b1c" stroke-width="1.51"></path><path d="M221,283L360,289L327,166Z" fill="#827717" stroke="#827717" stroke-width="1.51"></path><path d="M87,290L360,289L221,283Z" fill="#887d1e" stroke="#887d1e" stroke-width="1.51"></path><path d="M-129,-25L-124,-122L-147,268Z" fill="#e8bc80" stroke="#e8bc80" stroke-width="1.51"></path><path d="M-63,-66L-124,-122L-129,-25Z" fill="#ffc998" stroke="#ffc998" stroke-width="1.51"></path><path d="M142,-104L-124,-122L91,-93Z" fill="#f3c28b" stroke="#f3c28b" stroke-width="1.51"></path><path d="M341,-121L-124,-122L142,-104Z" fill="#d7b26f" stroke="#d7b26f" stroke-width="1.51"></path><path d="M441,73L395,14L361,110Z" fill="#9b8b33" stroke="#9b8b33" stroke-width="1.51"></path><path d="M361,110L395,14L335,6Z" fill="#a89240" stroke="#a89240" stroke-width="1.51"></path><path d="M335,6L341,-121L271,-101Z" fill="#c09f59" stroke="#c09f59" stroke-width="1.51"></path><path d="M405,272L420,159L327,166Z" fill="#827717" stroke="#827717" stroke-width="1.51"></path><path d="M360,289L405,272L327,166Z" fill="#827717" stroke="#827717" stroke-width="1.51"></path><path d="M395,14L341,-121L335,6Z" fill="#c09f59" stroke="#c09f59" stroke-width="1.51"></path><path d="M271,-101L341,-121L142,-104Z" fill="#c4a35d" stroke="#c4a35d" stroke-width="1.51"></path><path d="M395,14L445,-111L341,-121Z" fill="#c09f59" stroke="#c09f59" stroke-width="1.51"></path><path d="M420,159L441,73L361,110Z" fill="#8b8021" stroke="#8b8021" stroke-width="1.51"></path><path d="M405,272L441,73L420,159Z" fill="#837819" stroke="#837819" stroke-width="1.51"></path><path d="M441,73L445,-111L395,14Z" fill="#c09f59" stroke="#c09f59" stroke-width="1.51"></path></svg>