<svg width="300" height="176" xmlns="http://www.w3.org/2000/svg"><path d="M145,77L210,92L217,-11Z" fill="#a29438" stroke="#a29438" stroke-width="1.51"></path><path d="M217,-11L156,-35L145,77Z" fill="#ac9942" stroke="#ac9942" stroke-width="1.51"></path><path d="M156,-35L69,65L145,77Z" fill="#ab9a42" stroke="#ab9a42" stroke-width="1.51"></path><path d="M238,-111L145,-63L156,-35Z" fill="#bda355" stroke="#bda355" stroke-width="1.51"></path><path d="M217,-11L238,-111L156,-35Z" fill="#b8a050" stroke="#b8a050" stroke-width="1.51"></path><path d="M210,92L298,24L217,-11Z" fill="#a3933a" stroke="#a3933a" stroke-width="1.51"></path><path d="M118,203L245,160L210,92Z" fill="#978c2c" stroke="#978c2c" stroke-width="1.51"></path><path d="M39,-13L69,65L156,-35Z" fill="#b7a04f" stroke="#b7a04f" stroke-width="1.51"></path><path d="M210,92L322,121L298,24Z" fill="#988c2e" stroke="#988c2e" stroke-width="1.51"></path><path d="M118,203L210,92L145,77Z" fill="#998e2f" stroke="#998e2f" stroke-width="1.51"></path><path d="M245,160L322,121L210,92Z" fill="#958a2b" stroke="#958a2b" stroke-width="1.51"></path><path d="M55,-70L39,-13L156,-35Z" fill="#c2a65a" stroke="#c2a65a" stroke-width="1.51"></path><path d="M145,-63L55,-70L156,-35Z" fill="#c0a558" stroke="#c0a558" stroke-width="1.51"></path><path d="M328,-73L238,-111L217,-11Z" fill="#b99f50" stroke="#b99f50" stroke-width="1.51"></path><path d="M238,-111L55,-70L145,-63Z" fill="#c1a659" stroke="#c1a659" stroke-width="1.51"></path><path d="M38,198L118,203L69,65Z" fill="#a3933a" stroke="#a3933a" stroke-width="1.51"></path><path d="M69,65L118,203L145,77Z" fill="#a09337" stroke="#a09337" stroke-width="1.51"></path><path d="M298,24L328,-73L217,-11Z" fill="#ae9946" stroke="#ae9946" stroke-width="1.51"></path><path d="M433,-2L328,-73L298,24Z" fill="#aa9542" stroke="#aa9542" stroke-width="1.51"></path><path d="M273,235L299,189L245,160Z" fill="#918626" stroke="#918626" stroke-width="1.51"></path><path d="M245,160L299,189L322,121Z" fill="#928728" stroke="#928728" stroke-width="1.51"></path><path d="M169,284L273,235L245,160Z" fill="#908526" stroke="#908526" stroke-width="1.51"></path><path d="M-5,193L38,198L69,65Z" fill="#aa9742" stroke="#aa9742" stroke-width="1.51"></path><path d="M118,203L169,284L245,160Z" fill="#938829" stroke="#938829" stroke-width="1.51"></path><path d="M38,198L75,236L118,203Z" fill="#a09037" stroke="#a09037" stroke-width="1.51"></path><path d="M-62,-4L-44,55L39,-13Z" fill="#c7a95f" stroke="#c7a95f" stroke-width="1.51"></path><path d="M39,-13L-44,55L69,65Z" fill="#bba353" stroke="#bba353" stroke-width="1.51"></path><path d="M75,236L169,284L118,203Z" fill="#978a2e" stroke="#978a2e" stroke-width="1.51"></path><path d="M-44,55L-5,193L69,65Z" fill="#b19c48" stroke="#b19c48" stroke-width="1.51"></path><path d="M38,198L-56,286L75,236Z" fill="#a7933f" stroke="#a7933f" stroke-width="1.51"></path><path d="M449,74L322,121L413,191Z" fill="#8f8425" stroke="#8f8425" stroke-width="1.51"></path><path d="M449,74L298,24L322,121Z" fill="#978a2c" stroke="#978a2c" stroke-width="1.51"></path><path d="M449,74L433,-2L298,24Z" fill="#9e8e35" stroke="#9e8e35" stroke-width="1.51"></path><path d="M55,-70L-62,-4L39,-13Z" fill="#cbac63" stroke="#cbac63" stroke-width="1.51"></path><path d="M-44,55L-108,95L-5,193Z" fill="#baa151" stroke="#baa151" stroke-width="1.51"></path><path d="M433,-2L413,-89L328,-73Z" fill="#b19849" stroke="#b19849" stroke-width="1.51"></path><path d="M328,-73L413,-89L238,-111Z" fill="#bc9f54" stroke="#bc9f54" stroke-width="1.51"></path><path d="M413,191L322,121L299,189Z" fill="#8f8425" stroke="#8f8425" stroke-width="1.51"></path><path d="M324,298L299,189L273,235Z" fill="#8d8223" stroke="#8d8223" stroke-width="1.51"></path><path d="M324,298L413,191L299,189Z" fill="#8c8122" stroke="#8c8122" stroke-width="1.51"></path><path d="M55,-70L-46,-125L-62,-4Z" fill="#d8b370" stroke="#d8b370" stroke-width="1.51"></path><path d="M238,-111L-46,-125L55,-70Z" fill="#d0ae68" stroke="#d0ae68" stroke-width="1.51"></path><path d="M-46,-125L-90,-36L-62,-4Z" fill="#ddb575" stroke="#ddb575" stroke-width="1.51"></path><path d="M-62,-4L-108,95L-44,55Z" fill="#c7a95f" stroke="#c7a95f" stroke-width="1.51"></path><path d="M169,284L324,298L273,235Z" fill="#8d8223" stroke="#8d8223" stroke-width="1.51"></path><path d="M-90,-36L-108,95L-62,-4Z" fill="#d0ae68" stroke="#d0ae68" stroke-width="1.51"></path><path d="M-90,-36L-153,158L-108,95Z" fill="#c9aa61" stroke="#c9aa61" stroke-width="1.51"></path><path d="M-46,-125L-110,-109L-90,-36Z" fill="#e7bb80" stroke="#e7bb80" stroke-width="1.51"></path><path d="M324,298L430,288L413,191Z" fill="#887d1e" stroke="#887d1e" stroke-width="1.51"></path><path d="M413,191L430,288L449,74Z" fill="#8b8020" stroke="#8b8020" stroke-width="1.51"></path><path d="M-110,284L-56,286L-5,193Z" fill="#b39a4b" stroke="#b39a4b" stroke-width="1.51"></path><path d="M-5,193L-56,286L38,198Z" fill="#ac9744" stroke="#ac9744" stroke-width="1.51"></path><path d="M75,236L-56,286L169,284Z" fill="#9f8e36" stroke="#9f8e36" stroke-width="1.51"></path><path d="M169,284L-56,286L324,298Z" fill="#918627" stroke="#918627" stroke-width="1.51"></path><path d="M-108,95L-153,158L-5,193Z" fill="#bea255" stroke="#bea255" stroke-width="1.51"></path><path d="M-110,-109L-153,158L-90,-36Z" fill="#d8b370" stroke="#d8b370" stroke-width="1.51"></path><path d="M-153,158L-110,284L-5,193Z" fill="#ba9f52" stroke="#ba9f52" stroke-width="1.51"></path></svg>