<svg width="300" height="176" xmlns="http://www.w3.org/2000/svg"><path d="M141,101L75,169L150,205Z" fill="#9c8f32" stroke="#9c8f32" stroke-width="1.51"></path><path d="M75,169L126,254L150,205Z" fill="#9a8d30" stroke="#9a8d30" stroke-width="1.51"></path><path d="M75,169L49,237L126,254Z" fill="#9f8f36" stroke="#9f8f36" stroke-width="1.51"></path><path d="M227,272L247,148L150,205Z" fill="#928728" stroke="#928728" stroke-width="1.51"></path><path d="M150,205L247,148L141,101Z" fill="#978c2d" stroke="#978c2d" stroke-width="1.51"></path><path d="M141,101L38,56L75,169Z" fill="#a5953b" stroke="#a5953b" stroke-width="1.51"></path><path d="M75,169L-20,192L49,237Z" fill="#a7943f" stroke="#a7943f" stroke-width="1.51"></path><path d="M141,101L83,24L38,56Z" fill="#ab9a42" stroke="#ab9a42" stroke-width="1.51"></path><path d="M121,-29L83,24L141,101Z" fill="#ad9b44" stroke="#ad9b44" stroke-width="1.51"></path><path d="M247,148L265,90L141,101Z" fill="#978c2d" stroke="#978c2d" stroke-width="1.51"></path><path d="M-43,97L-20,192L75,169Z" fill="#af9a46" stroke="#af9a46" stroke-width="1.51"></path><path d="M126,254L227,272L150,205Z" fill="#928728" stroke="#928728" stroke-width="1.51"></path><path d="M247,148L311,181L265,90Z" fill="#948929" stroke="#948929" stroke-width="1.51"></path><path d="M-20,192L-9,256L49,237Z" fill="#aa9542" stroke="#aa9542" stroke-width="1.51"></path><path d="M49,237L-9,256L126,254Z" fill="#a19039" stroke="#a19039" stroke-width="1.51"></path><path d="M126,254L-9,256L227,272Z" fill="#978a2e" stroke="#978a2e" stroke-width="1.51"></path><path d="M38,56L-43,97L75,169Z" fill="#ae9b45" stroke="#ae9b45" stroke-width="1.51"></path><path d="M-20,192L-124,239L-9,256Z" fill="#b39b4b" stroke="#b39b4b" stroke-width="1.51"></path><path d="M-9,8L-43,97L38,56Z" fill="#bba253" stroke="#bba253" stroke-width="1.51"></path><path d="M83,24L-9,8L38,56Z" fill="#baa252" stroke="#baa252" stroke-width="1.51"></path><path d="M223,-7L121,-29L141,101Z" fill="#aa9840" stroke="#aa9840" stroke-width="1.51"></path><path d="M227,272L311,181L247,148Z" fill="#918626" stroke="#918626" stroke-width="1.51"></path><path d="M265,90L223,-7L141,101Z" fill="#9f9235" stroke="#9f9235" stroke-width="1.51"></path><path d="M322,77L223,-7L265,90Z" fill="#9e9035" stroke="#9e9035" stroke-width="1.51"></path><path d="M-3,-86L-9,8L83,24Z" fill="#c6a95f" stroke="#c6a95f" stroke-width="1.51"></path><path d="M311,181L322,77L265,90Z" fill="#94892a" stroke="#94892a" stroke-width="1.51"></path><path d="M411,183L396,69L322,77Z" fill="#918627" stroke="#918627" stroke-width="1.51"></path><path d="M227,272L336,243L311,181Z" fill="#8d8224" stroke="#8d8224" stroke-width="1.51"></path><path d="M121,-29L-3,-86L83,24Z" fill="#c3a75b" stroke="#c3a75b" stroke-width="1.51"></path><path d="M223,-7L152,-72L121,-29Z" fill="#b6a04e" stroke="#b6a04e" stroke-width="1.51"></path><path d="M229,-118L152,-72L223,-7Z" fill="#bba253" stroke="#bba253" stroke-width="1.51"></path><path d="M-128,105L-129,159L-43,97Z" fill="#c1a559" stroke="#c1a559" stroke-width="1.51"></path><path d="M-43,97L-129,159L-20,192Z" fill="#baa051" stroke="#baa051" stroke-width="1.51"></path><path d="M322,77L350,21L223,-7Z" fill="#a29239" stroke="#a29239" stroke-width="1.51"></path><path d="M396,69L350,21L322,77Z" fill="#9a8c30" stroke="#9a8c30" stroke-width="1.51"></path><path d="M-148,24L-128,105L-43,97Z" fill="#c7a95e" stroke="#c7a95e" stroke-width="1.51"></path><path d="M-129,159L-124,239L-20,192Z" fill="#bba053" stroke="#bba053" stroke-width="1.51"></path><path d="M-9,8L-148,24L-43,97Z" fill="#c8a95f" stroke="#c8a95f" stroke-width="1.51"></path><path d="M81,-125L-3,-86L121,-29Z" fill="#cead66" stroke="#cead66" stroke-width="1.51"></path><path d="M411,183L322,77L311,181Z" fill="#908526" stroke="#908526" stroke-width="1.51"></path><path d="M152,-72L81,-125L121,-29Z" fill="#c5a85c" stroke="#c5a85c" stroke-width="1.51"></path><path d="M229,-118L81,-125L152,-72Z" fill="#c6a95e" stroke="#c6a95e" stroke-width="1.51"></path><path d="M336,243L411,183L311,181Z" fill="#8d8223" stroke="#8d8223" stroke-width="1.51"></path><path d="M356,-114L223,-7L350,21Z" fill="#b09947" stroke="#b09947" stroke-width="1.51"></path><path d="M356,-114L229,-118L223,-7Z" fill="#bba154" stroke="#bba154" stroke-width="1.51"></path><path d="M336,243L413,257L411,183Z" fill="#8a7f20" stroke="#8a7f20" stroke-width="1.51"></path><path d="M227,272L413,257L336,243Z" fill="#8a7f21" stroke="#8a7f21" stroke-width="1.51"></path><path d="M-136,-94L-148,24L-9,8Z" fill="#dab472" stroke="#dab472" stroke-width="1.51"></path><path d="M-128,105L-148,24L-129,159Z" fill="#c8aa60" stroke="#c8aa60" stroke-width="1.51"></path><path d="M-129,159L-148,24L-124,239Z" fill="#c5a75d" stroke="#c5a75d" stroke-width="1.51"></path><path d="M396,69L419,-28L350,21Z" fill="#a08f38" stroke="#a08f38" stroke-width="1.51"></path><path d="M411,183L419,-28L396,69Z" fill="#94882a" stroke="#94882a" stroke-width="1.51"></path><path d="M435,-70L419,-28L411,183Z" fill="#9e8d35" stroke="#9e8d35" stroke-width="1.51"></path><path d="M419,-28L356,-114L350,21Z" fill="#ae9747" stroke="#ae9747" stroke-width="1.51"></path><path d="M229,-118L356,-114L81,-125Z" fill="#c6a75e" stroke="#c6a75e" stroke-width="1.51"></path><path d="M-3,-86L-136,-94L-9,8Z" fill="#dbb573" stroke="#dbb573" stroke-width="1.51"></path><path d="M81,-125L-136,-94L-3,-86Z" fill="#e0b778" stroke="#e0b778" stroke-width="1.51"></path><path d="M419,-28L435,-70L356,-114Z" fill="#b49a4c" stroke="#b49a4c" stroke-width="1.51"></path><path d="M413,257L435,-70L411,183Z" fill="#8f8424" stroke="#8f8424" stroke-width="1.51"></path></svg>