<svg width="300" height="176" xmlns="http://www.w3.org/2000/svg"><path d="M-33,-91L176,-108L238,-124Z" fill="#cabf60" stroke="#cabf60" stroke-width="1.51"></path><path d="M-144,-94L-33,-91L238,-124Z" fill="#dacf70" stroke="#dacf70" stroke-width="1.51"></path><path d="M168,253L-12,270L257,263Z" fill="#948929" stroke="#948929" stroke-width="1.51"></path><path d="M334,266L257,263L398,295Z" fill="#897e20" stroke="#897e20" stroke-width="1.51"></path><path d="M257,263L-12,270L398,295Z" fill="#8e8324" stroke="#8e8324" stroke-width="1.51"></path><path d="M311,21L336,106L438,90Z" fill="#968b2c" stroke="#968b2c" stroke-width="1.51"></path><path d="M336,106L394,199L438,90Z" fill="#8f8425" stroke="#8f8425" stroke-width="1.51"></path><path d="M394,199L398,295L438,90Z" fill="#8b8021" stroke="#8b8021" stroke-width="1.51"></path><path d="M311,21L438,90L449,-34Z" fill="#9f9436" stroke="#9f9436" stroke-width="1.51"></path><path d="M421,-67L311,21L449,-34Z" fill="#ab9f41" stroke="#ab9f41" stroke-width="1.51"></path><path d="M336,106L346,183L394,199Z" fill="#8f8425" stroke="#8f8425" stroke-width="1.51"></path><path d="M394,199L334,266L398,295Z" fill="#897e1f" stroke="#897e1f" stroke-width="1.51"></path><path d="M331,-100L311,21L421,-67Z" fill="#b1a648" stroke="#b1a648" stroke-width="1.51"></path><path d="M346,183L334,266L394,199Z" fill="#8c8122" stroke="#8c8122" stroke-width="1.51"></path><path d="M-33,-91L63,-80L176,-108Z" fill="#d0c566" stroke="#d0c566" stroke-width="1.51"></path><path d="M257,-17L311,21L331,-100Z" fill="#b0a546" stroke="#b0a546" stroke-width="1.51"></path><path d="M268,185L257,263L334,266Z" fill="#8e8323" stroke="#8e8323" stroke-width="1.51"></path><path d="M311,21L249,86L336,106Z" fill="#998e2f" stroke="#998e2f" stroke-width="1.51"></path><path d="M336,106L268,185L346,183Z" fill="#918627" stroke="#918627" stroke-width="1.51"></path><path d="M268,185L334,266L346,183Z" fill="#8e8324" stroke="#8e8324" stroke-width="1.51"></path><path d="M238,-124L257,-17L331,-100Z" fill="#bbb152" stroke="#bbb152" stroke-width="1.51"></path><path d="M249,86L268,185L336,106Z" fill="#94892a" stroke="#94892a" stroke-width="1.51"></path><path d="M39,250L-12,270L168,253Z" fill="#9f9435" stroke="#9f9435" stroke-width="1.51"></path><path d="M257,-17L249,86L311,21Z" fill="#a39839" stroke="#a39839" stroke-width="1.51"></path><path d="M238,-124L176,-108L257,-17Z" fill="#beb354" stroke="#beb354" stroke-width="1.51"></path><path d="M129,71L249,86L257,-17Z" fill="#a29738" stroke="#a29738" stroke-width="1.51"></path><path d="M122,-8L129,71L257,-17Z" fill="#aa9f40" stroke="#aa9f40" stroke-width="1.51"></path><path d="M163,205L168,253L257,263Z" fill="#918627" stroke="#918627" stroke-width="1.51"></path><path d="M163,205L257,263L268,185Z" fill="#918627" stroke="#918627" stroke-width="1.51"></path><path d="M249,86L163,205L268,185Z" fill="#958a2a" stroke="#958a2a" stroke-width="1.51"></path><path d="M129,71L163,205L249,86Z" fill="#998d2e" stroke="#998d2e" stroke-width="1.51"></path><path d="M176,-108L122,-8L257,-17Z" fill="#b7ac4d" stroke="#b7ac4d" stroke-width="1.51"></path><path d="M129,71L27,200L163,205Z" fill="#9e9334" stroke="#9e9334" stroke-width="1.51"></path><path d="M63,-80L122,-8L176,-108Z" fill="#c2b758" stroke="#c2b758" stroke-width="1.51"></path><path d="M163,205L39,250L168,253Z" fill="#978c2d" stroke="#978c2d" stroke-width="1.51"></path><path d="M27,200L39,250L163,205Z" fill="#a09535" stroke="#a09535" stroke-width="1.51"></path><path d="M48,58L27,200L129,71Z" fill="#a79c3d" stroke="#a79c3d" stroke-width="1.51"></path><path d="M122,-8L48,25L129,71Z" fill="#b0a546" stroke="#b0a546" stroke-width="1.51"></path><path d="M48,25L48,58L129,71Z" fill="#afa445" stroke="#afa445" stroke-width="1.51"></path><path d="M63,-80L48,25L122,-8Z" fill="#beb454" stroke="#beb454" stroke-width="1.51"></path><path d="M-29,92L-31,180L27,200Z" fill="#b1a647" stroke="#b1a647" stroke-width="1.51"></path><path d="M-29,92L27,200L48,58Z" fill="#afa445" stroke="#afa445" stroke-width="1.51"></path><path d="M-18,-30L48,25L63,-80Z" fill="#c8bd5e" stroke="#c8bd5e" stroke-width="1.51"></path><path d="M-33,-91L-18,-30L63,-80Z" fill="#d4ca6a" stroke="#d4ca6a" stroke-width="1.51"></path><path d="M-18,-30L-29,92L48,25Z" fill="#bfb555" stroke="#bfb555" stroke-width="1.51"></path><path d="M48,25L-29,92L48,58Z" fill="#b6ab4c" stroke="#b6ab4c" stroke-width="1.51"></path><path d="M27,200L-12,270L39,250Z" fill="#a79c3e" stroke="#a79c3e" stroke-width="1.51"></path><path d="M-31,180L-12,270L27,200Z" fill="#aca143" stroke="#aca143" stroke-width="1.51"></path><path d="M-131,3L-102,90L-29,92Z" fill="#c6bb5d" stroke="#c6bb5d" stroke-width="1.51"></path><path d="M-102,90L-31,180L-29,92Z" fill="#baae50" stroke="#baae50" stroke-width="1.51"></path><path d="M-131,3L-29,92L-18,-30Z" fill="#cbc061" stroke="#cbc061" stroke-width="1.51"></path><path d="M-31,180L-97,260L-12,270Z" fill="#b2a748" stroke="#b2a748" stroke-width="1.51"></path><path d="M-33,-91L-131,3L-18,-30Z" fill="#d8ce6f" stroke="#d8ce6f" stroke-width="1.51"></path><path d="M-144,-94L-131,3L-33,-91Z" fill="#e4da7a" stroke="#e4da7a" stroke-width="1.51"></path><path d="M-138,166L-97,260L-31,180Z" fill="#baaf51" stroke="#baaf51" stroke-width="1.51"></path><path d="M-102,90L-138,166L-31,180Z" fill="#beb354" stroke="#beb354" stroke-width="1.51"></path><path d="M-131,3L-138,166L-102,90Z" fill="#c7bc5d" stroke="#c7bc5d" stroke-width="1.51"></path><path d="M-144,-94L-138,166L-131,3Z" fill="#d6cc6d" stroke="#d6cc6d" stroke-width="1.51"></path></svg>