<svg width="300" height="176" xmlns="http://www.w3.org/2000/svg"><path d="M177,84L210,56L183,-28Z" fill="#fc953b" stroke="#fc953b" stroke-width="1.51"></path><path d="M210,56L219,-3L183,-28Z" fill="#f99c4a" stroke="#f99c4a" stroke-width="1.51"></path><path d="M183,-28L84,-6L177,84Z" fill="#fa9c47" stroke="#fa9c47" stroke-width="1.51"></path><path d="M84,-6L72,117L177,84Z" fill="#fc963c" stroke="#fc963c" stroke-width="1.51"></path><path d="M219,-3L258,-61L183,-28Z" fill="#f5a55d" stroke="#f5a55d" stroke-width="1.51"></path><path d="M183,-28L127,-110L84,-6Z" fill="#f1af6d" stroke="#f1af6d" stroke-width="1.51"></path><path d="M342,5L258,-61L219,-3Z" fill="#f7a056" stroke="#f7a056" stroke-width="1.51"></path><path d="M258,-61L127,-110L183,-28Z" fill="#f1ae6f" stroke="#f1ae6f" stroke-width="1.51"></path><path d="M310,193L325,70L210,56Z" fill="#ff8315" stroke="#ff8315" stroke-width="1.51"></path><path d="M72,117L147,187L177,84Z" fill="#fe8a23" stroke="#fe8a23" stroke-width="1.51"></path><path d="M-31,96L36,157L72,117Z" fill="#f99e4f" stroke="#f99e4f" stroke-width="1.51"></path><path d="M127,-110L75,-116L84,-6Z" fill="#e9bc88" stroke="#e9bc88" stroke-width="1.51"></path><path d="M210,56L325,70L219,-3Z" fill="#fc9137" stroke="#fc9137" stroke-width="1.51"></path><path d="M227,210L210,56L177,84Z" fill="#ff8617" stroke="#ff8617" stroke-width="1.51"></path><path d="M72,117L36,157L147,187Z" fill="#fc9237" stroke="#fc9237" stroke-width="1.51"></path><path d="M-31,96L72,117L84,-6Z" fill="#f8a253" stroke="#f8a253" stroke-width="1.51"></path><path d="M325,70L342,5L219,-3Z" fill="#fb943f" stroke="#fb943f" stroke-width="1.51"></path><path d="M147,187L227,210L177,84Z" fill="#ff8416" stroke="#ff8416" stroke-width="1.51"></path><path d="M142,284L227,210L147,187Z" fill="#ff8013" stroke="#ff8013" stroke-width="1.51"></path><path d="M342,5L331,-67L258,-61Z" fill="#f5a460" stroke="#f5a460" stroke-width="1.51"></path><path d="M258,-61L331,-67L127,-110Z" fill="#f0b074" stroke="#f0b074" stroke-width="1.51"></path><path d="M-62,17L-31,96L84,-6Z" fill="#f0b274" stroke="#f0b274" stroke-width="1.51"></path><path d="M75,-116L-7,-104L84,-6Z" fill="#e4c396" stroke="#e4c396" stroke-width="1.51"></path><path d="M-7,-104L-62,17L84,-6Z" fill="#e6c191" stroke="#e6c191" stroke-width="1.51"></path><path d="M325,70L405,-13L342,5Z" fill="#fb9240" stroke="#fb9240" stroke-width="1.51"></path><path d="M227,210L310,193L210,56Z" fill="#ff8214" stroke="#ff8214" stroke-width="1.51"></path><path d="M342,5L405,-13L331,-67Z" fill="#f79e57" stroke="#f79e57" stroke-width="1.51"></path><path d="M438,102L405,-13L325,70Z" fill="#fd892d" stroke="#fd892d" stroke-width="1.51"></path><path d="M227,210L298,300L310,193Z" fill="#ff7c0e" stroke="#ff7c0e" stroke-width="1.51"></path><path d="M36,157L44,253L147,187Z" fill="#fc9139" stroke="#fc9139" stroke-width="1.51"></path><path d="M-54,195L44,253L36,157Z" fill="#f89d52" stroke="#f89d52" stroke-width="1.51"></path><path d="M44,253L142,284L147,187Z" fill="#fd8828" stroke="#fd8828" stroke-width="1.51"></path><path d="M-31,96L-54,195L36,157Z" fill="#f6a45d" stroke="#f6a45d" stroke-width="1.51"></path><path d="M-107,146L-54,195L-31,96Z" fill="#f1ad6d" stroke="#f1ad6d" stroke-width="1.51"></path><path d="M-129,-26L-117,59L-62,17Z" fill="#e0c79e" stroke="#e0c79e" stroke-width="1.51"></path><path d="M-62,17L-117,59L-31,96Z" fill="#ecb880" stroke="#ecb880" stroke-width="1.51"></path><path d="M405,-13L419,-67L331,-67Z" fill="#f5a362" stroke="#f5a362" stroke-width="1.51"></path><path d="M331,-67L419,-67L127,-110Z" fill="#f0ae74" stroke="#f0ae74" stroke-width="1.51"></path><path d="M142,284L243,300L227,210Z" fill="#ff7d0f" stroke="#ff7d0f" stroke-width="1.51"></path><path d="M-117,59L-107,146L-31,96Z" fill="#efb376" stroke="#efb376" stroke-width="1.51"></path><path d="M-7,-104L-115,-76L-62,17Z" fill="#d7d1b2" stroke="#d7d1b2" stroke-width="1.51"></path><path d="M-115,-76L-129,-26L-62,17Z" fill="#d6d2b4" stroke="#d6d2b4" stroke-width="1.51"></path><path d="M-117,59L-137,247L-107,146Z" fill="#ecb680" stroke="#ecb680" stroke-width="1.51"></path><path d="M426,144L438,102L325,70Z" fill="#ff7e10" stroke="#ff7e10" stroke-width="1.51"></path><path d="M405,-13L438,102L419,-67Z" fill="#fa9445" stroke="#fa9445" stroke-width="1.51"></path><path d="M426,144L325,70L310,193Z" fill="#ff7f10" stroke="#ff7f10" stroke-width="1.51"></path><path d="M415,257L426,144L310,193Z" fill="#ff7a0b" stroke="#ff7a0b" stroke-width="1.51"></path><path d="M243,300L298,300L227,210Z" fill="#ff7b0d" stroke="#ff7b0d" stroke-width="1.51"></path><path d="M-137,247L-21,283L-54,195Z" fill="#f2a96d" stroke="#f2a96d" stroke-width="1.51"></path><path d="M-54,195L-21,283L44,253Z" fill="#f79e58" stroke="#f79e58" stroke-width="1.51"></path><path d="M44,253L-21,283L142,284Z" fill="#fb913f" stroke="#fb913f" stroke-width="1.51"></path><path d="M142,284L-21,283L243,300Z" fill="#fe8422" stroke="#fe8422" stroke-width="1.51"></path><path d="M298,300L415,257L310,193Z" fill="#ff7909" stroke="#ff7909" stroke-width="1.51"></path><path d="M426,144L415,257L438,102Z" fill="#ff790b" stroke="#ff790b" stroke-width="1.51"></path><path d="M-107,146L-137,247L-54,195Z" fill="#efb078" stroke="#efb078" stroke-width="1.51"></path><path d="M-129,-26L-137,247L-117,59Z" fill="#ebba85" stroke="#ebba85" stroke-width="1.51"></path></svg>