<svg width="300" height="176" xmlns="http://www.w3.org/2000/svg"><path d="M135,98L84,54L83,172Z" fill="#fa9946" stroke="#fa9946" stroke-width="1.51"></path><path d="M84,54L-14,104L83,172Z" fill="#f2ac6b" stroke="#f2ac6b" stroke-width="1.51"></path><path d="M83,172L124,203L135,98Z" fill="#fc8e37" stroke="#fc8e37" stroke-width="1.51"></path><path d="M91,276L124,203L83,172Z" fill="#fa9142" stroke="#fa9142" stroke-width="1.51"></path><path d="M-14,104L-18,160L83,172Z" fill="#ecb381" stroke="#ecb381" stroke-width="1.51"></path><path d="M135,98L135,-32L84,54Z" fill="#efb478" stroke="#efb478" stroke-width="1.51"></path><path d="M263,205L216,73L135,98Z" fill="#ff7f11" stroke="#ff7f11" stroke-width="1.51"></path><path d="M84,54L53,-29L-14,104Z" fill="#daceab" stroke="#daceab" stroke-width="1.51"></path><path d="M135,-32L53,-29L84,54Z" fill="#d1d6bc" stroke="#d1d6bc" stroke-width="1.51"></path><path d="M216,73L135,-32L135,98Z" fill="#f7a358" stroke="#f7a358" stroke-width="1.51"></path><path d="M-18,160L91,276L83,172Z" fill="#f4a365" stroke="#f4a365" stroke-width="1.51"></path><path d="M124,203L263,205L135,98Z" fill="#ff7b0e" stroke="#ff7b0e" stroke-width="1.51"></path><path d="M135,-32L56,-61L53,-29Z" fill="#cdd9c3" stroke="#cdd9c3" stroke-width="1.51"></path><path d="M-56,-15L-101,73L-14,104Z" fill="#d2d5bb" stroke="#d2d5bb" stroke-width="1.51"></path><path d="M-14,104L-101,73L-18,160Z" fill="#e7be90" stroke="#e7be90" stroke-width="1.51"></path><path d="M-18,160L-47,296L91,276Z" fill="#ebb384" stroke="#ebb384" stroke-width="1.51"></path><path d="M-56,-15L-14,104L53,-29Z" fill="#b3e9e6" stroke="#b3e9e6" stroke-width="1.51"></path><path d="M-37,-74L-56,-15L53,-29Z" fill="#98f5ff" stroke="#98f5ff" stroke-width="1.51"></path><path d="M91,276L147,288L124,203Z" fill="#fd8930" stroke="#fd8930" stroke-width="1.51"></path><path d="M-56,-15L-96,3L-101,73Z" fill="#b3e9e5" stroke="#b3e9e5" stroke-width="1.51"></path><path d="M243,243L263,205L124,203Z" fill="#ff7709" stroke="#ff7709" stroke-width="1.51"></path><path d="M147,288L243,243L124,203Z" fill="#ff7a0d" stroke="#ff7a0d" stroke-width="1.51"></path><path d="M-147,237L-117,196L-101,73Z" fill="#e9b78b" stroke="#e9b78b" stroke-width="1.51"></path><path d="M-101,73L-117,196L-18,160Z" fill="#e8ba8d" stroke="#e8ba8d" stroke-width="1.51"></path><path d="M56,-61L-37,-74L53,-29Z" fill="#aceded" stroke="#aceded" stroke-width="1.51"></path><path d="M-56,-15L-121,-68L-96,3Z" fill="#98f5ff" stroke="#98f5ff" stroke-width="1.51"></path><path d="M216,73L269,2L135,-32Z" fill="#edb47e" stroke="#edb47e" stroke-width="1.51"></path><path d="M135,-32L134,-104L56,-61Z" fill="#d8d0b0" stroke="#d8d0b0" stroke-width="1.51"></path><path d="M297,1L269,2L339,84Z" fill="#f3a467" stroke="#f3a467" stroke-width="1.51"></path><path d="M-117,196L-47,296L-18,160Z" fill="#e9b68a" stroke="#e9b68a" stroke-width="1.51"></path><path d="M91,276L-47,296L147,288Z" fill="#f69f5d" stroke="#f69f5d" stroke-width="1.51"></path><path d="M56,-61L134,-104L-37,-74Z" fill="#bee4d9" stroke="#bee4d9" stroke-width="1.51"></path><path d="M265,-121L134,-104L135,-32Z" fill="#e6bf90" stroke="#e6bf90" stroke-width="1.51"></path><path d="M263,205L306,196L216,73Z" fill="#ff7606" stroke="#ff7606" stroke-width="1.51"></path><path d="M332,262L306,196L263,205Z" fill="#ff6f00" stroke="#ff6f00" stroke-width="1.51"></path><path d="M269,2L265,-121L135,-32Z" fill="#e7bc8e" stroke="#e7bc8e" stroke-width="1.51"></path><path d="M339,84L269,2L216,73Z" fill="#f9974a" stroke="#f9974a" stroke-width="1.51"></path><path d="M-117,196L-147,237L-47,296Z" fill="#e9b68a" stroke="#e9b68a" stroke-width="1.51"></path><path d="M-121,-68L-147,237L-101,73Z" fill="#e2c59b" stroke="#e2c59b" stroke-width="1.51"></path><path d="M306,196L339,84L216,73Z" fill="#ff790b" stroke="#ff790b" stroke-width="1.51"></path><path d="M-96,3L-121,-68L-101,73Z" fill="#9cf4fb" stroke="#9cf4fb" stroke-width="1.51"></path><path d="M-37,-74L-121,-68L-56,-15Z" fill="#98f5ff" stroke="#98f5ff" stroke-width="1.51"></path><path d="M134,-104L-121,-68L-37,-74Z" fill="#98f5ff" stroke="#98f5ff" stroke-width="1.51"></path><path d="M407,207L393,87L339,84Z" fill="#ff7708" stroke="#ff7708" stroke-width="1.51"></path><path d="M243,243L332,262L263,205Z" fill="#ff7102" stroke="#ff7102" stroke-width="1.51"></path><path d="M147,288L332,262L243,243Z" fill="#ff7506" stroke="#ff7506" stroke-width="1.51"></path><path d="M358,-81L265,-121L297,1Z" fill="#e9b68a" stroke="#e9b68a" stroke-width="1.51"></path><path d="M297,1L265,-121L269,2Z" fill="#e8b78b" stroke="#e8b78b" stroke-width="1.51"></path><path d="M339,84L432,-20L297,1Z" fill="#f1a870" stroke="#f1a870" stroke-width="1.51"></path><path d="M407,207L339,84L306,196Z" fill="#ff7102" stroke="#ff7102" stroke-width="1.51"></path><path d="M432,-20L358,-81L297,1Z" fill="#e9b68a" stroke="#e9b68a" stroke-width="1.51"></path><path d="M332,262L407,207L306,196Z" fill="#ff6f00" stroke="#ff6f00" stroke-width="1.51"></path><path d="M393,87L432,-20L339,84Z" fill="#f9964c" stroke="#f9964c" stroke-width="1.51"></path><path d="M407,207L432,-20L393,87Z" fill="#ff7c0e" stroke="#ff7c0e" stroke-width="1.51"></path><path d="M407,207L435,291L432,-20Z" fill="#ff7202" stroke="#ff7202" stroke-width="1.51"></path><path d="M332,262L435,291L407,207Z" fill="#ff6f00" stroke="#ff6f00" stroke-width="1.51"></path><path d="M147,288L435,291L332,262Z" fill="#ff6f00" stroke="#ff6f00" stroke-width="1.51"></path><path d="M-47,296L435,291L147,288Z" fill="#ff7a0c" stroke="#ff7a0c" stroke-width="1.51"></path><path d="M432,-20L434,-106L358,-81Z" fill="#e9b68a" stroke="#e9b68a" stroke-width="1.51"></path><path d="M358,-81L434,-106L265,-121Z" fill="#e9b68a" stroke="#e9b68a" stroke-width="1.51"></path><path d="M435,291L434,-106L432,-20Z" fill="#fa9346" stroke="#fa9346" stroke-width="1.51"></path></svg>