<svg width="300" height="176" xmlns="http://www.w3.org/2000/svg"><path d="M166,83L170,164L219,173Z" fill="#ff7f11" stroke="#ff7f11" stroke-width="1.51"></path><path d="M219,173L272,77L166,83Z" fill="#ff8012" stroke="#ff8012" stroke-width="1.51"></path><path d="M219,173L323,171L272,77Z" fill="#ff7708" stroke="#ff7708" stroke-width="1.51"></path><path d="M272,77L271,5L166,83Z" fill="#f99849" stroke="#f99849" stroke-width="1.51"></path><path d="M311,-21L271,5L272,77Z" fill="#f0aa72" stroke="#f0aa72" stroke-width="1.51"></path><path d="M219,173L273,252L323,171Z" fill="#ff7202" stroke="#ff7202" stroke-width="1.51"></path><path d="M170,164L144,246L219,173Z" fill="#ff7a0c" stroke="#ff7a0c" stroke-width="1.51"></path><path d="M88,252L144,246L47,208Z" fill="#fa9347" stroke="#fa9347" stroke-width="1.51"></path><path d="M144,246L273,252L219,173Z" fill="#ff7709" stroke="#ff7709" stroke-width="1.51"></path><path d="M323,171L352,117L272,77Z" fill="#ff7709" stroke="#ff7709" stroke-width="1.51"></path><path d="M271,5L160,-28L166,83Z" fill="#efb177" stroke="#efb177" stroke-width="1.51"></path><path d="M166,83L56,57L170,164Z" fill="#fd8f2e" stroke="#fd8f2e" stroke-width="1.51"></path><path d="M80,13L56,57L166,83Z" fill="#efb377" stroke="#efb377" stroke-width="1.51"></path><path d="M160,-28L80,13L166,83Z" fill="#ecb881" stroke="#ecb881" stroke-width="1.51"></path><path d="M47,208L144,246L170,164Z" fill="#fd8931" stroke="#fd8931" stroke-width="1.51"></path><path d="M144,246L88,252L273,252Z" fill="#ff7b0c" stroke="#ff7b0c" stroke-width="1.51"></path><path d="M56,57L47,208L170,164Z" fill="#f9984b" stroke="#f9984b" stroke-width="1.51"></path><path d="M271,5L224,-83L160,-28Z" fill="#e7bc8e" stroke="#e7bc8e" stroke-width="1.51"></path><path d="M398,68L311,-21L272,77Z" fill="#f79c58" stroke="#f79c58" stroke-width="1.51"></path><path d="M323,171L429,168L352,117Z" fill="#ff7304" stroke="#ff7304" stroke-width="1.51"></path><path d="M273,252L342,240L323,171Z" fill="#ff6f00" stroke="#ff6f00" stroke-width="1.51"></path><path d="M352,117L398,68L272,77Z" fill="#ff7d11" stroke="#ff7d11" stroke-width="1.51"></path><path d="M429,168L398,68L352,117Z" fill="#ff780a" stroke="#ff780a" stroke-width="1.51"></path><path d="M160,-28L67,-89L80,13Z" fill="#d6d1b4" stroke="#d6d1b4" stroke-width="1.51"></path><path d="M311,-21L224,-83L271,5Z" fill="#e8b88c" stroke="#e8b88c" stroke-width="1.51"></path><path d="M342,240L388,244L323,171Z" fill="#ff6f00" stroke="#ff6f00" stroke-width="1.51"></path><path d="M273,252L388,244L342,240Z" fill="#ff6f00" stroke="#ff6f00" stroke-width="1.51"></path><path d="M388,244L429,168L323,171Z" fill="#ff6f00" stroke="#ff6f00" stroke-width="1.51"></path><path d="M311,-21L321,-83L224,-83Z" fill="#e9b78b" stroke="#e9b78b" stroke-width="1.51"></path><path d="M434,-89L321,-83L311,-21Z" fill="#e9b68a" stroke="#e9b68a" stroke-width="1.51"></path><path d="M118,-123L160,-28L224,-83Z" fill="#e6bf91" stroke="#e6bf91" stroke-width="1.51"></path><path d="M118,-123L67,-89L160,-28Z" fill="#dbcdab" stroke="#dbcdab" stroke-width="1.51"></path><path d="M-60,-8L-57,55L56,57Z" fill="#c2e1d4" stroke="#c2e1d4" stroke-width="1.51"></path><path d="M429,168L432,19L398,68Z" fill="#ff7e17" stroke="#ff7e17" stroke-width="1.51"></path><path d="M398,68L432,19L311,-21Z" fill="#f1a870" stroke="#f1a870" stroke-width="1.51"></path><path d="M47,208L-51,240L88,252Z" fill="#efac76" stroke="#efac76" stroke-width="1.51"></path><path d="M56,57L-43,182L47,208Z" fill="#edb27e" stroke="#edb27e" stroke-width="1.51"></path><path d="M-57,55L-43,182L56,57Z" fill="#e6bf91" stroke="#e6bf91" stroke-width="1.51"></path><path d="M321,-83L118,-123L224,-83Z" fill="#e7bc8e" stroke="#e7bc8e" stroke-width="1.51"></path><path d="M-60,-8L56,57L80,13Z" fill="#c3e1d2" stroke="#c3e1d2" stroke-width="1.51"></path><path d="M-43,182L-51,240L47,208Z" fill="#e9b68a" stroke="#e9b68a" stroke-width="1.51"></path><path d="M-105,176L-51,240L-43,182Z" fill="#e9b68a" stroke="#e9b68a" stroke-width="1.51"></path><path d="M-117,96L-105,176L-43,182Z" fill="#e8b98c" stroke="#e8b98c" stroke-width="1.51"></path><path d="M67,-89L-60,-8L80,13Z" fill="#afebe9" stroke="#afebe9" stroke-width="1.51"></path><path d="M-61,-83L-60,-8L67,-89Z" fill="#98f5ff" stroke="#98f5ff" stroke-width="1.51"></path><path d="M321,-83L434,-89L118,-123Z" fill="#e9b78b" stroke="#e9b78b" stroke-width="1.51"></path><path d="M432,19L434,-89L311,-21Z" fill="#e9b68a" stroke="#e9b68a" stroke-width="1.51"></path><path d="M-117,96L-43,182L-57,55Z" fill="#e7be90" stroke="#e7be90" stroke-width="1.51"></path><path d="M-139,-31L-117,96L-57,55Z" fill="#c7decd" stroke="#c7decd" stroke-width="1.51"></path><path d="M-60,-8L-139,-31L-57,55Z" fill="#a0f2f8" stroke="#a0f2f8" stroke-width="1.51"></path><path d="M-116,-118L-61,-83L67,-89Z" fill="#98f5ff" stroke="#98f5ff" stroke-width="1.51"></path><path d="M-105,176L-105,259L-51,240Z" fill="#e9b68a" stroke="#e9b68a" stroke-width="1.51"></path><path d="M-51,240L-105,259L88,252Z" fill="#e9b68a" stroke="#e9b68a" stroke-width="1.51"></path><path d="M88,252L-105,259L273,252Z" fill="#f9964d" stroke="#f9964d" stroke-width="1.51"></path><path d="M-117,96L-105,259L-105,176Z" fill="#e9b68a" stroke="#e9b68a" stroke-width="1.51"></path><path d="M-117,96L-139,-31L-105,259Z" fill="#e7be90" stroke="#e7be90" stroke-width="1.51"></path><path d="M-61,-83L-139,-31L-60,-8Z" fill="#98f5ff" stroke="#98f5ff" stroke-width="1.51"></path><path d="M-61,-83L-116,-118L-139,-31Z" fill="#98f5ff" stroke="#98f5ff" stroke-width="1.51"></path><path d="M118,-123L-116,-118L67,-89Z" fill="#abedee" stroke="#abedee" stroke-width="1.51"></path></svg>