<svg width="300" height="176" xmlns="http://www.w3.org/2000/svg"><path d="M143,116L175,188L234,109Z" fill="#ff7f11" stroke="#ff7f11" stroke-width="1.51"></path><path d="M175,188L211,188L234,109Z" fill="#ff7a0c" stroke="#ff7a0c" stroke-width="1.51"></path><path d="M66,204L122,239L175,188Z" fill="#fd8830" stroke="#fd8830" stroke-width="1.51"></path><path d="M175,188L219,272L211,188Z" fill="#ff7809" stroke="#ff7809" stroke-width="1.51"></path><path d="M234,109L160,17L143,116Z" fill="#fe8c27" stroke="#fe8c27" stroke-width="1.51"></path><path d="M122,239L219,272L175,188Z" fill="#ff7a0d" stroke="#ff7a0d" stroke-width="1.51"></path><path d="M211,188L321,186L234,109Z" fill="#ff7607" stroke="#ff7607" stroke-width="1.51"></path><path d="M234,109L257,18L160,17Z" fill="#f79e53" stroke="#f79e53" stroke-width="1.51"></path><path d="M338,116L257,18L234,109Z" fill="#fe8320" stroke="#fe8320" stroke-width="1.51"></path><path d="M299,245L321,186L211,188Z" fill="#ff7102" stroke="#ff7102" stroke-width="1.51"></path><path d="M143,116L66,204L175,188Z" fill="#fd862a" stroke="#fd862a" stroke-width="1.51"></path><path d="M160,17L62,81L143,116Z" fill="#f99f4e" stroke="#f99f4e" stroke-width="1.51"></path><path d="M62,81L66,204L143,116Z" fill="#f99a4c" stroke="#f99a4c" stroke-width="1.51"></path><path d="M321,186L338,116L234,109Z" fill="#ff7506" stroke="#ff7506" stroke-width="1.51"></path><path d="M219,272L299,245L211,188Z" fill="#ff7405" stroke="#ff7405" stroke-width="1.51"></path><path d="M160,17L64,29L62,81Z" fill="#eabb86" stroke="#eabb86" stroke-width="1.51"></path><path d="M66,204L56,243L122,239Z" fill="#f89850" stroke="#f89850" stroke-width="1.51"></path><path d="M122,239L-7,276L219,272Z" fill="#fc8c38" stroke="#fc8c38" stroke-width="1.51"></path><path d="M-7,276L56,243L-54,199Z" fill="#e9b68a" stroke="#e9b68a" stroke-width="1.51"></path><path d="M338,116L315,-13L257,18Z" fill="#f69c59" stroke="#f69c59" stroke-width="1.51"></path><path d="M257,18L137,-66L160,17Z" fill="#e7be90" stroke="#e7be90" stroke-width="1.51"></path><path d="M160,17L137,-66L64,29Z" fill="#dccba7" stroke="#dccba7" stroke-width="1.51"></path><path d="M62,81L1,83L66,204Z" fill="#f1ad70" stroke="#f1ad70" stroke-width="1.51"></path><path d="M64,29L1,83L62,81Z" fill="#e6c091" stroke="#e6c091" stroke-width="1.51"></path><path d="M421,263L392,151L321,186Z" fill="#ff6f00" stroke="#ff6f00" stroke-width="1.51"></path><path d="M321,186L392,151L338,116Z" fill="#ff7304" stroke="#ff7304" stroke-width="1.51"></path><path d="M338,116L413,26L315,-13Z" fill="#f79b55" stroke="#f79b55" stroke-width="1.51"></path><path d="M272,-95L137,-66L257,18Z" fill="#e7bc8e" stroke="#e7bc8e" stroke-width="1.51"></path><path d="M64,29L-5,-24L1,83Z" fill="#c8ddcb" stroke="#c8ddcb" stroke-width="1.51"></path><path d="M392,151L410,109L338,116Z" fill="#ff7708" stroke="#ff7708" stroke-width="1.51"></path><path d="M56,243L-7,276L122,239Z" fill="#f4a162" stroke="#f4a162" stroke-width="1.51"></path><path d="M-54,199L56,243L66,204Z" fill="#eead7a" stroke="#eead7a" stroke-width="1.51"></path><path d="M302,-117L272,-95L315,-13Z" fill="#e9b68a" stroke="#e9b68a" stroke-width="1.51"></path><path d="M315,-13L272,-95L257,18Z" fill="#e9b78b" stroke="#e9b78b" stroke-width="1.51"></path><path d="M410,109L413,26L338,116Z" fill="#ff801a" stroke="#ff801a" stroke-width="1.51"></path><path d="M1,83L-54,199L66,204Z" fill="#eab688" stroke="#eab688" stroke-width="1.51"></path><path d="M1,83L-117,115L-54,199Z" fill="#e7bb8e" stroke="#e7bb8e" stroke-width="1.51"></path><path d="M64,-111L-5,-24L64,29Z" fill="#b7e7e1" stroke="#b7e7e1" stroke-width="1.51"></path><path d="M392,151L421,263L410,109Z" fill="#ff7000" stroke="#ff7000" stroke-width="1.51"></path><path d="M410,109L421,263L413,26Z" fill="#ff7607" stroke="#ff7607" stroke-width="1.51"></path><path d="M299,245L421,263L321,186Z" fill="#ff6f00" stroke="#ff6f00" stroke-width="1.51"></path><path d="M219,272L421,263L299,245Z" fill="#ff6f00" stroke="#ff6f00" stroke-width="1.51"></path><path d="M137,-66L64,-111L64,29Z" fill="#d0d6be" stroke="#d0d6be" stroke-width="1.51"></path><path d="M272,-95L64,-111L137,-66Z" fill="#e6c091" stroke="#e6c091" stroke-width="1.51"></path><path d="M401,-102L302,-117L315,-13Z" fill="#e9b68a" stroke="#e9b68a" stroke-width="1.51"></path><path d="M302,-117L64,-111L272,-95Z" fill="#e7bc8f" stroke="#e7bc8f" stroke-width="1.51"></path><path d="M-119,-9L1,83L-5,-24Z" fill="#afebea" stroke="#afebea" stroke-width="1.51"></path><path d="M-119,-9L-117,115L1,83Z" fill="#d8d0b0" stroke="#d8d0b0" stroke-width="1.51"></path><path d="M-54,199L-148,290L-7,276Z" fill="#e9b68a" stroke="#e9b68a" stroke-width="1.51"></path><path d="M64,-111L-39,-76L-5,-24Z" fill="#9ef3fa" stroke="#9ef3fa" stroke-width="1.51"></path><path d="M413,26L401,-102L315,-13Z" fill="#e9b68a" stroke="#e9b68a" stroke-width="1.51"></path><path d="M-117,115L-138,207L-54,199Z" fill="#e9b68a" stroke="#e9b68a" stroke-width="1.51"></path><path d="M-117,115L-119,-9L-138,207Z" fill="#e6bf90" stroke="#e6bf90" stroke-width="1.51"></path><path d="M-39,-76L-119,-9L-5,-24Z" fill="#98f5ff" stroke="#98f5ff" stroke-width="1.51"></path><path d="M-39,-76L-106,-76L-119,-9Z" fill="#98f5ff" stroke="#98f5ff" stroke-width="1.51"></path><path d="M64,-111L-106,-76L-39,-76Z" fill="#98f5ff" stroke="#98f5ff" stroke-width="1.51"></path><path d="M-138,207L-148,290L-54,199Z" fill="#e9b68a" stroke="#e9b68a" stroke-width="1.51"></path><path d="M-7,276L-148,290L219,272Z" fill="#eeae7b" stroke="#eeae7b" stroke-width="1.51"></path><path d="M219,272L-148,290L421,263Z" fill="#ff7b0d" stroke="#ff7b0d" stroke-width="1.51"></path><path d="M-119,-9L-148,290L-138,207Z" fill="#e8b78b" stroke="#e8b78b" stroke-width="1.51"></path></svg>