<svg width="300" height="176" xmlns="http://www.w3.org/2000/svg"><path d="M178,120L180,178L251,178Z" fill="#ff8315" stroke="#ff8315" stroke-width="1.51"></path><path d="M251,178L231,73L178,120Z" fill="#ff8416" stroke="#ff8416" stroke-width="1.51"></path><path d="M251,178L296,62L231,73Z" fill="#ff8415" stroke="#ff8415" stroke-width="1.51"></path><path d="M180,178L250,275L251,178Z" fill="#ff7f11" stroke="#ff7f11" stroke-width="1.51"></path><path d="M47,204L140,254L180,178Z" fill="#fe8724" stroke="#fe8724" stroke-width="1.51"></path><path d="M140,254L250,275L180,178Z" fill="#ff7f11" stroke="#ff7f11" stroke-width="1.51"></path><path d="M251,178L388,154L296,62Z" fill="#ff8012" stroke="#ff8012" stroke-width="1.51"></path><path d="M250,275L297,255L251,178Z" fill="#ff7c0e" stroke="#ff7c0e" stroke-width="1.51"></path><path d="M297,255L336,211L251,178Z" fill="#ff7c0f" stroke="#ff7c0f" stroke-width="1.51"></path><path d="M178,120L85,92L180,178Z" fill="#ff871a" stroke="#ff871a" stroke-width="1.51"></path><path d="M141,-3L85,92L178,120Z" fill="#fe912f" stroke="#fe912f" stroke-width="1.51"></path><path d="M141,-3L178,120L231,73Z" fill="#fe8e2b" stroke="#fe8e2b" stroke-width="1.51"></path><path d="M296,62L260,-12L231,73Z" fill="#fc9137" stroke="#fc9137" stroke-width="1.51"></path><path d="M260,-12L141,-3L231,73Z" fill="#fa9944" stroke="#fa9944" stroke-width="1.51"></path><path d="M394,271L388,154L336,211Z" fill="#ff790b" stroke="#ff790b" stroke-width="1.51"></path><path d="M336,211L388,154L251,178Z" fill="#ff7d0f" stroke="#ff7d0f" stroke-width="1.51"></path><path d="M296,62L324,-32L260,-12Z" fill="#fa9949" stroke="#fa9949" stroke-width="1.51"></path><path d="M85,92L47,204L180,178Z" fill="#fd8e2f" stroke="#fd8e2f" stroke-width="1.51"></path><path d="M415,-7L324,-32L296,62Z" fill="#fa9647" stroke="#fa9647" stroke-width="1.51"></path><path d="M260,-12L240,-70L141,-3Z" fill="#f6a55c" stroke="#f6a55c" stroke-width="1.51"></path><path d="M250,275L394,271L297,255Z" fill="#ff790a" stroke="#ff790a" stroke-width="1.51"></path><path d="M297,255L394,271L336,211Z" fill="#ff780a" stroke="#ff780a" stroke-width="1.51"></path><path d="M324,-32L240,-70L260,-12Z" fill="#f5a45f" stroke="#f5a45f" stroke-width="1.51"></path><path d="M85,92L-15,112L47,204Z" fill="#f99b49" stroke="#f99b49" stroke-width="1.51"></path><path d="M141,-3L27,17L85,92Z" fill="#f8a355" stroke="#f8a355" stroke-width="1.51"></path><path d="M89,-87L27,17L141,-3Z" fill="#f0b172" stroke="#f0b172" stroke-width="1.51"></path><path d="M394,271L443,118L388,154Z" fill="#ff7a0b" stroke="#ff7a0b" stroke-width="1.51"></path><path d="M388,154L443,118L296,62Z" fill="#ff7f11" stroke="#ff7f11" stroke-width="1.51"></path><path d="M27,17L-15,112L85,92Z" fill="#f7a255" stroke="#f7a255" stroke-width="1.51"></path><path d="M47,204L28,293L140,254Z" fill="#fc8f39" stroke="#fc8f39" stroke-width="1.51"></path><path d="M140,254L28,293L250,275Z" fill="#ff8118" stroke="#ff8118" stroke-width="1.51"></path><path d="M250,275L28,293L394,271Z" fill="#ff7b0d" stroke="#ff7b0d" stroke-width="1.51"></path><path d="M-9,270L28,293L47,204Z" fill="#f9984c" stroke="#f9984c" stroke-width="1.51"></path><path d="M443,118L415,-7L296,62Z" fill="#fd882a" stroke="#fd882a" stroke-width="1.51"></path><path d="M324,-32L322,-125L240,-70Z" fill="#f1ad71" stroke="#f1ad71" stroke-width="1.51"></path><path d="M-49,187L-9,270L47,204Z" fill="#f79e56" stroke="#f79e56" stroke-width="1.51"></path><path d="M240,-70L123,-102L141,-3Z" fill="#f2ae6c" stroke="#f2ae6c" stroke-width="1.51"></path><path d="M123,-102L89,-87L141,-3Z" fill="#eeb57a" stroke="#eeb57a" stroke-width="1.51"></path><path d="M-91,209L-49,187L-100,60Z" fill="#f0af72" stroke="#f0af72" stroke-width="1.51"></path><path d="M-15,112L-49,187L47,204Z" fill="#f6a158" stroke="#f6a158" stroke-width="1.51"></path><path d="M27,17L-100,60L-15,112Z" fill="#f2b06f" stroke="#f2b06f" stroke-width="1.51"></path><path d="M89,-87L-5,-32L27,17Z" fill="#eabc87" stroke="#eabc87" stroke-width="1.51"></path><path d="M421,-69L322,-125L324,-32Z" fill="#f1ab70" stroke="#f1ab70" stroke-width="1.51"></path><path d="M240,-70L322,-125L123,-102Z" fill="#edb57e" stroke="#edb57e" stroke-width="1.51"></path><path d="M415,-7L421,-69L324,-32Z" fill="#f6a05c" stroke="#f6a05c" stroke-width="1.51"></path><path d="M443,118L421,-69L415,-7Z" fill="#fb9142" stroke="#fb9142" stroke-width="1.51"></path><path d="M-49,187L-91,209L-9,270Z" fill="#f4a666" stroke="#f4a666" stroke-width="1.51"></path><path d="M-100,60L-49,187L-15,112Z" fill="#f2ad6b" stroke="#f2ad6b" stroke-width="1.51"></path><path d="M-5,-32L-100,60L27,17Z" fill="#ebbb85" stroke="#ebbb85" stroke-width="1.51"></path><path d="M-5,-32L-51,-71L-100,60Z" fill="#e1c69c" stroke="#e1c69c" stroke-width="1.51"></path><path d="M89,-87L-51,-71L-5,-32Z" fill="#e0c79e" stroke="#e0c79e" stroke-width="1.51"></path><path d="M-141,-114L-51,-71L89,-87Z" fill="#d2d5ba" stroke="#d2d5ba" stroke-width="1.51"></path><path d="M-91,209L-138,241L-9,270Z" fill="#f1ab6f" stroke="#f1ab6f" stroke-width="1.51"></path><path d="M-9,270L-138,241L28,293Z" fill="#f5a261" stroke="#f5a261" stroke-width="1.51"></path><path d="M-100,60L-138,241L-91,209Z" fill="#edb47c" stroke="#edb47c" stroke-width="1.51"></path><path d="M-100,60L-142,-27L-138,241Z" fill="#ebba85" stroke="#ebba85" stroke-width="1.51"></path><path d="M-51,-71L-142,-27L-100,60Z" fill="#dbcdab" stroke="#dbcdab" stroke-width="1.51"></path><path d="M-51,-71L-141,-114L-142,-27Z" fill="#c8ddcb" stroke="#c8ddcb" stroke-width="1.51"></path><path d="M123,-102L-141,-114L89,-87Z" fill="#dacdab" stroke="#dacdab" stroke-width="1.51"></path><path d="M322,-125L-141,-114L123,-102Z" fill="#e4c397" stroke="#e4c397" stroke-width="1.51"></path></svg>