<svg width="300" height="176" xmlns="http://www.w3.org/2000/svg"><path d="M117,75L147,11L79,-4Z" fill="#f99f4f" stroke="#f99f4f" stroke-width="1.51"></path><path d="M79,-4L31,102L117,75Z" fill="#f99f4d" stroke="#f99f4d" stroke-width="1.51"></path><path d="M147,11L160,-80L79,-4Z" fill="#f4aa63" stroke="#f4aa63" stroke-width="1.51"></path><path d="M79,-4L-3,-28L31,102Z" fill="#f2ae6c" stroke="#f2ae6c" stroke-width="1.51"></path><path d="M26,-114L-3,-28L79,-4Z" fill="#e7c08f" stroke="#e7c08f" stroke-width="1.51"></path><path d="M117,75L227,87L147,11Z" fill="#fd912f" stroke="#fd912f" stroke-width="1.51"></path><path d="M147,11L242,-27L160,-80Z" fill="#f5a65f" stroke="#f5a65f" stroke-width="1.51"></path><path d="M170,151L227,87L117,75Z" fill="#ff8719" stroke="#ff8719" stroke-width="1.51"></path><path d="M83,168L170,151L117,75Z" fill="#fe8c27" stroke="#fe8c27" stroke-width="1.51"></path><path d="M31,102L83,168L117,75Z" fill="#fc953c" stroke="#fc953c" stroke-width="1.51"></path><path d="M227,87L242,-27L147,11Z" fill="#fb9842" stroke="#fb9842" stroke-width="1.51"></path><path d="M160,-80L26,-114L79,-4Z" fill="#eaba85" stroke="#eaba85" stroke-width="1.51"></path><path d="M-45,196L44,242L83,168Z" fill="#f99a4b" stroke="#f99a4b" stroke-width="1.51"></path><path d="M-3,-28L-50,96L31,102Z" fill="#f3ad6b" stroke="#f3ad6b" stroke-width="1.51"></path><path d="M-107,77L-50,96L-121,25Z" fill="#ebb984" stroke="#ebb984" stroke-width="1.51"></path><path d="M242,-27L222,-98L160,-80Z" fill="#f1ae70" stroke="#f1ae70" stroke-width="1.51"></path><path d="M160,-80L222,-98L26,-114Z" fill="#ebba84" stroke="#ebba84" stroke-width="1.51"></path><path d="M26,-114L-7,-104L-3,-28Z" fill="#dccca9" stroke="#dccca9" stroke-width="1.51"></path><path d="M227,87L298,68L242,-27Z" fill="#fc9136" stroke="#fc9136" stroke-width="1.51"></path><path d="M242,-27L342,-75L222,-98Z" fill="#f1ac6d" stroke="#f1ac6d" stroke-width="1.51"></path><path d="M241,204L298,68L227,87Z" fill="#ff8415" stroke="#ff8415" stroke-width="1.51"></path><path d="M170,151L241,204L227,87Z" fill="#ff8315" stroke="#ff8315" stroke-width="1.51"></path><path d="M144,259L241,204L170,151Z" fill="#ff8113" stroke="#ff8113" stroke-width="1.51"></path><path d="M-45,196L83,168L31,102Z" fill="#f89d4f" stroke="#f89d4f" stroke-width="1.51"></path><path d="M-121,25L-50,96L-3,-28Z" fill="#e9bc88" stroke="#e9bc88" stroke-width="1.51"></path><path d="M83,168L144,259L170,151Z" fill="#fe8720" stroke="#fe8720" stroke-width="1.51"></path><path d="M-45,196L31,102L-50,96Z" fill="#f5a65f" stroke="#f5a65f" stroke-width="1.51"></path><path d="M-120,160L-45,196L-50,96Z" fill="#f1ae70" stroke="#f1ae70" stroke-width="1.51"></path><path d="M395,-31L333,12L398,87Z" fill="#fb913f" stroke="#fb913f" stroke-width="1.51"></path><path d="M298,68L333,12L242,-27Z" fill="#fb9643" stroke="#fb9643" stroke-width="1.51"></path><path d="M-91,-108L-121,25L-3,-28Z" fill="#d9cfae" stroke="#d9cfae" stroke-width="1.51"></path><path d="M44,242L144,259L83,168Z" fill="#fd8d33" stroke="#fd8d33" stroke-width="1.51"></path><path d="M44,242L-100,295L144,259Z" fill="#f99649" stroke="#f99649" stroke-width="1.51"></path><path d="M-45,196L0,247L44,242Z" fill="#f79d55" stroke="#f79d55" stroke-width="1.51"></path><path d="M-7,-104L-91,-108L-3,-28Z" fill="#d5d3b5" stroke="#d5d3b5" stroke-width="1.51"></path><path d="M26,-114L-91,-108L-7,-104Z" fill="#cfd7c0" stroke="#cfd7c0" stroke-width="1.51"></path><path d="M333,12L342,-75L242,-27Z" fill="#f6a15b" stroke="#f6a15b" stroke-width="1.51"></path><path d="M-100,295L218,266L144,259Z" fill="#fc8b32" stroke="#fc8b32" stroke-width="1.51"></path><path d="M144,259L218,266L241,204Z" fill="#ff7e11" stroke="#ff7e11" stroke-width="1.51"></path><path d="M398,87L333,12L298,68Z" fill="#fd8a2c" stroke="#fd8a2c" stroke-width="1.51"></path><path d="M-45,196L-100,295L0,247Z" fill="#f4a565" stroke="#f4a565" stroke-width="1.51"></path><path d="M-107,77L-120,160L-50,96Z" fill="#efb378" stroke="#efb378" stroke-width="1.51"></path><path d="M-121,25L-120,160L-107,77Z" fill="#ecb981" stroke="#ecb981" stroke-width="1.51"></path><path d="M333,12L395,-31L342,-75Z" fill="#f6a05a" stroke="#f6a05a" stroke-width="1.51"></path><path d="M355,191L298,68L241,204Z" fill="#ff8012" stroke="#ff8012" stroke-width="1.51"></path><path d="M343,243L355,191L241,204Z" fill="#ff7c0e" stroke="#ff7c0e" stroke-width="1.51"></path><path d="M355,191L398,87L298,68Z" fill="#ff8011" stroke="#ff8011" stroke-width="1.51"></path><path d="M355,191L405,169L398,87Z" fill="#ff7c0e" stroke="#ff7c0e" stroke-width="1.51"></path><path d="M218,266L343,243L241,204Z" fill="#ff7c0e" stroke="#ff7c0e" stroke-width="1.51"></path><path d="M403,285L405,169L355,191Z" fill="#ff790a" stroke="#ff790a" stroke-width="1.51"></path><path d="M398,87L433,-99L395,-31Z" fill="#f89a51" stroke="#f89a51" stroke-width="1.51"></path><path d="M-120,160L-100,295L-45,196Z" fill="#f0ad73" stroke="#f0ad73" stroke-width="1.51"></path><path d="M0,247L-100,295L44,242Z" fill="#f69f5a" stroke="#f69f5a" stroke-width="1.51"></path><path d="M395,-31L433,-99L342,-75Z" fill="#f2a76b" stroke="#f2a76b" stroke-width="1.51"></path><path d="M342,-75L433,-99L222,-98Z" fill="#efaf77" stroke="#efaf77" stroke-width="1.51"></path><path d="M222,-98L433,-99L26,-114Z" fill="#ecb680" stroke="#ecb680" stroke-width="1.51"></path><path d="M405,169L433,-99L398,87Z" fill="#fd882d" stroke="#fd882d" stroke-width="1.51"></path><path d="M405,169L403,285L433,-99Z" fill="#ff7d0f" stroke="#ff7d0f" stroke-width="1.51"></path><path d="M343,243L403,285L355,191Z" fill="#ff7809" stroke="#ff7809" stroke-width="1.51"></path><path d="M218,266L403,285L343,243Z" fill="#ff780a" stroke="#ff780a" stroke-width="1.51"></path><path d="M-100,295L403,285L218,266Z" fill="#ff7d0f" stroke="#ff7d0f" stroke-width="1.51"></path></svg>