<svg width="300" height="176" xmlns="http://www.w3.org/2000/svg"><path d="M162,80L215,76L233,5Z" fill="#fd9031" stroke="#fd9031" stroke-width="1.51"></path><path d="M233,5L145,-19L162,80Z" fill="#fb9943" stroke="#fb9943" stroke-width="1.51"></path><path d="M233,5L218,-66L145,-19Z" fill="#f6a45c" stroke="#f6a45c" stroke-width="1.51"></path><path d="M218,-66L151,-75L145,-19Z" fill="#f3ac69" stroke="#f3ac69" stroke-width="1.51"></path><path d="M145,-19L30,59L162,80Z" fill="#fa9d48" stroke="#fa9d48" stroke-width="1.51"></path><path d="M151,-75L87,-73L145,-19Z" fill="#f0b173" stroke="#f0b173" stroke-width="1.51"></path><path d="M87,-73L45,-24L145,-19Z" fill="#efb376" stroke="#efb376" stroke-width="1.51"></path><path d="M45,-24L30,59L145,-19Z" fill="#f3ac68" stroke="#f3ac68" stroke-width="1.51"></path><path d="M162,80L215,196L215,76Z" fill="#ff8617" stroke="#ff8617" stroke-width="1.51"></path><path d="M362,102L359,-8L233,5Z" fill="#fc913a" stroke="#fc913a" stroke-width="1.51"></path><path d="M162,199L215,196L162,80Z" fill="#ff8416" stroke="#ff8416" stroke-width="1.51"></path><path d="M28,150L162,199L162,80Z" fill="#fe8c29" stroke="#fe8c29" stroke-width="1.51"></path><path d="M233,5L314,-109L218,-66Z" fill="#f3aa69" stroke="#f3aa69" stroke-width="1.51"></path><path d="M362,102L233,5L215,76Z" fill="#fd8b2a" stroke="#fd8b2a" stroke-width="1.51"></path><path d="M45,-24L0,3L30,59Z" fill="#f0b375" stroke="#f0b375" stroke-width="1.51"></path><path d="M-53,-99L0,3L45,-24Z" fill="#e4c497" stroke="#e4c497" stroke-width="1.51"></path><path d="M359,-8L314,-109L233,5Z" fill="#f5a35e" stroke="#f5a35e" stroke-width="1.51"></path><path d="M218,-66L314,-109L151,-75Z" fill="#efb176" stroke="#efb176" stroke-width="1.51"></path><path d="M151,-75L-53,-99L87,-73Z" fill="#e4c395" stroke="#e4c395" stroke-width="1.51"></path><path d="M298,185L362,102L215,76Z" fill="#ff8214" stroke="#ff8214" stroke-width="1.51"></path><path d="M215,196L298,185L215,76Z" fill="#ff8214" stroke="#ff8214" stroke-width="1.51"></path><path d="M30,59L28,150L162,80Z" fill="#fb973d" stroke="#fb973d" stroke-width="1.51"></path><path d="M-19,116L28,150L30,59Z" fill="#f8a154" stroke="#f8a154" stroke-width="1.51"></path><path d="M0,3L-19,116L30,59Z" fill="#f4ab66" stroke="#f4ab66" stroke-width="1.51"></path><path d="M298,185L404,149L362,102Z" fill="#ff7e0f" stroke="#ff7e0f" stroke-width="1.51"></path><path d="M447,97L428,-34L359,-8Z" fill="#fb9140" stroke="#fb9140" stroke-width="1.51"></path><path d="M359,-8L428,-34L314,-109Z" fill="#f4a463" stroke="#f4a463" stroke-width="1.51"></path><path d="M447,97L359,-8L362,102Z" fill="#fe8625" stroke="#fe8625" stroke-width="1.51"></path><path d="M-19,116L-4,198L28,150Z" fill="#f7a157" stroke="#f7a157" stroke-width="1.51"></path><path d="M28,150L126,277L162,199Z" fill="#fd8b2c" stroke="#fd8b2c" stroke-width="1.51"></path><path d="M222,297L331,253L298,185Z" fill="#ff7b0d" stroke="#ff7b0d" stroke-width="1.51"></path><path d="M298,185L331,253L404,149Z" fill="#ff7b0d" stroke="#ff7b0d" stroke-width="1.51"></path><path d="M162,199L222,297L215,196Z" fill="#ff7f11" stroke="#ff7f11" stroke-width="1.51"></path><path d="M42,287L126,277L28,150Z" fill="#fb913c" stroke="#fb913c" stroke-width="1.51"></path><path d="M222,297L298,185L215,196Z" fill="#ff7d0f" stroke="#ff7d0f" stroke-width="1.51"></path><path d="M126,277L222,297L162,199Z" fill="#ff7f11" stroke="#ff7f11" stroke-width="1.51"></path><path d="M404,277L447,97L404,149Z" fill="#ff790b" stroke="#ff790b" stroke-width="1.51"></path><path d="M404,149L447,97L362,102Z" fill="#ff7d0f" stroke="#ff7d0f" stroke-width="1.51"></path><path d="M0,3L-109,106L-19,116Z" fill="#f1af6e" stroke="#f1af6e" stroke-width="1.51"></path><path d="M87,-73L-53,-99L45,-24Z" fill="#e3c59a" stroke="#e3c59a" stroke-width="1.51"></path><path d="M314,-109L-53,-99L151,-75Z" fill="#ecb982" stroke="#ecb982" stroke-width="1.51"></path><path d="M447,97L447,-88L428,-34Z" fill="#f9974d" stroke="#f9974d" stroke-width="1.51"></path><path d="M428,-34L447,-88L314,-109Z" fill="#f1aa6f" stroke="#f1aa6f" stroke-width="1.51"></path><path d="M-4,198L42,287L28,150Z" fill="#f99a4d" stroke="#f99a4d" stroke-width="1.51"></path><path d="M126,277L42,287L222,297Z" fill="#fe821d" stroke="#fe821d" stroke-width="1.51"></path><path d="M-4,198L-53,238L42,287Z" fill="#f79e56" stroke="#f79e56" stroke-width="1.51"></path><path d="M-19,116L-105,147L-4,198Z" fill="#f4a966" stroke="#f4a966" stroke-width="1.51"></path><path d="M-125,7L-109,106L0,3Z" fill="#e8bd8c" stroke="#e8bd8c" stroke-width="1.51"></path><path d="M-53,-99L-125,7L0,3Z" fill="#ddcba6" stroke="#ddcba6" stroke-width="1.51"></path><path d="M-109,106L-105,147L-19,116Z" fill="#f0b073" stroke="#f0b073" stroke-width="1.51"></path><path d="M-125,7L-105,147L-109,106Z" fill="#ecb880" stroke="#ecb880" stroke-width="1.51"></path><path d="M-105,147L-53,238L-4,198Z" fill="#f3a869" stroke="#f3a869" stroke-width="1.51"></path><path d="M314,-109L-97,-114L-53,-99Z" fill="#dec9a4" stroke="#dec9a4" stroke-width="1.51"></path><path d="M-53,-99L-97,-114L-125,7Z" fill="#cdd9c4" stroke="#cdd9c4" stroke-width="1.51"></path><path d="M222,297L404,277L331,253Z" fill="#ff7809" stroke="#ff7809" stroke-width="1.51"></path><path d="M331,253L404,277L404,149Z" fill="#ff7809" stroke="#ff7809" stroke-width="1.51"></path><path d="M-105,147L-98,281L-53,238Z" fill="#f1ad72" stroke="#f1ad72" stroke-width="1.51"></path><path d="M-53,238L-98,281L42,287Z" fill="#f5a15f" stroke="#f5a15f" stroke-width="1.51"></path><path d="M42,287L-98,281L222,297Z" fill="#fb903e" stroke="#fb903e" stroke-width="1.51"></path><path d="M-125,7L-98,281L-105,147Z" fill="#edb57d" stroke="#edb57d" stroke-width="1.51"></path></svg>