<svg width="300" height="176" xmlns="http://www.w3.org/2000/svg"><path d="M169,58L250,27L137,10Z" fill="#fb963e" stroke="#fb963e" stroke-width="1.51"></path><path d="M250,27L176,-97L137,10Z" fill="#f6a358" stroke="#f6a358" stroke-width="1.51"></path><path d="M169,58L244,103L250,27Z" fill="#fe8d2b" stroke="#fe8d2b" stroke-width="1.51"></path><path d="M250,27L206,-107L176,-97Z" fill="#f2ac6b" stroke="#f2ac6b" stroke-width="1.51"></path><path d="M250,27L335,-96L206,-107Z" fill="#f3aa69" stroke="#f3aa69" stroke-width="1.51"></path><path d="M244,103L323,10L250,27Z" fill="#fd8f33" stroke="#fd8f33" stroke-width="1.51"></path><path d="M169,58L159,196L244,103Z" fill="#ff8617" stroke="#ff8617" stroke-width="1.51"></path><path d="M137,10L68,105L169,58Z" fill="#fc963a" stroke="#fc963a" stroke-width="1.51"></path><path d="M58,-113L38,12L137,10Z" fill="#efb477" stroke="#efb477" stroke-width="1.51"></path><path d="M38,12L68,105L137,10Z" fill="#f8a153" stroke="#f8a153" stroke-width="1.51"></path><path d="M323,10L335,-96L250,27Z" fill="#f79f56" stroke="#f79f56" stroke-width="1.51"></path><path d="M176,-97L58,-113L137,10Z" fill="#eeb579" stroke="#eeb579" stroke-width="1.51"></path><path d="M206,-107L58,-113L176,-97Z" fill="#ebba84" stroke="#ebba84" stroke-width="1.51"></path><path d="M244,103L342,121L323,10Z" fill="#ff861e" stroke="#ff861e" stroke-width="1.51"></path><path d="M159,196L273,171L244,103Z" fill="#ff8214" stroke="#ff8214" stroke-width="1.51"></path><path d="M323,10L405,-92L335,-96Z" fill="#f3a768" stroke="#f3a768" stroke-width="1.51"></path><path d="M273,171L342,121L244,103Z" fill="#ff8113" stroke="#ff8113" stroke-width="1.51"></path><path d="M68,105L159,196L169,58Z" fill="#fe8b23" stroke="#fe8b23" stroke-width="1.51"></path><path d="M-13,-74L-8,-7L38,12Z" fill="#e8be8c" stroke="#e8be8c" stroke-width="1.51"></path><path d="M38,12L-7,103L68,105Z" fill="#f7a254" stroke="#f7a254" stroke-width="1.51"></path><path d="M342,121L406,14L323,10Z" fill="#fd8b30" stroke="#fd8b30" stroke-width="1.51"></path><path d="M58,-113L-13,-74L38,12Z" fill="#e4c396" stroke="#e4c396" stroke-width="1.51"></path><path d="M68,105L32,172L159,196Z" fill="#fc9136" stroke="#fc9136" stroke-width="1.51"></path><path d="M-8,-7L-7,103L38,12Z" fill="#f1b06f" stroke="#f1b06f" stroke-width="1.51"></path><path d="M-90,59L-7,103L-8,-7Z" fill="#efb377" stroke="#efb377" stroke-width="1.51"></path><path d="M335,-96L405,-92L206,-107Z" fill="#eeb27b" stroke="#eeb27b" stroke-width="1.51"></path><path d="M406,14L405,-92L323,10Z" fill="#f79d55" stroke="#f79d55" stroke-width="1.51"></path><path d="M-7,103L32,172L68,105Z" fill="#f99d4c" stroke="#f99d4c" stroke-width="1.51"></path><path d="M317,269L339,192L273,171Z" fill="#ff7c0e" stroke="#ff7c0e" stroke-width="1.51"></path><path d="M273,171L339,192L342,121Z" fill="#ff7e11" stroke="#ff7e11" stroke-width="1.51"></path><path d="M342,121L426,76L406,14Z" fill="#fe8421" stroke="#fe8421" stroke-width="1.51"></path><path d="M450,164L426,76L342,121Z" fill="#ff7d0f" stroke="#ff7d0f" stroke-width="1.51"></path><path d="M406,14L426,76L405,-92Z" fill="#f9964a" stroke="#f9964a" stroke-width="1.51"></path><path d="M159,196L247,272L273,171Z" fill="#ff7f11" stroke="#ff7f11" stroke-width="1.51"></path><path d="M58,274L167,272L159,196Z" fill="#fe8420" stroke="#fe8420" stroke-width="1.51"></path><path d="M167,272L247,272L159,196Z" fill="#ff7f10" stroke="#ff7f10" stroke-width="1.51"></path><path d="M247,272L317,269L273,171Z" fill="#ff7c0e" stroke="#ff7c0e" stroke-width="1.51"></path><path d="M339,192L450,164L342,121Z" fill="#ff7c0e" stroke="#ff7c0e" stroke-width="1.51"></path><path d="M-127,-14L-90,59L-8,-7Z" fill="#e3c397" stroke="#e3c397" stroke-width="1.51"></path><path d="M-7,103L-39,192L32,172Z" fill="#f7a258" stroke="#f7a258" stroke-width="1.51"></path><path d="M-90,59L-39,192L-7,103Z" fill="#f3ab68" stroke="#f3ab68" stroke-width="1.51"></path><path d="M32,172L58,274L159,196Z" fill="#fc8f36" stroke="#fc8f36" stroke-width="1.51"></path><path d="M426,255L450,164L339,192Z" fill="#ff780a" stroke="#ff780a" stroke-width="1.51"></path><path d="M426,76L450,164L405,-92Z" fill="#fd882e" stroke="#fd882e" stroke-width="1.51"></path><path d="M-15,256L58,274L32,172Z" fill="#f9984b" stroke="#f9984b" stroke-width="1.51"></path><path d="M167,272L58,274L247,272Z" fill="#ff7e11" stroke="#ff7e11" stroke-width="1.51"></path><path d="M-13,-74L-96,-82L-8,-7Z" fill="#dbcdaa" stroke="#dbcdaa" stroke-width="1.51"></path><path d="M58,-113L-96,-82L-13,-74Z" fill="#d6d2b4" stroke="#d6d2b4" stroke-width="1.51"></path><path d="M-96,-82L-127,-14L-8,-7Z" fill="#d9cfae" stroke="#d9cfae" stroke-width="1.51"></path><path d="M-90,59L-101,196L-39,192Z" fill="#f0af71" stroke="#f0af71" stroke-width="1.51"></path><path d="M-39,192L-15,256L32,172Z" fill="#f7a058" stroke="#f7a058" stroke-width="1.51"></path><path d="M-94,234L-15,256L-39,192Z" fill="#f4a665" stroke="#f4a665" stroke-width="1.51"></path><path d="M317,269L426,255L339,192Z" fill="#ff780a" stroke="#ff780a" stroke-width="1.51"></path><path d="M-127,-14L-101,196L-90,59Z" fill="#ebb981" stroke="#ebb981" stroke-width="1.51"></path><path d="M-101,196L-94,234L-39,192Z" fill="#f1ac70" stroke="#f1ac70" stroke-width="1.51"></path></svg>