<svg width="300" height="176" xmlns="http://www.w3.org/2000/svg"><path d="M146,121L85,115L146,180Z" fill="#fe8b25" stroke="#fe8b25" stroke-width="1.51"></path><path d="M85,115L29,177L146,180Z" fill="#fc9136" stroke="#fc9136" stroke-width="1.51"></path><path d="M146,121L82,-7L85,115Z" fill="#fc9538" stroke="#fc9538" stroke-width="1.51"></path><path d="M256,160L215,87L146,121Z" fill="#ff8517" stroke="#ff8517" stroke-width="1.51"></path><path d="M29,177L89,272L146,180Z" fill="#fc8e34" stroke="#fc8e34" stroke-width="1.51"></path><path d="M146,180L256,160L146,121Z" fill="#ff8416" stroke="#ff8416" stroke-width="1.51"></path><path d="M270,257L256,160L146,180Z" fill="#ff8012" stroke="#ff8012" stroke-width="1.51"></path><path d="M89,272L166,287L146,180Z" fill="#ff831d" stroke="#ff831d" stroke-width="1.51"></path><path d="M159,-18L82,-7L146,121Z" fill="#fa9c47" stroke="#fa9c47" stroke-width="1.51"></path><path d="M85,115L-50,58L29,177Z" fill="#f89f50" stroke="#f89f50" stroke-width="1.51"></path><path d="M29,177L-12,262L89,272Z" fill="#fa9648" stroke="#fa9648" stroke-width="1.51"></path><path d="M89,272L-12,262L166,287Z" fill="#fc8c35" stroke="#fc8c35" stroke-width="1.51"></path><path d="M-59,198L-12,262L29,177Z" fill="#f6a15a" stroke="#f6a15a" stroke-width="1.51"></path><path d="M212,-20L159,-18L215,87Z" fill="#fa9a46" stroke="#fa9a46" stroke-width="1.51"></path><path d="M215,87L159,-18L146,121Z" fill="#fe8f2b" stroke="#fe8f2b" stroke-width="1.51"></path><path d="M-92,158L-59,198L29,177Z" fill="#f4a764" stroke="#f4a764" stroke-width="1.51"></path><path d="M82,-7L-50,58L85,115Z" fill="#f6a65c" stroke="#f6a65c" stroke-width="1.51"></path><path d="M166,287L270,257L146,180Z" fill="#ff7f11" stroke="#ff7f11" stroke-width="1.51"></path><path d="M362,12L212,-20L215,87Z" fill="#fb953f" stroke="#fb953f" stroke-width="1.51"></path><path d="M-59,198L-114,249L-12,262Z" fill="#f3a86a" stroke="#f3a86a" stroke-width="1.51"></path><path d="M-50,58L-92,158L29,177Z" fill="#f4a965" stroke="#f4a965" stroke-width="1.51"></path><path d="M344,160L324,110L256,160Z" fill="#ff8012" stroke="#ff8012" stroke-width="1.51"></path><path d="M256,160L324,110L215,87Z" fill="#ff8315" stroke="#ff8315" stroke-width="1.51"></path><path d="M82,-7L-52,2L-50,58Z" fill="#edb77d" stroke="#edb77d" stroke-width="1.51"></path><path d="M159,-18L160,-64L82,-7Z" fill="#f4aa64" stroke="#f4aa64" stroke-width="1.51"></path><path d="M212,-20L160,-64L159,-18Z" fill="#f5a760" stroke="#f5a760" stroke-width="1.51"></path><path d="M-50,58L-123,112L-92,158Z" fill="#efb377" stroke="#efb377" stroke-width="1.51"></path><path d="M-2,-93L-52,2L82,-7Z" fill="#e7c090" stroke="#e7c090" stroke-width="1.51"></path><path d="M343,236L344,160L256,160Z" fill="#ff7d0f" stroke="#ff7d0f" stroke-width="1.51"></path><path d="M-121,-7L-123,112L-50,58Z" fill="#e8bd8b" stroke="#e8bd8b" stroke-width="1.51"></path><path d="M270,257L343,236L256,160Z" fill="#ff7c0e" stroke="#ff7c0e" stroke-width="1.51"></path><path d="M403,239L343,236L270,257Z" fill="#ff790b" stroke="#ff790b" stroke-width="1.51"></path><path d="M160,-64L81,-94L82,-7Z" fill="#efb579" stroke="#efb579" stroke-width="1.51"></path><path d="M-92,158L-114,249L-59,198Z" fill="#f0ae74" stroke="#f0ae74" stroke-width="1.51"></path><path d="M-12,262L-114,249L166,287Z" fill="#f9994f" stroke="#f9994f" stroke-width="1.51"></path><path d="M-123,112L-114,249L-92,158Z" fill="#edb47c" stroke="#edb47c" stroke-width="1.51"></path><path d="M81,-94L-2,-93L82,-7Z" fill="#e7c090" stroke="#e7c090" stroke-width="1.51"></path><path d="M-52,2L-121,-7L-50,58Z" fill="#e5c294" stroke="#e5c294" stroke-width="1.51"></path><path d="M-112,-69L-121,-7L-52,2Z" fill="#d8d0b0" stroke="#d8d0b0" stroke-width="1.51"></path><path d="M212,-20L259,-121L160,-64Z" fill="#f1ae70" stroke="#f1ae70" stroke-width="1.51"></path><path d="M160,-64L259,-121L81,-94Z" fill="#edb67d" stroke="#edb67d" stroke-width="1.51"></path><path d="M324,110L362,12L215,87Z" fill="#fe8824" stroke="#fe8824" stroke-width="1.51"></path><path d="M409,112L362,12L324,110Z" fill="#ff831c" stroke="#ff831c" stroke-width="1.51"></path><path d="M401,147L324,110L344,160Z" fill="#ff7e10" stroke="#ff7e10" stroke-width="1.51"></path><path d="M403,239L401,147L344,160Z" fill="#ff7a0c" stroke="#ff7a0c" stroke-width="1.51"></path><path d="M401,147L409,112L324,110Z" fill="#ff7e10" stroke="#ff7e10" stroke-width="1.51"></path><path d="M343,236L403,239L344,160Z" fill="#ff7a0b" stroke="#ff7a0b" stroke-width="1.51"></path><path d="M401,147L403,239L409,112Z" fill="#ff7a0c" stroke="#ff7a0c" stroke-width="1.51"></path><path d="M166,287L403,239L270,257Z" fill="#ff7a0c" stroke="#ff7a0c" stroke-width="1.51"></path><path d="M362,12L259,-121L212,-20Z" fill="#f4a562" stroke="#f4a562" stroke-width="1.51"></path><path d="M81,-94L259,-121L-2,-93Z" fill="#e7bf8e" stroke="#e7bf8e" stroke-width="1.51"></path><path d="M-2,-93L-112,-69L-52,2Z" fill="#d8d0af" stroke="#d8d0af" stroke-width="1.51"></path><path d="M362,12L343,-121L259,-121Z" fill="#f1ac71" stroke="#f1ac71" stroke-width="1.51"></path><path d="M392,-72L343,-121L362,12Z" fill="#f3a768" stroke="#f3a768" stroke-width="1.51"></path><path d="M433,-28L392,-72L362,12Z" fill="#f79e58" stroke="#f79e58" stroke-width="1.51"></path><path d="M409,112L433,-28L362,12Z" fill="#fc8e38" stroke="#fc8e38" stroke-width="1.51"></path><path d="M403,239L433,-28L409,112Z" fill="#ff7d0f" stroke="#ff7d0f" stroke-width="1.51"></path></svg>