<svg width="300" height="176" xmlns="http://www.w3.org/2000/svg"><path d="M156,60L256,27L160,30Z" fill="#f5a660" stroke="#f5a660" stroke-width="1.51"></path><path d="M156,60L255,100L256,27Z" fill="#fb9440" stroke="#fb9440" stroke-width="1.51"></path><path d="M226,-122L121,-75L160,30Z" fill="#e6bf91" stroke="#e6bf91" stroke-width="1.51"></path><path d="M328,101L317,-16L256,27Z" fill="#f69f5d" stroke="#f69f5d" stroke-width="1.51"></path><path d="M255,100L328,101L256,27Z" fill="#fe8729" stroke="#fe8729" stroke-width="1.51"></path><path d="M156,60L207,189L255,100Z" fill="#ff8113" stroke="#ff8113" stroke-width="1.51"></path><path d="M255,100L352,183L328,101Z" fill="#ff7708" stroke="#ff7708" stroke-width="1.51"></path><path d="M156,60L143,182L207,189Z" fill="#ff8011" stroke="#ff8011" stroke-width="1.51"></path><path d="M160,30L38,70L156,60Z" fill="#f4ac67" stroke="#f4ac67" stroke-width="1.51"></path><path d="M156,60L73,164L143,182Z" fill="#fd8c31" stroke="#fd8c31" stroke-width="1.51"></path><path d="M226,-122L160,30L256,27Z" fill="#e7bc8e" stroke="#e7bc8e" stroke-width="1.51"></path><path d="M39,-21L38,70L160,30Z" fill="#decaa4" stroke="#decaa4" stroke-width="1.51"></path><path d="M317,-16L226,-122L256,27Z" fill="#e8b88c" stroke="#e8b88c" stroke-width="1.51"></path><path d="M38,70L73,164L156,60Z" fill="#f89f51" stroke="#f89f51" stroke-width="1.51"></path><path d="M121,-75L39,-21L160,30Z" fill="#d8d0b1" stroke="#d8d0b1" stroke-width="1.51"></path><path d="M352,183L389,117L328,101Z" fill="#ff7607" stroke="#ff7607" stroke-width="1.51"></path><path d="M328,101L402,-18L317,-16Z" fill="#f1a86f" stroke="#f1a86f" stroke-width="1.51"></path><path d="M207,189L352,183L255,100Z" fill="#ff7505" stroke="#ff7505" stroke-width="1.51"></path><path d="M160,297L250,239L207,189Z" fill="#ff7809" stroke="#ff7809" stroke-width="1.51"></path><path d="M160,297L207,189L143,182Z" fill="#ff7b0c" stroke="#ff7b0c" stroke-width="1.51"></path><path d="M250,239L352,183L207,189Z" fill="#ff7203" stroke="#ff7203" stroke-width="1.51"></path><path d="M317,-16L341,-98L226,-122Z" fill="#e9b68a" stroke="#e9b68a" stroke-width="1.51"></path><path d="M402,-18L341,-98L317,-16Z" fill="#e9b68a" stroke="#e9b68a" stroke-width="1.51"></path><path d="M389,117L402,-18L328,101Z" fill="#fc8b36" stroke="#fc8b36" stroke-width="1.51"></path><path d="M39,-21L1,56L38,70Z" fill="#cfd8c0" stroke="#cfd8c0" stroke-width="1.51"></path><path d="M38,70L-29,198L73,164Z" fill="#eeb07a" stroke="#eeb07a" stroke-width="1.51"></path><path d="M39,-21L-25,5L1,56Z" fill="#afecea" stroke="#afecea" stroke-width="1.51"></path><path d="M121,-75L64,-115L39,-21Z" fill="#cadbc8" stroke="#cadbc8" stroke-width="1.51"></path><path d="M226,-122L64,-115L121,-75Z" fill="#e2c59b" stroke="#e2c59b" stroke-width="1.51"></path><path d="M250,239L306,266L352,183Z" fill="#ff6f00" stroke="#ff6f00" stroke-width="1.51"></path><path d="M352,183L431,165L389,117Z" fill="#ff7203" stroke="#ff7203" stroke-width="1.51"></path><path d="M160,297L306,266L250,239Z" fill="#ff7506" stroke="#ff7506" stroke-width="1.51"></path><path d="M-4,-85L-25,5L39,-21Z" fill="#9bf4fc" stroke="#9bf4fc" stroke-width="1.51"></path><path d="M402,-18L395,-109L341,-98Z" fill="#e9b68a" stroke="#e9b68a" stroke-width="1.51"></path><path d="M341,-98L395,-109L226,-122Z" fill="#e9b68a" stroke="#e9b68a" stroke-width="1.51"></path><path d="M389,117L431,165L402,-18Z" fill="#ff7c0e" stroke="#ff7c0e" stroke-width="1.51"></path><path d="M402,-18L431,165L395,-109Z" fill="#eeae7b" stroke="#eeae7b" stroke-width="1.51"></path><path d="M423,281L431,165L352,183Z" fill="#ff6f00" stroke="#ff6f00" stroke-width="1.51"></path><path d="M42,262L143,182L73,164Z" fill="#f9964c" stroke="#f9964c" stroke-width="1.51"></path><path d="M42,262L160,297L143,182Z" fill="#fc8b35" stroke="#fc8b35" stroke-width="1.51"></path><path d="M64,-115L-4,-85L39,-21Z" fill="#b2eae6" stroke="#b2eae6" stroke-width="1.51"></path><path d="M-29,198L42,262L73,164Z" fill="#efab76" stroke="#efab76" stroke-width="1.51"></path><path d="M-29,198L38,70L1,56Z" fill="#e7bd8e" stroke="#e7bd8e" stroke-width="1.51"></path><path d="M-118,99L-29,198L1,56Z" fill="#e7bd8f" stroke="#e7bd8f" stroke-width="1.51"></path><path d="M160,297L423,281L306,266Z" fill="#ff7000" stroke="#ff7000" stroke-width="1.51"></path><path d="M306,266L423,281L352,183Z" fill="#ff6f00" stroke="#ff6f00" stroke-width="1.51"></path><path d="M-134,30L-118,99L-25,5Z" fill="#cadbc7" stroke="#cadbc7" stroke-width="1.51"></path><path d="M-25,5L-118,99L1,56Z" fill="#d1d5bc" stroke="#d1d5bc" stroke-width="1.51"></path><path d="M-128,-104L-134,30L-25,5Z" fill="#98f5ff" stroke="#98f5ff" stroke-width="1.51"></path><path d="M-109,255L-45,285L-29,198Z" fill="#e9b68a" stroke="#e9b68a" stroke-width="1.51"></path><path d="M-29,198L-45,285L42,262Z" fill="#e9b68a" stroke="#e9b68a" stroke-width="1.51"></path><path d="M42,262L-45,285L160,297Z" fill="#f4a365" stroke="#f4a365" stroke-width="1.51"></path><path d="M-118,99L-134,158L-29,198Z" fill="#e8b98c" stroke="#e8b98c" stroke-width="1.51"></path><path d="M-134,30L-134,158L-118,99Z" fill="#e6c091" stroke="#e6c091" stroke-width="1.51"></path><path d="M64,-115L-128,-104L-4,-85Z" fill="#98f5ff" stroke="#98f5ff" stroke-width="1.51"></path><path d="M-4,-85L-128,-104L-25,5Z" fill="#98f5ff" stroke="#98f5ff" stroke-width="1.51"></path><path d="M-134,158L-109,255L-29,198Z" fill="#e9b68a" stroke="#e9b68a" stroke-width="1.51"></path></svg>