<svg width="300" height="176" xmlns="http://www.w3.org/2000/svg"><path d="M71,282L-61,295L178,298Z" fill="#fc8f3c" stroke="#fc8f3c" stroke-width="1.51"></path><path d="M343,197L439,283L441,148Z" fill="#ff7809" stroke="#ff7809" stroke-width="1.51"></path><path d="M441,148L439,283L451,-26Z" fill="#ff7b0d" stroke="#ff7b0d" stroke-width="1.51"></path><path d="M402,57L441,148L451,-26Z" fill="#fe8627" stroke="#fe8627" stroke-width="1.51"></path><path d="M316,-68L451,-26L453,-105Z" fill="#f3a66a" stroke="#f3a66a" stroke-width="1.51"></path><path d="M232,-115L316,-68L453,-105Z" fill="#eeb07a" stroke="#eeb07a" stroke-width="1.51"></path><path d="M316,-68L402,57L451,-26Z" fill="#f89a50" stroke="#f89a50" stroke-width="1.51"></path><path d="M316,-68L307,27L402,57Z" fill="#f99848" stroke="#f99848" stroke-width="1.51"></path><path d="M343,197L316,295L439,283Z" fill="#ff7708" stroke="#ff7708" stroke-width="1.51"></path><path d="M402,57L343,197L441,148Z" fill="#ff7d0f" stroke="#ff7d0f" stroke-width="1.51"></path><path d="M314,66L343,197L402,57Z" fill="#ff8012" stroke="#ff8012" stroke-width="1.51"></path><path d="M307,27L314,66L402,57Z" fill="#fd8c2f" stroke="#fd8c2f" stroke-width="1.51"></path><path d="M314,66L265,94L343,197Z" fill="#ff8113" stroke="#ff8113" stroke-width="1.51"></path><path d="M229,197L316,295L343,197Z" fill="#ff7b0d" stroke="#ff7b0d" stroke-width="1.51"></path><path d="M265,94L229,197L343,197Z" fill="#ff8012" stroke="#ff8012" stroke-width="1.51"></path><path d="M-149,-68L-29,-82L69,-119Z" fill="#d2d5ba" stroke="#d2d5ba" stroke-width="1.51"></path><path d="M307,27L265,94L314,66Z" fill="#fe8a29" stroke="#fe8a29" stroke-width="1.51"></path><path d="M227,-10L307,27L316,-68Z" fill="#f79f55" stroke="#f79f55" stroke-width="1.51"></path><path d="M232,-115L227,-10L316,-68Z" fill="#f2ab6c" stroke="#f2ab6c" stroke-width="1.51"></path><path d="M229,197L214,299L316,295Z" fill="#ff7b0d" stroke="#ff7b0d" stroke-width="1.51"></path><path d="M227,-10L265,94L307,27Z" fill="#fc9239" stroke="#fc9239" stroke-width="1.51"></path><path d="M182,-77L227,-10L232,-115Z" fill="#f1ae6f" stroke="#f1ae6f" stroke-width="1.51"></path><path d="M177,86L229,197L265,94Z" fill="#ff8416" stroke="#ff8416" stroke-width="1.51"></path><path d="M227,-10L177,86L265,94Z" fill="#fd8e2e" stroke="#fd8e2e" stroke-width="1.51"></path><path d="M139,-27L177,86L227,-10Z" fill="#fa9a46" stroke="#fa9a46" stroke-width="1.51"></path><path d="M178,298L214,299L229,197Z" fill="#ff7d0f" stroke="#ff7d0f" stroke-width="1.51"></path><path d="M130,173L178,298L229,197Z" fill="#ff8112" stroke="#ff8112" stroke-width="1.51"></path><path d="M177,86L130,173L229,197Z" fill="#ff8516" stroke="#ff8516" stroke-width="1.51"></path><path d="M69,-119L182,-77L232,-115Z" fill="#ecb981" stroke="#ecb981" stroke-width="1.51"></path><path d="M182,-77L139,-27L227,-10Z" fill="#f4a862" stroke="#f4a862" stroke-width="1.51"></path><path d="M139,-27L82,59L177,86Z" fill="#fb9941" stroke="#fb9941" stroke-width="1.51"></path><path d="M82,59L130,173L177,86Z" fill="#fe8c25" stroke="#fe8c25" stroke-width="1.51"></path><path d="M130,173L71,282L178,298Z" fill="#fe8421" stroke="#fe8421" stroke-width="1.51"></path><path d="M69,-119L139,-27L182,-77Z" fill="#eeb57b" stroke="#eeb57b" stroke-width="1.51"></path><path d="M82,59L78,161L130,173Z" fill="#fd9133" stroke="#fd9133" stroke-width="1.51"></path><path d="M78,161L71,282L130,173Z" fill="#fd8d32" stroke="#fd8d32" stroke-width="1.51"></path><path d="M65,0L82,59L139,-27Z" fill="#f5a75d" stroke="#f5a75d" stroke-width="1.51"></path><path d="M69,-119L65,0L139,-27Z" fill="#eeb67c" stroke="#eeb67c" stroke-width="1.51"></path><path d="M-29,-82L-29,-24L65,0Z" fill="#e5c293" stroke="#e5c293" stroke-width="1.51"></path><path d="M-29,-82L65,0L69,-119Z" fill="#e4c497" stroke="#e4c497" stroke-width="1.51"></path><path d="M-39,178L71,282L78,161Z" fill="#fa9848" stroke="#fa9848" stroke-width="1.51"></path><path d="M-13,74L-39,178L78,161Z" fill="#f8a054" stroke="#f8a054" stroke-width="1.51"></path><path d="M-13,74L78,161L82,59Z" fill="#fa9b47" stroke="#fa9b47" stroke-width="1.51"></path><path d="M65,0L-13,74L82,59Z" fill="#f5a75f" stroke="#f5a75f" stroke-width="1.51"></path><path d="M-39,178L-61,295L71,282Z" fill="#f79e57" stroke="#f79e57" stroke-width="1.51"></path><path d="M-29,-24L-13,74L65,0Z" fill="#eeb579" stroke="#eeb579" stroke-width="1.51"></path><path d="M-121,207L-61,295L-39,178Z" fill="#f2aa6e" stroke="#f2aa6e" stroke-width="1.51"></path><path d="M-148,86L-39,178L-13,74Z" fill="#f1af6f" stroke="#f1af6f" stroke-width="1.51"></path><path d="M-95,15L-148,86L-13,74Z" fill="#ebba85" stroke="#ebba85" stroke-width="1.51"></path><path d="M-29,-24L-95,15L-13,74Z" fill="#e9bd89" stroke="#e9bd89" stroke-width="1.51"></path><path d="M-148,86L-121,207L-39,178Z" fill="#eeb37a" stroke="#eeb37a" stroke-width="1.51"></path><path d="M-149,-68L-95,15L-29,-24Z" fill="#d9cfaf" stroke="#d9cfaf" stroke-width="1.51"></path><path d="M-149,-68L-29,-24L-29,-82Z" fill="#d5d3b7" stroke="#d5d3b7" stroke-width="1.51"></path><path d="M-121,207L-143,245L-61,295Z" fill="#eeaf79" stroke="#eeaf79" stroke-width="1.51"></path><path d="M-149,-68L-148,86L-95,15Z" fill="#dbcdab" stroke="#dbcdab" stroke-width="1.51"></path><path d="M-148,86L-143,245L-121,207Z" fill="#eab885" stroke="#eab885" stroke-width="1.51"></path></svg>