<svg width="300" height="176" xmlns="http://www.w3.org/2000/svg"><path d="M-33,256L-122,264L149,278Z" fill="#f79c54" stroke="#f79c54" stroke-width="1.51"></path><path d="M-24,-112L176,-82L267,-105Z" fill="#ebba84" stroke="#ebba84" stroke-width="1.51"></path><path d="M-24,-112L267,-105L308,-108Z" fill="#ebb983" stroke="#ebb983" stroke-width="1.51"></path><path d="M315,282L149,278L408,298Z" fill="#ff780a" stroke="#ff780a" stroke-width="1.51"></path><path d="M315,282L408,298L422,165Z" fill="#ff7708" stroke="#ff7708" stroke-width="1.51"></path><path d="M297,170L315,282L422,165Z" fill="#ff7b0d" stroke="#ff7b0d" stroke-width="1.51"></path><path d="M318,79L422,165L422,94Z" fill="#ff7e10" stroke="#ff7e10" stroke-width="1.51"></path><path d="M346,0L318,79L422,94Z" fill="#fd892a" stroke="#fd892a" stroke-width="1.51"></path><path d="M346,0L422,94L429,-17Z" fill="#fc903c" stroke="#fc903c" stroke-width="1.51"></path><path d="M390,-69L346,0L429,-17Z" fill="#f79e58" stroke="#f79e58" stroke-width="1.51"></path><path d="M422,94L422,165L429,-17Z" fill="#ff8017" stroke="#ff8017" stroke-width="1.51"></path><path d="M318,79L297,170L422,165Z" fill="#ff7e10" stroke="#ff7e10" stroke-width="1.51"></path><path d="M308,-108L346,0L390,-69Z" fill="#f3a768" stroke="#f3a768" stroke-width="1.51"></path><path d="M297,170L233,240L315,282Z" fill="#ff7c0e" stroke="#ff7c0e" stroke-width="1.51"></path><path d="M308,-108L267,-105L346,0Z" fill="#f1ab6e" stroke="#f1ab6e" stroke-width="1.51"></path><path d="M267,-105L241,25L346,0Z" fill="#f6a15a" stroke="#f6a15a" stroke-width="1.51"></path><path d="M241,25L318,79L346,0Z" fill="#fc913a" stroke="#fc913a" stroke-width="1.51"></path><path d="M81,256L-33,256L149,278Z" fill="#fb903b" stroke="#fb903b" stroke-width="1.51"></path><path d="M233,240L149,278L315,282Z" fill="#ff7c0e" stroke="#ff7c0e" stroke-width="1.51"></path><path d="M241,92L297,170L318,79Z" fill="#ff8214" stroke="#ff8214" stroke-width="1.51"></path><path d="M241,25L241,92L318,79Z" fill="#fe8b28" stroke="#fe8b28" stroke-width="1.51"></path><path d="M221,187L233,240L297,170Z" fill="#ff7f11" stroke="#ff7f11" stroke-width="1.51"></path><path d="M169,-32L241,25L267,-105Z" fill="#f5a660" stroke="#f5a660" stroke-width="1.51"></path><path d="M176,-82L169,-32L267,-105Z" fill="#f0af72" stroke="#f0af72" stroke-width="1.51"></path><path d="M241,92L221,187L297,170Z" fill="#ff8214" stroke="#ff8214" stroke-width="1.51"></path><path d="M175,109L221,187L241,92Z" fill="#ff8416" stroke="#ff8416" stroke-width="1.51"></path><path d="M-24,-112L60,-66L176,-82Z" fill="#e5c295" stroke="#e5c295" stroke-width="1.51"></path><path d="M175,109L173,184L221,187Z" fill="#ff8415" stroke="#ff8415" stroke-width="1.51"></path><path d="M169,-32L175,109L241,25Z" fill="#fb953c" stroke="#fb953c" stroke-width="1.51"></path><path d="M241,25L175,109L241,92Z" fill="#fe8a22" stroke="#fe8a22" stroke-width="1.51"></path><path d="M221,187L173,184L233,240Z" fill="#ff8012" stroke="#ff8012" stroke-width="1.51"></path><path d="M173,184L149,278L233,240Z" fill="#ff7f12" stroke="#ff7f12" stroke-width="1.51"></path><path d="M81,256L149,278L173,184Z" fill="#ff841d" stroke="#ff841d" stroke-width="1.51"></path><path d="M169,-32L30,11L175,109Z" fill="#f99d49" stroke="#f99d49" stroke-width="1.51"></path><path d="M30,11L32,114L175,109Z" fill="#fb9941" stroke="#fb9941" stroke-width="1.51"></path><path d="M64,163L173,184L175,109Z" fill="#ff881f" stroke="#ff881f" stroke-width="1.51"></path><path d="M60,-66L169,-32L176,-82Z" fill="#f0b172" stroke="#f0b172" stroke-width="1.51"></path><path d="M64,163L81,256L173,184Z" fill="#fd8b2c" stroke="#fd8b2c" stroke-width="1.51"></path><path d="M32,114L64,163L175,109Z" fill="#fc9236" stroke="#fc9236" stroke-width="1.51"></path><path d="M60,-66L30,11L169,-32Z" fill="#f0b274" stroke="#f0b274" stroke-width="1.51"></path><path d="M30,11L-10,69L32,114Z" fill="#f5a75e" stroke="#f5a75e" stroke-width="1.51"></path><path d="M64,163L-33,256L81,256Z" fill="#fa9747" stroke="#fa9747" stroke-width="1.51"></path><path d="M-15,-2L30,11L60,-66Z" fill="#ebba85" stroke="#ebba85" stroke-width="1.51"></path><path d="M32,114L-60,162L64,163Z" fill="#f89f52" stroke="#f89f52" stroke-width="1.51"></path><path d="M-60,162L-33,256L64,163Z" fill="#f6a159" stroke="#f6a159" stroke-width="1.51"></path><path d="M-24,-112L-15,-2L60,-66Z" fill="#e1c79e" stroke="#e1c79e" stroke-width="1.51"></path><path d="M-15,-2L-10,69L30,11Z" fill="#efb477" stroke="#efb477" stroke-width="1.51"></path><path d="M-10,69L-60,162L32,114Z" fill="#f6a55c" stroke="#f6a55c" stroke-width="1.51"></path><path d="M-24,-112L-96,-92L-15,-2Z" fill="#d6d1b3" stroke="#d6d1b3" stroke-width="1.51"></path><path d="M-15,-2L-107,64L-10,69Z" fill="#edb77e" stroke="#edb77e" stroke-width="1.51"></path><path d="M-107,64L-60,162L-10,69Z" fill="#f2ae6d" stroke="#f2ae6d" stroke-width="1.51"></path><path d="M-96,-92L-147,-5L-15,-2Z" fill="#d7d0b1" stroke="#d7d0b1" stroke-width="1.51"></path><path d="M-147,-5L-107,64L-15,-2Z" fill="#e3c499" stroke="#e3c499" stroke-width="1.51"></path><path d="M-60,162L-122,264L-33,256Z" fill="#f2aa6d" stroke="#f2aa6d" stroke-width="1.51"></path><path d="M-107,64L-152,161L-60,162Z" fill="#edb57c" stroke="#edb57c" stroke-width="1.51"></path><path d="M-152,161L-122,264L-60,162Z" fill="#eeb27c" stroke="#eeb27c" stroke-width="1.51"></path><path d="M-147,-5L-152,161L-107,64Z" fill="#e7bf8f" stroke="#e7bf8f" stroke-width="1.51"></path></svg>