<svg width="300" height="176" xmlns="http://www.w3.org/2000/svg"><path d="M-4,266L-132,283L153,253Z" fill="#ff982e" stroke="#ff982e" stroke-width="1.51"></path><path d="M237,239L153,253L325,242Z" fill="#ff7d0f" stroke="#ff7d0f" stroke-width="1.51"></path><path d="M-116,-98L128,-100L356,-121Z" fill="#ffba4d" stroke="#ffba4d" stroke-width="1.51"></path><path d="M128,-100L245,-92L356,-121Z" fill="#ffb246" stroke="#ffb246" stroke-width="1.51"></path><path d="M153,253L-132,283L387,240Z" fill="#ff8215" stroke="#ff8215" stroke-width="1.51"></path><path d="M325,242L153,253L387,240Z" fill="#ff7b0d" stroke="#ff7b0d" stroke-width="1.51"></path><path d="M308,92L413,183L431,80Z" fill="#ff7e10" stroke="#ff7e10" stroke-width="1.51"></path><path d="M420,-15L313,20L431,80Z" fill="#ff8e23" stroke="#ff8e23" stroke-width="1.51"></path><path d="M313,20L308,92L431,80Z" fill="#ff871b" stroke="#ff871b" stroke-width="1.51"></path><path d="M416,-85L420,-15L431,80Z" fill="#ff952c" stroke="#ff952c" stroke-width="1.51"></path><path d="M308,92L315,199L413,183Z" fill="#ff7d0f" stroke="#ff7d0f" stroke-width="1.51"></path><path d="M416,-85L356,-121L420,-15Z" fill="#ffa53b" stroke="#ffa53b" stroke-width="1.51"></path><path d="M356,-121L313,20L420,-15Z" fill="#ff9f34" stroke="#ff9f34" stroke-width="1.51"></path><path d="M315,199L387,240L413,183Z" fill="#ff7a0b" stroke="#ff7a0b" stroke-width="1.51"></path><path d="M245,-92L313,20L356,-121Z" fill="#ffa73c" stroke="#ffa73c" stroke-width="1.51"></path><path d="M315,199L325,242L387,240Z" fill="#ff790b" stroke="#ff790b" stroke-width="1.51"></path><path d="M245,-92L212,-10L313,20Z" fill="#ffa035" stroke="#ffa035" stroke-width="1.51"></path><path d="M308,92L228,176L315,199Z" fill="#ff8012" stroke="#ff8012" stroke-width="1.51"></path><path d="M315,199L237,239L325,242Z" fill="#ff7c0e" stroke="#ff7c0e" stroke-width="1.51"></path><path d="M212,93L228,176L308,92Z" fill="#ff8315" stroke="#ff8315" stroke-width="1.51"></path><path d="M212,93L308,92L313,20Z" fill="#ff891c" stroke="#ff891c" stroke-width="1.51"></path><path d="M212,-10L212,93L313,20Z" fill="#ff9226" stroke="#ff9226" stroke-width="1.51"></path><path d="M228,176L237,239L315,199Z" fill="#ff7e10" stroke="#ff7e10" stroke-width="1.51"></path><path d="M-116,-98L-30,-72L65,-77Z" fill="#ffcd5f" stroke="#ffcd5f" stroke-width="1.51"></path><path d="M-116,-98L65,-77L128,-100Z" fill="#ffc659" stroke="#ffc659" stroke-width="1.51"></path><path d="M212,93L178,115L228,176Z" fill="#ff8516" stroke="#ff8516" stroke-width="1.51"></path><path d="M181,-36L212,-10L245,-92Z" fill="#ffa63a" stroke="#ffa63a" stroke-width="1.51"></path><path d="M128,-100L181,-36L245,-92Z" fill="#ffae41" stroke="#ffae41" stroke-width="1.51"></path><path d="M228,176L153,253L237,239Z" fill="#ff8011" stroke="#ff8011" stroke-width="1.51"></path><path d="M212,-10L178,115L212,93Z" fill="#ff8c1f" stroke="#ff8c1f" stroke-width="1.51"></path><path d="M178,115L144,155L228,176Z" fill="#ff8416" stroke="#ff8416" stroke-width="1.51"></path><path d="M144,155L153,253L228,176Z" fill="#ff8214" stroke="#ff8214" stroke-width="1.51"></path><path d="M51,116L178,115L181,-36Z" fill="#ff9124" stroke="#ff9124" stroke-width="1.51"></path><path d="M35,-25L51,116L181,-36Z" fill="#ffa337" stroke="#ffa337" stroke-width="1.51"></path><path d="M181,-36L178,115L212,-10Z" fill="#ff972b" stroke="#ff972b" stroke-width="1.51"></path><path d="M41,237L-4,266L153,253Z" fill="#ff8f24" stroke="#ff8f24" stroke-width="1.51"></path><path d="M128,-100L65,-77L181,-36Z" fill="#ffb245" stroke="#ffb245" stroke-width="1.51"></path><path d="M65,-77L35,-25L181,-36Z" fill="#ffb145" stroke="#ffb145" stroke-width="1.51"></path><path d="M144,155L70,211L153,253Z" fill="#ff871b" stroke="#ff871b" stroke-width="1.51"></path><path d="M51,116L144,155L178,115Z" fill="#ff8c1d" stroke="#ff8c1d" stroke-width="1.51"></path><path d="M70,211L41,237L153,253Z" fill="#ff8c20" stroke="#ff8c20" stroke-width="1.51"></path><path d="M51,116L70,211L144,155Z" fill="#ff9023" stroke="#ff9023" stroke-width="1.51"></path><path d="M35,-25L-16,-5L51,116Z" fill="#ffac3f" stroke="#ffac3f" stroke-width="1.51"></path><path d="M-16,-5L-48,101L51,116Z" fill="#ffa73a" stroke="#ffa73a" stroke-width="1.51"></path><path d="M51,116L-9,204L70,211Z" fill="#ff972c" stroke="#ff972c" stroke-width="1.51"></path><path d="M-9,204L41,237L70,211Z" fill="#ff952b" stroke="#ff952b" stroke-width="1.51"></path><path d="M-30,-72L35,-25L65,-77Z" fill="#ffbf52" stroke="#ffbf52" stroke-width="1.51"></path><path d="M-48,101L-9,204L51,116Z" fill="#ffa034" stroke="#ffa034" stroke-width="1.51"></path><path d="M-9,204L-4,266L41,237Z" fill="#ff992e" stroke="#ff992e" stroke-width="1.51"></path><path d="M-30,-72L-16,-5L35,-25Z" fill="#ffbe51" stroke="#ffbe51" stroke-width="1.51"></path><path d="M-103,-26L-48,101L-16,-5Z" fill="#ffba4c" stroke="#ffba4c" stroke-width="1.51"></path><path d="M-48,101L-88,196L-9,204Z" fill="#ffa63b" stroke="#ffa63b" stroke-width="1.51"></path><path d="M-9,204L-88,196L-4,266Z" fill="#ffa136" stroke="#ffa136" stroke-width="1.51"></path><path d="M-88,196L-132,283L-4,266Z" fill="#ffa63c" stroke="#ffa63c" stroke-width="1.51"></path><path d="M-30,-72L-103,-26L-16,-5Z" fill="#ffc658" stroke="#ffc658" stroke-width="1.51"></path><path d="M-103,-26L-130,100L-48,101Z" fill="#ffb84b" stroke="#ffb84b" stroke-width="1.51"></path><path d="M-116,-98L-103,-26L-30,-72Z" fill="#ffd264" stroke="#ffd264" stroke-width="1.51"></path><path d="M-130,100L-88,196L-48,101Z" fill="#ffae42" stroke="#ffae42" stroke-width="1.51"></path><path d="M-130,100L-132,283L-88,196Z" fill="#ffb044" stroke="#ffb044" stroke-width="1.51"></path><path d="M-116,-98L-130,100L-103,-26Z" fill="#ffca5c" stroke="#ffca5c" stroke-width="1.51"></path></svg>