<svg width="300" height="176" xmlns="http://www.w3.org/2000/svg"><path d="M-103,-124L93,-108L136,-109Z" fill="#ffc95b" stroke="#ffc95b" stroke-width="1.51"></path><path d="M136,-109L238,-64L317,-70Z" fill="#ffae41" stroke="#ffae41" stroke-width="1.51"></path><path d="M236,274L76,286L361,294Z" fill="#ff7b0d" stroke="#ff7b0d" stroke-width="1.51"></path><path d="M398,146L352,149L412,288Z" fill="#ff7a0b" stroke="#ff7a0b" stroke-width="1.51"></path><path d="M352,149L361,294L412,288Z" fill="#ff7708" stroke="#ff7708" stroke-width="1.51"></path><path d="M398,146L412,288L418,86Z" fill="#ff7a0c" stroke="#ff7a0c" stroke-width="1.51"></path><path d="M-103,-124L136,-109L447,-116Z" fill="#ffb84a" stroke="#ffb84a" stroke-width="1.51"></path><path d="M136,-109L317,-70L447,-116Z" fill="#ffaf44" stroke="#ffaf44" stroke-width="1.51"></path><path d="M317,-70L388,-3L447,-116Z" fill="#ffa43a" stroke="#ffa43a" stroke-width="1.51"></path><path d="M418,86L412,288L447,-116Z" fill="#ff7e11" stroke="#ff7e11" stroke-width="1.51"></path><path d="M388,-3L418,86L447,-116Z" fill="#ff962d" stroke="#ff962d" stroke-width="1.51"></path><path d="M388,-3L344,8L418,86Z" fill="#ff8e23" stroke="#ff8e23" stroke-width="1.51"></path><path d="M344,8L315,96L418,86Z" fill="#ff871b" stroke="#ff871b" stroke-width="1.51"></path><path d="M352,149L398,146L418,86Z" fill="#ff7e0f" stroke="#ff7e0f" stroke-width="1.51"></path><path d="M315,96L352,149L418,86Z" fill="#ff8011" stroke="#ff8011" stroke-width="1.51"></path><path d="M352,149L243,201L361,294Z" fill="#ff7b0e" stroke="#ff7b0e" stroke-width="1.51"></path><path d="M317,-70L344,8L388,-3Z" fill="#ff9b31" stroke="#ff9b31" stroke-width="1.51"></path><path d="M243,201L236,274L361,294Z" fill="#ff7b0c" stroke="#ff7b0c" stroke-width="1.51"></path><path d="M315,96L243,201L352,149Z" fill="#ff8012" stroke="#ff8012" stroke-width="1.51"></path><path d="M238,-64L218,-27L317,-70Z" fill="#ffa63b" stroke="#ffa63b" stroke-width="1.51"></path><path d="M245,86L315,96L344,8Z" fill="#ff891d" stroke="#ff891d" stroke-width="1.51"></path><path d="M218,-27L245,86L344,8Z" fill="#ff9429" stroke="#ff9429" stroke-width="1.51"></path><path d="M317,-70L218,-27L344,8Z" fill="#ffa035" stroke="#ffa035" stroke-width="1.51"></path><path d="M245,86L243,201L315,96Z" fill="#ff8314" stroke="#ff8314" stroke-width="1.51"></path><path d="M171,115L120,160L178,243Z" fill="#ff8516" stroke="#ff8516" stroke-width="1.51"></path><path d="M178,243L76,286L236,274Z" fill="#ff7e11" stroke="#ff7e11" stroke-width="1.51"></path><path d="M178,243L236,274L243,201Z" fill="#ff7e10" stroke="#ff7e10" stroke-width="1.51"></path><path d="M171,115L178,243L243,201Z" fill="#ff8214" stroke="#ff8214" stroke-width="1.51"></path><path d="M218,-27L174,16L245,86Z" fill="#ff952a" stroke="#ff952a" stroke-width="1.51"></path><path d="M174,16L171,115L245,86Z" fill="#ff8b1d" stroke="#ff8b1d" stroke-width="1.51"></path><path d="M171,115L243,201L245,86Z" fill="#ff8416" stroke="#ff8416" stroke-width="1.51"></path><path d="M-16,249L-89,240L76,286Z" fill="#ff9b31" stroke="#ff9b31" stroke-width="1.51"></path><path d="M136,-109L218,-27L238,-64Z" fill="#ffab3f" stroke="#ffab3f" stroke-width="1.51"></path><path d="M-103,-124L-38,-97L93,-108Z" fill="#ffd163" stroke="#ffd163" stroke-width="1.51"></path><path d="M136,-109L174,16L218,-27Z" fill="#ffa639" stroke="#ffa639" stroke-width="1.51"></path><path d="M93,-108L51,-7L136,-109Z" fill="#ffb84b" stroke="#ffb84b" stroke-width="1.51"></path><path d="M136,-109L51,-7L174,16Z" fill="#ffaa3d" stroke="#ffaa3d" stroke-width="1.51"></path><path d="M87,69L171,115L174,16Z" fill="#ff8f22" stroke="#ff8f22" stroke-width="1.51"></path><path d="M120,160L76,286L178,243Z" fill="#ff8619" stroke="#ff8619" stroke-width="1.51"></path><path d="M51,-7L87,69L174,16Z" fill="#ffa033" stroke="#ffa033" stroke-width="1.51"></path><path d="M87,69L120,160L171,115Z" fill="#ff8c1e" stroke="#ff8c1e" stroke-width="1.51"></path><path d="M87,69L69,153L120,160Z" fill="#ff9124" stroke="#ff9124" stroke-width="1.51"></path><path d="M69,153L76,286L120,160Z" fill="#ff8d22" stroke="#ff8d22" stroke-width="1.51"></path><path d="M69,153L-16,249L76,286Z" fill="#ff9329" stroke="#ff9329" stroke-width="1.51"></path><path d="M-4,84L69,153L87,69Z" fill="#ff992c" stroke="#ff992c" stroke-width="1.51"></path><path d="M-38,-97L51,-7L93,-108Z" fill="#ffc053" stroke="#ffc053" stroke-width="1.51"></path><path d="M51,-7L-4,84L87,69Z" fill="#ffa437" stroke="#ffa437" stroke-width="1.51"></path><path d="M-39,170L-16,249L69,153Z" fill="#ff9c31" stroke="#ff9c31" stroke-width="1.51"></path><path d="M-4,84L-39,170L69,153Z" fill="#ff9f32" stroke="#ff9f32" stroke-width="1.51"></path><path d="M-47,23L-4,84L51,-7Z" fill="#ffaf42" stroke="#ffaf42" stroke-width="1.51"></path><path d="M-38,-97L-47,23L51,-7Z" fill="#ffbe51" stroke="#ffbe51" stroke-width="1.51"></path><path d="M-118,-2L-47,23L-38,-97Z" fill="#ffc759" stroke="#ffc759" stroke-width="1.51"></path><path d="M-39,170L-89,240L-16,249Z" fill="#ffa339" stroke="#ffa339" stroke-width="1.51"></path><path d="M-90,99L-39,170L-4,84Z" fill="#ffa83c" stroke="#ffa83c" stroke-width="1.51"></path><path d="M-47,23L-90,99L-4,84Z" fill="#ffae41" stroke="#ffae41" stroke-width="1.51"></path><path d="M-116,193L-89,240L-39,170Z" fill="#ffaa3f" stroke="#ffaa3f" stroke-width="1.51"></path><path d="M-90,99L-116,193L-39,170Z" fill="#ffac40" stroke="#ffac40" stroke-width="1.51"></path><path d="M-103,-124L-118,-2L-38,-97Z" fill="#ffd466" stroke="#ffd466" stroke-width="1.51"></path><path d="M-118,-2L-90,99L-47,23Z" fill="#ffbb4e" stroke="#ffbb4e" stroke-width="1.51"></path><path d="M-118,-2L-116,193L-90,99Z" fill="#ffb346" stroke="#ffb346" stroke-width="1.51"></path></svg>