<svg width="300" height="176" xmlns="http://www.w3.org/2000/svg"><path d="M-57,251L-138,244L64,273Z" fill="#ffa136" stroke="#ffa136" stroke-width="1.51"></path><path d="M64,273L-138,244L160,295Z" fill="#ff942a" stroke="#ff942a" stroke-width="1.51"></path><path d="M1,-122L151,-106L231,-123Z" fill="#ffbc4f" stroke="#ffbc4f" stroke-width="1.51"></path><path d="M1,-122L231,-123L411,-126Z" fill="#ffb74b" stroke="#ffb74b" stroke-width="1.51"></path><path d="M231,-123L310,-97L411,-126Z" fill="#ffb247" stroke="#ffb247" stroke-width="1.51"></path><path d="M261,272L160,295L424,300Z" fill="#ff780a" stroke="#ff780a" stroke-width="1.51"></path><path d="M322,258L261,272L424,300Z" fill="#ff7708" stroke="#ff7708" stroke-width="1.51"></path><path d="M399,157L322,258L424,300Z" fill="#ff7709" stroke="#ff7709" stroke-width="1.51"></path><path d="M411,-126L338,-16L452,-3Z" fill="#ffa036" stroke="#ffa036" stroke-width="1.51"></path><path d="M338,-16L397,113L452,-3Z" fill="#ff8d23" stroke="#ff8d23" stroke-width="1.51"></path><path d="M399,157L424,300L452,-3Z" fill="#ff7a0c" stroke="#ff7a0c" stroke-width="1.51"></path><path d="M397,113L399,157L452,-3Z" fill="#ff7e10" stroke="#ff7e10" stroke-width="1.51"></path><path d="M338,-16L325,115L397,113Z" fill="#ff8519" stroke="#ff8519" stroke-width="1.51"></path><path d="M361,157L322,258L399,157Z" fill="#ff7b0d" stroke="#ff7b0d" stroke-width="1.51"></path><path d="M310,-97L338,-16L411,-126Z" fill="#ffa93e" stroke="#ffa93e" stroke-width="1.51"></path><path d="M397,113L361,157L399,157Z" fill="#ff7d0f" stroke="#ff7d0f" stroke-width="1.51"></path><path d="M325,115L361,157L397,113Z" fill="#ff7f10" stroke="#ff7f10" stroke-width="1.51"></path><path d="M231,22L325,115L338,-16Z" fill="#ff8e23" stroke="#ff8e23" stroke-width="1.51"></path><path d="M325,115L256,178L361,157Z" fill="#ff7f11" stroke="#ff7f11" stroke-width="1.51"></path><path d="M256,178L322,258L361,157Z" fill="#ff7d0f" stroke="#ff7d0f" stroke-width="1.51"></path><path d="M231,22L208,59L325,115Z" fill="#ff8b1e" stroke="#ff8b1e" stroke-width="1.51"></path><path d="M310,-97L231,22L338,-16Z" fill="#ffa035" stroke="#ffa035" stroke-width="1.51"></path><path d="M231,-123L231,22L310,-97Z" fill="#ffa93d" stroke="#ffa93d" stroke-width="1.51"></path><path d="M256,178L261,272L322,258Z" fill="#ff7c0e" stroke="#ff7c0e" stroke-width="1.51"></path><path d="M208,59L256,178L325,115Z" fill="#ff8315" stroke="#ff8315" stroke-width="1.51"></path><path d="M231,-123L151,-106L231,22Z" fill="#ffac3f" stroke="#ffac3f" stroke-width="1.51"></path><path d="M151,-106L142,22L231,22Z" fill="#ffa235" stroke="#ffa235" stroke-width="1.51"></path><path d="M132,154L160,295L256,178Z" fill="#ff8113" stroke="#ff8113" stroke-width="1.51"></path><path d="M208,59L159,119L256,178Z" fill="#ff8517" stroke="#ff8517" stroke-width="1.51"></path><path d="M256,178L160,295L261,272Z" fill="#ff7d0f" stroke="#ff7d0f" stroke-width="1.51"></path><path d="M159,119L132,154L256,178Z" fill="#ff8416" stroke="#ff8416" stroke-width="1.51"></path><path d="M142,22L208,59L231,22Z" fill="#ff9427" stroke="#ff9427" stroke-width="1.51"></path><path d="M142,22L159,119L208,59Z" fill="#ff8d20" stroke="#ff8d20" stroke-width="1.51"></path><path d="M84,160L64,273L132,154Z" fill="#ff8d21" stroke="#ff8d21" stroke-width="1.51"></path><path d="M53,-25L142,22L151,-106Z" fill="#ffac3f" stroke="#ffac3f" stroke-width="1.51"></path><path d="M38,-69L53,-25L151,-106Z" fill="#ffb84b" stroke="#ffb84b" stroke-width="1.51"></path><path d="M84,160L132,154L159,119Z" fill="#ff8b1d" stroke="#ff8b1d" stroke-width="1.51"></path><path d="M43,73L84,160L159,119Z" fill="#ff9124" stroke="#ff9124" stroke-width="1.51"></path><path d="M142,22L43,73L159,119Z" fill="#ff9326" stroke="#ff9326" stroke-width="1.51"></path><path d="M132,154L64,273L160,295Z" fill="#ff861a" stroke="#ff861a" stroke-width="1.51"></path><path d="M1,-122L38,-69L151,-106Z" fill="#ffc254" stroke="#ffc254" stroke-width="1.51"></path><path d="M53,-25L43,73L142,22Z" fill="#ffa437" stroke="#ffa437" stroke-width="1.51"></path><path d="M43,73L-23,114L84,160Z" fill="#ff9b2e" stroke="#ff9b2e" stroke-width="1.51"></path><path d="M-45,176L64,273L84,160Z" fill="#ff962b" stroke="#ff962b" stroke-width="1.51"></path><path d="M-23,114L-45,176L84,160Z" fill="#ff9e32" stroke="#ff9e32" stroke-width="1.51"></path><path d="M-21,19L43,73L53,-25Z" fill="#ffad40" stroke="#ffad40" stroke-width="1.51"></path><path d="M-45,176L-57,251L64,273Z" fill="#ff9d32" stroke="#ff9d32" stroke-width="1.51"></path><path d="M38,-69L-21,19L53,-25Z" fill="#ffb84b" stroke="#ffb84b" stroke-width="1.51"></path><path d="M-21,19L-23,114L43,73Z" fill="#ffa63a" stroke="#ffa63a" stroke-width="1.51"></path><path d="M1,-122L-101,-94L38,-69Z" fill="#ffcf60" stroke="#ffcf60" stroke-width="1.51"></path><path d="M-101,-94L-21,19L38,-69Z" fill="#ffc557" stroke="#ffc557" stroke-width="1.51"></path><path d="M-104,27L-23,114L-21,19Z" fill="#ffb245" stroke="#ffb245" stroke-width="1.51"></path><path d="M-101,-94L-104,27L-21,19Z" fill="#ffc658" stroke="#ffc658" stroke-width="1.51"></path><path d="M-104,27L-151,70L-23,114Z" fill="#ffb548" stroke="#ffb548" stroke-width="1.51"></path><path d="M-132,168L-45,176L-23,114Z" fill="#ffaa3e" stroke="#ffaa3e" stroke-width="1.51"></path><path d="M-151,70L-132,168L-23,114Z" fill="#ffb145" stroke="#ffb145" stroke-width="1.51"></path><path d="M-132,168L-138,244L-57,251Z" fill="#ffad42" stroke="#ffad42" stroke-width="1.51"></path><path d="M-132,168L-57,251L-45,176Z" fill="#ffa93e" stroke="#ffa93e" stroke-width="1.51"></path><path d="M-151,70L-104,27L-101,-94Z" fill="#ffc95b" stroke="#ffc95b" stroke-width="1.51"></path><path d="M-151,70L-138,244L-132,168Z" fill="#ffb549" stroke="#ffb549" stroke-width="1.51"></path></svg>