<svg width="300" height="176" xmlns="http://www.w3.org/2000/svg"><path d="M161,74L120,13L88,98Z" fill="#fd9539" stroke="#fd9539" stroke-width="1.51"></path><path d="M120,13L66,30L88,98Z" fill="#f99f4d" stroke="#f99f4d" stroke-width="1.51"></path><path d="M88,98L126,154L161,74Z" fill="#fe8d27" stroke="#fe8d27" stroke-width="1.51"></path><path d="M-18,88L74,169L88,98Z" fill="#fa9b47" stroke="#fa9b47" stroke-width="1.51"></path><path d="M88,98L74,169L126,154Z" fill="#fc9033" stroke="#fc9033" stroke-width="1.51"></path><path d="M161,74L257,11L120,13Z" fill="#fb963e" stroke="#fb963e" stroke-width="1.51"></path><path d="M216,164L252,59L161,74Z" fill="#ff8618" stroke="#ff8618" stroke-width="1.51"></path><path d="M66,30L-18,88L88,98Z" fill="#f8a051" stroke="#f8a051" stroke-width="1.51"></path><path d="M66,30L3,-23L-18,88Z" fill="#f1af6f" stroke="#f1af6f" stroke-width="1.51"></path><path d="M33,-71L3,-23L66,30Z" fill="#ebb982" stroke="#ebb982" stroke-width="1.51"></path><path d="M126,154L216,164L161,74Z" fill="#ff8618" stroke="#ff8618" stroke-width="1.51"></path><path d="M178,257L216,164L126,154Z" fill="#ff8214" stroke="#ff8214" stroke-width="1.51"></path><path d="M252,59L257,11L161,74Z" fill="#fc9134" stroke="#fc9134" stroke-width="1.51"></path><path d="M120,13L33,-71L66,30Z" fill="#f1b06f" stroke="#f1b06f" stroke-width="1.51"></path><path d="M173,-104L33,-71L120,13Z" fill="#efb478" stroke="#efb478" stroke-width="1.51"></path><path d="M257,11L173,-104L120,13Z" fill="#f6a55c" stroke="#f6a55c" stroke-width="1.51"></path><path d="M-18,88L1,194L74,169Z" fill="#f89e50" stroke="#f89e50" stroke-width="1.51"></path><path d="M74,169L178,257L126,154Z" fill="#fe8823" stroke="#fe8823" stroke-width="1.51"></path><path d="M257,11L220,-107L173,-104Z" fill="#f1ae6e" stroke="#f1ae6e" stroke-width="1.51"></path><path d="M46,261L178,257L74,169Z" fill="#fd8b2e" stroke="#fd8b2e" stroke-width="1.51"></path><path d="M257,11L309,-78L220,-107Z" fill="#f3aa69" stroke="#f3aa69" stroke-width="1.51"></path><path d="M252,59L324,23L257,11Z" fill="#fb933c" stroke="#fb933c" stroke-width="1.51"></path><path d="M336,107L324,23L252,59Z" fill="#fe8a28" stroke="#fe8a28" stroke-width="1.51"></path><path d="M308,165L252,59L216,164Z" fill="#ff8214" stroke="#ff8214" stroke-width="1.51"></path><path d="M-58,-80L-96,54L3,-23Z" fill="#e2c69c" stroke="#e2c69c" stroke-width="1.51"></path><path d="M3,-23L-96,54L-18,88Z" fill="#edb77d" stroke="#edb77d" stroke-width="1.51"></path><path d="M-18,88L-98,185L1,194Z" fill="#f4a764" stroke="#f4a764" stroke-width="1.51"></path><path d="M-61,240L46,261L1,194Z" fill="#f79e56" stroke="#f79e56" stroke-width="1.51"></path><path d="M1,194L46,261L74,169Z" fill="#fa9646" stroke="#fa9646" stroke-width="1.51"></path><path d="M233,245L308,165L216,164Z" fill="#ff7f12" stroke="#ff7f12" stroke-width="1.51"></path><path d="M178,257L233,245L216,164Z" fill="#ff7f11" stroke="#ff7f11" stroke-width="1.51"></path><path d="M173,-104L-58,-80L33,-71Z" fill="#e2c59b" stroke="#e2c59b" stroke-width="1.51"></path><path d="M33,-71L-58,-80L3,-23Z" fill="#dfc9a2" stroke="#dfc9a2" stroke-width="1.51"></path><path d="M308,165L336,107L252,59Z" fill="#ff8214" stroke="#ff8214" stroke-width="1.51"></path><path d="M324,23L309,-78L257,11Z" fill="#f79e53" stroke="#f79e53" stroke-width="1.51"></path><path d="M-96,54L-98,185L-18,88Z" fill="#f1b071" stroke="#f1b071" stroke-width="1.51"></path><path d="M-98,185L-61,240L1,194Z" fill="#f3a868" stroke="#f3a868" stroke-width="1.51"></path><path d="M-96,54L-142,21L-98,185Z" fill="#ecb880" stroke="#ecb880" stroke-width="1.51"></path><path d="M-58,-80L-142,21L-96,54Z" fill="#ddcba6" stroke="#ddcba6" stroke-width="1.51"></path><path d="M387,166L389,88L336,107Z" fill="#ff7e11" stroke="#ff7e11" stroke-width="1.51"></path><path d="M336,107L389,88L324,23Z" fill="#fe8521" stroke="#fe8521" stroke-width="1.51"></path><path d="M324,23L386,-11L309,-78Z" fill="#f79e56" stroke="#f79e56" stroke-width="1.51"></path><path d="M387,166L336,107L308,165Z" fill="#ff7e10" stroke="#ff7e10" stroke-width="1.51"></path><path d="M389,88L386,-11L324,23Z" fill="#fc8f39" stroke="#fc8f39" stroke-width="1.51"></path><path d="M345,282L387,166L308,165Z" fill="#ff7b0d" stroke="#ff7b0d" stroke-width="1.51"></path><path d="M-58,-80L-140,-86L-142,21Z" fill="#ced8c2" stroke="#ced8c2" stroke-width="1.51"></path><path d="M173,-104L-140,-86L-58,-80Z" fill="#d8d0b1" stroke="#d8d0b1" stroke-width="1.51"></path><path d="M220,-107L-140,-86L173,-104Z" fill="#e4c396" stroke="#e4c396" stroke-width="1.51"></path><path d="M441,286L389,-75L386,-11Z" fill="#fe8423" stroke="#fe8423" stroke-width="1.51"></path><path d="M386,-11L389,-75L309,-78Z" fill="#f4a666" stroke="#f4a666" stroke-width="1.51"></path><path d="M309,-78L389,-75L220,-107Z" fill="#efaf76" stroke="#efaf76" stroke-width="1.51"></path><path d="M46,261L345,282L178,257Z" fill="#ff7e0f" stroke="#ff7e0f" stroke-width="1.51"></path><path d="M178,257L345,282L233,245Z" fill="#ff7b0d" stroke="#ff7b0d" stroke-width="1.51"></path><path d="M233,245L345,282L308,165Z" fill="#ff7b0d" stroke="#ff7b0d" stroke-width="1.51"></path><path d="M-98,185L-150,260L-61,240Z" fill="#efaf78" stroke="#efaf78" stroke-width="1.51"></path><path d="M-61,240L-150,260L46,261Z" fill="#f3a667" stroke="#f3a667" stroke-width="1.51"></path><path d="M46,261L-150,260L345,282Z" fill="#fc8c35" stroke="#fc8c35" stroke-width="1.51"></path><path d="M-142,21L-150,260L-98,185Z" fill="#ebb883" stroke="#ebb883" stroke-width="1.51"></path><path d="M-140,-86L-150,260L-142,21Z" fill="#e4c396" stroke="#e4c396" stroke-width="1.51"></path><path d="M345,282L441,286L387,166Z" fill="#ff7608" stroke="#ff7608" stroke-width="1.51"></path><path d="M387,166L441,286L389,88Z" fill="#ff7a0b" stroke="#ff7a0b" stroke-width="1.51"></path><path d="M389,88L441,286L386,-11Z" fill="#ff7d0f" stroke="#ff7d0f" stroke-width="1.51"></path></svg>