<svg width="300" height="176" xmlns="http://www.w3.org/2000/svg"><path d="M-145,-73L-35,-88L125,-117Z" fill="#d5d3b6" stroke="#d5d3b6" stroke-width="1.51"></path><path d="M144,273L91,279L220,277Z" fill="#ff7e11" stroke="#ff7e11" stroke-width="1.51"></path><path d="M91,279L-96,286L310,292Z" fill="#fd872c" stroke="#fd872c" stroke-width="1.51"></path><path d="M220,277L91,279L310,292Z" fill="#ff7c0e" stroke="#ff7c0e" stroke-width="1.51"></path><path d="M125,-117L217,-64L390,-103Z" fill="#eeb47b" stroke="#eeb47b" stroke-width="1.51"></path><path d="M390,-103L406,-18L453,161Z" fill="#fb9242" stroke="#fb9242" stroke-width="1.51"></path><path d="M406,-18L417,66L453,161Z" fill="#fe8321" stroke="#fe8321" stroke-width="1.51"></path><path d="M363,188L447,285L453,161Z" fill="#ff7708" stroke="#ff7708" stroke-width="1.51"></path><path d="M417,66L363,188L453,161Z" fill="#ff7c0e" stroke="#ff7c0e" stroke-width="1.51"></path><path d="M363,188L310,292L447,285Z" fill="#ff7707" stroke="#ff7707" stroke-width="1.51"></path><path d="M390,-103L351,-61L406,-18Z" fill="#f3a667" stroke="#f3a667" stroke-width="1.51"></path><path d="M406,-18L327,59L417,66Z" fill="#fc8e37" stroke="#fc8e37" stroke-width="1.51"></path><path d="M327,59L363,188L417,66Z" fill="#ff7f11" stroke="#ff7f11" stroke-width="1.51"></path><path d="M351,-61L301,-36L406,-18Z" fill="#f5a25e" stroke="#f5a25e" stroke-width="1.51"></path><path d="M301,-36L327,59L406,-18Z" fill="#f9984a" stroke="#f9984a" stroke-width="1.51"></path><path d="M327,59L259,145L363,188Z" fill="#ff8012" stroke="#ff8012" stroke-width="1.51"></path><path d="M217,-64L351,-61L390,-103Z" fill="#f1ac70" stroke="#f1ac70" stroke-width="1.51"></path><path d="M266,81L259,145L327,59Z" fill="#ff8315" stroke="#ff8315" stroke-width="1.51"></path><path d="M217,-64L301,-36L351,-61Z" fill="#f3a867" stroke="#f3a867" stroke-width="1.51"></path><path d="M259,145L310,292L363,188Z" fill="#ff7c0e" stroke="#ff7c0e" stroke-width="1.51"></path><path d="M259,145L220,277L310,292Z" fill="#ff7c0e" stroke="#ff7c0e" stroke-width="1.51"></path><path d="M301,-36L221,8L327,59Z" fill="#fa9847" stroke="#fa9847" stroke-width="1.51"></path><path d="M221,8L266,81L327,59Z" fill="#fd8e32" stroke="#fd8e32" stroke-width="1.51"></path><path d="M217,-64L221,8L301,-36Z" fill="#f6a45c" stroke="#f6a45c" stroke-width="1.51"></path><path d="M136,160L220,277L259,145Z" fill="#ff8113" stroke="#ff8113" stroke-width="1.51"></path><path d="M135,92L259,145L266,81Z" fill="#ff8517" stroke="#ff8517" stroke-width="1.51"></path><path d="M221,8L135,92L266,81Z" fill="#fd8e2c" stroke="#fd8e2c" stroke-width="1.51"></path><path d="M135,92L136,160L259,145Z" fill="#ff8617" stroke="#ff8617" stroke-width="1.51"></path><path d="M136,160L144,273L220,277Z" fill="#ff8012" stroke="#ff8012" stroke-width="1.51"></path><path d="M177,-12L135,92L221,8Z" fill="#fb973f" stroke="#fb973f" stroke-width="1.51"></path><path d="M217,-64L177,-12L221,8Z" fill="#f6a359" stroke="#f6a359" stroke-width="1.51"></path><path d="M125,-117L177,-12L217,-64Z" fill="#f1ae6e" stroke="#f1ae6e" stroke-width="1.51"></path><path d="M-35,-88L28,-80L125,-117Z" fill="#decaa4" stroke="#decaa4" stroke-width="1.51"></path><path d="M125,-117L28,-80L177,-12Z" fill="#ecb87f" stroke="#ecb87f" stroke-width="1.51"></path><path d="M28,-80L28,12L177,-12Z" fill="#efb376" stroke="#efb376" stroke-width="1.51"></path><path d="M28,12L135,92L177,-12Z" fill="#f99f4d" stroke="#f99f4d" stroke-width="1.51"></path><path d="M-1,249L-96,286L91,279Z" fill="#f79b54" stroke="#f79b54" stroke-width="1.51"></path><path d="M28,12L51,94L135,92Z" fill="#f99d4b" stroke="#f99d4b" stroke-width="1.51"></path><path d="M135,92L53,150L136,160Z" fill="#fd8f2e" stroke="#fd8f2e" stroke-width="1.51"></path><path d="M53,150L91,279L136,160Z" fill="#fd8e32" stroke="#fd8e32" stroke-width="1.51"></path><path d="M136,160L91,279L144,273Z" fill="#fe8623" stroke="#fe8623" stroke-width="1.51"></path><path d="M51,94L53,150L135,92Z" fill="#fc953b" stroke="#fc953b" stroke-width="1.51"></path><path d="M53,150L-1,249L91,279Z" fill="#fa9543" stroke="#fa9543" stroke-width="1.51"></path><path d="M28,12L-2,97L51,94Z" fill="#f6a55a" stroke="#f6a55a" stroke-width="1.51"></path><path d="M-59,158L-1,249L53,150Z" fill="#f7a056" stroke="#f7a056" stroke-width="1.51"></path><path d="M-2,97L-59,158L53,150Z" fill="#f7a258" stroke="#f7a258" stroke-width="1.51"></path><path d="M51,94L-2,97L53,150Z" fill="#f99d4c" stroke="#f99d4c" stroke-width="1.51"></path><path d="M-62,9L-2,97L28,12Z" fill="#f0b275" stroke="#f0b275" stroke-width="1.51"></path><path d="M-35,-88L-62,9L28,12Z" fill="#e4c396" stroke="#e4c396" stroke-width="1.51"></path><path d="M-35,-88L28,12L28,-80Z" fill="#e2c59a" stroke="#e2c59a" stroke-width="1.51"></path><path d="M-62,9L-135,84L-2,97Z" fill="#eeb67c" stroke="#eeb67c" stroke-width="1.51"></path><path d="M-59,158L-91,203L-1,249Z" fill="#f4a767" stroke="#f4a767" stroke-width="1.51"></path><path d="M-91,203L-96,286L-1,249Z" fill="#f3a769" stroke="#f3a769" stroke-width="1.51"></path><path d="M-135,84L-59,158L-2,97Z" fill="#f1ae6f" stroke="#f1ae6f" stroke-width="1.51"></path><path d="M-91,6L-135,84L-62,9Z" fill="#e5c295" stroke="#e5c295" stroke-width="1.51"></path><path d="M-91,6L-62,9L-35,-88Z" fill="#decaa4" stroke="#decaa4" stroke-width="1.51"></path><path d="M-145,-73L-91,6L-35,-88Z" fill="#d2d5bb" stroke="#d2d5bb" stroke-width="1.51"></path><path d="M-135,84L-91,203L-59,158Z" fill="#efb278" stroke="#efb278" stroke-width="1.51"></path><path d="M-135,84L-96,286L-91,203Z" fill="#eeb27a" stroke="#eeb27a" stroke-width="1.51"></path><path d="M-145,-73L-135,84L-91,6Z" fill="#dbcdab" stroke="#dbcdab" stroke-width="1.51"></path></svg>