<svg width="300" height="176" xmlns="http://www.w3.org/2000/svg"><path d="M128,252L-41,301L262,268Z" fill="#ff8419" stroke="#ff8419" stroke-width="1.51"></path><path d="M39,-121L209,-89L340,-120Z" fill="#ffb549" stroke="#ffb549" stroke-width="1.51"></path><path d="M330,258L262,268L398,253Z" fill="#ff780a" stroke="#ff780a" stroke-width="1.51"></path><path d="M328,186L421,211L435,92Z" fill="#ff7b0d" stroke="#ff7b0d" stroke-width="1.51"></path><path d="M358,55L328,186L435,92Z" fill="#ff7f11" stroke="#ff7f11" stroke-width="1.51"></path><path d="M423,-29L358,55L435,92Z" fill="#ff8b20" stroke="#ff8b20" stroke-width="1.51"></path><path d="M400,-69L317,-12L423,-29Z" fill="#ff9e34" stroke="#ff9e34" stroke-width="1.51"></path><path d="M317,-12L358,55L423,-29Z" fill="#ff952a" stroke="#ff952a" stroke-width="1.51"></path><path d="M328,186L398,253L421,211Z" fill="#ff780a" stroke="#ff780a" stroke-width="1.51"></path><path d="M328,186L330,258L398,253Z" fill="#ff790a" stroke="#ff790a" stroke-width="1.51"></path><path d="M340,-120L317,-12L400,-69Z" fill="#ffa63b" stroke="#ffa63b" stroke-width="1.51"></path><path d="M317,-12L240,79L358,55Z" fill="#ff8e23" stroke="#ff8e23" stroke-width="1.51"></path><path d="M255,156L328,186L358,55Z" fill="#ff8012" stroke="#ff8012" stroke-width="1.51"></path><path d="M240,79L255,156L358,55Z" fill="#ff8315" stroke="#ff8315" stroke-width="1.51"></path><path d="M39,-121L135,-82L209,-89Z" fill="#ffb84a" stroke="#ffb84a" stroke-width="1.51"></path><path d="M328,186L262,268L330,258Z" fill="#ff7a0d" stroke="#ff7a0d" stroke-width="1.51"></path><path d="M209,-89L317,-12L340,-120Z" fill="#ffa93e" stroke="#ffa93e" stroke-width="1.51"></path><path d="M209,-89L214,-9L317,-12Z" fill="#ffa237" stroke="#ffa237" stroke-width="1.51"></path><path d="M255,156L262,268L328,186Z" fill="#ff7d10" stroke="#ff7d10" stroke-width="1.51"></path><path d="M214,-9L240,79L317,-12Z" fill="#ff9529" stroke="#ff9529" stroke-width="1.51"></path><path d="M255,156L161,210L262,268Z" fill="#ff7f11" stroke="#ff7f11" stroke-width="1.51"></path><path d="M161,210L128,252L262,268Z" fill="#ff7f11" stroke="#ff7f11" stroke-width="1.51"></path><path d="M129,60L161,210L240,79Z" fill="#ff8718" stroke="#ff8718" stroke-width="1.51"></path><path d="M240,79L161,210L255,156Z" fill="#ff8315" stroke="#ff8315" stroke-width="1.51"></path><path d="M214,-9L164,-5L240,79Z" fill="#ff972a" stroke="#ff972a" stroke-width="1.51"></path><path d="M164,-5L129,60L240,79Z" fill="#ff9225" stroke="#ff9225" stroke-width="1.51"></path><path d="M129,60L78,119L161,210Z" fill="#ff8b1e" stroke="#ff8b1e" stroke-width="1.51"></path><path d="M135,-82L164,-5L209,-89Z" fill="#ffaa3e" stroke="#ffaa3e" stroke-width="1.51"></path><path d="M209,-89L164,-5L214,-9Z" fill="#ffa438" stroke="#ffa438" stroke-width="1.51"></path><path d="M53,236L-41,301L128,252Z" fill="#ff9127" stroke="#ff9127" stroke-width="1.51"></path><path d="M78,119L77,176L161,210Z" fill="#ff8c20" stroke="#ff8c20" stroke-width="1.51"></path><path d="M135,-82L32,23L164,-5Z" fill="#ffa93c" stroke="#ffa93c" stroke-width="1.51"></path><path d="M32,23L129,60L164,-5Z" fill="#ff9f32" stroke="#ff9f32" stroke-width="1.51"></path><path d="M77,176L128,252L161,210Z" fill="#ff871a" stroke="#ff871a" stroke-width="1.51"></path><path d="M-15,-32L32,23L39,-121Z" fill="#ffbd4f" stroke="#ffbd4f" stroke-width="1.51"></path><path d="M77,176L53,236L128,252Z" fill="#ff8c22" stroke="#ff8c22" stroke-width="1.51"></path><path d="M39,-121L32,23L135,-82Z" fill="#ffb84b" stroke="#ffb84b" stroke-width="1.51"></path><path d="M32,23L78,119L129,60Z" fill="#ff9a2d" stroke="#ff9a2d" stroke-width="1.51"></path><path d="M-152,-111L-41,-85L39,-121Z" fill="#ffd668" stroke="#ffd668" stroke-width="1.51"></path><path d="M-42,189L53,236L77,176Z" fill="#ff972d" stroke="#ff972d" stroke-width="1.51"></path><path d="M-26,98L-42,189L77,176Z" fill="#ff9e33" stroke="#ff9e33" stroke-width="1.51"></path><path d="M-26,98L77,176L78,119Z" fill="#ff982d" stroke="#ff982d" stroke-width="1.51"></path><path d="M32,23L-26,98L78,119Z" fill="#ff9f33" stroke="#ff9f33" stroke-width="1.51"></path><path d="M-41,-85L-15,-32L39,-121Z" fill="#ffc95b" stroke="#ffc95b" stroke-width="1.51"></path><path d="M-42,189L-41,301L53,236Z" fill="#ff9c32" stroke="#ff9c32" stroke-width="1.51"></path><path d="M-15,-32L-26,98L32,23Z" fill="#ffb043" stroke="#ffb043" stroke-width="1.51"></path><path d="M-42,189L-95,259L-41,301Z" fill="#ffa439" stroke="#ffa439" stroke-width="1.51"></path><path d="M-117,106L-42,189L-26,98Z" fill="#ffaa3e" stroke="#ffaa3e" stroke-width="1.51"></path><path d="M-138,19L-117,106L-26,98Z" fill="#ffb547" stroke="#ffb547" stroke-width="1.51"></path><path d="M-138,19L-26,98L-15,-32Z" fill="#ffb94c" stroke="#ffb94c" stroke-width="1.51"></path><path d="M-41,-85L-138,19L-15,-32Z" fill="#ffc85a" stroke="#ffc85a" stroke-width="1.51"></path><path d="M-117,106L-146,160L-42,189Z" fill="#ffaf44" stroke="#ffaf44" stroke-width="1.51"></path><path d="M-152,-111L-138,19L-41,-85Z" fill="#ffd567" stroke="#ffd567" stroke-width="1.51"></path><path d="M-146,160L-95,259L-42,189Z" fill="#ffac41" stroke="#ffac41" stroke-width="1.51"></path><path d="M-138,19L-146,160L-117,106Z" fill="#ffb74a" stroke="#ffb74a" stroke-width="1.51"></path><path d="M-152,-111L-146,160L-138,19Z" fill="#ffc85a" stroke="#ffc85a" stroke-width="1.51"></path></svg>