<svg width="300" height="176" xmlns="http://www.w3.org/2000/svg"><path d="M79,251L-131,278L226,290Z" fill="#ff8f25" stroke="#ff8f25" stroke-width="1.51"></path><path d="M151,-116L238,-91L320,-88Z" fill="#ffb145" stroke="#ffb145" stroke-width="1.51"></path><path d="M337,207L350,292L422,286Z" fill="#ff7607" stroke="#ff7607" stroke-width="1.51"></path><path d="M406,65L330,83L431,165Z" fill="#ff7f10" stroke="#ff7f10" stroke-width="1.51"></path><path d="M337,207L422,286L431,165Z" fill="#ff7809" stroke="#ff7809" stroke-width="1.51"></path><path d="M348,-28L392,-14L435,-67Z" fill="#ff9d33" stroke="#ff9d33" stroke-width="1.51"></path><path d="M320,-88L348,-28L435,-67Z" fill="#ffa439" stroke="#ffa439" stroke-width="1.51"></path><path d="M406,65L431,165L435,-67Z" fill="#ff871b" stroke="#ff871b" stroke-width="1.51"></path><path d="M392,-14L406,65L435,-67Z" fill="#ff952b" stroke="#ff952b" stroke-width="1.51"></path><path d="M330,83L337,207L431,165Z" fill="#ff7d0f" stroke="#ff7d0f" stroke-width="1.51"></path><path d="M348,-28L330,83L392,-14Z" fill="#ff9328" stroke="#ff9328" stroke-width="1.51"></path><path d="M392,-14L330,83L406,65Z" fill="#ff8b20" stroke="#ff8b20" stroke-width="1.51"></path><path d="M-14,248L-131,278L79,251Z" fill="#ff9d33" stroke="#ff9d33" stroke-width="1.51"></path><path d="M238,101L272,206L330,83Z" fill="#ff8214" stroke="#ff8214" stroke-width="1.51"></path><path d="M330,83L272,206L337,207Z" fill="#ff7e10" stroke="#ff7e10" stroke-width="1.51"></path><path d="M221,2L330,83L348,-28Z" fill="#ff9428" stroke="#ff9428" stroke-width="1.51"></path><path d="M337,207L272,206L350,292Z" fill="#ff7a0c" stroke="#ff7a0c" stroke-width="1.51"></path><path d="M272,206L226,290L350,292Z" fill="#ff7a0c" stroke="#ff7a0c" stroke-width="1.51"></path><path d="M320,-88L221,2L348,-28Z" fill="#ffa136" stroke="#ffa136" stroke-width="1.51"></path><path d="M238,-91L221,2L320,-88Z" fill="#ffa73c" stroke="#ffa73c" stroke-width="1.51"></path><path d="M221,2L238,101L330,83Z" fill="#ff8b1e" stroke="#ff8b1e" stroke-width="1.51"></path><path d="M137,254L79,251L226,290Z" fill="#ff8012" stroke="#ff8012" stroke-width="1.51"></path><path d="M238,101L154,192L272,206Z" fill="#ff8214" stroke="#ff8214" stroke-width="1.51"></path><path d="M154,192L226,290L272,206Z" fill="#ff7f10" stroke="#ff7f10" stroke-width="1.51"></path><path d="M-135,-114L-22,-100L82,-125Z" fill="#ffd365" stroke="#ffd365" stroke-width="1.51"></path><path d="M181,11L164,54L221,2Z" fill="#ff972a" stroke="#ff972a" stroke-width="1.51"></path><path d="M154,192L137,254L226,290Z" fill="#ff7f12" stroke="#ff7f12" stroke-width="1.51"></path><path d="M181,11L221,2L238,-91Z" fill="#ffa136" stroke="#ffa136" stroke-width="1.51"></path><path d="M151,-116L181,11L238,-91Z" fill="#ffab3f" stroke="#ffab3f" stroke-width="1.51"></path><path d="M221,2L164,54L238,101Z" fill="#ff8f22" stroke="#ff8f22" stroke-width="1.51"></path><path d="M164,54L154,192L238,101Z" fill="#ff8618" stroke="#ff8618" stroke-width="1.51"></path><path d="M45,179L154,192L164,54Z" fill="#ff8b1e" stroke="#ff8b1e" stroke-width="1.51"></path><path d="M40,62L45,179L164,54Z" fill="#ff9427" stroke="#ff9427" stroke-width="1.51"></path><path d="M41,-32L164,54L181,11Z" fill="#ff9f32" stroke="#ff9f32" stroke-width="1.51"></path><path d="M151,-116L41,-32L181,11Z" fill="#ffac3f" stroke="#ffac3f" stroke-width="1.51"></path><path d="M82,-125L41,-32L151,-116Z" fill="#ffbc4f" stroke="#ffbc4f" stroke-width="1.51"></path><path d="M41,-32L40,62L164,54Z" fill="#ffa336" stroke="#ffa336" stroke-width="1.51"></path><path d="M79,251L137,254L154,192Z" fill="#ff8619" stroke="#ff8619" stroke-width="1.51"></path><path d="M45,179L79,251L154,192Z" fill="#ff8c21" stroke="#ff8c21" stroke-width="1.51"></path><path d="M40,62L-20,95L45,179Z" fill="#ff9d31" stroke="#ff9d31" stroke-width="1.51"></path><path d="M45,179L-14,248L79,251Z" fill="#ff952a" stroke="#ff952a" stroke-width="1.51"></path><path d="M-22,-100L41,-32L82,-125Z" fill="#ffc456" stroke="#ffc456" stroke-width="1.51"></path><path d="M-47,24L40,62L41,-32Z" fill="#ffb144" stroke="#ffb144" stroke-width="1.51"></path><path d="M-20,95L-2,187L45,179Z" fill="#ff9e32" stroke="#ff9e32" stroke-width="1.51"></path><path d="M-2,187L-14,248L45,179Z" fill="#ff9a30" stroke="#ff9a30" stroke-width="1.51"></path><path d="M-47,24L-20,95L40,62Z" fill="#ffaa3d" stroke="#ffaa3d" stroke-width="1.51"></path><path d="M-22,-100L-47,24L41,-32Z" fill="#ffc052" stroke="#ffc052" stroke-width="1.51"></path><path d="M-87,146L-14,248L-2,187Z" fill="#ffa237" stroke="#ffa237" stroke-width="1.51"></path><path d="M-20,95L-87,146L-2,187Z" fill="#ffa539" stroke="#ffa539" stroke-width="1.51"></path><path d="M-135,-114L-120,30L-47,24Z" fill="#ffcb5d" stroke="#ffcb5d" stroke-width="1.51"></path><path d="M-135,-114L-47,24L-22,-100Z" fill="#ffcf61" stroke="#ffcf61" stroke-width="1.51"></path><path d="M-47,24L-91,103L-20,95Z" fill="#ffae41" stroke="#ffae41" stroke-width="1.51"></path><path d="M-91,103L-87,146L-20,95Z" fill="#ffab3f" stroke="#ffab3f" stroke-width="1.51"></path><path d="M-87,146L-131,278L-14,248Z" fill="#ffa83d" stroke="#ffa83d" stroke-width="1.51"></path><path d="M-120,30L-91,103L-47,24Z" fill="#ffb84b" stroke="#ffb84b" stroke-width="1.51"></path><path d="M-91,103L-120,30L-87,146Z" fill="#ffb245" stroke="#ffb245" stroke-width="1.51"></path><path d="M-120,30L-131,278L-87,146Z" fill="#ffb145" stroke="#ffb145" stroke-width="1.51"></path><path d="M-135,-114L-131,278L-120,30Z" fill="#ffbc4f" stroke="#ffbc4f" stroke-width="1.51"></path></svg>