<svg width="300" height="176" xmlns="http://www.w3.org/2000/svg"><path d="M143,271L-117,285L219,293Z" fill="#ff8a20" stroke="#ff8a20" stroke-width="1.51"></path><path d="M389,-33L340,54L430,63Z" fill="#ff8e23" stroke="#ff8e23" stroke-width="1.51"></path><path d="M340,54L356,157L430,63Z" fill="#ff8012" stroke="#ff8012" stroke-width="1.51"></path><path d="M430,63L356,157L435,171Z" fill="#ff7c0e" stroke="#ff7c0e" stroke-width="1.51"></path><path d="M356,157L388,260L435,171Z" fill="#ff790b" stroke="#ff790b" stroke-width="1.51"></path><path d="M244,-117L359,-99L438,-95Z" fill="#ffae43" stroke="#ffae43" stroke-width="1.51"></path><path d="M359,-99L389,-33L438,-95Z" fill="#ffa63c" stroke="#ffa63c" stroke-width="1.51"></path><path d="M389,-33L430,63L438,-95Z" fill="#ff992f" stroke="#ff992f" stroke-width="1.51"></path><path d="M430,63L435,171L438,-95Z" fill="#ff881e" stroke="#ff881e" stroke-width="1.51"></path><path d="M-96,-77L-50,-73L163,-117Z" fill="#ffc95b" stroke="#ffc95b" stroke-width="1.51"></path><path d="M356,157L333,289L388,260Z" fill="#ff780a" stroke="#ff780a" stroke-width="1.51"></path><path d="M359,-99L310,-18L389,-33Z" fill="#ffa237" stroke="#ffa237" stroke-width="1.51"></path><path d="M310,-18L340,54L389,-33Z" fill="#ff962b" stroke="#ff962b" stroke-width="1.51"></path><path d="M340,54L220,62L356,157Z" fill="#ff8315" stroke="#ff8315" stroke-width="1.51"></path><path d="M220,62L219,171L356,157Z" fill="#ff8214" stroke="#ff8214" stroke-width="1.51"></path><path d="M219,171L333,289L356,157Z" fill="#ff7d0f" stroke="#ff7d0f" stroke-width="1.51"></path><path d="M244,-117L310,-18L359,-99Z" fill="#ffaa3f" stroke="#ffaa3f" stroke-width="1.51"></path><path d="M219,171L219,293L333,289Z" fill="#ff7b0e" stroke="#ff7b0e" stroke-width="1.51"></path><path d="M310,-18L220,62L340,54Z" fill="#ff9125" stroke="#ff9125" stroke-width="1.51"></path><path d="M244,-117L211,23L310,-18Z" fill="#ffa237" stroke="#ffa237" stroke-width="1.51"></path><path d="M211,23L220,62L310,-18Z" fill="#ff9529" stroke="#ff9529" stroke-width="1.51"></path><path d="M71,244L-38,253L143,271Z" fill="#ff8f25" stroke="#ff8f25" stroke-width="1.51"></path><path d="M-38,253L-117,285L143,271Z" fill="#ff992f" stroke="#ff992f" stroke-width="1.51"></path><path d="M-50,-73L68,-70L163,-117Z" fill="#ffc052" stroke="#ffc052" stroke-width="1.51"></path><path d="M163,-117L150,7L211,23Z" fill="#ffa437" stroke="#ffa437" stroke-width="1.51"></path><path d="M150,207L143,271L219,293Z" fill="#ff7f11" stroke="#ff7f11" stroke-width="1.51"></path><path d="M150,207L219,293L219,171Z" fill="#ff8012" stroke="#ff8012" stroke-width="1.51"></path><path d="M134,121L219,171L220,62Z" fill="#ff8617" stroke="#ff8617" stroke-width="1.51"></path><path d="M163,-117L211,23L244,-117Z" fill="#ffac40" stroke="#ffac40" stroke-width="1.51"></path><path d="M134,121L150,207L219,171Z" fill="#ff8416" stroke="#ff8416" stroke-width="1.51"></path><path d="M211,23L150,7L220,62Z" fill="#ff9528" stroke="#ff9528" stroke-width="1.51"></path><path d="M150,7L134,121L220,62Z" fill="#ff8f21" stroke="#ff8f21" stroke-width="1.51"></path><path d="M134,121L79,153L150,207Z" fill="#ff8a1d" stroke="#ff8a1d" stroke-width="1.51"></path><path d="M50,62L134,121L150,7Z" fill="#ff9629" stroke="#ff9629" stroke-width="1.51"></path><path d="M68,-70L150,7L163,-117Z" fill="#ffaf42" stroke="#ffaf42" stroke-width="1.51"></path><path d="M71,244L143,271L150,207Z" fill="#ff8619" stroke="#ff8619" stroke-width="1.51"></path><path d="M79,153L71,244L150,207Z" fill="#ff8b1f" stroke="#ff8b1f" stroke-width="1.51"></path><path d="M68,-70L34,9L150,7Z" fill="#ffad40" stroke="#ffad40" stroke-width="1.51"></path><path d="M34,9L50,62L150,7Z" fill="#ffa437" stroke="#ffa437" stroke-width="1.51"></path><path d="M50,62L79,153L134,121Z" fill="#ff9225" stroke="#ff9225" stroke-width="1.51"></path><path d="M50,62L-8,64L79,153Z" fill="#ff9b2f" stroke="#ff9b2f" stroke-width="1.51"></path><path d="M-8,64L-41,207L79,153Z" fill="#ff9e32" stroke="#ff9e32" stroke-width="1.51"></path><path d="M-41,207L71,244L79,153Z" fill="#ff962b" stroke="#ff962b" stroke-width="1.51"></path><path d="M-47,-35L34,9L68,-70Z" fill="#ffba4d" stroke="#ffba4d" stroke-width="1.51"></path><path d="M-41,207L-38,253L71,244Z" fill="#ff9b31" stroke="#ff9b31" stroke-width="1.51"></path><path d="M-50,-73L-47,-35L68,-70Z" fill="#ffc557" stroke="#ffc557" stroke-width="1.51"></path><path d="M34,9L-8,64L50,62Z" fill="#ffa83b" stroke="#ffa83b" stroke-width="1.51"></path><path d="M-47,-35L-8,64L34,9Z" fill="#ffb447" stroke="#ffb447" stroke-width="1.51"></path><path d="M-104,81L-125,197L-41,207Z" fill="#ffad41" stroke="#ffad41" stroke-width="1.51"></path><path d="M-47,-35L-98,17L-8,64Z" fill="#ffbb4e" stroke="#ffbb4e" stroke-width="1.51"></path><path d="M-98,17L-104,81L-8,64Z" fill="#ffb548" stroke="#ffb548" stroke-width="1.51"></path><path d="M-104,81L-41,207L-8,64Z" fill="#ffa93d" stroke="#ffa93d" stroke-width="1.51"></path><path d="M-41,207L-125,197L-38,253Z" fill="#ffa73c" stroke="#ffa73c" stroke-width="1.51"></path><path d="M-125,197L-117,285L-38,253Z" fill="#ffa93f" stroke="#ffa93f" stroke-width="1.51"></path><path d="M-50,-73L-96,-77L-47,-35Z" fill="#ffce60" stroke="#ffce60" stroke-width="1.51"></path><path d="M-96,-77L-98,17L-47,-35Z" fill="#ffca5c" stroke="#ffca5c" stroke-width="1.51"></path><path d="M-125,197L-104,81L-98,17Z" fill="#ffb446" stroke="#ffb446" stroke-width="1.51"></path><path d="M-125,197L-98,17L-96,-77Z" fill="#ffbd4f" stroke="#ffbd4f" stroke-width="1.51"></path></svg>