<svg width="300" height="176" xmlns="http://www.w3.org/2000/svg"><path d="M180,78L269,12L181,21Z" fill="#f5a562" stroke="#f5a562" stroke-width="1.51"></path><path d="M180,78L260,108L269,12Z" fill="#fc913a" stroke="#fc913a" stroke-width="1.51"></path><path d="M269,12L208,-87L181,21Z" fill="#e7bc8e" stroke="#e7bc8e" stroke-width="1.51"></path><path d="M359,76L333,-16L269,12Z" fill="#f2a76d" stroke="#f2a76d" stroke-width="1.51"></path><path d="M180,78L230,176L260,108Z" fill="#ff7f11" stroke="#ff7f11" stroke-width="1.51"></path><path d="M260,108L359,76L269,12Z" fill="#fc8d38" stroke="#fc8d38" stroke-width="1.51"></path><path d="M340,177L359,76L260,108Z" fill="#ff7809" stroke="#ff7809" stroke-width="1.51"></path><path d="M333,-16L208,-87L269,12Z" fill="#e8b88c" stroke="#e8b88c" stroke-width="1.51"></path><path d="M181,21L51,58L180,78Z" fill="#f6a55a" stroke="#f6a55a" stroke-width="1.51"></path><path d="M208,-87L141,-89L181,21Z" fill="#e6bf90" stroke="#e6bf90" stroke-width="1.51"></path><path d="M230,176L340,177L260,108Z" fill="#ff7505" stroke="#ff7505" stroke-width="1.51"></path><path d="M180,78L147,211L230,176Z" fill="#ff7c0f" stroke="#ff7c0f" stroke-width="1.51"></path><path d="M39,1L51,58L181,21Z" fill="#e1c69c" stroke="#e1c69c" stroke-width="1.51"></path><path d="M333,-16L349,-93L208,-87Z" fill="#e9b68a" stroke="#e9b68a" stroke-width="1.51"></path><path d="M359,76L396,-10L333,-16Z" fill="#efab76" stroke="#efab76" stroke-width="1.51"></path><path d="M433,55L396,-10L359,76Z" fill="#f69c59" stroke="#f69c59" stroke-width="1.51"></path><path d="M34,160L147,211L180,78Z" fill="#fc8c33" stroke="#fc8c33" stroke-width="1.51"></path><path d="M230,176L273,254L340,177Z" fill="#ff7101" stroke="#ff7101" stroke-width="1.51"></path><path d="M396,-10L349,-93L333,-16Z" fill="#e9b68a" stroke="#e9b68a" stroke-width="1.51"></path><path d="M208,-87L-50,-122L141,-89Z" fill="#d5d2b6" stroke="#d5d2b6" stroke-width="1.51"></path><path d="M141,-89L39,1L181,21Z" fill="#dccba7" stroke="#dccba7" stroke-width="1.51"></path><path d="M397,187L433,55L359,76Z" fill="#ff7a0c" stroke="#ff7a0c" stroke-width="1.51"></path><path d="M396,-10L425,-114L349,-93Z" fill="#e9b68a" stroke="#e9b68a" stroke-width="1.51"></path><path d="M147,211L273,254L230,176Z" fill="#ff7708" stroke="#ff7708" stroke-width="1.51"></path><path d="M340,177L397,187L359,76Z" fill="#ff7405" stroke="#ff7405" stroke-width="1.51"></path><path d="M415,252L397,187L340,177Z" fill="#ff6f00" stroke="#ff6f00" stroke-width="1.51"></path><path d="M141,-89L59,-94L39,1Z" fill="#ccd9c4" stroke="#ccd9c4" stroke-width="1.51"></path><path d="M-50,-122L59,-94L141,-89Z" fill="#bde4da" stroke="#bde4da" stroke-width="1.51"></path><path d="M-15,106L34,160L51,58Z" fill="#ecb67f" stroke="#ecb67f" stroke-width="1.51"></path><path d="M51,58L34,160L180,78Z" fill="#f89f51" stroke="#f89f51" stroke-width="1.51"></path><path d="M39,1L-2,3L51,58Z" fill="#c5dfcf" stroke="#c5dfcf" stroke-width="1.51"></path><path d="M59,-94L-2,3L39,1Z" fill="#b2eae7" stroke="#b2eae7" stroke-width="1.51"></path><path d="M-2,3L-15,106L51,58Z" fill="#d7d0b1" stroke="#d7d0b1" stroke-width="1.51"></path><path d="M56,262L147,211L34,160Z" fill="#f89951" stroke="#f89951" stroke-width="1.51"></path><path d="M56,262L157,296L147,211Z" fill="#fd8931" stroke="#fd8931" stroke-width="1.51"></path><path d="M147,211L157,296L273,254Z" fill="#ff790b" stroke="#ff790b" stroke-width="1.51"></path><path d="M349,-93L425,-114L208,-87Z" fill="#e9b68a" stroke="#e9b68a" stroke-width="1.51"></path><path d="M433,55L425,-114L396,-10Z" fill="#e9b68a" stroke="#e9b68a" stroke-width="1.51"></path><path d="M157,296L336,294L273,254Z" fill="#ff7304" stroke="#ff7304" stroke-width="1.51"></path><path d="M273,254L336,294L340,177Z" fill="#ff6f00" stroke="#ff6f00" stroke-width="1.51"></path><path d="M-50,237L56,262L34,160Z" fill="#ecb181" stroke="#ecb181" stroke-width="1.51"></path><path d="M336,294L415,252L340,177Z" fill="#ff6f00" stroke="#ff6f00" stroke-width="1.51"></path><path d="M397,187L415,252L433,55Z" fill="#ff7102" stroke="#ff7102" stroke-width="1.51"></path><path d="M-15,106L-37,174L34,160Z" fill="#e8b98d" stroke="#e8b98d" stroke-width="1.51"></path><path d="M-106,145L-37,174L-15,106Z" fill="#e8ba8d" stroke="#e8ba8d" stroke-width="1.51"></path><path d="M-150,8L-94,92L-2,3Z" fill="#c1e1d4" stroke="#c1e1d4" stroke-width="1.51"></path><path d="M-2,3L-94,92L-15,106Z" fill="#dbcdab" stroke="#dbcdab" stroke-width="1.51"></path><path d="M59,-94L-50,-122L-2,3Z" fill="#9af4fd" stroke="#9af4fd" stroke-width="1.51"></path><path d="M425,-114L-50,-122L208,-87Z" fill="#e7be90" stroke="#e7be90" stroke-width="1.51"></path><path d="M-106,145L-50,237L-37,174Z" fill="#e9b68a" stroke="#e9b68a" stroke-width="1.51"></path><path d="M-37,174L-50,237L34,160Z" fill="#e9b68a" stroke="#e9b68a" stroke-width="1.51"></path><path d="M56,262L-90,293L157,296Z" fill="#f2a76d" stroke="#f2a76d" stroke-width="1.51"></path><path d="M-94,92L-106,145L-15,106Z" fill="#e7be8f" stroke="#e7be8f" stroke-width="1.51"></path><path d="M-150,8L-106,145L-94,92Z" fill="#e3c499" stroke="#e3c499" stroke-width="1.51"></path><path d="M-122,-101L-150,8L-2,3Z" fill="#98f5ff" stroke="#98f5ff" stroke-width="1.51"></path><path d="M-50,-122L-122,-101L-2,3Z" fill="#98f5ff" stroke="#98f5ff" stroke-width="1.51"></path><path d="M-106,145L-90,293L-50,237Z" fill="#e9b68a" stroke="#e9b68a" stroke-width="1.51"></path><path d="M-50,237L-90,293L56,262Z" fill="#e9b68a" stroke="#e9b68a" stroke-width="1.51"></path><path d="M-150,8L-90,293L-106,145Z" fill="#e8b98c" stroke="#e8b98c" stroke-width="1.51"></path></svg>