<svg width="300" height="176" xmlns="http://www.w3.org/2000/svg"><path d="M170,112L244,183L239,82Z" fill="#ff8516" stroke="#ff8516" stroke-width="1.51"></path><path d="M170,112L156,188L244,183Z" fill="#ff8415" stroke="#ff8415" stroke-width="1.51"></path><path d="M244,183L326,113L239,82Z" fill="#ff8214" stroke="#ff8214" stroke-width="1.51"></path><path d="M239,82L140,10L170,112Z" fill="#fe8d29" stroke="#fe8d29" stroke-width="1.51"></path><path d="M326,113L245,28L239,82Z" fill="#fe8822" stroke="#fe8822" stroke-width="1.51"></path><path d="M78,84L80,151L170,112Z" fill="#fd8f2e" stroke="#fd8f2e" stroke-width="1.51"></path><path d="M170,112L80,151L156,188Z" fill="#ff8920" stroke="#ff8920" stroke-width="1.51"></path><path d="M244,183L352,187L326,113Z" fill="#ff7f11" stroke="#ff7f11" stroke-width="1.51"></path><path d="M311,243L352,187L244,183Z" fill="#ff7d0f" stroke="#ff7d0f" stroke-width="1.51"></path><path d="M225,276L311,243L244,183Z" fill="#ff7c0e" stroke="#ff7c0e" stroke-width="1.51"></path><path d="M156,188L225,276L244,183Z" fill="#ff8012" stroke="#ff8012" stroke-width="1.51"></path><path d="M165,292L225,276L156,188Z" fill="#ff7e11" stroke="#ff7e11" stroke-width="1.51"></path><path d="M245,28L140,10L239,82Z" fill="#fc9338" stroke="#fc9338" stroke-width="1.51"></path><path d="M140,10L78,84L170,112Z" fill="#fd9232" stroke="#fd9232" stroke-width="1.51"></path><path d="M40,289L165,292L156,188Z" fill="#fe8524" stroke="#fe8524" stroke-width="1.51"></path><path d="M326,113L309,-15L245,28Z" fill="#fc9035" stroke="#fc9035" stroke-width="1.51"></path><path d="M352,187L388,101L326,113Z" fill="#ff7e11" stroke="#ff7e11" stroke-width="1.51"></path><path d="M388,101L309,-15L326,113Z" fill="#fe8725" stroke="#fe8725" stroke-width="1.51"></path><path d="M245,28L179,-91L140,10Z" fill="#f7a357" stroke="#f7a357" stroke-width="1.51"></path><path d="M352,187L394,203L388,101Z" fill="#ff7c0e" stroke="#ff7c0e" stroke-width="1.51"></path><path d="M311,243L394,203L352,187Z" fill="#ff7a0c" stroke="#ff7a0c" stroke-width="1.51"></path><path d="M140,10L82,-10L78,84Z" fill="#f8a253" stroke="#f8a253" stroke-width="1.51"></path><path d="M179,-91L82,-10L140,10Z" fill="#f4aa64" stroke="#f4aa64" stroke-width="1.51"></path><path d="M238,-120L179,-91L245,28Z" fill="#f2ac6c" stroke="#f2ac6c" stroke-width="1.51"></path><path d="M311,243L386,298L394,203Z" fill="#ff7808" stroke="#ff7808" stroke-width="1.51"></path><path d="M225,276L386,298L311,243Z" fill="#ff780a" stroke="#ff780a" stroke-width="1.51"></path><path d="M165,292L386,298L225,276Z" fill="#ff790b" stroke="#ff790b" stroke-width="1.51"></path><path d="M80,151L40,289L156,188Z" fill="#fd8d32" stroke="#fd8d32" stroke-width="1.51"></path><path d="M165,292L-60,292L386,298Z" fill="#ff7d0f" stroke="#ff7d0f" stroke-width="1.51"></path><path d="M-53,155L40,289L80,151Z" fill="#f99b4d" stroke="#f99b4d" stroke-width="1.51"></path><path d="M-37,110L80,151L78,84Z" fill="#fa9c49" stroke="#fa9c49" stroke-width="1.51"></path><path d="M309,-15L238,-120L245,28Z" fill="#f5a45e" stroke="#f5a45e" stroke-width="1.51"></path><path d="M388,101L406,-30L309,-15Z" fill="#fb9340" stroke="#fb9340" stroke-width="1.51"></path><path d="M449,-106L406,-30L388,101Z" fill="#f8994f" stroke="#f8994f" stroke-width="1.51"></path><path d="M345,-114L238,-120L309,-15Z" fill="#f0af74" stroke="#f0af74" stroke-width="1.51"></path><path d="M-29,-13L-37,110L78,84Z" fill="#f4aa65" stroke="#f4aa65" stroke-width="1.51"></path><path d="M-37,110L-53,155L80,151Z" fill="#f7a258" stroke="#f7a258" stroke-width="1.51"></path><path d="M406,-30L345,-114L309,-15Z" fill="#f4a565" stroke="#f4a565" stroke-width="1.51"></path><path d="M-131,88L-123,183L-53,155Z" fill="#eeb37b" stroke="#eeb37b" stroke-width="1.51"></path><path d="M82,-10L-29,-13L78,84Z" fill="#f2ad6b" stroke="#f2ad6b" stroke-width="1.51"></path><path d="M-45,-69L-29,-13L82,-10Z" fill="#e6c191" stroke="#e6c191" stroke-width="1.51"></path><path d="M61,-125L82,-10L179,-91Z" fill="#ebba83" stroke="#ebba83" stroke-width="1.51"></path><path d="M238,-120L61,-125L179,-91Z" fill="#eabb85" stroke="#eabb85" stroke-width="1.51"></path><path d="M-53,155L-60,292L40,289Z" fill="#f6a05c" stroke="#f6a05c" stroke-width="1.51"></path><path d="M40,289L-60,292L165,292Z" fill="#fb9141" stroke="#fb9141" stroke-width="1.51"></path><path d="M406,-30L449,-106L345,-114Z" fill="#f0ab72" stroke="#f0ab72" stroke-width="1.51"></path><path d="M394,203L449,-106L388,101Z" fill="#fe8424" stroke="#fe8424" stroke-width="1.51"></path><path d="M386,298L449,-106L394,203Z" fill="#ff7c0e" stroke="#ff7c0e" stroke-width="1.51"></path><path d="M61,-125L-45,-69L82,-10Z" fill="#e3c498" stroke="#e3c498" stroke-width="1.51"></path><path d="M-131,88L-53,155L-37,110Z" fill="#f1b072" stroke="#f1b072" stroke-width="1.51"></path><path d="M-53,155L-102,262L-60,292Z" fill="#f2a96d" stroke="#f2a96d" stroke-width="1.51"></path><path d="M-131,88L-37,110L-112,-7Z" fill="#ebba85" stroke="#ebba85" stroke-width="1.51"></path><path d="M-123,183L-102,262L-53,155Z" fill="#efaf75" stroke="#efaf75" stroke-width="1.51"></path><path d="M-112,-7L-37,110L-29,-13Z" fill="#e9bd89" stroke="#e9bd89" stroke-width="1.51"></path><path d="M-45,-69L-112,-7L-29,-13Z" fill="#ddcba7" stroke="#ddcba7" stroke-width="1.51"></path><path d="M-45,-69L-131,-62L-112,-7Z" fill="#d3d5ba" stroke="#d3d5ba" stroke-width="1.51"></path><path d="M-112,-7L-131,-62L-131,88Z" fill="#dbcdab" stroke="#dbcdab" stroke-width="1.51"></path><path d="M61,-125L-131,-62L-45,-69Z" fill="#d3d4b9" stroke="#d3d4b9" stroke-width="1.51"></path></svg>