<svg width="300" height="176" xmlns="http://www.w3.org/2000/svg"><path d="M150,78L139,9L82,86Z" fill="#f5a75e" stroke="#f5a75e" stroke-width="1.51"></path><path d="M139,9L70,22L82,86Z" fill="#e9bc88" stroke="#e9bc88" stroke-width="1.51"></path><path d="M139,9L88,-105L70,22Z" fill="#d5d3b6" stroke="#d5d3b6" stroke-width="1.51"></path><path d="M150,78L218,-10L139,9Z" fill="#f1b072" stroke="#f1b072" stroke-width="1.51"></path><path d="M82,86L162,163L150,78Z" fill="#fd8e2d" stroke="#fd8e2d" stroke-width="1.51"></path><path d="M150,78L256,73L218,-10Z" fill="#f79f55" stroke="#f79f55" stroke-width="1.51"></path><path d="M-29,94L52,175L82,86Z" fill="#efb076" stroke="#efb076" stroke-width="1.51"></path><path d="M82,86L52,175L162,163Z" fill="#fa9645" stroke="#fa9645" stroke-width="1.51"></path><path d="M162,163L256,73L150,78Z" fill="#ff8315" stroke="#ff8315" stroke-width="1.51"></path><path d="M70,22L-29,94L82,86Z" fill="#e7bf8e" stroke="#e7bf8e" stroke-width="1.51"></path><path d="M132,-123L88,-105L139,9Z" fill="#dccba8" stroke="#dccba8" stroke-width="1.51"></path><path d="M70,22L-43,-36L-29,94Z" fill="#bae6dd" stroke="#bae6dd" stroke-width="1.51"></path><path d="M218,-10L226,-79L139,9Z" fill="#e7be90" stroke="#e7be90" stroke-width="1.51"></path><path d="M334,21L226,-79L218,-10Z" fill="#e8b98c" stroke="#e8b98c" stroke-width="1.51"></path><path d="M226,-79L132,-123L139,9Z" fill="#e6bf91" stroke="#e6bf91" stroke-width="1.51"></path><path d="M-16,-95L-43,-36L70,22Z" fill="#9cf4fc" stroke="#9cf4fc" stroke-width="1.51"></path><path d="M256,73L298,55L218,-10Z" fill="#f6a05c" stroke="#f6a05c" stroke-width="1.51"></path><path d="M325,148L298,55L256,73Z" fill="#ff7c0e" stroke="#ff7c0e" stroke-width="1.51"></path><path d="M132,-123L-16,-95L88,-105Z" fill="#c7decd" stroke="#c7decd" stroke-width="1.51"></path><path d="M88,-105L-16,-95L70,22Z" fill="#bbe5dc" stroke="#bbe5dc" stroke-width="1.51"></path><path d="M272,245L265,173L162,163Z" fill="#ff7506" stroke="#ff7506" stroke-width="1.51"></path><path d="M162,163L265,173L256,73Z" fill="#ff7c0e" stroke="#ff7c0e" stroke-width="1.51"></path><path d="M-29,94L-8,206L52,175Z" fill="#eab688" stroke="#eab688" stroke-width="1.51"></path><path d="M52,175L161,269L162,163Z" fill="#fd862c" stroke="#fd862c" stroke-width="1.51"></path><path d="M390,22L334,21L406,85Z" fill="#f79b56" stroke="#f79b56" stroke-width="1.51"></path><path d="M298,55L334,21L218,-10Z" fill="#f1a970" stroke="#f1a970" stroke-width="1.51"></path><path d="M49,292L161,269L52,175Z" fill="#f9954b" stroke="#f9954b" stroke-width="1.51"></path><path d="M265,173L325,148L256,73Z" fill="#ff7809" stroke="#ff7809" stroke-width="1.51"></path><path d="M272,245L325,148L265,173Z" fill="#ff7001" stroke="#ff7001" stroke-width="1.51"></path><path d="M334,21L297,-114L226,-79Z" fill="#e9b78b" stroke="#e9b78b" stroke-width="1.51"></path><path d="M226,-79L297,-114L132,-123Z" fill="#e7bc8e" stroke="#e7bc8e" stroke-width="1.51"></path><path d="M-8,206L49,292L52,175Z" fill="#f0ab74" stroke="#f0ab74" stroke-width="1.51"></path><path d="M-121,-102L-130,-20L-43,-36Z" fill="#98f5ff" stroke="#98f5ff" stroke-width="1.51"></path><path d="M-43,-36L-130,-20L-29,94Z" fill="#aaeeef" stroke="#aaeeef" stroke-width="1.51"></path><path d="M-29,94L-133,157L-8,206Z" fill="#e8b98c" stroke="#e8b98c" stroke-width="1.51"></path><path d="M161,269L272,245L162,163Z" fill="#ff780a" stroke="#ff780a" stroke-width="1.51"></path><path d="M-8,206L-44,293L49,292Z" fill="#e9b68a" stroke="#e9b68a" stroke-width="1.51"></path><path d="M-130,-20L-151,71L-29,94Z" fill="#ced9c2" stroke="#ced9c2" stroke-width="1.51"></path><path d="M-151,71L-133,157L-29,94Z" fill="#e6bf90" stroke="#e6bf90" stroke-width="1.51"></path><path d="M-130,-20L-121,-102L-151,71Z" fill="#98f5ff" stroke="#98f5ff" stroke-width="1.51"></path><path d="M-16,-95L-121,-102L-43,-36Z" fill="#98f5ff" stroke="#98f5ff" stroke-width="1.51"></path><path d="M132,-123L-121,-102L-16,-95Z" fill="#98f5ff" stroke="#98f5ff" stroke-width="1.51"></path><path d="M334,21L419,-63L297,-114Z" fill="#e9b68a" stroke="#e9b68a" stroke-width="1.51"></path><path d="M406,85L334,21L298,55Z" fill="#fa9448" stroke="#fa9448" stroke-width="1.51"></path><path d="M-109,293L-44,293L-8,206Z" fill="#e9b68a" stroke="#e9b68a" stroke-width="1.51"></path><path d="M325,148L406,85L298,55Z" fill="#ff7b0d" stroke="#ff7b0d" stroke-width="1.51"></path><path d="M401,197L406,85L325,148Z" fill="#ff7405" stroke="#ff7405" stroke-width="1.51"></path><path d="M272,245L401,197L325,148Z" fill="#ff6f00" stroke="#ff6f00" stroke-width="1.51"></path><path d="M161,269L326,286L272,245Z" fill="#ff7304" stroke="#ff7304" stroke-width="1.51"></path><path d="M49,292L326,286L161,269Z" fill="#ff7a0c" stroke="#ff7a0c" stroke-width="1.51"></path><path d="M326,286L401,197L272,245Z" fill="#ff6f00" stroke="#ff6f00" stroke-width="1.51"></path><path d="M390,22L419,-63L334,21Z" fill="#e9b68a" stroke="#e9b68a" stroke-width="1.51"></path><path d="M406,85L419,-63L390,22Z" fill="#efad78" stroke="#efad78" stroke-width="1.51"></path><path d="M448,256L419,-63L406,85Z" fill="#ff7c0e" stroke="#ff7c0e" stroke-width="1.51"></path><path d="M-133,157L-109,293L-8,206Z" fill="#e9b68a" stroke="#e9b68a" stroke-width="1.51"></path><path d="M-151,71L-109,293L-133,157Z" fill="#e9b68a" stroke="#e9b68a" stroke-width="1.51"></path><path d="M401,197L448,256L406,85Z" fill="#ff6f00" stroke="#ff6f00" stroke-width="1.51"></path><path d="M326,286L448,256L401,197Z" fill="#ff6f00" stroke="#ff6f00" stroke-width="1.51"></path></svg>