<svg width="300" height="176" xmlns="http://www.w3.org/2000/svg"><path d="M166,118L219,83L129,2Z" fill="#fe8e29" stroke="#fe8e29" stroke-width="1.51"></path><path d="M219,83L235,1L129,2Z" fill="#fb9740" stroke="#fb9740" stroke-width="1.51"></path><path d="M129,2L55,58L166,118Z" fill="#fc973d" stroke="#fc973d" stroke-width="1.51"></path><path d="M129,2L49,-1L55,58Z" fill="#f5a85f" stroke="#f5a85f" stroke-width="1.51"></path><path d="M34,-71L49,-1L129,2Z" fill="#efb377" stroke="#efb377" stroke-width="1.51"></path><path d="M235,1L226,-71L129,2Z" fill="#f6a35a" stroke="#f6a35a" stroke-width="1.51"></path><path d="M166,118L267,195L219,83Z" fill="#ff8416" stroke="#ff8416" stroke-width="1.51"></path><path d="M46,211L170,205L166,118Z" fill="#fe8823" stroke="#fe8823" stroke-width="1.51"></path><path d="M226,-71L169,-107L129,2Z" fill="#f2ad6b" stroke="#f2ad6b" stroke-width="1.51"></path><path d="M353,74L340,0L235,1Z" fill="#fb933e" stroke="#fb933e" stroke-width="1.51"></path><path d="M235,1L315,-66L226,-71Z" fill="#f4a763" stroke="#f4a763" stroke-width="1.51"></path><path d="M170,205L267,195L166,118Z" fill="#ff8315" stroke="#ff8315" stroke-width="1.51"></path><path d="M49,-1L-35,75L55,58Z" fill="#f3ab66" stroke="#f3ab66" stroke-width="1.51"></path><path d="M169,-107L34,-71L129,2Z" fill="#eeb57a" stroke="#eeb57a" stroke-width="1.51"></path><path d="M226,-71L315,-66L169,-107Z" fill="#f0b075" stroke="#f0b075" stroke-width="1.51"></path><path d="M353,74L235,1L219,83Z" fill="#fd8e30" stroke="#fd8e30" stroke-width="1.51"></path><path d="M314,179L353,74L219,83Z" fill="#ff8214" stroke="#ff8214" stroke-width="1.51"></path><path d="M55,58L46,211L166,118Z" fill="#fd9236" stroke="#fd9236" stroke-width="1.51"></path><path d="M-44,164L46,211L55,58Z" fill="#f89e51" stroke="#f89e51" stroke-width="1.51"></path><path d="M340,0L315,-66L235,1Z" fill="#f79f57" stroke="#f79f57" stroke-width="1.51"></path><path d="M267,195L314,179L219,83Z" fill="#ff8113" stroke="#ff8113" stroke-width="1.51"></path><path d="M-38,-18L-35,75L49,-1Z" fill="#edb77d" stroke="#edb77d" stroke-width="1.51"></path><path d="M34,-71L-38,-18L49,-1Z" fill="#e8be8d" stroke="#e8be8d" stroke-width="1.51"></path><path d="M170,205L251,252L267,195Z" fill="#ff7f11" stroke="#ff7f11" stroke-width="1.51"></path><path d="M267,195L251,252L314,179Z" fill="#ff7d0f" stroke="#ff7d0f" stroke-width="1.51"></path><path d="M139,272L251,252L170,205Z" fill="#ff7f11" stroke="#ff7f11" stroke-width="1.51"></path><path d="M46,211L139,272L170,205Z" fill="#fe8726" stroke="#fe8726" stroke-width="1.51"></path><path d="M34,-71L-16,-80L-38,-18Z" fill="#e0c8a0" stroke="#e0c8a0" stroke-width="1.51"></path><path d="M169,-107L-16,-80L34,-71Z" fill="#e4c497" stroke="#e4c497" stroke-width="1.51"></path><path d="M46,211L75,277L139,272Z" fill="#fc8c33" stroke="#fc8c33" stroke-width="1.51"></path><path d="M-35,75L-44,164L55,58Z" fill="#f6a55b" stroke="#f6a55b" stroke-width="1.51"></path><path d="M-147,80L-44,164L-35,75Z" fill="#f0b072" stroke="#f0b072" stroke-width="1.51"></path><path d="M-27,261L75,277L46,211Z" fill="#fa9748" stroke="#fa9748" stroke-width="1.51"></path><path d="M-38,-18L-90,-10L-35,75Z" fill="#e7bf8f" stroke="#e7bf8f" stroke-width="1.51"></path><path d="M-16,-80L-90,-10L-38,-18Z" fill="#ddcaa5" stroke="#ddcaa5" stroke-width="1.51"></path><path d="M340,0L417,-26L315,-66Z" fill="#f6a05a" stroke="#f6a05a" stroke-width="1.51"></path><path d="M353,74L417,-26L340,0Z" fill="#fa9342" stroke="#fa9342" stroke-width="1.51"></path><path d="M436,116L417,-26L353,74Z" fill="#fd882b" stroke="#fd882b" stroke-width="1.51"></path><path d="M-44,164L-27,261L46,211Z" fill="#f79f58" stroke="#f79f58" stroke-width="1.51"></path><path d="M-87,236L-27,261L-44,164Z" fill="#f3a767" stroke="#f3a767" stroke-width="1.51"></path><path d="M419,186L436,116L353,74Z" fill="#ff7d0f" stroke="#ff7d0f" stroke-width="1.51"></path><path d="M419,186L353,74L314,179Z" fill="#ff7e0f" stroke="#ff7e0f" stroke-width="1.51"></path><path d="M346,283L419,186L314,179Z" fill="#ff7a0c" stroke="#ff7a0c" stroke-width="1.51"></path><path d="M417,-26L424,-70L315,-66Z" fill="#f4a564" stroke="#f4a564" stroke-width="1.51"></path><path d="M315,-66L424,-70L169,-107Z" fill="#f0ae73" stroke="#f0ae73" stroke-width="1.51"></path><path d="M436,116L424,-70L417,-26Z" fill="#fa9445" stroke="#fa9445" stroke-width="1.51"></path><path d="M75,277L346,283L139,272Z" fill="#ff7d0f" stroke="#ff7d0f" stroke-width="1.51"></path><path d="M139,272L346,283L251,252Z" fill="#ff7b0d" stroke="#ff7b0d" stroke-width="1.51"></path><path d="M251,252L346,283L314,179Z" fill="#ff7b0d" stroke="#ff7b0d" stroke-width="1.51"></path><path d="M-115,197L-87,236L-44,164Z" fill="#f0ad72" stroke="#f0ad72" stroke-width="1.51"></path><path d="M-90,-10L-147,80L-35,75Z" fill="#e8be8b" stroke="#e8be8b" stroke-width="1.51"></path><path d="M-147,80L-115,197L-44,164Z" fill="#eeb37a" stroke="#eeb37a" stroke-width="1.51"></path><path d="M-90,-10L-111,-115L-147,80Z" fill="#d7d1b2" stroke="#d7d1b2" stroke-width="1.51"></path><path d="M-16,-80L-111,-115L-90,-10Z" fill="#d1d6bd" stroke="#d1d6bd" stroke-width="1.51"></path><path d="M169,-107L-111,-115L-16,-80Z" fill="#d9cfaf" stroke="#d9cfaf" stroke-width="1.51"></path><path d="M346,283L425,278L419,186Z" fill="#ff7607" stroke="#ff7607" stroke-width="1.51"></path><path d="M419,186L425,278L436,116Z" fill="#ff7809" stroke="#ff7809" stroke-width="1.51"></path></svg>